<?xml version="1.0" encoding="UTF-8" standalone="no"?>
<!DOCTYPE svg PUBLIC "-//W3C//DTD SVG 1.1//EN"
 "http://www.w3.org/Graphics/SVG/1.1/DTD/svg11.dtd">
<!-- Generated by graphviz version 2.43.0 (0)
 -->
<!-- Title: %3 Pages: 1 -->
<svg width="3080pt" height="1976pt"
 viewBox="0.00 0.00 3080.00 1975.75" xmlns="http://www.w3.org/2000/svg" xmlns:xlink="http://www.w3.org/1999/xlink">
<g id="graph0" class="graph" transform="scale(1 1) rotate(0) translate(4 1971.75)">
<title>%3</title>
<polygon fill="white" stroke="transparent" points="-4,4 -4,-1971.75 3076,-1971.75 3076,4 -4,4"/>
<text text-anchor="start" x="1055.5" y="-11.8" font-family="Arial" font-size="34.00">Deployment View: Browser Memory Daemon &#45; Daily&#45;driver local</text>
<g id="clust1" class="cluster">
<title>cluster_85</title>
<polygon fill="none" stroke="#444444" points="8,-64 8,-1959.75 3064,-1959.75 3064,-64 8,-64"/>
<text text-anchor="start" x="1441.5" y="-92.8" font-family="Arial" font-size="24.00" fill="#444444">Local workstation</text>
<text text-anchor="start" x="1374" y="-72.8" font-family="Arial" font-size="19.00" fill="#444444">[Deployment Node: Windows + WSL2]</text>
</g>
<g id="clust2" class="cluster">
<title>cluster_86</title>
<polygon fill="none" stroke="#444444" points="1921,-890.38 1921,-1934.75 3039,-1934.75 3039,-890.38 1921,-890.38"/>
<text text-anchor="start" x="2367.5" y="-919.17" font-family="Arial" font-size="24.00" fill="#444444">Windows user profile</text>
<text text-anchor="start" x="2326.5" y="-899.17" font-family="Arial" font-size="19.00" fill="#444444">[Deployment Node: Windows profile]</text>
</g>
<g id="clust3" class="cluster">
<title>cluster_87</title>
<polygon fill="none" stroke="#444444" points="1946,-966.38 1946,-1909.75 3014,-1909.75 3014,-966.38 1946,-966.38"/>
<text text-anchor="start" x="2285.5" y="-995.17" font-family="Arial" font-size="24.00" fill="#444444">Windows Chrome daily&#45;driver profile</text>
<text text-anchor="start" x="2304.5" y="-975.17" font-family="Arial" font-size="19.00" fill="#444444">[Deployment Node: Google Chrome MV3]</text>
</g>
<g id="clust4" class="cluster">
<title>cluster_93</title>
<polygon fill="none" stroke="#444444" points="33,-140 33,-1922.75 1896,-1922.75 1896,-140 33,-140"/>
<text text-anchor="start" x="889" y="-168.8" font-family="Arial" font-size="24.00" fill="#444444">WSL2 Ubuntu</text>
<text text-anchor="start" x="774" y="-148.8" font-family="Arial" font-size="19.00" fill="#444444">[Deployment Node: Ubuntu + systemd &#45;&#45;user]</text>
</g>
<g id="clust5" class="cluster">
<title>cluster_102</title>
<polygon fill="none" stroke="#444444" points="217,-216 217,-780.38 1563,-780.38 1563,-216 217,-216"/>
<text text-anchor="start" x="731" y="-244.8" font-family="Arial" font-size="24.00" fill="#444444">WSL XDG runtime data paths</text>
<text text-anchor="start" x="738" y="-224.8" font-family="Arial" font-size="19.00" fill="#444444">[Deployment Node: WSL filesystem]</text>
</g>
<g id="clust6" class="cluster">
<title>cluster_94</title>
<polygon fill="none" stroke="#444444" points="933,-980.06 933,-1418.06 1871,-1418.06 1871,-980.06 933,-980.06"/>
<text text-anchor="start" x="1274" y="-1008.86" font-family="Arial" font-size="24.00" fill="#444444">systemd &#45;&#45;user services</text>
<text text-anchor="start" x="1253" y="-988.86" font-family="Arial" font-size="19.00" fill="#444444">[Deployment Node: systemd &#45;&#45;user]</text>
</g>
<g id="clust7" class="cluster">
<title>cluster_99</title>
<polygon fill="none" stroke="#444444" points="339,-1541.75 339,-1897.75 903,-1897.75 903,-1541.75 339,-1541.75"/>
<text text-anchor="start" x="567" y="-1570.55" font-family="Arial" font-size="24.00" fill="#444444">WSL shell</text>
<text text-anchor="start" x="472" y="-1550.55" font-family="Arial" font-size="19.00" fill="#444444">[Deployment Node: Bash + Python]</text>
</g>
<!-- 88 -->
<g id="88" class="node">
<title>88</title>
<polygon fill="#438dd5" stroke="#2e6295" points="2989,-1884.75 2555,-1884.75 2555,-1605.75 2989,-1605.75 2989,-1884.75"/>
<text text-anchor="start" x="2592" y="-1836.55" font-family="Arial" font-size="34.00" fill="#ffffff">Chrome MV3 Extension</text>
<text text-anchor="start" x="2584" y="-1814.55" font-family="Arial" font-size="19.00" fill="#ffffff">[Container: JavaScript, Chrome Manifest V3]</text>
<text text-anchor="start" x="2629" y="-1777.55" font-family="Arial" font-size="24.00" fill="#ffffff">Captures visible page text,</text>
<text text-anchor="start" x="2654.5" y="-1753.55" font-family="Arial" font-size="24.00" fill="#ffffff">media references, tab</text>
<text text-anchor="start" x="2663" y="-1729.55" font-family="Arial" font-size="24.00" fill="#ffffff">lifecycle events, and</text>
<text text-anchor="start" x="2606" y="-1705.55" font-family="Arial" font-size="24.00" fill="#ffffff">browser&#45;side media bytes from</text>
<text text-anchor="start" x="2601" y="-1681.55" font-family="Arial" font-size="24.00" fill="#ffffff">Windows Chrome; queues work</text>
<text text-anchor="start" x="2613" y="-1657.55" font-family="Arial" font-size="24.00" fill="#ffffff">durably and posts to the WSL</text>
<text text-anchor="start" x="2724.5" y="-1633.55" font-family="Arial" font-size="24.00" fill="#ffffff">daemon.</text>
</g>
<!-- 89 -->
<g id="89" class="node">
<title>89</title>
<path fill="#2f95c8" stroke="#20688c" d="M2912.5,-1373.78C2912.5,-1392.08 2810.98,-1406.94 2686,-1406.94 2561.02,-1406.94 2459.5,-1392.08 2459.5,-1373.78 2459.5,-1373.78 2459.5,-1075.35 2459.5,-1075.35 2459.5,-1057.05 2561.02,-1042.19 2686,-1042.19 2810.98,-1042.19 2912.5,-1057.05 2912.5,-1075.35 2912.5,-1075.35 2912.5,-1373.78 2912.5,-1373.78"/>
<path fill="none" stroke="#20688c" d="M2912.5,-1373.78C2912.5,-1355.48 2810.98,-1340.62 2686,-1340.62 2561.02,-1340.62 2459.5,-1355.48 2459.5,-1373.78"/>
<text text-anchor="start" x="2544" y="-1308.86" font-family="Arial" font-size="34.00" fill="#ffffff">Extension Browser</text>
<text text-anchor="start" x="2626.5" y="-1274.86" font-family="Arial" font-size="34.00" fill="#ffffff">Storage</text>
<text text-anchor="start" x="2488.5" y="-1252.86" font-family="Arial" font-size="19.00" fill="#ffffff">[Container: chrome.storage.local + IndexedDB]</text>
<text text-anchor="start" x="2553.5" y="-1215.86" font-family="Arial" font-size="24.00" fill="#ffffff">Browser&#45;side storage for</text>
<text text-anchor="start" x="2541.5" y="-1191.86" font-family="Arial" font-size="24.00" fill="#ffffff">capture and visit queues in</text>
<text text-anchor="start" x="2547.5" y="-1167.86" font-family="Arial" font-size="24.00" fill="#ffffff">chrome.storage.local plus</text>
<text text-anchor="start" x="2553.5" y="-1143.86" font-family="Arial" font-size="24.00" fill="#ffffff">durable media tasks and</text>
<text text-anchor="start" x="2534.5" y="-1119.86" font-family="Arial" font-size="24.00" fill="#ffffff">fetched blobs in IndexedDB.</text>
</g>
<!-- 88&#45;&gt;89 -->
<g id="90" class="edge">
<title>88&#45;&gt;89</title>
<path fill="none" stroke="#444444" stroke-dasharray="5,2" d="M2749.01,-1605.59C2739.42,-1547.77 2728.13,-1479.64 2717.77,-1417.15"/>
<polygon fill="#444444" stroke="#444444" points="2721.2,-1416.47 2716.11,-1407.18 2714.3,-1417.61 2721.2,-1416.47"/>
<text text-anchor="start" x="2745.5" y="-1515.55" font-family="Arial" font-size="24.00" fill="#444444">Queues captures, lifecycle</text>
<text text-anchor="start" x="2753.5" y="-1491.55" font-family="Arial" font-size="24.00" fill="#444444">events, media tasks, and</text>
<text text-anchor="start" x="2845.5" y="-1467.55" font-family="Arial" font-size="24.00" fill="#444444">blobs in</text>
<text text-anchor="start" x="2736" y="-1447.55" font-family="Arial" font-size="19.00" fill="#444444">[chrome.storage.local + IndexedDB]</text>
</g>
<!-- 95 -->
<g id="95" class="node">
<title>95</title>
<polygon fill="#438dd5" stroke="#2e6295" points="1846,-1393.06 1384,-1393.06 1384,-1056.06 1846,-1056.06 1846,-1393.06"/>
<text text-anchor="start" x="1450.5" y="-1344.86" font-family="Arial" font-size="34.00" fill="#ffffff">WSL Loopback HTTP</text>
<text text-anchor="start" x="1550.5" y="-1310.86" font-family="Arial" font-size="34.00" fill="#ffffff">Daemon</text>
<text text-anchor="start" x="1413" y="-1288.86" font-family="Arial" font-size="19.00" fill="#ffffff">[Container: Python 3.11, ThreadingHTTPServer]</text>
<text text-anchor="start" x="1454" y="-1251.86" font-family="Arial" font-size="24.00" fill="#ffffff">Authenticated loopback HTTP</text>
<text text-anchor="start" x="1479" y="-1227.86" font-family="Arial" font-size="24.00" fill="#ffffff">API that handles capture,</text>
<text text-anchor="start" x="1475.5" y="-1203.86" font-family="Arial" font-size="24.00" fill="#ffffff">visit events, media artifact</text>
<text text-anchor="start" x="1478.5" y="-1179.86" font-family="Arial" font-size="24.00" fill="#ffffff">upload/fetch/purge, exact</text>
<text text-anchor="start" x="1575" y="-1155.86" font-family="Arial" font-size="24.00" fill="#ffffff">search,</text>
<text text-anchor="start" x="1466" y="-1131.86" font-family="Arial" font-size="24.00" fill="#ffffff">recent/timeline/detail, policy</text>
<text text-anchor="start" x="1484" y="-1107.86" font-family="Arial" font-size="24.00" fill="#ffffff">rules, doctor, forget, and</text>
<text text-anchor="start" x="1525.5" y="-1083.86" font-family="Arial" font-size="24.00" fill="#ffffff">static UI serving.</text>
</g>
<!-- 88&#45;&gt;95 -->
<g id="96" class="edge">
<title>88&#45;&gt;95</title>
<path fill="none" stroke="#444444" stroke-dasharray="5,2" d="M2631.19,-1605.71C2597,-1579.79 2558.76,-1556.3 2519,-1541.75 2487.48,-1530.22 2249.79,-1540.94 2217,-1533.75 2116.85,-1511.78 2101.04,-1478.67 2005,-1442.75 1971.34,-1430.16 1960.65,-1433.07 1928,-1418.06 1903.87,-1406.97 1879.3,-1394.39 1855.09,-1381.11"/>
<polygon fill="#444444" stroke="#444444" points="1856.63,-1377.96 1846.18,-1376.18 1853.24,-1384.09 1856.63,-1377.96"/>
<text text-anchor="start" x="2334.5" y="-1515.55" font-family="Arial" font-size="24.00" fill="#444444">Posts captures, events,</text>
<text text-anchor="start" x="2323.5" y="-1491.55" font-family="Arial" font-size="24.00" fill="#444444">media metadata, and raw</text>
<text text-anchor="start" x="2418" y="-1467.55" font-family="Arial" font-size="24.00" fill="#444444">blobs to</text>
<text text-anchor="start" x="2217" y="-1447.55" font-family="Arial" font-size="19.00" fill="#444444">[Bearer HTTP/JSON; raw HTTP PUT over 127.0.0.1:8765]</text>
</g>
<!-- 91 -->
<g id="91" class="node">
<title>91</title>
<polygon fill="#438dd5" stroke="#2e6295" points="2483,-1872.75 1971,-1872.75 1971,-1617.75 2483,-1617.75 2483,-1872.75"/>
<text text-anchor="start" x="2124.5" y="-1824.55" font-family="Arial" font-size="34.00" fill="#ffffff">Local Web UI</text>
<text text-anchor="start" x="2000" y="-1802.55" font-family="Arial" font-size="19.00" fill="#ffffff">[Container: HTML/CSS/JavaScript served by daemon]</text>
<text text-anchor="start" x="2085" y="-1765.55" font-family="Arial" font-size="24.00" fill="#ffffff">Static browser UI for exact</text>
<text text-anchor="start" x="2068" y="-1741.55" font-family="Arial" font-size="24.00" fill="#ffffff">search, recent/timeline views,</text>
<text text-anchor="start" x="2085.5" y="-1717.55" font-family="Arial" font-size="24.00" fill="#ffffff">document/snapshot detail,</text>
<text text-anchor="start" x="2070" y="-1693.55" font-family="Arial" font-size="24.00" fill="#ffffff">media artifact opening, policy</text>
<text text-anchor="start" x="2133.5" y="-1669.55" font-family="Arial" font-size="24.00" fill="#ffffff">rules, doctor, and</text>
<text text-anchor="start" x="2088.5" y="-1645.55" font-family="Arial" font-size="24.00" fill="#ffffff">forget&#45;domain operations.</text>
</g>
<!-- 91&#45;&gt;95 -->
<g id="97" class="edge">
<title>91&#45;&gt;95</title>
<path fill="none" stroke="#444444" stroke-dasharray="5,2" d="M1970.71,-1683.97C1882.05,-1652.06 1788.4,-1604.31 1722,-1533.75 1687.96,-1497.57 1664.68,-1450.01 1648.79,-1403.11"/>
<polygon fill="#444444" stroke="#444444" points="1652.06,-1401.84 1645.61,-1393.43 1645.41,-1404.02 1652.06,-1401.84"/>
<text text-anchor="start" x="1722.5" y="-1515.55" font-family="Arial" font-size="24.00" fill="#444444">Calls authenticated read,</text>
<text text-anchor="start" x="1722" y="-1491.55" font-family="Arial" font-size="24.00" fill="#444444">admin, media, and forget</text>
<text text-anchor="start" x="1814" y="-1467.55" font-family="Arial" font-size="24.00" fill="#444444">APIs on</text>
<text text-anchor="start" x="1798.5" y="-1447.55" font-family="Arial" font-size="19.00" fill="#444444">[HTTP/JSON]</text>
</g>
<!-- 103 -->
<g id="103" class="node">
<title>103</title>
<path fill="#2f95c8" stroke="#20688c" d="M1066,-713.4C1066,-736.67 987.11,-755.56 890,-755.56 792.89,-755.56 714,-736.67 714,-713.4 714,-713.4 714,-333.97 714,-333.97 714,-310.71 792.89,-291.81 890,-291.81 987.11,-291.81 1066,-310.71 1066,-333.97 1066,-333.97 1066,-713.4 1066,-713.4"/>
<path fill="none" stroke="#20688c" d="M1066,-713.4C1066,-690.14 987.11,-671.24 890,-671.24 792.89,-671.24 714,-690.14 714,-713.4"/>
<text text-anchor="start" x="777" y="-643.99" font-family="Arial" font-size="34.00" fill="#ffffff">SQLite + FTS5</text>
<text text-anchor="start" x="817" y="-609.99" font-family="Arial" font-size="34.00" fill="#ffffff">Database</text>
<text text-anchor="start" x="764" y="-587.99" font-family="Arial" font-size="19.00" fill="#ffffff">[Container: SQLite with FTS5]</text>
<text text-anchor="start" x="771" y="-550.99" font-family="Arial" font-size="24.00" fill="#ffffff">Durable relational and</text>
<text text-anchor="start" x="753.5" y="-526.99" font-family="Arial" font-size="24.00" fill="#ffffff">full&#45;text store for sources,</text>
<text text-anchor="start" x="769.5" y="-502.99" font-family="Arial" font-size="24.00" fill="#ffffff">documents, visits, visit</text>
<text text-anchor="start" x="744" y="-478.99" font-family="Arial" font-size="24.00" fill="#ffffff">events, snapshots, chunks,</text>
<text text-anchor="start" x="743" y="-454.99" font-family="Arial" font-size="24.00" fill="#ffffff">chunks_fts, media artifacts,</text>
<text text-anchor="start" x="758" y="-430.99" font-family="Arial" font-size="24.00" fill="#ffffff">media fetch tasks, policy</text>
<text text-anchor="start" x="764.5" y="-406.99" font-family="Arial" font-size="24.00" fill="#ffffff">rules, audit events, and</text>
<text text-anchor="start" x="798" y="-382.99" font-family="Arial" font-size="24.00" fill="#ffffff">deletion receipts.</text>
</g>
<!-- 107 -->
<g id="107" class="node">
<title>107</title>
<path fill="#2f95c8" stroke="#20688c" d="M1538.5,-626.47C1538.5,-639.08 1448.63,-649.31 1338,-649.31 1227.37,-649.31 1137.5,-639.08 1137.5,-626.47 1137.5,-626.47 1137.5,-420.9 1137.5,-420.9 1137.5,-408.3 1227.37,-398.06 1338,-398.06 1448.63,-398.06 1538.5,-408.3 1538.5,-420.9 1538.5,-420.9 1538.5,-626.47 1538.5,-626.47"/>
<path fill="none" stroke="#20688c" d="M1538.5,-626.47C1538.5,-613.87 1448.63,-603.63 1338,-603.63 1227.37,-603.63 1137.5,-613.87 1137.5,-626.47"/>
<text text-anchor="start" x="1173.5" y="-566.99" font-family="Arial" font-size="34.00" fill="#ffffff">Clean Text Blob Store</text>
<text text-anchor="start" x="1220.5" y="-544.99" font-family="Arial" font-size="19.00" fill="#ffffff">[Container: WSL filesystem]</text>
<text text-anchor="start" x="1179.5" y="-507.99" font-family="Arial" font-size="24.00" fill="#ffffff">Filesystem store for snapshot</text>
<text text-anchor="start" x="1166.5" y="-483.99" font-family="Arial" font-size="24.00" fill="#ffffff">text blobs under WSL XDG data</text>
<text text-anchor="start" x="1304.5" y="-459.99" font-family="Arial" font-size="24.00" fill="#ffffff">paths.</text>
</g>
<!-- 109 -->
<g id="109" class="node">
<title>109</title>
<path fill="#2f95c8" stroke="#20688c" d="M642,-639.97C642,-654.23 552.36,-665.81 442,-665.81 331.64,-665.81 242,-654.23 242,-639.97 242,-639.97 242,-407.4 242,-407.4 242,-393.14 331.64,-381.56 442,-381.56 552.36,-381.56 642,-393.14 642,-407.4 642,-407.4 642,-639.97 642,-639.97"/>
<path fill="none" stroke="#20688c" d="M642,-639.97C642,-625.71 552.36,-614.13 442,-614.13 331.64,-614.13 242,-625.71 242,-639.97"/>
<text text-anchor="start" x="303" y="-578.99" font-family="Arial" font-size="34.00" fill="#ffffff">Media Blob Cache</text>
<text text-anchor="start" x="324.5" y="-556.99" font-family="Arial" font-size="19.00" fill="#ffffff">[Container: WSL filesystem]</text>
<text text-anchor="start" x="308.5" y="-519.99" font-family="Arial" font-size="24.00" fill="#ffffff">Bounded and disposable</text>
<text text-anchor="start" x="297.5" y="-495.99" font-family="Arial" font-size="24.00" fill="#ffffff">filesystem cache for stored</text>
<text text-anchor="start" x="286.5" y="-471.99" font-family="Arial" font-size="24.00" fill="#ffffff">image/video/audio blobs with</text>
<text text-anchor="start" x="271" y="-447.99" font-family="Arial" font-size="24.00" fill="#ffffff">purge and rehydrate semantics.</text>
</g>
<!-- 95&#45;&gt;103 -->
<g id="104" class="edge">
<title>95&#45;&gt;103</title>
<path fill="none" stroke="#444444" stroke-dasharray="5,2" d="M1521.47,-1055.68C1477.4,-992.85 1418.81,-927.72 1348,-890.38 1327.1,-879.36 1262.32,-894.43 1242,-882.38 1200.55,-857.78 1223.7,-817.19 1183,-791.38 1152.32,-771.91 1133.76,-798.01 1102,-780.38 1085.47,-771.2 1069.7,-760.18 1054.76,-747.94"/>
<polygon fill="#444444" stroke="#444444" points="1056.93,-745.19 1047.02,-741.43 1052.42,-750.55 1056.93,-745.19"/>
<text text-anchor="start" x="1242" y="-864.17" font-family="Arial" font-size="24.00" fill="#444444">Reads and writes metadata,</text>
<text text-anchor="start" x="1275" y="-840.17" font-family="Arial" font-size="24.00" fill="#444444">FTS, tasks, audit, and</text>
<text text-anchor="start" x="1337.5" y="-816.17" font-family="Arial" font-size="24.00" fill="#444444">receipts in</text>
<text text-anchor="start" x="1359.5" y="-796.17" font-family="Arial" font-size="19.00" fill="#444444">[sqlite3]</text>
</g>
<!-- 95&#45;&gt;107 -->
<g id="108" class="edge">
<title>95&#45;&gt;107</title>
<path fill="none" stroke="#444444" stroke-dasharray="5,2" d="M1616.56,-1055.85C1611.89,-973.26 1597.92,-873.95 1562,-791.38 1540.7,-742.41 1507.44,-695.49 1473.01,-655.04"/>
<polygon fill="#444444" stroke="#444444" points="1475.52,-652.59 1466.34,-647.3 1470.21,-657.16 1475.52,-652.59"/>
<text text-anchor="start" x="1591" y="-852.17" font-family="Arial" font-size="24.00" fill="#444444">Reads and writes text</text>
<text text-anchor="start" x="1639.5" y="-828.17" font-family="Arial" font-size="24.00" fill="#444444">snapshots in</text>
<text text-anchor="start" x="1656" y="-808.17" font-family="Arial" font-size="19.00" fill="#444444">[Filesystem]</text>
</g>
<!-- 95&#45;&gt;109 -->
<g id="110" class="edge">
<title>95&#45;&gt;109</title>
<path fill="none" stroke="#444444" stroke-dasharray="5,2" d="M1524.48,-1055.97C1480.4,-991.95 1421,-925.86 1348,-890.38 1327.39,-880.36 540.84,-896.77 523,-882.38 462.66,-833.69 441.39,-750.39 435.69,-676.42"/>
<polygon fill="#444444" stroke="#444444" points="439.15,-675.79 434.98,-666.05 432.17,-676.26 439.15,-675.79"/>
<text text-anchor="start" x="548" y="-864.17" font-family="Arial" font-size="24.00" fill="#444444">Stores, serves, purges,</text>
<text text-anchor="start" x="523" y="-840.17" font-family="Arial" font-size="24.00" fill="#444444">and rehydrates media blobs</text>
<text text-anchor="start" x="663.5" y="-816.17" font-family="Arial" font-size="24.00" fill="#444444">in</text>
<text text-anchor="start" x="621.5" y="-796.17" font-family="Arial" font-size="19.00" fill="#444444">[Filesystem]</text>
</g>
<!-- 98 -->
<g id="98" class="node">
<title>98</title>
<polygon fill="#438dd5" stroke="#2e6295" points="1312,-1376.06 958,-1376.06 958,-1073.06 1312,-1073.06 1312,-1376.06"/>
<text text-anchor="start" x="988" y="-1327.86" font-family="Arial" font-size="34.00" fill="#ffffff">WSL Media Worker</text>
<text text-anchor="start" x="995" y="-1305.86" font-family="Arial" font-size="19.00" fill="#ffffff">[Container: Python 3.11 CLI loop]</text>
<text text-anchor="start" x="987.5" y="-1268.86" font-family="Arial" font-size="24.00" fill="#ffffff">Long&#45;running systemd user</text>
<text text-anchor="start" x="1036.5" y="-1244.86" font-family="Arial" font-size="24.00" fill="#ffffff">worker that leases</text>
<text text-anchor="start" x="989" y="-1220.86" font-family="Arial" font-size="24.00" fill="#ffffff">daemon&#45;public media fetch</text>
<text text-anchor="start" x="1026" y="-1196.86" font-family="Arial" font-size="24.00" fill="#ffffff">tasks, fetches public</text>
<text text-anchor="start" x="987" y="-1172.86" font-family="Arial" font-size="24.00" fill="#ffffff">media/HLS without Chrome</text>
<text text-anchor="start" x="992" y="-1148.86" font-family="Arial" font-size="24.00" fill="#ffffff">cookies, classifies terminal</text>
<text text-anchor="start" x="989" y="-1124.86" font-family="Arial" font-size="24.00" fill="#ffffff">states, and updates artifact</text>
<text text-anchor="start" x="1106" y="-1100.86" font-family="Arial" font-size="24.00" fill="#ffffff">rows.</text>
</g>
<!-- 98&#45;&gt;103 -->
<g id="105" class="edge">
<title>98&#45;&gt;103</title>
<path fill="none" stroke="#444444" stroke-dasharray="5,2" d="M1060.38,-1072.74C1021.7,-1008.31 968.87,-937.31 904,-890.38 893.86,-883.04 884.49,-892.4 877,-882.38 851.79,-848.61 840.85,-807.63 838.38,-765.64"/>
<polygon fill="#444444" stroke="#444444" points="841.87,-765.36 837.95,-755.52 834.88,-765.66 841.87,-765.36"/>
<text text-anchor="start" x="877" y="-852.17" font-family="Arial" font-size="24.00" fill="#444444">Leases and updates media</text>
<text text-anchor="start" x="982" y="-828.17" font-family="Arial" font-size="24.00" fill="#444444">tasks in</text>
<text text-anchor="start" x="989.5" y="-808.17" font-family="Arial" font-size="19.00" fill="#444444">[sqlite3]</text>
</g>
<!-- 98&#45;&gt;109 -->
<g id="111" class="edge">
<title>98&#45;&gt;109</title>
<path fill="none" stroke="#444444" stroke-dasharray="5,2" d="M1070.68,-1072.7C1032.89,-1004.04 977.85,-929.52 904,-890.38 884.86,-880.23 139.24,-897.77 124,-882.38 47.45,-805.04 132.43,-713.23 233.71,-641.99"/>
<polygon fill="#444444" stroke="#444444" points="235.76,-644.83 241.97,-636.24 231.76,-639.08 235.76,-644.83"/>
<text text-anchor="start" x="124" y="-852.17" font-family="Arial" font-size="24.00" fill="#444444">Writes fetched media blobs</text>
<text text-anchor="start" x="259.5" y="-828.17" font-family="Arial" font-size="24.00" fill="#444444">to</text>
<text text-anchor="start" x="218.5" y="-808.17" font-family="Arial" font-size="19.00" fill="#444444">[Filesystem]</text>
</g>
<!-- 100 -->
<g id="100" class="node">
<title>100</title>
<polygon fill="#438dd5" stroke="#2e6295" points="878,-1872.75 364,-1872.75 364,-1617.75 878,-1617.75 878,-1872.75"/>
<text text-anchor="start" x="594" y="-1824.55" font-family="Arial" font-size="34.00" fill="#ffffff">CLI</text>
<text text-anchor="start" x="500" y="-1802.55" font-family="Arial" font-size="19.00" fill="#ffffff">[Container: Python argparse]</text>
<text text-anchor="start" x="474.5" y="-1765.55" font-family="Arial" font-size="24.00" fill="#ffffff">Command&#45;line interface for</text>
<text text-anchor="start" x="511" y="-1741.55" font-family="Arial" font-size="24.00" fill="#ffffff">serving the daemon,</text>
<text text-anchor="start" x="393" y="-1717.55" font-family="Arial" font-size="24.00" fill="#ffffff">health/doctor/search/recent/timeline/detail,</text>
<text text-anchor="start" x="508" y="-1693.55" font-family="Arial" font-size="24.00" fill="#ffffff">policy/forget, capture</text>
<text text-anchor="start" x="476" y="-1669.55" font-family="Arial" font-size="24.00" fill="#ffffff">fixtures, media worker, and</text>
<text text-anchor="start" x="488.5" y="-1645.55" font-family="Arial" font-size="24.00" fill="#ffffff">media cache operations.</text>
</g>
<!-- 100&#45;&gt;103 -->
<g id="106" class="edge">
<title>100&#45;&gt;103</title>
<path fill="none" stroke="#444444" stroke-dasharray="5,2" d="M605.45,-1617.41C582.51,-1404.8 552.12,-989.93 650,-890.38 662.25,-877.92 793.91,-893.94 807,-882.38 822.38,-868.78 818.72,-811.46 823,-791.38 824.81,-782.89 826.7,-774.27 828.65,-765.58"/>
<polygon fill="#444444" stroke="#444444" points="832.08,-766.26 830.87,-755.73 825.25,-764.71 832.08,-766.26"/>
<text text-anchor="start" x="653.5" y="-1251.86" font-family="Arial" font-size="24.00" fill="#444444">Runs media&#45;worker and</text>
<text text-anchor="start" x="650" y="-1227.86" font-family="Arial" font-size="24.00" fill="#444444">media&#45;cache commands</text>
<text text-anchor="start" x="743" y="-1203.86" font-family="Arial" font-size="24.00" fill="#444444">against</text>
<text text-anchor="start" x="749" y="-1183.86" font-family="Arial" font-size="19.00" fill="#444444">[sqlite3]</text>
</g>
<!-- 100&#45;&gt;109 -->
<g id="112" class="edge">
<title>100&#45;&gt;109</title>
<path fill="none" stroke="#444444" stroke-dasharray="5,2" d="M463.44,-1617.4C401.51,-1561.39 333.73,-1491.59 285,-1418.06 143.91,-1205.17 124.03,-1133.41 77,-882.38 69.55,-842.62 58.69,-827.44 77,-791.38 111.26,-723.91 171.5,-669.43 233.27,-627.73"/>
<polygon fill="#444444" stroke="#444444" points="235.22,-630.64 241.6,-622.19 231.34,-624.81 235.22,-630.64"/>
<text text-anchor="start" x="285" y="-1239.86" font-family="Arial" font-size="24.00" fill="#444444">Purges and rehydrates</text>
<text text-anchor="start" x="298" y="-1215.86" font-family="Arial" font-size="24.00" fill="#444444">media blobs through</text>
<text text-anchor="start" x="356.5" y="-1195.86" font-family="Arial" font-size="19.00" fill="#444444">[Filesystem]</text>
</g>
<!-- 100&#45;&gt;95 -->
<g id="101" class="edge">
<title>100&#45;&gt;95</title>
<path fill="none" stroke="#444444" stroke-dasharray="5,2" d="M878.33,-1643.83C1020.31,-1584.74 1197.76,-1504.72 1348,-1418.06 1358.74,-1411.87 1369.58,-1405.34 1380.42,-1398.58"/>
<polygon fill="#444444" stroke="#444444" points="1382.52,-1401.4 1389.12,-1393.11 1378.79,-1395.47 1382.52,-1401.4"/>
<text text-anchor="start" x="1291" y="-1515.55" font-family="Arial" font-size="24.00" fill="#444444">Calls health, read, admin,</text>
<text text-anchor="start" x="1323.5" y="-1491.55" font-family="Arial" font-size="24.00" fill="#444444">capture&#45;fixture, and</text>
<text text-anchor="start" x="1352.5" y="-1467.55" font-family="Arial" font-size="24.00" fill="#444444">forget APIs on</text>
<text text-anchor="start" x="1370.5" y="-1447.55" font-family="Arial" font-size="19.00" fill="#444444">[HTTP/JSON]</text>
</g>
</g>
</svg>
