<?xml version="1.0" encoding="UTF-8" standalone="no"?>
<!DOCTYPE svg PUBLIC "-//W3C//DTD SVG 1.1//EN"
 "http://www.w3.org/Graphics/SVG/1.1/DTD/svg11.dtd">
<!-- Generated by graphviz version 2.43.0 (0)
 -->
<!-- Title: %3 Pages: 1 -->
<svg width="1949pt" height="766pt"
 viewBox="0.00 0.00 1949.00 766.00" xmlns="http://www.w3.org/2000/svg" xmlns:xlink="http://www.w3.org/1999/xlink">
<g id="graph0" class="graph" transform="scale(1 1) rotate(0) translate(4 762)">
<title>%3</title>
<polygon fill="white" stroke="transparent" points="-4,4 -4,-762 1945,-762 1945,4 -4,4"/>
<text text-anchor="start" x="385.5" y="-11.8" font-family="Arial" font-size="34.00">Component View: Browser Memory Daemon &#45; WSL Loopback HTTP Daemon</text>
<g id="clust1" class="cluster">
<title>cluster_4</title>
<polygon fill="none" stroke="#444444" points="8,-64 8,-750 1933,-750 1933,-64 8,-64"/>
<text text-anchor="start" x="829.5" y="-92.8" font-family="Arial" font-size="24.00" fill="#444444">Browser Memory Daemon</text>
<text text-anchor="start" x="893.5" y="-72.8" font-family="Arial" font-size="19.00" fill="#444444">[Software System]</text>
</g>
<g id="clust2" class="cluster">
<title>cluster_14</title>
<polygon fill="none" stroke="#444444" points="33,-164 33,-725 1908,-725 1908,-164 33,-164"/>
<text text-anchor="start" x="805" y="-192.8" font-family="Arial" font-size="24.00" fill="#444444">WSL Loopback HTTP Daemon</text>
<text text-anchor="start" x="768.5" y="-172.8" font-family="Arial" font-size="19.00" fill="#444444">[Container: Python 3.11, ThreadingHTTPServer]</text>
</g>
<!-- 15 -->
<g id="15" class="node">
<title>15</title>
<polygon fill="#85bbf0" stroke="#5d82a8" points="453,-597.5 58,-597.5 58,-366.5 453,-366.5 453,-597.5"/>
<text text-anchor="start" x="87" y="-549.3" font-family="Arial" font-size="34.00" fill="#000000">HTTP Request Router</text>
<text text-anchor="start" x="119" y="-527.3" font-family="Arial" font-size="19.00" fill="#000000">[Component: Python http.server]</text>
<text text-anchor="start" x="90" y="-490.3" font-family="Arial" font-size="24.00" fill="#000000">Routes loopback API requests,</text>
<text text-anchor="start" x="112.5" y="-466.3" font-family="Arial" font-size="24.00" fill="#000000">serves UI assets, enforces</text>
<text text-anchor="start" x="91.5" y="-442.3" font-family="Arial" font-size="24.00" fill="#000000">bearer auth for memory/admin</text>
<text text-anchor="start" x="106" y="-418.3" font-family="Arial" font-size="24.00" fill="#000000">APIs, and applies CORS for</text>
<text text-anchor="start" x="172" y="-394.3" font-family="Arial" font-size="24.00" fill="#000000">allowed origins.</text>
</g>
<!-- 16 -->
<g id="16" class="node">
<title>16</title>
<polygon fill="#85bbf0" stroke="#5d82a8" points="1142,-495.5 780,-495.5 780,-264.5 1142,-264.5 1142,-495.5"/>
<text text-anchor="start" x="858" y="-447.3" font-family="Arial" font-size="34.00" fill="#000000">Policy Engine</text>
<text text-anchor="start" x="872" y="-425.3" font-family="Arial" font-size="19.00" fill="#000000">[Component: Python]</text>
<text text-anchor="start" x="908" y="-388.3" font-family="Arial" font-size="24.00" fill="#000000">Evaluates</text>
<text text-anchor="start" x="835" y="-364.3" font-family="Arial" font-size="24.00" fill="#000000">all/recall/balanced/strict</text>
<text text-anchor="start" x="809" y="-340.3" font-family="Arial" font-size="24.00" fill="#000000">capture mode decisions and</text>
<text text-anchor="start" x="819" y="-316.3" font-family="Arial" font-size="24.00" fill="#000000">redacts URL/title/body text</text>
<text text-anchor="start" x="869" y="-292.3" font-family="Arial" font-size="24.00" fill="#000000">outside all mode.</text>
</g>
<!-- 15&#45;&gt;16 -->
<g id="61" class="edge">
<title>15&#45;&gt;16</title>
<path fill="none" stroke="#444444" stroke-dasharray="5,2" d="M453.4,-453.45C552.33,-439.11 671.69,-421.8 769.69,-407.59"/>
<polygon fill="#444444" stroke="#444444" points="770.32,-411.04 779.71,-406.14 769.31,-404.11 770.32,-411.04"/>
<polygon fill="white" stroke="transparent" points="489,-446 489,-506 744,-506 744,-446 489,-446"/>
<text text-anchor="start" x="493.5" y="-482.8" font-family="Arial" font-size="24.00" fill="#444444">Gets capture decisions</text>
<text text-anchor="start" x="592.5" y="-456.8" font-family="Arial" font-size="24.00" fill="#444444">from</text>
</g>
<!-- 17 -->
<g id="17" class="node">
<title>17</title>
<polygon fill="#85bbf0" stroke="#5d82a8" points="1883,-642.5 1511,-642.5 1511,-459.5 1883,-459.5 1883,-642.5"/>
<text text-anchor="start" x="1606" y="-594.3" font-family="Arial" font-size="34.00" fill="#000000">Policy Store</text>
<text text-anchor="start" x="1567.5" y="-572.3" font-family="Arial" font-size="19.00" fill="#000000">[Component: Python + SQLite]</text>
<text text-anchor="start" x="1547" y="-535.3" font-family="Arial" font-size="24.00" fill="#000000">Persists and evaluates local</text>
<text text-anchor="start" x="1540" y="-511.3" font-family="Arial" font-size="24.00" fill="#000000">block&#45;domain and URL&#45;prefix</text>
<text text-anchor="start" x="1570" y="-487.3" font-family="Arial" font-size="24.00" fill="#000000">rules for non&#45;all modes.</text>
</g>
<!-- 15&#45;&gt;17 -->
<g id="62" class="edge">
<title>15&#45;&gt;17</title>
<path fill="none" stroke="#444444" stroke-dasharray="5,2" d="M453.2,-519.06C465.29,-520.86 477.3,-522.53 489,-524 924.35,-578.64 1036.78,-594.76 1475,-573 1483.37,-572.58 1491.92,-572.08 1500.54,-571.51"/>
<polygon fill="#444444" stroke="#444444" points="1500.97,-574.99 1510.7,-570.8 1500.49,-568 1500.97,-574.99"/>
<polygon fill="white" stroke="transparent" points="843,-582 843,-642 1079,-642 1079,-582 843,-582"/>
<text text-anchor="start" x="847" y="-618.8" font-family="Arial" font-size="24.00" fill="#444444">Manages policy rules</text>
<text text-anchor="start" x="919.5" y="-592.8" font-family="Arial" font-size="24.00" fill="#444444">through</text>
</g>
<!-- 16&#45;&gt;17 -->
<g id="69" class="edge">
<title>16&#45;&gt;17</title>
<path fill="none" stroke="#444444" stroke-dasharray="5,2" d="M1142.03,-421.94C1250.8,-447.28 1389.46,-479.59 1500.85,-505.54"/>
<polygon fill="#444444" stroke="#444444" points="1500.33,-509.01 1510.86,-507.87 1501.92,-502.19 1500.33,-509.01"/>
<polygon fill="white" stroke="transparent" points="1178,-495 1178,-555 1475,-555 1475,-495 1178,-495"/>
<text text-anchor="start" x="1182.5" y="-531.8" font-family="Arial" font-size="24.00" fill="#444444">Combines static mode with</text>
<text text-anchor="start" x="1272.5" y="-505.8" font-family="Arial" font-size="24.00" fill="#444444">rules from</text>
</g>
</g>
</svg>
