<?xml version="1.0" encoding="UTF-8" standalone="no"?>
<!DOCTYPE svg PUBLIC "-//W3C//DTD SVG 1.1//EN"
 "http://www.w3.org/Graphics/SVG/1.1/DTD/svg11.dtd">
<!-- Generated by graphviz version 2.43.0 (0)
 -->
<!-- Title: %3 Pages: 1 -->
<svg width="1963pt" height="2022pt"
 viewBox="0.00 0.00 1963.00 2022.38" xmlns="http://www.w3.org/2000/svg" xmlns:xlink="http://www.w3.org/1999/xlink">
<g id="graph0" class="graph" transform="scale(1 1) rotate(0) translate(4 2018.38)">
<title>%3</title>
<polygon fill="white" stroke="transparent" points="-4,4 -4,-2018.38 1959,-2018.38 1959,4 -4,4"/>
<text text-anchor="start" x="497" y="-11.8" font-family="Arial" font-size="34.00">Deployment View: Browser Memory Daemon &#45; Daily&#45;driver local</text>
<g id="clust1" class="cluster">
<title>cluster_85</title>
<polygon fill="none" stroke="#444444" points="8,-64 8,-2006.38 1947,-2006.38 1947,-64 8,-64"/>
<text text-anchor="start" x="883" y="-92.8" font-family="Arial" font-size="24.00" fill="#444444">Local workstation</text>
<text text-anchor="start" x="815.5" y="-72.8" font-family="Arial" font-size="19.00" fill="#444444">[Deployment Node: Windows + WSL2]</text>
</g>
<g id="clust2" class="cluster">
<title>cluster_86</title>
<polygon fill="none" stroke="#444444" points="624,-1500.38 624,-1981.38 1742,-1981.38 1742,-1500.38 624,-1500.38"/>
<text text-anchor="start" x="1070.5" y="-1529.17" font-family="Arial" font-size="24.00" fill="#444444">Windows user profile</text>
<text text-anchor="start" x="1029.5" y="-1509.17" font-family="Arial" font-size="19.00" fill="#444444">[Deployment Node: Windows profile]</text>
</g>
<g id="clust3" class="cluster">
<title>cluster_87</title>
<polygon fill="none" stroke="#444444" points="649,-1576.38 649,-1956.38 1717,-1956.38 1717,-1576.38 649,-1576.38"/>
<text text-anchor="start" x="988.5" y="-1605.17" font-family="Arial" font-size="24.00" fill="#444444">Windows Chrome daily&#45;driver profile</text>
<text text-anchor="start" x="1007.5" y="-1585.17" font-family="Arial" font-size="19.00" fill="#444444">[Deployment Node: Google Chrome MV3]</text>
</g>
<g id="clust4" class="cluster">
<title>cluster_93</title>
<polygon fill="none" stroke="#444444" points="33,-140 33,-1361.38 1922,-1361.38 1922,-140 33,-140"/>
<text text-anchor="start" x="902" y="-168.8" font-family="Arial" font-size="24.00" fill="#444444">WSL2 Ubuntu</text>
<text text-anchor="start" x="787" y="-148.8" font-family="Arial" font-size="19.00" fill="#444444">[Deployment Node: Ubuntu + systemd &#45;&#45;user]</text>
</g>
<g id="clust5" class="cluster">
<title>cluster_102</title>
<polygon fill="none" stroke="#444444" points="280,-216 280,-780.38 1630,-780.38 1630,-216 280,-216"/>
<text text-anchor="start" x="796" y="-244.8" font-family="Arial" font-size="24.00" fill="#444444">WSL XDG runtime data paths</text>
<text text-anchor="start" x="803" y="-224.8" font-family="Arial" font-size="19.00" fill="#444444">[Deployment Node: WSL filesystem]</text>
</g>
<g id="clust6" class="cluster">
<title>cluster_94</title>
<polygon fill="none" stroke="#444444" points="587,-898.38 587,-1336.38 1525,-1336.38 1525,-898.38 587,-898.38"/>
<text text-anchor="start" x="928" y="-927.17" font-family="Arial" font-size="24.00" fill="#444444">systemd &#45;&#45;user services</text>
<text text-anchor="start" x="907" y="-907.17" font-family="Arial" font-size="19.00" fill="#444444">[Deployment Node: systemd &#45;&#45;user]</text>
</g>
<!-- 88 -->
<g id="88" class="node">
<title>88</title>
<polygon fill="#438dd5" stroke="#2e6295" points="1108,-1931.38 674,-1931.38 674,-1652.38 1108,-1652.38 1108,-1931.38"/>
<text text-anchor="start" x="711" y="-1883.17" font-family="Arial" font-size="34.00" fill="#ffffff">Chrome MV3 Extension</text>
<text text-anchor="start" x="703" y="-1861.17" font-family="Arial" font-size="19.00" fill="#ffffff">[Container: JavaScript, Chrome Manifest V3]</text>
<text text-anchor="start" x="748" y="-1824.17" font-family="Arial" font-size="24.00" fill="#ffffff">Captures visible page text,</text>
<text text-anchor="start" x="773.5" y="-1800.17" font-family="Arial" font-size="24.00" fill="#ffffff">media references, tab</text>
<text text-anchor="start" x="782" y="-1776.17" font-family="Arial" font-size="24.00" fill="#ffffff">lifecycle events, and</text>
<text text-anchor="start" x="725" y="-1752.17" font-family="Arial" font-size="24.00" fill="#ffffff">browser&#45;side media bytes from</text>
<text text-anchor="start" x="720" y="-1728.17" font-family="Arial" font-size="24.00" fill="#ffffff">Windows Chrome; queues work</text>
<text text-anchor="start" x="732" y="-1704.17" font-family="Arial" font-size="24.00" fill="#ffffff">durably and posts to the WSL</text>
<text text-anchor="start" x="843.5" y="-1680.17" font-family="Arial" font-size="24.00" fill="#ffffff">daemon.</text>
</g>
<!-- 95 -->
<g id="95" class="node">
<title>95</title>
<polygon fill="#438dd5" stroke="#2e6295" points="1500,-1311.38 1038,-1311.38 1038,-974.38 1500,-974.38 1500,-1311.38"/>
<text text-anchor="start" x="1104.5" y="-1263.17" font-family="Arial" font-size="34.00" fill="#ffffff">WSL Loopback HTTP</text>
<text text-anchor="start" x="1204.5" y="-1229.17" font-family="Arial" font-size="34.00" fill="#ffffff">Daemon</text>
<text text-anchor="start" x="1067" y="-1207.17" font-family="Arial" font-size="19.00" fill="#ffffff">[Container: Python 3.11, ThreadingHTTPServer]</text>
<text text-anchor="start" x="1108" y="-1170.17" font-family="Arial" font-size="24.00" fill="#ffffff">Authenticated loopback HTTP</text>
<text text-anchor="start" x="1133" y="-1146.17" font-family="Arial" font-size="24.00" fill="#ffffff">API that handles capture,</text>
<text text-anchor="start" x="1129.5" y="-1122.17" font-family="Arial" font-size="24.00" fill="#ffffff">visit events, media artifact</text>
<text text-anchor="start" x="1132.5" y="-1098.17" font-family="Arial" font-size="24.00" fill="#ffffff">upload/fetch/purge, exact</text>
<text text-anchor="start" x="1229" y="-1074.17" font-family="Arial" font-size="24.00" fill="#ffffff">search,</text>
<text text-anchor="start" x="1120" y="-1050.17" font-family="Arial" font-size="24.00" fill="#ffffff">recent/timeline/detail, policy</text>
<text text-anchor="start" x="1138" y="-1026.17" font-family="Arial" font-size="24.00" fill="#ffffff">rules, doctor, forget, and</text>
<text text-anchor="start" x="1179.5" y="-1002.17" font-family="Arial" font-size="24.00" fill="#ffffff">static UI serving.</text>
</g>
<!-- 88&#45;&gt;95 -->
<g id="96" class="edge">
<title>88&#45;&gt;95</title>
<path fill="none" stroke="#444444" stroke-dasharray="5,2" d="M833.13,-1652.17C804.94,-1560.12 790.32,-1443.09 860,-1369.38 870.86,-1357.89 987.27,-1367.09 1002,-1361.38 1030.67,-1350.26 1058.6,-1334.83 1084.92,-1317.27"/>
<polygon fill="#444444" stroke="#444444" points="1087.11,-1320.01 1093.41,-1311.49 1083.18,-1314.22 1087.11,-1320.01"/>
<polygon fill="white" stroke="transparent" points="860,-1369.38 860,-1492.38 1355,-1492.38 1355,-1369.38 860,-1369.38"/>
<text text-anchor="start" x="1027" y="-1469.67" font-family="Arial" font-size="24.00" fill="#444444">Posts /capture,</text>
<text text-anchor="start" x="1004" y="-1445.67" font-family="Arial" font-size="24.00" fill="#444444">/visit&#45;events, media</text>
<text text-anchor="start" x="981" y="-1421.67" font-family="Arial" font-size="24.00" fill="#444444">metadata, and raw blob</text>
<text text-anchor="start" x="1052" y="-1397.67" font-family="Arial" font-size="24.00" fill="#444444">uploads to</text>
<text text-anchor="start" x="864.5" y="-1377.67" font-family="Arial" font-size="19.00" fill="#444444">[Bearer HTTP/JSON; raw HTTP PUT over 127.0.0.1:8765]</text>
</g>
<!-- 91 -->
<g id="91" class="node">
<title>91</title>
<polygon fill="#438dd5" stroke="#2e6295" points="1692,-1919.38 1180,-1919.38 1180,-1664.38 1692,-1664.38 1692,-1919.38"/>
<text text-anchor="start" x="1333.5" y="-1871.17" font-family="Arial" font-size="34.00" fill="#ffffff">Local Web UI</text>
<text text-anchor="start" x="1209" y="-1849.17" font-family="Arial" font-size="19.00" fill="#ffffff">[Container: HTML/CSS/JavaScript served by daemon]</text>
<text text-anchor="start" x="1294" y="-1812.17" font-family="Arial" font-size="24.00" fill="#ffffff">Static browser UI for exact</text>
<text text-anchor="start" x="1277" y="-1788.17" font-family="Arial" font-size="24.00" fill="#ffffff">search, recent/timeline views,</text>
<text text-anchor="start" x="1294.5" y="-1764.17" font-family="Arial" font-size="24.00" fill="#ffffff">document/snapshot detail,</text>
<text text-anchor="start" x="1279" y="-1740.17" font-family="Arial" font-size="24.00" fill="#ffffff">media artifact opening, policy</text>
<text text-anchor="start" x="1342.5" y="-1716.17" font-family="Arial" font-size="24.00" fill="#ffffff">rules, doctor, and</text>
<text text-anchor="start" x="1297.5" y="-1692.17" font-family="Arial" font-size="24.00" fill="#ffffff">forget&#45;domain operations.</text>
</g>
<!-- 91&#45;&gt;95 -->
<g id="97" class="edge">
<title>91&#45;&gt;95</title>
<path fill="none" stroke="#444444" stroke-dasharray="5,2" d="M1426.53,-1664.35C1417.9,-1579.56 1401.9,-1466.15 1373,-1369.38 1368.23,-1353.4 1362.53,-1337.11 1356.29,-1320.97"/>
<polygon fill="#444444" stroke="#444444" points="1359.47,-1319.5 1352.55,-1311.48 1352.96,-1322.06 1359.47,-1319.5"/>
<polygon fill="white" stroke="transparent" points="1400,-1381.38 1400,-1480.38 1677,-1480.38 1677,-1381.38 1400,-1381.38"/>
<text text-anchor="start" x="1405" y="-1457.67" font-family="Arial" font-size="24.00" fill="#444444">Calls authenticated read,</text>
<text text-anchor="start" x="1404.5" y="-1433.67" font-family="Arial" font-size="24.00" fill="#444444">admin, media, and forget</text>
<text text-anchor="start" x="1496.5" y="-1409.67" font-family="Arial" font-size="24.00" fill="#444444">APIs on</text>
<text text-anchor="start" x="1481" y="-1389.67" font-family="Arial" font-size="19.00" fill="#444444">[HTTP/JSON]</text>
</g>
<!-- 103 -->
<g id="103" class="node">
<title>103</title>
<path fill="#2f95c8" stroke="#20688c" d="M1133,-713.4C1133,-736.67 1054.11,-755.56 957,-755.56 859.89,-755.56 781,-736.67 781,-713.4 781,-713.4 781,-333.97 781,-333.97 781,-310.71 859.89,-291.81 957,-291.81 1054.11,-291.81 1133,-310.71 1133,-333.97 1133,-333.97 1133,-713.4 1133,-713.4"/>
<path fill="none" stroke="#20688c" d="M1133,-713.4C1133,-690.14 1054.11,-671.24 957,-671.24 859.89,-671.24 781,-690.14 781,-713.4"/>
<text text-anchor="start" x="844" y="-643.99" font-family="Arial" font-size="34.00" fill="#ffffff">SQLite + FTS5</text>
<text text-anchor="start" x="884" y="-609.99" font-family="Arial" font-size="34.00" fill="#ffffff">Database</text>
<text text-anchor="start" x="831" y="-587.99" font-family="Arial" font-size="19.00" fill="#ffffff">[Container: SQLite with FTS5]</text>
<text text-anchor="start" x="838" y="-550.99" font-family="Arial" font-size="24.00" fill="#ffffff">Durable relational and</text>
<text text-anchor="start" x="820.5" y="-526.99" font-family="Arial" font-size="24.00" fill="#ffffff">full&#45;text store for sources,</text>
<text text-anchor="start" x="836.5" y="-502.99" font-family="Arial" font-size="24.00" fill="#ffffff">documents, visits, visit</text>
<text text-anchor="start" x="811" y="-478.99" font-family="Arial" font-size="24.00" fill="#ffffff">events, snapshots, chunks,</text>
<text text-anchor="start" x="810" y="-454.99" font-family="Arial" font-size="24.00" fill="#ffffff">chunks_fts, media artifacts,</text>
<text text-anchor="start" x="825" y="-430.99" font-family="Arial" font-size="24.00" fill="#ffffff">media fetch tasks, policy</text>
<text text-anchor="start" x="831.5" y="-406.99" font-family="Arial" font-size="24.00" fill="#ffffff">rules, audit events, and</text>
<text text-anchor="start" x="865" y="-382.99" font-family="Arial" font-size="24.00" fill="#ffffff">deletion receipts.</text>
</g>
<!-- 107 -->
<g id="107" class="node">
<title>107</title>
<path fill="#2f95c8" stroke="#20688c" d="M1605.5,-626.47C1605.5,-639.08 1515.63,-649.31 1405,-649.31 1294.37,-649.31 1204.5,-639.08 1204.5,-626.47 1204.5,-626.47 1204.5,-420.9 1204.5,-420.9 1204.5,-408.3 1294.37,-398.06 1405,-398.06 1515.63,-398.06 1605.5,-408.3 1605.5,-420.9 1605.5,-420.9 1605.5,-626.47 1605.5,-626.47"/>
<path fill="none" stroke="#20688c" d="M1605.5,-626.47C1605.5,-613.87 1515.63,-603.63 1405,-603.63 1294.37,-603.63 1204.5,-613.87 1204.5,-626.47"/>
<text text-anchor="start" x="1240.5" y="-566.99" font-family="Arial" font-size="34.00" fill="#ffffff">Clean Text Blob Store</text>
<text text-anchor="start" x="1287.5" y="-544.99" font-family="Arial" font-size="19.00" fill="#ffffff">[Container: WSL filesystem]</text>
<text text-anchor="start" x="1246.5" y="-507.99" font-family="Arial" font-size="24.00" fill="#ffffff">Filesystem store for snapshot</text>
<text text-anchor="start" x="1233.5" y="-483.99" font-family="Arial" font-size="24.00" fill="#ffffff">text blobs under WSL XDG data</text>
<text text-anchor="start" x="1371.5" y="-459.99" font-family="Arial" font-size="24.00" fill="#ffffff">paths.</text>
</g>
<!-- 109 -->
<g id="109" class="node">
<title>109</title>
<path fill="#2f95c8" stroke="#20688c" d="M709,-693.97C709,-714.85 618.46,-731.81 507,-731.81 395.54,-731.81 305,-714.85 305,-693.97 305,-693.97 305,-353.4 305,-353.4 305,-332.52 395.54,-315.56 507,-315.56 618.46,-315.56 709,-332.52 709,-353.4 709,-353.4 709,-693.97 709,-693.97"/>
<path fill="none" stroke="#20688c" d="M709,-693.97C709,-673.09 618.46,-656.13 507,-656.13 395.54,-656.13 305,-673.09 305,-693.97"/>
<text text-anchor="start" x="368" y="-626.99" font-family="Arial" font-size="34.00" fill="#ffffff">Media Blob Cache</text>
<text text-anchor="start" x="389.5" y="-604.99" font-family="Arial" font-size="19.00" fill="#ffffff">[Container: WSL filesystem]</text>
<text text-anchor="start" x="373.5" y="-567.99" font-family="Arial" font-size="24.00" fill="#ffffff">Bounded and disposable</text>
<text text-anchor="start" x="362.5" y="-543.99" font-family="Arial" font-size="24.00" fill="#ffffff">filesystem cache for stored</text>
<text text-anchor="start" x="351.5" y="-519.99" font-family="Arial" font-size="24.00" fill="#ffffff">image/video/audio blobs with</text>
<text text-anchor="start" x="339.5" y="-495.99" font-family="Arial" font-size="24.00" fill="#ffffff">purge/rehydrate semantics that</text>
<text text-anchor="start" x="350.5" y="-471.99" font-family="Arial" font-size="24.00" fill="#ffffff">preserve media refs, hashes,</text>
<text text-anchor="start" x="334" y="-447.99" font-family="Arial" font-size="24.00" fill="#ffffff">status reasons, and provenance</text>
<text text-anchor="start" x="370.5" y="-423.99" font-family="Arial" font-size="24.00" fill="#ffffff">when bytes are absent or</text>
<text text-anchor="start" x="465.5" y="-399.99" font-family="Arial" font-size="24.00" fill="#ffffff">purged.</text>
</g>
<!-- 95&#45;&gt;103 -->
<g id="104" class="edge">
<title>95&#45;&gt;103</title>
<path fill="none" stroke="#444444" stroke-dasharray="5,2" d="M1263.77,-973.97C1254.31,-911.09 1234.17,-842.57 1193,-791.38 1185.65,-782.23 1178.31,-787.51 1169,-780.38 1155.52,-770.04 1142.33,-758.69 1129.54,-746.7"/>
<polygon fill="#444444" stroke="#444444" points="1131.72,-743.94 1122.07,-739.58 1126.89,-749.01 1131.72,-743.94"/>
<polygon fill="white" stroke="transparent" points="1242,-791.38 1242,-890.38 1552,-890.38 1552,-791.38 1242,-791.38"/>
<text text-anchor="start" x="1246" y="-867.67" font-family="Arial" font-size="24.00" fill="#444444">Reads and writes metadata,</text>
<text text-anchor="start" x="1279" y="-843.67" font-family="Arial" font-size="24.00" fill="#444444">FTS, tasks, audit, and</text>
<text text-anchor="start" x="1341.5" y="-819.67" font-family="Arial" font-size="24.00" fill="#444444">receipts in</text>
<text text-anchor="start" x="1363.5" y="-799.67" font-family="Arial" font-size="19.00" fill="#444444">[sqlite3]</text>
</g>
<!-- 95&#45;&gt;107 -->
<g id="108" class="edge">
<title>95&#45;&gt;107</title>
<path fill="none" stroke="#444444" stroke-dasharray="5,2" d="M1500.25,-996.25C1532.52,-965.41 1561.08,-930.01 1580,-890.38 1616.93,-813.01 1579.11,-726.49 1529.3,-657.03"/>
<polygon fill="#444444" stroke="#444444" points="1531.9,-654.65 1523.17,-648.64 1526.25,-658.78 1531.9,-654.65"/>
<polygon fill="white" stroke="transparent" points="1594,-803.38 1594,-878.38 1835,-878.38 1835,-803.38 1594,-803.38"/>
<text text-anchor="start" x="1598.5" y="-855.67" font-family="Arial" font-size="24.00" fill="#444444">Reads and writes text</text>
<text text-anchor="start" x="1647" y="-831.67" font-family="Arial" font-size="24.00" fill="#444444">snapshots in</text>
<text text-anchor="start" x="1663.5" y="-811.67" font-family="Arial" font-size="19.00" fill="#444444">[Filesystem]</text>
</g>
<!-- 95&#45;&gt;109 -->
<g id="110" class="edge">
<title>95&#45;&gt;109</title>
<path fill="none" stroke="#444444" stroke-dasharray="5,2" d="M1122.18,-974.26C1086.2,-943.46 1045.44,-915.63 1002,-898.38 989.74,-893.5 536.51,-899.53 527,-890.38 487.22,-852.07 472.13,-797.68 469.56,-742.51"/>
<polygon fill="#444444" stroke="#444444" points="473.05,-742.08 469.22,-732.2 466.05,-742.31 473.05,-742.08"/>
<polygon fill="white" stroke="transparent" points="527,-791.38 527,-890.38 835,-890.38 835,-791.38 527,-791.38"/>
<text text-anchor="start" x="556" y="-867.67" font-family="Arial" font-size="24.00" fill="#444444">Stores, serves, purges,</text>
<text text-anchor="start" x="531" y="-843.67" font-family="Arial" font-size="24.00" fill="#444444">and rehydrates media blobs</text>
<text text-anchor="start" x="671.5" y="-819.67" font-family="Arial" font-size="24.00" fill="#444444">in</text>
<text text-anchor="start" x="629.5" y="-799.67" font-family="Arial" font-size="19.00" fill="#444444">[Filesystem]</text>
</g>
<!-- 98 -->
<g id="98" class="node">
<title>98</title>
<polygon fill="#438dd5" stroke="#2e6295" points="966,-1294.38 612,-1294.38 612,-991.38 966,-991.38 966,-1294.38"/>
<text text-anchor="start" x="642" y="-1246.17" font-family="Arial" font-size="34.00" fill="#ffffff">WSL Media Worker</text>
<text text-anchor="start" x="649" y="-1224.17" font-family="Arial" font-size="19.00" fill="#ffffff">[Container: Python 3.11 CLI loop]</text>
<text text-anchor="start" x="641.5" y="-1187.17" font-family="Arial" font-size="24.00" fill="#ffffff">Long&#45;running systemd user</text>
<text text-anchor="start" x="690.5" y="-1163.17" font-family="Arial" font-size="24.00" fill="#ffffff">worker that leases</text>
<text text-anchor="start" x="643" y="-1139.17" font-family="Arial" font-size="24.00" fill="#ffffff">daemon&#45;public media fetch</text>
<text text-anchor="start" x="680" y="-1115.17" font-family="Arial" font-size="24.00" fill="#ffffff">tasks, fetches public</text>
<text text-anchor="start" x="641" y="-1091.17" font-family="Arial" font-size="24.00" fill="#ffffff">media/HLS without Chrome</text>
<text text-anchor="start" x="646" y="-1067.17" font-family="Arial" font-size="24.00" fill="#ffffff">cookies, classifies terminal</text>
<text text-anchor="start" x="643" y="-1043.17" font-family="Arial" font-size="24.00" fill="#ffffff">states, and updates artifact</text>
<text text-anchor="start" x="760" y="-1019.17" font-family="Arial" font-size="24.00" fill="#ffffff">rows.</text>
</g>
<!-- 98&#45;&gt;103 -->
<g id="105" class="edge">
<title>98&#45;&gt;103</title>
<path fill="none" stroke="#444444" stroke-dasharray="5,2" d="M826.56,-991.06C842.3,-929.07 861.08,-856.65 879,-791.38 881.37,-782.75 883.8,-773.97 886.28,-765.12"/>
<polygon fill="#444444" stroke="#444444" points="889.65,-766.05 888.99,-755.47 882.91,-764.16 889.65,-766.05"/>
<polygon fill="white" stroke="transparent" points="879,-803.38 879,-878.38 1179,-878.38 1179,-803.38 879,-803.38"/>
<text text-anchor="start" x="883" y="-855.67" font-family="Arial" font-size="24.00" fill="#444444">Leases and updates media</text>
<text text-anchor="start" x="988" y="-831.67" font-family="Arial" font-size="24.00" fill="#444444">tasks in</text>
<text text-anchor="start" x="995.5" y="-811.67" font-family="Arial" font-size="19.00" fill="#444444">[sqlite3]</text>
</g>
<!-- 98&#45;&gt;109 -->
<g id="111" class="edge">
<title>98&#45;&gt;109</title>
<path fill="none" stroke="#444444" stroke-dasharray="5,2" d="M611.8,-1129.78C452.69,-1108.43 227.65,-1049.93 117,-890.38 42.55,-783.02 167.85,-683.18 295.77,-615.03"/>
<polygon fill="#444444" stroke="#444444" points="297.76,-617.94 304.98,-610.18 294.5,-611.75 297.76,-617.94"/>
<polygon fill="white" stroke="transparent" points="117,-803.38 117,-878.38 417,-878.38 417,-803.38 117,-803.38"/>
<text text-anchor="start" x="121" y="-855.67" font-family="Arial" font-size="24.00" fill="#444444">Writes fetched media blobs</text>
<text text-anchor="start" x="256.5" y="-831.67" font-family="Arial" font-size="24.00" fill="#444444">to</text>
<text text-anchor="start" x="215.5" y="-811.67" font-family="Arial" font-size="19.00" fill="#444444">[Filesystem]</text>
</g>
</g>
</svg>
