<?xml version="1.0" encoding="UTF-8" standalone="no"?>
<!DOCTYPE svg PUBLIC "-//W3C//DTD SVG 1.1//EN"
 "http://www.w3.org/Graphics/SVG/1.1/DTD/svg11.dtd">
<!-- Generated by graphviz version 2.43.0 (0)
 -->
<!-- Title: %3 Pages: 1 -->
<svg width="2004pt" height="1025pt"
 viewBox="0.00 0.00 2004.00 1025.00" xmlns="http://www.w3.org/2000/svg" xmlns:xlink="http://www.w3.org/1999/xlink">
<g id="graph0" class="graph" transform="scale(1 1) rotate(0) translate(4 1021)">
<title>%3</title>
<polygon fill="white" stroke="transparent" points="-4,4 -4,-1021 2000,-1021 2000,4 -4,4"/>
<text text-anchor="start" x="413" y="-11.8" font-family="Arial" font-size="34.00">Component View: Browser Memory Daemon &#45; WSL Loopback HTTP Daemon</text>
<g id="clust1" class="cluster">
<title>cluster_4</title>
<polygon fill="none" stroke="#444444" points="8,-64 8,-1009 1988,-1009 1988,-64 8,-64"/>
<text text-anchor="start" x="857" y="-92.8" font-family="Arial" font-size="24.00" fill="#444444">Browser Memory Daemon</text>
<text text-anchor="start" x="921" y="-72.8" font-family="Arial" font-size="19.00" fill="#444444">[Software System]</text>
</g>
<g id="clust2" class="cluster">
<title>cluster_14</title>
<polygon fill="none" stroke="#444444" points="33,-342 33,-781 1248,-781 1248,-342 33,-342"/>
<text text-anchor="start" x="475" y="-370.8" font-family="Arial" font-size="24.00" fill="#444444">WSL Loopback HTTP Daemon</text>
<text text-anchor="start" x="438.5" y="-350.8" font-family="Arial" font-size="19.00" fill="#444444">[Container: Python 3.11, ThreadingHTTPServer]</text>
</g>
<!-- 15 -->
<g id="15" class="node">
<title>15</title>
<polygon fill="#85bbf0" stroke="#5d82a8" points="453,-714.5 58,-714.5 58,-483.5 453,-483.5 453,-714.5"/>
<text text-anchor="start" x="87" y="-666.3" font-family="Arial" font-size="34.00" fill="#000000">HTTP Request Router</text>
<text text-anchor="start" x="119" y="-644.3" font-family="Arial" font-size="19.00" fill="#000000">[Component: Python http.server]</text>
<text text-anchor="start" x="90" y="-607.3" font-family="Arial" font-size="24.00" fill="#000000">Routes loopback API requests,</text>
<text text-anchor="start" x="112.5" y="-583.3" font-family="Arial" font-size="24.00" fill="#000000">serves UI assets, enforces</text>
<text text-anchor="start" x="91.5" y="-559.3" font-family="Arial" font-size="24.00" fill="#000000">bearer auth for memory/admin</text>
<text text-anchor="start" x="106" y="-535.3" font-family="Arial" font-size="24.00" fill="#000000">APIs, and applies CORS for</text>
<text text-anchor="start" x="172" y="-511.3" font-family="Arial" font-size="24.00" fill="#000000">allowed origins.</text>
</g>
<!-- 20 -->
<g id="20" class="node">
<title>20</title>
<polygon fill="#85bbf0" stroke="#5d82a8" points="1223,-755.5 802,-755.5 802,-442.5 1223,-442.5 1223,-755.5"/>
<text text-anchor="start" x="909" y="-707.3" font-family="Arial" font-size="34.00" fill="#000000">Media Artifact</text>
<text text-anchor="start" x="945.5" y="-673.3" font-family="Arial" font-size="34.00" fill="#000000">Manager</text>
<text text-anchor="start" x="831" y="-651.3" font-family="Arial" font-size="19.00" fill="#000000">[Component: Python + sqlite3 + filesystem]</text>
<text text-anchor="start" x="866.5" y="-614.3" font-family="Arial" font-size="24.00" fill="#000000">Records media references,</text>
<text text-anchor="start" x="889" y="-590.3" font-family="Arial" font-size="24.00" fill="#000000">validates blob uploads,</text>
<text text-anchor="start" x="870.5" y="-566.3" font-family="Arial" font-size="24.00" fill="#000000">enforces MIME/size/cache</text>
<text text-anchor="start" x="912" y="-542.3" font-family="Arial" font-size="24.00" fill="#000000">gates, writes blobs</text>
<text text-anchor="start" x="878" y="-518.3" font-family="Arial" font-size="24.00" fill="#000000">atomically, queues public</text>
<text text-anchor="start" x="872.5" y="-494.3" font-family="Arial" font-size="24.00" fill="#000000">fetch tasks, and purges or</text>
<text text-anchor="start" x="876" y="-470.3" font-family="Arial" font-size="24.00" fill="#000000">rehydrates cache entries.</text>
</g>
<!-- 15&#45;&gt;20 -->
<g id="65" class="edge">
<title>15&#45;&gt;20</title>
<path fill="none" stroke="#444444" stroke-dasharray="5,2" d="M453.39,-599C557.09,-599 684.58,-599 791.52,-599"/>
<polygon fill="#444444" stroke="#444444" points="791.8,-602.5 801.8,-599 791.8,-595.5 791.8,-602.5"/>
<text text-anchor="start" x="489" y="-605.8" font-family="Arial" font-size="24.00" fill="#444444">Routes media requests to</text>
</g>
<!-- 27 -->
<g id="27" class="node">
<title>27</title>
<path fill="#2f95c8" stroke="#20688c" d="M1939,-585.72C1939,-608.98 1860.11,-627.88 1763,-627.88 1665.89,-627.88 1587,-608.98 1587,-585.72 1587,-585.72 1587,-206.28 1587,-206.28 1587,-183.02 1665.89,-164.12 1763,-164.12 1860.11,-164.12 1939,-183.02 1939,-206.28 1939,-206.28 1939,-585.72 1939,-585.72"/>
<path fill="none" stroke="#20688c" d="M1939,-585.72C1939,-562.45 1860.11,-543.56 1763,-543.56 1665.89,-543.56 1587,-562.45 1587,-585.72"/>
<text text-anchor="start" x="1650" y="-516.3" font-family="Arial" font-size="34.00" fill="#ffffff">SQLite + FTS5</text>
<text text-anchor="start" x="1690" y="-482.3" font-family="Arial" font-size="34.00" fill="#ffffff">Database</text>
<text text-anchor="start" x="1637" y="-460.3" font-family="Arial" font-size="19.00" fill="#ffffff">[Container: SQLite with FTS5]</text>
<text text-anchor="start" x="1644" y="-423.3" font-family="Arial" font-size="24.00" fill="#ffffff">Durable relational and</text>
<text text-anchor="start" x="1626.5" y="-399.3" font-family="Arial" font-size="24.00" fill="#ffffff">full&#45;text store for sources,</text>
<text text-anchor="start" x="1642.5" y="-375.3" font-family="Arial" font-size="24.00" fill="#ffffff">documents, visits, visit</text>
<text text-anchor="start" x="1617" y="-351.3" font-family="Arial" font-size="24.00" fill="#ffffff">events, snapshots, chunks,</text>
<text text-anchor="start" x="1616" y="-327.3" font-family="Arial" font-size="24.00" fill="#ffffff">chunks_fts, media artifacts,</text>
<text text-anchor="start" x="1631" y="-303.3" font-family="Arial" font-size="24.00" fill="#ffffff">media fetch tasks, policy</text>
<text text-anchor="start" x="1637.5" y="-279.3" font-family="Arial" font-size="24.00" fill="#ffffff">rules, audit events, and</text>
<text text-anchor="start" x="1671" y="-255.3" font-family="Arial" font-size="24.00" fill="#ffffff">deletion receipts.</text>
</g>
<!-- 20&#45;&gt;27 -->
<g id="74" class="edge">
<title>20&#45;&gt;27</title>
<path fill="none" stroke="#444444" stroke-dasharray="5,2" d="M1223.49,-542.05C1334.62,-511.91 1469.85,-475.23 1577,-446.17"/>
<polygon fill="#444444" stroke="#444444" points="1578.22,-449.47 1586.95,-443.48 1576.38,-442.71 1578.22,-449.47"/>
<text text-anchor="start" x="1259" y="-575.8" font-family="Arial" font-size="24.00" fill="#444444">Updates media rows and</text>
<text text-anchor="start" x="1352" y="-551.8" font-family="Arial" font-size="24.00" fill="#444444">tasks in</text>
<text text-anchor="start" x="1359.5" y="-531.8" font-family="Arial" font-size="19.00" fill="#444444">[sqlite3]</text>
</g>
<!-- 29 -->
<g id="29" class="node">
<title>29</title>
<path fill="#2f95c8" stroke="#20688c" d="M1963,-958.28C1963,-972.54 1873.36,-984.13 1763,-984.13 1652.64,-984.13 1563,-972.54 1563,-958.28 1563,-958.28 1563,-725.72 1563,-725.72 1563,-711.46 1652.64,-699.87 1763,-699.87 1873.36,-699.87 1963,-711.46 1963,-725.72 1963,-725.72 1963,-958.28 1963,-958.28"/>
<path fill="none" stroke="#20688c" d="M1963,-958.28C1963,-944.03 1873.36,-932.44 1763,-932.44 1652.64,-932.44 1563,-944.03 1563,-958.28"/>
<text text-anchor="start" x="1624" y="-897.3" font-family="Arial" font-size="34.00" fill="#ffffff">Media Blob Cache</text>
<text text-anchor="start" x="1645.5" y="-875.3" font-family="Arial" font-size="19.00" fill="#ffffff">[Container: WSL filesystem]</text>
<text text-anchor="start" x="1629.5" y="-838.3" font-family="Arial" font-size="24.00" fill="#ffffff">Bounded and disposable</text>
<text text-anchor="start" x="1618.5" y="-814.3" font-family="Arial" font-size="24.00" fill="#ffffff">filesystem cache for stored</text>
<text text-anchor="start" x="1607.5" y="-790.3" font-family="Arial" font-size="24.00" fill="#ffffff">image/video/audio blobs with</text>
<text text-anchor="start" x="1592" y="-766.3" font-family="Arial" font-size="24.00" fill="#ffffff">purge and rehydrate semantics.</text>
</g>
<!-- 20&#45;&gt;29 -->
<g id="75" class="edge">
<title>20&#45;&gt;29</title>
<path fill="none" stroke="#444444" stroke-dasharray="5,2" d="M1223.49,-667.17C1326.55,-700.63 1450.33,-740.82 1553.22,-774.22"/>
<polygon fill="#444444" stroke="#444444" points="1552.21,-777.57 1562.8,-777.33 1554.37,-770.91 1552.21,-777.57"/>
<text text-anchor="start" x="1275.5" y="-811.8" font-family="Arial" font-size="24.00" fill="#444444">Writes, serves, evicts,</text>
<text text-anchor="start" x="1287" y="-787.8" font-family="Arial" font-size="24.00" fill="#444444">and purges blobs in</text>
<text text-anchor="start" x="1341.5" y="-767.8" font-family="Arial" font-size="19.00" fill="#444444">[Filesystem]</text>
</g>
</g>
</svg>
