<?xml version="1.0" encoding="UTF-8" standalone="no"?>
<!DOCTYPE svg PUBLIC "-//W3C//DTD SVG 1.1//EN"
 "http://www.w3.org/Graphics/SVG/1.1/DTD/svg11.dtd">
<!-- Generated by graphviz version 2.43.0 (0)
 -->
<!-- Title: %3 Pages: 1 -->
<svg width="2188pt" height="1349pt"
 viewBox="0.00 0.00 2188.00 1349.00" xmlns="http://www.w3.org/2000/svg" xmlns:xlink="http://www.w3.org/1999/xlink">
<g id="graph0" class="graph" transform="scale(1 1) rotate(0) translate(4 1345)">
<title>%3</title>
<polygon fill="white" stroke="transparent" points="-4,4 -4,-1345 2184,-1345 2184,4 -4,4"/>
<text text-anchor="start" x="767.5" y="-11.8" font-family="Arial" font-size="34.00">Container View: Browser Memory Daemon</text>
<g id="clust1" class="cluster">
<title>cluster_4</title>
<polygon fill="none" stroke="#444444" points="8,-64 8,-1333 2172,-1333 2172,-64 8,-64"/>
<text text-anchor="start" x="949" y="-92.8" font-family="Arial" font-size="24.00" fill="#444444">Browser Memory Daemon</text>
<text text-anchor="start" x="1013" y="-72.8" font-family="Arial" font-size="19.00" fill="#444444">[Software System]</text>
</g>
<!-- 14 -->
<g id="14" class="node">
<title>14</title>
<polygon fill="#438dd5" stroke="#2e6295" points="1364,-994.5 902,-994.5 902,-657.5 1364,-657.5 1364,-994.5"/>
<text text-anchor="start" x="968.5" y="-946.3" font-family="Arial" font-size="34.00" fill="#ffffff">WSL Loopback HTTP</text>
<text text-anchor="start" x="1068.5" y="-912.3" font-family="Arial" font-size="34.00" fill="#ffffff">Daemon</text>
<text text-anchor="start" x="931" y="-890.3" font-family="Arial" font-size="19.00" fill="#ffffff">[Container: Python 3.11, ThreadingHTTPServer]</text>
<text text-anchor="start" x="972" y="-853.3" font-family="Arial" font-size="24.00" fill="#ffffff">Authenticated loopback HTTP</text>
<text text-anchor="start" x="997" y="-829.3" font-family="Arial" font-size="24.00" fill="#ffffff">API that handles capture,</text>
<text text-anchor="start" x="993.5" y="-805.3" font-family="Arial" font-size="24.00" fill="#ffffff">visit events, media artifact</text>
<text text-anchor="start" x="996.5" y="-781.3" font-family="Arial" font-size="24.00" fill="#ffffff">upload/fetch/purge, exact</text>
<text text-anchor="start" x="1093" y="-757.3" font-family="Arial" font-size="24.00" fill="#ffffff">search,</text>
<text text-anchor="start" x="984" y="-733.3" font-family="Arial" font-size="24.00" fill="#ffffff">recent/timeline/detail, policy</text>
<text text-anchor="start" x="1002" y="-709.3" font-family="Arial" font-size="24.00" fill="#ffffff">rules, doctor, forget, and</text>
<text text-anchor="start" x="1043.5" y="-685.3" font-family="Arial" font-size="24.00" fill="#ffffff">static UI serving.</text>
</g>
<!-- 27 -->
<g id="27" class="node">
<title>27</title>
<path fill="#2f95c8" stroke="#20688c" d="M2122.5,-585.72C2122.5,-608.98 2043.61,-627.88 1946.5,-627.88 1849.39,-627.88 1770.5,-608.98 1770.5,-585.72 1770.5,-585.72 1770.5,-206.28 1770.5,-206.28 1770.5,-183.02 1849.39,-164.12 1946.5,-164.12 2043.61,-164.12 2122.5,-183.02 2122.5,-206.28 2122.5,-206.28 2122.5,-585.72 2122.5,-585.72"/>
<path fill="none" stroke="#20688c" d="M2122.5,-585.72C2122.5,-562.45 2043.61,-543.56 1946.5,-543.56 1849.39,-543.56 1770.5,-562.45 1770.5,-585.72"/>
<text text-anchor="start" x="1833.5" y="-516.3" font-family="Arial" font-size="34.00" fill="#ffffff">SQLite + FTS5</text>
<text text-anchor="start" x="1873.5" y="-482.3" font-family="Arial" font-size="34.00" fill="#ffffff">Database</text>
<text text-anchor="start" x="1820.5" y="-460.3" font-family="Arial" font-size="19.00" fill="#ffffff">[Container: SQLite with FTS5]</text>
<text text-anchor="start" x="1827.5" y="-423.3" font-family="Arial" font-size="24.00" fill="#ffffff">Durable relational and</text>
<text text-anchor="start" x="1810" y="-399.3" font-family="Arial" font-size="24.00" fill="#ffffff">full&#45;text store for sources,</text>
<text text-anchor="start" x="1826" y="-375.3" font-family="Arial" font-size="24.00" fill="#ffffff">documents, visits, visit</text>
<text text-anchor="start" x="1800.5" y="-351.3" font-family="Arial" font-size="24.00" fill="#ffffff">events, snapshots, chunks,</text>
<text text-anchor="start" x="1799.5" y="-327.3" font-family="Arial" font-size="24.00" fill="#ffffff">chunks_fts, media artifacts,</text>
<text text-anchor="start" x="1814.5" y="-303.3" font-family="Arial" font-size="24.00" fill="#ffffff">media fetch tasks, policy</text>
<text text-anchor="start" x="1821" y="-279.3" font-family="Arial" font-size="24.00" fill="#ffffff">rules, audit events, and</text>
<text text-anchor="start" x="1854.5" y="-255.3" font-family="Arial" font-size="24.00" fill="#ffffff">deletion receipts.</text>
</g>
<!-- 14&#45;&gt;27 -->
<g id="43" class="edge">
<title>14&#45;&gt;27</title>
<path fill="none" stroke="#444444" stroke-dasharray="5,2" d="M1364.1,-704.07C1489.81,-637.46 1643.4,-556.08 1761.14,-493.69"/>
<polygon fill="#444444" stroke="#444444" points="1763.07,-496.63 1770.27,-488.85 1759.79,-490.44 1763.07,-496.63"/>
<polygon fill="white" stroke="transparent" points="1400,-674 1400,-773 1710,-773 1710,-674 1400,-674"/>
<text text-anchor="start" x="1404" y="-750.3" font-family="Arial" font-size="24.00" fill="#444444">Reads and writes metadata,</text>
<text text-anchor="start" x="1437" y="-726.3" font-family="Arial" font-size="24.00" fill="#444444">FTS, tasks, audit, and</text>
<text text-anchor="start" x="1499.5" y="-702.3" font-family="Arial" font-size="24.00" fill="#444444">receipts in</text>
<text text-anchor="start" x="1521.5" y="-682.3" font-family="Arial" font-size="19.00" fill="#444444">[sqlite3]</text>
</g>
<!-- 28 -->
<g id="28" class="node">
<title>28</title>
<path fill="#2f95c8" stroke="#20688c" d="M2147,-928.78C2147,-941.39 2057.13,-951.63 1946.5,-951.63 1835.87,-951.63 1746,-941.39 1746,-928.78 1746,-928.78 1746,-723.22 1746,-723.22 1746,-710.61 1835.87,-700.37 1946.5,-700.37 2057.13,-700.37 2147,-710.61 2147,-723.22 2147,-723.22 2147,-928.78 2147,-928.78"/>
<path fill="none" stroke="#20688c" d="M2147,-928.78C2147,-916.18 2057.13,-905.94 1946.5,-905.94 1835.87,-905.94 1746,-916.18 1746,-928.78"/>
<text text-anchor="start" x="1782" y="-869.3" font-family="Arial" font-size="34.00" fill="#ffffff">Clean Text Blob Store</text>
<text text-anchor="start" x="1829" y="-847.3" font-family="Arial" font-size="19.00" fill="#ffffff">[Container: WSL filesystem]</text>
<text text-anchor="start" x="1788" y="-810.3" font-family="Arial" font-size="24.00" fill="#ffffff">Filesystem store for snapshot</text>
<text text-anchor="start" x="1775" y="-786.3" font-family="Arial" font-size="24.00" fill="#ffffff">text blobs under WSL XDG data</text>
<text text-anchor="start" x="1913" y="-762.3" font-family="Arial" font-size="24.00" fill="#ffffff">paths.</text>
</g>
<!-- 14&#45;&gt;28 -->
<g id="44" class="edge">
<title>14&#45;&gt;28</title>
<path fill="none" stroke="#444444" stroke-dasharray="5,2" d="M1364.1,-826C1480.89,-826 1621.74,-826 1735.56,-826"/>
<polygon fill="#444444" stroke="#444444" points="1735.79,-829.5 1745.79,-826 1735.79,-822.5 1735.79,-829.5"/>
<polygon fill="white" stroke="transparent" points="1434.5,-826 1434.5,-901 1675.5,-901 1675.5,-826 1434.5,-826"/>
<text text-anchor="start" x="1439" y="-878.3" font-family="Arial" font-size="24.00" fill="#444444">Reads and writes text</text>
<text text-anchor="start" x="1487.5" y="-854.3" font-family="Arial" font-size="24.00" fill="#444444">snapshots in</text>
<text text-anchor="start" x="1504" y="-834.3" font-family="Arial" font-size="19.00" fill="#444444">[Filesystem]</text>
</g>
<!-- 29 -->
<g id="29" class="node">
<title>29</title>
<path fill="#2f95c8" stroke="#20688c" d="M2146.5,-1282.28C2146.5,-1296.54 2056.86,-1308.13 1946.5,-1308.13 1836.14,-1308.13 1746.5,-1296.54 1746.5,-1282.28 1746.5,-1282.28 1746.5,-1049.72 1746.5,-1049.72 1746.5,-1035.46 1836.14,-1023.87 1946.5,-1023.87 2056.86,-1023.87 2146.5,-1035.46 2146.5,-1049.72 2146.5,-1049.72 2146.5,-1282.28 2146.5,-1282.28"/>
<path fill="none" stroke="#20688c" d="M2146.5,-1282.28C2146.5,-1268.03 2056.86,-1256.44 1946.5,-1256.44 1836.14,-1256.44 1746.5,-1268.03 1746.5,-1282.28"/>
<text text-anchor="start" x="1807.5" y="-1221.3" font-family="Arial" font-size="34.00" fill="#ffffff">Media Blob Cache</text>
<text text-anchor="start" x="1829" y="-1199.3" font-family="Arial" font-size="19.00" fill="#ffffff">[Container: WSL filesystem]</text>
<text text-anchor="start" x="1813" y="-1162.3" font-family="Arial" font-size="24.00" fill="#ffffff">Bounded and disposable</text>
<text text-anchor="start" x="1802" y="-1138.3" font-family="Arial" font-size="24.00" fill="#ffffff">filesystem cache for stored</text>
<text text-anchor="start" x="1791" y="-1114.3" font-family="Arial" font-size="24.00" fill="#ffffff">image/video/audio blobs with</text>
<text text-anchor="start" x="1775.5" y="-1090.3" font-family="Arial" font-size="24.00" fill="#ffffff">purge and rehydrate semantics.</text>
</g>
<!-- 14&#45;&gt;29 -->
<g id="45" class="edge">
<title>14&#45;&gt;29</title>
<path fill="none" stroke="#444444" stroke-dasharray="5,2" d="M1364.3,-907.14C1509.77,-958.75 1676.43,-1018.66 1710,-1034 1718.95,-1038.09 1728.02,-1042.4 1737.12,-1046.86"/>
<polygon fill="#444444" stroke="#444444" points="1735.72,-1050.07 1746.24,-1051.37 1738.83,-1043.8 1735.72,-1050.07"/>
<polygon fill="white" stroke="transparent" points="1401,-1034 1401,-1133 1709,-1133 1709,-1034 1401,-1034"/>
<text text-anchor="start" x="1430" y="-1110.3" font-family="Arial" font-size="24.00" fill="#444444">Stores, serves, purges,</text>
<text text-anchor="start" x="1405" y="-1086.3" font-family="Arial" font-size="24.00" fill="#444444">and rehydrates media blobs</text>
<text text-anchor="start" x="1545.5" y="-1062.3" font-family="Arial" font-size="24.00" fill="#444444">in</text>
<text text-anchor="start" x="1503.5" y="-1042.3" font-family="Arial" font-size="19.00" fill="#444444">[Filesystem]</text>
</g>
<!-- 25 -->
<g id="25" class="node">
<title>25</title>
<polygon fill="#438dd5" stroke="#2e6295" points="546,-508.5 34,-508.5 34,-253.5 546,-253.5 546,-508.5"/>
<text text-anchor="start" x="187.5" y="-460.3" font-family="Arial" font-size="34.00" fill="#ffffff">Local Web UI</text>
<text text-anchor="start" x="63" y="-438.3" font-family="Arial" font-size="19.00" fill="#ffffff">[Container: HTML/CSS/JavaScript served by daemon]</text>
<text text-anchor="start" x="148" y="-401.3" font-family="Arial" font-size="24.00" fill="#ffffff">Static browser UI for exact</text>
<text text-anchor="start" x="131" y="-377.3" font-family="Arial" font-size="24.00" fill="#ffffff">search, recent/timeline views,</text>
<text text-anchor="start" x="148.5" y="-353.3" font-family="Arial" font-size="24.00" fill="#ffffff">document/snapshot detail,</text>
<text text-anchor="start" x="133" y="-329.3" font-family="Arial" font-size="24.00" fill="#ffffff">media artifact opening, policy</text>
<text text-anchor="start" x="196.5" y="-305.3" font-family="Arial" font-size="24.00" fill="#ffffff">rules, doctor, and</text>
<text text-anchor="start" x="151.5" y="-281.3" font-family="Arial" font-size="24.00" fill="#ffffff">forget&#45;domain operations.</text>
</g>
<!-- 25&#45;&gt;14 -->
<g id="39" class="edge">
<title>25&#45;&gt;14</title>
<path fill="none" stroke="#444444" stroke-dasharray="5,2" d="M532,-508.52C645.18,-568.41 779.72,-639.6 892.69,-699.37"/>
<polygon fill="#444444" stroke="#444444" points="891.35,-702.62 901.82,-704.21 894.62,-696.43 891.35,-702.62"/>
<polygon fill="white" stroke="transparent" points="586,-682 586,-781 863,-781 863,-682 586,-682"/>
<text text-anchor="start" x="591" y="-758.3" font-family="Arial" font-size="24.00" fill="#444444">Calls authenticated read,</text>
<text text-anchor="start" x="590.5" y="-734.3" font-family="Arial" font-size="24.00" fill="#444444">admin, media, and forget</text>
<text text-anchor="start" x="682.5" y="-710.3" font-family="Arial" font-size="24.00" fill="#444444">APIs on</text>
<text text-anchor="start" x="667" y="-690.3" font-family="Arial" font-size="19.00" fill="#444444">[HTTP/JSON]</text>
</g>
<!-- 26 -->
<g id="26" class="node">
<title>26</title>
<polygon fill="#438dd5" stroke="#2e6295" points="547,-953.5 33,-953.5 33,-698.5 547,-698.5 547,-953.5"/>
<text text-anchor="start" x="263" y="-905.3" font-family="Arial" font-size="34.00" fill="#ffffff">CLI</text>
<text text-anchor="start" x="169" y="-883.3" font-family="Arial" font-size="19.00" fill="#ffffff">[Container: Python argparse]</text>
<text text-anchor="start" x="143.5" y="-846.3" font-family="Arial" font-size="24.00" fill="#ffffff">Command&#45;line interface for</text>
<text text-anchor="start" x="180" y="-822.3" font-family="Arial" font-size="24.00" fill="#ffffff">serving the daemon,</text>
<text text-anchor="start" x="62" y="-798.3" font-family="Arial" font-size="24.00" fill="#ffffff">health/doctor/search/recent/timeline/detail,</text>
<text text-anchor="start" x="177" y="-774.3" font-family="Arial" font-size="24.00" fill="#ffffff">policy/forget, capture</text>
<text text-anchor="start" x="145" y="-750.3" font-family="Arial" font-size="24.00" fill="#ffffff">fixtures, media worker, and</text>
<text text-anchor="start" x="157.5" y="-726.3" font-family="Arial" font-size="24.00" fill="#ffffff">media cache operations.</text>
</g>
<!-- 26&#45;&gt;14 -->
<g id="40" class="edge">
<title>26&#45;&gt;14</title>
<path fill="none" stroke="#444444" stroke-dasharray="5,2" d="M547.04,-826C656.69,-826 784.04,-826 891.87,-826"/>
<polygon fill="#444444" stroke="#444444" points="891.91,-829.5 901.91,-826 891.91,-822.5 891.91,-829.5"/>
<polygon fill="white" stroke="transparent" points="583,-826 583,-925 866,-925 866,-826 583,-826"/>
<text text-anchor="start" x="587.5" y="-902.3" font-family="Arial" font-size="24.00" fill="#444444">Calls health, read, admin,</text>
<text text-anchor="start" x="620" y="-878.3" font-family="Arial" font-size="24.00" fill="#444444">capture&#45;fixture, and</text>
<text text-anchor="start" x="649" y="-854.3" font-family="Arial" font-size="24.00" fill="#444444">forget APIs on</text>
<text text-anchor="start" x="667" y="-834.3" font-family="Arial" font-size="19.00" fill="#444444">[HTTP/JSON]</text>
</g>
<!-- 26&#45;&gt;27 -->
<g id="41" class="edge">
<title>26&#45;&gt;27</title>
<path fill="none" stroke="#444444" stroke-dasharray="5,2" d="M503.16,-698.47C617.46,-635.6 763.18,-564.54 902,-523 1193.58,-435.75 1548.1,-408.28 1759.82,-399.73"/>
<polygon fill="#444444" stroke="#444444" points="1760.25,-403.22 1770.11,-399.33 1759.98,-396.22 1760.25,-403.22"/>
<polygon fill="white" stroke="transparent" points="996.5,-523 996.5,-622 1269.5,-622 1269.5,-523 996.5,-523"/>
<text text-anchor="start" x="1004.5" y="-599.3" font-family="Arial" font-size="24.00" fill="#444444">Runs media&#45;worker and</text>
<text text-anchor="start" x="1001" y="-575.3" font-family="Arial" font-size="24.00" fill="#444444">media&#45;cache commands</text>
<text text-anchor="start" x="1094" y="-551.3" font-family="Arial" font-size="24.00" fill="#444444">against</text>
<text text-anchor="start" x="1100" y="-531.3" font-family="Arial" font-size="19.00" fill="#444444">[sqlite3]</text>
</g>
<!-- 26&#45;&gt;29 -->
<g id="42" class="edge">
<title>26&#45;&gt;29</title>
<path fill="none" stroke="#444444" stroke-dasharray="5,2" d="M547.17,-930.51C559.24,-934.84 571.23,-939.03 583,-943 937.65,-1062.55 1028.99,-1097.8 1400,-1147 1510.35,-1161.63 1634.28,-1166.84 1736.09,-1168.18"/>
<polygon fill="#444444" stroke="#444444" points="1736.15,-1171.69 1746.19,-1168.31 1736.23,-1164.69 1736.15,-1171.69"/>
<polygon fill="white" stroke="transparent" points="1006,-1142 1006,-1217 1260,-1217 1260,-1142 1006,-1142"/>
<text text-anchor="start" x="1010" y="-1194.3" font-family="Arial" font-size="24.00" fill="#444444">Purges and rehydrates</text>
<text text-anchor="start" x="1023" y="-1170.3" font-family="Arial" font-size="24.00" fill="#444444">media blobs through</text>
<text text-anchor="start" x="1081.5" y="-1150.3" font-family="Arial" font-size="19.00" fill="#444444">[Filesystem]</text>
</g>
</g>
</svg>
