<?xml version="1.0" encoding="UTF-8" standalone="no"?>
<!DOCTYPE svg PUBLIC "-//W3C//DTD SVG 1.1//EN"
 "http://www.w3.org/Graphics/SVG/1.1/DTD/svg11.dtd">
<!-- Generated by graphviz version 2.43.0 (0)
 -->
<!-- Title: %3 Pages: 1 -->
<svg width="2018pt" height="1349pt"
 viewBox="0.00 0.00 2018.00 1349.00" xmlns="http://www.w3.org/2000/svg" xmlns:xlink="http://www.w3.org/1999/xlink">
<g id="graph0" class="graph" transform="scale(1 1) rotate(0) translate(4 1345)">
<title>%3</title>
<polygon fill="white" stroke="transparent" points="-4,4 -4,-1345 2014,-1345 2014,4 -4,4"/>
<text text-anchor="start" x="420" y="-11.8" font-family="Arial" font-size="34.00">Component View: Browser Memory Daemon &#45; WSL Loopback HTTP Daemon</text>
<g id="clust1" class="cluster">
<title>cluster_4</title>
<polygon fill="none" stroke="#444444" points="8,-64 8,-1333 2002,-1333 2002,-64 8,-64"/>
<text text-anchor="start" x="864" y="-92.8" font-family="Arial" font-size="24.00" fill="#444444">Browser Memory Daemon</text>
<text text-anchor="start" x="928" y="-72.8" font-family="Arial" font-size="19.00" fill="#444444">[Software System]</text>
</g>
<g id="clust2" class="cluster">
<title>cluster_14</title>
<polygon fill="none" stroke="#444444" points="33,-610 33,-967 1242,-967 1242,-610 33,-610"/>
<text text-anchor="start" x="472" y="-638.8" font-family="Arial" font-size="24.00" fill="#444444">WSL Loopback HTTP Daemon</text>
<text text-anchor="start" x="435.5" y="-618.8" font-family="Arial" font-size="19.00" fill="#444444">[Container: Python 3.11, ThreadingHTTPServer]</text>
</g>
<!-- 15 -->
<g id="15" class="node">
<title>15</title>
<polygon fill="#85bbf0" stroke="#5d82a8" points="453,-941.5 58,-941.5 58,-710.5 453,-710.5 453,-941.5"/>
<text text-anchor="start" x="87" y="-893.3" font-family="Arial" font-size="34.00" fill="#000000">HTTP Request Router</text>
<text text-anchor="start" x="119" y="-871.3" font-family="Arial" font-size="19.00" fill="#000000">[Component: Python http.server]</text>
<text text-anchor="start" x="90" y="-834.3" font-family="Arial" font-size="24.00" fill="#000000">Routes loopback API requests,</text>
<text text-anchor="start" x="112.5" y="-810.3" font-family="Arial" font-size="24.00" fill="#000000">serves UI assets, enforces</text>
<text text-anchor="start" x="91.5" y="-786.3" font-family="Arial" font-size="24.00" fill="#000000">bearer auth for memory/admin</text>
<text text-anchor="start" x="106" y="-762.3" font-family="Arial" font-size="24.00" fill="#000000">APIs, and applies CORS for</text>
<text text-anchor="start" x="172" y="-738.3" font-family="Arial" font-size="24.00" fill="#000000">allowed origins.</text>
</g>
<!-- 21 -->
<g id="21" class="node">
<title>21</title>
<polygon fill="#85bbf0" stroke="#5d82a8" points="1217,-941.5 792,-941.5 792,-710.5 1217,-710.5 1217,-941.5"/>
<text text-anchor="start" x="821" y="-893.3" font-family="Arial" font-size="34.00" fill="#000000">Search and Read Model</text>
<text text-anchor="start" x="849.5" y="-871.3" font-family="Arial" font-size="19.00" fill="#000000">[Component: Python + SQLite FTS5]</text>
<text text-anchor="start" x="855.5" y="-834.3" font-family="Arial" font-size="24.00" fill="#000000">Provides exact FTS search,</text>
<text text-anchor="start" x="869" y="-810.3" font-family="Arial" font-size="24.00" fill="#000000">recent captures, timeline,</text>
<text text-anchor="start" x="863" y="-786.3" font-family="Arial" font-size="24.00" fill="#000000">document detail, snapshot</text>
<text text-anchor="start" x="872" y="-762.3" font-family="Arial" font-size="24.00" fill="#000000">detail, and media artifact</text>
<text text-anchor="start" x="938.5" y="-738.3" font-family="Arial" font-size="24.00" fill="#000000">detail views.</text>
</g>
<!-- 15&#45;&gt;21 -->
<g id="66" class="edge">
<title>15&#45;&gt;21</title>
<path fill="none" stroke="#444444" stroke-dasharray="5,2" d="M453.25,-826C554.17,-826 677.47,-826 781.75,-826"/>
<polygon fill="#444444" stroke="#444444" points="781.78,-829.5 791.78,-826 781.78,-822.5 781.78,-829.5"/>
<polygon fill="white" stroke="transparent" points="489,-826 489,-860 756,-860 756,-826 489,-826"/>
<text text-anchor="start" x="493.5" y="-836.8" font-family="Arial" font-size="24.00" fill="#444444">Routes read requests to</text>
</g>
<!-- 27 -->
<g id="27" class="node">
<title>27</title>
<path fill="#2f95c8" stroke="#20688c" d="M1952.5,-585.72C1952.5,-608.98 1873.61,-627.88 1776.5,-627.88 1679.39,-627.88 1600.5,-608.98 1600.5,-585.72 1600.5,-585.72 1600.5,-206.28 1600.5,-206.28 1600.5,-183.02 1679.39,-164.12 1776.5,-164.12 1873.61,-164.12 1952.5,-183.02 1952.5,-206.28 1952.5,-206.28 1952.5,-585.72 1952.5,-585.72"/>
<path fill="none" stroke="#20688c" d="M1952.5,-585.72C1952.5,-562.45 1873.61,-543.56 1776.5,-543.56 1679.39,-543.56 1600.5,-562.45 1600.5,-585.72"/>
<text text-anchor="start" x="1663.5" y="-516.3" font-family="Arial" font-size="34.00" fill="#ffffff">SQLite + FTS5</text>
<text text-anchor="start" x="1703.5" y="-482.3" font-family="Arial" font-size="34.00" fill="#ffffff">Database</text>
<text text-anchor="start" x="1650.5" y="-460.3" font-family="Arial" font-size="19.00" fill="#ffffff">[Container: SQLite with FTS5]</text>
<text text-anchor="start" x="1657.5" y="-423.3" font-family="Arial" font-size="24.00" fill="#ffffff">Durable relational and</text>
<text text-anchor="start" x="1640" y="-399.3" font-family="Arial" font-size="24.00" fill="#ffffff">full&#45;text store for sources,</text>
<text text-anchor="start" x="1656" y="-375.3" font-family="Arial" font-size="24.00" fill="#ffffff">documents, visits, visit</text>
<text text-anchor="start" x="1630.5" y="-351.3" font-family="Arial" font-size="24.00" fill="#ffffff">events, snapshots, chunks,</text>
<text text-anchor="start" x="1629.5" y="-327.3" font-family="Arial" font-size="24.00" fill="#ffffff">chunks_fts, media artifacts,</text>
<text text-anchor="start" x="1644.5" y="-303.3" font-family="Arial" font-size="24.00" fill="#ffffff">media fetch tasks, policy</text>
<text text-anchor="start" x="1651" y="-279.3" font-family="Arial" font-size="24.00" fill="#ffffff">rules, audit events, and</text>
<text text-anchor="start" x="1684.5" y="-255.3" font-family="Arial" font-size="24.00" fill="#ffffff">deletion receipts.</text>
</g>
<!-- 21&#45;&gt;27 -->
<g id="76" class="edge">
<title>21&#45;&gt;27</title>
<path fill="none" stroke="#444444" stroke-dasharray="5,2" d="M1212.35,-710.49C1330.55,-644.48 1477.48,-562.43 1591.62,-498.68"/>
<polygon fill="#444444" stroke="#444444" points="1593.45,-501.67 1600.48,-493.74 1590.04,-495.56 1593.45,-501.67"/>
<polygon fill="white" stroke="transparent" points="1253.5,-686 1253.5,-761 1539.5,-761 1539.5,-686 1253.5,-686"/>
<text text-anchor="start" x="1257.5" y="-738.3" font-family="Arial" font-size="24.00" fill="#444444">Reads metadata and FTS</text>
<text text-anchor="start" x="1372" y="-714.3" font-family="Arial" font-size="24.00" fill="#444444">from</text>
<text text-anchor="start" x="1336" y="-694.3" font-family="Arial" font-size="19.00" fill="#444444">[SQLite FTS5]</text>
</g>
<!-- 28 -->
<g id="28" class="node">
<title>28</title>
<path fill="#2f95c8" stroke="#20688c" d="M1977,-928.78C1977,-941.39 1887.13,-951.63 1776.5,-951.63 1665.87,-951.63 1576,-941.39 1576,-928.78 1576,-928.78 1576,-723.22 1576,-723.22 1576,-710.61 1665.87,-700.37 1776.5,-700.37 1887.13,-700.37 1977,-710.61 1977,-723.22 1977,-723.22 1977,-928.78 1977,-928.78"/>
<path fill="none" stroke="#20688c" d="M1977,-928.78C1977,-916.18 1887.13,-905.94 1776.5,-905.94 1665.87,-905.94 1576,-916.18 1576,-928.78"/>
<text text-anchor="start" x="1612" y="-869.3" font-family="Arial" font-size="34.00" fill="#ffffff">Clean Text Blob Store</text>
<text text-anchor="start" x="1659" y="-847.3" font-family="Arial" font-size="19.00" fill="#ffffff">[Container: WSL filesystem]</text>
<text text-anchor="start" x="1618" y="-810.3" font-family="Arial" font-size="24.00" fill="#ffffff">Filesystem store for snapshot</text>
<text text-anchor="start" x="1605" y="-786.3" font-family="Arial" font-size="24.00" fill="#ffffff">text blobs under WSL XDG data</text>
<text text-anchor="start" x="1743" y="-762.3" font-family="Arial" font-size="24.00" fill="#ffffff">paths.</text>
</g>
<!-- 21&#45;&gt;28 -->
<g id="77" class="edge">
<title>21&#45;&gt;28</title>
<path fill="none" stroke="#444444" stroke-dasharray="5,2" d="M1217.18,-826C1325.76,-826 1457.58,-826 1565.86,-826"/>
<polygon fill="#444444" stroke="#444444" points="1565.93,-829.5 1575.93,-826 1565.93,-822.5 1565.93,-829.5"/>
<polygon fill="white" stroke="transparent" points="1263,-826 1263,-901 1530,-901 1530,-826 1263,-826"/>
<text text-anchor="start" x="1267.5" y="-878.3" font-family="Arial" font-size="24.00" fill="#444444">Reads full snapshot text</text>
<text text-anchor="start" x="1372.5" y="-854.3" font-family="Arial" font-size="24.00" fill="#444444">from</text>
<text text-anchor="start" x="1345.5" y="-834.3" font-family="Arial" font-size="19.00" fill="#444444">[Filesystem]</text>
</g>
<!-- 29 -->
<g id="29" class="node">
<title>29</title>
<path fill="#2f95c8" stroke="#20688c" d="M1976.5,-1282.28C1976.5,-1296.54 1886.86,-1308.13 1776.5,-1308.13 1666.14,-1308.13 1576.5,-1296.54 1576.5,-1282.28 1576.5,-1282.28 1576.5,-1049.72 1576.5,-1049.72 1576.5,-1035.46 1666.14,-1023.87 1776.5,-1023.87 1886.86,-1023.87 1976.5,-1035.46 1976.5,-1049.72 1976.5,-1049.72 1976.5,-1282.28 1976.5,-1282.28"/>
<path fill="none" stroke="#20688c" d="M1976.5,-1282.28C1976.5,-1268.03 1886.86,-1256.44 1776.5,-1256.44 1666.14,-1256.44 1576.5,-1268.03 1576.5,-1282.28"/>
<text text-anchor="start" x="1637.5" y="-1221.3" font-family="Arial" font-size="34.00" fill="#ffffff">Media Blob Cache</text>
<text text-anchor="start" x="1659" y="-1199.3" font-family="Arial" font-size="19.00" fill="#ffffff">[Container: WSL filesystem]</text>
<text text-anchor="start" x="1643" y="-1162.3" font-family="Arial" font-size="24.00" fill="#ffffff">Bounded and disposable</text>
<text text-anchor="start" x="1632" y="-1138.3" font-family="Arial" font-size="24.00" fill="#ffffff">filesystem cache for stored</text>
<text text-anchor="start" x="1621" y="-1114.3" font-family="Arial" font-size="24.00" fill="#ffffff">image/video/audio blobs with</text>
<text text-anchor="start" x="1605.5" y="-1090.3" font-family="Arial" font-size="24.00" fill="#ffffff">purge and rehydrate semantics.</text>
</g>
<!-- 21&#45;&gt;29 -->
<g id="78" class="edge">
<title>21&#45;&gt;29</title>
<path fill="none" stroke="#444444" stroke-dasharray="5,2" d="M1217.18,-919.47C1326.08,-967.56 1458.37,-1025.97 1566.84,-1073.86"/>
<polygon fill="#444444" stroke="#444444" points="1565.7,-1077.19 1576.26,-1078.02 1568.53,-1070.78 1565.7,-1077.19"/>
<polygon fill="white" stroke="transparent" points="1253,-1060 1253,-1135 1540,-1135 1540,-1060 1253,-1060"/>
<text text-anchor="start" x="1257.5" y="-1112.3" font-family="Arial" font-size="24.00" fill="#444444">Checks and serves media</text>
<text text-anchor="start" x="1347.5" y="-1088.3" font-family="Arial" font-size="24.00" fill="#444444">files from</text>
<text text-anchor="start" x="1345.5" y="-1068.3" font-family="Arial" font-size="19.00" fill="#444444">[Filesystem]</text>
</g>
</g>
</svg>
