<?xml version="1.0" encoding="UTF-8" standalone="no"?>
<!DOCTYPE svg PUBLIC "-//W3C//DTD SVG 1.1//EN"
 "http://www.w3.org/Graphics/SVG/1.1/DTD/svg11.dtd">
<!-- Generated by graphviz version 2.43.0 (0)
 -->
<!-- Title: %3 Pages: 1 -->
<svg width="1543pt" height="1654pt"
 viewBox="0.00 0.00 1543.00 1653.75" xmlns="http://www.w3.org/2000/svg" xmlns:xlink="http://www.w3.org/1999/xlink">
<g id="graph0" class="graph" transform="scale(1 1) rotate(0) translate(4 1649.75)">
<title>%3</title>
<polygon fill="white" stroke="transparent" points="-4,4 -4,-1649.75 1539,-1649.75 1539,4 -4,4"/>
<text text-anchor="start" x="445" y="-11.8" font-family="Arial" font-size="34.00">Container View: Browser Memory Daemon</text>
<g id="clust1" class="cluster">
<title>cluster_4</title>
<polygon fill="none" stroke="#444444" points="8,-64 8,-1637.75 1045,-1637.75 1045,-64 8,-64"/>
<text text-anchor="start" x="385.5" y="-92.8" font-family="Arial" font-size="24.00" fill="#444444">Browser Memory Daemon</text>
<text text-anchor="start" x="449.5" y="-72.8" font-family="Arial" font-size="19.00" fill="#444444">[Software System]</text>
</g>
<!-- 3 -->
<g id="3" class="node">
<title>3</title>
<polygon fill="#999999" stroke="#6b6b6b" points="1495.5,-1113.06 1092.5,-1113.06 1092.5,-848.06 1495.5,-848.06 1495.5,-1113.06"/>
<text text-anchor="start" x="1132.5" y="-1064.86" font-family="Arial" font-size="34.00" fill="#ffffff">Web Sites and Media</text>
<text text-anchor="start" x="1240" y="-1030.86" font-family="Arial" font-size="34.00" fill="#ffffff">Origins</text>
<text text-anchor="start" x="1217" y="-1008.86" font-family="Arial" font-size="19.00" fill="#ffffff">[Software System]</text>
<text text-anchor="start" x="1184" y="-971.86" font-family="Arial" font-size="24.00" fill="#ffffff">External web pages,</text>
<text text-anchor="start" x="1131.5" y="-947.86" font-family="Arial" font-size="24.00" fill="#ffffff">image/video URLs, and media</text>
<text text-anchor="start" x="1121.5" y="-923.86" font-family="Arial" font-size="24.00" fill="#ffffff">CDNs that Chrome loads or that</text>
<text text-anchor="start" x="1131.5" y="-899.86" font-family="Arial" font-size="24.00" fill="#ffffff">sidecars fetch as page&#45;related</text>
<text text-anchor="start" x="1257.5" y="-875.86" font-family="Arial" font-size="24.00" fill="#ffffff">media.</text>
</g>
<!-- 13 -->
<g id="13" class="node">
<title>13</title>
<path fill="#2f95c8" stroke="#20688c" d="M485.5,-1129.78C485.5,-1148.08 383.98,-1162.94 259,-1162.94 134.02,-1162.94 32.5,-1148.08 32.5,-1129.78 32.5,-1129.78 32.5,-831.35 32.5,-831.35 32.5,-813.05 134.02,-798.19 259,-798.19 383.98,-798.19 485.5,-813.05 485.5,-831.35 485.5,-831.35 485.5,-1129.78 485.5,-1129.78"/>
<path fill="none" stroke="#20688c" d="M485.5,-1129.78C485.5,-1111.48 383.98,-1096.62 259,-1096.62 134.02,-1096.62 32.5,-1111.48 32.5,-1129.78"/>
<text text-anchor="start" x="117" y="-1064.86" font-family="Arial" font-size="34.00" fill="#ffffff">Extension Browser</text>
<text text-anchor="start" x="199.5" y="-1030.86" font-family="Arial" font-size="34.00" fill="#ffffff">Storage</text>
<text text-anchor="start" x="61.5" y="-1008.86" font-family="Arial" font-size="19.00" fill="#ffffff">[Container: chrome.storage.local + IndexedDB]</text>
<text text-anchor="start" x="126.5" y="-971.86" font-family="Arial" font-size="24.00" fill="#ffffff">Browser&#45;side storage for</text>
<text text-anchor="start" x="114.5" y="-947.86" font-family="Arial" font-size="24.00" fill="#ffffff">capture and visit queues in</text>
<text text-anchor="start" x="120.5" y="-923.86" font-family="Arial" font-size="24.00" fill="#ffffff">chrome.storage.local plus</text>
<text text-anchor="start" x="126.5" y="-899.86" font-family="Arial" font-size="24.00" fill="#ffffff">durable media tasks and</text>
<text text-anchor="start" x="107.5" y="-875.86" font-family="Arial" font-size="24.00" fill="#ffffff">fetched blobs in IndexedDB.</text>
</g>
<!-- 14 -->
<g id="14" class="node">
<title>14</title>
<polygon fill="#438dd5" stroke="#2e6295" points="1020,-1149.06 558,-1149.06 558,-812.06 1020,-812.06 1020,-1149.06"/>
<text text-anchor="start" x="624.5" y="-1100.86" font-family="Arial" font-size="34.00" fill="#ffffff">WSL Loopback HTTP</text>
<text text-anchor="start" x="724.5" y="-1066.86" font-family="Arial" font-size="34.00" fill="#ffffff">Daemon</text>
<text text-anchor="start" x="587" y="-1044.86" font-family="Arial" font-size="19.00" fill="#ffffff">[Container: Python 3.11, ThreadingHTTPServer]</text>
<text text-anchor="start" x="628" y="-1007.86" font-family="Arial" font-size="24.00" fill="#ffffff">Authenticated loopback HTTP</text>
<text text-anchor="start" x="653" y="-983.86" font-family="Arial" font-size="24.00" fill="#ffffff">API that handles capture,</text>
<text text-anchor="start" x="649.5" y="-959.86" font-family="Arial" font-size="24.00" fill="#ffffff">visit events, media artifact</text>
<text text-anchor="start" x="652.5" y="-935.86" font-family="Arial" font-size="24.00" fill="#ffffff">upload/fetch/purge, exact</text>
<text text-anchor="start" x="749" y="-911.86" font-family="Arial" font-size="24.00" fill="#ffffff">search,</text>
<text text-anchor="start" x="640" y="-887.86" font-family="Arial" font-size="24.00" fill="#ffffff">recent/timeline/detail, policy</text>
<text text-anchor="start" x="658" y="-863.86" font-family="Arial" font-size="24.00" fill="#ffffff">rules, doctor, forget, and</text>
<text text-anchor="start" x="699.5" y="-839.86" font-family="Arial" font-size="24.00" fill="#ffffff">static UI serving.</text>
</g>
<!-- 27 -->
<g id="27" class="node">
<title>27</title>
<path fill="#2f95c8" stroke="#20688c" d="M470,-585.4C470,-608.67 391.11,-627.56 294,-627.56 196.89,-627.56 118,-608.67 118,-585.4 118,-585.4 118,-205.97 118,-205.97 118,-182.71 196.89,-163.81 294,-163.81 391.11,-163.81 470,-182.71 470,-205.97 470,-205.97 470,-585.4 470,-585.4"/>
<path fill="none" stroke="#20688c" d="M470,-585.4C470,-562.14 391.11,-543.24 294,-543.24 196.89,-543.24 118,-562.14 118,-585.4"/>
<text text-anchor="start" x="181" y="-515.99" font-family="Arial" font-size="34.00" fill="#ffffff">SQLite + FTS5</text>
<text text-anchor="start" x="221" y="-481.99" font-family="Arial" font-size="34.00" fill="#ffffff">Database</text>
<text text-anchor="start" x="168" y="-459.99" font-family="Arial" font-size="19.00" fill="#ffffff">[Container: SQLite with FTS5]</text>
<text text-anchor="start" x="175" y="-422.99" font-family="Arial" font-size="24.00" fill="#ffffff">Durable relational and</text>
<text text-anchor="start" x="157.5" y="-398.99" font-family="Arial" font-size="24.00" fill="#ffffff">full&#45;text store for sources,</text>
<text text-anchor="start" x="173.5" y="-374.99" font-family="Arial" font-size="24.00" fill="#ffffff">documents, visits, visit</text>
<text text-anchor="start" x="148" y="-350.99" font-family="Arial" font-size="24.00" fill="#ffffff">events, snapshots, chunks,</text>
<text text-anchor="start" x="147" y="-326.99" font-family="Arial" font-size="24.00" fill="#ffffff">chunks_fts, media artifacts,</text>
<text text-anchor="start" x="162" y="-302.99" font-family="Arial" font-size="24.00" fill="#ffffff">media fetch tasks, policy</text>
<text text-anchor="start" x="168.5" y="-278.99" font-family="Arial" font-size="24.00" fill="#ffffff">rules, audit events, and</text>
<text text-anchor="start" x="202" y="-254.99" font-family="Arial" font-size="24.00" fill="#ffffff">deletion receipts.</text>
</g>
<!-- 14&#45;&gt;27 -->
<g id="43" class="edge">
<title>14&#45;&gt;27</title>
<path fill="none" stroke="#444444" stroke-dasharray="5,2" d="M557.9,-819.43C545.55,-812.1 533.2,-805.04 521,-798.38 485.35,-778.91 465.26,-791.55 437,-762.38 402.84,-727.1 376.58,-682.72 356.48,-637.15"/>
<polygon fill="#444444" stroke="#444444" points="359.59,-635.52 352.41,-627.72 353.16,-638.29 359.59,-635.52"/>
<polygon fill="white" stroke="transparent" points="437,-663.38 437,-762.38 747,-762.38 747,-663.38 437,-663.38"/>
<text text-anchor="start" x="441" y="-739.67" font-family="Arial" font-size="24.00" fill="#444444">Reads and writes metadata,</text>
<text text-anchor="start" x="474" y="-715.67" font-family="Arial" font-size="24.00" fill="#444444">FTS, tasks, audit, and</text>
<text text-anchor="start" x="536.5" y="-691.67" font-family="Arial" font-size="24.00" fill="#444444">receipts in</text>
<text text-anchor="start" x="558.5" y="-671.67" font-family="Arial" font-size="19.00" fill="#444444">[sqlite3]</text>
</g>
<!-- 29 -->
<g id="29" class="node">
<title>29</title>
<path fill="#2f95c8" stroke="#20688c" d="M942,-511.97C942,-526.23 852.36,-537.81 742,-537.81 631.64,-537.81 542,-526.23 542,-511.97 542,-511.97 542,-279.4 542,-279.4 542,-265.14 631.64,-253.56 742,-253.56 852.36,-253.56 942,-265.14 942,-279.4 942,-279.4 942,-511.97 942,-511.97"/>
<path fill="none" stroke="#20688c" d="M942,-511.97C942,-497.71 852.36,-486.13 742,-486.13 631.64,-486.13 542,-497.71 542,-511.97"/>
<text text-anchor="start" x="603" y="-450.99" font-family="Arial" font-size="34.00" fill="#ffffff">Media Blob Cache</text>
<text text-anchor="start" x="624.5" y="-428.99" font-family="Arial" font-size="19.00" fill="#ffffff">[Container: WSL filesystem]</text>
<text text-anchor="start" x="608.5" y="-391.99" font-family="Arial" font-size="24.00" fill="#ffffff">Bounded and disposable</text>
<text text-anchor="start" x="597.5" y="-367.99" font-family="Arial" font-size="24.00" fill="#ffffff">filesystem cache for stored</text>
<text text-anchor="start" x="586.5" y="-343.99" font-family="Arial" font-size="24.00" fill="#ffffff">image/video/audio blobs with</text>
<text text-anchor="start" x="571" y="-319.99" font-family="Arial" font-size="24.00" fill="#ffffff">purge and rehydrate semantics.</text>
</g>
<!-- 14&#45;&gt;29 -->
<g id="45" class="edge">
<title>14&#45;&gt;29</title>
<path fill="none" stroke="#444444" stroke-dasharray="5,2" d="M775.47,-811.75C768.77,-728.7 760.75,-629.21 754.24,-548.46"/>
<polygon fill="#444444" stroke="#444444" points="757.7,-547.89 753.41,-538.2 750.73,-548.45 757.7,-547.89"/>
<polygon fill="white" stroke="transparent" points="772,-663.38 772,-762.38 1080,-762.38 1080,-663.38 772,-663.38"/>
<text text-anchor="start" x="801" y="-739.67" font-family="Arial" font-size="24.00" fill="#444444">Stores, serves, purges,</text>
<text text-anchor="start" x="776" y="-715.67" font-family="Arial" font-size="24.00" fill="#444444">and rehydrates media blobs</text>
<text text-anchor="start" x="916.5" y="-691.67" font-family="Arial" font-size="24.00" fill="#444444">in</text>
<text text-anchor="start" x="874.5" y="-671.67" font-family="Arial" font-size="19.00" fill="#444444">[Filesystem]</text>
</g>
<!-- 5 -->
<g id="5" class="node">
<title>5</title>
<polygon fill="#438dd5" stroke="#2e6295" points="742,-1612.75 308,-1612.75 308,-1333.75 742,-1333.75 742,-1612.75"/>
<text text-anchor="start" x="345" y="-1564.55" font-family="Arial" font-size="34.00" fill="#ffffff">Chrome MV3 Extension</text>
<text text-anchor="start" x="337" y="-1542.55" font-family="Arial" font-size="19.00" fill="#ffffff">[Container: JavaScript, Chrome Manifest V3]</text>
<text text-anchor="start" x="382" y="-1505.55" font-family="Arial" font-size="24.00" fill="#ffffff">Captures visible page text,</text>
<text text-anchor="start" x="407.5" y="-1481.55" font-family="Arial" font-size="24.00" fill="#ffffff">media references, tab</text>
<text text-anchor="start" x="416" y="-1457.55" font-family="Arial" font-size="24.00" fill="#ffffff">lifecycle events, and</text>
<text text-anchor="start" x="359" y="-1433.55" font-family="Arial" font-size="24.00" fill="#ffffff">browser&#45;side media bytes from</text>
<text text-anchor="start" x="354" y="-1409.55" font-family="Arial" font-size="24.00" fill="#ffffff">Windows Chrome; queues work</text>
<text text-anchor="start" x="366" y="-1385.55" font-family="Arial" font-size="24.00" fill="#ffffff">durably and posts to the WSL</text>
<text text-anchor="start" x="477.5" y="-1361.55" font-family="Arial" font-size="24.00" fill="#ffffff">daemon.</text>
</g>
<!-- 5&#45;&gt;3 -->
<g id="36" class="edge">
<title>5&#45;&gt;3</title>
<path fill="none" stroke="#444444" stroke-dasharray="5,2" d="M742.2,-1436.39C906.35,-1405.32 1113.99,-1356.21 1178,-1297.75 1227.48,-1252.55 1255.91,-1184.44 1272.22,-1123"/>
<polygon fill="#444444" stroke="#444444" points="1275.64,-1123.76 1274.73,-1113.2 1268.86,-1122.02 1275.64,-1123.76"/>
<polygon fill="white" stroke="transparent" points="1244,-1198.75 1244,-1297.75 1535,-1297.75 1535,-1198.75 1244,-1198.75"/>
<text text-anchor="start" x="1267.5" y="-1275.05" font-family="Arial" font-size="24.00" fill="#444444">Extracts DOM refs and</text>
<text text-anchor="start" x="1307" y="-1251.05" font-family="Arial" font-size="24.00" fill="#444444">fetches queued</text>
<text text-anchor="start" x="1259.5" y="-1227.05" font-family="Arial" font-size="24.00" fill="#444444">credentialed media from</text>
<text text-anchor="start" x="1248.5" y="-1207.05" font-family="Arial" font-size="19.00" fill="#444444">[DOM; fetch(credentials: include)]</text>
</g>
<!-- 5&#45;&gt;13 -->
<g id="37" class="edge">
<title>5&#45;&gt;13</title>
<path fill="none" stroke="#444444" stroke-dasharray="5,2" d="M322.01,-1333.58C312.63,-1322.25 304.16,-1310.3 297,-1297.75 275.58,-1260.22 263.7,-1216.13 257.53,-1172.99"/>
<polygon fill="#444444" stroke="#444444" points="260.98,-1172.37 256.19,-1162.92 254.04,-1173.3 260.98,-1172.37"/>
<polygon fill="white" stroke="transparent" points="297,-1198.75 297,-1297.75 608,-1297.75 608,-1198.75 297,-1198.75"/>
<text text-anchor="start" x="311" y="-1275.05" font-family="Arial" font-size="24.00" fill="#444444">Queues captures, lifecycle</text>
<text text-anchor="start" x="319" y="-1251.05" font-family="Arial" font-size="24.00" fill="#444444">events, media tasks, and</text>
<text text-anchor="start" x="411" y="-1227.05" font-family="Arial" font-size="24.00" fill="#444444">blobs in</text>
<text text-anchor="start" x="301.5" y="-1207.05" font-family="Arial" font-size="19.00" fill="#444444">[chrome.storage.local + IndexedDB]</text>
</g>
<!-- 5&#45;&gt;14 -->
<g id="38" class="edge">
<title>5&#45;&gt;14</title>
<path fill="none" stroke="#444444" stroke-dasharray="5,2" d="M599.59,-1333.61C628.89,-1279.15 662.87,-1215.99 693.9,-1158.33"/>
<polygon fill="#444444" stroke="#444444" points="696.99,-1159.96 698.65,-1149.49 690.83,-1156.64 696.99,-1159.96"/>
<polygon fill="white" stroke="transparent" points="665,-1198.75 665,-1297.75 1160,-1297.75 1160,-1198.75 665,-1198.75"/>
<text text-anchor="start" x="787" y="-1275.05" font-family="Arial" font-size="24.00" fill="#444444">Posts captures, events,</text>
<text text-anchor="start" x="776" y="-1251.05" font-family="Arial" font-size="24.00" fill="#444444">media metadata, and raw</text>
<text text-anchor="start" x="870.5" y="-1227.05" font-family="Arial" font-size="24.00" fill="#444444">blobs to</text>
<text text-anchor="start" x="669.5" y="-1207.05" font-family="Arial" font-size="19.00" fill="#444444">[Bearer HTTP/JSON; raw HTTP PUT over 127.0.0.1:8765]</text>
</g>
</g>
</svg>
