<?xml version="1.0" encoding="UTF-8" standalone="no"?>
<!DOCTYPE svg PUBLIC "-//W3C//DTD SVG 1.1//EN"
 "http://www.w3.org/Graphics/SVG/1.1/DTD/svg11.dtd">
<!-- Generated by graphviz version 2.43.0 (0)
 -->
<!-- Title: %3 Pages: 1 -->
<svg width="2274pt" height="1242pt"
 viewBox="0.00 0.00 2274.00 1241.50" xmlns="http://www.w3.org/2000/svg" xmlns:xlink="http://www.w3.org/1999/xlink">
<g id="graph0" class="graph" transform="scale(1 1) rotate(0) translate(4 1237.5)">
<title>%3</title>
<polygon fill="white" stroke="transparent" points="-4,4 -4,-1237.5 2270,-1237.5 2270,4 -4,4"/>
<text text-anchor="start" x="817.5" y="-11.8" font-family="Arial" font-size="34.00">Dynamic View: Browser Memory Daemon</text>
<g id="clust1" class="cluster">
<title>cluster_4</title>
<polygon fill="none" stroke="#444444" points="8,-312.5 8,-1225.5 2258,-1225.5 2258,-312.5 8,-312.5"/>
<text text-anchor="start" x="992" y="-341.3" font-family="Arial" font-size="24.00" fill="#444444">Browser Memory Daemon</text>
<text text-anchor="start" x="1056" y="-321.3" font-family="Arial" font-size="19.00" fill="#444444">[Software System]</text>
</g>
<!-- 13 -->
<g id="13" class="node">
<title>13</title>
<path fill="#2f95c8" stroke="#20688c" d="M1483.5,-743.72C1483.5,-762.01 1381.98,-776.88 1257,-776.88 1132.02,-776.88 1030.5,-762.01 1030.5,-743.72 1030.5,-743.72 1030.5,-445.28 1030.5,-445.28 1030.5,-426.99 1132.02,-412.12 1257,-412.12 1381.98,-412.12 1483.5,-426.99 1483.5,-445.28 1483.5,-445.28 1483.5,-743.72 1483.5,-743.72"/>
<path fill="none" stroke="#20688c" d="M1483.5,-743.72C1483.5,-725.42 1381.98,-710.56 1257,-710.56 1132.02,-710.56 1030.5,-725.42 1030.5,-743.72"/>
<text text-anchor="start" x="1115" y="-678.8" font-family="Arial" font-size="34.00" fill="#ffffff">Extension Browser</text>
<text text-anchor="start" x="1197.5" y="-644.8" font-family="Arial" font-size="34.00" fill="#ffffff">Storage</text>
<text text-anchor="start" x="1059.5" y="-622.8" font-family="Arial" font-size="19.00" fill="#ffffff">[Container: chrome.storage.local + IndexedDB]</text>
<text text-anchor="start" x="1124.5" y="-585.8" font-family="Arial" font-size="24.00" fill="#ffffff">Browser&#45;side storage for</text>
<text text-anchor="start" x="1112.5" y="-561.8" font-family="Arial" font-size="24.00" fill="#ffffff">capture and visit queues in</text>
<text text-anchor="start" x="1118.5" y="-537.8" font-family="Arial" font-size="24.00" fill="#ffffff">chrome.storage.local plus</text>
<text text-anchor="start" x="1124.5" y="-513.8" font-family="Arial" font-size="24.00" fill="#ffffff">durable media tasks and</text>
<text text-anchor="start" x="1105.5" y="-489.8" font-family="Arial" font-size="24.00" fill="#ffffff">fetched blobs in IndexedDB.</text>
</g>
<!-- 14 -->
<g id="14" class="node">
<title>14</title>
<polygon fill="#438dd5" stroke="#2e6295" points="1488,-1186 1026,-1186 1026,-849 1488,-849 1488,-1186"/>
<text text-anchor="start" x="1092.5" y="-1137.8" font-family="Arial" font-size="34.00" fill="#ffffff">WSL Loopback HTTP</text>
<text text-anchor="start" x="1192.5" y="-1103.8" font-family="Arial" font-size="34.00" fill="#ffffff">Daemon</text>
<text text-anchor="start" x="1055" y="-1081.8" font-family="Arial" font-size="19.00" fill="#ffffff">[Container: Python 3.11, ThreadingHTTPServer]</text>
<text text-anchor="start" x="1096" y="-1044.8" font-family="Arial" font-size="24.00" fill="#ffffff">Authenticated loopback HTTP</text>
<text text-anchor="start" x="1121" y="-1020.8" font-family="Arial" font-size="24.00" fill="#ffffff">API that handles capture,</text>
<text text-anchor="start" x="1117.5" y="-996.8" font-family="Arial" font-size="24.00" fill="#ffffff">visit events, media artifact</text>
<text text-anchor="start" x="1120.5" y="-972.8" font-family="Arial" font-size="24.00" fill="#ffffff">upload/fetch/purge, exact</text>
<text text-anchor="start" x="1217" y="-948.8" font-family="Arial" font-size="24.00" fill="#ffffff">search,</text>
<text text-anchor="start" x="1108" y="-924.8" font-family="Arial" font-size="24.00" fill="#ffffff">recent/timeline/detail, policy</text>
<text text-anchor="start" x="1126" y="-900.8" font-family="Arial" font-size="24.00" fill="#ffffff">rules, doctor, forget, and</text>
<text text-anchor="start" x="1167.5" y="-876.8" font-family="Arial" font-size="24.00" fill="#ffffff">static UI serving.</text>
</g>
<!-- 27 -->
<g id="27" class="node">
<title>27</title>
<path fill="#2f95c8" stroke="#20688c" d="M2208.5,-834.22C2208.5,-857.48 2129.61,-876.38 2032.5,-876.38 1935.39,-876.38 1856.5,-857.48 1856.5,-834.22 1856.5,-834.22 1856.5,-454.78 1856.5,-454.78 1856.5,-431.52 1935.39,-412.62 2032.5,-412.62 2129.61,-412.62 2208.5,-431.52 2208.5,-454.78 2208.5,-454.78 2208.5,-834.22 2208.5,-834.22"/>
<path fill="none" stroke="#20688c" d="M2208.5,-834.22C2208.5,-810.95 2129.61,-792.06 2032.5,-792.06 1935.39,-792.06 1856.5,-810.95 1856.5,-834.22"/>
<text text-anchor="start" x="1919.5" y="-764.8" font-family="Arial" font-size="34.00" fill="#ffffff">SQLite + FTS5</text>
<text text-anchor="start" x="1959.5" y="-730.8" font-family="Arial" font-size="34.00" fill="#ffffff">Database</text>
<text text-anchor="start" x="1906.5" y="-708.8" font-family="Arial" font-size="19.00" fill="#ffffff">[Container: SQLite with FTS5]</text>
<text text-anchor="start" x="1913.5" y="-671.8" font-family="Arial" font-size="24.00" fill="#ffffff">Durable relational and</text>
<text text-anchor="start" x="1896" y="-647.8" font-family="Arial" font-size="24.00" fill="#ffffff">full&#45;text store for sources,</text>
<text text-anchor="start" x="1912" y="-623.8" font-family="Arial" font-size="24.00" fill="#ffffff">documents, visits, visit</text>
<text text-anchor="start" x="1886.5" y="-599.8" font-family="Arial" font-size="24.00" fill="#ffffff">events, snapshots, chunks,</text>
<text text-anchor="start" x="1885.5" y="-575.8" font-family="Arial" font-size="24.00" fill="#ffffff">chunks_fts, media artifacts,</text>
<text text-anchor="start" x="1900.5" y="-551.8" font-family="Arial" font-size="24.00" fill="#ffffff">media fetch tasks, policy</text>
<text text-anchor="start" x="1907" y="-527.8" font-family="Arial" font-size="24.00" fill="#ffffff">rules, audit events, and</text>
<text text-anchor="start" x="1940.5" y="-503.8" font-family="Arial" font-size="24.00" fill="#ffffff">deletion receipts.</text>
</g>
<!-- 14&#45;&gt;27 -->
<g id="43" class="edge">
<title>14&#45;&gt;27</title>
<path fill="none" stroke="#444444" stroke-dasharray="5,2" d="M1488.24,-906.47C1602.79,-851.23 1739.38,-785.37 1846.94,-733.5"/>
<polygon fill="#444444" stroke="#444444" points="1848.78,-736.5 1856.27,-729 1845.74,-730.19 1848.78,-736.5"/>
<text text-anchor="start" x="1524" y="-958.3" font-family="Arial" font-size="24.00" fill="#444444">4. Stores document, visit,</text>
<text text-anchor="start" x="1532.5" y="-934.3" font-family="Arial" font-size="24.00" fill="#444444">snapshot, chunks, FTS,</text>
<text text-anchor="start" x="1544.5" y="-910.3" font-family="Arial" font-size="24.00" fill="#444444">media refs, and tasks</text>
<text text-anchor="start" x="1626.5" y="-890.3" font-family="Arial" font-size="19.00" fill="#444444">[sqlite3]</text>
</g>
<!-- 28 -->
<g id="28" class="node">
<title>28</title>
<path fill="#2f95c8" stroke="#20688c" d="M2233,-1177.28C2233,-1189.89 2143.13,-1200.13 2032.5,-1200.13 1921.87,-1200.13 1832,-1189.89 1832,-1177.28 1832,-1177.28 1832,-971.72 1832,-971.72 1832,-959.11 1921.87,-948.87 2032.5,-948.87 2143.13,-948.87 2233,-959.11 2233,-971.72 2233,-971.72 2233,-1177.28 2233,-1177.28"/>
<path fill="none" stroke="#20688c" d="M2233,-1177.28C2233,-1164.68 2143.13,-1154.44 2032.5,-1154.44 1921.87,-1154.44 1832,-1164.68 1832,-1177.28"/>
<text text-anchor="start" x="1868" y="-1117.8" font-family="Arial" font-size="34.00" fill="#ffffff">Clean Text Blob Store</text>
<text text-anchor="start" x="1915" y="-1095.8" font-family="Arial" font-size="19.00" fill="#ffffff">[Container: WSL filesystem]</text>
<text text-anchor="start" x="1874" y="-1058.8" font-family="Arial" font-size="24.00" fill="#ffffff">Filesystem store for snapshot</text>
<text text-anchor="start" x="1861" y="-1034.8" font-family="Arial" font-size="24.00" fill="#ffffff">text blobs under WSL XDG data</text>
<text text-anchor="start" x="1999" y="-1010.8" font-family="Arial" font-size="24.00" fill="#ffffff">paths.</text>
</g>
<!-- 14&#45;&gt;28 -->
<g id="44" class="edge">
<title>14&#45;&gt;28</title>
<path fill="none" stroke="#444444" stroke-dasharray="5,2" d="M1488.24,-1034.47C1593.93,-1042.26 1718.37,-1051.43 1821.47,-1059.02"/>
<polygon fill="#444444" stroke="#444444" points="1821.47,-1062.53 1831.7,-1059.78 1821.98,-1055.55 1821.47,-1062.53"/>
<text text-anchor="start" x="1556" y="-1104.3" font-family="Arial" font-size="24.00" fill="#444444">5. Writes clean&#45;text</text>
<text text-anchor="start" x="1584.5" y="-1080.3" font-family="Arial" font-size="24.00" fill="#444444">snapshot blob</text>
<text text-anchor="start" x="1608.5" y="-1060.3" font-family="Arial" font-size="19.00" fill="#444444">[Filesystem]</text>
</g>
<!-- 5 -->
<g id="5" class="node">
<title>5</title>
<polygon fill="#438dd5" stroke="#2e6295" points="467,-734 33,-734 33,-455 467,-455 467,-734"/>
<text text-anchor="start" x="70" y="-685.8" font-family="Arial" font-size="34.00" fill="#ffffff">Chrome MV3 Extension</text>
<text text-anchor="start" x="62" y="-663.8" font-family="Arial" font-size="19.00" fill="#ffffff">[Container: JavaScript, Chrome Manifest V3]</text>
<text text-anchor="start" x="107" y="-626.8" font-family="Arial" font-size="24.00" fill="#ffffff">Captures visible page text,</text>
<text text-anchor="start" x="132.5" y="-602.8" font-family="Arial" font-size="24.00" fill="#ffffff">media references, tab</text>
<text text-anchor="start" x="141" y="-578.8" font-family="Arial" font-size="24.00" fill="#ffffff">lifecycle events, and</text>
<text text-anchor="start" x="84" y="-554.8" font-family="Arial" font-size="24.00" fill="#ffffff">browser&#45;side media bytes from</text>
<text text-anchor="start" x="79" y="-530.8" font-family="Arial" font-size="24.00" fill="#ffffff">Windows Chrome; queues work</text>
<text text-anchor="start" x="91" y="-506.8" font-family="Arial" font-size="24.00" fill="#ffffff">durably and posts to the WSL</text>
<text text-anchor="start" x="202.5" y="-482.8" font-family="Arial" font-size="24.00" fill="#ffffff">daemon.</text>
</g>
<!-- 5&#45;&gt;13 -->
<g id="37" class="edge">
<title>5&#45;&gt;13</title>
<path fill="none" stroke="#444444" stroke-dasharray="5,2" d="M467.21,-594.5C629.89,-594.5 852.65,-594.5 1019.95,-594.5"/>
<polygon fill="#444444" stroke="#444444" points="1020.14,-598 1030.14,-594.5 1020.14,-591 1020.14,-598"/>
<text text-anchor="start" x="617.5" y="-667.3" font-family="Arial" font-size="24.00" fill="#444444">6. Queues browser&#45;side</text>
<text text-anchor="start" x="637" y="-643.3" font-family="Arial" font-size="24.00" fill="#444444">media tasks for later</text>
<text text-anchor="start" x="680" y="-619.3" font-family="Arial" font-size="24.00" fill="#444444">fetch/upload</text>
<text text-anchor="start" x="595" y="-599.3" font-family="Arial" font-size="19.00" fill="#444444">[chrome.storage.local + IndexedDB]</text>
</g>
<!-- 5&#45;&gt;14 -->
<g id="38" class="edge">
<title>5&#45;&gt;14</title>
<path fill="none" stroke="#444444" stroke-dasharray="5,2" d="M467.09,-688.19C479.23,-693.38 491.26,-698.52 503,-703.5 674.43,-776.31 868.42,-857.17 1016.57,-918.6"/>
<polygon fill="#444444" stroke="#444444" points="1015.23,-921.84 1025.81,-922.43 1017.91,-915.37 1015.23,-921.84"/>
<text text-anchor="start" x="623.5" y="-978.3" font-family="Arial" font-size="24.00" fill="#444444">3. POSTs /capture with</text>
<text text-anchor="start" x="629" y="-954.3" font-family="Arial" font-size="24.00" fill="#444444">visible text, metadata,</text>
<text text-anchor="start" x="666" y="-930.3" font-family="Arial" font-size="24.00" fill="#444444">and media refs</text>
<text text-anchor="start" x="503" y="-910.3" font-family="Arial" font-size="19.00" fill="#444444">[Bearer HTTP/JSON; raw HTTP PUT over 127.0.0.1:8765]</text>
</g>
<!-- 2 -->
<g id="2" class="node">
<title>2</title>
<polygon fill="#999999" stroke="#6b6b6b" points="1450,-287 1064,-287 1064,-56 1450,-56 1450,-287"/>
<text text-anchor="start" x="1122.5" y="-238.8" font-family="Arial" font-size="34.00" fill="#ffffff">Windows Chrome</text>
<text text-anchor="start" x="1180" y="-216.8" font-family="Arial" font-size="19.00" fill="#ffffff">[Software System]</text>
<text text-anchor="start" x="1093" y="-179.8" font-family="Arial" font-size="24.00" fill="#ffffff">The Windows Chrome runtime</text>
<text text-anchor="start" x="1106.5" y="-155.8" font-family="Arial" font-size="24.00" fill="#ffffff">that loads web pages, hosts</text>
<text text-anchor="start" x="1106" y="-131.8" font-family="Arial" font-size="24.00" fill="#ffffff">the MV3 extension, runs the</text>
<text text-anchor="start" x="1098" y="-107.8" font-family="Arial" font-size="24.00" fill="#ffffff">local UI in a tab, and exposes</text>
<text text-anchor="start" x="1127.5" y="-83.8" font-family="Arial" font-size="24.00" fill="#ffffff">Chrome extension APIs.</text>
</g>
<!-- 5&#45;&gt;2 -->
<g id="35" class="edge">
<title>5&#45;&gt;2</title>
<path fill="none" stroke="#444444" stroke-dasharray="5,2" d="M467.09,-500.81C479.23,-495.62 491.26,-490.48 503,-485.5 689.43,-406.31 902.55,-317.61 1054.37,-254.74"/>
<polygon fill="#444444" stroke="#444444" points="1055.92,-257.88 1063.82,-250.82 1053.24,-251.41 1055.92,-257.88"/>
<text text-anchor="start" x="605.5" y="-558.3" font-family="Arial" font-size="24.00" fill="#444444">2. Runs content script and</text>
<text text-anchor="start" x="633.5" y="-534.3" font-family="Arial" font-size="24.00" fill="#444444">service worker inside</text>
<text text-anchor="start" x="694.5" y="-510.3" font-family="Arial" font-size="24.00" fill="#444444">active tab</text>
<text text-anchor="start" x="641.5" y="-490.3" font-family="Arial" font-size="19.00" fill="#444444">[Chrome extension APIs]</text>
</g>
<!-- 1 -->
<g id="1" class="node">
<title>1</title>
<polygon fill="#08427b" stroke="#052e56" points="454,-275 46,-275 46,-68 454,-68 454,-275"/>
<text text-anchor="start" x="191" y="-226.8" font-family="Arial" font-size="34.00" fill="#ffffff">Operator</text>
<text text-anchor="start" x="214.5" y="-204.8" font-family="Arial" font-size="19.00" fill="#ffffff">[Person]</text>
<text text-anchor="start" x="78.5" y="-167.8" font-family="Arial" font-size="24.00" fill="#ffffff">Sole operator who browses with</text>
<text text-anchor="start" x="75" y="-143.8" font-family="Arial" font-size="24.00" fill="#ffffff">Windows Chrome and searches,</text>
<text text-anchor="start" x="111.5" y="-119.8" font-family="Arial" font-size="24.00" fill="#ffffff">reviews, and deletes local</text>
<text text-anchor="start" x="111.5" y="-95.8" font-family="Arial" font-size="24.00" fill="#ffffff">browser&#45;memory records.</text>
</g>
<!-- 1&#45;&gt;2 -->
<g id="30" class="edge">
<title>1&#45;&gt;2</title>
<path fill="none" stroke="#444444" stroke-dasharray="5,2" d="M454.07,-171.5C628.75,-171.5 879.4,-171.5 1053.81,-171.5"/>
<polygon fill="#444444" stroke="#444444" points="1053.88,-175 1063.88,-171.5 1053.88,-168 1053.88,-175"/>
<text text-anchor="start" x="620.5" y="-178.3" font-family="Arial" font-size="24.00" fill="#444444">1. Browses a web page</text>
</g>
</g>
</svg>
