<?xml version="1.0" encoding="UTF-8" standalone="no"?>
<!DOCTYPE svg PUBLIC "-//W3C//DTD SVG 1.1//EN"
 "http://www.w3.org/Graphics/SVG/1.1/DTD/svg11.dtd">
<!-- Generated by graphviz version 2.43.0 (0)
 -->
<!-- Title: %3 Pages: 1 -->
<svg width="1973pt" height="1481pt"
 viewBox="0.00 0.00 1973.00 1481.00" xmlns="http://www.w3.org/2000/svg" xmlns:xlink="http://www.w3.org/1999/xlink">
<g id="graph0" class="graph" transform="scale(1 1) rotate(0) translate(4 1477)">
<title>%3</title>
<polygon fill="white" stroke="transparent" points="-4,4 -4,-1477 1969,-1477 1969,4 -4,4"/>
<text text-anchor="start" x="397.5" y="-11.8" font-family="Arial" font-size="34.00">Component View: Browser Memory Daemon &#45; WSL Loopback HTTP Daemon</text>
<g id="clust1" class="cluster">
<title>cluster_4</title>
<polygon fill="none" stroke="#444444" points="8,-64 8,-1465 1957,-1465 1957,-64 8,-64"/>
<text text-anchor="start" x="841.5" y="-92.8" font-family="Arial" font-size="24.00" fill="#444444">Browser Memory Daemon</text>
<text text-anchor="start" x="905.5" y="-72.8" font-family="Arial" font-size="19.00" fill="#444444">[Software System]</text>
</g>
<g id="clust2" class="cluster">
<title>cluster_14</title>
<polygon fill="none" stroke="#444444" points="33,-610 33,-967 1196,-967 1196,-610 33,-610"/>
<text text-anchor="start" x="449" y="-638.8" font-family="Arial" font-size="24.00" fill="#444444">WSL Loopback HTTP Daemon</text>
<text text-anchor="start" x="412.5" y="-618.8" font-family="Arial" font-size="19.00" fill="#444444">[Container: Python 3.11, ThreadingHTTPServer]</text>
</g>
<!-- 15 -->
<g id="15" class="node">
<title>15</title>
<polygon fill="#85bbf0" stroke="#5d82a8" points="453,-941.5 58,-941.5 58,-710.5 453,-710.5 453,-941.5"/>
<text text-anchor="start" x="87" y="-893.3" font-family="Arial" font-size="34.00" fill="#000000">HTTP Request Router</text>
<text text-anchor="start" x="119" y="-871.3" font-family="Arial" font-size="19.00" fill="#000000">[Component: Python http.server]</text>
<text text-anchor="start" x="90" y="-834.3" font-family="Arial" font-size="24.00" fill="#000000">Routes loopback API requests,</text>
<text text-anchor="start" x="112.5" y="-810.3" font-family="Arial" font-size="24.00" fill="#000000">serves UI assets, enforces</text>
<text text-anchor="start" x="91.5" y="-786.3" font-family="Arial" font-size="24.00" fill="#000000">bearer auth for memory/admin</text>
<text text-anchor="start" x="106" y="-762.3" font-family="Arial" font-size="24.00" fill="#000000">APIs, and applies CORS for</text>
<text text-anchor="start" x="172" y="-738.3" font-family="Arial" font-size="24.00" fill="#000000">allowed origins.</text>
</g>
<!-- 23 -->
<g id="23" class="node">
<title>23</title>
<polygon fill="#85bbf0" stroke="#5d82a8" points="1171,-941.5 789,-941.5 789,-710.5 1171,-710.5 1171,-941.5"/>
<text text-anchor="start" x="818" y="-893.3" font-family="Arial" font-size="34.00" fill="#000000">Ops Doctor and Audit</text>
<text text-anchor="start" x="852" y="-871.3" font-family="Arial" font-size="19.00" fill="#000000">[Component: Python + sqlite3]</text>
<text text-anchor="start" x="829.5" y="-834.3" font-family="Arial" font-size="24.00" fill="#000000">Reports health, DB integrity,</text>
<text text-anchor="start" x="844" y="-810.3" font-family="Arial" font-size="24.00" fill="#000000">FTS consistency, runtime</text>
<text text-anchor="start" x="824" y="-786.3" font-family="Arial" font-size="24.00" fill="#000000">paths, storage counts, media</text>
<text text-anchor="start" x="848.5" y="-762.3" font-family="Arial" font-size="24.00" fill="#000000">queue status, and writes</text>
<text text-anchor="start" x="831" y="-738.3" font-family="Arial" font-size="24.00" fill="#000000">metadata&#45;only audit events.</text>
</g>
<!-- 15&#45;&gt;23 -->
<g id="68" class="edge">
<title>15&#45;&gt;23</title>
<path fill="none" stroke="#444444" stroke-dasharray="5,2" d="M453.45,-826C554.44,-826 677.2,-826 778.67,-826"/>
<polygon fill="#444444" stroke="#444444" points="778.74,-829.5 788.74,-826 778.74,-822.5 778.74,-829.5"/>
<polygon fill="white" stroke="transparent" points="489,-826 489,-886 753,-886 753,-826 489,-826"/>
<text text-anchor="start" x="493" y="-862.8" font-family="Arial" font-size="24.00" fill="#444444">Routes health and audit</text>
<text text-anchor="start" x="581.5" y="-836.8" font-family="Arial" font-size="24.00" fill="#444444">work to</text>
</g>
<!-- 27 -->
<g id="27" class="node">
<title>27</title>
<path fill="#2f95c8" stroke="#20688c" d="M1906,-585.72C1906,-608.98 1827.11,-627.88 1730,-627.88 1632.89,-627.88 1554,-608.98 1554,-585.72 1554,-585.72 1554,-206.28 1554,-206.28 1554,-183.02 1632.89,-164.12 1730,-164.12 1827.11,-164.12 1906,-183.02 1906,-206.28 1906,-206.28 1906,-585.72 1906,-585.72"/>
<path fill="none" stroke="#20688c" d="M1906,-585.72C1906,-562.45 1827.11,-543.56 1730,-543.56 1632.89,-543.56 1554,-562.45 1554,-585.72"/>
<text text-anchor="start" x="1617" y="-516.3" font-family="Arial" font-size="34.00" fill="#ffffff">SQLite + FTS5</text>
<text text-anchor="start" x="1657" y="-482.3" font-family="Arial" font-size="34.00" fill="#ffffff">Database</text>
<text text-anchor="start" x="1604" y="-460.3" font-family="Arial" font-size="19.00" fill="#ffffff">[Container: SQLite with FTS5]</text>
<text text-anchor="start" x="1611" y="-423.3" font-family="Arial" font-size="24.00" fill="#ffffff">Durable relational and</text>
<text text-anchor="start" x="1593.5" y="-399.3" font-family="Arial" font-size="24.00" fill="#ffffff">full&#45;text store for sources,</text>
<text text-anchor="start" x="1609.5" y="-375.3" font-family="Arial" font-size="24.00" fill="#ffffff">documents, visits, visit</text>
<text text-anchor="start" x="1584" y="-351.3" font-family="Arial" font-size="24.00" fill="#ffffff">events, snapshots, chunks,</text>
<text text-anchor="start" x="1583" y="-327.3" font-family="Arial" font-size="24.00" fill="#ffffff">chunks_fts, media artifacts,</text>
<text text-anchor="start" x="1598" y="-303.3" font-family="Arial" font-size="24.00" fill="#ffffff">media fetch tasks, policy</text>
<text text-anchor="start" x="1604.5" y="-279.3" font-family="Arial" font-size="24.00" fill="#ffffff">rules, audit events, and</text>
<text text-anchor="start" x="1638" y="-255.3" font-family="Arial" font-size="24.00" fill="#ffffff">deletion receipts.</text>
</g>
<!-- 23&#45;&gt;27 -->
<g id="82" class="edge">
<title>23&#45;&gt;27</title>
<path fill="none" stroke="#444444" stroke-dasharray="5,2" d="M1171.2,-716.66C1285.94,-650.7 1431.4,-567.08 1545.01,-501.77"/>
<polygon fill="#444444" stroke="#444444" points="1546.89,-504.72 1553.82,-496.71 1543.41,-498.66 1546.89,-504.72"/>
<polygon fill="white" stroke="transparent" points="1235.5,-686 1235.5,-761 1463.5,-761 1463.5,-686 1235.5,-686"/>
<text text-anchor="start" x="1239.5" y="-738.3" font-family="Arial" font-size="24.00" fill="#444444">Checks integrity and</text>
<text text-anchor="start" x="1301" y="-714.3" font-family="Arial" font-size="24.00" fill="#444444">counts in</text>
<text text-anchor="start" x="1316" y="-694.3" font-family="Arial" font-size="19.00" fill="#444444">[sqlite3]</text>
</g>
<!-- 28 -->
<g id="28" class="node">
<title>28</title>
<path fill="#2f95c8" stroke="#20688c" d="M1930.5,-928.78C1930.5,-941.39 1840.63,-951.63 1730,-951.63 1619.37,-951.63 1529.5,-941.39 1529.5,-928.78 1529.5,-928.78 1529.5,-723.22 1529.5,-723.22 1529.5,-710.61 1619.37,-700.37 1730,-700.37 1840.63,-700.37 1930.5,-710.61 1930.5,-723.22 1930.5,-723.22 1930.5,-928.78 1930.5,-928.78"/>
<path fill="none" stroke="#20688c" d="M1930.5,-928.78C1930.5,-916.18 1840.63,-905.94 1730,-905.94 1619.37,-905.94 1529.5,-916.18 1529.5,-928.78"/>
<text text-anchor="start" x="1565.5" y="-869.3" font-family="Arial" font-size="34.00" fill="#ffffff">Clean Text Blob Store</text>
<text text-anchor="start" x="1612.5" y="-847.3" font-family="Arial" font-size="19.00" fill="#ffffff">[Container: WSL filesystem]</text>
<text text-anchor="start" x="1571.5" y="-810.3" font-family="Arial" font-size="24.00" fill="#ffffff">Filesystem store for snapshot</text>
<text text-anchor="start" x="1558.5" y="-786.3" font-family="Arial" font-size="24.00" fill="#ffffff">text blobs under WSL XDG data</text>
<text text-anchor="start" x="1696.5" y="-762.3" font-family="Arial" font-size="24.00" fill="#ffffff">paths.</text>
</g>
<!-- 23&#45;&gt;28 -->
<g id="83" class="edge">
<title>23&#45;&gt;28</title>
<path fill="none" stroke="#444444" stroke-dasharray="5,2" d="M1171.2,-826C1277.39,-826 1409.89,-826 1519.11,-826"/>
<polygon fill="#444444" stroke="#444444" points="1519.26,-829.5 1529.26,-826 1519.26,-822.5 1519.26,-829.5"/>
<polygon fill="white" stroke="transparent" points="1220.5,-826 1220.5,-877 1478.5,-877 1478.5,-826 1220.5,-826"/>
<text text-anchor="start" x="1224.5" y="-854.3" font-family="Arial" font-size="24.00" fill="#444444">Counts text blob files in</text>
<text text-anchor="start" x="1298" y="-834.3" font-family="Arial" font-size="19.00" fill="#444444">[Filesystem]</text>
</g>
<!-- 29 -->
<g id="29" class="node">
<title>29</title>
<path fill="#2f95c8" stroke="#20688c" d="M1932,-1402.28C1932,-1423.16 1841.46,-1440.13 1730,-1440.13 1618.54,-1440.13 1528,-1423.16 1528,-1402.28 1528,-1402.28 1528,-1061.72 1528,-1061.72 1528,-1040.84 1618.54,-1023.87 1730,-1023.87 1841.46,-1023.87 1932,-1040.84 1932,-1061.72 1932,-1061.72 1932,-1402.28 1932,-1402.28"/>
<path fill="none" stroke="#20688c" d="M1932,-1402.28C1932,-1381.4 1841.46,-1364.44 1730,-1364.44 1618.54,-1364.44 1528,-1381.4 1528,-1402.28"/>
<text text-anchor="start" x="1591" y="-1335.3" font-family="Arial" font-size="34.00" fill="#ffffff">Media Blob Cache</text>
<text text-anchor="start" x="1612.5" y="-1313.3" font-family="Arial" font-size="19.00" fill="#ffffff">[Container: WSL filesystem]</text>
<text text-anchor="start" x="1596.5" y="-1276.3" font-family="Arial" font-size="24.00" fill="#ffffff">Bounded and disposable</text>
<text text-anchor="start" x="1585.5" y="-1252.3" font-family="Arial" font-size="24.00" fill="#ffffff">filesystem cache for stored</text>
<text text-anchor="start" x="1574.5" y="-1228.3" font-family="Arial" font-size="24.00" fill="#ffffff">image/video/audio blobs with</text>
<text text-anchor="start" x="1562.5" y="-1204.3" font-family="Arial" font-size="24.00" fill="#ffffff">purge/rehydrate semantics that</text>
<text text-anchor="start" x="1573.5" y="-1180.3" font-family="Arial" font-size="24.00" fill="#ffffff">preserve media refs, hashes,</text>
<text text-anchor="start" x="1557" y="-1156.3" font-family="Arial" font-size="24.00" fill="#ffffff">status reasons, and provenance</text>
<text text-anchor="start" x="1593.5" y="-1132.3" font-family="Arial" font-size="24.00" fill="#ffffff">when bytes are absent or</text>
<text text-anchor="start" x="1688.5" y="-1108.3" font-family="Arial" font-size="24.00" fill="#ffffff">purged.</text>
</g>
<!-- 23&#45;&gt;29 -->
<g id="84" class="edge">
<title>23&#45;&gt;29</title>
<path fill="none" stroke="#444444" stroke-dasharray="5,2" d="M1171.2,-929.24C1277.4,-986.88 1409.91,-1058.8 1519.13,-1118.08"/>
<polygon fill="#444444" stroke="#444444" points="1517.49,-1121.18 1527.95,-1122.87 1520.83,-1115.03 1517.49,-1121.18"/>
<polygon fill="white" stroke="transparent" points="1207,-1100 1207,-1151 1492,-1151 1492,-1100 1207,-1100"/>
<text text-anchor="start" x="1211.5" y="-1128.3" font-family="Arial" font-size="24.00" fill="#444444">Counts media blob files in</text>
<text text-anchor="start" x="1298.5" y="-1108.3" font-family="Arial" font-size="19.00" fill="#444444">[Filesystem]</text>
</g>
</g>
</svg>
