<?xml version="1.0" encoding="UTF-8" standalone="no"?>
<!DOCTYPE svg PUBLIC "-//W3C//DTD SVG 1.1//EN"
 "http://www.w3.org/Graphics/SVG/1.1/DTD/svg11.dtd">
<!-- Generated by graphviz version 2.43.0 (0)
 -->
<!-- Title: %3 Pages: 1 -->
<svg width="2234pt" height="1425pt"
 viewBox="0.00 0.00 2234.00 1425.38" xmlns="http://www.w3.org/2000/svg" xmlns:xlink="http://www.w3.org/1999/xlink">
<g id="graph0" class="graph" transform="scale(1 1) rotate(0) translate(4 1421.38)">
<title>%3</title>
<polygon fill="white" stroke="transparent" points="-4,4 -4,-1421.38 2230,-1421.38 2230,4 -4,4"/>
<text text-anchor="start" x="581.5" y="-11.8" font-family="Arial" font-size="34.00">Component View: Browser Memory Daemon &#45; Chrome MV3 Extension</text>
<g id="clust1" class="cluster">
<title>cluster_4</title>
<polygon fill="none" stroke="#444444" points="8,-64 8,-1409.38 1815,-1409.38 1815,-64 8,-64"/>
<text text-anchor="start" x="770.5" y="-92.8" font-family="Arial" font-size="24.00" fill="#444444">Browser Memory Daemon</text>
<text text-anchor="start" x="834.5" y="-72.8" font-family="Arial" font-size="19.00" fill="#444444">[Software System]</text>
</g>
<g id="clust2" class="cluster">
<title>cluster_5</title>
<polygon fill="none" stroke="#444444" points="425,-639.38 425,-1384.38 1357,-1384.38 1357,-639.38 425,-639.38"/>
<text text-anchor="start" x="763" y="-668.17" font-family="Arial" font-size="24.00" fill="#444444">Chrome MV3 Extension</text>
<text text-anchor="start" x="703" y="-648.17" font-family="Arial" font-size="19.00" fill="#444444">[Container: JavaScript, Chrome Manifest V3]</text>
</g>
<!-- 2 -->
<g id="2" class="node">
<title>2</title>
<polygon fill="#999999" stroke="#6b6b6b" points="2226,-461.69 1840,-461.69 1840,-230.69 2226,-230.69 2226,-461.69"/>
<text text-anchor="start" x="1898.5" y="-413.49" font-family="Arial" font-size="34.00" fill="#ffffff">Windows Chrome</text>
<text text-anchor="start" x="1956" y="-391.49" font-family="Arial" font-size="19.00" fill="#ffffff">[Software System]</text>
<text text-anchor="start" x="1869" y="-354.49" font-family="Arial" font-size="24.00" fill="#ffffff">The Windows Chrome runtime</text>
<text text-anchor="start" x="1882.5" y="-330.49" font-family="Arial" font-size="24.00" fill="#ffffff">that loads web pages, hosts</text>
<text text-anchor="start" x="1882" y="-306.49" font-family="Arial" font-size="24.00" fill="#ffffff">the MV3 extension, runs the</text>
<text text-anchor="start" x="1874" y="-282.49" font-family="Arial" font-size="24.00" fill="#ffffff">local UI in a tab, and exposes</text>
<text text-anchor="start" x="1903.5" y="-258.49" font-family="Arial" font-size="24.00" fill="#ffffff">Chrome extension APIs.</text>
</g>
<!-- 10 -->
<g id="10" class="node">
<title>10</title>
<polygon fill="#85bbf0" stroke="#5d82a8" points="846,-1004.38 450,-1004.38 450,-739.38 846,-739.38 846,-1004.38"/>
<text text-anchor="start" x="479" y="-956.17" font-family="Arial" font-size="34.00" fill="#000000">Browser Media Queue</text>
<text text-anchor="start" x="588.5" y="-922.17" font-family="Arial" font-size="34.00" fill="#000000">Adapter</text>
<text text-anchor="start" x="486" y="-900.17" font-family="Arial" font-size="19.00" fill="#000000">[Component: JavaScript + IndexedDB]</text>
<text text-anchor="start" x="513.5" y="-863.17" font-family="Arial" font-size="24.00" fill="#000000">Persists media tasks and</text>
<text text-anchor="start" x="484" y="-839.17" font-family="Arial" font-size="24.00" fill="#000000">fetched blobs in IndexedDB so</text>
<text text-anchor="start" x="542" y="-815.17" font-family="Arial" font-size="24.00" fill="#000000">browser&#45;side media</text>
<text text-anchor="start" x="489" y="-791.17" font-family="Arial" font-size="24.00" fill="#000000">fetch/upload can survive MV3</text>
<text text-anchor="start" x="543.5" y="-767.17" font-family="Arial" font-size="24.00" fill="#000000">worker suspension.</text>
</g>
<!-- 13 -->
<g id="13" class="node">
<title>13</title>
<path fill="#2f95c8" stroke="#20688c" d="M679.5,-495.4C679.5,-513.7 577.98,-528.56 453,-528.56 328.02,-528.56 226.5,-513.7 226.5,-495.4 226.5,-495.4 226.5,-196.97 226.5,-196.97 226.5,-178.67 328.02,-163.81 453,-163.81 577.98,-163.81 679.5,-178.67 679.5,-196.97 679.5,-196.97 679.5,-495.4 679.5,-495.4"/>
<path fill="none" stroke="#20688c" d="M679.5,-495.4C679.5,-477.11 577.98,-462.24 453,-462.24 328.02,-462.24 226.5,-477.11 226.5,-495.4"/>
<text text-anchor="start" x="311" y="-430.49" font-family="Arial" font-size="34.00" fill="#ffffff">Extension Browser</text>
<text text-anchor="start" x="393.5" y="-396.49" font-family="Arial" font-size="34.00" fill="#ffffff">Storage</text>
<text text-anchor="start" x="255.5" y="-374.49" font-family="Arial" font-size="19.00" fill="#ffffff">[Container: chrome.storage.local + IndexedDB]</text>
<text text-anchor="start" x="320.5" y="-337.49" font-family="Arial" font-size="24.00" fill="#ffffff">Browser&#45;side storage for</text>
<text text-anchor="start" x="308.5" y="-313.49" font-family="Arial" font-size="24.00" fill="#ffffff">capture and visit queues in</text>
<text text-anchor="start" x="314.5" y="-289.49" font-family="Arial" font-size="24.00" fill="#ffffff">chrome.storage.local plus</text>
<text text-anchor="start" x="320.5" y="-265.49" font-family="Arial" font-size="24.00" fill="#ffffff">durable media tasks and</text>
<text text-anchor="start" x="301.5" y="-241.49" font-family="Arial" font-size="24.00" fill="#ffffff">fetched blobs in IndexedDB.</text>
</g>
<!-- 10&#45;&gt;13 -->
<g id="54" class="edge">
<title>10&#45;&gt;13</title>
<path fill="none" stroke="#444444" stroke-dasharray="5,2" d="M598.92,-739.06C576.24,-678.15 548.87,-604.65 523.99,-537.84"/>
<polygon fill="#444444" stroke="#444444" points="527.27,-536.61 520.5,-528.46 520.71,-539.06 527.27,-536.61"/>
<text text-anchor="start" x="557" y="-613.17" font-family="Arial" font-size="24.00" fill="#444444">Reads and writes media</text>
<text text-anchor="start" x="613.5" y="-589.17" font-family="Arial" font-size="24.00" fill="#444444">tasks/blobs in</text>
<text text-anchor="start" x="634.5" y="-569.17" font-family="Arial" font-size="19.00" fill="#444444">[IndexedDB]</text>
</g>
<!-- 11 -->
<g id="11" class="node">
<title>11</title>
<polygon fill="#85bbf0" stroke="#5d82a8" points="1331.5,-999.38 918.5,-999.38 918.5,-744.38 1331.5,-744.38 1331.5,-999.38"/>
<text text-anchor="start" x="1014.5" y="-951.17" font-family="Arial" font-size="34.00" fill="#000000">CDP Recorder</text>
<text text-anchor="start" x="952.5" y="-929.17" font-family="Arial" font-size="19.00" fill="#000000">[Component: Chrome DevTools Protocol]</text>
<text text-anchor="start" x="982" y="-892.17" font-family="Arial" font-size="24.00" fill="#000000">Uses chrome.debugger on</text>
<text text-anchor="start" x="978" y="-868.17" font-family="Arial" font-size="24.00" fill="#000000">configured X/Twitter tabs to</text>
<text text-anchor="start" x="964" y="-844.17" font-family="Arial" font-size="24.00" fill="#000000">capture video.twimg.com HLS</text>
<text text-anchor="start" x="957" y="-820.17" font-family="Arial" font-size="24.00" fill="#000000">manifests and media segments</text>
<text text-anchor="start" x="947.5" y="-796.17" font-family="Arial" font-size="24.00" fill="#000000">before they become opaque blob</text>
<text text-anchor="start" x="1055" y="-772.17" font-family="Arial" font-size="24.00" fill="#000000">player URLs.</text>
</g>
<!-- 11&#45;&gt;2 -->
<g id="57" class="edge">
<title>11&#45;&gt;2</title>
<path fill="none" stroke="#444444" stroke-dasharray="5,2" d="M1208.07,-744.19C1242.32,-702.97 1285.81,-662.02 1336,-639.38 1361.17,-628.02 1808.59,-644.29 1833,-631.38 1898.05,-596.94 1946.52,-530.8 1979.44,-470.98"/>
<polygon fill="#444444" stroke="#444444" points="1982.71,-472.28 1984.38,-461.82 1976.55,-468.96 1982.71,-472.28"/>
<text text-anchor="start" x="1912" y="-613.17" font-family="Arial" font-size="24.00" fill="#444444">Receives Network events</text>
<text text-anchor="start" x="2024" y="-589.17" font-family="Arial" font-size="24.00" fill="#444444">from</text>
<text text-anchor="start" x="1946.5" y="-569.17" font-family="Arial" font-size="19.00" fill="#444444">[chrome.debugger/CDP]</text>
</g>
<!-- 14 -->
<g id="14" class="node">
<title>14</title>
<polygon fill="#438dd5" stroke="#2e6295" points="1537,-514.69 1075,-514.69 1075,-177.69 1537,-177.69 1537,-514.69"/>
<text text-anchor="start" x="1141.5" y="-466.49" font-family="Arial" font-size="34.00" fill="#ffffff">WSL Loopback HTTP</text>
<text text-anchor="start" x="1241.5" y="-432.49" font-family="Arial" font-size="34.00" fill="#ffffff">Daemon</text>
<text text-anchor="start" x="1104" y="-410.49" font-family="Arial" font-size="19.00" fill="#ffffff">[Container: Python 3.11, ThreadingHTTPServer]</text>
<text text-anchor="start" x="1145" y="-373.49" font-family="Arial" font-size="24.00" fill="#ffffff">Authenticated loopback HTTP</text>
<text text-anchor="start" x="1170" y="-349.49" font-family="Arial" font-size="24.00" fill="#ffffff">API that handles capture,</text>
<text text-anchor="start" x="1166.5" y="-325.49" font-family="Arial" font-size="24.00" fill="#ffffff">visit events, media artifact</text>
<text text-anchor="start" x="1169.5" y="-301.49" font-family="Arial" font-size="24.00" fill="#ffffff">upload/fetch/purge, exact</text>
<text text-anchor="start" x="1266" y="-277.49" font-family="Arial" font-size="24.00" fill="#ffffff">search,</text>
<text text-anchor="start" x="1157" y="-253.49" font-family="Arial" font-size="24.00" fill="#ffffff">recent/timeline/detail, policy</text>
<text text-anchor="start" x="1175" y="-229.49" font-family="Arial" font-size="24.00" fill="#ffffff">rules, doctor, forget, and</text>
<text text-anchor="start" x="1216.5" y="-205.49" font-family="Arial" font-size="24.00" fill="#ffffff">static UI serving.</text>
</g>
<!-- 11&#45;&gt;14 -->
<g id="58" class="edge">
<title>11&#45;&gt;14</title>
<path fill="none" stroke="#444444" stroke-dasharray="5,2" d="M1110.44,-744.09C1108.42,-687.53 1112.37,-621.02 1133,-564.38 1137.99,-550.67 1144.23,-537.16 1151.33,-524.01"/>
<polygon fill="#444444" stroke="#444444" points="1154.57,-525.4 1156.39,-514.96 1148.45,-521.98 1154.57,-525.4"/>
<text text-anchor="start" x="1133" y="-613.17" font-family="Arial" font-size="24.00" fill="#444444">Uploads CDP media rows and</text>
<text text-anchor="start" x="1252.5" y="-589.17" font-family="Arial" font-size="24.00" fill="#444444">blobs to</text>
<text text-anchor="start" x="1138" y="-569.17" font-family="Arial" font-size="19.00" fill="#444444">[Bearer HTTP/JSON; raw HTTP PUT]</text>
</g>
<!-- 9 -->
<g id="9" class="node">
<title>9</title>
<polygon fill="#85bbf0" stroke="#5d82a8" points="1110,-1359.38 672,-1359.38 672,-1128.38 1110,-1128.38 1110,-1359.38"/>
<text text-anchor="start" x="775" y="-1311.17" font-family="Arial" font-size="34.00" fill="#000000">Service Worker</text>
<text text-anchor="start" x="701" y="-1289.17" font-family="Arial" font-size="19.00" fill="#000000">[Component: JavaScript MV3 service worker]</text>
<text text-anchor="start" x="719.5" y="-1252.17" font-family="Arial" font-size="24.00" fill="#000000">Owns daemon transport, bearer</text>
<text text-anchor="start" x="743.5" y="-1228.17" font-family="Arial" font-size="24.00" fill="#000000">token use, capture and visit</text>
<text text-anchor="start" x="732" y="-1204.17" font-family="Arial" font-size="24.00" fill="#000000">queues, lifecycle state, media</text>
<text text-anchor="start" x="755" y="-1180.17" font-family="Arial" font-size="24.00" fill="#000000">queue draining, and CDP</text>
<text text-anchor="start" x="768.5" y="-1156.17" font-family="Arial" font-size="24.00" fill="#000000">recorder orchestration.</text>
</g>
<!-- 9&#45;&gt;10 -->
<g id="53" class="edge">
<title>9&#45;&gt;10</title>
<path fill="none" stroke="#444444" stroke-dasharray="5,2" d="M717.42,-1127.99C707.17,-1116.83 697.86,-1104.94 690,-1092.38 675.39,-1069.01 665.66,-1041.71 659.22,-1014.46"/>
<polygon fill="#444444" stroke="#444444" points="662.58,-1013.43 656.99,-1004.43 655.74,-1014.95 662.58,-1013.43"/>
<text text-anchor="start" x="690" y="-1073.17" font-family="Arial" font-size="24.00" fill="#444444">Persists and drains media</text>
<text text-anchor="start" x="759" y="-1047.17" font-family="Arial" font-size="24.00" fill="#444444">work through</text>
</g>
<!-- 9&#45;&gt;11 -->
<g id="55" class="edge">
<title>9&#45;&gt;11</title>
<path fill="none" stroke="#444444" stroke-dasharray="5,2" d="M963.44,-1128.34C987.46,-1090.36 1014.43,-1047.71 1039.35,-1008.31"/>
<polygon fill="#444444" stroke="#444444" points="1042.58,-1009.75 1044.96,-999.43 1036.66,-1006.01 1042.58,-1009.75"/>
<text text-anchor="start" x="1015" y="-1073.17" font-family="Arial" font-size="24.00" fill="#444444">Detects CDP media</text>
<text text-anchor="start" x="1037.5" y="-1047.17" font-family="Arial" font-size="24.00" fill="#444444">candidates with</text>
</g>
<!-- 9&#45;&gt;13 -->
<g id="51" class="edge">
<title>9&#45;&gt;13</title>
<path fill="none" stroke="#444444" stroke-dasharray="5,2" d="M671.55,-1202.69C473.76,-1161.48 204.52,-1091.23 141,-1004.38 45.24,-873.43 76.47,-788.21 141,-639.38 159.67,-596.31 188.16,-556.69 220.48,-521.44"/>
<polygon fill="#444444" stroke="#444444" points="223.17,-523.68 227.43,-513.98 218.05,-518.91 223.17,-523.68"/>
<text text-anchor="start" x="172" y="-904.67" font-family="Arial" font-size="24.00" fill="#444444">Queues captures in</text>
<text text-anchor="start" x="141" y="-878.67" font-family="Arial" font-size="24.00" fill="#444444">chrome.storage.local and</text>
<text text-anchor="start" x="167.5" y="-852.67" font-family="Arial" font-size="24.00" fill="#444444">media tasks/blobs in</text>
<text text-anchor="start" x="217.5" y="-826.67" font-family="Arial" font-size="24.00" fill="#444444">IndexedDB</text>
</g>
<!-- 9&#45;&gt;14 -->
<g id="52" class="edge">
<title>9&#45;&gt;14</title>
<path fill="none" stroke="#444444" stroke-dasharray="5,2" d="M1110.23,-1184.97C1204.59,-1148.67 1307.04,-1091.67 1368,-1004.38 1482.99,-839.71 1535.1,-754.71 1471,-564.38 1466.4,-550.7 1460.55,-537.21 1453.82,-524.04"/>
<polygon fill="#444444" stroke="#444444" points="1456.8,-522.18 1449.03,-514.98 1450.61,-525.46 1456.8,-522.18"/>
<text text-anchor="start" x="1515.5" y="-887.17" font-family="Arial" font-size="24.00" fill="#444444">Delivers captures, events,</text>
<text text-anchor="start" x="1508.5" y="-863.17" font-family="Arial" font-size="24.00" fill="#444444">metadata, and raw blobs to</text>
<text text-anchor="start" x="1498" y="-843.17" font-family="Arial" font-size="19.00" fill="#444444">[Bearer HTTP/JSON; raw HTTP PUT]</text>
</g>
</g>
</svg>
