<?xml version="1.0" encoding="UTF-8" standalone="no"?>
<!DOCTYPE svg PUBLIC "-//W3C//DTD SVG 1.1//EN"
 "http://www.w3.org/Graphics/SVG/1.1/DTD/svg11.dtd">
<!-- Generated by graphviz version 2.43.0 (0)
 -->
<!-- Title: %3 Pages: 1 -->
<svg width="1558pt" height="1678pt"
 viewBox="0.00 0.00 1558.00 1677.75" xmlns="http://www.w3.org/2000/svg" xmlns:xlink="http://www.w3.org/1999/xlink">
<g id="graph0" class="graph" transform="scale(1 1) rotate(0) translate(4 1673.75)">
<title>%3</title>
<polygon fill="white" stroke="transparent" points="-4,4 -4,-1673.75 1554,-1673.75 1554,4 -4,4"/>
<text text-anchor="start" x="452.5" y="-11.8" font-family="Arial" font-size="34.00">Container View: Browser Memory Daemon</text>
<g id="clust1" class="cluster">
<title>cluster_4</title>
<polygon fill="none" stroke="#444444" points="8,-64 8,-1661.75 1045,-1661.75 1045,-64 8,-64"/>
<text text-anchor="start" x="385.5" y="-92.8" font-family="Arial" font-size="24.00" fill="#444444">Browser Memory Daemon</text>
<text text-anchor="start" x="449.5" y="-72.8" font-family="Arial" font-size="19.00" fill="#444444">[Software System]</text>
</g>
<!-- 3 -->
<g id="3" class="node">
<title>3</title>
<polygon fill="#999999" stroke="#6b6b6b" points="1495.5,-1113.06 1092.5,-1113.06 1092.5,-848.06 1495.5,-848.06 1495.5,-1113.06"/>
<text text-anchor="start" x="1132.5" y="-1064.86" font-family="Arial" font-size="34.00" fill="#ffffff">Web Sites and Media</text>
<text text-anchor="start" x="1240" y="-1030.86" font-family="Arial" font-size="34.00" fill="#ffffff">Origins</text>
<text text-anchor="start" x="1217" y="-1008.86" font-family="Arial" font-size="19.00" fill="#ffffff">[Software System]</text>
<text text-anchor="start" x="1184" y="-971.86" font-family="Arial" font-size="24.00" fill="#ffffff">External web pages,</text>
<text text-anchor="start" x="1131.5" y="-947.86" font-family="Arial" font-size="24.00" fill="#ffffff">image/video URLs, and media</text>
<text text-anchor="start" x="1121.5" y="-923.86" font-family="Arial" font-size="24.00" fill="#ffffff">CDNs that Chrome loads or that</text>
<text text-anchor="start" x="1131.5" y="-899.86" font-family="Arial" font-size="24.00" fill="#ffffff">sidecars fetch as page&#45;related</text>
<text text-anchor="start" x="1257.5" y="-875.86" font-family="Arial" font-size="24.00" fill="#ffffff">media.</text>
</g>
<!-- 13 -->
<g id="13" class="node">
<title>13</title>
<path fill="#2f95c8" stroke="#20688c" d="M485.5,-1129.78C485.5,-1148.08 383.98,-1162.94 259,-1162.94 134.02,-1162.94 32.5,-1148.08 32.5,-1129.78 32.5,-1129.78 32.5,-831.35 32.5,-831.35 32.5,-813.05 134.02,-798.19 259,-798.19 383.98,-798.19 485.5,-813.05 485.5,-831.35 485.5,-831.35 485.5,-1129.78 485.5,-1129.78"/>
<path fill="none" stroke="#20688c" d="M485.5,-1129.78C485.5,-1111.48 383.98,-1096.62 259,-1096.62 134.02,-1096.62 32.5,-1111.48 32.5,-1129.78"/>
<text text-anchor="start" x="117" y="-1064.86" font-family="Arial" font-size="34.00" fill="#ffffff">Extension Browser</text>
<text text-anchor="start" x="199.5" y="-1030.86" font-family="Arial" font-size="34.00" fill="#ffffff">Storage</text>
<text text-anchor="start" x="61.5" y="-1008.86" font-family="Arial" font-size="19.00" fill="#ffffff">[Container: chrome.storage.local + IndexedDB]</text>
<text text-anchor="start" x="126.5" y="-971.86" font-family="Arial" font-size="24.00" fill="#ffffff">Browser&#45;side storage for</text>
<text text-anchor="start" x="114.5" y="-947.86" font-family="Arial" font-size="24.00" fill="#ffffff">capture and visit queues in</text>
<text text-anchor="start" x="120.5" y="-923.86" font-family="Arial" font-size="24.00" fill="#ffffff">chrome.storage.local plus</text>
<text text-anchor="start" x="126.5" y="-899.86" font-family="Arial" font-size="24.00" fill="#ffffff">durable media tasks and</text>
<text text-anchor="start" x="107.5" y="-875.86" font-family="Arial" font-size="24.00" fill="#ffffff">fetched blobs in IndexedDB.</text>
</g>
<!-- 14 -->
<g id="14" class="node">
<title>14</title>
<polygon fill="#438dd5" stroke="#2e6295" points="1020,-1149.06 558,-1149.06 558,-812.06 1020,-812.06 1020,-1149.06"/>
<text text-anchor="start" x="624.5" y="-1100.86" font-family="Arial" font-size="34.00" fill="#ffffff">WSL Loopback HTTP</text>
<text text-anchor="start" x="724.5" y="-1066.86" font-family="Arial" font-size="34.00" fill="#ffffff">Daemon</text>
<text text-anchor="start" x="587" y="-1044.86" font-family="Arial" font-size="19.00" fill="#ffffff">[Container: Python 3.11, ThreadingHTTPServer]</text>
<text text-anchor="start" x="628" y="-1007.86" font-family="Arial" font-size="24.00" fill="#ffffff">Authenticated loopback HTTP</text>
<text text-anchor="start" x="653" y="-983.86" font-family="Arial" font-size="24.00" fill="#ffffff">API that handles capture,</text>
<text text-anchor="start" x="649.5" y="-959.86" font-family="Arial" font-size="24.00" fill="#ffffff">visit events, media artifact</text>
<text text-anchor="start" x="652.5" y="-935.86" font-family="Arial" font-size="24.00" fill="#ffffff">upload/fetch/purge, exact</text>
<text text-anchor="start" x="749" y="-911.86" font-family="Arial" font-size="24.00" fill="#ffffff">search,</text>
<text text-anchor="start" x="640" y="-887.86" font-family="Arial" font-size="24.00" fill="#ffffff">recent/timeline/detail, policy</text>
<text text-anchor="start" x="658" y="-863.86" font-family="Arial" font-size="24.00" fill="#ffffff">rules, doctor, forget, and</text>
<text text-anchor="start" x="699.5" y="-839.86" font-family="Arial" font-size="24.00" fill="#ffffff">static UI serving.</text>
</g>
<!-- 27 -->
<g id="27" class="node">
<title>27</title>
<path fill="#2f95c8" stroke="#20688c" d="M469,-585.4C469,-608.67 390.11,-627.56 293,-627.56 195.89,-627.56 117,-608.67 117,-585.4 117,-585.4 117,-205.97 117,-205.97 117,-182.71 195.89,-163.81 293,-163.81 390.11,-163.81 469,-182.71 469,-205.97 469,-205.97 469,-585.4 469,-585.4"/>
<path fill="none" stroke="#20688c" d="M469,-585.4C469,-562.14 390.11,-543.24 293,-543.24 195.89,-543.24 117,-562.14 117,-585.4"/>
<text text-anchor="start" x="180" y="-515.99" font-family="Arial" font-size="34.00" fill="#ffffff">SQLite + FTS5</text>
<text text-anchor="start" x="220" y="-481.99" font-family="Arial" font-size="34.00" fill="#ffffff">Database</text>
<text text-anchor="start" x="167" y="-459.99" font-family="Arial" font-size="19.00" fill="#ffffff">[Container: SQLite with FTS5]</text>
<text text-anchor="start" x="174" y="-422.99" font-family="Arial" font-size="24.00" fill="#ffffff">Durable relational and</text>
<text text-anchor="start" x="156.5" y="-398.99" font-family="Arial" font-size="24.00" fill="#ffffff">full&#45;text store for sources,</text>
<text text-anchor="start" x="172.5" y="-374.99" font-family="Arial" font-size="24.00" fill="#ffffff">documents, visits, visit</text>
<text text-anchor="start" x="147" y="-350.99" font-family="Arial" font-size="24.00" fill="#ffffff">events, snapshots, chunks,</text>
<text text-anchor="start" x="146" y="-326.99" font-family="Arial" font-size="24.00" fill="#ffffff">chunks_fts, media artifacts,</text>
<text text-anchor="start" x="161" y="-302.99" font-family="Arial" font-size="24.00" fill="#ffffff">media fetch tasks, policy</text>
<text text-anchor="start" x="167.5" y="-278.99" font-family="Arial" font-size="24.00" fill="#ffffff">rules, audit events, and</text>
<text text-anchor="start" x="201" y="-254.99" font-family="Arial" font-size="24.00" fill="#ffffff">deletion receipts.</text>
</g>
<!-- 14&#45;&gt;27 -->
<g id="43" class="edge">
<title>14&#45;&gt;27</title>
<path fill="none" stroke="#444444" stroke-dasharray="5,2" d="M557.9,-819.43C545.55,-812.1 533.2,-805.04 521,-798.38 485.35,-778.91 465.29,-791.52 437,-762.38 402.76,-727.11 376.39,-682.73 356.17,-637.16"/>
<polygon fill="#444444" stroke="#444444" points="359.27,-635.51 352.08,-627.73 352.85,-638.3 359.27,-635.51"/>
<polygon fill="white" stroke="transparent" points="437,-663.38 437,-762.38 747,-762.38 747,-663.38 437,-663.38"/>
<text text-anchor="start" x="441" y="-739.67" font-family="Arial" font-size="24.00" fill="#444444">Reads and writes metadata,</text>
<text text-anchor="start" x="474" y="-715.67" font-family="Arial" font-size="24.00" fill="#444444">FTS, tasks, audit, and</text>
<text text-anchor="start" x="536.5" y="-691.67" font-family="Arial" font-size="24.00" fill="#444444">receipts in</text>
<text text-anchor="start" x="558.5" y="-671.67" font-family="Arial" font-size="19.00" fill="#444444">[sqlite3]</text>
</g>
<!-- 29 -->
<g id="29" class="node">
<title>29</title>
<path fill="#2f95c8" stroke="#20688c" d="M945,-565.97C945,-586.85 854.46,-603.81 743,-603.81 631.54,-603.81 541,-586.85 541,-565.97 541,-565.97 541,-225.4 541,-225.4 541,-204.52 631.54,-187.56 743,-187.56 854.46,-187.56 945,-204.52 945,-225.4 945,-225.4 945,-565.97 945,-565.97"/>
<path fill="none" stroke="#20688c" d="M945,-565.97C945,-545.09 854.46,-528.13 743,-528.13 631.54,-528.13 541,-545.09 541,-565.97"/>
<text text-anchor="start" x="604" y="-498.99" font-family="Arial" font-size="34.00" fill="#ffffff">Media Blob Cache</text>
<text text-anchor="start" x="625.5" y="-476.99" font-family="Arial" font-size="19.00" fill="#ffffff">[Container: WSL filesystem]</text>
<text text-anchor="start" x="609.5" y="-439.99" font-family="Arial" font-size="24.00" fill="#ffffff">Bounded and disposable</text>
<text text-anchor="start" x="598.5" y="-415.99" font-family="Arial" font-size="24.00" fill="#ffffff">filesystem cache for stored</text>
<text text-anchor="start" x="587.5" y="-391.99" font-family="Arial" font-size="24.00" fill="#ffffff">image/video/audio blobs with</text>
<text text-anchor="start" x="575.5" y="-367.99" font-family="Arial" font-size="24.00" fill="#ffffff">purge/rehydrate semantics that</text>
<text text-anchor="start" x="586.5" y="-343.99" font-family="Arial" font-size="24.00" fill="#ffffff">preserve media refs, hashes,</text>
<text text-anchor="start" x="570" y="-319.99" font-family="Arial" font-size="24.00" fill="#ffffff">status reasons, and provenance</text>
<text text-anchor="start" x="606.5" y="-295.99" font-family="Arial" font-size="24.00" fill="#ffffff">when bytes are absent or</text>
<text text-anchor="start" x="701.5" y="-271.99" font-family="Arial" font-size="24.00" fill="#ffffff">purged.</text>
</g>
<!-- 14&#45;&gt;29 -->
<g id="45" class="edge">
<title>14&#45;&gt;29</title>
<path fill="none" stroke="#444444" stroke-dasharray="5,2" d="M775.76,-811.75C770.89,-750.09 765.31,-679.37 760.15,-613.98"/>
<polygon fill="#444444" stroke="#444444" points="763.63,-613.65 759.36,-603.96 756.66,-614.2 763.63,-613.65"/>
<polygon fill="white" stroke="transparent" points="772,-663.38 772,-762.38 1080,-762.38 1080,-663.38 772,-663.38"/>
<text text-anchor="start" x="801" y="-739.67" font-family="Arial" font-size="24.00" fill="#444444">Stores, serves, purges,</text>
<text text-anchor="start" x="776" y="-715.67" font-family="Arial" font-size="24.00" fill="#444444">and rehydrates media blobs</text>
<text text-anchor="start" x="916.5" y="-691.67" font-family="Arial" font-size="24.00" fill="#444444">in</text>
<text text-anchor="start" x="874.5" y="-671.67" font-family="Arial" font-size="19.00" fill="#444444">[Filesystem]</text>
</g>
<!-- 5 -->
<g id="5" class="node">
<title>5</title>
<polygon fill="#438dd5" stroke="#2e6295" points="742,-1636.75 308,-1636.75 308,-1357.75 742,-1357.75 742,-1636.75"/>
<text text-anchor="start" x="345" y="-1588.55" font-family="Arial" font-size="34.00" fill="#ffffff">Chrome MV3 Extension</text>
<text text-anchor="start" x="337" y="-1566.55" font-family="Arial" font-size="19.00" fill="#ffffff">[Container: JavaScript, Chrome Manifest V3]</text>
<text text-anchor="start" x="382" y="-1529.55" font-family="Arial" font-size="24.00" fill="#ffffff">Captures visible page text,</text>
<text text-anchor="start" x="407.5" y="-1505.55" font-family="Arial" font-size="24.00" fill="#ffffff">media references, tab</text>
<text text-anchor="start" x="416" y="-1481.55" font-family="Arial" font-size="24.00" fill="#ffffff">lifecycle events, and</text>
<text text-anchor="start" x="359" y="-1457.55" font-family="Arial" font-size="24.00" fill="#ffffff">browser&#45;side media bytes from</text>
<text text-anchor="start" x="354" y="-1433.55" font-family="Arial" font-size="24.00" fill="#ffffff">Windows Chrome; queues work</text>
<text text-anchor="start" x="366" y="-1409.55" font-family="Arial" font-size="24.00" fill="#ffffff">durably and posts to the WSL</text>
<text text-anchor="start" x="477.5" y="-1385.55" font-family="Arial" font-size="24.00" fill="#ffffff">daemon.</text>
</g>
<!-- 5&#45;&gt;3 -->
<g id="36" class="edge">
<title>5&#45;&gt;3</title>
<path fill="none" stroke="#444444" stroke-dasharray="5,2" d="M742.17,-1462.08C909.26,-1431.66 1122.06,-1382.61 1186,-1321.75 1240.12,-1270.24 1267.21,-1191.79 1280.74,-1123.2"/>
<polygon fill="#444444" stroke="#444444" points="1284.22,-1123.63 1282.64,-1113.16 1277.34,-1122.33 1284.22,-1123.63"/>
<polygon fill="white" stroke="transparent" points="1259,-1210.75 1259,-1309.75 1550,-1309.75 1550,-1210.75 1259,-1210.75"/>
<text text-anchor="start" x="1282.5" y="-1287.05" font-family="Arial" font-size="24.00" fill="#444444">Extracts DOM refs and</text>
<text text-anchor="start" x="1322" y="-1263.05" font-family="Arial" font-size="24.00" fill="#444444">fetches queued</text>
<text text-anchor="start" x="1274.5" y="-1239.05" font-family="Arial" font-size="24.00" fill="#444444">credentialed media from</text>
<text text-anchor="start" x="1263.5" y="-1219.05" font-family="Arial" font-size="19.00" fill="#444444">[DOM; fetch(credentials: include)]</text>
</g>
<!-- 5&#45;&gt;13 -->
<g id="37" class="edge">
<title>5&#45;&gt;13</title>
<path fill="none" stroke="#444444" stroke-dasharray="5,2" d="M313.7,-1357.47C304.4,-1346.22 296.04,-1334.31 289,-1321.75 263.99,-1277.15 252.43,-1223.98 248.09,-1173.09"/>
<polygon fill="#444444" stroke="#444444" points="251.57,-1172.65 247.32,-1162.95 244.59,-1173.18 251.57,-1172.65"/>
<polygon fill="white" stroke="transparent" points="289,-1210.75 289,-1309.75 600,-1309.75 600,-1210.75 289,-1210.75"/>
<text text-anchor="start" x="303" y="-1287.05" font-family="Arial" font-size="24.00" fill="#444444">Queues captures, lifecycle</text>
<text text-anchor="start" x="311" y="-1263.05" font-family="Arial" font-size="24.00" fill="#444444">events, media tasks, and</text>
<text text-anchor="start" x="403" y="-1239.05" font-family="Arial" font-size="24.00" fill="#444444">blobs in</text>
<text text-anchor="start" x="293.5" y="-1219.05" font-family="Arial" font-size="19.00" fill="#444444">[chrome.storage.local + IndexedDB]</text>
</g>
<!-- 5&#45;&gt;14 -->
<g id="38" class="edge">
<title>5&#45;&gt;14</title>
<path fill="none" stroke="#444444" stroke-dasharray="5,2" d="M596.09,-1357.65C627.53,-1296.37 664.86,-1223.58 698.27,-1158.44"/>
<polygon fill="#444444" stroke="#444444" points="701.51,-1159.8 702.96,-1149.3 695.28,-1156.6 701.51,-1159.8"/>
<polygon fill="white" stroke="transparent" points="673,-1198.75 673,-1321.75 1168,-1321.75 1168,-1198.75 673,-1198.75"/>
<text text-anchor="start" x="840" y="-1299.05" font-family="Arial" font-size="24.00" fill="#444444">Posts /capture,</text>
<text text-anchor="start" x="817" y="-1275.05" font-family="Arial" font-size="24.00" fill="#444444">/visit&#45;events, media</text>
<text text-anchor="start" x="794" y="-1251.05" font-family="Arial" font-size="24.00" fill="#444444">metadata, and raw blob</text>
<text text-anchor="start" x="865" y="-1227.05" font-family="Arial" font-size="24.00" fill="#444444">uploads to</text>
<text text-anchor="start" x="677.5" y="-1207.05" font-family="Arial" font-size="19.00" fill="#444444">[Bearer HTTP/JSON; raw HTTP PUT over 127.0.0.1:8765]</text>
</g>
</g>
</svg>
