<?xml version="1.0" encoding="UTF-8" standalone="no"?>
<!DOCTYPE svg PUBLIC "-//W3C//DTD SVG 1.1//EN"
 "http://www.w3.org/Graphics/SVG/1.1/DTD/svg11.dtd">
<!-- Generated by graphviz version 2.43.0 (0)
 -->
<!-- Title: %3 Pages: 1 -->
<svg width="2141pt" height="1228pt"
 viewBox="0.00 0.00 2141.00 1227.50" xmlns="http://www.w3.org/2000/svg" xmlns:xlink="http://www.w3.org/1999/xlink">
<g id="graph0" class="graph" transform="scale(1 1) rotate(0) translate(4 1223.5)">
<title>%3</title>
<polygon fill="white" stroke="transparent" points="-4,4 -4,-1223.5 2137,-1223.5 2137,4 -4,4"/>
<text text-anchor="start" x="535" y="-11.8" font-family="Arial" font-size="34.00">Component View: Browser Memory Daemon &#45; Chrome MV3 Extension</text>
<g id="clust1" class="cluster">
<title>cluster_4</title>
<polygon fill="none" stroke="#444444" points="8,-312.5 8,-1211.5 2125,-1211.5 2125,-312.5 8,-312.5"/>
<text text-anchor="start" x="925.5" y="-341.3" font-family="Arial" font-size="24.00" fill="#444444">Browser Memory Daemon</text>
<text text-anchor="start" x="989.5" y="-321.3" font-family="Arial" font-size="19.00" fill="#444444">[Software System]</text>
</g>
<g id="clust2" class="cluster">
<title>cluster_5</title>
<polygon fill="none" stroke="#444444" points="33,-464.5 33,-1134.5 1277,-1134.5 1277,-464.5 33,-464.5"/>
<text text-anchor="start" x="527" y="-493.3" font-family="Arial" font-size="24.00" fill="#444444">Chrome MV3 Extension</text>
<text text-anchor="start" x="467" y="-473.3" font-family="Arial" font-size="19.00" fill="#444444">[Container: JavaScript, Chrome Manifest V3]</text>
</g>
<!-- 2 -->
<g id="2" class="node">
<title>2</title>
<polygon fill="#999999" stroke="#6b6b6b" points="453.5,-287 67.5,-287 67.5,-56 453.5,-56 453.5,-287"/>
<text text-anchor="start" x="126" y="-238.8" font-family="Arial" font-size="34.00" fill="#ffffff">Windows Chrome</text>
<text text-anchor="start" x="183.5" y="-216.8" font-family="Arial" font-size="19.00" fill="#ffffff">[Software System]</text>
<text text-anchor="start" x="96.5" y="-179.8" font-family="Arial" font-size="24.00" fill="#ffffff">The Windows Chrome runtime</text>
<text text-anchor="start" x="110" y="-155.8" font-family="Arial" font-size="24.00" fill="#ffffff">that loads web pages, hosts</text>
<text text-anchor="start" x="109.5" y="-131.8" font-family="Arial" font-size="24.00" fill="#ffffff">the MV3 extension, runs the</text>
<text text-anchor="start" x="101.5" y="-107.8" font-family="Arial" font-size="24.00" fill="#ffffff">local UI in a tab, and exposes</text>
<text text-anchor="start" x="131" y="-83.8" font-family="Arial" font-size="24.00" fill="#ffffff">Chrome extension APIs.</text>
</g>
<!-- 6 -->
<g id="6" class="node">
<title>6</title>
<polygon fill="#85bbf0" stroke="#5d82a8" points="463,-1109 58,-1109 58,-868 463,-868 463,-1109"/>
<text text-anchor="start" x="162.5" y="-1060.8" font-family="Arial" font-size="34.00" fill="#000000">Manifest and</text>
<text text-anchor="start" x="101" y="-1026.8" font-family="Arial" font-size="34.00" fill="#000000">Permission Envelope</text>
<text text-anchor="start" x="144.5" y="-1004.8" font-family="Arial" font-size="19.00" fill="#000000">[Component: manifest.json]</text>
<text text-anchor="start" x="87" y="-967.8" font-family="Arial" font-size="24.00" fill="#000000">Declares MV3 permissions, host</text>
<text text-anchor="start" x="108.5" y="-943.8" font-family="Arial" font-size="24.00" fill="#000000">permissions, service worker,</text>
<text text-anchor="start" x="157" y="-919.8" font-family="Arial" font-size="24.00" fill="#000000">popup, and options</text>
<text text-anchor="start" x="197.5" y="-895.8" font-family="Arial" font-size="24.00" fill="#000000">entrypoints.</text>
</g>
<!-- 7 -->
<g id="7" class="node">
<title>7</title>
<polygon fill="#85bbf0" stroke="#5d82a8" points="1230.5,-778 835.5,-778 835.5,-571 1230.5,-571 1230.5,-778"/>
<text text-anchor="start" x="964.5" y="-729.8" font-family="Arial" font-size="34.00" fill="#000000">Extractor</text>
<text text-anchor="start" x="929" y="-707.8" font-family="Arial" font-size="19.00" fill="#000000">[Component: JavaScript]</text>
<text text-anchor="start" x="864.5" y="-670.8" font-family="Arial" font-size="24.00" fill="#000000">Traverses visible DOM text and</text>
<text text-anchor="start" x="913" y="-646.8" font-family="Arial" font-size="24.00" fill="#000000">discovers image/video</text>
<text text-anchor="start" x="876" y="-622.8" font-family="Arial" font-size="24.00" fill="#000000">references while applying the</text>
<text text-anchor="start" x="916.5" y="-598.8" font-family="Arial" font-size="24.00" fill="#000000">selected policy mode.</text>
</g>
<!-- 8 -->
<g id="8" class="node">
<title>8</title>
<polygon fill="#85bbf0" stroke="#5d82a8" points="456,-796 65,-796 65,-565 456,-565 456,-796"/>
<text text-anchor="start" x="152" y="-747.8" font-family="Arial" font-size="34.00" fill="#000000">Content Script</text>
<text text-anchor="start" x="97" y="-725.8" font-family="Arial" font-size="19.00" fill="#000000">[Component: JavaScript content script]</text>
<text text-anchor="start" x="120.5" y="-688.8" font-family="Arial" font-size="24.00" fill="#000000">Schedules initial, delayed,</text>
<text text-anchor="start" x="125" y="-664.8" font-family="Arial" font-size="24.00" fill="#000000">and SPA captures; tracks</text>
<text text-anchor="start" x="125.5" y="-640.8" font-family="Arial" font-size="24.00" fill="#000000">scroll; sends capture and</text>
<text text-anchor="start" x="94" y="-616.8" font-family="Arial" font-size="24.00" fill="#000000">inline blob upload messages to</text>
<text text-anchor="start" x="159.5" y="-592.8" font-family="Arial" font-size="24.00" fill="#000000">the service worker.</text>
</g>
<!-- 8&#45;&gt;7 -->
<g id="49" class="edge">
<title>8&#45;&gt;7</title>
<path fill="none" stroke="#444444" stroke-dasharray="5,2" d="M456.43,-678.98C568.95,-678.11 710.39,-677 824.91,-676.11"/>
<polygon fill="#444444" stroke="#444444" points="825.23,-679.61 835.2,-676.03 825.17,-672.61 825.23,-679.61"/>
<text text-anchor="start" x="510" y="-711.3" font-family="Arial" font-size="24.00" fill="#444444">Builds capture payloads</text>
<text text-anchor="start" x="617" y="-685.3" font-family="Arial" font-size="24.00" fill="#444444">with</text>
</g>
<!-- 9 -->
<g id="9" class="node">
<title>9</title>
<polygon fill="#85bbf0" stroke="#5d82a8" points="1252,-1081 814,-1081 814,-850 1252,-850 1252,-1081"/>
<text text-anchor="start" x="917" y="-1032.8" font-family="Arial" font-size="34.00" fill="#000000">Service Worker</text>
<text text-anchor="start" x="843" y="-1010.8" font-family="Arial" font-size="19.00" fill="#000000">[Component: JavaScript MV3 service worker]</text>
<text text-anchor="start" x="861.5" y="-973.8" font-family="Arial" font-size="24.00" fill="#000000">Owns daemon transport, bearer</text>
<text text-anchor="start" x="885.5" y="-949.8" font-family="Arial" font-size="24.00" fill="#000000">token use, capture and visit</text>
<text text-anchor="start" x="874" y="-925.8" font-family="Arial" font-size="24.00" fill="#000000">queues, lifecycle state, media</text>
<text text-anchor="start" x="897" y="-901.8" font-family="Arial" font-size="24.00" fill="#000000">queue draining, and CDP</text>
<text text-anchor="start" x="910.5" y="-877.8" font-family="Arial" font-size="24.00" fill="#000000">recorder orchestration.</text>
</g>
<!-- 8&#45;&gt;9 -->
<g id="50" class="edge">
<title>8&#45;&gt;9</title>
<path fill="none" stroke="#444444" stroke-dasharray="5,2" d="M456.43,-752.6C562.24,-791.74 693.62,-840.34 804.14,-881.22"/>
<polygon fill="#444444" stroke="#444444" points="803.16,-884.59 813.75,-884.77 805.59,-878.02 803.16,-884.59"/>
<text text-anchor="start" x="499" y="-913.3" font-family="Arial" font-size="24.00" fill="#444444">Sends captures and inline</text>
<text text-anchor="start" x="596" y="-889.3" font-family="Arial" font-size="24.00" fill="#444444">blobs to</text>
<text text-anchor="start" x="505.5" y="-869.3" font-family="Arial" font-size="19.00" fill="#444444">[chrome.runtime.sendMessage]</text>
</g>
<!-- 13 -->
<g id="13" class="node">
<title>13</title>
<path fill="#2f95c8" stroke="#20688c" d="M2095.5,-743.72C2095.5,-762.01 1993.98,-776.88 1869,-776.88 1744.02,-776.88 1642.5,-762.01 1642.5,-743.72 1642.5,-743.72 1642.5,-445.28 1642.5,-445.28 1642.5,-426.99 1744.02,-412.12 1869,-412.12 1993.98,-412.12 2095.5,-426.99 2095.5,-445.28 2095.5,-445.28 2095.5,-743.72 2095.5,-743.72"/>
<path fill="none" stroke="#20688c" d="M2095.5,-743.72C2095.5,-725.42 1993.98,-710.56 1869,-710.56 1744.02,-710.56 1642.5,-725.42 1642.5,-743.72"/>
<text text-anchor="start" x="1727" y="-678.8" font-family="Arial" font-size="34.00" fill="#ffffff">Extension Browser</text>
<text text-anchor="start" x="1809.5" y="-644.8" font-family="Arial" font-size="34.00" fill="#ffffff">Storage</text>
<text text-anchor="start" x="1671.5" y="-622.8" font-family="Arial" font-size="19.00" fill="#ffffff">[Container: chrome.storage.local + IndexedDB]</text>
<text text-anchor="start" x="1736.5" y="-585.8" font-family="Arial" font-size="24.00" fill="#ffffff">Browser&#45;side storage for</text>
<text text-anchor="start" x="1724.5" y="-561.8" font-family="Arial" font-size="24.00" fill="#ffffff">capture and visit queues in</text>
<text text-anchor="start" x="1730.5" y="-537.8" font-family="Arial" font-size="24.00" fill="#ffffff">chrome.storage.local plus</text>
<text text-anchor="start" x="1736.5" y="-513.8" font-family="Arial" font-size="24.00" fill="#ffffff">durable media tasks and</text>
<text text-anchor="start" x="1717.5" y="-489.8" font-family="Arial" font-size="24.00" fill="#ffffff">fetched blobs in IndexedDB.</text>
</g>
<!-- 9&#45;&gt;13 -->
<g id="51" class="edge">
<title>9&#45;&gt;13</title>
<path fill="none" stroke="#444444" stroke-dasharray="5,2" d="M1252.03,-868.51C1369.04,-816.46 1513.34,-752.27 1632.86,-699.1"/>
<polygon fill="#444444" stroke="#444444" points="1634.44,-702.23 1642.15,-694.97 1631.59,-695.83 1634.44,-702.23"/>
<text text-anchor="start" x="1339.5" y="-929.3" font-family="Arial" font-size="24.00" fill="#444444">Queues captures in</text>
<text text-anchor="start" x="1308.5" y="-903.3" font-family="Arial" font-size="24.00" fill="#444444">chrome.storage.local and</text>
<text text-anchor="start" x="1335" y="-877.3" font-family="Arial" font-size="24.00" fill="#444444">media tasks/blobs in</text>
<text text-anchor="start" x="1385" y="-851.3" font-family="Arial" font-size="24.00" fill="#444444">IndexedDB</text>
</g>
<!-- 14 -->
<g id="14" class="node">
<title>14</title>
<polygon fill="#438dd5" stroke="#2e6295" points="2100,-1186 1638,-1186 1638,-849 2100,-849 2100,-1186"/>
<text text-anchor="start" x="1704.5" y="-1137.8" font-family="Arial" font-size="34.00" fill="#ffffff">WSL Loopback HTTP</text>
<text text-anchor="start" x="1804.5" y="-1103.8" font-family="Arial" font-size="34.00" fill="#ffffff">Daemon</text>
<text text-anchor="start" x="1667" y="-1081.8" font-family="Arial" font-size="19.00" fill="#ffffff">[Container: Python 3.11, ThreadingHTTPServer]</text>
<text text-anchor="start" x="1708" y="-1044.8" font-family="Arial" font-size="24.00" fill="#ffffff">Authenticated loopback HTTP</text>
<text text-anchor="start" x="1733" y="-1020.8" font-family="Arial" font-size="24.00" fill="#ffffff">API that handles capture,</text>
<text text-anchor="start" x="1729.5" y="-996.8" font-family="Arial" font-size="24.00" fill="#ffffff">visit events, media artifact</text>
<text text-anchor="start" x="1732.5" y="-972.8" font-family="Arial" font-size="24.00" fill="#ffffff">upload/fetch/purge, exact</text>
<text text-anchor="start" x="1829" y="-948.8" font-family="Arial" font-size="24.00" fill="#ffffff">search,</text>
<text text-anchor="start" x="1720" y="-924.8" font-family="Arial" font-size="24.00" fill="#ffffff">recent/timeline/detail, policy</text>
<text text-anchor="start" x="1738" y="-900.8" font-family="Arial" font-size="24.00" fill="#ffffff">rules, doctor, forget, and</text>
<text text-anchor="start" x="1779.5" y="-876.8" font-family="Arial" font-size="24.00" fill="#ffffff">static UI serving.</text>
</g>
<!-- 9&#45;&gt;14 -->
<g id="52" class="edge">
<title>9&#45;&gt;14</title>
<path fill="none" stroke="#444444" stroke-dasharray="5,2" d="M1252.03,-979.09C1367.28,-986.28 1509.01,-995.12 1627.46,-1002.5"/>
<polygon fill="#444444" stroke="#444444" points="1627.55,-1006.01 1637.75,-1003.14 1627.99,-999.03 1627.55,-1006.01"/>
<text text-anchor="start" x="1305.5" y="-1049.3" font-family="Arial" font-size="24.00" fill="#444444">Delivers captures, events,</text>
<text text-anchor="start" x="1298.5" y="-1025.3" font-family="Arial" font-size="24.00" fill="#444444">metadata, and raw blobs to</text>
<text text-anchor="start" x="1288" y="-1005.3" font-family="Arial" font-size="19.00" fill="#444444">[Bearer HTTP/JSON; raw HTTP PUT]</text>
</g>
</g>
</svg>
