<?xml version="1.0" encoding="UTF-8" standalone="no"?>
<!DOCTYPE svg PUBLIC "-//W3C//DTD SVG 1.1//EN"
 "http://www.w3.org/Graphics/SVG/1.1/DTD/svg11.dtd">
<!-- Generated by graphviz version 2.43.0 (0)
 -->
<!-- Title: %3 Pages: 1 -->
<svg width="2290pt" height="1242pt"
 viewBox="0.00 0.00 2290.00 1241.50" xmlns="http://www.w3.org/2000/svg" xmlns:xlink="http://www.w3.org/1999/xlink">
<g id="graph0" class="graph" transform="scale(1 1) rotate(0) translate(4 1237.5)">
<title>%3</title>
<polygon fill="white" stroke="transparent" points="-4,4 -4,-1237.5 2286,-1237.5 2286,4 -4,4"/>
<text text-anchor="start" x="825.5" y="-11.8" font-family="Arial" font-size="34.00">Dynamic View: Browser Memory Daemon</text>
<g id="clust1" class="cluster">
<title>cluster_4</title>
<polygon fill="none" stroke="#444444" points="8,-312.5 8,-1225.5 2274,-1225.5 2274,-312.5 8,-312.5"/>
<text text-anchor="start" x="1000" y="-341.3" font-family="Arial" font-size="24.00" fill="#444444">Browser Memory Daemon</text>
<text text-anchor="start" x="1064" y="-321.3" font-family="Arial" font-size="19.00" fill="#444444">[Software System]</text>
</g>
<!-- 13 -->
<g id="13" class="node">
<title>13</title>
<path fill="#2f95c8" stroke="#20688c" d="M1491.5,-743.72C1491.5,-762.01 1389.98,-776.88 1265,-776.88 1140.02,-776.88 1038.5,-762.01 1038.5,-743.72 1038.5,-743.72 1038.5,-445.28 1038.5,-445.28 1038.5,-426.99 1140.02,-412.12 1265,-412.12 1389.98,-412.12 1491.5,-426.99 1491.5,-445.28 1491.5,-445.28 1491.5,-743.72 1491.5,-743.72"/>
<path fill="none" stroke="#20688c" d="M1491.5,-743.72C1491.5,-725.42 1389.98,-710.56 1265,-710.56 1140.02,-710.56 1038.5,-725.42 1038.5,-743.72"/>
<text text-anchor="start" x="1123" y="-678.8" font-family="Arial" font-size="34.00" fill="#ffffff">Extension Browser</text>
<text text-anchor="start" x="1205.5" y="-644.8" font-family="Arial" font-size="34.00" fill="#ffffff">Storage</text>
<text text-anchor="start" x="1067.5" y="-622.8" font-family="Arial" font-size="19.00" fill="#ffffff">[Container: chrome.storage.local + IndexedDB]</text>
<text text-anchor="start" x="1132.5" y="-585.8" font-family="Arial" font-size="24.00" fill="#ffffff">Browser&#45;side storage for</text>
<text text-anchor="start" x="1120.5" y="-561.8" font-family="Arial" font-size="24.00" fill="#ffffff">capture and visit queues in</text>
<text text-anchor="start" x="1126.5" y="-537.8" font-family="Arial" font-size="24.00" fill="#ffffff">chrome.storage.local plus</text>
<text text-anchor="start" x="1132.5" y="-513.8" font-family="Arial" font-size="24.00" fill="#ffffff">durable media tasks and</text>
<text text-anchor="start" x="1113.5" y="-489.8" font-family="Arial" font-size="24.00" fill="#ffffff">fetched blobs in IndexedDB.</text>
</g>
<!-- 14 -->
<g id="14" class="node">
<title>14</title>
<polygon fill="#438dd5" stroke="#2e6295" points="1496,-1186 1034,-1186 1034,-849 1496,-849 1496,-1186"/>
<text text-anchor="start" x="1100.5" y="-1137.8" font-family="Arial" font-size="34.00" fill="#ffffff">WSL Loopback HTTP</text>
<text text-anchor="start" x="1200.5" y="-1103.8" font-family="Arial" font-size="34.00" fill="#ffffff">Daemon</text>
<text text-anchor="start" x="1063" y="-1081.8" font-family="Arial" font-size="19.00" fill="#ffffff">[Container: Python 3.11, ThreadingHTTPServer]</text>
<text text-anchor="start" x="1104" y="-1044.8" font-family="Arial" font-size="24.00" fill="#ffffff">Authenticated loopback HTTP</text>
<text text-anchor="start" x="1129" y="-1020.8" font-family="Arial" font-size="24.00" fill="#ffffff">API that handles capture,</text>
<text text-anchor="start" x="1125.5" y="-996.8" font-family="Arial" font-size="24.00" fill="#ffffff">visit events, media artifact</text>
<text text-anchor="start" x="1128.5" y="-972.8" font-family="Arial" font-size="24.00" fill="#ffffff">upload/fetch/purge, exact</text>
<text text-anchor="start" x="1225" y="-948.8" font-family="Arial" font-size="24.00" fill="#ffffff">search,</text>
<text text-anchor="start" x="1116" y="-924.8" font-family="Arial" font-size="24.00" fill="#ffffff">recent/timeline/detail, policy</text>
<text text-anchor="start" x="1134" y="-900.8" font-family="Arial" font-size="24.00" fill="#ffffff">rules, doctor, forget, and</text>
<text text-anchor="start" x="1175.5" y="-876.8" font-family="Arial" font-size="24.00" fill="#ffffff">static UI serving.</text>
</g>
<!-- 27 -->
<g id="27" class="node">
<title>27</title>
<path fill="#2f95c8" stroke="#20688c" d="M2224.5,-834.22C2224.5,-857.48 2145.61,-876.38 2048.5,-876.38 1951.39,-876.38 1872.5,-857.48 1872.5,-834.22 1872.5,-834.22 1872.5,-454.78 1872.5,-454.78 1872.5,-431.52 1951.39,-412.62 2048.5,-412.62 2145.61,-412.62 2224.5,-431.52 2224.5,-454.78 2224.5,-454.78 2224.5,-834.22 2224.5,-834.22"/>
<path fill="none" stroke="#20688c" d="M2224.5,-834.22C2224.5,-810.95 2145.61,-792.06 2048.5,-792.06 1951.39,-792.06 1872.5,-810.95 1872.5,-834.22"/>
<text text-anchor="start" x="1935.5" y="-764.8" font-family="Arial" font-size="34.00" fill="#ffffff">SQLite + FTS5</text>
<text text-anchor="start" x="1975.5" y="-730.8" font-family="Arial" font-size="34.00" fill="#ffffff">Database</text>
<text text-anchor="start" x="1922.5" y="-708.8" font-family="Arial" font-size="19.00" fill="#ffffff">[Container: SQLite with FTS5]</text>
<text text-anchor="start" x="1929.5" y="-671.8" font-family="Arial" font-size="24.00" fill="#ffffff">Durable relational and</text>
<text text-anchor="start" x="1912" y="-647.8" font-family="Arial" font-size="24.00" fill="#ffffff">full&#45;text store for sources,</text>
<text text-anchor="start" x="1928" y="-623.8" font-family="Arial" font-size="24.00" fill="#ffffff">documents, visits, visit</text>
<text text-anchor="start" x="1902.5" y="-599.8" font-family="Arial" font-size="24.00" fill="#ffffff">events, snapshots, chunks,</text>
<text text-anchor="start" x="1901.5" y="-575.8" font-family="Arial" font-size="24.00" fill="#ffffff">chunks_fts, media artifacts,</text>
<text text-anchor="start" x="1916.5" y="-551.8" font-family="Arial" font-size="24.00" fill="#ffffff">media fetch tasks, policy</text>
<text text-anchor="start" x="1923" y="-527.8" font-family="Arial" font-size="24.00" fill="#ffffff">rules, audit events, and</text>
<text text-anchor="start" x="1956.5" y="-503.8" font-family="Arial" font-size="24.00" fill="#ffffff">deletion receipts.</text>
</g>
<!-- 14&#45;&gt;27 -->
<g id="43" class="edge">
<title>14&#45;&gt;27</title>
<path fill="none" stroke="#444444" stroke-dasharray="5,2" d="M1496.25,-907.61C1613.18,-851.8 1753.31,-784.91 1863.03,-732.55"/>
<polygon fill="#444444" stroke="#444444" points="1864.69,-735.63 1872.21,-728.16 1861.68,-729.31 1864.69,-735.63"/>
<polygon fill="white" stroke="transparent" points="1532,-885.5 1532,-984.5 1812,-984.5 1812,-885.5 1532,-885.5"/>
<text text-anchor="start" x="1536" y="-961.8" font-family="Arial" font-size="24.00" fill="#444444">4. Stores document, visit,</text>
<text text-anchor="start" x="1544.5" y="-937.8" font-family="Arial" font-size="24.00" fill="#444444">snapshot, chunks, FTS,</text>
<text text-anchor="start" x="1556.5" y="-913.8" font-family="Arial" font-size="24.00" fill="#444444">media refs, and tasks</text>
<text text-anchor="start" x="1638.5" y="-893.8" font-family="Arial" font-size="19.00" fill="#444444">[sqlite3]</text>
</g>
<!-- 28 -->
<g id="28" class="node">
<title>28</title>
<path fill="#2f95c8" stroke="#20688c" d="M2249,-1177.28C2249,-1189.89 2159.13,-1200.13 2048.5,-1200.13 1937.87,-1200.13 1848,-1189.89 1848,-1177.28 1848,-1177.28 1848,-971.72 1848,-971.72 1848,-959.11 1937.87,-948.87 2048.5,-948.87 2159.13,-948.87 2249,-959.11 2249,-971.72 2249,-971.72 2249,-1177.28 2249,-1177.28"/>
<path fill="none" stroke="#20688c" d="M2249,-1177.28C2249,-1164.68 2159.13,-1154.44 2048.5,-1154.44 1937.87,-1154.44 1848,-1164.68 1848,-1177.28"/>
<text text-anchor="start" x="1884" y="-1117.8" font-family="Arial" font-size="34.00" fill="#ffffff">Clean Text Blob Store</text>
<text text-anchor="start" x="1931" y="-1095.8" font-family="Arial" font-size="19.00" fill="#ffffff">[Container: WSL filesystem]</text>
<text text-anchor="start" x="1890" y="-1058.8" font-family="Arial" font-size="24.00" fill="#ffffff">Filesystem store for snapshot</text>
<text text-anchor="start" x="1877" y="-1034.8" font-family="Arial" font-size="24.00" fill="#ffffff">text blobs under WSL XDG data</text>
<text text-anchor="start" x="2015" y="-1010.8" font-family="Arial" font-size="24.00" fill="#ffffff">paths.</text>
</g>
<!-- 14&#45;&gt;28 -->
<g id="44" class="edge">
<title>14&#45;&gt;28</title>
<path fill="none" stroke="#444444" stroke-dasharray="5,2" d="M1496.25,-1034.29C1604.31,-1042.18 1732.19,-1051.5 1837.57,-1059.19"/>
<polygon fill="#444444" stroke="#444444" points="1837.47,-1062.69 1847.69,-1059.93 1837.98,-1055.71 1837.47,-1062.69"/>
<polygon fill="white" stroke="transparent" points="1564,-1055.5 1564,-1130.5 1780,-1130.5 1780,-1055.5 1564,-1055.5"/>
<text text-anchor="start" x="1568" y="-1107.8" font-family="Arial" font-size="24.00" fill="#444444">5. Writes clean&#45;text</text>
<text text-anchor="start" x="1596.5" y="-1083.8" font-family="Arial" font-size="24.00" fill="#444444">snapshot blob</text>
<text text-anchor="start" x="1620.5" y="-1063.8" font-family="Arial" font-size="19.00" fill="#444444">[Filesystem]</text>
</g>
<!-- 5 -->
<g id="5" class="node">
<title>5</title>
<polygon fill="#438dd5" stroke="#2e6295" points="467,-734 33,-734 33,-455 467,-455 467,-734"/>
<text text-anchor="start" x="70" y="-685.8" font-family="Arial" font-size="34.00" fill="#ffffff">Chrome MV3 Extension</text>
<text text-anchor="start" x="62" y="-663.8" font-family="Arial" font-size="19.00" fill="#ffffff">[Container: JavaScript, Chrome Manifest V3]</text>
<text text-anchor="start" x="107" y="-626.8" font-family="Arial" font-size="24.00" fill="#ffffff">Captures visible page text,</text>
<text text-anchor="start" x="132.5" y="-602.8" font-family="Arial" font-size="24.00" fill="#ffffff">media references, tab</text>
<text text-anchor="start" x="141" y="-578.8" font-family="Arial" font-size="24.00" fill="#ffffff">lifecycle events, and</text>
<text text-anchor="start" x="84" y="-554.8" font-family="Arial" font-size="24.00" fill="#ffffff">browser&#45;side media bytes from</text>
<text text-anchor="start" x="79" y="-530.8" font-family="Arial" font-size="24.00" fill="#ffffff">Windows Chrome; queues work</text>
<text text-anchor="start" x="91" y="-506.8" font-family="Arial" font-size="24.00" fill="#ffffff">durably and posts to the WSL</text>
<text text-anchor="start" x="202.5" y="-482.8" font-family="Arial" font-size="24.00" fill="#ffffff">daemon.</text>
</g>
<!-- 5&#45;&gt;13 -->
<g id="37" class="edge">
<title>5&#45;&gt;13</title>
<path fill="none" stroke="#444444" stroke-dasharray="5,2" d="M467.07,-594.5C631.86,-594.5 858.6,-594.5 1028.11,-594.5"/>
<polygon fill="#444444" stroke="#444444" points="1028.17,-598 1038.17,-594.5 1028.17,-591 1028.17,-598"/>
<polygon fill="white" stroke="transparent" points="595,-594.5 595,-693.5 906,-693.5 906,-594.5 595,-594.5"/>
<text text-anchor="start" x="622" y="-670.8" font-family="Arial" font-size="24.00" fill="#444444">6. Queues browser&#45;side</text>
<text text-anchor="start" x="641.5" y="-646.8" font-family="Arial" font-size="24.00" fill="#444444">media tasks for later</text>
<text text-anchor="start" x="684.5" y="-622.8" font-family="Arial" font-size="24.00" fill="#444444">fetch/upload</text>
<text text-anchor="start" x="599.5" y="-602.8" font-family="Arial" font-size="19.00" fill="#444444">[chrome.storage.local + IndexedDB]</text>
</g>
<!-- 5&#45;&gt;14 -->
<g id="38" class="edge">
<title>5&#45;&gt;14</title>
<path fill="none" stroke="#444444" stroke-dasharray="5,2" d="M467.17,-695.76C479.27,-701.14 491.27,-706.42 503,-711.5 676.12,-786.43 873.86,-865.76 1024.37,-924.86"/>
<polygon fill="#444444" stroke="#444444" points="1023.18,-928.15 1033.76,-928.55 1025.73,-921.64 1023.18,-928.15"/>
<polygon fill="white" stroke="transparent" points="503,-911.5 503,-1010.5 998,-1010.5 998,-911.5 503,-911.5"/>
<text text-anchor="start" x="628" y="-987.8" font-family="Arial" font-size="24.00" fill="#444444">3. POSTs /capture with</text>
<text text-anchor="start" x="633.5" y="-963.8" font-family="Arial" font-size="24.00" fill="#444444">visible text, metadata,</text>
<text text-anchor="start" x="670.5" y="-939.8" font-family="Arial" font-size="24.00" fill="#444444">and media refs</text>
<text text-anchor="start" x="507.5" y="-919.8" font-family="Arial" font-size="19.00" fill="#444444">[Bearer HTTP/JSON; raw HTTP PUT over 127.0.0.1:8765]</text>
</g>
<!-- 2 -->
<g id="2" class="node">
<title>2</title>
<polygon fill="#999999" stroke="#6b6b6b" points="1458,-287 1072,-287 1072,-56 1458,-56 1458,-287"/>
<text text-anchor="start" x="1130.5" y="-238.8" font-family="Arial" font-size="34.00" fill="#ffffff">Windows Chrome</text>
<text text-anchor="start" x="1188" y="-216.8" font-family="Arial" font-size="19.00" fill="#ffffff">[Software System]</text>
<text text-anchor="start" x="1101" y="-179.8" font-family="Arial" font-size="24.00" fill="#ffffff">The Windows Chrome runtime</text>
<text text-anchor="start" x="1114.5" y="-155.8" font-family="Arial" font-size="24.00" fill="#ffffff">that loads web pages, hosts</text>
<text text-anchor="start" x="1114" y="-131.8" font-family="Arial" font-size="24.00" fill="#ffffff">the MV3 extension, runs the</text>
<text text-anchor="start" x="1106" y="-107.8" font-family="Arial" font-size="24.00" fill="#ffffff">local UI in a tab, and exposes</text>
<text text-anchor="start" x="1135.5" y="-83.8" font-family="Arial" font-size="24.00" fill="#ffffff">Chrome extension APIs.</text>
</g>
<!-- 5&#45;&gt;2 -->
<g id="35" class="edge">
<title>5&#45;&gt;2</title>
<path fill="none" stroke="#444444" stroke-dasharray="5,2" d="M467.17,-493.24C479.27,-487.86 491.27,-482.58 503,-477.5 691,-396.12 908.03,-309.57 1062.09,-249.36"/>
<polygon fill="#444444" stroke="#444444" points="1063.64,-252.51 1071.68,-245.61 1061.09,-245.99 1063.64,-252.51"/>
<polygon fill="white" stroke="transparent" points="605.5,-477.5 605.5,-576.5 895.5,-576.5 895.5,-477.5 605.5,-477.5"/>
<text text-anchor="start" x="609.5" y="-553.8" font-family="Arial" font-size="24.00" fill="#444444">2. Runs content script and</text>
<text text-anchor="start" x="637.5" y="-529.8" font-family="Arial" font-size="24.00" fill="#444444">service worker inside</text>
<text text-anchor="start" x="698.5" y="-505.8" font-family="Arial" font-size="24.00" fill="#444444">active tab</text>
<text text-anchor="start" x="645.5" y="-485.8" font-family="Arial" font-size="19.00" fill="#444444">[Chrome extension APIs]</text>
</g>
<!-- 1 -->
<g id="1" class="node">
<title>1</title>
<polygon fill="#08427b" stroke="#052e56" points="454,-275 46,-275 46,-68 454,-68 454,-275"/>
<text text-anchor="start" x="191" y="-226.8" font-family="Arial" font-size="34.00" fill="#ffffff">Operator</text>
<text text-anchor="start" x="214.5" y="-204.8" font-family="Arial" font-size="19.00" fill="#ffffff">[Person]</text>
<text text-anchor="start" x="78.5" y="-167.8" font-family="Arial" font-size="24.00" fill="#ffffff">Sole operator who browses with</text>
<text text-anchor="start" x="75" y="-143.8" font-family="Arial" font-size="24.00" fill="#ffffff">Windows Chrome and searches,</text>
<text text-anchor="start" x="111.5" y="-119.8" font-family="Arial" font-size="24.00" fill="#ffffff">reviews, and deletes local</text>
<text text-anchor="start" x="111.5" y="-95.8" font-family="Arial" font-size="24.00" fill="#ffffff">browser&#45;memory records.</text>
</g>
<!-- 1&#45;&gt;2 -->
<g id="30" class="edge">
<title>1&#45;&gt;2</title>
<path fill="none" stroke="#444444" stroke-dasharray="5,2" d="M454.17,-171.5C630.8,-171.5 885.34,-171.5 1061.71,-171.5"/>
<polygon fill="#444444" stroke="#444444" points="1061.89,-175 1071.89,-171.5 1061.89,-168 1061.89,-175"/>
<polygon fill="white" stroke="transparent" points="620.5,-171.5 620.5,-205.5 880.5,-205.5 880.5,-171.5 620.5,-171.5"/>
<text text-anchor="start" x="624.5" y="-182.3" font-family="Arial" font-size="24.00" fill="#444444">1. Browses a web page</text>
</g>
</g>
</svg>
