<?xml version="1.0" encoding="UTF-8" standalone="no"?>
<!DOCTYPE svg PUBLIC "-//W3C//DTD SVG 1.1//EN"
 "http://www.w3.org/Graphics/SVG/1.1/DTD/svg11.dtd">
<!-- Generated by graphviz version 2.43.0 (0)
 -->
<!-- Title: %3 Pages: 1 -->
<svg width="2305pt" height="1440pt"
 viewBox="0.00 0.00 2305.00 1439.50" xmlns="http://www.w3.org/2000/svg" xmlns:xlink="http://www.w3.org/1999/xlink">
<g id="graph0" class="graph" transform="scale(1 1) rotate(0) translate(4 1435.5)">
<title>%3</title>
<polygon fill="white" stroke="transparent" points="-4,4 -4,-1435.5 2301,-1435.5 2301,4 -4,4"/>
<text text-anchor="start" x="833" y="-11.8" font-family="Arial" font-size="34.00">Dynamic View: Browser Memory Daemon</text>
<g id="clust1" class="cluster">
<title>cluster_4</title>
<polygon fill="none" stroke="#444444" points="8,-346.5 8,-1423.5 2289,-1423.5 2289,-346.5 8,-346.5"/>
<text text-anchor="start" x="1007.5" y="-375.3" font-family="Arial" font-size="24.00" fill="#444444">Browser Memory Daemon</text>
<text text-anchor="start" x="1071.5" y="-355.3" font-family="Arial" font-size="19.00" fill="#444444">[Software System]</text>
</g>
<!-- 13 -->
<g id="13" class="node">
<title>13</title>
<path fill="#2f95c8" stroke="#20688c" d="M1491.5,-777.72C1491.5,-796.01 1389.98,-810.88 1265,-810.88 1140.02,-810.88 1038.5,-796.01 1038.5,-777.72 1038.5,-777.72 1038.5,-479.28 1038.5,-479.28 1038.5,-460.99 1140.02,-446.12 1265,-446.12 1389.98,-446.12 1491.5,-460.99 1491.5,-479.28 1491.5,-479.28 1491.5,-777.72 1491.5,-777.72"/>
<path fill="none" stroke="#20688c" d="M1491.5,-777.72C1491.5,-759.42 1389.98,-744.56 1265,-744.56 1140.02,-744.56 1038.5,-759.42 1038.5,-777.72"/>
<text text-anchor="start" x="1123" y="-712.8" font-family="Arial" font-size="34.00" fill="#ffffff">Extension Browser</text>
<text text-anchor="start" x="1205.5" y="-678.8" font-family="Arial" font-size="34.00" fill="#ffffff">Storage</text>
<text text-anchor="start" x="1067.5" y="-656.8" font-family="Arial" font-size="19.00" fill="#ffffff">[Container: chrome.storage.local + IndexedDB]</text>
<text text-anchor="start" x="1132.5" y="-619.8" font-family="Arial" font-size="24.00" fill="#ffffff">Browser&#45;side storage for</text>
<text text-anchor="start" x="1120.5" y="-595.8" font-family="Arial" font-size="24.00" fill="#ffffff">capture and visit queues in</text>
<text text-anchor="start" x="1126.5" y="-571.8" font-family="Arial" font-size="24.00" fill="#ffffff">chrome.storage.local plus</text>
<text text-anchor="start" x="1132.5" y="-547.8" font-family="Arial" font-size="24.00" fill="#ffffff">durable media tasks and</text>
<text text-anchor="start" x="1113.5" y="-523.8" font-family="Arial" font-size="24.00" fill="#ffffff">fetched blobs in IndexedDB.</text>
</g>
<!-- 14 -->
<g id="14" class="node">
<title>14</title>
<polygon fill="#438dd5" stroke="#2e6295" points="1496,-1220 1034,-1220 1034,-883 1496,-883 1496,-1220"/>
<text text-anchor="start" x="1100.5" y="-1171.8" font-family="Arial" font-size="34.00" fill="#ffffff">WSL Loopback HTTP</text>
<text text-anchor="start" x="1200.5" y="-1137.8" font-family="Arial" font-size="34.00" fill="#ffffff">Daemon</text>
<text text-anchor="start" x="1063" y="-1115.8" font-family="Arial" font-size="19.00" fill="#ffffff">[Container: Python 3.11, ThreadingHTTPServer]</text>
<text text-anchor="start" x="1104" y="-1078.8" font-family="Arial" font-size="24.00" fill="#ffffff">Authenticated loopback HTTP</text>
<text text-anchor="start" x="1129" y="-1054.8" font-family="Arial" font-size="24.00" fill="#ffffff">API that handles capture,</text>
<text text-anchor="start" x="1125.5" y="-1030.8" font-family="Arial" font-size="24.00" fill="#ffffff">visit events, media artifact</text>
<text text-anchor="start" x="1128.5" y="-1006.8" font-family="Arial" font-size="24.00" fill="#ffffff">upload/fetch/purge, exact</text>
<text text-anchor="start" x="1225" y="-982.8" font-family="Arial" font-size="24.00" fill="#ffffff">search,</text>
<text text-anchor="start" x="1116" y="-958.8" font-family="Arial" font-size="24.00" fill="#ffffff">recent/timeline/detail, policy</text>
<text text-anchor="start" x="1134" y="-934.8" font-family="Arial" font-size="24.00" fill="#ffffff">rules, doctor, forget, and</text>
<text text-anchor="start" x="1175.5" y="-910.8" font-family="Arial" font-size="24.00" fill="#ffffff">static UI serving.</text>
</g>
<!-- 27 -->
<g id="27" class="node">
<title>27</title>
<path fill="#2f95c8" stroke="#20688c" d="M2238,-868.22C2238,-891.48 2159.11,-910.38 2062,-910.38 1964.89,-910.38 1886,-891.48 1886,-868.22 1886,-868.22 1886,-488.78 1886,-488.78 1886,-465.52 1964.89,-446.62 2062,-446.62 2159.11,-446.62 2238,-465.52 2238,-488.78 2238,-488.78 2238,-868.22 2238,-868.22"/>
<path fill="none" stroke="#20688c" d="M2238,-868.22C2238,-844.95 2159.11,-826.06 2062,-826.06 1964.89,-826.06 1886,-844.95 1886,-868.22"/>
<text text-anchor="start" x="1949" y="-798.8" font-family="Arial" font-size="34.00" fill="#ffffff">SQLite + FTS5</text>
<text text-anchor="start" x="1989" y="-764.8" font-family="Arial" font-size="34.00" fill="#ffffff">Database</text>
<text text-anchor="start" x="1936" y="-742.8" font-family="Arial" font-size="19.00" fill="#ffffff">[Container: SQLite with FTS5]</text>
<text text-anchor="start" x="1943" y="-705.8" font-family="Arial" font-size="24.00" fill="#ffffff">Durable relational and</text>
<text text-anchor="start" x="1925.5" y="-681.8" font-family="Arial" font-size="24.00" fill="#ffffff">full&#45;text store for sources,</text>
<text text-anchor="start" x="1941.5" y="-657.8" font-family="Arial" font-size="24.00" fill="#ffffff">documents, visits, visit</text>
<text text-anchor="start" x="1916" y="-633.8" font-family="Arial" font-size="24.00" fill="#ffffff">events, snapshots, chunks,</text>
<text text-anchor="start" x="1915" y="-609.8" font-family="Arial" font-size="24.00" fill="#ffffff">chunks_fts, media artifacts,</text>
<text text-anchor="start" x="1930" y="-585.8" font-family="Arial" font-size="24.00" fill="#ffffff">media fetch tasks, policy</text>
<text text-anchor="start" x="1936.5" y="-561.8" font-family="Arial" font-size="24.00" fill="#ffffff">rules, audit events, and</text>
<text text-anchor="start" x="1970" y="-537.8" font-family="Arial" font-size="24.00" fill="#ffffff">deletion receipts.</text>
</g>
<!-- 14&#45;&gt;27 -->
<g id="43" class="edge">
<title>14&#45;&gt;27</title>
<path fill="none" stroke="#444444" stroke-dasharray="5,2" d="M1496.21,-943.49C1617.2,-886.72 1763.49,-818.09 1876.86,-764.9"/>
<polygon fill="#444444" stroke="#444444" points="1878.43,-768.02 1886,-760.61 1875.46,-761.69 1878.43,-768.02"/>
<polygon fill="white" stroke="transparent" points="1538,-919.5 1538,-1018.5 1818,-1018.5 1818,-919.5 1538,-919.5"/>
<text text-anchor="start" x="1579.5" y="-995.8" font-family="Arial" font-size="24.00" fill="#444444">6. Updates artifact</text>
<text text-anchor="start" x="1542" y="-971.8" font-family="Arial" font-size="24.00" fill="#444444">status=stored, hash, byte</text>
<text text-anchor="start" x="1574" y="-947.8" font-family="Arial" font-size="24.00" fill="#444444">size, and task state</text>
<text text-anchor="start" x="1644.5" y="-927.8" font-family="Arial" font-size="19.00" fill="#444444">[sqlite3]</text>
</g>
<!-- 29 -->
<g id="29" class="node">
<title>29</title>
<path fill="#2f95c8" stroke="#20688c" d="M2264,-1360.78C2264,-1381.66 2173.46,-1398.63 2062,-1398.63 1950.54,-1398.63 1860,-1381.66 1860,-1360.78 1860,-1360.78 1860,-1020.22 1860,-1020.22 1860,-999.34 1950.54,-982.37 2062,-982.37 2173.46,-982.37 2264,-999.34 2264,-1020.22 2264,-1020.22 2264,-1360.78 2264,-1360.78"/>
<path fill="none" stroke="#20688c" d="M2264,-1360.78C2264,-1339.9 2173.46,-1322.94 2062,-1322.94 1950.54,-1322.94 1860,-1339.9 1860,-1360.78"/>
<text text-anchor="start" x="1923" y="-1293.8" font-family="Arial" font-size="34.00" fill="#ffffff">Media Blob Cache</text>
<text text-anchor="start" x="1944.5" y="-1271.8" font-family="Arial" font-size="19.00" fill="#ffffff">[Container: WSL filesystem]</text>
<text text-anchor="start" x="1928.5" y="-1234.8" font-family="Arial" font-size="24.00" fill="#ffffff">Bounded and disposable</text>
<text text-anchor="start" x="1917.5" y="-1210.8" font-family="Arial" font-size="24.00" fill="#ffffff">filesystem cache for stored</text>
<text text-anchor="start" x="1906.5" y="-1186.8" font-family="Arial" font-size="24.00" fill="#ffffff">image/video/audio blobs with</text>
<text text-anchor="start" x="1894.5" y="-1162.8" font-family="Arial" font-size="24.00" fill="#ffffff">purge/rehydrate semantics that</text>
<text text-anchor="start" x="1905.5" y="-1138.8" font-family="Arial" font-size="24.00" fill="#ffffff">preserve media refs, hashes,</text>
<text text-anchor="start" x="1889" y="-1114.8" font-family="Arial" font-size="24.00" fill="#ffffff">status reasons, and provenance</text>
<text text-anchor="start" x="1925.5" y="-1090.8" font-family="Arial" font-size="24.00" fill="#ffffff">when bytes are absent or</text>
<text text-anchor="start" x="2020.5" y="-1066.8" font-family="Arial" font-size="24.00" fill="#ffffff">purged.</text>
</g>
<!-- 14&#45;&gt;29 -->
<g id="45" class="edge">
<title>14&#45;&gt;29</title>
<path fill="none" stroke="#444444" stroke-dasharray="5,2" d="M1496.21,-1091.75C1607.71,-1111.25 1740.69,-1134.5 1849.6,-1153.54"/>
<polygon fill="#444444" stroke="#444444" points="1849.28,-1157.03 1859.73,-1155.31 1850.48,-1150.14 1849.28,-1157.03"/>
<polygon fill="white" stroke="transparent" points="1532,-1145.5 1532,-1220.5 1824,-1220.5 1824,-1145.5 1532,-1145.5"/>
<text text-anchor="start" x="1536" y="-1197.8" font-family="Arial" font-size="24.00" fill="#444444">5. Writes blob if MIME and</text>
<text text-anchor="start" x="1581.5" y="-1173.8" font-family="Arial" font-size="24.00" fill="#444444">cache gates allow</text>
<text text-anchor="start" x="1626.5" y="-1153.8" font-family="Arial" font-size="19.00" fill="#444444">[Filesystem]</text>
</g>
<!-- 5 -->
<g id="5" class="node">
<title>5</title>
<polygon fill="#438dd5" stroke="#2e6295" points="467,-756 33,-756 33,-477 467,-477 467,-756"/>
<text text-anchor="start" x="70" y="-707.8" font-family="Arial" font-size="34.00" fill="#ffffff">Chrome MV3 Extension</text>
<text text-anchor="start" x="62" y="-685.8" font-family="Arial" font-size="19.00" fill="#ffffff">[Container: JavaScript, Chrome Manifest V3]</text>
<text text-anchor="start" x="107" y="-648.8" font-family="Arial" font-size="24.00" fill="#ffffff">Captures visible page text,</text>
<text text-anchor="start" x="132.5" y="-624.8" font-family="Arial" font-size="24.00" fill="#ffffff">media references, tab</text>
<text text-anchor="start" x="141" y="-600.8" font-family="Arial" font-size="24.00" fill="#ffffff">lifecycle events, and</text>
<text text-anchor="start" x="84" y="-576.8" font-family="Arial" font-size="24.00" fill="#ffffff">browser&#45;side media bytes from</text>
<text text-anchor="start" x="79" y="-552.8" font-family="Arial" font-size="24.00" fill="#ffffff">Windows Chrome; queues work</text>
<text text-anchor="start" x="91" y="-528.8" font-family="Arial" font-size="24.00" fill="#ffffff">durably and posts to the WSL</text>
<text text-anchor="start" x="202.5" y="-504.8" font-family="Arial" font-size="24.00" fill="#ffffff">daemon.</text>
</g>
<!-- 5&#45;&gt;13 -->
<g id="37" class="edge">
<title>5&#45;&gt;13</title>
<path fill="none" stroke="#444444" stroke-dasharray="5,2" d="M467.22,-559.76C479.28,-557.71 491.26,-555.92 503,-554.5 721.4,-528.03 780.02,-524.74 998,-554.5 1008.08,-555.88 1018.31,-557.53 1028.61,-559.41"/>
<polygon fill="#444444" stroke="#444444" points="1028.02,-562.86 1038.5,-561.28 1029.32,-555.98 1028.02,-562.86"/>
<polygon fill="white" stroke="transparent" points="595,-554.5 595,-605.5 906,-605.5 906,-554.5 595,-554.5"/>
<text text-anchor="start" x="617" y="-582.8" font-family="Arial" font-size="24.00" fill="#444444">1. Reads due media task</text>
<text text-anchor="start" x="599.5" y="-562.8" font-family="Arial" font-size="19.00" fill="#444444">[chrome.storage.local + IndexedDB]</text>
</g>
<!-- 5&#45;&gt;13 -->
<g id="37" class="edge">
<title>5&#45;&gt;13</title>
<path fill="none" stroke="#444444" stroke-dasharray="5,2" d="M467.17,-619.07C479.29,-619.22 491.3,-619.36 503,-619.5 678.97,-621.59 877.82,-623.94 1028.12,-625.72"/>
<polygon fill="#444444" stroke="#444444" points="1028.36,-629.22 1038.4,-625.84 1028.44,-622.22 1028.36,-629.22"/>
<polygon fill="white" stroke="transparent" points="595,-624.5 595,-699.5 906,-699.5 906,-624.5 595,-624.5"/>
<text text-anchor="start" x="625" y="-676.8" font-family="Arial" font-size="24.00" fill="#444444">3. Persists fetched blob</text>
<text text-anchor="start" x="634.5" y="-652.8" font-family="Arial" font-size="24.00" fill="#444444">until upload succeeds</text>
<text text-anchor="start" x="599.5" y="-632.8" font-family="Arial" font-size="19.00" fill="#444444">[chrome.storage.local + IndexedDB]</text>
</g>
<!-- 5&#45;&gt;14 -->
<g id="38" class="edge">
<title>5&#45;&gt;14</title>
<path fill="none" stroke="#444444" stroke-dasharray="5,2" d="M467.07,-709.28C630.68,-779.54 855.36,-876.02 1024.46,-948.64"/>
<polygon fill="#444444" stroke="#444444" points="1023.16,-951.89 1033.73,-952.62 1025.92,-945.46 1023.16,-951.89"/>
<polygon fill="white" stroke="transparent" points="503,-934.5 503,-1009.5 998,-1009.5 998,-934.5 503,-934.5"/>
<text text-anchor="start" x="646" y="-986.8" font-family="Arial" font-size="24.00" fill="#444444">4. PUTs raw blob to</text>
<text text-anchor="start" x="620.5" y="-962.8" font-family="Arial" font-size="24.00" fill="#444444">/media&#45;artifacts/{id}/blob</text>
<text text-anchor="start" x="507.5" y="-942.8" font-family="Arial" font-size="19.00" fill="#444444">[Bearer HTTP/JSON; raw HTTP PUT over 127.0.0.1:8765]</text>
</g>
<!-- 3 -->
<g id="3" class="node">
<title>3</title>
<polygon fill="#999999" stroke="#6b6b6b" points="1466.5,-321 1063.5,-321 1063.5,-56 1466.5,-56 1466.5,-321"/>
<text text-anchor="start" x="1103.5" y="-272.8" font-family="Arial" font-size="34.00" fill="#ffffff">Web Sites and Media</text>
<text text-anchor="start" x="1211" y="-238.8" font-family="Arial" font-size="34.00" fill="#ffffff">Origins</text>
<text text-anchor="start" x="1188" y="-216.8" font-family="Arial" font-size="19.00" fill="#ffffff">[Software System]</text>
<text text-anchor="start" x="1155" y="-179.8" font-family="Arial" font-size="24.00" fill="#ffffff">External web pages,</text>
<text text-anchor="start" x="1102.5" y="-155.8" font-family="Arial" font-size="24.00" fill="#ffffff">image/video URLs, and media</text>
<text text-anchor="start" x="1092.5" y="-131.8" font-family="Arial" font-size="24.00" fill="#ffffff">CDNs that Chrome loads or that</text>
<text text-anchor="start" x="1102.5" y="-107.8" font-family="Arial" font-size="24.00" fill="#ffffff">sidecars fetch as page&#45;related</text>
<text text-anchor="start" x="1228.5" y="-83.8" font-family="Arial" font-size="24.00" fill="#ffffff">media.</text>
</g>
<!-- 5&#45;&gt;3 -->
<g id="36" class="edge">
<title>5&#45;&gt;3</title>
<path fill="none" stroke="#444444" stroke-dasharray="5,2" d="M437.15,-476.87C458.81,-463.32 481.02,-450.54 503,-439.5 680.63,-350.28 897.04,-282.46 1053.61,-239.95"/>
<polygon fill="#444444" stroke="#444444" points="1054.62,-243.3 1063.36,-237.32 1052.8,-236.55 1054.62,-243.3"/>
<polygon fill="white" stroke="transparent" points="598,-439.5 598,-514.5 903,-514.5 903,-439.5 598,-439.5"/>
<text text-anchor="start" x="602.5" y="-491.8" font-family="Arial" font-size="24.00" fill="#444444">2. Fetches source URL with</text>
<text text-anchor="start" x="617" y="-467.8" font-family="Arial" font-size="24.00" fill="#444444">Chrome cookie envelope</text>
<text text-anchor="start" x="609.5" y="-447.8" font-family="Arial" font-size="19.00" fill="#444444">[DOM; fetch(credentials: include)]</text>
</g>
</g>
</svg>
