<?xml version="1.0" encoding="UTF-8" standalone="no"?>
<!DOCTYPE svg PUBLIC "-//W3C//DTD SVG 1.1//EN"
 "http://www.w3.org/Graphics/SVG/1.1/DTD/svg11.dtd">
<!-- Generated by graphviz version 2.43.0 (0)
 -->
<!-- Title: %3 Pages: 1 -->
<svg width="1966pt" height="1349pt"
 viewBox="0.00 0.00 1966.00 1349.00" xmlns="http://www.w3.org/2000/svg" xmlns:xlink="http://www.w3.org/1999/xlink">
<g id="graph0" class="graph" transform="scale(1 1) rotate(0) translate(4 1345)">
<title>%3</title>
<polygon fill="white" stroke="transparent" points="-4,4 -4,-1345 1962,-1345 1962,4 -4,4"/>
<text text-anchor="start" x="394" y="-11.8" font-family="Arial" font-size="34.00">Component View: Browser Memory Daemon &#45; WSL Loopback HTTP Daemon</text>
<g id="clust1" class="cluster">
<title>cluster_4</title>
<polygon fill="none" stroke="#444444" points="8,-64 8,-1333 1950,-1333 1950,-64 8,-64"/>
<text text-anchor="start" x="838" y="-92.8" font-family="Arial" font-size="24.00" fill="#444444">Browser Memory Daemon</text>
<text text-anchor="start" x="902" y="-72.8" font-family="Arial" font-size="19.00" fill="#444444">[Software System]</text>
</g>
<g id="clust2" class="cluster">
<title>cluster_14</title>
<polygon fill="none" stroke="#444444" points="33,-610 33,-967 1202,-967 1202,-610 33,-610"/>
<text text-anchor="start" x="452" y="-638.8" font-family="Arial" font-size="24.00" fill="#444444">WSL Loopback HTTP Daemon</text>
<text text-anchor="start" x="415.5" y="-618.8" font-family="Arial" font-size="19.00" fill="#444444">[Container: Python 3.11, ThreadingHTTPServer]</text>
</g>
<!-- 15 -->
<g id="15" class="node">
<title>15</title>
<polygon fill="#85bbf0" stroke="#5d82a8" points="453,-941.5 58,-941.5 58,-710.5 453,-710.5 453,-941.5"/>
<text text-anchor="start" x="87" y="-893.3" font-family="Arial" font-size="34.00" fill="#000000">HTTP Request Router</text>
<text text-anchor="start" x="119" y="-871.3" font-family="Arial" font-size="19.00" fill="#000000">[Component: Python http.server]</text>
<text text-anchor="start" x="90" y="-834.3" font-family="Arial" font-size="24.00" fill="#000000">Routes loopback API requests,</text>
<text text-anchor="start" x="112.5" y="-810.3" font-family="Arial" font-size="24.00" fill="#000000">serves UI assets, enforces</text>
<text text-anchor="start" x="91.5" y="-786.3" font-family="Arial" font-size="24.00" fill="#000000">bearer auth for memory/admin</text>
<text text-anchor="start" x="106" y="-762.3" font-family="Arial" font-size="24.00" fill="#000000">APIs, and applies CORS for</text>
<text text-anchor="start" x="172" y="-738.3" font-family="Arial" font-size="24.00" fill="#000000">allowed origins.</text>
</g>
<!-- 22 -->
<g id="22" class="node">
<title>22</title>
<polygon fill="#85bbf0" stroke="#5d82a8" points="1177,-941.5 798,-941.5 798,-710.5 1177,-710.5 1177,-941.5"/>
<text text-anchor="start" x="873" y="-893.3" font-family="Arial" font-size="34.00" fill="#000000">Forget Pipeline</text>
<text text-anchor="start" x="859.5" y="-871.3" font-family="Arial" font-size="19.00" fill="#000000">[Component: Python + sqlite3]</text>
<text text-anchor="start" x="832.5" y="-834.3" font-family="Arial" font-size="24.00" fill="#000000">Deletes URL/domain&#45;scoped</text>
<text text-anchor="start" x="841.5" y="-810.3" font-family="Arial" font-size="24.00" fill="#000000">memory rows, FTS entries,</text>
<text text-anchor="start" x="827" y="-786.3" font-family="Arial" font-size="24.00" fill="#000000">clean&#45;text blobs, media blobs,</text>
<text text-anchor="start" x="844.5" y="-762.3" font-family="Arial" font-size="24.00" fill="#000000">lifecycle rows, and records</text>
<text text-anchor="start" x="895.5" y="-738.3" font-family="Arial" font-size="24.00" fill="#000000">deletion receipts.</text>
</g>
<!-- 15&#45;&gt;22 -->
<g id="67" class="edge">
<title>15&#45;&gt;22</title>
<path fill="none" stroke="#444444" stroke-dasharray="5,2" d="M453.09,-826C556.69,-826 683.48,-826 787.44,-826"/>
<polygon fill="#444444" stroke="#444444" points="787.75,-829.5 797.75,-826 787.75,-822.5 787.75,-829.5"/>
<text text-anchor="start" x="489" y="-832.8" font-family="Arial" font-size="24.00" fill="#444444">Routes forget requests to</text>
</g>
<!-- 27 -->
<g id="27" class="node">
<title>27</title>
<path fill="#2f95c8" stroke="#20688c" d="M1900.5,-585.72C1900.5,-608.98 1821.61,-627.88 1724.5,-627.88 1627.39,-627.88 1548.5,-608.98 1548.5,-585.72 1548.5,-585.72 1548.5,-206.28 1548.5,-206.28 1548.5,-183.02 1627.39,-164.12 1724.5,-164.12 1821.61,-164.12 1900.5,-183.02 1900.5,-206.28 1900.5,-206.28 1900.5,-585.72 1900.5,-585.72"/>
<path fill="none" stroke="#20688c" d="M1900.5,-585.72C1900.5,-562.45 1821.61,-543.56 1724.5,-543.56 1627.39,-543.56 1548.5,-562.45 1548.5,-585.72"/>
<text text-anchor="start" x="1611.5" y="-516.3" font-family="Arial" font-size="34.00" fill="#ffffff">SQLite + FTS5</text>
<text text-anchor="start" x="1651.5" y="-482.3" font-family="Arial" font-size="34.00" fill="#ffffff">Database</text>
<text text-anchor="start" x="1598.5" y="-460.3" font-family="Arial" font-size="19.00" fill="#ffffff">[Container: SQLite with FTS5]</text>
<text text-anchor="start" x="1605.5" y="-423.3" font-family="Arial" font-size="24.00" fill="#ffffff">Durable relational and</text>
<text text-anchor="start" x="1588" y="-399.3" font-family="Arial" font-size="24.00" fill="#ffffff">full&#45;text store for sources,</text>
<text text-anchor="start" x="1604" y="-375.3" font-family="Arial" font-size="24.00" fill="#ffffff">documents, visits, visit</text>
<text text-anchor="start" x="1578.5" y="-351.3" font-family="Arial" font-size="24.00" fill="#ffffff">events, snapshots, chunks,</text>
<text text-anchor="start" x="1577.5" y="-327.3" font-family="Arial" font-size="24.00" fill="#ffffff">chunks_fts, media artifacts,</text>
<text text-anchor="start" x="1592.5" y="-303.3" font-family="Arial" font-size="24.00" fill="#ffffff">media fetch tasks, policy</text>
<text text-anchor="start" x="1599" y="-279.3" font-family="Arial" font-size="24.00" fill="#ffffff">rules, audit events, and</text>
<text text-anchor="start" x="1632.5" y="-255.3" font-family="Arial" font-size="24.00" fill="#ffffff">deletion receipts.</text>
</g>
<!-- 22&#45;&gt;27 -->
<g id="79" class="edge">
<title>22&#45;&gt;27</title>
<path fill="none" stroke="#444444" stroke-dasharray="5,2" d="M1177.3,-715.54C1288.6,-650.43 1428.79,-568.41 1539.28,-503.77"/>
<polygon fill="#444444" stroke="#444444" points="1541.33,-506.63 1548.19,-498.56 1537.79,-500.59 1541.33,-506.63"/>
<text text-anchor="start" x="1213" y="-734.8" font-family="Arial" font-size="24.00" fill="#444444">Deletes rows and records</text>
<text text-anchor="start" x="1295" y="-710.8" font-family="Arial" font-size="24.00" fill="#444444">receipts in</text>
<text text-anchor="start" x="1317" y="-690.8" font-family="Arial" font-size="19.00" fill="#444444">[sqlite3]</text>
</g>
<!-- 28 -->
<g id="28" class="node">
<title>28</title>
<path fill="#2f95c8" stroke="#20688c" d="M1925,-928.78C1925,-941.39 1835.13,-951.63 1724.5,-951.63 1613.87,-951.63 1524,-941.39 1524,-928.78 1524,-928.78 1524,-723.22 1524,-723.22 1524,-710.61 1613.87,-700.37 1724.5,-700.37 1835.13,-700.37 1925,-710.61 1925,-723.22 1925,-723.22 1925,-928.78 1925,-928.78"/>
<path fill="none" stroke="#20688c" d="M1925,-928.78C1925,-916.18 1835.13,-905.94 1724.5,-905.94 1613.87,-905.94 1524,-916.18 1524,-928.78"/>
<text text-anchor="start" x="1560" y="-869.3" font-family="Arial" font-size="34.00" fill="#ffffff">Clean Text Blob Store</text>
<text text-anchor="start" x="1607" y="-847.3" font-family="Arial" font-size="19.00" fill="#ffffff">[Container: WSL filesystem]</text>
<text text-anchor="start" x="1566" y="-810.3" font-family="Arial" font-size="24.00" fill="#ffffff">Filesystem store for snapshot</text>
<text text-anchor="start" x="1553" y="-786.3" font-family="Arial" font-size="24.00" fill="#ffffff">text blobs under WSL XDG data</text>
<text text-anchor="start" x="1691" y="-762.3" font-family="Arial" font-size="24.00" fill="#ffffff">paths.</text>
</g>
<!-- 22&#45;&gt;28 -->
<g id="80" class="edge">
<title>22&#45;&gt;28</title>
<path fill="none" stroke="#444444" stroke-dasharray="5,2" d="M1177.3,-826C1280.11,-826 1407.57,-826 1513.5,-826"/>
<polygon fill="#444444" stroke="#444444" points="1513.69,-829.5 1523.69,-826 1513.69,-822.5 1513.69,-829.5"/>
<text text-anchor="start" x="1226.5" y="-850.8" font-family="Arial" font-size="24.00" fill="#444444">Deletes text blobs from</text>
<text text-anchor="start" x="1299" y="-830.8" font-family="Arial" font-size="19.00" fill="#444444">[Filesystem]</text>
</g>
<!-- 29 -->
<g id="29" class="node">
<title>29</title>
<path fill="#2f95c8" stroke="#20688c" d="M1924.5,-1282.28C1924.5,-1296.54 1834.86,-1308.13 1724.5,-1308.13 1614.14,-1308.13 1524.5,-1296.54 1524.5,-1282.28 1524.5,-1282.28 1524.5,-1049.72 1524.5,-1049.72 1524.5,-1035.46 1614.14,-1023.87 1724.5,-1023.87 1834.86,-1023.87 1924.5,-1035.46 1924.5,-1049.72 1924.5,-1049.72 1924.5,-1282.28 1924.5,-1282.28"/>
<path fill="none" stroke="#20688c" d="M1924.5,-1282.28C1924.5,-1268.03 1834.86,-1256.44 1724.5,-1256.44 1614.14,-1256.44 1524.5,-1268.03 1524.5,-1282.28"/>
<text text-anchor="start" x="1585.5" y="-1221.3" font-family="Arial" font-size="34.00" fill="#ffffff">Media Blob Cache</text>
<text text-anchor="start" x="1607" y="-1199.3" font-family="Arial" font-size="19.00" fill="#ffffff">[Container: WSL filesystem]</text>
<text text-anchor="start" x="1591" y="-1162.3" font-family="Arial" font-size="24.00" fill="#ffffff">Bounded and disposable</text>
<text text-anchor="start" x="1580" y="-1138.3" font-family="Arial" font-size="24.00" fill="#ffffff">filesystem cache for stored</text>
<text text-anchor="start" x="1569" y="-1114.3" font-family="Arial" font-size="24.00" fill="#ffffff">image/video/audio blobs with</text>
<text text-anchor="start" x="1553.5" y="-1090.3" font-family="Arial" font-size="24.00" fill="#ffffff">purge and rehydrate semantics.</text>
</g>
<!-- 22&#45;&gt;29 -->
<g id="81" class="edge">
<title>22&#45;&gt;29</title>
<path fill="none" stroke="#444444" stroke-dasharray="5,2" d="M1177.3,-913.34C1280.63,-961.13 1408.86,-1020.45 1515.1,-1069.6"/>
<polygon fill="#444444" stroke="#444444" points="1513.79,-1072.85 1524.34,-1073.87 1516.73,-1066.49 1513.79,-1072.85"/>
<text text-anchor="start" x="1213" y="-1080.8" font-family="Arial" font-size="24.00" fill="#444444">Deletes media blobs from</text>
<text text-anchor="start" x="1299" y="-1060.8" font-family="Arial" font-size="19.00" fill="#444444">[Filesystem]</text>
</g>
</g>
</svg>
