<?xml version="1.0" encoding="UTF-8" standalone="no"?>
<!DOCTYPE svg PUBLIC "-//W3C//DTD SVG 1.1//EN"
 "http://www.w3.org/Graphics/SVG/1.1/DTD/svg11.dtd">
<!-- Generated by graphviz version 2.43.0 (0)
 -->
<!-- Title: %3 Pages: 1 -->
<svg width="1211pt" height="1308pt"
 viewBox="0.00 0.00 1210.50 1307.50" xmlns="http://www.w3.org/2000/svg" xmlns:xlink="http://www.w3.org/1999/xlink">
<g id="graph0" class="graph" transform="scale(1 1) rotate(0) translate(4 1303.5)">
<title>%3</title>
<polygon fill="white" stroke="transparent" points="-4,4 -4,-1303.5 1206.5,-1303.5 1206.5,4 -4,4"/>
<text text-anchor="start" x="285.75" y="-11.8" font-family="Arial" font-size="34.00">Dynamic View: Browser Memory Daemon</text>
<g id="clust1" class="cluster">
<title>cluster_4</title>
<polygon fill="none" stroke="#444444" points="8,-346.5 8,-1291.5 1194.5,-1291.5 1194.5,-346.5 8,-346.5"/>
<text text-anchor="start" x="460.25" y="-375.3" font-family="Arial" font-size="24.00" fill="#444444">Browser Memory Daemon</text>
<text text-anchor="start" x="524.25" y="-355.3" font-family="Arial" font-size="19.00" fill="#444444">[Software System]</text>
</g>
<!-- 24 -->
<g id="24" class="node">
<title>24</title>
<polygon fill="#438dd5" stroke="#2e6295" points="387,-798 33,-798 33,-495 387,-495 387,-798"/>
<text text-anchor="start" x="63" y="-749.8" font-family="Arial" font-size="34.00" fill="#ffffff">WSL Media Worker</text>
<text text-anchor="start" x="70" y="-727.8" font-family="Arial" font-size="19.00" fill="#ffffff">[Container: Python 3.11 CLI loop]</text>
<text text-anchor="start" x="62.5" y="-690.8" font-family="Arial" font-size="24.00" fill="#ffffff">Long&#45;running systemd user</text>
<text text-anchor="start" x="111.5" y="-666.8" font-family="Arial" font-size="24.00" fill="#ffffff">worker that leases</text>
<text text-anchor="start" x="64" y="-642.8" font-family="Arial" font-size="24.00" fill="#ffffff">daemon&#45;public media fetch</text>
<text text-anchor="start" x="101" y="-618.8" font-family="Arial" font-size="24.00" fill="#ffffff">tasks, fetches public</text>
<text text-anchor="start" x="62" y="-594.8" font-family="Arial" font-size="24.00" fill="#ffffff">media/HLS without Chrome</text>
<text text-anchor="start" x="67" y="-570.8" font-family="Arial" font-size="24.00" fill="#ffffff">cookies, classifies terminal</text>
<text text-anchor="start" x="64" y="-546.8" font-family="Arial" font-size="24.00" fill="#ffffff">states, and updates artifact</text>
<text text-anchor="start" x="181" y="-522.8" font-family="Arial" font-size="24.00" fill="#ffffff">rows.</text>
</g>
<!-- 27 -->
<g id="27" class="node">
<title>27</title>
<path fill="#2f95c8" stroke="#20688c" d="M1145.5,-868.22C1145.5,-891.48 1066.61,-910.38 969.5,-910.38 872.39,-910.38 793.5,-891.48 793.5,-868.22 793.5,-868.22 793.5,-488.78 793.5,-488.78 793.5,-465.52 872.39,-446.62 969.5,-446.62 1066.61,-446.62 1145.5,-465.52 1145.5,-488.78 1145.5,-488.78 1145.5,-868.22 1145.5,-868.22"/>
<path fill="none" stroke="#20688c" d="M1145.5,-868.22C1145.5,-844.95 1066.61,-826.06 969.5,-826.06 872.39,-826.06 793.5,-844.95 793.5,-868.22"/>
<text text-anchor="start" x="856.5" y="-798.8" font-family="Arial" font-size="34.00" fill="#ffffff">SQLite + FTS5</text>
<text text-anchor="start" x="896.5" y="-764.8" font-family="Arial" font-size="34.00" fill="#ffffff">Database</text>
<text text-anchor="start" x="843.5" y="-742.8" font-family="Arial" font-size="19.00" fill="#ffffff">[Container: SQLite with FTS5]</text>
<text text-anchor="start" x="850.5" y="-705.8" font-family="Arial" font-size="24.00" fill="#ffffff">Durable relational and</text>
<text text-anchor="start" x="833" y="-681.8" font-family="Arial" font-size="24.00" fill="#ffffff">full&#45;text store for sources,</text>
<text text-anchor="start" x="849" y="-657.8" font-family="Arial" font-size="24.00" fill="#ffffff">documents, visits, visit</text>
<text text-anchor="start" x="823.5" y="-633.8" font-family="Arial" font-size="24.00" fill="#ffffff">events, snapshots, chunks,</text>
<text text-anchor="start" x="822.5" y="-609.8" font-family="Arial" font-size="24.00" fill="#ffffff">chunks_fts, media artifacts,</text>
<text text-anchor="start" x="837.5" y="-585.8" font-family="Arial" font-size="24.00" fill="#ffffff">media fetch tasks, policy</text>
<text text-anchor="start" x="844" y="-561.8" font-family="Arial" font-size="24.00" fill="#ffffff">rules, audit events, and</text>
<text text-anchor="start" x="877.5" y="-537.8" font-family="Arial" font-size="24.00" fill="#ffffff">deletion receipts.</text>
</g>
<!-- 24&#45;&gt;27 -->
<g id="46" class="edge">
<title>24&#45;&gt;27</title>
<path fill="none" stroke="#444444" stroke-dasharray="5,2" d="M387.02,-577.41C399.07,-574.28 411.14,-571.59 423,-569.5 558.25,-545.7 597.86,-540.07 732,-569.5 749.14,-573.26 766.52,-578.38 783.67,-584.37"/>
<polygon fill="#444444" stroke="#444444" points="782.58,-587.7 793.17,-587.79 784.94,-581.11 782.58,-587.7"/>
<polygon fill="white" stroke="transparent" points="472.5,-569.5 472.5,-668.5 682.5,-668.5 682.5,-569.5 472.5,-569.5"/>
<text text-anchor="start" x="503.5" y="-645.8" font-family="Arial" font-size="24.00" fill="#444444">1. Claims due</text>
<text text-anchor="start" x="497.5" y="-621.8" font-family="Arial" font-size="24.00" fill="#444444">daemon&#45;public</text>
<text text-anchor="start" x="476.5" y="-597.8" font-family="Arial" font-size="24.00" fill="#444444">media_fetch_tasks</text>
<text text-anchor="start" x="544" y="-577.8" font-family="Arial" font-size="19.00" fill="#444444">[sqlite3]</text>
</g>
<!-- 24&#45;&gt;27 -->
<g id="46" class="edge">
<title>24&#45;&gt;27</title>
<path fill="none" stroke="#444444" stroke-dasharray="5,2" d="M387.13,-678.72C399.24,-680.22 411.28,-681.51 423,-682.5 542.65,-692.59 677.58,-691.7 783.32,-688.24"/>
<polygon fill="#444444" stroke="#444444" points="783.58,-691.73 793.46,-687.89 783.34,-684.74 783.58,-691.73"/>
<polygon fill="white" stroke="transparent" points="436,-690.5 436,-789.5 719,-789.5 719,-690.5 436,-690.5"/>
<text text-anchor="start" x="440.5" y="-766.8" font-family="Arial" font-size="24.00" fill="#444444">4. Marks task succeeded,</text>
<text text-anchor="start" x="485.5" y="-742.8" font-family="Arial" font-size="24.00" fill="#444444">retrying, skipped,</text>
<text text-anchor="start" x="488" y="-718.8" font-family="Arial" font-size="24.00" fill="#444444">expired, or failed</text>
<text text-anchor="start" x="544.5" y="-698.8" font-family="Arial" font-size="19.00" fill="#444444">[sqlite3]</text>
</g>
<!-- 29 -->
<g id="29" class="node">
<title>29</title>
<path fill="#2f95c8" stroke="#20688c" d="M1169.5,-1240.78C1169.5,-1255.04 1079.86,-1266.63 969.5,-1266.63 859.14,-1266.63 769.5,-1255.04 769.5,-1240.78 769.5,-1240.78 769.5,-1008.22 769.5,-1008.22 769.5,-993.96 859.14,-982.37 969.5,-982.37 1079.86,-982.37 1169.5,-993.96 1169.5,-1008.22 1169.5,-1008.22 1169.5,-1240.78 1169.5,-1240.78"/>
<path fill="none" stroke="#20688c" d="M1169.5,-1240.78C1169.5,-1226.53 1079.86,-1214.94 969.5,-1214.94 859.14,-1214.94 769.5,-1226.53 769.5,-1240.78"/>
<text text-anchor="start" x="830.5" y="-1179.8" font-family="Arial" font-size="34.00" fill="#ffffff">Media Blob Cache</text>
<text text-anchor="start" x="852" y="-1157.8" font-family="Arial" font-size="19.00" fill="#ffffff">[Container: WSL filesystem]</text>
<text text-anchor="start" x="836" y="-1120.8" font-family="Arial" font-size="24.00" fill="#ffffff">Bounded and disposable</text>
<text text-anchor="start" x="825" y="-1096.8" font-family="Arial" font-size="24.00" fill="#ffffff">filesystem cache for stored</text>
<text text-anchor="start" x="814" y="-1072.8" font-family="Arial" font-size="24.00" fill="#ffffff">image/video/audio blobs with</text>
<text text-anchor="start" x="798.5" y="-1048.8" font-family="Arial" font-size="24.00" fill="#ffffff">purge and rehydrate semantics.</text>
</g>
<!-- 24&#45;&gt;29 -->
<g id="48" class="edge">
<title>24&#45;&gt;29</title>
<path fill="none" stroke="#444444" stroke-dasharray="5,2" d="M387.09,-782.78C399.13,-791.31 411.18,-799.62 423,-807.5 531.49,-879.82 657.02,-953.42 760.29,-1011.47"/>
<polygon fill="#444444" stroke="#444444" points="758.83,-1014.67 769.27,-1016.51 762.26,-1008.56 758.83,-1014.67"/>
<polygon fill="white" stroke="transparent" points="423,-993.5 423,-1092.5 732,-1092.5 732,-993.5 423,-993.5"/>
<text text-anchor="start" x="472.5" y="-1069.8" font-family="Arial" font-size="24.00" fill="#444444">3. Writes fetched or</text>
<text text-anchor="start" x="427.5" y="-1045.8" font-family="Arial" font-size="24.00" fill="#444444">assembled blob when gates</text>
<text text-anchor="start" x="550.5" y="-1021.8" font-family="Arial" font-size="24.00" fill="#444444">allow</text>
<text text-anchor="start" x="526.5" y="-1001.8" font-family="Arial" font-size="19.00" fill="#444444">[Filesystem]</text>
</g>
<!-- 3 -->
<g id="3" class="node">
<title>3</title>
<polygon fill="#999999" stroke="#6b6b6b" points="1171,-321 768,-321 768,-56 1171,-56 1171,-321"/>
<text text-anchor="start" x="808" y="-272.8" font-family="Arial" font-size="34.00" fill="#ffffff">Web Sites and Media</text>
<text text-anchor="start" x="915.5" y="-238.8" font-family="Arial" font-size="34.00" fill="#ffffff">Origins</text>
<text text-anchor="start" x="892.5" y="-216.8" font-family="Arial" font-size="19.00" fill="#ffffff">[Software System]</text>
<text text-anchor="start" x="859.5" y="-179.8" font-family="Arial" font-size="24.00" fill="#ffffff">External web pages,</text>
<text text-anchor="start" x="807" y="-155.8" font-family="Arial" font-size="24.00" fill="#ffffff">image/video URLs, and media</text>
<text text-anchor="start" x="797" y="-131.8" font-family="Arial" font-size="24.00" fill="#ffffff">CDNs that Chrome loads or that</text>
<text text-anchor="start" x="807" y="-107.8" font-family="Arial" font-size="24.00" fill="#ffffff">sidecars fetch as page&#45;related</text>
<text text-anchor="start" x="933" y="-83.8" font-family="Arial" font-size="24.00" fill="#ffffff">media.</text>
</g>
<!-- 24&#45;&gt;3 -->
<g id="47" class="edge">
<title>24&#45;&gt;3</title>
<path fill="none" stroke="#444444" stroke-dasharray="5,2" d="M345.98,-494.83C370.28,-471.98 396.39,-449.93 423,-431.5 525.8,-360.3 652.81,-302.25 758.41,-260.77"/>
<polygon fill="#444444" stroke="#444444" points="759.87,-263.96 767.91,-257.06 757.32,-257.44 759.87,-263.96"/>
<polygon fill="white" stroke="transparent" points="423.5,-431.5 423.5,-530.5 731.5,-530.5 731.5,-431.5 423.5,-431.5"/>
<text text-anchor="start" x="435" y="-507.8" font-family="Arial" font-size="24.00" fill="#444444">2. Fetches public media or</text>
<text text-anchor="start" x="427.5" y="-483.8" font-family="Arial" font-size="24.00" fill="#444444">HLS assets without Chrome</text>
<text text-anchor="start" x="536.5" y="-459.8" font-family="Arial" font-size="24.00" fill="#444444">cookies</text>
<text text-anchor="start" x="485.5" y="-439.8" font-family="Arial" font-size="19.00" fill="#444444">[HTTP(S), data URLs]</text>
</g>
</g>
</svg>
