<?xml version="1.0" encoding="UTF-8" standalone="no"?>
<!DOCTYPE svg PUBLIC "-//W3C//DTD SVG 1.1//EN"
 "http://www.w3.org/Graphics/SVG/1.1/DTD/svg11.dtd">
<!-- Generated by graphviz version 2.43.0 (0)
 -->
<!-- Title: %3 Pages: 1 -->
<svg width="2172pt" height="1349pt"
 viewBox="0.00 0.00 2172.00 1349.00" xmlns="http://www.w3.org/2000/svg" xmlns:xlink="http://www.w3.org/1999/xlink">
<g id="graph0" class="graph" transform="scale(1 1) rotate(0) translate(4 1345)">
<title>%3</title>
<polygon fill="white" stroke="transparent" points="-4,4 -4,-1345 2168,-1345 2168,4 -4,4"/>
<text text-anchor="start" x="759.5" y="-11.8" font-family="Arial" font-size="34.00">Container View: Browser Memory Daemon</text>
<g id="clust1" class="cluster">
<title>cluster_4</title>
<polygon fill="none" stroke="#444444" points="8,-64 8,-1333 2156,-1333 2156,-64 8,-64"/>
<text text-anchor="start" x="941" y="-92.8" font-family="Arial" font-size="24.00" fill="#444444">Browser Memory Daemon</text>
<text text-anchor="start" x="1005" y="-72.8" font-family="Arial" font-size="19.00" fill="#444444">[Software System]</text>
</g>
<!-- 14 -->
<g id="14" class="node">
<title>14</title>
<polygon fill="#438dd5" stroke="#2e6295" points="1356,-994.5 894,-994.5 894,-657.5 1356,-657.5 1356,-994.5"/>
<text text-anchor="start" x="960.5" y="-946.3" font-family="Arial" font-size="34.00" fill="#ffffff">WSL Loopback HTTP</text>
<text text-anchor="start" x="1060.5" y="-912.3" font-family="Arial" font-size="34.00" fill="#ffffff">Daemon</text>
<text text-anchor="start" x="923" y="-890.3" font-family="Arial" font-size="19.00" fill="#ffffff">[Container: Python 3.11, ThreadingHTTPServer]</text>
<text text-anchor="start" x="964" y="-853.3" font-family="Arial" font-size="24.00" fill="#ffffff">Authenticated loopback HTTP</text>
<text text-anchor="start" x="989" y="-829.3" font-family="Arial" font-size="24.00" fill="#ffffff">API that handles capture,</text>
<text text-anchor="start" x="985.5" y="-805.3" font-family="Arial" font-size="24.00" fill="#ffffff">visit events, media artifact</text>
<text text-anchor="start" x="988.5" y="-781.3" font-family="Arial" font-size="24.00" fill="#ffffff">upload/fetch/purge, exact</text>
<text text-anchor="start" x="1085" y="-757.3" font-family="Arial" font-size="24.00" fill="#ffffff">search,</text>
<text text-anchor="start" x="976" y="-733.3" font-family="Arial" font-size="24.00" fill="#ffffff">recent/timeline/detail, policy</text>
<text text-anchor="start" x="994" y="-709.3" font-family="Arial" font-size="24.00" fill="#ffffff">rules, doctor, forget, and</text>
<text text-anchor="start" x="1035.5" y="-685.3" font-family="Arial" font-size="24.00" fill="#ffffff">static UI serving.</text>
</g>
<!-- 27 -->
<g id="27" class="node">
<title>27</title>
<path fill="#2f95c8" stroke="#20688c" d="M2106.5,-585.72C2106.5,-608.98 2027.61,-627.88 1930.5,-627.88 1833.39,-627.88 1754.5,-608.98 1754.5,-585.72 1754.5,-585.72 1754.5,-206.28 1754.5,-206.28 1754.5,-183.02 1833.39,-164.12 1930.5,-164.12 2027.61,-164.12 2106.5,-183.02 2106.5,-206.28 2106.5,-206.28 2106.5,-585.72 2106.5,-585.72"/>
<path fill="none" stroke="#20688c" d="M2106.5,-585.72C2106.5,-562.45 2027.61,-543.56 1930.5,-543.56 1833.39,-543.56 1754.5,-562.45 1754.5,-585.72"/>
<text text-anchor="start" x="1817.5" y="-516.3" font-family="Arial" font-size="34.00" fill="#ffffff">SQLite + FTS5</text>
<text text-anchor="start" x="1857.5" y="-482.3" font-family="Arial" font-size="34.00" fill="#ffffff">Database</text>
<text text-anchor="start" x="1804.5" y="-460.3" font-family="Arial" font-size="19.00" fill="#ffffff">[Container: SQLite with FTS5]</text>
<text text-anchor="start" x="1811.5" y="-423.3" font-family="Arial" font-size="24.00" fill="#ffffff">Durable relational and</text>
<text text-anchor="start" x="1794" y="-399.3" font-family="Arial" font-size="24.00" fill="#ffffff">full&#45;text store for sources,</text>
<text text-anchor="start" x="1810" y="-375.3" font-family="Arial" font-size="24.00" fill="#ffffff">documents, visits, visit</text>
<text text-anchor="start" x="1784.5" y="-351.3" font-family="Arial" font-size="24.00" fill="#ffffff">events, snapshots, chunks,</text>
<text text-anchor="start" x="1783.5" y="-327.3" font-family="Arial" font-size="24.00" fill="#ffffff">chunks_fts, media artifacts,</text>
<text text-anchor="start" x="1798.5" y="-303.3" font-family="Arial" font-size="24.00" fill="#ffffff">media fetch tasks, policy</text>
<text text-anchor="start" x="1805" y="-279.3" font-family="Arial" font-size="24.00" fill="#ffffff">rules, audit events, and</text>
<text text-anchor="start" x="1838.5" y="-255.3" font-family="Arial" font-size="24.00" fill="#ffffff">deletion receipts.</text>
</g>
<!-- 14&#45;&gt;27 -->
<g id="43" class="edge">
<title>14&#45;&gt;27</title>
<path fill="none" stroke="#444444" stroke-dasharray="5,2" d="M1356.25,-702.78C1479.75,-636.69 1629.87,-556.35 1745.5,-494.47"/>
<polygon fill="#444444" stroke="#444444" points="1747.3,-497.48 1754.46,-489.67 1743.99,-491.31 1747.3,-497.48"/>
<text text-anchor="start" x="1392" y="-746.8" font-family="Arial" font-size="24.00" fill="#444444">Reads and writes metadata,</text>
<text text-anchor="start" x="1425" y="-722.8" font-family="Arial" font-size="24.00" fill="#444444">FTS, tasks, audit, and</text>
<text text-anchor="start" x="1487.5" y="-698.8" font-family="Arial" font-size="24.00" fill="#444444">receipts in</text>
<text text-anchor="start" x="1509.5" y="-678.8" font-family="Arial" font-size="19.00" fill="#444444">[sqlite3]</text>
</g>
<!-- 28 -->
<g id="28" class="node">
<title>28</title>
<path fill="#2f95c8" stroke="#20688c" d="M2131,-928.78C2131,-941.39 2041.13,-951.63 1930.5,-951.63 1819.87,-951.63 1730,-941.39 1730,-928.78 1730,-928.78 1730,-723.22 1730,-723.22 1730,-710.61 1819.87,-700.37 1930.5,-700.37 2041.13,-700.37 2131,-710.61 2131,-723.22 2131,-723.22 2131,-928.78 2131,-928.78"/>
<path fill="none" stroke="#20688c" d="M2131,-928.78C2131,-916.18 2041.13,-905.94 1930.5,-905.94 1819.87,-905.94 1730,-916.18 1730,-928.78"/>
<text text-anchor="start" x="1766" y="-869.3" font-family="Arial" font-size="34.00" fill="#ffffff">Clean Text Blob Store</text>
<text text-anchor="start" x="1813" y="-847.3" font-family="Arial" font-size="19.00" fill="#ffffff">[Container: WSL filesystem]</text>
<text text-anchor="start" x="1772" y="-810.3" font-family="Arial" font-size="24.00" fill="#ffffff">Filesystem store for snapshot</text>
<text text-anchor="start" x="1759" y="-786.3" font-family="Arial" font-size="24.00" fill="#ffffff">text blobs under WSL XDG data</text>
<text text-anchor="start" x="1897" y="-762.3" font-family="Arial" font-size="24.00" fill="#ffffff">paths.</text>
</g>
<!-- 14&#45;&gt;28 -->
<g id="44" class="edge">
<title>14&#45;&gt;28</title>
<path fill="none" stroke="#444444" stroke-dasharray="5,2" d="M1356.25,-826C1470.81,-826 1608.28,-826 1719.88,-826"/>
<polygon fill="#444444" stroke="#444444" points="1719.91,-829.5 1729.91,-826 1719.91,-822.5 1719.91,-829.5"/>
<text text-anchor="start" x="1426.5" y="-874.8" font-family="Arial" font-size="24.00" fill="#444444">Reads and writes text</text>
<text text-anchor="start" x="1475" y="-850.8" font-family="Arial" font-size="24.00" fill="#444444">snapshots in</text>
<text text-anchor="start" x="1491.5" y="-830.8" font-family="Arial" font-size="19.00" fill="#444444">[Filesystem]</text>
</g>
<!-- 29 -->
<g id="29" class="node">
<title>29</title>
<path fill="#2f95c8" stroke="#20688c" d="M2130.5,-1282.28C2130.5,-1296.54 2040.86,-1308.13 1930.5,-1308.13 1820.14,-1308.13 1730.5,-1296.54 1730.5,-1282.28 1730.5,-1282.28 1730.5,-1049.72 1730.5,-1049.72 1730.5,-1035.46 1820.14,-1023.87 1930.5,-1023.87 2040.86,-1023.87 2130.5,-1035.46 2130.5,-1049.72 2130.5,-1049.72 2130.5,-1282.28 2130.5,-1282.28"/>
<path fill="none" stroke="#20688c" d="M2130.5,-1282.28C2130.5,-1268.03 2040.86,-1256.44 1930.5,-1256.44 1820.14,-1256.44 1730.5,-1268.03 1730.5,-1282.28"/>
<text text-anchor="start" x="1791.5" y="-1221.3" font-family="Arial" font-size="34.00" fill="#ffffff">Media Blob Cache</text>
<text text-anchor="start" x="1813" y="-1199.3" font-family="Arial" font-size="19.00" fill="#ffffff">[Container: WSL filesystem]</text>
<text text-anchor="start" x="1797" y="-1162.3" font-family="Arial" font-size="24.00" fill="#ffffff">Bounded and disposable</text>
<text text-anchor="start" x="1786" y="-1138.3" font-family="Arial" font-size="24.00" fill="#ffffff">filesystem cache for stored</text>
<text text-anchor="start" x="1775" y="-1114.3" font-family="Arial" font-size="24.00" fill="#ffffff">image/video/audio blobs with</text>
<text text-anchor="start" x="1759.5" y="-1090.3" font-family="Arial" font-size="24.00" fill="#ffffff">purge and rehydrate semantics.</text>
</g>
<!-- 14&#45;&gt;29 -->
<g id="45" class="edge">
<title>14&#45;&gt;29</title>
<path fill="none" stroke="#444444" stroke-dasharray="5,2" d="M1356.26,-906.35C1460.57,-944.59 1584.74,-992.68 1694,-1042 1702.92,-1046.03 1711.98,-1050.24 1721.09,-1054.57"/>
<polygon fill="#444444" stroke="#444444" points="1719.69,-1057.78 1730.22,-1058.95 1722.72,-1051.47 1719.69,-1057.78"/>
<text text-anchor="start" x="1418" y="-1114.8" font-family="Arial" font-size="24.00" fill="#444444">Stores, serves, purges,</text>
<text text-anchor="start" x="1393" y="-1090.8" font-family="Arial" font-size="24.00" fill="#444444">and rehydrates media blobs</text>
<text text-anchor="start" x="1533.5" y="-1066.8" font-family="Arial" font-size="24.00" fill="#444444">in</text>
<text text-anchor="start" x="1491.5" y="-1046.8" font-family="Arial" font-size="19.00" fill="#444444">[Filesystem]</text>
</g>
<!-- 25 -->
<g id="25" class="node">
<title>25</title>
<polygon fill="#438dd5" stroke="#2e6295" points="546,-524.5 34,-524.5 34,-269.5 546,-269.5 546,-524.5"/>
<text text-anchor="start" x="187.5" y="-476.3" font-family="Arial" font-size="34.00" fill="#ffffff">Local Web UI</text>
<text text-anchor="start" x="63" y="-454.3" font-family="Arial" font-size="19.00" fill="#ffffff">[Container: HTML/CSS/JavaScript served by daemon]</text>
<text text-anchor="start" x="148" y="-417.3" font-family="Arial" font-size="24.00" fill="#ffffff">Static browser UI for exact</text>
<text text-anchor="start" x="131" y="-393.3" font-family="Arial" font-size="24.00" fill="#ffffff">search, recent/timeline views,</text>
<text text-anchor="start" x="148.5" y="-369.3" font-family="Arial" font-size="24.00" fill="#ffffff">document/snapshot detail,</text>
<text text-anchor="start" x="133" y="-345.3" font-family="Arial" font-size="24.00" fill="#ffffff">media artifact opening, policy</text>
<text text-anchor="start" x="196.5" y="-321.3" font-family="Arial" font-size="24.00" fill="#ffffff">rules, doctor, and</text>
<text text-anchor="start" x="151.5" y="-297.3" font-family="Arial" font-size="24.00" fill="#ffffff">forget&#45;domain operations.</text>
</g>
<!-- 25&#45;&gt;14 -->
<g id="39" class="edge">
<title>25&#45;&gt;14</title>
<path fill="none" stroke="#444444" stroke-dasharray="5,2" d="M538.67,-524.55C648.06,-580.89 776.15,-646.85 884.57,-702.69"/>
<polygon fill="#444444" stroke="#444444" points="883.17,-705.91 893.66,-707.37 886.38,-699.68 883.17,-705.91"/>
<text text-anchor="start" x="586.5" y="-759.8" font-family="Arial" font-size="24.00" fill="#444444">Calls authenticated read,</text>
<text text-anchor="start" x="586" y="-735.8" font-family="Arial" font-size="24.00" fill="#444444">admin, media, and forget</text>
<text text-anchor="start" x="678" y="-711.8" font-family="Arial" font-size="24.00" fill="#444444">APIs on</text>
<text text-anchor="start" x="662.5" y="-691.8" font-family="Arial" font-size="19.00" fill="#444444">[HTTP/JSON]</text>
</g>
<!-- 26 -->
<g id="26" class="node">
<title>26</title>
<polygon fill="#438dd5" stroke="#2e6295" points="547,-953.5 33,-953.5 33,-698.5 547,-698.5 547,-953.5"/>
<text text-anchor="start" x="263" y="-905.3" font-family="Arial" font-size="34.00" fill="#ffffff">CLI</text>
<text text-anchor="start" x="169" y="-883.3" font-family="Arial" font-size="19.00" fill="#ffffff">[Container: Python argparse]</text>
<text text-anchor="start" x="143.5" y="-846.3" font-family="Arial" font-size="24.00" fill="#ffffff">Command&#45;line interface for</text>
<text text-anchor="start" x="180" y="-822.3" font-family="Arial" font-size="24.00" fill="#ffffff">serving the daemon,</text>
<text text-anchor="start" x="62" y="-798.3" font-family="Arial" font-size="24.00" fill="#ffffff">health/doctor/search/recent/timeline/detail,</text>
<text text-anchor="start" x="177" y="-774.3" font-family="Arial" font-size="24.00" fill="#ffffff">policy/forget, capture</text>
<text text-anchor="start" x="145" y="-750.3" font-family="Arial" font-size="24.00" fill="#ffffff">fixtures, media worker, and</text>
<text text-anchor="start" x="157.5" y="-726.3" font-family="Arial" font-size="24.00" fill="#ffffff">media cache operations.</text>
</g>
<!-- 26&#45;&gt;14 -->
<g id="40" class="edge">
<title>26&#45;&gt;14</title>
<path fill="none" stroke="#444444" stroke-dasharray="5,2" d="M547.16,-826C654.39,-826 778.35,-826 883.82,-826"/>
<polygon fill="#444444" stroke="#444444" points="883.97,-829.5 893.97,-826 883.97,-822.5 883.97,-829.5"/>
<text text-anchor="start" x="583" y="-898.8" font-family="Arial" font-size="24.00" fill="#444444">Calls health, read, admin,</text>
<text text-anchor="start" x="615.5" y="-874.8" font-family="Arial" font-size="24.00" fill="#444444">capture&#45;fixture, and</text>
<text text-anchor="start" x="644.5" y="-850.8" font-family="Arial" font-size="24.00" fill="#444444">forget APIs on</text>
<text text-anchor="start" x="662.5" y="-830.8" font-family="Arial" font-size="19.00" fill="#444444">[HTTP/JSON]</text>
</g>
<!-- 26&#45;&gt;27 -->
<g id="41" class="edge">
<title>26&#45;&gt;27</title>
<path fill="none" stroke="#444444" stroke-dasharray="5,2" d="M508.04,-698.44C619.8,-638.36 760.36,-571.22 894,-531 1182.88,-444.07 1533.71,-413.11 1743.91,-402.09"/>
<polygon fill="#444444" stroke="#444444" points="1744.32,-405.57 1754.12,-401.56 1743.96,-398.58 1744.32,-405.57"/>
<text text-anchor="start" x="996" y="-603.8" font-family="Arial" font-size="24.00" fill="#444444">Runs media&#45;worker and</text>
<text text-anchor="start" x="992.5" y="-579.8" font-family="Arial" font-size="24.00" fill="#444444">media&#45;cache commands</text>
<text text-anchor="start" x="1085.5" y="-555.8" font-family="Arial" font-size="24.00" fill="#444444">against</text>
<text text-anchor="start" x="1091.5" y="-535.8" font-family="Arial" font-size="19.00" fill="#444444">[sqlite3]</text>
</g>
<!-- 26&#45;&gt;29 -->
<g id="42" class="edge">
<title>26&#45;&gt;29</title>
<path fill="none" stroke="#444444" stroke-dasharray="5,2" d="M547.08,-922.54C559.2,-926.81 571.22,-930.99 583,-935 934.84,-1054.86 1023.54,-1098.04 1392,-1147 1499.61,-1161.3 1620.33,-1166.53 1720.06,-1167.98"/>
<polygon fill="#444444" stroke="#444444" points="1720.22,-1171.48 1730.26,-1168.11 1720.31,-1164.48 1720.22,-1171.48"/>
<text text-anchor="start" x="1002" y="-1188.8" font-family="Arial" font-size="24.00" fill="#444444">Purges and rehydrates</text>
<text text-anchor="start" x="1015" y="-1164.8" font-family="Arial" font-size="24.00" fill="#444444">media blobs through</text>
<text text-anchor="start" x="1073.5" y="-1144.8" font-family="Arial" font-size="19.00" fill="#444444">[Filesystem]</text>
</g>
</g>
</svg>
