<?xml version="1.0" encoding="UTF-8" standalone="no"?>
<!DOCTYPE svg PUBLIC "-//W3C//DTD SVG 1.1//EN"
 "http://www.w3.org/Graphics/SVG/1.1/DTD/svg11.dtd">
<!-- Generated by graphviz version 2.43.0 (0)
 -->
<!-- Title: %3 Pages: 1 -->
<svg width="1970pt" height="1349pt"
 viewBox="0.00 0.00 1970.00 1349.00" xmlns="http://www.w3.org/2000/svg" xmlns:xlink="http://www.w3.org/1999/xlink">
<g id="graph0" class="graph" transform="scale(1 1) rotate(0) translate(4 1345)">
<title>%3</title>
<polygon fill="white" stroke="transparent" points="-4,4 -4,-1345 1966,-1345 1966,4 -4,4"/>
<text text-anchor="start" x="396" y="-11.8" font-family="Arial" font-size="34.00">Component View: Browser Memory Daemon &#45; WSL Loopback HTTP Daemon</text>
<g id="clust1" class="cluster">
<title>cluster_4</title>
<polygon fill="none" stroke="#444444" points="8,-64 8,-1333 1954,-1333 1954,-64 8,-64"/>
<text text-anchor="start" x="840" y="-92.8" font-family="Arial" font-size="24.00" fill="#444444">Browser Memory Daemon</text>
<text text-anchor="start" x="904" y="-72.8" font-family="Arial" font-size="19.00" fill="#444444">[Software System]</text>
</g>
<g id="clust2" class="cluster">
<title>cluster_14</title>
<polygon fill="none" stroke="#444444" points="33,-610 33,-967 1196,-967 1196,-610 33,-610"/>
<text text-anchor="start" x="449" y="-638.8" font-family="Arial" font-size="24.00" fill="#444444">WSL Loopback HTTP Daemon</text>
<text text-anchor="start" x="412.5" y="-618.8" font-family="Arial" font-size="19.00" fill="#444444">[Container: Python 3.11, ThreadingHTTPServer]</text>
</g>
<!-- 15 -->
<g id="15" class="node">
<title>15</title>
<polygon fill="#85bbf0" stroke="#5d82a8" points="453,-941.5 58,-941.5 58,-710.5 453,-710.5 453,-941.5"/>
<text text-anchor="start" x="87" y="-893.3" font-family="Arial" font-size="34.00" fill="#000000">HTTP Request Router</text>
<text text-anchor="start" x="119" y="-871.3" font-family="Arial" font-size="19.00" fill="#000000">[Component: Python http.server]</text>
<text text-anchor="start" x="90" y="-834.3" font-family="Arial" font-size="24.00" fill="#000000">Routes loopback API requests,</text>
<text text-anchor="start" x="112.5" y="-810.3" font-family="Arial" font-size="24.00" fill="#000000">serves UI assets, enforces</text>
<text text-anchor="start" x="91.5" y="-786.3" font-family="Arial" font-size="24.00" fill="#000000">bearer auth for memory/admin</text>
<text text-anchor="start" x="106" y="-762.3" font-family="Arial" font-size="24.00" fill="#000000">APIs, and applies CORS for</text>
<text text-anchor="start" x="172" y="-738.3" font-family="Arial" font-size="24.00" fill="#000000">allowed origins.</text>
</g>
<!-- 23 -->
<g id="23" class="node">
<title>23</title>
<polygon fill="#85bbf0" stroke="#5d82a8" points="1171,-941.5 789,-941.5 789,-710.5 1171,-710.5 1171,-941.5"/>
<text text-anchor="start" x="818" y="-893.3" font-family="Arial" font-size="34.00" fill="#000000">Ops Doctor and Audit</text>
<text text-anchor="start" x="852" y="-871.3" font-family="Arial" font-size="19.00" fill="#000000">[Component: Python + sqlite3]</text>
<text text-anchor="start" x="829.5" y="-834.3" font-family="Arial" font-size="24.00" fill="#000000">Reports health, DB integrity,</text>
<text text-anchor="start" x="844" y="-810.3" font-family="Arial" font-size="24.00" fill="#000000">FTS consistency, runtime</text>
<text text-anchor="start" x="824" y="-786.3" font-family="Arial" font-size="24.00" fill="#000000">paths, storage counts, media</text>
<text text-anchor="start" x="848.5" y="-762.3" font-family="Arial" font-size="24.00" fill="#000000">queue status, and writes</text>
<text text-anchor="start" x="831" y="-738.3" font-family="Arial" font-size="24.00" fill="#000000">metadata&#45;only audit events.</text>
</g>
<!-- 15&#45;&gt;23 -->
<g id="68" class="edge">
<title>15&#45;&gt;23</title>
<path fill="none" stroke="#444444" stroke-dasharray="5,2" d="M453.45,-826C554.44,-826 677.2,-826 778.67,-826"/>
<polygon fill="#444444" stroke="#444444" points="778.74,-829.5 788.74,-826 778.74,-822.5 778.74,-829.5"/>
<polygon fill="white" stroke="transparent" points="489,-826 489,-886 753,-886 753,-826 489,-826"/>
<text text-anchor="start" x="493" y="-862.8" font-family="Arial" font-size="24.00" fill="#444444">Routes health and audit</text>
<text text-anchor="start" x="581.5" y="-836.8" font-family="Arial" font-size="24.00" fill="#444444">work to</text>
</g>
<!-- 27 -->
<g id="27" class="node">
<title>27</title>
<path fill="#2f95c8" stroke="#20688c" d="M1904.5,-585.72C1904.5,-608.98 1825.61,-627.88 1728.5,-627.88 1631.39,-627.88 1552.5,-608.98 1552.5,-585.72 1552.5,-585.72 1552.5,-206.28 1552.5,-206.28 1552.5,-183.02 1631.39,-164.12 1728.5,-164.12 1825.61,-164.12 1904.5,-183.02 1904.5,-206.28 1904.5,-206.28 1904.5,-585.72 1904.5,-585.72"/>
<path fill="none" stroke="#20688c" d="M1904.5,-585.72C1904.5,-562.45 1825.61,-543.56 1728.5,-543.56 1631.39,-543.56 1552.5,-562.45 1552.5,-585.72"/>
<text text-anchor="start" x="1615.5" y="-516.3" font-family="Arial" font-size="34.00" fill="#ffffff">SQLite + FTS5</text>
<text text-anchor="start" x="1655.5" y="-482.3" font-family="Arial" font-size="34.00" fill="#ffffff">Database</text>
<text text-anchor="start" x="1602.5" y="-460.3" font-family="Arial" font-size="19.00" fill="#ffffff">[Container: SQLite with FTS5]</text>
<text text-anchor="start" x="1609.5" y="-423.3" font-family="Arial" font-size="24.00" fill="#ffffff">Durable relational and</text>
<text text-anchor="start" x="1592" y="-399.3" font-family="Arial" font-size="24.00" fill="#ffffff">full&#45;text store for sources,</text>
<text text-anchor="start" x="1608" y="-375.3" font-family="Arial" font-size="24.00" fill="#ffffff">documents, visits, visit</text>
<text text-anchor="start" x="1582.5" y="-351.3" font-family="Arial" font-size="24.00" fill="#ffffff">events, snapshots, chunks,</text>
<text text-anchor="start" x="1581.5" y="-327.3" font-family="Arial" font-size="24.00" fill="#ffffff">chunks_fts, media artifacts,</text>
<text text-anchor="start" x="1596.5" y="-303.3" font-family="Arial" font-size="24.00" fill="#ffffff">media fetch tasks, policy</text>
<text text-anchor="start" x="1603" y="-279.3" font-family="Arial" font-size="24.00" fill="#ffffff">rules, audit events, and</text>
<text text-anchor="start" x="1636.5" y="-255.3" font-family="Arial" font-size="24.00" fill="#ffffff">deletion receipts.</text>
</g>
<!-- 23&#45;&gt;27 -->
<g id="82" class="edge">
<title>23&#45;&gt;27</title>
<path fill="none" stroke="#444444" stroke-dasharray="5,2" d="M1171.3,-716.38C1285.61,-650.54 1430.32,-567.18 1543.48,-502"/>
<polygon fill="#444444" stroke="#444444" points="1545.34,-504.97 1552.26,-496.94 1541.85,-498.9 1545.34,-504.97"/>
<polygon fill="white" stroke="transparent" points="1235.5,-686 1235.5,-761 1463.5,-761 1463.5,-686 1235.5,-686"/>
<text text-anchor="start" x="1239.5" y="-738.3" font-family="Arial" font-size="24.00" fill="#444444">Checks integrity and</text>
<text text-anchor="start" x="1301" y="-714.3" font-family="Arial" font-size="24.00" fill="#444444">counts in</text>
<text text-anchor="start" x="1316" y="-694.3" font-family="Arial" font-size="19.00" fill="#444444">[sqlite3]</text>
</g>
<!-- 28 -->
<g id="28" class="node">
<title>28</title>
<path fill="#2f95c8" stroke="#20688c" d="M1929,-928.78C1929,-941.39 1839.13,-951.63 1728.5,-951.63 1617.87,-951.63 1528,-941.39 1528,-928.78 1528,-928.78 1528,-723.22 1528,-723.22 1528,-710.61 1617.87,-700.37 1728.5,-700.37 1839.13,-700.37 1929,-710.61 1929,-723.22 1929,-723.22 1929,-928.78 1929,-928.78"/>
<path fill="none" stroke="#20688c" d="M1929,-928.78C1929,-916.18 1839.13,-905.94 1728.5,-905.94 1617.87,-905.94 1528,-916.18 1528,-928.78"/>
<text text-anchor="start" x="1564" y="-869.3" font-family="Arial" font-size="34.00" fill="#ffffff">Clean Text Blob Store</text>
<text text-anchor="start" x="1611" y="-847.3" font-family="Arial" font-size="19.00" fill="#ffffff">[Container: WSL filesystem]</text>
<text text-anchor="start" x="1570" y="-810.3" font-family="Arial" font-size="24.00" fill="#ffffff">Filesystem store for snapshot</text>
<text text-anchor="start" x="1557" y="-786.3" font-family="Arial" font-size="24.00" fill="#ffffff">text blobs under WSL XDG data</text>
<text text-anchor="start" x="1695" y="-762.3" font-family="Arial" font-size="24.00" fill="#ffffff">paths.</text>
</g>
<!-- 23&#45;&gt;28 -->
<g id="83" class="edge">
<title>23&#45;&gt;28</title>
<path fill="none" stroke="#444444" stroke-dasharray="5,2" d="M1171.3,-826C1277.08,-826 1408.89,-826 1517.64,-826"/>
<polygon fill="#444444" stroke="#444444" points="1517.76,-829.5 1527.76,-826 1517.76,-822.5 1517.76,-829.5"/>
<polygon fill="white" stroke="transparent" points="1220.5,-826 1220.5,-877 1478.5,-877 1478.5,-826 1220.5,-826"/>
<text text-anchor="start" x="1224.5" y="-854.3" font-family="Arial" font-size="24.00" fill="#444444">Counts text blob files in</text>
<text text-anchor="start" x="1298" y="-834.3" font-family="Arial" font-size="19.00" fill="#444444">[Filesystem]</text>
</g>
<!-- 29 -->
<g id="29" class="node">
<title>29</title>
<path fill="#2f95c8" stroke="#20688c" d="M1928.5,-1282.28C1928.5,-1296.54 1838.86,-1308.13 1728.5,-1308.13 1618.14,-1308.13 1528.5,-1296.54 1528.5,-1282.28 1528.5,-1282.28 1528.5,-1049.72 1528.5,-1049.72 1528.5,-1035.46 1618.14,-1023.87 1728.5,-1023.87 1838.86,-1023.87 1928.5,-1035.46 1928.5,-1049.72 1928.5,-1049.72 1928.5,-1282.28 1928.5,-1282.28"/>
<path fill="none" stroke="#20688c" d="M1928.5,-1282.28C1928.5,-1268.03 1838.86,-1256.44 1728.5,-1256.44 1618.14,-1256.44 1528.5,-1268.03 1528.5,-1282.28"/>
<text text-anchor="start" x="1589.5" y="-1221.3" font-family="Arial" font-size="34.00" fill="#ffffff">Media Blob Cache</text>
<text text-anchor="start" x="1611" y="-1199.3" font-family="Arial" font-size="19.00" fill="#ffffff">[Container: WSL filesystem]</text>
<text text-anchor="start" x="1595" y="-1162.3" font-family="Arial" font-size="24.00" fill="#ffffff">Bounded and disposable</text>
<text text-anchor="start" x="1584" y="-1138.3" font-family="Arial" font-size="24.00" fill="#ffffff">filesystem cache for stored</text>
<text text-anchor="start" x="1573" y="-1114.3" font-family="Arial" font-size="24.00" fill="#ffffff">image/video/audio blobs with</text>
<text text-anchor="start" x="1557.5" y="-1090.3" font-family="Arial" font-size="24.00" fill="#ffffff">purge and rehydrate semantics.</text>
</g>
<!-- 23&#45;&gt;29 -->
<g id="84" class="edge">
<title>23&#45;&gt;29</title>
<path fill="none" stroke="#444444" stroke-dasharray="5,2" d="M1171.3,-912.68C1277.61,-961.09 1410.21,-1021.49 1519.27,-1071.16"/>
<polygon fill="#444444" stroke="#444444" points="1517.86,-1074.36 1528.41,-1075.32 1520.76,-1067.99 1517.86,-1074.36"/>
<polygon fill="white" stroke="transparent" points="1207,-1056 1207,-1107 1492,-1107 1492,-1056 1207,-1056"/>
<text text-anchor="start" x="1211.5" y="-1084.3" font-family="Arial" font-size="24.00" fill="#444444">Counts media blob files in</text>
<text text-anchor="start" x="1298.5" y="-1064.3" font-family="Arial" font-size="19.00" fill="#444444">[Filesystem]</text>
</g>
</g>
</svg>
