<?xml version="1.0" encoding="UTF-8" standalone="no"?>
<!DOCTYPE svg PUBLIC "-//W3C//DTD SVG 1.1//EN"
 "http://www.w3.org/Graphics/SVG/1.1/DTD/svg11.dtd">
<!-- Generated by graphviz version 2.43.0 (0)
 -->
<!-- Title: %3 Pages: 1 -->
<svg width="2157pt" height="1228pt"
 viewBox="0.00 0.00 2157.00 1227.50" xmlns="http://www.w3.org/2000/svg" xmlns:xlink="http://www.w3.org/1999/xlink">
<g id="graph0" class="graph" transform="scale(1 1) rotate(0) translate(4 1223.5)">
<title>%3</title>
<polygon fill="white" stroke="transparent" points="-4,4 -4,-1223.5 2153,-1223.5 2153,4 -4,4"/>
<text text-anchor="start" x="543" y="-11.8" font-family="Arial" font-size="34.00">Component View: Browser Memory Daemon &#45; Chrome MV3 Extension</text>
<g id="clust1" class="cluster">
<title>cluster_4</title>
<polygon fill="none" stroke="#444444" points="8,-312.5 8,-1211.5 2141,-1211.5 2141,-312.5 8,-312.5"/>
<text text-anchor="start" x="933.5" y="-341.3" font-family="Arial" font-size="24.00" fill="#444444">Browser Memory Daemon</text>
<text text-anchor="start" x="997.5" y="-321.3" font-family="Arial" font-size="19.00" fill="#444444">[Software System]</text>
</g>
<g id="clust2" class="cluster">
<title>cluster_5</title>
<polygon fill="none" stroke="#444444" points="33,-464.5 33,-1134.5 1285,-1134.5 1285,-464.5 33,-464.5"/>
<text text-anchor="start" x="531" y="-493.3" font-family="Arial" font-size="24.00" fill="#444444">Chrome MV3 Extension</text>
<text text-anchor="start" x="471" y="-473.3" font-family="Arial" font-size="19.00" fill="#444444">[Container: JavaScript, Chrome Manifest V3]</text>
</g>
<!-- 2 -->
<g id="2" class="node">
<title>2</title>
<polygon fill="#999999" stroke="#6b6b6b" points="453.5,-287 67.5,-287 67.5,-56 453.5,-56 453.5,-287"/>
<text text-anchor="start" x="126" y="-238.8" font-family="Arial" font-size="34.00" fill="#ffffff">Windows Chrome</text>
<text text-anchor="start" x="183.5" y="-216.8" font-family="Arial" font-size="19.00" fill="#ffffff">[Software System]</text>
<text text-anchor="start" x="96.5" y="-179.8" font-family="Arial" font-size="24.00" fill="#ffffff">The Windows Chrome runtime</text>
<text text-anchor="start" x="110" y="-155.8" font-family="Arial" font-size="24.00" fill="#ffffff">that loads web pages, hosts</text>
<text text-anchor="start" x="109.5" y="-131.8" font-family="Arial" font-size="24.00" fill="#ffffff">the MV3 extension, runs the</text>
<text text-anchor="start" x="101.5" y="-107.8" font-family="Arial" font-size="24.00" fill="#ffffff">local UI in a tab, and exposes</text>
<text text-anchor="start" x="131" y="-83.8" font-family="Arial" font-size="24.00" fill="#ffffff">Chrome extension APIs.</text>
</g>
<!-- 6 -->
<g id="6" class="node">
<title>6</title>
<polygon fill="#85bbf0" stroke="#5d82a8" points="463,-1109 58,-1109 58,-868 463,-868 463,-1109"/>
<text text-anchor="start" x="162.5" y="-1060.8" font-family="Arial" font-size="34.00" fill="#000000">Manifest and</text>
<text text-anchor="start" x="101" y="-1026.8" font-family="Arial" font-size="34.00" fill="#000000">Permission Envelope</text>
<text text-anchor="start" x="144.5" y="-1004.8" font-family="Arial" font-size="19.00" fill="#000000">[Component: manifest.json]</text>
<text text-anchor="start" x="87" y="-967.8" font-family="Arial" font-size="24.00" fill="#000000">Declares MV3 permissions, host</text>
<text text-anchor="start" x="108.5" y="-943.8" font-family="Arial" font-size="24.00" fill="#000000">permissions, service worker,</text>
<text text-anchor="start" x="157" y="-919.8" font-family="Arial" font-size="24.00" fill="#000000">popup, and options</text>
<text text-anchor="start" x="197.5" y="-895.8" font-family="Arial" font-size="24.00" fill="#000000">entrypoints.</text>
</g>
<!-- 7 -->
<g id="7" class="node">
<title>7</title>
<polygon fill="#85bbf0" stroke="#5d82a8" points="1238.5,-778 843.5,-778 843.5,-571 1238.5,-571 1238.5,-778"/>
<text text-anchor="start" x="972.5" y="-729.8" font-family="Arial" font-size="34.00" fill="#000000">Extractor</text>
<text text-anchor="start" x="937" y="-707.8" font-family="Arial" font-size="19.00" fill="#000000">[Component: JavaScript]</text>
<text text-anchor="start" x="872.5" y="-670.8" font-family="Arial" font-size="24.00" fill="#000000">Traverses visible DOM text and</text>
<text text-anchor="start" x="921" y="-646.8" font-family="Arial" font-size="24.00" fill="#000000">discovers image/video</text>
<text text-anchor="start" x="884" y="-622.8" font-family="Arial" font-size="24.00" fill="#000000">references while applying the</text>
<text text-anchor="start" x="924.5" y="-598.8" font-family="Arial" font-size="24.00" fill="#000000">selected policy mode.</text>
</g>
<!-- 8 -->
<g id="8" class="node">
<title>8</title>
<polygon fill="#85bbf0" stroke="#5d82a8" points="456,-796 65,-796 65,-565 456,-565 456,-796"/>
<text text-anchor="start" x="152" y="-747.8" font-family="Arial" font-size="34.00" fill="#000000">Content Script</text>
<text text-anchor="start" x="97" y="-725.8" font-family="Arial" font-size="19.00" fill="#000000">[Component: JavaScript content script]</text>
<text text-anchor="start" x="120.5" y="-688.8" font-family="Arial" font-size="24.00" fill="#000000">Schedules initial, delayed,</text>
<text text-anchor="start" x="125" y="-664.8" font-family="Arial" font-size="24.00" fill="#000000">and SPA captures; tracks</text>
<text text-anchor="start" x="125.5" y="-640.8" font-family="Arial" font-size="24.00" fill="#000000">scroll; sends capture and</text>
<text text-anchor="start" x="94" y="-616.8" font-family="Arial" font-size="24.00" fill="#000000">inline blob upload messages to</text>
<text text-anchor="start" x="159.5" y="-592.8" font-family="Arial" font-size="24.00" fill="#000000">the service worker.</text>
</g>
<!-- 8&#45;&gt;7 -->
<g id="49" class="edge">
<title>8&#45;&gt;7</title>
<path fill="none" stroke="#444444" stroke-dasharray="5,2" d="M456.19,-679C571.07,-678.11 716.37,-676.99 833.28,-676.09"/>
<polygon fill="#444444" stroke="#444444" points="833.46,-679.59 843.43,-676.01 833.41,-672.59 833.46,-679.59"/>
<polygon fill="white" stroke="transparent" points="510,-678.5 510,-738.5 775,-738.5 775,-678.5 510,-678.5"/>
<text text-anchor="start" x="514.5" y="-715.3" font-family="Arial" font-size="24.00" fill="#444444">Builds capture payloads</text>
<text text-anchor="start" x="621.5" y="-689.3" font-family="Arial" font-size="24.00" fill="#444444">with</text>
</g>
<!-- 9 -->
<g id="9" class="node">
<title>9</title>
<polygon fill="#85bbf0" stroke="#5d82a8" points="1260,-1081 822,-1081 822,-850 1260,-850 1260,-1081"/>
<text text-anchor="start" x="925" y="-1032.8" font-family="Arial" font-size="34.00" fill="#000000">Service Worker</text>
<text text-anchor="start" x="851" y="-1010.8" font-family="Arial" font-size="19.00" fill="#000000">[Component: JavaScript MV3 service worker]</text>
<text text-anchor="start" x="869.5" y="-973.8" font-family="Arial" font-size="24.00" fill="#000000">Owns daemon transport, bearer</text>
<text text-anchor="start" x="893.5" y="-949.8" font-family="Arial" font-size="24.00" fill="#000000">token use, capture and visit</text>
<text text-anchor="start" x="882" y="-925.8" font-family="Arial" font-size="24.00" fill="#000000">queues, lifecycle state, media</text>
<text text-anchor="start" x="905" y="-901.8" font-family="Arial" font-size="24.00" fill="#000000">queue draining, and CDP</text>
<text text-anchor="start" x="918.5" y="-877.8" font-family="Arial" font-size="24.00" fill="#000000">recorder orchestration.</text>
</g>
<!-- 8&#45;&gt;9 -->
<g id="50" class="edge">
<title>8&#45;&gt;9</title>
<path fill="none" stroke="#444444" stroke-dasharray="5,2" d="M456.19,-751.77C564.28,-791.35 699.32,-840.78 812.29,-882.14"/>
<polygon fill="#444444" stroke="#444444" points="811.17,-885.45 821.76,-885.61 813.57,-878.88 811.17,-885.45"/>
<polygon fill="white" stroke="transparent" points="499,-864.5 499,-939.5 786,-939.5 786,-864.5 499,-864.5"/>
<text text-anchor="start" x="503.5" y="-916.8" font-family="Arial" font-size="24.00" fill="#444444">Sends captures and inline</text>
<text text-anchor="start" x="600.5" y="-892.8" font-family="Arial" font-size="24.00" fill="#444444">blobs to</text>
<text text-anchor="start" x="510" y="-872.8" font-family="Arial" font-size="19.00" fill="#444444">[chrome.runtime.sendMessage]</text>
</g>
<!-- 13 -->
<g id="13" class="node">
<title>13</title>
<path fill="#2f95c8" stroke="#20688c" d="M2111.5,-743.72C2111.5,-762.01 2009.98,-776.88 1885,-776.88 1760.02,-776.88 1658.5,-762.01 1658.5,-743.72 1658.5,-743.72 1658.5,-445.28 1658.5,-445.28 1658.5,-426.99 1760.02,-412.12 1885,-412.12 2009.98,-412.12 2111.5,-426.99 2111.5,-445.28 2111.5,-445.28 2111.5,-743.72 2111.5,-743.72"/>
<path fill="none" stroke="#20688c" d="M2111.5,-743.72C2111.5,-725.42 2009.98,-710.56 1885,-710.56 1760.02,-710.56 1658.5,-725.42 1658.5,-743.72"/>
<text text-anchor="start" x="1743" y="-678.8" font-family="Arial" font-size="34.00" fill="#ffffff">Extension Browser</text>
<text text-anchor="start" x="1825.5" y="-644.8" font-family="Arial" font-size="34.00" fill="#ffffff">Storage</text>
<text text-anchor="start" x="1687.5" y="-622.8" font-family="Arial" font-size="19.00" fill="#ffffff">[Container: chrome.storage.local + IndexedDB]</text>
<text text-anchor="start" x="1752.5" y="-585.8" font-family="Arial" font-size="24.00" fill="#ffffff">Browser&#45;side storage for</text>
<text text-anchor="start" x="1740.5" y="-561.8" font-family="Arial" font-size="24.00" fill="#ffffff">capture and visit queues in</text>
<text text-anchor="start" x="1746.5" y="-537.8" font-family="Arial" font-size="24.00" fill="#ffffff">chrome.storage.local plus</text>
<text text-anchor="start" x="1752.5" y="-513.8" font-family="Arial" font-size="24.00" fill="#ffffff">durable media tasks and</text>
<text text-anchor="start" x="1733.5" y="-489.8" font-family="Arial" font-size="24.00" fill="#ffffff">fetched blobs in IndexedDB.</text>
</g>
<!-- 9&#45;&gt;13 -->
<g id="51" class="edge">
<title>9&#45;&gt;13</title>
<path fill="none" stroke="#444444" stroke-dasharray="5,2" d="M1260.16,-867.42C1272.28,-862.02 1284.29,-856.69 1296,-851.5 1412.05,-800.1 1541.27,-743.55 1648.94,-696.61"/>
<polygon fill="#444444" stroke="#444444" points="1650.53,-699.73 1658.3,-692.53 1647.74,-693.32 1650.53,-699.73"/>
<polygon fill="white" stroke="transparent" points="1316.5,-851.5 1316.5,-963.5 1597.5,-963.5 1597.5,-851.5 1316.5,-851.5"/>
<text text-anchor="start" x="1352" y="-940.3" font-family="Arial" font-size="24.00" fill="#444444">Queues captures in</text>
<text text-anchor="start" x="1321" y="-914.3" font-family="Arial" font-size="24.00" fill="#444444">chrome.storage.local and</text>
<text text-anchor="start" x="1347.5" y="-888.3" font-family="Arial" font-size="24.00" fill="#444444">media tasks/blobs in</text>
<text text-anchor="start" x="1397.5" y="-862.3" font-family="Arial" font-size="24.00" fill="#444444">IndexedDB</text>
</g>
<!-- 14 -->
<g id="14" class="node">
<title>14</title>
<polygon fill="#438dd5" stroke="#2e6295" points="2116,-1186 1654,-1186 1654,-849 2116,-849 2116,-1186"/>
<text text-anchor="start" x="1720.5" y="-1137.8" font-family="Arial" font-size="34.00" fill="#ffffff">WSL Loopback HTTP</text>
<text text-anchor="start" x="1820.5" y="-1103.8" font-family="Arial" font-size="34.00" fill="#ffffff">Daemon</text>
<text text-anchor="start" x="1683" y="-1081.8" font-family="Arial" font-size="19.00" fill="#ffffff">[Container: Python 3.11, ThreadingHTTPServer]</text>
<text text-anchor="start" x="1724" y="-1044.8" font-family="Arial" font-size="24.00" fill="#ffffff">Authenticated loopback HTTP</text>
<text text-anchor="start" x="1749" y="-1020.8" font-family="Arial" font-size="24.00" fill="#ffffff">API that handles capture,</text>
<text text-anchor="start" x="1745.5" y="-996.8" font-family="Arial" font-size="24.00" fill="#ffffff">visit events, media artifact</text>
<text text-anchor="start" x="1748.5" y="-972.8" font-family="Arial" font-size="24.00" fill="#ffffff">upload/fetch/purge, exact</text>
<text text-anchor="start" x="1845" y="-948.8" font-family="Arial" font-size="24.00" fill="#ffffff">search,</text>
<text text-anchor="start" x="1736" y="-924.8" font-family="Arial" font-size="24.00" fill="#ffffff">recent/timeline/detail, policy</text>
<text text-anchor="start" x="1754" y="-900.8" font-family="Arial" font-size="24.00" fill="#ffffff">rules, doctor, forget, and</text>
<text text-anchor="start" x="1795.5" y="-876.8" font-family="Arial" font-size="24.00" fill="#ffffff">static UI serving.</text>
</g>
<!-- 9&#45;&gt;14 -->
<g id="52" class="edge">
<title>9&#45;&gt;14</title>
<path fill="none" stroke="#444444" stroke-dasharray="5,2" d="M1260.2,-978.98C1377.74,-986.23 1522.99,-995.2 1643.75,-1002.66"/>
<polygon fill="#444444" stroke="#444444" points="1643.68,-1006.16 1653.87,-1003.29 1644.11,-999.18 1643.68,-1006.16"/>
<polygon fill="white" stroke="transparent" points="1296,-1000.5 1296,-1075.5 1618,-1075.5 1618,-1000.5 1296,-1000.5"/>
<text text-anchor="start" x="1317.5" y="-1052.8" font-family="Arial" font-size="24.00" fill="#444444">Delivers captures, events,</text>
<text text-anchor="start" x="1310.5" y="-1028.8" font-family="Arial" font-size="24.00" fill="#444444">metadata, and raw blobs to</text>
<text text-anchor="start" x="1300" y="-1008.8" font-family="Arial" font-size="19.00" fill="#444444">[Bearer HTTP/JSON; raw HTTP PUT]</text>
</g>
</g>
</svg>
