<?xml version="1.0" encoding="UTF-8" standalone="no"?>
<!DOCTYPE svg PUBLIC "-//W3C//DTD SVG 1.1//EN"
 "http://www.w3.org/Graphics/SVG/1.1/DTD/svg11.dtd">
<!-- Generated by graphviz version 2.43.0 (0)
 -->
<!-- Title: %3 Pages: 1 -->
<svg width="2285pt" height="1308pt"
 viewBox="0.00 0.00 2285.00 1307.50" xmlns="http://www.w3.org/2000/svg" xmlns:xlink="http://www.w3.org/1999/xlink">
<g id="graph0" class="graph" transform="scale(1 1) rotate(0) translate(4 1303.5)">
<title>%3</title>
<polygon fill="white" stroke="transparent" points="-4,4 -4,-1303.5 2281,-1303.5 2281,4 -4,4"/>
<text text-anchor="start" x="823" y="-11.8" font-family="Arial" font-size="34.00">Dynamic View: Browser Memory Daemon</text>
<g id="clust1" class="cluster">
<title>cluster_4</title>
<polygon fill="none" stroke="#444444" points="8,-346.5 8,-1291.5 2269,-1291.5 2269,-346.5 8,-346.5"/>
<text text-anchor="start" x="997.5" y="-375.3" font-family="Arial" font-size="24.00" fill="#444444">Browser Memory Daemon</text>
<text text-anchor="start" x="1061.5" y="-355.3" font-family="Arial" font-size="19.00" fill="#444444">[Software System]</text>
</g>
<!-- 13 -->
<g id="13" class="node">
<title>13</title>
<path fill="#2f95c8" stroke="#20688c" d="M1483.5,-782.72C1483.5,-801.01 1381.98,-815.88 1257,-815.88 1132.02,-815.88 1030.5,-801.01 1030.5,-782.72 1030.5,-782.72 1030.5,-484.28 1030.5,-484.28 1030.5,-465.99 1132.02,-451.12 1257,-451.12 1381.98,-451.12 1483.5,-465.99 1483.5,-484.28 1483.5,-484.28 1483.5,-782.72 1483.5,-782.72"/>
<path fill="none" stroke="#20688c" d="M1483.5,-782.72C1483.5,-764.42 1381.98,-749.56 1257,-749.56 1132.02,-749.56 1030.5,-764.42 1030.5,-782.72"/>
<text text-anchor="start" x="1115" y="-717.8" font-family="Arial" font-size="34.00" fill="#ffffff">Extension Browser</text>
<text text-anchor="start" x="1197.5" y="-683.8" font-family="Arial" font-size="34.00" fill="#ffffff">Storage</text>
<text text-anchor="start" x="1059.5" y="-661.8" font-family="Arial" font-size="19.00" fill="#ffffff">[Container: chrome.storage.local + IndexedDB]</text>
<text text-anchor="start" x="1124.5" y="-624.8" font-family="Arial" font-size="24.00" fill="#ffffff">Browser&#45;side storage for</text>
<text text-anchor="start" x="1112.5" y="-600.8" font-family="Arial" font-size="24.00" fill="#ffffff">capture and visit queues in</text>
<text text-anchor="start" x="1118.5" y="-576.8" font-family="Arial" font-size="24.00" fill="#ffffff">chrome.storage.local plus</text>
<text text-anchor="start" x="1124.5" y="-552.8" font-family="Arial" font-size="24.00" fill="#ffffff">durable media tasks and</text>
<text text-anchor="start" x="1105.5" y="-528.8" font-family="Arial" font-size="24.00" fill="#ffffff">fetched blobs in IndexedDB.</text>
</g>
<!-- 14 -->
<g id="14" class="node">
<title>14</title>
<polygon fill="#438dd5" stroke="#2e6295" points="1488,-1225 1026,-1225 1026,-888 1488,-888 1488,-1225"/>
<text text-anchor="start" x="1092.5" y="-1176.8" font-family="Arial" font-size="34.00" fill="#ffffff">WSL Loopback HTTP</text>
<text text-anchor="start" x="1192.5" y="-1142.8" font-family="Arial" font-size="34.00" fill="#ffffff">Daemon</text>
<text text-anchor="start" x="1055" y="-1120.8" font-family="Arial" font-size="19.00" fill="#ffffff">[Container: Python 3.11, ThreadingHTTPServer]</text>
<text text-anchor="start" x="1096" y="-1083.8" font-family="Arial" font-size="24.00" fill="#ffffff">Authenticated loopback HTTP</text>
<text text-anchor="start" x="1121" y="-1059.8" font-family="Arial" font-size="24.00" fill="#ffffff">API that handles capture,</text>
<text text-anchor="start" x="1117.5" y="-1035.8" font-family="Arial" font-size="24.00" fill="#ffffff">visit events, media artifact</text>
<text text-anchor="start" x="1120.5" y="-1011.8" font-family="Arial" font-size="24.00" fill="#ffffff">upload/fetch/purge, exact</text>
<text text-anchor="start" x="1217" y="-987.8" font-family="Arial" font-size="24.00" fill="#ffffff">search,</text>
<text text-anchor="start" x="1108" y="-963.8" font-family="Arial" font-size="24.00" fill="#ffffff">recent/timeline/detail, policy</text>
<text text-anchor="start" x="1126" y="-939.8" font-family="Arial" font-size="24.00" fill="#ffffff">rules, doctor, forget, and</text>
<text text-anchor="start" x="1167.5" y="-915.8" font-family="Arial" font-size="24.00" fill="#ffffff">static UI serving.</text>
</g>
<!-- 27 -->
<g id="27" class="node">
<title>27</title>
<path fill="#2f95c8" stroke="#20688c" d="M2220,-868.22C2220,-891.48 2141.11,-910.38 2044,-910.38 1946.89,-910.38 1868,-891.48 1868,-868.22 1868,-868.22 1868,-488.78 1868,-488.78 1868,-465.52 1946.89,-446.62 2044,-446.62 2141.11,-446.62 2220,-465.52 2220,-488.78 2220,-488.78 2220,-868.22 2220,-868.22"/>
<path fill="none" stroke="#20688c" d="M2220,-868.22C2220,-844.95 2141.11,-826.06 2044,-826.06 1946.89,-826.06 1868,-844.95 1868,-868.22"/>
<text text-anchor="start" x="1931" y="-798.8" font-family="Arial" font-size="34.00" fill="#ffffff">SQLite + FTS5</text>
<text text-anchor="start" x="1971" y="-764.8" font-family="Arial" font-size="34.00" fill="#ffffff">Database</text>
<text text-anchor="start" x="1918" y="-742.8" font-family="Arial" font-size="19.00" fill="#ffffff">[Container: SQLite with FTS5]</text>
<text text-anchor="start" x="1925" y="-705.8" font-family="Arial" font-size="24.00" fill="#ffffff">Durable relational and</text>
<text text-anchor="start" x="1907.5" y="-681.8" font-family="Arial" font-size="24.00" fill="#ffffff">full&#45;text store for sources,</text>
<text text-anchor="start" x="1923.5" y="-657.8" font-family="Arial" font-size="24.00" fill="#ffffff">documents, visits, visit</text>
<text text-anchor="start" x="1898" y="-633.8" font-family="Arial" font-size="24.00" fill="#ffffff">events, snapshots, chunks,</text>
<text text-anchor="start" x="1897" y="-609.8" font-family="Arial" font-size="24.00" fill="#ffffff">chunks_fts, media artifacts,</text>
<text text-anchor="start" x="1912" y="-585.8" font-family="Arial" font-size="24.00" fill="#ffffff">media fetch tasks, policy</text>
<text text-anchor="start" x="1918.5" y="-561.8" font-family="Arial" font-size="24.00" fill="#ffffff">rules, audit events, and</text>
<text text-anchor="start" x="1952" y="-537.8" font-family="Arial" font-size="24.00" fill="#ffffff">deletion receipts.</text>
</g>
<!-- 14&#45;&gt;27 -->
<g id="43" class="edge">
<title>14&#45;&gt;27</title>
<path fill="none" stroke="#444444" stroke-dasharray="5,2" d="M1488.22,-945.64C1606.15,-888.86 1747.8,-820.65 1858.45,-767.37"/>
<polygon fill="#444444" stroke="#444444" points="1860.22,-770.4 1867.71,-762.91 1857.18,-764.09 1860.22,-770.4"/>
<text text-anchor="start" x="1567.5" y="-995.3" font-family="Arial" font-size="24.00" fill="#444444">6. Updates artifact</text>
<text text-anchor="start" x="1542.5" y="-971.3" font-family="Arial" font-size="24.00" fill="#444444">status, hash, byte size,</text>
<text text-anchor="start" x="1590.5" y="-947.3" font-family="Arial" font-size="24.00" fill="#444444">and task state</text>
<text text-anchor="start" x="1632.5" y="-927.3" font-family="Arial" font-size="19.00" fill="#444444">[sqlite3]</text>
</g>
<!-- 29 -->
<g id="29" class="node">
<title>29</title>
<path fill="#2f95c8" stroke="#20688c" d="M2244,-1240.78C2244,-1255.04 2154.36,-1266.63 2044,-1266.63 1933.64,-1266.63 1844,-1255.04 1844,-1240.78 1844,-1240.78 1844,-1008.22 1844,-1008.22 1844,-993.96 1933.64,-982.37 2044,-982.37 2154.36,-982.37 2244,-993.96 2244,-1008.22 2244,-1008.22 2244,-1240.78 2244,-1240.78"/>
<path fill="none" stroke="#20688c" d="M2244,-1240.78C2244,-1226.53 2154.36,-1214.94 2044,-1214.94 1933.64,-1214.94 1844,-1226.53 1844,-1240.78"/>
<text text-anchor="start" x="1905" y="-1179.8" font-family="Arial" font-size="34.00" fill="#ffffff">Media Blob Cache</text>
<text text-anchor="start" x="1926.5" y="-1157.8" font-family="Arial" font-size="19.00" fill="#ffffff">[Container: WSL filesystem]</text>
<text text-anchor="start" x="1910.5" y="-1120.8" font-family="Arial" font-size="24.00" fill="#ffffff">Bounded and disposable</text>
<text text-anchor="start" x="1899.5" y="-1096.8" font-family="Arial" font-size="24.00" fill="#ffffff">filesystem cache for stored</text>
<text text-anchor="start" x="1888.5" y="-1072.8" font-family="Arial" font-size="24.00" fill="#ffffff">image/video/audio blobs with</text>
<text text-anchor="start" x="1873" y="-1048.8" font-family="Arial" font-size="24.00" fill="#ffffff">purge and rehydrate semantics.</text>
</g>
<!-- 14&#45;&gt;29 -->
<g id="45" class="edge">
<title>14&#45;&gt;29</title>
<path fill="none" stroke="#444444" stroke-dasharray="5,2" d="M1488.22,-1076.44C1597.46,-1085.91 1727.05,-1097.13 1833.5,-1106.35"/>
<polygon fill="#444444" stroke="#444444" points="1833.47,-1109.86 1843.73,-1107.24 1834.07,-1102.89 1833.47,-1109.86"/>
<text text-anchor="start" x="1524" y="-1151.3" font-family="Arial" font-size="24.00" fill="#444444">5. Writes blob if MIME and</text>
<text text-anchor="start" x="1569.5" y="-1127.3" font-family="Arial" font-size="24.00" fill="#444444">cache gates allow</text>
<text text-anchor="start" x="1614.5" y="-1107.3" font-family="Arial" font-size="19.00" fill="#444444">[Filesystem]</text>
</g>
<!-- 5 -->
<g id="5" class="node">
<title>5</title>
<polygon fill="#438dd5" stroke="#2e6295" points="467,-778 33,-778 33,-499 467,-499 467,-778"/>
<text text-anchor="start" x="70" y="-729.8" font-family="Arial" font-size="34.00" fill="#ffffff">Chrome MV3 Extension</text>
<text text-anchor="start" x="62" y="-707.8" font-family="Arial" font-size="19.00" fill="#ffffff">[Container: JavaScript, Chrome Manifest V3]</text>
<text text-anchor="start" x="107" y="-670.8" font-family="Arial" font-size="24.00" fill="#ffffff">Captures visible page text,</text>
<text text-anchor="start" x="132.5" y="-646.8" font-family="Arial" font-size="24.00" fill="#ffffff">media references, tab</text>
<text text-anchor="start" x="141" y="-622.8" font-family="Arial" font-size="24.00" fill="#ffffff">lifecycle events, and</text>
<text text-anchor="start" x="84" y="-598.8" font-family="Arial" font-size="24.00" fill="#ffffff">browser&#45;side media bytes from</text>
<text text-anchor="start" x="79" y="-574.8" font-family="Arial" font-size="24.00" fill="#ffffff">Windows Chrome; queues work</text>
<text text-anchor="start" x="91" y="-550.8" font-family="Arial" font-size="24.00" fill="#ffffff">durably and posts to the WSL</text>
<text text-anchor="start" x="202.5" y="-526.8" font-family="Arial" font-size="24.00" fill="#ffffff">daemon.</text>
</g>
<!-- 5&#45;&gt;13 -->
<g id="37" class="edge">
<title>5&#45;&gt;13</title>
<path fill="none" stroke="#444444" stroke-dasharray="5,2" d="M467.3,-516.2C479.17,-512.06 491.12,-508.44 503,-505.5 713.1,-453.46 778.98,-457.37 990,-505.5 1000.13,-507.81 1010.32,-510.56 1020.5,-513.66"/>
<polygon fill="#444444" stroke="#444444" points="1019.67,-517.06 1030.26,-516.73 1021.78,-510.39 1019.67,-517.06"/>
<text text-anchor="start" x="612.5" y="-530.3" font-family="Arial" font-size="24.00" fill="#444444">1. Reads due media task</text>
<text text-anchor="start" x="595" y="-510.3" font-family="Arial" font-size="19.00" fill="#444444">[chrome.storage.local + IndexedDB]</text>
</g>
<!-- 5&#45;&gt;13 -->
<g id="37" class="edge">
<title>5&#45;&gt;13</title>
<path fill="none" stroke="#444444" stroke-dasharray="5,2" d="M467.14,-626.62C479.27,-626.18 491.29,-625.8 503,-625.5 719.37,-619.92 773.58,-622.25 990,-625.5 999.87,-625.65 1009.95,-625.83 1020.14,-626.03"/>
<polygon fill="#444444" stroke="#444444" points="1020.28,-629.54 1030.35,-626.24 1020.42,-622.54 1020.28,-629.54"/>
<text text-anchor="start" x="620.5" y="-674.3" font-family="Arial" font-size="24.00" fill="#444444">3. Persists fetched blob</text>
<text text-anchor="start" x="630" y="-650.3" font-family="Arial" font-size="24.00" fill="#444444">until upload succeeds</text>
<text text-anchor="start" x="595" y="-630.3" font-family="Arial" font-size="19.00" fill="#444444">[chrome.storage.local + IndexedDB]</text>
</g>
<!-- 5&#45;&gt;13 -->
<g id="37" class="edge">
<title>5&#45;&gt;13</title>
<path fill="none" stroke="#444444" stroke-dasharray="5,2" d="M467.1,-700.72C479.18,-702.98 491.21,-704.94 503,-706.5 717.57,-734.94 775.49,-735.4 990,-706.5 1000.07,-705.14 1010.3,-703.51 1020.59,-701.66"/>
<polygon fill="#444444" stroke="#444444" points="1021.28,-705.09 1030.47,-699.81 1020,-698.2 1021.28,-705.09"/>
<text text-anchor="start" x="596" y="-776.3" font-family="Arial" font-size="24.00" fill="#444444">7. Deletes completed media</text>
<text text-anchor="start" x="631" y="-752.3" font-family="Arial" font-size="24.00" fill="#444444">task and fetched blob</text>
<text text-anchor="start" x="595" y="-732.3" font-family="Arial" font-size="19.00" fill="#444444">[chrome.storage.local + IndexedDB]</text>
</g>
<!-- 5&#45;&gt;14 -->
<g id="38" class="edge">
<title>5&#45;&gt;14</title>
<path fill="none" stroke="#444444" stroke-dasharray="5,2" d="M441.14,-778.18C461.54,-790.61 482.38,-802.32 503,-812.5 667.11,-893.57 864.3,-956.33 1015.72,-997.89"/>
<polygon fill="#444444" stroke="#444444" points="1015.06,-1001.34 1025.63,-1000.6 1016.9,-994.59 1015.06,-1001.34"/>
<text text-anchor="start" x="641.5" y="-1036.3" font-family="Arial" font-size="24.00" fill="#444444">4. PUTs raw blob to</text>
<text text-anchor="start" x="616" y="-1012.3" font-family="Arial" font-size="24.00" fill="#444444">/media&#45;artifacts/{id}/blob</text>
<text text-anchor="start" x="503" y="-992.3" font-family="Arial" font-size="19.00" fill="#444444">[Bearer HTTP/JSON; raw HTTP PUT over 127.0.0.1:8765]</text>
</g>
<!-- 3 -->
<g id="3" class="node">
<title>3</title>
<polygon fill="#999999" stroke="#6b6b6b" points="1458.5,-321 1055.5,-321 1055.5,-56 1458.5,-56 1458.5,-321"/>
<text text-anchor="start" x="1095.5" y="-272.8" font-family="Arial" font-size="34.00" fill="#ffffff">Web Sites and Media</text>
<text text-anchor="start" x="1203" y="-238.8" font-family="Arial" font-size="34.00" fill="#ffffff">Origins</text>
<text text-anchor="start" x="1180" y="-216.8" font-family="Arial" font-size="19.00" fill="#ffffff">[Software System]</text>
<text text-anchor="start" x="1147" y="-179.8" font-family="Arial" font-size="24.00" fill="#ffffff">External web pages,</text>
<text text-anchor="start" x="1094.5" y="-155.8" font-family="Arial" font-size="24.00" fill="#ffffff">image/video URLs, and media</text>
<text text-anchor="start" x="1084.5" y="-131.8" font-family="Arial" font-size="24.00" fill="#ffffff">CDNs that Chrome loads or that</text>
<text text-anchor="start" x="1094.5" y="-107.8" font-family="Arial" font-size="24.00" fill="#ffffff">sidecars fetch as page&#45;related</text>
<text text-anchor="start" x="1220.5" y="-83.8" font-family="Arial" font-size="24.00" fill="#ffffff">media.</text>
</g>
<!-- 5&#45;&gt;3 -->
<g id="36" class="edge">
<title>5&#45;&gt;3</title>
<path fill="none" stroke="#444444" stroke-dasharray="5,2" d="M362.16,-498.86C402.47,-456.09 450.99,-412.47 503,-382.5 670.97,-285.72 887.42,-236.47 1045.12,-211.89"/>
<polygon fill="#444444" stroke="#444444" points="1046.07,-215.28 1055.42,-210.3 1045.01,-208.36 1046.07,-215.28"/>
<text text-anchor="start" x="598" y="-431.3" font-family="Arial" font-size="24.00" fill="#444444">2. Fetches source URL with</text>
<text text-anchor="start" x="612.5" y="-407.3" font-family="Arial" font-size="24.00" fill="#444444">Chrome cookie envelope</text>
<text text-anchor="start" x="605" y="-387.3" font-family="Arial" font-size="19.00" fill="#444444">[DOM; fetch(credentials: include)]</text>
</g>
</g>
</svg>
