<?xml version="1.0" encoding="UTF-8" standalone="no"?>
<!DOCTYPE svg PUBLIC "-//W3C//DTD SVG 1.1//EN"
 "http://www.w3.org/Graphics/SVG/1.1/DTD/svg11.dtd">
<!-- Generated by graphviz version 2.43.0 (0)
 -->
<!-- Title: %3 Pages: 1 -->
<svg width="2002pt" height="1349pt"
 viewBox="0.00 0.00 2002.00 1349.00" xmlns="http://www.w3.org/2000/svg" xmlns:xlink="http://www.w3.org/1999/xlink">
<g id="graph0" class="graph" transform="scale(1 1) rotate(0) translate(4 1345)">
<title>%3</title>
<polygon fill="white" stroke="transparent" points="-4,4 -4,-1345 1998,-1345 1998,4 -4,4"/>
<text text-anchor="start" x="412" y="-11.8" font-family="Arial" font-size="34.00">Component View: Browser Memory Daemon &#45; WSL Loopback HTTP Daemon</text>
<g id="clust1" class="cluster">
<title>cluster_4</title>
<polygon fill="none" stroke="#444444" points="8,-64 8,-1333 1986,-1333 1986,-64 8,-64"/>
<text text-anchor="start" x="856" y="-92.8" font-family="Arial" font-size="24.00" fill="#444444">Browser Memory Daemon</text>
<text text-anchor="start" x="920" y="-72.8" font-family="Arial" font-size="19.00" fill="#444444">[Software System]</text>
</g>
<g id="clust2" class="cluster">
<title>cluster_14</title>
<polygon fill="none" stroke="#444444" points="33,-610 33,-967 1234,-967 1234,-610 33,-610"/>
<text text-anchor="start" x="468" y="-638.8" font-family="Arial" font-size="24.00" fill="#444444">WSL Loopback HTTP Daemon</text>
<text text-anchor="start" x="431.5" y="-618.8" font-family="Arial" font-size="19.00" fill="#444444">[Container: Python 3.11, ThreadingHTTPServer]</text>
</g>
<!-- 15 -->
<g id="15" class="node">
<title>15</title>
<polygon fill="#85bbf0" stroke="#5d82a8" points="453,-941.5 58,-941.5 58,-710.5 453,-710.5 453,-941.5"/>
<text text-anchor="start" x="87" y="-893.3" font-family="Arial" font-size="34.00" fill="#000000">HTTP Request Router</text>
<text text-anchor="start" x="119" y="-871.3" font-family="Arial" font-size="19.00" fill="#000000">[Component: Python http.server]</text>
<text text-anchor="start" x="90" y="-834.3" font-family="Arial" font-size="24.00" fill="#000000">Routes loopback API requests,</text>
<text text-anchor="start" x="112.5" y="-810.3" font-family="Arial" font-size="24.00" fill="#000000">serves UI assets, enforces</text>
<text text-anchor="start" x="91.5" y="-786.3" font-family="Arial" font-size="24.00" fill="#000000">bearer auth for memory/admin</text>
<text text-anchor="start" x="106" y="-762.3" font-family="Arial" font-size="24.00" fill="#000000">APIs, and applies CORS for</text>
<text text-anchor="start" x="172" y="-738.3" font-family="Arial" font-size="24.00" fill="#000000">allowed origins.</text>
</g>
<!-- 21 -->
<g id="21" class="node">
<title>21</title>
<polygon fill="#85bbf0" stroke="#5d82a8" points="1209,-941.5 784,-941.5 784,-710.5 1209,-710.5 1209,-941.5"/>
<text text-anchor="start" x="813" y="-893.3" font-family="Arial" font-size="34.00" fill="#000000">Search and Read Model</text>
<text text-anchor="start" x="841.5" y="-871.3" font-family="Arial" font-size="19.00" fill="#000000">[Component: Python + SQLite FTS5]</text>
<text text-anchor="start" x="847.5" y="-834.3" font-family="Arial" font-size="24.00" fill="#000000">Provides exact FTS search,</text>
<text text-anchor="start" x="861" y="-810.3" font-family="Arial" font-size="24.00" fill="#000000">recent captures, timeline,</text>
<text text-anchor="start" x="855" y="-786.3" font-family="Arial" font-size="24.00" fill="#000000">document detail, snapshot</text>
<text text-anchor="start" x="864" y="-762.3" font-family="Arial" font-size="24.00" fill="#000000">detail, and media artifact</text>
<text text-anchor="start" x="930.5" y="-738.3" font-family="Arial" font-size="24.00" fill="#000000">detail views.</text>
</g>
<!-- 15&#45;&gt;21 -->
<g id="66" class="edge">
<title>15&#45;&gt;21</title>
<path fill="none" stroke="#444444" stroke-dasharray="5,2" d="M453.08,-826C551.78,-826 671.72,-826 773.7,-826"/>
<polygon fill="#444444" stroke="#444444" points="773.82,-829.5 783.82,-826 773.82,-822.5 773.82,-829.5"/>
<text text-anchor="start" x="489" y="-832.8" font-family="Arial" font-size="24.00" fill="#444444">Routes read requests to</text>
</g>
<!-- 27 -->
<g id="27" class="node">
<title>27</title>
<path fill="#2f95c8" stroke="#20688c" d="M1936.5,-585.72C1936.5,-608.98 1857.61,-627.88 1760.5,-627.88 1663.39,-627.88 1584.5,-608.98 1584.5,-585.72 1584.5,-585.72 1584.5,-206.28 1584.5,-206.28 1584.5,-183.02 1663.39,-164.12 1760.5,-164.12 1857.61,-164.12 1936.5,-183.02 1936.5,-206.28 1936.5,-206.28 1936.5,-585.72 1936.5,-585.72"/>
<path fill="none" stroke="#20688c" d="M1936.5,-585.72C1936.5,-562.45 1857.61,-543.56 1760.5,-543.56 1663.39,-543.56 1584.5,-562.45 1584.5,-585.72"/>
<text text-anchor="start" x="1647.5" y="-516.3" font-family="Arial" font-size="34.00" fill="#ffffff">SQLite + FTS5</text>
<text text-anchor="start" x="1687.5" y="-482.3" font-family="Arial" font-size="34.00" fill="#ffffff">Database</text>
<text text-anchor="start" x="1634.5" y="-460.3" font-family="Arial" font-size="19.00" fill="#ffffff">[Container: SQLite with FTS5]</text>
<text text-anchor="start" x="1641.5" y="-423.3" font-family="Arial" font-size="24.00" fill="#ffffff">Durable relational and</text>
<text text-anchor="start" x="1624" y="-399.3" font-family="Arial" font-size="24.00" fill="#ffffff">full&#45;text store for sources,</text>
<text text-anchor="start" x="1640" y="-375.3" font-family="Arial" font-size="24.00" fill="#ffffff">documents, visits, visit</text>
<text text-anchor="start" x="1614.5" y="-351.3" font-family="Arial" font-size="24.00" fill="#ffffff">events, snapshots, chunks,</text>
<text text-anchor="start" x="1613.5" y="-327.3" font-family="Arial" font-size="24.00" fill="#ffffff">chunks_fts, media artifacts,</text>
<text text-anchor="start" x="1628.5" y="-303.3" font-family="Arial" font-size="24.00" fill="#ffffff">media fetch tasks, policy</text>
<text text-anchor="start" x="1635" y="-279.3" font-family="Arial" font-size="24.00" fill="#ffffff">rules, audit events, and</text>
<text text-anchor="start" x="1668.5" y="-255.3" font-family="Arial" font-size="24.00" fill="#ffffff">deletion receipts.</text>
</g>
<!-- 21&#45;&gt;27 -->
<g id="76" class="edge">
<title>21&#45;&gt;27</title>
<path fill="none" stroke="#444444" stroke-dasharray="5,2" d="M1202.2,-710.49C1318.53,-644.84 1462.98,-563.33 1575.66,-499.74"/>
<polygon fill="#444444" stroke="#444444" points="1577.42,-502.77 1584.4,-494.81 1573.98,-496.67 1577.42,-502.77"/>
<text text-anchor="start" x="1245.5" y="-722.8" font-family="Arial" font-size="24.00" fill="#444444">Reads metadata and FTS</text>
<text text-anchor="start" x="1360" y="-698.8" font-family="Arial" font-size="24.00" fill="#444444">from</text>
<text text-anchor="start" x="1324" y="-678.8" font-family="Arial" font-size="19.00" fill="#444444">[SQLite FTS5]</text>
</g>
<!-- 28 -->
<g id="28" class="node">
<title>28</title>
<path fill="#2f95c8" stroke="#20688c" d="M1961,-928.78C1961,-941.39 1871.13,-951.63 1760.5,-951.63 1649.87,-951.63 1560,-941.39 1560,-928.78 1560,-928.78 1560,-723.22 1560,-723.22 1560,-710.61 1649.87,-700.37 1760.5,-700.37 1871.13,-700.37 1961,-710.61 1961,-723.22 1961,-723.22 1961,-928.78 1961,-928.78"/>
<path fill="none" stroke="#20688c" d="M1961,-928.78C1961,-916.18 1871.13,-905.94 1760.5,-905.94 1649.87,-905.94 1560,-916.18 1560,-928.78"/>
<text text-anchor="start" x="1596" y="-869.3" font-family="Arial" font-size="34.00" fill="#ffffff">Clean Text Blob Store</text>
<text text-anchor="start" x="1643" y="-847.3" font-family="Arial" font-size="19.00" fill="#ffffff">[Container: WSL filesystem]</text>
<text text-anchor="start" x="1602" y="-810.3" font-family="Arial" font-size="24.00" fill="#ffffff">Filesystem store for snapshot</text>
<text text-anchor="start" x="1589" y="-786.3" font-family="Arial" font-size="24.00" fill="#ffffff">text blobs under WSL XDG data</text>
<text text-anchor="start" x="1727" y="-762.3" font-family="Arial" font-size="24.00" fill="#ffffff">paths.</text>
</g>
<!-- 21&#45;&gt;28 -->
<g id="77" class="edge">
<title>21&#45;&gt;28</title>
<path fill="none" stroke="#444444" stroke-dasharray="5,2" d="M1209,-826C1315.24,-826 1443.57,-826 1549.58,-826"/>
<polygon fill="#444444" stroke="#444444" points="1549.77,-829.5 1559.77,-826 1549.77,-822.5 1549.77,-829.5"/>
<text text-anchor="start" x="1255" y="-874.8" font-family="Arial" font-size="24.00" fill="#444444">Reads full snapshot text</text>
<text text-anchor="start" x="1360" y="-850.8" font-family="Arial" font-size="24.00" fill="#444444">from</text>
<text text-anchor="start" x="1333" y="-830.8" font-family="Arial" font-size="19.00" fill="#444444">[Filesystem]</text>
</g>
<!-- 29 -->
<g id="29" class="node">
<title>29</title>
<path fill="#2f95c8" stroke="#20688c" d="M1960.5,-1282.28C1960.5,-1296.54 1870.86,-1308.13 1760.5,-1308.13 1650.14,-1308.13 1560.5,-1296.54 1560.5,-1282.28 1560.5,-1282.28 1560.5,-1049.72 1560.5,-1049.72 1560.5,-1035.46 1650.14,-1023.87 1760.5,-1023.87 1870.86,-1023.87 1960.5,-1035.46 1960.5,-1049.72 1960.5,-1049.72 1960.5,-1282.28 1960.5,-1282.28"/>
<path fill="none" stroke="#20688c" d="M1960.5,-1282.28C1960.5,-1268.03 1870.86,-1256.44 1760.5,-1256.44 1650.14,-1256.44 1560.5,-1268.03 1560.5,-1282.28"/>
<text text-anchor="start" x="1621.5" y="-1221.3" font-family="Arial" font-size="34.00" fill="#ffffff">Media Blob Cache</text>
<text text-anchor="start" x="1643" y="-1199.3" font-family="Arial" font-size="19.00" fill="#ffffff">[Container: WSL filesystem]</text>
<text text-anchor="start" x="1627" y="-1162.3" font-family="Arial" font-size="24.00" fill="#ffffff">Bounded and disposable</text>
<text text-anchor="start" x="1616" y="-1138.3" font-family="Arial" font-size="24.00" fill="#ffffff">filesystem cache for stored</text>
<text text-anchor="start" x="1605" y="-1114.3" font-family="Arial" font-size="24.00" fill="#ffffff">image/video/audio blobs with</text>
<text text-anchor="start" x="1589.5" y="-1090.3" font-family="Arial" font-size="24.00" fill="#ffffff">purge and rehydrate semantics.</text>
</g>
<!-- 21&#45;&gt;29 -->
<g id="78" class="edge">
<title>21&#45;&gt;29</title>
<path fill="none" stroke="#444444" stroke-dasharray="5,2" d="M1209,-920.37C1315.78,-968.01 1444.86,-1025.61 1551.19,-1073.05"/>
<polygon fill="#444444" stroke="#444444" points="1549.86,-1076.29 1560.42,-1077.17 1552.72,-1069.9 1549.86,-1076.29"/>
<text text-anchor="start" x="1245" y="-1104.8" font-family="Arial" font-size="24.00" fill="#444444">Checks and serves media</text>
<text text-anchor="start" x="1335" y="-1080.8" font-family="Arial" font-size="24.00" fill="#444444">files from</text>
<text text-anchor="start" x="1333" y="-1060.8" font-family="Arial" font-size="19.00" fill="#444444">[Filesystem]</text>
</g>
</g>
</svg>
