<?xml version="1.0" encoding="UTF-8" standalone="no"?>
<!DOCTYPE svg PUBLIC "-//W3C//DTD SVG 1.1//EN"
 "http://www.w3.org/Graphics/SVG/1.1/DTD/svg11.dtd">
<!-- Generated by graphviz version 2.43.0 (0)
 -->
<!-- Title: %3 Pages: 1 -->
<svg width="1963pt" height="1998pt"
 viewBox="0.00 0.00 1963.00 1998.38" xmlns="http://www.w3.org/2000/svg" xmlns:xlink="http://www.w3.org/1999/xlink">
<g id="graph0" class="graph" transform="scale(1 1) rotate(0) translate(4 1994.38)">
<title>%3</title>
<polygon fill="white" stroke="transparent" points="-4,4 -4,-1994.38 1959,-1994.38 1959,4 -4,4"/>
<text text-anchor="start" x="497" y="-11.8" font-family="Arial" font-size="34.00">Deployment View: Browser Memory Daemon &#45; Daily&#45;driver local</text>
<g id="clust1" class="cluster">
<title>cluster_85</title>
<polygon fill="none" stroke="#444444" points="8,-64 8,-1982.38 1947,-1982.38 1947,-64 8,-64"/>
<text text-anchor="start" x="883" y="-92.8" font-family="Arial" font-size="24.00" fill="#444444">Local workstation</text>
<text text-anchor="start" x="815.5" y="-72.8" font-family="Arial" font-size="19.00" fill="#444444">[Deployment Node: Windows + WSL2]</text>
</g>
<g id="clust2" class="cluster">
<title>cluster_86</title>
<polygon fill="none" stroke="#444444" points="624,-1476.38 624,-1957.38 1742,-1957.38 1742,-1476.38 624,-1476.38"/>
<text text-anchor="start" x="1070.5" y="-1505.17" font-family="Arial" font-size="24.00" fill="#444444">Windows user profile</text>
<text text-anchor="start" x="1029.5" y="-1485.17" font-family="Arial" font-size="19.00" fill="#444444">[Deployment Node: Windows profile]</text>
</g>
<g id="clust3" class="cluster">
<title>cluster_87</title>
<polygon fill="none" stroke="#444444" points="649,-1552.38 649,-1932.38 1717,-1932.38 1717,-1552.38 649,-1552.38"/>
<text text-anchor="start" x="988.5" y="-1581.17" font-family="Arial" font-size="24.00" fill="#444444">Windows Chrome daily&#45;driver profile</text>
<text text-anchor="start" x="1007.5" y="-1561.17" font-family="Arial" font-size="19.00" fill="#444444">[Deployment Node: Google Chrome MV3]</text>
</g>
<g id="clust4" class="cluster">
<title>cluster_93</title>
<polygon fill="none" stroke="#444444" points="33,-140 33,-1361.38 1922,-1361.38 1922,-140 33,-140"/>
<text text-anchor="start" x="902" y="-168.8" font-family="Arial" font-size="24.00" fill="#444444">WSL2 Ubuntu</text>
<text text-anchor="start" x="787" y="-148.8" font-family="Arial" font-size="19.00" fill="#444444">[Deployment Node: Ubuntu + systemd &#45;&#45;user]</text>
</g>
<g id="clust5" class="cluster">
<title>cluster_102</title>
<polygon fill="none" stroke="#444444" points="282,-216 282,-780.38 1628,-780.38 1628,-216 282,-216"/>
<text text-anchor="start" x="796" y="-244.8" font-family="Arial" font-size="24.00" fill="#444444">WSL XDG runtime data paths</text>
<text text-anchor="start" x="803" y="-224.8" font-family="Arial" font-size="19.00" fill="#444444">[Deployment Node: WSL filesystem]</text>
</g>
<g id="clust6" class="cluster">
<title>cluster_94</title>
<polygon fill="none" stroke="#444444" points="587,-898.38 587,-1336.38 1525,-1336.38 1525,-898.38 587,-898.38"/>
<text text-anchor="start" x="928" y="-927.17" font-family="Arial" font-size="24.00" fill="#444444">systemd &#45;&#45;user services</text>
<text text-anchor="start" x="907" y="-907.17" font-family="Arial" font-size="19.00" fill="#444444">[Deployment Node: systemd &#45;&#45;user]</text>
</g>
<!-- 88 -->
<g id="88" class="node">
<title>88</title>
<polygon fill="#438dd5" stroke="#2e6295" points="1108,-1907.38 674,-1907.38 674,-1628.38 1108,-1628.38 1108,-1907.38"/>
<text text-anchor="start" x="711" y="-1859.17" font-family="Arial" font-size="34.00" fill="#ffffff">Chrome MV3 Extension</text>
<text text-anchor="start" x="703" y="-1837.17" font-family="Arial" font-size="19.00" fill="#ffffff">[Container: JavaScript, Chrome Manifest V3]</text>
<text text-anchor="start" x="748" y="-1800.17" font-family="Arial" font-size="24.00" fill="#ffffff">Captures visible page text,</text>
<text text-anchor="start" x="773.5" y="-1776.17" font-family="Arial" font-size="24.00" fill="#ffffff">media references, tab</text>
<text text-anchor="start" x="782" y="-1752.17" font-family="Arial" font-size="24.00" fill="#ffffff">lifecycle events, and</text>
<text text-anchor="start" x="725" y="-1728.17" font-family="Arial" font-size="24.00" fill="#ffffff">browser&#45;side media bytes from</text>
<text text-anchor="start" x="720" y="-1704.17" font-family="Arial" font-size="24.00" fill="#ffffff">Windows Chrome; queues work</text>
<text text-anchor="start" x="732" y="-1680.17" font-family="Arial" font-size="24.00" fill="#ffffff">durably and posts to the WSL</text>
<text text-anchor="start" x="843.5" y="-1656.17" font-family="Arial" font-size="24.00" fill="#ffffff">daemon.</text>
</g>
<!-- 95 -->
<g id="95" class="node">
<title>95</title>
<polygon fill="#438dd5" stroke="#2e6295" points="1500,-1311.38 1038,-1311.38 1038,-974.38 1500,-974.38 1500,-1311.38"/>
<text text-anchor="start" x="1104.5" y="-1263.17" font-family="Arial" font-size="34.00" fill="#ffffff">WSL Loopback HTTP</text>
<text text-anchor="start" x="1204.5" y="-1229.17" font-family="Arial" font-size="34.00" fill="#ffffff">Daemon</text>
<text text-anchor="start" x="1067" y="-1207.17" font-family="Arial" font-size="19.00" fill="#ffffff">[Container: Python 3.11, ThreadingHTTPServer]</text>
<text text-anchor="start" x="1108" y="-1170.17" font-family="Arial" font-size="24.00" fill="#ffffff">Authenticated loopback HTTP</text>
<text text-anchor="start" x="1133" y="-1146.17" font-family="Arial" font-size="24.00" fill="#ffffff">API that handles capture,</text>
<text text-anchor="start" x="1129.5" y="-1122.17" font-family="Arial" font-size="24.00" fill="#ffffff">visit events, media artifact</text>
<text text-anchor="start" x="1132.5" y="-1098.17" font-family="Arial" font-size="24.00" fill="#ffffff">upload/fetch/purge, exact</text>
<text text-anchor="start" x="1229" y="-1074.17" font-family="Arial" font-size="24.00" fill="#ffffff">search,</text>
<text text-anchor="start" x="1120" y="-1050.17" font-family="Arial" font-size="24.00" fill="#ffffff">recent/timeline/detail, policy</text>
<text text-anchor="start" x="1138" y="-1026.17" font-family="Arial" font-size="24.00" fill="#ffffff">rules, doctor, forget, and</text>
<text text-anchor="start" x="1179.5" y="-1002.17" font-family="Arial" font-size="24.00" fill="#ffffff">static UI serving.</text>
</g>
<!-- 88&#45;&gt;95 -->
<g id="96" class="edge">
<title>88&#45;&gt;95</title>
<path fill="none" stroke="#444444" stroke-dasharray="5,2" d="M833.18,-1628.02C807.76,-1542.53 796.28,-1436.78 860,-1369.38 870.86,-1357.89 987.27,-1367.09 1002,-1361.38 1030.67,-1350.26 1058.6,-1334.83 1084.92,-1317.27"/>
<polygon fill="#444444" stroke="#444444" points="1087.11,-1320.01 1093.41,-1311.49 1083.18,-1314.22 1087.11,-1320.01"/>
<polygon fill="white" stroke="transparent" points="860,-1369.38 860,-1468.38 1355,-1468.38 1355,-1369.38 860,-1369.38"/>
<text text-anchor="start" x="982" y="-1445.67" font-family="Arial" font-size="24.00" fill="#444444">Posts captures, events,</text>
<text text-anchor="start" x="971" y="-1421.67" font-family="Arial" font-size="24.00" fill="#444444">media metadata, and raw</text>
<text text-anchor="start" x="1065.5" y="-1397.67" font-family="Arial" font-size="24.00" fill="#444444">blobs to</text>
<text text-anchor="start" x="864.5" y="-1377.67" font-family="Arial" font-size="19.00" fill="#444444">[Bearer HTTP/JSON; raw HTTP PUT over 127.0.0.1:8765]</text>
</g>
<!-- 91 -->
<g id="91" class="node">
<title>91</title>
<polygon fill="#438dd5" stroke="#2e6295" points="1692,-1895.38 1180,-1895.38 1180,-1640.38 1692,-1640.38 1692,-1895.38"/>
<text text-anchor="start" x="1333.5" y="-1847.17" font-family="Arial" font-size="34.00" fill="#ffffff">Local Web UI</text>
<text text-anchor="start" x="1209" y="-1825.17" font-family="Arial" font-size="19.00" fill="#ffffff">[Container: HTML/CSS/JavaScript served by daemon]</text>
<text text-anchor="start" x="1294" y="-1788.17" font-family="Arial" font-size="24.00" fill="#ffffff">Static browser UI for exact</text>
<text text-anchor="start" x="1277" y="-1764.17" font-family="Arial" font-size="24.00" fill="#ffffff">search, recent/timeline views,</text>
<text text-anchor="start" x="1294.5" y="-1740.17" font-family="Arial" font-size="24.00" fill="#ffffff">document/snapshot detail,</text>
<text text-anchor="start" x="1279" y="-1716.17" font-family="Arial" font-size="24.00" fill="#ffffff">media artifact opening, policy</text>
<text text-anchor="start" x="1342.5" y="-1692.17" font-family="Arial" font-size="24.00" fill="#ffffff">rules, doctor, and</text>
<text text-anchor="start" x="1297.5" y="-1668.17" font-family="Arial" font-size="24.00" fill="#ffffff">forget&#45;domain operations.</text>
</g>
<!-- 91&#45;&gt;95 -->
<g id="97" class="edge">
<title>91&#45;&gt;95</title>
<path fill="none" stroke="#444444" stroke-dasharray="5,2" d="M1424.88,-1640.01C1415.76,-1560.95 1399.84,-1457.8 1373,-1369.38 1368.16,-1353.43 1362.41,-1337.15 1356.13,-1321.01"/>
<polygon fill="#444444" stroke="#444444" points="1359.32,-1319.54 1352.38,-1311.53 1352.81,-1322.11 1359.32,-1319.54"/>
<polygon fill="white" stroke="transparent" points="1397,-1369.38 1397,-1468.38 1674,-1468.38 1674,-1369.38 1397,-1369.38"/>
<text text-anchor="start" x="1402" y="-1445.67" font-family="Arial" font-size="24.00" fill="#444444">Calls authenticated read,</text>
<text text-anchor="start" x="1401.5" y="-1421.67" font-family="Arial" font-size="24.00" fill="#444444">admin, media, and forget</text>
<text text-anchor="start" x="1493.5" y="-1397.67" font-family="Arial" font-size="24.00" fill="#444444">APIs on</text>
<text text-anchor="start" x="1478" y="-1377.67" font-family="Arial" font-size="19.00" fill="#444444">[HTTP/JSON]</text>
</g>
<!-- 103 -->
<g id="103" class="node">
<title>103</title>
<path fill="#2f95c8" stroke="#20688c" d="M1131,-713.4C1131,-736.67 1052.11,-755.56 955,-755.56 857.89,-755.56 779,-736.67 779,-713.4 779,-713.4 779,-333.97 779,-333.97 779,-310.71 857.89,-291.81 955,-291.81 1052.11,-291.81 1131,-310.71 1131,-333.97 1131,-333.97 1131,-713.4 1131,-713.4"/>
<path fill="none" stroke="#20688c" d="M1131,-713.4C1131,-690.14 1052.11,-671.24 955,-671.24 857.89,-671.24 779,-690.14 779,-713.4"/>
<text text-anchor="start" x="842" y="-643.99" font-family="Arial" font-size="34.00" fill="#ffffff">SQLite + FTS5</text>
<text text-anchor="start" x="882" y="-609.99" font-family="Arial" font-size="34.00" fill="#ffffff">Database</text>
<text text-anchor="start" x="829" y="-587.99" font-family="Arial" font-size="19.00" fill="#ffffff">[Container: SQLite with FTS5]</text>
<text text-anchor="start" x="836" y="-550.99" font-family="Arial" font-size="24.00" fill="#ffffff">Durable relational and</text>
<text text-anchor="start" x="818.5" y="-526.99" font-family="Arial" font-size="24.00" fill="#ffffff">full&#45;text store for sources,</text>
<text text-anchor="start" x="834.5" y="-502.99" font-family="Arial" font-size="24.00" fill="#ffffff">documents, visits, visit</text>
<text text-anchor="start" x="809" y="-478.99" font-family="Arial" font-size="24.00" fill="#ffffff">events, snapshots, chunks,</text>
<text text-anchor="start" x="808" y="-454.99" font-family="Arial" font-size="24.00" fill="#ffffff">chunks_fts, media artifacts,</text>
<text text-anchor="start" x="823" y="-430.99" font-family="Arial" font-size="24.00" fill="#ffffff">media fetch tasks, policy</text>
<text text-anchor="start" x="829.5" y="-406.99" font-family="Arial" font-size="24.00" fill="#ffffff">rules, audit events, and</text>
<text text-anchor="start" x="863" y="-382.99" font-family="Arial" font-size="24.00" fill="#ffffff">deletion receipts.</text>
</g>
<!-- 107 -->
<g id="107" class="node">
<title>107</title>
<path fill="#2f95c8" stroke="#20688c" d="M1603.5,-626.47C1603.5,-639.08 1513.63,-649.31 1403,-649.31 1292.37,-649.31 1202.5,-639.08 1202.5,-626.47 1202.5,-626.47 1202.5,-420.9 1202.5,-420.9 1202.5,-408.3 1292.37,-398.06 1403,-398.06 1513.63,-398.06 1603.5,-408.3 1603.5,-420.9 1603.5,-420.9 1603.5,-626.47 1603.5,-626.47"/>
<path fill="none" stroke="#20688c" d="M1603.5,-626.47C1603.5,-613.87 1513.63,-603.63 1403,-603.63 1292.37,-603.63 1202.5,-613.87 1202.5,-626.47"/>
<text text-anchor="start" x="1238.5" y="-566.99" font-family="Arial" font-size="34.00" fill="#ffffff">Clean Text Blob Store</text>
<text text-anchor="start" x="1285.5" y="-544.99" font-family="Arial" font-size="19.00" fill="#ffffff">[Container: WSL filesystem]</text>
<text text-anchor="start" x="1244.5" y="-507.99" font-family="Arial" font-size="24.00" fill="#ffffff">Filesystem store for snapshot</text>
<text text-anchor="start" x="1231.5" y="-483.99" font-family="Arial" font-size="24.00" fill="#ffffff">text blobs under WSL XDG data</text>
<text text-anchor="start" x="1369.5" y="-459.99" font-family="Arial" font-size="24.00" fill="#ffffff">paths.</text>
</g>
<!-- 109 -->
<g id="109" class="node">
<title>109</title>
<path fill="#2f95c8" stroke="#20688c" d="M707,-639.97C707,-654.23 617.36,-665.81 507,-665.81 396.64,-665.81 307,-654.23 307,-639.97 307,-639.97 307,-407.4 307,-407.4 307,-393.14 396.64,-381.56 507,-381.56 617.36,-381.56 707,-393.14 707,-407.4 707,-407.4 707,-639.97 707,-639.97"/>
<path fill="none" stroke="#20688c" d="M707,-639.97C707,-625.71 617.36,-614.13 507,-614.13 396.64,-614.13 307,-625.71 307,-639.97"/>
<text text-anchor="start" x="368" y="-578.99" font-family="Arial" font-size="34.00" fill="#ffffff">Media Blob Cache</text>
<text text-anchor="start" x="389.5" y="-556.99" font-family="Arial" font-size="19.00" fill="#ffffff">[Container: WSL filesystem]</text>
<text text-anchor="start" x="373.5" y="-519.99" font-family="Arial" font-size="24.00" fill="#ffffff">Bounded and disposable</text>
<text text-anchor="start" x="362.5" y="-495.99" font-family="Arial" font-size="24.00" fill="#ffffff">filesystem cache for stored</text>
<text text-anchor="start" x="351.5" y="-471.99" font-family="Arial" font-size="24.00" fill="#ffffff">image/video/audio blobs with</text>
<text text-anchor="start" x="336" y="-447.99" font-family="Arial" font-size="24.00" fill="#ffffff">purge and rehydrate semantics.</text>
</g>
<!-- 95&#45;&gt;103 -->
<g id="104" class="edge">
<title>95&#45;&gt;103</title>
<path fill="none" stroke="#444444" stroke-dasharray="5,2" d="M1264.68,-974.23C1255.38,-911.02 1235.12,-842.19 1193,-791.38 1184.99,-781.71 1177.07,-787.86 1167,-780.38 1153.27,-770.16 1139.87,-758.88 1126.92,-746.92"/>
<polygon fill="#444444" stroke="#444444" points="1129.02,-744.1 1119.34,-739.8 1124.23,-749.2 1129.02,-744.1"/>
<polygon fill="white" stroke="transparent" points="1243,-791.38 1243,-890.38 1553,-890.38 1553,-791.38 1243,-791.38"/>
<text text-anchor="start" x="1247" y="-867.67" font-family="Arial" font-size="24.00" fill="#444444">Reads and writes metadata,</text>
<text text-anchor="start" x="1280" y="-843.67" font-family="Arial" font-size="24.00" fill="#444444">FTS, tasks, audit, and</text>
<text text-anchor="start" x="1342.5" y="-819.67" font-family="Arial" font-size="24.00" fill="#444444">receipts in</text>
<text text-anchor="start" x="1364.5" y="-799.67" font-family="Arial" font-size="19.00" fill="#444444">[sqlite3]</text>
</g>
<!-- 95&#45;&gt;107 -->
<g id="108" class="edge">
<title>95&#45;&gt;107</title>
<path fill="none" stroke="#444444" stroke-dasharray="5,2" d="M1500.25,-996.25C1532.52,-965.41 1561.08,-930.01 1580,-890.38 1617.01,-812.85 1578.74,-726.31 1528.44,-656.89"/>
<polygon fill="#444444" stroke="#444444" points="1531.01,-654.48 1522.25,-648.51 1525.38,-658.64 1531.01,-654.48"/>
<polygon fill="white" stroke="transparent" points="1594,-803.38 1594,-878.38 1835,-878.38 1835,-803.38 1594,-803.38"/>
<text text-anchor="start" x="1598.5" y="-855.67" font-family="Arial" font-size="24.00" fill="#444444">Reads and writes text</text>
<text text-anchor="start" x="1647" y="-831.67" font-family="Arial" font-size="24.00" fill="#444444">snapshots in</text>
<text text-anchor="start" x="1663.5" y="-811.67" font-family="Arial" font-size="19.00" fill="#444444">[Filesystem]</text>
</g>
<!-- 95&#45;&gt;109 -->
<g id="110" class="edge">
<title>95&#45;&gt;109</title>
<path fill="none" stroke="#444444" stroke-dasharray="5,2" d="M1122.18,-974.26C1086.2,-943.46 1045.44,-915.63 1002,-898.38 989.74,-893.5 536.51,-899.53 527,-890.38 471.11,-836.56 463.96,-750.97 471.78,-676.11"/>
<polygon fill="#444444" stroke="#444444" points="475.26,-676.43 472.92,-666.1 468.31,-675.64 475.26,-676.43"/>
<polygon fill="white" stroke="transparent" points="527,-791.38 527,-890.38 835,-890.38 835,-791.38 527,-791.38"/>
<text text-anchor="start" x="556" y="-867.67" font-family="Arial" font-size="24.00" fill="#444444">Stores, serves, purges,</text>
<text text-anchor="start" x="531" y="-843.67" font-family="Arial" font-size="24.00" fill="#444444">and rehydrates media blobs</text>
<text text-anchor="start" x="671.5" y="-819.67" font-family="Arial" font-size="24.00" fill="#444444">in</text>
<text text-anchor="start" x="629.5" y="-799.67" font-family="Arial" font-size="19.00" fill="#444444">[Filesystem]</text>
</g>
<!-- 98 -->
<g id="98" class="node">
<title>98</title>
<polygon fill="#438dd5" stroke="#2e6295" points="966,-1294.38 612,-1294.38 612,-991.38 966,-991.38 966,-1294.38"/>
<text text-anchor="start" x="642" y="-1246.17" font-family="Arial" font-size="34.00" fill="#ffffff">WSL Media Worker</text>
<text text-anchor="start" x="649" y="-1224.17" font-family="Arial" font-size="19.00" fill="#ffffff">[Container: Python 3.11 CLI loop]</text>
<text text-anchor="start" x="641.5" y="-1187.17" font-family="Arial" font-size="24.00" fill="#ffffff">Long&#45;running systemd user</text>
<text text-anchor="start" x="690.5" y="-1163.17" font-family="Arial" font-size="24.00" fill="#ffffff">worker that leases</text>
<text text-anchor="start" x="643" y="-1139.17" font-family="Arial" font-size="24.00" fill="#ffffff">daemon&#45;public media fetch</text>
<text text-anchor="start" x="680" y="-1115.17" font-family="Arial" font-size="24.00" fill="#ffffff">tasks, fetches public</text>
<text text-anchor="start" x="641" y="-1091.17" font-family="Arial" font-size="24.00" fill="#ffffff">media/HLS without Chrome</text>
<text text-anchor="start" x="646" y="-1067.17" font-family="Arial" font-size="24.00" fill="#ffffff">cookies, classifies terminal</text>
<text text-anchor="start" x="643" y="-1043.17" font-family="Arial" font-size="24.00" fill="#ffffff">states, and updates artifact</text>
<text text-anchor="start" x="760" y="-1019.17" font-family="Arial" font-size="24.00" fill="#ffffff">rows.</text>
</g>
<!-- 98&#45;&gt;103 -->
<g id="105" class="edge">
<title>98&#45;&gt;103</title>
<path fill="none" stroke="#444444" stroke-dasharray="5,2" d="M826.79,-991.12C842.56,-929.14 861.3,-856.71 879,-791.38 881.31,-782.85 883.68,-774.18 886.08,-765.42"/>
<polygon fill="#444444" stroke="#444444" points="889.53,-766.07 888.82,-755.5 882.79,-764.21 889.53,-766.07"/>
<polygon fill="white" stroke="transparent" points="879,-803.38 879,-878.38 1179,-878.38 1179,-803.38 879,-803.38"/>
<text text-anchor="start" x="883" y="-855.67" font-family="Arial" font-size="24.00" fill="#444444">Leases and updates media</text>
<text text-anchor="start" x="988" y="-831.67" font-family="Arial" font-size="24.00" fill="#444444">tasks in</text>
<text text-anchor="start" x="995.5" y="-811.67" font-family="Arial" font-size="19.00" fill="#444444">[sqlite3]</text>
</g>
<!-- 98&#45;&gt;109 -->
<g id="111" class="edge">
<title>98&#45;&gt;109</title>
<path fill="none" stroke="#444444" stroke-dasharray="5,2" d="M611.8,-1129.78C452.69,-1108.43 227.65,-1049.93 117,-890.38 42.16,-782.45 169.2,-682.11 297.82,-613.94"/>
<polygon fill="#444444" stroke="#444444" points="299.45,-617.04 306.68,-609.3 296.2,-610.84 299.45,-617.04"/>
<polygon fill="white" stroke="transparent" points="117,-803.38 117,-878.38 417,-878.38 417,-803.38 117,-803.38"/>
<text text-anchor="start" x="121" y="-855.67" font-family="Arial" font-size="24.00" fill="#444444">Writes fetched media blobs</text>
<text text-anchor="start" x="256.5" y="-831.67" font-family="Arial" font-size="24.00" fill="#444444">to</text>
<text text-anchor="start" x="215.5" y="-811.67" font-family="Arial" font-size="19.00" fill="#444444">[Filesystem]</text>
</g>
</g>
</svg>
