<?xml version="1.0" encoding="UTF-8" standalone="no"?>
<!DOCTYPE svg PUBLIC "-//W3C//DTD SVG 1.1//EN"
 "http://www.w3.org/Graphics/SVG/1.1/DTD/svg11.dtd">
<!-- Generated by graphviz version 2.43.0 (0)
 -->
<!-- Title: %3 Pages: 1 -->
<svg width="1985pt" height="1481pt"
 viewBox="0.00 0.00 1985.00 1481.00" xmlns="http://www.w3.org/2000/svg" xmlns:xlink="http://www.w3.org/1999/xlink">
<g id="graph0" class="graph" transform="scale(1 1) rotate(0) translate(4 1477)">
<title>%3</title>
<polygon fill="white" stroke="transparent" points="-4,4 -4,-1477 1981,-1477 1981,4 -4,4"/>
<text text-anchor="start" x="403.5" y="-11.8" font-family="Arial" font-size="34.00">Component View: Browser Memory Daemon &#45; WSL Loopback HTTP Daemon</text>
<g id="clust1" class="cluster">
<title>cluster_4</title>
<polygon fill="none" stroke="#444444" points="8,-64 8,-1465 1969,-1465 1969,-64 8,-64"/>
<text text-anchor="start" x="847.5" y="-92.8" font-family="Arial" font-size="24.00" fill="#444444">Browser Memory Daemon</text>
<text text-anchor="start" x="911.5" y="-72.8" font-family="Arial" font-size="19.00" fill="#444444">[Software System]</text>
</g>
<g id="clust2" class="cluster">
<title>cluster_14</title>
<polygon fill="none" stroke="#444444" points="33,-610 33,-967 1210,-967 1210,-610 33,-610"/>
<text text-anchor="start" x="456" y="-638.8" font-family="Arial" font-size="24.00" fill="#444444">WSL Loopback HTTP Daemon</text>
<text text-anchor="start" x="419.5" y="-618.8" font-family="Arial" font-size="19.00" fill="#444444">[Container: Python 3.11, ThreadingHTTPServer]</text>
</g>
<!-- 15 -->
<g id="15" class="node">
<title>15</title>
<polygon fill="#85bbf0" stroke="#5d82a8" points="453,-941.5 58,-941.5 58,-710.5 453,-710.5 453,-941.5"/>
<text text-anchor="start" x="87" y="-893.3" font-family="Arial" font-size="34.00" fill="#000000">HTTP Request Router</text>
<text text-anchor="start" x="119" y="-871.3" font-family="Arial" font-size="19.00" fill="#000000">[Component: Python http.server]</text>
<text text-anchor="start" x="90" y="-834.3" font-family="Arial" font-size="24.00" fill="#000000">Routes loopback API requests,</text>
<text text-anchor="start" x="112.5" y="-810.3" font-family="Arial" font-size="24.00" fill="#000000">serves UI assets, enforces</text>
<text text-anchor="start" x="91.5" y="-786.3" font-family="Arial" font-size="24.00" fill="#000000">bearer auth for memory/admin</text>
<text text-anchor="start" x="106" y="-762.3" font-family="Arial" font-size="24.00" fill="#000000">APIs, and applies CORS for</text>
<text text-anchor="start" x="172" y="-738.3" font-family="Arial" font-size="24.00" fill="#000000">allowed origins.</text>
</g>
<!-- 22 -->
<g id="22" class="node">
<title>22</title>
<polygon fill="#85bbf0" stroke="#5d82a8" points="1185,-941.5 806,-941.5 806,-710.5 1185,-710.5 1185,-941.5"/>
<text text-anchor="start" x="881" y="-893.3" font-family="Arial" font-size="34.00" fill="#000000">Forget Pipeline</text>
<text text-anchor="start" x="867.5" y="-871.3" font-family="Arial" font-size="19.00" fill="#000000">[Component: Python + sqlite3]</text>
<text text-anchor="start" x="840.5" y="-834.3" font-family="Arial" font-size="24.00" fill="#000000">Deletes URL/domain&#45;scoped</text>
<text text-anchor="start" x="849.5" y="-810.3" font-family="Arial" font-size="24.00" fill="#000000">memory rows, FTS entries,</text>
<text text-anchor="start" x="835" y="-786.3" font-family="Arial" font-size="24.00" fill="#000000">clean&#45;text blobs, media blobs,</text>
<text text-anchor="start" x="852.5" y="-762.3" font-family="Arial" font-size="24.00" fill="#000000">lifecycle rows, and records</text>
<text text-anchor="start" x="903.5" y="-738.3" font-family="Arial" font-size="24.00" fill="#000000">deletion receipts.</text>
</g>
<!-- 15&#45;&gt;22 -->
<g id="67" class="edge">
<title>15&#45;&gt;22</title>
<path fill="none" stroke="#444444" stroke-dasharray="5,2" d="M453.3,-826C559.2,-826 689.48,-826 795.68,-826"/>
<polygon fill="#444444" stroke="#444444" points="795.88,-829.5 805.88,-826 795.88,-822.5 795.88,-829.5"/>
<polygon fill="white" stroke="transparent" points="489,-826 489,-860 770,-860 770,-826 489,-826"/>
<text text-anchor="start" x="493.5" y="-836.8" font-family="Arial" font-size="24.00" fill="#444444">Routes forget requests to</text>
</g>
<!-- 27 -->
<g id="27" class="node">
<title>27</title>
<path fill="#2f95c8" stroke="#20688c" d="M1918,-585.72C1918,-608.98 1839.11,-627.88 1742,-627.88 1644.89,-627.88 1566,-608.98 1566,-585.72 1566,-585.72 1566,-206.28 1566,-206.28 1566,-183.02 1644.89,-164.12 1742,-164.12 1839.11,-164.12 1918,-183.02 1918,-206.28 1918,-206.28 1918,-585.72 1918,-585.72"/>
<path fill="none" stroke="#20688c" d="M1918,-585.72C1918,-562.45 1839.11,-543.56 1742,-543.56 1644.89,-543.56 1566,-562.45 1566,-585.72"/>
<text text-anchor="start" x="1629" y="-516.3" font-family="Arial" font-size="34.00" fill="#ffffff">SQLite + FTS5</text>
<text text-anchor="start" x="1669" y="-482.3" font-family="Arial" font-size="34.00" fill="#ffffff">Database</text>
<text text-anchor="start" x="1616" y="-460.3" font-family="Arial" font-size="19.00" fill="#ffffff">[Container: SQLite with FTS5]</text>
<text text-anchor="start" x="1623" y="-423.3" font-family="Arial" font-size="24.00" fill="#ffffff">Durable relational and</text>
<text text-anchor="start" x="1605.5" y="-399.3" font-family="Arial" font-size="24.00" fill="#ffffff">full&#45;text store for sources,</text>
<text text-anchor="start" x="1621.5" y="-375.3" font-family="Arial" font-size="24.00" fill="#ffffff">documents, visits, visit</text>
<text text-anchor="start" x="1596" y="-351.3" font-family="Arial" font-size="24.00" fill="#ffffff">events, snapshots, chunks,</text>
<text text-anchor="start" x="1595" y="-327.3" font-family="Arial" font-size="24.00" fill="#ffffff">chunks_fts, media artifacts,</text>
<text text-anchor="start" x="1610" y="-303.3" font-family="Arial" font-size="24.00" fill="#ffffff">media fetch tasks, policy</text>
<text text-anchor="start" x="1616.5" y="-279.3" font-family="Arial" font-size="24.00" fill="#ffffff">rules, audit events, and</text>
<text text-anchor="start" x="1650" y="-255.3" font-family="Arial" font-size="24.00" fill="#ffffff">deletion receipts.</text>
</g>
<!-- 22&#45;&gt;27 -->
<g id="79" class="edge">
<title>22&#45;&gt;27</title>
<path fill="none" stroke="#444444" stroke-dasharray="5,2" d="M1185.33,-716.94C1299.32,-651.1 1443.9,-567.59 1557.01,-502.27"/>
<polygon fill="#444444" stroke="#444444" points="1558.88,-505.23 1565.79,-497.2 1555.38,-499.17 1558.88,-505.23"/>
<polygon fill="white" stroke="transparent" points="1221,-686 1221,-761 1504,-761 1504,-686 1221,-686"/>
<text text-anchor="start" x="1225.5" y="-738.3" font-family="Arial" font-size="24.00" fill="#444444">Deletes rows and records</text>
<text text-anchor="start" x="1307.5" y="-714.3" font-family="Arial" font-size="24.00" fill="#444444">receipts in</text>
<text text-anchor="start" x="1329.5" y="-694.3" font-family="Arial" font-size="19.00" fill="#444444">[sqlite3]</text>
</g>
<!-- 28 -->
<g id="28" class="node">
<title>28</title>
<path fill="#2f95c8" stroke="#20688c" d="M1942.5,-928.78C1942.5,-941.39 1852.63,-951.63 1742,-951.63 1631.37,-951.63 1541.5,-941.39 1541.5,-928.78 1541.5,-928.78 1541.5,-723.22 1541.5,-723.22 1541.5,-710.61 1631.37,-700.37 1742,-700.37 1852.63,-700.37 1942.5,-710.61 1942.5,-723.22 1942.5,-723.22 1942.5,-928.78 1942.5,-928.78"/>
<path fill="none" stroke="#20688c" d="M1942.5,-928.78C1942.5,-916.18 1852.63,-905.94 1742,-905.94 1631.37,-905.94 1541.5,-916.18 1541.5,-928.78"/>
<text text-anchor="start" x="1577.5" y="-869.3" font-family="Arial" font-size="34.00" fill="#ffffff">Clean Text Blob Store</text>
<text text-anchor="start" x="1624.5" y="-847.3" font-family="Arial" font-size="19.00" fill="#ffffff">[Container: WSL filesystem]</text>
<text text-anchor="start" x="1583.5" y="-810.3" font-family="Arial" font-size="24.00" fill="#ffffff">Filesystem store for snapshot</text>
<text text-anchor="start" x="1570.5" y="-786.3" font-family="Arial" font-size="24.00" fill="#ffffff">text blobs under WSL XDG data</text>
<text text-anchor="start" x="1708.5" y="-762.3" font-family="Arial" font-size="24.00" fill="#ffffff">paths.</text>
</g>
<!-- 22&#45;&gt;28 -->
<g id="80" class="edge">
<title>22&#45;&gt;28</title>
<path fill="none" stroke="#444444" stroke-dasharray="5,2" d="M1185.33,-826C1290.81,-826 1422.49,-826 1531.18,-826"/>
<polygon fill="#444444" stroke="#444444" points="1531.3,-829.5 1541.3,-826 1531.3,-822.5 1531.3,-829.5"/>
<polygon fill="white" stroke="transparent" points="1234.5,-826 1234.5,-877 1490.5,-877 1490.5,-826 1234.5,-826"/>
<text text-anchor="start" x="1238.5" y="-854.3" font-family="Arial" font-size="24.00" fill="#444444">Deletes text blobs from</text>
<text text-anchor="start" x="1311" y="-834.3" font-family="Arial" font-size="19.00" fill="#444444">[Filesystem]</text>
</g>
<!-- 29 -->
<g id="29" class="node">
<title>29</title>
<path fill="#2f95c8" stroke="#20688c" d="M1944,-1402.28C1944,-1423.16 1853.46,-1440.13 1742,-1440.13 1630.54,-1440.13 1540,-1423.16 1540,-1402.28 1540,-1402.28 1540,-1061.72 1540,-1061.72 1540,-1040.84 1630.54,-1023.87 1742,-1023.87 1853.46,-1023.87 1944,-1040.84 1944,-1061.72 1944,-1061.72 1944,-1402.28 1944,-1402.28"/>
<path fill="none" stroke="#20688c" d="M1944,-1402.28C1944,-1381.4 1853.46,-1364.44 1742,-1364.44 1630.54,-1364.44 1540,-1381.4 1540,-1402.28"/>
<text text-anchor="start" x="1603" y="-1335.3" font-family="Arial" font-size="34.00" fill="#ffffff">Media Blob Cache</text>
<text text-anchor="start" x="1624.5" y="-1313.3" font-family="Arial" font-size="19.00" fill="#ffffff">[Container: WSL filesystem]</text>
<text text-anchor="start" x="1608.5" y="-1276.3" font-family="Arial" font-size="24.00" fill="#ffffff">Bounded and disposable</text>
<text text-anchor="start" x="1597.5" y="-1252.3" font-family="Arial" font-size="24.00" fill="#ffffff">filesystem cache for stored</text>
<text text-anchor="start" x="1586.5" y="-1228.3" font-family="Arial" font-size="24.00" fill="#ffffff">image/video/audio blobs with</text>
<text text-anchor="start" x="1574.5" y="-1204.3" font-family="Arial" font-size="24.00" fill="#ffffff">purge/rehydrate semantics that</text>
<text text-anchor="start" x="1585.5" y="-1180.3" font-family="Arial" font-size="24.00" fill="#ffffff">preserve media refs, hashes,</text>
<text text-anchor="start" x="1569" y="-1156.3" font-family="Arial" font-size="24.00" fill="#ffffff">status reasons, and provenance</text>
<text text-anchor="start" x="1605.5" y="-1132.3" font-family="Arial" font-size="24.00" fill="#ffffff">when bytes are absent or</text>
<text text-anchor="start" x="1700.5" y="-1108.3" font-family="Arial" font-size="24.00" fill="#ffffff">purged.</text>
</g>
<!-- 22&#45;&gt;29 -->
<g id="81" class="edge">
<title>22&#45;&gt;29</title>
<path fill="none" stroke="#444444" stroke-dasharray="5,2" d="M1185.33,-928.98C1290.71,-986.44 1422.24,-1058.17 1530.87,-1117.41"/>
<polygon fill="#444444" stroke="#444444" points="1529.53,-1120.66 1539.98,-1122.38 1532.88,-1114.52 1529.53,-1120.66"/>
<polygon fill="white" stroke="transparent" points="1221,-1100 1221,-1151 1504,-1151 1504,-1100 1221,-1100"/>
<text text-anchor="start" x="1225.5" y="-1128.3" font-family="Arial" font-size="24.00" fill="#444444">Deletes media blobs from</text>
<text text-anchor="start" x="1311.5" y="-1108.3" font-family="Arial" font-size="19.00" fill="#444444">[Filesystem]</text>
</g>
</g>
</svg>
