<?xml version="1.0" encoding="UTF-8" standalone="no"?>
<!DOCTYPE svg PUBLIC "-//W3C//DTD SVG 1.1//EN"
 "http://www.w3.org/Graphics/SVG/1.1/DTD/svg11.dtd">
<!-- Generated by graphviz version 2.43.0 (0)
 -->
<!-- Title: %3 Pages: 1 -->
<svg width="2980pt" height="610pt"
 viewBox="0.00 0.00 2980.00 610.00" xmlns="http://www.w3.org/2000/svg" xmlns:xlink="http://www.w3.org/1999/xlink">
<g id="graph0" class="graph" transform="scale(1 1) rotate(0) translate(4 606)">
<title>%3</title>
<polygon fill="white" stroke="transparent" points="-4,4 -4,-606 2976,-606 2976,4 -4,4"/>
<text text-anchor="start" x="1116.5" y="-11.8" font-family="Arial" font-size="34.00">System Context View: Browser Memory Daemon</text>
<!-- 1 -->
<g id="1" class="node">
<title>1</title>
<polygon fill="#08427b" stroke="#052e56" points="408,-459 0,-459 0,-252 408,-252 408,-459"/>
<text text-anchor="start" x="145" y="-410.8" font-family="Arial" font-size="34.00" fill="#ffffff">Operator</text>
<text text-anchor="start" x="168.5" y="-388.8" font-family="Arial" font-size="19.00" fill="#ffffff">[Person]</text>
<text text-anchor="start" x="32.5" y="-351.8" font-family="Arial" font-size="24.00" fill="#ffffff">Sole operator who browses with</text>
<text text-anchor="start" x="29" y="-327.8" font-family="Arial" font-size="24.00" fill="#ffffff">Windows Chrome and searches,</text>
<text text-anchor="start" x="65.5" y="-303.8" font-family="Arial" font-size="24.00" fill="#ffffff">reviews, and deletes local</text>
<text text-anchor="start" x="65.5" y="-279.8" font-family="Arial" font-size="24.00" fill="#ffffff">browser&#45;memory records.</text>
</g>
<!-- 2 -->
<g id="2" class="node">
<title>2</title>
<polygon fill="#999999" stroke="#6b6b6b" points="2053,-602 1667,-602 1667,-371 2053,-371 2053,-602"/>
<text text-anchor="start" x="1725.5" y="-553.8" font-family="Arial" font-size="34.00" fill="#ffffff">Windows Chrome</text>
<text text-anchor="start" x="1783" y="-531.8" font-family="Arial" font-size="19.00" fill="#ffffff">[Software System]</text>
<text text-anchor="start" x="1696" y="-494.8" font-family="Arial" font-size="24.00" fill="#ffffff">The Windows Chrome runtime</text>
<text text-anchor="start" x="1709.5" y="-470.8" font-family="Arial" font-size="24.00" fill="#ffffff">that loads web pages, hosts</text>
<text text-anchor="start" x="1709" y="-446.8" font-family="Arial" font-size="24.00" fill="#ffffff">the MV3 extension, runs the</text>
<text text-anchor="start" x="1701" y="-422.8" font-family="Arial" font-size="24.00" fill="#ffffff">local UI in a tab, and exposes</text>
<text text-anchor="start" x="1730.5" y="-398.8" font-family="Arial" font-size="24.00" fill="#ffffff">Chrome extension APIs.</text>
</g>
<!-- 1&#45;&gt;2 -->
<g id="30" class="edge">
<title>1&#45;&gt;2</title>
<path fill="none" stroke="#444444" stroke-dasharray="5,2" d="M408.06,-399.21C420.19,-401.17 432.24,-402.96 444,-404.5 873.46,-460.67 1381.27,-478.36 1656.68,-483.94"/>
<polygon fill="#444444" stroke="#444444" points="1656.72,-487.44 1666.78,-484.14 1656.86,-480.44 1656.72,-487.44"/>
<text text-anchor="start" x="826" y="-473.3" font-family="Arial" font-size="24.00" fill="#444444">Browses web pages with</text>
</g>
<!-- 4 -->
<g id="4" class="node">
<title>4</title>
<polygon fill="#1168bd" stroke="#0b4884" points="1186,-359 732,-359 732,-56 1186,-56 1186,-359"/>
<text text-anchor="start" x="761" y="-310.8" font-family="Arial" font-size="34.00" fill="#ffffff">Browser Memory Daemon</text>
<text text-anchor="start" x="882" y="-288.8" font-family="Arial" font-size="19.00" fill="#ffffff">[Software System]</text>
<text text-anchor="start" x="824" y="-251.8" font-family="Arial" font-size="24.00" fill="#ffffff">Local&#45;first personal recall</text>
<text text-anchor="start" x="795" y="-227.8" font-family="Arial" font-size="24.00" fill="#ffffff">system that captures Windows</text>
<text text-anchor="start" x="802.5" y="-203.8" font-family="Arial" font-size="24.00" fill="#ffffff">Chrome page text and media</text>
<text text-anchor="start" x="818.5" y="-179.8" font-family="Arial" font-size="24.00" fill="#ffffff">references, stores them in</text>
<text text-anchor="start" x="782" y="-155.8" font-family="Arial" font-size="24.00" fill="#ffffff">WSL, and exposes exact search,</text>
<text text-anchor="start" x="829" y="-131.8" font-family="Arial" font-size="24.00" fill="#ffffff">timeline, detail, deletion,</text>
<text text-anchor="start" x="799.5" y="-107.8" font-family="Arial" font-size="24.00" fill="#ffffff">diagnostics, and media cache</text>
<text text-anchor="start" x="898.5" y="-83.8" font-family="Arial" font-size="24.00" fill="#ffffff">operations.</text>
</g>
<!-- 1&#45;&gt;4 -->
<g id="31" class="edge">
<title>1&#45;&gt;4</title>
<path fill="none" stroke="#444444" stroke-dasharray="5,2" d="M408.28,-315.55C505.02,-296.53 621.28,-273.68 721.91,-253.9"/>
<polygon fill="#444444" stroke="#444444" points="722.77,-257.3 731.91,-251.94 721.42,-250.43 722.77,-257.3"/>
<text text-anchor="start" x="444" y="-367.3" font-family="Arial" font-size="24.00" fill="#444444">Searches, reviews, and</text>
<text text-anchor="start" x="456" y="-341.3" font-family="Arial" font-size="24.00" fill="#444444">deletes local browser</text>
<text text-anchor="start" x="481" y="-315.3" font-family="Arial" font-size="24.00" fill="#444444">memory through</text>
</g>
<!-- 3 -->
<g id="3" class="node">
<title>3</title>
<polygon fill="#999999" stroke="#6b6b6b" points="2972,-397 2569,-397 2569,-132 2972,-132 2972,-397"/>
<text text-anchor="start" x="2609" y="-348.8" font-family="Arial" font-size="34.00" fill="#ffffff">Web Sites and Media</text>
<text text-anchor="start" x="2716.5" y="-314.8" font-family="Arial" font-size="34.00" fill="#ffffff">Origins</text>
<text text-anchor="start" x="2693.5" y="-292.8" font-family="Arial" font-size="19.00" fill="#ffffff">[Software System]</text>
<text text-anchor="start" x="2660.5" y="-255.8" font-family="Arial" font-size="24.00" fill="#ffffff">External web pages,</text>
<text text-anchor="start" x="2608" y="-231.8" font-family="Arial" font-size="24.00" fill="#ffffff">image/video URLs, and media</text>
<text text-anchor="start" x="2598" y="-207.8" font-family="Arial" font-size="24.00" fill="#ffffff">CDNs that Chrome loads or that</text>
<text text-anchor="start" x="2608" y="-183.8" font-family="Arial" font-size="24.00" fill="#ffffff">sidecars fetch as page&#45;related</text>
<text text-anchor="start" x="2734" y="-159.8" font-family="Arial" font-size="24.00" fill="#ffffff">media.</text>
</g>
<!-- 2&#45;&gt;3 -->
<g id="32" class="edge">
<title>2&#45;&gt;3</title>
<path fill="none" stroke="#444444" stroke-dasharray="5,2" d="M2053.11,-439.56C2201.26,-403.35 2405.97,-353.33 2558.63,-316.03"/>
<polygon fill="#444444" stroke="#444444" points="2559.72,-319.36 2568.61,-313.59 2558.06,-312.56 2559.72,-319.36"/>
<text text-anchor="start" x="2218" y="-419.3" font-family="Arial" font-size="24.00" fill="#444444">Loads pages and media from</text>
<text text-anchor="start" x="2339" y="-399.3" font-family="Arial" font-size="19.00" fill="#444444">[HTTPS]</text>
</g>
<!-- 4&#45;&gt;2 -->
<g id="33" class="edge">
<title>4&#45;&gt;2</title>
<path fill="none" stroke="#444444" stroke-dasharray="5,2" d="M1186.28,-277.72C1331.19,-322.7 1517.58,-380.54 1657.4,-423.94"/>
<polygon fill="#444444" stroke="#444444" points="1656.38,-427.28 1666.97,-426.9 1658.45,-420.6 1656.38,-427.28"/>
<text text-anchor="start" x="1235" y="-404.3" font-family="Arial" font-size="24.00" fill="#444444">Runs its MV3 extension</text>
<text text-anchor="start" x="1222" y="-378.3" font-family="Arial" font-size="24.00" fill="#444444">inside and uses APIs from</text>
</g>
<!-- 4&#45;&gt;3 -->
<g id="34" class="edge">
<title>4&#45;&gt;3</title>
<path fill="none" stroke="#444444" stroke-dasharray="5,2" d="M1186.07,-214.09C1431.35,-221.3 1834.49,-233.32 2182,-244.5 2307.01,-248.52 2446.96,-253.27 2558.91,-257.14"/>
<polygon fill="#444444" stroke="#444444" points="2558.85,-260.64 2568.97,-257.49 2559.1,-253.64 2558.85,-260.64"/>
<text text-anchor="start" x="1733" y="-317.3" font-family="Arial" font-size="24.00" fill="#444444">Captures page refs and</text>
<text text-anchor="start" x="1733.5" y="-293.3" font-family="Arial" font-size="24.00" fill="#444444">fetches browser&#45;side or</text>
<text text-anchor="start" x="1764" y="-269.3" font-family="Arial" font-size="24.00" fill="#444444">public media from</text>
<text text-anchor="start" x="1538" y="-249.3" font-family="Arial" font-size="19.00" fill="#444444">[Chrome DOM/fetch; WSL HTTP(S), data URLs; no Chrome cookies in WSL]</text>
</g>
</g>
</svg>
