<?xml version="1.0" encoding="UTF-8" standalone="no"?>
<!DOCTYPE svg PUBLIC "-//W3C//DTD SVG 1.1//EN"
 "http://www.w3.org/Graphics/SVG/1.1/DTD/svg11.dtd">
<!-- Generated by graphviz version 2.43.0 (0)
 -->
<!-- Title: %3 Pages: 1 -->
<svg width="1527pt" height="1638pt"
 viewBox="0.00 0.00 1527.00 1637.75" xmlns="http://www.w3.org/2000/svg" xmlns:xlink="http://www.w3.org/1999/xlink">
<g id="graph0" class="graph" transform="scale(1 1) rotate(0) translate(4 1633.75)">
<title>%3</title>
<polygon fill="white" stroke="transparent" points="-4,4 -4,-1633.75 1523,-1633.75 1523,4 -4,4"/>
<text text-anchor="start" x="437" y="-11.8" font-family="Arial" font-size="34.00">Container View: Browser Memory Daemon</text>
<g id="clust1" class="cluster">
<title>cluster_4</title>
<polygon fill="none" stroke="#444444" points="8,-64 8,-1621.75 1045,-1621.75 1045,-64 8,-64"/>
<text text-anchor="start" x="385.5" y="-92.8" font-family="Arial" font-size="24.00" fill="#444444">Browser Memory Daemon</text>
<text text-anchor="start" x="449.5" y="-72.8" font-family="Arial" font-size="19.00" fill="#444444">[Software System]</text>
</g>
<!-- 3 -->
<g id="3" class="node">
<title>3</title>
<polygon fill="#999999" stroke="#6b6b6b" points="1495.5,-1105.06 1092.5,-1105.06 1092.5,-840.06 1495.5,-840.06 1495.5,-1105.06"/>
<text text-anchor="start" x="1132.5" y="-1056.86" font-family="Arial" font-size="34.00" fill="#ffffff">Web Sites and Media</text>
<text text-anchor="start" x="1240" y="-1022.86" font-family="Arial" font-size="34.00" fill="#ffffff">Origins</text>
<text text-anchor="start" x="1217" y="-1000.86" font-family="Arial" font-size="19.00" fill="#ffffff">[Software System]</text>
<text text-anchor="start" x="1184" y="-963.86" font-family="Arial" font-size="24.00" fill="#ffffff">External web pages,</text>
<text text-anchor="start" x="1131.5" y="-939.86" font-family="Arial" font-size="24.00" fill="#ffffff">image/video URLs, and media</text>
<text text-anchor="start" x="1121.5" y="-915.86" font-family="Arial" font-size="24.00" fill="#ffffff">CDNs that Chrome loads or that</text>
<text text-anchor="start" x="1131.5" y="-891.86" font-family="Arial" font-size="24.00" fill="#ffffff">sidecars fetch as page&#45;related</text>
<text text-anchor="start" x="1257.5" y="-867.86" font-family="Arial" font-size="24.00" fill="#ffffff">media.</text>
</g>
<!-- 13 -->
<g id="13" class="node">
<title>13</title>
<path fill="#2f95c8" stroke="#20688c" d="M485.5,-1121.78C485.5,-1140.08 383.98,-1154.94 259,-1154.94 134.02,-1154.94 32.5,-1140.08 32.5,-1121.78 32.5,-1121.78 32.5,-823.35 32.5,-823.35 32.5,-805.05 134.02,-790.19 259,-790.19 383.98,-790.19 485.5,-805.05 485.5,-823.35 485.5,-823.35 485.5,-1121.78 485.5,-1121.78"/>
<path fill="none" stroke="#20688c" d="M485.5,-1121.78C485.5,-1103.48 383.98,-1088.62 259,-1088.62 134.02,-1088.62 32.5,-1103.48 32.5,-1121.78"/>
<text text-anchor="start" x="117" y="-1056.86" font-family="Arial" font-size="34.00" fill="#ffffff">Extension Browser</text>
<text text-anchor="start" x="199.5" y="-1022.86" font-family="Arial" font-size="34.00" fill="#ffffff">Storage</text>
<text text-anchor="start" x="61.5" y="-1000.86" font-family="Arial" font-size="19.00" fill="#ffffff">[Container: chrome.storage.local + IndexedDB]</text>
<text text-anchor="start" x="126.5" y="-963.86" font-family="Arial" font-size="24.00" fill="#ffffff">Browser&#45;side storage for</text>
<text text-anchor="start" x="114.5" y="-939.86" font-family="Arial" font-size="24.00" fill="#ffffff">capture and visit queues in</text>
<text text-anchor="start" x="120.5" y="-915.86" font-family="Arial" font-size="24.00" fill="#ffffff">chrome.storage.local plus</text>
<text text-anchor="start" x="126.5" y="-891.86" font-family="Arial" font-size="24.00" fill="#ffffff">durable media tasks and</text>
<text text-anchor="start" x="107.5" y="-867.86" font-family="Arial" font-size="24.00" fill="#ffffff">fetched blobs in IndexedDB.</text>
</g>
<!-- 14 -->
<g id="14" class="node">
<title>14</title>
<polygon fill="#438dd5" stroke="#2e6295" points="1020,-1141.06 558,-1141.06 558,-804.06 1020,-804.06 1020,-1141.06"/>
<text text-anchor="start" x="624.5" y="-1092.86" font-family="Arial" font-size="34.00" fill="#ffffff">WSL Loopback HTTP</text>
<text text-anchor="start" x="724.5" y="-1058.86" font-family="Arial" font-size="34.00" fill="#ffffff">Daemon</text>
<text text-anchor="start" x="587" y="-1036.86" font-family="Arial" font-size="19.00" fill="#ffffff">[Container: Python 3.11, ThreadingHTTPServer]</text>
<text text-anchor="start" x="628" y="-999.86" font-family="Arial" font-size="24.00" fill="#ffffff">Authenticated loopback HTTP</text>
<text text-anchor="start" x="653" y="-975.86" font-family="Arial" font-size="24.00" fill="#ffffff">API that handles capture,</text>
<text text-anchor="start" x="649.5" y="-951.86" font-family="Arial" font-size="24.00" fill="#ffffff">visit events, media artifact</text>
<text text-anchor="start" x="652.5" y="-927.86" font-family="Arial" font-size="24.00" fill="#ffffff">upload/fetch/purge, exact</text>
<text text-anchor="start" x="749" y="-903.86" font-family="Arial" font-size="24.00" fill="#ffffff">search,</text>
<text text-anchor="start" x="640" y="-879.86" font-family="Arial" font-size="24.00" fill="#ffffff">recent/timeline/detail, policy</text>
<text text-anchor="start" x="658" y="-855.86" font-family="Arial" font-size="24.00" fill="#ffffff">rules, doctor, forget, and</text>
<text text-anchor="start" x="699.5" y="-831.86" font-family="Arial" font-size="24.00" fill="#ffffff">static UI serving.</text>
</g>
<!-- 27 -->
<g id="27" class="node">
<title>27</title>
<path fill="#2f95c8" stroke="#20688c" d="M482,-585.4C482,-608.67 403.11,-627.56 306,-627.56 208.89,-627.56 130,-608.67 130,-585.4 130,-585.4 130,-205.97 130,-205.97 130,-182.71 208.89,-163.81 306,-163.81 403.11,-163.81 482,-182.71 482,-205.97 482,-205.97 482,-585.4 482,-585.4"/>
<path fill="none" stroke="#20688c" d="M482,-585.4C482,-562.14 403.11,-543.24 306,-543.24 208.89,-543.24 130,-562.14 130,-585.4"/>
<text text-anchor="start" x="193" y="-515.99" font-family="Arial" font-size="34.00" fill="#ffffff">SQLite + FTS5</text>
<text text-anchor="start" x="233" y="-481.99" font-family="Arial" font-size="34.00" fill="#ffffff">Database</text>
<text text-anchor="start" x="180" y="-459.99" font-family="Arial" font-size="19.00" fill="#ffffff">[Container: SQLite with FTS5]</text>
<text text-anchor="start" x="187" y="-422.99" font-family="Arial" font-size="24.00" fill="#ffffff">Durable relational and</text>
<text text-anchor="start" x="169.5" y="-398.99" font-family="Arial" font-size="24.00" fill="#ffffff">full&#45;text store for sources,</text>
<text text-anchor="start" x="185.5" y="-374.99" font-family="Arial" font-size="24.00" fill="#ffffff">documents, visits, visit</text>
<text text-anchor="start" x="160" y="-350.99" font-family="Arial" font-size="24.00" fill="#ffffff">events, snapshots, chunks,</text>
<text text-anchor="start" x="159" y="-326.99" font-family="Arial" font-size="24.00" fill="#ffffff">chunks_fts, media artifacts,</text>
<text text-anchor="start" x="174" y="-302.99" font-family="Arial" font-size="24.00" fill="#ffffff">media fetch tasks, policy</text>
<text text-anchor="start" x="180.5" y="-278.99" font-family="Arial" font-size="24.00" fill="#ffffff">rules, audit events, and</text>
<text text-anchor="start" x="214" y="-254.99" font-family="Arial" font-size="24.00" fill="#ffffff">deletion receipts.</text>
</g>
<!-- 14&#45;&gt;27 -->
<g id="43" class="edge">
<title>14&#45;&gt;27</title>
<path fill="none" stroke="#444444" stroke-dasharray="5,2" d="M557.68,-812.7C545.36,-805.02 533.08,-797.53 521,-790.38 490.9,-772.55 474.6,-780.2 451,-754.38 420.05,-720.51 395.28,-679.16 375.6,-636.77"/>
<polygon fill="#444444" stroke="#444444" points="378.67,-635.08 371.35,-627.42 372.3,-637.98 378.67,-635.08"/>
<text text-anchor="start" x="451" y="-736.17" font-family="Arial" font-size="24.00" fill="#444444">Reads and writes metadata,</text>
<text text-anchor="start" x="484" y="-712.17" font-family="Arial" font-size="24.00" fill="#444444">FTS, tasks, audit, and</text>
<text text-anchor="start" x="546.5" y="-688.17" font-family="Arial" font-size="24.00" fill="#444444">receipts in</text>
<text text-anchor="start" x="568.5" y="-668.17" font-family="Arial" font-size="19.00" fill="#444444">[sqlite3]</text>
</g>
<!-- 29 -->
<g id="29" class="node">
<title>29</title>
<path fill="#2f95c8" stroke="#20688c" d="M954,-511.97C954,-526.23 864.36,-537.81 754,-537.81 643.64,-537.81 554,-526.23 554,-511.97 554,-511.97 554,-279.4 554,-279.4 554,-265.14 643.64,-253.56 754,-253.56 864.36,-253.56 954,-265.14 954,-279.4 954,-279.4 954,-511.97 954,-511.97"/>
<path fill="none" stroke="#20688c" d="M954,-511.97C954,-497.71 864.36,-486.13 754,-486.13 643.64,-486.13 554,-497.71 554,-511.97"/>
<text text-anchor="start" x="615" y="-450.99" font-family="Arial" font-size="34.00" fill="#ffffff">Media Blob Cache</text>
<text text-anchor="start" x="636.5" y="-428.99" font-family="Arial" font-size="19.00" fill="#ffffff">[Container: WSL filesystem]</text>
<text text-anchor="start" x="620.5" y="-391.99" font-family="Arial" font-size="24.00" fill="#ffffff">Bounded and disposable</text>
<text text-anchor="start" x="609.5" y="-367.99" font-family="Arial" font-size="24.00" fill="#ffffff">filesystem cache for stored</text>
<text text-anchor="start" x="598.5" y="-343.99" font-family="Arial" font-size="24.00" fill="#ffffff">image/video/audio blobs with</text>
<text text-anchor="start" x="583" y="-319.99" font-family="Arial" font-size="24.00" fill="#ffffff">purge and rehydrate semantics.</text>
</g>
<!-- 14&#45;&gt;29 -->
<g id="45" class="edge">
<title>14&#45;&gt;29</title>
<path fill="none" stroke="#444444" stroke-dasharray="5,2" d="M778.78,-803.74C773.86,-722.85 768,-626.59 763.21,-547.99"/>
<polygon fill="#444444" stroke="#444444" points="766.7,-547.77 762.6,-538 759.72,-548.2 766.7,-547.77"/>
<text text-anchor="start" x="801" y="-736.17" font-family="Arial" font-size="24.00" fill="#444444">Stores, serves, purges,</text>
<text text-anchor="start" x="776" y="-712.17" font-family="Arial" font-size="24.00" fill="#444444">and rehydrates media blobs</text>
<text text-anchor="start" x="916.5" y="-688.17" font-family="Arial" font-size="24.00" fill="#444444">in</text>
<text text-anchor="start" x="874.5" y="-668.17" font-family="Arial" font-size="19.00" fill="#444444">[Filesystem]</text>
</g>
<!-- 5 -->
<g id="5" class="node">
<title>5</title>
<polygon fill="#438dd5" stroke="#2e6295" points="750,-1596.75 316,-1596.75 316,-1317.75 750,-1317.75 750,-1596.75"/>
<text text-anchor="start" x="353" y="-1548.55" font-family="Arial" font-size="34.00" fill="#ffffff">Chrome MV3 Extension</text>
<text text-anchor="start" x="345" y="-1526.55" font-family="Arial" font-size="19.00" fill="#ffffff">[Container: JavaScript, Chrome Manifest V3]</text>
<text text-anchor="start" x="390" y="-1489.55" font-family="Arial" font-size="24.00" fill="#ffffff">Captures visible page text,</text>
<text text-anchor="start" x="415.5" y="-1465.55" font-family="Arial" font-size="24.00" fill="#ffffff">media references, tab</text>
<text text-anchor="start" x="424" y="-1441.55" font-family="Arial" font-size="24.00" fill="#ffffff">lifecycle events, and</text>
<text text-anchor="start" x="367" y="-1417.55" font-family="Arial" font-size="24.00" fill="#ffffff">browser&#45;side media bytes from</text>
<text text-anchor="start" x="362" y="-1393.55" font-family="Arial" font-size="24.00" fill="#ffffff">Windows Chrome; queues work</text>
<text text-anchor="start" x="374" y="-1369.55" font-family="Arial" font-size="24.00" fill="#ffffff">durably and posts to the WSL</text>
<text text-anchor="start" x="485.5" y="-1345.55" font-family="Arial" font-size="24.00" fill="#ffffff">daemon.</text>
</g>
<!-- 5&#45;&gt;3 -->
<g id="36" class="edge">
<title>5&#45;&gt;3</title>
<path fill="none" stroke="#444444" stroke-dasharray="5,2" d="M750.04,-1445.9C886.64,-1428.64 1058.36,-1385.79 1174,-1281.75 1221.91,-1238.64 1250.88,-1174.08 1268.31,-1115.18"/>
<polygon fill="#444444" stroke="#444444" points="1271.72,-1115.97 1271.11,-1105.39 1264.99,-1114.04 1271.72,-1115.97"/>
<text text-anchor="start" x="1255" y="-1263.55" font-family="Arial" font-size="24.00" fill="#444444">Extracts DOM refs and</text>
<text text-anchor="start" x="1294.5" y="-1239.55" font-family="Arial" font-size="24.00" fill="#444444">fetches queued</text>
<text text-anchor="start" x="1247" y="-1215.55" font-family="Arial" font-size="24.00" fill="#444444">credentialed media from</text>
<text text-anchor="start" x="1236" y="-1195.55" font-family="Arial" font-size="19.00" fill="#444444">[DOM; fetch(credentials: include)]</text>
</g>
<!-- 5&#45;&gt;13 -->
<g id="37" class="edge">
<title>5&#45;&gt;13</title>
<path fill="none" stroke="#444444" stroke-dasharray="5,2" d="M335.82,-1317.75C326.2,-1306.34 317.46,-1294.33 310,-1281.75 289.17,-1246.63 276.18,-1205.51 268.22,-1164.96"/>
<polygon fill="#444444" stroke="#444444" points="271.63,-1164.13 266.35,-1154.94 264.74,-1165.42 271.63,-1164.13"/>
<text text-anchor="start" x="319.5" y="-1263.55" font-family="Arial" font-size="24.00" fill="#444444">Queues captures, lifecycle</text>
<text text-anchor="start" x="327.5" y="-1239.55" font-family="Arial" font-size="24.00" fill="#444444">events, media tasks, and</text>
<text text-anchor="start" x="419.5" y="-1215.55" font-family="Arial" font-size="24.00" fill="#444444">blobs in</text>
<text text-anchor="start" x="310" y="-1195.55" font-family="Arial" font-size="19.00" fill="#444444">[chrome.storage.local + IndexedDB]</text>
</g>
<!-- 5&#45;&gt;14 -->
<g id="38" class="edge">
<title>5&#45;&gt;14</title>
<path fill="none" stroke="#444444" stroke-dasharray="5,2" d="M606.53,-1317.61C634.17,-1265.5 665.97,-1205.53 695.21,-1150.41"/>
<polygon fill="#444444" stroke="#444444" points="698.47,-1151.73 700.06,-1141.25 692.29,-1148.45 698.47,-1151.73"/>
<text text-anchor="start" x="786.5" y="-1263.55" font-family="Arial" font-size="24.00" fill="#444444">Posts captures, events,</text>
<text text-anchor="start" x="775.5" y="-1239.55" font-family="Arial" font-size="24.00" fill="#444444">media metadata, and raw</text>
<text text-anchor="start" x="870" y="-1215.55" font-family="Arial" font-size="24.00" fill="#444444">blobs to</text>
<text text-anchor="start" x="669" y="-1195.55" font-family="Arial" font-size="19.00" fill="#444444">[Bearer HTTP/JSON; raw HTTP PUT over 127.0.0.1:8765]</text>
</g>
</g>
</svg>
