<?xml version="1.0" encoding="UTF-8" standalone="no"?>
<!DOCTYPE svg PUBLIC "-//W3C//DTD SVG 1.1//EN"
 "http://www.w3.org/Graphics/SVG/1.1/DTD/svg11.dtd">
<!-- Generated by graphviz version 2.43.0 (0)
 -->
<!-- Title: %3 Pages: 1 -->
<svg width="1954pt" height="1349pt"
 viewBox="0.00 0.00 1954.00 1349.00" xmlns="http://www.w3.org/2000/svg" xmlns:xlink="http://www.w3.org/1999/xlink">
<g id="graph0" class="graph" transform="scale(1 1) rotate(0) translate(4 1345)">
<title>%3</title>
<polygon fill="white" stroke="transparent" points="-4,4 -4,-1345 1950,-1345 1950,4 -4,4"/>
<text text-anchor="start" x="388" y="-11.8" font-family="Arial" font-size="34.00">Component View: Browser Memory Daemon &#45; WSL Loopback HTTP Daemon</text>
<g id="clust1" class="cluster">
<title>cluster_4</title>
<polygon fill="none" stroke="#444444" points="8,-64 8,-1333 1938,-1333 1938,-64 8,-64"/>
<text text-anchor="start" x="832" y="-92.8" font-family="Arial" font-size="24.00" fill="#444444">Browser Memory Daemon</text>
<text text-anchor="start" x="896" y="-72.8" font-family="Arial" font-size="19.00" fill="#444444">[Software System]</text>
</g>
<g id="clust2" class="cluster">
<title>cluster_14</title>
<polygon fill="none" stroke="#444444" points="33,-610 33,-967 1188,-967 1188,-610 33,-610"/>
<text text-anchor="start" x="445" y="-638.8" font-family="Arial" font-size="24.00" fill="#444444">WSL Loopback HTTP Daemon</text>
<text text-anchor="start" x="408.5" y="-618.8" font-family="Arial" font-size="19.00" fill="#444444">[Container: Python 3.11, ThreadingHTTPServer]</text>
</g>
<!-- 15 -->
<g id="15" class="node">
<title>15</title>
<polygon fill="#85bbf0" stroke="#5d82a8" points="453,-941.5 58,-941.5 58,-710.5 453,-710.5 453,-941.5"/>
<text text-anchor="start" x="87" y="-893.3" font-family="Arial" font-size="34.00" fill="#000000">HTTP Request Router</text>
<text text-anchor="start" x="119" y="-871.3" font-family="Arial" font-size="19.00" fill="#000000">[Component: Python http.server]</text>
<text text-anchor="start" x="90" y="-834.3" font-family="Arial" font-size="24.00" fill="#000000">Routes loopback API requests,</text>
<text text-anchor="start" x="112.5" y="-810.3" font-family="Arial" font-size="24.00" fill="#000000">serves UI assets, enforces</text>
<text text-anchor="start" x="91.5" y="-786.3" font-family="Arial" font-size="24.00" fill="#000000">bearer auth for memory/admin</text>
<text text-anchor="start" x="106" y="-762.3" font-family="Arial" font-size="24.00" fill="#000000">APIs, and applies CORS for</text>
<text text-anchor="start" x="172" y="-738.3" font-family="Arial" font-size="24.00" fill="#000000">allowed origins.</text>
</g>
<!-- 23 -->
<g id="23" class="node">
<title>23</title>
<polygon fill="#85bbf0" stroke="#5d82a8" points="1163,-941.5 781,-941.5 781,-710.5 1163,-710.5 1163,-941.5"/>
<text text-anchor="start" x="810" y="-893.3" font-family="Arial" font-size="34.00" fill="#000000">Ops Doctor and Audit</text>
<text text-anchor="start" x="844" y="-871.3" font-family="Arial" font-size="19.00" fill="#000000">[Component: Python + sqlite3]</text>
<text text-anchor="start" x="821.5" y="-834.3" font-family="Arial" font-size="24.00" fill="#000000">Reports health, DB integrity,</text>
<text text-anchor="start" x="836" y="-810.3" font-family="Arial" font-size="24.00" fill="#000000">FTS consistency, runtime</text>
<text text-anchor="start" x="816" y="-786.3" font-family="Arial" font-size="24.00" fill="#000000">paths, storage counts, media</text>
<text text-anchor="start" x="840.5" y="-762.3" font-family="Arial" font-size="24.00" fill="#000000">queue status, and writes</text>
<text text-anchor="start" x="823" y="-738.3" font-family="Arial" font-size="24.00" fill="#000000">metadata&#45;only audit events.</text>
</g>
<!-- 15&#45;&gt;23 -->
<g id="68" class="edge">
<title>15&#45;&gt;23</title>
<path fill="none" stroke="#444444" stroke-dasharray="5,2" d="M453.16,-826C551.9,-826 671.32,-826 770.58,-826"/>
<polygon fill="#444444" stroke="#444444" points="770.74,-829.5 780.74,-826 770.74,-822.5 770.74,-829.5"/>
<text text-anchor="start" x="489" y="-858.8" font-family="Arial" font-size="24.00" fill="#444444">Routes health and audit</text>
<text text-anchor="start" x="577.5" y="-832.8" font-family="Arial" font-size="24.00" fill="#444444">work to</text>
</g>
<!-- 27 -->
<g id="27" class="node">
<title>27</title>
<path fill="#2f95c8" stroke="#20688c" d="M1888.5,-585.72C1888.5,-608.98 1809.61,-627.88 1712.5,-627.88 1615.39,-627.88 1536.5,-608.98 1536.5,-585.72 1536.5,-585.72 1536.5,-206.28 1536.5,-206.28 1536.5,-183.02 1615.39,-164.12 1712.5,-164.12 1809.61,-164.12 1888.5,-183.02 1888.5,-206.28 1888.5,-206.28 1888.5,-585.72 1888.5,-585.72"/>
<path fill="none" stroke="#20688c" d="M1888.5,-585.72C1888.5,-562.45 1809.61,-543.56 1712.5,-543.56 1615.39,-543.56 1536.5,-562.45 1536.5,-585.72"/>
<text text-anchor="start" x="1599.5" y="-516.3" font-family="Arial" font-size="34.00" fill="#ffffff">SQLite + FTS5</text>
<text text-anchor="start" x="1639.5" y="-482.3" font-family="Arial" font-size="34.00" fill="#ffffff">Database</text>
<text text-anchor="start" x="1586.5" y="-460.3" font-family="Arial" font-size="19.00" fill="#ffffff">[Container: SQLite with FTS5]</text>
<text text-anchor="start" x="1593.5" y="-423.3" font-family="Arial" font-size="24.00" fill="#ffffff">Durable relational and</text>
<text text-anchor="start" x="1576" y="-399.3" font-family="Arial" font-size="24.00" fill="#ffffff">full&#45;text store for sources,</text>
<text text-anchor="start" x="1592" y="-375.3" font-family="Arial" font-size="24.00" fill="#ffffff">documents, visits, visit</text>
<text text-anchor="start" x="1566.5" y="-351.3" font-family="Arial" font-size="24.00" fill="#ffffff">events, snapshots, chunks,</text>
<text text-anchor="start" x="1565.5" y="-327.3" font-family="Arial" font-size="24.00" fill="#ffffff">chunks_fts, media artifacts,</text>
<text text-anchor="start" x="1580.5" y="-303.3" font-family="Arial" font-size="24.00" fill="#ffffff">media fetch tasks, policy</text>
<text text-anchor="start" x="1587" y="-279.3" font-family="Arial" font-size="24.00" fill="#ffffff">rules, audit events, and</text>
<text text-anchor="start" x="1620.5" y="-255.3" font-family="Arial" font-size="24.00" fill="#ffffff">deletion receipts.</text>
</g>
<!-- 23&#45;&gt;27 -->
<g id="82" class="edge">
<title>23&#45;&gt;27</title>
<path fill="none" stroke="#444444" stroke-dasharray="5,2" d="M1163.18,-715.26C1275.22,-650.03 1416.27,-567.9 1527.26,-503.28"/>
<polygon fill="#444444" stroke="#444444" points="1529.33,-506.12 1536.21,-498.07 1525.8,-500.07 1529.33,-506.12"/>
<text text-anchor="start" x="1227.5" y="-734.8" font-family="Arial" font-size="24.00" fill="#444444">Checks integrity and</text>
<text text-anchor="start" x="1289" y="-710.8" font-family="Arial" font-size="24.00" fill="#444444">counts in</text>
<text text-anchor="start" x="1304" y="-690.8" font-family="Arial" font-size="19.00" fill="#444444">[sqlite3]</text>
</g>
<!-- 28 -->
<g id="28" class="node">
<title>28</title>
<path fill="#2f95c8" stroke="#20688c" d="M1913,-928.78C1913,-941.39 1823.13,-951.63 1712.5,-951.63 1601.87,-951.63 1512,-941.39 1512,-928.78 1512,-928.78 1512,-723.22 1512,-723.22 1512,-710.61 1601.87,-700.37 1712.5,-700.37 1823.13,-700.37 1913,-710.61 1913,-723.22 1913,-723.22 1913,-928.78 1913,-928.78"/>
<path fill="none" stroke="#20688c" d="M1913,-928.78C1913,-916.18 1823.13,-905.94 1712.5,-905.94 1601.87,-905.94 1512,-916.18 1512,-928.78"/>
<text text-anchor="start" x="1548" y="-869.3" font-family="Arial" font-size="34.00" fill="#ffffff">Clean Text Blob Store</text>
<text text-anchor="start" x="1595" y="-847.3" font-family="Arial" font-size="19.00" fill="#ffffff">[Container: WSL filesystem]</text>
<text text-anchor="start" x="1554" y="-810.3" font-family="Arial" font-size="24.00" fill="#ffffff">Filesystem store for snapshot</text>
<text text-anchor="start" x="1541" y="-786.3" font-family="Arial" font-size="24.00" fill="#ffffff">text blobs under WSL XDG data</text>
<text text-anchor="start" x="1679" y="-762.3" font-family="Arial" font-size="24.00" fill="#ffffff">paths.</text>
</g>
<!-- 23&#45;&gt;28 -->
<g id="83" class="edge">
<title>23&#45;&gt;28</title>
<path fill="none" stroke="#444444" stroke-dasharray="5,2" d="M1163.18,-826C1266.79,-826 1395.21,-826 1501.72,-826"/>
<polygon fill="#444444" stroke="#444444" points="1501.96,-829.5 1511.96,-826 1501.96,-822.5 1501.96,-829.5"/>
<text text-anchor="start" x="1212.5" y="-850.8" font-family="Arial" font-size="24.00" fill="#444444">Counts text blob files in</text>
<text text-anchor="start" x="1286" y="-830.8" font-family="Arial" font-size="19.00" fill="#444444">[Filesystem]</text>
</g>
<!-- 29 -->
<g id="29" class="node">
<title>29</title>
<path fill="#2f95c8" stroke="#20688c" d="M1912.5,-1282.28C1912.5,-1296.54 1822.86,-1308.13 1712.5,-1308.13 1602.14,-1308.13 1512.5,-1296.54 1512.5,-1282.28 1512.5,-1282.28 1512.5,-1049.72 1512.5,-1049.72 1512.5,-1035.46 1602.14,-1023.87 1712.5,-1023.87 1822.86,-1023.87 1912.5,-1035.46 1912.5,-1049.72 1912.5,-1049.72 1912.5,-1282.28 1912.5,-1282.28"/>
<path fill="none" stroke="#20688c" d="M1912.5,-1282.28C1912.5,-1268.03 1822.86,-1256.44 1712.5,-1256.44 1602.14,-1256.44 1512.5,-1268.03 1512.5,-1282.28"/>
<text text-anchor="start" x="1573.5" y="-1221.3" font-family="Arial" font-size="34.00" fill="#ffffff">Media Blob Cache</text>
<text text-anchor="start" x="1595" y="-1199.3" font-family="Arial" font-size="19.00" fill="#ffffff">[Container: WSL filesystem]</text>
<text text-anchor="start" x="1579" y="-1162.3" font-family="Arial" font-size="24.00" fill="#ffffff">Bounded and disposable</text>
<text text-anchor="start" x="1568" y="-1138.3" font-family="Arial" font-size="24.00" fill="#ffffff">filesystem cache for stored</text>
<text text-anchor="start" x="1557" y="-1114.3" font-family="Arial" font-size="24.00" fill="#ffffff">image/video/audio blobs with</text>
<text text-anchor="start" x="1541.5" y="-1090.3" font-family="Arial" font-size="24.00" fill="#ffffff">purge and rehydrate semantics.</text>
</g>
<!-- 23&#45;&gt;29 -->
<g id="84" class="edge">
<title>23&#45;&gt;29</title>
<path fill="none" stroke="#444444" stroke-dasharray="5,2" d="M1163.18,-913.56C1267.21,-961.45 1396.25,-1020.86 1503.01,-1070.01"/>
<polygon fill="#444444" stroke="#444444" points="1501.74,-1073.28 1512.29,-1074.28 1504.67,-1066.92 1501.74,-1073.28"/>
<text text-anchor="start" x="1199" y="-1080.8" font-family="Arial" font-size="24.00" fill="#444444">Counts media blob files in</text>
<text text-anchor="start" x="1286" y="-1060.8" font-family="Arial" font-size="19.00" fill="#444444">[Filesystem]</text>
</g>
</g>
</svg>
