<?xml version="1.0" encoding="UTF-8" standalone="no"?>
<!DOCTYPE svg PUBLIC "-//W3C//DTD SVG 1.1//EN"
 "http://www.w3.org/Graphics/SVG/1.1/DTD/svg11.dtd">
<!-- Generated by graphviz version 2.43.0 (0)
 -->
<!-- Title: %3 Pages: 1 -->
<svg width="2021pt" height="1481pt"
 viewBox="0.00 0.00 2021.00 1481.00" xmlns="http://www.w3.org/2000/svg" xmlns:xlink="http://www.w3.org/1999/xlink">
<g id="graph0" class="graph" transform="scale(1 1) rotate(0) translate(4 1477)">
<title>%3</title>
<polygon fill="white" stroke="transparent" points="-4,4 -4,-1477 2017,-1477 2017,4 -4,4"/>
<text text-anchor="start" x="421.5" y="-11.8" font-family="Arial" font-size="34.00">Component View: Browser Memory Daemon &#45; WSL Loopback HTTP Daemon</text>
<g id="clust1" class="cluster">
<title>cluster_4</title>
<polygon fill="none" stroke="#444444" points="8,-64 8,-1465 2005,-1465 2005,-64 8,-64"/>
<text text-anchor="start" x="865.5" y="-92.8" font-family="Arial" font-size="24.00" fill="#444444">Browser Memory Daemon</text>
<text text-anchor="start" x="929.5" y="-72.8" font-family="Arial" font-size="19.00" fill="#444444">[Software System]</text>
</g>
<g id="clust2" class="cluster">
<title>cluster_14</title>
<polygon fill="none" stroke="#444444" points="33,-610 33,-967 1242,-967 1242,-610 33,-610"/>
<text text-anchor="start" x="472" y="-638.8" font-family="Arial" font-size="24.00" fill="#444444">WSL Loopback HTTP Daemon</text>
<text text-anchor="start" x="435.5" y="-618.8" font-family="Arial" font-size="19.00" fill="#444444">[Container: Python 3.11, ThreadingHTTPServer]</text>
</g>
<!-- 15 -->
<g id="15" class="node">
<title>15</title>
<polygon fill="#85bbf0" stroke="#5d82a8" points="453,-941.5 58,-941.5 58,-710.5 453,-710.5 453,-941.5"/>
<text text-anchor="start" x="87" y="-893.3" font-family="Arial" font-size="34.00" fill="#000000">HTTP Request Router</text>
<text text-anchor="start" x="119" y="-871.3" font-family="Arial" font-size="19.00" fill="#000000">[Component: Python http.server]</text>
<text text-anchor="start" x="90" y="-834.3" font-family="Arial" font-size="24.00" fill="#000000">Routes loopback API requests,</text>
<text text-anchor="start" x="112.5" y="-810.3" font-family="Arial" font-size="24.00" fill="#000000">serves UI assets, enforces</text>
<text text-anchor="start" x="91.5" y="-786.3" font-family="Arial" font-size="24.00" fill="#000000">bearer auth for memory/admin</text>
<text text-anchor="start" x="106" y="-762.3" font-family="Arial" font-size="24.00" fill="#000000">APIs, and applies CORS for</text>
<text text-anchor="start" x="172" y="-738.3" font-family="Arial" font-size="24.00" fill="#000000">allowed origins.</text>
</g>
<!-- 21 -->
<g id="21" class="node">
<title>21</title>
<polygon fill="#85bbf0" stroke="#5d82a8" points="1217,-941.5 792,-941.5 792,-710.5 1217,-710.5 1217,-941.5"/>
<text text-anchor="start" x="821" y="-893.3" font-family="Arial" font-size="34.00" fill="#000000">Search and Read Model</text>
<text text-anchor="start" x="849.5" y="-871.3" font-family="Arial" font-size="19.00" fill="#000000">[Component: Python + SQLite FTS5]</text>
<text text-anchor="start" x="855.5" y="-834.3" font-family="Arial" font-size="24.00" fill="#000000">Provides exact FTS search,</text>
<text text-anchor="start" x="869" y="-810.3" font-family="Arial" font-size="24.00" fill="#000000">recent captures, timeline,</text>
<text text-anchor="start" x="863" y="-786.3" font-family="Arial" font-size="24.00" fill="#000000">document detail, snapshot</text>
<text text-anchor="start" x="872" y="-762.3" font-family="Arial" font-size="24.00" fill="#000000">detail, and media artifact</text>
<text text-anchor="start" x="938.5" y="-738.3" font-family="Arial" font-size="24.00" fill="#000000">detail views.</text>
</g>
<!-- 15&#45;&gt;21 -->
<g id="66" class="edge">
<title>15&#45;&gt;21</title>
<path fill="none" stroke="#444444" stroke-dasharray="5,2" d="M453.25,-826C554.17,-826 677.47,-826 781.75,-826"/>
<polygon fill="#444444" stroke="#444444" points="781.78,-829.5 791.78,-826 781.78,-822.5 781.78,-829.5"/>
<polygon fill="white" stroke="transparent" points="489,-826 489,-860 756,-860 756,-826 489,-826"/>
<text text-anchor="start" x="493.5" y="-836.8" font-family="Arial" font-size="24.00" fill="#444444">Routes read requests to</text>
</g>
<!-- 27 -->
<g id="27" class="node">
<title>27</title>
<path fill="#2f95c8" stroke="#20688c" d="M1954,-585.72C1954,-608.98 1875.11,-627.88 1778,-627.88 1680.89,-627.88 1602,-608.98 1602,-585.72 1602,-585.72 1602,-206.28 1602,-206.28 1602,-183.02 1680.89,-164.12 1778,-164.12 1875.11,-164.12 1954,-183.02 1954,-206.28 1954,-206.28 1954,-585.72 1954,-585.72"/>
<path fill="none" stroke="#20688c" d="M1954,-585.72C1954,-562.45 1875.11,-543.56 1778,-543.56 1680.89,-543.56 1602,-562.45 1602,-585.72"/>
<text text-anchor="start" x="1665" y="-516.3" font-family="Arial" font-size="34.00" fill="#ffffff">SQLite + FTS5</text>
<text text-anchor="start" x="1705" y="-482.3" font-family="Arial" font-size="34.00" fill="#ffffff">Database</text>
<text text-anchor="start" x="1652" y="-460.3" font-family="Arial" font-size="19.00" fill="#ffffff">[Container: SQLite with FTS5]</text>
<text text-anchor="start" x="1659" y="-423.3" font-family="Arial" font-size="24.00" fill="#ffffff">Durable relational and</text>
<text text-anchor="start" x="1641.5" y="-399.3" font-family="Arial" font-size="24.00" fill="#ffffff">full&#45;text store for sources,</text>
<text text-anchor="start" x="1657.5" y="-375.3" font-family="Arial" font-size="24.00" fill="#ffffff">documents, visits, visit</text>
<text text-anchor="start" x="1632" y="-351.3" font-family="Arial" font-size="24.00" fill="#ffffff">events, snapshots, chunks,</text>
<text text-anchor="start" x="1631" y="-327.3" font-family="Arial" font-size="24.00" fill="#ffffff">chunks_fts, media artifacts,</text>
<text text-anchor="start" x="1646" y="-303.3" font-family="Arial" font-size="24.00" fill="#ffffff">media fetch tasks, policy</text>
<text text-anchor="start" x="1652.5" y="-279.3" font-family="Arial" font-size="24.00" fill="#ffffff">rules, audit events, and</text>
<text text-anchor="start" x="1686" y="-255.3" font-family="Arial" font-size="24.00" fill="#ffffff">deletion receipts.</text>
</g>
<!-- 21&#45;&gt;27 -->
<g id="76" class="edge">
<title>21&#45;&gt;27</title>
<path fill="none" stroke="#444444" stroke-dasharray="5,2" d="M1212.76,-710.49C1331.29,-644.42 1478.67,-562.28 1593.08,-498.51"/>
<polygon fill="#444444" stroke="#444444" points="1594.92,-501.49 1601.95,-493.56 1591.51,-495.37 1594.92,-501.49"/>
<polygon fill="white" stroke="transparent" points="1253.5,-686 1253.5,-761 1539.5,-761 1539.5,-686 1253.5,-686"/>
<text text-anchor="start" x="1257.5" y="-738.3" font-family="Arial" font-size="24.00" fill="#444444">Reads metadata and FTS</text>
<text text-anchor="start" x="1372" y="-714.3" font-family="Arial" font-size="24.00" fill="#444444">from</text>
<text text-anchor="start" x="1336" y="-694.3" font-family="Arial" font-size="19.00" fill="#444444">[SQLite FTS5]</text>
</g>
<!-- 28 -->
<g id="28" class="node">
<title>28</title>
<path fill="#2f95c8" stroke="#20688c" d="M1978.5,-928.78C1978.5,-941.39 1888.63,-951.63 1778,-951.63 1667.37,-951.63 1577.5,-941.39 1577.5,-928.78 1577.5,-928.78 1577.5,-723.22 1577.5,-723.22 1577.5,-710.61 1667.37,-700.37 1778,-700.37 1888.63,-700.37 1978.5,-710.61 1978.5,-723.22 1978.5,-723.22 1978.5,-928.78 1978.5,-928.78"/>
<path fill="none" stroke="#20688c" d="M1978.5,-928.78C1978.5,-916.18 1888.63,-905.94 1778,-905.94 1667.37,-905.94 1577.5,-916.18 1577.5,-928.78"/>
<text text-anchor="start" x="1613.5" y="-869.3" font-family="Arial" font-size="34.00" fill="#ffffff">Clean Text Blob Store</text>
<text text-anchor="start" x="1660.5" y="-847.3" font-family="Arial" font-size="19.00" fill="#ffffff">[Container: WSL filesystem]</text>
<text text-anchor="start" x="1619.5" y="-810.3" font-family="Arial" font-size="24.00" fill="#ffffff">Filesystem store for snapshot</text>
<text text-anchor="start" x="1606.5" y="-786.3" font-family="Arial" font-size="24.00" fill="#ffffff">text blobs under WSL XDG data</text>
<text text-anchor="start" x="1744.5" y="-762.3" font-family="Arial" font-size="24.00" fill="#ffffff">paths.</text>
</g>
<!-- 21&#45;&gt;28 -->
<g id="77" class="edge">
<title>21&#45;&gt;28</title>
<path fill="none" stroke="#444444" stroke-dasharray="5,2" d="M1217.08,-826C1326.09,-826 1458.6,-826 1567.33,-826"/>
<polygon fill="#444444" stroke="#444444" points="1567.45,-829.5 1577.45,-826 1567.45,-822.5 1567.45,-829.5"/>
<polygon fill="white" stroke="transparent" points="1263,-826 1263,-901 1530,-901 1530,-826 1263,-826"/>
<text text-anchor="start" x="1267.5" y="-878.3" font-family="Arial" font-size="24.00" fill="#444444">Reads full snapshot text</text>
<text text-anchor="start" x="1372.5" y="-854.3" font-family="Arial" font-size="24.00" fill="#444444">from</text>
<text text-anchor="start" x="1345.5" y="-834.3" font-family="Arial" font-size="19.00" fill="#444444">[Filesystem]</text>
</g>
<!-- 29 -->
<g id="29" class="node">
<title>29</title>
<path fill="#2f95c8" stroke="#20688c" d="M1980,-1402.28C1980,-1423.16 1889.46,-1440.13 1778,-1440.13 1666.54,-1440.13 1576,-1423.16 1576,-1402.28 1576,-1402.28 1576,-1061.72 1576,-1061.72 1576,-1040.84 1666.54,-1023.87 1778,-1023.87 1889.46,-1023.87 1980,-1040.84 1980,-1061.72 1980,-1061.72 1980,-1402.28 1980,-1402.28"/>
<path fill="none" stroke="#20688c" d="M1980,-1402.28C1980,-1381.4 1889.46,-1364.44 1778,-1364.44 1666.54,-1364.44 1576,-1381.4 1576,-1402.28"/>
<text text-anchor="start" x="1639" y="-1335.3" font-family="Arial" font-size="34.00" fill="#ffffff">Media Blob Cache</text>
<text text-anchor="start" x="1660.5" y="-1313.3" font-family="Arial" font-size="19.00" fill="#ffffff">[Container: WSL filesystem]</text>
<text text-anchor="start" x="1644.5" y="-1276.3" font-family="Arial" font-size="24.00" fill="#ffffff">Bounded and disposable</text>
<text text-anchor="start" x="1633.5" y="-1252.3" font-family="Arial" font-size="24.00" fill="#ffffff">filesystem cache for stored</text>
<text text-anchor="start" x="1622.5" y="-1228.3" font-family="Arial" font-size="24.00" fill="#ffffff">image/video/audio blobs with</text>
<text text-anchor="start" x="1610.5" y="-1204.3" font-family="Arial" font-size="24.00" fill="#ffffff">purge/rehydrate semantics that</text>
<text text-anchor="start" x="1621.5" y="-1180.3" font-family="Arial" font-size="24.00" fill="#ffffff">preserve media refs, hashes,</text>
<text text-anchor="start" x="1605" y="-1156.3" font-family="Arial" font-size="24.00" fill="#ffffff">status reasons, and provenance</text>
<text text-anchor="start" x="1641.5" y="-1132.3" font-family="Arial" font-size="24.00" fill="#ffffff">when bytes are absent or</text>
<text text-anchor="start" x="1736.5" y="-1108.3" font-family="Arial" font-size="24.00" fill="#ffffff">purged.</text>
</g>
<!-- 21&#45;&gt;29 -->
<g id="78" class="edge">
<title>21&#45;&gt;29</title>
<path fill="none" stroke="#444444" stroke-dasharray="5,2" d="M1217.08,-937.34C1325.88,-994.6 1458.08,-1064.17 1566.7,-1121.33"/>
<polygon fill="#444444" stroke="#444444" points="1565.32,-1124.56 1575.8,-1126.12 1568.58,-1118.36 1565.32,-1124.56"/>
<polygon fill="white" stroke="transparent" points="1253,-1106 1253,-1181 1540,-1181 1540,-1106 1253,-1106"/>
<text text-anchor="start" x="1257.5" y="-1158.3" font-family="Arial" font-size="24.00" fill="#444444">Checks and serves media</text>
<text text-anchor="start" x="1347.5" y="-1134.3" font-family="Arial" font-size="24.00" fill="#444444">files from</text>
<text text-anchor="start" x="1345.5" y="-1114.3" font-family="Arial" font-size="19.00" fill="#444444">[Filesystem]</text>
</g>
</g>
</svg>
