<?xml version="1.0" encoding="UTF-8" standalone="no"?>
<!DOCTYPE svg PUBLIC "-//W3C//DTD SVG 1.1//EN"
 "http://www.w3.org/Graphics/SVG/1.1/DTD/svg11.dtd">
<!-- Generated by graphviz version 2.43.0 (0)
 -->
<!-- Title: %3 Pages: 1 -->
<svg width="1202pt" height="1308pt"
 viewBox="0.00 0.00 1201.50 1307.50" xmlns="http://www.w3.org/2000/svg" xmlns:xlink="http://www.w3.org/1999/xlink">
<g id="graph0" class="graph" transform="scale(1 1) rotate(0) translate(4 1303.5)">
<title>%3</title>
<polygon fill="white" stroke="transparent" points="-4,4 -4,-1303.5 1197.5,-1303.5 1197.5,4 -4,4"/>
<text text-anchor="start" x="274.25" y="-11.8" font-family="Arial" font-size="34.00">Container View: Browser Memory Daemon</text>
<g id="clust1" class="cluster">
<title>cluster_4</title>
<polygon fill="none" stroke="#444444" points="8,-346.5 8,-1291.5 1185.5,-1291.5 1185.5,-346.5 8,-346.5"/>
<text text-anchor="start" x="455.75" y="-375.3" font-family="Arial" font-size="24.00" fill="#444444">Browser Memory Daemon</text>
<text text-anchor="start" x="519.75" y="-355.3" font-family="Arial" font-size="19.00" fill="#444444">[Software System]</text>
</g>
<!-- 3 -->
<g id="3" class="node">
<title>3</title>
<polygon fill="#999999" stroke="#6b6b6b" points="1162,-321 759,-321 759,-56 1162,-56 1162,-321"/>
<text text-anchor="start" x="799" y="-272.8" font-family="Arial" font-size="34.00" fill="#ffffff">Web Sites and Media</text>
<text text-anchor="start" x="906.5" y="-238.8" font-family="Arial" font-size="34.00" fill="#ffffff">Origins</text>
<text text-anchor="start" x="883.5" y="-216.8" font-family="Arial" font-size="19.00" fill="#ffffff">[Software System]</text>
<text text-anchor="start" x="850.5" y="-179.8" font-family="Arial" font-size="24.00" fill="#ffffff">External web pages,</text>
<text text-anchor="start" x="798" y="-155.8" font-family="Arial" font-size="24.00" fill="#ffffff">image/video URLs, and media</text>
<text text-anchor="start" x="788" y="-131.8" font-family="Arial" font-size="24.00" fill="#ffffff">CDNs that Chrome loads or that</text>
<text text-anchor="start" x="798" y="-107.8" font-family="Arial" font-size="24.00" fill="#ffffff">sidecars fetch as page&#45;related</text>
<text text-anchor="start" x="924" y="-83.8" font-family="Arial" font-size="24.00" fill="#ffffff">media.</text>
</g>
<!-- 24 -->
<g id="24" class="node">
<title>24</title>
<polygon fill="#438dd5" stroke="#2e6295" points="387,-830 33,-830 33,-527 387,-527 387,-830"/>
<text text-anchor="start" x="63" y="-781.8" font-family="Arial" font-size="34.00" fill="#ffffff">WSL Media Worker</text>
<text text-anchor="start" x="70" y="-759.8" font-family="Arial" font-size="19.00" fill="#ffffff">[Container: Python 3.11 CLI loop]</text>
<text text-anchor="start" x="62.5" y="-722.8" font-family="Arial" font-size="24.00" fill="#ffffff">Long&#45;running systemd user</text>
<text text-anchor="start" x="111.5" y="-698.8" font-family="Arial" font-size="24.00" fill="#ffffff">worker that leases</text>
<text text-anchor="start" x="64" y="-674.8" font-family="Arial" font-size="24.00" fill="#ffffff">daemon&#45;public media fetch</text>
<text text-anchor="start" x="101" y="-650.8" font-family="Arial" font-size="24.00" fill="#ffffff">tasks, fetches public</text>
<text text-anchor="start" x="62" y="-626.8" font-family="Arial" font-size="24.00" fill="#ffffff">media/HLS without Chrome</text>
<text text-anchor="start" x="67" y="-602.8" font-family="Arial" font-size="24.00" fill="#ffffff">cookies, classifies terminal</text>
<text text-anchor="start" x="64" y="-578.8" font-family="Arial" font-size="24.00" fill="#ffffff">states, and updates artifact</text>
<text text-anchor="start" x="181" y="-554.8" font-family="Arial" font-size="24.00" fill="#ffffff">rows.</text>
</g>
<!-- 24&#45;&gt;3 -->
<g id="47" class="edge">
<title>24&#45;&gt;3</title>
<path fill="none" stroke="#444444" stroke-dasharray="5,2" d="M387.44,-563C496.12,-491.85 636.03,-400.26 750.28,-325.46"/>
<polygon fill="#444444" stroke="#444444" points="752.36,-328.28 758.81,-319.88 748.53,-322.43 752.36,-328.28"/>
<polygon fill="white" stroke="transparent" points="430.5,-533.5 430.5,-608.5 715.5,-608.5 715.5,-533.5 430.5,-533.5"/>
<text text-anchor="start" x="435" y="-585.8" font-family="Arial" font-size="24.00" fill="#444444">Fetches public media and</text>
<text text-anchor="start" x="522" y="-561.8" font-family="Arial" font-size="24.00" fill="#444444">HLS from</text>
<text text-anchor="start" x="481.5" y="-541.8" font-family="Arial" font-size="19.00" fill="#444444">[HTTP(S), data URLs]</text>
</g>
<!-- 27 -->
<g id="27" class="node">
<title>27</title>
<path fill="#2f95c8" stroke="#20688c" d="M1136.5,-868.22C1136.5,-891.48 1057.61,-910.38 960.5,-910.38 863.39,-910.38 784.5,-891.48 784.5,-868.22 784.5,-868.22 784.5,-488.78 784.5,-488.78 784.5,-465.52 863.39,-446.62 960.5,-446.62 1057.61,-446.62 1136.5,-465.52 1136.5,-488.78 1136.5,-488.78 1136.5,-868.22 1136.5,-868.22"/>
<path fill="none" stroke="#20688c" d="M1136.5,-868.22C1136.5,-844.95 1057.61,-826.06 960.5,-826.06 863.39,-826.06 784.5,-844.95 784.5,-868.22"/>
<text text-anchor="start" x="847.5" y="-798.8" font-family="Arial" font-size="34.00" fill="#ffffff">SQLite + FTS5</text>
<text text-anchor="start" x="887.5" y="-764.8" font-family="Arial" font-size="34.00" fill="#ffffff">Database</text>
<text text-anchor="start" x="834.5" y="-742.8" font-family="Arial" font-size="19.00" fill="#ffffff">[Container: SQLite with FTS5]</text>
<text text-anchor="start" x="841.5" y="-705.8" font-family="Arial" font-size="24.00" fill="#ffffff">Durable relational and</text>
<text text-anchor="start" x="824" y="-681.8" font-family="Arial" font-size="24.00" fill="#ffffff">full&#45;text store for sources,</text>
<text text-anchor="start" x="840" y="-657.8" font-family="Arial" font-size="24.00" fill="#ffffff">documents, visits, visit</text>
<text text-anchor="start" x="814.5" y="-633.8" font-family="Arial" font-size="24.00" fill="#ffffff">events, snapshots, chunks,</text>
<text text-anchor="start" x="813.5" y="-609.8" font-family="Arial" font-size="24.00" fill="#ffffff">chunks_fts, media artifacts,</text>
<text text-anchor="start" x="828.5" y="-585.8" font-family="Arial" font-size="24.00" fill="#ffffff">media fetch tasks, policy</text>
<text text-anchor="start" x="835" y="-561.8" font-family="Arial" font-size="24.00" fill="#ffffff">rules, audit events, and</text>
<text text-anchor="start" x="868.5" y="-537.8" font-family="Arial" font-size="24.00" fill="#ffffff">deletion receipts.</text>
</g>
<!-- 24&#45;&gt;27 -->
<g id="46" class="edge">
<title>24&#45;&gt;27</title>
<path fill="none" stroke="#444444" stroke-dasharray="5,2" d="M387.44,-678.5C503.77,-678.5 655.88,-678.5 774.01,-678.5"/>
<polygon fill="#444444" stroke="#444444" points="774.25,-682 784.25,-678.5 774.25,-675 774.25,-682"/>
<polygon fill="white" stroke="transparent" points="423,-678.5 423,-753.5 723,-753.5 723,-678.5 423,-678.5"/>
<text text-anchor="start" x="427" y="-730.8" font-family="Arial" font-size="24.00" fill="#444444">Leases and updates media</text>
<text text-anchor="start" x="532" y="-706.8" font-family="Arial" font-size="24.00" fill="#444444">tasks in</text>
<text text-anchor="start" x="539.5" y="-686.8" font-family="Arial" font-size="19.00" fill="#444444">[sqlite3]</text>
</g>
<!-- 29 -->
<g id="29" class="node">
<title>29</title>
<path fill="#2f95c8" stroke="#20688c" d="M1160.5,-1240.78C1160.5,-1255.04 1070.86,-1266.63 960.5,-1266.63 850.14,-1266.63 760.5,-1255.04 760.5,-1240.78 760.5,-1240.78 760.5,-1008.22 760.5,-1008.22 760.5,-993.96 850.14,-982.37 960.5,-982.37 1070.86,-982.37 1160.5,-993.96 1160.5,-1008.22 1160.5,-1008.22 1160.5,-1240.78 1160.5,-1240.78"/>
<path fill="none" stroke="#20688c" d="M1160.5,-1240.78C1160.5,-1226.53 1070.86,-1214.94 960.5,-1214.94 850.14,-1214.94 760.5,-1226.53 760.5,-1240.78"/>
<text text-anchor="start" x="821.5" y="-1179.8" font-family="Arial" font-size="34.00" fill="#ffffff">Media Blob Cache</text>
<text text-anchor="start" x="843" y="-1157.8" font-family="Arial" font-size="19.00" fill="#ffffff">[Container: WSL filesystem]</text>
<text text-anchor="start" x="827" y="-1120.8" font-family="Arial" font-size="24.00" fill="#ffffff">Bounded and disposable</text>
<text text-anchor="start" x="816" y="-1096.8" font-family="Arial" font-size="24.00" fill="#ffffff">filesystem cache for stored</text>
<text text-anchor="start" x="805" y="-1072.8" font-family="Arial" font-size="24.00" fill="#ffffff">image/video/audio blobs with</text>
<text text-anchor="start" x="789.5" y="-1048.8" font-family="Arial" font-size="24.00" fill="#ffffff">purge and rehydrate semantics.</text>
</g>
<!-- 24&#45;&gt;29 -->
<g id="48" class="edge">
<title>24&#45;&gt;29</title>
<path fill="none" stroke="#444444" stroke-dasharray="5,2" d="M387.44,-783.63C496.54,-848.64 637.11,-932.4 751.6,-1000.62"/>
<polygon fill="#444444" stroke="#444444" points="750.11,-1003.81 760.5,-1005.92 753.7,-997.8 750.11,-1003.81"/>
<polygon fill="white" stroke="transparent" points="423,-979.5 423,-1054.5 723,-1054.5 723,-979.5 423,-979.5"/>
<text text-anchor="start" x="427" y="-1031.8" font-family="Arial" font-size="24.00" fill="#444444">Writes fetched media blobs</text>
<text text-anchor="start" x="562.5" y="-1007.8" font-family="Arial" font-size="24.00" fill="#444444">to</text>
<text text-anchor="start" x="521.5" y="-987.8" font-family="Arial" font-size="19.00" fill="#444444">[Filesystem]</text>
</g>
</g>
</svg>
