<?xml version="1.0" encoding="UTF-8" standalone="no"?>
<!DOCTYPE svg PUBLIC "-//W3C//DTD SVG 1.1//EN"
 "http://www.w3.org/Graphics/SVG/1.1/DTD/svg11.dtd">
<!-- Generated by graphviz version 2.43.0 (0)
 -->
<!-- Title: %3 Pages: 1 -->
<svg width="1194pt" height="1308pt"
 viewBox="0.00 0.00 1193.50 1307.50" xmlns="http://www.w3.org/2000/svg" xmlns:xlink="http://www.w3.org/1999/xlink">
<g id="graph0" class="graph" transform="scale(1 1) rotate(0) translate(4 1303.5)">
<title>%3</title>
<polygon fill="white" stroke="transparent" points="-4,4 -4,-1303.5 1189.5,-1303.5 1189.5,4 -4,4"/>
<text text-anchor="start" x="270.25" y="-11.8" font-family="Arial" font-size="34.00">Container View: Browser Memory Daemon</text>
<g id="clust1" class="cluster">
<title>cluster_4</title>
<polygon fill="none" stroke="#444444" points="8,-346.5 8,-1291.5 1177.5,-1291.5 1177.5,-346.5 8,-346.5"/>
<text text-anchor="start" x="451.75" y="-375.3" font-family="Arial" font-size="24.00" fill="#444444">Browser Memory Daemon</text>
<text text-anchor="start" x="515.75" y="-355.3" font-family="Arial" font-size="19.00" fill="#444444">[Software System]</text>
</g>
<!-- 3 -->
<g id="3" class="node">
<title>3</title>
<polygon fill="#999999" stroke="#6b6b6b" points="1154,-321 751,-321 751,-56 1154,-56 1154,-321"/>
<text text-anchor="start" x="791" y="-272.8" font-family="Arial" font-size="34.00" fill="#ffffff">Web Sites and Media</text>
<text text-anchor="start" x="898.5" y="-238.8" font-family="Arial" font-size="34.00" fill="#ffffff">Origins</text>
<text text-anchor="start" x="875.5" y="-216.8" font-family="Arial" font-size="19.00" fill="#ffffff">[Software System]</text>
<text text-anchor="start" x="842.5" y="-179.8" font-family="Arial" font-size="24.00" fill="#ffffff">External web pages,</text>
<text text-anchor="start" x="790" y="-155.8" font-family="Arial" font-size="24.00" fill="#ffffff">image/video URLs, and media</text>
<text text-anchor="start" x="780" y="-131.8" font-family="Arial" font-size="24.00" fill="#ffffff">CDNs that Chrome loads or that</text>
<text text-anchor="start" x="790" y="-107.8" font-family="Arial" font-size="24.00" fill="#ffffff">sidecars fetch as page&#45;related</text>
<text text-anchor="start" x="916" y="-83.8" font-family="Arial" font-size="24.00" fill="#ffffff">media.</text>
</g>
<!-- 24 -->
<g id="24" class="node">
<title>24</title>
<polygon fill="#438dd5" stroke="#2e6295" points="387,-830 33,-830 33,-527 387,-527 387,-830"/>
<text text-anchor="start" x="63" y="-781.8" font-family="Arial" font-size="34.00" fill="#ffffff">WSL Media Worker</text>
<text text-anchor="start" x="70" y="-759.8" font-family="Arial" font-size="19.00" fill="#ffffff">[Container: Python 3.11 CLI loop]</text>
<text text-anchor="start" x="62.5" y="-722.8" font-family="Arial" font-size="24.00" fill="#ffffff">Long&#45;running systemd user</text>
<text text-anchor="start" x="111.5" y="-698.8" font-family="Arial" font-size="24.00" fill="#ffffff">worker that leases</text>
<text text-anchor="start" x="64" y="-674.8" font-family="Arial" font-size="24.00" fill="#ffffff">daemon&#45;public media fetch</text>
<text text-anchor="start" x="101" y="-650.8" font-family="Arial" font-size="24.00" fill="#ffffff">tasks, fetches public</text>
<text text-anchor="start" x="62" y="-626.8" font-family="Arial" font-size="24.00" fill="#ffffff">media/HLS without Chrome</text>
<text text-anchor="start" x="67" y="-602.8" font-family="Arial" font-size="24.00" fill="#ffffff">cookies, classifies terminal</text>
<text text-anchor="start" x="64" y="-578.8" font-family="Arial" font-size="24.00" fill="#ffffff">states, and updates artifact</text>
<text text-anchor="start" x="181" y="-554.8" font-family="Arial" font-size="24.00" fill="#ffffff">rows.</text>
</g>
<!-- 24&#45;&gt;3 -->
<g id="47" class="edge">
<title>24&#45;&gt;3</title>
<path fill="none" stroke="#444444" stroke-dasharray="5,2" d="M387.43,-561.76C494.06,-491.2 630.56,-400.87 742.57,-326.75"/>
<polygon fill="#444444" stroke="#444444" points="744.52,-329.66 750.93,-321.22 740.66,-323.82 744.52,-329.66"/>
<text text-anchor="start" x="430.5" y="-582.3" font-family="Arial" font-size="24.00" fill="#444444">Fetches public media and</text>
<text text-anchor="start" x="517.5" y="-558.3" font-family="Arial" font-size="24.00" fill="#444444">HLS from</text>
<text text-anchor="start" x="477" y="-538.3" font-family="Arial" font-size="19.00" fill="#444444">[HTTP(S), data URLs]</text>
</g>
<!-- 27 -->
<g id="27" class="node">
<title>27</title>
<path fill="#2f95c8" stroke="#20688c" d="M1128.5,-868.22C1128.5,-891.48 1049.61,-910.38 952.5,-910.38 855.39,-910.38 776.5,-891.48 776.5,-868.22 776.5,-868.22 776.5,-488.78 776.5,-488.78 776.5,-465.52 855.39,-446.62 952.5,-446.62 1049.61,-446.62 1128.5,-465.52 1128.5,-488.78 1128.5,-488.78 1128.5,-868.22 1128.5,-868.22"/>
<path fill="none" stroke="#20688c" d="M1128.5,-868.22C1128.5,-844.95 1049.61,-826.06 952.5,-826.06 855.39,-826.06 776.5,-844.95 776.5,-868.22"/>
<text text-anchor="start" x="839.5" y="-798.8" font-family="Arial" font-size="34.00" fill="#ffffff">SQLite + FTS5</text>
<text text-anchor="start" x="879.5" y="-764.8" font-family="Arial" font-size="34.00" fill="#ffffff">Database</text>
<text text-anchor="start" x="826.5" y="-742.8" font-family="Arial" font-size="19.00" fill="#ffffff">[Container: SQLite with FTS5]</text>
<text text-anchor="start" x="833.5" y="-705.8" font-family="Arial" font-size="24.00" fill="#ffffff">Durable relational and</text>
<text text-anchor="start" x="816" y="-681.8" font-family="Arial" font-size="24.00" fill="#ffffff">full&#45;text store for sources,</text>
<text text-anchor="start" x="832" y="-657.8" font-family="Arial" font-size="24.00" fill="#ffffff">documents, visits, visit</text>
<text text-anchor="start" x="806.5" y="-633.8" font-family="Arial" font-size="24.00" fill="#ffffff">events, snapshots, chunks,</text>
<text text-anchor="start" x="805.5" y="-609.8" font-family="Arial" font-size="24.00" fill="#ffffff">chunks_fts, media artifacts,</text>
<text text-anchor="start" x="820.5" y="-585.8" font-family="Arial" font-size="24.00" fill="#ffffff">media fetch tasks, policy</text>
<text text-anchor="start" x="827" y="-561.8" font-family="Arial" font-size="24.00" fill="#ffffff">rules, audit events, and</text>
<text text-anchor="start" x="860.5" y="-537.8" font-family="Arial" font-size="24.00" fill="#ffffff">deletion receipts.</text>
</g>
<!-- 24&#45;&gt;27 -->
<g id="46" class="edge">
<title>24&#45;&gt;27</title>
<path fill="none" stroke="#444444" stroke-dasharray="5,2" d="M387.43,-678.5C501.74,-678.5 650.37,-678.5 766.37,-678.5"/>
<polygon fill="#444444" stroke="#444444" points="766.42,-682 776.42,-678.5 766.42,-675 766.42,-682"/>
<text text-anchor="start" x="423" y="-727.3" font-family="Arial" font-size="24.00" fill="#444444">Leases and updates media</text>
<text text-anchor="start" x="528" y="-703.3" font-family="Arial" font-size="24.00" fill="#444444">tasks in</text>
<text text-anchor="start" x="535.5" y="-683.3" font-family="Arial" font-size="19.00" fill="#444444">[sqlite3]</text>
</g>
<!-- 29 -->
<g id="29" class="node">
<title>29</title>
<path fill="#2f95c8" stroke="#20688c" d="M1152.5,-1240.78C1152.5,-1255.04 1062.86,-1266.63 952.5,-1266.63 842.14,-1266.63 752.5,-1255.04 752.5,-1240.78 752.5,-1240.78 752.5,-1008.22 752.5,-1008.22 752.5,-993.96 842.14,-982.37 952.5,-982.37 1062.86,-982.37 1152.5,-993.96 1152.5,-1008.22 1152.5,-1008.22 1152.5,-1240.78 1152.5,-1240.78"/>
<path fill="none" stroke="#20688c" d="M1152.5,-1240.78C1152.5,-1226.53 1062.86,-1214.94 952.5,-1214.94 842.14,-1214.94 752.5,-1226.53 752.5,-1240.78"/>
<text text-anchor="start" x="813.5" y="-1179.8" font-family="Arial" font-size="34.00" fill="#ffffff">Media Blob Cache</text>
<text text-anchor="start" x="835" y="-1157.8" font-family="Arial" font-size="19.00" fill="#ffffff">[Container: WSL filesystem]</text>
<text text-anchor="start" x="819" y="-1120.8" font-family="Arial" font-size="24.00" fill="#ffffff">Bounded and disposable</text>
<text text-anchor="start" x="808" y="-1096.8" font-family="Arial" font-size="24.00" fill="#ffffff">filesystem cache for stored</text>
<text text-anchor="start" x="797" y="-1072.8" font-family="Arial" font-size="24.00" fill="#ffffff">image/video/audio blobs with</text>
<text text-anchor="start" x="781.5" y="-1048.8" font-family="Arial" font-size="24.00" fill="#ffffff">purge and rehydrate semantics.</text>
</g>
<!-- 24&#45;&gt;29 -->
<g id="48" class="edge">
<title>24&#45;&gt;29</title>
<path fill="none" stroke="#444444" stroke-dasharray="5,2" d="M387.43,-784.76C494.37,-849.17 631.35,-931.68 743.55,-999.25"/>
<polygon fill="#444444" stroke="#444444" points="741.89,-1002.34 752.26,-1004.5 745.5,-996.34 741.89,-1002.34"/>
<text text-anchor="start" x="423" y="-1028.3" font-family="Arial" font-size="24.00" fill="#444444">Writes fetched media blobs</text>
<text text-anchor="start" x="558.5" y="-1004.3" font-family="Arial" font-size="24.00" fill="#444444">to</text>
<text text-anchor="start" x="517.5" y="-984.3" font-family="Arial" font-size="19.00" fill="#444444">[Filesystem]</text>
</g>
</g>
</svg>
