<?xml version="1.0" encoding="UTF-8" standalone="no"?>
<!DOCTYPE svg PUBLIC "-//W3C//DTD SVG 1.1//EN"
 "http://www.w3.org/Graphics/SVG/1.1/DTD/svg11.dtd">
<!-- Generated by graphviz version 2.43.0 (0)
 -->
<!-- Title: %3 Pages: 1 -->
<svg width="1547pt" height="1654pt"
 viewBox="0.00 0.00 1547.00 1653.75" xmlns="http://www.w3.org/2000/svg" xmlns:xlink="http://www.w3.org/1999/xlink">
<g id="graph0" class="graph" transform="scale(1 1) rotate(0) translate(4 1649.75)">
<title>%3</title>
<polygon fill="white" stroke="transparent" points="-4,4 -4,-1649.75 1543,-1649.75 1543,4 -4,4"/>
<text text-anchor="start" x="447" y="-11.8" font-family="Arial" font-size="34.00">Container View: Browser Memory Daemon</text>
<g id="clust1" class="cluster">
<title>cluster_4</title>
<polygon fill="none" stroke="#444444" points="8,-64 8,-1637.75 1045,-1637.75 1045,-64 8,-64"/>
<text text-anchor="start" x="385.5" y="-92.8" font-family="Arial" font-size="24.00" fill="#444444">Browser Memory Daemon</text>
<text text-anchor="start" x="449.5" y="-72.8" font-family="Arial" font-size="19.00" fill="#444444">[Software System]</text>
</g>
<!-- 2 -->
<g id="2" class="node">
<title>2</title>
<polygon fill="#999999" stroke="#6b6b6b" points="1478,-1096.06 1092,-1096.06 1092,-865.06 1478,-865.06 1478,-1096.06"/>
<text text-anchor="start" x="1150.5" y="-1047.86" font-family="Arial" font-size="34.00" fill="#ffffff">Windows Chrome</text>
<text text-anchor="start" x="1208" y="-1025.86" font-family="Arial" font-size="19.00" fill="#ffffff">[Software System]</text>
<text text-anchor="start" x="1121" y="-988.86" font-family="Arial" font-size="24.00" fill="#ffffff">The Windows Chrome runtime</text>
<text text-anchor="start" x="1134.5" y="-964.86" font-family="Arial" font-size="24.00" fill="#ffffff">that loads web pages, hosts</text>
<text text-anchor="start" x="1134" y="-940.86" font-family="Arial" font-size="24.00" fill="#ffffff">the MV3 extension, runs the</text>
<text text-anchor="start" x="1126" y="-916.86" font-family="Arial" font-size="24.00" fill="#ffffff">local UI in a tab, and exposes</text>
<text text-anchor="start" x="1155.5" y="-892.86" font-family="Arial" font-size="24.00" fill="#ffffff">Chrome extension APIs.</text>
</g>
<!-- 13 -->
<g id="13" class="node">
<title>13</title>
<path fill="#2f95c8" stroke="#20688c" d="M485.5,-1129.78C485.5,-1148.08 383.98,-1162.94 259,-1162.94 134.02,-1162.94 32.5,-1148.08 32.5,-1129.78 32.5,-1129.78 32.5,-831.35 32.5,-831.35 32.5,-813.05 134.02,-798.19 259,-798.19 383.98,-798.19 485.5,-813.05 485.5,-831.35 485.5,-831.35 485.5,-1129.78 485.5,-1129.78"/>
<path fill="none" stroke="#20688c" d="M485.5,-1129.78C485.5,-1111.48 383.98,-1096.62 259,-1096.62 134.02,-1096.62 32.5,-1111.48 32.5,-1129.78"/>
<text text-anchor="start" x="117" y="-1064.86" font-family="Arial" font-size="34.00" fill="#ffffff">Extension Browser</text>
<text text-anchor="start" x="199.5" y="-1030.86" font-family="Arial" font-size="34.00" fill="#ffffff">Storage</text>
<text text-anchor="start" x="61.5" y="-1008.86" font-family="Arial" font-size="19.00" fill="#ffffff">[Container: chrome.storage.local + IndexedDB]</text>
<text text-anchor="start" x="126.5" y="-971.86" font-family="Arial" font-size="24.00" fill="#ffffff">Browser&#45;side storage for</text>
<text text-anchor="start" x="114.5" y="-947.86" font-family="Arial" font-size="24.00" fill="#ffffff">capture and visit queues in</text>
<text text-anchor="start" x="120.5" y="-923.86" font-family="Arial" font-size="24.00" fill="#ffffff">chrome.storage.local plus</text>
<text text-anchor="start" x="126.5" y="-899.86" font-family="Arial" font-size="24.00" fill="#ffffff">durable media tasks and</text>
<text text-anchor="start" x="107.5" y="-875.86" font-family="Arial" font-size="24.00" fill="#ffffff">fetched blobs in IndexedDB.</text>
</g>
<!-- 14 -->
<g id="14" class="node">
<title>14</title>
<polygon fill="#438dd5" stroke="#2e6295" points="1020,-1149.06 558,-1149.06 558,-812.06 1020,-812.06 1020,-1149.06"/>
<text text-anchor="start" x="624.5" y="-1100.86" font-family="Arial" font-size="34.00" fill="#ffffff">WSL Loopback HTTP</text>
<text text-anchor="start" x="724.5" y="-1066.86" font-family="Arial" font-size="34.00" fill="#ffffff">Daemon</text>
<text text-anchor="start" x="587" y="-1044.86" font-family="Arial" font-size="19.00" fill="#ffffff">[Container: Python 3.11, ThreadingHTTPServer]</text>
<text text-anchor="start" x="628" y="-1007.86" font-family="Arial" font-size="24.00" fill="#ffffff">Authenticated loopback HTTP</text>
<text text-anchor="start" x="653" y="-983.86" font-family="Arial" font-size="24.00" fill="#ffffff">API that handles capture,</text>
<text text-anchor="start" x="649.5" y="-959.86" font-family="Arial" font-size="24.00" fill="#ffffff">visit events, media artifact</text>
<text text-anchor="start" x="652.5" y="-935.86" font-family="Arial" font-size="24.00" fill="#ffffff">upload/fetch/purge, exact</text>
<text text-anchor="start" x="749" y="-911.86" font-family="Arial" font-size="24.00" fill="#ffffff">search,</text>
<text text-anchor="start" x="640" y="-887.86" font-family="Arial" font-size="24.00" fill="#ffffff">recent/timeline/detail, policy</text>
<text text-anchor="start" x="658" y="-863.86" font-family="Arial" font-size="24.00" fill="#ffffff">rules, doctor, forget, and</text>
<text text-anchor="start" x="699.5" y="-839.86" font-family="Arial" font-size="24.00" fill="#ffffff">static UI serving.</text>
</g>
<!-- 27 -->
<g id="27" class="node">
<title>27</title>
<path fill="#2f95c8" stroke="#20688c" d="M527,-585.4C527,-608.67 448.11,-627.56 351,-627.56 253.89,-627.56 175,-608.67 175,-585.4 175,-585.4 175,-205.97 175,-205.97 175,-182.71 253.89,-163.81 351,-163.81 448.11,-163.81 527,-182.71 527,-205.97 527,-205.97 527,-585.4 527,-585.4"/>
<path fill="none" stroke="#20688c" d="M527,-585.4C527,-562.14 448.11,-543.24 351,-543.24 253.89,-543.24 175,-562.14 175,-585.4"/>
<text text-anchor="start" x="238" y="-515.99" font-family="Arial" font-size="34.00" fill="#ffffff">SQLite + FTS5</text>
<text text-anchor="start" x="278" y="-481.99" font-family="Arial" font-size="34.00" fill="#ffffff">Database</text>
<text text-anchor="start" x="225" y="-459.99" font-family="Arial" font-size="19.00" fill="#ffffff">[Container: SQLite with FTS5]</text>
<text text-anchor="start" x="232" y="-422.99" font-family="Arial" font-size="24.00" fill="#ffffff">Durable relational and</text>
<text text-anchor="start" x="214.5" y="-398.99" font-family="Arial" font-size="24.00" fill="#ffffff">full&#45;text store for sources,</text>
<text text-anchor="start" x="230.5" y="-374.99" font-family="Arial" font-size="24.00" fill="#ffffff">documents, visits, visit</text>
<text text-anchor="start" x="205" y="-350.99" font-family="Arial" font-size="24.00" fill="#ffffff">events, snapshots, chunks,</text>
<text text-anchor="start" x="204" y="-326.99" font-family="Arial" font-size="24.00" fill="#ffffff">chunks_fts, media artifacts,</text>
<text text-anchor="start" x="219" y="-302.99" font-family="Arial" font-size="24.00" fill="#ffffff">media fetch tasks, policy</text>
<text text-anchor="start" x="225.5" y="-278.99" font-family="Arial" font-size="24.00" fill="#ffffff">rules, audit events, and</text>
<text text-anchor="start" x="259" y="-254.99" font-family="Arial" font-size="24.00" fill="#ffffff">deletion receipts.</text>
</g>
<!-- 14&#45;&gt;27 -->
<g id="43" class="edge">
<title>14&#45;&gt;27</title>
<path fill="none" stroke="#444444" stroke-dasharray="5,2" d="M557.89,-822.83C545.43,-814.53 533.07,-806.34 521,-798.38 496.3,-782.09 482.93,-785.91 465,-762.38 436.88,-725.45 415.63,-681.49 399.57,-637.06"/>
<polygon fill="#444444" stroke="#444444" points="402.86,-635.84 396.23,-627.57 396.25,-638.17 402.86,-635.84"/>
<polygon fill="white" stroke="transparent" points="465,-663.38 465,-762.38 775,-762.38 775,-663.38 465,-663.38"/>
<text text-anchor="start" x="469" y="-739.67" font-family="Arial" font-size="24.00" fill="#444444">Reads and writes metadata,</text>
<text text-anchor="start" x="502" y="-715.67" font-family="Arial" font-size="24.00" fill="#444444">FTS, tasks, audit, and</text>
<text text-anchor="start" x="564.5" y="-691.67" font-family="Arial" font-size="24.00" fill="#444444">receipts in</text>
<text text-anchor="start" x="586.5" y="-671.67" font-family="Arial" font-size="19.00" fill="#444444">[sqlite3]</text>
</g>
<!-- 28 -->
<g id="28" class="node">
<title>28</title>
<path fill="#2f95c8" stroke="#20688c" d="M999.5,-498.47C999.5,-511.08 909.63,-521.31 799,-521.31 688.37,-521.31 598.5,-511.08 598.5,-498.47 598.5,-498.47 598.5,-292.9 598.5,-292.9 598.5,-280.3 688.37,-270.06 799,-270.06 909.63,-270.06 999.5,-280.3 999.5,-292.9 999.5,-292.9 999.5,-498.47 999.5,-498.47"/>
<path fill="none" stroke="#20688c" d="M999.5,-498.47C999.5,-485.87 909.63,-475.63 799,-475.63 688.37,-475.63 598.5,-485.87 598.5,-498.47"/>
<text text-anchor="start" x="634.5" y="-438.99" font-family="Arial" font-size="34.00" fill="#ffffff">Clean Text Blob Store</text>
<text text-anchor="start" x="681.5" y="-416.99" font-family="Arial" font-size="19.00" fill="#ffffff">[Container: WSL filesystem]</text>
<text text-anchor="start" x="640.5" y="-379.99" font-family="Arial" font-size="24.00" fill="#ffffff">Filesystem store for snapshot</text>
<text text-anchor="start" x="627.5" y="-355.99" font-family="Arial" font-size="24.00" fill="#ffffff">text blobs under WSL XDG data</text>
<text text-anchor="start" x="765.5" y="-331.99" font-family="Arial" font-size="24.00" fill="#ffffff">paths.</text>
</g>
<!-- 14&#45;&gt;28 -->
<g id="44" class="edge">
<title>14&#45;&gt;28</title>
<path fill="none" stroke="#444444" stroke-dasharray="5,2" d="M791.88,-811.75C793.4,-722.88 795.25,-615.18 796.68,-531.76"/>
<polygon fill="#444444" stroke="#444444" points="800.18,-531.77 796.86,-521.71 793.18,-531.65 800.18,-531.77"/>
<polygon fill="white" stroke="transparent" points="795,-675.38 795,-750.38 1036,-750.38 1036,-675.38 795,-675.38"/>
<text text-anchor="start" x="799.5" y="-727.67" font-family="Arial" font-size="24.00" fill="#444444">Reads and writes text</text>
<text text-anchor="start" x="848" y="-703.67" font-family="Arial" font-size="24.00" fill="#444444">snapshots in</text>
<text text-anchor="start" x="864.5" y="-683.67" font-family="Arial" font-size="19.00" fill="#444444">[Filesystem]</text>
</g>
<!-- 5 -->
<g id="5" class="node">
<title>5</title>
<polygon fill="#438dd5" stroke="#2e6295" points="742,-1612.75 308,-1612.75 308,-1333.75 742,-1333.75 742,-1612.75"/>
<text text-anchor="start" x="345" y="-1564.55" font-family="Arial" font-size="34.00" fill="#ffffff">Chrome MV3 Extension</text>
<text text-anchor="start" x="337" y="-1542.55" font-family="Arial" font-size="19.00" fill="#ffffff">[Container: JavaScript, Chrome Manifest V3]</text>
<text text-anchor="start" x="382" y="-1505.55" font-family="Arial" font-size="24.00" fill="#ffffff">Captures visible page text,</text>
<text text-anchor="start" x="407.5" y="-1481.55" font-family="Arial" font-size="24.00" fill="#ffffff">media references, tab</text>
<text text-anchor="start" x="416" y="-1457.55" font-family="Arial" font-size="24.00" fill="#ffffff">lifecycle events, and</text>
<text text-anchor="start" x="359" y="-1433.55" font-family="Arial" font-size="24.00" fill="#ffffff">browser&#45;side media bytes from</text>
<text text-anchor="start" x="354" y="-1409.55" font-family="Arial" font-size="24.00" fill="#ffffff">Windows Chrome; queues work</text>
<text text-anchor="start" x="366" y="-1385.55" font-family="Arial" font-size="24.00" fill="#ffffff">durably and posts to the WSL</text>
<text text-anchor="start" x="477.5" y="-1361.55" font-family="Arial" font-size="24.00" fill="#ffffff">daemon.</text>
</g>
<!-- 5&#45;&gt;2 -->
<g id="35" class="edge">
<title>5&#45;&gt;2</title>
<path fill="none" stroke="#444444" stroke-dasharray="5,2" d="M742.18,-1436.9C906.63,-1406.08 1114.68,-1357.07 1178,-1297.75 1230.9,-1248.19 1257.65,-1171.58 1271.17,-1106.18"/>
<polygon fill="#444444" stroke="#444444" points="1274.64,-1106.7 1273.15,-1096.21 1267.77,-1105.33 1274.64,-1106.7"/>
<polygon fill="white" stroke="transparent" points="1242,-1198.75 1242,-1297.75 1539,-1297.75 1539,-1198.75 1242,-1198.75"/>
<text text-anchor="start" x="1288" y="-1275.05" font-family="Arial" font-size="24.00" fill="#444444">Uses tab, scripting,</text>
<text text-anchor="start" x="1246.5" y="-1251.05" font-family="Arial" font-size="24.00" fill="#444444">storage, alarms, debugger,</text>
<text text-anchor="start" x="1271" y="-1227.05" font-family="Arial" font-size="24.00" fill="#444444">and runtime APIs from</text>
<text text-anchor="start" x="1286" y="-1207.05" font-family="Arial" font-size="19.00" fill="#444444">[Chrome extension APIs]</text>
</g>
<!-- 5&#45;&gt;13 -->
<g id="37" class="edge">
<title>5&#45;&gt;13</title>
<path fill="none" stroke="#444444" stroke-dasharray="5,2" d="M322.01,-1333.58C312.63,-1322.25 304.16,-1310.3 297,-1297.75 275.58,-1260.22 263.7,-1216.13 257.53,-1172.99"/>
<polygon fill="#444444" stroke="#444444" points="260.98,-1172.37 256.19,-1162.92 254.04,-1173.3 260.98,-1172.37"/>
<polygon fill="white" stroke="transparent" points="297,-1198.75 297,-1297.75 608,-1297.75 608,-1198.75 297,-1198.75"/>
<text text-anchor="start" x="311" y="-1275.05" font-family="Arial" font-size="24.00" fill="#444444">Queues captures, lifecycle</text>
<text text-anchor="start" x="319" y="-1251.05" font-family="Arial" font-size="24.00" fill="#444444">events, media tasks, and</text>
<text text-anchor="start" x="411" y="-1227.05" font-family="Arial" font-size="24.00" fill="#444444">blobs in</text>
<text text-anchor="start" x="301.5" y="-1207.05" font-family="Arial" font-size="19.00" fill="#444444">[chrome.storage.local + IndexedDB]</text>
</g>
<!-- 5&#45;&gt;14 -->
<g id="38" class="edge">
<title>5&#45;&gt;14</title>
<path fill="none" stroke="#444444" stroke-dasharray="5,2" d="M599.59,-1333.61C628.89,-1279.15 662.87,-1215.99 693.9,-1158.33"/>
<polygon fill="#444444" stroke="#444444" points="696.99,-1159.96 698.65,-1149.49 690.83,-1156.64 696.99,-1159.96"/>
<polygon fill="white" stroke="transparent" points="665,-1198.75 665,-1297.75 1160,-1297.75 1160,-1198.75 665,-1198.75"/>
<text text-anchor="start" x="787" y="-1275.05" font-family="Arial" font-size="24.00" fill="#444444">Posts captures, events,</text>
<text text-anchor="start" x="776" y="-1251.05" font-family="Arial" font-size="24.00" fill="#444444">media metadata, and raw</text>
<text text-anchor="start" x="870.5" y="-1227.05" font-family="Arial" font-size="24.00" fill="#444444">blobs to</text>
<text text-anchor="start" x="669.5" y="-1207.05" font-family="Arial" font-size="19.00" fill="#444444">[Bearer HTTP/JSON; raw HTTP PUT over 127.0.0.1:8765]</text>
</g>
</g>
</svg>
