<?xml version="1.0" encoding="UTF-8" standalone="no"?>
<!DOCTYPE svg PUBLIC "-//W3C//DTD SVG 1.1//EN"
 "http://www.w3.org/Graphics/SVG/1.1/DTD/svg11.dtd">
<!-- Generated by graphviz version 2.43.0 (0)
 -->
<!-- Title: %3 Pages: 1 -->
<svg width="1927pt" height="1638pt"
 viewBox="0.00 0.00 1927.00 1637.75" xmlns="http://www.w3.org/2000/svg" xmlns:xlink="http://www.w3.org/1999/xlink">
<g id="graph0" class="graph" transform="scale(1 1) rotate(0) translate(4 1633.75)">
<title>%3</title>
<polygon fill="white" stroke="transparent" points="-4,4 -4,-1633.75 1923,-1633.75 1923,4 -4,4"/>
<text text-anchor="start" x="637" y="-11.8" font-family="Arial" font-size="34.00">Container View: Browser Memory Daemon</text>
<g id="clust1" class="cluster">
<title>cluster_4</title>
<polygon fill="none" stroke="#444444" points="8,-64 8,-1621.75 1045,-1621.75 1045,-64 8,-64"/>
<text text-anchor="start" x="385.5" y="-92.8" font-family="Arial" font-size="24.00" fill="#444444">Browser Memory Daemon</text>
<text text-anchor="start" x="449.5" y="-72.8" font-family="Arial" font-size="19.00" fill="#444444">[Software System]</text>
</g>
<!-- 2 -->
<g id="2" class="node">
<title>2</title>
<polygon fill="#999999" stroke="#6b6b6b" points="1478,-1088.06 1092,-1088.06 1092,-857.06 1478,-857.06 1478,-1088.06"/>
<text text-anchor="start" x="1150.5" y="-1039.86" font-family="Arial" font-size="34.00" fill="#ffffff">Windows Chrome</text>
<text text-anchor="start" x="1208" y="-1017.86" font-family="Arial" font-size="19.00" fill="#ffffff">[Software System]</text>
<text text-anchor="start" x="1121" y="-980.86" font-family="Arial" font-size="24.00" fill="#ffffff">The Windows Chrome runtime</text>
<text text-anchor="start" x="1134.5" y="-956.86" font-family="Arial" font-size="24.00" fill="#ffffff">that loads web pages, hosts</text>
<text text-anchor="start" x="1134" y="-932.86" font-family="Arial" font-size="24.00" fill="#ffffff">the MV3 extension, runs the</text>
<text text-anchor="start" x="1126" y="-908.86" font-family="Arial" font-size="24.00" fill="#ffffff">local UI in a tab, and exposes</text>
<text text-anchor="start" x="1155.5" y="-884.86" font-family="Arial" font-size="24.00" fill="#ffffff">Chrome extension APIs.</text>
</g>
<!-- 3 -->
<g id="3" class="node">
<title>3</title>
<polygon fill="#999999" stroke="#6b6b6b" points="1649.5,-528.19 1246.5,-528.19 1246.5,-263.19 1649.5,-263.19 1649.5,-528.19"/>
<text text-anchor="start" x="1286.5" y="-479.99" font-family="Arial" font-size="34.00" fill="#ffffff">Web Sites and Media</text>
<text text-anchor="start" x="1394" y="-445.99" font-family="Arial" font-size="34.00" fill="#ffffff">Origins</text>
<text text-anchor="start" x="1371" y="-423.99" font-family="Arial" font-size="19.00" fill="#ffffff">[Software System]</text>
<text text-anchor="start" x="1338" y="-386.99" font-family="Arial" font-size="24.00" fill="#ffffff">External web pages,</text>
<text text-anchor="start" x="1285.5" y="-362.99" font-family="Arial" font-size="24.00" fill="#ffffff">image/video URLs, and media</text>
<text text-anchor="start" x="1275.5" y="-338.99" font-family="Arial" font-size="24.00" fill="#ffffff">CDNs that Chrome loads or that</text>
<text text-anchor="start" x="1285.5" y="-314.99" font-family="Arial" font-size="24.00" fill="#ffffff">sidecars fetch as page&#45;related</text>
<text text-anchor="start" x="1411.5" y="-290.99" font-family="Arial" font-size="24.00" fill="#ffffff">media.</text>
</g>
<!-- 2&#45;&gt;3 -->
<g id="32" class="edge">
<title>2&#45;&gt;3</title>
<path fill="none" stroke="#444444" stroke-dasharray="5,2" d="M1252.12,-856.83C1240.59,-797.79 1234.92,-725.38 1255,-663.38 1269.51,-618.58 1294.67,-574.99 1322.12,-536.48"/>
<polygon fill="#444444" stroke="#444444" points="1324.99,-538.49 1328.01,-528.34 1319.31,-534.39 1324.99,-538.49"/>
<text text-anchor="start" x="1255" y="-712.17" font-family="Arial" font-size="24.00" fill="#444444">Loads pages and media from</text>
<text text-anchor="start" x="1376" y="-692.17" font-family="Arial" font-size="19.00" fill="#444444">[HTTPS]</text>
</g>
<!-- 13 -->
<g id="13" class="node">
<title>13</title>
<path fill="#2f95c8" stroke="#20688c" d="M485.5,-1121.78C485.5,-1140.08 383.98,-1154.94 259,-1154.94 134.02,-1154.94 32.5,-1140.08 32.5,-1121.78 32.5,-1121.78 32.5,-823.35 32.5,-823.35 32.5,-805.05 134.02,-790.19 259,-790.19 383.98,-790.19 485.5,-805.05 485.5,-823.35 485.5,-823.35 485.5,-1121.78 485.5,-1121.78"/>
<path fill="none" stroke="#20688c" d="M485.5,-1121.78C485.5,-1103.48 383.98,-1088.62 259,-1088.62 134.02,-1088.62 32.5,-1103.48 32.5,-1121.78"/>
<text text-anchor="start" x="117" y="-1056.86" font-family="Arial" font-size="34.00" fill="#ffffff">Extension Browser</text>
<text text-anchor="start" x="199.5" y="-1022.86" font-family="Arial" font-size="34.00" fill="#ffffff">Storage</text>
<text text-anchor="start" x="61.5" y="-1000.86" font-family="Arial" font-size="19.00" fill="#ffffff">[Container: chrome.storage.local + IndexedDB]</text>
<text text-anchor="start" x="126.5" y="-963.86" font-family="Arial" font-size="24.00" fill="#ffffff">Browser&#45;side storage for</text>
<text text-anchor="start" x="114.5" y="-939.86" font-family="Arial" font-size="24.00" fill="#ffffff">capture and visit queues in</text>
<text text-anchor="start" x="120.5" y="-915.86" font-family="Arial" font-size="24.00" fill="#ffffff">chrome.storage.local plus</text>
<text text-anchor="start" x="126.5" y="-891.86" font-family="Arial" font-size="24.00" fill="#ffffff">durable media tasks and</text>
<text text-anchor="start" x="107.5" y="-867.86" font-family="Arial" font-size="24.00" fill="#ffffff">fetched blobs in IndexedDB.</text>
</g>
<!-- 14 -->
<g id="14" class="node">
<title>14</title>
<polygon fill="#438dd5" stroke="#2e6295" points="1020,-1141.06 558,-1141.06 558,-804.06 1020,-804.06 1020,-1141.06"/>
<text text-anchor="start" x="624.5" y="-1092.86" font-family="Arial" font-size="34.00" fill="#ffffff">WSL Loopback HTTP</text>
<text text-anchor="start" x="724.5" y="-1058.86" font-family="Arial" font-size="34.00" fill="#ffffff">Daemon</text>
<text text-anchor="start" x="587" y="-1036.86" font-family="Arial" font-size="19.00" fill="#ffffff">[Container: Python 3.11, ThreadingHTTPServer]</text>
<text text-anchor="start" x="628" y="-999.86" font-family="Arial" font-size="24.00" fill="#ffffff">Authenticated loopback HTTP</text>
<text text-anchor="start" x="653" y="-975.86" font-family="Arial" font-size="24.00" fill="#ffffff">API that handles capture,</text>
<text text-anchor="start" x="649.5" y="-951.86" font-family="Arial" font-size="24.00" fill="#ffffff">visit events, media artifact</text>
<text text-anchor="start" x="652.5" y="-927.86" font-family="Arial" font-size="24.00" fill="#ffffff">upload/fetch/purge, exact</text>
<text text-anchor="start" x="749" y="-903.86" font-family="Arial" font-size="24.00" fill="#ffffff">search,</text>
<text text-anchor="start" x="640" y="-879.86" font-family="Arial" font-size="24.00" fill="#ffffff">recent/timeline/detail, policy</text>
<text text-anchor="start" x="658" y="-855.86" font-family="Arial" font-size="24.00" fill="#ffffff">rules, doctor, forget, and</text>
<text text-anchor="start" x="699.5" y="-831.86" font-family="Arial" font-size="24.00" fill="#ffffff">static UI serving.</text>
</g>
<!-- 27 -->
<g id="27" class="node">
<title>27</title>
<path fill="#2f95c8" stroke="#20688c" d="M520,-585.4C520,-608.67 441.11,-627.56 344,-627.56 246.89,-627.56 168,-608.67 168,-585.4 168,-585.4 168,-205.97 168,-205.97 168,-182.71 246.89,-163.81 344,-163.81 441.11,-163.81 520,-182.71 520,-205.97 520,-205.97 520,-585.4 520,-585.4"/>
<path fill="none" stroke="#20688c" d="M520,-585.4C520,-562.14 441.11,-543.24 344,-543.24 246.89,-543.24 168,-562.14 168,-585.4"/>
<text text-anchor="start" x="231" y="-515.99" font-family="Arial" font-size="34.00" fill="#ffffff">SQLite + FTS5</text>
<text text-anchor="start" x="271" y="-481.99" font-family="Arial" font-size="34.00" fill="#ffffff">Database</text>
<text text-anchor="start" x="218" y="-459.99" font-family="Arial" font-size="19.00" fill="#ffffff">[Container: SQLite with FTS5]</text>
<text text-anchor="start" x="225" y="-422.99" font-family="Arial" font-size="24.00" fill="#ffffff">Durable relational and</text>
<text text-anchor="start" x="207.5" y="-398.99" font-family="Arial" font-size="24.00" fill="#ffffff">full&#45;text store for sources,</text>
<text text-anchor="start" x="223.5" y="-374.99" font-family="Arial" font-size="24.00" fill="#ffffff">documents, visits, visit</text>
<text text-anchor="start" x="198" y="-350.99" font-family="Arial" font-size="24.00" fill="#ffffff">events, snapshots, chunks,</text>
<text text-anchor="start" x="197" y="-326.99" font-family="Arial" font-size="24.00" fill="#ffffff">chunks_fts, media artifacts,</text>
<text text-anchor="start" x="212" y="-302.99" font-family="Arial" font-size="24.00" fill="#ffffff">media fetch tasks, policy</text>
<text text-anchor="start" x="218.5" y="-278.99" font-family="Arial" font-size="24.00" fill="#ffffff">rules, audit events, and</text>
<text text-anchor="start" x="252" y="-254.99" font-family="Arial" font-size="24.00" fill="#ffffff">deletion receipts.</text>
</g>
<!-- 14&#45;&gt;27 -->
<g id="43" class="edge">
<title>14&#45;&gt;27</title>
<path fill="none" stroke="#444444" stroke-dasharray="5,2" d="M557.87,-815.49C510.01,-782.81 473.2,-757.23 471,-754.38 444.18,-719.55 422.71,-678.59 405.63,-637.06"/>
<polygon fill="#444444" stroke="#444444" points="408.81,-635.59 401.82,-627.62 402.32,-638.21 408.81,-635.59"/>
<text text-anchor="start" x="471" y="-736.17" font-family="Arial" font-size="24.00" fill="#444444">Reads and writes metadata,</text>
<text text-anchor="start" x="504" y="-712.17" font-family="Arial" font-size="24.00" fill="#444444">FTS, tasks, audit, and</text>
<text text-anchor="start" x="566.5" y="-688.17" font-family="Arial" font-size="24.00" fill="#444444">receipts in</text>
<text text-anchor="start" x="588.5" y="-668.17" font-family="Arial" font-size="19.00" fill="#444444">[sqlite3]</text>
</g>
<!-- 28 -->
<g id="28" class="node">
<title>28</title>
<path fill="#2f95c8" stroke="#20688c" d="M992.5,-498.47C992.5,-511.08 902.63,-521.31 792,-521.31 681.37,-521.31 591.5,-511.08 591.5,-498.47 591.5,-498.47 591.5,-292.9 591.5,-292.9 591.5,-280.3 681.37,-270.06 792,-270.06 902.63,-270.06 992.5,-280.3 992.5,-292.9 992.5,-292.9 992.5,-498.47 992.5,-498.47"/>
<path fill="none" stroke="#20688c" d="M992.5,-498.47C992.5,-485.87 902.63,-475.63 792,-475.63 681.37,-475.63 591.5,-485.87 591.5,-498.47"/>
<text text-anchor="start" x="627.5" y="-438.99" font-family="Arial" font-size="34.00" fill="#ffffff">Clean Text Blob Store</text>
<text text-anchor="start" x="674.5" y="-416.99" font-family="Arial" font-size="19.00" fill="#ffffff">[Container: WSL filesystem]</text>
<text text-anchor="start" x="633.5" y="-379.99" font-family="Arial" font-size="24.00" fill="#ffffff">Filesystem store for snapshot</text>
<text text-anchor="start" x="620.5" y="-355.99" font-family="Arial" font-size="24.00" fill="#ffffff">text blobs under WSL XDG data</text>
<text text-anchor="start" x="758.5" y="-331.99" font-family="Arial" font-size="24.00" fill="#ffffff">paths.</text>
</g>
<!-- 14&#45;&gt;28 -->
<g id="44" class="edge">
<title>14&#45;&gt;28</title>
<path fill="none" stroke="#444444" stroke-dasharray="5,2" d="M789.88,-803.74C790.33,-717.29 790.87,-613.28 791.29,-532.03"/>
<polygon fill="#444444" stroke="#444444" points="794.8,-531.76 791.35,-521.74 787.8,-531.72 794.8,-531.76"/>
<text text-anchor="start" x="791" y="-724.17" font-family="Arial" font-size="24.00" fill="#444444">Reads and writes text</text>
<text text-anchor="start" x="839.5" y="-700.17" font-family="Arial" font-size="24.00" fill="#444444">snapshots in</text>
<text text-anchor="start" x="856" y="-680.17" font-family="Arial" font-size="19.00" fill="#444444">[Filesystem]</text>
</g>
<!-- 5 -->
<g id="5" class="node">
<title>5</title>
<polygon fill="#438dd5" stroke="#2e6295" points="885,-1596.75 451,-1596.75 451,-1317.75 885,-1317.75 885,-1596.75"/>
<text text-anchor="start" x="488" y="-1548.55" font-family="Arial" font-size="34.00" fill="#ffffff">Chrome MV3 Extension</text>
<text text-anchor="start" x="480" y="-1526.55" font-family="Arial" font-size="19.00" fill="#ffffff">[Container: JavaScript, Chrome Manifest V3]</text>
<text text-anchor="start" x="525" y="-1489.55" font-family="Arial" font-size="24.00" fill="#ffffff">Captures visible page text,</text>
<text text-anchor="start" x="550.5" y="-1465.55" font-family="Arial" font-size="24.00" fill="#ffffff">media references, tab</text>
<text text-anchor="start" x="559" y="-1441.55" font-family="Arial" font-size="24.00" fill="#ffffff">lifecycle events, and</text>
<text text-anchor="start" x="502" y="-1417.55" font-family="Arial" font-size="24.00" fill="#ffffff">browser&#45;side media bytes from</text>
<text text-anchor="start" x="497" y="-1393.55" font-family="Arial" font-size="24.00" fill="#ffffff">Windows Chrome; queues work</text>
<text text-anchor="start" x="509" y="-1369.55" font-family="Arial" font-size="24.00" fill="#ffffff">durably and posts to the WSL</text>
<text text-anchor="start" x="620.5" y="-1345.55" font-family="Arial" font-size="24.00" fill="#ffffff">daemon.</text>
</g>
<!-- 5&#45;&gt;2 -->
<g id="35" class="edge">
<title>5&#45;&gt;2</title>
<path fill="none" stroke="#444444" stroke-dasharray="5,2" d="M885.27,-1404.94C964.25,-1378.16 1049.99,-1338.71 1115,-1281.75 1171.18,-1232.53 1212.46,-1160.06 1240.27,-1097.76"/>
<polygon fill="#444444" stroke="#444444" points="1243.63,-1098.81 1244.45,-1088.25 1237.22,-1096 1243.63,-1098.81"/>
<text text-anchor="start" x="1229.5" y="-1263.55" font-family="Arial" font-size="24.00" fill="#444444">Uses tab, scripting,</text>
<text text-anchor="start" x="1188" y="-1239.55" font-family="Arial" font-size="24.00" fill="#444444">storage, alarms, debugger,</text>
<text text-anchor="start" x="1212.5" y="-1215.55" font-family="Arial" font-size="24.00" fill="#444444">and runtime APIs from</text>
<text text-anchor="start" x="1227.5" y="-1195.55" font-family="Arial" font-size="19.00" fill="#444444">[Chrome extension APIs]</text>
</g>
<!-- 5&#45;&gt;3 -->
<g id="36" class="edge">
<title>5&#45;&gt;3</title>
<path fill="none" stroke="#444444" stroke-dasharray="5,2" d="M885.33,-1437.84C1101.47,-1414.88 1412.43,-1367.76 1495,-1281.75 1687.3,-1081.45 1648.87,-933.36 1584,-663.38 1573.72,-620.57 1555.35,-576.89 1535.37,-537.6"/>
<polygon fill="#444444" stroke="#444444" points="1538.23,-535.52 1530.54,-528.24 1532.01,-538.73 1538.23,-535.52"/>
<text text-anchor="start" x="1655" y="-999.86" font-family="Arial" font-size="24.00" fill="#444444">Extracts DOM refs and</text>
<text text-anchor="start" x="1694.5" y="-975.86" font-family="Arial" font-size="24.00" fill="#444444">fetches queued</text>
<text text-anchor="start" x="1647" y="-951.86" font-family="Arial" font-size="24.00" fill="#444444">credentialed media from</text>
<text text-anchor="start" x="1636" y="-931.86" font-family="Arial" font-size="19.00" fill="#444444">[DOM; fetch(credentials: include)]</text>
</g>
<!-- 5&#45;&gt;13 -->
<g id="37" class="edge">
<title>5&#45;&gt;13</title>
<path fill="none" stroke="#444444" stroke-dasharray="5,2" d="M450.86,-1403.54C387.19,-1377.37 324,-1338.67 284,-1281.75 260.14,-1247.8 248.41,-1206.25 243.66,-1164.79"/>
<polygon fill="#444444" stroke="#444444" points="247.14,-1164.42 242.65,-1154.82 240.18,-1165.13 247.14,-1164.42"/>
<text text-anchor="start" x="293.5" y="-1263.55" font-family="Arial" font-size="24.00" fill="#444444">Queues captures, lifecycle</text>
<text text-anchor="start" x="301.5" y="-1239.55" font-family="Arial" font-size="24.00" fill="#444444">events, media tasks, and</text>
<text text-anchor="start" x="393.5" y="-1215.55" font-family="Arial" font-size="24.00" fill="#444444">blobs in</text>
<text text-anchor="start" x="284" y="-1195.55" font-family="Arial" font-size="19.00" fill="#444444">[chrome.storage.local + IndexedDB]</text>
</g>
<!-- 5&#45;&gt;14 -->
<g id="38" class="edge">
<title>5&#45;&gt;14</title>
<path fill="none" stroke="#444444" stroke-dasharray="5,2" d="M611.8,-1317.51C602.45,-1276.08 599.8,-1231.01 614,-1190.75 618.84,-1177.02 624.96,-1163.52 631.99,-1150.39"/>
<polygon fill="#444444" stroke="#444444" points="635.21,-1151.8 637,-1141.36 629.09,-1148.41 635.21,-1151.8"/>
<text text-anchor="start" x="731.5" y="-1263.55" font-family="Arial" font-size="24.00" fill="#444444">Posts captures, events,</text>
<text text-anchor="start" x="720.5" y="-1239.55" font-family="Arial" font-size="24.00" fill="#444444">media metadata, and raw</text>
<text text-anchor="start" x="815" y="-1215.55" font-family="Arial" font-size="24.00" fill="#444444">blobs to</text>
<text text-anchor="start" x="614" y="-1195.55" font-family="Arial" font-size="19.00" fill="#444444">[Bearer HTTP/JSON; raw HTTP PUT over 127.0.0.1:8765]</text>
</g>
</g>
</svg>
