<?xml version="1.0" encoding="UTF-8" standalone="no"?>
<!DOCTYPE svg PUBLIC "-//W3C//DTD SVG 1.1//EN"
 "http://www.w3.org/Graphics/SVG/1.1/DTD/svg11.dtd">
<!-- Generated by graphviz version 2.43.0 (0)
 -->
<!-- Title: %3 Pages: 1 -->
<svg width="1203pt" height="1308pt"
 viewBox="0.00 0.00 1202.50 1307.50" xmlns="http://www.w3.org/2000/svg" xmlns:xlink="http://www.w3.org/1999/xlink">
<g id="graph0" class="graph" transform="scale(1 1) rotate(0) translate(4 1303.5)">
<title>%3</title>
<polygon fill="white" stroke="transparent" points="-4,4 -4,-1303.5 1198.5,-1303.5 1198.5,4 -4,4"/>
<text text-anchor="start" x="281.75" y="-11.8" font-family="Arial" font-size="34.00">Dynamic View: Browser Memory Daemon</text>
<g id="clust1" class="cluster">
<title>cluster_4</title>
<polygon fill="none" stroke="#444444" points="8,-346.5 8,-1291.5 1186.5,-1291.5 1186.5,-346.5 8,-346.5"/>
<text text-anchor="start" x="456.25" y="-375.3" font-family="Arial" font-size="24.00" fill="#444444">Browser Memory Daemon</text>
<text text-anchor="start" x="520.25" y="-355.3" font-family="Arial" font-size="19.00" fill="#444444">[Software System]</text>
</g>
<!-- 24 -->
<g id="24" class="node">
<title>24</title>
<polygon fill="#438dd5" stroke="#2e6295" points="387,-794 33,-794 33,-491 387,-491 387,-794"/>
<text text-anchor="start" x="63" y="-745.8" font-family="Arial" font-size="34.00" fill="#ffffff">WSL Media Worker</text>
<text text-anchor="start" x="70" y="-723.8" font-family="Arial" font-size="19.00" fill="#ffffff">[Container: Python 3.11 CLI loop]</text>
<text text-anchor="start" x="62.5" y="-686.8" font-family="Arial" font-size="24.00" fill="#ffffff">Long&#45;running systemd user</text>
<text text-anchor="start" x="111.5" y="-662.8" font-family="Arial" font-size="24.00" fill="#ffffff">worker that leases</text>
<text text-anchor="start" x="64" y="-638.8" font-family="Arial" font-size="24.00" fill="#ffffff">daemon&#45;public media fetch</text>
<text text-anchor="start" x="101" y="-614.8" font-family="Arial" font-size="24.00" fill="#ffffff">tasks, fetches public</text>
<text text-anchor="start" x="62" y="-590.8" font-family="Arial" font-size="24.00" fill="#ffffff">media/HLS without Chrome</text>
<text text-anchor="start" x="67" y="-566.8" font-family="Arial" font-size="24.00" fill="#ffffff">cookies, classifies terminal</text>
<text text-anchor="start" x="64" y="-542.8" font-family="Arial" font-size="24.00" fill="#ffffff">states, and updates artifact</text>
<text text-anchor="start" x="181" y="-518.8" font-family="Arial" font-size="24.00" fill="#ffffff">rows.</text>
</g>
<!-- 27 -->
<g id="27" class="node">
<title>27</title>
<path fill="#2f95c8" stroke="#20688c" d="M1137.5,-868.22C1137.5,-891.48 1058.61,-910.38 961.5,-910.38 864.39,-910.38 785.5,-891.48 785.5,-868.22 785.5,-868.22 785.5,-488.78 785.5,-488.78 785.5,-465.52 864.39,-446.62 961.5,-446.62 1058.61,-446.62 1137.5,-465.52 1137.5,-488.78 1137.5,-488.78 1137.5,-868.22 1137.5,-868.22"/>
<path fill="none" stroke="#20688c" d="M1137.5,-868.22C1137.5,-844.95 1058.61,-826.06 961.5,-826.06 864.39,-826.06 785.5,-844.95 785.5,-868.22"/>
<text text-anchor="start" x="848.5" y="-798.8" font-family="Arial" font-size="34.00" fill="#ffffff">SQLite + FTS5</text>
<text text-anchor="start" x="888.5" y="-764.8" font-family="Arial" font-size="34.00" fill="#ffffff">Database</text>
<text text-anchor="start" x="835.5" y="-742.8" font-family="Arial" font-size="19.00" fill="#ffffff">[Container: SQLite with FTS5]</text>
<text text-anchor="start" x="842.5" y="-705.8" font-family="Arial" font-size="24.00" fill="#ffffff">Durable relational and</text>
<text text-anchor="start" x="825" y="-681.8" font-family="Arial" font-size="24.00" fill="#ffffff">full&#45;text store for sources,</text>
<text text-anchor="start" x="841" y="-657.8" font-family="Arial" font-size="24.00" fill="#ffffff">documents, visits, visit</text>
<text text-anchor="start" x="815.5" y="-633.8" font-family="Arial" font-size="24.00" fill="#ffffff">events, snapshots, chunks,</text>
<text text-anchor="start" x="814.5" y="-609.8" font-family="Arial" font-size="24.00" fill="#ffffff">chunks_fts, media artifacts,</text>
<text text-anchor="start" x="829.5" y="-585.8" font-family="Arial" font-size="24.00" fill="#ffffff">media fetch tasks, policy</text>
<text text-anchor="start" x="836" y="-561.8" font-family="Arial" font-size="24.00" fill="#ffffff">rules, audit events, and</text>
<text text-anchor="start" x="869.5" y="-537.8" font-family="Arial" font-size="24.00" fill="#ffffff">deletion receipts.</text>
</g>
<!-- 24&#45;&gt;27 -->
<g id="46" class="edge">
<title>24&#45;&gt;27</title>
<path fill="none" stroke="#444444" stroke-dasharray="5,2" d="M387.08,-575.2C399.12,-572.16 411.17,-569.53 423,-567.5 554.85,-544.87 593.43,-538.38 724,-567.5 741.18,-571.33 758.59,-576.55 775.76,-582.65"/>
<polygon fill="#444444" stroke="#444444" points="774.68,-585.99 785.27,-586.13 777.08,-579.41 774.68,-585.99"/>
<text text-anchor="start" x="499.5" y="-640.3" font-family="Arial" font-size="24.00" fill="#444444">1. Claims due</text>
<text text-anchor="start" x="493.5" y="-616.3" font-family="Arial" font-size="24.00" fill="#444444">daemon&#45;public</text>
<text text-anchor="start" x="472.5" y="-592.3" font-family="Arial" font-size="24.00" fill="#444444">media_fetch_tasks</text>
<text text-anchor="start" x="540" y="-572.3" font-family="Arial" font-size="19.00" fill="#444444">[sqlite3]</text>
</g>
<!-- 24&#45;&gt;27 -->
<g id="46" class="edge">
<title>24&#45;&gt;27</title>
<path fill="none" stroke="#444444" stroke-dasharray="5,2" d="M387.22,-669.2C399.31,-670.49 411.32,-671.61 423,-672.5 539.85,-681.38 671.38,-682.99 775.09,-682.33"/>
<polygon fill="#444444" stroke="#444444" points="775.38,-685.83 785.35,-682.26 775.33,-678.83 775.38,-685.83"/>
<text text-anchor="start" x="436" y="-754.3" font-family="Arial" font-size="24.00" fill="#444444">4. Marks task succeeded,</text>
<text text-anchor="start" x="481" y="-730.3" font-family="Arial" font-size="24.00" fill="#444444">retrying, skipped,</text>
<text text-anchor="start" x="483.5" y="-706.3" font-family="Arial" font-size="24.00" fill="#444444">expired, or failed</text>
<text text-anchor="start" x="540" y="-686.3" font-family="Arial" font-size="19.00" fill="#444444">[sqlite3]</text>
</g>
<!-- 29 -->
<g id="29" class="node">
<title>29</title>
<path fill="#2f95c8" stroke="#20688c" d="M1161.5,-1240.78C1161.5,-1255.04 1071.86,-1266.63 961.5,-1266.63 851.14,-1266.63 761.5,-1255.04 761.5,-1240.78 761.5,-1240.78 761.5,-1008.22 761.5,-1008.22 761.5,-993.96 851.14,-982.37 961.5,-982.37 1071.86,-982.37 1161.5,-993.96 1161.5,-1008.22 1161.5,-1008.22 1161.5,-1240.78 1161.5,-1240.78"/>
<path fill="none" stroke="#20688c" d="M1161.5,-1240.78C1161.5,-1226.53 1071.86,-1214.94 961.5,-1214.94 851.14,-1214.94 761.5,-1226.53 761.5,-1240.78"/>
<text text-anchor="start" x="822.5" y="-1179.8" font-family="Arial" font-size="34.00" fill="#ffffff">Media Blob Cache</text>
<text text-anchor="start" x="844" y="-1157.8" font-family="Arial" font-size="19.00" fill="#ffffff">[Container: WSL filesystem]</text>
<text text-anchor="start" x="828" y="-1120.8" font-family="Arial" font-size="24.00" fill="#ffffff">Bounded and disposable</text>
<text text-anchor="start" x="817" y="-1096.8" font-family="Arial" font-size="24.00" fill="#ffffff">filesystem cache for stored</text>
<text text-anchor="start" x="806" y="-1072.8" font-family="Arial" font-size="24.00" fill="#ffffff">image/video/audio blobs with</text>
<text text-anchor="start" x="790.5" y="-1048.8" font-family="Arial" font-size="24.00" fill="#ffffff">purge and rehydrate semantics.</text>
</g>
<!-- 24&#45;&gt;29 -->
<g id="48" class="edge">
<title>24&#45;&gt;29</title>
<path fill="none" stroke="#444444" stroke-dasharray="5,2" d="M387.21,-766.57C399.28,-774.74 411.29,-782.78 423,-790.5 530.52,-861.36 652.26,-937.35 752.65,-998.92"/>
<polygon fill="#444444" stroke="#444444" points="751.02,-1002.02 761.38,-1004.26 754.68,-996.05 751.02,-1002.02"/>
<text text-anchor="start" x="468" y="-1047.3" font-family="Arial" font-size="24.00" fill="#444444">3. Writes fetched or</text>
<text text-anchor="start" x="423" y="-1023.3" font-family="Arial" font-size="24.00" fill="#444444">assembled blob when gates</text>
<text text-anchor="start" x="546" y="-999.3" font-family="Arial" font-size="24.00" fill="#444444">allow</text>
<text text-anchor="start" x="522" y="-979.3" font-family="Arial" font-size="19.00" fill="#444444">[Filesystem]</text>
</g>
<!-- 3 -->
<g id="3" class="node">
<title>3</title>
<polygon fill="#999999" stroke="#6b6b6b" points="1163,-321 760,-321 760,-56 1163,-56 1163,-321"/>
<text text-anchor="start" x="800" y="-272.8" font-family="Arial" font-size="34.00" fill="#ffffff">Web Sites and Media</text>
<text text-anchor="start" x="907.5" y="-238.8" font-family="Arial" font-size="34.00" fill="#ffffff">Origins</text>
<text text-anchor="start" x="884.5" y="-216.8" font-family="Arial" font-size="19.00" fill="#ffffff">[Software System]</text>
<text text-anchor="start" x="851.5" y="-179.8" font-family="Arial" font-size="24.00" fill="#ffffff">External web pages,</text>
<text text-anchor="start" x="799" y="-155.8" font-family="Arial" font-size="24.00" fill="#ffffff">image/video URLs, and media</text>
<text text-anchor="start" x="789" y="-131.8" font-family="Arial" font-size="24.00" fill="#ffffff">CDNs that Chrome loads or that</text>
<text text-anchor="start" x="799" y="-107.8" font-family="Arial" font-size="24.00" fill="#ffffff">sidecars fetch as page&#45;related</text>
<text text-anchor="start" x="925" y="-83.8" font-family="Arial" font-size="24.00" fill="#ffffff">media.</text>
</g>
<!-- 24&#45;&gt;3 -->
<g id="47" class="edge">
<title>24&#45;&gt;3</title>
<path fill="none" stroke="#444444" stroke-dasharray="5,2" d="M356.48,-490.76C377.87,-472.01 400.35,-454.02 423,-438.5 524.16,-369.18 647.59,-310.23 750.65,-267.01"/>
<polygon fill="#444444" stroke="#444444" points="752.04,-270.23 759.92,-263.14 749.35,-263.77 752.04,-270.23"/>
<text text-anchor="start" x="431" y="-511.3" font-family="Arial" font-size="24.00" fill="#444444">2. Fetches public media or</text>
<text text-anchor="start" x="423.5" y="-487.3" font-family="Arial" font-size="24.00" fill="#444444">HLS assets without Chrome</text>
<text text-anchor="start" x="532.5" y="-463.3" font-family="Arial" font-size="24.00" fill="#444444">cookies</text>
<text text-anchor="start" x="481.5" y="-443.3" font-family="Arial" font-size="19.00" fill="#444444">[HTTP(S), data URLs]</text>
</g>
</g>
</svg>
