<?xml version="1.0" encoding="UTF-8" standalone="no"?>
<!DOCTYPE svg PUBLIC "-//W3C//DTD SVG 1.1//EN"
 "http://www.w3.org/Graphics/SVG/1.1/DTD/svg11.dtd">
<!-- Generated by graphviz version 2.43.0 (0)
 -->
<!-- Title: %3 Pages: 1 -->
<svg width="1975pt" height="993pt"
 viewBox="0.00 0.00 1975.00 993.00" xmlns="http://www.w3.org/2000/svg" xmlns:xlink="http://www.w3.org/1999/xlink">
<g id="graph0" class="graph" transform="scale(1 1) rotate(0) translate(4 989)">
<title>%3</title>
<polygon fill="white" stroke="transparent" points="-4,4 -4,-989 1971,-989 1971,4 -4,4"/>
<text text-anchor="start" x="398.5" y="-11.8" font-family="Arial" font-size="34.00">Component View: Browser Memory Daemon &#45; WSL Loopback HTTP Daemon</text>
<g id="clust1" class="cluster">
<title>cluster_4</title>
<polygon fill="none" stroke="#444444" points="8,-64 8,-977 1959,-977 1959,-64 8,-64"/>
<text text-anchor="start" x="842.5" y="-92.8" font-family="Arial" font-size="24.00" fill="#444444">Browser Memory Daemon</text>
<text text-anchor="start" x="906.5" y="-72.8" font-family="Arial" font-size="19.00" fill="#444444">[Software System]</text>
</g>
<g id="clust2" class="cluster">
<title>cluster_14</title>
<polygon fill="none" stroke="#444444" points="33,-323 33,-680 1224,-680 1224,-323 33,-323"/>
<text text-anchor="start" x="463" y="-351.8" font-family="Arial" font-size="24.00" fill="#444444">WSL Loopback HTTP Daemon</text>
<text text-anchor="start" x="426.5" y="-331.8" font-family="Arial" font-size="19.00" fill="#444444">[Container: Python 3.11, ThreadingHTTPServer]</text>
</g>
<!-- 15 -->
<g id="15" class="node">
<title>15</title>
<polygon fill="#85bbf0" stroke="#5d82a8" points="453,-654.5 58,-654.5 58,-423.5 453,-423.5 453,-654.5"/>
<text text-anchor="start" x="87" y="-606.3" font-family="Arial" font-size="34.00" fill="#000000">HTTP Request Router</text>
<text text-anchor="start" x="119" y="-584.3" font-family="Arial" font-size="19.00" fill="#000000">[Component: Python http.server]</text>
<text text-anchor="start" x="90" y="-547.3" font-family="Arial" font-size="24.00" fill="#000000">Routes loopback API requests,</text>
<text text-anchor="start" x="112.5" y="-523.3" font-family="Arial" font-size="24.00" fill="#000000">serves UI assets, enforces</text>
<text text-anchor="start" x="91.5" y="-499.3" font-family="Arial" font-size="24.00" fill="#000000">bearer auth for memory/admin</text>
<text text-anchor="start" x="106" y="-475.3" font-family="Arial" font-size="24.00" fill="#000000">APIs, and applies CORS for</text>
<text text-anchor="start" x="172" y="-451.3" font-family="Arial" font-size="24.00" fill="#000000">allowed origins.</text>
</g>
<!-- 18 -->
<g id="18" class="node">
<title>18</title>
<polygon fill="#85bbf0" stroke="#5d82a8" points="1199,-654.5 807,-654.5 807,-423.5 1199,-423.5 1199,-654.5"/>
<text text-anchor="start" x="891.5" y="-606.3" font-family="Arial" font-size="34.00" fill="#000000">Ingest Pipeline</text>
<text text-anchor="start" x="875" y="-584.3" font-family="Arial" font-size="19.00" fill="#000000">[Component: Python + sqlite3]</text>
<text text-anchor="start" x="849.5" y="-547.3" font-family="Arial" font-size="24.00" fill="#000000">Normalizes URLs, computes</text>
<text text-anchor="start" x="836" y="-523.3" font-family="Arial" font-size="24.00" fill="#000000">document/snapshot IDs, stores</text>
<text text-anchor="start" x="849.5" y="-499.3" font-family="Arial" font-size="24.00" fill="#000000">visits/snapshots/chunks/FTS</text>
<text text-anchor="start" x="848" y="-475.3" font-family="Arial" font-size="24.00" fill="#000000">rows, writes clean text blobs,</text>
<text text-anchor="start" x="838" y="-451.3" font-family="Arial" font-size="24.00" fill="#000000">and records media references.</text>
</g>
<!-- 15&#45;&gt;18 -->
<g id="63" class="edge">
<title>15&#45;&gt;18</title>
<path fill="none" stroke="#444444" stroke-dasharray="5,2" d="M453.35,-539C559.18,-539 689.56,-539 796.67,-539"/>
<polygon fill="#444444" stroke="#444444" points="796.96,-542.5 806.96,-539 796.96,-535.5 796.96,-542.5"/>
<text text-anchor="start" x="489" y="-571.8" font-family="Arial" font-size="24.00" fill="#444444">Routes accepted captures</text>
<text text-anchor="start" x="619.5" y="-545.8" font-family="Arial" font-size="24.00" fill="#444444">to</text>
</g>
<!-- 27 -->
<g id="27" class="node">
<title>27</title>
<path fill="#2f95c8" stroke="#20688c" d="M1909.5,-585.72C1909.5,-608.98 1830.61,-627.88 1733.5,-627.88 1636.39,-627.88 1557.5,-608.98 1557.5,-585.72 1557.5,-585.72 1557.5,-206.28 1557.5,-206.28 1557.5,-183.02 1636.39,-164.12 1733.5,-164.12 1830.61,-164.12 1909.5,-183.02 1909.5,-206.28 1909.5,-206.28 1909.5,-585.72 1909.5,-585.72"/>
<path fill="none" stroke="#20688c" d="M1909.5,-585.72C1909.5,-562.45 1830.61,-543.56 1733.5,-543.56 1636.39,-543.56 1557.5,-562.45 1557.5,-585.72"/>
<text text-anchor="start" x="1620.5" y="-516.3" font-family="Arial" font-size="34.00" fill="#ffffff">SQLite + FTS5</text>
<text text-anchor="start" x="1660.5" y="-482.3" font-family="Arial" font-size="34.00" fill="#ffffff">Database</text>
<text text-anchor="start" x="1607.5" y="-460.3" font-family="Arial" font-size="19.00" fill="#ffffff">[Container: SQLite with FTS5]</text>
<text text-anchor="start" x="1614.5" y="-423.3" font-family="Arial" font-size="24.00" fill="#ffffff">Durable relational and</text>
<text text-anchor="start" x="1597" y="-399.3" font-family="Arial" font-size="24.00" fill="#ffffff">full&#45;text store for sources,</text>
<text text-anchor="start" x="1613" y="-375.3" font-family="Arial" font-size="24.00" fill="#ffffff">documents, visits, visit</text>
<text text-anchor="start" x="1587.5" y="-351.3" font-family="Arial" font-size="24.00" fill="#ffffff">events, snapshots, chunks,</text>
<text text-anchor="start" x="1586.5" y="-327.3" font-family="Arial" font-size="24.00" fill="#ffffff">chunks_fts, media artifacts,</text>
<text text-anchor="start" x="1601.5" y="-303.3" font-family="Arial" font-size="24.00" fill="#ffffff">media fetch tasks, policy</text>
<text text-anchor="start" x="1608" y="-279.3" font-family="Arial" font-size="24.00" fill="#ffffff">rules, audit events, and</text>
<text text-anchor="start" x="1641.5" y="-255.3" font-family="Arial" font-size="24.00" fill="#ffffff">deletion receipts.</text>
</g>
<!-- 18&#45;&gt;27 -->
<g id="70" class="edge">
<title>18&#45;&gt;27</title>
<path fill="none" stroke="#444444" stroke-dasharray="5,2" d="M1199.22,-500.68C1307.33,-479.46 1440.95,-453.23 1547.4,-432.33"/>
<polygon fill="#444444" stroke="#444444" points="1548.15,-435.75 1557.29,-430.39 1546.8,-428.89 1548.15,-435.75"/>
<text text-anchor="start" x="1235" y="-540.8" font-family="Arial" font-size="24.00" fill="#444444">Writes capture rows and</text>
<text text-anchor="start" x="1329.5" y="-516.8" font-family="Arial" font-size="24.00" fill="#444444">FTS to</text>
<text text-anchor="start" x="1332.5" y="-496.8" font-family="Arial" font-size="19.00" fill="#444444">[sqlite3]</text>
</g>
<!-- 28 -->
<g id="28" class="node">
<title>28</title>
<path fill="#2f95c8" stroke="#20688c" d="M1934,-928.78C1934,-941.39 1844.13,-951.63 1733.5,-951.63 1622.87,-951.63 1533,-941.39 1533,-928.78 1533,-928.78 1533,-723.22 1533,-723.22 1533,-710.61 1622.87,-700.37 1733.5,-700.37 1844.13,-700.37 1934,-710.61 1934,-723.22 1934,-723.22 1934,-928.78 1934,-928.78"/>
<path fill="none" stroke="#20688c" d="M1934,-928.78C1934,-916.18 1844.13,-905.94 1733.5,-905.94 1622.87,-905.94 1533,-916.18 1533,-928.78"/>
<text text-anchor="start" x="1569" y="-869.3" font-family="Arial" font-size="34.00" fill="#ffffff">Clean Text Blob Store</text>
<text text-anchor="start" x="1616" y="-847.3" font-family="Arial" font-size="19.00" fill="#ffffff">[Container: WSL filesystem]</text>
<text text-anchor="start" x="1575" y="-810.3" font-family="Arial" font-size="24.00" fill="#ffffff">Filesystem store for snapshot</text>
<text text-anchor="start" x="1562" y="-786.3" font-family="Arial" font-size="24.00" fill="#ffffff">text blobs under WSL XDG data</text>
<text text-anchor="start" x="1700" y="-762.3" font-family="Arial" font-size="24.00" fill="#ffffff">paths.</text>
</g>
<!-- 18&#45;&gt;28 -->
<g id="71" class="edge">
<title>18&#45;&gt;28</title>
<path fill="none" stroke="#444444" stroke-dasharray="5,2" d="M1199.22,-615.91C1299.36,-655.36 1421.39,-703.43 1523.43,-743.64"/>
<polygon fill="#444444" stroke="#444444" points="1522.34,-746.97 1532.93,-747.38 1524.91,-740.46 1522.34,-746.97"/>
<text text-anchor="start" x="1236.5" y="-757.8" font-family="Arial" font-size="24.00" fill="#444444">Writes text snapshots to</text>
<text text-anchor="start" x="1314.5" y="-737.8" font-family="Arial" font-size="19.00" fill="#444444">[Filesystem]</text>
</g>
</g>
</svg>
