<?xml version="1.0" encoding="UTF-8" standalone="no"?>
<!DOCTYPE svg PUBLIC "-//W3C//DTD SVG 1.1//EN"
 "http://www.w3.org/Graphics/SVG/1.1/DTD/svg11.dtd">
<!-- Generated by graphviz version 2.43.0 (0)
 -->
<!-- Title: %3 Pages: 1 -->
<svg width="2024pt" height="1157pt"
 viewBox="0.00 0.00 2024.00 1157.00" xmlns="http://www.w3.org/2000/svg" xmlns:xlink="http://www.w3.org/1999/xlink">
<g id="graph0" class="graph" transform="scale(1 1) rotate(0) translate(4 1153)">
<title>%3</title>
<polygon fill="white" stroke="transparent" points="-4,4 -4,-1153 2020,-1153 2020,4 -4,4"/>
<text text-anchor="start" x="423" y="-11.8" font-family="Arial" font-size="34.00">Component View: Browser Memory Daemon &#45; WSL Loopback HTTP Daemon</text>
<g id="clust1" class="cluster">
<title>cluster_4</title>
<polygon fill="none" stroke="#444444" points="8,-64 8,-1141 2008,-1141 2008,-64 8,-64"/>
<text text-anchor="start" x="867" y="-92.8" font-family="Arial" font-size="24.00" fill="#444444">Browser Memory Daemon</text>
<text text-anchor="start" x="931" y="-72.8" font-family="Arial" font-size="19.00" fill="#444444">[Software System]</text>
</g>
<g id="clust2" class="cluster">
<title>cluster_14</title>
<polygon fill="none" stroke="#444444" points="33,-395 33,-834 1256,-834 1256,-395 33,-395"/>
<text text-anchor="start" x="479" y="-423.8" font-family="Arial" font-size="24.00" fill="#444444">WSL Loopback HTTP Daemon</text>
<text text-anchor="start" x="442.5" y="-403.8" font-family="Arial" font-size="19.00" fill="#444444">[Container: Python 3.11, ThreadingHTTPServer]</text>
</g>
<!-- 15 -->
<g id="15" class="node">
<title>15</title>
<polygon fill="#85bbf0" stroke="#5d82a8" points="453,-767.5 58,-767.5 58,-536.5 453,-536.5 453,-767.5"/>
<text text-anchor="start" x="87" y="-719.3" font-family="Arial" font-size="34.00" fill="#000000">HTTP Request Router</text>
<text text-anchor="start" x="119" y="-697.3" font-family="Arial" font-size="19.00" fill="#000000">[Component: Python http.server]</text>
<text text-anchor="start" x="90" y="-660.3" font-family="Arial" font-size="24.00" fill="#000000">Routes loopback API requests,</text>
<text text-anchor="start" x="112.5" y="-636.3" font-family="Arial" font-size="24.00" fill="#000000">serves UI assets, enforces</text>
<text text-anchor="start" x="91.5" y="-612.3" font-family="Arial" font-size="24.00" fill="#000000">bearer auth for memory/admin</text>
<text text-anchor="start" x="106" y="-588.3" font-family="Arial" font-size="24.00" fill="#000000">APIs, and applies CORS for</text>
<text text-anchor="start" x="172" y="-564.3" font-family="Arial" font-size="24.00" fill="#000000">allowed origins.</text>
</g>
<!-- 20 -->
<g id="20" class="node">
<title>20</title>
<polygon fill="#85bbf0" stroke="#5d82a8" points="1231,-808.5 810,-808.5 810,-495.5 1231,-495.5 1231,-808.5"/>
<text text-anchor="start" x="917" y="-760.3" font-family="Arial" font-size="34.00" fill="#000000">Media Artifact</text>
<text text-anchor="start" x="953.5" y="-726.3" font-family="Arial" font-size="34.00" fill="#000000">Manager</text>
<text text-anchor="start" x="839" y="-704.3" font-family="Arial" font-size="19.00" fill="#000000">[Component: Python + sqlite3 + filesystem]</text>
<text text-anchor="start" x="874.5" y="-667.3" font-family="Arial" font-size="24.00" fill="#000000">Records media references,</text>
<text text-anchor="start" x="897" y="-643.3" font-family="Arial" font-size="24.00" fill="#000000">validates blob uploads,</text>
<text text-anchor="start" x="878.5" y="-619.3" font-family="Arial" font-size="24.00" fill="#000000">enforces MIME/size/cache</text>
<text text-anchor="start" x="920" y="-595.3" font-family="Arial" font-size="24.00" fill="#000000">gates, writes blobs</text>
<text text-anchor="start" x="886" y="-571.3" font-family="Arial" font-size="24.00" fill="#000000">atomically, queues public</text>
<text text-anchor="start" x="880.5" y="-547.3" font-family="Arial" font-size="24.00" fill="#000000">fetch tasks, and purges or</text>
<text text-anchor="start" x="884" y="-523.3" font-family="Arial" font-size="24.00" fill="#000000">rehydrates cache entries.</text>
</g>
<!-- 15&#45;&gt;20 -->
<g id="65" class="edge">
<title>15&#45;&gt;20</title>
<path fill="none" stroke="#444444" stroke-dasharray="5,2" d="M453.49,-652C559.46,-652 690.46,-652 799.73,-652"/>
<polygon fill="#444444" stroke="#444444" points="799.9,-655.5 809.9,-652 799.9,-648.5 799.9,-655.5"/>
<polygon fill="white" stroke="transparent" points="489,-652 489,-686 774,-686 774,-652 489,-652"/>
<text text-anchor="start" x="493.5" y="-662.8" font-family="Arial" font-size="24.00" fill="#444444">Routes media requests to</text>
</g>
<!-- 27 -->
<g id="27" class="node">
<title>27</title>
<path fill="#2f95c8" stroke="#20688c" d="M1957,-585.72C1957,-608.98 1878.11,-627.88 1781,-627.88 1683.89,-627.88 1605,-608.98 1605,-585.72 1605,-585.72 1605,-206.28 1605,-206.28 1605,-183.02 1683.89,-164.12 1781,-164.12 1878.11,-164.12 1957,-183.02 1957,-206.28 1957,-206.28 1957,-585.72 1957,-585.72"/>
<path fill="none" stroke="#20688c" d="M1957,-585.72C1957,-562.45 1878.11,-543.56 1781,-543.56 1683.89,-543.56 1605,-562.45 1605,-585.72"/>
<text text-anchor="start" x="1668" y="-516.3" font-family="Arial" font-size="34.00" fill="#ffffff">SQLite + FTS5</text>
<text text-anchor="start" x="1708" y="-482.3" font-family="Arial" font-size="34.00" fill="#ffffff">Database</text>
<text text-anchor="start" x="1655" y="-460.3" font-family="Arial" font-size="19.00" fill="#ffffff">[Container: SQLite with FTS5]</text>
<text text-anchor="start" x="1662" y="-423.3" font-family="Arial" font-size="24.00" fill="#ffffff">Durable relational and</text>
<text text-anchor="start" x="1644.5" y="-399.3" font-family="Arial" font-size="24.00" fill="#ffffff">full&#45;text store for sources,</text>
<text text-anchor="start" x="1660.5" y="-375.3" font-family="Arial" font-size="24.00" fill="#ffffff">documents, visits, visit</text>
<text text-anchor="start" x="1635" y="-351.3" font-family="Arial" font-size="24.00" fill="#ffffff">events, snapshots, chunks,</text>
<text text-anchor="start" x="1634" y="-327.3" font-family="Arial" font-size="24.00" fill="#ffffff">chunks_fts, media artifacts,</text>
<text text-anchor="start" x="1649" y="-303.3" font-family="Arial" font-size="24.00" fill="#ffffff">media fetch tasks, policy</text>
<text text-anchor="start" x="1655.5" y="-279.3" font-family="Arial" font-size="24.00" fill="#ffffff">rules, audit events, and</text>
<text text-anchor="start" x="1689" y="-255.3" font-family="Arial" font-size="24.00" fill="#ffffff">deletion receipts.</text>
</g>
<!-- 20&#45;&gt;27 -->
<g id="74" class="edge">
<title>20&#45;&gt;27</title>
<path fill="none" stroke="#444444" stroke-dasharray="5,2" d="M1231.02,-581.28C1345.21,-542.75 1485.25,-495.48 1595.32,-458.33"/>
<polygon fill="#444444" stroke="#444444" points="1596.51,-461.62 1604.86,-455.11 1594.27,-454.99 1596.51,-461.62"/>
<polygon fill="white" stroke="transparent" points="1267,-561 1267,-636 1543,-636 1543,-561 1267,-561"/>
<text text-anchor="start" x="1271" y="-613.3" font-family="Arial" font-size="24.00" fill="#444444">Updates media rows and</text>
<text text-anchor="start" x="1364" y="-589.3" font-family="Arial" font-size="24.00" fill="#444444">tasks in</text>
<text text-anchor="start" x="1371.5" y="-569.3" font-family="Arial" font-size="19.00" fill="#444444">[sqlite3]</text>
</g>
<!-- 29 -->
<g id="29" class="node">
<title>29</title>
<path fill="#2f95c8" stroke="#20688c" d="M1983,-1078.28C1983,-1099.16 1892.46,-1116.13 1781,-1116.13 1669.54,-1116.13 1579,-1099.16 1579,-1078.28 1579,-1078.28 1579,-737.72 1579,-737.72 1579,-716.84 1669.54,-699.87 1781,-699.87 1892.46,-699.87 1983,-716.84 1983,-737.72 1983,-737.72 1983,-1078.28 1983,-1078.28"/>
<path fill="none" stroke="#20688c" d="M1983,-1078.28C1983,-1057.4 1892.46,-1040.44 1781,-1040.44 1669.54,-1040.44 1579,-1057.4 1579,-1078.28"/>
<text text-anchor="start" x="1642" y="-1011.3" font-family="Arial" font-size="34.00" fill="#ffffff">Media Blob Cache</text>
<text text-anchor="start" x="1663.5" y="-989.3" font-family="Arial" font-size="19.00" fill="#ffffff">[Container: WSL filesystem]</text>
<text text-anchor="start" x="1647.5" y="-952.3" font-family="Arial" font-size="24.00" fill="#ffffff">Bounded and disposable</text>
<text text-anchor="start" x="1636.5" y="-928.3" font-family="Arial" font-size="24.00" fill="#ffffff">filesystem cache for stored</text>
<text text-anchor="start" x="1625.5" y="-904.3" font-family="Arial" font-size="24.00" fill="#ffffff">image/video/audio blobs with</text>
<text text-anchor="start" x="1613.5" y="-880.3" font-family="Arial" font-size="24.00" fill="#ffffff">purge/rehydrate semantics that</text>
<text text-anchor="start" x="1624.5" y="-856.3" font-family="Arial" font-size="24.00" fill="#ffffff">preserve media refs, hashes,</text>
<text text-anchor="start" x="1608" y="-832.3" font-family="Arial" font-size="24.00" fill="#ffffff">status reasons, and provenance</text>
<text text-anchor="start" x="1644.5" y="-808.3" font-family="Arial" font-size="24.00" fill="#ffffff">when bytes are absent or</text>
<text text-anchor="start" x="1739.5" y="-784.3" font-family="Arial" font-size="24.00" fill="#ffffff">purged.</text>
</g>
<!-- 20&#45;&gt;29 -->
<g id="75" class="edge">
<title>20&#45;&gt;29</title>
<path fill="none" stroke="#444444" stroke-dasharray="5,2" d="M1231.02,-722.72C1336.37,-758.27 1463.72,-801.25 1569.24,-836.87"/>
<polygon fill="#444444" stroke="#444444" points="1568.14,-840.19 1578.73,-840.07 1570.38,-833.56 1568.14,-840.19"/>
<polygon fill="white" stroke="transparent" points="1283.5,-825 1283.5,-900 1526.5,-900 1526.5,-825 1283.5,-825"/>
<text text-anchor="start" x="1288" y="-877.3" font-family="Arial" font-size="24.00" fill="#444444">Writes, serves, evicts,</text>
<text text-anchor="start" x="1299.5" y="-853.3" font-family="Arial" font-size="24.00" fill="#444444">and purges blobs in</text>
<text text-anchor="start" x="1354" y="-833.3" font-family="Arial" font-size="19.00" fill="#444444">[Filesystem]</text>
</g>
</g>
</svg>
