<?xml version="1.0" encoding="UTF-8" standalone="no"?>
<!DOCTYPE svg PUBLIC "-//W3C//DTD SVG 1.1//EN"
 "http://www.w3.org/Graphics/SVG/1.1/DTD/svg11.dtd">
<!-- Generated by graphviz version 2.43.0 (0)
 -->
<!-- Title: %3 Pages: 1 -->
<svg width="2999pt" height="618pt"
 viewBox="0.00 0.00 2999.00 618.00" xmlns="http://www.w3.org/2000/svg" xmlns:xlink="http://www.w3.org/1999/xlink">
<g id="graph0" class="graph" transform="scale(1 1) rotate(0) translate(4 614)">
<title>%3</title>
<polygon fill="white" stroke="transparent" points="-4,4 -4,-614 2995,-614 2995,4 -4,4"/>
<text text-anchor="start" x="1126" y="-11.8" font-family="Arial" font-size="34.00">System Context View: Browser Memory Daemon</text>
<!-- 1 -->
<g id="1" class="node">
<title>1</title>
<polygon fill="#08427b" stroke="#052e56" points="395,-471 0,-471 0,-240 395,-240 395,-471"/>
<text text-anchor="start" x="130.5" y="-422.8" font-family="Arial" font-size="34.00" fill="#ffffff">Operator</text>
<text text-anchor="start" x="162" y="-400.8" font-family="Arial" font-size="19.00" fill="#ffffff">[Person]</text>
<text text-anchor="start" x="71" y="-363.8" font-family="Arial" font-size="24.00" fill="#ffffff">Sole local operator who</text>
<text text-anchor="start" x="29" y="-339.8" font-family="Arial" font-size="24.00" fill="#ffffff">browses with Windows Chrome</text>
<text text-anchor="start" x="50" y="-315.8" font-family="Arial" font-size="24.00" fill="#ffffff">and searches, reviews, and</text>
<text text-anchor="start" x="35.5" y="-291.8" font-family="Arial" font-size="24.00" fill="#ffffff">deletes local browser&#45;memory</text>
<text text-anchor="start" x="153.5" y="-267.8" font-family="Arial" font-size="24.00" fill="#ffffff">records.</text>
</g>
<!-- 2 -->
<g id="2" class="node">
<title>2</title>
<polygon fill="#999999" stroke="#6b6b6b" points="2060,-610 1674,-610 1674,-379 2060,-379 2060,-610"/>
<text text-anchor="start" x="1732.5" y="-561.8" font-family="Arial" font-size="34.00" fill="#ffffff">Windows Chrome</text>
<text text-anchor="start" x="1790" y="-539.8" font-family="Arial" font-size="19.00" fill="#ffffff">[Software System]</text>
<text text-anchor="start" x="1703" y="-502.8" font-family="Arial" font-size="24.00" fill="#ffffff">The Windows Chrome runtime</text>
<text text-anchor="start" x="1716.5" y="-478.8" font-family="Arial" font-size="24.00" fill="#ffffff">that loads web pages, hosts</text>
<text text-anchor="start" x="1716" y="-454.8" font-family="Arial" font-size="24.00" fill="#ffffff">the MV3 extension, runs the</text>
<text text-anchor="start" x="1708" y="-430.8" font-family="Arial" font-size="24.00" fill="#ffffff">local UI in a tab, and exposes</text>
<text text-anchor="start" x="1737.5" y="-406.8" font-family="Arial" font-size="24.00" fill="#ffffff">Chrome extension APIs.</text>
</g>
<!-- 1&#45;&gt;2 -->
<g id="52" class="edge">
<title>1&#45;&gt;2</title>
<path fill="none" stroke="#444444" stroke-dasharray="5,2" d="M395.24,-406.38C407.3,-408.67 419.29,-410.74 431,-412.5 867.04,-477.84 1384.77,-492.05 1663.71,-494.58"/>
<polygon fill="#444444" stroke="#444444" points="1663.91,-498.08 1673.94,-494.67 1663.97,-491.08 1663.91,-498.08"/>
<polygon fill="white" stroke="transparent" points="817,-479.5 817,-513.5 1091,-513.5 1091,-479.5 817,-479.5"/>
<text text-anchor="start" x="821" y="-490.3" font-family="Arial" font-size="24.00" fill="#444444">Browses web pages with</text>
</g>
<!-- 4 -->
<g id="4" class="node">
<title>4</title>
<polygon fill="#1168bd" stroke="#0b4884" points="1181,-359 727,-359 727,-56 1181,-56 1181,-359"/>
<text text-anchor="start" x="756" y="-310.8" font-family="Arial" font-size="34.00" fill="#ffffff">Browser Memory Daemon</text>
<text text-anchor="start" x="877" y="-288.8" font-family="Arial" font-size="19.00" fill="#ffffff">[Software System]</text>
<text text-anchor="start" x="819" y="-251.8" font-family="Arial" font-size="24.00" fill="#ffffff">Local&#45;first personal recall</text>
<text text-anchor="start" x="790" y="-227.8" font-family="Arial" font-size="24.00" fill="#ffffff">system that captures Windows</text>
<text text-anchor="start" x="797.5" y="-203.8" font-family="Arial" font-size="24.00" fill="#ffffff">Chrome page text and media</text>
<text text-anchor="start" x="813.5" y="-179.8" font-family="Arial" font-size="24.00" fill="#ffffff">references, stores them in</text>
<text text-anchor="start" x="777" y="-155.8" font-family="Arial" font-size="24.00" fill="#ffffff">WSL, and exposes exact search,</text>
<text text-anchor="start" x="824" y="-131.8" font-family="Arial" font-size="24.00" fill="#ffffff">timeline, detail, deletion,</text>
<text text-anchor="start" x="794.5" y="-107.8" font-family="Arial" font-size="24.00" fill="#ffffff">diagnostics, and media cache</text>
<text text-anchor="start" x="893.5" y="-83.8" font-family="Arial" font-size="24.00" fill="#ffffff">operations.</text>
</g>
<!-- 1&#45;&gt;4 -->
<g id="53" class="edge">
<title>1&#45;&gt;4</title>
<path fill="none" stroke="#444444" stroke-dasharray="5,2" d="M395.26,-316.9C493.71,-297.59 613.61,-274.07 716.98,-253.8"/>
<polygon fill="#444444" stroke="#444444" points="717.8,-257.2 726.93,-251.84 716.45,-250.33 717.8,-257.2"/>
<polygon fill="white" stroke="transparent" points="431,-308.5 431,-394.5 691,-394.5 691,-308.5 431,-308.5"/>
<text text-anchor="start" x="435" y="-371.3" font-family="Arial" font-size="24.00" fill="#444444">Searches, reviews, and</text>
<text text-anchor="start" x="447" y="-345.3" font-family="Arial" font-size="24.00" fill="#444444">deletes local browser</text>
<text text-anchor="start" x="472" y="-319.3" font-family="Arial" font-size="24.00" fill="#444444">memory through</text>
</g>
<!-- 3 -->
<g id="3" class="node">
<title>3</title>
<polygon fill="#999999" stroke="#6b6b6b" points="2991,-397 2588,-397 2588,-132 2991,-132 2991,-397"/>
<text text-anchor="start" x="2628" y="-348.8" font-family="Arial" font-size="34.00" fill="#ffffff">Web Sites and Media</text>
<text text-anchor="start" x="2735.5" y="-314.8" font-family="Arial" font-size="34.00" fill="#ffffff">Origins</text>
<text text-anchor="start" x="2712.5" y="-292.8" font-family="Arial" font-size="19.00" fill="#ffffff">[Software System]</text>
<text text-anchor="start" x="2679.5" y="-255.8" font-family="Arial" font-size="24.00" fill="#ffffff">External web pages,</text>
<text text-anchor="start" x="2627" y="-231.8" font-family="Arial" font-size="24.00" fill="#ffffff">image/video URLs, and media</text>
<text text-anchor="start" x="2617" y="-207.8" font-family="Arial" font-size="24.00" fill="#ffffff">CDNs that Chrome loads or that</text>
<text text-anchor="start" x="2627" y="-183.8" font-family="Arial" font-size="24.00" fill="#ffffff">sidecars fetch as page&#45;related</text>
<text text-anchor="start" x="2753" y="-159.8" font-family="Arial" font-size="24.00" fill="#ffffff">media.</text>
</g>
<!-- 2&#45;&gt;3 -->
<g id="54" class="edge">
<title>2&#45;&gt;3</title>
<path fill="none" stroke="#444444" stroke-dasharray="5,2" d="M2060.13,-446.49C2211.49,-408.67 2422.26,-356.01 2578.15,-317.06"/>
<polygon fill="#444444" stroke="#444444" points="2579.01,-320.45 2587.87,-314.63 2577.32,-313.66 2579.01,-320.45"/>
<polygon fill="white" stroke="transparent" points="2229,-399.5 2229,-450.5 2552,-450.5 2552,-399.5 2229,-399.5"/>
<text text-anchor="start" x="2233.5" y="-427.8" font-family="Arial" font-size="24.00" fill="#444444">Loads pages and media from</text>
<text text-anchor="start" x="2354.5" y="-407.8" font-family="Arial" font-size="19.00" fill="#444444">[HTTPS]</text>
</g>
<!-- 4&#45;&gt;2 -->
<g id="55" class="edge">
<title>4&#45;&gt;2</title>
<path fill="none" stroke="#444444" stroke-dasharray="5,2" d="M1181.07,-278.72C1329.16,-325.38 1521.05,-385.83 1664.03,-430.87"/>
<polygon fill="#444444" stroke="#444444" points="1663.22,-434.28 1673.81,-433.95 1665.32,-427.61 1663.22,-434.28"/>
<polygon fill="white" stroke="transparent" points="1217,-376.5 1217,-436.5 1505,-436.5 1505,-376.5 1217,-376.5"/>
<text text-anchor="start" x="1234" y="-413.3" font-family="Arial" font-size="24.00" fill="#444444">Runs its MV3 extension</text>
<text text-anchor="start" x="1221" y="-387.3" font-family="Arial" font-size="24.00" fill="#444444">inside and uses APIs from</text>
</g>
<!-- 4&#45;&gt;3 -->
<g id="56" class="edge">
<title>4&#45;&gt;3</title>
<path fill="none" stroke="#444444" stroke-dasharray="5,2" d="M1181.2,-214.01C1429.41,-221.21 1839.59,-233.28 2193,-244.5 2320.71,-248.55 2463.82,-253.35 2577.73,-257.23"/>
<polygon fill="#444444" stroke="#444444" points="2577.85,-260.74 2587.97,-257.58 2578.09,-253.74 2577.85,-260.74"/>
<polygon fill="white" stroke="transparent" points="1541,-244.5 1541,-343.5 2193,-343.5 2193,-244.5 1541,-244.5"/>
<text text-anchor="start" x="1740" y="-320.8" font-family="Arial" font-size="24.00" fill="#444444">Captures page refs and</text>
<text text-anchor="start" x="1740.5" y="-296.8" font-family="Arial" font-size="24.00" fill="#444444">fetches browser&#45;side or</text>
<text text-anchor="start" x="1771" y="-272.8" font-family="Arial" font-size="24.00" fill="#444444">public media from</text>
<text text-anchor="start" x="1545" y="-252.8" font-family="Arial" font-size="19.00" fill="#444444">[Chrome DOM/fetch; WSL HTTP(S), data URLs; no Chrome cookies in WSL]</text>
</g>
</g>
</svg>
