<?xml version="1.0" encoding="UTF-8" standalone="no"?>
<!DOCTYPE svg PUBLIC "-//W3C//DTD SVG 1.1//EN"
 "http://www.w3.org/Graphics/SVG/1.1/DTD/svg11.dtd">
<!-- Generated by graphviz version 2.43.0 (0)
 -->
<!-- Title: %3 Pages: 1 -->
<svg width="4857pt" height="3349pt"
 viewBox="0.00 0.00 4857.00 3349.00" xmlns="http://www.w3.org/2000/svg" xmlns:xlink="http://www.w3.org/1999/xlink">
<g id="graph0" class="graph" transform="scale(1 1) rotate(0) translate(4 3345)">
<title>%3</title>
<polygon fill="white" stroke="transparent" points="-4,4 -4,-3345 4853,-3345 4853,4 -4,4"/>
<text text-anchor="start" x="1839.5" y="-11.8" font-family="Arial" font-size="34.00">Component View: Browser Memory Daemon &#45; WSL Loopback HTTP Daemon</text>
<g id="clust1" class="cluster">
<title>cluster_4</title>
<polygon fill="none" stroke="#444444" points="8,-64 8,-3333 4841,-3333 4841,-64 8,-64"/>
<text text-anchor="start" x="2283.5" y="-92.8" font-family="Arial" font-size="24.00" fill="#444444">Browser Memory Daemon</text>
<text text-anchor="start" x="2347.5" y="-72.8" font-family="Arial" font-size="19.00" fill="#444444">[Software System]</text>
</g>
<g id="clust2" class="cluster">
<title>cluster_22</title>
<polygon fill="none" stroke="#444444" points="33,-164 33,-2317 4772,-2317 4772,-164 33,-164"/>
<text text-anchor="start" x="2237" y="-192.8" font-family="Arial" font-size="24.00" fill="#444444">WSL Loopback HTTP Daemon</text>
<text text-anchor="start" x="2200.5" y="-172.8" font-family="Arial" font-size="19.00" fill="#444444">[Container: Python 3.11, ThreadingHTTPServer]</text>
</g>
<!-- 23 -->
<g id="23" class="node">
<title>23</title>
<polygon fill="#85bbf0" stroke="#1168bd" points="552,-1140.5 58,-1140.5 58,-789.5 552,-789.5 552,-1140.5"/>
<text text-anchor="start" x="136.5" y="-1092.3" font-family="Arial" font-size="34.00" fill="#000000">HTTP Request Router</text>
<text text-anchor="start" x="87" y="-1070.3" font-family="Arial" font-size="19.00" fill="#000000">[Component: Python http.server + route descriptors]</text>
<text text-anchor="start" x="129" y="-1033.3" font-family="Arial" font-size="24.00" fill="#000000">Matches immutable method/path</text>
<text text-anchor="start" x="189" y="-1009.3" font-family="Arial" font-size="24.00" fill="#000000">descriptors with static</text>
<text text-anchor="start" x="172" y="-985.3" font-family="Arial" font-size="24.00" fill="#000000">precedence, maps typed</text>
<text text-anchor="start" x="169.5" y="-961.3" font-family="Arial" font-size="24.00" fill="#000000">compatible errors without</text>
<text text-anchor="start" x="181.5" y="-937.3" font-family="Arial" font-size="24.00" fill="#000000">leaking internal details,</text>
<text text-anchor="start" x="144" y="-913.3" font-family="Arial" font-size="24.00" fill="#000000">routes loopback API requests,</text>
<text text-anchor="start" x="162" y="-889.3" font-family="Arial" font-size="24.00" fill="#000000">serves UI assets, enforces</text>
<text text-anchor="start" x="141" y="-865.3" font-family="Arial" font-size="24.00" fill="#000000">bearer auth for memory/admin</text>
<text text-anchor="start" x="155.5" y="-841.3" font-family="Arial" font-size="24.00" fill="#000000">APIs, and applies CORS for</text>
<text text-anchor="start" x="221.5" y="-817.3" font-family="Arial" font-size="24.00" fill="#000000">allowed origins.</text>
</g>
<!-- 29 -->
<g id="29" class="node">
<title>29</title>
<polygon fill="#85bbf0" stroke="#1168bd" points="1330,-1658.5 909,-1658.5 909,-1321.5 1330,-1321.5 1330,-1658.5"/>
<text text-anchor="start" x="1016" y="-1610.3" font-family="Arial" font-size="34.00" fill="#000000">Media Artifact</text>
<text text-anchor="start" x="1052.5" y="-1576.3" font-family="Arial" font-size="34.00" fill="#000000">Manager</text>
<text text-anchor="start" x="938" y="-1554.3" font-family="Arial" font-size="19.00" fill="#000000">[Component: Python + sqlite3 + filesystem]</text>
<text text-anchor="start" x="982.5" y="-1517.3" font-family="Arial" font-size="24.00" fill="#000000">Provides the compatibility</text>
<text text-anchor="start" x="952.5" y="-1493.3" font-family="Arial" font-size="24.00" fill="#000000">API, records media references,</text>
<text text-anchor="start" x="950" y="-1469.3" font-family="Arial" font-size="24.00" fill="#000000">streams bounded blob uploads,</text>
<text text-anchor="start" x="984" y="-1445.3" font-family="Arial" font-size="24.00" fill="#000000">delegates guarded public</text>
<text text-anchor="start" x="965.5" y="-1421.3" font-family="Arial" font-size="24.00" fill="#000000">transport, and drains verified</text>
<text text-anchor="start" x="968" y="-1397.3" font-family="Arial" font-size="24.00" fill="#000000">spool bytes without coupling</text>
<text text-anchor="start" x="1014" y="-1373.3" font-family="Arial" font-size="24.00" fill="#000000">text ingest to media</text>
<text text-anchor="start" x="1061" y="-1349.3" font-family="Arial" font-size="24.00" fill="#000000">availability.</text>
</g>
<!-- 23&#45;&gt;29 -->
<g id="118" class="edge">
<title>23&#45;&gt;29</title>
<path fill="none" stroke="#444444" stroke-dasharray="5,2" d="M552.26,-1124.12C663.09,-1195.74 792.84,-1279.57 900.15,-1348.91"/>
<polygon fill="#444444" stroke="#444444" points="898.52,-1352.02 908.82,-1354.51 902.32,-1346.15 898.52,-1352.02"/>
<polygon fill="white" stroke="transparent" points="588,-1320 588,-1354 873,-1354 873,-1320 588,-1320"/>
<text text-anchor="start" x="592.5" y="-1330.8" font-family="Arial" font-size="24.00" fill="#444444">Routes media requests to</text>
</g>
<!-- 37 -->
<g id="37" class="node">
<title>37</title>
<polygon fill="#85bbf0" stroke="#1168bd" points="4747,-577.5 4341,-577.5 4341,-264.5 4747,-264.5 4747,-577.5"/>
<text text-anchor="start" x="4431" y="-529.3" font-family="Arial" font-size="34.00" fill="#000000">Media Process</text>
<text text-anchor="start" x="4412.5" y="-495.3" font-family="Arial" font-size="34.00" fill="#000000">Resource Budget</text>
<text text-anchor="start" x="4370" y="-473.3" font-family="Arial" font-size="19.00" fill="#000000">[Component: Python threading.Condition]</text>
<text text-anchor="start" x="4381.5" y="-436.3" font-family="Arial" font-size="24.00" fill="#000000">Bounds active media requests</text>
<text text-anchor="start" x="4410" y="-412.3" font-family="Arial" font-size="24.00" fill="#000000">and in&#45;flight bytes across</text>
<text text-anchor="start" x="4384" y="-388.3" font-family="Arial" font-size="24.00" fill="#000000">threads within one daemon or</text>
<text text-anchor="start" x="4410" y="-364.3" font-family="Arial" font-size="24.00" fill="#000000">worker process; exposes</text>
<text text-anchor="start" x="4415.5" y="-340.3" font-family="Arial" font-size="24.00" fill="#000000">aggregate counters and</text>
<text text-anchor="start" x="4392" y="-316.3" font-family="Arial" font-size="24.00" fill="#000000">releases leases on failure or</text>
<text text-anchor="start" x="4476.5" y="-292.3" font-family="Arial" font-size="24.00" fill="#000000">cancellation.</text>
</g>
<!-- 23&#45;&gt;37 -->
<g id="119" class="edge">
<title>23&#45;&gt;37</title>
<path fill="none" stroke="#444444" stroke-dasharray="5,2" d="M552.32,-859.05C899.68,-714.11 1556.32,-456.36 2140,-319 2712.62,-184.24 2874.83,-268.32 3463,-279 3807.28,-285.25 3898.47,-262.9 4236,-331 4266.96,-337.25 4299.32,-345.16 4330.92,-353.69"/>
<polygon fill="#444444" stroke="#444444" points="4330.13,-357.1 4340.7,-356.36 4331.97,-350.35 4330.13,-357.1"/>
<polygon fill="white" stroke="transparent" points="2156.5,-319 2156.5,-405 2417.5,-405 2417.5,-319 2156.5,-319"/>
<text text-anchor="start" x="2161" y="-381.8" font-family="Arial" font-size="24.00" fill="#444444">Leases bounded media</text>
<text text-anchor="start" x="2174" y="-355.8" font-family="Arial" font-size="24.00" fill="#444444">upload and response</text>
<text text-anchor="start" x="2198.5" y="-329.8" font-family="Arial" font-size="24.00" fill="#444444">capacity through</text>
</g>
<!-- 30 -->
<g id="30" class="node">
<title>30</title>
<polygon fill="#85bbf0" stroke="#1168bd" points="3878,-2066.5 3531,-2066.5 3531,-1811.5 3878,-1811.5 3878,-2066.5"/>
<text text-anchor="start" x="3562.5" y="-2018.3" font-family="Arial" font-size="34.00" fill="#000000">Media State Model</text>
<text text-anchor="start" x="3615.5" y="-1996.3" font-family="Arial" font-size="19.00" fill="#000000">[Component: Python]</text>
<text text-anchor="start" x="3580" y="-1959.3" font-family="Arial" font-size="24.00" fill="#000000">Owns caller&#45;visible and</text>
<text text-anchor="start" x="3563.5" y="-1935.3" font-family="Arial" font-size="24.00" fill="#000000">internal artifact/task status</text>
<text text-anchor="start" x="3579.5" y="-1911.3" font-family="Arial" font-size="24.00" fill="#000000">taxonomies, fetch&#45;error</text>
<text text-anchor="start" x="3569" y="-1887.3" font-family="Arial" font-size="24.00" fill="#000000">classification, and explicit</text>
<text text-anchor="start" x="3560" y="-1863.3" font-family="Arial" font-size="24.00" fill="#000000">ordinary versus force&#45;reset</text>
<text text-anchor="start" x="3602.5" y="-1839.3" font-family="Arial" font-size="24.00" fill="#000000">transition matrices.</text>
</g>
<!-- 29&#45;&gt;30 -->
<g id="127" class="edge">
<title>29&#45;&gt;30</title>
<path fill="none" stroke="#444444" stroke-dasharray="5,2" d="M1330.1,-1587.58C1434.4,-1631.21 1563.8,-1678.12 1685,-1702 1766.81,-1718.12 2370.08,-1695.45 2434,-1749 2485.89,-1792.48 2417.49,-1854.27 2470,-1897 2549.33,-1961.56 3196.44,-1953.18 3520.29,-1944.75"/>
<polygon fill="#444444" stroke="#444444" points="3520.82,-1948.24 3530.73,-1944.48 3520.64,-1941.24 3520.82,-1948.24"/>
<polygon fill="white" stroke="transparent" points="2154,-1749 2154,-1835 2420,-1835 2420,-1749 2154,-1749"/>
<text text-anchor="start" x="2195.5" y="-1811.8" font-family="Arial" font-size="24.00" fill="#444444">Classifies artifact</text>
<text text-anchor="start" x="2158" y="-1785.8" font-family="Arial" font-size="24.00" fill="#444444">outcomes and transition</text>
<text text-anchor="start" x="2212.5" y="-1759.8" font-family="Arial" font-size="24.00" fill="#444444">intent through</text>
</g>
<!-- 31 -->
<g id="31" class="node">
<title>31</title>
<polygon fill="#85bbf0" stroke="#1168bd" points="2988,-2291.5 2585,-2291.5 2585,-2012.5 2988,-2012.5 2988,-2291.5"/>
<text text-anchor="start" x="2614" y="-2243.3" font-family="Arial" font-size="34.00" fill="#000000">Media Task Repository</text>
<text text-anchor="start" x="2658.5" y="-2221.3" font-family="Arial" font-size="19.00" fill="#000000">[Component: Python + sqlite3]</text>
<text text-anchor="start" x="2637.5" y="-2184.3" font-family="Arial" font-size="24.00" fill="#000000">Creates deterministic tasks,</text>
<text text-anchor="start" x="2653.5" y="-2160.3" font-family="Arial" font-size="24.00" fill="#000000">preserves terminal state,</text>
<text text-anchor="start" x="2638.5" y="-2136.3" font-family="Arial" font-size="24.00" fill="#000000">atomically leases due work,</text>
<text text-anchor="start" x="2645.5" y="-2112.3" font-family="Arial" font-size="24.00" fill="#000000">recovers stale leases, and</text>
<text text-anchor="start" x="2627.5" y="-2088.3" font-family="Arial" font-size="24.00" fill="#000000">applies bounded retry/backoff</text>
<text text-anchor="start" x="2627" y="-2064.3" font-family="Arial" font-size="24.00" fill="#000000">outcomes independently from</text>
<text text-anchor="start" x="2698.5" y="-2040.3" font-family="Arial" font-size="24.00" fill="#000000">media transport.</text>
</g>
<!-- 29&#45;&gt;31 -->
<g id="128" class="edge">
<title>29&#45;&gt;31</title>
<path fill="none" stroke="#444444" stroke-dasharray="5,2" d="M1245.76,-1658.68C1280.9,-1696.25 1321.73,-1732.46 1366,-1758 1656.96,-1925.86 1858.11,-1692.16 2104,-1921 2145.07,-1959.22 2095.6,-2007.7 2140,-2042 2152.93,-2051.99 2417.85,-2049.47 2434,-2052 2480.23,-2059.25 2529,-2070.62 2575,-2083.14"/>
<polygon fill="#444444" stroke="#444444" points="2574.2,-2086.55 2584.77,-2085.83 2576.06,-2079.8 2574.2,-2086.55"/>
<polygon fill="white" stroke="transparent" points="1743,-1921 1743,-1981 2046,-1981 2046,-1921 1743,-1921"/>
<text text-anchor="start" x="1747.5" y="-1957.8" font-family="Arial" font-size="24.00" fill="#444444">Creates and claims durable</text>
<text text-anchor="start" x="1788" y="-1931.8" font-family="Arial" font-size="24.00" fill="#444444">media work through</text>
</g>
<!-- 32 -->
<g id="32" class="node">
<title>32</title>
<polygon fill="#85bbf0" stroke="#1168bd" points="2104,-1665.5 1685,-1665.5 1685,-1314.5 2104,-1314.5 2104,-1665.5"/>
<text text-anchor="start" x="1745.5" y="-1617.3" font-family="Arial" font-size="34.00" fill="#000000">Media Artifact Store</text>
<text text-anchor="start" x="1714" y="-1595.3" font-family="Arial" font-size="19.00" fill="#000000">[Component: Python + sqlite3 + BlobStore]</text>
<text text-anchor="start" x="1791.5" y="-1558.3" font-family="Arial" font-size="24.00" fill="#000000">Owns artifact rows,</text>
<text text-anchor="start" x="1747" y="-1534.3" font-family="Arial" font-size="24.00" fill="#000000">transactional cross&#45;process</text>
<text text-anchor="start" x="1749.5" y="-1510.3" font-family="Arial" font-size="24.00" fill="#000000">cache reservations, unique</text>
<text text-anchor="start" x="1779" y="-1486.3" font-family="Arial" font-size="24.00" fill="#000000">streamed publication,</text>
<text text-anchor="start" x="1753.5" y="-1462.3" font-family="Arial" font-size="24.00" fill="#000000">failed&#45;write compensation,</text>
<text text-anchor="start" x="1769" y="-1438.3" font-family="Arial" font-size="24.00" fill="#000000">contained reads, cache</text>
<text text-anchor="start" x="1777" y="-1414.3" font-family="Arial" font-size="24.00" fill="#000000">admission, oldest&#45;first</text>
<text text-anchor="start" x="1748" y="-1390.3" font-family="Arial" font-size="24.00" fill="#000000">eviction, purge/rehydration,</text>
<text text-anchor="start" x="1828" y="-1366.3" font-family="Arial" font-size="24.00" fill="#000000">and lifecycle</text>
<text text-anchor="start" x="1765" y="-1342.3" font-family="Arial" font-size="24.00" fill="#000000">registration/tombstones.</text>
</g>
<!-- 29&#45;&gt;32 -->
<g id="129" class="edge">
<title>29&#45;&gt;32</title>
<path fill="none" stroke="#444444" stroke-dasharray="5,2" d="M1330.19,-1490C1436.96,-1490 1566.67,-1490 1674.7,-1490"/>
<polygon fill="#444444" stroke="#444444" points="1674.75,-1493.5 1684.75,-1490 1674.75,-1486.5 1674.75,-1493.5"/>
<polygon fill="white" stroke="transparent" points="1378.5,-1490 1378.5,-1576 1636.5,-1576 1636.5,-1490 1378.5,-1490"/>
<text text-anchor="start" x="1400" y="-1552.8" font-family="Arial" font-size="24.00" fill="#444444">Publishes, resolves,</text>
<text text-anchor="start" x="1382.5" y="-1526.8" font-family="Arial" font-size="24.00" fill="#444444">purges, and rehydrates</text>
<text text-anchor="start" x="1420" y="-1500.8" font-family="Arial" font-size="24.00" fill="#444444">artifacts through</text>
</g>
<!-- 33 -->
<g id="33" class="node">
<title>33</title>
<polygon fill="#85bbf0" stroke="#1168bd" points="2089.5,-935.5 1699.5,-935.5 1699.5,-622.5 2089.5,-622.5 2089.5,-935.5"/>
<text text-anchor="start" x="1771.5" y="-887.3" font-family="Arial" font-size="34.00" fill="#000000">Media Transport</text>
<text text-anchor="start" x="1805.5" y="-853.3" font-family="Arial" font-size="34.00" fill="#000000">Coordinator</text>
<text text-anchor="start" x="1805.5" y="-831.3" font-family="Arial" font-size="19.00" fill="#000000">[Component: Python]</text>
<text text-anchor="start" x="1744" y="-794.3" font-family="Arial" font-size="24.00" fill="#000000">Classifies direct versus HLS</text>
<text text-anchor="start" x="1773" y="-770.3" font-family="Arial" font-size="24.00" fill="#000000">responses, applies the</text>
<text text-anchor="start" x="1728.5" y="-746.3" font-family="Arial" font-size="24.00" fill="#000000">aggregate HLS request budget</text>
<text text-anchor="start" x="1747" y="-722.3" font-family="Arial" font-size="24.00" fill="#000000">from the first network open,</text>
<text text-anchor="start" x="1742.5" y="-698.3" font-family="Arial" font-size="24.00" fill="#000000">enforces playlist sniffing and</text>
<text text-anchor="start" x="1749.5" y="-674.3" font-family="Arial" font-size="24.00" fill="#000000">byte caps, and coordinates</text>
<text text-anchor="start" x="1736" y="-650.3" font-family="Arial" font-size="24.00" fill="#000000">bounded streamed assembly.</text>
</g>
<!-- 29&#45;&gt;33 -->
<g id="130" class="edge">
<title>29&#45;&gt;33</title>
<path fill="none" stroke="#444444" stroke-dasharray="5,2" d="M1156.18,-1321.31C1190.36,-1199.3 1253.84,-1039.09 1366,-940 1455.24,-861.16 1582.27,-820.92 1689.31,-800.39"/>
<polygon fill="#444444" stroke="#444444" points="1690.09,-803.8 1699.28,-798.52 1688.8,-796.92 1690.09,-803.8"/>
<polygon fill="white" stroke="transparent" points="1366,-940 1366,-1000 1649,-1000 1649,-940 1366,-940"/>
<text text-anchor="start" x="1370.5" y="-976.8" font-family="Arial" font-size="24.00" fill="#444444">Delegates daemon&#45;public</text>
<text text-anchor="start" x="1387.5" y="-950.8" font-family="Arial" font-size="24.00" fill="#444444">media orchestration to</text>
</g>
<!-- 38 -->
<g id="38" class="node">
<title>38</title>
<polygon fill="#85bbf0" stroke="#1168bd" points="3910,-1656.5 3499,-1656.5 3499,-1353.5 3910,-1353.5 3910,-1656.5"/>
<text text-anchor="start" x="3548" y="-1608.3" font-family="Arial" font-size="34.00" fill="#000000">Contained BlobStore</text>
<text text-anchor="start" x="3528" y="-1586.3" font-family="Arial" font-size="19.00" fill="#000000">[Component: Python filesystem boundary]</text>
<text text-anchor="start" x="3552" y="-1549.3" font-family="Arial" font-size="24.00" fill="#000000">Prefers root&#45;relative locators</text>
<text text-anchor="start" x="3588.5" y="-1525.3" font-family="Arial" font-size="24.00" fill="#000000">with contained legacy</text>
<text text-anchor="start" x="3573.5" y="-1501.3" font-family="Arial" font-size="24.00" fill="#000000">fallback; streams unique</text>
<text text-anchor="start" x="3589.5" y="-1477.3" font-family="Arial" font-size="24.00" fill="#000000">stages with size/hash</text>
<text text-anchor="start" x="3585.5" y="-1453.3" font-family="Arial" font-size="24.00" fill="#000000">accounting; atomically</text>
<text text-anchor="start" x="3557.5" y="-1429.3" font-family="Arial" font-size="24.00" fill="#000000">commits; and contains blob</text>
<text text-anchor="start" x="3590" y="-1405.3" font-family="Arial" font-size="24.00" fill="#000000">read, stat, and delete</text>
<text text-anchor="start" x="3644" y="-1381.3" font-family="Arial" font-size="24.00" fill="#000000">operations.</text>
</g>
<!-- 29&#45;&gt;38 -->
<g id="148" class="edge">
<title>29&#45;&gt;38</title>
<path fill="none" stroke="#444444" stroke-dasharray="5,2" d="M1330.46,-1377.8C1531.64,-1277.1 1847.11,-1136.69 2140,-1080 2719.39,-967.86 2956.31,-890.46 3463,-1193 3524.29,-1229.59 3575.57,-1288.2 3614.83,-1344.8"/>
<polygon fill="#444444" stroke="#444444" points="3612,-1346.86 3620.53,-1353.13 3617.77,-1342.9 3612,-1346.86"/>
<polygon fill="white" stroke="transparent" points="2152.5,-1080 2152.5,-1192 2421.5,-1192 2421.5,-1080 2152.5,-1080"/>
<text text-anchor="start" x="2166" y="-1168.8" font-family="Arial" font-size="24.00" fill="#444444">Checks current artifact</text>
<text text-anchor="start" x="2170.5" y="-1142.8" font-family="Arial" font-size="24.00" fill="#444444">presence during fetch</text>
<text text-anchor="start" x="2157" y="-1116.8" font-family="Arial" font-size="24.00" fill="#444444">orchestration and drains</text>
<text text-anchor="start" x="2181.5" y="-1090.8" font-family="Arial" font-size="24.00" fill="#444444">spool bytes through</text>
</g>
<!-- 47 -->
<g id="47" class="node">
<title>47</title>
<path fill="#2f95c8" stroke="#20688c" d="M3902,-2853.22C3902,-2881.44 3813.48,-2904.38 3704.5,-2904.38 3595.52,-2904.38 3507,-2881.44 3507,-2853.22 3507,-2853.22 3507,-2392.78 3507,-2392.78 3507,-2364.56 3595.52,-2341.62 3704.5,-2341.62 3813.48,-2341.62 3902,-2364.56 3902,-2392.78 3902,-2392.78 3902,-2853.22 3902,-2853.22"/>
<path fill="none" stroke="#20688c" d="M3902,-2853.22C3902,-2824.99 3813.48,-2802.06 3704.5,-2802.06 3595.52,-2802.06 3507,-2824.99 3507,-2853.22"/>
<text text-anchor="start" x="3591.5" y="-2779.3" font-family="Arial" font-size="34.00" fill="#ffffff">SQLite + FTS5</text>
<text text-anchor="start" x="3631.5" y="-2745.3" font-family="Arial" font-size="34.00" fill="#ffffff">Database</text>
<text text-anchor="start" x="3578.5" y="-2723.3" font-family="Arial" font-size="19.00" fill="#ffffff">[Container: SQLite with FTS5]</text>
<text text-anchor="start" x="3536.5" y="-2686.3" font-family="Arial" font-size="24.00" fill="#ffffff">Durable complete cleaned&#45;text,</text>
<text text-anchor="start" x="3585.5" y="-2662.3" font-family="Arial" font-size="24.00" fill="#ffffff">relational, and full&#45;text</text>
<text text-anchor="start" x="3587" y="-2638.3" font-family="Arial" font-size="24.00" fill="#ffffff">authority for migration</text>
<text text-anchor="start" x="3552.5" y="-2614.3" font-family="Arial" font-size="24.00" fill="#ffffff">ledger, sources, documents,</text>
<text text-anchor="start" x="3555" y="-2590.3" font-family="Arial" font-size="24.00" fill="#ffffff">visits, capture observations,</text>
<text text-anchor="start" x="3573.5" y="-2566.3" font-family="Arial" font-size="24.00" fill="#ffffff">URL claims, visit events,</text>
<text text-anchor="start" x="3536" y="-2542.3" font-family="Arial" font-size="24.00" fill="#ffffff">snapshots, chunks, chunks_fts,</text>
<text text-anchor="start" x="3543.5" y="-2518.3" font-family="Arial" font-size="24.00" fill="#ffffff">media provenance/tasks, blob</text>
<text text-anchor="start" x="3580" y="-2494.3" font-family="Arial" font-size="24.00" fill="#ffffff">lifecycle records, policy</text>
<text text-anchor="start" x="3579" y="-2470.3" font-family="Arial" font-size="24.00" fill="#ffffff">rules, audit events, and</text>
<text text-anchor="start" x="3612.5" y="-2446.3" font-family="Arial" font-size="24.00" fill="#ffffff">deletion receipts.</text>
</g>
<!-- 29&#45;&gt;47 -->
<g id="131" class="edge">
<title>29&#45;&gt;47</title>
<path fill="none" stroke="#444444" stroke-dasharray="5,2" d="M1202.61,-1658.56C1298.27,-1841.42 1470.89,-2133.25 1685,-2328 1978.8,-2595.24 2085.09,-2657.09 2470,-2755 2823.63,-2844.95 3249.45,-2758.03 3497.03,-2688.94"/>
<polygon fill="#444444" stroke="#444444" points="3498.17,-2692.26 3506.85,-2686.19 3496.28,-2685.52 3498.17,-2692.26"/>
<polygon fill="white" stroke="transparent" points="2161.5,-2743 2161.5,-2818 2412.5,-2818 2412.5,-2743 2161.5,-2743"/>
<text text-anchor="start" x="2166" y="-2795.3" font-family="Arial" font-size="24.00" fill="#444444">Updates media artifact</text>
<text text-anchor="start" x="2249" y="-2771.3" font-family="Arial" font-size="24.00" fill="#444444">rows in</text>
<text text-anchor="start" x="2254" y="-2751.3" font-family="Arial" font-size="19.00" fill="#444444">[sqlite3]</text>
</g>
<!-- 31&#45;&gt;30 -->
<g id="132" class="edge">
<title>31&#45;&gt;30</title>
<path fill="none" stroke="#444444" stroke-dasharray="5,2" d="M2988.24,-2105.32C3147.07,-2068.39 3367,-2017.25 3520.91,-1981.46"/>
<polygon fill="#444444" stroke="#444444" points="3522.01,-1984.8 3530.95,-1979.12 3520.42,-1977.98 3522.01,-1984.8"/>
<polygon fill="white" stroke="transparent" points="3184,-2077 3184,-2163 3418,-2163 3418,-2077 3184,-2077"/>
<text text-anchor="start" x="3191" y="-2139.8" font-family="Arial" font-size="24.00" fill="#444444">Validates task status</text>
<text text-anchor="start" x="3191" y="-2113.8" font-family="Arial" font-size="24.00" fill="#444444">vocabulary and retry</text>
<text text-anchor="start" x="3188" y="-2087.8" font-family="Arial" font-size="24.00" fill="#444444">classification through</text>
</g>
<!-- 31&#45;&gt;47 -->
<g id="133" class="edge">
<title>31&#45;&gt;47</title>
<path fill="none" stroke="#444444" stroke-dasharray="5,2" d="M2988.12,-2228.14C3037.07,-2245.22 3089.58,-2262.32 3139,-2276 3280.63,-2315.21 3336.35,-2267.46 3463,-2342 3475.25,-2349.21 3487.19,-2357.28 3498.76,-2365.99"/>
<polygon fill="#444444" stroke="#444444" points="3496.66,-2368.8 3506.72,-2372.13 3500.94,-2363.25 3496.66,-2368.8"/>
<polygon fill="white" stroke="transparent" points="3164.5,-2342 3164.5,-2417 3437.5,-2417 3437.5,-2342 3164.5,-2342"/>
<text text-anchor="start" x="3190" y="-2394.3" font-family="Arial" font-size="24.00" fill="#444444">Creates, leases, and</text>
<text text-anchor="start" x="3169" y="-2370.3" font-family="Arial" font-size="24.00" fill="#444444">advances media tasks in</text>
<text text-anchor="start" x="3268" y="-2350.3" font-family="Arial" font-size="19.00" fill="#444444">[sqlite3]</text>
</g>
<!-- 32&#45;&gt;30 -->
<g id="134" class="edge">
<title>32&#45;&gt;30</title>
<path fill="none" stroke="#444444" stroke-dasharray="5,2" d="M2104.24,-1613.17C2116.18,-1618.52 2128.15,-1623.52 2140,-1628 2204.7,-1652.46 3122.15,-1828.44 3520.78,-1904.32"/>
<polygon fill="#444444" stroke="#444444" points="3520.21,-1907.77 3530.68,-1906.21 3521.52,-1900.9 3520.21,-1907.77"/>
<polygon fill="white" stroke="transparent" points="2679.5,-1819 2679.5,-1879 2893.5,-1879 2893.5,-1819 2679.5,-1819"/>
<text text-anchor="start" x="2683.5" y="-1855.8" font-family="Arial" font-size="24.00" fill="#444444">Uses artifact status</text>
<text text-anchor="start" x="2700" y="-1829.8" font-family="Arial" font-size="24.00" fill="#444444">vocabulary from</text>
</g>
<!-- 32&#45;&gt;31 -->
<g id="135" class="edge">
<title>32&#45;&gt;31</title>
<path fill="none" stroke="#444444" stroke-dasharray="5,2" d="M2018.38,-1665.76C2046.92,-1707.5 2076.87,-1752.1 2104,-1794 2120.69,-1819.79 2114.95,-1835.23 2140,-1853 2248.99,-1930.32 2310.98,-1863.81 2434,-1916 2489.93,-1939.72 2546.38,-1972.73 2597.19,-2006.55"/>
<polygon fill="#444444" stroke="#444444" points="2595.36,-2009.54 2605.62,-2012.2 2599.26,-2003.72 2595.36,-2009.54"/>
<polygon fill="white" stroke="transparent" points="2160,-1916 2160,-2028 2414,-2028 2414,-1916 2160,-1916"/>
<text text-anchor="start" x="2171.5" y="-2004.8" font-family="Arial" font-size="24.00" fill="#444444">Marks stored/skipped</text>
<text text-anchor="start" x="2164" y="-1978.8" font-family="Arial" font-size="24.00" fill="#444444">outcomes and ensures</text>
<text text-anchor="start" x="2181" y="-1952.8" font-family="Arial" font-size="24.00" fill="#444444">retryable fetch work</text>
<text text-anchor="start" x="2245.5" y="-1926.8" font-family="Arial" font-size="24.00" fill="#444444">through</text>
</g>
<!-- 32&#45;&gt;38 -->
<g id="137" class="edge">
<title>32&#45;&gt;38</title>
<path fill="none" stroke="#444444" stroke-dasharray="5,2" d="M2104.26,-1355.31C2209.46,-1295.34 2341.68,-1231.46 2470,-1201 2743.73,-1136.03 2829.35,-1135.68 3103,-1201 3239.11,-1233.49 3379.29,-1302.11 3489.94,-1365.94"/>
<polygon fill="#444444" stroke="#444444" points="3488.46,-1369.13 3498.87,-1371.12 3491.97,-1363.08 3488.46,-1369.13"/>
<polygon fill="white" stroke="transparent" points="2639.5,-1201 2639.5,-1313 2933.5,-1313 2933.5,-1201 2639.5,-1201"/>
<text text-anchor="start" x="2643.5" y="-1289.8" font-family="Arial" font-size="24.00" fill="#444444">Stages unique candidates,</text>
<text text-anchor="start" x="2648" y="-1263.8" font-family="Arial" font-size="24.00" fill="#444444">resolves contained reads,</text>
<text text-anchor="start" x="2691.5" y="-1237.8" font-family="Arial" font-size="24.00" fill="#444444">and deletes failed</text>
<text text-anchor="start" x="2683" y="-1211.8" font-family="Arial" font-size="24.00" fill="#444444">candidates through</text>
</g>
<!-- 39 -->
<g id="39" class="node">
<title>39</title>
<polygon fill="#85bbf0" stroke="#1168bd" points="3103,-1661.5 2470,-1661.5 2470,-1348.5 3103,-1348.5 3103,-1661.5"/>
<text text-anchor="start" x="2648" y="-1613.3" font-family="Arial" font-size="34.00" fill="#000000">Blob Lifecycle and</text>
<text text-anchor="start" x="2642" y="-1579.3" font-family="Arial" font-size="34.00" fill="#000000">Storage Reconciler</text>
<text text-anchor="start" x="2605" y="-1557.3" font-family="Arial" font-size="19.00" fill="#000000">[Component: Python + sqlite3 + filesystem]</text>
<text text-anchor="start" x="2743.5" y="-1520.3" font-family="Arial" font-size="24.00" fill="#000000">Persists</text>
<text text-anchor="start" x="2499" y="-1496.3" font-family="Arial" font-size="24.00" fill="#000000">committed/tombstoned/missing/deleted/blocked/failed</text>
<text text-anchor="start" x="2676.5" y="-1472.3" font-family="Arial" font-size="24.00" fill="#000000">blob state; serializes</text>
<text text-anchor="start" x="2640.5" y="-1448.3" font-family="Arial" font-size="24.00" fill="#000000">deletion processors; retries</text>
<text text-anchor="start" x="2654.5" y="-1424.3" font-family="Arial" font-size="24.00" fill="#000000">tombstones; and dry&#45;run</text>
<text text-anchor="start" x="2638" y="-1400.3" font-family="Arial" font-size="24.00" fill="#000000">detects missing refs, in&#45;root</text>
<text text-anchor="start" x="2644" y="-1376.3" font-family="Arial" font-size="24.00" fill="#000000">orphans, and stale stages.</text>
</g>
<!-- 32&#45;&gt;39 -->
<g id="138" class="edge">
<title>32&#45;&gt;39</title>
<path fill="none" stroke="#444444" stroke-dasharray="5,2" d="M2104.17,-1493.52C2209.88,-1495.3 2340.66,-1497.5 2459.29,-1499.5"/>
<polygon fill="#444444" stroke="#444444" points="2459.57,-1503.01 2469.63,-1499.68 2459.69,-1496.01 2459.57,-1503.01"/>
<polygon fill="white" stroke="transparent" points="2140,-1498 2140,-1610 2434,-1610 2434,-1498 2140,-1498"/>
<text text-anchor="start" x="2144" y="-1586.8" font-family="Arial" font-size="24.00" fill="#444444">Registers committed blobs</text>
<text text-anchor="start" x="2200.5" y="-1560.8" font-family="Arial" font-size="24.00" fill="#444444">and tombstones</text>
<text text-anchor="start" x="2145.5" y="-1534.8" font-family="Arial" font-size="24.00" fill="#444444">replacement, eviction, and</text>
<text text-anchor="start" x="2178.5" y="-1508.8" font-family="Arial" font-size="24.00" fill="#444444">purge bytes through</text>
</g>
<!-- 32&#45;&gt;47 -->
<g id="136" class="edge">
<title>32&#45;&gt;47</title>
<path fill="none" stroke="#444444" stroke-dasharray="5,2" d="M2037.38,-1665.58C2063.67,-1706.03 2087.89,-1750.35 2104,-1795 2133.24,-1876.04 2089.78,-2111 2140,-2181 2398.1,-2540.74 2672.46,-2332.72 3103,-2436 3235.84,-2467.87 3382.26,-2513.25 3497.26,-2551.32"/>
<polygon fill="#444444" stroke="#444444" points="3496.29,-2554.69 3506.88,-2554.52 3498.49,-2548.05 3496.29,-2554.69"/>
<polygon fill="white" stroke="transparent" points="2648,-2436 2648,-2559 2925,-2559 2925,-2436 2648,-2436"/>
<text text-anchor="start" x="2652.5" y="-2536.3" font-family="Arial" font-size="24.00" fill="#444444">Reserves cache capacity</text>
<text text-anchor="start" x="2675" y="-2512.3" font-family="Arial" font-size="24.00" fill="#444444">and advances media</text>
<text text-anchor="start" x="2721.5" y="-2488.3" font-family="Arial" font-size="24.00" fill="#444444">artifact rows</text>
<text text-anchor="start" x="2696.5" y="-2464.3" font-family="Arial" font-size="24.00" fill="#444444">transactionally in</text>
<text text-anchor="start" x="2753.5" y="-2444.3" font-family="Arial" font-size="19.00" fill="#444444">[sqlite3]</text>
</g>
<!-- 34 -->
<g id="34" class="node">
<title>34</title>
<polygon fill="#85bbf0" stroke="#1168bd" points="3909.5,-703.5 3499.5,-703.5 3499.5,-424.5 3909.5,-424.5 3909.5,-703.5"/>
<text text-anchor="start" x="3540" y="-655.3" font-family="Arial" font-size="34.00" fill="#000000">Guarded Media Fetch</text>
<text text-anchor="start" x="3528.5" y="-633.3" font-family="Arial" font-size="19.00" fill="#000000">[Component: Python stdlib urllib + socket]</text>
<text text-anchor="start" x="3557.5" y="-596.3" font-family="Arial" font-size="24.00" fill="#000000">Owns streamed HTTP/data</text>
<text text-anchor="start" x="3570.5" y="-572.3" font-family="Arial" font-size="24.00" fill="#000000">transport, public&#45;address</text>
<text text-anchor="start" x="3606" y="-548.3" font-family="Arial" font-size="24.00" fill="#000000">validation, redirect</text>
<text text-anchor="start" x="3578" y="-524.3" font-family="Arial" font-size="24.00" fill="#000000">revalidation, no&#45;referrer</text>
<text text-anchor="start" x="3574" y="-500.3" font-family="Arial" font-size="24.00" fill="#000000">requests, response&#45;byte</text>
<text text-anchor="start" x="3557.5" y="-476.3" font-family="Arial" font-size="24.00" fill="#000000">limits, process request/byte</text>
<text text-anchor="start" x="3543.5" y="-452.3" font-family="Arial" font-size="24.00" fill="#000000">leases, and shared deadlines.</text>
</g>
<!-- 33&#45;&gt;34 -->
<g id="139" class="edge">
<title>33&#45;&gt;34</title>
<path fill="none" stroke="#444444" stroke-dasharray="5,2" d="M2089.66,-813.7C2106.65,-815.84 2123.6,-817.67 2140,-819 2270.24,-829.58 2303.5,-825.52 2434,-819 2895.66,-795.94 3024.04,-812.83 3463,-668 3471.9,-665.06 3480.92,-661.93 3489.99,-658.64"/>
<polygon fill="#444444" stroke="#444444" points="3491.27,-661.9 3499.45,-655.17 3488.86,-655.33 3491.27,-661.9"/>
<polygon fill="white" stroke="transparent" points="2642.5,-816 2642.5,-902 2930.5,-902 2930.5,-816 2642.5,-816"/>
<text text-anchor="start" x="2690" y="-878.8" font-family="Arial" font-size="24.00" fill="#444444">Streams the initial</text>
<text text-anchor="start" x="2646.5" y="-852.8" font-family="Arial" font-size="24.00" fill="#444444">response and every direct</text>
<text text-anchor="start" x="2705" y="-826.8" font-family="Arial" font-size="24.00" fill="#444444">artifact through</text>
</g>
<!-- 35 -->
<g id="35" class="node">
<title>35</title>
<polygon fill="#85bbf0" stroke="#1168bd" points="2997.5,-715.5 2575.5,-715.5 2575.5,-412.5 2997.5,-412.5 2997.5,-715.5"/>
<text text-anchor="start" x="2604.5" y="-667.3" font-family="Arial" font-size="34.00" fill="#000000">Bounded HLS Transport</text>
<text text-anchor="start" x="2697.5" y="-645.3" font-family="Arial" font-size="19.00" fill="#000000">[Component: Python]</text>
<text text-anchor="start" x="2648.5" y="-608.3" font-family="Arial" font-size="24.00" fill="#000000">Parses bounded playlists,</text>
<text text-anchor="start" x="2631.5" y="-584.3" font-family="Arial" font-size="24.00" fill="#000000">selects variants, expands init</text>
<text text-anchor="start" x="2636" y="-560.3" font-family="Arial" font-size="24.00" fill="#000000">maps/segments through the</text>
<text text-anchor="start" x="2631.5" y="-536.3" font-family="Arial" font-size="24.00" fill="#000000">guarded fetch boundary, and</text>
<text text-anchor="start" x="2654.5" y="-512.3" font-family="Arial" font-size="24.00" fill="#000000">streams assembly within</text>
<text text-anchor="start" x="2731.5" y="-488.3" font-family="Arial" font-size="24.00" fill="#000000">aggregate</text>
<text text-anchor="start" x="2636.5" y="-464.3" font-family="Arial" font-size="24.00" fill="#000000">byte/depth/request/deadline</text>
<text text-anchor="start" x="2755.5" y="-440.3" font-family="Arial" font-size="24.00" fill="#000000">limits.</text>
</g>
<!-- 33&#45;&gt;35 -->
<g id="140" class="edge">
<title>33&#45;&gt;35</title>
<path fill="none" stroke="#444444" stroke-dasharray="5,2" d="M2089.71,-732.08C2229.96,-698.2 2419.55,-652.4 2565.4,-617.17"/>
<polygon fill="#444444" stroke="#444444" points="2566.49,-620.51 2575.39,-614.76 2564.84,-613.7 2566.49,-620.51"/>
<polygon fill="white" stroke="transparent" points="2151.5,-715 2151.5,-801 2422.5,-801 2422.5,-715 2151.5,-715"/>
<text text-anchor="start" x="2183" y="-777.8" font-family="Arial" font-size="24.00" fill="#444444">Delegates detected</text>
<text text-anchor="start" x="2176" y="-751.8" font-family="Arial" font-size="24.00" fill="#444444">playlists for bounded</text>
<text text-anchor="start" x="2156" y="-725.8" font-family="Arial" font-size="24.00" fill="#444444">parsing and assembly to</text>
</g>
<!-- 33&#45;&gt;37 -->
<g id="141" class="edge">
<title>33&#45;&gt;37</title>
<path fill="none" stroke="#444444" stroke-dasharray="5,2" d="M2089.59,-660.22C2219.29,-579.05 2376.33,-476.8 2434,-423 2453.24,-405.05 2446.41,-387.65 2470,-376 2791.73,-217.17 3869.35,-332.98 4330.6,-392.02"/>
<polygon fill="#444444" stroke="#444444" points="4330.34,-395.52 4340.71,-393.32 4331.23,-388.58 4330.34,-395.52"/>
<polygon fill="white" stroke="transparent" points="3155,-308 3155,-368 3447,-368 3447,-308 3155,-308"/>
<text text-anchor="start" x="3159" y="-344.8" font-family="Arial" font-size="24.00" fill="#444444">Leases aggregate transfer</text>
<text text-anchor="start" x="3227" y="-318.8" font-family="Arial" font-size="24.00" fill="#444444">bytes through</text>
</g>
<!-- 34&#45;&gt;37 -->
<g id="142" class="edge">
<title>34&#45;&gt;37</title>
<path fill="none" stroke="#444444" stroke-dasharray="5,2" d="M3909.84,-453.12C3921.88,-448.86 3933.99,-445.1 3946,-442 4070.91,-409.8 4215.36,-403.93 4330.88,-406.41"/>
<polygon fill="#444444" stroke="#444444" points="4330.83,-409.91 4340.91,-406.65 4331,-402.91 4330.83,-409.91"/>
<polygon fill="white" stroke="transparent" points="3948.5,-442 3948.5,-502 4233.5,-502 4233.5,-442 3948.5,-442"/>
<text text-anchor="start" x="3953" y="-478.8" font-family="Arial" font-size="24.00" fill="#444444">Leases each active HTTP</text>
<text text-anchor="start" x="4006" y="-452.8" font-family="Arial" font-size="24.00" fill="#444444">request through</text>
</g>
<!-- 35&#45;&gt;34 -->
<g id="145" class="edge">
<title>35&#45;&gt;34</title>
<path fill="none" stroke="#444444" stroke-dasharray="5,2" d="M2997.65,-564C3144.93,-564 3341.15,-564 3489.32,-564"/>
<polygon fill="#444444" stroke="#444444" points="3489.45,-567.5 3499.45,-564 3489.45,-560.5 3489.45,-567.5"/>
<polygon fill="white" stroke="transparent" points="3177.5,-564 3177.5,-650 3424.5,-650 3424.5,-564 3177.5,-564"/>
<text text-anchor="start" x="3182" y="-626.8" font-family="Arial" font-size="24.00" fill="#444444">Fetches every variant,</text>
<text text-anchor="start" x="3182" y="-600.8" font-family="Arial" font-size="24.00" fill="#444444">init map, and segment</text>
<text text-anchor="start" x="3260" y="-574.8" font-family="Arial" font-size="24.00" fill="#444444">through</text>
</g>
<!-- 36 -->
<g id="36" class="node">
<title>36</title>
<polygon fill="#85bbf0" stroke="#1168bd" points="2085,-2291.5 1704,-2291.5 1704,-2016.5 2085,-2016.5 2085,-2291.5"/>
<text text-anchor="start" x="1743.5" y="-2243.3" font-family="Arial" font-size="34.00" fill="#000000">Media Operator and</text>
<text text-anchor="start" x="1788.5" y="-2209.3" font-family="Arial" font-size="34.00" fill="#000000">Reconciliation</text>
<text text-anchor="start" x="1824.5" y="-2175.3" font-family="Arial" font-size="34.00" fill="#000000">Workflow</text>
<text text-anchor="start" x="1766.5" y="-2153.3" font-family="Arial" font-size="19.00" fill="#000000">[Component: Python + sqlite3]</text>
<text text-anchor="start" x="1755.5" y="-2116.3" font-family="Arial" font-size="24.00" fill="#000000">Owns scoped dry&#45;run&#45;first</text>
<text text-anchor="start" x="1733" y="-2092.3" font-family="Arial" font-size="24.00" fill="#000000">budget requeue plus bounded</text>
<text text-anchor="start" x="1747.5" y="-2068.3" font-family="Arial" font-size="24.00" fill="#000000">current&#45;state CDP/blob and</text>
<text text-anchor="start" x="1757" y="-2044.3" font-family="Arial" font-size="24.00" fill="#000000">stored&#45;task reconciliation.</text>
</g>
<!-- 36&#45;&gt;31 -->
<g id="146" class="edge">
<title>36&#45;&gt;31</title>
<path fill="none" stroke="#444444" stroke-dasharray="5,2" d="M2085.03,-2088.16C2103.44,-2083.63 2121.97,-2079.77 2140,-2077 2284.53,-2054.78 2448.18,-2074.29 2574.54,-2098.96"/>
<polygon fill="#444444" stroke="#444444" points="2574.23,-2102.47 2584.72,-2100.98 2575.59,-2095.6 2574.23,-2102.47"/>
<polygon fill="white" stroke="transparent" points="2143,-2077 2143,-2163 2431,-2163 2431,-2077 2143,-2077"/>
<text text-anchor="start" x="2152" y="-2139.8" font-family="Arial" font-size="24.00" fill="#444444">Resets explicitly selected</text>
<text text-anchor="start" x="2147" y="-2113.8" font-family="Arial" font-size="24.00" fill="#444444">tasks and closes bounded</text>
<text text-anchor="start" x="2150.5" y="-2087.8" font-family="Arial" font-size="24.00" fill="#444444">stale stored work through</text>
</g>
<!-- 36&#45;&gt;47 -->
<g id="147" class="edge">
<title>36&#45;&gt;47</title>
<path fill="none" stroke="#444444" stroke-dasharray="5,2" d="M2085.16,-2272.08C2092,-2279.7 2098.33,-2287.67 2104,-2296 2144.78,-2355.89 2092.24,-2400.51 2140,-2455 2243.07,-2572.59 2316.62,-2546.59 2470,-2577 2825.58,-2647.49 3249.81,-2644.91 3496.71,-2635.05"/>
<polygon fill="#444444" stroke="#444444" points="3497.03,-2638.54 3506.88,-2634.63 3496.74,-2631.54 3497.03,-2638.54"/>
<polygon fill="white" stroke="transparent" points="2635,-2638 2635,-2737 2938,-2737 2938,-2638 2635,-2638"/>
<text text-anchor="start" x="2639.5" y="-2714.3" font-family="Arial" font-size="24.00" fill="#444444">Reads and updates scoped</text>
<text text-anchor="start" x="2659" y="-2690.3" font-family="Arial" font-size="24.00" fill="#444444">media artifact/task state</text>
<text text-anchor="start" x="2777.5" y="-2666.3" font-family="Arial" font-size="24.00" fill="#444444">in</text>
<text text-anchor="start" x="2753.5" y="-2646.3" font-family="Arial" font-size="19.00" fill="#444444">[sqlite3]</text>
</g>
<!-- 49 -->
<g id="49" class="node">
<title>49</title>
<path fill="#2f95c8" stroke="#20688c" d="M4816,-2733.22C4816,-2754.82 4694.09,-2772.38 4544,-2772.38 4393.91,-2772.38 4272,-2754.82 4272,-2733.22 4272,-2733.22 4272,-2380.78 4272,-2380.78 4272,-2359.18 4393.91,-2341.62 4544,-2341.62 4694.09,-2341.62 4816,-2359.18 4816,-2380.78 4816,-2380.78 4816,-2733.22 4816,-2733.22"/>
<path fill="none" stroke="#20688c" d="M4816,-2733.22C4816,-2711.61 4694.09,-2694.06 4544,-2694.06 4393.91,-2694.06 4272,-2711.61 4272,-2733.22"/>
<text text-anchor="start" x="4388.5" y="-2665.3" font-family="Arial" font-size="34.00" fill="#ffffff">Guarded Media Blob</text>
<text text-anchor="start" x="4494.5" y="-2631.3" font-family="Arial" font-size="34.00" fill="#ffffff">Cache</text>
<text text-anchor="start" x="4301" y="-2609.3" font-family="Arial" font-size="19.00" fill="#ffffff">[Container: WSL&#45;visible local or NAS&#45;mounted filesystem]</text>
<text text-anchor="start" x="4434" y="-2572.3" font-family="Arial" font-size="24.00" fill="#ffffff">Bounded disposable</text>
<text text-anchor="start" x="4378.5" y="-2548.3" font-family="Arial" font-size="24.00" fill="#ffffff">image/video/audio bytes under</text>
<text text-anchor="start" x="4402.5" y="-2524.3" font-family="Arial" font-size="24.00" fill="#ffffff">the configured media root;</text>
<text text-anchor="start" x="4430" y="-2500.3" font-family="Arial" font-size="24.00" fill="#ffffff">explicit external roots</text>
<text text-anchor="start" x="4445" y="-2476.3" font-family="Arial" font-size="24.00" fill="#ffffff">require mount and</text>
<text text-anchor="start" x="4394.5" y="-2452.3" font-family="Arial" font-size="24.00" fill="#ffffff">identity&#45;marker proof before</text>
<text text-anchor="start" x="4503" y="-2428.3" font-family="Arial" font-size="24.00" fill="#ffffff">access.</text>
</g>
<!-- 38&#45;&gt;49 -->
<g id="156" class="edge">
<title>38&#45;&gt;49</title>
<path fill="none" stroke="#444444" stroke-dasharray="5,2" d="M3822.9,-1656.58C3851.92,-1695.13 3882.54,-1736.76 3910,-1776 4079.7,-2018.51 4074.71,-2114.35 4272,-2335 4276.19,-2339.69 4280.48,-2344.36 4284.87,-2349"/>
<polygon fill="#444444" stroke="#444444" points="4282.38,-2351.47 4291.82,-2356.29 4287.45,-2346.64 4282.38,-2351.47"/>
<polygon fill="white" stroke="transparent" points="3955.5,-2284 3955.5,-2383 4226.5,-2383 4226.5,-2284 3955.5,-2284"/>
<text text-anchor="start" x="3961.5" y="-2360.3" font-family="Arial" font-size="24.00" fill="#444444">Stages, commits, reads,</text>
<text text-anchor="start" x="3960" y="-2336.3" font-family="Arial" font-size="24.00" fill="#444444">stats, and deletes media</text>
<text text-anchor="start" x="4049.5" y="-2312.3" font-family="Arial" font-size="24.00" fill="#444444">blobs in</text>
<text text-anchor="start" x="4040" y="-2292.3" font-family="Arial" font-size="19.00" fill="#444444">[Filesystem]</text>
</g>
<!-- 50 -->
<g id="50" class="node">
<title>50</title>
<path fill="#2f95c8" stroke="#20688c" d="M4737,-3265.72C4737,-3288.98 4650.49,-3307.88 4544,-3307.88 4437.51,-3307.88 4351,-3288.98 4351,-3265.72 4351,-3265.72 4351,-2886.28 4351,-2886.28 4351,-2863.02 4437.51,-2844.12 4544,-2844.12 4650.49,-2844.12 4737,-2863.02 4737,-2886.28 4737,-2886.28 4737,-3265.72 4737,-3265.72"/>
<path fill="none" stroke="#20688c" d="M4737,-3265.72C4737,-3242.45 4650.49,-3223.56 4544,-3223.56 4437.51,-3223.56 4351,-3242.45 4351,-3265.72"/>
<text text-anchor="start" x="4380" y="-3196.3" font-family="Arial" font-size="34.00" fill="#ffffff">Bounded Local Media</text>
<text text-anchor="start" x="4500.5" y="-3162.3" font-family="Arial" font-size="34.00" fill="#ffffff">Spool</text>
<text text-anchor="start" x="4404" y="-3140.3" font-family="Arial" font-size="19.00" fill="#ffffff">[Container: WSL local filesystem]</text>
<text text-anchor="start" x="4392" y="-3103.3" font-family="Arial" font-size="24.00" fill="#ffffff">Opt&#45;in durable outage buffer</text>
<text text-anchor="start" x="4395.5" y="-3079.3" font-family="Arial" font-size="24.00" fill="#ffffff">beneath the local WSL data</text>
<text text-anchor="start" x="4422.5" y="-3055.3" font-family="Arial" font-size="24.00" fill="#ffffff">root; admission counts</text>
<text text-anchor="start" x="4398.5" y="-3031.3" font-family="Arial" font-size="24.00" fill="#ffffff">committed files and distinct</text>
<text text-anchor="start" x="4392" y="-3007.3" font-family="Arial" font-size="24.00" fill="#ffffff">in&#45;flight SQLite reservations,</text>
<text text-anchor="start" x="4419" y="-2983.3" font-family="Arial" font-size="24.00" fill="#ffffff">and drain verifies bytes</text>
<text text-anchor="start" x="4396.5" y="-2959.3" font-family="Arial" font-size="24.00" fill="#ffffff">before tier transition/source</text>
<text text-anchor="start" x="4498" y="-2935.3" font-family="Arial" font-size="24.00" fill="#ffffff">cleanup.</text>
</g>
<!-- 38&#45;&gt;50 -->
<g id="157" class="edge">
<title>38&#45;&gt;50</title>
<path fill="none" stroke="#444444" stroke-dasharray="5,2" d="M3843.99,-1656.53C3870.42,-1693.25 3894.61,-1734.09 3910,-1776 4005.93,-2037.18 3846.31,-2141.23 3946,-2401 4026.04,-2609.57 4202.55,-2795.49 4342.99,-2919.12"/>
<polygon fill="#444444" stroke="#444444" points="4341.09,-2922.11 4350.92,-2926.07 4345.71,-2916.84 4341.09,-2922.11"/>
<polygon fill="white" stroke="transparent" points="3946,-2816 3946,-2915 4236,-2915 4236,-2816 3946,-2816"/>
<text text-anchor="start" x="3961" y="-2892.3" font-family="Arial" font-size="24.00" fill="#444444">Stages, commits, reads,</text>
<text text-anchor="start" x="3950" y="-2868.3" font-family="Arial" font-size="24.00" fill="#444444">stats, and deletes spooled</text>
<text text-anchor="start" x="4045" y="-2844.3" font-family="Arial" font-size="24.00" fill="#444444">media in</text>
<text text-anchor="start" x="4039.5" y="-2824.3" font-family="Arial" font-size="19.00" fill="#444444">[Filesystem]</text>
</g>
<!-- 39&#45;&gt;38 -->
<g id="154" class="edge">
<title>39&#45;&gt;38</title>
<path fill="none" stroke="#444444" stroke-dasharray="5,2" d="M3103.06,-1505C3230.25,-1505 3373.73,-1505 3488.53,-1505"/>
<polygon fill="#444444" stroke="#444444" points="3488.84,-1508.5 3498.84,-1505 3488.84,-1501.5 3488.84,-1508.5"/>
<polygon fill="white" stroke="transparent" points="3174.5,-1505 3174.5,-1591 3427.5,-1591 3427.5,-1505 3174.5,-1505"/>
<text text-anchor="start" x="3179" y="-1567.8" font-family="Arial" font-size="24.00" fill="#444444">Resolves, deletes, and</text>
<text text-anchor="start" x="3187" y="-1541.8" font-family="Arial" font-size="24.00" fill="#444444">inventories contained</text>
<text text-anchor="start" x="3227.5" y="-1515.8" font-family="Arial" font-size="24.00" fill="#444444">bytes through</text>
</g>
<!-- 39&#45;&gt;47 -->
<g id="153" class="edge">
<title>39&#45;&gt;47</title>
<path fill="none" stroke="#444444" stroke-dasharray="5,2" d="M3061.31,-1661.62C3077.2,-1678.33 3091.4,-1696.45 3103,-1716 3148.75,-1793.14 3079.12,-2051.23 3139,-2118 3237.06,-2227.34 3357.37,-2080.96 3463,-2183 3512.93,-2231.23 3470.37,-2271.75 3499,-2335 3501.85,-2341.29 3504.84,-2347.58 3507.95,-2353.86"/>
<polygon fill="#444444" stroke="#444444" points="3504.97,-2355.72 3512.61,-2363.06 3511.22,-2352.55 3504.97,-2355.72"/>
<polygon fill="white" stroke="transparent" points="3139,-2183 3139,-2258 3463,-2258 3463,-2183 3139,-2183"/>
<text text-anchor="start" x="3143" y="-2235.3" font-family="Arial" font-size="24.00" fill="#444444">Reads and advances durable</text>
<text text-anchor="start" x="3175" y="-2211.3" font-family="Arial" font-size="24.00" fill="#444444">blob lifecycle records in</text>
<text text-anchor="start" x="3267.5" y="-2191.3" font-family="Arial" font-size="19.00" fill="#444444">[sqlite3]</text>
</g>
</g>
</svg>
