<?xml version="1.0" encoding="UTF-8" standalone="no"?>
<!DOCTYPE svg PUBLIC "-//W3C//DTD SVG 1.1//EN"
 "http://www.w3.org/Graphics/SVG/1.1/DTD/svg11.dtd">
<!-- Generated by graphviz version 2.43.0 (0)
 -->
<!-- Title: %3 Pages: 1 -->
<svg width="2445pt" height="1552pt"
 viewBox="0.00 0.00 2445.00 1551.50" xmlns="http://www.w3.org/2000/svg" xmlns:xlink="http://www.w3.org/1999/xlink">
<g id="graph0" class="graph" transform="scale(1 1) rotate(0) translate(4 1547.5)">
<title>%3</title>
<polygon fill="white" stroke="transparent" points="-4,4 -4,-1547.5 2441,-1547.5 2441,4 -4,4"/>
<text text-anchor="start" x="903" y="-11.8" font-family="Arial" font-size="34.00">Dynamic View: Browser Memory Daemon</text>
<g id="clust1" class="cluster">
<title>cluster_4</title>
<polygon fill="none" stroke="#444444" points="8,-346.5 8,-1535.5 2429,-1535.5 2429,-346.5 8,-346.5"/>
<text text-anchor="start" x="1077.5" y="-375.3" font-family="Arial" font-size="24.00" fill="#444444">Browser Memory Daemon</text>
<text text-anchor="start" x="1141.5" y="-355.3" font-family="Arial" font-size="19.00" fill="#444444">[Software System]</text>
</g>
<!-- 14 -->
<g id="14" class="node">
<title>14</title>
<path fill="#2f95c8" stroke="#20688c" d="M1491.5,-928.22C1491.5,-954.79 1389.98,-976.38 1265,-976.38 1140.02,-976.38 1038.5,-954.79 1038.5,-928.22 1038.5,-928.22 1038.5,-494.78 1038.5,-494.78 1038.5,-468.21 1140.02,-446.62 1265,-446.62 1389.98,-446.62 1491.5,-468.21 1491.5,-494.78 1491.5,-494.78 1491.5,-928.22 1491.5,-928.22"/>
<path fill="none" stroke="#20688c" d="M1491.5,-928.22C1491.5,-901.64 1389.98,-880.06 1265,-880.06 1140.02,-880.06 1038.5,-901.64 1038.5,-928.22"/>
<text text-anchor="start" x="1123" y="-855.8" font-family="Arial" font-size="34.00" fill="#ffffff">Extension Browser</text>
<text text-anchor="start" x="1205.5" y="-821.8" font-family="Arial" font-size="34.00" fill="#ffffff">Storage</text>
<text text-anchor="start" x="1067.5" y="-799.8" font-family="Arial" font-size="19.00" fill="#ffffff">[Container: chrome.storage.local + IndexedDB]</text>
<text text-anchor="start" x="1087.5" y="-762.8" font-family="Arial" font-size="24.00" fill="#ffffff">Browser&#45;side IndexedDB storage</text>
<text text-anchor="start" x="1178.5" y="-738.8" font-family="Arial" font-size="24.00" fill="#ffffff">for transactional</text>
<text text-anchor="start" x="1109.5" y="-714.8" font-family="Arial" font-size="24.00" fill="#ffffff">capture/lifecycle outbox rows</text>
<text text-anchor="start" x="1099.5" y="-690.8" font-family="Arial" font-size="24.00" fill="#ffffff">plus specialized durable media</text>
<text text-anchor="start" x="1201" y="-666.8" font-family="Arial" font-size="24.00" fill="#ffffff">tasks/blobs;</text>
<text text-anchor="start" x="1112.5" y="-642.8" font-family="Arial" font-size="24.00" fill="#ffffff">chrome.storage.local retains</text>
<text text-anchor="start" x="1113" y="-618.8" font-family="Arial" font-size="24.00" fill="#ffffff">typed configuration, lifecycle</text>
<text text-anchor="start" x="1156.5" y="-594.8" font-family="Arial" font-size="24.00" fill="#ffffff">tab state, aggregate</text>
<text text-anchor="start" x="1122" y="-570.8" font-family="Arial" font-size="24.00" fill="#ffffff">telemetry, and one&#45;version</text>
<text text-anchor="start" x="1158.5" y="-546.8" font-family="Arial" font-size="24.00" fill="#ffffff">queue fallback only.</text>
</g>
<!-- 15 -->
<g id="15" class="node">
<title>15</title>
<polygon fill="#438dd5" stroke="#2e6295" points="1496,-1385 1034,-1385 1034,-1048 1496,-1048 1496,-1385"/>
<text text-anchor="start" x="1100.5" y="-1336.8" font-family="Arial" font-size="34.00" fill="#ffffff">WSL Loopback HTTP</text>
<text text-anchor="start" x="1200.5" y="-1302.8" font-family="Arial" font-size="34.00" fill="#ffffff">Daemon</text>
<text text-anchor="start" x="1063" y="-1280.8" font-family="Arial" font-size="19.00" fill="#ffffff">[Container: Python 3.11, ThreadingHTTPServer]</text>
<text text-anchor="start" x="1104" y="-1243.8" font-family="Arial" font-size="24.00" fill="#ffffff">Authenticated loopback HTTP</text>
<text text-anchor="start" x="1129" y="-1219.8" font-family="Arial" font-size="24.00" fill="#ffffff">API that handles capture,</text>
<text text-anchor="start" x="1125.5" y="-1195.8" font-family="Arial" font-size="24.00" fill="#ffffff">visit events, media artifact</text>
<text text-anchor="start" x="1128.5" y="-1171.8" font-family="Arial" font-size="24.00" fill="#ffffff">upload/fetch/purge, exact</text>
<text text-anchor="start" x="1225" y="-1147.8" font-family="Arial" font-size="24.00" fill="#ffffff">search,</text>
<text text-anchor="start" x="1116" y="-1123.8" font-family="Arial" font-size="24.00" fill="#ffffff">recent/timeline/detail, policy</text>
<text text-anchor="start" x="1113.5" y="-1099.8" font-family="Arial" font-size="24.00" fill="#ffffff">rules, doctor, durable forget,</text>
<text text-anchor="start" x="1152" y="-1075.8" font-family="Arial" font-size="24.00" fill="#ffffff">and static UI serving.</text>
</g>
<!-- 40 -->
<g id="40" class="node">
<title>40</title>
<path fill="#2f95c8" stroke="#20688c" d="M2329.5,-957.72C2329.5,-985.94 2240.98,-1008.88 2132,-1008.88 2023.02,-1008.88 1934.5,-985.94 1934.5,-957.72 1934.5,-957.72 1934.5,-497.28 1934.5,-497.28 1934.5,-469.06 2023.02,-446.12 2132,-446.12 2240.98,-446.12 2329.5,-469.06 2329.5,-497.28 2329.5,-497.28 2329.5,-957.72 2329.5,-957.72"/>
<path fill="none" stroke="#20688c" d="M2329.5,-957.72C2329.5,-929.49 2240.98,-906.56 2132,-906.56 2023.02,-906.56 1934.5,-929.49 1934.5,-957.72"/>
<text text-anchor="start" x="2019" y="-883.8" font-family="Arial" font-size="34.00" fill="#ffffff">SQLite + FTS5</text>
<text text-anchor="start" x="2059" y="-849.8" font-family="Arial" font-size="34.00" fill="#ffffff">Database</text>
<text text-anchor="start" x="2006" y="-827.8" font-family="Arial" font-size="19.00" fill="#ffffff">[Container: SQLite with FTS5]</text>
<text text-anchor="start" x="1964" y="-790.8" font-family="Arial" font-size="24.00" fill="#ffffff">Durable complete cleaned&#45;text,</text>
<text text-anchor="start" x="2013" y="-766.8" font-family="Arial" font-size="24.00" fill="#ffffff">relational, and full&#45;text</text>
<text text-anchor="start" x="2014.5" y="-742.8" font-family="Arial" font-size="24.00" fill="#ffffff">authority for migration</text>
<text text-anchor="start" x="1980" y="-718.8" font-family="Arial" font-size="24.00" fill="#ffffff">ledger, sources, documents,</text>
<text text-anchor="start" x="1982.5" y="-694.8" font-family="Arial" font-size="24.00" fill="#ffffff">visits, capture observations,</text>
<text text-anchor="start" x="2001" y="-670.8" font-family="Arial" font-size="24.00" fill="#ffffff">URL claims, visit events,</text>
<text text-anchor="start" x="1963.5" y="-646.8" font-family="Arial" font-size="24.00" fill="#ffffff">snapshots, chunks, chunks_fts,</text>
<text text-anchor="start" x="1971" y="-622.8" font-family="Arial" font-size="24.00" fill="#ffffff">media provenance/tasks, blob</text>
<text text-anchor="start" x="2007.5" y="-598.8" font-family="Arial" font-size="24.00" fill="#ffffff">lifecycle records, policy</text>
<text text-anchor="start" x="2006.5" y="-574.8" font-family="Arial" font-size="24.00" fill="#ffffff">rules, audit events, and</text>
<text text-anchor="start" x="2040" y="-550.8" font-family="Arial" font-size="24.00" fill="#ffffff">deletion receipts.</text>
</g>
<!-- 15&#45;&gt;40 -->
<g id="62" class="edge">
<title>15&#45;&gt;40</title>
<path fill="none" stroke="#444444" stroke-dasharray="5,2" d="M1496.1,-1086.42C1629.67,-1010.91 1796.48,-916.61 1925.6,-843.61"/>
<polygon fill="#444444" stroke="#444444" points="1927.46,-846.59 1934.44,-838.62 1924.01,-840.49 1927.46,-846.59"/>
<polygon fill="white" stroke="transparent" points="1538,-1057.5 1538,-1156.5 1818,-1156.5 1818,-1057.5 1538,-1057.5"/>
<text text-anchor="start" x="1579.5" y="-1133.8" font-family="Arial" font-size="24.00" fill="#444444">6. Updates artifact</text>
<text text-anchor="start" x="1542" y="-1109.8" font-family="Arial" font-size="24.00" fill="#444444">status=stored, hash, byte</text>
<text text-anchor="start" x="1574" y="-1085.8" font-family="Arial" font-size="24.00" fill="#444444">size, and task state</text>
<text text-anchor="start" x="1644.5" y="-1065.8" font-family="Arial" font-size="19.00" fill="#444444">[sqlite3]</text>
</g>
<!-- 42 -->
<g id="42" class="node">
<title>42</title>
<path fill="#2f95c8" stroke="#20688c" d="M2404,-1471.72C2404,-1493.32 2282.09,-1510.88 2132,-1510.88 1981.91,-1510.88 1860,-1493.32 1860,-1471.72 1860,-1471.72 1860,-1119.28 1860,-1119.28 1860,-1097.68 1981.91,-1080.12 2132,-1080.12 2282.09,-1080.12 2404,-1097.68 2404,-1119.28 2404,-1119.28 2404,-1471.72 2404,-1471.72"/>
<path fill="none" stroke="#20688c" d="M2404,-1471.72C2404,-1450.11 2282.09,-1432.56 2132,-1432.56 1981.91,-1432.56 1860,-1450.11 1860,-1471.72"/>
<text text-anchor="start" x="1976.5" y="-1403.8" font-family="Arial" font-size="34.00" fill="#ffffff">Guarded Media Blob</text>
<text text-anchor="start" x="2082.5" y="-1369.8" font-family="Arial" font-size="34.00" fill="#ffffff">Cache</text>
<text text-anchor="start" x="1889" y="-1347.8" font-family="Arial" font-size="19.00" fill="#ffffff">[Container: WSL&#45;visible local or NAS&#45;mounted filesystem]</text>
<text text-anchor="start" x="2022" y="-1310.8" font-family="Arial" font-size="24.00" fill="#ffffff">Bounded disposable</text>
<text text-anchor="start" x="1966.5" y="-1286.8" font-family="Arial" font-size="24.00" fill="#ffffff">image/video/audio bytes under</text>
<text text-anchor="start" x="1990.5" y="-1262.8" font-family="Arial" font-size="24.00" fill="#ffffff">the configured media root;</text>
<text text-anchor="start" x="2018" y="-1238.8" font-family="Arial" font-size="24.00" fill="#ffffff">explicit external roots</text>
<text text-anchor="start" x="2033" y="-1214.8" font-family="Arial" font-size="24.00" fill="#ffffff">require mount and</text>
<text text-anchor="start" x="1982.5" y="-1190.8" font-family="Arial" font-size="24.00" fill="#ffffff">identity&#45;marker proof before</text>
<text text-anchor="start" x="2091" y="-1166.8" font-family="Arial" font-size="24.00" fill="#ffffff">access.</text>
</g>
<!-- 15&#45;&gt;42 -->
<g id="64" class="edge">
<title>15&#45;&gt;42</title>
<path fill="none" stroke="#444444" stroke-dasharray="5,2" d="M1496.1,-1237.51C1604.79,-1247.44 1735.51,-1259.38 1850,-1269.84"/>
<polygon fill="#444444" stroke="#444444" points="1849.69,-1273.32 1859.97,-1270.75 1850.33,-1266.35 1849.69,-1273.32"/>
<polygon fill="white" stroke="transparent" points="1532,-1264.5 1532,-1339.5 1824,-1339.5 1824,-1264.5 1532,-1264.5"/>
<text text-anchor="start" x="1536" y="-1316.8" font-family="Arial" font-size="24.00" fill="#444444">5. Writes blob if MIME and</text>
<text text-anchor="start" x="1581.5" y="-1292.8" font-family="Arial" font-size="24.00" fill="#444444">cache gates allow</text>
<text text-anchor="start" x="1626.5" y="-1272.8" font-family="Arial" font-size="19.00" fill="#444444">[Filesystem]</text>
</g>
<!-- 5 -->
<g id="5" class="node">
<title>5</title>
<polygon fill="#438dd5" stroke="#2e6295" points="467,-788 33,-788 33,-509 467,-509 467,-788"/>
<text text-anchor="start" x="70" y="-739.8" font-family="Arial" font-size="34.00" fill="#ffffff">Chrome MV3 Extension</text>
<text text-anchor="start" x="62" y="-717.8" font-family="Arial" font-size="19.00" fill="#ffffff">[Container: JavaScript, Chrome Manifest V3]</text>
<text text-anchor="start" x="107" y="-680.8" font-family="Arial" font-size="24.00" fill="#ffffff">Captures visible page text,</text>
<text text-anchor="start" x="132.5" y="-656.8" font-family="Arial" font-size="24.00" fill="#ffffff">media references, tab</text>
<text text-anchor="start" x="141" y="-632.8" font-family="Arial" font-size="24.00" fill="#ffffff">lifecycle events, and</text>
<text text-anchor="start" x="84" y="-608.8" font-family="Arial" font-size="24.00" fill="#ffffff">browser&#45;side media bytes from</text>
<text text-anchor="start" x="79" y="-584.8" font-family="Arial" font-size="24.00" fill="#ffffff">Windows Chrome; queues work</text>
<text text-anchor="start" x="91" y="-560.8" font-family="Arial" font-size="24.00" fill="#ffffff">durably and posts to the WSL</text>
<text text-anchor="start" x="202.5" y="-536.8" font-family="Arial" font-size="24.00" fill="#ffffff">daemon.</text>
</g>
<!-- 5&#45;&gt;14 -->
<g id="52" class="edge">
<title>5&#45;&gt;14</title>
<path fill="none" stroke="#444444" stroke-dasharray="5,2" d="M467.06,-606.35C617.27,-584.04 821.43,-567.73 998,-602.5 1008.11,-604.49 1018.32,-606.87 1028.55,-609.56"/>
<polygon fill="#444444" stroke="#444444" points="1027.79,-612.98 1038.36,-612.24 1029.63,-606.23 1027.79,-612.98"/>
<polygon fill="white" stroke="transparent" points="595,-602.5 595,-653.5 906,-653.5 906,-602.5 595,-602.5"/>
<text text-anchor="start" x="617" y="-630.8" font-family="Arial" font-size="24.00" fill="#444444">1. Reads due media task</text>
<text text-anchor="start" x="599.5" y="-610.8" font-family="Arial" font-size="19.00" fill="#444444">[chrome.storage.local + IndexedDB]</text>
</g>
<!-- 5&#45;&gt;14 -->
<g id="52" class="edge">
<title>5&#45;&gt;14</title>
<path fill="none" stroke="#444444" stroke-dasharray="5,2" d="M467.15,-665.04C479.28,-665.9 491.29,-666.72 503,-667.5 678.87,-679.21 877.73,-690.65 1028.05,-698.92"/>
<polygon fill="#444444" stroke="#444444" points="1028.16,-702.44 1038.34,-699.49 1028.54,-695.45 1028.16,-702.44"/>
<polygon fill="white" stroke="transparent" points="595,-696.5 595,-771.5 906,-771.5 906,-696.5 595,-696.5"/>
<text text-anchor="start" x="625" y="-748.8" font-family="Arial" font-size="24.00" fill="#444444">3. Persists fetched blob</text>
<text text-anchor="start" x="634.5" y="-724.8" font-family="Arial" font-size="24.00" fill="#444444">until upload succeeds</text>
<text text-anchor="start" x="599.5" y="-704.8" font-family="Arial" font-size="19.00" fill="#444444">[chrome.storage.local + IndexedDB]</text>
</g>
<!-- 5&#45;&gt;15 -->
<g id="53" class="edge">
<title>5&#45;&gt;15</title>
<path fill="none" stroke="#444444" stroke-dasharray="5,2" d="M467.07,-769.65C630.85,-861.48 855.81,-987.62 1024.96,-1082.47"/>
<polygon fill="#444444" stroke="#444444" points="1023.3,-1085.55 1033.73,-1087.39 1026.72,-1079.44 1023.3,-1085.55"/>
<polygon fill="white" stroke="transparent" points="503,-1063.5 503,-1138.5 998,-1138.5 998,-1063.5 503,-1063.5"/>
<text text-anchor="start" x="646" y="-1115.8" font-family="Arial" font-size="24.00" fill="#444444">4. PUTs raw blob to</text>
<text text-anchor="start" x="620.5" y="-1091.8" font-family="Arial" font-size="24.00" fill="#444444">/media&#45;artifacts/{id}/blob</text>
<text text-anchor="start" x="507.5" y="-1071.8" font-family="Arial" font-size="19.00" fill="#444444">[Bearer HTTP/JSON; raw HTTP PUT over 127.0.0.1:8765]</text>
</g>
<!-- 3 -->
<g id="3" class="node">
<title>3</title>
<polygon fill="#999999" stroke="#6b6b6b" points="1466.5,-321 1063.5,-321 1063.5,-56 1466.5,-56 1466.5,-321"/>
<text text-anchor="start" x="1103.5" y="-272.8" font-family="Arial" font-size="34.00" fill="#ffffff">Web Sites and Media</text>
<text text-anchor="start" x="1211" y="-238.8" font-family="Arial" font-size="34.00" fill="#ffffff">Origins</text>
<text text-anchor="start" x="1188" y="-216.8" font-family="Arial" font-size="19.00" fill="#ffffff">[Software System]</text>
<text text-anchor="start" x="1155" y="-179.8" font-family="Arial" font-size="24.00" fill="#ffffff">External web pages,</text>
<text text-anchor="start" x="1102.5" y="-155.8" font-family="Arial" font-size="24.00" fill="#ffffff">image/video URLs, and media</text>
<text text-anchor="start" x="1092.5" y="-131.8" font-family="Arial" font-size="24.00" fill="#ffffff">CDNs that Chrome loads or that</text>
<text text-anchor="start" x="1102.5" y="-107.8" font-family="Arial" font-size="24.00" fill="#ffffff">sidecars fetch as page&#45;related</text>
<text text-anchor="start" x="1228.5" y="-83.8" font-family="Arial" font-size="24.00" fill="#ffffff">media.</text>
</g>
<!-- 5&#45;&gt;3 -->
<g id="51" class="edge">
<title>5&#45;&gt;3</title>
<path fill="none" stroke="#444444" stroke-dasharray="5,2" d="M464.89,-508.89C477.65,-501.76 490.41,-494.9 503,-488.5 683.08,-396.89 898.04,-314.45 1053.49,-259.28"/>
<polygon fill="#444444" stroke="#444444" points="1054.92,-262.48 1063.18,-255.85 1052.58,-255.88 1054.92,-262.48"/>
<polygon fill="white" stroke="transparent" points="598,-488.5 598,-563.5 903,-563.5 903,-488.5 598,-488.5"/>
<text text-anchor="start" x="602.5" y="-540.8" font-family="Arial" font-size="24.00" fill="#444444">2. Fetches source URL with</text>
<text text-anchor="start" x="617" y="-516.8" font-family="Arial" font-size="24.00" fill="#444444">Chrome cookie envelope</text>
<text text-anchor="start" x="609.5" y="-496.8" font-family="Arial" font-size="19.00" fill="#444444">[DOM; fetch(credentials: include)]</text>
</g>
</g>
</svg>
