<?xml version="1.0" encoding="UTF-8" standalone="no"?>
<!DOCTYPE svg PUBLIC "-//W3C//DTD SVG 1.1//EN"
 "http://www.w3.org/Graphics/SVG/1.1/DTD/svg11.dtd">
<!-- Generated by graphviz version 2.43.0 (0)
 -->
<!-- Title: %3 Pages: 1 -->
<svg width="3897pt" height="2312pt"
 viewBox="0.00 0.00 3897.00 2312.00" xmlns="http://www.w3.org/2000/svg" xmlns:xlink="http://www.w3.org/1999/xlink">
<g id="graph0" class="graph" transform="scale(1 1) rotate(0) translate(4 2308)">
<title>%3</title>
<polygon fill="white" stroke="transparent" points="-4,4 -4,-2308 3893,-2308 3893,4 -4,4"/>
<text text-anchor="start" x="1359.5" y="-11.8" font-family="Arial" font-size="34.00">Component View: Browser Memory Daemon &#45; WSL Loopback HTTP Daemon</text>
<g id="clust1" class="cluster">
<title>cluster_4</title>
<polygon fill="none" stroke="#444444" points="8,-64 8,-2296 3881,-2296 3881,-64 8,-64"/>
<text text-anchor="start" x="1803.5" y="-92.8" font-family="Arial" font-size="24.00" fill="#444444">Browser Memory Daemon</text>
<text text-anchor="start" x="1867.5" y="-72.8" font-family="Arial" font-size="19.00" fill="#444444">[Software System]</text>
</g>
<g id="clust2" class="cluster">
<title>cluster_22</title>
<polygon fill="none" stroke="#444444" points="33,-164 33,-665 3090,-665 3090,-164 33,-164"/>
<text text-anchor="start" x="1396" y="-192.8" font-family="Arial" font-size="24.00" fill="#444444">WSL Loopback HTTP Daemon</text>
<text text-anchor="start" x="1359.5" y="-172.8" font-family="Arial" font-size="19.00" fill="#444444">[Container: Python 3.11, ThreadingHTTPServer]</text>
</g>
<!-- 23 -->
<g id="23" class="node">
<title>23</title>
<polygon fill="#85bbf0" stroke="#1168bd" points="552,-639.5 58,-639.5 58,-264.5 552,-264.5 552,-639.5"/>
<text text-anchor="start" x="136.5" y="-591.3" font-family="Arial" font-size="34.00" fill="#000000">HTTP Request Router</text>
<text text-anchor="start" x="87" y="-569.3" font-family="Arial" font-size="19.00" fill="#000000">[Component: Python http.server + route descriptors]</text>
<text text-anchor="start" x="117.5" y="-532.3" font-family="Arial" font-size="24.00" fill="#000000">Adapts BaseHTTPRequestHandler</text>
<text text-anchor="start" x="154.5" y="-508.3" font-family="Arial" font-size="24.00" fill="#000000">requests through immutable</text>
<text text-anchor="start" x="150" y="-484.3" font-family="Arial" font-size="24.00" fill="#000000">method/path descriptors with</text>
<text text-anchor="start" x="144.5" y="-460.3" font-family="Arial" font-size="24.00" fill="#000000">static precedence; owns auth,</text>
<text text-anchor="start" x="199.5" y="-436.3" font-family="Arial" font-size="24.00" fill="#000000">parsing, compatible</text>
<text text-anchor="start" x="180.5" y="-412.3" font-family="Arial" font-size="24.00" fill="#000000">status/error responses,</text>
<text text-anchor="start" x="144.5" y="-388.3" font-family="Arial" font-size="24.00" fill="#000000">request IDs, common security</text>
<text text-anchor="start" x="177" y="-364.3" font-family="Arial" font-size="24.00" fill="#000000">headers, redaction&#45;safe</text>
<text text-anchor="start" x="148.5" y="-340.3" font-family="Arial" font-size="24.00" fill="#000000">telemetry, bounded response</text>
<text text-anchor="start" x="138" y="-316.3" font-family="Arial" font-size="24.00" fill="#000000">streaming, disconnect cleanup,</text>
<text text-anchor="start" x="157.5" y="-292.3" font-family="Arial" font-size="24.00" fill="#000000">CORS, and finite UI assets.</text>
</g>
<!-- 24 -->
<g id="24" class="node">
<title>24</title>
<polygon fill="#85bbf0" stroke="#1168bd" points="1302,-636.5 901,-636.5 901,-285.5 1302,-285.5 1302,-636.5"/>
<text text-anchor="start" x="930" y="-588.3" font-family="Arial" font-size="34.00" fill="#000000">Application Use Cases</text>
<text text-anchor="start" x="1012.5" y="-566.3" font-family="Arial" font-size="19.00" fill="#000000">[Component: Python]</text>
<text text-anchor="start" x="939.5" y="-529.3" font-family="Arial" font-size="24.00" fill="#000000">Provides request&#45;independent</text>
<text text-anchor="start" x="976.5" y="-505.3" font-family="Arial" font-size="24.00" fill="#000000">capture, lifecycle, read,</text>
<text text-anchor="start" x="966.5" y="-481.3" font-family="Arial" font-size="24.00" fill="#000000">forget, policy, doctor, and</text>
<text text-anchor="start" x="975.5" y="-457.3" font-family="Arial" font-size="24.00" fill="#000000">media use cases; owns</text>
<text text-anchor="start" x="972.5" y="-433.3" font-family="Arial" font-size="24.00" fill="#000000">database&#45;ready checks,</text>
<text text-anchor="start" x="945.5" y="-409.3" font-family="Arial" font-size="24.00" fill="#000000">transaction/audit boundaries,</text>
<text text-anchor="start" x="949" y="-385.3" font-family="Arial" font-size="24.00" fill="#000000">asynchronous media kickoff,</text>
<text text-anchor="start" x="935.5" y="-361.3" font-family="Arial" font-size="24.00" fill="#000000">and upload/download resource</text>
<text text-anchor="start" x="936.5" y="-337.3" font-family="Arial" font-size="24.00" fill="#000000">leases without importing HTTP</text>
<text text-anchor="start" x="957.5" y="-313.3" font-family="Arial" font-size="24.00" fill="#000000">request or response types.</text>
</g>
<!-- 23&#45;&gt;24 -->
<g id="114" class="edge">
<title>23&#45;&gt;24</title>
<path fill="none" stroke="#444444" stroke-dasharray="5,2" d="M552.22,-454.79C660.59,-456.02 786.59,-457.44 890.45,-458.62"/>
<polygon fill="#444444" stroke="#444444" points="890.71,-462.12 900.75,-458.74 890.79,-455.12 890.71,-462.12"/>
<polygon fill="white" stroke="transparent" points="588,-458 588,-544 865,-544 865,-458 588,-458"/>
<text text-anchor="start" x="645" y="-520.8" font-family="Arial" font-size="24.00" fill="#444444">Invokes explicit</text>
<text text-anchor="start" x="592.5" y="-494.8" font-family="Arial" font-size="24.00" fill="#444444">request&#45;independent use</text>
<text text-anchor="start" x="650.5" y="-468.8" font-family="Arial" font-size="24.00" fill="#444444">cases through</text>
</g>
<!-- 43 -->
<g id="43" class="node">
<title>43</title>
<polygon fill="#85bbf0" stroke="#1168bd" points="2050,-639.5 1661,-639.5 1661,-360.5 2050,-360.5 2050,-639.5"/>
<text text-anchor="start" x="1693.5" y="-591.3" font-family="Arial" font-size="34.00" fill="#000000">Ops Doctor and Audit</text>
<text text-anchor="start" x="1727.5" y="-569.3" font-family="Arial" font-size="19.00" fill="#000000">[Component: Python + sqlite3]</text>
<text text-anchor="start" x="1705" y="-532.3" font-family="Arial" font-size="24.00" fill="#000000">Reports health, DB integrity,</text>
<text text-anchor="start" x="1737" y="-508.3" font-family="Arial" font-size="24.00" fill="#000000">FTS consistency, blob</text>
<text text-anchor="start" x="1720" y="-484.3" font-family="Arial" font-size="24.00" fill="#000000">lifecycle/pending deletion</text>
<text text-anchor="start" x="1701.5" y="-460.3" font-family="Arial" font-size="24.00" fill="#000000">state, runtime paths, storage</text>
<text text-anchor="start" x="1703.5" y="-436.3" font-family="Arial" font-size="24.00" fill="#000000">counts, media queue status,</text>
<text text-anchor="start" x="1690" y="-412.3" font-family="Arial" font-size="24.00" fill="#000000">and writes metadata&#45;only audit</text>
<text text-anchor="start" x="1762.5" y="-388.3" font-family="Arial" font-size="24.00" fill="#000000">events to SQLite.</text>
</g>
<!-- 24&#45;&gt;43 -->
<g id="125" class="edge">
<title>24&#45;&gt;43</title>
<path fill="none" stroke="#444444" stroke-dasharray="5,2" d="M1302.05,-471.35C1409.75,-476.93 1542.44,-483.82 1650.77,-489.43"/>
<polygon fill="#444444" stroke="#444444" points="1650.68,-492.93 1660.85,-489.96 1651.04,-485.94 1650.68,-492.93"/>
<polygon fill="white" stroke="transparent" points="1338,-487 1338,-547 1625,-547 1625,-487 1338,-487"/>
<text text-anchor="start" x="1342.5" y="-523.8" font-family="Arial" font-size="24.00" fill="#444444">Executes health and audit</text>
<text text-anchor="start" x="1411.5" y="-497.8" font-family="Arial" font-size="24.00" fill="#444444">work through</text>
</g>
<!-- 40 -->
<g id="40" class="node">
<title>40</title>
<polygon fill="#85bbf0" stroke="#1168bd" points="3065,-577.5 2432,-577.5 2432,-264.5 3065,-264.5 3065,-577.5"/>
<text text-anchor="start" x="2610" y="-529.3" font-family="Arial" font-size="34.00" fill="#000000">Blob Lifecycle and</text>
<text text-anchor="start" x="2604" y="-495.3" font-family="Arial" font-size="34.00" fill="#000000">Storage Reconciler</text>
<text text-anchor="start" x="2567" y="-473.3" font-family="Arial" font-size="19.00" fill="#000000">[Component: Python + sqlite3 + filesystem]</text>
<text text-anchor="start" x="2705.5" y="-436.3" font-family="Arial" font-size="24.00" fill="#000000">Persists</text>
<text text-anchor="start" x="2461" y="-412.3" font-family="Arial" font-size="24.00" fill="#000000">committed/tombstoned/missing/deleted/blocked/failed</text>
<text text-anchor="start" x="2638.5" y="-388.3" font-family="Arial" font-size="24.00" fill="#000000">blob state; serializes</text>
<text text-anchor="start" x="2602.5" y="-364.3" font-family="Arial" font-size="24.00" fill="#000000">deletion processors; retries</text>
<text text-anchor="start" x="2616.5" y="-340.3" font-family="Arial" font-size="24.00" fill="#000000">tombstones; and dry&#45;run</text>
<text text-anchor="start" x="2600" y="-316.3" font-family="Arial" font-size="24.00" fill="#000000">detects missing refs, in&#45;root</text>
<text text-anchor="start" x="2606" y="-292.3" font-family="Arial" font-size="24.00" fill="#000000">orphans, and stale stages.</text>
</g>
<!-- 48 -->
<g id="48" class="node">
<title>48</title>
<path fill="#2f95c8" stroke="#20688c" d="M3856,-857.22C3856,-885.44 3767.48,-908.38 3658.5,-908.38 3549.52,-908.38 3461,-885.44 3461,-857.22 3461,-857.22 3461,-396.78 3461,-396.78 3461,-368.56 3549.52,-345.62 3658.5,-345.62 3767.48,-345.62 3856,-368.56 3856,-396.78 3856,-396.78 3856,-857.22 3856,-857.22"/>
<path fill="none" stroke="#20688c" d="M3856,-857.22C3856,-828.99 3767.48,-806.06 3658.5,-806.06 3549.52,-806.06 3461,-828.99 3461,-857.22"/>
<text text-anchor="start" x="3545.5" y="-783.3" font-family="Arial" font-size="34.00" fill="#ffffff">SQLite + FTS5</text>
<text text-anchor="start" x="3585.5" y="-749.3" font-family="Arial" font-size="34.00" fill="#ffffff">Database</text>
<text text-anchor="start" x="3532.5" y="-727.3" font-family="Arial" font-size="19.00" fill="#ffffff">[Container: SQLite with FTS5]</text>
<text text-anchor="start" x="3490.5" y="-690.3" font-family="Arial" font-size="24.00" fill="#ffffff">Durable complete cleaned&#45;text,</text>
<text text-anchor="start" x="3539.5" y="-666.3" font-family="Arial" font-size="24.00" fill="#ffffff">relational, and full&#45;text</text>
<text text-anchor="start" x="3541" y="-642.3" font-family="Arial" font-size="24.00" fill="#ffffff">authority for migration</text>
<text text-anchor="start" x="3506.5" y="-618.3" font-family="Arial" font-size="24.00" fill="#ffffff">ledger, sources, documents,</text>
<text text-anchor="start" x="3509" y="-594.3" font-family="Arial" font-size="24.00" fill="#ffffff">visits, capture observations,</text>
<text text-anchor="start" x="3527.5" y="-570.3" font-family="Arial" font-size="24.00" fill="#ffffff">URL claims, visit events,</text>
<text text-anchor="start" x="3490" y="-546.3" font-family="Arial" font-size="24.00" fill="#ffffff">snapshots, chunks, chunks_fts,</text>
<text text-anchor="start" x="3497.5" y="-522.3" font-family="Arial" font-size="24.00" fill="#ffffff">media provenance/tasks, blob</text>
<text text-anchor="start" x="3534" y="-498.3" font-family="Arial" font-size="24.00" fill="#ffffff">lifecycle records, policy</text>
<text text-anchor="start" x="3533" y="-474.3" font-family="Arial" font-size="24.00" fill="#ffffff">rules, audit events, and</text>
<text text-anchor="start" x="3566.5" y="-450.3" font-family="Arial" font-size="24.00" fill="#ffffff">deletion receipts.</text>
</g>
<!-- 40&#45;&gt;48 -->
<g id="156" class="edge">
<title>40&#45;&gt;48</title>
<path fill="none" stroke="#444444" stroke-dasharray="5,2" d="M3065.16,-492.62C3193.02,-521.62 3337.07,-554.3 3451.1,-580.17"/>
<polygon fill="#444444" stroke="#444444" points="3450.46,-583.62 3460.99,-582.42 3452.01,-576.79 3450.46,-583.62"/>
<polygon fill="white" stroke="transparent" points="3101,-571 3101,-646 3425,-646 3425,-571 3101,-571"/>
<text text-anchor="start" x="3105" y="-623.3" font-family="Arial" font-size="24.00" fill="#444444">Reads and advances durable</text>
<text text-anchor="start" x="3137" y="-599.3" font-family="Arial" font-size="24.00" fill="#444444">blob lifecycle records in</text>
<text text-anchor="start" x="3229.5" y="-579.3" font-family="Arial" font-size="19.00" fill="#444444">[sqlite3]</text>
</g>
<!-- 43&#45;&gt;40 -->
<g id="162" class="edge">
<title>43&#45;&gt;40</title>
<path fill="none" stroke="#444444" stroke-dasharray="5,2" d="M2050.02,-418.38C2062.07,-415.09 2074.12,-412.25 2086,-410 2194.21,-389.54 2314.16,-385.95 2421.87,-389.46"/>
<polygon fill="#444444" stroke="#444444" points="2421.81,-392.96 2431.92,-389.81 2422.05,-385.97 2421.81,-392.96"/>
<polygon fill="white" stroke="transparent" points="2086,-410 2086,-470 2396,-470 2396,-410 2086,-410"/>
<text text-anchor="start" x="2090" y="-446.8" font-family="Arial" font-size="24.00" fill="#444444">Reads pending deletion and</text>
<text text-anchor="start" x="2134" y="-420.8" font-family="Arial" font-size="24.00" fill="#444444">lifecycle health from</text>
</g>
<!-- 43&#45;&gt;48 -->
<g id="161" class="edge">
<title>43&#45;&gt;48</title>
<path fill="none" stroke="#444444" stroke-dasharray="5,2" d="M2050.31,-544.47C2161.47,-568.44 2303.95,-596.6 2432,-614 2727.45,-654.15 2803.04,-652.88 3101,-664 3244.9,-669.37 3281.45,-675.35 3425,-664 3433.42,-663.33 3441.99,-662.53 3450.65,-661.63"/>
<polygon fill="#444444" stroke="#444444" points="3451.27,-665.08 3460.83,-660.52 3450.51,-658.12 3451.27,-665.08"/>
<polygon fill="white" stroke="transparent" points="2634.5,-663 2634.5,-738 2862.5,-738 2862.5,-663 2634.5,-663"/>
<text text-anchor="start" x="2638.5" y="-715.3" font-family="Arial" font-size="24.00" fill="#444444">Checks integrity and</text>
<text text-anchor="start" x="2700" y="-691.3" font-family="Arial" font-size="24.00" fill="#444444">counts in</text>
<text text-anchor="start" x="2715" y="-671.3" font-family="Arial" font-size="19.00" fill="#444444">[sqlite3]</text>
</g>
<!-- 49 -->
<g id="49" class="node">
<title>49</title>
<path fill="#2f95c8" stroke="#20688c" d="M2946,-1200.22C2946,-1218.51 2857.48,-1233.38 2748.5,-1233.38 2639.52,-1233.38 2551,-1218.51 2551,-1200.22 2551,-1200.22 2551,-901.78 2551,-901.78 2551,-883.49 2639.52,-868.62 2748.5,-868.62 2857.48,-868.62 2946,-883.49 2946,-901.78 2946,-901.78 2946,-1200.22 2946,-1200.22"/>
<path fill="none" stroke="#20688c" d="M2946,-1200.22C2946,-1181.92 2857.48,-1167.06 2748.5,-1167.06 2639.52,-1167.06 2551,-1181.92 2551,-1200.22"/>
<text text-anchor="start" x="2627" y="-1135.3" font-family="Arial" font-size="34.00" fill="#ffffff">Local Derivative</text>
<text text-anchor="start" x="2707.5" y="-1101.3" font-family="Arial" font-size="34.00" fill="#ffffff">Store</text>
<text text-anchor="start" x="2608.5" y="-1079.3" font-family="Arial" font-size="19.00" fill="#ffffff">[Container: WSL local filesystem]</text>
<text text-anchor="start" x="2595" y="-1042.3" font-family="Arial" font-size="24.00" fill="#ffffff">Reconstructible compatibility</text>
<text text-anchor="start" x="2580" y="-1018.3" font-family="Arial" font-size="24.00" fill="#ffffff">evidence such as pre&#45;version&#45;9</text>
<text text-anchor="start" x="2618.5" y="-994.3" font-family="Arial" font-size="24.00" fill="#ffffff">clean&#45;text sidecars; new</text>
<text text-anchor="start" x="2625" y="-970.3" font-family="Arial" font-size="24.00" fill="#ffffff">captures create no text</text>
<text text-anchor="start" x="2700" y="-946.3" font-family="Arial" font-size="24.00" fill="#ffffff">sidecars.</text>
</g>
<!-- 43&#45;&gt;49 -->
<g id="163" class="edge">
<title>43&#45;&gt;49</title>
<path fill="none" stroke="#444444" stroke-dasharray="5,2" d="M1972.66,-639.58C2006.77,-675.46 2045.79,-712.05 2086,-741 2226.48,-842.15 2405.2,-923.56 2541.45,-977.53"/>
<polygon fill="#444444" stroke="#444444" points="2540.19,-980.79 2550.78,-981.21 2542.76,-974.28 2540.19,-980.79"/>
<polygon fill="white" stroke="transparent" points="2112,-908 2112,-959 2370,-959 2370,-908 2112,-908"/>
<text text-anchor="start" x="2116" y="-936.3" font-family="Arial" font-size="24.00" fill="#444444">Counts text blob files in</text>
<text text-anchor="start" x="2189.5" y="-916.3" font-family="Arial" font-size="19.00" fill="#444444">[Filesystem]</text>
</g>
<!-- 50 -->
<g id="50" class="node">
<title>50</title>
<path fill="#2f95c8" stroke="#20688c" d="M3020.5,-1696.22C3020.5,-1717.82 2898.59,-1735.38 2748.5,-1735.38 2598.41,-1735.38 2476.5,-1717.82 2476.5,-1696.22 2476.5,-1696.22 2476.5,-1343.78 2476.5,-1343.78 2476.5,-1322.18 2598.41,-1304.62 2748.5,-1304.62 2898.59,-1304.62 3020.5,-1322.18 3020.5,-1343.78 3020.5,-1343.78 3020.5,-1696.22 3020.5,-1696.22"/>
<path fill="none" stroke="#20688c" d="M3020.5,-1696.22C3020.5,-1674.61 2898.59,-1657.06 2748.5,-1657.06 2598.41,-1657.06 2476.5,-1674.61 2476.5,-1696.22"/>
<text text-anchor="start" x="2593" y="-1628.3" font-family="Arial" font-size="34.00" fill="#ffffff">Guarded Media Blob</text>
<text text-anchor="start" x="2699" y="-1594.3" font-family="Arial" font-size="34.00" fill="#ffffff">Cache</text>
<text text-anchor="start" x="2505.5" y="-1572.3" font-family="Arial" font-size="19.00" fill="#ffffff">[Container: WSL&#45;visible local or NAS&#45;mounted filesystem]</text>
<text text-anchor="start" x="2638.5" y="-1535.3" font-family="Arial" font-size="24.00" fill="#ffffff">Bounded disposable</text>
<text text-anchor="start" x="2583" y="-1511.3" font-family="Arial" font-size="24.00" fill="#ffffff">image/video/audio bytes under</text>
<text text-anchor="start" x="2607" y="-1487.3" font-family="Arial" font-size="24.00" fill="#ffffff">the configured media root;</text>
<text text-anchor="start" x="2634.5" y="-1463.3" font-family="Arial" font-size="24.00" fill="#ffffff">explicit external roots</text>
<text text-anchor="start" x="2649.5" y="-1439.3" font-family="Arial" font-size="24.00" fill="#ffffff">require mount and</text>
<text text-anchor="start" x="2599" y="-1415.3" font-family="Arial" font-size="24.00" fill="#ffffff">identity&#45;marker proof before</text>
<text text-anchor="start" x="2707.5" y="-1391.3" font-family="Arial" font-size="24.00" fill="#ffffff">access.</text>
</g>
<!-- 43&#45;&gt;50 -->
<g id="164" class="edge">
<title>43&#45;&gt;50</title>
<path fill="none" stroke="#444444" stroke-dasharray="5,2" d="M1905.58,-639.75C1944.86,-739.79 2006.5,-874.38 2086,-977 2192.4,-1114.34 2339.6,-1239.5 2468.14,-1334.95"/>
<polygon fill="#444444" stroke="#444444" points="2466.07,-1337.77 2476.19,-1340.91 2470.23,-1332.15 2466.07,-1337.77"/>
<polygon fill="white" stroke="transparent" points="2098.5,-1270 2098.5,-1321 2383.5,-1321 2383.5,-1270 2098.5,-1270"/>
<text text-anchor="start" x="2103" y="-1298.3" font-family="Arial" font-size="24.00" fill="#444444">Counts media blob files in</text>
<text text-anchor="start" x="2190" y="-1278.3" font-family="Arial" font-size="19.00" fill="#444444">[Filesystem]</text>
</g>
<!-- 51 -->
<g id="51" class="node">
<title>51</title>
<path fill="#2f95c8" stroke="#20688c" d="M2941.5,-2228.72C2941.5,-2251.98 2854.99,-2270.88 2748.5,-2270.88 2642.01,-2270.88 2555.5,-2251.98 2555.5,-2228.72 2555.5,-2228.72 2555.5,-1849.28 2555.5,-1849.28 2555.5,-1826.02 2642.01,-1807.12 2748.5,-1807.12 2854.99,-1807.12 2941.5,-1826.02 2941.5,-1849.28 2941.5,-1849.28 2941.5,-2228.72 2941.5,-2228.72"/>
<path fill="none" stroke="#20688c" d="M2941.5,-2228.72C2941.5,-2205.45 2854.99,-2186.56 2748.5,-2186.56 2642.01,-2186.56 2555.5,-2205.45 2555.5,-2228.72"/>
<text text-anchor="start" x="2584.5" y="-2159.3" font-family="Arial" font-size="34.00" fill="#ffffff">Bounded Local Media</text>
<text text-anchor="start" x="2705" y="-2125.3" font-family="Arial" font-size="34.00" fill="#ffffff">Spool</text>
<text text-anchor="start" x="2608.5" y="-2103.3" font-family="Arial" font-size="19.00" fill="#ffffff">[Container: WSL local filesystem]</text>
<text text-anchor="start" x="2596.5" y="-2066.3" font-family="Arial" font-size="24.00" fill="#ffffff">Opt&#45;in durable outage buffer</text>
<text text-anchor="start" x="2600" y="-2042.3" font-family="Arial" font-size="24.00" fill="#ffffff">beneath the local WSL data</text>
<text text-anchor="start" x="2627" y="-2018.3" font-family="Arial" font-size="24.00" fill="#ffffff">root; admission counts</text>
<text text-anchor="start" x="2603" y="-1994.3" font-family="Arial" font-size="24.00" fill="#ffffff">committed files and distinct</text>
<text text-anchor="start" x="2596.5" y="-1970.3" font-family="Arial" font-size="24.00" fill="#ffffff">in&#45;flight SQLite reservations,</text>
<text text-anchor="start" x="2623.5" y="-1946.3" font-family="Arial" font-size="24.00" fill="#ffffff">and drain verifies bytes</text>
<text text-anchor="start" x="2601" y="-1922.3" font-family="Arial" font-size="24.00" fill="#ffffff">before tier transition/source</text>
<text text-anchor="start" x="2702.5" y="-1898.3" font-family="Arial" font-size="24.00" fill="#ffffff">cleanup.</text>
</g>
<!-- 43&#45;&gt;51 -->
<g id="165" class="edge">
<title>43&#45;&gt;51</title>
<path fill="none" stroke="#444444" stroke-dasharray="5,2" d="M1876.77,-639.59C1905.67,-811.42 1968.7,-1108.74 2086,-1339 2196.73,-1556.36 2396.08,-1753.32 2547.09,-1882.53"/>
<polygon fill="#444444" stroke="#444444" points="2545.27,-1885.58 2555.15,-1889.4 2549.81,-1880.25 2545.27,-1885.58"/>
<polygon fill="white" stroke="transparent" points="2096,-1732 2096,-1831 2386,-1831 2386,-1732 2096,-1732"/>
<text text-anchor="start" x="2105.5" y="-1808.3" font-family="Arial" font-size="24.00" fill="#444444">Reports filesystem bytes,</text>
<text text-anchor="start" x="2100" y="-1784.3" font-family="Arial" font-size="24.00" fill="#444444">reservations, and capacity</text>
<text text-anchor="start" x="2226.5" y="-1760.3" font-family="Arial" font-size="24.00" fill="#444444">for</text>
<text text-anchor="start" x="2189.5" y="-1740.3" font-family="Arial" font-size="19.00" fill="#444444">[Filesystem]</text>
</g>
</g>
</svg>
