<?xml version="1.0" encoding="UTF-8" standalone="no"?>
<!DOCTYPE svg PUBLIC "-//W3C//DTD SVG 1.1//EN"
 "http://www.w3.org/Graphics/SVG/1.1/DTD/svg11.dtd">
<!-- Generated by graphviz version 2.43.0 (0)
 -->
<!-- Title: %3 Pages: 1 -->
<svg width="1186pt" height="1320pt"
 viewBox="0.00 0.00 1186.00 1320.00" xmlns="http://www.w3.org/2000/svg" xmlns:xlink="http://www.w3.org/1999/xlink">
<g id="graph0" class="graph" transform="scale(1 1) rotate(0) translate(4 1316)">
<title>%3</title>
<polygon fill="white" stroke="transparent" points="-4,4 -4,-1316 1182,-1316 1182,4 -4,4"/>
<text text-anchor="start" x="237.5" y="-11.8" font-family="Arial" font-size="34.00">Browser Memory Daemon &#45; CLI &#45; Components</text>
<g id="clust1" class="cluster">
<title>cluster_47</title>
<polygon fill="none" stroke="#444444" points="8,-424.81 8,-887.81 462,-887.81 462,-424.81 8,-424.81"/>
<text text-anchor="start" x="216" y="-453.61" font-family="Arial" font-size="24.00" fill="#444444">CLI</text>
<text text-anchor="start" x="114" y="-433.61" font-family="Arial" font-size="19.00" fill="#444444">[Container: Python argparse]</text>
</g>
<!-- 49 -->
<g id="49" class="node">
<title>49</title>
<path fill="#2f95c8" stroke="#20688c" d="M1165.5,-1279.03C1165.5,-1297.33 1082.58,-1312.19 980.5,-1312.19 878.42,-1312.19 795.5,-1297.33 795.5,-1279.03 795.5,-1279.03 795.5,-980.6 795.5,-980.6 795.5,-962.3 878.42,-947.44 980.5,-947.44 1082.58,-947.44 1165.5,-962.3 1165.5,-980.6 1165.5,-980.6 1165.5,-1279.03 1165.5,-1279.03"/>
<path fill="none" stroke="#20688c" d="M1165.5,-1279.03C1165.5,-1260.73 1082.58,-1245.87 980.5,-1245.87 878.42,-1245.87 795.5,-1260.73 795.5,-1279.03"/>
<text text-anchor="start" x="867.5" y="-1214.11" font-family="Arial" font-size="34.00" fill="#ffffff">SQLite + FTS5</text>
<text text-anchor="start" x="907.5" y="-1180.11" font-family="Arial" font-size="34.00" fill="#ffffff">Database</text>
<text text-anchor="start" x="854.5" y="-1158.11" font-family="Arial" font-size="19.00" fill="#ffffff">[Container: SQLite with FTS5]</text>
<text text-anchor="start" x="861" y="-1121.11" font-family="Arial" font-size="24.00" fill="#ffffff">Durable text/metadata</text>
<text text-anchor="start" x="829.5" y="-1097.11" font-family="Arial" font-size="24.00" fill="#ffffff">authority including migration</text>
<text text-anchor="start" x="824.5" y="-1073.11" font-family="Arial" font-size="24.00" fill="#ffffff">ledger, capture observations,</text>
<text text-anchor="start" x="834.5" y="-1049.11" font-family="Arial" font-size="24.00" fill="#ffffff">and immutable observation</text>
<text text-anchor="start" x="882.5" y="-1025.11" font-family="Arial" font-size="24.00" fill="#ffffff">ingest sequences.</text>
</g>
<!-- 50 -->
<g id="50" class="node">
<title>50</title>
<path fill="#2f95c8" stroke="#20688c" d="M1178,-843.03C1178,-861.33 1089.48,-876.19 980.5,-876.19 871.52,-876.19 783,-861.33 783,-843.03 783,-843.03 783,-544.6 783,-544.6 783,-526.3 871.52,-511.44 980.5,-511.44 1089.48,-511.44 1178,-526.3 1178,-544.6 1178,-544.6 1178,-843.03 1178,-843.03"/>
<path fill="none" stroke="#20688c" d="M1178,-843.03C1178,-824.73 1089.48,-809.87 980.5,-809.87 871.52,-809.87 783,-824.73 783,-843.03"/>
<text text-anchor="start" x="859" y="-778.11" font-family="Arial" font-size="34.00" fill="#ffffff">Local Derivative</text>
<text text-anchor="start" x="939.5" y="-744.11" font-family="Arial" font-size="34.00" fill="#ffffff">Store</text>
<text text-anchor="start" x="840.5" y="-722.11" font-family="Arial" font-size="19.00" fill="#ffffff">[Container: WSL local filesystem]</text>
<text text-anchor="start" x="827" y="-685.11" font-family="Arial" font-size="24.00" fill="#ffffff">Reconstructible compatibility</text>
<text text-anchor="start" x="812" y="-661.11" font-family="Arial" font-size="24.00" fill="#ffffff">evidence such as pre&#45;version&#45;9</text>
<text text-anchor="start" x="850.5" y="-637.11" font-family="Arial" font-size="24.00" fill="#ffffff">clean&#45;text sidecars; new</text>
<text text-anchor="start" x="857" y="-613.11" font-family="Arial" font-size="24.00" fill="#ffffff">captures create no text</text>
<text text-anchor="start" x="932" y="-589.11" font-family="Arial" font-size="24.00" fill="#ffffff">sidecars.</text>
</g>
<!-- 53 -->
<g id="53" class="node">
<title>53</title>
<path fill="#2f95c8" stroke="#20688c" d="M1178,-404.6C1178,-423.82 1089.48,-439.44 980.5,-439.44 871.52,-439.44 783,-423.82 783,-404.6 783,-404.6 783,-91.03 783,-91.03 783,-71.8 871.52,-56.19 980.5,-56.19 1089.48,-56.19 1178,-71.8 1178,-91.03 1178,-91.03 1178,-404.6 1178,-404.6"/>
<path fill="none" stroke="#20688c" d="M1178,-404.6C1178,-385.37 1089.48,-369.76 980.5,-369.76 871.52,-369.76 783,-385.37 783,-404.6"/>
<text text-anchor="start" x="812" y="-339.11" font-family="Arial" font-size="34.00" fill="#ffffff">Local Backup Bundles</text>
<text text-anchor="start" x="860.5" y="-317.11" font-family="Arial" font-size="19.00" fill="#ffffff">[Container: Local filesystem]</text>
<text text-anchor="start" x="855" y="-280.11" font-family="Arial" font-size="24.00" fill="#ffffff">Operator&#45;selected local</text>
<text text-anchor="start" x="849" y="-256.11" font-family="Arial" font-size="24.00" fill="#ffffff">directories containing an</text>
<text text-anchor="start" x="852" y="-232.11" font-family="Arial" font-size="24.00" fill="#ffffff">online SQLite snapshot,</text>
<text text-anchor="start" x="821" y="-208.11" font-family="Arial" font-size="24.00" fill="#ffffff">redaction&#45;safe hash manifest,</text>
<text text-anchor="start" x="852.5" y="-184.11" font-family="Arial" font-size="24.00" fill="#ffffff">and optional referenced</text>
<text text-anchor="start" x="820" y="-160.11" font-family="Arial" font-size="24.00" fill="#ffffff">derivatives; media, spool, and</text>
<text text-anchor="start" x="830" y="-136.11" font-family="Arial" font-size="24.00" fill="#ffffff">secrets excluded by default.</text>
</g>
<!-- 48 -->
<g id="48" class="node">
<title>48</title>
<polygon fill="#85bbf0" stroke="#1168bd" points="437,-862.31 33,-862.31 33,-525.31 437,-525.31 437,-862.31"/>
<text text-anchor="start" x="80.5" y="-814.11" font-family="Arial" font-size="34.00" fill="#000000">Backup and Restore</text>
<text text-anchor="start" x="168" y="-780.11" font-family="Arial" font-size="34.00" fill="#000000">Operator</text>
<text text-anchor="start" x="62" y="-758.11" font-family="Arial" font-size="19.00" fill="#000000">[Component: Python sqlite3 + filesystem]</text>
<text text-anchor="start" x="86.5" y="-721.11" font-family="Arial" font-size="24.00" fill="#000000">Creates dry&#45;run&#45;first SQLite</text>
<text text-anchor="start" x="89.5" y="-697.11" font-family="Arial" font-size="24.00" fill="#000000">online backup bundles with</text>
<text text-anchor="start" x="105.5" y="-673.11" font-family="Arial" font-size="24.00" fill="#000000">redaction&#45;safe SHA&#45;256</text>
<text text-anchor="start" x="87.5" y="-649.11" font-family="Arial" font-size="24.00" fill="#000000">manifests and verifies them</text>
<text text-anchor="start" x="98" y="-625.11" font-family="Arial" font-size="24.00" fill="#000000">into absent runtime roots;</text>
<text text-anchor="start" x="82.5" y="-601.11" font-family="Arial" font-size="24.00" fill="#000000">optionally carries referenced</text>
<text text-anchor="start" x="102.5" y="-577.11" font-family="Arial" font-size="24.00" fill="#000000">derivatives and excludes</text>
<text text-anchor="start" x="123.5" y="-553.11" font-family="Arial" font-size="24.00" fill="#000000">media/spool/secrets.</text>
</g>
<!-- 48&#45;&gt;49 -->
<g id="171" class="edge">
<title>48&#45;&gt;49</title>
<path fill="none" stroke="#707070" stroke-dasharray="5,2" d="M437.2,-811.8C545.86,-875.52 679.34,-953.79 786.68,-1016.74"/>
<polygon fill="#707070" stroke="#707070" points="784.94,-1019.78 795.34,-1021.82 788.48,-1013.74 784.94,-1019.78"/>
<polygon fill="white" stroke="transparent" points="475,-987.81 475,-1086.81 745,-1086.81 745,-987.81 475,-987.81"/>
<text text-anchor="start" x="492.5" y="-1064.11" font-family="Arial" font-size="24.00" fill="#707070">Creates and validates</text>
<text text-anchor="start" x="479" y="-1040.11" font-family="Arial" font-size="24.00" fill="#707070">online SQLite snapshots</text>
<text text-anchor="start" x="585.5" y="-1016.11" font-family="Arial" font-size="24.00" fill="#707070">from</text>
<text text-anchor="start" x="525.5" y="-996.11" font-family="Arial" font-size="19.00" fill="#707070">[sqlite3 backup API]</text>
</g>
<!-- 48&#45;&gt;50 -->
<g id="172" class="edge">
<title>48&#45;&gt;50</title>
<path fill="none" stroke="#707070" stroke-dasharray="5,2" d="M437.2,-693.81C541.25,-693.81 668.06,-693.81 772.89,-693.81"/>
<polygon fill="#707070" stroke="#707070" points="772.96,-697.31 782.96,-693.81 772.96,-690.31 772.96,-697.31"/>
<polygon fill="white" stroke="transparent" points="491.5,-693.81 491.5,-792.81 728.5,-792.81 728.5,-693.81 491.5,-693.81"/>
<text text-anchor="start" x="518.5" y="-770.11" font-family="Arial" font-size="24.00" fill="#707070">Optionally copies</text>
<text text-anchor="start" x="496" y="-746.11" font-family="Arial" font-size="24.00" fill="#707070">referenced contained</text>
<text text-anchor="start" x="524.5" y="-722.11" font-family="Arial" font-size="24.00" fill="#707070">derivatives from</text>
<text text-anchor="start" x="559" y="-702.11" font-family="Arial" font-size="19.00" fill="#707070">[Filesystem]</text>
</g>
<!-- 48&#45;&gt;53 -->
<g id="174" class="edge">
<title>48&#45;&gt;53</title>
<path fill="none" stroke="#707070" stroke-dasharray="5,2" d="M437.2,-573.12C541.67,-510.45 669.09,-434.02 774.15,-370.99"/>
<polygon fill="#707070" stroke="#707070" points="776.19,-373.86 782.96,-365.71 772.58,-367.85 776.19,-373.86"/>
<polygon fill="white" stroke="transparent" points="473,-548.81 473,-647.81 747,-647.81 747,-548.81 473,-548.81"/>
<text text-anchor="start" x="477" y="-625.11" font-family="Arial" font-size="24.00" fill="#707070">Atomically publishes and</text>
<text text-anchor="start" x="491.5" y="-601.11" font-family="Arial" font-size="24.00" fill="#707070">verifies manifests/files</text>
<text text-anchor="start" x="600.5" y="-577.11" font-family="Arial" font-size="24.00" fill="#707070">in</text>
<text text-anchor="start" x="509.5" y="-557.11" font-family="Arial" font-size="19.00" fill="#707070">[Filesystem + SHA&#45;256]</text>
</g>
</g>
</svg>
