<?xml version="1.0" encoding="UTF-8" standalone="no"?>
<!DOCTYPE svg PUBLIC "-//W3C//DTD SVG 1.1//EN"
 "http://www.w3.org/Graphics/SVG/1.1/DTD/svg11.dtd">
<!-- Generated by graphviz version 2.43.0 (0)
 -->
<!-- Title: %3 Pages: 1 -->
<svg width="4005pt" height="1607pt"
 viewBox="0.00 0.00 4005.00 1607.00" xmlns="http://www.w3.org/2000/svg" xmlns:xlink="http://www.w3.org/1999/xlink">
<g id="graph0" class="graph" transform="scale(1 1) rotate(0) translate(4 1603)">
<title>%3</title>
<polygon fill="white" stroke="transparent" points="-4,4 -4,-1603 4001,-1603 4001,4 -4,4"/>
<text text-anchor="start" x="1413.5" y="-11.8" font-family="Arial" font-size="34.00">Component View: Browser Memory Daemon &#45; WSL Loopback HTTP Daemon</text>
<g id="clust1" class="cluster">
<title>cluster_4</title>
<polygon fill="none" stroke="#444444" points="8,-64 8,-1591 3989,-1591 3989,-64 8,-64"/>
<text text-anchor="start" x="1857.5" y="-92.8" font-family="Arial" font-size="24.00" fill="#444444">Browser Memory Daemon</text>
<text text-anchor="start" x="1921.5" y="-72.8" font-family="Arial" font-size="19.00" fill="#444444">[Software System]</text>
</g>
<g id="clust2" class="cluster">
<title>cluster_22</title>
<polygon fill="none" stroke="#444444" points="33,-455 33,-979 3083,-979 3083,-455 33,-455"/>
<text text-anchor="start" x="1392.5" y="-483.8" font-family="Arial" font-size="24.00" fill="#444444">WSL Loopback HTTP Daemon</text>
<text text-anchor="start" x="1356" y="-463.8" font-family="Arial" font-size="19.00" fill="#444444">[Container: Python 3.11, ThreadingHTTPServer]</text>
</g>
<!-- 23 -->
<g id="23" class="node">
<title>23</title>
<polygon fill="#85bbf0" stroke="#1168bd" points="552,-954.5 58,-954.5 58,-555.5 552,-555.5 552,-954.5"/>
<text text-anchor="start" x="136.5" y="-906.3" font-family="Arial" font-size="34.00" fill="#000000">HTTP Request Router</text>
<text text-anchor="start" x="87" y="-884.3" font-family="Arial" font-size="19.00" fill="#000000">[Component: Python http.server + route descriptors]</text>
<text text-anchor="start" x="129" y="-847.3" font-family="Arial" font-size="24.00" fill="#000000">Matches immutable method/path</text>
<text text-anchor="start" x="189" y="-823.3" font-family="Arial" font-size="24.00" fill="#000000">descriptors with static</text>
<text text-anchor="start" x="172" y="-799.3" font-family="Arial" font-size="24.00" fill="#000000">precedence, maps typed</text>
<text text-anchor="start" x="166" y="-775.3" font-family="Arial" font-size="24.00" fill="#000000">compatible errors, applies</text>
<text text-anchor="start" x="125.5" y="-751.3" font-family="Arial" font-size="24.00" fill="#000000">opaque request IDs and common</text>
<text text-anchor="start" x="180" y="-727.3" font-family="Arial" font-size="24.00" fill="#000000">security headers, emits</text>
<text text-anchor="start" x="228" y="-703.3" font-family="Arial" font-size="24.00" fill="#000000">redaction&#45;safe</text>
<text text-anchor="start" x="199.5" y="-679.3" font-family="Arial" font-size="24.00" fill="#000000">route/status/latency</text>
<text text-anchor="start" x="156" y="-655.3" font-family="Arial" font-size="24.00" fill="#000000">telemetry, serves UI assets,</text>
<text text-anchor="start" x="175" y="-631.3" font-family="Arial" font-size="24.00" fill="#000000">enforces bearer auth for</text>
<text text-anchor="start" x="128" y="-607.3" font-family="Arial" font-size="24.00" fill="#000000">memory/admin APIs, and applies</text>
<text text-anchor="start" x="166" y="-583.3" font-family="Arial" font-size="24.00" fill="#000000">CORS for allowed origins.</text>
</g>
<!-- 41 -->
<g id="41" class="node">
<title>41</title>
<polygon fill="#85bbf0" stroke="#1168bd" points="1286,-919.5 905,-919.5 905,-664.5 1286,-664.5 1286,-919.5"/>
<text text-anchor="start" x="981" y="-871.3" font-family="Arial" font-size="34.00" fill="#000000">Forget Pipeline</text>
<text text-anchor="start" x="967.5" y="-849.3" font-family="Arial" font-size="19.00" fill="#000000">[Component: Python + sqlite3]</text>
<text text-anchor="start" x="934" y="-812.3" font-family="Arial" font-size="24.00" fill="#000000">Commits URL/domain&#45;scoped</text>
<text text-anchor="start" x="939" y="-788.3" font-family="Arial" font-size="24.00" fill="#000000">relational deletion, minimized</text>
<text text-anchor="start" x="939.5" y="-764.3" font-family="Arial" font-size="24.00" fill="#000000">receipt, and blob tombstones</text>
<text text-anchor="start" x="955" y="-740.3" font-family="Arial" font-size="24.00" fill="#000000">in one transaction; reports</text>
<text text-anchor="start" x="945" y="-716.3" font-family="Arial" font-size="24.00" fill="#000000">complete only after required</text>
<text text-anchor="start" x="1009.5" y="-692.3" font-family="Arial" font-size="24.00" fill="#000000">bytes converge.</text>
</g>
<!-- 23&#45;&gt;41 -->
<g id="121" class="edge">
<title>23&#45;&gt;41</title>
<path fill="none" stroke="#444444" stroke-dasharray="5,2" d="M552.24,-766.55C662.45,-771.73 790.7,-777.74 894.8,-782.63"/>
<polygon fill="#444444" stroke="#444444" points="894.64,-786.13 904.79,-783.1 894.97,-779.13 894.64,-786.13"/>
<polygon fill="white" stroke="transparent" points="588,-781 588,-815 869,-815 869,-781 588,-781"/>
<text text-anchor="start" x="592.5" y="-791.8" font-family="Arial" font-size="24.00" fill="#444444">Routes forget requests to</text>
</g>
<!-- 38 -->
<g id="38" class="node">
<title>38</title>
<polygon fill="#85bbf0" stroke="#1168bd" points="3058,-931.5 2647,-931.5 2647,-628.5 3058,-628.5 3058,-931.5"/>
<text text-anchor="start" x="2696" y="-883.3" font-family="Arial" font-size="34.00" fill="#000000">Contained BlobStore</text>
<text text-anchor="start" x="2676" y="-861.3" font-family="Arial" font-size="19.00" fill="#000000">[Component: Python filesystem boundary]</text>
<text text-anchor="start" x="2700" y="-824.3" font-family="Arial" font-size="24.00" fill="#000000">Prefers root&#45;relative locators</text>
<text text-anchor="start" x="2736.5" y="-800.3" font-family="Arial" font-size="24.00" fill="#000000">with contained legacy</text>
<text text-anchor="start" x="2721.5" y="-776.3" font-family="Arial" font-size="24.00" fill="#000000">fallback; streams unique</text>
<text text-anchor="start" x="2737.5" y="-752.3" font-family="Arial" font-size="24.00" fill="#000000">stages with size/hash</text>
<text text-anchor="start" x="2733.5" y="-728.3" font-family="Arial" font-size="24.00" fill="#000000">accounting; atomically</text>
<text text-anchor="start" x="2705.5" y="-704.3" font-family="Arial" font-size="24.00" fill="#000000">commits; and contains blob</text>
<text text-anchor="start" x="2738" y="-680.3" font-family="Arial" font-size="24.00" fill="#000000">read, stat, and delete</text>
<text text-anchor="start" x="2792" y="-656.3" font-family="Arial" font-size="24.00" fill="#000000">operations.</text>
</g>
<!-- 48 -->
<g id="48" class="node">
<title>48</title>
<path fill="#2f95c8" stroke="#20688c" d="M3889.5,-495.22C3889.5,-513.51 3800.98,-528.38 3692,-528.38 3583.02,-528.38 3494.5,-513.51 3494.5,-495.22 3494.5,-495.22 3494.5,-196.78 3494.5,-196.78 3494.5,-178.49 3583.02,-163.62 3692,-163.62 3800.98,-163.62 3889.5,-178.49 3889.5,-196.78 3889.5,-196.78 3889.5,-495.22 3889.5,-495.22"/>
<path fill="none" stroke="#20688c" d="M3889.5,-495.22C3889.5,-476.92 3800.98,-462.06 3692,-462.06 3583.02,-462.06 3494.5,-476.92 3494.5,-495.22"/>
<text text-anchor="start" x="3570.5" y="-430.3" font-family="Arial" font-size="34.00" fill="#ffffff">Local Derivative</text>
<text text-anchor="start" x="3651" y="-396.3" font-family="Arial" font-size="34.00" fill="#ffffff">Store</text>
<text text-anchor="start" x="3552" y="-374.3" font-family="Arial" font-size="19.00" fill="#ffffff">[Container: WSL local filesystem]</text>
<text text-anchor="start" x="3538.5" y="-337.3" font-family="Arial" font-size="24.00" fill="#ffffff">Reconstructible compatibility</text>
<text text-anchor="start" x="3523.5" y="-313.3" font-family="Arial" font-size="24.00" fill="#ffffff">evidence such as pre&#45;version&#45;9</text>
<text text-anchor="start" x="3562" y="-289.3" font-family="Arial" font-size="24.00" fill="#ffffff">clean&#45;text sidecars; new</text>
<text text-anchor="start" x="3568.5" y="-265.3" font-family="Arial" font-size="24.00" fill="#ffffff">captures create no text</text>
<text text-anchor="start" x="3643.5" y="-241.3" font-family="Arial" font-size="24.00" fill="#ffffff">sidecars.</text>
</g>
<!-- 38&#45;&gt;48 -->
<g id="155" class="edge">
<title>38&#45;&gt;48</title>
<path fill="none" stroke="#444444" stroke-dasharray="5,2" d="M3058.11,-673.97C3187.93,-606.7 3355.32,-519.95 3485.34,-452.57"/>
<polygon fill="#444444" stroke="#444444" points="3486.97,-455.67 3494.24,-447.96 3483.75,-449.45 3486.97,-455.67"/>
<polygon fill="white" stroke="transparent" points="3103,-651 3103,-750 3375,-750 3375,-651 3103,-651"/>
<text text-anchor="start" x="3107" y="-727.3" font-family="Arial" font-size="24.00" fill="#444444">Reads, stats, reconciles,</text>
<text text-anchor="start" x="3115" y="-703.3" font-family="Arial" font-size="24.00" fill="#444444">and deletes legacy text</text>
<text text-anchor="start" x="3181" y="-679.3" font-family="Arial" font-size="24.00" fill="#444444">sidecars in</text>
<text text-anchor="start" x="3187.5" y="-659.3" font-family="Arial" font-size="19.00" fill="#444444">[Filesystem]</text>
</g>
<!-- 49 -->
<g id="49" class="node">
<title>49</title>
<path fill="#2f95c8" stroke="#20688c" d="M3964,-991.22C3964,-1012.82 3842.09,-1030.38 3692,-1030.38 3541.91,-1030.38 3420,-1012.82 3420,-991.22 3420,-991.22 3420,-638.78 3420,-638.78 3420,-617.18 3541.91,-599.62 3692,-599.62 3842.09,-599.62 3964,-617.18 3964,-638.78 3964,-638.78 3964,-991.22 3964,-991.22"/>
<path fill="none" stroke="#20688c" d="M3964,-991.22C3964,-969.61 3842.09,-952.06 3692,-952.06 3541.91,-952.06 3420,-969.61 3420,-991.22"/>
<text text-anchor="start" x="3536.5" y="-923.3" font-family="Arial" font-size="34.00" fill="#ffffff">Guarded Media Blob</text>
<text text-anchor="start" x="3642.5" y="-889.3" font-family="Arial" font-size="34.00" fill="#ffffff">Cache</text>
<text text-anchor="start" x="3449" y="-867.3" font-family="Arial" font-size="19.00" fill="#ffffff">[Container: WSL&#45;visible local or NAS&#45;mounted filesystem]</text>
<text text-anchor="start" x="3582" y="-830.3" font-family="Arial" font-size="24.00" fill="#ffffff">Bounded disposable</text>
<text text-anchor="start" x="3526.5" y="-806.3" font-family="Arial" font-size="24.00" fill="#ffffff">image/video/audio bytes under</text>
<text text-anchor="start" x="3550.5" y="-782.3" font-family="Arial" font-size="24.00" fill="#ffffff">the configured media root;</text>
<text text-anchor="start" x="3578" y="-758.3" font-family="Arial" font-size="24.00" fill="#ffffff">explicit external roots</text>
<text text-anchor="start" x="3593" y="-734.3" font-family="Arial" font-size="24.00" fill="#ffffff">require mount and</text>
<text text-anchor="start" x="3542.5" y="-710.3" font-family="Arial" font-size="24.00" fill="#ffffff">identity&#45;marker proof before</text>
<text text-anchor="start" x="3651" y="-686.3" font-family="Arial" font-size="24.00" fill="#ffffff">access.</text>
</g>
<!-- 38&#45;&gt;49 -->
<g id="156" class="edge">
<title>38&#45;&gt;49</title>
<path fill="none" stroke="#444444" stroke-dasharray="5,2" d="M3058.11,-788.55C3163.86,-792.97 3294.54,-798.43 3409.64,-803.24"/>
<polygon fill="#444444" stroke="#444444" points="3409.53,-806.74 3419.67,-803.66 3409.82,-799.75 3409.53,-806.74"/>
<polygon fill="white" stroke="transparent" points="3103.5,-801 3103.5,-900 3374.5,-900 3374.5,-801 3103.5,-801"/>
<text text-anchor="start" x="3109.5" y="-877.3" font-family="Arial" font-size="24.00" fill="#444444">Stages, commits, reads,</text>
<text text-anchor="start" x="3108" y="-853.3" font-family="Arial" font-size="24.00" fill="#444444">stats, and deletes media</text>
<text text-anchor="start" x="3197.5" y="-829.3" font-family="Arial" font-size="24.00" fill="#444444">blobs in</text>
<text text-anchor="start" x="3188" y="-809.3" font-family="Arial" font-size="19.00" fill="#444444">[Filesystem]</text>
</g>
<!-- 50 -->
<g id="50" class="node">
<title>50</title>
<path fill="#2f95c8" stroke="#20688c" d="M3885,-1523.72C3885,-1546.98 3798.49,-1565.88 3692,-1565.88 3585.51,-1565.88 3499,-1546.98 3499,-1523.72 3499,-1523.72 3499,-1144.28 3499,-1144.28 3499,-1121.02 3585.51,-1102.12 3692,-1102.12 3798.49,-1102.12 3885,-1121.02 3885,-1144.28 3885,-1144.28 3885,-1523.72 3885,-1523.72"/>
<path fill="none" stroke="#20688c" d="M3885,-1523.72C3885,-1500.45 3798.49,-1481.56 3692,-1481.56 3585.51,-1481.56 3499,-1500.45 3499,-1523.72"/>
<text text-anchor="start" x="3528" y="-1454.3" font-family="Arial" font-size="34.00" fill="#ffffff">Bounded Local Media</text>
<text text-anchor="start" x="3648.5" y="-1420.3" font-family="Arial" font-size="34.00" fill="#ffffff">Spool</text>
<text text-anchor="start" x="3552" y="-1398.3" font-family="Arial" font-size="19.00" fill="#ffffff">[Container: WSL local filesystem]</text>
<text text-anchor="start" x="3540" y="-1361.3" font-family="Arial" font-size="24.00" fill="#ffffff">Opt&#45;in durable outage buffer</text>
<text text-anchor="start" x="3543.5" y="-1337.3" font-family="Arial" font-size="24.00" fill="#ffffff">beneath the local WSL data</text>
<text text-anchor="start" x="3570.5" y="-1313.3" font-family="Arial" font-size="24.00" fill="#ffffff">root; admission counts</text>
<text text-anchor="start" x="3546.5" y="-1289.3" font-family="Arial" font-size="24.00" fill="#ffffff">committed files and distinct</text>
<text text-anchor="start" x="3540" y="-1265.3" font-family="Arial" font-size="24.00" fill="#ffffff">in&#45;flight SQLite reservations,</text>
<text text-anchor="start" x="3567" y="-1241.3" font-family="Arial" font-size="24.00" fill="#ffffff">and drain verifies bytes</text>
<text text-anchor="start" x="3544.5" y="-1217.3" font-family="Arial" font-size="24.00" fill="#ffffff">before tier transition/source</text>
<text text-anchor="start" x="3646" y="-1193.3" font-family="Arial" font-size="24.00" fill="#ffffff">cleanup.</text>
</g>
<!-- 38&#45;&gt;50 -->
<g id="157" class="edge">
<title>38&#45;&gt;50</title>
<path fill="none" stroke="#444444" stroke-dasharray="5,2" d="M3058.11,-915.35C3189.6,-1002.33 3359.63,-1114.8 3490.34,-1201.26"/>
<polygon fill="#444444" stroke="#444444" points="3488.62,-1204.32 3498.89,-1206.92 3492.48,-1198.48 3488.62,-1204.32"/>
<polygon fill="white" stroke="transparent" points="3094,-1122 3094,-1221 3384,-1221 3384,-1122 3094,-1122"/>
<text text-anchor="start" x="3109" y="-1198.3" font-family="Arial" font-size="24.00" fill="#444444">Stages, commits, reads,</text>
<text text-anchor="start" x="3098" y="-1174.3" font-family="Arial" font-size="24.00" fill="#444444">stats, and deletes spooled</text>
<text text-anchor="start" x="3193" y="-1150.3" font-family="Arial" font-size="24.00" fill="#444444">media in</text>
<text text-anchor="start" x="3187.5" y="-1130.3" font-family="Arial" font-size="19.00" fill="#444444">[Filesystem]</text>
</g>
<!-- 39 -->
<g id="39" class="node">
<title>39</title>
<polygon fill="#85bbf0" stroke="#1168bd" points="2251,-948.5 1618,-948.5 1618,-635.5 2251,-635.5 2251,-948.5"/>
<text text-anchor="start" x="1796" y="-900.3" font-family="Arial" font-size="34.00" fill="#000000">Blob Lifecycle and</text>
<text text-anchor="start" x="1790" y="-866.3" font-family="Arial" font-size="34.00" fill="#000000">Storage Reconciler</text>
<text text-anchor="start" x="1753" y="-844.3" font-family="Arial" font-size="19.00" fill="#000000">[Component: Python + sqlite3 + filesystem]</text>
<text text-anchor="start" x="1891.5" y="-807.3" font-family="Arial" font-size="24.00" fill="#000000">Persists</text>
<text text-anchor="start" x="1647" y="-783.3" font-family="Arial" font-size="24.00" fill="#000000">committed/tombstoned/missing/deleted/blocked/failed</text>
<text text-anchor="start" x="1824.5" y="-759.3" font-family="Arial" font-size="24.00" fill="#000000">blob state; serializes</text>
<text text-anchor="start" x="1788.5" y="-735.3" font-family="Arial" font-size="24.00" fill="#000000">deletion processors; retries</text>
<text text-anchor="start" x="1802.5" y="-711.3" font-family="Arial" font-size="24.00" fill="#000000">tombstones; and dry&#45;run</text>
<text text-anchor="start" x="1786" y="-687.3" font-family="Arial" font-size="24.00" fill="#000000">detects missing refs, in&#45;root</text>
<text text-anchor="start" x="1792" y="-663.3" font-family="Arial" font-size="24.00" fill="#000000">orphans, and stale stages.</text>
</g>
<!-- 39&#45;&gt;38 -->
<g id="154" class="edge">
<title>39&#45;&gt;38</title>
<path fill="none" stroke="#444444" stroke-dasharray="5,2" d="M2251.04,-712.91C2263.14,-711.05 2275.16,-709.4 2287,-708 2430.01,-691.15 2468.52,-687.13 2611,-708 2619.54,-709.25 2628.19,-710.74 2636.9,-712.42"/>
<polygon fill="#444444" stroke="#444444" points="2636.25,-715.86 2646.74,-714.4 2637.63,-709 2636.25,-715.86"/>
<polygon fill="white" stroke="transparent" points="2322.5,-708 2322.5,-794 2575.5,-794 2575.5,-708 2322.5,-708"/>
<text text-anchor="start" x="2327" y="-770.8" font-family="Arial" font-size="24.00" fill="#444444">Resolves, deletes, and</text>
<text text-anchor="start" x="2335" y="-744.8" font-family="Arial" font-size="24.00" fill="#444444">inventories contained</text>
<text text-anchor="start" x="2375.5" y="-718.8" font-family="Arial" font-size="24.00" fill="#444444">bytes through</text>
</g>
<!-- 47 -->
<g id="47" class="node">
<title>47</title>
<path fill="#2f95c8" stroke="#20688c" d="M3050,-1515.22C3050,-1543.44 2961.48,-1566.38 2852.5,-1566.38 2743.52,-1566.38 2655,-1543.44 2655,-1515.22 2655,-1515.22 2655,-1054.78 2655,-1054.78 2655,-1026.56 2743.52,-1003.62 2852.5,-1003.62 2961.48,-1003.62 3050,-1026.56 3050,-1054.78 3050,-1054.78 3050,-1515.22 3050,-1515.22"/>
<path fill="none" stroke="#20688c" d="M3050,-1515.22C3050,-1486.99 2961.48,-1464.06 2852.5,-1464.06 2743.52,-1464.06 2655,-1486.99 2655,-1515.22"/>
<text text-anchor="start" x="2739.5" y="-1441.3" font-family="Arial" font-size="34.00" fill="#ffffff">SQLite + FTS5</text>
<text text-anchor="start" x="2779.5" y="-1407.3" font-family="Arial" font-size="34.00" fill="#ffffff">Database</text>
<text text-anchor="start" x="2726.5" y="-1385.3" font-family="Arial" font-size="19.00" fill="#ffffff">[Container: SQLite with FTS5]</text>
<text text-anchor="start" x="2684.5" y="-1348.3" font-family="Arial" font-size="24.00" fill="#ffffff">Durable complete cleaned&#45;text,</text>
<text text-anchor="start" x="2733.5" y="-1324.3" font-family="Arial" font-size="24.00" fill="#ffffff">relational, and full&#45;text</text>
<text text-anchor="start" x="2735" y="-1300.3" font-family="Arial" font-size="24.00" fill="#ffffff">authority for migration</text>
<text text-anchor="start" x="2700.5" y="-1276.3" font-family="Arial" font-size="24.00" fill="#ffffff">ledger, sources, documents,</text>
<text text-anchor="start" x="2703" y="-1252.3" font-family="Arial" font-size="24.00" fill="#ffffff">visits, capture observations,</text>
<text text-anchor="start" x="2721.5" y="-1228.3" font-family="Arial" font-size="24.00" fill="#ffffff">URL claims, visit events,</text>
<text text-anchor="start" x="2684" y="-1204.3" font-family="Arial" font-size="24.00" fill="#ffffff">snapshots, chunks, chunks_fts,</text>
<text text-anchor="start" x="2691.5" y="-1180.3" font-family="Arial" font-size="24.00" fill="#ffffff">media provenance/tasks, blob</text>
<text text-anchor="start" x="2728" y="-1156.3" font-family="Arial" font-size="24.00" fill="#ffffff">lifecycle records, policy</text>
<text text-anchor="start" x="2727" y="-1132.3" font-family="Arial" font-size="24.00" fill="#ffffff">rules, audit events, and</text>
<text text-anchor="start" x="2760.5" y="-1108.3" font-family="Arial" font-size="24.00" fill="#ffffff">deletion receipts.</text>
</g>
<!-- 39&#45;&gt;47 -->
<g id="153" class="edge">
<title>39&#45;&gt;47</title>
<path fill="none" stroke="#444444" stroke-dasharray="5,2" d="M2251.06,-918.81C2367.15,-969.97 2497.83,-1033 2611,-1101 2622.69,-1108.03 2634.49,-1115.52 2646.24,-1123.31"/>
<polygon fill="#444444" stroke="#444444" points="2644.54,-1126.38 2654.79,-1129.04 2648.43,-1120.56 2644.54,-1126.38"/>
<polygon fill="white" stroke="transparent" points="2287,-1101 2287,-1176 2611,-1176 2611,-1101 2287,-1101"/>
<text text-anchor="start" x="2291" y="-1153.3" font-family="Arial" font-size="24.00" fill="#444444">Reads and advances durable</text>
<text text-anchor="start" x="2323" y="-1129.3" font-family="Arial" font-size="24.00" fill="#444444">blob lifecycle records in</text>
<text text-anchor="start" x="2415.5" y="-1109.3" font-family="Arial" font-size="19.00" fill="#444444">[sqlite3]</text>
</g>
<!-- 41&#45;&gt;39 -->
<g id="152" class="edge">
<title>41&#45;&gt;39</title>
<path fill="none" stroke="#444444" stroke-dasharray="5,2" d="M1286.09,-723.28C1298.14,-720.41 1310.18,-717.94 1322,-716 1414.44,-700.84 1515.18,-704.94 1607.73,-716.9"/>
<polygon fill="#444444" stroke="#444444" points="1607.44,-720.4 1617.81,-718.24 1608.36,-713.46 1607.44,-720.4"/>
<polygon fill="white" stroke="transparent" points="1322,-716 1322,-802 1582,-802 1582,-716 1322,-716"/>
<text text-anchor="start" x="1326" y="-778.8" font-family="Arial" font-size="24.00" fill="#444444">Processes post&#45;commit</text>
<text text-anchor="start" x="1327" y="-752.8" font-family="Arial" font-size="24.00" fill="#444444">contained blob deletion</text>
<text text-anchor="start" x="1410.5" y="-726.8" font-family="Arial" font-size="24.00" fill="#444444">through</text>
</g>
<!-- 41&#45;&gt;47 -->
<g id="151" class="edge">
<title>41&#45;&gt;47</title>
<path fill="none" stroke="#444444" stroke-dasharray="5,2" d="M1286.29,-865.21C1384.78,-902.44 1507.34,-947.6 1618,-985 1912.61,-1084.56 1984.35,-1118.49 2287,-1190 2404.47,-1217.76 2537.54,-1240.56 2644.97,-1256.86"/>
<polygon fill="#444444" stroke="#444444" points="2644.55,-1260.34 2654.96,-1258.37 2645.59,-1253.42 2644.55,-1260.34"/>
<polygon fill="white" stroke="transparent" points="1804,-1180 1804,-1279 2065,-1279 2065,-1180 1804,-1180"/>
<text text-anchor="start" x="1808.5" y="-1256.3" font-family="Arial" font-size="24.00" fill="#444444">Atomically deletes rows</text>
<text text-anchor="start" x="1870.5" y="-1232.3" font-family="Arial" font-size="24.00" fill="#444444">and records</text>
<text text-anchor="start" x="1813.5" y="-1208.3" font-family="Arial" font-size="24.00" fill="#444444">receipts/tombstones in</text>
<text text-anchor="start" x="1901.5" y="-1188.3" font-family="Arial" font-size="19.00" fill="#444444">[sqlite3]</text>
</g>
</g>
</svg>
