<?xml version="1.0" encoding="UTF-8" standalone="no"?>
<!DOCTYPE svg PUBLIC "-//W3C//DTD SVG 1.1//EN"
 "http://www.w3.org/Graphics/SVG/1.1/DTD/svg11.dtd">
<!-- Generated by graphviz version 2.43.0 (0)
 -->
<!-- Title: %3 Pages: 1 -->
<svg width="2323pt" height="1539pt"
 viewBox="0.00 0.00 2323.00 1538.50" xmlns="http://www.w3.org/2000/svg" xmlns:xlink="http://www.w3.org/1999/xlink">
<g id="graph0" class="graph" transform="scale(1 1) rotate(0) translate(4 1534.5)">
<title>%3</title>
<polygon fill="white" stroke="transparent" points="-4,4 -4,-1534.5 2319,-1534.5 2319,4 -4,4"/>
<text text-anchor="start" x="842" y="-11.8" font-family="Arial" font-size="34.00">Dynamic View: Browser Memory Daemon</text>
<g id="clust1" class="cluster">
<title>cluster_4</title>
<polygon fill="none" stroke="#444444" points="8,-346.5 8,-1522.5 2307,-1522.5 2307,-346.5 8,-346.5"/>
<text text-anchor="start" x="1016.5" y="-375.3" font-family="Arial" font-size="24.00" fill="#444444">Browser Memory Daemon</text>
<text text-anchor="start" x="1080.5" y="-355.3" font-family="Arial" font-size="19.00" fill="#444444">[Software System]</text>
</g>
<!-- 13 -->
<g id="13" class="node">
<title>13</title>
<path fill="#2f95c8" stroke="#20688c" d="M1483.5,-777.72C1483.5,-796.01 1381.98,-810.88 1257,-810.88 1132.02,-810.88 1030.5,-796.01 1030.5,-777.72 1030.5,-777.72 1030.5,-479.28 1030.5,-479.28 1030.5,-460.99 1132.02,-446.12 1257,-446.12 1381.98,-446.12 1483.5,-460.99 1483.5,-479.28 1483.5,-479.28 1483.5,-777.72 1483.5,-777.72"/>
<path fill="none" stroke="#20688c" d="M1483.5,-777.72C1483.5,-759.42 1381.98,-744.56 1257,-744.56 1132.02,-744.56 1030.5,-759.42 1030.5,-777.72"/>
<text text-anchor="start" x="1115" y="-712.8" font-family="Arial" font-size="34.00" fill="#ffffff">Extension Browser</text>
<text text-anchor="start" x="1197.5" y="-678.8" font-family="Arial" font-size="34.00" fill="#ffffff">Storage</text>
<text text-anchor="start" x="1059.5" y="-656.8" font-family="Arial" font-size="19.00" fill="#ffffff">[Container: chrome.storage.local + IndexedDB]</text>
<text text-anchor="start" x="1124.5" y="-619.8" font-family="Arial" font-size="24.00" fill="#ffffff">Browser&#45;side storage for</text>
<text text-anchor="start" x="1112.5" y="-595.8" font-family="Arial" font-size="24.00" fill="#ffffff">capture and visit queues in</text>
<text text-anchor="start" x="1118.5" y="-571.8" font-family="Arial" font-size="24.00" fill="#ffffff">chrome.storage.local plus</text>
<text text-anchor="start" x="1124.5" y="-547.8" font-family="Arial" font-size="24.00" fill="#ffffff">durable media tasks and</text>
<text text-anchor="start" x="1105.5" y="-523.8" font-family="Arial" font-size="24.00" fill="#ffffff">fetched blobs in IndexedDB.</text>
</g>
<!-- 14 -->
<g id="14" class="node">
<title>14</title>
<polygon fill="#438dd5" stroke="#2e6295" points="1488,-1220 1026,-1220 1026,-883 1488,-883 1488,-1220"/>
<text text-anchor="start" x="1092.5" y="-1171.8" font-family="Arial" font-size="34.00" fill="#ffffff">WSL Loopback HTTP</text>
<text text-anchor="start" x="1192.5" y="-1137.8" font-family="Arial" font-size="34.00" fill="#ffffff">Daemon</text>
<text text-anchor="start" x="1055" y="-1115.8" font-family="Arial" font-size="19.00" fill="#ffffff">[Container: Python 3.11, ThreadingHTTPServer]</text>
<text text-anchor="start" x="1096" y="-1078.8" font-family="Arial" font-size="24.00" fill="#ffffff">Authenticated loopback HTTP</text>
<text text-anchor="start" x="1121" y="-1054.8" font-family="Arial" font-size="24.00" fill="#ffffff">API that handles capture,</text>
<text text-anchor="start" x="1117.5" y="-1030.8" font-family="Arial" font-size="24.00" fill="#ffffff">visit events, media artifact</text>
<text text-anchor="start" x="1120.5" y="-1006.8" font-family="Arial" font-size="24.00" fill="#ffffff">upload/fetch/purge, exact</text>
<text text-anchor="start" x="1217" y="-982.8" font-family="Arial" font-size="24.00" fill="#ffffff">search,</text>
<text text-anchor="start" x="1108" y="-958.8" font-family="Arial" font-size="24.00" fill="#ffffff">recent/timeline/detail, policy</text>
<text text-anchor="start" x="1126" y="-934.8" font-family="Arial" font-size="24.00" fill="#ffffff">rules, doctor, forget, and</text>
<text text-anchor="start" x="1167.5" y="-910.8" font-family="Arial" font-size="24.00" fill="#ffffff">static UI serving.</text>
</g>
<!-- 28 -->
<g id="28" class="node">
<title>28</title>
<path fill="#2f95c8" stroke="#20688c" d="M2260.5,-897.72C2260.5,-922.63 2171.98,-942.88 2063,-942.88 1954.02,-942.88 1865.5,-922.63 1865.5,-897.72 1865.5,-897.72 1865.5,-491.28 1865.5,-491.28 1865.5,-466.37 1954.02,-446.12 2063,-446.12 2171.98,-446.12 2260.5,-466.37 2260.5,-491.28 2260.5,-491.28 2260.5,-897.72 2260.5,-897.72"/>
<path fill="none" stroke="#20688c" d="M2260.5,-897.72C2260.5,-872.8 2171.98,-852.56 2063,-852.56 1954.02,-852.56 1865.5,-872.8 1865.5,-897.72"/>
<text text-anchor="start" x="1950" y="-826.8" font-family="Arial" font-size="34.00" fill="#ffffff">SQLite + FTS5</text>
<text text-anchor="start" x="1990" y="-792.8" font-family="Arial" font-size="34.00" fill="#ffffff">Database</text>
<text text-anchor="start" x="1937" y="-770.8" font-family="Arial" font-size="19.00" fill="#ffffff">[Container: SQLite with FTS5]</text>
<text text-anchor="start" x="1944" y="-733.8" font-family="Arial" font-size="24.00" fill="#ffffff">Durable relational and</text>
<text text-anchor="start" x="1922.5" y="-709.8" font-family="Arial" font-size="24.00" fill="#ffffff">full&#45;text store for migration</text>
<text text-anchor="start" x="1911" y="-685.8" font-family="Arial" font-size="24.00" fill="#ffffff">ledger, sources, documents,</text>
<text text-anchor="start" x="1913.5" y="-661.8" font-family="Arial" font-size="24.00" fill="#ffffff">visits, capture observations,</text>
<text text-anchor="start" x="1932" y="-637.8" font-family="Arial" font-size="24.00" fill="#ffffff">URL claims, visit events,</text>
<text text-anchor="start" x="1894.5" y="-613.8" font-family="Arial" font-size="24.00" fill="#ffffff">snapshots, chunks, chunks_fts,</text>
<text text-anchor="start" x="1914.5" y="-589.8" font-family="Arial" font-size="24.00" fill="#ffffff">media artifacts, media fetch</text>
<text text-anchor="start" x="1934.5" y="-565.8" font-family="Arial" font-size="24.00" fill="#ffffff">tasks, policy rules, audit</text>
<text text-anchor="start" x="1905" y="-541.8" font-family="Arial" font-size="24.00" fill="#ffffff">events, and deletion receipts.</text>
</g>
<!-- 14&#45;&gt;28 -->
<g id="44" class="edge">
<title>14&#45;&gt;28</title>
<path fill="none" stroke="#444444" stroke-dasharray="5,2" d="M1488.13,-949.32C1604.13,-897.81 1743.65,-835.86 1856.08,-785.94"/>
<polygon fill="#444444" stroke="#444444" points="1857.77,-789.01 1865.49,-781.76 1854.93,-782.61 1857.77,-789.01"/>
<text text-anchor="start" x="1567.5" y="-998.3" font-family="Arial" font-size="24.00" fill="#444444">6. Updates artifact</text>
<text text-anchor="start" x="1530" y="-974.3" font-family="Arial" font-size="24.00" fill="#444444">status=stored, hash, byte</text>
<text text-anchor="start" x="1562" y="-950.3" font-family="Arial" font-size="24.00" fill="#444444">size, and task state</text>
<text text-anchor="start" x="1632.5" y="-930.3" font-family="Arial" font-size="19.00" fill="#444444">[sqlite3]</text>
</g>
<!-- 30 -->
<g id="30" class="node">
<title>30</title>
<path fill="#2f95c8" stroke="#20688c" d="M2282,-1453.78C2282,-1477.97 2183.84,-1497.63 2063,-1497.63 1942.16,-1497.63 1844,-1477.97 1844,-1453.78 1844,-1453.78 1844,-1059.22 1844,-1059.22 1844,-1035.03 1942.16,-1015.37 2063,-1015.37 2183.84,-1015.37 2282,-1035.03 2282,-1059.22 2282,-1059.22 2282,-1453.78 2282,-1453.78"/>
<path fill="none" stroke="#20688c" d="M2282,-1453.78C2282,-1429.59 2183.84,-1409.94 2063,-1409.94 1942.16,-1409.94 1844,-1429.59 1844,-1453.78"/>
<text text-anchor="start" x="1924" y="-1383.8" font-family="Arial" font-size="34.00" fill="#ffffff">Media Blob Cache</text>
<text text-anchor="start" x="1873" y="-1361.8" font-family="Arial" font-size="19.00" fill="#ffffff">[Container: WSL or NAS&#45;mounted filesystem]</text>
<text text-anchor="start" x="1929.5" y="-1324.8" font-family="Arial" font-size="24.00" fill="#ffffff">Bounded and disposable</text>
<text text-anchor="start" x="1918.5" y="-1300.8" font-family="Arial" font-size="24.00" fill="#ffffff">filesystem cache for stored</text>
<text text-anchor="start" x="1897.5" y="-1276.8" font-family="Arial" font-size="24.00" fill="#ffffff">image/video/audio blobs under</text>
<text text-anchor="start" x="1919" y="-1252.8" font-family="Arial" font-size="24.00" fill="#ffffff">the configured WSL&#45;visible</text>
<text text-anchor="start" x="1987.5" y="-1228.8" font-family="Arial" font-size="24.00" fill="#ffffff">blob root, with</text>
<text text-anchor="start" x="1895.5" y="-1204.8" font-family="Arial" font-size="24.00" fill="#ffffff">purge/rehydrate semantics that</text>
<text text-anchor="start" x="1906.5" y="-1180.8" font-family="Arial" font-size="24.00" fill="#ffffff">preserve media refs, hashes,</text>
<text text-anchor="start" x="1890" y="-1156.8" font-family="Arial" font-size="24.00" fill="#ffffff">status reasons, and provenance</text>
<text text-anchor="start" x="1926.5" y="-1132.8" font-family="Arial" font-size="24.00" fill="#ffffff">when bytes are absent or</text>
<text text-anchor="start" x="2021.5" y="-1108.8" font-family="Arial" font-size="24.00" fill="#ffffff">purged.</text>
</g>
<!-- 14&#45;&gt;30 -->
<g id="46" class="edge">
<title>14&#45;&gt;30</title>
<path fill="none" stroke="#444444" stroke-dasharray="5,2" d="M1488.13,-1110.18C1596.69,-1137.86 1725.85,-1170.79 1834.12,-1198.4"/>
<polygon fill="#444444" stroke="#444444" points="1833.31,-1201.8 1843.87,-1200.88 1835.04,-1195.02 1833.31,-1201.8"/>
<text text-anchor="start" x="1524" y="-1238.3" font-family="Arial" font-size="24.00" fill="#444444">5. Writes blob if MIME and</text>
<text text-anchor="start" x="1569.5" y="-1214.3" font-family="Arial" font-size="24.00" fill="#444444">cache gates allow</text>
<text text-anchor="start" x="1614.5" y="-1194.3" font-family="Arial" font-size="19.00" fill="#444444">[Filesystem]</text>
</g>
<!-- 5 -->
<g id="5" class="node">
<title>5</title>
<polygon fill="#438dd5" stroke="#2e6295" points="467,-752 33,-752 33,-473 467,-473 467,-752"/>
<text text-anchor="start" x="70" y="-703.8" font-family="Arial" font-size="34.00" fill="#ffffff">Chrome MV3 Extension</text>
<text text-anchor="start" x="62" y="-681.8" font-family="Arial" font-size="19.00" fill="#ffffff">[Container: JavaScript, Chrome Manifest V3]</text>
<text text-anchor="start" x="107" y="-644.8" font-family="Arial" font-size="24.00" fill="#ffffff">Captures visible page text,</text>
<text text-anchor="start" x="132.5" y="-620.8" font-family="Arial" font-size="24.00" fill="#ffffff">media references, tab</text>
<text text-anchor="start" x="141" y="-596.8" font-family="Arial" font-size="24.00" fill="#ffffff">lifecycle events, and</text>
<text text-anchor="start" x="84" y="-572.8" font-family="Arial" font-size="24.00" fill="#ffffff">browser&#45;side media bytes from</text>
<text text-anchor="start" x="79" y="-548.8" font-family="Arial" font-size="24.00" fill="#ffffff">Windows Chrome; queues work</text>
<text text-anchor="start" x="91" y="-524.8" font-family="Arial" font-size="24.00" fill="#ffffff">durably and posts to the WSL</text>
<text text-anchor="start" x="202.5" y="-500.8" font-family="Arial" font-size="24.00" fill="#ffffff">daemon.</text>
</g>
<!-- 5&#45;&gt;13 -->
<g id="38" class="edge">
<title>5&#45;&gt;13</title>
<path fill="none" stroke="#444444" stroke-dasharray="5,2" d="M467.26,-557.59C479.31,-555.6 491.28,-553.88 503,-552.5 717.97,-527.26 775.65,-522.48 990,-552.5 999.9,-553.89 1009.95,-555.55 1020.05,-557.44"/>
<polygon fill="#444444" stroke="#444444" points="1019.69,-560.93 1030.18,-559.39 1021.02,-554.06 1019.69,-560.93"/>
<text text-anchor="start" x="612.5" y="-577.3" font-family="Arial" font-size="24.00" fill="#444444">1. Reads due media task</text>
<text text-anchor="start" x="595" y="-557.3" font-family="Arial" font-size="19.00" fill="#444444">[chrome.storage.local + IndexedDB]</text>
</g>
<!-- 5&#45;&gt;13 -->
<g id="38" class="edge">
<title>5&#45;&gt;13</title>
<path fill="none" stroke="#444444" stroke-dasharray="5,2" d="M467.21,-615.94C629.89,-618.53 852.65,-622.08 1019.95,-624.74"/>
<polygon fill="#444444" stroke="#444444" points="1020.08,-628.24 1030.14,-624.9 1020.19,-621.25 1020.08,-628.24"/>
<text text-anchor="start" x="620.5" y="-672.3" font-family="Arial" font-size="24.00" fill="#444444">3. Persists fetched blob</text>
<text text-anchor="start" x="630" y="-648.3" font-family="Arial" font-size="24.00" fill="#444444">until upload succeeds</text>
<text text-anchor="start" x="595" y="-628.3" font-family="Arial" font-size="19.00" fill="#444444">[chrome.storage.local + IndexedDB]</text>
</g>
<!-- 5&#45;&gt;14 -->
<g id="39" class="edge">
<title>5&#45;&gt;14</title>
<path fill="none" stroke="#444444" stroke-dasharray="5,2" d="M467.21,-706.95C628.72,-777.5 849.44,-873.91 1016.33,-946.81"/>
<polygon fill="#444444" stroke="#444444" points="1015.17,-950.12 1025.74,-950.92 1017.97,-943.71 1015.17,-950.12"/>
<text text-anchor="start" x="641.5" y="-982.3" font-family="Arial" font-size="24.00" fill="#444444">4. PUTs raw blob to</text>
<text text-anchor="start" x="616" y="-958.3" font-family="Arial" font-size="24.00" fill="#444444">/media&#45;artifacts/{id}/blob</text>
<text text-anchor="start" x="503" y="-938.3" font-family="Arial" font-size="19.00" fill="#444444">[Bearer HTTP/JSON; raw HTTP PUT over 127.0.0.1:8765]</text>
</g>
<!-- 3 -->
<g id="3" class="node">
<title>3</title>
<polygon fill="#999999" stroke="#6b6b6b" points="1458.5,-321 1055.5,-321 1055.5,-56 1458.5,-56 1458.5,-321"/>
<text text-anchor="start" x="1095.5" y="-272.8" font-family="Arial" font-size="34.00" fill="#ffffff">Web Sites and Media</text>
<text text-anchor="start" x="1203" y="-238.8" font-family="Arial" font-size="34.00" fill="#ffffff">Origins</text>
<text text-anchor="start" x="1180" y="-216.8" font-family="Arial" font-size="19.00" fill="#ffffff">[Software System]</text>
<text text-anchor="start" x="1147" y="-179.8" font-family="Arial" font-size="24.00" fill="#ffffff">External web pages,</text>
<text text-anchor="start" x="1094.5" y="-155.8" font-family="Arial" font-size="24.00" fill="#ffffff">image/video URLs, and media</text>
<text text-anchor="start" x="1084.5" y="-131.8" font-family="Arial" font-size="24.00" fill="#ffffff">CDNs that Chrome loads or that</text>
<text text-anchor="start" x="1094.5" y="-107.8" font-family="Arial" font-size="24.00" fill="#ffffff">sidecars fetch as page&#45;related</text>
<text text-anchor="start" x="1220.5" y="-83.8" font-family="Arial" font-size="24.00" fill="#ffffff">media.</text>
</g>
<!-- 5&#45;&gt;3 -->
<g id="37" class="edge">
<title>5&#45;&gt;3</title>
<path fill="none" stroke="#444444" stroke-dasharray="5,2" d="M453.71,-472.82C470.11,-463.42 486.66,-454.52 503,-446.5 679.03,-360.1 891.28,-290.21 1045.51,-245.07"/>
<polygon fill="#444444" stroke="#444444" points="1046.5,-248.43 1055.12,-242.27 1044.54,-241.71 1046.5,-248.43"/>
<text text-anchor="start" x="598" y="-495.3" font-family="Arial" font-size="24.00" fill="#444444">2. Fetches source URL with</text>
<text text-anchor="start" x="612.5" y="-471.3" font-family="Arial" font-size="24.00" fill="#444444">Chrome cookie envelope</text>
<text text-anchor="start" x="605" y="-451.3" font-family="Arial" font-size="19.00" fill="#444444">[DOM; fetch(credentials: include)]</text>
</g>
</g>
</svg>
