<?xml version="1.0" encoding="UTF-8" standalone="no"?>
<!DOCTYPE svg PUBLIC "-//W3C//DTD SVG 1.1//EN"
 "http://www.w3.org/Graphics/SVG/1.1/DTD/svg11.dtd">
<!-- Generated by graphviz version 2.43.0 (0)
 -->
<!-- Title: %3 Pages: 1 -->
<svg width="3692pt" height="1350pt"
 viewBox="0.00 0.00 3692.00 1349.50" xmlns="http://www.w3.org/2000/svg" xmlns:xlink="http://www.w3.org/1999/xlink">
<g id="graph0" class="graph" transform="scale(1 1) rotate(0) translate(4 1345.5)">
<title>%3</title>
<polygon fill="white" stroke="transparent" points="-4,4 -4,-1345.5 3688,-1345.5 3688,4 -4,4"/>
<text text-anchor="start" x="1257" y="-11.8" font-family="Arial" font-size="34.00">Component View: Browser Memory Daemon &#45; WSL Loopback HTTP Daemon</text>
<g id="clust1" class="cluster">
<title>cluster_4</title>
<polygon fill="none" stroke="#444444" points="8,-346.5 8,-1333.5 3676,-1333.5 3676,-346.5 8,-346.5"/>
<text text-anchor="start" x="1701" y="-375.3" font-family="Arial" font-size="24.00" fill="#444444">Browser Memory Daemon</text>
<text text-anchor="start" x="1765" y="-355.3" font-family="Arial" font-size="19.00" fill="#444444">[Software System]</text>
</g>
<g id="clust2" class="cluster">
<title>cluster_15</title>
<polygon fill="none" stroke="#444444" points="33,-446.5 33,-1308.5 3651,-1308.5 3651,-446.5 33,-446.5"/>
<text text-anchor="start" x="1676.5" y="-475.3" font-family="Arial" font-size="24.00" fill="#444444">WSL Loopback HTTP Daemon</text>
<text text-anchor="start" x="1640" y="-455.3" font-family="Arial" font-size="19.00" fill="#444444">[Container: Python 3.11, ThreadingHTTPServer]</text>
</g>
<!-- 3 -->
<g id="3" class="node">
<title>3</title>
<polygon fill="#999999" stroke="#6b6b6b" points="3624.5,-321 3221.5,-321 3221.5,-56 3624.5,-56 3624.5,-321"/>
<text text-anchor="start" x="3261.5" y="-272.8" font-family="Arial" font-size="34.00" fill="#ffffff">Web Sites and Media</text>
<text text-anchor="start" x="3369" y="-238.8" font-family="Arial" font-size="34.00" fill="#ffffff">Origins</text>
<text text-anchor="start" x="3346" y="-216.8" font-family="Arial" font-size="19.00" fill="#ffffff">[Software System]</text>
<text text-anchor="start" x="3313" y="-179.8" font-family="Arial" font-size="24.00" fill="#ffffff">External web pages,</text>
<text text-anchor="start" x="3260.5" y="-155.8" font-family="Arial" font-size="24.00" fill="#ffffff">image/video URLs, and media</text>
<text text-anchor="start" x="3250.5" y="-131.8" font-family="Arial" font-size="24.00" fill="#ffffff">CDNs that Chrome loads or that</text>
<text text-anchor="start" x="3260.5" y="-107.8" font-family="Arial" font-size="24.00" fill="#ffffff">sidecars fetch as page&#45;related</text>
<text text-anchor="start" x="3386.5" y="-83.8" font-family="Arial" font-size="24.00" fill="#ffffff">media.</text>
</g>
<!-- 22 -->
<g id="22" class="node">
<title>22</title>
<polygon fill="#85bbf0" stroke="#1168bd" points="479,-1032 58,-1032 58,-695 479,-695 479,-1032"/>
<text text-anchor="start" x="165" y="-983.8" font-family="Arial" font-size="34.00" fill="#000000">Media Artifact</text>
<text text-anchor="start" x="201.5" y="-949.8" font-family="Arial" font-size="34.00" fill="#000000">Manager</text>
<text text-anchor="start" x="87" y="-927.8" font-family="Arial" font-size="19.00" fill="#000000">[Component: Python + sqlite3 + filesystem]</text>
<text text-anchor="start" x="131.5" y="-890.8" font-family="Arial" font-size="24.00" fill="#000000">Provides the compatibility</text>
<text text-anchor="start" x="101.5" y="-866.8" font-family="Arial" font-size="24.00" fill="#000000">API, records media references,</text>
<text text-anchor="start" x="99" y="-842.8" font-family="Arial" font-size="24.00" fill="#000000">streams bounded blob uploads,</text>
<text text-anchor="start" x="133" y="-818.8" font-family="Arial" font-size="24.00" fill="#000000">delegates guarded public</text>
<text text-anchor="start" x="114.5" y="-794.8" font-family="Arial" font-size="24.00" fill="#000000">transport, and drains verified</text>
<text text-anchor="start" x="117" y="-770.8" font-family="Arial" font-size="24.00" fill="#000000">spool bytes without coupling</text>
<text text-anchor="start" x="163" y="-746.8" font-family="Arial" font-size="24.00" fill="#000000">text ingest to media</text>
<text text-anchor="start" x="210" y="-722.8" font-family="Arial" font-size="24.00" fill="#000000">availability.</text>
</g>
<!-- 25 -->
<g id="25" class="node">
<title>25</title>
<polygon fill="#85bbf0" stroke="#1168bd" points="1253,-898 834,-898 834,-547 1253,-547 1253,-898"/>
<text text-anchor="start" x="894.5" y="-849.8" font-family="Arial" font-size="34.00" fill="#000000">Media Artifact Store</text>
<text text-anchor="start" x="863" y="-827.8" font-family="Arial" font-size="19.00" fill="#000000">[Component: Python + sqlite3 + BlobStore]</text>
<text text-anchor="start" x="940.5" y="-790.8" font-family="Arial" font-size="24.00" fill="#000000">Owns artifact rows,</text>
<text text-anchor="start" x="896" y="-766.8" font-family="Arial" font-size="24.00" fill="#000000">transactional cross&#45;process</text>
<text text-anchor="start" x="898.5" y="-742.8" font-family="Arial" font-size="24.00" fill="#000000">cache reservations, unique</text>
<text text-anchor="start" x="928" y="-718.8" font-family="Arial" font-size="24.00" fill="#000000">streamed publication,</text>
<text text-anchor="start" x="902.5" y="-694.8" font-family="Arial" font-size="24.00" fill="#000000">failed&#45;write compensation,</text>
<text text-anchor="start" x="918" y="-670.8" font-family="Arial" font-size="24.00" fill="#000000">contained reads, cache</text>
<text text-anchor="start" x="926" y="-646.8" font-family="Arial" font-size="24.00" fill="#000000">admission, oldest&#45;first</text>
<text text-anchor="start" x="897" y="-622.8" font-family="Arial" font-size="24.00" fill="#000000">eviction, purge/rehydration,</text>
<text text-anchor="start" x="977" y="-598.8" font-family="Arial" font-size="24.00" fill="#000000">and lifecycle</text>
<text text-anchor="start" x="914" y="-574.8" font-family="Arial" font-size="24.00" fill="#000000">registration/tombstones.</text>
</g>
<!-- 22&#45;&gt;25 -->
<g id="105" class="edge">
<title>22&#45;&gt;25</title>
<path fill="none" stroke="#444444" stroke-dasharray="5,2" d="M479.19,-825.25C585.96,-805.78 715.67,-782.12 823.7,-762.41"/>
<polygon fill="#444444" stroke="#444444" points="824.54,-765.82 833.75,-760.58 823.28,-758.93 824.54,-765.82"/>
<polygon fill="white" stroke="transparent" points="527.5,-817.5 527.5,-903.5 785.5,-903.5 785.5,-817.5 527.5,-817.5"/>
<text text-anchor="start" x="549" y="-880.3" font-family="Arial" font-size="24.00" fill="#444444">Publishes, resolves,</text>
<text text-anchor="start" x="531.5" y="-854.3" font-family="Arial" font-size="24.00" fill="#444444">purges, and rehydrates</text>
<text text-anchor="start" x="569" y="-828.3" font-family="Arial" font-size="24.00" fill="#444444">artifacts through</text>
</g>
<!-- 26 -->
<g id="26" class="node">
<title>26</title>
<polygon fill="#85bbf0" stroke="#1168bd" points="1238.5,-1283 848.5,-1283 848.5,-970 1238.5,-970 1238.5,-1283"/>
<text text-anchor="start" x="920.5" y="-1234.8" font-family="Arial" font-size="34.00" fill="#000000">Media Transport</text>
<text text-anchor="start" x="954.5" y="-1200.8" font-family="Arial" font-size="34.00" fill="#000000">Coordinator</text>
<text text-anchor="start" x="954.5" y="-1178.8" font-family="Arial" font-size="19.00" fill="#000000">[Component: Python]</text>
<text text-anchor="start" x="893" y="-1141.8" font-family="Arial" font-size="24.00" fill="#000000">Classifies direct versus HLS</text>
<text text-anchor="start" x="922" y="-1117.8" font-family="Arial" font-size="24.00" fill="#000000">responses, applies the</text>
<text text-anchor="start" x="877.5" y="-1093.8" font-family="Arial" font-size="24.00" fill="#000000">aggregate HLS request budget</text>
<text text-anchor="start" x="896" y="-1069.8" font-family="Arial" font-size="24.00" fill="#000000">from the first network open,</text>
<text text-anchor="start" x="891.5" y="-1045.8" font-family="Arial" font-size="24.00" fill="#000000">enforces playlist sniffing and</text>
<text text-anchor="start" x="898.5" y="-1021.8" font-family="Arial" font-size="24.00" fill="#000000">byte caps, and coordinates</text>
<text text-anchor="start" x="885" y="-997.8" font-family="Arial" font-size="24.00" fill="#000000">bounded streamed assembly.</text>
</g>
<!-- 22&#45;&gt;26 -->
<g id="106" class="edge">
<title>22&#45;&gt;26</title>
<path fill="none" stroke="#444444" stroke-dasharray="5,2" d="M479.19,-934.84C590.95,-972.87 727.85,-1019.45 838.71,-1057.16"/>
<polygon fill="#444444" stroke="#444444" points="837.74,-1060.53 848.33,-1060.44 839.99,-1053.9 837.74,-1060.53"/>
<polygon fill="white" stroke="transparent" points="515,-1040.5 515,-1100.5 798,-1100.5 798,-1040.5 515,-1040.5"/>
<text text-anchor="start" x="519.5" y="-1077.3" font-family="Arial" font-size="24.00" fill="#444444">Delegates daemon&#45;public</text>
<text text-anchor="start" x="536.5" y="-1051.3" font-family="Arial" font-size="24.00" fill="#444444">media orchestration to</text>
</g>
<!-- 27 -->
<g id="27" class="node">
<title>27</title>
<polygon fill="#85bbf0" stroke="#1168bd" points="2792,-896 2382,-896 2382,-617 2792,-617 2792,-896"/>
<text text-anchor="start" x="2422.5" y="-847.8" font-family="Arial" font-size="34.00" fill="#000000">Guarded Media Fetch</text>
<text text-anchor="start" x="2411" y="-825.8" font-family="Arial" font-size="19.00" fill="#000000">[Component: Python stdlib urllib + socket]</text>
<text text-anchor="start" x="2440" y="-788.8" font-family="Arial" font-size="24.00" fill="#000000">Owns streamed HTTP/data</text>
<text text-anchor="start" x="2453" y="-764.8" font-family="Arial" font-size="24.00" fill="#000000">transport, public&#45;address</text>
<text text-anchor="start" x="2488.5" y="-740.8" font-family="Arial" font-size="24.00" fill="#000000">validation, redirect</text>
<text text-anchor="start" x="2460.5" y="-716.8" font-family="Arial" font-size="24.00" fill="#000000">revalidation, no&#45;referrer</text>
<text text-anchor="start" x="2456.5" y="-692.8" font-family="Arial" font-size="24.00" fill="#000000">requests, response&#45;byte</text>
<text text-anchor="start" x="2440" y="-668.8" font-family="Arial" font-size="24.00" fill="#000000">limits, process request/byte</text>
<text text-anchor="start" x="2426" y="-644.8" font-family="Arial" font-size="24.00" fill="#000000">leases, and shared deadlines.</text>
</g>
<!-- 26&#45;&gt;27 -->
<g id="115" class="edge">
<title>26&#45;&gt;27</title>
<path fill="none" stroke="#444444" stroke-dasharray="5,2" d="M1216.51,-969.8C1344.87,-856.98 1511.98,-719.7 1596,-690.5 1851.74,-601.62 2166.64,-646.76 2371.64,-694.85"/>
<polygon fill="#444444" stroke="#444444" points="2371.09,-698.32 2381.63,-697.22 2372.7,-691.51 2371.09,-698.32"/>
<polygon fill="white" stroke="transparent" points="1663,-690.5 1663,-776.5 1951,-776.5 1951,-690.5 1663,-690.5"/>
<text text-anchor="start" x="1710.5" y="-753.3" font-family="Arial" font-size="24.00" fill="#444444">Streams the initial</text>
<text text-anchor="start" x="1667" y="-727.3" font-family="Arial" font-size="24.00" fill="#444444">response and every direct</text>
<text text-anchor="start" x="1725.5" y="-701.3" font-family="Arial" font-size="24.00" fill="#444444">artifact through</text>
</g>
<!-- 28 -->
<g id="28" class="node">
<title>28</title>
<polygon fill="#85bbf0" stroke="#1168bd" points="2018,-1115 1596,-1115 1596,-812 2018,-812 2018,-1115"/>
<text text-anchor="start" x="1625" y="-1066.8" font-family="Arial" font-size="34.00" fill="#000000">Bounded HLS Transport</text>
<text text-anchor="start" x="1718" y="-1044.8" font-family="Arial" font-size="19.00" fill="#000000">[Component: Python]</text>
<text text-anchor="start" x="1669" y="-1007.8" font-family="Arial" font-size="24.00" fill="#000000">Parses bounded playlists,</text>
<text text-anchor="start" x="1652" y="-983.8" font-family="Arial" font-size="24.00" fill="#000000">selects variants, expands init</text>
<text text-anchor="start" x="1656.5" y="-959.8" font-family="Arial" font-size="24.00" fill="#000000">maps/segments through the</text>
<text text-anchor="start" x="1652" y="-935.8" font-family="Arial" font-size="24.00" fill="#000000">guarded fetch boundary, and</text>
<text text-anchor="start" x="1675" y="-911.8" font-family="Arial" font-size="24.00" fill="#000000">streams assembly within</text>
<text text-anchor="start" x="1752" y="-887.8" font-family="Arial" font-size="24.00" fill="#000000">aggregate</text>
<text text-anchor="start" x="1657" y="-863.8" font-family="Arial" font-size="24.00" fill="#000000">byte/depth/request/deadline</text>
<text text-anchor="start" x="1776" y="-839.8" font-family="Arial" font-size="24.00" fill="#000000">limits.</text>
</g>
<!-- 26&#45;&gt;28 -->
<g id="116" class="edge">
<title>26&#45;&gt;28</title>
<path fill="none" stroke="#444444" stroke-dasharray="5,2" d="M1238.63,-1084.95C1344.6,-1062.26 1476.2,-1034.09 1585.97,-1010.6"/>
<polygon fill="#444444" stroke="#444444" points="1586.8,-1014 1595.85,-1008.48 1585.34,-1007.15 1586.8,-1014"/>
<polygon fill="white" stroke="transparent" points="1289,-1073.5 1289,-1159.5 1560,-1159.5 1560,-1073.5 1289,-1073.5"/>
<text text-anchor="start" x="1320.5" y="-1136.3" font-family="Arial" font-size="24.00" fill="#444444">Delegates detected</text>
<text text-anchor="start" x="1313.5" y="-1110.3" font-family="Arial" font-size="24.00" fill="#444444">playlists for bounded</text>
<text text-anchor="start" x="1293.5" y="-1084.3" font-family="Arial" font-size="24.00" fill="#444444">parsing and assembly to</text>
</g>
<!-- 30 -->
<g id="30" class="node">
<title>30</title>
<polygon fill="#85bbf0" stroke="#1168bd" points="3626,-1098 3220,-1098 3220,-785 3626,-785 3626,-1098"/>
<text text-anchor="start" x="3310" y="-1049.8" font-family="Arial" font-size="34.00" fill="#000000">Media Process</text>
<text text-anchor="start" x="3291.5" y="-1015.8" font-family="Arial" font-size="34.00" fill="#000000">Resource Budget</text>
<text text-anchor="start" x="3249" y="-993.8" font-family="Arial" font-size="19.00" fill="#000000">[Component: Python threading.Condition]</text>
<text text-anchor="start" x="3260.5" y="-956.8" font-family="Arial" font-size="24.00" fill="#000000">Bounds active media requests</text>
<text text-anchor="start" x="3289" y="-932.8" font-family="Arial" font-size="24.00" fill="#000000">and in&#45;flight bytes across</text>
<text text-anchor="start" x="3263" y="-908.8" font-family="Arial" font-size="24.00" fill="#000000">threads within one daemon or</text>
<text text-anchor="start" x="3289" y="-884.8" font-family="Arial" font-size="24.00" fill="#000000">worker process; exposes</text>
<text text-anchor="start" x="3294.5" y="-860.8" font-family="Arial" font-size="24.00" fill="#000000">aggregate counters and</text>
<text text-anchor="start" x="3271" y="-836.8" font-family="Arial" font-size="24.00" fill="#000000">releases leases on failure or</text>
<text text-anchor="start" x="3355.5" y="-812.8" font-family="Arial" font-size="24.00" fill="#000000">cancellation.</text>
</g>
<!-- 26&#45;&gt;30 -->
<g id="117" class="edge">
<title>26&#45;&gt;30</title>
<path fill="none" stroke="#444444" stroke-dasharray="5,2" d="M1238.78,-1170.78C1255.7,-1173.5 1272.61,-1175.81 1289,-1177.5 1408.81,-1189.86 1439.6,-1180.91 1560,-1177.5 1763.8,-1171.72 1815.19,-1172.38 2018,-1151.5 2442.71,-1107.78 2935.54,-1027.06 3209.81,-979.45"/>
<polygon fill="#444444" stroke="#444444" points="3210.63,-982.86 3219.88,-977.7 3209.43,-975.96 3210.63,-982.86"/>
<polygon fill="white" stroke="transparent" points="2054,-1146.5 2054,-1206.5 2346,-1206.5 2346,-1146.5 2054,-1146.5"/>
<text text-anchor="start" x="2058" y="-1183.3" font-family="Arial" font-size="24.00" fill="#444444">Leases aggregate transfer</text>
<text text-anchor="start" x="2126" y="-1157.3" font-family="Arial" font-size="24.00" fill="#444444">bytes through</text>
</g>
<!-- 27&#45;&gt;3 -->
<g id="119" class="edge">
<title>27&#45;&gt;3</title>
<path fill="none" stroke="#444444" stroke-dasharray="5,2" d="M2792.02,-617.55C2921.78,-529.17 3089.16,-415.18 3218.78,-326.91"/>
<polygon fill="#444444" stroke="#444444" points="3220.96,-329.65 3227.26,-321.13 3217.02,-323.87 3220.96,-329.65"/>
<polygon fill="white" stroke="transparent" points="2828,-588.5 2828,-663.5 3184,-663.5 3184,-588.5 2828,-588.5"/>
<text text-anchor="start" x="2891" y="-640.8" font-family="Arial" font-size="24.00" fill="#444444">Validates and fetches</text>
<text text-anchor="start" x="2910" y="-616.8" font-family="Arial" font-size="24.00" fill="#444444">public media from</text>
<text text-anchor="start" x="2832" y="-596.8" font-family="Arial" font-size="19.00" fill="#444444">[HTTP(S), no Referer or Chrome cookies]</text>
</g>
<!-- 27&#45;&gt;30 -->
<g id="118" class="edge">
<title>27&#45;&gt;30</title>
<path fill="none" stroke="#444444" stroke-dasharray="5,2" d="M2792.02,-801.76C2918.8,-829.88 3081.48,-865.97 3209.77,-894.42"/>
<polygon fill="#444444" stroke="#444444" points="3209.21,-897.88 3219.73,-896.63 3210.72,-891.05 3209.21,-897.88"/>
<polygon fill="white" stroke="transparent" points="2863.5,-886.5 2863.5,-946.5 3148.5,-946.5 3148.5,-886.5 2863.5,-886.5"/>
<text text-anchor="start" x="2868" y="-923.3" font-family="Arial" font-size="24.00" fill="#444444">Leases each active HTTP</text>
<text text-anchor="start" x="2921" y="-897.3" font-family="Arial" font-size="24.00" fill="#444444">request through</text>
</g>
<!-- 28&#45;&gt;27 -->
<g id="121" class="edge">
<title>28&#45;&gt;27</title>
<path fill="none" stroke="#444444" stroke-dasharray="5,2" d="M2018.03,-907.62C2127.68,-878.44 2261.59,-842.82 2371.84,-813.48"/>
<polygon fill="#444444" stroke="#444444" points="2372.99,-816.8 2381.76,-810.84 2371.19,-810.03 2372.99,-816.8"/>
<polygon fill="white" stroke="transparent" points="2076.5,-896.5 2076.5,-982.5 2323.5,-982.5 2323.5,-896.5 2076.5,-896.5"/>
<text text-anchor="start" x="2081" y="-959.3" font-family="Arial" font-size="24.00" fill="#444444">Fetches every variant,</text>
<text text-anchor="start" x="2081" y="-933.3" font-family="Arial" font-size="24.00" fill="#444444">init map, and segment</text>
<text text-anchor="start" x="2159" y="-907.3" font-family="Arial" font-size="24.00" fill="#444444">through</text>
</g>
</g>
</svg>
