<?xml version="1.0" encoding="UTF-8" standalone="no"?>
<!DOCTYPE svg PUBLIC "-//W3C//DTD SVG 1.1//EN"
 "http://www.w3.org/Graphics/SVG/1.1/DTD/svg11.dtd">
<!-- Generated by graphviz version 2.43.0 (0)
 -->
<!-- Title: %3 Pages: 1 -->
<svg width="2331pt" height="2241pt"
 viewBox="0.00 0.00 2331.00 2241.00" xmlns="http://www.w3.org/2000/svg" xmlns:xlink="http://www.w3.org/1999/xlink">
<g id="graph0" class="graph" transform="scale(1 1) rotate(0) translate(4 2237)">
<title>%3</title>
<polygon fill="white" stroke="transparent" points="-4,4 -4,-2237 2327,-2237 2327,4 -4,4"/>
<text text-anchor="start" x="839" y="-11.8" font-family="Arial" font-size="34.00">Container View: Browser Memory Daemon</text>
<g id="clust1" class="cluster">
<title>cluster_4</title>
<polygon fill="none" stroke="#444444" points="8,-64 8,-2225 2315,-2225 2315,-64 8,-64"/>
<text text-anchor="start" x="1020.5" y="-92.8" font-family="Arial" font-size="24.00" fill="#444444">Browser Memory Daemon</text>
<text text-anchor="start" x="1084.5" y="-72.8" font-family="Arial" font-size="19.00" fill="#444444">[Software System]</text>
</g>
<!-- 14 -->
<g id="14" class="node">
<title>14</title>
<polygon fill="#438dd5" stroke="#2e6295" points="1364,-1677.5 902,-1677.5 902,-1340.5 1364,-1340.5 1364,-1677.5"/>
<text text-anchor="start" x="968.5" y="-1629.3" font-family="Arial" font-size="34.00" fill="#ffffff">WSL Loopback HTTP</text>
<text text-anchor="start" x="1068.5" y="-1595.3" font-family="Arial" font-size="34.00" fill="#ffffff">Daemon</text>
<text text-anchor="start" x="931" y="-1573.3" font-family="Arial" font-size="19.00" fill="#ffffff">[Container: Python 3.11, ThreadingHTTPServer]</text>
<text text-anchor="start" x="972" y="-1536.3" font-family="Arial" font-size="24.00" fill="#ffffff">Authenticated loopback HTTP</text>
<text text-anchor="start" x="997" y="-1512.3" font-family="Arial" font-size="24.00" fill="#ffffff">API that handles capture,</text>
<text text-anchor="start" x="993.5" y="-1488.3" font-family="Arial" font-size="24.00" fill="#ffffff">visit events, media artifact</text>
<text text-anchor="start" x="996.5" y="-1464.3" font-family="Arial" font-size="24.00" fill="#ffffff">upload/fetch/purge, exact</text>
<text text-anchor="start" x="1093" y="-1440.3" font-family="Arial" font-size="24.00" fill="#ffffff">search,</text>
<text text-anchor="start" x="984" y="-1416.3" font-family="Arial" font-size="24.00" fill="#ffffff">recent/timeline/detail, policy</text>
<text text-anchor="start" x="981.5" y="-1392.3" font-family="Arial" font-size="24.00" fill="#ffffff">rules, doctor, durable forget,</text>
<text text-anchor="start" x="1020" y="-1368.3" font-family="Arial" font-size="24.00" fill="#ffffff">and static UI serving.</text>
</g>
<!-- 39 -->
<g id="39" class="node">
<title>39</title>
<path fill="#2f95c8" stroke="#20688c" d="M2215.5,-675.22C2215.5,-703.44 2126.98,-726.38 2018,-726.38 1909.02,-726.38 1820.5,-703.44 1820.5,-675.22 1820.5,-675.22 1820.5,-214.78 1820.5,-214.78 1820.5,-186.56 1909.02,-163.62 2018,-163.62 2126.98,-163.62 2215.5,-186.56 2215.5,-214.78 2215.5,-214.78 2215.5,-675.22 2215.5,-675.22"/>
<path fill="none" stroke="#20688c" d="M2215.5,-675.22C2215.5,-646.99 2126.98,-624.06 2018,-624.06 1909.02,-624.06 1820.5,-646.99 1820.5,-675.22"/>
<text text-anchor="start" x="1905" y="-601.3" font-family="Arial" font-size="34.00" fill="#ffffff">SQLite + FTS5</text>
<text text-anchor="start" x="1945" y="-567.3" font-family="Arial" font-size="34.00" fill="#ffffff">Database</text>
<text text-anchor="start" x="1892" y="-545.3" font-family="Arial" font-size="19.00" fill="#ffffff">[Container: SQLite with FTS5]</text>
<text text-anchor="start" x="1850" y="-508.3" font-family="Arial" font-size="24.00" fill="#ffffff">Durable complete cleaned&#45;text,</text>
<text text-anchor="start" x="1899" y="-484.3" font-family="Arial" font-size="24.00" fill="#ffffff">relational, and full&#45;text</text>
<text text-anchor="start" x="1900.5" y="-460.3" font-family="Arial" font-size="24.00" fill="#ffffff">authority for migration</text>
<text text-anchor="start" x="1866" y="-436.3" font-family="Arial" font-size="24.00" fill="#ffffff">ledger, sources, documents,</text>
<text text-anchor="start" x="1868.5" y="-412.3" font-family="Arial" font-size="24.00" fill="#ffffff">visits, capture observations,</text>
<text text-anchor="start" x="1887" y="-388.3" font-family="Arial" font-size="24.00" fill="#ffffff">URL claims, visit events,</text>
<text text-anchor="start" x="1849.5" y="-364.3" font-family="Arial" font-size="24.00" fill="#ffffff">snapshots, chunks, chunks_fts,</text>
<text text-anchor="start" x="1857" y="-340.3" font-family="Arial" font-size="24.00" fill="#ffffff">media provenance/tasks, blob</text>
<text text-anchor="start" x="1893.5" y="-316.3" font-family="Arial" font-size="24.00" fill="#ffffff">lifecycle records, policy</text>
<text text-anchor="start" x="1892.5" y="-292.3" font-family="Arial" font-size="24.00" fill="#ffffff">rules, audit events, and</text>
<text text-anchor="start" x="1926" y="-268.3" font-family="Arial" font-size="24.00" fill="#ffffff">deletion receipts.</text>
</g>
<!-- 14&#45;&gt;39 -->
<g id="61" class="edge">
<title>14&#45;&gt;39</title>
<path fill="none" stroke="#444444" stroke-dasharray="5,2" d="M1328.86,-1340.43C1342.19,-1323.1 1354.2,-1304.88 1364,-1286 1411.26,-1194.94 1353.3,-1149.34 1400,-1058 1496.56,-869.15 1672.92,-702.98 1812.43,-591.47"/>
<polygon fill="#444444" stroke="#444444" points="1814.66,-594.17 1820.3,-585.2 1810.3,-588.69 1814.66,-594.17"/>
<polygon fill="white" stroke="transparent" points="1400,-1058 1400,-1157 1710,-1157 1710,-1058 1400,-1058"/>
<text text-anchor="start" x="1404" y="-1134.3" font-family="Arial" font-size="24.00" fill="#444444">Reads and writes metadata,</text>
<text text-anchor="start" x="1437" y="-1110.3" font-family="Arial" font-size="24.00" fill="#444444">FTS, tasks, audit, and</text>
<text text-anchor="start" x="1499.5" y="-1086.3" font-family="Arial" font-size="24.00" fill="#444444">receipts in</text>
<text text-anchor="start" x="1521.5" y="-1066.3" font-family="Arial" font-size="19.00" fill="#444444">[sqlite3]</text>
</g>
<!-- 40 -->
<g id="40" class="node">
<title>40</title>
<path fill="#2f95c8" stroke="#20688c" d="M2215.5,-1129.22C2215.5,-1147.51 2126.98,-1162.38 2018,-1162.38 1909.02,-1162.38 1820.5,-1147.51 1820.5,-1129.22 1820.5,-1129.22 1820.5,-830.78 1820.5,-830.78 1820.5,-812.49 1909.02,-797.62 2018,-797.62 2126.98,-797.62 2215.5,-812.49 2215.5,-830.78 2215.5,-830.78 2215.5,-1129.22 2215.5,-1129.22"/>
<path fill="none" stroke="#20688c" d="M2215.5,-1129.22C2215.5,-1110.92 2126.98,-1096.06 2018,-1096.06 1909.02,-1096.06 1820.5,-1110.92 1820.5,-1129.22"/>
<text text-anchor="start" x="1896.5" y="-1064.3" font-family="Arial" font-size="34.00" fill="#ffffff">Local Derivative</text>
<text text-anchor="start" x="1977" y="-1030.3" font-family="Arial" font-size="34.00" fill="#ffffff">Store</text>
<text text-anchor="start" x="1878" y="-1008.3" font-family="Arial" font-size="19.00" fill="#ffffff">[Container: WSL local filesystem]</text>
<text text-anchor="start" x="1864.5" y="-971.3" font-family="Arial" font-size="24.00" fill="#ffffff">Reconstructible compatibility</text>
<text text-anchor="start" x="1849.5" y="-947.3" font-family="Arial" font-size="24.00" fill="#ffffff">evidence such as pre&#45;version&#45;9</text>
<text text-anchor="start" x="1888" y="-923.3" font-family="Arial" font-size="24.00" fill="#ffffff">clean&#45;text sidecars; new</text>
<text text-anchor="start" x="1894.5" y="-899.3" font-family="Arial" font-size="24.00" fill="#ffffff">captures create no text</text>
<text text-anchor="start" x="1969.5" y="-875.3" font-family="Arial" font-size="24.00" fill="#ffffff">sidecars.</text>
</g>
<!-- 14&#45;&gt;40 -->
<g id="62" class="edge">
<title>14&#45;&gt;40</title>
<path fill="none" stroke="#444444" stroke-dasharray="5,2" d="M1364.25,-1373.79C1376.33,-1366.75 1388.31,-1359.78 1400,-1353 1537.41,-1273.26 1574.02,-1257.17 1710,-1175 1743.13,-1154.98 1778,-1133.37 1811.87,-1112.07"/>
<polygon fill="#444444" stroke="#444444" points="1813.86,-1114.95 1820.46,-1106.66 1810.13,-1109.03 1813.86,-1114.95"/>
<polygon fill="white" stroke="transparent" points="1421,-1353 1421,-1452 1689,-1452 1689,-1353 1421,-1353"/>
<text text-anchor="start" x="1425" y="-1429.3" font-family="Arial" font-size="24.00" fill="#444444">Reads or deletes legacy</text>
<text text-anchor="start" x="1454.5" y="-1405.3" font-family="Arial" font-size="24.00" fill="#444444">text sidecars when</text>
<text text-anchor="start" x="1510" y="-1381.3" font-family="Arial" font-size="24.00" fill="#444444">required</text>
<text text-anchor="start" x="1503.5" y="-1361.3" font-family="Arial" font-size="19.00" fill="#444444">[Filesystem]</text>
</g>
<!-- 41 -->
<g id="41" class="node">
<title>41</title>
<path fill="#2f95c8" stroke="#20688c" d="M2290,-1625.22C2290,-1646.82 2168.09,-1664.38 2018,-1664.38 1867.91,-1664.38 1746,-1646.82 1746,-1625.22 1746,-1625.22 1746,-1272.78 1746,-1272.78 1746,-1251.18 1867.91,-1233.62 2018,-1233.62 2168.09,-1233.62 2290,-1251.18 2290,-1272.78 2290,-1272.78 2290,-1625.22 2290,-1625.22"/>
<path fill="none" stroke="#20688c" d="M2290,-1625.22C2290,-1603.61 2168.09,-1586.06 2018,-1586.06 1867.91,-1586.06 1746,-1603.61 1746,-1625.22"/>
<text text-anchor="start" x="1862.5" y="-1557.3" font-family="Arial" font-size="34.00" fill="#ffffff">Guarded Media Blob</text>
<text text-anchor="start" x="1968.5" y="-1523.3" font-family="Arial" font-size="34.00" fill="#ffffff">Cache</text>
<text text-anchor="start" x="1775" y="-1501.3" font-family="Arial" font-size="19.00" fill="#ffffff">[Container: WSL&#45;visible local or NAS&#45;mounted filesystem]</text>
<text text-anchor="start" x="1908" y="-1464.3" font-family="Arial" font-size="24.00" fill="#ffffff">Bounded disposable</text>
<text text-anchor="start" x="1852.5" y="-1440.3" font-family="Arial" font-size="24.00" fill="#ffffff">image/video/audio bytes under</text>
<text text-anchor="start" x="1876.5" y="-1416.3" font-family="Arial" font-size="24.00" fill="#ffffff">the configured media root;</text>
<text text-anchor="start" x="1904" y="-1392.3" font-family="Arial" font-size="24.00" fill="#ffffff">explicit external roots</text>
<text text-anchor="start" x="1919" y="-1368.3" font-family="Arial" font-size="24.00" fill="#ffffff">require mount and</text>
<text text-anchor="start" x="1868.5" y="-1344.3" font-family="Arial" font-size="24.00" fill="#ffffff">identity&#45;marker proof before</text>
<text text-anchor="start" x="1977" y="-1320.3" font-family="Arial" font-size="24.00" fill="#ffffff">access.</text>
</g>
<!-- 14&#45;&gt;41 -->
<g id="63" class="edge">
<title>14&#45;&gt;41</title>
<path fill="none" stroke="#444444" stroke-dasharray="5,2" d="M1364.27,-1493.35C1477.84,-1485.64 1615.8,-1476.26 1735.59,-1468.12"/>
<polygon fill="#444444" stroke="#444444" points="1735.9,-1471.61 1745.64,-1467.44 1735.43,-1464.62 1735.9,-1471.61"/>
<polygon fill="white" stroke="transparent" points="1401,-1489 1401,-1588 1709,-1588 1709,-1489 1401,-1489"/>
<text text-anchor="start" x="1430" y="-1565.3" font-family="Arial" font-size="24.00" fill="#444444">Stores, serves, purges,</text>
<text text-anchor="start" x="1405" y="-1541.3" font-family="Arial" font-size="24.00" fill="#444444">and rehydrates media blobs</text>
<text text-anchor="start" x="1545.5" y="-1517.3" font-family="Arial" font-size="24.00" fill="#444444">in</text>
<text text-anchor="start" x="1503.5" y="-1497.3" font-family="Arial" font-size="19.00" fill="#444444">[Filesystem]</text>
</g>
<!-- 42 -->
<g id="42" class="node">
<title>42</title>
<path fill="#2f95c8" stroke="#20688c" d="M2211,-2157.72C2211,-2180.98 2124.49,-2199.88 2018,-2199.88 1911.51,-2199.88 1825,-2180.98 1825,-2157.72 1825,-2157.72 1825,-1778.28 1825,-1778.28 1825,-1755.02 1911.51,-1736.12 2018,-1736.12 2124.49,-1736.12 2211,-1755.02 2211,-1778.28 2211,-1778.28 2211,-2157.72 2211,-2157.72"/>
<path fill="none" stroke="#20688c" d="M2211,-2157.72C2211,-2134.45 2124.49,-2115.56 2018,-2115.56 1911.51,-2115.56 1825,-2134.45 1825,-2157.72"/>
<text text-anchor="start" x="1854" y="-2088.3" font-family="Arial" font-size="34.00" fill="#ffffff">Bounded Local Media</text>
<text text-anchor="start" x="1974.5" y="-2054.3" font-family="Arial" font-size="34.00" fill="#ffffff">Spool</text>
<text text-anchor="start" x="1878" y="-2032.3" font-family="Arial" font-size="19.00" fill="#ffffff">[Container: WSL local filesystem]</text>
<text text-anchor="start" x="1866" y="-1995.3" font-family="Arial" font-size="24.00" fill="#ffffff">Opt&#45;in durable outage buffer</text>
<text text-anchor="start" x="1869.5" y="-1971.3" font-family="Arial" font-size="24.00" fill="#ffffff">beneath the local WSL data</text>
<text text-anchor="start" x="1896.5" y="-1947.3" font-family="Arial" font-size="24.00" fill="#ffffff">root; admission counts</text>
<text text-anchor="start" x="1872.5" y="-1923.3" font-family="Arial" font-size="24.00" fill="#ffffff">committed files and distinct</text>
<text text-anchor="start" x="1866" y="-1899.3" font-family="Arial" font-size="24.00" fill="#ffffff">in&#45;flight SQLite reservations,</text>
<text text-anchor="start" x="1893" y="-1875.3" font-family="Arial" font-size="24.00" fill="#ffffff">and drain verifies bytes</text>
<text text-anchor="start" x="1870.5" y="-1851.3" font-family="Arial" font-size="24.00" fill="#ffffff">before tier transition/source</text>
<text text-anchor="start" x="1972" y="-1827.3" font-family="Arial" font-size="24.00" fill="#ffffff">cleanup.</text>
</g>
<!-- 14&#45;&gt;42 -->
<g id="64" class="edge">
<title>14&#45;&gt;42</title>
<path fill="none" stroke="#444444" stroke-dasharray="5,2" d="M1364.11,-1593.61C1376.23,-1597.85 1388.25,-1602 1400,-1606 1536.8,-1652.54 1583.76,-1633.68 1710,-1704 1746.53,-1724.35 1782.66,-1749.49 1816.6,-1776.1"/>
<polygon fill="#444444" stroke="#444444" points="1814.7,-1779.07 1824.72,-1782.53 1819.05,-1773.58 1814.7,-1779.07"/>
<polygon fill="white" stroke="transparent" points="1417,-1704 1417,-1803 1693,-1803 1693,-1704 1417,-1704"/>
<text text-anchor="start" x="1421" y="-1780.3" font-family="Arial" font-size="24.00" fill="#444444">Stores and serves media</text>
<text text-anchor="start" x="1448" y="-1756.3" font-family="Arial" font-size="24.00" fill="#444444">during guarded&#45;root</text>
<text text-anchor="start" x="1499" y="-1732.3" font-family="Arial" font-size="24.00" fill="#444444">outages in</text>
<text text-anchor="start" x="1503.5" y="-1712.3" font-family="Arial" font-size="19.00" fill="#444444">[Filesystem]</text>
</g>
<!-- 36 -->
<g id="36" class="node">
<title>36</title>
<polygon fill="#438dd5" stroke="#2e6295" points="546,-2027.5 34,-2027.5 34,-1772.5 546,-1772.5 546,-2027.5"/>
<text text-anchor="start" x="187.5" y="-1979.3" font-family="Arial" font-size="34.00" fill="#ffffff">Local Web UI</text>
<text text-anchor="start" x="63" y="-1957.3" font-family="Arial" font-size="19.00" fill="#ffffff">[Container: HTML/CSS/JavaScript served by daemon]</text>
<text text-anchor="start" x="148" y="-1920.3" font-family="Arial" font-size="24.00" fill="#ffffff">Static browser UI for exact</text>
<text text-anchor="start" x="131" y="-1896.3" font-family="Arial" font-size="24.00" fill="#ffffff">search, recent/timeline views,</text>
<text text-anchor="start" x="148.5" y="-1872.3" font-family="Arial" font-size="24.00" fill="#ffffff">document/snapshot detail,</text>
<text text-anchor="start" x="133" y="-1848.3" font-family="Arial" font-size="24.00" fill="#ffffff">media artifact opening, policy</text>
<text text-anchor="start" x="196.5" y="-1824.3" font-family="Arial" font-size="24.00" fill="#ffffff">rules, doctor, and</text>
<text text-anchor="start" x="151.5" y="-1800.3" font-family="Arial" font-size="24.00" fill="#ffffff">forget&#45;domain operations.</text>
</g>
<!-- 36&#45;&gt;14 -->
<g id="53" class="edge">
<title>36&#45;&gt;14</title>
<path fill="none" stroke="#444444" stroke-dasharray="5,2" d="M546.18,-1781.36C656.31,-1730.16 784.44,-1670.59 892.73,-1620.24"/>
<polygon fill="#444444" stroke="#444444" points="894.22,-1623.41 901.81,-1616.02 891.27,-1617.06 894.22,-1623.41"/>
<polygon fill="white" stroke="transparent" points="586,-1762 586,-1861 863,-1861 863,-1762 586,-1762"/>
<text text-anchor="start" x="591" y="-1838.3" font-family="Arial" font-size="24.00" fill="#444444">Calls authenticated read,</text>
<text text-anchor="start" x="590.5" y="-1814.3" font-family="Arial" font-size="24.00" fill="#444444">admin, media, and forget</text>
<text text-anchor="start" x="682.5" y="-1790.3" font-family="Arial" font-size="24.00" fill="#444444">APIs on</text>
<text text-anchor="start" x="667" y="-1770.3" font-family="Arial" font-size="19.00" fill="#444444">[HTTP/JSON]</text>
</g>
<!-- 37 -->
<g id="37" class="node">
<title>37</title>
<polygon fill="#438dd5" stroke="#2e6295" points="547,-1380.5 33,-1380.5 33,-1005.5 547,-1005.5 547,-1380.5"/>
<text text-anchor="start" x="263" y="-1332.3" font-family="Arial" font-size="34.00" fill="#ffffff">CLI</text>
<text text-anchor="start" x="169" y="-1310.3" font-family="Arial" font-size="19.00" fill="#ffffff">[Container: Python argparse]</text>
<text text-anchor="start" x="143.5" y="-1273.3" font-family="Arial" font-size="24.00" fill="#ffffff">Command&#45;line interface for</text>
<text text-anchor="start" x="123" y="-1249.3" font-family="Arial" font-size="24.00" fill="#ffffff">serving the daemon, migration,</text>
<text text-anchor="start" x="149.5" y="-1225.3" font-family="Arial" font-size="24.00" fill="#ffffff">snapshot&#45;text and storage</text>
<text text-anchor="start" x="216" y="-1201.3" font-family="Arial" font-size="24.00" fill="#ffffff">reconciliation,</text>
<text text-anchor="start" x="201" y="-1177.3" font-family="Arial" font-size="24.00" fill="#ffffff">manifest&#45;backed</text>
<text text-anchor="start" x="136.5" y="-1153.3" font-family="Arial" font-size="24.00" fill="#ffffff">backup/restore, media&#45;spool</text>
<text text-anchor="start" x="223.5" y="-1129.3" font-family="Arial" font-size="24.00" fill="#ffffff">status/drain,</text>
<text text-anchor="start" x="62" y="-1105.3" font-family="Arial" font-size="24.00" fill="#ffffff">health/doctor/search/recent/timeline/detail,</text>
<text text-anchor="start" x="177" y="-1081.3" font-family="Arial" font-size="24.00" fill="#ffffff">policy/forget, capture</text>
<text text-anchor="start" x="145" y="-1057.3" font-family="Arial" font-size="24.00" fill="#ffffff">fixtures, media worker, and</text>
<text text-anchor="start" x="157.5" y="-1033.3" font-family="Arial" font-size="24.00" fill="#ffffff">media cache operations.</text>
</g>
<!-- 37&#45;&gt;14 -->
<g id="54" class="edge">
<title>37&#45;&gt;14</title>
<path fill="none" stroke="#444444" stroke-dasharray="5,2" d="M547.04,-1289.2C656.91,-1330.49 784.56,-1378.45 892.52,-1419.02"/>
<polygon fill="#444444" stroke="#444444" points="891.32,-1422.31 901.91,-1422.55 893.78,-1415.75 891.32,-1422.31"/>
<polygon fill="white" stroke="transparent" points="583,-1406 583,-1505 866,-1505 866,-1406 583,-1406"/>
<text text-anchor="start" x="587.5" y="-1482.3" font-family="Arial" font-size="24.00" fill="#444444">Calls health, read, admin,</text>
<text text-anchor="start" x="620" y="-1458.3" font-family="Arial" font-size="24.00" fill="#444444">capture&#45;fixture, and</text>
<text text-anchor="start" x="649" y="-1434.3" font-family="Arial" font-size="24.00" fill="#444444">forget APIs on</text>
<text text-anchor="start" x="667" y="-1414.3" font-family="Arial" font-size="19.00" fill="#444444">[HTTP/JSON]</text>
</g>
<!-- 37&#45;&gt;39 -->
<g id="55" class="edge">
<title>37&#45;&gt;39</title>
<path fill="none" stroke="#444444" stroke-dasharray="5,2" d="M547.26,-1017.23C559.33,-1009.03 571.29,-1000.92 583,-993 724.22,-897.5 747.78,-852.66 902,-780 1204.5,-637.48 1581.67,-539.26 1810.68,-487.6"/>
<polygon fill="#444444" stroke="#444444" points="1811.46,-491.01 1820.45,-485.41 1809.93,-484.18 1811.46,-491.01"/>
<polygon fill="white" stroke="transparent" points="973,-780 973,-927 1293,-927 1293,-780 973,-780"/>
<text text-anchor="start" x="1048" y="-904.3" font-family="Arial" font-size="24.00" fill="#444444">Runs migration,</text>
<text text-anchor="start" x="980.5" y="-880.3" font-family="Arial" font-size="24.00" fill="#444444">media&#45;worker, media&#45;cache,</text>
<text text-anchor="start" x="1039.5" y="-856.3" font-family="Arial" font-size="24.00" fill="#444444">media&#45;spool, and</text>
<text text-anchor="start" x="977" y="-832.3" font-family="Arial" font-size="24.00" fill="#444444">storage&#45;reconcile commands</text>
<text text-anchor="start" x="1093.5" y="-808.3" font-family="Arial" font-size="24.00" fill="#444444">against</text>
<text text-anchor="start" x="1099.5" y="-788.3" font-family="Arial" font-size="19.00" fill="#444444">[sqlite3]</text>
</g>
<!-- 37&#45;&gt;40 -->
<g id="139" class="edge">
<title>37&#45;&gt;40</title>
<path fill="none" stroke="#444444" stroke-dasharray="5,2" d="M547.04,-1101.16C655.28,-1065.66 783.5,-1027.9 902,-1004 1254.67,-932.86 1350.53,-940.39 1710,-955 1742.32,-956.31 1776.51,-958.4 1809.88,-960.83"/>
<polygon fill="#444444" stroke="#444444" points="1809.97,-964.34 1820.2,-961.59 1810.49,-957.36 1809.97,-964.34"/>
<polygon fill="white" stroke="transparent" points="1014.5,-1004 1014.5,-1103 1251.5,-1103 1251.5,-1004 1014.5,-1004"/>
<text text-anchor="start" x="1041.5" y="-1080.3" font-family="Arial" font-size="24.00" fill="#444444">Optionally copies</text>
<text text-anchor="start" x="1019" y="-1056.3" font-family="Arial" font-size="24.00" fill="#444444">referenced contained</text>
<text text-anchor="start" x="1047.5" y="-1032.3" font-family="Arial" font-size="24.00" fill="#444444">derivatives from</text>
<text text-anchor="start" x="1082" y="-1012.3" font-family="Arial" font-size="19.00" fill="#444444">[Filesystem]</text>
</g>
<!-- 37&#45;&gt;41 -->
<g id="58" class="edge">
<title>37&#45;&gt;41</title>
<path fill="none" stroke="#444444" stroke-dasharray="5,2" d="M547.13,-1189.48C941.15,-1184.7 1656.45,-1178.79 1710,-1198 1737.95,-1208.03 1765.19,-1221.8 1791.17,-1237.77"/>
<polygon fill="#444444" stroke="#444444" points="1789.6,-1240.91 1799.93,-1243.26 1793.32,-1234.98 1789.6,-1240.91"/>
<polygon fill="white" stroke="transparent" points="1006,-1185 1006,-1260 1260,-1260 1260,-1185 1006,-1185"/>
<text text-anchor="start" x="1010" y="-1237.3" font-family="Arial" font-size="24.00" fill="#444444">Purges and rehydrates</text>
<text text-anchor="start" x="1023" y="-1213.3" font-family="Arial" font-size="24.00" fill="#444444">media blobs through</text>
<text text-anchor="start" x="1081.5" y="-1193.3" font-family="Arial" font-size="19.00" fill="#444444">[Filesystem]</text>
</g>
<!-- 37&#45;&gt;42 -->
<g id="59" class="edge">
<title>37&#45;&gt;42</title>
<path fill="none" stroke="#444444" stroke-dasharray="5,2" d="M439.32,-1380.7C482.82,-1429.94 532.38,-1480.97 583,-1523 946.5,-1824.82 1514.13,-1922.33 1814.61,-1953.54"/>
<polygon fill="#444444" stroke="#444444" points="1814.44,-1957.04 1824.74,-1954.57 1815.15,-1950.07 1814.44,-1957.04"/>
<polygon fill="white" stroke="transparent" points="975.5,-1874 975.5,-1949 1290.5,-1949 1290.5,-1874 975.5,-1874"/>
<text text-anchor="start" x="980" y="-1926.3" font-family="Arial" font-size="24.00" fill="#444444">Reports and drains bounded</text>
<text text-anchor="start" x="1019" y="-1902.3" font-family="Arial" font-size="24.00" fill="#444444">outage bytes through</text>
<text text-anchor="start" x="1082" y="-1882.3" font-family="Arial" font-size="19.00" fill="#444444">[Filesystem]</text>
</g>
</g>
</svg>
