<?xml version="1.0" encoding="UTF-8" standalone="no"?>
<!DOCTYPE svg PUBLIC "-//W3C//DTD SVG 1.1//EN"
 "http://www.w3.org/Graphics/SVG/1.1/DTD/svg11.dtd">
<!-- Generated by graphviz version 2.43.0 (0)
 -->
<!-- Title: %3 Pages: 1 -->
<svg width="2126pt" height="735pt"
 viewBox="0.00 0.00 2126.00 735.00" xmlns="http://www.w3.org/2000/svg" xmlns:xlink="http://www.w3.org/1999/xlink">
<g id="graph0" class="graph" transform="scale(1 1) rotate(0) translate(4 731)">
<title>%3</title>
<polygon fill="white" stroke="transparent" points="-4,4 -4,-731 2122,-731 2122,4 -4,4"/>
<text text-anchor="start" x="474" y="-11.8" font-family="Arial" font-size="34.00">Component View: Browser Memory Daemon &#45; WSL Loopback HTTP Daemon</text>
<g id="clust1" class="cluster">
<title>cluster_4</title>
<polygon fill="none" stroke="#444444" points="8,-64 8,-719 2110,-719 2110,-64 8,-64"/>
<text text-anchor="start" x="918" y="-92.8" font-family="Arial" font-size="24.00" fill="#444444">Browser Memory Daemon</text>
<text text-anchor="start" x="982" y="-72.8" font-family="Arial" font-size="19.00" fill="#444444">[Software System]</text>
</g>
<g id="clust2" class="cluster">
<title>cluster_14</title>
<polygon fill="none" stroke="#444444" points="33,-165 33,-617 1349,-617 1349,-165 33,-165"/>
<text text-anchor="start" x="525.5" y="-193.8" font-family="Arial" font-size="24.00" fill="#444444">WSL Loopback HTTP Daemon</text>
<text text-anchor="start" x="489" y="-173.8" font-family="Arial" font-size="19.00" fill="#444444">[Container: Python 3.11, ThreadingHTTPServer]</text>
</g>
<!-- 15 -->
<g id="15" class="node">
<title>15</title>
<polygon fill="#85bbf0" stroke="#1168bd" points="453,-544.5 58,-544.5 58,-313.5 453,-313.5 453,-544.5"/>
<text text-anchor="start" x="87" y="-496.3" font-family="Arial" font-size="34.00" fill="#000000">HTTP Request Router</text>
<text text-anchor="start" x="119" y="-474.3" font-family="Arial" font-size="19.00" fill="#000000">[Component: Python http.server]</text>
<text text-anchor="start" x="90" y="-437.3" font-family="Arial" font-size="24.00" fill="#000000">Routes loopback API requests,</text>
<text text-anchor="start" x="112.5" y="-413.3" font-family="Arial" font-size="24.00" fill="#000000">serves UI assets, enforces</text>
<text text-anchor="start" x="91.5" y="-389.3" font-family="Arial" font-size="24.00" fill="#000000">bearer auth for memory/admin</text>
<text text-anchor="start" x="106" y="-365.3" font-family="Arial" font-size="24.00" fill="#000000">APIs, and applies CORS for</text>
<text text-anchor="start" x="172" y="-341.3" font-family="Arial" font-size="24.00" fill="#000000">allowed origins.</text>
</g>
<!-- 19 -->
<g id="19" class="node">
<title>19</title>
<polygon fill="#85bbf0" stroke="#1168bd" points="1324,-592.5 815,-592.5 815,-265.5 1324,-265.5 1324,-592.5"/>
<text text-anchor="start" x="958" y="-544.3" font-family="Arial" font-size="34.00" fill="#000000">Ingest Pipeline</text>
<text text-anchor="start" x="941.5" y="-522.3" font-family="Arial" font-size="19.00" fill="#000000">[Component: Python + sqlite3]</text>
<text text-anchor="start" x="919" y="-485.3" font-family="Arial" font-size="24.00" fill="#000000">Normalizes observed URLs,</text>
<text text-anchor="start" x="907.5" y="-461.3" font-family="Arial" font-size="24.00" fill="#000000">computes document/snapshot</text>
<text text-anchor="start" x="954.5" y="-437.3" font-family="Arial" font-size="24.00" fill="#000000">IDs, atomically stores</text>
<text text-anchor="start" x="926" y="-413.3" font-family="Arial" font-size="24.00" fill="#000000">complete cleaned text plus</text>
<text text-anchor="start" x="844" y="-389.3" font-family="Arial" font-size="24.00" fill="#000000">visits/observations/snapshots/chunks/FTS</text>
<text text-anchor="start" x="996.5" y="-365.3" font-family="Arial" font-size="24.00" fill="#000000">rows, records</text>
<text text-anchor="start" x="911" y="-341.3" font-family="Arial" font-size="24.00" fill="#000000">non&#45;authoritative URL claims,</text>
<text text-anchor="start" x="924.5" y="-317.3" font-family="Arial" font-size="24.00" fill="#000000">and links media references</text>
<text text-anchor="start" x="908.5" y="-293.3" font-family="Arial" font-size="24.00" fill="#000000">without touching blob storage.</text>
</g>
<!-- 15&#45;&gt;19 -->
<g id="66" class="edge">
<title>15&#45;&gt;19</title>
<path fill="none" stroke="#444444" stroke-dasharray="5,2" d="M453.06,-429C558.65,-429 690.26,-429 804.65,-429"/>
<polygon fill="#444444" stroke="#444444" points="804.96,-432.5 814.96,-429 804.96,-425.5 804.96,-432.5"/>
<polygon fill="white" stroke="transparent" points="489,-429 489,-489 779,-489 779,-429 489,-429"/>
<text text-anchor="start" x="493" y="-465.8" font-family="Arial" font-size="24.00" fill="#444444">Routes accepted captures</text>
<text text-anchor="start" x="623.5" y="-439.8" font-family="Arial" font-size="24.00" fill="#444444">to</text>
</g>
<!-- 29 -->
<g id="29" class="node">
<title>29</title>
<path fill="#2f95c8" stroke="#20688c" d="M2085,-645.72C2085,-672.29 1996.25,-693.88 1887,-693.88 1777.75,-693.88 1689,-672.29 1689,-645.72 1689,-645.72 1689,-212.28 1689,-212.28 1689,-185.71 1777.75,-164.12 1887,-164.12 1996.25,-164.12 2085,-185.71 2085,-212.28 2085,-212.28 2085,-645.72 2085,-645.72"/>
<path fill="none" stroke="#20688c" d="M2085,-645.72C2085,-619.14 1996.25,-597.56 1887,-597.56 1777.75,-597.56 1689,-619.14 1689,-645.72"/>
<text text-anchor="start" x="1774" y="-573.3" font-family="Arial" font-size="34.00" fill="#ffffff">SQLite + FTS5</text>
<text text-anchor="start" x="1814" y="-539.3" font-family="Arial" font-size="34.00" fill="#ffffff">Database</text>
<text text-anchor="start" x="1761" y="-517.3" font-family="Arial" font-size="19.00" fill="#ffffff">[Container: SQLite with FTS5]</text>
<text text-anchor="start" x="1719" y="-480.3" font-family="Arial" font-size="24.00" fill="#ffffff">Durable complete cleaned&#45;text,</text>
<text text-anchor="start" x="1768" y="-456.3" font-family="Arial" font-size="24.00" fill="#ffffff">relational, and full&#45;text</text>
<text text-anchor="start" x="1769.5" y="-432.3" font-family="Arial" font-size="24.00" fill="#ffffff">authority for migration</text>
<text text-anchor="start" x="1735" y="-408.3" font-family="Arial" font-size="24.00" fill="#ffffff">ledger, sources, documents,</text>
<text text-anchor="start" x="1737.5" y="-384.3" font-family="Arial" font-size="24.00" fill="#ffffff">visits, capture observations,</text>
<text text-anchor="start" x="1756" y="-360.3" font-family="Arial" font-size="24.00" fill="#ffffff">URL claims, visit events,</text>
<text text-anchor="start" x="1718.5" y="-336.3" font-family="Arial" font-size="24.00" fill="#ffffff">snapshots, chunks, chunks_fts,</text>
<text text-anchor="start" x="1718" y="-312.3" font-family="Arial" font-size="24.00" fill="#ffffff">media provenance/tasks, policy</text>
<text text-anchor="start" x="1761.5" y="-288.3" font-family="Arial" font-size="24.00" fill="#ffffff">rules, audit events, and</text>
<text text-anchor="start" x="1795" y="-264.3" font-family="Arial" font-size="24.00" fill="#ffffff">deletion receipts.</text>
</g>
<!-- 19&#45;&gt;29 -->
<g id="73" class="edge">
<title>19&#45;&gt;29</title>
<path fill="none" stroke="#444444" stroke-dasharray="5,2" d="M1324.06,-429C1438.09,-429 1570.99,-429 1678.91,-429"/>
<polygon fill="#444444" stroke="#444444" points="1678.94,-432.5 1688.94,-429 1678.94,-425.5 1678.94,-432.5"/>
<polygon fill="white" stroke="transparent" points="1360,-429 1360,-528 1653,-528 1653,-429 1360,-429"/>
<text text-anchor="start" x="1364.5" y="-505.3" font-family="Arial" font-size="24.00" fill="#444444">Atomically writes complete</text>
<text text-anchor="start" x="1394" y="-481.3" font-family="Arial" font-size="24.00" fill="#444444">cleaned text, capture</text>
<text text-anchor="start" x="1414.5" y="-457.3" font-family="Arial" font-size="24.00" fill="#444444">rows, and FTS to</text>
<text text-anchor="start" x="1473.5" y="-437.3" font-family="Arial" font-size="19.00" fill="#444444">[sqlite3]</text>
</g>
</g>
</svg>
