<?xml version="1.0" encoding="UTF-8" standalone="no"?>
<!DOCTYPE svg PUBLIC "-//W3C//DTD SVG 1.1//EN"
 "http://www.w3.org/Graphics/SVG/1.1/DTD/svg11.dtd">
<!-- Generated by graphviz version 2.43.0 (0)
 -->
<!-- Title: %3 Pages: 1 -->
<svg width="2885pt" height="1103pt"
 viewBox="0.00 0.00 2885.00 1103.00" xmlns="http://www.w3.org/2000/svg" xmlns:xlink="http://www.w3.org/1999/xlink">
<g id="graph0" class="graph" transform="scale(1 1) rotate(0) translate(4 1099)">
<title>%3</title>
<polygon fill="white" stroke="transparent" points="-4,4 -4,-1099 2881,-1099 2881,4 -4,4"/>
<text text-anchor="start" x="853.5" y="-11.8" font-family="Arial" font-size="34.00">Component View: Browser Memory Daemon &#45; WSL Loopback HTTP Daemon</text>
<g id="clust1" class="cluster">
<title>cluster_4</title>
<polygon fill="none" stroke="#444444" points="8,-64 8,-1087 2869,-1087 2869,-64 8,-64"/>
<text text-anchor="start" x="1297.5" y="-92.8" font-family="Arial" font-size="24.00" fill="#444444">Browser Memory Daemon</text>
<text text-anchor="start" x="1361.5" y="-72.8" font-family="Arial" font-size="19.00" fill="#444444">[Software System]</text>
</g>
<g id="clust2" class="cluster">
<title>cluster_14</title>
<polygon fill="none" stroke="#444444" points="903,-408 903,-813 2129,-813 2129,-408 903,-408"/>
<text text-anchor="start" x="1350.5" y="-436.8" font-family="Arial" font-size="24.00" fill="#444444">WSL Loopback HTTP Daemon</text>
<text text-anchor="start" x="1314" y="-416.8" font-family="Arial" font-size="19.00" fill="#444444">[Container: Python 3.11, ThreadingHTTPServer]</text>
</g>
<!-- 23 -->
<g id="23" class="node">
<title>23</title>
<polygon fill="#85bbf0" stroke="#1168bd" points="2104,-787.5 1701,-787.5 1701,-508.5 2104,-508.5 2104,-787.5"/>
<text text-anchor="start" x="1730" y="-739.3" font-family="Arial" font-size="34.00" fill="#000000">Media Task Repository</text>
<text text-anchor="start" x="1774.5" y="-717.3" font-family="Arial" font-size="19.00" fill="#000000">[Component: Python + sqlite3]</text>
<text text-anchor="start" x="1753.5" y="-680.3" font-family="Arial" font-size="24.00" fill="#000000">Creates deterministic tasks,</text>
<text text-anchor="start" x="1769.5" y="-656.3" font-family="Arial" font-size="24.00" fill="#000000">preserves terminal state,</text>
<text text-anchor="start" x="1754.5" y="-632.3" font-family="Arial" font-size="24.00" fill="#000000">atomically leases due work,</text>
<text text-anchor="start" x="1761.5" y="-608.3" font-family="Arial" font-size="24.00" fill="#000000">recovers stale leases, and</text>
<text text-anchor="start" x="1743.5" y="-584.3" font-family="Arial" font-size="24.00" fill="#000000">applies bounded retry/backoff</text>
<text text-anchor="start" x="1743" y="-560.3" font-family="Arial" font-size="24.00" fill="#000000">outcomes independently from</text>
<text text-anchor="start" x="1814.5" y="-536.3" font-family="Arial" font-size="24.00" fill="#000000">media transport.</text>
</g>
<!-- 37 -->
<g id="37" class="node">
<title>37</title>
<path fill="#2f95c8" stroke="#20688c" d="M2844,-776.22C2844,-804.44 2755.48,-827.38 2646.5,-827.38 2537.52,-827.38 2449,-804.44 2449,-776.22 2449,-776.22 2449,-315.78 2449,-315.78 2449,-287.56 2537.52,-264.62 2646.5,-264.62 2755.48,-264.62 2844,-287.56 2844,-315.78 2844,-315.78 2844,-776.22 2844,-776.22"/>
<path fill="none" stroke="#20688c" d="M2844,-776.22C2844,-747.99 2755.48,-725.06 2646.5,-725.06 2537.52,-725.06 2449,-747.99 2449,-776.22"/>
<text text-anchor="start" x="2533.5" y="-702.3" font-family="Arial" font-size="34.00" fill="#ffffff">SQLite + FTS5</text>
<text text-anchor="start" x="2573.5" y="-668.3" font-family="Arial" font-size="34.00" fill="#ffffff">Database</text>
<text text-anchor="start" x="2520.5" y="-646.3" font-family="Arial" font-size="19.00" fill="#ffffff">[Container: SQLite with FTS5]</text>
<text text-anchor="start" x="2478.5" y="-609.3" font-family="Arial" font-size="24.00" fill="#ffffff">Durable complete cleaned&#45;text,</text>
<text text-anchor="start" x="2527.5" y="-585.3" font-family="Arial" font-size="24.00" fill="#ffffff">relational, and full&#45;text</text>
<text text-anchor="start" x="2529" y="-561.3" font-family="Arial" font-size="24.00" fill="#ffffff">authority for migration</text>
<text text-anchor="start" x="2494.5" y="-537.3" font-family="Arial" font-size="24.00" fill="#ffffff">ledger, sources, documents,</text>
<text text-anchor="start" x="2497" y="-513.3" font-family="Arial" font-size="24.00" fill="#ffffff">visits, capture observations,</text>
<text text-anchor="start" x="2515.5" y="-489.3" font-family="Arial" font-size="24.00" fill="#ffffff">URL claims, visit events,</text>
<text text-anchor="start" x="2478" y="-465.3" font-family="Arial" font-size="24.00" fill="#ffffff">snapshots, chunks, chunks_fts,</text>
<text text-anchor="start" x="2485.5" y="-441.3" font-family="Arial" font-size="24.00" fill="#ffffff">media provenance/tasks, blob</text>
<text text-anchor="start" x="2522" y="-417.3" font-family="Arial" font-size="24.00" fill="#ffffff">lifecycle records, policy</text>
<text text-anchor="start" x="2521" y="-393.3" font-family="Arial" font-size="24.00" fill="#ffffff">rules, audit events, and</text>
<text text-anchor="start" x="2554.5" y="-369.3" font-family="Arial" font-size="24.00" fill="#ffffff">deletion receipts.</text>
</g>
<!-- 23&#45;&gt;37 -->
<g id="102" class="edge">
<title>23&#45;&gt;37</title>
<path fill="none" stroke="#444444" stroke-dasharray="5,2" d="M2104.3,-620.4C2207.93,-606.15 2334.18,-588.8 2438.67,-574.43"/>
<polygon fill="#444444" stroke="#444444" points="2439.29,-577.88 2448.72,-573.05 2438.33,-570.95 2439.29,-577.88"/>
<polygon fill="white" stroke="transparent" points="2140,-615 2140,-690 2413,-690 2413,-615 2140,-615"/>
<text text-anchor="start" x="2165.5" y="-667.3" font-family="Arial" font-size="24.00" fill="#444444">Creates, leases, and</text>
<text text-anchor="start" x="2144.5" y="-643.3" font-family="Arial" font-size="24.00" fill="#444444">advances media tasks in</text>
<text text-anchor="start" x="2243.5" y="-623.3" font-family="Arial" font-size="19.00" fill="#444444">[sqlite3]</text>
</g>
<!-- 27 -->
<g id="27" class="node">
<title>27</title>
<polygon fill="#85bbf0" stroke="#1168bd" points="1309,-783.5 928,-783.5 928,-508.5 1309,-508.5 1309,-783.5"/>
<text text-anchor="start" x="967.5" y="-735.3" font-family="Arial" font-size="34.00" fill="#000000">Media Operator and</text>
<text text-anchor="start" x="1012.5" y="-701.3" font-family="Arial" font-size="34.00" fill="#000000">Reconciliation</text>
<text text-anchor="start" x="1048.5" y="-667.3" font-family="Arial" font-size="34.00" fill="#000000">Workflow</text>
<text text-anchor="start" x="990.5" y="-645.3" font-family="Arial" font-size="19.00" fill="#000000">[Component: Python + sqlite3]</text>
<text text-anchor="start" x="979.5" y="-608.3" font-family="Arial" font-size="24.00" fill="#000000">Owns scoped dry&#45;run&#45;first</text>
<text text-anchor="start" x="957" y="-584.3" font-family="Arial" font-size="24.00" fill="#000000">budget requeue plus bounded</text>
<text text-anchor="start" x="971.5" y="-560.3" font-family="Arial" font-size="24.00" fill="#000000">current&#45;state CDP/blob and</text>
<text text-anchor="start" x="981" y="-536.3" font-family="Arial" font-size="24.00" fill="#000000">stored&#45;task reconciliation.</text>
</g>
<!-- 27&#45;&gt;23 -->
<g id="112" class="edge">
<title>27&#45;&gt;23</title>
<path fill="none" stroke="#444444" stroke-dasharray="5,2" d="M1309.3,-646.49C1424.49,-646.78 1571.72,-647.16 1690.55,-647.46"/>
<polygon fill="#444444" stroke="#444444" points="1690.86,-650.96 1700.87,-647.49 1690.88,-643.96 1690.86,-650.96"/>
<polygon fill="white" stroke="transparent" points="1361,-647 1361,-733 1649,-733 1649,-647 1361,-647"/>
<text text-anchor="start" x="1370" y="-709.8" font-family="Arial" font-size="24.00" fill="#444444">Resets explicitly selected</text>
<text text-anchor="start" x="1365" y="-683.8" font-family="Arial" font-size="24.00" fill="#444444">tasks and closes bounded</text>
<text text-anchor="start" x="1368.5" y="-657.8" font-family="Arial" font-size="24.00" fill="#444444">stale stored work through</text>
</g>
<!-- 27&#45;&gt;37 -->
<g id="113" class="edge">
<title>27&#45;&gt;37</title>
<path fill="none" stroke="#444444" stroke-dasharray="5,2" d="M1309.25,-546.28C1446.95,-476.03 1622.33,-391.49 1701,-374 1886.69,-332.72 1941.23,-343.56 2129,-374 2233.85,-391 2346.19,-426.22 2439.23,-460.4"/>
<polygon fill="#444444" stroke="#444444" points="2438.16,-463.73 2448.75,-463.91 2440.58,-457.16 2438.16,-463.73"/>
<polygon fill="white" stroke="transparent" points="1751,-374 1751,-473 2054,-473 2054,-374 1751,-374"/>
<text text-anchor="start" x="1755.5" y="-450.3" font-family="Arial" font-size="24.00" fill="#444444">Reads and updates scoped</text>
<text text-anchor="start" x="1775" y="-426.3" font-family="Arial" font-size="24.00" fill="#444444">media artifact/task state</text>
<text text-anchor="start" x="1893.5" y="-402.3" font-family="Arial" font-size="24.00" fill="#444444">in</text>
<text text-anchor="start" x="1869.5" y="-382.3" font-family="Arial" font-size="19.00" fill="#444444">[sqlite3]</text>
</g>
<!-- 33 -->
<g id="33" class="node">
<title>33</title>
<polygon fill="#438dd5" stroke="#2e6295" points="467,-1061.5 113,-1061.5 113,-758.5 467,-758.5 467,-1061.5"/>
<text text-anchor="start" x="143" y="-1013.3" font-family="Arial" font-size="34.00" fill="#ffffff">WSL Media Worker</text>
<text text-anchor="start" x="150" y="-991.3" font-family="Arial" font-size="19.00" fill="#ffffff">[Container: Python 3.11 CLI loop]</text>
<text text-anchor="start" x="142.5" y="-954.3" font-family="Arial" font-size="24.00" fill="#ffffff">Long&#45;running systemd user</text>
<text text-anchor="start" x="191.5" y="-930.3" font-family="Arial" font-size="24.00" fill="#ffffff">worker that leases</text>
<text text-anchor="start" x="144" y="-906.3" font-family="Arial" font-size="24.00" fill="#ffffff">daemon&#45;public media fetch</text>
<text text-anchor="start" x="181" y="-882.3" font-family="Arial" font-size="24.00" fill="#ffffff">tasks, fetches public</text>
<text text-anchor="start" x="142" y="-858.3" font-family="Arial" font-size="24.00" fill="#ffffff">media/HLS without Chrome</text>
<text text-anchor="start" x="147" y="-834.3" font-family="Arial" font-size="24.00" fill="#ffffff">cookies, classifies terminal</text>
<text text-anchor="start" x="144" y="-810.3" font-family="Arial" font-size="24.00" fill="#ffffff">states, and updates artifact</text>
<text text-anchor="start" x="261" y="-786.3" font-family="Arial" font-size="24.00" fill="#ffffff">rows.</text>
</g>
<!-- 33&#45;&gt;23 -->
<g id="64" class="edge">
<title>33&#45;&gt;23</title>
<path fill="none" stroke="#444444" stroke-dasharray="5,2" d="M467.16,-910.27C732.8,-906.12 1249.05,-880.17 1665,-751 1673.64,-748.32 1682.38,-745.42 1691.17,-742.35"/>
<polygon fill="#444444" stroke="#444444" points="1692.46,-745.61 1700.71,-738.96 1690.12,-739.01 1692.46,-745.61"/>
<polygon fill="white" stroke="transparent" points="975.5,-887 975.5,-947 1261.5,-947 1261.5,-887 975.5,-887"/>
<text text-anchor="start" x="979.5" y="-923.8" font-family="Arial" font-size="24.00" fill="#444444">Runs bounded lease/retry</text>
<text text-anchor="start" x="1001" y="-897.8" font-family="Arial" font-size="24.00" fill="#444444">task workflow through</text>
</g>
<!-- 33&#45;&gt;27 -->
<g id="67" class="edge">
<title>33&#45;&gt;27</title>
<path fill="none" stroke="#444444" stroke-dasharray="5,2" d="M467.04,-853.77C599.2,-811.55 780.31,-753.71 917.87,-709.77"/>
<polygon fill="#444444" stroke="#444444" points="919.23,-713 927.69,-706.63 917.1,-706.34 919.23,-713"/>
<polygon fill="white" stroke="transparent" points="583,-809 583,-869 892,-869 892,-809 583,-809"/>
<text text-anchor="start" x="587.5" y="-845.8" font-family="Arial" font-size="24.00" fill="#444444">Runs bounded current&#45;state</text>
<text text-anchor="start" x="622.5" y="-819.8" font-family="Arial" font-size="24.00" fill="#444444">reconciliation through</text>
</g>
<!-- 33&#45;&gt;37 -->
<g id="63" class="edge">
<title>33&#45;&gt;37</title>
<path fill="none" stroke="#444444" stroke-dasharray="5,2" d="M467.14,-930.05C589.28,-942.91 755.8,-958.4 903,-965 1450.58,-989.56 1603.03,-985.29 2129,-831 2260.99,-792.28 2292.86,-774.99 2413,-708 2421.95,-703.01 2430.99,-697.75 2440.04,-692.32"/>
<polygon fill="#444444" stroke="#444444" points="2441.98,-695.23 2448.71,-687.05 2438.35,-689.25 2441.98,-695.23"/>
<polygon fill="white" stroke="transparent" points="1355,-975 1355,-1050 1655,-1050 1655,-975 1355,-975"/>
<text text-anchor="start" x="1359" y="-1027.3" font-family="Arial" font-size="24.00" fill="#444444">Leases and updates media</text>
<text text-anchor="start" x="1464" y="-1003.3" font-family="Arial" font-size="24.00" fill="#444444">tasks in</text>
<text text-anchor="start" x="1471.5" y="-983.3" font-family="Arial" font-size="19.00" fill="#444444">[sqlite3]</text>
</g>
<!-- 35 -->
<g id="35" class="node">
<title>35</title>
<polygon fill="#438dd5" stroke="#2e6295" points="547,-592.5 33,-592.5 33,-217.5 547,-217.5 547,-592.5"/>
<text text-anchor="start" x="263" y="-544.3" font-family="Arial" font-size="34.00" fill="#ffffff">CLI</text>
<text text-anchor="start" x="169" y="-522.3" font-family="Arial" font-size="19.00" fill="#ffffff">[Container: Python argparse]</text>
<text text-anchor="start" x="143.5" y="-485.3" font-family="Arial" font-size="24.00" fill="#ffffff">Command&#45;line interface for</text>
<text text-anchor="start" x="123" y="-461.3" font-family="Arial" font-size="24.00" fill="#ffffff">serving the daemon, migration,</text>
<text text-anchor="start" x="149.5" y="-437.3" font-family="Arial" font-size="24.00" fill="#ffffff">snapshot&#45;text and storage</text>
<text text-anchor="start" x="216" y="-413.3" font-family="Arial" font-size="24.00" fill="#ffffff">reconciliation,</text>
<text text-anchor="start" x="201" y="-389.3" font-family="Arial" font-size="24.00" fill="#ffffff">manifest&#45;backed</text>
<text text-anchor="start" x="136.5" y="-365.3" font-family="Arial" font-size="24.00" fill="#ffffff">backup/restore, media&#45;spool</text>
<text text-anchor="start" x="223.5" y="-341.3" font-family="Arial" font-size="24.00" fill="#ffffff">status/drain,</text>
<text text-anchor="start" x="62" y="-317.3" font-family="Arial" font-size="24.00" fill="#ffffff">health/doctor/search/recent/timeline/detail,</text>
<text text-anchor="start" x="177" y="-293.3" font-family="Arial" font-size="24.00" fill="#ffffff">policy/forget, capture</text>
<text text-anchor="start" x="145" y="-269.3" font-family="Arial" font-size="24.00" fill="#ffffff">fixtures, media worker, and</text>
<text text-anchor="start" x="157.5" y="-245.3" font-family="Arial" font-size="24.00" fill="#ffffff">media cache operations.</text>
</g>
<!-- 35&#45;&gt;27 -->
<g id="55" class="edge">
<title>35&#45;&gt;27</title>
<path fill="none" stroke="#444444" stroke-dasharray="5,2" d="M547.24,-428.58C655.98,-443.95 782.62,-469.1 892,-510 900.82,-513.3 909.68,-516.95 918.52,-520.86"/>
<polygon fill="#444444" stroke="#444444" points="917.16,-524.09 927.71,-525.04 920.06,-517.72 917.16,-524.09"/>
<polygon fill="white" stroke="transparent" points="605.5,-510 605.5,-596 869.5,-596 869.5,-510 605.5,-510"/>
<text text-anchor="start" x="622.5" y="-572.8" font-family="Arial" font-size="24.00" fill="#444444">Previews or executes</text>
<text text-anchor="start" x="609.5" y="-546.8" font-family="Arial" font-size="24.00" fill="#444444">scoped budget requeue</text>
<text text-anchor="start" x="696" y="-520.8" font-family="Arial" font-size="24.00" fill="#444444">through</text>
</g>
<!-- 35&#45;&gt;37 -->
<g id="53" class="edge">
<title>35&#45;&gt;37</title>
<path fill="none" stroke="#444444" stroke-dasharray="5,2" d="M547.1,-344.91C822.6,-287.28 1273.87,-213.11 1665,-243 2000.37,-268.63 2105.37,-222 2413,-358 2422.08,-362.01 2431.1,-366.48 2440.02,-371.3"/>
<polygon fill="#444444" stroke="#444444" points="2438.46,-374.44 2448.91,-376.24 2441.87,-368.32 2438.46,-374.44"/>
<polygon fill="white" stroke="transparent" points="1345,-243 1345,-390 1665,-390 1665,-243 1345,-243"/>
<text text-anchor="start" x="1420" y="-367.3" font-family="Arial" font-size="24.00" fill="#444444">Runs migration,</text>
<text text-anchor="start" x="1352.5" y="-343.3" font-family="Arial" font-size="24.00" fill="#444444">media&#45;worker, media&#45;cache,</text>
<text text-anchor="start" x="1411.5" y="-319.3" font-family="Arial" font-size="24.00" fill="#444444">media&#45;spool, and</text>
<text text-anchor="start" x="1349" y="-295.3" font-family="Arial" font-size="24.00" fill="#444444">storage&#45;reconcile commands</text>
<text text-anchor="start" x="1465.5" y="-271.3" font-family="Arial" font-size="24.00" fill="#444444">against</text>
<text text-anchor="start" x="1471.5" y="-251.3" font-family="Arial" font-size="19.00" fill="#444444">[sqlite3]</text>
</g>
</g>
</svg>
