<?xml version="1.0" encoding="UTF-8" standalone="no"?>
<!DOCTYPE svg PUBLIC "-//W3C//DTD SVG 1.1//EN"
 "http://www.w3.org/Graphics/SVG/1.1/DTD/svg11.dtd">
<!-- Generated by graphviz version 2.43.0 (0)
 -->
<!-- Title: %3 Pages: 1 -->
<svg width="2096pt" height="1924pt"
 viewBox="0.00 0.00 2096.00 1923.75" xmlns="http://www.w3.org/2000/svg" xmlns:xlink="http://www.w3.org/1999/xlink">
<g id="graph0" class="graph" transform="scale(1 1) rotate(0) translate(4 1919.75)">
<title>%3</title>
<polygon fill="white" stroke="transparent" points="-4,4 -4,-1919.75 2092,-1919.75 2092,4 -4,4"/>
<text text-anchor="start" x="748.5" y="-11.8" font-family="Arial" font-size="34.00">Browser Memory Daemon &#45; Containers</text>
<g id="clust1" class="cluster">
<title>cluster_4</title>
<polygon fill="none" stroke="#444444" points="8,-64 8,-1907.75 1502,-1907.75 1502,-64 8,-64"/>
<text text-anchor="start" x="614" y="-92.8" font-family="Arial" font-size="24.00" fill="#444444">Browser Memory Daemon</text>
<text text-anchor="start" x="678" y="-72.8" font-family="Arial" font-size="19.00" fill="#444444">[Software System]</text>
</g>
<!-- 3 -->
<g id="3" class="node">
<title>3</title>
<polygon fill="#999999" stroke="#6b6b6b" points="1987.5,-528.19 1584.5,-528.19 1584.5,-263.19 1987.5,-263.19 1987.5,-528.19"/>
<text text-anchor="start" x="1624.5" y="-479.99" font-family="Arial" font-size="34.00" fill="#ffffff">Web Sites and Media</text>
<text text-anchor="start" x="1732" y="-445.99" font-family="Arial" font-size="34.00" fill="#ffffff">Origins</text>
<text text-anchor="start" x="1709" y="-423.99" font-family="Arial" font-size="19.00" fill="#ffffff">[Software System]</text>
<text text-anchor="start" x="1676" y="-386.99" font-family="Arial" font-size="24.00" fill="#ffffff">External web pages,</text>
<text text-anchor="start" x="1623.5" y="-362.99" font-family="Arial" font-size="24.00" fill="#ffffff">image/video URLs, and media</text>
<text text-anchor="start" x="1613.5" y="-338.99" font-family="Arial" font-size="24.00" fill="#ffffff">CDNs that Chrome loads or that</text>
<text text-anchor="start" x="1623.5" y="-314.99" font-family="Arial" font-size="24.00" fill="#ffffff">sidecars fetch as page&#45;related</text>
<text text-anchor="start" x="1749.5" y="-290.99" font-family="Arial" font-size="24.00" fill="#ffffff">media.</text>
</g>
<!-- 21 -->
<g id="21" class="node">
<title>21</title>
<path fill="#2f95c8" stroke="#20688c" d="M740.5,-1309.78C740.5,-1338.01 638.98,-1360.94 514,-1360.94 389.02,-1360.94 287.5,-1338.01 287.5,-1309.78 287.5,-1309.78 287.5,-849.35 287.5,-849.35 287.5,-821.12 389.02,-798.19 514,-798.19 638.98,-798.19 740.5,-821.12 740.5,-849.35 740.5,-849.35 740.5,-1309.78 740.5,-1309.78"/>
<path fill="none" stroke="#20688c" d="M740.5,-1309.78C740.5,-1281.55 638.98,-1258.62 514,-1258.62 389.02,-1258.62 287.5,-1281.55 287.5,-1309.78"/>
<text text-anchor="start" x="372" y="-1235.86" font-family="Arial" font-size="34.00" fill="#ffffff">Extension Browser</text>
<text text-anchor="start" x="454.5" y="-1201.86" font-family="Arial" font-size="34.00" fill="#ffffff">Storage</text>
<text text-anchor="start" x="316.5" y="-1179.86" font-family="Arial" font-size="19.00" fill="#ffffff">[Container: chrome.storage.local + IndexedDB]</text>
<text text-anchor="start" x="336.5" y="-1142.86" font-family="Arial" font-size="24.00" fill="#ffffff">Browser&#45;side IndexedDB storage</text>
<text text-anchor="start" x="427.5" y="-1118.86" font-family="Arial" font-size="24.00" fill="#ffffff">for transactional</text>
<text text-anchor="start" x="358.5" y="-1094.86" font-family="Arial" font-size="24.00" fill="#ffffff">capture/lifecycle outbox rows</text>
<text text-anchor="start" x="348.5" y="-1070.86" font-family="Arial" font-size="24.00" fill="#ffffff">plus specialized durable media</text>
<text text-anchor="start" x="450" y="-1046.86" font-family="Arial" font-size="24.00" fill="#ffffff">tasks/blobs;</text>
<text text-anchor="start" x="361.5" y="-1022.86" font-family="Arial" font-size="24.00" fill="#ffffff">chrome.storage.local retains</text>
<text text-anchor="start" x="362" y="-998.86" font-family="Arial" font-size="24.00" fill="#ffffff">typed configuration, lifecycle</text>
<text text-anchor="start" x="346.5" y="-974.86" font-family="Arial" font-size="24.00" fill="#ffffff">tab state, minimal CDP capture</text>
<text text-anchor="start" x="357.5" y="-950.86" font-family="Arial" font-size="24.00" fill="#ffffff">context, aggregate telemetry,</text>
<text text-anchor="start" x="345.5" y="-926.86" font-family="Arial" font-size="24.00" fill="#ffffff">and one&#45;version queue fallback</text>
<text text-anchor="start" x="489" y="-902.86" font-family="Arial" font-size="24.00" fill="#ffffff">only.</text>
</g>
<!-- 22 -->
<g id="22" class="node">
<title>22</title>
<polygon fill="#438dd5" stroke="#2e6295" points="1275,-1200.06 813,-1200.06 813,-959.06 1275,-959.06 1275,-1200.06"/>
<text text-anchor="start" x="879.5" y="-1151.86" font-family="Arial" font-size="34.00" fill="#ffffff">WSL Loopback HTTP</text>
<text text-anchor="start" x="979.5" y="-1117.86" font-family="Arial" font-size="34.00" fill="#ffffff">Daemon</text>
<text text-anchor="start" x="842" y="-1095.86" font-family="Arial" font-size="19.00" fill="#ffffff">[Container: Python 3.11, ThreadingHTTPServer]</text>
<text text-anchor="start" x="878.5" y="-1058.86" font-family="Arial" font-size="24.00" fill="#ffffff">Authenticated loopback API for</text>
<text text-anchor="start" x="899.5" y="-1034.86" font-family="Arial" font-size="24.00" fill="#ffffff">capture, read/admin/media</text>
<text text-anchor="start" x="900" y="-1010.86" font-family="Arial" font-size="24.00" fill="#ffffff">operations, and query&#45;only</text>
<text text-anchor="start" x="881.5" y="-986.86" font-family="Arial" font-size="24.00" fill="#ffffff">bmd.x&#45;observations v1 export.</text>
</g>
<!-- 22&#45;&gt;3 -->
<g id="150" class="edge">
<title>22&#45;&gt;3</title>
<path fill="none" stroke="#707070" stroke-dasharray="5,2" d="M1161.07,-958.84C1214.92,-901.38 1278.19,-830.38 1330,-762.38 1361.6,-720.89 1351.17,-694.53 1393,-663.38 1440.05,-628.33 1468.38,-655.26 1520,-627.38 1565.63,-602.72 1610.23,-569.07 1649.48,-535.1"/>
<polygon fill="#707070" stroke="#707070" points="1652.03,-537.52 1657.25,-528.3 1647.42,-532.25 1652.03,-537.52"/>
<polygon fill="white" stroke="transparent" points="1393,-675.38 1393,-750.38 1749,-750.38 1749,-675.38 1393,-675.38"/>
<text text-anchor="start" x="1456" y="-727.67" font-family="Arial" font-size="24.00" fill="#707070">Validates and fetches</text>
<text text-anchor="start" x="1475" y="-703.67" font-family="Arial" font-size="24.00" fill="#707070">public media from</text>
<text text-anchor="start" x="1397" y="-683.67" font-family="Arial" font-size="19.00" fill="#707070">[HTTP(S), no Referer or Chrome cookies]</text>
</g>
<!-- 49 -->
<g id="49" class="node">
<title>49</title>
<path fill="#2f95c8" stroke="#20688c" d="M403,-544.9C403,-563.2 320.08,-578.06 218,-578.06 115.92,-578.06 33,-563.2 33,-544.9 33,-544.9 33,-246.47 33,-246.47 33,-228.17 115.92,-213.31 218,-213.31 320.08,-213.31 403,-228.17 403,-246.47 403,-246.47 403,-544.9 403,-544.9"/>
<path fill="none" stroke="#20688c" d="M403,-544.9C403,-526.61 320.08,-511.74 218,-511.74 115.92,-511.74 33,-526.61 33,-544.9"/>
<text text-anchor="start" x="105" y="-479.99" font-family="Arial" font-size="34.00" fill="#ffffff">SQLite + FTS5</text>
<text text-anchor="start" x="145" y="-445.99" font-family="Arial" font-size="34.00" fill="#ffffff">Database</text>
<text text-anchor="start" x="92" y="-423.99" font-family="Arial" font-size="19.00" fill="#ffffff">[Container: SQLite with FTS5]</text>
<text text-anchor="start" x="98.5" y="-386.99" font-family="Arial" font-size="24.00" fill="#ffffff">Durable text/metadata</text>
<text text-anchor="start" x="67" y="-362.99" font-family="Arial" font-size="24.00" fill="#ffffff">authority including migration</text>
<text text-anchor="start" x="62" y="-338.99" font-family="Arial" font-size="24.00" fill="#ffffff">ledger, capture observations,</text>
<text text-anchor="start" x="72" y="-314.99" font-family="Arial" font-size="24.00" fill="#ffffff">and immutable observation</text>
<text text-anchor="start" x="120" y="-290.99" font-family="Arial" font-size="24.00" fill="#ffffff">ingest sequences.</text>
</g>
<!-- 22&#45;&gt;49 -->
<g id="71" class="edge">
<title>22&#45;&gt;49</title>
<path fill="none" stroke="#707070" stroke-dasharray="5,2" d="M962.39,-958.73C915.28,-899.78 850.6,-833.9 776,-798.38 687.03,-756 411.09,-823.76 334,-762.38 280.72,-719.95 251.5,-653.08 235.61,-588.05"/>
<polygon fill="#707070" stroke="#707070" points="238.96,-587 233.27,-578.06 232.14,-588.59 238.96,-587"/>
<polygon fill="white" stroke="transparent" points="334,-663.38 334,-762.38 644,-762.38 644,-663.38 334,-663.38"/>
<text text-anchor="start" x="338" y="-739.67" font-family="Arial" font-size="24.00" fill="#707070">Reads and writes metadata,</text>
<text text-anchor="start" x="371" y="-715.67" font-family="Arial" font-size="24.00" fill="#707070">FTS, tasks, audit, and</text>
<text text-anchor="start" x="433.5" y="-691.67" font-family="Arial" font-size="24.00" fill="#707070">receipts in</text>
<text text-anchor="start" x="455.5" y="-671.67" font-family="Arial" font-size="19.00" fill="#707070">[sqlite3]</text>
</g>
<!-- 51 -->
<g id="51" class="node">
<title>51</title>
<path fill="#2f95c8" stroke="#20688c" d="M1019,-571.9C1019,-593.51 897.09,-611.06 747,-611.06 596.91,-611.06 475,-593.51 475,-571.9 475,-571.9 475,-219.47 475,-219.47 475,-197.86 596.91,-180.31 747,-180.31 897.09,-180.31 1019,-197.86 1019,-219.47 1019,-219.47 1019,-571.9 1019,-571.9"/>
<path fill="none" stroke="#20688c" d="M1019,-571.9C1019,-550.3 897.09,-532.74 747,-532.74 596.91,-532.74 475,-550.3 475,-571.9"/>
<text text-anchor="start" x="591.5" y="-503.99" font-family="Arial" font-size="34.00" fill="#ffffff">Guarded Media Blob</text>
<text text-anchor="start" x="697.5" y="-469.99" font-family="Arial" font-size="34.00" fill="#ffffff">Cache</text>
<text text-anchor="start" x="504" y="-447.99" font-family="Arial" font-size="19.00" fill="#ffffff">[Container: WSL&#45;visible local or NAS&#45;mounted filesystem]</text>
<text text-anchor="start" x="637" y="-410.99" font-family="Arial" font-size="24.00" fill="#ffffff">Bounded disposable</text>
<text text-anchor="start" x="581.5" y="-386.99" font-family="Arial" font-size="24.00" fill="#ffffff">image/video/audio bytes under</text>
<text text-anchor="start" x="605.5" y="-362.99" font-family="Arial" font-size="24.00" fill="#ffffff">the configured media root;</text>
<text text-anchor="start" x="633" y="-338.99" font-family="Arial" font-size="24.00" fill="#ffffff">explicit external roots</text>
<text text-anchor="start" x="648" y="-314.99" font-family="Arial" font-size="24.00" fill="#ffffff">require mount and</text>
<text text-anchor="start" x="597.5" y="-290.99" font-family="Arial" font-size="24.00" fill="#ffffff">identity&#45;marker proof before</text>
<text text-anchor="start" x="706" y="-266.99" font-family="Arial" font-size="24.00" fill="#ffffff">access.</text>
</g>
<!-- 22&#45;&gt;51 -->
<g id="73" class="edge">
<title>22&#45;&gt;51</title>
<path fill="none" stroke="#707070" stroke-dasharray="5,2" d="M949.18,-958.97C901.58,-904.68 840.4,-842.83 776,-798.38 742.24,-775.07 713.66,-796.58 691,-762.38 663.46,-720.8 657.77,-670.8 663.23,-621.31"/>
<polygon fill="#707070" stroke="#707070" points="666.74,-621.45 664.51,-611.09 659.79,-620.58 666.74,-621.45"/>
<polygon fill="white" stroke="transparent" points="691,-663.38 691,-762.38 999,-762.38 999,-663.38 691,-663.38"/>
<text text-anchor="start" x="720" y="-739.67" font-family="Arial" font-size="24.00" fill="#707070">Stores, serves, purges,</text>
<text text-anchor="start" x="695" y="-715.67" font-family="Arial" font-size="24.00" fill="#707070">and rehydrates media blobs</text>
<text text-anchor="start" x="835.5" y="-691.67" font-family="Arial" font-size="24.00" fill="#707070">in</text>
<text text-anchor="start" x="793.5" y="-671.67" font-family="Arial" font-size="19.00" fill="#707070">[Filesystem]</text>
</g>
<!-- 52 -->
<g id="52" class="node">
<title>52</title>
<path fill="#2f95c8" stroke="#20688c" d="M1477,-585.4C1477,-608.67 1390.49,-627.56 1284,-627.56 1177.51,-627.56 1091,-608.67 1091,-585.4 1091,-585.4 1091,-205.97 1091,-205.97 1091,-182.71 1177.51,-163.81 1284,-163.81 1390.49,-163.81 1477,-182.71 1477,-205.97 1477,-205.97 1477,-585.4 1477,-585.4"/>
<path fill="none" stroke="#20688c" d="M1477,-585.4C1477,-562.14 1390.49,-543.24 1284,-543.24 1177.51,-543.24 1091,-562.14 1091,-585.4"/>
<text text-anchor="start" x="1120" y="-515.99" font-family="Arial" font-size="34.00" fill="#ffffff">Bounded Local Media</text>
<text text-anchor="start" x="1240.5" y="-481.99" font-family="Arial" font-size="34.00" fill="#ffffff">Spool</text>
<text text-anchor="start" x="1144" y="-459.99" font-family="Arial" font-size="19.00" fill="#ffffff">[Container: WSL local filesystem]</text>
<text text-anchor="start" x="1132" y="-422.99" font-family="Arial" font-size="24.00" fill="#ffffff">Opt&#45;in durable outage buffer</text>
<text text-anchor="start" x="1135.5" y="-398.99" font-family="Arial" font-size="24.00" fill="#ffffff">beneath the local WSL data</text>
<text text-anchor="start" x="1162.5" y="-374.99" font-family="Arial" font-size="24.00" fill="#ffffff">root; admission counts</text>
<text text-anchor="start" x="1138.5" y="-350.99" font-family="Arial" font-size="24.00" fill="#ffffff">committed files and distinct</text>
<text text-anchor="start" x="1132" y="-326.99" font-family="Arial" font-size="24.00" fill="#ffffff">in&#45;flight SQLite reservations,</text>
<text text-anchor="start" x="1159" y="-302.99" font-family="Arial" font-size="24.00" fill="#ffffff">and drain verifies bytes</text>
<text text-anchor="start" x="1136.5" y="-278.99" font-family="Arial" font-size="24.00" fill="#ffffff">before tier transition/source</text>
<text text-anchor="start" x="1238" y="-254.99" font-family="Arial" font-size="24.00" fill="#ffffff">cleanup.</text>
</g>
<!-- 22&#45;&gt;52 -->
<g id="74" class="edge">
<title>22&#45;&gt;52</title>
<path fill="none" stroke="#707070" stroke-dasharray="5,2" d="M1019.9,-958.93C1008.11,-873.62 1003.33,-757.78 1040,-663.38 1051.07,-634.87 1066.77,-607.56 1084.93,-582.01"/>
<polygon fill="#707070" stroke="#707070" points="1087.86,-583.93 1090.91,-573.78 1082.2,-579.81 1087.86,-583.93"/>
<polygon fill="white" stroke="transparent" points="1040,-663.38 1040,-762.38 1316,-762.38 1316,-663.38 1040,-663.38"/>
<text text-anchor="start" x="1044" y="-739.67" font-family="Arial" font-size="24.00" fill="#707070">Stores and serves media</text>
<text text-anchor="start" x="1071" y="-715.67" font-family="Arial" font-size="24.00" fill="#707070">during guarded&#45;root</text>
<text text-anchor="start" x="1122" y="-691.67" font-family="Arial" font-size="24.00" fill="#707070">outages in</text>
<text text-anchor="start" x="1126.5" y="-671.67" font-family="Arial" font-size="19.00" fill="#707070">[Filesystem]</text>
</g>
<!-- 5 -->
<g id="5" class="node">
<title>5</title>
<polygon fill="#438dd5" stroke="#2e6295" points="1199,-1882.75 765,-1882.75 765,-1603.75 1199,-1603.75 1199,-1882.75"/>
<text text-anchor="start" x="802" y="-1834.55" font-family="Arial" font-size="34.00" fill="#ffffff">Chrome MV3 Extension</text>
<text text-anchor="start" x="794" y="-1812.55" font-family="Arial" font-size="19.00" fill="#ffffff">[Container: JavaScript, Chrome Manifest V3]</text>
<text text-anchor="start" x="839" y="-1775.55" font-family="Arial" font-size="24.00" fill="#ffffff">Captures visible page text,</text>
<text text-anchor="start" x="864.5" y="-1751.55" font-family="Arial" font-size="24.00" fill="#ffffff">media references, tab</text>
<text text-anchor="start" x="873" y="-1727.55" font-family="Arial" font-size="24.00" fill="#ffffff">lifecycle events, and</text>
<text text-anchor="start" x="816" y="-1703.55" font-family="Arial" font-size="24.00" fill="#ffffff">browser&#45;side media bytes from</text>
<text text-anchor="start" x="811" y="-1679.55" font-family="Arial" font-size="24.00" fill="#ffffff">Windows Chrome; queues work</text>
<text text-anchor="start" x="823" y="-1655.55" font-family="Arial" font-size="24.00" fill="#ffffff">durably and posts to the WSL</text>
<text text-anchor="start" x="934.5" y="-1631.55" font-family="Arial" font-size="24.00" fill="#ffffff">daemon.</text>
</g>
<!-- 5&#45;&gt;3 -->
<g id="60" class="edge">
<title>5&#45;&gt;3</title>
<path fill="none" stroke="#707070" stroke-dasharray="5,2" d="M1199.24,-1720.91C1310.56,-1699.19 1440.35,-1655.5 1526,-1567.75 1800.58,-1286.44 1811.6,-783.3 1798.44,-538.4"/>
<polygon fill="#707070" stroke="#707070" points="1801.93,-538.15 1797.88,-528.37 1794.94,-538.55 1801.93,-538.15"/>
<polygon fill="white" stroke="transparent" points="1797,-1030.06 1797,-1129.06 2088,-1129.06 2088,-1030.06 1797,-1030.06"/>
<text text-anchor="start" x="1820.5" y="-1106.36" font-family="Arial" font-size="24.00" fill="#707070">Extracts DOM refs and</text>
<text text-anchor="start" x="1860" y="-1082.36" font-family="Arial" font-size="24.00" fill="#707070">fetches queued</text>
<text text-anchor="start" x="1812.5" y="-1058.36" font-family="Arial" font-size="24.00" fill="#707070">credentialed media from</text>
<text text-anchor="start" x="1801.5" y="-1038.36" font-family="Arial" font-size="19.00" fill="#707070">[DOM; fetch(credentials: include)]</text>
</g>
<!-- 5&#45;&gt;21 -->
<g id="61" class="edge">
<title>5&#45;&gt;21</title>
<path fill="none" stroke="#707070" stroke-dasharray="5,2" d="M764.76,-1649.23C729.48,-1626.63 696.03,-1599.58 670,-1567.75 623.69,-1511.11 591.04,-1440.48 568.04,-1370.72"/>
<polygon fill="#707070" stroke="#707070" points="571.26,-1369.32 564.86,-1360.89 564.6,-1371.48 571.26,-1369.32"/>
<polygon fill="white" stroke="transparent" points="670,-1396.75 670,-1567.75 981,-1567.75 981,-1396.75 670,-1396.75"/>
<text text-anchor="start" x="707" y="-1545.05" font-family="Arial" font-size="24.00" fill="#707070">Persists configuration,</text>
<text text-anchor="start" x="729.5" y="-1521.05" font-family="Arial" font-size="24.00" fill="#707070">lifecycle tab state,</text>
<text text-anchor="start" x="715" y="-1497.05" font-family="Arial" font-size="24.00" fill="#707070">aggregate telemetry,</text>
<text text-anchor="start" x="699.5" y="-1473.05" font-family="Arial" font-size="24.00" fill="#707070">capture/lifecycle outbox</text>
<text text-anchor="start" x="702" y="-1449.05" font-family="Arial" font-size="24.00" fill="#707070">rows, media tasks, and</text>
<text text-anchor="start" x="784" y="-1425.05" font-family="Arial" font-size="24.00" fill="#707070">blobs in</text>
<text text-anchor="start" x="674.5" y="-1405.05" font-family="Arial" font-size="19.00" fill="#707070">[chrome.storage.local + IndexedDB]</text>
</g>
<!-- 5&#45;&gt;22 -->
<g id="62" class="edge">
<title>5&#45;&gt;22</title>
<path fill="none" stroke="#707070" stroke-dasharray="5,2" d="M995,-1603.54C1005.85,-1487.66 1021.22,-1323.67 1031.84,-1210.35"/>
<polygon fill="#707070" stroke="#707070" points="1035.34,-1210.52 1032.79,-1200.24 1028.37,-1209.87 1035.34,-1210.52"/>
<polygon fill="white" stroke="transparent" points="1013,-1420.75 1013,-1543.75 1508,-1543.75 1508,-1420.75 1013,-1420.75"/>
<text text-anchor="start" x="1180" y="-1521.05" font-family="Arial" font-size="24.00" fill="#707070">Posts /capture,</text>
<text text-anchor="start" x="1157" y="-1497.05" font-family="Arial" font-size="24.00" fill="#707070">/visit&#45;events, media</text>
<text text-anchor="start" x="1134" y="-1473.05" font-family="Arial" font-size="24.00" fill="#707070">metadata, and raw blob</text>
<text text-anchor="start" x="1205" y="-1449.05" font-family="Arial" font-size="24.00" fill="#707070">uploads to</text>
<text text-anchor="start" x="1017.5" y="-1429.05" font-family="Arial" font-size="19.00" fill="#707070">[Bearer HTTP/JSON; raw HTTP PUT over 127.0.0.1:8765]</text>
</g>
</g>
</svg>
