<?xml version="1.0" encoding="UTF-8" standalone="no"?>
<!DOCTYPE svg PUBLIC "-//W3C//DTD SVG 1.1//EN"
 "http://www.w3.org/Graphics/SVG/1.1/DTD/svg11.dtd">
<!-- Generated by graphviz version 2.43.0 (0)
 -->
<!-- Title: %3 Pages: 1 -->
<svg width="1543pt" height="1695pt"
 viewBox="0.00 0.00 1543.00 1694.75" xmlns="http://www.w3.org/2000/svg" xmlns:xlink="http://www.w3.org/1999/xlink">
<g id="graph0" class="graph" transform="scale(1 1) rotate(0) translate(4 1690.75)">
<title>%3</title>
<polygon fill="white" stroke="transparent" points="-4,4 -4,-1690.75 1539,-1690.75 1539,4 -4,4"/>
<text text-anchor="start" x="445" y="-11.8" font-family="Arial" font-size="34.00">Container View: Browser Memory Daemon</text>
<g id="clust1" class="cluster">
<title>cluster_4</title>
<polygon fill="none" stroke="#444444" points="8,-64 8,-1678.75 1045,-1678.75 1045,-64 8,-64"/>
<text text-anchor="start" x="385.5" y="-92.8" font-family="Arial" font-size="24.00" fill="#444444">Browser Memory Daemon</text>
<text text-anchor="start" x="449.5" y="-72.8" font-family="Arial" font-size="19.00" fill="#444444">[Software System]</text>
</g>
<!-- 3 -->
<g id="3" class="node">
<title>3</title>
<polygon fill="#999999" stroke="#6b6b6b" points="1495.5,-1138.06 1092.5,-1138.06 1092.5,-873.06 1495.5,-873.06 1495.5,-1138.06"/>
<text text-anchor="start" x="1132.5" y="-1089.86" font-family="Arial" font-size="34.00" fill="#ffffff">Web Sites and Media</text>
<text text-anchor="start" x="1240" y="-1055.86" font-family="Arial" font-size="34.00" fill="#ffffff">Origins</text>
<text text-anchor="start" x="1217" y="-1033.86" font-family="Arial" font-size="19.00" fill="#ffffff">[Software System]</text>
<text text-anchor="start" x="1184" y="-996.86" font-family="Arial" font-size="24.00" fill="#ffffff">External web pages,</text>
<text text-anchor="start" x="1131.5" y="-972.86" font-family="Arial" font-size="24.00" fill="#ffffff">image/video URLs, and media</text>
<text text-anchor="start" x="1121.5" y="-948.86" font-family="Arial" font-size="24.00" fill="#ffffff">CDNs that Chrome loads or that</text>
<text text-anchor="start" x="1131.5" y="-924.86" font-family="Arial" font-size="24.00" fill="#ffffff">sidecars fetch as page&#45;related</text>
<text text-anchor="start" x="1257.5" y="-900.86" font-family="Arial" font-size="24.00" fill="#ffffff">media.</text>
</g>
<!-- 13 -->
<g id="13" class="node">
<title>13</title>
<path fill="#2f95c8" stroke="#20688c" d="M485.5,-1154.78C485.5,-1173.08 383.98,-1187.94 259,-1187.94 134.02,-1187.94 32.5,-1173.08 32.5,-1154.78 32.5,-1154.78 32.5,-856.35 32.5,-856.35 32.5,-838.05 134.02,-823.19 259,-823.19 383.98,-823.19 485.5,-838.05 485.5,-856.35 485.5,-856.35 485.5,-1154.78 485.5,-1154.78"/>
<path fill="none" stroke="#20688c" d="M485.5,-1154.78C485.5,-1136.48 383.98,-1121.62 259,-1121.62 134.02,-1121.62 32.5,-1136.48 32.5,-1154.78"/>
<text text-anchor="start" x="117" y="-1089.86" font-family="Arial" font-size="34.00" fill="#ffffff">Extension Browser</text>
<text text-anchor="start" x="199.5" y="-1055.86" font-family="Arial" font-size="34.00" fill="#ffffff">Storage</text>
<text text-anchor="start" x="61.5" y="-1033.86" font-family="Arial" font-size="19.00" fill="#ffffff">[Container: chrome.storage.local + IndexedDB]</text>
<text text-anchor="start" x="126.5" y="-996.86" font-family="Arial" font-size="24.00" fill="#ffffff">Browser&#45;side storage for</text>
<text text-anchor="start" x="114.5" y="-972.86" font-family="Arial" font-size="24.00" fill="#ffffff">capture and visit queues in</text>
<text text-anchor="start" x="120.5" y="-948.86" font-family="Arial" font-size="24.00" fill="#ffffff">chrome.storage.local plus</text>
<text text-anchor="start" x="126.5" y="-924.86" font-family="Arial" font-size="24.00" fill="#ffffff">durable media tasks and</text>
<text text-anchor="start" x="107.5" y="-900.86" font-family="Arial" font-size="24.00" fill="#ffffff">fetched blobs in IndexedDB.</text>
</g>
<!-- 14 -->
<g id="14" class="node">
<title>14</title>
<polygon fill="#438dd5" stroke="#2e6295" points="1020,-1174.06 558,-1174.06 558,-837.06 1020,-837.06 1020,-1174.06"/>
<text text-anchor="start" x="624.5" y="-1125.86" font-family="Arial" font-size="34.00" fill="#ffffff">WSL Loopback HTTP</text>
<text text-anchor="start" x="724.5" y="-1091.86" font-family="Arial" font-size="34.00" fill="#ffffff">Daemon</text>
<text text-anchor="start" x="587" y="-1069.86" font-family="Arial" font-size="19.00" fill="#ffffff">[Container: Python 3.11, ThreadingHTTPServer]</text>
<text text-anchor="start" x="628" y="-1032.86" font-family="Arial" font-size="24.00" fill="#ffffff">Authenticated loopback HTTP</text>
<text text-anchor="start" x="653" y="-1008.86" font-family="Arial" font-size="24.00" fill="#ffffff">API that handles capture,</text>
<text text-anchor="start" x="649.5" y="-984.86" font-family="Arial" font-size="24.00" fill="#ffffff">visit events, media artifact</text>
<text text-anchor="start" x="652.5" y="-960.86" font-family="Arial" font-size="24.00" fill="#ffffff">upload/fetch/purge, exact</text>
<text text-anchor="start" x="749" y="-936.86" font-family="Arial" font-size="24.00" fill="#ffffff">search,</text>
<text text-anchor="start" x="640" y="-912.86" font-family="Arial" font-size="24.00" fill="#ffffff">recent/timeline/detail, policy</text>
<text text-anchor="start" x="658" y="-888.86" font-family="Arial" font-size="24.00" fill="#ffffff">rules, doctor, forget, and</text>
<text text-anchor="start" x="699.5" y="-864.86" font-family="Arial" font-size="24.00" fill="#ffffff">static UI serving.</text>
</g>
<!-- 28 -->
<g id="28" class="node">
<title>28</title>
<path fill="#2f95c8" stroke="#20688c" d="M468.5,-615.4C468.5,-640.32 379.98,-660.56 271,-660.56 162.02,-660.56 73.5,-640.32 73.5,-615.4 73.5,-615.4 73.5,-208.97 73.5,-208.97 73.5,-184.05 162.02,-163.81 271,-163.81 379.98,-163.81 468.5,-184.05 468.5,-208.97 468.5,-208.97 468.5,-615.4 468.5,-615.4"/>
<path fill="none" stroke="#20688c" d="M468.5,-615.4C468.5,-590.49 379.98,-570.24 271,-570.24 162.02,-570.24 73.5,-590.49 73.5,-615.4"/>
<text text-anchor="start" x="158" y="-544.49" font-family="Arial" font-size="34.00" fill="#ffffff">SQLite + FTS5</text>
<text text-anchor="start" x="198" y="-510.49" font-family="Arial" font-size="34.00" fill="#ffffff">Database</text>
<text text-anchor="start" x="145" y="-488.49" font-family="Arial" font-size="19.00" fill="#ffffff">[Container: SQLite with FTS5]</text>
<text text-anchor="start" x="152" y="-451.49" font-family="Arial" font-size="24.00" fill="#ffffff">Durable relational and</text>
<text text-anchor="start" x="130.5" y="-427.49" font-family="Arial" font-size="24.00" fill="#ffffff">full&#45;text store for migration</text>
<text text-anchor="start" x="119" y="-403.49" font-family="Arial" font-size="24.00" fill="#ffffff">ledger, sources, documents,</text>
<text text-anchor="start" x="121.5" y="-379.49" font-family="Arial" font-size="24.00" fill="#ffffff">visits, capture observations,</text>
<text text-anchor="start" x="140" y="-355.49" font-family="Arial" font-size="24.00" fill="#ffffff">URL claims, visit events,</text>
<text text-anchor="start" x="102.5" y="-331.49" font-family="Arial" font-size="24.00" fill="#ffffff">snapshots, chunks, chunks_fts,</text>
<text text-anchor="start" x="122.5" y="-307.49" font-family="Arial" font-size="24.00" fill="#ffffff">media artifacts, media fetch</text>
<text text-anchor="start" x="142.5" y="-283.49" font-family="Arial" font-size="24.00" fill="#ffffff">tasks, policy rules, audit</text>
<text text-anchor="start" x="113" y="-259.49" font-family="Arial" font-size="24.00" fill="#ffffff">events, and deletion receipts.</text>
</g>
<!-- 14&#45;&gt;28 -->
<g id="44" class="edge">
<title>14&#45;&gt;28</title>
<path fill="none" stroke="#444444" stroke-dasharray="5,2" d="M557.83,-846.29C545.44,-838.43 533.11,-830.75 521,-823.38 492.46,-806 478.12,-811.5 455,-787.38 422.19,-753.15 394.13,-711.95 370.53,-669.58"/>
<polygon fill="#444444" stroke="#444444" points="373.6,-667.89 365.72,-660.81 367.46,-671.26 373.6,-667.89"/>
<text text-anchor="start" x="455" y="-769.17" font-family="Arial" font-size="24.00" fill="#444444">Reads and writes metadata,</text>
<text text-anchor="start" x="488" y="-745.17" font-family="Arial" font-size="24.00" fill="#444444">FTS, tasks, audit, and</text>
<text text-anchor="start" x="550.5" y="-721.17" font-family="Arial" font-size="24.00" fill="#444444">receipts in</text>
<text text-anchor="start" x="572.5" y="-701.17" font-family="Arial" font-size="19.00" fill="#444444">[sqlite3]</text>
</g>
<!-- 30 -->
<g id="30" class="node">
<title>30</title>
<path fill="#2f95c8" stroke="#20688c" d="M979,-609.47C979,-633.66 880.84,-653.31 760,-653.31 639.16,-653.31 541,-633.66 541,-609.47 541,-609.47 541,-214.9 541,-214.9 541,-190.71 639.16,-171.06 760,-171.06 880.84,-171.06 979,-190.71 979,-214.9 979,-214.9 979,-609.47 979,-609.47"/>
<path fill="none" stroke="#20688c" d="M979,-609.47C979,-585.28 880.84,-565.63 760,-565.63 639.16,-565.63 541,-585.28 541,-609.47"/>
<text text-anchor="start" x="621" y="-539.49" font-family="Arial" font-size="34.00" fill="#ffffff">Media Blob Cache</text>
<text text-anchor="start" x="570" y="-517.49" font-family="Arial" font-size="19.00" fill="#ffffff">[Container: WSL or NAS&#45;mounted filesystem]</text>
<text text-anchor="start" x="626.5" y="-480.49" font-family="Arial" font-size="24.00" fill="#ffffff">Bounded and disposable</text>
<text text-anchor="start" x="615.5" y="-456.49" font-family="Arial" font-size="24.00" fill="#ffffff">filesystem cache for stored</text>
<text text-anchor="start" x="594.5" y="-432.49" font-family="Arial" font-size="24.00" fill="#ffffff">image/video/audio blobs under</text>
<text text-anchor="start" x="616" y="-408.49" font-family="Arial" font-size="24.00" fill="#ffffff">the configured WSL&#45;visible</text>
<text text-anchor="start" x="684.5" y="-384.49" font-family="Arial" font-size="24.00" fill="#ffffff">blob root, with</text>
<text text-anchor="start" x="592.5" y="-360.49" font-family="Arial" font-size="24.00" fill="#ffffff">purge/rehydrate semantics that</text>
<text text-anchor="start" x="603.5" y="-336.49" font-family="Arial" font-size="24.00" fill="#ffffff">preserve media refs, hashes,</text>
<text text-anchor="start" x="587" y="-312.49" font-family="Arial" font-size="24.00" fill="#ffffff">status reasons, and provenance</text>
<text text-anchor="start" x="623.5" y="-288.49" font-family="Arial" font-size="24.00" fill="#ffffff">when bytes are absent or</text>
<text text-anchor="start" x="718.5" y="-264.49" font-family="Arial" font-size="24.00" fill="#ffffff">purged.</text>
</g>
<!-- 14&#45;&gt;30 -->
<g id="46" class="edge">
<title>14&#45;&gt;30</title>
<path fill="none" stroke="#444444" stroke-dasharray="5,2" d="M780.77,-836.68C778.13,-782.85 775.15,-722.03 772.28,-663.62"/>
<polygon fill="#444444" stroke="#444444" points="775.77,-663.32 771.78,-653.51 768.78,-663.67 775.77,-663.32"/>
<text text-anchor="start" x="803" y="-769.17" font-family="Arial" font-size="24.00" fill="#444444">Stores, serves, purges,</text>
<text text-anchor="start" x="778" y="-745.17" font-family="Arial" font-size="24.00" fill="#444444">and rehydrates media blobs</text>
<text text-anchor="start" x="918.5" y="-721.17" font-family="Arial" font-size="24.00" fill="#444444">in</text>
<text text-anchor="start" x="876.5" y="-701.17" font-family="Arial" font-size="19.00" fill="#444444">[Filesystem]</text>
</g>
<!-- 5 -->
<g id="5" class="node">
<title>5</title>
<polygon fill="#438dd5" stroke="#2e6295" points="750,-1653.75 316,-1653.75 316,-1374.75 750,-1374.75 750,-1653.75"/>
<text text-anchor="start" x="353" y="-1605.55" font-family="Arial" font-size="34.00" fill="#ffffff">Chrome MV3 Extension</text>
<text text-anchor="start" x="345" y="-1583.55" font-family="Arial" font-size="19.00" fill="#ffffff">[Container: JavaScript, Chrome Manifest V3]</text>
<text text-anchor="start" x="390" y="-1546.55" font-family="Arial" font-size="24.00" fill="#ffffff">Captures visible page text,</text>
<text text-anchor="start" x="415.5" y="-1522.55" font-family="Arial" font-size="24.00" fill="#ffffff">media references, tab</text>
<text text-anchor="start" x="424" y="-1498.55" font-family="Arial" font-size="24.00" fill="#ffffff">lifecycle events, and</text>
<text text-anchor="start" x="367" y="-1474.55" font-family="Arial" font-size="24.00" fill="#ffffff">browser&#45;side media bytes from</text>
<text text-anchor="start" x="362" y="-1450.55" font-family="Arial" font-size="24.00" fill="#ffffff">Windows Chrome; queues work</text>
<text text-anchor="start" x="374" y="-1426.55" font-family="Arial" font-size="24.00" fill="#ffffff">durably and posts to the WSL</text>
<text text-anchor="start" x="485.5" y="-1402.55" font-family="Arial" font-size="24.00" fill="#ffffff">daemon.</text>
</g>
<!-- 5&#45;&gt;3 -->
<g id="37" class="edge">
<title>5&#45;&gt;3</title>
<path fill="none" stroke="#444444" stroke-dasharray="5,2" d="M750.12,-1477.53C913.39,-1446.62 1119.28,-1397.66 1182,-1338.75 1234.53,-1289.41 1262.43,-1214.63 1277.24,-1148.51"/>
<polygon fill="#444444" stroke="#444444" points="1280.73,-1148.91 1279.42,-1138.4 1273.89,-1147.44 1280.73,-1148.91"/>
<text text-anchor="start" x="1271" y="-1308.55" font-family="Arial" font-size="24.00" fill="#444444">Extracts DOM refs and</text>
<text text-anchor="start" x="1310.5" y="-1284.55" font-family="Arial" font-size="24.00" fill="#444444">fetches queued</text>
<text text-anchor="start" x="1263" y="-1260.55" font-family="Arial" font-size="24.00" fill="#444444">credentialed media from</text>
<text text-anchor="start" x="1252" y="-1240.55" font-family="Arial" font-size="19.00" fill="#444444">[DOM; fetch(credentials: include)]</text>
</g>
<!-- 5&#45;&gt;13 -->
<g id="38" class="edge">
<title>5&#45;&gt;13</title>
<path fill="none" stroke="#444444" stroke-dasharray="5,2" d="M328.42,-1374.6C318.91,-1363.27 310.31,-1351.32 303,-1338.75 278.44,-1296.52 265.26,-1246.26 258.64,-1197.78"/>
<polygon fill="#444444" stroke="#444444" points="262.1,-1197.26 257.36,-1187.78 255.16,-1198.15 262.1,-1197.26"/>
<text text-anchor="start" x="312.5" y="-1308.55" font-family="Arial" font-size="24.00" fill="#444444">Queues captures, lifecycle</text>
<text text-anchor="start" x="320.5" y="-1284.55" font-family="Arial" font-size="24.00" fill="#444444">events, media tasks, and</text>
<text text-anchor="start" x="412.5" y="-1260.55" font-family="Arial" font-size="24.00" fill="#444444">blobs in</text>
<text text-anchor="start" x="303" y="-1240.55" font-family="Arial" font-size="19.00" fill="#444444">[chrome.storage.local + IndexedDB]</text>
</g>
<!-- 5&#45;&gt;14 -->
<g id="39" class="edge">
<title>5&#45;&gt;14</title>
<path fill="none" stroke="#444444" stroke-dasharray="5,2" d="M603.12,-1374.46C632.89,-1315.54 667.95,-1246.14 699.56,-1183.59"/>
<polygon fill="#444444" stroke="#444444" points="702.81,-1184.92 704.19,-1174.42 696.56,-1181.76 702.81,-1184.92"/>
<text text-anchor="start" x="839.5" y="-1320.55" font-family="Arial" font-size="24.00" fill="#444444">Posts /capture,</text>
<text text-anchor="start" x="816.5" y="-1296.55" font-family="Arial" font-size="24.00" fill="#444444">/visit&#45;events, media</text>
<text text-anchor="start" x="793.5" y="-1272.55" font-family="Arial" font-size="24.00" fill="#444444">metadata, and raw blob</text>
<text text-anchor="start" x="864.5" y="-1248.55" font-family="Arial" font-size="24.00" fill="#444444">uploads to</text>
<text text-anchor="start" x="677" y="-1228.55" font-family="Arial" font-size="19.00" fill="#444444">[Bearer HTTP/JSON; raw HTTP PUT over 127.0.0.1:8765]</text>
</g>
</g>
</svg>
