<?xml version="1.0" encoding="UTF-8" standalone="no"?>
<!DOCTYPE svg PUBLIC "-//W3C//DTD SVG 1.1//EN"
 "http://www.w3.org/Graphics/SVG/1.1/DTD/svg11.dtd">
<!-- Generated by graphviz version 2.43.0 (0)
 -->
<!-- Title: %3 Pages: 1 -->
<svg width="2038pt" height="1151pt"
 viewBox="0.00 0.00 2037.50 1151.00" xmlns="http://www.w3.org/2000/svg" xmlns:xlink="http://www.w3.org/1999/xlink">
<g id="graph0" class="graph" transform="scale(1 1) rotate(0) translate(4 1147)">
<title>%3</title>
<polygon fill="white" stroke="transparent" points="-4,4 -4,-1147 2033.5,-1147 2033.5,4 -4,4"/>
<text text-anchor="start" x="429.75" y="-11.8" font-family="Arial" font-size="34.00">Component View: Browser Memory Daemon &#45; WSL Loopback HTTP Daemon</text>
<g id="clust1" class="cluster">
<title>cluster_4</title>
<polygon fill="none" stroke="#444444" points="8,-64 8,-1135 2021.5,-1135 2021.5,-64 8,-64"/>
<text text-anchor="start" x="873.75" y="-92.8" font-family="Arial" font-size="24.00" fill="#444444">Browser Memory Daemon</text>
<text text-anchor="start" x="937.75" y="-72.8" font-family="Arial" font-size="19.00" fill="#444444">[Software System]</text>
</g>
<g id="clust2" class="cluster">
<title>cluster_14</title>
<polygon fill="none" stroke="#444444" points="33,-671 33,-1110 1277.5,-1110 1277.5,-671 33,-671"/>
<text text-anchor="start" x="489.75" y="-699.8" font-family="Arial" font-size="24.00" fill="#444444">WSL Loopback HTTP Daemon</text>
<text text-anchor="start" x="453.25" y="-679.8" font-family="Arial" font-size="19.00" fill="#444444">[Container: Python 3.11, ThreadingHTTPServer]</text>
</g>
<!-- 15 -->
<g id="15" class="node">
<title>15</title>
<polygon fill="#85bbf0" stroke="#1168bd" points="453,-1043.5 58,-1043.5 58,-812.5 453,-812.5 453,-1043.5"/>
<text text-anchor="start" x="87" y="-995.3" font-family="Arial" font-size="34.00" fill="#000000">HTTP Request Router</text>
<text text-anchor="start" x="119" y="-973.3" font-family="Arial" font-size="19.00" fill="#000000">[Component: Python http.server]</text>
<text text-anchor="start" x="90" y="-936.3" font-family="Arial" font-size="24.00" fill="#000000">Routes loopback API requests,</text>
<text text-anchor="start" x="112.5" y="-912.3" font-family="Arial" font-size="24.00" fill="#000000">serves UI assets, enforces</text>
<text text-anchor="start" x="91.5" y="-888.3" font-family="Arial" font-size="24.00" fill="#000000">bearer auth for memory/admin</text>
<text text-anchor="start" x="106" y="-864.3" font-family="Arial" font-size="24.00" fill="#000000">APIs, and applies CORS for</text>
<text text-anchor="start" x="172" y="-840.3" font-family="Arial" font-size="24.00" fill="#000000">allowed origins.</text>
</g>
<!-- 21 -->
<g id="21" class="node">
<title>21</title>
<polygon fill="#85bbf0" stroke="#1168bd" points="1252.5,-1084.5 831.5,-1084.5 831.5,-771.5 1252.5,-771.5 1252.5,-1084.5"/>
<text text-anchor="start" x="938.5" y="-1036.3" font-family="Arial" font-size="34.00" fill="#000000">Media Artifact</text>
<text text-anchor="start" x="975" y="-1002.3" font-family="Arial" font-size="34.00" fill="#000000">Manager</text>
<text text-anchor="start" x="860.5" y="-980.3" font-family="Arial" font-size="19.00" fill="#000000">[Component: Python + sqlite3 + filesystem]</text>
<text text-anchor="start" x="896" y="-943.3" font-family="Arial" font-size="24.00" fill="#000000">Records media references,</text>
<text text-anchor="start" x="918.5" y="-919.3" font-family="Arial" font-size="24.00" fill="#000000">validates blob uploads,</text>
<text text-anchor="start" x="900" y="-895.3" font-family="Arial" font-size="24.00" fill="#000000">enforces MIME/size/cache</text>
<text text-anchor="start" x="941.5" y="-871.3" font-family="Arial" font-size="24.00" fill="#000000">gates, writes blobs</text>
<text text-anchor="start" x="907.5" y="-847.3" font-family="Arial" font-size="24.00" fill="#000000">atomically, queues public</text>
<text text-anchor="start" x="902" y="-823.3" font-family="Arial" font-size="24.00" fill="#000000">fetch tasks, and purges or</text>
<text text-anchor="start" x="905.5" y="-799.3" font-family="Arial" font-size="24.00" fill="#000000">rehydrates cache entries.</text>
</g>
<!-- 15&#45;&gt;21 -->
<g id="68" class="edge">
<title>15&#45;&gt;21</title>
<path fill="none" stroke="#444444" stroke-dasharray="5,2" d="M453.2,-928C565.21,-928 705.82,-928 821.43,-928"/>
<polygon fill="#444444" stroke="#444444" points="821.47,-931.5 831.47,-928 821.47,-924.5 821.47,-931.5"/>
<polygon fill="white" stroke="transparent" points="510.5,-928 510.5,-962 795.5,-962 795.5,-928 510.5,-928"/>
<text text-anchor="start" x="515" y="-938.8" font-family="Arial" font-size="24.00" fill="#444444">Routes media requests to</text>
</g>
<!-- 29 -->
<g id="29" class="node">
<title>29</title>
<path fill="#2f95c8" stroke="#20688c" d="M1996.5,-1061.72C1996.5,-1088.29 1907.75,-1109.88 1798.5,-1109.88 1689.25,-1109.88 1600.5,-1088.29 1600.5,-1061.72 1600.5,-1061.72 1600.5,-628.28 1600.5,-628.28 1600.5,-601.71 1689.25,-580.12 1798.5,-580.12 1907.75,-580.12 1996.5,-601.71 1996.5,-628.28 1996.5,-628.28 1996.5,-1061.72 1996.5,-1061.72"/>
<path fill="none" stroke="#20688c" d="M1996.5,-1061.72C1996.5,-1035.14 1907.75,-1013.56 1798.5,-1013.56 1689.25,-1013.56 1600.5,-1035.14 1600.5,-1061.72"/>
<text text-anchor="start" x="1685.5" y="-989.3" font-family="Arial" font-size="34.00" fill="#ffffff">SQLite + FTS5</text>
<text text-anchor="start" x="1725.5" y="-955.3" font-family="Arial" font-size="34.00" fill="#ffffff">Database</text>
<text text-anchor="start" x="1672.5" y="-933.3" font-family="Arial" font-size="19.00" fill="#ffffff">[Container: SQLite with FTS5]</text>
<text text-anchor="start" x="1630.5" y="-896.3" font-family="Arial" font-size="24.00" fill="#ffffff">Durable complete cleaned&#45;text,</text>
<text text-anchor="start" x="1679.5" y="-872.3" font-family="Arial" font-size="24.00" fill="#ffffff">relational, and full&#45;text</text>
<text text-anchor="start" x="1681" y="-848.3" font-family="Arial" font-size="24.00" fill="#ffffff">authority for migration</text>
<text text-anchor="start" x="1646.5" y="-824.3" font-family="Arial" font-size="24.00" fill="#ffffff">ledger, sources, documents,</text>
<text text-anchor="start" x="1649" y="-800.3" font-family="Arial" font-size="24.00" fill="#ffffff">visits, capture observations,</text>
<text text-anchor="start" x="1667.5" y="-776.3" font-family="Arial" font-size="24.00" fill="#ffffff">URL claims, visit events,</text>
<text text-anchor="start" x="1630" y="-752.3" font-family="Arial" font-size="24.00" fill="#ffffff">snapshots, chunks, chunks_fts,</text>
<text text-anchor="start" x="1629.5" y="-728.3" font-family="Arial" font-size="24.00" fill="#ffffff">media provenance/tasks, policy</text>
<text text-anchor="start" x="1673" y="-704.3" font-family="Arial" font-size="24.00" fill="#ffffff">rules, audit events, and</text>
<text text-anchor="start" x="1706.5" y="-680.3" font-family="Arial" font-size="24.00" fill="#ffffff">deletion receipts.</text>
</g>
<!-- 21&#45;&gt;29 -->
<g id="76" class="edge">
<title>21&#45;&gt;29</title>
<path fill="none" stroke="#444444" stroke-dasharray="5,2" d="M1252.67,-904.94C1357.96,-893.35 1485.12,-879.36 1590.1,-867.82"/>
<polygon fill="#444444" stroke="#444444" points="1590.63,-871.28 1600.19,-866.71 1589.86,-864.32 1590.63,-871.28"/>
<polygon fill="white" stroke="transparent" points="1288.5,-898 1288.5,-973 1564.5,-973 1564.5,-898 1288.5,-898"/>
<text text-anchor="start" x="1292.5" y="-950.3" font-family="Arial" font-size="24.00" fill="#444444">Updates media rows and</text>
<text text-anchor="start" x="1385.5" y="-926.3" font-family="Arial" font-size="24.00" fill="#444444">tasks in</text>
<text text-anchor="start" x="1393" y="-906.3" font-family="Arial" font-size="19.00" fill="#444444">[sqlite3]</text>
</g>
<!-- 31 -->
<g id="31" class="node">
<title>31</title>
<path fill="#2f95c8" stroke="#20688c" d="M474.5,-602.28C474.5,-626.47 376.34,-646.13 255.5,-646.13 134.66,-646.13 36.5,-626.47 36.5,-602.28 36.5,-602.28 36.5,-207.72 36.5,-207.72 36.5,-183.53 134.66,-163.87 255.5,-163.87 376.34,-163.87 474.5,-183.53 474.5,-207.72 474.5,-207.72 474.5,-602.28 474.5,-602.28"/>
<path fill="none" stroke="#20688c" d="M474.5,-602.28C474.5,-578.09 376.34,-558.44 255.5,-558.44 134.66,-558.44 36.5,-578.09 36.5,-602.28"/>
<text text-anchor="start" x="116.5" y="-532.3" font-family="Arial" font-size="34.00" fill="#ffffff">Media Blob Cache</text>
<text text-anchor="start" x="65.5" y="-510.3" font-family="Arial" font-size="19.00" fill="#ffffff">[Container: WSL or NAS&#45;mounted filesystem]</text>
<text text-anchor="start" x="122" y="-473.3" font-family="Arial" font-size="24.00" fill="#ffffff">Bounded and disposable</text>
<text text-anchor="start" x="111" y="-449.3" font-family="Arial" font-size="24.00" fill="#ffffff">filesystem cache for stored</text>
<text text-anchor="start" x="90" y="-425.3" font-family="Arial" font-size="24.00" fill="#ffffff">image/video/audio blobs under</text>
<text text-anchor="start" x="111.5" y="-401.3" font-family="Arial" font-size="24.00" fill="#ffffff">the configured WSL&#45;visible</text>
<text text-anchor="start" x="180" y="-377.3" font-family="Arial" font-size="24.00" fill="#ffffff">blob root, with</text>
<text text-anchor="start" x="88" y="-353.3" font-family="Arial" font-size="24.00" fill="#ffffff">purge/rehydrate semantics that</text>
<text text-anchor="start" x="99" y="-329.3" font-family="Arial" font-size="24.00" fill="#ffffff">preserve media refs, hashes,</text>
<text text-anchor="start" x="82.5" y="-305.3" font-family="Arial" font-size="24.00" fill="#ffffff">status reasons, and provenance</text>
<text text-anchor="start" x="119" y="-281.3" font-family="Arial" font-size="24.00" fill="#ffffff">when bytes are absent or</text>
<text text-anchor="start" x="214" y="-257.3" font-family="Arial" font-size="24.00" fill="#ffffff">purged.</text>
</g>
</g>
</svg>
