<?xml version="1.0" encoding="UTF-8" standalone="no"?>
<!DOCTYPE svg PUBLIC "-//W3C//DTD SVG 1.1//EN"
 "http://www.w3.org/Graphics/SVG/1.1/DTD/svg11.dtd">
<!-- Generated by graphviz version 2.43.0 (0)
 -->
<!-- Title: %3 Pages: 1 -->
<svg width="2263pt" height="1726pt"
 viewBox="0.00 0.00 2263.00 1726.38" xmlns="http://www.w3.org/2000/svg" xmlns:xlink="http://www.w3.org/1999/xlink">
<g id="graph0" class="graph" transform="scale(1 1) rotate(0) translate(4 1722.38)">
<title>%3</title>
<polygon fill="white" stroke="transparent" points="-4,4 -4,-1722.38 2259,-1722.38 2259,4 -4,4"/>
<text text-anchor="start" x="596" y="-11.8" font-family="Arial" font-size="34.00">Component View: Browser Memory Daemon &#45; Chrome MV3 Extension</text>
<g id="clust1" class="cluster">
<title>cluster_4</title>
<polygon fill="none" stroke="#444444" points="8,-64 8,-1710.38 1844,-1710.38 1844,-64 8,-64"/>
<text text-anchor="start" x="785" y="-92.8" font-family="Arial" font-size="24.00" fill="#444444">Browser Memory Daemon</text>
<text text-anchor="start" x="849" y="-72.8" font-family="Arial" font-size="19.00" fill="#444444">[Software System]</text>
</g>
<g id="clust2" class="cluster">
<title>cluster_5</title>
<polygon fill="none" stroke="#444444" points="446,-812.38 446,-1685.38 1378,-1685.38 1378,-812.38 446,-812.38"/>
<text text-anchor="start" x="784" y="-841.17" font-family="Arial" font-size="24.00" fill="#444444">Chrome MV3 Extension</text>
<text text-anchor="start" x="724" y="-821.17" font-family="Arial" font-size="19.00" fill="#444444">[Container: JavaScript, Chrome Manifest V3]</text>
</g>
<!-- 2 -->
<g id="2" class="node">
<title>2</title>
<polygon fill="#999999" stroke="#6b6b6b" points="2255,-544.19 1869,-544.19 1869,-313.19 2255,-313.19 2255,-544.19"/>
<text text-anchor="start" x="1927.5" y="-495.99" font-family="Arial" font-size="34.00" fill="#ffffff">Windows Chrome</text>
<text text-anchor="start" x="1985" y="-473.99" font-family="Arial" font-size="19.00" fill="#ffffff">[Software System]</text>
<text text-anchor="start" x="1898" y="-436.99" font-family="Arial" font-size="24.00" fill="#ffffff">The Windows Chrome runtime</text>
<text text-anchor="start" x="1911.5" y="-412.99" font-family="Arial" font-size="24.00" fill="#ffffff">that loads web pages, hosts</text>
<text text-anchor="start" x="1911" y="-388.99" font-family="Arial" font-size="24.00" fill="#ffffff">the MV3 extension, runs the</text>
<text text-anchor="start" x="1903" y="-364.99" font-family="Arial" font-size="24.00" fill="#ffffff">local UI in a tab, and exposes</text>
<text text-anchor="start" x="1932.5" y="-340.99" font-family="Arial" font-size="24.00" fill="#ffffff">Chrome extension APIs.</text>
</g>
<!-- 11 -->
<g id="11" class="node">
<title>11</title>
<polygon fill="#85bbf0" stroke="#1168bd" points="867,-1249.38 471,-1249.38 471,-912.38 867,-912.38 867,-1249.38"/>
<text text-anchor="start" x="500" y="-1201.17" font-family="Arial" font-size="34.00" fill="#000000">Browser Media Queue</text>
<text text-anchor="start" x="609.5" y="-1167.17" font-family="Arial" font-size="34.00" fill="#000000">Adapter</text>
<text text-anchor="start" x="507" y="-1145.17" font-family="Arial" font-size="19.00" fill="#000000">[Component: JavaScript + IndexedDB]</text>
<text text-anchor="start" x="534.5" y="-1108.17" font-family="Arial" font-size="24.00" fill="#000000">Persists media tasks and</text>
<text text-anchor="start" x="528" y="-1084.17" font-family="Arial" font-size="24.00" fill="#000000">fetched blobs in versioned</text>
<text text-anchor="start" x="545.5" y="-1060.17" font-family="Arial" font-size="24.00" fill="#000000">IndexedDB with atomic</text>
<text text-anchor="start" x="551" y="-1036.17" font-family="Arial" font-size="24.00" fill="#000000">batch/blob transitions,</text>
<text text-anchor="start" x="569.5" y="-1012.17" font-family="Arial" font-size="24.00" fill="#000000">count/byte quotas,</text>
<text text-anchor="start" x="504.5" y="-988.17" font-family="Arial" font-size="24.00" fill="#000000">stale&#45;processing recovery, and</text>
<text text-anchor="start" x="514" y="-964.17" font-family="Arial" font-size="24.00" fill="#000000">bounded terminal quarantine</text>
<text text-anchor="start" x="623" y="-940.17" font-family="Arial" font-size="24.00" fill="#000000">cleanup.</text>
</g>
<!-- 14 -->
<g id="14" class="node">
<title>14</title>
<path fill="#2f95c8" stroke="#20688c" d="M785.5,-645.4C785.5,-671.98 683.98,-693.56 559,-693.56 434.02,-693.56 332.5,-671.98 332.5,-645.4 332.5,-645.4 332.5,-211.97 332.5,-211.97 332.5,-185.4 434.02,-163.81 559,-163.81 683.98,-163.81 785.5,-185.4 785.5,-211.97 785.5,-211.97 785.5,-645.4 785.5,-645.4"/>
<path fill="none" stroke="#20688c" d="M785.5,-645.4C785.5,-618.83 683.98,-597.24 559,-597.24 434.02,-597.24 332.5,-618.83 332.5,-645.4"/>
<text text-anchor="start" x="417" y="-572.99" font-family="Arial" font-size="34.00" fill="#ffffff">Extension Browser</text>
<text text-anchor="start" x="499.5" y="-538.99" font-family="Arial" font-size="34.00" fill="#ffffff">Storage</text>
<text text-anchor="start" x="361.5" y="-516.99" font-family="Arial" font-size="19.00" fill="#ffffff">[Container: chrome.storage.local + IndexedDB]</text>
<text text-anchor="start" x="381.5" y="-479.99" font-family="Arial" font-size="24.00" fill="#ffffff">Browser&#45;side IndexedDB storage</text>
<text text-anchor="start" x="472.5" y="-455.99" font-family="Arial" font-size="24.00" fill="#ffffff">for transactional</text>
<text text-anchor="start" x="403.5" y="-431.99" font-family="Arial" font-size="24.00" fill="#ffffff">capture/lifecycle outbox rows</text>
<text text-anchor="start" x="393.5" y="-407.99" font-family="Arial" font-size="24.00" fill="#ffffff">plus specialized durable media</text>
<text text-anchor="start" x="495" y="-383.99" font-family="Arial" font-size="24.00" fill="#ffffff">tasks/blobs;</text>
<text text-anchor="start" x="406.5" y="-359.99" font-family="Arial" font-size="24.00" fill="#ffffff">chrome.storage.local retains</text>
<text text-anchor="start" x="407" y="-335.99" font-family="Arial" font-size="24.00" fill="#ffffff">typed configuration, lifecycle</text>
<text text-anchor="start" x="450.5" y="-311.99" font-family="Arial" font-size="24.00" fill="#ffffff">tab state, aggregate</text>
<text text-anchor="start" x="416" y="-287.99" font-family="Arial" font-size="24.00" fill="#ffffff">telemetry, and one&#45;version</text>
<text text-anchor="start" x="452.5" y="-263.99" font-family="Arial" font-size="24.00" fill="#ffffff">queue fallback only.</text>
</g>
<!-- 11&#45;&gt;14 -->
<g id="82" class="edge">
<title>11&#45;&gt;14</title>
<path fill="none" stroke="#444444" stroke-dasharray="5,2" d="M640.6,-912.01C629.84,-848.41 617.29,-774.22 605.3,-703.38"/>
<polygon fill="#444444" stroke="#444444" points="608.74,-702.68 603.62,-693.4 601.83,-703.85 608.74,-702.68"/>
<polygon fill="white" stroke="transparent" points="623,-729.38 623,-804.38 891,-804.38 891,-729.38 623,-729.38"/>
<text text-anchor="start" x="627" y="-781.67" font-family="Arial" font-size="24.00" fill="#444444">Reads and writes media</text>
<text text-anchor="start" x="683.5" y="-757.67" font-family="Arial" font-size="24.00" fill="#444444">tasks/blobs in</text>
<text text-anchor="start" x="704.5" y="-737.67" font-family="Arial" font-size="19.00" fill="#444444">[IndexedDB]</text>
</g>
<!-- 12 -->
<g id="12" class="node">
<title>12</title>
<polygon fill="#85bbf0" stroke="#1168bd" points="1352.5,-1208.38 939.5,-1208.38 939.5,-953.38 1352.5,-953.38 1352.5,-1208.38"/>
<text text-anchor="start" x="1035.5" y="-1160.17" font-family="Arial" font-size="34.00" fill="#000000">CDP Recorder</text>
<text text-anchor="start" x="973.5" y="-1138.17" font-family="Arial" font-size="19.00" fill="#000000">[Component: Chrome DevTools Protocol]</text>
<text text-anchor="start" x="1003" y="-1101.17" font-family="Arial" font-size="24.00" fill="#000000">Uses chrome.debugger on</text>
<text text-anchor="start" x="999" y="-1077.17" font-family="Arial" font-size="24.00" fill="#000000">configured X/Twitter tabs to</text>
<text text-anchor="start" x="985" y="-1053.17" font-family="Arial" font-size="24.00" fill="#000000">capture video.twimg.com HLS</text>
<text text-anchor="start" x="978" y="-1029.17" font-family="Arial" font-size="24.00" fill="#000000">manifests and media segments</text>
<text text-anchor="start" x="968.5" y="-1005.17" font-family="Arial" font-size="24.00" fill="#000000">before they become opaque blob</text>
<text text-anchor="start" x="1076" y="-981.17" font-family="Arial" font-size="24.00" fill="#000000">player URLs.</text>
</g>
<!-- 12&#45;&gt;2 -->
<g id="85" class="edge">
<title>12&#45;&gt;2</title>
<path fill="none" stroke="#444444" stroke-dasharray="5,2" d="M1212.03,-953.27C1247.26,-899.58 1296.03,-842.54 1357,-812.38 1382.15,-799.93 1838.05,-819 1862,-804.38 1951.32,-749.84 2003.07,-640.6 2031.46,-554.09"/>
<polygon fill="#444444" stroke="#444444" points="2034.83,-555.05 2034.56,-544.46 2028.17,-552.91 2034.83,-555.05"/>
<polygon fill="white" stroke="transparent" points="1937,-729.38 1937,-804.38 2218,-804.38 2218,-729.38 1937,-729.38"/>
<text text-anchor="start" x="1941.5" y="-781.67" font-family="Arial" font-size="24.00" fill="#444444">Receives Network events</text>
<text text-anchor="start" x="2053.5" y="-757.67" font-family="Arial" font-size="24.00" fill="#444444">from</text>
<text text-anchor="start" x="1976" y="-737.67" font-family="Arial" font-size="19.00" fill="#444444">[chrome.debugger/CDP]</text>
</g>
<!-- 15 -->
<g id="15" class="node">
<title>15</title>
<polygon fill="#438dd5" stroke="#2e6295" points="1498,-597.19 1036,-597.19 1036,-260.19 1498,-260.19 1498,-597.19"/>
<text text-anchor="start" x="1102.5" y="-548.99" font-family="Arial" font-size="34.00" fill="#ffffff">WSL Loopback HTTP</text>
<text text-anchor="start" x="1202.5" y="-514.99" font-family="Arial" font-size="34.00" fill="#ffffff">Daemon</text>
<text text-anchor="start" x="1065" y="-492.99" font-family="Arial" font-size="19.00" fill="#ffffff">[Container: Python 3.11, ThreadingHTTPServer]</text>
<text text-anchor="start" x="1106" y="-455.99" font-family="Arial" font-size="24.00" fill="#ffffff">Authenticated loopback HTTP</text>
<text text-anchor="start" x="1131" y="-431.99" font-family="Arial" font-size="24.00" fill="#ffffff">API that handles capture,</text>
<text text-anchor="start" x="1127.5" y="-407.99" font-family="Arial" font-size="24.00" fill="#ffffff">visit events, media artifact</text>
<text text-anchor="start" x="1130.5" y="-383.99" font-family="Arial" font-size="24.00" fill="#ffffff">upload/fetch/purge, exact</text>
<text text-anchor="start" x="1227" y="-359.99" font-family="Arial" font-size="24.00" fill="#ffffff">search,</text>
<text text-anchor="start" x="1118" y="-335.99" font-family="Arial" font-size="24.00" fill="#ffffff">recent/timeline/detail, policy</text>
<text text-anchor="start" x="1115.5" y="-311.99" font-family="Arial" font-size="24.00" fill="#ffffff">rules, doctor, durable forget,</text>
<text text-anchor="start" x="1154" y="-287.99" font-family="Arial" font-size="24.00" fill="#ffffff">and static UI serving.</text>
</g>
<!-- 12&#45;&gt;15 -->
<g id="86" class="edge">
<title>12&#45;&gt;15</title>
<path fill="none" stroke="#444444" stroke-dasharray="5,2" d="M1134.4,-953.03C1131.17,-885.95 1131.79,-802.55 1146,-729.38 1153.92,-688.58 1167.39,-646.31 1182.53,-606.83"/>
<polygon fill="#444444" stroke="#444444" points="1185.84,-607.97 1186.2,-597.39 1179.31,-605.44 1185.84,-607.97"/>
<polygon fill="white" stroke="transparent" points="1146,-729.38 1146,-804.38 1478,-804.38 1478,-729.38 1146,-729.38"/>
<text text-anchor="start" x="1150" y="-781.67" font-family="Arial" font-size="24.00" fill="#444444">Uploads CDP media rows and</text>
<text text-anchor="start" x="1269.5" y="-757.67" font-family="Arial" font-size="24.00" fill="#444444">blobs to</text>
<text text-anchor="start" x="1155" y="-737.67" font-family="Arial" font-size="19.00" fill="#444444">[Bearer HTTP/JSON; raw HTTP PUT]</text>
</g>
<!-- 9 -->
<g id="9" class="node">
<title>9</title>
<polygon fill="#85bbf0" stroke="#1168bd" points="1130,-1660.38 692,-1660.38 692,-1381.38 1130,-1381.38 1130,-1660.38"/>
<text text-anchor="start" x="795" y="-1612.17" font-family="Arial" font-size="34.00" fill="#000000">Service Worker</text>
<text text-anchor="start" x="721" y="-1590.17" font-family="Arial" font-size="19.00" fill="#000000">[Component: JavaScript MV3 service worker]</text>
<text text-anchor="start" x="739.5" y="-1553.17" font-family="Arial" font-size="24.00" fill="#000000">Orchestrates daemon transport,</text>
<text text-anchor="start" x="780.5" y="-1529.17" font-family="Arial" font-size="24.00" fill="#000000">bearer token use, stable</text>
<text text-anchor="start" x="789.5" y="-1505.17" font-family="Arial" font-size="24.00" fill="#000000">observation/navigation</text>
<text text-anchor="start" x="790.5" y="-1481.17" font-family="Arial" font-size="24.00" fill="#000000">identity, lifecycle state,</text>
<text text-anchor="start" x="774.5" y="-1457.17" font-family="Arial" font-size="24.00" fill="#000000">outbox and media drains,</text>
<text text-anchor="start" x="770" y="-1433.17" font-family="Arial" font-size="24.00" fill="#000000">alarms, and CDP recorder</text>
<text text-anchor="start" x="850.5" y="-1409.17" font-family="Arial" font-size="24.00" fill="#000000">integration.</text>
</g>
<!-- 9&#45;&gt;11 -->
<g id="81" class="edge">
<title>9&#45;&gt;11</title>
<path fill="none" stroke="#444444" stroke-dasharray="5,2" d="M725.83,-1381.1C716.87,-1369.75 708.8,-1357.82 702,-1345.38 687.71,-1319.2 678.53,-1289.43 672.79,-1259.55"/>
<polygon fill="#444444" stroke="#444444" points="676.19,-1258.64 670.98,-1249.42 669.3,-1259.88 676.19,-1258.64"/>
<polygon fill="white" stroke="transparent" points="702,-1285.38 702,-1345.38 989,-1345.38 989,-1285.38 702,-1285.38"/>
<text text-anchor="start" x="706.5" y="-1322.17" font-family="Arial" font-size="24.00" fill="#444444">Persists and drains media</text>
<text text-anchor="start" x="775.5" y="-1296.17" font-family="Arial" font-size="24.00" fill="#444444">work through</text>
</g>
<!-- 9&#45;&gt;12 -->
<g id="83" class="edge">
<title>9&#45;&gt;12</title>
<path fill="none" stroke="#444444" stroke-dasharray="5,2" d="M985.36,-1381.29C1013.45,-1328.93 1045.36,-1269.45 1073.3,-1217.38"/>
<polygon fill="#444444" stroke="#444444" points="1076.46,-1218.88 1078.11,-1208.42 1070.3,-1215.57 1076.46,-1218.88"/>
<polygon fill="white" stroke="transparent" points="1035,-1285.38 1035,-1345.38 1255,-1345.38 1255,-1285.38 1035,-1285.38"/>
<text text-anchor="start" x="1039" y="-1322.17" font-family="Arial" font-size="24.00" fill="#444444">Detects CDP media</text>
<text text-anchor="start" x="1061.5" y="-1296.17" font-family="Arial" font-size="24.00" fill="#444444">candidates with</text>
</g>
<!-- 9&#45;&gt;14 -->
<g id="79" class="edge">
<title>9&#45;&gt;14</title>
<path fill="none" stroke="#444444" stroke-dasharray="5,2" d="M691.98,-1508.9C511.18,-1486.89 264.9,-1424.23 141,-1249.38 28.71,-1090.91 62.74,-990.13 141,-812.38 180.26,-723.21 251.68,-645.77 324.51,-584.32"/>
<polygon fill="#444444" stroke="#444444" points="327.05,-586.77 332.48,-577.67 322.56,-581.4 327.05,-586.77"/>
<polygon fill="white" stroke="transparent" points="141,-1007.38 141,-1154.38 435,-1154.38 435,-1007.38 141,-1007.38"/>
<text text-anchor="start" x="212" y="-1131.67" font-family="Arial" font-size="24.00" fill="#444444">Persists typed</text>
<text text-anchor="start" x="169" y="-1107.67" font-family="Arial" font-size="24.00" fill="#444444">configuration, lifecycle</text>
<text text-anchor="start" x="179.5" y="-1083.67" font-family="Arial" font-size="24.00" fill="#444444">tab state, aggregate</text>
<text text-anchor="start" x="145" y="-1059.67" font-family="Arial" font-size="24.00" fill="#444444">telemetry, and one&#45;version</text>
<text text-anchor="start" x="197" y="-1035.67" font-family="Arial" font-size="24.00" fill="#444444">queue fallback in</text>
<text text-anchor="start" x="194.5" y="-1015.67" font-family="Arial" font-size="19.00" fill="#444444">[chrome.storage.local]</text>
</g>
<!-- 9&#45;&gt;15 -->
<g id="80" class="edge">
<title>9&#45;&gt;15</title>
<path fill="none" stroke="#444444" stroke-dasharray="5,2" d="M1130.11,-1450.63C1226.37,-1408.39 1330.61,-1343.88 1389,-1249.38 1512.84,-1048.95 1566.56,-952.87 1492,-729.38 1477.6,-686.2 1454.26,-644.24 1427.95,-606.06"/>
<polygon fill="#444444" stroke="#444444" points="1430.54,-603.65 1421.94,-597.46 1424.8,-607.66 1430.54,-603.65"/>
<polygon fill="white" stroke="transparent" points="1526,-1031.38 1526,-1130.38 1848,-1130.38 1848,-1031.38 1526,-1031.38"/>
<text text-anchor="start" x="1592.5" y="-1107.67" font-family="Arial" font-size="24.00" fill="#444444">Delivers /capture,</text>
<text text-anchor="start" x="1583" y="-1083.67" font-family="Arial" font-size="24.00" fill="#444444">/visit&#45;events, media</text>
<text text-anchor="start" x="1540.5" y="-1059.67" font-family="Arial" font-size="24.00" fill="#444444">metadata, and raw blobs to</text>
<text text-anchor="start" x="1530" y="-1039.67" font-family="Arial" font-size="19.00" fill="#444444">[Bearer HTTP/JSON; raw HTTP PUT]</text>
</g>
</g>
</svg>
