<?xml version="1.0" encoding="UTF-8" standalone="no"?>
<!DOCTYPE svg PUBLIC "-//W3C//DTD SVG 1.1//EN"
 "http://www.w3.org/Graphics/SVG/1.1/DTD/svg11.dtd">
<!-- Generated by graphviz version 2.43.0 (0)
 -->
<!-- Title: %3 Pages: 1 -->
<svg width="1912pt" height="669pt"
 viewBox="0.00 0.00 1912.00 669.00" xmlns="http://www.w3.org/2000/svg" xmlns:xlink="http://www.w3.org/1999/xlink">
<g id="graph0" class="graph" transform="scale(1 1) rotate(0) translate(4 665)">
<title>%3</title>
<polygon fill="white" stroke="transparent" points="-4,4 -4,-665 1908,-665 1908,4 -4,4"/>
<text text-anchor="start" x="367" y="-11.8" font-family="Arial" font-size="34.00">Component View: Browser Memory Daemon &#45; WSL Loopback HTTP Daemon</text>
<g id="clust1" class="cluster">
<title>cluster_4</title>
<polygon fill="none" stroke="#444444" points="8,-64 8,-653 1896,-653 1896,-64 8,-64"/>
<text text-anchor="start" x="811" y="-92.8" font-family="Arial" font-size="24.00" fill="#444444">Browser Memory Daemon</text>
<text text-anchor="start" x="875" y="-72.8" font-family="Arial" font-size="19.00" fill="#444444">[Software System]</text>
</g>
<g id="clust2" class="cluster">
<title>cluster_14</title>
<polygon fill="none" stroke="#444444" points="33,-180 33,-537 1194,-537 1194,-180 33,-180"/>
<text text-anchor="start" x="448" y="-208.8" font-family="Arial" font-size="24.00" fill="#444444">WSL Loopback HTTP Daemon</text>
<text text-anchor="start" x="411.5" y="-188.8" font-family="Arial" font-size="19.00" fill="#444444">[Container: Python 3.11, ThreadingHTTPServer]</text>
</g>
<!-- 15 -->
<g id="15" class="node">
<title>15</title>
<polygon fill="#85bbf0" stroke="#5d82a8" points="453,-511.5 58,-511.5 58,-280.5 453,-280.5 453,-511.5"/>
<text text-anchor="start" x="87" y="-463.3" font-family="Arial" font-size="34.00" fill="#000000">HTTP Request Router</text>
<text text-anchor="start" x="119" y="-441.3" font-family="Arial" font-size="19.00" fill="#000000">[Component: Python http.server]</text>
<text text-anchor="start" x="90" y="-404.3" font-family="Arial" font-size="24.00" fill="#000000">Routes loopback API requests,</text>
<text text-anchor="start" x="112.5" y="-380.3" font-family="Arial" font-size="24.00" fill="#000000">serves UI assets, enforces</text>
<text text-anchor="start" x="91.5" y="-356.3" font-family="Arial" font-size="24.00" fill="#000000">bearer auth for memory/admin</text>
<text text-anchor="start" x="106" y="-332.3" font-family="Arial" font-size="24.00" fill="#000000">APIs, and applies CORS for</text>
<text text-anchor="start" x="172" y="-308.3" font-family="Arial" font-size="24.00" fill="#000000">allowed origins.</text>
</g>
<!-- 19 -->
<g id="19" class="node">
<title>19</title>
<polygon fill="#85bbf0" stroke="#5d82a8" points="1169,-499.5 807,-499.5 807,-292.5 1169,-292.5 1169,-499.5"/>
<text text-anchor="start" x="856.5" y="-451.3" font-family="Arial" font-size="34.00" fill="#000000">Lifecycle Pipeline</text>
<text text-anchor="start" x="860" y="-429.3" font-family="Arial" font-size="19.00" fill="#000000">[Component: Python + sqlite3]</text>
<text text-anchor="start" x="852.5" y="-392.3" font-family="Arial" font-size="24.00" fill="#000000">Stores metadata&#45;only tab</text>
<text text-anchor="start" x="836" y="-368.3" font-family="Arial" font-size="24.00" fill="#000000">lifecycle events and updates</text>
<text text-anchor="start" x="888" y="-344.3" font-family="Arial" font-size="24.00" fill="#000000">visit dwell seconds</text>
<text text-anchor="start" x="916.5" y="-320.3" font-family="Arial" font-size="24.00" fill="#000000">idempotently.</text>
</g>
<!-- 15&#45;&gt;19 -->
<g id="64" class="edge">
<title>15&#45;&gt;19</title>
<path fill="none" stroke="#444444" stroke-dasharray="5,2" d="M453.22,-396C559.86,-396 691.06,-396 796.69,-396"/>
<polygon fill="#444444" stroke="#444444" points="796.83,-399.5 806.83,-396 796.83,-392.5 796.83,-399.5"/>
<polygon fill="white" stroke="transparent" points="489,-396 489,-430 771,-430 771,-396 489,-396"/>
<text text-anchor="start" x="493" y="-406.8" font-family="Arial" font-size="24.00" fill="#444444">Routes lifecycle events to</text>
</g>
<!-- 27 -->
<g id="27" class="node">
<title>27</title>
<path fill="#2f95c8" stroke="#20688c" d="M1871,-585.72C1871,-608.98 1792.11,-627.88 1695,-627.88 1597.89,-627.88 1519,-608.98 1519,-585.72 1519,-585.72 1519,-206.28 1519,-206.28 1519,-183.02 1597.89,-164.12 1695,-164.12 1792.11,-164.12 1871,-183.02 1871,-206.28 1871,-206.28 1871,-585.72 1871,-585.72"/>
<path fill="none" stroke="#20688c" d="M1871,-585.72C1871,-562.45 1792.11,-543.56 1695,-543.56 1597.89,-543.56 1519,-562.45 1519,-585.72"/>
<text text-anchor="start" x="1582" y="-516.3" font-family="Arial" font-size="34.00" fill="#ffffff">SQLite + FTS5</text>
<text text-anchor="start" x="1622" y="-482.3" font-family="Arial" font-size="34.00" fill="#ffffff">Database</text>
<text text-anchor="start" x="1569" y="-460.3" font-family="Arial" font-size="19.00" fill="#ffffff">[Container: SQLite with FTS5]</text>
<text text-anchor="start" x="1576" y="-423.3" font-family="Arial" font-size="24.00" fill="#ffffff">Durable relational and</text>
<text text-anchor="start" x="1558.5" y="-399.3" font-family="Arial" font-size="24.00" fill="#ffffff">full&#45;text store for sources,</text>
<text text-anchor="start" x="1574.5" y="-375.3" font-family="Arial" font-size="24.00" fill="#ffffff">documents, visits, visit</text>
<text text-anchor="start" x="1549" y="-351.3" font-family="Arial" font-size="24.00" fill="#ffffff">events, snapshots, chunks,</text>
<text text-anchor="start" x="1548" y="-327.3" font-family="Arial" font-size="24.00" fill="#ffffff">chunks_fts, media artifacts,</text>
<text text-anchor="start" x="1563" y="-303.3" font-family="Arial" font-size="24.00" fill="#ffffff">media fetch tasks, policy</text>
<text text-anchor="start" x="1569.5" y="-279.3" font-family="Arial" font-size="24.00" fill="#ffffff">rules, audit events, and</text>
<text text-anchor="start" x="1603" y="-255.3" font-family="Arial" font-size="24.00" fill="#ffffff">deletion receipts.</text>
</g>
<!-- 19&#45;&gt;27 -->
<g id="73" class="edge">
<title>19&#45;&gt;27</title>
<path fill="none" stroke="#444444" stroke-dasharray="5,2" d="M1169.18,-396C1273.22,-396 1403.83,-396 1508.72,-396"/>
<polygon fill="#444444" stroke="#444444" points="1508.79,-399.5 1518.79,-396 1508.79,-392.5 1508.79,-399.5"/>
<polygon fill="white" stroke="transparent" points="1205,-396 1205,-471 1483,-471 1483,-396 1205,-396"/>
<text text-anchor="start" x="1209" y="-448.3" font-family="Arial" font-size="24.00" fill="#444444">Writes lifecycle and dwell</text>
<text text-anchor="start" x="1333.5" y="-424.3" font-family="Arial" font-size="24.00" fill="#444444">to</text>
<text text-anchor="start" x="1310.5" y="-404.3" font-family="Arial" font-size="19.00" fill="#444444">[sqlite3]</text>
</g>
</g>
</svg>
