<?xml version="1.0" encoding="UTF-8" standalone="no"?>
<!DOCTYPE svg PUBLIC "-//W3C//DTD SVG 1.1//EN"
 "http://www.w3.org/Graphics/SVG/1.1/DTD/svg11.dtd">
<!-- Generated by graphviz version 2.43.0 (0)
 -->
<!-- Title: %3 Pages: 1 -->
<svg width="2295pt" height="1228pt"
 viewBox="0.00 0.00 2295.00 1227.50" xmlns="http://www.w3.org/2000/svg" xmlns:xlink="http://www.w3.org/1999/xlink">
<g id="graph0" class="graph" transform="scale(1 1) rotate(0) translate(4 1223.5)">
<title>%3</title>
<polygon fill="white" stroke="transparent" points="-4,4 -4,-1223.5 2291,-1223.5 2291,4 -4,4"/>
<text text-anchor="start" x="828" y="-11.8" font-family="Arial" font-size="34.00">Dynamic View: Browser Memory Daemon</text>
<g id="clust1" class="cluster">
<title>cluster_4</title>
<polygon fill="none" stroke="#444444" points="8,-312.5 8,-1211.5 2279,-1211.5 2279,-312.5 8,-312.5"/>
<text text-anchor="start" x="1002.5" y="-341.3" font-family="Arial" font-size="24.00" fill="#444444">Browser Memory Daemon</text>
<text text-anchor="start" x="1066.5" y="-321.3" font-family="Arial" font-size="19.00" fill="#444444">[Software System]</text>
</g>
<!-- 13 -->
<g id="13" class="node">
<title>13</title>
<path fill="#2f95c8" stroke="#20688c" d="M1491.5,-1153.72C1491.5,-1172.01 1389.98,-1186.88 1265,-1186.88 1140.02,-1186.88 1038.5,-1172.01 1038.5,-1153.72 1038.5,-1153.72 1038.5,-855.28 1038.5,-855.28 1038.5,-836.99 1140.02,-822.12 1265,-822.12 1389.98,-822.12 1491.5,-836.99 1491.5,-855.28 1491.5,-855.28 1491.5,-1153.72 1491.5,-1153.72"/>
<path fill="none" stroke="#20688c" d="M1491.5,-1153.72C1491.5,-1135.42 1389.98,-1120.56 1265,-1120.56 1140.02,-1120.56 1038.5,-1135.42 1038.5,-1153.72"/>
<text text-anchor="start" x="1123" y="-1088.8" font-family="Arial" font-size="34.00" fill="#ffffff">Extension Browser</text>
<text text-anchor="start" x="1205.5" y="-1054.8" font-family="Arial" font-size="34.00" fill="#ffffff">Storage</text>
<text text-anchor="start" x="1067.5" y="-1032.8" font-family="Arial" font-size="19.00" fill="#ffffff">[Container: chrome.storage.local + IndexedDB]</text>
<text text-anchor="start" x="1132.5" y="-995.8" font-family="Arial" font-size="24.00" fill="#ffffff">Browser&#45;side storage for</text>
<text text-anchor="start" x="1120.5" y="-971.8" font-family="Arial" font-size="24.00" fill="#ffffff">capture and visit queues in</text>
<text text-anchor="start" x="1126.5" y="-947.8" font-family="Arial" font-size="24.00" fill="#ffffff">chrome.storage.local plus</text>
<text text-anchor="start" x="1132.5" y="-923.8" font-family="Arial" font-size="24.00" fill="#ffffff">durable media tasks and</text>
<text text-anchor="start" x="1113.5" y="-899.8" font-family="Arial" font-size="24.00" fill="#ffffff">fetched blobs in IndexedDB.</text>
</g>
<!-- 14 -->
<g id="14" class="node">
<title>14</title>
<polygon fill="#438dd5" stroke="#2e6295" points="1496,-750 1034,-750 1034,-413 1496,-413 1496,-750"/>
<text text-anchor="start" x="1100.5" y="-701.8" font-family="Arial" font-size="34.00" fill="#ffffff">WSL Loopback HTTP</text>
<text text-anchor="start" x="1200.5" y="-667.8" font-family="Arial" font-size="34.00" fill="#ffffff">Daemon</text>
<text text-anchor="start" x="1063" y="-645.8" font-family="Arial" font-size="19.00" fill="#ffffff">[Container: Python 3.11, ThreadingHTTPServer]</text>
<text text-anchor="start" x="1104" y="-608.8" font-family="Arial" font-size="24.00" fill="#ffffff">Authenticated loopback HTTP</text>
<text text-anchor="start" x="1129" y="-584.8" font-family="Arial" font-size="24.00" fill="#ffffff">API that handles capture,</text>
<text text-anchor="start" x="1125.5" y="-560.8" font-family="Arial" font-size="24.00" fill="#ffffff">visit events, media artifact</text>
<text text-anchor="start" x="1128.5" y="-536.8" font-family="Arial" font-size="24.00" fill="#ffffff">upload/fetch/purge, exact</text>
<text text-anchor="start" x="1225" y="-512.8" font-family="Arial" font-size="24.00" fill="#ffffff">search,</text>
<text text-anchor="start" x="1116" y="-488.8" font-family="Arial" font-size="24.00" fill="#ffffff">recent/timeline/detail, policy</text>
<text text-anchor="start" x="1113.5" y="-464.8" font-family="Arial" font-size="24.00" fill="#ffffff">rules, doctor, durable forget,</text>
<text text-anchor="start" x="1152" y="-440.8" font-family="Arial" font-size="24.00" fill="#ffffff">and static UI serving.</text>
</g>
<!-- 38 -->
<g id="38" class="node">
<title>38</title>
<path fill="#2f95c8" stroke="#20688c" d="M2254,-923.72C2254,-951.94 2165.48,-974.88 2056.5,-974.88 1947.52,-974.88 1859,-951.94 1859,-923.72 1859,-923.72 1859,-463.28 1859,-463.28 1859,-435.06 1947.52,-412.12 2056.5,-412.12 2165.48,-412.12 2254,-435.06 2254,-463.28 2254,-463.28 2254,-923.72 2254,-923.72"/>
<path fill="none" stroke="#20688c" d="M2254,-923.72C2254,-895.49 2165.48,-872.56 2056.5,-872.56 1947.52,-872.56 1859,-895.49 1859,-923.72"/>
<text text-anchor="start" x="1943.5" y="-849.8" font-family="Arial" font-size="34.00" fill="#ffffff">SQLite + FTS5</text>
<text text-anchor="start" x="1983.5" y="-815.8" font-family="Arial" font-size="34.00" fill="#ffffff">Database</text>
<text text-anchor="start" x="1930.5" y="-793.8" font-family="Arial" font-size="19.00" fill="#ffffff">[Container: SQLite with FTS5]</text>
<text text-anchor="start" x="1888.5" y="-756.8" font-family="Arial" font-size="24.00" fill="#ffffff">Durable complete cleaned&#45;text,</text>
<text text-anchor="start" x="1937.5" y="-732.8" font-family="Arial" font-size="24.00" fill="#ffffff">relational, and full&#45;text</text>
<text text-anchor="start" x="1939" y="-708.8" font-family="Arial" font-size="24.00" fill="#ffffff">authority for migration</text>
<text text-anchor="start" x="1904.5" y="-684.8" font-family="Arial" font-size="24.00" fill="#ffffff">ledger, sources, documents,</text>
<text text-anchor="start" x="1907" y="-660.8" font-family="Arial" font-size="24.00" fill="#ffffff">visits, capture observations,</text>
<text text-anchor="start" x="1925.5" y="-636.8" font-family="Arial" font-size="24.00" fill="#ffffff">URL claims, visit events,</text>
<text text-anchor="start" x="1888" y="-612.8" font-family="Arial" font-size="24.00" fill="#ffffff">snapshots, chunks, chunks_fts,</text>
<text text-anchor="start" x="1895.5" y="-588.8" font-family="Arial" font-size="24.00" fill="#ffffff">media provenance/tasks, blob</text>
<text text-anchor="start" x="1932" y="-564.8" font-family="Arial" font-size="24.00" fill="#ffffff">lifecycle records, policy</text>
<text text-anchor="start" x="1931" y="-540.8" font-family="Arial" font-size="24.00" fill="#ffffff">rules, audit events, and</text>
<text text-anchor="start" x="1964.5" y="-516.8" font-family="Arial" font-size="24.00" fill="#ffffff">deletion receipts.</text>
</g>
<!-- 14&#45;&gt;38 -->
<g id="60" class="edge">
<title>14&#45;&gt;38</title>
<path fill="none" stroke="#444444" stroke-dasharray="5,2" d="M1496.21,-614.16C1607.67,-629.97 1740.43,-648.8 1848.63,-664.15"/>
<polygon fill="#444444" stroke="#444444" points="1848.3,-667.64 1858.69,-665.58 1849.28,-660.71 1848.3,-667.64"/>
<polygon fill="white" stroke="transparent" points="1532,-659.5 1532,-782.5 1823,-782.5 1823,-659.5 1532,-659.5"/>
<text text-anchor="start" x="1574" y="-759.8" font-family="Arial" font-size="24.00" fill="#444444">4. Atomically stores</text>
<text text-anchor="start" x="1556.5" y="-735.8" font-family="Arial" font-size="24.00" fill="#444444">complete cleaned text,</text>
<text text-anchor="start" x="1536.5" y="-711.8" font-family="Arial" font-size="24.00" fill="#444444">provenance, chunks, FTS,</text>
<text text-anchor="start" x="1562.5" y="-687.8" font-family="Arial" font-size="24.00" fill="#444444">media refs, and tasks</text>
<text text-anchor="start" x="1644.5" y="-667.8" font-family="Arial" font-size="19.00" fill="#444444">[sqlite3]</text>
</g>
<!-- 5 -->
<g id="5" class="node">
<title>5</title>
<polygon fill="#438dd5" stroke="#2e6295" points="467,-746 33,-746 33,-467 467,-467 467,-746"/>
<text text-anchor="start" x="70" y="-697.8" font-family="Arial" font-size="34.00" fill="#ffffff">Chrome MV3 Extension</text>
<text text-anchor="start" x="62" y="-675.8" font-family="Arial" font-size="19.00" fill="#ffffff">[Container: JavaScript, Chrome Manifest V3]</text>
<text text-anchor="start" x="107" y="-638.8" font-family="Arial" font-size="24.00" fill="#ffffff">Captures visible page text,</text>
<text text-anchor="start" x="132.5" y="-614.8" font-family="Arial" font-size="24.00" fill="#ffffff">media references, tab</text>
<text text-anchor="start" x="141" y="-590.8" font-family="Arial" font-size="24.00" fill="#ffffff">lifecycle events, and</text>
<text text-anchor="start" x="84" y="-566.8" font-family="Arial" font-size="24.00" fill="#ffffff">browser&#45;side media bytes from</text>
<text text-anchor="start" x="79" y="-542.8" font-family="Arial" font-size="24.00" fill="#ffffff">Windows Chrome; queues work</text>
<text text-anchor="start" x="91" y="-518.8" font-family="Arial" font-size="24.00" fill="#ffffff">durably and posts to the WSL</text>
<text text-anchor="start" x="202.5" y="-494.8" font-family="Arial" font-size="24.00" fill="#ffffff">daemon.</text>
</g>
<!-- 14&#45;&gt;5 -->
<g id="51" class="edge">
<title>14&#45;&gt;5</title>
<path fill="none" stroke="#444444" stroke-dasharray="5,2" d="M1033.7,-628.42C1021.66,-630.01 1009.7,-631.39 998,-632.5 778.99,-653.31 722.71,-643.8 503,-632.5 494.55,-632.07 485.96,-631.55 477.28,-630.97"/>
<polygon fill="#444444" stroke="#444444" points="477.27,-627.46 467.05,-630.25 476.79,-634.44 477.27,-627.46"/>
<polygon fill="white" stroke="transparent" points="503,-644.5 503,-767.5 998,-767.5 998,-644.5 503,-644.5"/>
<text text-anchor="start" x="695" y="-744.8" font-family="Arial" font-size="24.00" fill="#444444">5. Returns</text>
<text text-anchor="start" x="605" y="-720.8" font-family="Arial" font-size="24.00" fill="#444444">document/snapshot/artifact</text>
<text text-anchor="start" x="633.5" y="-696.8" font-family="Arial" font-size="24.00" fill="#444444">IDs before lazy media</text>
<text text-anchor="start" x="722" y="-672.8" font-family="Arial" font-size="24.00" fill="#444444">bytes</text>
<text text-anchor="start" x="507.5" y="-652.8" font-family="Arial" font-size="19.00" fill="#444444">[Bearer HTTP/JSON; raw HTTP PUT over 127.0.0.1:8765]</text>
</g>
<!-- 5&#45;&gt;13 -->
<g id="50" class="edge">
<title>5&#45;&gt;13</title>
<path fill="none" stroke="#444444" stroke-dasharray="5,2" d="M432.72,-746.18C455.7,-760.63 479.43,-774.15 503,-785.5 670.71,-866.29 873.9,-922.88 1028.12,-958.27"/>
<polygon fill="#444444" stroke="#444444" points="1027.68,-961.76 1038.21,-960.57 1029.24,-954.94 1027.68,-961.76"/>
<polygon fill="white" stroke="transparent" points="595,-947.5 595,-1046.5 906,-1046.5 906,-947.5 595,-947.5"/>
<text text-anchor="start" x="622" y="-1023.8" font-family="Arial" font-size="24.00" fill="#444444">6. Queues browser&#45;side</text>
<text text-anchor="start" x="641.5" y="-999.8" font-family="Arial" font-size="24.00" fill="#444444">media tasks for later</text>
<text text-anchor="start" x="684.5" y="-975.8" font-family="Arial" font-size="24.00" fill="#444444">fetch/upload</text>
<text text-anchor="start" x="599.5" y="-955.8" font-family="Arial" font-size="19.00" fill="#444444">[chrome.storage.local + IndexedDB]</text>
</g>
<!-- 5&#45;&gt;14 -->
<g id="51" class="edge">
<title>5&#45;&gt;14</title>
<path fill="none" stroke="#444444" stroke-dasharray="5,2" d="M467.34,-526.75C479.31,-523.93 491.25,-521.47 503,-519.5 719.97,-483.1 779.44,-494.37 998,-519.5 1006.56,-520.48 1015.24,-521.64 1023.98,-522.94"/>
<polygon fill="#444444" stroke="#444444" points="1023.47,-526.4 1033.88,-524.47 1024.53,-519.48 1023.47,-526.4"/>
<polygon fill="white" stroke="transparent" points="503,-519.5 503,-618.5 998,-618.5 998,-519.5 503,-519.5"/>
<text text-anchor="start" x="628" y="-595.8" font-family="Arial" font-size="24.00" fill="#444444">3. POSTs /capture with</text>
<text text-anchor="start" x="633.5" y="-571.8" font-family="Arial" font-size="24.00" fill="#444444">visible text, metadata,</text>
<text text-anchor="start" x="670.5" y="-547.8" font-family="Arial" font-size="24.00" fill="#444444">and media refs</text>
<text text-anchor="start" x="507.5" y="-527.8" font-family="Arial" font-size="19.00" fill="#444444">[Bearer HTTP/JSON; raw HTTP PUT over 127.0.0.1:8765]</text>
</g>
<!-- 2 -->
<g id="2" class="node">
<title>2</title>
<polygon fill="#999999" stroke="#6b6b6b" points="1458,-287 1072,-287 1072,-56 1458,-56 1458,-287"/>
<text text-anchor="start" x="1130.5" y="-238.8" font-family="Arial" font-size="34.00" fill="#ffffff">Windows Chrome</text>
<text text-anchor="start" x="1188" y="-216.8" font-family="Arial" font-size="19.00" fill="#ffffff">[Software System]</text>
<text text-anchor="start" x="1101" y="-179.8" font-family="Arial" font-size="24.00" fill="#ffffff">The Windows Chrome runtime</text>
<text text-anchor="start" x="1114.5" y="-155.8" font-family="Arial" font-size="24.00" fill="#ffffff">that loads web pages, hosts</text>
<text text-anchor="start" x="1114" y="-131.8" font-family="Arial" font-size="24.00" fill="#ffffff">the MV3 extension, runs the</text>
<text text-anchor="start" x="1106" y="-107.8" font-family="Arial" font-size="24.00" fill="#ffffff">local UI in a tab, and exposes</text>
<text text-anchor="start" x="1135.5" y="-83.8" font-family="Arial" font-size="24.00" fill="#ffffff">Chrome extension APIs.</text>
</g>
<!-- 5&#45;&gt;2 -->
<g id="48" class="edge">
<title>5&#45;&gt;2</title>
<path fill="none" stroke="#444444" stroke-dasharray="5,2" d="M382.18,-466.76C418.69,-434.03 460.17,-401.93 503,-378.5 598.78,-326.11 870.56,-258.66 1061.88,-215.25"/>
<polygon fill="#444444" stroke="#444444" points="1062.8,-218.63 1071.78,-213 1061.26,-211.8 1062.8,-218.63"/>
<polygon fill="white" stroke="transparent" points="605.5,-378.5 605.5,-477.5 895.5,-477.5 895.5,-378.5 605.5,-378.5"/>
<text text-anchor="start" x="609.5" y="-454.8" font-family="Arial" font-size="24.00" fill="#444444">2. Runs content script and</text>
<text text-anchor="start" x="637.5" y="-430.8" font-family="Arial" font-size="24.00" fill="#444444">service worker inside</text>
<text text-anchor="start" x="698.5" y="-406.8" font-family="Arial" font-size="24.00" fill="#444444">active tab</text>
<text text-anchor="start" x="645.5" y="-386.8" font-family="Arial" font-size="19.00" fill="#444444">[Chrome extension APIs]</text>
</g>
<!-- 1 -->
<g id="1" class="node">
<title>1</title>
<polygon fill="#08427b" stroke="#052e56" points="447.5,-287 52.5,-287 52.5,-56 447.5,-56 447.5,-287"/>
<text text-anchor="start" x="183" y="-238.8" font-family="Arial" font-size="34.00" fill="#ffffff">Operator</text>
<text text-anchor="start" x="214.5" y="-216.8" font-family="Arial" font-size="19.00" fill="#ffffff">[Person]</text>
<text text-anchor="start" x="123.5" y="-179.8" font-family="Arial" font-size="24.00" fill="#ffffff">Sole local operator who</text>
<text text-anchor="start" x="81.5" y="-155.8" font-family="Arial" font-size="24.00" fill="#ffffff">browses with Windows Chrome</text>
<text text-anchor="start" x="102.5" y="-131.8" font-family="Arial" font-size="24.00" fill="#ffffff">and searches, reviews, and</text>
<text text-anchor="start" x="88" y="-107.8" font-family="Arial" font-size="24.00" fill="#ffffff">deletes local browser&#45;memory</text>
<text text-anchor="start" x="206" y="-83.8" font-family="Arial" font-size="24.00" fill="#ffffff">records.</text>
</g>
<!-- 1&#45;&gt;2 -->
<g id="43" class="edge">
<title>1&#45;&gt;2</title>
<path fill="none" stroke="#444444" stroke-dasharray="5,2" d="M447.52,-171.5C624.41,-171.5 883.25,-171.5 1061.85,-171.5"/>
<polygon fill="#444444" stroke="#444444" points="1061.9,-175 1071.9,-171.5 1061.9,-168 1061.9,-175"/>
<polygon fill="white" stroke="transparent" points="620.5,-171.5 620.5,-205.5 880.5,-205.5 880.5,-171.5 620.5,-171.5"/>
<text text-anchor="start" x="624.5" y="-182.3" font-family="Arial" font-size="24.00" fill="#444444">1. Browses a web page</text>
</g>
</g>
</svg>
