<?xml version="1.0" encoding="UTF-8" standalone="no"?>
<!DOCTYPE svg PUBLIC "-//W3C//DTD SVG 1.1//EN"
 "http://www.w3.org/Graphics/SVG/1.1/DTD/svg11.dtd">
<!-- Generated by graphviz version 2.43.0 (0)
 -->
<!-- Title: %3 Pages: 1 -->
<svg width="2263pt" height="1654pt"
 viewBox="0.00 0.00 2263.00 1654.38" xmlns="http://www.w3.org/2000/svg" xmlns:xlink="http://www.w3.org/1999/xlink">
<g id="graph0" class="graph" transform="scale(1 1) rotate(0) translate(4 1650.38)">
<title>%3</title>
<polygon fill="white" stroke="transparent" points="-4,4 -4,-1650.38 2259,-1650.38 2259,4 -4,4"/>
<text text-anchor="start" x="596" y="-11.8" font-family="Arial" font-size="34.00">Component View: Browser Memory Daemon &#45; Chrome MV3 Extension</text>
<g id="clust1" class="cluster">
<title>cluster_4</title>
<polygon fill="none" stroke="#444444" points="8,-64 8,-1638.38 1844,-1638.38 1844,-64 8,-64"/>
<text text-anchor="start" x="785" y="-92.8" font-family="Arial" font-size="24.00" fill="#444444">Browser Memory Daemon</text>
<text text-anchor="start" x="849" y="-72.8" font-family="Arial" font-size="19.00" fill="#444444">[Software System]</text>
</g>
<g id="clust2" class="cluster">
<title>cluster_5</title>
<polygon fill="none" stroke="#444444" points="446,-812.38 446,-1613.38 1378,-1613.38 1378,-812.38 446,-812.38"/>
<text text-anchor="start" x="784" y="-841.17" font-family="Arial" font-size="24.00" fill="#444444">Chrome MV3 Extension</text>
<text text-anchor="start" x="724" y="-821.17" font-family="Arial" font-size="19.00" fill="#444444">[Container: JavaScript, Chrome Manifest V3]</text>
</g>
<!-- 2 -->
<g id="2" class="node">
<title>2</title>
<polygon fill="#999999" stroke="#6b6b6b" points="2255,-544.19 1869,-544.19 1869,-313.19 2255,-313.19 2255,-544.19"/>
<text text-anchor="start" x="1927.5" y="-495.99" font-family="Arial" font-size="34.00" fill="#ffffff">Windows Chrome</text>
<text text-anchor="start" x="1985" y="-473.99" font-family="Arial" font-size="19.00" fill="#ffffff">[Software System]</text>
<text text-anchor="start" x="1898" y="-436.99" font-family="Arial" font-size="24.00" fill="#ffffff">The Windows Chrome runtime</text>
<text text-anchor="start" x="1911.5" y="-412.99" font-family="Arial" font-size="24.00" fill="#ffffff">that loads web pages, hosts</text>
<text text-anchor="start" x="1911" y="-388.99" font-family="Arial" font-size="24.00" fill="#ffffff">the MV3 extension, runs the</text>
<text text-anchor="start" x="1903" y="-364.99" font-family="Arial" font-size="24.00" fill="#ffffff">local UI in a tab, and exposes</text>
<text text-anchor="start" x="1932.5" y="-340.99" font-family="Arial" font-size="24.00" fill="#ffffff">Chrome extension APIs.</text>
</g>
<!-- 11 -->
<g id="11" class="node">
<title>11</title>
<polygon fill="#85bbf0" stroke="#1168bd" points="867,-1177.38 471,-1177.38 471,-912.38 867,-912.38 867,-1177.38"/>
<text text-anchor="start" x="500" y="-1129.17" font-family="Arial" font-size="34.00" fill="#000000">Browser Media Queue</text>
<text text-anchor="start" x="609.5" y="-1095.17" font-family="Arial" font-size="34.00" fill="#000000">Adapter</text>
<text text-anchor="start" x="507" y="-1073.17" font-family="Arial" font-size="19.00" fill="#000000">[Component: JavaScript + IndexedDB]</text>
<text text-anchor="start" x="534.5" y="-1036.17" font-family="Arial" font-size="24.00" fill="#000000">Persists media tasks and</text>
<text text-anchor="start" x="505" y="-1012.17" font-family="Arial" font-size="24.00" fill="#000000">fetched blobs in IndexedDB so</text>
<text text-anchor="start" x="563" y="-988.17" font-family="Arial" font-size="24.00" fill="#000000">browser&#45;side media</text>
<text text-anchor="start" x="510" y="-964.17" font-family="Arial" font-size="24.00" fill="#000000">fetch/upload can survive MV3</text>
<text text-anchor="start" x="564.5" y="-940.17" font-family="Arial" font-size="24.00" fill="#000000">worker suspension.</text>
</g>
<!-- 14 -->
<g id="14" class="node">
<title>14</title>
<path fill="#2f95c8" stroke="#20688c" d="M785.5,-645.4C785.5,-671.98 683.98,-693.56 559,-693.56 434.02,-693.56 332.5,-671.98 332.5,-645.4 332.5,-645.4 332.5,-211.97 332.5,-211.97 332.5,-185.4 434.02,-163.81 559,-163.81 683.98,-163.81 785.5,-185.4 785.5,-211.97 785.5,-211.97 785.5,-645.4 785.5,-645.4"/>
<path fill="none" stroke="#20688c" d="M785.5,-645.4C785.5,-618.83 683.98,-597.24 559,-597.24 434.02,-597.24 332.5,-618.83 332.5,-645.4"/>
<text text-anchor="start" x="417" y="-572.99" font-family="Arial" font-size="34.00" fill="#ffffff">Extension Browser</text>
<text text-anchor="start" x="499.5" y="-538.99" font-family="Arial" font-size="34.00" fill="#ffffff">Storage</text>
<text text-anchor="start" x="361.5" y="-516.99" font-family="Arial" font-size="19.00" fill="#ffffff">[Container: chrome.storage.local + IndexedDB]</text>
<text text-anchor="start" x="381.5" y="-479.99" font-family="Arial" font-size="24.00" fill="#ffffff">Browser&#45;side IndexedDB storage</text>
<text text-anchor="start" x="472.5" y="-455.99" font-family="Arial" font-size="24.00" fill="#ffffff">for transactional</text>
<text text-anchor="start" x="403.5" y="-431.99" font-family="Arial" font-size="24.00" fill="#ffffff">capture/lifecycle outbox rows</text>
<text text-anchor="start" x="393.5" y="-407.99" font-family="Arial" font-size="24.00" fill="#ffffff">plus specialized durable media</text>
<text text-anchor="start" x="495" y="-383.99" font-family="Arial" font-size="24.00" fill="#ffffff">tasks/blobs;</text>
<text text-anchor="start" x="406.5" y="-359.99" font-family="Arial" font-size="24.00" fill="#ffffff">chrome.storage.local retains</text>
<text text-anchor="start" x="407" y="-335.99" font-family="Arial" font-size="24.00" fill="#ffffff">typed configuration, lifecycle</text>
<text text-anchor="start" x="450.5" y="-311.99" font-family="Arial" font-size="24.00" fill="#ffffff">tab state, aggregate</text>
<text text-anchor="start" x="416" y="-287.99" font-family="Arial" font-size="24.00" fill="#ffffff">telemetry, and one&#45;version</text>
<text text-anchor="start" x="452.5" y="-263.99" font-family="Arial" font-size="24.00" fill="#ffffff">queue fallback only.</text>
</g>
<!-- 11&#45;&gt;14 -->
<g id="82" class="edge">
<title>11&#45;&gt;14</title>
<path fill="none" stroke="#444444" stroke-dasharray="5,2" d="M645.4,-912.12C634.47,-851.1 621.06,-776.2 608.09,-703.77"/>
<polygon fill="#444444" stroke="#444444" points="611.47,-702.79 606.26,-693.57 604.58,-704.03 611.47,-702.79"/>
<polygon fill="white" stroke="transparent" points="624,-729.38 624,-804.38 892,-804.38 892,-729.38 624,-729.38"/>
<text text-anchor="start" x="628" y="-781.67" font-family="Arial" font-size="24.00" fill="#444444">Reads and writes media</text>
<text text-anchor="start" x="684.5" y="-757.67" font-family="Arial" font-size="24.00" fill="#444444">tasks/blobs in</text>
<text text-anchor="start" x="705.5" y="-737.67" font-family="Arial" font-size="19.00" fill="#444444">[IndexedDB]</text>
</g>
<!-- 12 -->
<g id="12" class="node">
<title>12</title>
<polygon fill="#85bbf0" stroke="#1168bd" points="1352.5,-1172.38 939.5,-1172.38 939.5,-917.38 1352.5,-917.38 1352.5,-1172.38"/>
<text text-anchor="start" x="1035.5" y="-1124.17" font-family="Arial" font-size="34.00" fill="#000000">CDP Recorder</text>
<text text-anchor="start" x="973.5" y="-1102.17" font-family="Arial" font-size="19.00" fill="#000000">[Component: Chrome DevTools Protocol]</text>
<text text-anchor="start" x="1003" y="-1065.17" font-family="Arial" font-size="24.00" fill="#000000">Uses chrome.debugger on</text>
<text text-anchor="start" x="999" y="-1041.17" font-family="Arial" font-size="24.00" fill="#000000">configured X/Twitter tabs to</text>
<text text-anchor="start" x="985" y="-1017.17" font-family="Arial" font-size="24.00" fill="#000000">capture video.twimg.com HLS</text>
<text text-anchor="start" x="978" y="-993.17" font-family="Arial" font-size="24.00" fill="#000000">manifests and media segments</text>
<text text-anchor="start" x="968.5" y="-969.17" font-family="Arial" font-size="24.00" fill="#000000">before they become opaque blob</text>
<text text-anchor="start" x="1076" y="-945.17" font-family="Arial" font-size="24.00" fill="#000000">player URLs.</text>
</g>
<!-- 12&#45;&gt;2 -->
<g id="85" class="edge">
<title>12&#45;&gt;2</title>
<path fill="none" stroke="#444444" stroke-dasharray="5,2" d="M1229.07,-917.19C1263.32,-875.96 1306.81,-835.02 1357,-812.38 1382.58,-800.84 1838.05,-819 1862,-804.38 1951.32,-749.84 2003.07,-640.6 2031.46,-554.09"/>
<polygon fill="#444444" stroke="#444444" points="2034.83,-555.05 2034.56,-544.46 2028.17,-552.91 2034.83,-555.05"/>
<polygon fill="white" stroke="transparent" points="1937,-729.38 1937,-804.38 2218,-804.38 2218,-729.38 1937,-729.38"/>
<text text-anchor="start" x="1941.5" y="-781.67" font-family="Arial" font-size="24.00" fill="#444444">Receives Network events</text>
<text text-anchor="start" x="2053.5" y="-757.67" font-family="Arial" font-size="24.00" fill="#444444">from</text>
<text text-anchor="start" x="1976" y="-737.67" font-family="Arial" font-size="19.00" fill="#444444">[chrome.debugger/CDP]</text>
</g>
<!-- 15 -->
<g id="15" class="node">
<title>15</title>
<polygon fill="#438dd5" stroke="#2e6295" points="1498,-597.19 1036,-597.19 1036,-260.19 1498,-260.19 1498,-597.19"/>
<text text-anchor="start" x="1102.5" y="-548.99" font-family="Arial" font-size="34.00" fill="#ffffff">WSL Loopback HTTP</text>
<text text-anchor="start" x="1202.5" y="-514.99" font-family="Arial" font-size="34.00" fill="#ffffff">Daemon</text>
<text text-anchor="start" x="1065" y="-492.99" font-family="Arial" font-size="19.00" fill="#ffffff">[Container: Python 3.11, ThreadingHTTPServer]</text>
<text text-anchor="start" x="1106" y="-455.99" font-family="Arial" font-size="24.00" fill="#ffffff">Authenticated loopback HTTP</text>
<text text-anchor="start" x="1131" y="-431.99" font-family="Arial" font-size="24.00" fill="#ffffff">API that handles capture,</text>
<text text-anchor="start" x="1127.5" y="-407.99" font-family="Arial" font-size="24.00" fill="#ffffff">visit events, media artifact</text>
<text text-anchor="start" x="1130.5" y="-383.99" font-family="Arial" font-size="24.00" fill="#ffffff">upload/fetch/purge, exact</text>
<text text-anchor="start" x="1227" y="-359.99" font-family="Arial" font-size="24.00" fill="#ffffff">search,</text>
<text text-anchor="start" x="1118" y="-335.99" font-family="Arial" font-size="24.00" fill="#ffffff">recent/timeline/detail, policy</text>
<text text-anchor="start" x="1115.5" y="-311.99" font-family="Arial" font-size="24.00" fill="#ffffff">rules, doctor, durable forget,</text>
<text text-anchor="start" x="1154" y="-287.99" font-family="Arial" font-size="24.00" fill="#ffffff">and static UI serving.</text>
</g>
<!-- 12&#45;&gt;15 -->
<g id="86" class="edge">
<title>12&#45;&gt;15</title>
<path fill="none" stroke="#444444" stroke-dasharray="5,2" d="M1135.04,-917.33C1132.83,-859.53 1134.13,-790.48 1146,-729.38 1153.92,-688.58 1167.39,-646.31 1182.53,-606.83"/>
<polygon fill="#444444" stroke="#444444" points="1185.84,-607.97 1186.2,-597.39 1179.31,-605.44 1185.84,-607.97"/>
<polygon fill="white" stroke="transparent" points="1146,-729.38 1146,-804.38 1478,-804.38 1478,-729.38 1146,-729.38"/>
<text text-anchor="start" x="1150" y="-781.67" font-family="Arial" font-size="24.00" fill="#444444">Uploads CDP media rows and</text>
<text text-anchor="start" x="1269.5" y="-757.67" font-family="Arial" font-size="24.00" fill="#444444">blobs to</text>
<text text-anchor="start" x="1155" y="-737.67" font-family="Arial" font-size="19.00" fill="#444444">[Bearer HTTP/JSON; raw HTTP PUT]</text>
</g>
<!-- 9 -->
<g id="9" class="node">
<title>9</title>
<polygon fill="#85bbf0" stroke="#1168bd" points="1130,-1588.38 692,-1588.38 692,-1309.38 1130,-1309.38 1130,-1588.38"/>
<text text-anchor="start" x="795" y="-1540.17" font-family="Arial" font-size="34.00" fill="#000000">Service Worker</text>
<text text-anchor="start" x="721" y="-1518.17" font-family="Arial" font-size="19.00" fill="#000000">[Component: JavaScript MV3 service worker]</text>
<text text-anchor="start" x="739.5" y="-1481.17" font-family="Arial" font-size="24.00" fill="#000000">Orchestrates daemon transport,</text>
<text text-anchor="start" x="780.5" y="-1457.17" font-family="Arial" font-size="24.00" fill="#000000">bearer token use, stable</text>
<text text-anchor="start" x="789.5" y="-1433.17" font-family="Arial" font-size="24.00" fill="#000000">observation/navigation</text>
<text text-anchor="start" x="790.5" y="-1409.17" font-family="Arial" font-size="24.00" fill="#000000">identity, lifecycle state,</text>
<text text-anchor="start" x="774.5" y="-1385.17" font-family="Arial" font-size="24.00" fill="#000000">outbox and media drains,</text>
<text text-anchor="start" x="770" y="-1361.17" font-family="Arial" font-size="24.00" fill="#000000">alarms, and CDP recorder</text>
<text text-anchor="start" x="850.5" y="-1337.17" font-family="Arial" font-size="24.00" fill="#000000">integration.</text>
</g>
<!-- 9&#45;&gt;11 -->
<g id="81" class="edge">
<title>9&#45;&gt;11</title>
<path fill="none" stroke="#444444" stroke-dasharray="5,2" d="M733.38,-1309.11C724.29,-1297.7 716.03,-1285.77 709,-1273.38 694.24,-1247.37 684.69,-1217.21 678.56,-1187.52"/>
<polygon fill="#444444" stroke="#444444" points="681.95,-1186.63 676.61,-1177.48 675.08,-1187.96 681.95,-1186.63"/>
<polygon fill="white" stroke="transparent" points="709,-1213.38 709,-1273.38 996,-1273.38 996,-1213.38 709,-1213.38"/>
<text text-anchor="start" x="713.5" y="-1250.17" font-family="Arial" font-size="24.00" fill="#444444">Persists and drains media</text>
<text text-anchor="start" x="782.5" y="-1224.17" font-family="Arial" font-size="24.00" fill="#444444">work through</text>
</g>
<!-- 9&#45;&gt;12 -->
<g id="83" class="edge">
<title>9&#45;&gt;12</title>
<path fill="none" stroke="#444444" stroke-dasharray="5,2" d="M992.04,-1309.25C1016.26,-1267.81 1042.78,-1222.45 1066.88,-1181.22"/>
<polygon fill="#444444" stroke="#444444" points="1069.96,-1182.89 1071.98,-1172.49 1063.91,-1179.36 1069.96,-1182.89"/>
<polygon fill="white" stroke="transparent" points="1042,-1213.38 1042,-1273.38 1262,-1273.38 1262,-1213.38 1042,-1213.38"/>
<text text-anchor="start" x="1046" y="-1250.17" font-family="Arial" font-size="24.00" fill="#444444">Detects CDP media</text>
<text text-anchor="start" x="1068.5" y="-1224.17" font-family="Arial" font-size="24.00" fill="#444444">candidates with</text>
</g>
<!-- 9&#45;&gt;14 -->
<g id="79" class="edge">
<title>9&#45;&gt;14</title>
<path fill="none" stroke="#444444" stroke-dasharray="5,2" d="M691.98,-1436.9C511.18,-1414.89 264.9,-1352.23 141,-1177.38 47.21,-1045.02 75.63,-960.84 141,-812.38 180.26,-723.21 251.68,-645.77 324.51,-584.32"/>
<polygon fill="#444444" stroke="#444444" points="327.05,-586.77 332.48,-577.67 322.56,-581.4 327.05,-586.77"/>
<polygon fill="white" stroke="transparent" points="141,-971.38 141,-1118.38 435,-1118.38 435,-971.38 141,-971.38"/>
<text text-anchor="start" x="212" y="-1095.67" font-family="Arial" font-size="24.00" fill="#444444">Persists typed</text>
<text text-anchor="start" x="169" y="-1071.67" font-family="Arial" font-size="24.00" fill="#444444">configuration, lifecycle</text>
<text text-anchor="start" x="179.5" y="-1047.67" font-family="Arial" font-size="24.00" fill="#444444">tab state, aggregate</text>
<text text-anchor="start" x="145" y="-1023.67" font-family="Arial" font-size="24.00" fill="#444444">telemetry, and one&#45;version</text>
<text text-anchor="start" x="197" y="-999.67" font-family="Arial" font-size="24.00" fill="#444444">queue fallback in</text>
<text text-anchor="start" x="194.5" y="-979.67" font-family="Arial" font-size="19.00" fill="#444444">[chrome.storage.local]</text>
</g>
<!-- 9&#45;&gt;15 -->
<g id="80" class="edge">
<title>9&#45;&gt;15</title>
<path fill="none" stroke="#444444" stroke-dasharray="5,2" d="M1130.25,-1378.06C1226.24,-1335.75 1330.21,-1271.35 1389,-1177.38 1497.36,-1004.18 1556.66,-923.18 1492,-729.38 1477.6,-686.2 1454.26,-644.24 1427.95,-606.06"/>
<polygon fill="#444444" stroke="#444444" points="1430.54,-603.65 1421.94,-597.46 1424.8,-607.66 1430.54,-603.65"/>
<polygon fill="white" stroke="transparent" points="1518,-995.38 1518,-1094.38 1840,-1094.38 1840,-995.38 1518,-995.38"/>
<text text-anchor="start" x="1584.5" y="-1071.67" font-family="Arial" font-size="24.00" fill="#444444">Delivers /capture,</text>
<text text-anchor="start" x="1575" y="-1047.67" font-family="Arial" font-size="24.00" fill="#444444">/visit&#45;events, media</text>
<text text-anchor="start" x="1532.5" y="-1023.67" font-family="Arial" font-size="24.00" fill="#444444">metadata, and raw blobs to</text>
<text text-anchor="start" x="1522" y="-1003.67" font-family="Arial" font-size="19.00" fill="#444444">[Bearer HTTP/JSON; raw HTTP PUT]</text>
</g>
</g>
</svg>
