<?xml version="1.0" encoding="UTF-8" standalone="no"?>
<!DOCTYPE svg PUBLIC "-//W3C//DTD SVG 1.1//EN"
 "http://www.w3.org/Graphics/SVG/1.1/DTD/svg11.dtd">
<!-- Generated by graphviz version 2.43.0 (0)
 -->
<!-- Title: %3 Pages: 1 -->
<svg width="2004pt" height="1921pt"
 viewBox="0.00 0.00 2004.00 1921.00" xmlns="http://www.w3.org/2000/svg" xmlns:xlink="http://www.w3.org/1999/xlink">
<g id="graph0" class="graph" transform="scale(1 1) rotate(0) translate(4 1917)">
<title>%3</title>
<polygon fill="white" stroke="transparent" points="-4,4 -4,-1917 2000,-1917 2000,4 -4,4"/>
<text text-anchor="start" x="718.5" y="-11.8" font-family="Arial" font-size="34.00">Browser Memory Daemon &#45; Dynamic</text>
<g id="clust1" class="cluster">
<title>cluster_5</title>
<polygon fill="none" stroke="#444444" points="634,-64 634,-1905 1988,-1905 1988,-64 634,-64"/>
<text text-anchor="start" x="1170" y="-92.8" font-family="Arial" font-size="24.00" fill="#444444">Browser Memory Daemon</text>
<text text-anchor="start" x="1234" y="-72.8" font-family="Arial" font-size="19.00" fill="#444444">[Software System]</text>
</g>
<!-- 23 -->
<g id="23" class="node">
<title>23</title>
<polygon fill="#438dd5" stroke="#2e6295" points="1922,-405.5 1460,-405.5 1460,-164.5 1922,-164.5 1922,-405.5"/>
<text text-anchor="start" x="1526.5" y="-357.3" font-family="Arial" font-size="34.00" fill="#ffffff">WSL Loopback HTTP</text>
<text text-anchor="start" x="1626.5" y="-323.3" font-family="Arial" font-size="34.00" fill="#ffffff">Daemon</text>
<text text-anchor="start" x="1489" y="-301.3" font-family="Arial" font-size="19.00" fill="#ffffff">[Container: Python 3.11, ThreadingHTTPServer]</text>
<text text-anchor="start" x="1525.5" y="-264.3" font-family="Arial" font-size="24.00" fill="#ffffff">Authenticated loopback API for</text>
<text text-anchor="start" x="1546.5" y="-240.3" font-family="Arial" font-size="24.00" fill="#ffffff">capture, read/admin/media</text>
<text text-anchor="start" x="1547" y="-216.3" font-family="Arial" font-size="24.00" fill="#ffffff">operations, and query&#45;only</text>
<text text-anchor="start" x="1528.5" y="-192.3" font-family="Arial" font-size="24.00" fill="#ffffff">bmd.x&#45;observations v1 export.</text>
</g>
<!-- 51 -->
<g id="51" class="node">
<title>51</title>
<polygon fill="#438dd5" stroke="#2e6295" points="1015,-1021.5 659,-1021.5 659,-766.5 1015,-766.5 1015,-1021.5"/>
<text text-anchor="start" x="810" y="-973.3" font-family="Arial" font-size="34.00" fill="#ffffff">CLI</text>
<text text-anchor="start" x="716" y="-951.3" font-family="Arial" font-size="19.00" fill="#ffffff">[Container: Python argparse]</text>
<text text-anchor="start" x="690.5" y="-914.3" font-family="Arial" font-size="24.00" fill="#ffffff">Command&#45;line interface for</text>
<text text-anchor="start" x="698" y="-890.3" font-family="Arial" font-size="24.00" fill="#ffffff">serving/admin operations,</text>
<text text-anchor="start" x="727" y="-866.3" font-family="Arial" font-size="24.00" fill="#ffffff">direct storage/health</text>
<text text-anchor="start" x="694" y="-842.3" font-family="Arial" font-size="24.00" fill="#ffffff">workflows, and standalone</text>
<text text-anchor="start" x="688" y="-818.3" font-family="Arial" font-size="24.00" fill="#ffffff">mutation&#45;free X observation</text>
<text text-anchor="start" x="799.5" y="-794.3" font-family="Arial" font-size="24.00" fill="#ffffff">export.</text>
</g>
<!-- 51&#45;&gt;23 -->
<g id="76" class="edge">
<title>51&#45;&gt;23</title>
<path fill="none" stroke="#707070" stroke-dasharray="5,2" d="M939.01,-766.41C972.4,-728.46 1011.24,-688.4 1051,-656 1173.36,-556.29 1325.72,-466.72 1450.98,-400.58"/>
<polygon fill="#707070" stroke="#707070" points="1452.73,-403.61 1459.95,-395.86 1449.47,-397.42 1452.73,-403.61"/>
<polygon fill="white" stroke="transparent" points="1051,-656 1051,-731 1383,-731 1383,-656 1051,-656"/>
<text text-anchor="start" x="1087" y="-708.3" font-family="Arial" font-size="24.00" fill="#707070">2. Checks authenticated</text>
<text text-anchor="start" x="1055" y="-684.3" font-family="Arial" font-size="24.00" fill="#707070">daemon readiness over HTTP</text>
<text text-anchor="start" x="1159" y="-664.3" font-family="Arial" font-size="19.00" fill="#707070">[HTTP/JSON]</text>
</g>
<!-- 57 -->
<g id="57" class="node">
<title>57</title>
<path fill="#2f95c8" stroke="#20688c" d="M1876,-809.22C1876,-827.51 1793.08,-842.38 1691,-842.38 1588.92,-842.38 1506,-827.51 1506,-809.22 1506,-809.22 1506,-510.78 1506,-510.78 1506,-492.49 1588.92,-477.62 1691,-477.62 1793.08,-477.62 1876,-492.49 1876,-510.78 1876,-510.78 1876,-809.22 1876,-809.22"/>
<path fill="none" stroke="#20688c" d="M1876,-809.22C1876,-790.92 1793.08,-776.06 1691,-776.06 1588.92,-776.06 1506,-790.92 1506,-809.22"/>
<text text-anchor="start" x="1578" y="-744.3" font-family="Arial" font-size="34.00" fill="#ffffff">SQLite + FTS5</text>
<text text-anchor="start" x="1618" y="-710.3" font-family="Arial" font-size="34.00" fill="#ffffff">Database</text>
<text text-anchor="start" x="1565" y="-688.3" font-family="Arial" font-size="19.00" fill="#ffffff">[Container: SQLite with FTS5]</text>
<text text-anchor="start" x="1571.5" y="-651.3" font-family="Arial" font-size="24.00" fill="#ffffff">Durable text/metadata</text>
<text text-anchor="start" x="1540" y="-627.3" font-family="Arial" font-size="24.00" fill="#ffffff">authority including migration</text>
<text text-anchor="start" x="1535" y="-603.3" font-family="Arial" font-size="24.00" fill="#ffffff">ledger, capture observations,</text>
<text text-anchor="start" x="1545" y="-579.3" font-family="Arial" font-size="24.00" fill="#ffffff">and immutable observation</text>
<text text-anchor="start" x="1593" y="-555.3" font-family="Arial" font-size="24.00" fill="#ffffff">ingest sequences.</text>
</g>
<!-- 51&#45;&gt;57 -->
<g id="77" class="edge">
<title>51&#45;&gt;57</title>
<path fill="none" stroke="#707070" stroke-dasharray="5,2" d="M1015.05,-845.37C1155.41,-806.82 1351.32,-753.02 1495.93,-713.3"/>
<polygon fill="#707070" stroke="#707070" points="1497.1,-716.61 1505.81,-710.59 1495.24,-709.86 1497.1,-716.61"/>
<polygon fill="white" stroke="transparent" points="1101.5,-831 1101.5,-930 1332.5,-930 1332.5,-831 1101.5,-831"/>
<text text-anchor="start" x="1114.5" y="-907.3" font-family="Arial" font-size="24.00" fill="#707070">3. Checks schema,</text>
<text text-anchor="start" x="1106" y="-883.3" font-family="Arial" font-size="24.00" fill="#707070">integrity, counts, and</text>
<text text-anchor="start" x="1118.5" y="-859.3" font-family="Arial" font-size="24.00" fill="#707070">storage headroom</text>
<text text-anchor="start" x="1184" y="-839.3" font-family="Arial" font-size="19.00" fill="#707070">[sqlite3]</text>
</g>
<!-- 59 -->
<g id="59" class="node">
<title>59</title>
<path fill="#2f95c8" stroke="#20688c" d="M1963,-1305.22C1963,-1326.82 1841.09,-1344.38 1691,-1344.38 1540.91,-1344.38 1419,-1326.82 1419,-1305.22 1419,-1305.22 1419,-952.78 1419,-952.78 1419,-931.18 1540.91,-913.62 1691,-913.62 1841.09,-913.62 1963,-931.18 1963,-952.78 1963,-952.78 1963,-1305.22 1963,-1305.22"/>
<path fill="none" stroke="#20688c" d="M1963,-1305.22C1963,-1283.61 1841.09,-1266.06 1691,-1266.06 1540.91,-1266.06 1419,-1283.61 1419,-1305.22"/>
<text text-anchor="start" x="1535.5" y="-1237.3" font-family="Arial" font-size="34.00" fill="#ffffff">Guarded Media Blob</text>
<text text-anchor="start" x="1641.5" y="-1203.3" font-family="Arial" font-size="34.00" fill="#ffffff">Cache</text>
<text text-anchor="start" x="1448" y="-1181.3" font-family="Arial" font-size="19.00" fill="#ffffff">[Container: WSL&#45;visible local or NAS&#45;mounted filesystem]</text>
<text text-anchor="start" x="1581" y="-1144.3" font-family="Arial" font-size="24.00" fill="#ffffff">Bounded disposable</text>
<text text-anchor="start" x="1525.5" y="-1120.3" font-family="Arial" font-size="24.00" fill="#ffffff">image/video/audio bytes under</text>
<text text-anchor="start" x="1549.5" y="-1096.3" font-family="Arial" font-size="24.00" fill="#ffffff">the configured media root;</text>
<text text-anchor="start" x="1577" y="-1072.3" font-family="Arial" font-size="24.00" fill="#ffffff">explicit external roots</text>
<text text-anchor="start" x="1592" y="-1048.3" font-family="Arial" font-size="24.00" fill="#ffffff">require mount and</text>
<text text-anchor="start" x="1541.5" y="-1024.3" font-family="Arial" font-size="24.00" fill="#ffffff">identity&#45;marker proof before</text>
<text text-anchor="start" x="1650" y="-1000.3" font-family="Arial" font-size="24.00" fill="#ffffff">access.</text>
</g>
<!-- 51&#45;&gt;59 -->
<g id="78" class="edge">
<title>51&#45;&gt;59</title>
<path fill="none" stroke="#707070" stroke-dasharray="5,2" d="M1015.05,-942.83C1128.85,-974.22 1279.16,-1015.68 1409.05,-1051.51"/>
<polygon fill="#707070" stroke="#707070" points="1408.19,-1054.9 1418.76,-1054.19 1410.05,-1048.15 1408.19,-1054.9"/>
<polygon fill="white" stroke="transparent" points="1086,-1039 1086,-1138 1348,-1138 1348,-1039 1086,-1039"/>
<text text-anchor="start" x="1090" y="-1115.3" font-family="Arial" font-size="24.00" fill="#707070">4. Checks guarded&#45;root</text>
<text text-anchor="start" x="1093" y="-1091.3" font-family="Arial" font-size="24.00" fill="#707070">identity, readiness, and</text>
<text text-anchor="start" x="1172.5" y="-1067.3" font-family="Arial" font-size="24.00" fill="#707070">capacity</text>
<text text-anchor="start" x="1165.5" y="-1047.3" font-family="Arial" font-size="19.00" fill="#707070">[Filesystem]</text>
</g>
<!-- 60 -->
<g id="60" class="node">
<title>60</title>
<path fill="#2f95c8" stroke="#20688c" d="M1884,-1837.72C1884,-1860.98 1797.49,-1879.88 1691,-1879.88 1584.51,-1879.88 1498,-1860.98 1498,-1837.72 1498,-1837.72 1498,-1458.28 1498,-1458.28 1498,-1435.02 1584.51,-1416.12 1691,-1416.12 1797.49,-1416.12 1884,-1435.02 1884,-1458.28 1884,-1458.28 1884,-1837.72 1884,-1837.72"/>
<path fill="none" stroke="#20688c" d="M1884,-1837.72C1884,-1814.45 1797.49,-1795.56 1691,-1795.56 1584.51,-1795.56 1498,-1814.45 1498,-1837.72"/>
<text text-anchor="start" x="1527" y="-1768.3" font-family="Arial" font-size="34.00" fill="#ffffff">Bounded Local Media</text>
<text text-anchor="start" x="1647.5" y="-1734.3" font-family="Arial" font-size="34.00" fill="#ffffff">Spool</text>
<text text-anchor="start" x="1551" y="-1712.3" font-family="Arial" font-size="19.00" fill="#ffffff">[Container: WSL local filesystem]</text>
<text text-anchor="start" x="1539" y="-1675.3" font-family="Arial" font-size="24.00" fill="#ffffff">Opt&#45;in durable outage buffer</text>
<text text-anchor="start" x="1542.5" y="-1651.3" font-family="Arial" font-size="24.00" fill="#ffffff">beneath the local WSL data</text>
<text text-anchor="start" x="1569.5" y="-1627.3" font-family="Arial" font-size="24.00" fill="#ffffff">root; admission counts</text>
<text text-anchor="start" x="1545.5" y="-1603.3" font-family="Arial" font-size="24.00" fill="#ffffff">committed files and distinct</text>
<text text-anchor="start" x="1539" y="-1579.3" font-family="Arial" font-size="24.00" fill="#ffffff">in&#45;flight SQLite reservations,</text>
<text text-anchor="start" x="1566" y="-1555.3" font-family="Arial" font-size="24.00" fill="#ffffff">and drain verifies bytes</text>
<text text-anchor="start" x="1543.5" y="-1531.3" font-family="Arial" font-size="24.00" fill="#ffffff">before tier transition/source</text>
<text text-anchor="start" x="1645" y="-1507.3" font-family="Arial" font-size="24.00" fill="#ffffff">cleanup.</text>
</g>
<!-- 51&#45;&gt;60 -->
<g id="79" class="edge">
<title>51&#45;&gt;60</title>
<path fill="none" stroke="#707070" stroke-dasharray="5,2" d="M932.1,-1021.74C967.32,-1066.18 1009,-1115.1 1051,-1156 1187.19,-1288.64 1358.68,-1418.99 1489.7,-1512.16"/>
<polygon fill="#707070" stroke="#707070" points="1487.7,-1515.03 1497.88,-1517.96 1491.75,-1509.32 1487.7,-1515.03"/>
<polygon fill="white" stroke="transparent" points="1086.5,-1424 1086.5,-1547 1347.5,-1547 1347.5,-1424 1086.5,-1424"/>
<text text-anchor="start" x="1091" y="-1524.3" font-family="Arial" font-size="24.00" fill="#707070">5. Checks reservations,</text>
<text text-anchor="start" x="1098.5" y="-1500.3" font-family="Arial" font-size="24.00" fill="#707070">filesystem accounting,</text>
<text text-anchor="start" x="1114.5" y="-1476.3" font-family="Arial" font-size="24.00" fill="#707070">capacity, and latest</text>
<text text-anchor="start" x="1134.5" y="-1452.3" font-family="Arial" font-size="24.00" fill="#707070">automatic drain</text>
<text text-anchor="start" x="1166" y="-1432.3" font-family="Arial" font-size="19.00" fill="#707070">[Filesystem]</text>
</g>
<!-- 1 -->
<g id="1" class="node">
<title>1</title>
<polygon fill="#08427b" stroke="#052e56" points="335,-1009.5 0,-1009.5 0,-778.5 335,-778.5 335,-1009.5"/>
<text text-anchor="start" x="100.5" y="-961.3" font-family="Arial" font-size="34.00" fill="#ffffff">Operator</text>
<text text-anchor="start" x="132" y="-939.3" font-family="Arial" font-size="19.00" fill="#ffffff">[Person]</text>
<text text-anchor="start" x="41" y="-902.3" font-family="Arial" font-size="24.00" fill="#ffffff">Sole local operator who</text>
<text text-anchor="start" x="45.5" y="-878.3" font-family="Arial" font-size="24.00" fill="#ffffff">browses with Windows</text>
<text text-anchor="start" x="44.5" y="-854.3" font-family="Arial" font-size="24.00" fill="#ffffff">Chrome and searches,</text>
<text text-anchor="start" x="29" y="-830.3" font-family="Arial" font-size="24.00" fill="#ffffff">reviews, and deletes local</text>
<text text-anchor="start" x="29" y="-806.3" font-family="Arial" font-size="24.00" fill="#ffffff">browser&#45;memory records.</text>
</g>
<!-- 1&#45;&gt;51 -->
<g id="65" class="edge">
<title>1&#45;&gt;51</title>
<path fill="none" stroke="#707070" stroke-dasharray="5,2" d="M335.22,-894C430.51,-894 550.28,-894 648.79,-894"/>
<polygon fill="#707070" stroke="#707070" points="648.87,-897.5 658.87,-894 648.87,-890.5 648.87,-897.5"/>
<polygon fill="white" stroke="transparent" points="371,-894 371,-1032 623,-1032 623,-894 371,-894"/>
<text text-anchor="start" x="392.5" y="-1008.8" font-family="Arial" font-size="24.00" fill="#707070">1. Runs daily&#45;driver</text>
<text text-anchor="start" x="408.5" y="-982.8" font-family="Arial" font-size="24.00" fill="#707070">health to inspect</text>
<text text-anchor="start" x="375" y="-956.8" font-family="Arial" font-size="24.00" fill="#707070">protected artifacts plus</text>
<text text-anchor="start" x="390" y="-930.8" font-family="Arial" font-size="24.00" fill="#707070">systemd restart and</text>
<text text-anchor="start" x="414" y="-904.8" font-family="Arial" font-size="24.00" fill="#707070">journal budgets</text>
</g>
</g>
</svg>
