<?xml version="1.0" encoding="UTF-8" standalone="no"?>
<!DOCTYPE svg PUBLIC "-//W3C//DTD SVG 1.1//EN"
 "http://www.w3.org/Graphics/SVG/1.1/DTD/svg11.dtd">
<!-- Generated by graphviz version 2.43.0 (0)
 -->
<!-- Title: %3 Pages: 1 -->
<svg width="4495pt" height="2326pt"
 viewBox="0.00 0.00 4495.00 2326.00" xmlns="http://www.w3.org/2000/svg" xmlns:xlink="http://www.w3.org/1999/xlink">
<g id="graph0" class="graph" transform="scale(1 1) rotate(0) translate(4 2322)">
<title>%3</title>
<polygon fill="white" stroke="transparent" points="-4,4 -4,-2322 4491,-2322 4491,4 -4,4"/>
<text text-anchor="start" x="1658.5" y="-11.8" font-family="Arial" font-size="34.00">Component View: Browser Memory Daemon &#45; WSL Loopback HTTP Daemon</text>
<g id="clust1" class="cluster">
<title>cluster_4</title>
<polygon fill="none" stroke="#444444" points="8,-64 8,-2310 4479,-2310 4479,-64 8,-64"/>
<text text-anchor="start" x="2102.5" y="-92.8" font-family="Arial" font-size="24.00" fill="#444444">Browser Memory Daemon</text>
<text text-anchor="start" x="2166.5" y="-72.8" font-family="Arial" font-size="19.00" fill="#444444">[Software System]</text>
</g>
<g id="clust2" class="cluster">
<title>cluster_22</title>
<polygon fill="none" stroke="#444444" points="33,-164 33,-1698 4454,-1698 4454,-164 33,-164"/>
<text text-anchor="start" x="2078" y="-192.8" font-family="Arial" font-size="24.00" fill="#444444">WSL Loopback HTTP Daemon</text>
<text text-anchor="start" x="2041.5" y="-172.8" font-family="Arial" font-size="19.00" fill="#444444">[Container: Python 3.11, ThreadingHTTPServer]</text>
</g>
<!-- 23 -->
<g id="23" class="node">
<title>23</title>
<polygon fill="#85bbf0" stroke="#1168bd" points="552,-989.5 58,-989.5 58,-638.5 552,-638.5 552,-989.5"/>
<text text-anchor="start" x="136.5" y="-941.3" font-family="Arial" font-size="34.00" fill="#000000">HTTP Request Router</text>
<text text-anchor="start" x="87" y="-919.3" font-family="Arial" font-size="19.00" fill="#000000">[Component: Python http.server + route descriptors]</text>
<text text-anchor="start" x="129" y="-882.3" font-family="Arial" font-size="24.00" fill="#000000">Matches immutable method/path</text>
<text text-anchor="start" x="189" y="-858.3" font-family="Arial" font-size="24.00" fill="#000000">descriptors with static</text>
<text text-anchor="start" x="172" y="-834.3" font-family="Arial" font-size="24.00" fill="#000000">precedence, maps typed</text>
<text text-anchor="start" x="169.5" y="-810.3" font-family="Arial" font-size="24.00" fill="#000000">compatible errors without</text>
<text text-anchor="start" x="181.5" y="-786.3" font-family="Arial" font-size="24.00" fill="#000000">leaking internal details,</text>
<text text-anchor="start" x="144" y="-762.3" font-family="Arial" font-size="24.00" fill="#000000">routes loopback API requests,</text>
<text text-anchor="start" x="162" y="-738.3" font-family="Arial" font-size="24.00" fill="#000000">serves UI assets, enforces</text>
<text text-anchor="start" x="141" y="-714.3" font-family="Arial" font-size="24.00" fill="#000000">bearer auth for memory/admin</text>
<text text-anchor="start" x="155.5" y="-690.3" font-family="Arial" font-size="24.00" fill="#000000">APIs, and applies CORS for</text>
<text text-anchor="start" x="221.5" y="-666.3" font-family="Arial" font-size="24.00" fill="#000000">allowed origins.</text>
</g>
<!-- 29 -->
<g id="29" class="node">
<title>29</title>
<polygon fill="#85bbf0" stroke="#1168bd" points="1330,-1229.5 909,-1229.5 909,-892.5 1330,-892.5 1330,-1229.5"/>
<text text-anchor="start" x="1016" y="-1181.3" font-family="Arial" font-size="34.00" fill="#000000">Media Artifact</text>
<text text-anchor="start" x="1052.5" y="-1147.3" font-family="Arial" font-size="34.00" fill="#000000">Manager</text>
<text text-anchor="start" x="938" y="-1125.3" font-family="Arial" font-size="19.00" fill="#000000">[Component: Python + sqlite3 + filesystem]</text>
<text text-anchor="start" x="982.5" y="-1088.3" font-family="Arial" font-size="24.00" fill="#000000">Provides the compatibility</text>
<text text-anchor="start" x="952.5" y="-1064.3" font-family="Arial" font-size="24.00" fill="#000000">API, records media references,</text>
<text text-anchor="start" x="950" y="-1040.3" font-family="Arial" font-size="24.00" fill="#000000">streams bounded blob uploads,</text>
<text text-anchor="start" x="984" y="-1016.3" font-family="Arial" font-size="24.00" fill="#000000">delegates guarded public</text>
<text text-anchor="start" x="965.5" y="-992.3" font-family="Arial" font-size="24.00" fill="#000000">transport, and drains verified</text>
<text text-anchor="start" x="968" y="-968.3" font-family="Arial" font-size="24.00" fill="#000000">spool bytes without coupling</text>
<text text-anchor="start" x="1014" y="-944.3" font-family="Arial" font-size="24.00" fill="#000000">text ingest to media</text>
<text text-anchor="start" x="1061" y="-920.3" font-family="Arial" font-size="24.00" fill="#000000">availability.</text>
</g>
<!-- 23&#45;&gt;29 -->
<g id="118" class="edge">
<title>23&#45;&gt;29</title>
<path fill="none" stroke="#444444" stroke-dasharray="5,2" d="M552.26,-888.86C662.76,-922.45 792.06,-961.76 899.18,-994.33"/>
<polygon fill="#444444" stroke="#444444" points="898.23,-997.7 908.82,-997.26 900.27,-991 898.23,-997.7"/>
<polygon fill="white" stroke="transparent" points="588,-981 588,-1015 873,-1015 873,-981 588,-981"/>
<text text-anchor="start" x="592.5" y="-991.8" font-family="Arial" font-size="24.00" fill="#444444">Routes media requests to</text>
</g>
<!-- 37 -->
<g id="37" class="node">
<title>37</title>
<polygon fill="#85bbf0" stroke="#1168bd" points="4429,-695.5 4023,-695.5 4023,-382.5 4429,-382.5 4429,-695.5"/>
<text text-anchor="start" x="4113" y="-647.3" font-family="Arial" font-size="34.00" fill="#000000">Media Process</text>
<text text-anchor="start" x="4094.5" y="-613.3" font-family="Arial" font-size="34.00" fill="#000000">Resource Budget</text>
<text text-anchor="start" x="4052" y="-591.3" font-family="Arial" font-size="19.00" fill="#000000">[Component: Python threading.Condition]</text>
<text text-anchor="start" x="4063.5" y="-554.3" font-family="Arial" font-size="24.00" fill="#000000">Bounds active media requests</text>
<text text-anchor="start" x="4092" y="-530.3" font-family="Arial" font-size="24.00" fill="#000000">and in&#45;flight bytes across</text>
<text text-anchor="start" x="4066" y="-506.3" font-family="Arial" font-size="24.00" fill="#000000">threads within one daemon or</text>
<text text-anchor="start" x="4092" y="-482.3" font-family="Arial" font-size="24.00" fill="#000000">worker process; exposes</text>
<text text-anchor="start" x="4097.5" y="-458.3" font-family="Arial" font-size="24.00" fill="#000000">aggregate counters and</text>
<text text-anchor="start" x="4074" y="-434.3" font-family="Arial" font-size="24.00" fill="#000000">releases leases on failure or</text>
<text text-anchor="start" x="4158.5" y="-410.3" font-family="Arial" font-size="24.00" fill="#000000">cancellation.</text>
</g>
<!-- 23&#45;&gt;37 -->
<g id="119" class="edge">
<title>23&#45;&gt;37</title>
<path fill="none" stroke="#444444" stroke-dasharray="5,2" d="M552.18,-741.27C826.98,-661.43 1285.59,-532.24 1685,-439 2543.02,-238.7 2795.85,-224.55 3666,-363 3783.41,-381.68 3910.11,-419.98 4013.15,-456.09"/>
<polygon fill="#444444" stroke="#444444" points="4012.13,-459.44 4022.73,-459.47 4014.46,-452.84 4012.13,-459.44"/>
<polygon fill="white" stroke="transparent" points="2156.5,-340 2156.5,-426 2417.5,-426 2417.5,-340 2156.5,-340"/>
<text text-anchor="start" x="2161" y="-402.8" font-family="Arial" font-size="24.00" fill="#444444">Leases bounded media</text>
<text text-anchor="start" x="2174" y="-376.8" font-family="Arial" font-size="24.00" fill="#444444">upload and response</text>
<text text-anchor="start" x="2198.5" y="-350.8" font-family="Arial" font-size="24.00" fill="#444444">capacity through</text>
</g>
<!-- 31 -->
<g id="31" class="node">
<title>31</title>
<polygon fill="#85bbf0" stroke="#1168bd" points="2882.5,-1672.5 2479.5,-1672.5 2479.5,-1393.5 2882.5,-1393.5 2882.5,-1672.5"/>
<text text-anchor="start" x="2508.5" y="-1624.3" font-family="Arial" font-size="34.00" fill="#000000">Media Task Repository</text>
<text text-anchor="start" x="2553" y="-1602.3" font-family="Arial" font-size="19.00" fill="#000000">[Component: Python + sqlite3]</text>
<text text-anchor="start" x="2532" y="-1565.3" font-family="Arial" font-size="24.00" fill="#000000">Creates deterministic tasks,</text>
<text text-anchor="start" x="2548" y="-1541.3" font-family="Arial" font-size="24.00" fill="#000000">preserves terminal state,</text>
<text text-anchor="start" x="2533" y="-1517.3" font-family="Arial" font-size="24.00" fill="#000000">atomically leases due work,</text>
<text text-anchor="start" x="2540" y="-1493.3" font-family="Arial" font-size="24.00" fill="#000000">recovers stale leases, and</text>
<text text-anchor="start" x="2522" y="-1469.3" font-family="Arial" font-size="24.00" fill="#000000">applies bounded retry/backoff</text>
<text text-anchor="start" x="2521.5" y="-1445.3" font-family="Arial" font-size="24.00" fill="#000000">outcomes independently from</text>
<text text-anchor="start" x="2593" y="-1421.3" font-family="Arial" font-size="24.00" fill="#000000">media transport.</text>
</g>
<!-- 29&#45;&gt;31 -->
<g id="128" class="edge">
<title>29&#45;&gt;31</title>
<path fill="none" stroke="#444444" stroke-dasharray="5,2" d="M1330.18,-1083.27C1690.43,-1122.36 2392.48,-1202.55 2434,-1238 2476.35,-1274.15 2439.31,-1311.54 2470,-1358 2476.22,-1367.42 2483.1,-1376.6 2490.46,-1385.5"/>
<polygon fill="#444444" stroke="#444444" points="2487.9,-1387.9 2497.04,-1393.25 2493.24,-1383.36 2487.9,-1387.9"/>
<polygon fill="white" stroke="transparent" points="1743,-1173 1743,-1233 2046,-1233 2046,-1173 1743,-1173"/>
<text text-anchor="start" x="1747.5" y="-1209.8" font-family="Arial" font-size="24.00" fill="#444444">Creates and claims durable</text>
<text text-anchor="start" x="1788" y="-1183.8" font-family="Arial" font-size="24.00" fill="#444444">media work through</text>
</g>
<!-- 32 -->
<g id="32" class="node">
<title>32</title>
<polygon fill="#85bbf0" stroke="#1168bd" points="2104,-1672.5 1685,-1672.5 1685,-1321.5 2104,-1321.5 2104,-1672.5"/>
<text text-anchor="start" x="1745.5" y="-1624.3" font-family="Arial" font-size="34.00" fill="#000000">Media Artifact Store</text>
<text text-anchor="start" x="1714" y="-1602.3" font-family="Arial" font-size="19.00" fill="#000000">[Component: Python + sqlite3 + BlobStore]</text>
<text text-anchor="start" x="1791.5" y="-1565.3" font-family="Arial" font-size="24.00" fill="#000000">Owns artifact rows,</text>
<text text-anchor="start" x="1747" y="-1541.3" font-family="Arial" font-size="24.00" fill="#000000">transactional cross&#45;process</text>
<text text-anchor="start" x="1749.5" y="-1517.3" font-family="Arial" font-size="24.00" fill="#000000">cache reservations, unique</text>
<text text-anchor="start" x="1779" y="-1493.3" font-family="Arial" font-size="24.00" fill="#000000">streamed publication,</text>
<text text-anchor="start" x="1753.5" y="-1469.3" font-family="Arial" font-size="24.00" fill="#000000">failed&#45;write compensation,</text>
<text text-anchor="start" x="1769" y="-1445.3" font-family="Arial" font-size="24.00" fill="#000000">contained reads, cache</text>
<text text-anchor="start" x="1777" y="-1421.3" font-family="Arial" font-size="24.00" fill="#000000">admission, oldest&#45;first</text>
<text text-anchor="start" x="1748" y="-1397.3" font-family="Arial" font-size="24.00" fill="#000000">eviction, purge/rehydration,</text>
<text text-anchor="start" x="1828" y="-1373.3" font-family="Arial" font-size="24.00" fill="#000000">and lifecycle</text>
<text text-anchor="start" x="1765" y="-1349.3" font-family="Arial" font-size="24.00" fill="#000000">registration/tombstones.</text>
</g>
<!-- 29&#45;&gt;32 -->
<g id="129" class="edge">
<title>29&#45;&gt;32</title>
<path fill="none" stroke="#444444" stroke-dasharray="5,2" d="M1330.23,-1190.36C1342.21,-1196.56 1354.18,-1202.49 1366,-1208 1486.63,-1264.27 1532.08,-1242.39 1649,-1306 1658.05,-1310.93 1667.12,-1316.18 1676.15,-1321.69"/>
<polygon fill="#444444" stroke="#444444" points="1674.44,-1324.75 1684.79,-1327.05 1678.13,-1318.81 1674.44,-1324.75"/>
<polygon fill="white" stroke="transparent" points="1378.5,-1306 1378.5,-1392 1636.5,-1392 1636.5,-1306 1378.5,-1306"/>
<text text-anchor="start" x="1400" y="-1368.8" font-family="Arial" font-size="24.00" fill="#444444">Publishes, resolves,</text>
<text text-anchor="start" x="1382.5" y="-1342.8" font-family="Arial" font-size="24.00" fill="#444444">purges, and rehydrates</text>
<text text-anchor="start" x="1420" y="-1316.8" font-family="Arial" font-size="24.00" fill="#444444">artifacts through</text>
</g>
<!-- 33 -->
<g id="33" class="node">
<title>33</title>
<polygon fill="#85bbf0" stroke="#1168bd" points="2089.5,-788.5 1699.5,-788.5 1699.5,-475.5 2089.5,-475.5 2089.5,-788.5"/>
<text text-anchor="start" x="1771.5" y="-740.3" font-family="Arial" font-size="34.00" fill="#000000">Media Transport</text>
<text text-anchor="start" x="1805.5" y="-706.3" font-family="Arial" font-size="34.00" fill="#000000">Coordinator</text>
<text text-anchor="start" x="1805.5" y="-684.3" font-family="Arial" font-size="19.00" fill="#000000">[Component: Python]</text>
<text text-anchor="start" x="1744" y="-647.3" font-family="Arial" font-size="24.00" fill="#000000">Classifies direct versus HLS</text>
<text text-anchor="start" x="1773" y="-623.3" font-family="Arial" font-size="24.00" fill="#000000">responses, applies the</text>
<text text-anchor="start" x="1728.5" y="-599.3" font-family="Arial" font-size="24.00" fill="#000000">aggregate HLS request budget</text>
<text text-anchor="start" x="1747" y="-575.3" font-family="Arial" font-size="24.00" fill="#000000">from the first network open,</text>
<text text-anchor="start" x="1742.5" y="-551.3" font-family="Arial" font-size="24.00" fill="#000000">enforces playlist sniffing and</text>
<text text-anchor="start" x="1749.5" y="-527.3" font-family="Arial" font-size="24.00" fill="#000000">byte caps, and coordinates</text>
<text text-anchor="start" x="1736" y="-503.3" font-family="Arial" font-size="24.00" fill="#000000">bounded streamed assembly.</text>
</g>
<!-- 29&#45;&gt;33 -->
<g id="130" class="edge">
<title>29&#45;&gt;33</title>
<path fill="none" stroke="#444444" stroke-dasharray="5,2" d="M1309.27,-892.45C1327.91,-878.71 1346.98,-865.65 1366,-854 1467.28,-791.99 1588.96,-739.49 1689.93,-701.14"/>
<polygon fill="#444444" stroke="#444444" points="1691.21,-704.4 1699.32,-697.59 1688.73,-697.85 1691.21,-704.4"/>
<polygon fill="white" stroke="transparent" points="1366,-854 1366,-914 1649,-914 1649,-854 1366,-854"/>
<text text-anchor="start" x="1370.5" y="-890.8" font-family="Arial" font-size="24.00" fill="#444444">Delegates daemon&#45;public</text>
<text text-anchor="start" x="1387.5" y="-864.8" font-family="Arial" font-size="24.00" fill="#444444">media orchestration to</text>
</g>
<!-- 38 -->
<g id="38" class="node">
<title>38</title>
<polygon fill="#85bbf0" stroke="#1168bd" points="2886.5,-1321.5 2475.5,-1321.5 2475.5,-1018.5 2886.5,-1018.5 2886.5,-1321.5"/>
<text text-anchor="start" x="2524.5" y="-1273.3" font-family="Arial" font-size="34.00" fill="#000000">Contained BlobStore</text>
<text text-anchor="start" x="2504.5" y="-1251.3" font-family="Arial" font-size="19.00" fill="#000000">[Component: Python filesystem boundary]</text>
<text text-anchor="start" x="2528.5" y="-1214.3" font-family="Arial" font-size="24.00" fill="#000000">Prefers root&#45;relative locators</text>
<text text-anchor="start" x="2565" y="-1190.3" font-family="Arial" font-size="24.00" fill="#000000">with contained legacy</text>
<text text-anchor="start" x="2550" y="-1166.3" font-family="Arial" font-size="24.00" fill="#000000">fallback; streams unique</text>
<text text-anchor="start" x="2566" y="-1142.3" font-family="Arial" font-size="24.00" fill="#000000">stages with size/hash</text>
<text text-anchor="start" x="2562" y="-1118.3" font-family="Arial" font-size="24.00" fill="#000000">accounting; atomically</text>
<text text-anchor="start" x="2534" y="-1094.3" font-family="Arial" font-size="24.00" fill="#000000">commits; and contains blob</text>
<text text-anchor="start" x="2566.5" y="-1070.3" font-family="Arial" font-size="24.00" fill="#000000">read, stat, and delete</text>
<text text-anchor="start" x="2620.5" y="-1046.3" font-family="Arial" font-size="24.00" fill="#000000">operations.</text>
</g>
<!-- 29&#45;&gt;38 -->
<g id="148" class="edge">
<title>29&#45;&gt;38</title>
<path fill="none" stroke="#444444" stroke-dasharray="5,2" d="M1330.24,-1017.63C1530.1,-982.8 1838.98,-945.91 2104,-987 2226.67,-1006.02 2358.97,-1046.54 2465.8,-1084.63"/>
<polygon fill="#444444" stroke="#444444" points="2464.81,-1087.99 2475.41,-1088.07 2467.17,-1081.4 2464.81,-1087.99"/>
<polygon fill="white" stroke="transparent" points="1760,-987 1760,-1099 2029,-1099 2029,-987 1760,-987"/>
<text text-anchor="start" x="1773.5" y="-1075.8" font-family="Arial" font-size="24.00" fill="#444444">Checks current artifact</text>
<text text-anchor="start" x="1778" y="-1049.8" font-family="Arial" font-size="24.00" fill="#444444">presence during fetch</text>
<text text-anchor="start" x="1764.5" y="-1023.8" font-family="Arial" font-size="24.00" fill="#444444">orchestration and drains</text>
<text text-anchor="start" x="1789" y="-997.8" font-family="Arial" font-size="24.00" fill="#444444">spool bytes through</text>
</g>
<!-- 47 -->
<g id="47" class="node">
<title>47</title>
<path fill="#2f95c8" stroke="#20688c" d="M3658.5,-2234.22C3658.5,-2262.44 3569.98,-2285.38 3461,-2285.38 3352.02,-2285.38 3263.5,-2262.44 3263.5,-2234.22 3263.5,-2234.22 3263.5,-1773.78 3263.5,-1773.78 3263.5,-1745.56 3352.02,-1722.62 3461,-1722.62 3569.98,-1722.62 3658.5,-1745.56 3658.5,-1773.78 3658.5,-1773.78 3658.5,-2234.22 3658.5,-2234.22"/>
<path fill="none" stroke="#20688c" d="M3658.5,-2234.22C3658.5,-2205.99 3569.98,-2183.06 3461,-2183.06 3352.02,-2183.06 3263.5,-2205.99 3263.5,-2234.22"/>
<text text-anchor="start" x="3348" y="-2160.3" font-family="Arial" font-size="34.00" fill="#ffffff">SQLite + FTS5</text>
<text text-anchor="start" x="3388" y="-2126.3" font-family="Arial" font-size="34.00" fill="#ffffff">Database</text>
<text text-anchor="start" x="3335" y="-2104.3" font-family="Arial" font-size="19.00" fill="#ffffff">[Container: SQLite with FTS5]</text>
<text text-anchor="start" x="3293" y="-2067.3" font-family="Arial" font-size="24.00" fill="#ffffff">Durable complete cleaned&#45;text,</text>
<text text-anchor="start" x="3342" y="-2043.3" font-family="Arial" font-size="24.00" fill="#ffffff">relational, and full&#45;text</text>
<text text-anchor="start" x="3343.5" y="-2019.3" font-family="Arial" font-size="24.00" fill="#ffffff">authority for migration</text>
<text text-anchor="start" x="3309" y="-1995.3" font-family="Arial" font-size="24.00" fill="#ffffff">ledger, sources, documents,</text>
<text text-anchor="start" x="3311.5" y="-1971.3" font-family="Arial" font-size="24.00" fill="#ffffff">visits, capture observations,</text>
<text text-anchor="start" x="3330" y="-1947.3" font-family="Arial" font-size="24.00" fill="#ffffff">URL claims, visit events,</text>
<text text-anchor="start" x="3292.5" y="-1923.3" font-family="Arial" font-size="24.00" fill="#ffffff">snapshots, chunks, chunks_fts,</text>
<text text-anchor="start" x="3300" y="-1899.3" font-family="Arial" font-size="24.00" fill="#ffffff">media provenance/tasks, blob</text>
<text text-anchor="start" x="3336.5" y="-1875.3" font-family="Arial" font-size="24.00" fill="#ffffff">lifecycle records, policy</text>
<text text-anchor="start" x="3335.5" y="-1851.3" font-family="Arial" font-size="24.00" fill="#ffffff">rules, audit events, and</text>
<text text-anchor="start" x="3369" y="-1827.3" font-family="Arial" font-size="24.00" fill="#ffffff">deletion receipts.</text>
</g>
<!-- 29&#45;&gt;47 -->
<g id="131" class="edge">
<title>29&#45;&gt;47</title>
<path fill="none" stroke="#444444" stroke-dasharray="5,2" d="M1225.04,-1229.81C1325.28,-1377.74 1489.94,-1587.57 1685,-1709 2001.54,-1906.06 2103.18,-1938.14 2470,-2005 2654.52,-2038.63 2704.44,-2005.17 2892,-2005 3011.65,-2004.89 3145.48,-2004.66 3253.17,-2004.45"/>
<polygon fill="#444444" stroke="#444444" points="3253.18,-2007.95 3263.18,-2004.43 3253.17,-2000.95 3253.18,-2007.95"/>
<polygon fill="white" stroke="transparent" points="2161.5,-1997 2161.5,-2072 2412.5,-2072 2412.5,-1997 2161.5,-1997"/>
<text text-anchor="start" x="2166" y="-2049.3" font-family="Arial" font-size="24.00" fill="#444444">Updates media artifact</text>
<text text-anchor="start" x="2249" y="-2025.3" font-family="Arial" font-size="24.00" fill="#444444">rows in</text>
<text text-anchor="start" x="2254" y="-2005.3" font-family="Arial" font-size="19.00" fill="#444444">[sqlite3]</text>
</g>
<!-- 31&#45;&gt;47 -->
<g id="133" class="edge">
<title>31&#45;&gt;47</title>
<path fill="none" stroke="#444444" stroke-dasharray="5,2" d="M2882.52,-1576.91C2989.09,-1606.63 3118.64,-1653.4 3220,-1723 3232.03,-1731.26 3243.82,-1740.27 3255.32,-1749.84"/>
<polygon fill="#444444" stroke="#444444" points="3253.33,-1752.75 3263.22,-1756.55 3257.86,-1747.41 3253.33,-1752.75"/>
<polygon fill="white" stroke="transparent" points="2937.5,-1723 2937.5,-1798 3210.5,-1798 3210.5,-1723 2937.5,-1723"/>
<text text-anchor="start" x="2963" y="-1775.3" font-family="Arial" font-size="24.00" fill="#444444">Creates, leases, and</text>
<text text-anchor="start" x="2942" y="-1751.3" font-family="Arial" font-size="24.00" fill="#444444">advances media tasks in</text>
<text text-anchor="start" x="3041" y="-1731.3" font-family="Arial" font-size="19.00" fill="#444444">[sqlite3]</text>
</g>
<!-- 32&#45;&gt;31 -->
<g id="135" class="edge">
<title>32&#45;&gt;31</title>
<path fill="none" stroke="#444444" stroke-dasharray="5,2" d="M2104.32,-1502.05C2204.14,-1504.96 2325.29,-1509.21 2434,-1515 2445.53,-1515.61 2457.35,-1516.3 2469.29,-1517.03"/>
<polygon fill="#444444" stroke="#444444" points="2469.13,-1520.53 2479.33,-1517.66 2469.57,-1513.54 2469.13,-1520.53"/>
<polygon fill="white" stroke="transparent" points="2160,-1515 2160,-1627 2414,-1627 2414,-1515 2160,-1515"/>
<text text-anchor="start" x="2171.5" y="-1603.8" font-family="Arial" font-size="24.00" fill="#444444">Marks stored/skipped</text>
<text text-anchor="start" x="2164" y="-1577.8" font-family="Arial" font-size="24.00" fill="#444444">outcomes and ensures</text>
<text text-anchor="start" x="2181" y="-1551.8" font-family="Arial" font-size="24.00" fill="#444444">retryable fetch work</text>
<text text-anchor="start" x="2245.5" y="-1525.8" font-family="Arial" font-size="24.00" fill="#444444">through</text>
</g>
<!-- 32&#45;&gt;38 -->
<g id="137" class="edge">
<title>32&#45;&gt;38</title>
<path fill="none" stroke="#444444" stroke-dasharray="5,2" d="M2104.18,-1389.27C2116.24,-1383.64 2128.24,-1378.18 2140,-1373 2245.68,-1326.5 2365.69,-1280.72 2465.69,-1244.43"/>
<polygon fill="#444444" stroke="#444444" points="2467.09,-1247.65 2475.3,-1240.95 2464.71,-1241.06 2467.09,-1247.65"/>
<polygon fill="white" stroke="transparent" points="2140,-1373 2140,-1485 2434,-1485 2434,-1373 2140,-1373"/>
<text text-anchor="start" x="2144" y="-1461.8" font-family="Arial" font-size="24.00" fill="#444444">Stages unique candidates,</text>
<text text-anchor="start" x="2148.5" y="-1435.8" font-family="Arial" font-size="24.00" fill="#444444">resolves contained reads,</text>
<text text-anchor="start" x="2192" y="-1409.8" font-family="Arial" font-size="24.00" fill="#444444">and deletes failed</text>
<text text-anchor="start" x="2183.5" y="-1383.8" font-family="Arial" font-size="24.00" fill="#444444">candidates through</text>
</g>
<!-- 32&#45;&gt;47 -->
<g id="136" class="edge">
<title>32&#45;&gt;47</title>
<path fill="none" stroke="#444444" stroke-dasharray="5,2" d="M2104.23,-1628.42C2116.17,-1634.34 2128.14,-1639.92 2140,-1645 2340.92,-1731.12 2935.48,-1879.03 3253.63,-1955.32"/>
<polygon fill="#444444" stroke="#444444" points="3252.89,-1958.74 3263.43,-1957.67 3254.52,-1951.94 3252.89,-1958.74"/>
<polygon fill="white" stroke="transparent" points="2542.5,-1864 2542.5,-1987 2819.5,-1987 2819.5,-1864 2542.5,-1864"/>
<text text-anchor="start" x="2547" y="-1964.3" font-family="Arial" font-size="24.00" fill="#444444">Reserves cache capacity</text>
<text text-anchor="start" x="2569.5" y="-1940.3" font-family="Arial" font-size="24.00" fill="#444444">and advances media</text>
<text text-anchor="start" x="2616" y="-1916.3" font-family="Arial" font-size="24.00" fill="#444444">artifact rows</text>
<text text-anchor="start" x="2591" y="-1892.3" font-family="Arial" font-size="24.00" fill="#444444">transactionally in</text>
<text text-anchor="start" x="2648" y="-1872.3" font-family="Arial" font-size="19.00" fill="#444444">[sqlite3]</text>
</g>
<!-- 34 -->
<g id="34" class="node">
<title>34</title>
<polygon fill="#85bbf0" stroke="#1168bd" points="3666,-678.5 3256,-678.5 3256,-399.5 3666,-399.5 3666,-678.5"/>
<text text-anchor="start" x="3296.5" y="-630.3" font-family="Arial" font-size="34.00" fill="#000000">Guarded Media Fetch</text>
<text text-anchor="start" x="3285" y="-608.3" font-family="Arial" font-size="19.00" fill="#000000">[Component: Python stdlib urllib + socket]</text>
<text text-anchor="start" x="3314" y="-571.3" font-family="Arial" font-size="24.00" fill="#000000">Owns streamed HTTP/data</text>
<text text-anchor="start" x="3327" y="-547.3" font-family="Arial" font-size="24.00" fill="#000000">transport, public&#45;address</text>
<text text-anchor="start" x="3362.5" y="-523.3" font-family="Arial" font-size="24.00" fill="#000000">validation, redirect</text>
<text text-anchor="start" x="3334.5" y="-499.3" font-family="Arial" font-size="24.00" fill="#000000">revalidation, no&#45;referrer</text>
<text text-anchor="start" x="3330.5" y="-475.3" font-family="Arial" font-size="24.00" fill="#000000">requests, response&#45;byte</text>
<text text-anchor="start" x="3314" y="-451.3" font-family="Arial" font-size="24.00" fill="#000000">limits, process request/byte</text>
<text text-anchor="start" x="3300" y="-427.3" font-family="Arial" font-size="24.00" fill="#000000">leases, and shared deadlines.</text>
</g>
<!-- 33&#45;&gt;34 -->
<g id="139" class="edge">
<title>33&#45;&gt;34</title>
<path fill="none" stroke="#444444" stroke-dasharray="5,2" d="M2089.52,-552.39C2199.15,-511.71 2339.91,-466.53 2470,-446 2735.58,-404.08 3044.44,-447.59 3245.62,-488.1"/>
<polygon fill="#444444" stroke="#444444" points="3245.22,-491.59 3255.71,-490.14 3246.61,-484.72 3245.22,-491.59"/>
<polygon fill="white" stroke="transparent" points="2537,-446 2537,-532 2825,-532 2825,-446 2537,-446"/>
<text text-anchor="start" x="2584.5" y="-508.8" font-family="Arial" font-size="24.00" fill="#444444">Streams the initial</text>
<text text-anchor="start" x="2541" y="-482.8" font-family="Arial" font-size="24.00" fill="#444444">response and every direct</text>
<text text-anchor="start" x="2599.5" y="-456.8" font-family="Arial" font-size="24.00" fill="#444444">artifact through</text>
</g>
<!-- 35 -->
<g id="35" class="node">
<title>35</title>
<polygon fill="#85bbf0" stroke="#1168bd" points="2892,-871.5 2470,-871.5 2470,-568.5 2892,-568.5 2892,-871.5"/>
<text text-anchor="start" x="2499" y="-823.3" font-family="Arial" font-size="34.00" fill="#000000">Bounded HLS Transport</text>
<text text-anchor="start" x="2592" y="-801.3" font-family="Arial" font-size="19.00" fill="#000000">[Component: Python]</text>
<text text-anchor="start" x="2543" y="-764.3" font-family="Arial" font-size="24.00" fill="#000000">Parses bounded playlists,</text>
<text text-anchor="start" x="2526" y="-740.3" font-family="Arial" font-size="24.00" fill="#000000">selects variants, expands init</text>
<text text-anchor="start" x="2530.5" y="-716.3" font-family="Arial" font-size="24.00" fill="#000000">maps/segments through the</text>
<text text-anchor="start" x="2526" y="-692.3" font-family="Arial" font-size="24.00" fill="#000000">guarded fetch boundary, and</text>
<text text-anchor="start" x="2549" y="-668.3" font-family="Arial" font-size="24.00" fill="#000000">streams assembly within</text>
<text text-anchor="start" x="2626" y="-644.3" font-family="Arial" font-size="24.00" fill="#000000">aggregate</text>
<text text-anchor="start" x="2531" y="-620.3" font-family="Arial" font-size="24.00" fill="#000000">byte/depth/request/deadline</text>
<text text-anchor="start" x="2650" y="-596.3" font-family="Arial" font-size="24.00" fill="#000000">limits.</text>
</g>
<!-- 33&#45;&gt;35 -->
<g id="140" class="edge">
<title>33&#45;&gt;35</title>
<path fill="none" stroke="#444444" stroke-dasharray="5,2" d="M2089.67,-653.78C2201.88,-666.37 2343.41,-682.24 2459.76,-695.3"/>
<polygon fill="#444444" stroke="#444444" points="2459.54,-698.79 2469.87,-696.43 2460.32,-691.84 2459.54,-698.79"/>
<polygon fill="white" stroke="transparent" points="2151.5,-691 2151.5,-777 2422.5,-777 2422.5,-691 2151.5,-691"/>
<text text-anchor="start" x="2183" y="-753.8" font-family="Arial" font-size="24.00" fill="#444444">Delegates detected</text>
<text text-anchor="start" x="2176" y="-727.8" font-family="Arial" font-size="24.00" fill="#444444">playlists for bounded</text>
<text text-anchor="start" x="2156" y="-701.8" font-family="Arial" font-size="24.00" fill="#444444">parsing and assembly to</text>
</g>
<!-- 33&#45;&gt;37 -->
<g id="141" class="edge">
<title>33&#45;&gt;37</title>
<path fill="none" stroke="#444444" stroke-dasharray="5,2" d="M2089.69,-767.81C2106.4,-777.54 2123.31,-786.75 2140,-795 2278.98,-863.68 2317.08,-882.54 2470,-908 2655.01,-938.8 2707.25,-940.34 2892,-908 2908.76,-905.07 2911.71,-899.91 2928,-895 3251.24,-797.53 3340.42,-804.33 3666,-715 3781.61,-683.28 3909.21,-643.48 4013.27,-609.75"/>
<polygon fill="#444444" stroke="#444444" points="4014.52,-613.03 4022.95,-606.61 4012.36,-606.37 4014.52,-613.03"/>
<polygon fill="white" stroke="transparent" points="2928,-895 2928,-955 3220,-955 3220,-895 2928,-895"/>
<text text-anchor="start" x="2932" y="-931.8" font-family="Arial" font-size="24.00" fill="#444444">Leases aggregate transfer</text>
<text text-anchor="start" x="3000" y="-905.8" font-family="Arial" font-size="24.00" fill="#444444">bytes through</text>
</g>
<!-- 34&#45;&gt;37 -->
<g id="142" class="edge">
<title>34&#45;&gt;37</title>
<path fill="none" stroke="#444444" stroke-dasharray="5,2" d="M3666.22,-539C3773.34,-539 3904.45,-539 4012.74,-539"/>
<polygon fill="#444444" stroke="#444444" points="4012.81,-542.5 4022.81,-539 4012.81,-535.5 4012.81,-542.5"/>
<polygon fill="white" stroke="transparent" points="3702,-539 3702,-599 3987,-599 3987,-539 3702,-539"/>
<text text-anchor="start" x="3706.5" y="-575.8" font-family="Arial" font-size="24.00" fill="#444444">Leases each active HTTP</text>
<text text-anchor="start" x="3759.5" y="-549.8" font-family="Arial" font-size="24.00" fill="#444444">request through</text>
</g>
<!-- 35&#45;&gt;34 -->
<g id="145" class="edge">
<title>35&#45;&gt;34</title>
<path fill="none" stroke="#444444" stroke-dasharray="5,2" d="M2892.03,-671.14C3001.68,-645.63 3135.59,-614.47 3245.84,-588.82"/>
<polygon fill="#444444" stroke="#444444" points="3246.81,-592.19 3255.76,-586.52 3245.22,-585.37 3246.81,-592.19"/>
<polygon fill="white" stroke="transparent" points="2950.5,-661 2950.5,-747 3197.5,-747 3197.5,-661 2950.5,-661"/>
<text text-anchor="start" x="2955" y="-723.8" font-family="Arial" font-size="24.00" fill="#444444">Fetches every variant,</text>
<text text-anchor="start" x="2955" y="-697.8" font-family="Arial" font-size="24.00" fill="#444444">init map, and segment</text>
<text text-anchor="start" x="3033" y="-671.8" font-family="Arial" font-size="24.00" fill="#444444">through</text>
</g>
</g>
</svg>
