<?xml version="1.0" encoding="UTF-8" standalone="no"?>
<!DOCTYPE svg PUBLIC "-//W3C//DTD SVG 1.1//EN"
 "http://www.w3.org/Graphics/SVG/1.1/DTD/svg11.dtd">
<!-- Generated by graphviz version 2.43.0 (0)
 -->
<!-- Title: %3 Pages: 1 -->
<svg width="2986pt" height="1882pt"
 viewBox="0.00 0.00 2985.50 1881.50" xmlns="http://www.w3.org/2000/svg" xmlns:xlink="http://www.w3.org/1999/xlink">
<g id="graph0" class="graph" transform="scale(1 1) rotate(0) translate(4 1877.5)">
<title>%3</title>
<polygon fill="white" stroke="transparent" points="-4,4 -4,-1877.5 2981.5,-1877.5 2981.5,4 -4,4"/>
<text text-anchor="start" x="957.25" y="-11.8" font-family="Arial" font-size="34.00">Component View: Browser Memory Daemon &#45; Chrome MV3 Extension</text>
<g id="clust1" class="cluster">
<title>cluster_4</title>
<polygon fill="none" stroke="#444444" points="8,-312.5 8,-1865.5 2969.5,-1865.5 2969.5,-312.5 8,-312.5"/>
<text text-anchor="start" x="1347.75" y="-341.3" font-family="Arial" font-size="24.00" fill="#444444">Browser Memory Daemon</text>
<text text-anchor="start" x="1411.75" y="-321.3" font-family="Arial" font-size="19.00" fill="#444444">[Software System]</text>
</g>
<g id="clust2" class="cluster">
<title>cluster_5</title>
<polygon fill="none" stroke="#444444" points="33,-412.5 33,-1211.5 2123.5,-1211.5 2123.5,-412.5 33,-412.5"/>
<text text-anchor="start" x="950.25" y="-441.3" font-family="Arial" font-size="24.00" fill="#444444">Chrome MV3 Extension</text>
<text text-anchor="start" x="890.25" y="-421.3" font-family="Arial" font-size="19.00" fill="#444444">[Container: JavaScript, Chrome Manifest V3]</text>
</g>
<!-- 2 -->
<g id="2" class="node">
<title>2</title>
<polygon fill="#999999" stroke="#6b6b6b" points="443.5,-287 57.5,-287 57.5,-56 443.5,-56 443.5,-287"/>
<text text-anchor="start" x="116" y="-238.8" font-family="Arial" font-size="34.00" fill="#ffffff">Windows Chrome</text>
<text text-anchor="start" x="173.5" y="-216.8" font-family="Arial" font-size="19.00" fill="#ffffff">[Software System]</text>
<text text-anchor="start" x="86.5" y="-179.8" font-family="Arial" font-size="24.00" fill="#ffffff">The Windows Chrome runtime</text>
<text text-anchor="start" x="100" y="-155.8" font-family="Arial" font-size="24.00" fill="#ffffff">that loads web pages, hosts</text>
<text text-anchor="start" x="99.5" y="-131.8" font-family="Arial" font-size="24.00" fill="#ffffff">the MV3 extension, runs the</text>
<text text-anchor="start" x="91.5" y="-107.8" font-family="Arial" font-size="24.00" fill="#ffffff">local UI in a tab, and exposes</text>
<text text-anchor="start" x="121" y="-83.8" font-family="Arial" font-size="24.00" fill="#ffffff">Chrome extension APIs.</text>
</g>
<!-- 10 -->
<g id="10" class="node">
<title>10</title>
<polygon fill="#85bbf0" stroke="#1168bd" points="2098.5,-754 1634.5,-754 1634.5,-513 2098.5,-513 2098.5,-754"/>
<text text-anchor="start" x="1737.5" y="-705.8" font-family="Arial" font-size="34.00" fill="#000000">Extension Config</text>
<text text-anchor="start" x="1825.5" y="-671.8" font-family="Arial" font-size="34.00" fill="#000000">Store</text>
<text text-anchor="start" x="1663.5" y="-649.8" font-family="Arial" font-size="19.00" fill="#000000">[Component: JavaScript + chrome.storage.local]</text>
<text text-anchor="start" x="1729.5" y="-612.8" font-family="Arial" font-size="24.00" fill="#000000">Owns typed configuration</text>
<text text-anchor="start" x="1745" y="-588.8" font-family="Arial" font-size="24.00" fill="#000000">defaults/migration plus</text>
<text text-anchor="start" x="1704.5" y="-564.8" font-family="Arial" font-size="24.00" fill="#000000">durable visit and minimal CDP</text>
<text text-anchor="start" x="1746" y="-540.8" font-family="Arial" font-size="24.00" fill="#000000">capture&#45;context maps.</text>
</g>
<!-- 18 -->
<g id="18" class="node">
<title>18</title>
<path fill="#2f95c8" stroke="#20688c" d="M2944.5,-1236.72C2944.5,-1264.94 2842.98,-1287.88 2718,-1287.88 2593.02,-1287.88 2491.5,-1264.94 2491.5,-1236.72 2491.5,-1236.72 2491.5,-776.28 2491.5,-776.28 2491.5,-748.06 2593.02,-725.12 2718,-725.12 2842.98,-725.12 2944.5,-748.06 2944.5,-776.28 2944.5,-776.28 2944.5,-1236.72 2944.5,-1236.72"/>
<path fill="none" stroke="#20688c" d="M2944.5,-1236.72C2944.5,-1208.49 2842.98,-1185.56 2718,-1185.56 2593.02,-1185.56 2491.5,-1208.49 2491.5,-1236.72"/>
<text text-anchor="start" x="2576" y="-1162.8" font-family="Arial" font-size="34.00" fill="#ffffff">Extension Browser</text>
<text text-anchor="start" x="2658.5" y="-1128.8" font-family="Arial" font-size="34.00" fill="#ffffff">Storage</text>
<text text-anchor="start" x="2520.5" y="-1106.8" font-family="Arial" font-size="19.00" fill="#ffffff">[Container: chrome.storage.local + IndexedDB]</text>
<text text-anchor="start" x="2540.5" y="-1069.8" font-family="Arial" font-size="24.00" fill="#ffffff">Browser&#45;side IndexedDB storage</text>
<text text-anchor="start" x="2631.5" y="-1045.8" font-family="Arial" font-size="24.00" fill="#ffffff">for transactional</text>
<text text-anchor="start" x="2562.5" y="-1021.8" font-family="Arial" font-size="24.00" fill="#ffffff">capture/lifecycle outbox rows</text>
<text text-anchor="start" x="2552.5" y="-997.8" font-family="Arial" font-size="24.00" fill="#ffffff">plus specialized durable media</text>
<text text-anchor="start" x="2654" y="-973.8" font-family="Arial" font-size="24.00" fill="#ffffff">tasks/blobs;</text>
<text text-anchor="start" x="2565.5" y="-949.8" font-family="Arial" font-size="24.00" fill="#ffffff">chrome.storage.local retains</text>
<text text-anchor="start" x="2566" y="-925.8" font-family="Arial" font-size="24.00" fill="#ffffff">typed configuration, lifecycle</text>
<text text-anchor="start" x="2550.5" y="-901.8" font-family="Arial" font-size="24.00" fill="#ffffff">tab state, minimal CDP capture</text>
<text text-anchor="start" x="2561.5" y="-877.8" font-family="Arial" font-size="24.00" fill="#ffffff">context, aggregate telemetry,</text>
<text text-anchor="start" x="2549.5" y="-853.8" font-family="Arial" font-size="24.00" fill="#ffffff">and one&#45;version queue fallback</text>
<text text-anchor="start" x="2693" y="-829.8" font-family="Arial" font-size="24.00" fill="#ffffff">only.</text>
</g>
<!-- 10&#45;&gt;18 -->
<g id="84" class="edge">
<title>10&#45;&gt;18</title>
<path fill="none" stroke="#444444" stroke-dasharray="5,2" d="M2098.83,-733.57C2207.24,-780.64 2338.11,-837.69 2455.5,-889.5 2464.2,-893.34 2473.05,-897.26 2481.99,-901.22"/>
<polygon fill="#444444" stroke="#444444" points="2480.78,-904.51 2491.34,-905.36 2483.62,-898.11 2480.78,-904.51"/>
<polygon fill="white" stroke="transparent" points="2158,-889.5 2158,-988.5 2432,-988.5 2432,-889.5 2158,-889.5"/>
<text text-anchor="start" x="2168.5" y="-965.8" font-family="Arial" font-size="24.00" fill="#444444">Reads and writes typed</text>
<text text-anchor="start" x="2162" y="-941.8" font-family="Arial" font-size="24.00" fill="#444444">settings and restart state</text>
<text text-anchor="start" x="2285.5" y="-917.8" font-family="Arial" font-size="24.00" fill="#444444">in</text>
<text text-anchor="start" x="2201.5" y="-897.8" font-family="Arial" font-size="19.00" fill="#444444">[chrome.storage.local]</text>
</g>
<!-- 13 -->
<g id="13" class="node">
<title>13</title>
<polygon fill="#85bbf0" stroke="#1168bd" points="2088,-1187 1645,-1187 1645,-826 2088,-826 2088,-1187"/>
<text text-anchor="start" x="1701.5" y="-1138.8" font-family="Arial" font-size="34.00" fill="#000000">Capture and Lifecycle</text>
<text text-anchor="start" x="1811.5" y="-1104.8" font-family="Arial" font-size="34.00" fill="#000000">Outbox</text>
<text text-anchor="start" x="1704.5" y="-1082.8" font-family="Arial" font-size="19.00" fill="#000000">[Component: JavaScript + IndexedDB]</text>
<text text-anchor="start" x="1710" y="-1045.8" font-family="Arial" font-size="24.00" fill="#000000">Persists capture and lifecycle</text>
<text text-anchor="start" x="1716" y="-1021.8" font-family="Arial" font-size="24.00" fill="#000000">messages as independently</text>
<text text-anchor="start" x="1690.5" y="-997.8" font-family="Arial" font-size="24.00" fill="#000000">sequenced IndexedDB rows with</text>
<text text-anchor="start" x="1830.5" y="-973.8" font-family="Arial" font-size="24.00" fill="#000000">atomic</text>
<text text-anchor="start" x="1674" y="-949.8" font-family="Arial" font-size="24.00" fill="#000000">enqueue/claim/checkpoint/ack/retry,</text>
<text text-anchor="start" x="1717.5" y="-925.8" font-family="Arial" font-size="24.00" fill="#000000">stale&#45;claim recovery, legacy</text>
<text text-anchor="start" x="1708" y="-901.8" font-family="Arial" font-size="24.00" fill="#000000">queue import, item admission</text>
<text text-anchor="start" x="1730.5" y="-877.8" font-family="Arial" font-size="24.00" fill="#000000">limits, and serialized&#45;byte</text>
<text text-anchor="start" x="1804.5" y="-853.8" font-family="Arial" font-size="24.00" fill="#000000">accounting.</text>
</g>
<!-- 13&#45;&gt;18 -->
<g id="88" class="edge">
<title>13&#45;&gt;18</title>
<path fill="none" stroke="#444444" stroke-dasharray="5,2" d="M2088.2,-1006.5C2208.82,-1006.5 2358.23,-1006.5 2481.14,-1006.5"/>
<polygon fill="#444444" stroke="#444444" points="2481.44,-1010 2491.44,-1006.5 2481.44,-1003 2481.44,-1010"/>
<polygon fill="white" stroke="transparent" points="2134.5,-1006.5 2134.5,-1105.5 2455.5,-1105.5 2455.5,-1006.5 2134.5,-1006.5"/>
<text text-anchor="start" x="2139" y="-1082.8" font-family="Arial" font-size="24.00" fill="#444444">Reads and writes sequenced</text>
<text text-anchor="start" x="2156" y="-1058.8" font-family="Arial" font-size="24.00" fill="#444444">capture/lifecycle rows and</text>
<text text-anchor="start" x="2178.5" y="-1034.8" font-family="Arial" font-size="24.00" fill="#444444">migration metadata in</text>
<text text-anchor="start" x="2243" y="-1014.8" font-family="Arial" font-size="19.00" fill="#444444">[IndexedDB]</text>
</g>
<!-- 8 -->
<g id="8" class="node">
<title>8</title>
<polygon fill="#85bbf0" stroke="#1168bd" points="443,-1179 58,-1179 58,-876 443,-876 443,-1179"/>
<text text-anchor="start" x="142" y="-1130.8" font-family="Arial" font-size="34.00" fill="#000000">Content Script</text>
<text text-anchor="start" x="87" y="-1108.8" font-family="Arial" font-size="19.00" fill="#000000">[Component: JavaScript content script]</text>
<text text-anchor="start" x="110.5" y="-1071.8" font-family="Arial" font-size="24.00" fill="#000000">Schedules initial, delayed,</text>
<text text-anchor="start" x="91.5" y="-1047.8" font-family="Arial" font-size="24.00" fill="#000000">reinjected, and SPA captures;</text>
<text text-anchor="start" x="107.5" y="-1023.8" font-family="Arial" font-size="24.00" fill="#000000">computes full deterministic</text>
<text text-anchor="start" x="112.5" y="-999.8" font-family="Arial" font-size="24.00" fill="#000000">SHA&#45;256 capture digests;</text>
<text text-anchor="start" x="124" y="-975.8" font-family="Arial" font-size="24.00" fill="#000000">tracks scroll; and sends</text>
<text text-anchor="start" x="88.5" y="-951.8" font-family="Arial" font-size="24.00" fill="#000000">capture and inline blob upload</text>
<text text-anchor="start" x="119.5" y="-927.8" font-family="Arial" font-size="24.00" fill="#000000">messages to the service</text>
<text text-anchor="start" x="211" y="-903.8" font-family="Arial" font-size="24.00" fill="#000000">worker.</text>
</g>
<!-- 9 -->
<g id="9" class="node">
<title>9</title>
<polygon fill="#85bbf0" stroke="#1168bd" points="1240.5,-1143 802.5,-1143 802.5,-912 1240.5,-912 1240.5,-1143"/>
<text text-anchor="start" x="905.5" y="-1094.8" font-family="Arial" font-size="34.00" fill="#000000">Service Worker</text>
<text text-anchor="start" x="831.5" y="-1072.8" font-family="Arial" font-size="19.00" fill="#000000">[Component: JavaScript MV3 service worker]</text>
<text text-anchor="start" x="870" y="-1035.8" font-family="Arial" font-size="24.00" fill="#000000">Registers MV3 listeners and</text>
<text text-anchor="start" x="874" y="-1011.8" font-family="Arial" font-size="24.00" fill="#000000">orchestrates capture/media</text>
<text text-anchor="start" x="897.5" y="-987.8" font-family="Arial" font-size="24.00" fill="#000000">delivery, outbox drains,</text>
<text text-anchor="start" x="875" y="-963.8" font-family="Arial" font-size="24.00" fill="#000000">alarms, and extracted state</text>
<text text-anchor="start" x="962" y="-939.8" font-family="Arial" font-size="24.00" fill="#000000">controllers.</text>
</g>
<!-- 8&#45;&gt;9 -->
<g id="80" class="edge">
<title>8&#45;&gt;9</title>
<path fill="none" stroke="#444444" stroke-dasharray="5,2" d="M443.07,-1027.5C548.97,-1027.5 681.23,-1027.5 792.44,-1027.5"/>
<polygon fill="#444444" stroke="#444444" points="792.45,-1031 802.45,-1027.5 792.45,-1024 792.45,-1031"/>
<polygon fill="white" stroke="transparent" points="479.5,-1027.5 479.5,-1102.5 766.5,-1102.5 766.5,-1027.5 479.5,-1027.5"/>
<text text-anchor="start" x="484" y="-1079.8" font-family="Arial" font-size="24.00" fill="#444444">Sends captures and inline</text>
<text text-anchor="start" x="581" y="-1055.8" font-family="Arial" font-size="24.00" fill="#444444">blobs to</text>
<text text-anchor="start" x="490.5" y="-1035.8" font-family="Arial" font-size="19.00" fill="#444444">[chrome.runtime.sendMessage]</text>
</g>
<!-- 9&#45;&gt;10 -->
<g id="81" class="edge">
<title>9&#45;&gt;10</title>
<path fill="none" stroke="#444444" stroke-dasharray="5,2" d="M1125.65,-911.94C1168.63,-869.74 1221.37,-824.95 1276.5,-794.5 1383.47,-735.43 1513.53,-696.91 1624.19,-672.41"/>
<polygon fill="#444444" stroke="#444444" points="1625.14,-675.79 1634.16,-670.23 1623.64,-668.95 1625.14,-675.79"/>
<polygon fill="white" stroke="transparent" points="1296.5,-794.5 1296.5,-880.5 1578.5,-880.5 1578.5,-794.5 1296.5,-794.5"/>
<text text-anchor="start" x="1300.5" y="-857.3" font-family="Arial" font-size="24.00" fill="#444444">Reads typed settings and</text>
<text text-anchor="start" x="1329" y="-831.3" font-family="Arial" font-size="24.00" fill="#444444">durable restart state</text>
<text text-anchor="start" x="1396" y="-805.3" font-family="Arial" font-size="24.00" fill="#444444">through</text>
</g>
<!-- 9&#45;&gt;13 -->
<g id="87" class="edge">
<title>9&#45;&gt;13</title>
<path fill="none" stroke="#444444" stroke-dasharray="5,2" d="M1240.65,-927.42C1252.63,-923.96 1264.63,-920.94 1276.5,-918.5 1416.68,-889.69 1457.2,-895.81 1598.5,-918.5 1610.48,-920.42 1622.65,-922.8 1634.86,-925.53"/>
<polygon fill="#444444" stroke="#444444" points="1634.12,-928.95 1644.65,-927.79 1635.7,-922.13 1634.12,-928.95"/>
<polygon fill="white" stroke="transparent" points="1296.5,-918.5 1296.5,-1030.5 1578.5,-1030.5 1578.5,-918.5 1296.5,-918.5"/>
<text text-anchor="start" x="1339.5" y="-1007.3" font-family="Arial" font-size="24.00" fill="#444444">Enqueues, drains,</text>
<text text-anchor="start" x="1306" y="-981.3" font-family="Arial" font-size="24.00" fill="#444444">checkpoints, retries, and</text>
<text text-anchor="start" x="1300.5" y="-955.3" font-family="Arial" font-size="24.00" fill="#444444">recovers capture/lifecycle</text>
<text text-anchor="start" x="1367" y="-929.3" font-family="Arial" font-size="24.00" fill="#444444">work through</text>
</g>
<!-- 9&#45;&gt;18 -->
<g id="89" class="edge">
<title>9&#45;&gt;18</title>
<path fill="none" stroke="#444444" stroke-dasharray="5,2" d="M1240.53,-1115.5C1355.62,-1157.27 1500.43,-1202.56 1634.5,-1223.5 1849.23,-1257.05 1908.49,-1255.18 2123.5,-1223.5 2245.71,-1205.49 2375.22,-1161.35 2481.98,-1117.54"/>
<polygon fill="#444444" stroke="#444444" points="2483.35,-1120.77 2491.25,-1113.72 2480.67,-1114.3 2483.35,-1120.77"/>
<polygon fill="white" stroke="transparent" points="1722,-1247.5 1722,-1346.5 2011,-1346.5 2011,-1247.5 1722,-1247.5"/>
<text text-anchor="start" x="1766" y="-1323.8" font-family="Arial" font-size="24.00" fill="#444444">Persists aggregate</text>
<text text-anchor="start" x="1726.5" y="-1299.8" font-family="Arial" font-size="24.00" fill="#444444">telemetry and one&#45;version</text>
<text text-anchor="start" x="1776" y="-1275.8" font-family="Arial" font-size="24.00" fill="#444444">queue fallback in</text>
<text text-anchor="start" x="1773.5" y="-1255.8" font-family="Arial" font-size="19.00" fill="#444444">[chrome.storage.local]</text>
</g>
<!-- 19 -->
<g id="19" class="node">
<title>19</title>
<polygon fill="#438dd5" stroke="#2e6295" points="2097.5,-1840 1635.5,-1840 1635.5,-1503 2097.5,-1503 2097.5,-1840"/>
<text text-anchor="start" x="1702" y="-1791.8" font-family="Arial" font-size="34.00" fill="#ffffff">WSL Loopback HTTP</text>
<text text-anchor="start" x="1802" y="-1757.8" font-family="Arial" font-size="34.00" fill="#ffffff">Daemon</text>
<text text-anchor="start" x="1664.5" y="-1735.8" font-family="Arial" font-size="19.00" fill="#ffffff">[Container: Python 3.11, ThreadingHTTPServer]</text>
<text text-anchor="start" x="1705.5" y="-1698.8" font-family="Arial" font-size="24.00" fill="#ffffff">Authenticated loopback HTTP</text>
<text text-anchor="start" x="1730.5" y="-1674.8" font-family="Arial" font-size="24.00" fill="#ffffff">API that handles capture,</text>
<text text-anchor="start" x="1727" y="-1650.8" font-family="Arial" font-size="24.00" fill="#ffffff">visit events, media artifact</text>
<text text-anchor="start" x="1730" y="-1626.8" font-family="Arial" font-size="24.00" fill="#ffffff">upload/fetch/purge, exact</text>
<text text-anchor="start" x="1826.5" y="-1602.8" font-family="Arial" font-size="24.00" fill="#ffffff">search,</text>
<text text-anchor="start" x="1717.5" y="-1578.8" font-family="Arial" font-size="24.00" fill="#ffffff">recent/timeline/detail, policy</text>
<text text-anchor="start" x="1715" y="-1554.8" font-family="Arial" font-size="24.00" fill="#ffffff">rules, doctor, durable forget,</text>
<text text-anchor="start" x="1753.5" y="-1530.8" font-family="Arial" font-size="24.00" fill="#ffffff">and static UI serving.</text>
</g>
<!-- 9&#45;&gt;19 -->
<g id="90" class="edge">
<title>9&#45;&gt;19</title>
<path fill="none" stroke="#444444" stroke-dasharray="5,2" d="M1096.12,-1143.25C1142.27,-1209.54 1206.22,-1291.1 1276.5,-1350.5 1380.85,-1438.7 1513.26,-1513.47 1626.1,-1568.61"/>
<polygon fill="#444444" stroke="#444444" points="1624.7,-1571.82 1635.22,-1573.04 1627.76,-1565.52 1624.7,-1571.82"/>
<polygon fill="white" stroke="transparent" points="1276.5,-1553.5 1276.5,-1652.5 1598.5,-1652.5 1598.5,-1553.5 1276.5,-1553.5"/>
<text text-anchor="start" x="1343" y="-1629.8" font-family="Arial" font-size="24.00" fill="#444444">Delivers /capture,</text>
<text text-anchor="start" x="1333.5" y="-1605.8" font-family="Arial" font-size="24.00" fill="#444444">/visit&#45;events, media</text>
<text text-anchor="start" x="1291" y="-1581.8" font-family="Arial" font-size="24.00" fill="#444444">metadata, and raw blobs to</text>
<text text-anchor="start" x="1280.5" y="-1561.8" font-family="Arial" font-size="19.00" fill="#444444">[Bearer HTTP/JSON; raw HTTP PUT]</text>
</g>
</g>
</svg>
