<?xml version="1.0" encoding="UTF-8" standalone="no"?>
<!DOCTYPE svg PUBLIC "-//W3C//DTD SVG 1.1//EN"
 "http://www.w3.org/Graphics/SVG/1.1/DTD/svg11.dtd">
<!-- Generated by graphviz version 2.43.0 (0)
 -->
<!-- Title: %3 Pages: 1 -->
<svg width="1558pt" height="1697pt"
 viewBox="0.00 0.00 1558.00 1697.00" xmlns="http://www.w3.org/2000/svg" xmlns:xlink="http://www.w3.org/1999/xlink">
<g id="graph0" class="graph" transform="scale(1 1) rotate(0) translate(4 1693)">
<title>%3</title>
<polygon fill="white" stroke="transparent" points="-4,4 -4,-1693 1554,-1693 1554,4 -4,4"/>
<text text-anchor="start" x="452.5" y="-11.8" font-family="Arial" font-size="34.00">Container View: Browser Memory Daemon</text>
<g id="clust1" class="cluster">
<title>cluster_4</title>
<polygon fill="none" stroke="#444444" points="8,-64 8,-1681 1045,-1681 1045,-64 8,-64"/>
<text text-anchor="start" x="385.5" y="-92.8" font-family="Arial" font-size="24.00" fill="#444444">Browser Memory Daemon</text>
<text text-anchor="start" x="449.5" y="-72.8" font-family="Arial" font-size="19.00" fill="#444444">[Software System]</text>
</g>
<!-- 3 -->
<g id="3" class="node">
<title>3</title>
<polygon fill="#999999" stroke="#6b6b6b" points="1495.5,-1132.31 1092.5,-1132.31 1092.5,-867.31 1495.5,-867.31 1495.5,-1132.31"/>
<text text-anchor="start" x="1132.5" y="-1084.11" font-family="Arial" font-size="34.00" fill="#ffffff">Web Sites and Media</text>
<text text-anchor="start" x="1240" y="-1050.11" font-family="Arial" font-size="34.00" fill="#ffffff">Origins</text>
<text text-anchor="start" x="1217" y="-1028.11" font-family="Arial" font-size="19.00" fill="#ffffff">[Software System]</text>
<text text-anchor="start" x="1184" y="-991.11" font-family="Arial" font-size="24.00" fill="#ffffff">External web pages,</text>
<text text-anchor="start" x="1131.5" y="-967.11" font-family="Arial" font-size="24.00" fill="#ffffff">image/video URLs, and media</text>
<text text-anchor="start" x="1121.5" y="-943.11" font-family="Arial" font-size="24.00" fill="#ffffff">CDNs that Chrome loads or that</text>
<text text-anchor="start" x="1131.5" y="-919.11" font-family="Arial" font-size="24.00" fill="#ffffff">sidecars fetch as page&#45;related</text>
<text text-anchor="start" x="1257.5" y="-895.11" font-family="Arial" font-size="24.00" fill="#ffffff">media.</text>
</g>
<!-- 13 -->
<g id="13" class="node">
<title>13</title>
<path fill="#2f95c8" stroke="#20688c" d="M485.5,-1149.03C485.5,-1167.33 383.98,-1182.19 259,-1182.19 134.02,-1182.19 32.5,-1167.33 32.5,-1149.03 32.5,-1149.03 32.5,-850.6 32.5,-850.6 32.5,-832.3 134.02,-817.44 259,-817.44 383.98,-817.44 485.5,-832.3 485.5,-850.6 485.5,-850.6 485.5,-1149.03 485.5,-1149.03"/>
<path fill="none" stroke="#20688c" d="M485.5,-1149.03C485.5,-1130.73 383.98,-1115.87 259,-1115.87 134.02,-1115.87 32.5,-1130.73 32.5,-1149.03"/>
<text text-anchor="start" x="117" y="-1084.11" font-family="Arial" font-size="34.00" fill="#ffffff">Extension Browser</text>
<text text-anchor="start" x="199.5" y="-1050.11" font-family="Arial" font-size="34.00" fill="#ffffff">Storage</text>
<text text-anchor="start" x="61.5" y="-1028.11" font-family="Arial" font-size="19.00" fill="#ffffff">[Container: chrome.storage.local + IndexedDB]</text>
<text text-anchor="start" x="126.5" y="-991.11" font-family="Arial" font-size="24.00" fill="#ffffff">Browser&#45;side storage for</text>
<text text-anchor="start" x="114.5" y="-967.11" font-family="Arial" font-size="24.00" fill="#ffffff">capture and visit queues in</text>
<text text-anchor="start" x="120.5" y="-943.11" font-family="Arial" font-size="24.00" fill="#ffffff">chrome.storage.local plus</text>
<text text-anchor="start" x="126.5" y="-919.11" font-family="Arial" font-size="24.00" fill="#ffffff">durable media tasks and</text>
<text text-anchor="start" x="107.5" y="-895.11" font-family="Arial" font-size="24.00" fill="#ffffff">fetched blobs in IndexedDB.</text>
</g>
<!-- 14 -->
<g id="14" class="node">
<title>14</title>
<polygon fill="#438dd5" stroke="#2e6295" points="1020,-1168.31 558,-1168.31 558,-831.31 1020,-831.31 1020,-1168.31"/>
<text text-anchor="start" x="624.5" y="-1120.11" font-family="Arial" font-size="34.00" fill="#ffffff">WSL Loopback HTTP</text>
<text text-anchor="start" x="724.5" y="-1086.11" font-family="Arial" font-size="34.00" fill="#ffffff">Daemon</text>
<text text-anchor="start" x="587" y="-1064.11" font-family="Arial" font-size="19.00" fill="#ffffff">[Container: Python 3.11, ThreadingHTTPServer]</text>
<text text-anchor="start" x="628" y="-1027.11" font-family="Arial" font-size="24.00" fill="#ffffff">Authenticated loopback HTTP</text>
<text text-anchor="start" x="653" y="-1003.11" font-family="Arial" font-size="24.00" fill="#ffffff">API that handles capture,</text>
<text text-anchor="start" x="649.5" y="-979.11" font-family="Arial" font-size="24.00" fill="#ffffff">visit events, media artifact</text>
<text text-anchor="start" x="652.5" y="-955.11" font-family="Arial" font-size="24.00" fill="#ffffff">upload/fetch/purge, exact</text>
<text text-anchor="start" x="749" y="-931.11" font-family="Arial" font-size="24.00" fill="#ffffff">search,</text>
<text text-anchor="start" x="640" y="-907.11" font-family="Arial" font-size="24.00" fill="#ffffff">recent/timeline/detail, policy</text>
<text text-anchor="start" x="658" y="-883.11" font-family="Arial" font-size="24.00" fill="#ffffff">rules, doctor, forget, and</text>
<text text-anchor="start" x="699.5" y="-859.11" font-family="Arial" font-size="24.00" fill="#ffffff">static UI serving.</text>
</g>
<!-- 28 -->
<g id="28" class="node">
<title>28</title>
<path fill="#2f95c8" stroke="#20688c" d="M468.5,-595.03C468.5,-618.29 379.98,-637.19 271,-637.19 162.02,-637.19 73.5,-618.29 73.5,-595.03 73.5,-595.03 73.5,-215.6 73.5,-215.6 73.5,-192.33 162.02,-173.44 271,-173.44 379.98,-173.44 468.5,-192.33 468.5,-215.6 468.5,-215.6 468.5,-595.03 468.5,-595.03"/>
<path fill="none" stroke="#20688c" d="M468.5,-595.03C468.5,-571.77 379.98,-552.87 271,-552.87 162.02,-552.87 73.5,-571.77 73.5,-595.03"/>
<text text-anchor="start" x="158" y="-525.61" font-family="Arial" font-size="34.00" fill="#ffffff">SQLite + FTS5</text>
<text text-anchor="start" x="198" y="-491.61" font-family="Arial" font-size="34.00" fill="#ffffff">Database</text>
<text text-anchor="start" x="145" y="-469.61" font-family="Arial" font-size="19.00" fill="#ffffff">[Container: SQLite with FTS5]</text>
<text text-anchor="start" x="152" y="-432.61" font-family="Arial" font-size="24.00" fill="#ffffff">Durable relational and</text>
<text text-anchor="start" x="130.5" y="-408.61" font-family="Arial" font-size="24.00" fill="#ffffff">full&#45;text store for migration</text>
<text text-anchor="start" x="119" y="-384.61" font-family="Arial" font-size="24.00" fill="#ffffff">ledger, sources, documents,</text>
<text text-anchor="start" x="174.5" y="-360.61" font-family="Arial" font-size="24.00" fill="#ffffff">visits, visit events,</text>
<text text-anchor="start" x="102.5" y="-336.61" font-family="Arial" font-size="24.00" fill="#ffffff">snapshots, chunks, chunks_fts,</text>
<text text-anchor="start" x="122.5" y="-312.61" font-family="Arial" font-size="24.00" fill="#ffffff">media artifacts, media fetch</text>
<text text-anchor="start" x="142.5" y="-288.61" font-family="Arial" font-size="24.00" fill="#ffffff">tasks, policy rules, audit</text>
<text text-anchor="start" x="113" y="-264.61" font-family="Arial" font-size="24.00" fill="#ffffff">events, and deletion receipts.</text>
</g>
<!-- 14&#45;&gt;28 -->
<g id="44" class="edge">
<title>14&#45;&gt;28</title>
<path fill="none" stroke="#444444" stroke-dasharray="5,2" d="M557.91,-839.54C545.53,-831.97 533.18,-824.61 521,-817.62 488.93,-799.22 472,-807.92 446,-781.62 408.05,-743.25 377.31,-695.1 352.81,-646.21"/>
<polygon fill="#444444" stroke="#444444" points="355.87,-644.5 348.31,-637.08 349.59,-647.59 355.87,-644.5"/>
<polygon fill="white" stroke="transparent" points="446,-682.62 446,-781.62 756,-781.62 756,-682.62 446,-682.62"/>
<text text-anchor="start" x="450" y="-758.92" font-family="Arial" font-size="24.00" fill="#444444">Reads and writes metadata,</text>
<text text-anchor="start" x="483" y="-734.92" font-family="Arial" font-size="24.00" fill="#444444">FTS, tasks, audit, and</text>
<text text-anchor="start" x="545.5" y="-710.92" font-family="Arial" font-size="24.00" fill="#444444">receipts in</text>
<text text-anchor="start" x="567.5" y="-690.92" font-family="Arial" font-size="19.00" fill="#444444">[sqlite3]</text>
</g>
<!-- 30 -->
<g id="30" class="node">
<title>30</title>
<path fill="#2f95c8" stroke="#20688c" d="M979,-602.6C979,-626.79 880.84,-646.44 760,-646.44 639.16,-646.44 541,-626.79 541,-602.6 541,-602.6 541,-208.03 541,-208.03 541,-183.84 639.16,-164.19 760,-164.19 880.84,-164.19 979,-183.84 979,-208.03 979,-208.03 979,-602.6 979,-602.6"/>
<path fill="none" stroke="#20688c" d="M979,-602.6C979,-578.41 880.84,-558.76 760,-558.76 639.16,-558.76 541,-578.41 541,-602.6"/>
<text text-anchor="start" x="621" y="-532.61" font-family="Arial" font-size="34.00" fill="#ffffff">Media Blob Cache</text>
<text text-anchor="start" x="570" y="-510.61" font-family="Arial" font-size="19.00" fill="#ffffff">[Container: WSL or NAS&#45;mounted filesystem]</text>
<text text-anchor="start" x="626.5" y="-473.61" font-family="Arial" font-size="24.00" fill="#ffffff">Bounded and disposable</text>
<text text-anchor="start" x="615.5" y="-449.61" font-family="Arial" font-size="24.00" fill="#ffffff">filesystem cache for stored</text>
<text text-anchor="start" x="594.5" y="-425.61" font-family="Arial" font-size="24.00" fill="#ffffff">image/video/audio blobs under</text>
<text text-anchor="start" x="616" y="-401.61" font-family="Arial" font-size="24.00" fill="#ffffff">the configured WSL&#45;visible</text>
<text text-anchor="start" x="684.5" y="-377.61" font-family="Arial" font-size="24.00" fill="#ffffff">blob root, with</text>
<text text-anchor="start" x="592.5" y="-353.61" font-family="Arial" font-size="24.00" fill="#ffffff">purge/rehydrate semantics that</text>
<text text-anchor="start" x="603.5" y="-329.61" font-family="Arial" font-size="24.00" fill="#ffffff">preserve media refs, hashes,</text>
<text text-anchor="start" x="587" y="-305.61" font-family="Arial" font-size="24.00" fill="#ffffff">status reasons, and provenance</text>
<text text-anchor="start" x="623.5" y="-281.61" font-family="Arial" font-size="24.00" fill="#ffffff">when bytes are absent or</text>
<text text-anchor="start" x="718.5" y="-257.61" font-family="Arial" font-size="24.00" fill="#ffffff">purged.</text>
</g>
<!-- 14&#45;&gt;30 -->
<g id="46" class="edge">
<title>14&#45;&gt;30</title>
<path fill="none" stroke="#444444" stroke-dasharray="5,2" d="M780.79,-831.01C778.13,-776.83 775.14,-715.54 772.26,-656.73"/>
<polygon fill="#444444" stroke="#444444" points="775.74,-656.36 771.76,-646.54 768.75,-656.7 775.74,-656.36"/>
<polygon fill="white" stroke="transparent" points="778,-682.62 778,-781.62 1086,-781.62 1086,-682.62 778,-682.62"/>
<text text-anchor="start" x="807" y="-758.92" font-family="Arial" font-size="24.00" fill="#444444">Stores, serves, purges,</text>
<text text-anchor="start" x="782" y="-734.92" font-family="Arial" font-size="24.00" fill="#444444">and rehydrates media blobs</text>
<text text-anchor="start" x="922.5" y="-710.92" font-family="Arial" font-size="24.00" fill="#444444">in</text>
<text text-anchor="start" x="880.5" y="-690.92" font-family="Arial" font-size="19.00" fill="#444444">[Filesystem]</text>
</g>
<!-- 5 -->
<g id="5" class="node">
<title>5</title>
<polygon fill="#438dd5" stroke="#2e6295" points="742,-1656 308,-1656 308,-1377 742,-1377 742,-1656"/>
<text text-anchor="start" x="345" y="-1607.8" font-family="Arial" font-size="34.00" fill="#ffffff">Chrome MV3 Extension</text>
<text text-anchor="start" x="337" y="-1585.8" font-family="Arial" font-size="19.00" fill="#ffffff">[Container: JavaScript, Chrome Manifest V3]</text>
<text text-anchor="start" x="382" y="-1548.8" font-family="Arial" font-size="24.00" fill="#ffffff">Captures visible page text,</text>
<text text-anchor="start" x="407.5" y="-1524.8" font-family="Arial" font-size="24.00" fill="#ffffff">media references, tab</text>
<text text-anchor="start" x="416" y="-1500.8" font-family="Arial" font-size="24.00" fill="#ffffff">lifecycle events, and</text>
<text text-anchor="start" x="359" y="-1476.8" font-family="Arial" font-size="24.00" fill="#ffffff">browser&#45;side media bytes from</text>
<text text-anchor="start" x="354" y="-1452.8" font-family="Arial" font-size="24.00" fill="#ffffff">Windows Chrome; queues work</text>
<text text-anchor="start" x="366" y="-1428.8" font-family="Arial" font-size="24.00" fill="#ffffff">durably and posts to the WSL</text>
<text text-anchor="start" x="477.5" y="-1404.8" font-family="Arial" font-size="24.00" fill="#ffffff">daemon.</text>
</g>
<!-- 5&#45;&gt;3 -->
<g id="37" class="edge">
<title>5&#45;&gt;3</title>
<path fill="none" stroke="#444444" stroke-dasharray="5,2" d="M742.17,-1481.33C909.26,-1450.91 1122.06,-1401.86 1186,-1341 1240.12,-1289.49 1267.21,-1211.04 1280.74,-1142.45"/>
<polygon fill="#444444" stroke="#444444" points="1284.22,-1142.88 1282.64,-1132.41 1277.34,-1141.58 1284.22,-1142.88"/>
<polygon fill="white" stroke="transparent" points="1259,-1230 1259,-1329 1550,-1329 1550,-1230 1259,-1230"/>
<text text-anchor="start" x="1282.5" y="-1306.3" font-family="Arial" font-size="24.00" fill="#444444">Extracts DOM refs and</text>
<text text-anchor="start" x="1322" y="-1282.3" font-family="Arial" font-size="24.00" fill="#444444">fetches queued</text>
<text text-anchor="start" x="1274.5" y="-1258.3" font-family="Arial" font-size="24.00" fill="#444444">credentialed media from</text>
<text text-anchor="start" x="1263.5" y="-1238.3" font-family="Arial" font-size="19.00" fill="#444444">[DOM; fetch(credentials: include)]</text>
</g>
<!-- 5&#45;&gt;13 -->
<g id="38" class="edge">
<title>5&#45;&gt;13</title>
<path fill="none" stroke="#444444" stroke-dasharray="5,2" d="M313.7,-1376.72C304.4,-1365.47 296.04,-1353.56 289,-1341 263.99,-1296.4 252.43,-1243.23 248.09,-1192.34"/>
<polygon fill="#444444" stroke="#444444" points="251.57,-1191.9 247.32,-1182.2 244.59,-1192.43 251.57,-1191.9"/>
<polygon fill="white" stroke="transparent" points="289,-1230 289,-1329 600,-1329 600,-1230 289,-1230"/>
<text text-anchor="start" x="303" y="-1306.3" font-family="Arial" font-size="24.00" fill="#444444">Queues captures, lifecycle</text>
<text text-anchor="start" x="311" y="-1282.3" font-family="Arial" font-size="24.00" fill="#444444">events, media tasks, and</text>
<text text-anchor="start" x="403" y="-1258.3" font-family="Arial" font-size="24.00" fill="#444444">blobs in</text>
<text text-anchor="start" x="293.5" y="-1238.3" font-family="Arial" font-size="19.00" fill="#444444">[chrome.storage.local + IndexedDB]</text>
</g>
<!-- 5&#45;&gt;14 -->
<g id="39" class="edge">
<title>5&#45;&gt;14</title>
<path fill="none" stroke="#444444" stroke-dasharray="5,2" d="M596.09,-1376.9C627.53,-1315.62 664.86,-1242.83 698.27,-1177.69"/>
<polygon fill="#444444" stroke="#444444" points="701.51,-1179.05 702.96,-1168.55 695.28,-1175.85 701.51,-1179.05"/>
<polygon fill="white" stroke="transparent" points="673,-1218 673,-1341 1168,-1341 1168,-1218 673,-1218"/>
<text text-anchor="start" x="840" y="-1318.3" font-family="Arial" font-size="24.00" fill="#444444">Posts /capture,</text>
<text text-anchor="start" x="817" y="-1294.3" font-family="Arial" font-size="24.00" fill="#444444">/visit&#45;events, media</text>
<text text-anchor="start" x="794" y="-1270.3" font-family="Arial" font-size="24.00" fill="#444444">metadata, and raw blob</text>
<text text-anchor="start" x="865" y="-1246.3" font-family="Arial" font-size="24.00" fill="#444444">uploads to</text>
<text text-anchor="start" x="677.5" y="-1226.3" font-family="Arial" font-size="19.00" fill="#444444">[Bearer HTTP/JSON; raw HTTP PUT over 127.0.0.1:8765]</text>
</g>
</g>
</svg>
