<?xml version="1.0" encoding="UTF-8" standalone="no"?>
<!DOCTYPE svg PUBLIC "-//W3C//DTD SVG 1.1//EN"
 "http://www.w3.org/Graphics/SVG/1.1/DTD/svg11.dtd">
<!-- Generated by graphviz version 2.43.0 (0)
 -->
<!-- Title: %3 Pages: 1 -->
<svg width="1943pt" height="758pt"
 viewBox="0.00 0.00 1943.00 758.00" xmlns="http://www.w3.org/2000/svg" xmlns:xlink="http://www.w3.org/1999/xlink">
<g id="graph0" class="graph" transform="scale(1 1) rotate(0) translate(4 754)">
<title>%3</title>
<polygon fill="white" stroke="transparent" points="-4,4 -4,-754 1939,-754 1939,4 -4,4"/>
<text text-anchor="start" x="382.5" y="-11.8" font-family="Arial" font-size="34.00">Component View: Browser Memory Daemon &#45; WSL Loopback HTTP Daemon</text>
<g id="clust1" class="cluster">
<title>cluster_4</title>
<polygon fill="none" stroke="#444444" points="8,-64 8,-742 1927,-742 1927,-64 8,-64"/>
<text text-anchor="start" x="826.5" y="-92.8" font-family="Arial" font-size="24.00" fill="#444444">Browser Memory Daemon</text>
<text text-anchor="start" x="890.5" y="-72.8" font-family="Arial" font-size="19.00" fill="#444444">[Software System]</text>
</g>
<g id="clust2" class="cluster">
<title>cluster_14</title>
<polygon fill="none" stroke="#444444" points="33,-164 33,-717 1902,-717 1902,-164 33,-164"/>
<text text-anchor="start" x="802" y="-192.8" font-family="Arial" font-size="24.00" fill="#444444">WSL Loopback HTTP Daemon</text>
<text text-anchor="start" x="765.5" y="-172.8" font-family="Arial" font-size="19.00" fill="#444444">[Container: Python 3.11, ThreadingHTTPServer]</text>
</g>
<!-- 15 -->
<g id="15" class="node">
<title>15</title>
<polygon fill="#85bbf0" stroke="#1168bd" points="453,-593.5 58,-593.5 58,-362.5 453,-362.5 453,-593.5"/>
<text text-anchor="start" x="87" y="-545.3" font-family="Arial" font-size="34.00" fill="#000000">HTTP Request Router</text>
<text text-anchor="start" x="119" y="-523.3" font-family="Arial" font-size="19.00" fill="#000000">[Component: Python http.server]</text>
<text text-anchor="start" x="90" y="-486.3" font-family="Arial" font-size="24.00" fill="#000000">Routes loopback API requests,</text>
<text text-anchor="start" x="112.5" y="-462.3" font-family="Arial" font-size="24.00" fill="#000000">serves UI assets, enforces</text>
<text text-anchor="start" x="91.5" y="-438.3" font-family="Arial" font-size="24.00" fill="#000000">bearer auth for memory/admin</text>
<text text-anchor="start" x="106" y="-414.3" font-family="Arial" font-size="24.00" fill="#000000">APIs, and applies CORS for</text>
<text text-anchor="start" x="172" y="-390.3" font-family="Arial" font-size="24.00" fill="#000000">allowed origins.</text>
</g>
<!-- 17 -->
<g id="17" class="node">
<title>17</title>
<polygon fill="#85bbf0" stroke="#1168bd" points="1134,-495.5 772,-495.5 772,-264.5 1134,-264.5 1134,-495.5"/>
<text text-anchor="start" x="850" y="-447.3" font-family="Arial" font-size="34.00" fill="#000000">Policy Engine</text>
<text text-anchor="start" x="864" y="-425.3" font-family="Arial" font-size="19.00" fill="#000000">[Component: Python]</text>
<text text-anchor="start" x="900" y="-388.3" font-family="Arial" font-size="24.00" fill="#000000">Evaluates</text>
<text text-anchor="start" x="827" y="-364.3" font-family="Arial" font-size="24.00" fill="#000000">all/recall/balanced/strict</text>
<text text-anchor="start" x="801" y="-340.3" font-family="Arial" font-size="24.00" fill="#000000">capture mode decisions and</text>
<text text-anchor="start" x="811" y="-316.3" font-family="Arial" font-size="24.00" fill="#000000">redacts URL/title/body text</text>
<text text-anchor="start" x="861" y="-292.3" font-family="Arial" font-size="24.00" fill="#000000">outside all mode.</text>
</g>
<!-- 15&#45;&gt;17 -->
<g id="62" class="edge">
<title>15&#45;&gt;17</title>
<path fill="none" stroke="#444444" stroke-dasharray="5,2" d="M453.01,-450.31C549.71,-436.68 665.79,-420.33 761.65,-406.82"/>
<polygon fill="#444444" stroke="#444444" points="762.33,-410.26 771.75,-405.4 761.35,-403.33 762.33,-410.26"/>
<text text-anchor="start" x="489" y="-475.8" font-family="Arial" font-size="24.00" fill="#444444">Gets capture decisions</text>
<text text-anchor="start" x="588" y="-449.8" font-family="Arial" font-size="24.00" fill="#444444">from</text>
</g>
<!-- 18 -->
<g id="18" class="node">
<title>18</title>
<polygon fill="#85bbf0" stroke="#1168bd" points="1877,-639.5 1495,-639.5 1495,-432.5 1877,-432.5 1877,-639.5"/>
<text text-anchor="start" x="1595" y="-591.3" font-family="Arial" font-size="34.00" fill="#000000">Policy Store</text>
<text text-anchor="start" x="1556.5" y="-569.3" font-family="Arial" font-size="19.00" fill="#000000">[Component: Python + SQLite]</text>
<text text-anchor="start" x="1564" y="-532.3" font-family="Arial" font-size="24.00" fill="#000000">Persists and evaluates</text>
<text text-anchor="start" x="1545.5" y="-508.3" font-family="Arial" font-size="24.00" fill="#000000">explicit local block&#45;domain</text>
<text text-anchor="start" x="1524" y="-484.3" font-family="Arial" font-size="24.00" fill="#000000">and URL&#45;prefix rules for every</text>
<text text-anchor="start" x="1618" y="-460.3" font-family="Arial" font-size="24.00" fill="#000000">policy mode.</text>
</g>
<!-- 15&#45;&gt;18 -->
<g id="64" class="edge">
<title>15&#45;&gt;18</title>
<path fill="none" stroke="#444444" stroke-dasharray="5,2" d="M453.28,-508.78C465.35,-510.31 477.33,-511.73 489,-513 917.99,-559.61 1027.86,-573.09 1459,-555 1467.41,-554.65 1476,-554.22 1484.66,-553.74"/>
<polygon fill="#444444" stroke="#444444" points="1485.09,-557.22 1494.87,-553.14 1484.68,-550.23 1485.09,-557.22"/>
<text text-anchor="start" x="839" y="-594.8" font-family="Arial" font-size="24.00" fill="#444444">Manages policy rules</text>
<text text-anchor="start" x="911.5" y="-568.8" font-family="Arial" font-size="24.00" fill="#444444">through</text>
</g>
<!-- 17&#45;&gt;18 -->
<g id="71" class="edge">
<title>17&#45;&gt;18</title>
<path fill="none" stroke="#444444" stroke-dasharray="5,2" d="M1134.23,-418.46C1240.62,-441.17 1375.48,-469.95 1485.13,-493.35"/>
<polygon fill="#444444" stroke="#444444" points="1484.48,-496.79 1494.99,-495.45 1485.94,-489.94 1484.48,-496.79"/>
<text text-anchor="start" x="1170" y="-517.8" font-family="Arial" font-size="24.00" fill="#444444">Combines static mode with</text>
<text text-anchor="start" x="1260" y="-491.8" font-family="Arial" font-size="24.00" fill="#444444">rules from</text>
</g>
</g>
</svg>
