<?xml version="1.0" encoding="UTF-8" standalone="no"?>
<!DOCTYPE svg PUBLIC "-//W3C//DTD SVG 1.1//EN"
 "http://www.w3.org/Graphics/SVG/1.1/DTD/svg11.dtd">
<!-- Generated by graphviz version 2.43.0 (0)
 -->
<!-- Title: %3 Pages: 1 -->
<svg width="2063pt" height="735pt"
 viewBox="0.00 0.00 2063.00 735.00" xmlns="http://www.w3.org/2000/svg" xmlns:xlink="http://www.w3.org/1999/xlink">
<g id="graph0" class="graph" transform="scale(1 1) rotate(0) translate(4 731)">
<title>%3</title>
<polygon fill="white" stroke="transparent" points="-4,4 -4,-731 2059,-731 2059,4 -4,4"/>
<text text-anchor="start" x="442.5" y="-11.8" font-family="Arial" font-size="34.00">Component View: Browser Memory Daemon &#45; WSL Loopback HTTP Daemon</text>
<g id="clust1" class="cluster">
<title>cluster_4</title>
<polygon fill="none" stroke="#444444" points="8,-64 8,-719 2047,-719 2047,-64 8,-64"/>
<text text-anchor="start" x="886.5" y="-92.8" font-family="Arial" font-size="24.00" fill="#444444">Browser Memory Daemon</text>
<text text-anchor="start" x="950.5" y="-72.8" font-family="Arial" font-size="19.00" fill="#444444">[Software System]</text>
</g>
<g id="clust2" class="cluster">
<title>cluster_14</title>
<polygon fill="none" stroke="#444444" points="33,-164 33,-675 1257,-675 1257,-164 33,-164"/>
<text text-anchor="start" x="479.5" y="-192.8" font-family="Arial" font-size="24.00" fill="#444444">WSL Loopback HTTP Daemon</text>
<text text-anchor="start" x="443" y="-172.8" font-family="Arial" font-size="19.00" fill="#444444">[Container: Python 3.11, ThreadingHTTPServer]</text>
</g>
<!-- 15 -->
<g id="15" class="node">
<title>15</title>
<polygon fill="#85bbf0" stroke="#1168bd" points="453,-572.5 58,-572.5 58,-341.5 453,-341.5 453,-572.5"/>
<text text-anchor="start" x="87" y="-524.3" font-family="Arial" font-size="34.00" fill="#000000">HTTP Request Router</text>
<text text-anchor="start" x="119" y="-502.3" font-family="Arial" font-size="19.00" fill="#000000">[Component: Python http.server]</text>
<text text-anchor="start" x="90" y="-465.3" font-family="Arial" font-size="24.00" fill="#000000">Routes loopback API requests,</text>
<text text-anchor="start" x="112.5" y="-441.3" font-family="Arial" font-size="24.00" fill="#000000">serves UI assets, enforces</text>
<text text-anchor="start" x="91.5" y="-417.3" font-family="Arial" font-size="24.00" fill="#000000">bearer auth for memory/admin</text>
<text text-anchor="start" x="106" y="-393.3" font-family="Arial" font-size="24.00" fill="#000000">APIs, and applies CORS for</text>
<text text-anchor="start" x="172" y="-369.3" font-family="Arial" font-size="24.00" fill="#000000">allowed origins.</text>
</g>
<!-- 16 -->
<g id="16" class="node">
<title>16</title>
<polygon fill="#85bbf0" stroke="#1168bd" points="1232,-649.5 813,-649.5 813,-264.5 1232,-264.5 1232,-649.5"/>
<text text-anchor="start" x="875" y="-601.3" font-family="Arial" font-size="34.00" fill="#000000">Database Migration</text>
<text text-anchor="start" x="973.5" y="-567.3" font-family="Arial" font-size="34.00" fill="#000000">Kernel</text>
<text text-anchor="start" x="894.5" y="-545.3" font-family="Arial" font-size="19.00" fill="#000000">[Component: Python + sqlite3]</text>
<text text-anchor="start" x="895.5" y="-508.3" font-family="Arial" font-size="24.00" fill="#000000">Validates exact schema</text>
<text text-anchor="start" x="913.5" y="-484.3" font-family="Arial" font-size="24.00" fill="#000000">fingerprints, ordered</text>
<text text-anchor="start" x="842" y="-460.3" font-family="Arial" font-size="24.00" fill="#000000">migration names/checksums, and</text>
<text text-anchor="start" x="853" y="-436.3" font-family="Arial" font-size="24.00" fill="#000000">PRAGMA user_version; applies</text>
<text text-anchor="start" x="918" y="-412.3" font-family="Arial" font-size="24.00" fill="#000000">transactional steps,</text>
<text text-anchor="start" x="887.5" y="-388.3" font-family="Arial" font-size="24.00" fill="#000000">backup&#45;gates destructive</text>
<text text-anchor="start" x="856.5" y="-364.3" font-family="Arial" font-size="24.00" fill="#000000">changes, and expands capture</text>
<text text-anchor="start" x="864" y="-340.3" font-family="Arial" font-size="24.00" fill="#000000">provenance, relative locators,</text>
<text text-anchor="start" x="886.5" y="-316.3" font-family="Arial" font-size="24.00" fill="#000000">and complete SQLite text</text>
<text text-anchor="start" x="875" y="-292.3" font-family="Arial" font-size="24.00" fill="#000000">authority through version 9.</text>
</g>
<!-- 15&#45;&gt;16 -->
<g id="64" class="edge">
<title>15&#45;&gt;16</title>
<path fill="none" stroke="#444444" stroke-dasharray="5,2" d="M453.01,-457C559.9,-457 692.41,-457 802.6,-457"/>
<polygon fill="#444444" stroke="#444444" points="802.86,-460.5 812.86,-457 802.86,-453.5 802.86,-460.5"/>
<polygon fill="white" stroke="transparent" points="489,-457 489,-517 777,-517 777,-457 489,-457"/>
<text text-anchor="start" x="522.5" y="-493.8" font-family="Arial" font-size="24.00" fill="#444444">Requires compatible</text>
<text text-anchor="start" x="493" y="-467.8" font-family="Arial" font-size="24.00" fill="#444444">initialized schema through</text>
</g>
<!-- 29 -->
<g id="29" class="node">
<title>29</title>
<path fill="#2f95c8" stroke="#20688c" d="M2022,-645.72C2022,-672.29 1933.25,-693.88 1824,-693.88 1714.75,-693.88 1626,-672.29 1626,-645.72 1626,-645.72 1626,-212.28 1626,-212.28 1626,-185.71 1714.75,-164.12 1824,-164.12 1933.25,-164.12 2022,-185.71 2022,-212.28 2022,-212.28 2022,-645.72 2022,-645.72"/>
<path fill="none" stroke="#20688c" d="M2022,-645.72C2022,-619.14 1933.25,-597.56 1824,-597.56 1714.75,-597.56 1626,-619.14 1626,-645.72"/>
<text text-anchor="start" x="1711" y="-573.3" font-family="Arial" font-size="34.00" fill="#ffffff">SQLite + FTS5</text>
<text text-anchor="start" x="1751" y="-539.3" font-family="Arial" font-size="34.00" fill="#ffffff">Database</text>
<text text-anchor="start" x="1698" y="-517.3" font-family="Arial" font-size="19.00" fill="#ffffff">[Container: SQLite with FTS5]</text>
<text text-anchor="start" x="1656" y="-480.3" font-family="Arial" font-size="24.00" fill="#ffffff">Durable complete cleaned&#45;text,</text>
<text text-anchor="start" x="1705" y="-456.3" font-family="Arial" font-size="24.00" fill="#ffffff">relational, and full&#45;text</text>
<text text-anchor="start" x="1706.5" y="-432.3" font-family="Arial" font-size="24.00" fill="#ffffff">authority for migration</text>
<text text-anchor="start" x="1672" y="-408.3" font-family="Arial" font-size="24.00" fill="#ffffff">ledger, sources, documents,</text>
<text text-anchor="start" x="1674.5" y="-384.3" font-family="Arial" font-size="24.00" fill="#ffffff">visits, capture observations,</text>
<text text-anchor="start" x="1693" y="-360.3" font-family="Arial" font-size="24.00" fill="#ffffff">URL claims, visit events,</text>
<text text-anchor="start" x="1655.5" y="-336.3" font-family="Arial" font-size="24.00" fill="#ffffff">snapshots, chunks, chunks_fts,</text>
<text text-anchor="start" x="1655" y="-312.3" font-family="Arial" font-size="24.00" fill="#ffffff">media provenance/tasks, policy</text>
<text text-anchor="start" x="1698.5" y="-288.3" font-family="Arial" font-size="24.00" fill="#ffffff">rules, audit events, and</text>
<text text-anchor="start" x="1732" y="-264.3" font-family="Arial" font-size="24.00" fill="#ffffff">deletion receipts.</text>
</g>
<!-- 16&#45;&gt;29 -->
<g id="87" class="edge">
<title>16&#45;&gt;29</title>
<path fill="none" stroke="#444444" stroke-dasharray="5,2" d="M1232.25,-449.69C1350.38,-445.55 1497.59,-440.4 1615.5,-436.27"/>
<polygon fill="#444444" stroke="#444444" points="1615.87,-439.76 1625.74,-435.91 1615.62,-432.76 1615.87,-439.76"/>
<polygon fill="white" stroke="transparent" points="1268,-447 1268,-546 1590,-546 1590,-447 1268,-447"/>
<text text-anchor="start" x="1301" y="-523.3" font-family="Arial" font-size="24.00" fill="#444444">Validates and advances</text>
<text text-anchor="start" x="1292" y="-499.3" font-family="Arial" font-size="24.00" fill="#444444">schema ledger/fingerprint</text>
<text text-anchor="start" x="1419.5" y="-475.3" font-family="Arial" font-size="24.00" fill="#444444">in</text>
<text text-anchor="start" x="1272" y="-455.3" font-family="Arial" font-size="19.00" fill="#444444">[sqlite3 online backup + transactions]</text>
</g>
</g>
</svg>
