<?xml version="1.0" encoding="UTF-8" standalone="no"?>
<!DOCTYPE svg PUBLIC "-//W3C//DTD SVG 1.1//EN"
 "http://www.w3.org/Graphics/SVG/1.1/DTD/svg11.dtd">
<!-- Generated by graphviz version 2.43.0 (0)
 -->
<!-- Title: %3 Pages: 1 -->
<svg width="5272pt" height="2400pt"
 viewBox="0.00 0.00 5272.00 2400.00" xmlns="http://www.w3.org/2000/svg" xmlns:xlink="http://www.w3.org/1999/xlink">
<g id="graph0" class="graph" transform="scale(1 1) rotate(0) translate(4 2396)">
<title>%3</title>
<polygon fill="white" stroke="transparent" points="-4,4 -4,-2396 5268,-2396 5268,4 -4,4"/>
<text text-anchor="start" x="2047" y="-11.8" font-family="Arial" font-size="34.00">Component View: Browser Memory Daemon &#45; WSL Loopback HTTP Daemon</text>
<g id="clust1" class="cluster">
<title>cluster_4</title>
<polygon fill="none" stroke="#444444" points="8,-64 8,-2384 5256,-2384 5256,-64 8,-64"/>
<text text-anchor="start" x="2491" y="-92.8" font-family="Arial" font-size="24.00" fill="#444444">Browser Memory Daemon</text>
<text text-anchor="start" x="2555" y="-72.8" font-family="Arial" font-size="19.00" fill="#444444">[Software System]</text>
</g>
<g id="clust2" class="cluster">
<title>cluster_22</title>
<polygon fill="none" stroke="#444444" points="33,-164 33,-1772 5231,-1772 5231,-164 33,-164"/>
<text text-anchor="start" x="2466.5" y="-192.8" font-family="Arial" font-size="24.00" fill="#444444">WSL Loopback HTTP Daemon</text>
<text text-anchor="start" x="2430" y="-172.8" font-family="Arial" font-size="19.00" fill="#444444">[Container: Python 3.11, ThreadingHTTPServer]</text>
</g>
<!-- 23 -->
<g id="23" class="node">
<title>23</title>
<polygon fill="#85bbf0" stroke="#1168bd" points="552,-1647.5 58,-1647.5 58,-1272.5 552,-1272.5 552,-1647.5"/>
<text text-anchor="start" x="136.5" y="-1599.3" font-family="Arial" font-size="34.00" fill="#000000">HTTP Request Router</text>
<text text-anchor="start" x="87" y="-1577.3" font-family="Arial" font-size="19.00" fill="#000000">[Component: Python http.server + route descriptors]</text>
<text text-anchor="start" x="117.5" y="-1540.3" font-family="Arial" font-size="24.00" fill="#000000">Adapts BaseHTTPRequestHandler</text>
<text text-anchor="start" x="154.5" y="-1516.3" font-family="Arial" font-size="24.00" fill="#000000">requests through immutable</text>
<text text-anchor="start" x="150" y="-1492.3" font-family="Arial" font-size="24.00" fill="#000000">method/path descriptors with</text>
<text text-anchor="start" x="144.5" y="-1468.3" font-family="Arial" font-size="24.00" fill="#000000">static precedence; owns auth,</text>
<text text-anchor="start" x="199.5" y="-1444.3" font-family="Arial" font-size="24.00" fill="#000000">parsing, compatible</text>
<text text-anchor="start" x="180.5" y="-1420.3" font-family="Arial" font-size="24.00" fill="#000000">status/error responses,</text>
<text text-anchor="start" x="144.5" y="-1396.3" font-family="Arial" font-size="24.00" fill="#000000">request IDs, common security</text>
<text text-anchor="start" x="177" y="-1372.3" font-family="Arial" font-size="24.00" fill="#000000">headers, redaction&#45;safe</text>
<text text-anchor="start" x="148.5" y="-1348.3" font-family="Arial" font-size="24.00" fill="#000000">telemetry, bounded response</text>
<text text-anchor="start" x="138" y="-1324.3" font-family="Arial" font-size="24.00" fill="#000000">streaming, disconnect cleanup,</text>
<text text-anchor="start" x="157.5" y="-1300.3" font-family="Arial" font-size="24.00" fill="#000000">CORS, and finite UI assets.</text>
</g>
<!-- 24 -->
<g id="24" class="node">
<title>24</title>
<polygon fill="#85bbf0" stroke="#1168bd" points="1302,-1338.5 901,-1338.5 901,-987.5 1302,-987.5 1302,-1338.5"/>
<text text-anchor="start" x="930" y="-1290.3" font-family="Arial" font-size="34.00" fill="#000000">Application Use Cases</text>
<text text-anchor="start" x="1012.5" y="-1268.3" font-family="Arial" font-size="19.00" fill="#000000">[Component: Python]</text>
<text text-anchor="start" x="939.5" y="-1231.3" font-family="Arial" font-size="24.00" fill="#000000">Provides request&#45;independent</text>
<text text-anchor="start" x="976.5" y="-1207.3" font-family="Arial" font-size="24.00" fill="#000000">capture, lifecycle, read,</text>
<text text-anchor="start" x="966.5" y="-1183.3" font-family="Arial" font-size="24.00" fill="#000000">forget, policy, doctor, and</text>
<text text-anchor="start" x="975.5" y="-1159.3" font-family="Arial" font-size="24.00" fill="#000000">media use cases; owns</text>
<text text-anchor="start" x="972.5" y="-1135.3" font-family="Arial" font-size="24.00" fill="#000000">database&#45;ready checks,</text>
<text text-anchor="start" x="945.5" y="-1111.3" font-family="Arial" font-size="24.00" fill="#000000">transaction/audit boundaries,</text>
<text text-anchor="start" x="949" y="-1087.3" font-family="Arial" font-size="24.00" fill="#000000">asynchronous media kickoff,</text>
<text text-anchor="start" x="935.5" y="-1063.3" font-family="Arial" font-size="24.00" fill="#000000">and upload/download resource</text>
<text text-anchor="start" x="936.5" y="-1039.3" font-family="Arial" font-size="24.00" fill="#000000">leases without importing HTTP</text>
<text text-anchor="start" x="957.5" y="-1015.3" font-family="Arial" font-size="24.00" fill="#000000">request or response types.</text>
</g>
<!-- 23&#45;&gt;24 -->
<g id="114" class="edge">
<title>23&#45;&gt;24</title>
<path fill="none" stroke="#444444" stroke-dasharray="5,2" d="M552.22,-1367.96C660.81,-1327.37 787.1,-1280.16 891.08,-1241.29"/>
<polygon fill="#444444" stroke="#444444" points="892.61,-1244.45 900.75,-1237.67 890.16,-1237.89 892.61,-1244.45"/>
<polygon fill="white" stroke="transparent" points="588,-1346 588,-1432 865,-1432 865,-1346 588,-1346"/>
<text text-anchor="start" x="645" y="-1408.8" font-family="Arial" font-size="24.00" fill="#444444">Invokes explicit</text>
<text text-anchor="start" x="592.5" y="-1382.8" font-family="Arial" font-size="24.00" fill="#444444">request&#45;independent use</text>
<text text-anchor="start" x="650.5" y="-1356.8" font-family="Arial" font-size="24.00" fill="#444444">cases through</text>
</g>
<!-- 38 -->
<g id="38" class="node">
<title>38</title>
<polygon fill="#85bbf0" stroke="#1168bd" points="5206,-648.5 4800,-648.5 4800,-335.5 5206,-335.5 5206,-648.5"/>
<text text-anchor="start" x="4890" y="-600.3" font-family="Arial" font-size="34.00" fill="#000000">Media Process</text>
<text text-anchor="start" x="4871.5" y="-566.3" font-family="Arial" font-size="34.00" fill="#000000">Resource Budget</text>
<text text-anchor="start" x="4829" y="-544.3" font-family="Arial" font-size="19.00" fill="#000000">[Component: Python threading.Condition]</text>
<text text-anchor="start" x="4840.5" y="-507.3" font-family="Arial" font-size="24.00" fill="#000000">Bounds active media requests</text>
<text text-anchor="start" x="4869" y="-483.3" font-family="Arial" font-size="24.00" fill="#000000">and in&#45;flight bytes across</text>
<text text-anchor="start" x="4843" y="-459.3" font-family="Arial" font-size="24.00" fill="#000000">threads within one daemon or</text>
<text text-anchor="start" x="4869" y="-435.3" font-family="Arial" font-size="24.00" fill="#000000">worker process; exposes</text>
<text text-anchor="start" x="4874.5" y="-411.3" font-family="Arial" font-size="24.00" fill="#000000">aggregate counters and</text>
<text text-anchor="start" x="4851" y="-387.3" font-family="Arial" font-size="24.00" fill="#000000">releases leases on failure or</text>
<text text-anchor="start" x="4935.5" y="-363.3" font-family="Arial" font-size="24.00" fill="#000000">cancellation.</text>
</g>
<!-- 23&#45;&gt;38 -->
<g id="115" class="edge">
<title>23&#45;&gt;38</title>
<path fill="none" stroke="#444444" stroke-dasharray="5,2" d="M552.23,-1568.51C706.6,-1626.88 911.5,-1687 1100.5,-1687 1100.5,-1687 1100.5,-1687 2285.5,-1687 2362.37,-1687 3597.33,-1736.8 3669,-1709 4219.59,-1495.46 4681.92,-936.81 4887.56,-656.87"/>
<polygon fill="#444444" stroke="#444444" points="4890.48,-658.8 4893.57,-648.67 4884.84,-654.66 4890.48,-658.8"/>
<polygon fill="white" stroke="transparent" points="2506,-1705 2506,-1765 2837,-1765 2837,-1705 2506,-1705"/>
<text text-anchor="start" x="2510.5" y="-1741.8" font-family="Arial" font-size="24.00" fill="#444444">Leases bounded JSON media</text>
<text text-anchor="start" x="2529" y="-1715.8" font-family="Arial" font-size="24.00" fill="#444444">request admission through</text>
</g>
<!-- 30 -->
<g id="30" class="node">
<title>30</title>
<polygon fill="#85bbf0" stroke="#1168bd" points="2107,-1331.5 1686,-1331.5 1686,-994.5 2107,-994.5 2107,-1331.5"/>
<text text-anchor="start" x="1793" y="-1283.3" font-family="Arial" font-size="34.00" fill="#000000">Media Artifact</text>
<text text-anchor="start" x="1829.5" y="-1249.3" font-family="Arial" font-size="34.00" fill="#000000">Manager</text>
<text text-anchor="start" x="1715" y="-1227.3" font-family="Arial" font-size="19.00" fill="#000000">[Component: Python + sqlite3 + filesystem]</text>
<text text-anchor="start" x="1759.5" y="-1190.3" font-family="Arial" font-size="24.00" fill="#000000">Provides the compatibility</text>
<text text-anchor="start" x="1729.5" y="-1166.3" font-family="Arial" font-size="24.00" fill="#000000">API, records media references,</text>
<text text-anchor="start" x="1727" y="-1142.3" font-family="Arial" font-size="24.00" fill="#000000">streams bounded blob uploads,</text>
<text text-anchor="start" x="1761" y="-1118.3" font-family="Arial" font-size="24.00" fill="#000000">delegates guarded public</text>
<text text-anchor="start" x="1742.5" y="-1094.3" font-family="Arial" font-size="24.00" fill="#000000">transport, and drains verified</text>
<text text-anchor="start" x="1745" y="-1070.3" font-family="Arial" font-size="24.00" fill="#000000">spool bytes without coupling</text>
<text text-anchor="start" x="1791" y="-1046.3" font-family="Arial" font-size="24.00" fill="#000000">text ingest to media</text>
<text text-anchor="start" x="1838" y="-1022.3" font-family="Arial" font-size="24.00" fill="#000000">availability.</text>
</g>
<!-- 24&#45;&gt;30 -->
<g id="121" class="edge">
<title>24&#45;&gt;30</title>
<path fill="none" stroke="#444444" stroke-dasharray="5,2" d="M1302.1,-1163C1415.89,-1163 1558.68,-1163 1675.68,-1163"/>
<polygon fill="#444444" stroke="#444444" points="1675.84,-1166.5 1685.84,-1163 1675.84,-1159.5 1675.84,-1166.5"/>
<polygon fill="white" stroke="transparent" points="1338,-1163 1338,-1223 1650,-1223 1650,-1163 1338,-1163"/>
<text text-anchor="start" x="1342" y="-1199.8" font-family="Arial" font-size="24.00" fill="#444444">Coordinates media requests</text>
<text text-anchor="start" x="1452.5" y="-1173.8" font-family="Arial" font-size="24.00" fill="#444444">through</text>
</g>
<!-- 24&#45;&gt;38 -->
<g id="122" class="edge">
<title>24&#45;&gt;38</title>
<path fill="none" stroke="#444444" stroke-dasharray="5,2" d="M1300.3,-987.39C1550.28,-778.38 2003.49,-441.06 2462,-309 2609.56,-266.5 2589.27,-243.71 4443,-347 4585.99,-354.97 4626.05,-336.53 4764,-375 4772.71,-377.43 4781.49,-380.18 4790.27,-383.17"/>
<polygon fill="#444444" stroke="#444444" points="4789.2,-386.51 4799.79,-386.52 4791.52,-379.9 4789.2,-386.51"/>
<polygon fill="white" stroke="transparent" points="2933.5,-285 2933.5,-371 3194.5,-371 3194.5,-285 2933.5,-285"/>
<text text-anchor="start" x="2938" y="-347.8" font-family="Arial" font-size="24.00" fill="#444444">Leases bounded media</text>
<text text-anchor="start" x="2951" y="-321.8" font-family="Arial" font-size="24.00" fill="#444444">upload and response</text>
<text text-anchor="start" x="2975.5" y="-295.8" font-family="Arial" font-size="24.00" fill="#444444">capacity through</text>
</g>
<!-- 32 -->
<g id="32" class="node">
<title>32</title>
<polygon fill="#85bbf0" stroke="#1168bd" points="3659.5,-1672.5 3256.5,-1672.5 3256.5,-1393.5 3659.5,-1393.5 3659.5,-1672.5"/>
<text text-anchor="start" x="3285.5" y="-1624.3" font-family="Arial" font-size="34.00" fill="#000000">Media Task Repository</text>
<text text-anchor="start" x="3330" y="-1602.3" font-family="Arial" font-size="19.00" fill="#000000">[Component: Python + sqlite3]</text>
<text text-anchor="start" x="3309" y="-1565.3" font-family="Arial" font-size="24.00" fill="#000000">Creates deterministic tasks,</text>
<text text-anchor="start" x="3325" y="-1541.3" font-family="Arial" font-size="24.00" fill="#000000">preserves terminal state,</text>
<text text-anchor="start" x="3310" y="-1517.3" font-family="Arial" font-size="24.00" fill="#000000">atomically leases due work,</text>
<text text-anchor="start" x="3317" y="-1493.3" font-family="Arial" font-size="24.00" fill="#000000">recovers stale leases, and</text>
<text text-anchor="start" x="3299" y="-1469.3" font-family="Arial" font-size="24.00" fill="#000000">applies bounded retry/backoff</text>
<text text-anchor="start" x="3298.5" y="-1445.3" font-family="Arial" font-size="24.00" fill="#000000">outcomes independently from</text>
<text text-anchor="start" x="3370" y="-1421.3" font-family="Arial" font-size="24.00" fill="#000000">media transport.</text>
</g>
<!-- 30&#45;&gt;32 -->
<g id="131" class="edge">
<title>30&#45;&gt;32</title>
<path fill="none" stroke="#444444" stroke-dasharray="5,2" d="M2107.01,-1252.97C2119.15,-1257.81 2131.21,-1262.51 2143,-1267 2476.25,-1393.8 2565.12,-1420.47 2917,-1478 3024.89,-1495.64 3145.9,-1508.59 3245.97,-1517.47"/>
<polygon fill="#444444" stroke="#444444" points="3245.94,-1520.98 3256.21,-1518.37 3246.56,-1514.01 3245.94,-1520.98"/>
<polygon fill="white" stroke="transparent" points="2520,-1470 2520,-1530 2823,-1530 2823,-1470 2520,-1470"/>
<text text-anchor="start" x="2524.5" y="-1506.8" font-family="Arial" font-size="24.00" fill="#444444">Creates and claims durable</text>
<text text-anchor="start" x="2565" y="-1480.8" font-family="Arial" font-size="24.00" fill="#444444">media work through</text>
</g>
<!-- 33 -->
<g id="33" class="node">
<title>33</title>
<polygon fill="#85bbf0" stroke="#1168bd" points="2881,-1338.5 2462,-1338.5 2462,-987.5 2881,-987.5 2881,-1338.5"/>
<text text-anchor="start" x="2522.5" y="-1290.3" font-family="Arial" font-size="34.00" fill="#000000">Media Artifact Store</text>
<text text-anchor="start" x="2491" y="-1268.3" font-family="Arial" font-size="19.00" fill="#000000">[Component: Python + sqlite3 + BlobStore]</text>
<text text-anchor="start" x="2568.5" y="-1231.3" font-family="Arial" font-size="24.00" fill="#000000">Owns artifact rows,</text>
<text text-anchor="start" x="2524" y="-1207.3" font-family="Arial" font-size="24.00" fill="#000000">transactional cross&#45;process</text>
<text text-anchor="start" x="2526.5" y="-1183.3" font-family="Arial" font-size="24.00" fill="#000000">cache reservations, unique</text>
<text text-anchor="start" x="2556" y="-1159.3" font-family="Arial" font-size="24.00" fill="#000000">streamed publication,</text>
<text text-anchor="start" x="2530.5" y="-1135.3" font-family="Arial" font-size="24.00" fill="#000000">failed&#45;write compensation,</text>
<text text-anchor="start" x="2546" y="-1111.3" font-family="Arial" font-size="24.00" fill="#000000">contained reads, cache</text>
<text text-anchor="start" x="2554" y="-1087.3" font-family="Arial" font-size="24.00" fill="#000000">admission, oldest&#45;first</text>
<text text-anchor="start" x="2525" y="-1063.3" font-family="Arial" font-size="24.00" fill="#000000">eviction, purge/rehydration,</text>
<text text-anchor="start" x="2605" y="-1039.3" font-family="Arial" font-size="24.00" fill="#000000">and lifecycle</text>
<text text-anchor="start" x="2542" y="-1015.3" font-family="Arial" font-size="24.00" fill="#000000">registration/tombstones.</text>
</g>
<!-- 30&#45;&gt;33 -->
<g id="132" class="edge">
<title>30&#45;&gt;33</title>
<path fill="none" stroke="#444444" stroke-dasharray="5,2" d="M2107.19,-1163C2213.96,-1163 2343.67,-1163 2451.7,-1163"/>
<polygon fill="#444444" stroke="#444444" points="2451.75,-1166.5 2461.75,-1163 2451.75,-1159.5 2451.75,-1166.5"/>
<polygon fill="white" stroke="transparent" points="2155.5,-1163 2155.5,-1249 2413.5,-1249 2413.5,-1163 2155.5,-1163"/>
<text text-anchor="start" x="2177" y="-1225.8" font-family="Arial" font-size="24.00" fill="#444444">Publishes, resolves,</text>
<text text-anchor="start" x="2159.5" y="-1199.8" font-family="Arial" font-size="24.00" fill="#444444">purges, and rehydrates</text>
<text text-anchor="start" x="2197" y="-1173.8" font-family="Arial" font-size="24.00" fill="#444444">artifacts through</text>
</g>
<!-- 34 -->
<g id="34" class="node">
<title>34</title>
<polygon fill="#85bbf0" stroke="#1168bd" points="2866.5,-658.5 2476.5,-658.5 2476.5,-345.5 2866.5,-345.5 2866.5,-658.5"/>
<text text-anchor="start" x="2548.5" y="-610.3" font-family="Arial" font-size="34.00" fill="#000000">Media Transport</text>
<text text-anchor="start" x="2582.5" y="-576.3" font-family="Arial" font-size="34.00" fill="#000000">Coordinator</text>
<text text-anchor="start" x="2582.5" y="-554.3" font-family="Arial" font-size="19.00" fill="#000000">[Component: Python]</text>
<text text-anchor="start" x="2521" y="-517.3" font-family="Arial" font-size="24.00" fill="#000000">Classifies direct versus HLS</text>
<text text-anchor="start" x="2550" y="-493.3" font-family="Arial" font-size="24.00" fill="#000000">responses, applies the</text>
<text text-anchor="start" x="2505.5" y="-469.3" font-family="Arial" font-size="24.00" fill="#000000">aggregate HLS request budget</text>
<text text-anchor="start" x="2524" y="-445.3" font-family="Arial" font-size="24.00" fill="#000000">from the first network open,</text>
<text text-anchor="start" x="2519.5" y="-421.3" font-family="Arial" font-size="24.00" fill="#000000">enforces playlist sniffing and</text>
<text text-anchor="start" x="2526.5" y="-397.3" font-family="Arial" font-size="24.00" fill="#000000">byte caps, and coordinates</text>
<text text-anchor="start" x="2513" y="-373.3" font-family="Arial" font-size="24.00" fill="#000000">bounded streamed assembly.</text>
</g>
<!-- 30&#45;&gt;34 -->
<g id="133" class="edge">
<title>30&#45;&gt;34</title>
<path fill="none" stroke="#444444" stroke-dasharray="5,2" d="M1960.04,-994.29C2000.59,-904.2 2061.23,-797.12 2143,-724 2234.58,-642.11 2360.74,-587.53 2466.73,-552.99"/>
<polygon fill="#444444" stroke="#444444" points="2467.82,-556.32 2476.27,-549.92 2465.67,-549.66 2467.82,-556.32"/>
<polygon fill="white" stroke="transparent" points="2143,-724 2143,-784 2426,-784 2426,-724 2143,-724"/>
<text text-anchor="start" x="2147.5" y="-760.8" font-family="Arial" font-size="24.00" fill="#444444">Delegates daemon&#45;public</text>
<text text-anchor="start" x="2164.5" y="-734.8" font-family="Arial" font-size="24.00" fill="#444444">media orchestration to</text>
</g>
<!-- 39 -->
<g id="39" class="node">
<title>39</title>
<polygon fill="#85bbf0" stroke="#1168bd" points="3663.5,-1321.5 3252.5,-1321.5 3252.5,-1018.5 3663.5,-1018.5 3663.5,-1321.5"/>
<text text-anchor="start" x="3301.5" y="-1273.3" font-family="Arial" font-size="34.00" fill="#000000">Contained BlobStore</text>
<text text-anchor="start" x="3281.5" y="-1251.3" font-family="Arial" font-size="19.00" fill="#000000">[Component: Python filesystem boundary]</text>
<text text-anchor="start" x="3305.5" y="-1214.3" font-family="Arial" font-size="24.00" fill="#000000">Prefers root&#45;relative locators</text>
<text text-anchor="start" x="3342" y="-1190.3" font-family="Arial" font-size="24.00" fill="#000000">with contained legacy</text>
<text text-anchor="start" x="3327" y="-1166.3" font-family="Arial" font-size="24.00" fill="#000000">fallback; streams unique</text>
<text text-anchor="start" x="3343" y="-1142.3" font-family="Arial" font-size="24.00" fill="#000000">stages with size/hash</text>
<text text-anchor="start" x="3339" y="-1118.3" font-family="Arial" font-size="24.00" fill="#000000">accounting; atomically</text>
<text text-anchor="start" x="3311" y="-1094.3" font-family="Arial" font-size="24.00" fill="#000000">commits; and contains blob</text>
<text text-anchor="start" x="3343.5" y="-1070.3" font-family="Arial" font-size="24.00" fill="#000000">read, stat, and delete</text>
<text text-anchor="start" x="3397.5" y="-1046.3" font-family="Arial" font-size="24.00" fill="#000000">operations.</text>
</g>
<!-- 30&#45;&gt;39 -->
<g id="151" class="edge">
<title>30&#45;&gt;39</title>
<path fill="none" stroke="#444444" stroke-dasharray="5,2" d="M2107.07,-1008.2C2208.75,-942.53 2335.96,-873.51 2462,-840 2641.97,-792.15 2701.04,-792.1 2881,-840 3010.31,-874.42 3140.81,-945.5 3244.82,-1012.9"/>
<polygon fill="#444444" stroke="#444444" points="3242.92,-1015.84 3253.21,-1018.37 3246.74,-1009.98 3242.92,-1015.84"/>
<polygon fill="white" stroke="transparent" points="2537,-840 2537,-952 2806,-952 2806,-840 2537,-840"/>
<text text-anchor="start" x="2550.5" y="-928.8" font-family="Arial" font-size="24.00" fill="#444444">Checks current artifact</text>
<text text-anchor="start" x="2555" y="-902.8" font-family="Arial" font-size="24.00" fill="#444444">presence during fetch</text>
<text text-anchor="start" x="2541.5" y="-876.8" font-family="Arial" font-size="24.00" fill="#444444">orchestration and drains</text>
<text text-anchor="start" x="2566" y="-850.8" font-family="Arial" font-size="24.00" fill="#444444">spool bytes through</text>
</g>
<!-- 48 -->
<g id="48" class="node">
<title>48</title>
<path fill="#2f95c8" stroke="#20688c" d="M4435.5,-2308.22C4435.5,-2336.44 4346.98,-2359.38 4238,-2359.38 4129.02,-2359.38 4040.5,-2336.44 4040.5,-2308.22 4040.5,-2308.22 4040.5,-1847.78 4040.5,-1847.78 4040.5,-1819.56 4129.02,-1796.62 4238,-1796.62 4346.98,-1796.62 4435.5,-1819.56 4435.5,-1847.78 4435.5,-1847.78 4435.5,-2308.22 4435.5,-2308.22"/>
<path fill="none" stroke="#20688c" d="M4435.5,-2308.22C4435.5,-2279.99 4346.98,-2257.06 4238,-2257.06 4129.02,-2257.06 4040.5,-2279.99 4040.5,-2308.22"/>
<text text-anchor="start" x="4125" y="-2234.3" font-family="Arial" font-size="34.00" fill="#ffffff">SQLite + FTS5</text>
<text text-anchor="start" x="4165" y="-2200.3" font-family="Arial" font-size="34.00" fill="#ffffff">Database</text>
<text text-anchor="start" x="4112" y="-2178.3" font-family="Arial" font-size="19.00" fill="#ffffff">[Container: SQLite with FTS5]</text>
<text text-anchor="start" x="4070" y="-2141.3" font-family="Arial" font-size="24.00" fill="#ffffff">Durable complete cleaned&#45;text,</text>
<text text-anchor="start" x="4119" y="-2117.3" font-family="Arial" font-size="24.00" fill="#ffffff">relational, and full&#45;text</text>
<text text-anchor="start" x="4120.5" y="-2093.3" font-family="Arial" font-size="24.00" fill="#ffffff">authority for migration</text>
<text text-anchor="start" x="4086" y="-2069.3" font-family="Arial" font-size="24.00" fill="#ffffff">ledger, sources, documents,</text>
<text text-anchor="start" x="4088.5" y="-2045.3" font-family="Arial" font-size="24.00" fill="#ffffff">visits, capture observations,</text>
<text text-anchor="start" x="4107" y="-2021.3" font-family="Arial" font-size="24.00" fill="#ffffff">URL claims, visit events,</text>
<text text-anchor="start" x="4069.5" y="-1997.3" font-family="Arial" font-size="24.00" fill="#ffffff">snapshots, chunks, chunks_fts,</text>
<text text-anchor="start" x="4077" y="-1973.3" font-family="Arial" font-size="24.00" fill="#ffffff">media provenance/tasks, blob</text>
<text text-anchor="start" x="4113.5" y="-1949.3" font-family="Arial" font-size="24.00" fill="#ffffff">lifecycle records, policy</text>
<text text-anchor="start" x="4112.5" y="-1925.3" font-family="Arial" font-size="24.00" fill="#ffffff">rules, audit events, and</text>
<text text-anchor="start" x="4146" y="-1901.3" font-family="Arial" font-size="24.00" fill="#ffffff">deletion receipts.</text>
</g>
<!-- 30&#45;&gt;48 -->
<g id="134" class="edge">
<title>30&#45;&gt;48</title>
<path fill="none" stroke="#444444" stroke-dasharray="5,2" d="M2016.75,-1331.67C2120.28,-1466.63 2281.63,-1651.47 2462,-1765 2958.57,-2077.55 3679.99,-2100.16 4030.46,-2089.89"/>
<polygon fill="#444444" stroke="#444444" points="4030.58,-2093.39 4040.47,-2089.59 4030.36,-2086.39 4030.58,-2093.39"/>
<polygon fill="white" stroke="transparent" points="2938.5,-2031 2938.5,-2106 3189.5,-2106 3189.5,-2031 2938.5,-2031"/>
<text text-anchor="start" x="2943" y="-2083.3" font-family="Arial" font-size="24.00" fill="#444444">Updates media artifact</text>
<text text-anchor="start" x="3026" y="-2059.3" font-family="Arial" font-size="24.00" fill="#444444">rows in</text>
<text text-anchor="start" x="3031" y="-2039.3" font-family="Arial" font-size="19.00" fill="#444444">[sqlite3]</text>
</g>
<!-- 32&#45;&gt;48 -->
<g id="136" class="edge">
<title>32&#45;&gt;48</title>
<path fill="none" stroke="#444444" stroke-dasharray="5,2" d="M3659.64,-1608.23C3765.94,-1653.61 3895.19,-1717.97 3997,-1797 4009.06,-1806.36 4020.94,-1816.4 4032.59,-1826.93"/>
<polygon fill="#444444" stroke="#444444" points="4030.47,-1829.73 4040.21,-1833.91 4035.2,-1824.57 4030.47,-1829.73"/>
<polygon fill="white" stroke="transparent" points="3714.5,-1797 3714.5,-1872 3987.5,-1872 3987.5,-1797 3714.5,-1797"/>
<text text-anchor="start" x="3740" y="-1849.3" font-family="Arial" font-size="24.00" fill="#444444">Creates, leases, and</text>
<text text-anchor="start" x="3719" y="-1825.3" font-family="Arial" font-size="24.00" fill="#444444">advances media tasks in</text>
<text text-anchor="start" x="3818" y="-1805.3" font-family="Arial" font-size="19.00" fill="#444444">[sqlite3]</text>
</g>
<!-- 33&#45;&gt;32 -->
<g id="138" class="edge">
<title>33&#45;&gt;32</title>
<path fill="none" stroke="#444444" stroke-dasharray="5,2" d="M2881.23,-1269.24C2893.22,-1274.15 2905.2,-1278.78 2917,-1283 3043.38,-1328.19 3089.14,-1295.75 3211,-1352 3233.1,-1362.2 3255.18,-1374.56 3276.55,-1387.98"/>
<polygon fill="#444444" stroke="#444444" points="3274.7,-1390.96 3285.02,-1393.38 3278.47,-1385.06 3274.7,-1390.96"/>
<polygon fill="white" stroke="transparent" points="2937,-1352 2937,-1464 3191,-1464 3191,-1352 2937,-1352"/>
<text text-anchor="start" x="2948.5" y="-1440.8" font-family="Arial" font-size="24.00" fill="#444444">Marks stored/skipped</text>
<text text-anchor="start" x="2941" y="-1414.8" font-family="Arial" font-size="24.00" fill="#444444">outcomes and ensures</text>
<text text-anchor="start" x="2958" y="-1388.8" font-family="Arial" font-size="24.00" fill="#444444">retryable fetch work</text>
<text text-anchor="start" x="3022.5" y="-1362.8" font-family="Arial" font-size="24.00" fill="#444444">through</text>
</g>
<!-- 33&#45;&gt;39 -->
<g id="140" class="edge">
<title>33&#45;&gt;39</title>
<path fill="none" stroke="#444444" stroke-dasharray="5,2" d="M2881.24,-1157.54C2893.34,-1157.32 2905.32,-1157.14 2917,-1157 3047.66,-1155.4 3080.38,-1153.55 3211,-1157 3221.21,-1157.27 3231.65,-1157.6 3242.19,-1157.98"/>
<polygon fill="#444444" stroke="#444444" points="3242.2,-1161.49 3252.33,-1158.36 3242.47,-1154.49 3242.2,-1161.49"/>
<polygon fill="white" stroke="transparent" points="2917,-1157 2917,-1269 3211,-1269 3211,-1157 2917,-1157"/>
<text text-anchor="start" x="2921" y="-1245.8" font-family="Arial" font-size="24.00" fill="#444444">Stages unique candidates,</text>
<text text-anchor="start" x="2925.5" y="-1219.8" font-family="Arial" font-size="24.00" fill="#444444">resolves contained reads,</text>
<text text-anchor="start" x="2969" y="-1193.8" font-family="Arial" font-size="24.00" fill="#444444">and deletes failed</text>
<text text-anchor="start" x="2960.5" y="-1167.8" font-family="Arial" font-size="24.00" fill="#444444">candidates through</text>
</g>
<!-- 33&#45;&gt;48 -->
<g id="139" class="edge">
<title>33&#45;&gt;48</title>
<path fill="none" stroke="#444444" stroke-dasharray="5,2" d="M2864.69,-1338.66C2870.49,-1346.64 2875.95,-1354.77 2881,-1363 2909.88,-1410.11 2884.4,-1437.38 2917,-1482 3149.19,-1799.78 3336.32,-1748.25 3705,-1886 3812.26,-1926.08 3932.19,-1969.48 4031,-2004.87"/>
<polygon fill="#444444" stroke="#444444" points="4029.9,-2008.19 4040.49,-2008.27 4032.25,-2001.6 4029.9,-2008.19"/>
<polygon fill="white" stroke="transparent" points="3319.5,-1872 3319.5,-1995 3596.5,-1995 3596.5,-1872 3319.5,-1872"/>
<text text-anchor="start" x="3324" y="-1972.3" font-family="Arial" font-size="24.00" fill="#444444">Reserves cache capacity</text>
<text text-anchor="start" x="3346.5" y="-1948.3" font-family="Arial" font-size="24.00" fill="#444444">and advances media</text>
<text text-anchor="start" x="3393" y="-1924.3" font-family="Arial" font-size="24.00" fill="#444444">artifact rows</text>
<text text-anchor="start" x="3368" y="-1900.3" font-family="Arial" font-size="24.00" fill="#444444">transactionally in</text>
<text text-anchor="start" x="3425" y="-1880.3" font-family="Arial" font-size="19.00" fill="#444444">[sqlite3]</text>
</g>
<!-- 35 -->
<g id="35" class="node">
<title>35</title>
<polygon fill="#85bbf0" stroke="#1168bd" points="4443,-703.5 4033,-703.5 4033,-424.5 4443,-424.5 4443,-703.5"/>
<text text-anchor="start" x="4073.5" y="-655.3" font-family="Arial" font-size="34.00" fill="#000000">Guarded Media Fetch</text>
<text text-anchor="start" x="4062" y="-633.3" font-family="Arial" font-size="19.00" fill="#000000">[Component: Python stdlib urllib + socket]</text>
<text text-anchor="start" x="4091" y="-596.3" font-family="Arial" font-size="24.00" fill="#000000">Owns streamed HTTP/data</text>
<text text-anchor="start" x="4104" y="-572.3" font-family="Arial" font-size="24.00" fill="#000000">transport, public&#45;address</text>
<text text-anchor="start" x="4139.5" y="-548.3" font-family="Arial" font-size="24.00" fill="#000000">validation, redirect</text>
<text text-anchor="start" x="4111.5" y="-524.3" font-family="Arial" font-size="24.00" fill="#000000">revalidation, no&#45;referrer</text>
<text text-anchor="start" x="4107.5" y="-500.3" font-family="Arial" font-size="24.00" fill="#000000">requests, response&#45;byte</text>
<text text-anchor="start" x="4091" y="-476.3" font-family="Arial" font-size="24.00" fill="#000000">limits, process request/byte</text>
<text text-anchor="start" x="4077" y="-452.3" font-family="Arial" font-size="24.00" fill="#000000">leases, and shared deadlines.</text>
</g>
<!-- 34&#45;&gt;35 -->
<g id="142" class="edge">
<title>34&#45;&gt;35</title>
<path fill="none" stroke="#444444" stroke-dasharray="5,2" d="M2866.51,-623.29C2883.34,-632.14 2900.31,-640.51 2917,-648 3057.3,-710.96 3095.01,-728.62 3247,-752 3578.52,-803 3679.66,-776.63 3997,-668 4005.68,-665.03 4014.48,-661.88 4023.33,-658.6"/>
<polygon fill="#444444" stroke="#444444" points="4024.82,-661.78 4032.95,-654.99 4022.36,-655.23 4024.82,-661.78"/>
<polygon fill="white" stroke="transparent" points="3314,-777 3314,-863 3602,-863 3602,-777 3314,-777"/>
<text text-anchor="start" x="3361.5" y="-839.8" font-family="Arial" font-size="24.00" fill="#444444">Streams the initial</text>
<text text-anchor="start" x="3318" y="-813.8" font-family="Arial" font-size="24.00" fill="#444444">response and every direct</text>
<text text-anchor="start" x="3376.5" y="-787.8" font-family="Arial" font-size="24.00" fill="#444444">artifact through</text>
</g>
<!-- 36 -->
<g id="36" class="node">
<title>36</title>
<polygon fill="#85bbf0" stroke="#1168bd" points="3669,-715.5 3247,-715.5 3247,-412.5 3669,-412.5 3669,-715.5"/>
<text text-anchor="start" x="3276" y="-667.3" font-family="Arial" font-size="34.00" fill="#000000">Bounded HLS Transport</text>
<text text-anchor="start" x="3369" y="-645.3" font-family="Arial" font-size="19.00" fill="#000000">[Component: Python]</text>
<text text-anchor="start" x="3320" y="-608.3" font-family="Arial" font-size="24.00" fill="#000000">Parses bounded playlists,</text>
<text text-anchor="start" x="3303" y="-584.3" font-family="Arial" font-size="24.00" fill="#000000">selects variants, expands init</text>
<text text-anchor="start" x="3307.5" y="-560.3" font-family="Arial" font-size="24.00" fill="#000000">maps/segments through the</text>
<text text-anchor="start" x="3303" y="-536.3" font-family="Arial" font-size="24.00" fill="#000000">guarded fetch boundary, and</text>
<text text-anchor="start" x="3326" y="-512.3" font-family="Arial" font-size="24.00" fill="#000000">streams assembly within</text>
<text text-anchor="start" x="3403" y="-488.3" font-family="Arial" font-size="24.00" fill="#000000">aggregate</text>
<text text-anchor="start" x="3308" y="-464.3" font-family="Arial" font-size="24.00" fill="#000000">byte/depth/request/deadline</text>
<text text-anchor="start" x="3427" y="-440.3" font-family="Arial" font-size="24.00" fill="#000000">limits.</text>
</g>
<!-- 34&#45;&gt;36 -->
<g id="143" class="edge">
<title>34&#45;&gt;36</title>
<path fill="none" stroke="#444444" stroke-dasharray="5,2" d="M2866.67,-517.35C2978.88,-526.21 3120.41,-537.4 3236.76,-546.59"/>
<polygon fill="#444444" stroke="#444444" points="3236.63,-550.09 3246.87,-547.39 3237.18,-543.12 3236.63,-550.09"/>
<polygon fill="white" stroke="transparent" points="2928.5,-544 2928.5,-630 3199.5,-630 3199.5,-544 2928.5,-544"/>
<text text-anchor="start" x="2960" y="-606.8" font-family="Arial" font-size="24.00" fill="#444444">Delegates detected</text>
<text text-anchor="start" x="2953" y="-580.8" font-family="Arial" font-size="24.00" fill="#444444">playlists for bounded</text>
<text text-anchor="start" x="2933" y="-554.8" font-family="Arial" font-size="24.00" fill="#444444">parsing and assembly to</text>
</g>
<!-- 34&#45;&gt;38 -->
<g id="144" class="edge">
<title>34&#45;&gt;38</title>
<path fill="none" stroke="#444444" stroke-dasharray="5,2" d="M2866.8,-488.87C2996.6,-477.22 3153.67,-456.7 3211,-423 3233.68,-409.67 3223.41,-387.65 3247,-376 3305.12,-347.31 4105.93,-354.27 4443,-388 4558.49,-399.56 4685.82,-422.44 4789.75,-443.8"/>
<polygon fill="#444444" stroke="#444444" points="4789.23,-447.27 4799.73,-445.86 4790.64,-440.41 4789.23,-447.27"/>
<polygon fill="white" stroke="transparent" points="3705,-364 3705,-424 3997,-424 3997,-364 3705,-364"/>
<text text-anchor="start" x="3709" y="-400.8" font-family="Arial" font-size="24.00" fill="#444444">Leases aggregate transfer</text>
<text text-anchor="start" x="3777" y="-374.8" font-family="Arial" font-size="24.00" fill="#444444">bytes through</text>
</g>
<!-- 35&#45;&gt;38 -->
<g id="145" class="edge">
<title>35&#45;&gt;38</title>
<path fill="none" stroke="#444444" stroke-dasharray="5,2" d="M4443.22,-544.73C4550.34,-534.62 4681.45,-522.25 4789.74,-512.03"/>
<polygon fill="#444444" stroke="#444444" points="4790.19,-515.5 4799.81,-511.08 4789.53,-508.53 4790.19,-515.5"/>
<polygon fill="white" stroke="transparent" points="4479,-541 4479,-601 4764,-601 4764,-541 4479,-541"/>
<text text-anchor="start" x="4483.5" y="-577.8" font-family="Arial" font-size="24.00" fill="#444444">Leases each active HTTP</text>
<text text-anchor="start" x="4536.5" y="-551.8" font-family="Arial" font-size="24.00" fill="#444444">request through</text>
</g>
<!-- 36&#45;&gt;35 -->
<g id="148" class="edge">
<title>36&#45;&gt;35</title>
<path fill="none" stroke="#444444" stroke-dasharray="5,2" d="M3669.03,-564C3778.57,-564 3912.32,-564 4022.51,-564"/>
<polygon fill="#444444" stroke="#444444" points="4022.76,-567.5 4032.76,-564 4022.76,-560.5 4022.76,-567.5"/>
<polygon fill="white" stroke="transparent" points="3727.5,-564 3727.5,-650 3974.5,-650 3974.5,-564 3727.5,-564"/>
<text text-anchor="start" x="3732" y="-626.8" font-family="Arial" font-size="24.00" fill="#444444">Fetches every variant,</text>
<text text-anchor="start" x="3732" y="-600.8" font-family="Arial" font-size="24.00" fill="#444444">init map, and segment</text>
<text text-anchor="start" x="3810" y="-574.8" font-family="Arial" font-size="24.00" fill="#444444">through</text>
</g>
</g>
</svg>
