<?xml version="1.0" encoding="UTF-8" standalone="no"?>
<!DOCTYPE svg PUBLIC "-//W3C//DTD SVG 1.1//EN"
 "http://www.w3.org/Graphics/SVG/1.1/DTD/svg11.dtd">
<!-- Generated by graphviz version 2.43.0 (0)
 -->
<!-- Title: %3 Pages: 1 -->
<svg width="1965pt" height="1744pt"
 viewBox="0.00 0.00 1964.50 1743.75" xmlns="http://www.w3.org/2000/svg" xmlns:xlink="http://www.w3.org/1999/xlink">
<g id="graph0" class="graph" transform="scale(1 1) rotate(0) translate(4 1739.75)">
<title>%3</title>
<polygon fill="white" stroke="transparent" points="-4,4 -4,-1739.75 1960.5,-1739.75 1960.5,4 -4,4"/>
<text text-anchor="start" x="655.75" y="-11.8" font-family="Arial" font-size="34.00">Container View: Browser Memory Daemon</text>
<g id="clust1" class="cluster">
<title>cluster_4</title>
<polygon fill="none" stroke="#444444" points="8,-64 8,-1727.75 1528,-1727.75 1528,-64 8,-64"/>
<text text-anchor="start" x="627" y="-92.8" font-family="Arial" font-size="24.00" fill="#444444">Browser Memory Daemon</text>
<text text-anchor="start" x="691" y="-72.8" font-family="Arial" font-size="19.00" fill="#444444">[Software System]</text>
</g>
<!-- 3 -->
<g id="3" class="node">
<title>3</title>
<polygon fill="#999999" stroke="#6b6b6b" points="1956.5,-1179.06 1553.5,-1179.06 1553.5,-914.06 1956.5,-914.06 1956.5,-1179.06"/>
<text text-anchor="start" x="1593.5" y="-1130.86" font-family="Arial" font-size="34.00" fill="#ffffff">Web Sites and Media</text>
<text text-anchor="start" x="1701" y="-1096.86" font-family="Arial" font-size="34.00" fill="#ffffff">Origins</text>
<text text-anchor="start" x="1678" y="-1074.86" font-family="Arial" font-size="19.00" fill="#ffffff">[Software System]</text>
<text text-anchor="start" x="1645" y="-1037.86" font-family="Arial" font-size="24.00" fill="#ffffff">External web pages,</text>
<text text-anchor="start" x="1592.5" y="-1013.86" font-family="Arial" font-size="24.00" fill="#ffffff">image/video URLs, and media</text>
<text text-anchor="start" x="1582.5" y="-989.86" font-family="Arial" font-size="24.00" fill="#ffffff">CDNs that Chrome loads or that</text>
<text text-anchor="start" x="1592.5" y="-965.86" font-family="Arial" font-size="24.00" fill="#ffffff">sidecars fetch as page&#45;related</text>
<text text-anchor="start" x="1718.5" y="-941.86" font-family="Arial" font-size="24.00" fill="#ffffff">media.</text>
</g>
<!-- 13 -->
<g id="13" class="node">
<title>13</title>
<path fill="#2f95c8" stroke="#20688c" d="M594.5,-1195.78C594.5,-1214.08 492.98,-1228.94 368,-1228.94 243.02,-1228.94 141.5,-1214.08 141.5,-1195.78 141.5,-1195.78 141.5,-897.35 141.5,-897.35 141.5,-879.05 243.02,-864.19 368,-864.19 492.98,-864.19 594.5,-879.05 594.5,-897.35 594.5,-897.35 594.5,-1195.78 594.5,-1195.78"/>
<path fill="none" stroke="#20688c" d="M594.5,-1195.78C594.5,-1177.48 492.98,-1162.62 368,-1162.62 243.02,-1162.62 141.5,-1177.48 141.5,-1195.78"/>
<text text-anchor="start" x="226" y="-1130.86" font-family="Arial" font-size="34.00" fill="#ffffff">Extension Browser</text>
<text text-anchor="start" x="308.5" y="-1096.86" font-family="Arial" font-size="34.00" fill="#ffffff">Storage</text>
<text text-anchor="start" x="170.5" y="-1074.86" font-family="Arial" font-size="19.00" fill="#ffffff">[Container: chrome.storage.local + IndexedDB]</text>
<text text-anchor="start" x="235.5" y="-1037.86" font-family="Arial" font-size="24.00" fill="#ffffff">Browser&#45;side storage for</text>
<text text-anchor="start" x="223.5" y="-1013.86" font-family="Arial" font-size="24.00" fill="#ffffff">capture and visit queues in</text>
<text text-anchor="start" x="229.5" y="-989.86" font-family="Arial" font-size="24.00" fill="#ffffff">chrome.storage.local plus</text>
<text text-anchor="start" x="235.5" y="-965.86" font-family="Arial" font-size="24.00" fill="#ffffff">durable media tasks and</text>
<text text-anchor="start" x="216.5" y="-941.86" font-family="Arial" font-size="24.00" fill="#ffffff">fetched blobs in IndexedDB.</text>
</g>
<!-- 14 -->
<g id="14" class="node">
<title>14</title>
<polygon fill="#438dd5" stroke="#2e6295" points="1129,-1215.06 667,-1215.06 667,-878.06 1129,-878.06 1129,-1215.06"/>
<text text-anchor="start" x="733.5" y="-1166.86" font-family="Arial" font-size="34.00" fill="#ffffff">WSL Loopback HTTP</text>
<text text-anchor="start" x="833.5" y="-1132.86" font-family="Arial" font-size="34.00" fill="#ffffff">Daemon</text>
<text text-anchor="start" x="696" y="-1110.86" font-family="Arial" font-size="19.00" fill="#ffffff">[Container: Python 3.11, ThreadingHTTPServer]</text>
<text text-anchor="start" x="737" y="-1073.86" font-family="Arial" font-size="24.00" fill="#ffffff">Authenticated loopback HTTP</text>
<text text-anchor="start" x="762" y="-1049.86" font-family="Arial" font-size="24.00" fill="#ffffff">API that handles capture,</text>
<text text-anchor="start" x="758.5" y="-1025.86" font-family="Arial" font-size="24.00" fill="#ffffff">visit events, media artifact</text>
<text text-anchor="start" x="761.5" y="-1001.86" font-family="Arial" font-size="24.00" fill="#ffffff">upload/fetch/purge, exact</text>
<text text-anchor="start" x="858" y="-977.86" font-family="Arial" font-size="24.00" fill="#ffffff">search,</text>
<text text-anchor="start" x="749" y="-953.86" font-family="Arial" font-size="24.00" fill="#ffffff">recent/timeline/detail, policy</text>
<text text-anchor="start" x="767" y="-929.86" font-family="Arial" font-size="24.00" fill="#ffffff">rules, doctor, forget, and</text>
<text text-anchor="start" x="808.5" y="-905.86" font-family="Arial" font-size="24.00" fill="#ffffff">static UI serving.</text>
</g>
<!-- 29 -->
<g id="29" class="node">
<title>29</title>
<path fill="#2f95c8" stroke="#20688c" d="M429,-645.4C429,-671.98 340.25,-693.56 231,-693.56 121.75,-693.56 33,-671.98 33,-645.4 33,-645.4 33,-211.97 33,-211.97 33,-185.4 121.75,-163.81 231,-163.81 340.25,-163.81 429,-185.4 429,-211.97 429,-211.97 429,-645.4 429,-645.4"/>
<path fill="none" stroke="#20688c" d="M429,-645.4C429,-618.83 340.25,-597.24 231,-597.24 121.75,-597.24 33,-618.83 33,-645.4"/>
<text text-anchor="start" x="118" y="-572.99" font-family="Arial" font-size="34.00" fill="#ffffff">SQLite + FTS5</text>
<text text-anchor="start" x="158" y="-538.99" font-family="Arial" font-size="34.00" fill="#ffffff">Database</text>
<text text-anchor="start" x="105" y="-516.99" font-family="Arial" font-size="19.00" fill="#ffffff">[Container: SQLite with FTS5]</text>
<text text-anchor="start" x="63" y="-479.99" font-family="Arial" font-size="24.00" fill="#ffffff">Durable complete cleaned&#45;text,</text>
<text text-anchor="start" x="112" y="-455.99" font-family="Arial" font-size="24.00" fill="#ffffff">relational, and full&#45;text</text>
<text text-anchor="start" x="113.5" y="-431.99" font-family="Arial" font-size="24.00" fill="#ffffff">authority for migration</text>
<text text-anchor="start" x="79" y="-407.99" font-family="Arial" font-size="24.00" fill="#ffffff">ledger, sources, documents,</text>
<text text-anchor="start" x="81.5" y="-383.99" font-family="Arial" font-size="24.00" fill="#ffffff">visits, capture observations,</text>
<text text-anchor="start" x="100" y="-359.99" font-family="Arial" font-size="24.00" fill="#ffffff">URL claims, visit events,</text>
<text text-anchor="start" x="62.5" y="-335.99" font-family="Arial" font-size="24.00" fill="#ffffff">snapshots, chunks, chunks_fts,</text>
<text text-anchor="start" x="62" y="-311.99" font-family="Arial" font-size="24.00" fill="#ffffff">media provenance/tasks, policy</text>
<text text-anchor="start" x="105.5" y="-287.99" font-family="Arial" font-size="24.00" fill="#ffffff">rules, audit events, and</text>
<text text-anchor="start" x="139" y="-263.99" font-family="Arial" font-size="24.00" fill="#ffffff">deletion receipts.</text>
</g>
<!-- 14&#45;&gt;29 -->
<g id="47" class="edge">
<title>14&#45;&gt;29</title>
<path fill="none" stroke="#444444" stroke-dasharray="5,2" d="M666.77,-881.73C654.55,-875.46 642.26,-869.63 630,-864.38 561,-834.82 525.76,-872.44 465,-828.38 419.11,-795.09 380.73,-749.83 349.2,-701.72"/>
<polygon fill="#444444" stroke="#444444" points="351.96,-699.54 343.6,-693.03 346.08,-703.33 351.96,-699.54"/>
<polygon fill="white" stroke="transparent" points="465,-729.38 465,-828.38 775,-828.38 775,-729.38 465,-729.38"/>
<text text-anchor="start" x="469" y="-805.67" font-family="Arial" font-size="24.00" fill="#444444">Reads and writes metadata,</text>
<text text-anchor="start" x="502" y="-781.67" font-family="Arial" font-size="24.00" fill="#444444">FTS, tasks, audit, and</text>
<text text-anchor="start" x="564.5" y="-757.67" font-family="Arial" font-size="24.00" fill="#444444">receipts in</text>
<text text-anchor="start" x="586.5" y="-737.67" font-family="Arial" font-size="19.00" fill="#444444">[sqlite3]</text>
</g>
<!-- 31 -->
<g id="31" class="node">
<title>31</title>
<path fill="#2f95c8" stroke="#20688c" d="M1045,-604.9C1045,-626.51 923.09,-644.06 773,-644.06 622.91,-644.06 501,-626.51 501,-604.9 501,-604.9 501,-252.47 501,-252.47 501,-230.86 622.91,-213.31 773,-213.31 923.09,-213.31 1045,-230.86 1045,-252.47 1045,-252.47 1045,-604.9 1045,-604.9"/>
<path fill="none" stroke="#20688c" d="M1045,-604.9C1045,-583.3 923.09,-565.74 773,-565.74 622.91,-565.74 501,-583.3 501,-604.9"/>
<text text-anchor="start" x="617.5" y="-536.99" font-family="Arial" font-size="34.00" fill="#ffffff">Guarded Media Blob</text>
<text text-anchor="start" x="723.5" y="-502.99" font-family="Arial" font-size="34.00" fill="#ffffff">Cache</text>
<text text-anchor="start" x="530" y="-480.99" font-family="Arial" font-size="19.00" fill="#ffffff">[Container: WSL&#45;visible local or NAS&#45;mounted filesystem]</text>
<text text-anchor="start" x="663" y="-443.99" font-family="Arial" font-size="24.00" fill="#ffffff">Bounded disposable</text>
<text text-anchor="start" x="607.5" y="-419.99" font-family="Arial" font-size="24.00" fill="#ffffff">image/video/audio bytes under</text>
<text text-anchor="start" x="631.5" y="-395.99" font-family="Arial" font-size="24.00" fill="#ffffff">the configured media root;</text>
<text text-anchor="start" x="659" y="-371.99" font-family="Arial" font-size="24.00" fill="#ffffff">explicit external roots</text>
<text text-anchor="start" x="674" y="-347.99" font-family="Arial" font-size="24.00" fill="#ffffff">require mount and</text>
<text text-anchor="start" x="623.5" y="-323.99" font-family="Arial" font-size="24.00" fill="#ffffff">identity&#45;marker proof before</text>
<text text-anchor="start" x="732" y="-299.99" font-family="Arial" font-size="24.00" fill="#ffffff">access.</text>
</g>
<!-- 14&#45;&gt;31 -->
<g id="49" class="edge">
<title>14&#45;&gt;31</title>
<path fill="none" stroke="#444444" stroke-dasharray="5,2" d="M825.39,-877.85C819.89,-861.33 814.95,-844.66 811,-828.38 797.49,-772.68 788.74,-711.52 783.08,-654.18"/>
<polygon fill="#444444" stroke="#444444" points="786.54,-653.52 782.1,-643.9 779.57,-654.19 786.54,-653.52"/>
<polygon fill="white" stroke="transparent" points="811,-729.38 811,-828.38 1119,-828.38 1119,-729.38 811,-729.38"/>
<text text-anchor="start" x="840" y="-805.67" font-family="Arial" font-size="24.00" fill="#444444">Stores, serves, purges,</text>
<text text-anchor="start" x="815" y="-781.67" font-family="Arial" font-size="24.00" fill="#444444">and rehydrates media blobs</text>
<text text-anchor="start" x="955.5" y="-757.67" font-family="Arial" font-size="24.00" fill="#444444">in</text>
<text text-anchor="start" x="913.5" y="-737.67" font-family="Arial" font-size="19.00" fill="#444444">[Filesystem]</text>
</g>
<!-- 32 -->
<g id="32" class="node">
<title>32</title>
<path fill="#2f95c8" stroke="#20688c" d="M1503,-618.4C1503,-641.67 1416.49,-660.56 1310,-660.56 1203.51,-660.56 1117,-641.67 1117,-618.4 1117,-618.4 1117,-238.97 1117,-238.97 1117,-215.71 1203.51,-196.81 1310,-196.81 1416.49,-196.81 1503,-215.71 1503,-238.97 1503,-238.97 1503,-618.4 1503,-618.4"/>
<path fill="none" stroke="#20688c" d="M1503,-618.4C1503,-595.14 1416.49,-576.24 1310,-576.24 1203.51,-576.24 1117,-595.14 1117,-618.4"/>
<text text-anchor="start" x="1146" y="-548.99" font-family="Arial" font-size="34.00" fill="#ffffff">Bounded Local Media</text>
<text text-anchor="start" x="1266.5" y="-514.99" font-family="Arial" font-size="34.00" fill="#ffffff">Spool</text>
<text text-anchor="start" x="1170" y="-492.99" font-family="Arial" font-size="19.00" fill="#ffffff">[Container: WSL local filesystem]</text>
<text text-anchor="start" x="1158" y="-455.99" font-family="Arial" font-size="24.00" fill="#ffffff">Opt&#45;in durable outage buffer</text>
<text text-anchor="start" x="1161.5" y="-431.99" font-family="Arial" font-size="24.00" fill="#ffffff">beneath the local WSL data</text>
<text text-anchor="start" x="1188.5" y="-407.99" font-family="Arial" font-size="24.00" fill="#ffffff">root; admission counts</text>
<text text-anchor="start" x="1164.5" y="-383.99" font-family="Arial" font-size="24.00" fill="#ffffff">committed files and distinct</text>
<text text-anchor="start" x="1158" y="-359.99" font-family="Arial" font-size="24.00" fill="#ffffff">in&#45;flight SQLite reservations,</text>
<text text-anchor="start" x="1185" y="-335.99" font-family="Arial" font-size="24.00" fill="#ffffff">and drain verifies bytes</text>
<text text-anchor="start" x="1162.5" y="-311.99" font-family="Arial" font-size="24.00" fill="#ffffff">before tier transition/source</text>
<text text-anchor="start" x="1264" y="-287.99" font-family="Arial" font-size="24.00" fill="#ffffff">cleanup.</text>
</g>
<!-- 14&#45;&gt;32 -->
<g id="50" class="edge">
<title>14&#45;&gt;32</title>
<path fill="none" stroke="#444444" stroke-dasharray="5,2" d="M1092.85,-878.01C1107.26,-861.95 1120.87,-845.31 1133,-828.38 1167.43,-780.28 1197.33,-724.42 1222.25,-670.01"/>
<polygon fill="#444444" stroke="#444444" points="1225.59,-671.13 1226.53,-660.58 1219.21,-668.24 1225.59,-671.13"/>
<polygon fill="white" stroke="transparent" points="1189,-729.38 1189,-828.38 1465,-828.38 1465,-729.38 1189,-729.38"/>
<text text-anchor="start" x="1193" y="-805.67" font-family="Arial" font-size="24.00" fill="#444444">Stores and serves media</text>
<text text-anchor="start" x="1220" y="-781.67" font-family="Arial" font-size="24.00" fill="#444444">during guarded&#45;root</text>
<text text-anchor="start" x="1271" y="-757.67" font-family="Arial" font-size="24.00" fill="#444444">outages in</text>
<text text-anchor="start" x="1275.5" y="-737.67" font-family="Arial" font-size="19.00" fill="#444444">[Filesystem]</text>
</g>
<!-- 5 -->
<g id="5" class="node">
<title>5</title>
<polygon fill="#438dd5" stroke="#2e6295" points="1115,-1702.75 681,-1702.75 681,-1423.75 1115,-1423.75 1115,-1702.75"/>
<text text-anchor="start" x="718" y="-1654.55" font-family="Arial" font-size="34.00" fill="#ffffff">Chrome MV3 Extension</text>
<text text-anchor="start" x="710" y="-1632.55" font-family="Arial" font-size="19.00" fill="#ffffff">[Container: JavaScript, Chrome Manifest V3]</text>
<text text-anchor="start" x="755" y="-1595.55" font-family="Arial" font-size="24.00" fill="#ffffff">Captures visible page text,</text>
<text text-anchor="start" x="780.5" y="-1571.55" font-family="Arial" font-size="24.00" fill="#ffffff">media references, tab</text>
<text text-anchor="start" x="789" y="-1547.55" font-family="Arial" font-size="24.00" fill="#ffffff">lifecycle events, and</text>
<text text-anchor="start" x="732" y="-1523.55" font-family="Arial" font-size="24.00" fill="#ffffff">browser&#45;side media bytes from</text>
<text text-anchor="start" x="727" y="-1499.55" font-family="Arial" font-size="24.00" fill="#ffffff">Windows Chrome; queues work</text>
<text text-anchor="start" x="739" y="-1475.55" font-family="Arial" font-size="24.00" fill="#ffffff">durably and posts to the WSL</text>
<text text-anchor="start" x="850.5" y="-1451.55" font-family="Arial" font-size="24.00" fill="#ffffff">daemon.</text>
</g>
<!-- 5&#45;&gt;3 -->
<g id="39" class="edge">
<title>5&#45;&gt;3</title>
<path fill="none" stroke="#444444" stroke-dasharray="5,2" d="M1115.07,-1511.98C1210.28,-1484.12 1320.69,-1443.6 1411,-1387.75 1497.5,-1334.26 1579.13,-1255.26 1641.15,-1186.85"/>
<polygon fill="#444444" stroke="#444444" points="1643.76,-1189.19 1647.85,-1179.42 1638.56,-1184.5 1643.76,-1189.19"/>
<polygon fill="white" stroke="transparent" points="1556,-1276.75 1556,-1375.75 1847,-1375.75 1847,-1276.75 1556,-1276.75"/>
<text text-anchor="start" x="1579.5" y="-1353.05" font-family="Arial" font-size="24.00" fill="#444444">Extracts DOM refs and</text>
<text text-anchor="start" x="1619" y="-1329.05" font-family="Arial" font-size="24.00" fill="#444444">fetches queued</text>
<text text-anchor="start" x="1571.5" y="-1305.05" font-family="Arial" font-size="24.00" fill="#444444">credentialed media from</text>
<text text-anchor="start" x="1560.5" y="-1285.05" font-family="Arial" font-size="19.00" fill="#444444">[DOM; fetch(credentials: include)]</text>
</g>
<!-- 5&#45;&gt;13 -->
<g id="40" class="edge">
<title>5&#45;&gt;13</title>
<path fill="none" stroke="#444444" stroke-dasharray="5,2" d="M680.75,-1469.01C640.88,-1446.02 601.61,-1418.9 569,-1387.75 524.47,-1345.23 486.46,-1290.7 455.87,-1237.82"/>
<polygon fill="#444444" stroke="#444444" points="458.83,-1235.95 450.83,-1229.01 452.76,-1239.43 458.83,-1235.95"/>
<polygon fill="white" stroke="transparent" points="569,-1264.75 569,-1387.75 880,-1387.75 880,-1264.75 569,-1264.75"/>
<text text-anchor="start" x="582.5" y="-1365.05" font-family="Arial" font-size="24.00" fill="#444444">Queues identity&#45;decorated</text>
<text text-anchor="start" x="628.5" y="-1341.05" font-family="Arial" font-size="24.00" fill="#444444">captures, lifecycle</text>
<text text-anchor="start" x="591" y="-1317.05" font-family="Arial" font-size="24.00" fill="#444444">events, media tasks, and</text>
<text text-anchor="start" x="683" y="-1293.05" font-family="Arial" font-size="24.00" fill="#444444">blobs in</text>
<text text-anchor="start" x="573.5" y="-1273.05" font-family="Arial" font-size="19.00" fill="#444444">[chrome.storage.local + IndexedDB]</text>
</g>
<!-- 5&#45;&gt;14 -->
<g id="41" class="edge">
<title>5&#45;&gt;14</title>
<path fill="none" stroke="#444444" stroke-dasharray="5,2" d="M898,-1423.65C898,-1362.74 898,-1290.47 898,-1225.64"/>
<polygon fill="#444444" stroke="#444444" points="901.5,-1225.3 898,-1215.3 894.5,-1225.3 901.5,-1225.3"/>
<polygon fill="white" stroke="transparent" points="898,-1264.75 898,-1387.75 1393,-1387.75 1393,-1264.75 898,-1264.75"/>
<text text-anchor="start" x="1065" y="-1365.05" font-family="Arial" font-size="24.00" fill="#444444">Posts /capture,</text>
<text text-anchor="start" x="1042" y="-1341.05" font-family="Arial" font-size="24.00" fill="#444444">/visit&#45;events, media</text>
<text text-anchor="start" x="1019" y="-1317.05" font-family="Arial" font-size="24.00" fill="#444444">metadata, and raw blob</text>
<text text-anchor="start" x="1090" y="-1293.05" font-family="Arial" font-size="24.00" fill="#444444">uploads to</text>
<text text-anchor="start" x="902.5" y="-1273.05" font-family="Arial" font-size="19.00" fill="#444444">[Bearer HTTP/JSON; raw HTTP PUT over 127.0.0.1:8765]</text>
</g>
</g>
</svg>
