<?xml version="1.0" encoding="UTF-8" standalone="no"?>
<!DOCTYPE svg PUBLIC "-//W3C//DTD SVG 1.1//EN"
 "http://www.w3.org/Graphics/SVG/1.1/DTD/svg11.dtd">
<!-- Generated by graphviz version 2.43.0 (0)
 -->
<!-- Title: %3 Pages: 1 -->
<svg width="1206pt" height="1776pt"
 viewBox="0.00 0.00 1206.00 1776.00" xmlns="http://www.w3.org/2000/svg" xmlns:xlink="http://www.w3.org/1999/xlink">
<g id="graph0" class="graph" transform="scale(1 1) rotate(0) translate(4 1772)">
<title>%3</title>
<polygon fill="white" stroke="transparent" points="-4,4 -4,-1772 1202,-1772 1202,4 -4,4"/>
<text text-anchor="start" x="247.5" y="-11.8" font-family="Arial" font-size="34.00">Browser Memory Daemon &#45; CLI &#45; Components</text>
<g id="clust1" class="cluster">
<title>cluster_51</title>
<polygon fill="none" stroke="#444444" points="8,-633.81 8,-1144.81 462,-1144.81 462,-633.81 8,-633.81"/>
<text text-anchor="start" x="216" y="-662.61" font-family="Arial" font-size="24.00" fill="#444444">CLI</text>
<text text-anchor="start" x="114" y="-642.61" font-family="Arial" font-size="19.00" fill="#444444">[Container: Python argparse]</text>
</g>
<!-- 57 -->
<g id="57" class="node">
<title>57</title>
<path fill="#2f95c8" stroke="#20688c" d="M1175.5,-1735.03C1175.5,-1753.33 1092.58,-1768.19 990.5,-1768.19 888.42,-1768.19 805.5,-1753.33 805.5,-1735.03 805.5,-1735.03 805.5,-1436.6 805.5,-1436.6 805.5,-1418.3 888.42,-1403.44 990.5,-1403.44 1092.58,-1403.44 1175.5,-1418.3 1175.5,-1436.6 1175.5,-1436.6 1175.5,-1735.03 1175.5,-1735.03"/>
<path fill="none" stroke="#20688c" d="M1175.5,-1735.03C1175.5,-1716.73 1092.58,-1701.87 990.5,-1701.87 888.42,-1701.87 805.5,-1716.73 805.5,-1735.03"/>
<text text-anchor="start" x="877.5" y="-1670.11" font-family="Arial" font-size="34.00" fill="#ffffff">SQLite + FTS5</text>
<text text-anchor="start" x="917.5" y="-1636.11" font-family="Arial" font-size="34.00" fill="#ffffff">Database</text>
<text text-anchor="start" x="864.5" y="-1614.11" font-family="Arial" font-size="19.00" fill="#ffffff">[Container: SQLite with FTS5]</text>
<text text-anchor="start" x="871" y="-1577.11" font-family="Arial" font-size="24.00" fill="#ffffff">Durable text/metadata</text>
<text text-anchor="start" x="839.5" y="-1553.11" font-family="Arial" font-size="24.00" fill="#ffffff">authority including migration</text>
<text text-anchor="start" x="834.5" y="-1529.11" font-family="Arial" font-size="24.00" fill="#ffffff">ledger, capture observations,</text>
<text text-anchor="start" x="844.5" y="-1505.11" font-family="Arial" font-size="24.00" fill="#ffffff">and immutable observation</text>
<text text-anchor="start" x="892.5" y="-1481.11" font-family="Arial" font-size="24.00" fill="#ffffff">ingest sequences.</text>
</g>
<!-- 58 -->
<g id="58" class="node">
<title>58</title>
<path fill="#2f95c8" stroke="#20688c" d="M1188,-1299.03C1188,-1317.33 1099.48,-1332.19 990.5,-1332.19 881.52,-1332.19 793,-1317.33 793,-1299.03 793,-1299.03 793,-1000.6 793,-1000.6 793,-982.3 881.52,-967.44 990.5,-967.44 1099.48,-967.44 1188,-982.3 1188,-1000.6 1188,-1000.6 1188,-1299.03 1188,-1299.03"/>
<path fill="none" stroke="#20688c" d="M1188,-1299.03C1188,-1280.73 1099.48,-1265.87 990.5,-1265.87 881.52,-1265.87 793,-1280.73 793,-1299.03"/>
<text text-anchor="start" x="869" y="-1234.11" font-family="Arial" font-size="34.00" fill="#ffffff">Local Derivative</text>
<text text-anchor="start" x="949.5" y="-1200.11" font-family="Arial" font-size="34.00" fill="#ffffff">Store</text>
<text text-anchor="start" x="850.5" y="-1178.11" font-family="Arial" font-size="19.00" fill="#ffffff">[Container: WSL local filesystem]</text>
<text text-anchor="start" x="837" y="-1141.11" font-family="Arial" font-size="24.00" fill="#ffffff">Reconstructible compatibility</text>
<text text-anchor="start" x="822" y="-1117.11" font-family="Arial" font-size="24.00" fill="#ffffff">evidence such as pre&#45;version&#45;9</text>
<text text-anchor="start" x="860.5" y="-1093.11" font-family="Arial" font-size="24.00" fill="#ffffff">clean&#45;text sidecars; new</text>
<text text-anchor="start" x="867" y="-1069.11" font-family="Arial" font-size="24.00" fill="#ffffff">captures create no text</text>
<text text-anchor="start" x="942" y="-1045.11" font-family="Arial" font-size="24.00" fill="#ffffff">sidecars.</text>
</g>
<!-- 61 -->
<g id="61" class="node">
<title>61</title>
<path fill="#2f95c8" stroke="#20688c" d="M1188,-860.6C1188,-879.82 1099.48,-895.44 990.5,-895.44 881.52,-895.44 793,-879.82 793,-860.6 793,-860.6 793,-547.03 793,-547.03 793,-527.8 881.52,-512.19 990.5,-512.19 1099.48,-512.19 1188,-527.8 1188,-547.03 1188,-547.03 1188,-860.6 1188,-860.6"/>
<path fill="none" stroke="#20688c" d="M1188,-860.6C1188,-841.37 1099.48,-825.76 990.5,-825.76 881.52,-825.76 793,-841.37 793,-860.6"/>
<text text-anchor="start" x="822" y="-795.11" font-family="Arial" font-size="34.00" fill="#ffffff">Local Backup Bundles</text>
<text text-anchor="start" x="870.5" y="-773.11" font-family="Arial" font-size="19.00" fill="#ffffff">[Container: Local filesystem]</text>
<text text-anchor="start" x="865" y="-736.11" font-family="Arial" font-size="24.00" fill="#ffffff">Operator&#45;selected local</text>
<text text-anchor="start" x="859" y="-712.11" font-family="Arial" font-size="24.00" fill="#ffffff">directories containing an</text>
<text text-anchor="start" x="862" y="-688.11" font-family="Arial" font-size="24.00" fill="#ffffff">online SQLite snapshot,</text>
<text text-anchor="start" x="831" y="-664.11" font-family="Arial" font-size="24.00" fill="#ffffff">redaction&#45;safe hash manifest,</text>
<text text-anchor="start" x="862.5" y="-640.11" font-family="Arial" font-size="24.00" fill="#ffffff">and optional referenced</text>
<text text-anchor="start" x="830" y="-616.11" font-family="Arial" font-size="24.00" fill="#ffffff">derivatives; media, spool, and</text>
<text text-anchor="start" x="840" y="-592.11" font-family="Arial" font-size="24.00" fill="#ffffff">secrets excluded by default.</text>
</g>
<!-- 62 -->
<g id="62" class="node">
<title>62</title>
<path fill="#2f95c8" stroke="#20688c" d="M1198,-404.6C1198,-423.82 1105,-439.44 990.5,-439.44 876,-439.44 783,-423.82 783,-404.6 783,-404.6 783,-91.03 783,-91.03 783,-71.8 876,-56.19 990.5,-56.19 1105,-56.19 1198,-71.8 1198,-91.03 1198,-91.03 1198,-404.6 1198,-404.6"/>
<path fill="none" stroke="#20688c" d="M1198,-404.6C1198,-385.37 1105,-369.76 990.5,-369.76 876,-369.76 783,-385.37 783,-404.6"/>
<text text-anchor="start" x="812" y="-339.11" font-family="Arial" font-size="34.00" fill="#ffffff">Restored Runtime Root</text>
<text text-anchor="start" x="870.5" y="-317.11" font-family="Arial" font-size="19.00" fill="#ffffff">[Container: Local filesystem]</text>
<text text-anchor="start" x="834" y="-280.11" font-family="Arial" font-size="24.00" fill="#ffffff">An explicit absent destination</text>
<text text-anchor="start" x="866.5" y="-256.11" font-family="Arial" font-size="24.00" fill="#ffffff">that is privately staged,</text>
<text text-anchor="start" x="847" y="-232.11" font-family="Arial" font-size="24.00" fill="#ffffff">manifest/schema/semantic</text>
<text text-anchor="start" x="867" y="-208.11" font-family="Arial" font-size="24.00" fill="#ffffff">verified, and atomically</text>
<text text-anchor="start" x="825.5" y="-184.11" font-family="Arial" font-size="24.00" fill="#ffffff">published with restored SQLite</text>
<text text-anchor="start" x="874.5" y="-160.11" font-family="Arial" font-size="24.00" fill="#ffffff">authority and optional</text>
<text text-anchor="start" x="843" y="-136.11" font-family="Arial" font-size="24.00" fill="#ffffff">referenced derivatives only.</text>
</g>
<!-- 56 -->
<g id="56" class="node">
<title>56</title>
<polygon fill="#85bbf0" stroke="#1168bd" points="437,-1119.31 33,-1119.31 33,-734.31 437,-734.31 437,-1119.31"/>
<text text-anchor="start" x="80.5" y="-1071.11" font-family="Arial" font-size="34.00" fill="#000000">Backup and Restore</text>
<text text-anchor="start" x="168" y="-1037.11" font-family="Arial" font-size="34.00" fill="#000000">Operator</text>
<text text-anchor="start" x="62" y="-1015.11" font-family="Arial" font-size="19.00" fill="#000000">[Component: Python sqlite3 + filesystem]</text>
<text text-anchor="start" x="86.5" y="-978.11" font-family="Arial" font-size="24.00" fill="#000000">Creates dry&#45;run&#45;first SQLite</text>
<text text-anchor="start" x="89.5" y="-954.11" font-family="Arial" font-size="24.00" fill="#000000">online backup bundles with</text>
<text text-anchor="start" x="105.5" y="-930.11" font-family="Arial" font-size="24.00" fill="#000000">redaction&#45;safe SHA&#45;256</text>
<text text-anchor="start" x="87.5" y="-906.11" font-family="Arial" font-size="24.00" fill="#000000">manifests and verifies them</text>
<text text-anchor="start" x="98" y="-882.11" font-family="Arial" font-size="24.00" fill="#000000">into absent runtime roots;</text>
<text text-anchor="start" x="82.5" y="-858.11" font-family="Arial" font-size="24.00" fill="#000000">optionally carries referenced</text>
<text text-anchor="start" x="80.5" y="-834.11" font-family="Arial" font-size="24.00" fill="#000000">derivatives and excludes API</text>
<text text-anchor="start" x="119.5" y="-810.11" font-family="Arial" font-size="24.00" fill="#000000">token/config, Chrome</text>
<text text-anchor="start" x="78.5" y="-786.11" font-family="Arial" font-size="24.00" fill="#000000">profile/extension copy, media</text>
<text text-anchor="start" x="140" y="-762.11" font-family="Arial" font-size="24.00" fill="#000000">cache, and spool.</text>
</g>
<!-- 56&#45;&gt;57 -->
<g id="187" class="edge">
<title>56&#45;&gt;57</title>
<path fill="none" stroke="#707070" stroke-dasharray="5,2" d="M398.95,-1119.65C423.01,-1145.35 448.1,-1170.76 473,-1193.81 574.12,-1287.46 696.66,-1381.19 797,-1453.51"/>
<polygon fill="#707070" stroke="#707070" points="795.24,-1456.56 805.4,-1459.56 799.33,-1450.88 795.24,-1456.56"/>
<polygon fill="white" stroke="transparent" points="475,-1415.81 475,-1514.81 745,-1514.81 745,-1415.81 475,-1415.81"/>
<text text-anchor="start" x="492.5" y="-1492.11" font-family="Arial" font-size="24.00" fill="#707070">Creates and validates</text>
<text text-anchor="start" x="479" y="-1468.11" font-family="Arial" font-size="24.00" fill="#707070">online SQLite snapshots</text>
<text text-anchor="start" x="585.5" y="-1444.11" font-family="Arial" font-size="24.00" fill="#707070">from</text>
<text text-anchor="start" x="525.5" y="-1424.11" font-family="Arial" font-size="19.00" fill="#707070">[sqlite3 backup API]</text>
</g>
<!-- 56&#45;&gt;58 -->
<g id="188" class="edge">
<title>56&#45;&gt;58</title>
<path fill="none" stroke="#707070" stroke-dasharray="5,2" d="M437.43,-986.43C544.39,-1018.08 675.61,-1056.91 783.28,-1088.78"/>
<polygon fill="#707070" stroke="#707070" points="782.38,-1092.16 792.96,-1091.65 784.36,-1085.45 782.38,-1092.16"/>
<polygon fill="white" stroke="transparent" points="491.5,-1076.81 491.5,-1175.81 728.5,-1175.81 728.5,-1076.81 491.5,-1076.81"/>
<text text-anchor="start" x="518.5" y="-1153.11" font-family="Arial" font-size="24.00" fill="#707070">Optionally copies</text>
<text text-anchor="start" x="496" y="-1129.11" font-family="Arial" font-size="24.00" fill="#707070">referenced contained</text>
<text text-anchor="start" x="524.5" y="-1105.11" font-family="Arial" font-size="24.00" fill="#707070">derivatives from</text>
<text text-anchor="start" x="559" y="-1085.11" font-family="Arial" font-size="19.00" fill="#707070">[Filesystem]</text>
</g>
<!-- 56&#45;&gt;61 -->
<g id="190" class="edge">
<title>56&#45;&gt;61</title>
<path fill="none" stroke="#707070" stroke-dasharray="5,2" d="M437.43,-867.2C544.39,-835.54 675.61,-796.71 783.28,-764.84"/>
<polygon fill="#707070" stroke="#707070" points="784.36,-768.17 792.96,-761.98 782.38,-761.46 784.36,-768.17"/>
<polygon fill="white" stroke="transparent" points="473,-853.81 473,-952.81 747,-952.81 747,-853.81 473,-853.81"/>
<text text-anchor="start" x="477" y="-930.11" font-family="Arial" font-size="24.00" fill="#707070">Atomically publishes and</text>
<text text-anchor="start" x="491.5" y="-906.11" font-family="Arial" font-size="24.00" fill="#707070">verifies manifests/files</text>
<text text-anchor="start" x="600.5" y="-882.11" font-family="Arial" font-size="24.00" fill="#707070">in</text>
<text text-anchor="start" x="509.5" y="-862.11" font-family="Arial" font-size="19.00" fill="#707070">[Filesystem + SHA&#45;256]</text>
</g>
<!-- 56&#45;&gt;62 -->
<g id="191" class="edge">
<title>56&#45;&gt;62</title>
<path fill="none" stroke="#707070" stroke-dasharray="5,2" d="M399.06,-734.11C423.16,-708.12 448.23,-682.33 473,-658.81 567.17,-569.41 679.17,-478.63 774.77,-405.2"/>
<polygon fill="#707070" stroke="#707070" points="776.98,-407.91 782.79,-399.05 772.73,-402.36 776.98,-407.91"/>
<polygon fill="white" stroke="transparent" points="475.5,-658.81 475.5,-757.81 744.5,-757.81 744.5,-658.81 475.5,-658.81"/>
<text text-anchor="start" x="491.5" y="-735.11" font-family="Arial" font-size="24.00" fill="#707070">Stages, validates, and</text>
<text text-anchor="start" x="502" y="-711.11" font-family="Arial" font-size="24.00" fill="#707070">atomically publishes</text>
<text text-anchor="start" x="480" y="-687.11" font-family="Arial" font-size="24.00" fill="#707070">verified restore output in</text>
<text text-anchor="start" x="510" y="-667.11" font-family="Arial" font-size="19.00" fill="#707070">[Filesystem + SHA&#45;256]</text>
</g>
</g>
</svg>
