<?xml version="1.0" encoding="UTF-8" standalone="no"?>
<!DOCTYPE svg PUBLIC "-//W3C//DTD SVG 1.1//EN"
 "http://www.w3.org/Graphics/SVG/1.1/DTD/svg11.dtd">
<!-- Generated by graphviz version 2.43.0 (0)
 -->
<!-- Title: %3 Pages: 1 -->
<svg width="1344pt" height="2056pt"
 viewBox="0.00 0.00 1344.00 2055.50" xmlns="http://www.w3.org/2000/svg" xmlns:xlink="http://www.w3.org/1999/xlink">
<g id="graph0" class="graph" transform="scale(1 1) rotate(0) translate(4 2051.5)">
<title>%3</title>
<polygon fill="white" stroke="transparent" points="-4,4 -4,-2051.5 1340,-2051.5 1340,4 -4,4"/>
<text text-anchor="start" x="345.5" y="-11.8" font-family="Arial" font-size="34.00">Container View: Browser Memory Daemon</text>
<g id="clust1" class="cluster">
<title>cluster_4</title>
<polygon fill="none" stroke="#444444" points="8,-346.5 8,-2039.5 1328,-2039.5 1328,-346.5 8,-346.5"/>
<text text-anchor="start" x="527" y="-375.3" font-family="Arial" font-size="24.00" fill="#444444">Browser Memory Daemon</text>
<text text-anchor="start" x="591" y="-355.3" font-family="Arial" font-size="19.00" fill="#444444">[Software System]</text>
</g>
<!-- 3 -->
<g id="3" class="node">
<title>3</title>
<polygon fill="#999999" stroke="#6b6b6b" points="1232.5,-321 829.5,-321 829.5,-56 1232.5,-56 1232.5,-321"/>
<text text-anchor="start" x="869.5" y="-272.8" font-family="Arial" font-size="34.00" fill="#ffffff">Web Sites and Media</text>
<text text-anchor="start" x="977" y="-238.8" font-family="Arial" font-size="34.00" fill="#ffffff">Origins</text>
<text text-anchor="start" x="954" y="-216.8" font-family="Arial" font-size="19.00" fill="#ffffff">[Software System]</text>
<text text-anchor="start" x="921" y="-179.8" font-family="Arial" font-size="24.00" fill="#ffffff">External web pages,</text>
<text text-anchor="start" x="868.5" y="-155.8" font-family="Arial" font-size="24.00" fill="#ffffff">image/video URLs, and media</text>
<text text-anchor="start" x="858.5" y="-131.8" font-family="Arial" font-size="24.00" fill="#ffffff">CDNs that Chrome loads or that</text>
<text text-anchor="start" x="868.5" y="-107.8" font-family="Arial" font-size="24.00" fill="#ffffff">sidecars fetch as page&#45;related</text>
<text text-anchor="start" x="994.5" y="-83.8" font-family="Arial" font-size="24.00" fill="#ffffff">media.</text>
</g>
<!-- 26 -->
<g id="26" class="node">
<title>26</title>
<polygon fill="#438dd5" stroke="#2e6295" points="387,-1039 33,-1039 33,-736 387,-736 387,-1039"/>
<text text-anchor="start" x="63" y="-990.8" font-family="Arial" font-size="34.00" fill="#ffffff">WSL Media Worker</text>
<text text-anchor="start" x="70" y="-968.8" font-family="Arial" font-size="19.00" fill="#ffffff">[Container: Python 3.11 CLI loop]</text>
<text text-anchor="start" x="62.5" y="-931.8" font-family="Arial" font-size="24.00" fill="#ffffff">Long&#45;running systemd user</text>
<text text-anchor="start" x="111.5" y="-907.8" font-family="Arial" font-size="24.00" fill="#ffffff">worker that leases</text>
<text text-anchor="start" x="64" y="-883.8" font-family="Arial" font-size="24.00" fill="#ffffff">daemon&#45;public media fetch</text>
<text text-anchor="start" x="101" y="-859.8" font-family="Arial" font-size="24.00" fill="#ffffff">tasks, fetches public</text>
<text text-anchor="start" x="62" y="-835.8" font-family="Arial" font-size="24.00" fill="#ffffff">media/HLS without Chrome</text>
<text text-anchor="start" x="67" y="-811.8" font-family="Arial" font-size="24.00" fill="#ffffff">cookies, classifies terminal</text>
<text text-anchor="start" x="64" y="-787.8" font-family="Arial" font-size="24.00" fill="#ffffff">states, and updates artifact</text>
<text text-anchor="start" x="181" y="-763.8" font-family="Arial" font-size="24.00" fill="#ffffff">rows.</text>
</g>
<!-- 26&#45;&gt;3 -->
<g id="52" class="edge">
<title>26&#45;&gt;3</title>
<path fill="none" stroke="#444444" stroke-dasharray="5,2" d="M335.71,-735.86C440.12,-615.3 597.61,-447.68 759,-328.5 778.28,-314.26 799.22,-300.68 820.62,-287.97"/>
<polygon fill="#444444" stroke="#444444" points="822.63,-290.85 829.49,-282.77 819.09,-284.81 822.63,-290.85"/>
<polygon fill="white" stroke="transparent" points="430.5,-628.5 430.5,-703.5 715.5,-703.5 715.5,-628.5 430.5,-628.5"/>
<text text-anchor="start" x="435" y="-680.8" font-family="Arial" font-size="24.00" fill="#444444">Fetches public media and</text>
<text text-anchor="start" x="522" y="-656.8" font-family="Arial" font-size="24.00" fill="#444444">HLS from</text>
<text text-anchor="start" x="481.5" y="-636.8" font-family="Arial" font-size="19.00" fill="#444444">[HTTP(S), data URLs]</text>
</g>
<!-- 29 -->
<g id="29" class="node">
<title>29</title>
<path fill="#2f95c8" stroke="#20688c" d="M1229,-928.22C1229,-954.79 1140.25,-976.38 1031,-976.38 921.75,-976.38 833,-954.79 833,-928.22 833,-928.22 833,-494.78 833,-494.78 833,-468.21 921.75,-446.62 1031,-446.62 1140.25,-446.62 1229,-468.21 1229,-494.78 1229,-494.78 1229,-928.22 1229,-928.22"/>
<path fill="none" stroke="#20688c" d="M1229,-928.22C1229,-901.64 1140.25,-880.06 1031,-880.06 921.75,-880.06 833,-901.64 833,-928.22"/>
<text text-anchor="start" x="918" y="-855.8" font-family="Arial" font-size="34.00" fill="#ffffff">SQLite + FTS5</text>
<text text-anchor="start" x="958" y="-821.8" font-family="Arial" font-size="34.00" fill="#ffffff">Database</text>
<text text-anchor="start" x="905" y="-799.8" font-family="Arial" font-size="19.00" fill="#ffffff">[Container: SQLite with FTS5]</text>
<text text-anchor="start" x="863" y="-762.8" font-family="Arial" font-size="24.00" fill="#ffffff">Durable complete cleaned&#45;text,</text>
<text text-anchor="start" x="912" y="-738.8" font-family="Arial" font-size="24.00" fill="#ffffff">relational, and full&#45;text</text>
<text text-anchor="start" x="913.5" y="-714.8" font-family="Arial" font-size="24.00" fill="#ffffff">authority for migration</text>
<text text-anchor="start" x="879" y="-690.8" font-family="Arial" font-size="24.00" fill="#ffffff">ledger, sources, documents,</text>
<text text-anchor="start" x="881.5" y="-666.8" font-family="Arial" font-size="24.00" fill="#ffffff">visits, capture observations,</text>
<text text-anchor="start" x="900" y="-642.8" font-family="Arial" font-size="24.00" fill="#ffffff">URL claims, visit events,</text>
<text text-anchor="start" x="862.5" y="-618.8" font-family="Arial" font-size="24.00" fill="#ffffff">snapshots, chunks, chunks_fts,</text>
<text text-anchor="start" x="862" y="-594.8" font-family="Arial" font-size="24.00" fill="#ffffff">media provenance/tasks, policy</text>
<text text-anchor="start" x="905.5" y="-570.8" font-family="Arial" font-size="24.00" fill="#ffffff">rules, audit events, and</text>
<text text-anchor="start" x="939" y="-546.8" font-family="Arial" font-size="24.00" fill="#ffffff">deletion receipts.</text>
</g>
<!-- 26&#45;&gt;29 -->
<g id="51" class="edge">
<title>26&#45;&gt;29</title>
<path fill="none" stroke="#444444" stroke-dasharray="5,2" d="M387.2,-849.64C515.05,-822.16 688.43,-784.9 822.9,-756"/>
<polygon fill="#444444" stroke="#444444" points="823.88,-759.37 832.92,-753.85 822.41,-752.53 823.88,-759.37"/>
<polygon fill="white" stroke="transparent" points="423,-839.5 423,-914.5 723,-914.5 723,-839.5 423,-839.5"/>
<text text-anchor="start" x="427" y="-891.8" font-family="Arial" font-size="24.00" fill="#444444">Leases and updates media</text>
<text text-anchor="start" x="532" y="-867.8" font-family="Arial" font-size="24.00" fill="#444444">tasks in</text>
<text text-anchor="start" x="539.5" y="-847.8" font-family="Arial" font-size="19.00" fill="#444444">[sqlite3]</text>
</g>
<!-- 31 -->
<g id="31" class="node">
<title>31</title>
<path fill="#2f95c8" stroke="#20688c" d="M1303,-1439.72C1303,-1461.32 1181.09,-1478.88 1031,-1478.88 880.91,-1478.88 759,-1461.32 759,-1439.72 759,-1439.72 759,-1087.28 759,-1087.28 759,-1065.68 880.91,-1048.12 1031,-1048.12 1181.09,-1048.12 1303,-1065.68 1303,-1087.28 1303,-1087.28 1303,-1439.72 1303,-1439.72"/>
<path fill="none" stroke="#20688c" d="M1303,-1439.72C1303,-1418.11 1181.09,-1400.56 1031,-1400.56 880.91,-1400.56 759,-1418.11 759,-1439.72"/>
<text text-anchor="start" x="875.5" y="-1371.8" font-family="Arial" font-size="34.00" fill="#ffffff">Guarded Media Blob</text>
<text text-anchor="start" x="981.5" y="-1337.8" font-family="Arial" font-size="34.00" fill="#ffffff">Cache</text>
<text text-anchor="start" x="788" y="-1315.8" font-family="Arial" font-size="19.00" fill="#ffffff">[Container: WSL&#45;visible local or NAS&#45;mounted filesystem]</text>
<text text-anchor="start" x="921" y="-1278.8" font-family="Arial" font-size="24.00" fill="#ffffff">Bounded disposable</text>
<text text-anchor="start" x="865.5" y="-1254.8" font-family="Arial" font-size="24.00" fill="#ffffff">image/video/audio bytes under</text>
<text text-anchor="start" x="889.5" y="-1230.8" font-family="Arial" font-size="24.00" fill="#ffffff">the configured media root;</text>
<text text-anchor="start" x="917" y="-1206.8" font-family="Arial" font-size="24.00" fill="#ffffff">explicit external roots</text>
<text text-anchor="start" x="932" y="-1182.8" font-family="Arial" font-size="24.00" fill="#ffffff">require mount and</text>
<text text-anchor="start" x="881.5" y="-1158.8" font-family="Arial" font-size="24.00" fill="#ffffff">identity&#45;marker proof before</text>
<text text-anchor="start" x="990" y="-1134.8" font-family="Arial" font-size="24.00" fill="#ffffff">access.</text>
</g>
<!-- 26&#45;&gt;31 -->
<g id="53" class="edge">
<title>26&#45;&gt;31</title>
<path fill="none" stroke="#444444" stroke-dasharray="5,2" d="M387.2,-968.39C492.7,-1016.83 629.2,-1079.49 749.26,-1134.61"/>
<polygon fill="#444444" stroke="#444444" points="748.06,-1137.91 758.61,-1138.91 750.98,-1131.55 748.06,-1137.91"/>
<polygon fill="white" stroke="transparent" points="423,-1119.5 423,-1194.5 723,-1194.5 723,-1119.5 423,-1119.5"/>
<text text-anchor="start" x="427" y="-1171.8" font-family="Arial" font-size="24.00" fill="#444444">Writes fetched media blobs</text>
<text text-anchor="start" x="562.5" y="-1147.8" font-family="Arial" font-size="24.00" fill="#444444">to</text>
<text text-anchor="start" x="521.5" y="-1127.8" font-family="Arial" font-size="19.00" fill="#444444">[Filesystem]</text>
</g>
<!-- 32 -->
<g id="32" class="node">
<title>32</title>
<path fill="#2f95c8" stroke="#20688c" d="M1224,-1972.22C1224,-1995.48 1137.49,-2014.38 1031,-2014.38 924.51,-2014.38 838,-1995.48 838,-1972.22 838,-1972.22 838,-1592.78 838,-1592.78 838,-1569.52 924.51,-1550.62 1031,-1550.62 1137.49,-1550.62 1224,-1569.52 1224,-1592.78 1224,-1592.78 1224,-1972.22 1224,-1972.22"/>
<path fill="none" stroke="#20688c" d="M1224,-1972.22C1224,-1948.95 1137.49,-1930.06 1031,-1930.06 924.51,-1930.06 838,-1948.95 838,-1972.22"/>
<text text-anchor="start" x="867" y="-1902.8" font-family="Arial" font-size="34.00" fill="#ffffff">Bounded Local Media</text>
<text text-anchor="start" x="987.5" y="-1868.8" font-family="Arial" font-size="34.00" fill="#ffffff">Spool</text>
<text text-anchor="start" x="891" y="-1846.8" font-family="Arial" font-size="19.00" fill="#ffffff">[Container: WSL local filesystem]</text>
<text text-anchor="start" x="879" y="-1809.8" font-family="Arial" font-size="24.00" fill="#ffffff">Opt&#45;in durable outage buffer</text>
<text text-anchor="start" x="882.5" y="-1785.8" font-family="Arial" font-size="24.00" fill="#ffffff">beneath the local WSL data</text>
<text text-anchor="start" x="909.5" y="-1761.8" font-family="Arial" font-size="24.00" fill="#ffffff">root; admission counts</text>
<text text-anchor="start" x="885.5" y="-1737.8" font-family="Arial" font-size="24.00" fill="#ffffff">committed files and distinct</text>
<text text-anchor="start" x="879" y="-1713.8" font-family="Arial" font-size="24.00" fill="#ffffff">in&#45;flight SQLite reservations,</text>
<text text-anchor="start" x="906" y="-1689.8" font-family="Arial" font-size="24.00" fill="#ffffff">and drain verifies bytes</text>
<text text-anchor="start" x="883.5" y="-1665.8" font-family="Arial" font-size="24.00" fill="#ffffff">before tier transition/source</text>
<text text-anchor="start" x="985" y="-1641.8" font-family="Arial" font-size="24.00" fill="#ffffff">cleanup.</text>
</g>
<!-- 26&#45;&gt;32 -->
<g id="54" class="edge">
<title>26&#45;&gt;32</title>
<path fill="none" stroke="#444444" stroke-dasharray="5,2" d="M299.39,-1039.19C335,-1095.7 378.22,-1159.06 423,-1212.5 546.56,-1359.97 705.71,-1508.16 830.04,-1616.47"/>
<polygon fill="#444444" stroke="#444444" points="827.96,-1619.3 837.8,-1623.22 832.55,-1614.02 827.96,-1619.3"/>
<polygon fill="white" stroke="transparent" points="455,-1505.5 455,-1604.5 691,-1604.5 691,-1505.5 455,-1505.5"/>
<text text-anchor="start" x="459" y="-1581.8" font-family="Arial" font-size="24.00" fill="#444444">Writes fetched media</text>
<text text-anchor="start" x="466" y="-1557.8" font-family="Arial" font-size="24.00" fill="#444444">during guarded&#45;root</text>
<text text-anchor="start" x="516" y="-1533.8" font-family="Arial" font-size="24.00" fill="#444444">outages to</text>
<text text-anchor="start" x="521.5" y="-1513.8" font-family="Arial" font-size="19.00" fill="#444444">[Filesystem]</text>
</g>
</g>
</svg>
