<?xml version="1.0" encoding="UTF-8" standalone="no"?>
<!DOCTYPE svg PUBLIC "-//W3C//DTD SVG 1.1//EN"
 "http://www.w3.org/Graphics/SVG/1.1/DTD/svg11.dtd">
<!-- Generated by graphviz version 2.43.0 (0)
 -->
<!-- Title: %3 Pages: 1 -->
<svg width="2169pt" height="1244pt"
 viewBox="0.00 0.00 2169.00 1243.50" xmlns="http://www.w3.org/2000/svg" xmlns:xlink="http://www.w3.org/1999/xlink">
<g id="graph0" class="graph" transform="scale(1 1) rotate(0) translate(4 1239.5)">
<title>%3</title>
<polygon fill="white" stroke="transparent" points="-4,4 -4,-1239.5 2165,-1239.5 2165,4 -4,4"/>
<text text-anchor="start" x="495.5" y="-11.8" font-family="Arial" font-size="34.00">Component View: Browser Memory Daemon &#45; WSL Loopback HTTP Daemon</text>
<g id="clust1" class="cluster">
<title>cluster_4</title>
<polygon fill="none" stroke="#444444" points="8,-346.5 8,-1227.5 2153,-1227.5 2153,-346.5 8,-346.5"/>
<text text-anchor="start" x="939.5" y="-375.3" font-family="Arial" font-size="24.00" fill="#444444">Browser Memory Daemon</text>
<text text-anchor="start" x="1003.5" y="-355.3" font-family="Arial" font-size="19.00" fill="#444444">[Software System]</text>
</g>
<g id="clust2" class="cluster">
<title>cluster_14</title>
<polygon fill="none" stroke="#444444" points="33,-446.5 33,-1202.5 2128,-1202.5 2128,-446.5 33,-446.5"/>
<text text-anchor="start" x="915" y="-475.3" font-family="Arial" font-size="24.00" fill="#444444">WSL Loopback HTTP Daemon</text>
<text text-anchor="start" x="878.5" y="-455.3" font-family="Arial" font-size="19.00" fill="#444444">[Container: Python 3.11, ThreadingHTTPServer]</text>
</g>
<!-- 3 -->
<g id="3" class="node">
<title>3</title>
<polygon fill="#999999" stroke="#6b6b6b" points="2093.5,-321 1690.5,-321 1690.5,-56 2093.5,-56 2093.5,-321"/>
<text text-anchor="start" x="1730.5" y="-272.8" font-family="Arial" font-size="34.00" fill="#ffffff">Web Sites and Media</text>
<text text-anchor="start" x="1838" y="-238.8" font-family="Arial" font-size="34.00" fill="#ffffff">Origins</text>
<text text-anchor="start" x="1815" y="-216.8" font-family="Arial" font-size="19.00" fill="#ffffff">[Software System]</text>
<text text-anchor="start" x="1782" y="-179.8" font-family="Arial" font-size="24.00" fill="#ffffff">External web pages,</text>
<text text-anchor="start" x="1729.5" y="-155.8" font-family="Arial" font-size="24.00" fill="#ffffff">image/video URLs, and media</text>
<text text-anchor="start" x="1719.5" y="-131.8" font-family="Arial" font-size="24.00" fill="#ffffff">CDNs that Chrome loads or that</text>
<text text-anchor="start" x="1729.5" y="-107.8" font-family="Arial" font-size="24.00" fill="#ffffff">sidecars fetch as page&#45;related</text>
<text text-anchor="start" x="1855.5" y="-83.8" font-family="Arial" font-size="24.00" fill="#ffffff">media.</text>
</g>
<!-- 21 -->
<g id="21" class="node">
<title>21</title>
<polygon fill="#85bbf0" stroke="#1168bd" points="479,-957 58,-957 58,-620 479,-620 479,-957"/>
<text text-anchor="start" x="165" y="-908.8" font-family="Arial" font-size="34.00" fill="#000000">Media Artifact</text>
<text text-anchor="start" x="201.5" y="-874.8" font-family="Arial" font-size="34.00" fill="#000000">Manager</text>
<text text-anchor="start" x="87" y="-852.8" font-family="Arial" font-size="19.00" fill="#000000">[Component: Python + sqlite3 + filesystem]</text>
<text text-anchor="start" x="131.5" y="-815.8" font-family="Arial" font-size="24.00" fill="#000000">Provides the compatibility</text>
<text text-anchor="start" x="101.5" y="-791.8" font-family="Arial" font-size="24.00" fill="#000000">API, records media references,</text>
<text text-anchor="start" x="133" y="-767.8" font-family="Arial" font-size="24.00" fill="#000000">normalizes bounded blob</text>
<text text-anchor="start" x="118.5" y="-743.8" font-family="Arial" font-size="24.00" fill="#000000">uploads, delegates guarded</text>
<text text-anchor="start" x="122" y="-719.8" font-family="Arial" font-size="24.00" fill="#000000">public transport, and drains</text>
<text text-anchor="start" x="123" y="-695.8" font-family="Arial" font-size="24.00" fill="#000000">verified spool bytes without</text>
<text text-anchor="start" x="115" y="-671.8" font-family="Arial" font-size="24.00" fill="#000000">coupling text ingest to media</text>
<text text-anchor="start" x="210" y="-647.8" font-family="Arial" font-size="24.00" fill="#000000">availability.</text>
</g>
<!-- 24 -->
<g id="24" class="node">
<title>24</title>
<polygon fill="#85bbf0" stroke="#1168bd" points="1253,-850 834,-850 834,-547 1253,-547 1253,-850"/>
<text text-anchor="start" x="894.5" y="-801.8" font-family="Arial" font-size="34.00" fill="#000000">Media Artifact Store</text>
<text text-anchor="start" x="863" y="-779.8" font-family="Arial" font-size="19.00" fill="#000000">[Component: Python + sqlite3 + BlobStore]</text>
<text text-anchor="start" x="900.5" y="-742.8" font-family="Arial" font-size="24.00" fill="#000000">Owns artifact rows, unique</text>
<text text-anchor="start" x="942.5" y="-718.8" font-family="Arial" font-size="24.00" fill="#000000">staged publication,</text>
<text text-anchor="start" x="902.5" y="-694.8" font-family="Arial" font-size="24.00" fill="#000000">failed&#45;write compensation,</text>
<text text-anchor="start" x="918" y="-670.8" font-family="Arial" font-size="24.00" fill="#000000">contained reads, cache</text>
<text text-anchor="start" x="926" y="-646.8" font-family="Arial" font-size="24.00" fill="#000000">admission, oldest&#45;first</text>
<text text-anchor="start" x="897" y="-622.8" font-family="Arial" font-size="24.00" fill="#000000">eviction, purge/rehydration,</text>
<text text-anchor="start" x="977" y="-598.8" font-family="Arial" font-size="24.00" fill="#000000">and lifecycle</text>
<text text-anchor="start" x="914" y="-574.8" font-family="Arial" font-size="24.00" fill="#000000">registration/tombstones.</text>
</g>
<!-- 21&#45;&gt;24 -->
<g id="95" class="edge">
<title>21&#45;&gt;24</title>
<path fill="none" stroke="#444444" stroke-dasharray="5,2" d="M479.19,-764.09C585.96,-751.65 715.67,-736.55 823.7,-723.98"/>
<polygon fill="#444444" stroke="#444444" points="824.22,-727.44 833.75,-722.8 823.41,-720.48 824.22,-727.44"/>
<polygon fill="white" stroke="transparent" points="527.5,-758.5 527.5,-844.5 785.5,-844.5 785.5,-758.5 527.5,-758.5"/>
<text text-anchor="start" x="549" y="-821.3" font-family="Arial" font-size="24.00" fill="#444444">Publishes, resolves,</text>
<text text-anchor="start" x="531.5" y="-795.3" font-family="Arial" font-size="24.00" fill="#444444">purges, and rehydrates</text>
<text text-anchor="start" x="569" y="-769.3" font-family="Arial" font-size="24.00" fill="#444444">artifacts through</text>
</g>
<!-- 25 -->
<g id="25" class="node">
<title>25</title>
<polygon fill="#85bbf0" stroke="#1168bd" points="1248.5,-1177 838.5,-1177 838.5,-922 1248.5,-922 1248.5,-1177"/>
<text text-anchor="start" x="879" y="-1128.8" font-family="Arial" font-size="34.00" fill="#000000">Guarded Media Fetch</text>
<text text-anchor="start" x="867.5" y="-1106.8" font-family="Arial" font-size="19.00" fill="#000000">[Component: Python stdlib urllib + socket]</text>
<text text-anchor="start" x="896" y="-1069.8" font-family="Arial" font-size="24.00" fill="#000000">Owns HTTP/data transport,</text>
<text text-anchor="start" x="906.5" y="-1045.8" font-family="Arial" font-size="24.00" fill="#000000">public&#45;address validation,</text>
<text text-anchor="start" x="934" y="-1021.8" font-family="Arial" font-size="24.00" fill="#000000">redirect revalidation,</text>
<text text-anchor="start" x="932" y="-997.8" font-family="Arial" font-size="24.00" fill="#000000">no&#45;referrer requests,</text>
<text text-anchor="start" x="908.5" y="-973.8" font-family="Arial" font-size="24.00" fill="#000000">response&#45;byte limits, and</text>
<text text-anchor="start" x="947.5" y="-949.8" font-family="Arial" font-size="24.00" fill="#000000">shared deadlines.</text>
</g>
<!-- 21&#45;&gt;25 -->
<g id="96" class="edge">
<title>21&#45;&gt;25</title>
<path fill="none" stroke="#444444" stroke-dasharray="5,2" d="M479.19,-859.3C587.7,-895.94 719.89,-940.57 828.95,-977.39"/>
<polygon fill="#444444" stroke="#444444" points="827.83,-980.71 838.42,-980.59 830.07,-974.08 827.83,-980.71"/>
<polygon fill="white" stroke="transparent" points="515,-964.5 515,-1024.5 798,-1024.5 798,-964.5 515,-964.5"/>
<text text-anchor="start" x="519.5" y="-1001.3" font-family="Arial" font-size="24.00" fill="#444444">Delegates daemon&#45;public</text>
<text text-anchor="start" x="559" y="-975.3" font-family="Arial" font-size="24.00" fill="#444444">media transport to</text>
</g>
<!-- 25&#45;&gt;3 -->
<g id="106" class="edge">
<title>25&#45;&gt;3</title>
<path fill="none" stroke="#444444" stroke-dasharray="5,2" d="M1224.27,-921.74C1234.75,-910.53 1244.47,-898.76 1253,-886.5 1283.1,-843.23 1261.27,-818.32 1289,-773.5 1398.2,-597.01 1572.2,-435.84 1705.12,-327.57"/>
<polygon fill="#444444" stroke="#444444" points="1707.45,-330.18 1713.01,-321.16 1703.04,-324.74 1707.45,-330.18"/>
<polygon fill="white" stroke="transparent" points="1289,-773.5 1289,-848.5 1645,-848.5 1645,-773.5 1289,-773.5"/>
<text text-anchor="start" x="1352" y="-825.8" font-family="Arial" font-size="24.00" fill="#444444">Validates and fetches</text>
<text text-anchor="start" x="1371" y="-801.8" font-family="Arial" font-size="24.00" fill="#444444">public media from</text>
<text text-anchor="start" x="1293" y="-781.8" font-family="Arial" font-size="19.00" fill="#444444">[HTTP(S), no Referer or Chrome cookies]</text>
</g>
<!-- 26 -->
<g id="26" class="node">
<title>26</title>
<polygon fill="#85bbf0" stroke="#1168bd" points="2103,-1116 1681,-1116 1681,-861 2103,-861 2103,-1116"/>
<text text-anchor="start" x="1710" y="-1067.8" font-family="Arial" font-size="34.00" fill="#000000">Bounded HLS Transport</text>
<text text-anchor="start" x="1803" y="-1045.8" font-family="Arial" font-size="19.00" fill="#000000">[Component: Python]</text>
<text text-anchor="start" x="1754" y="-1008.8" font-family="Arial" font-size="24.00" fill="#000000">Parses bounded playlists,</text>
<text text-anchor="start" x="1737" y="-984.8" font-family="Arial" font-size="24.00" fill="#000000">selects variants, expands init</text>
<text text-anchor="start" x="1741.5" y="-960.8" font-family="Arial" font-size="24.00" fill="#000000">maps/segments through the</text>
<text text-anchor="start" x="1737" y="-936.8" font-family="Arial" font-size="24.00" fill="#000000">guarded fetch boundary, and</text>
<text text-anchor="start" x="1767.5" y="-912.8" font-family="Arial" font-size="24.00" fill="#000000">assembles bytes within</text>
<text text-anchor="start" x="1734" y="-888.8" font-family="Arial" font-size="24.00" fill="#000000">depth/request/deadline limits.</text>
</g>
<!-- 25&#45;&gt;26 -->
<g id="105" class="edge">
<title>25&#45;&gt;26</title>
<path fill="none" stroke="#444444" stroke-dasharray="5,2" d="M1220.9,-921.95C1243,-910.78 1265.95,-901.19 1289,-894.5 1440.95,-850.39 1489.41,-865.79 1645,-894.5 1653.58,-896.08 1662.24,-897.95 1670.93,-900.05"/>
<polygon fill="#444444" stroke="#444444" points="1670.2,-903.48 1680.75,-902.53 1671.9,-896.69 1670.2,-903.48"/>
<polygon fill="white" stroke="transparent" points="1331.5,-894.5 1331.5,-980.5 1602.5,-980.5 1602.5,-894.5 1331.5,-894.5"/>
<text text-anchor="start" x="1363" y="-957.3" font-family="Arial" font-size="24.00" fill="#444444">Delegates detected</text>
<text text-anchor="start" x="1356" y="-931.3" font-family="Arial" font-size="24.00" fill="#444444">playlists for bounded</text>
<text text-anchor="start" x="1336" y="-905.3" font-family="Arial" font-size="24.00" fill="#444444">parsing and assembly to</text>
</g>
<!-- 26&#45;&gt;25 -->
<g id="108" class="edge">
<title>26&#45;&gt;25</title>
<path fill="none" stroke="#444444" stroke-dasharray="5,2" d="M1680.96,-1003.64C1552.3,-1012.91 1388.06,-1024.74 1258.65,-1034.07"/>
<polygon fill="#444444" stroke="#444444" points="1258.33,-1030.58 1248.6,-1034.79 1258.83,-1037.56 1258.33,-1030.58"/>
<polygon fill="white" stroke="transparent" points="1343.5,-1030.5 1343.5,-1116.5 1590.5,-1116.5 1590.5,-1030.5 1343.5,-1030.5"/>
<text text-anchor="start" x="1348" y="-1093.3" font-family="Arial" font-size="24.00" fill="#444444">Fetches every variant,</text>
<text text-anchor="start" x="1348" y="-1067.3" font-family="Arial" font-size="24.00" fill="#444444">init map, and segment</text>
<text text-anchor="start" x="1426" y="-1041.3" font-family="Arial" font-size="24.00" fill="#444444">through</text>
</g>
</g>
</svg>
