<?xml version="1.0" encoding="UTF-8" standalone="no"?>
<!DOCTYPE svg PUBLIC "-//W3C//DTD SVG 1.1//EN"
 "http://www.w3.org/Graphics/SVG/1.1/DTD/svg11.dtd">
<!-- Generated by graphviz version 2.43.0 (0)
 -->
<!-- Title: %3 Pages: 1 -->
<svg width="2224pt" height="778pt"
 viewBox="0.00 0.00 2224.00 778.00" xmlns="http://www.w3.org/2000/svg" xmlns:xlink="http://www.w3.org/1999/xlink">
<g id="graph0" class="graph" transform="scale(1 1) rotate(0) translate(4 774)">
<title>%3</title>
<polygon fill="white" stroke="transparent" points="-4,4 -4,-774 2220,-774 2220,4 -4,4"/>
<text text-anchor="start" x="523" y="-11.8" font-family="Arial" font-size="34.00">Component View: Browser Memory Daemon &#45; WSL Loopback HTTP Daemon</text>
<g id="clust1" class="cluster">
<title>cluster_4</title>
<polygon fill="none" stroke="#444444" points="8,-64 8,-762 2208,-762 2208,-64 8,-64"/>
<text text-anchor="start" x="967" y="-92.8" font-family="Arial" font-size="24.00" fill="#444444">Browser Memory Daemon</text>
<text text-anchor="start" x="1031" y="-72.8" font-family="Arial" font-size="19.00" fill="#444444">[Software System]</text>
</g>
<g id="clust2" class="cluster">
<title>cluster_22</title>
<polygon fill="none" stroke="#444444" points="33,-164 33,-737 1448,-737 1448,-164 33,-164"/>
<text text-anchor="start" x="575" y="-192.8" font-family="Arial" font-size="24.00" fill="#444444">WSL Loopback HTTP Daemon</text>
<text text-anchor="start" x="538.5" y="-172.8" font-family="Arial" font-size="19.00" fill="#444444">[Container: Python 3.11, ThreadingHTTPServer]</text>
</g>
<!-- 23 -->
<g id="23" class="node">
<title>23</title>
<polygon fill="#85bbf0" stroke="#1168bd" points="552,-711.5 58,-711.5 58,-264.5 552,-264.5 552,-711.5"/>
<text text-anchor="start" x="136.5" y="-663.3" font-family="Arial" font-size="34.00" fill="#000000">HTTP Request Router</text>
<text text-anchor="start" x="87" y="-641.3" font-family="Arial" font-size="19.00" fill="#000000">[Component: Python http.server + route descriptors]</text>
<text text-anchor="start" x="129" y="-604.3" font-family="Arial" font-size="24.00" fill="#000000">Matches immutable method/path</text>
<text text-anchor="start" x="189" y="-580.3" font-family="Arial" font-size="24.00" fill="#000000">descriptors with static</text>
<text text-anchor="start" x="172" y="-556.3" font-family="Arial" font-size="24.00" fill="#000000">precedence, maps typed</text>
<text text-anchor="start" x="166" y="-532.3" font-family="Arial" font-size="24.00" fill="#000000">compatible errors, applies</text>
<text text-anchor="start" x="125.5" y="-508.3" font-family="Arial" font-size="24.00" fill="#000000">opaque request IDs and common</text>
<text text-anchor="start" x="180" y="-484.3" font-family="Arial" font-size="24.00" fill="#000000">security headers, emits</text>
<text text-anchor="start" x="228" y="-460.3" font-family="Arial" font-size="24.00" fill="#000000">redaction&#45;safe</text>
<text text-anchor="start" x="199.5" y="-436.3" font-family="Arial" font-size="24.00" fill="#000000">route/status/latency</text>
<text text-anchor="start" x="156.5" y="-412.3" font-family="Arial" font-size="24.00" fill="#000000">telemetry, streams media in</text>
<text text-anchor="start" x="130" y="-388.3" font-family="Arial" font-size="24.00" fill="#000000">bounded chunks with disconnect</text>
<text text-anchor="start" x="163" y="-364.3" font-family="Arial" font-size="24.00" fill="#000000">cleanup, serves UI assets,</text>
<text text-anchor="start" x="175" y="-340.3" font-family="Arial" font-size="24.00" fill="#000000">enforces bearer auth for</text>
<text text-anchor="start" x="128" y="-316.3" font-family="Arial" font-size="24.00" fill="#000000">memory/admin APIs, and applies</text>
<text text-anchor="start" x="166" y="-292.3" font-family="Arial" font-size="24.00" fill="#000000">CORS for allowed origins.</text>
</g>
<!-- 27 -->
<g id="27" class="node">
<title>27</title>
<polygon fill="#85bbf0" stroke="#1168bd" points="1423,-643.5 914,-643.5 914,-316.5 1423,-316.5 1423,-643.5"/>
<text text-anchor="start" x="1057" y="-595.3" font-family="Arial" font-size="34.00" fill="#000000">Ingest Pipeline</text>
<text text-anchor="start" x="1040.5" y="-573.3" font-family="Arial" font-size="19.00" fill="#000000">[Component: Python + sqlite3]</text>
<text text-anchor="start" x="1018" y="-536.3" font-family="Arial" font-size="24.00" fill="#000000">Normalizes observed URLs,</text>
<text text-anchor="start" x="1006.5" y="-512.3" font-family="Arial" font-size="24.00" fill="#000000">computes document/snapshot</text>
<text text-anchor="start" x="1053.5" y="-488.3" font-family="Arial" font-size="24.00" fill="#000000">IDs, atomically stores</text>
<text text-anchor="start" x="1025" y="-464.3" font-family="Arial" font-size="24.00" fill="#000000">complete cleaned text plus</text>
<text text-anchor="start" x="943" y="-440.3" font-family="Arial" font-size="24.00" fill="#000000">visits/observations/snapshots/chunks/FTS</text>
<text text-anchor="start" x="1095.5" y="-416.3" font-family="Arial" font-size="24.00" fill="#000000">rows, records</text>
<text text-anchor="start" x="1010" y="-392.3" font-family="Arial" font-size="24.00" fill="#000000">non&#45;authoritative URL claims,</text>
<text text-anchor="start" x="1023.5" y="-368.3" font-family="Arial" font-size="24.00" fill="#000000">and links media references</text>
<text text-anchor="start" x="1007.5" y="-344.3" font-family="Arial" font-size="24.00" fill="#000000">without touching blob storage.</text>
</g>
<!-- 23&#45;&gt;27 -->
<g id="116" class="edge">
<title>23&#45;&gt;27</title>
<path fill="none" stroke="#444444" stroke-dasharray="5,2" d="M552.01,-485.72C661.95,-484.69 791.7,-483.49 903.66,-482.45"/>
<polygon fill="#444444" stroke="#444444" points="903.78,-485.95 913.75,-482.36 903.72,-478.95 903.78,-485.95"/>
<polygon fill="white" stroke="transparent" points="588,-485 588,-545 878,-545 878,-485 588,-485"/>
<text text-anchor="start" x="592" y="-521.8" font-family="Arial" font-size="24.00" fill="#444444">Routes accepted captures</text>
<text text-anchor="start" x="722.5" y="-495.8" font-family="Arial" font-size="24.00" fill="#444444">to</text>
</g>
<!-- 47 -->
<g id="47" class="node">
<title>47</title>
<path fill="#2f95c8" stroke="#20688c" d="M2183,-686.22C2183,-714.44 2094.48,-737.38 1985.5,-737.38 1876.52,-737.38 1788,-714.44 1788,-686.22 1788,-686.22 1788,-225.78 1788,-225.78 1788,-197.56 1876.52,-174.62 1985.5,-174.62 2094.48,-174.62 2183,-197.56 2183,-225.78 2183,-225.78 2183,-686.22 2183,-686.22"/>
<path fill="none" stroke="#20688c" d="M2183,-686.22C2183,-657.99 2094.48,-635.06 1985.5,-635.06 1876.52,-635.06 1788,-657.99 1788,-686.22"/>
<text text-anchor="start" x="1872.5" y="-612.3" font-family="Arial" font-size="34.00" fill="#ffffff">SQLite + FTS5</text>
<text text-anchor="start" x="1912.5" y="-578.3" font-family="Arial" font-size="34.00" fill="#ffffff">Database</text>
<text text-anchor="start" x="1859.5" y="-556.3" font-family="Arial" font-size="19.00" fill="#ffffff">[Container: SQLite with FTS5]</text>
<text text-anchor="start" x="1817.5" y="-519.3" font-family="Arial" font-size="24.00" fill="#ffffff">Durable complete cleaned&#45;text,</text>
<text text-anchor="start" x="1866.5" y="-495.3" font-family="Arial" font-size="24.00" fill="#ffffff">relational, and full&#45;text</text>
<text text-anchor="start" x="1868" y="-471.3" font-family="Arial" font-size="24.00" fill="#ffffff">authority for migration</text>
<text text-anchor="start" x="1833.5" y="-447.3" font-family="Arial" font-size="24.00" fill="#ffffff">ledger, sources, documents,</text>
<text text-anchor="start" x="1836" y="-423.3" font-family="Arial" font-size="24.00" fill="#ffffff">visits, capture observations,</text>
<text text-anchor="start" x="1854.5" y="-399.3" font-family="Arial" font-size="24.00" fill="#ffffff">URL claims, visit events,</text>
<text text-anchor="start" x="1817" y="-375.3" font-family="Arial" font-size="24.00" fill="#ffffff">snapshots, chunks, chunks_fts,</text>
<text text-anchor="start" x="1824.5" y="-351.3" font-family="Arial" font-size="24.00" fill="#ffffff">media provenance/tasks, blob</text>
<text text-anchor="start" x="1861" y="-327.3" font-family="Arial" font-size="24.00" fill="#ffffff">lifecycle records, policy</text>
<text text-anchor="start" x="1860" y="-303.3" font-family="Arial" font-size="24.00" fill="#ffffff">rules, audit events, and</text>
<text text-anchor="start" x="1893.5" y="-279.3" font-family="Arial" font-size="24.00" fill="#ffffff">deletion receipts.</text>
</g>
<!-- 27&#45;&gt;47 -->
<g id="124" class="edge">
<title>27&#45;&gt;47</title>
<path fill="none" stroke="#444444" stroke-dasharray="5,2" d="M1423.18,-472.53C1537.13,-469.17 1669.89,-465.26 1777.68,-462.09"/>
<polygon fill="#444444" stroke="#444444" points="1777.8,-465.59 1787.7,-461.8 1777.6,-458.59 1777.8,-465.59"/>
<polygon fill="white" stroke="transparent" points="1459,-470 1459,-569 1752,-569 1752,-470 1459,-470"/>
<text text-anchor="start" x="1463.5" y="-546.3" font-family="Arial" font-size="24.00" fill="#444444">Atomically writes complete</text>
<text text-anchor="start" x="1493" y="-522.3" font-family="Arial" font-size="24.00" fill="#444444">cleaned text, capture</text>
<text text-anchor="start" x="1513.5" y="-498.3" font-family="Arial" font-size="24.00" fill="#444444">rows, and FTS to</text>
<text text-anchor="start" x="1572.5" y="-478.3" font-family="Arial" font-size="19.00" fill="#444444">[sqlite3]</text>
</g>
</g>
</svg>
