<?xml version="1.0" encoding="UTF-8" standalone="no"?>
<!DOCTYPE svg PUBLIC "-//W3C//DTD SVG 1.1//EN"
 "http://www.w3.org/Graphics/SVG/1.1/DTD/svg11.dtd">
<!-- Generated by graphviz version 2.43.0 (0)
 -->
<!-- Title: %3 Pages: 1 -->
<svg width="3025pt" height="2312pt"
 viewBox="0.00 0.00 3025.00 2312.00" xmlns="http://www.w3.org/2000/svg" xmlns:xlink="http://www.w3.org/1999/xlink">
<g id="graph0" class="graph" transform="scale(1 1) rotate(0) translate(4 2308)">
<title>%3</title>
<polygon fill="white" stroke="transparent" points="-4,4 -4,-2308 3021,-2308 3021,4 -4,4"/>
<text text-anchor="start" x="923.5" y="-11.8" font-family="Arial" font-size="34.00">Component View: Browser Memory Daemon &#45; WSL Loopback HTTP Daemon</text>
<g id="clust1" class="cluster">
<title>cluster_4</title>
<polygon fill="none" stroke="#444444" points="8,-64 8,-2296 3009,-2296 3009,-64 8,-64"/>
<text text-anchor="start" x="1367.5" y="-92.8" font-family="Arial" font-size="24.00" fill="#444444">Browser Memory Daemon</text>
<text text-anchor="start" x="1431.5" y="-72.8" font-family="Arial" font-size="19.00" fill="#444444">[Software System]</text>
</g>
<g id="clust2" class="cluster">
<title>cluster_14</title>
<polygon fill="none" stroke="#444444" points="33,-164 33,-603 2218,-603 2218,-164 33,-164"/>
<text text-anchor="start" x="960" y="-192.8" font-family="Arial" font-size="24.00" fill="#444444">WSL Loopback HTTP Daemon</text>
<text text-anchor="start" x="923.5" y="-172.8" font-family="Arial" font-size="19.00" fill="#444444">[Container: Python 3.11, ThreadingHTTPServer]</text>
</g>
<!-- 15 -->
<g id="15" class="node">
<title>15</title>
<polygon fill="#85bbf0" stroke="#1168bd" points="453,-553.5 58,-553.5 58,-322.5 453,-322.5 453,-553.5"/>
<text text-anchor="start" x="87" y="-505.3" font-family="Arial" font-size="34.00" fill="#000000">HTTP Request Router</text>
<text text-anchor="start" x="119" y="-483.3" font-family="Arial" font-size="19.00" fill="#000000">[Component: Python http.server]</text>
<text text-anchor="start" x="90" y="-446.3" font-family="Arial" font-size="24.00" fill="#000000">Routes loopback API requests,</text>
<text text-anchor="start" x="112.5" y="-422.3" font-family="Arial" font-size="24.00" fill="#000000">serves UI assets, enforces</text>
<text text-anchor="start" x="91.5" y="-398.3" font-family="Arial" font-size="24.00" fill="#000000">bearer auth for memory/admin</text>
<text text-anchor="start" x="106" y="-374.3" font-family="Arial" font-size="24.00" fill="#000000">APIs, and applies CORS for</text>
<text text-anchor="start" x="172" y="-350.3" font-family="Arial" font-size="24.00" fill="#000000">allowed origins.</text>
</g>
<!-- 32 -->
<g id="32" class="node">
<title>32</title>
<polygon fill="#85bbf0" stroke="#1168bd" points="1178,-577.5 789,-577.5 789,-298.5 1178,-298.5 1178,-577.5"/>
<text text-anchor="start" x="821.5" y="-529.3" font-family="Arial" font-size="34.00" fill="#000000">Ops Doctor and Audit</text>
<text text-anchor="start" x="855.5" y="-507.3" font-family="Arial" font-size="19.00" fill="#000000">[Component: Python + sqlite3]</text>
<text text-anchor="start" x="833" y="-470.3" font-family="Arial" font-size="24.00" fill="#000000">Reports health, DB integrity,</text>
<text text-anchor="start" x="865" y="-446.3" font-family="Arial" font-size="24.00" fill="#000000">FTS consistency, blob</text>
<text text-anchor="start" x="848" y="-422.3" font-family="Arial" font-size="24.00" fill="#000000">lifecycle/pending deletion</text>
<text text-anchor="start" x="829.5" y="-398.3" font-family="Arial" font-size="24.00" fill="#000000">state, runtime paths, storage</text>
<text text-anchor="start" x="831.5" y="-374.3" font-family="Arial" font-size="24.00" fill="#000000">counts, media queue status,</text>
<text text-anchor="start" x="818" y="-350.3" font-family="Arial" font-size="24.00" fill="#000000">and writes metadata&#45;only audit</text>
<text text-anchor="start" x="890.5" y="-326.3" font-family="Arial" font-size="24.00" fill="#000000">events to SQLite.</text>
</g>
<!-- 15&#45;&gt;32 -->
<g id="91" class="edge">
<title>15&#45;&gt;32</title>
<path fill="none" stroke="#444444" stroke-dasharray="5,2" d="M453.44,-438C554.33,-438 677.03,-438 778.85,-438"/>
<polygon fill="#444444" stroke="#444444" points="778.95,-441.5 788.95,-438 778.95,-434.5 778.95,-441.5"/>
<polygon fill="white" stroke="transparent" points="489,-438 489,-498 753,-498 753,-438 489,-438"/>
<text text-anchor="start" x="493" y="-474.8" font-family="Arial" font-size="24.00" fill="#444444">Routes health and audit</text>
<text text-anchor="start" x="581.5" y="-448.8" font-family="Arial" font-size="24.00" fill="#444444">work to</text>
</g>
<!-- 29 -->
<g id="29" class="node">
<title>29</title>
<polygon fill="#85bbf0" stroke="#1168bd" points="2193,-577.5 1560,-577.5 1560,-264.5 2193,-264.5 2193,-577.5"/>
<text text-anchor="start" x="1738" y="-529.3" font-family="Arial" font-size="34.00" fill="#000000">Blob Lifecycle and</text>
<text text-anchor="start" x="1732" y="-495.3" font-family="Arial" font-size="34.00" fill="#000000">Storage Reconciler</text>
<text text-anchor="start" x="1695" y="-473.3" font-family="Arial" font-size="19.00" fill="#000000">[Component: Python + sqlite3 + filesystem]</text>
<text text-anchor="start" x="1833.5" y="-436.3" font-family="Arial" font-size="24.00" fill="#000000">Persists</text>
<text text-anchor="start" x="1589" y="-412.3" font-family="Arial" font-size="24.00" fill="#000000">committed/tombstoned/missing/deleted/blocked/failed</text>
<text text-anchor="start" x="1766.5" y="-388.3" font-family="Arial" font-size="24.00" fill="#000000">blob state; serializes</text>
<text text-anchor="start" x="1730.5" y="-364.3" font-family="Arial" font-size="24.00" fill="#000000">deletion processors; retries</text>
<text text-anchor="start" x="1744.5" y="-340.3" font-family="Arial" font-size="24.00" fill="#000000">tombstones; and dry&#45;run</text>
<text text-anchor="start" x="1728" y="-316.3" font-family="Arial" font-size="24.00" fill="#000000">detects missing refs, in&#45;root</text>
<text text-anchor="start" x="1734" y="-292.3" font-family="Arial" font-size="24.00" fill="#000000">orphans, and stale stages.</text>
</g>
<!-- 37 -->
<g id="37" class="node">
<title>37</title>
<path fill="#2f95c8" stroke="#20688c" d="M2984,-857.22C2984,-885.44 2895.48,-908.38 2786.5,-908.38 2677.52,-908.38 2589,-885.44 2589,-857.22 2589,-857.22 2589,-396.78 2589,-396.78 2589,-368.56 2677.52,-345.62 2786.5,-345.62 2895.48,-345.62 2984,-368.56 2984,-396.78 2984,-396.78 2984,-857.22 2984,-857.22"/>
<path fill="none" stroke="#20688c" d="M2984,-857.22C2984,-828.99 2895.48,-806.06 2786.5,-806.06 2677.52,-806.06 2589,-828.99 2589,-857.22"/>
<text text-anchor="start" x="2673.5" y="-783.3" font-family="Arial" font-size="34.00" fill="#ffffff">SQLite + FTS5</text>
<text text-anchor="start" x="2713.5" y="-749.3" font-family="Arial" font-size="34.00" fill="#ffffff">Database</text>
<text text-anchor="start" x="2660.5" y="-727.3" font-family="Arial" font-size="19.00" fill="#ffffff">[Container: SQLite with FTS5]</text>
<text text-anchor="start" x="2618.5" y="-690.3" font-family="Arial" font-size="24.00" fill="#ffffff">Durable complete cleaned&#45;text,</text>
<text text-anchor="start" x="2667.5" y="-666.3" font-family="Arial" font-size="24.00" fill="#ffffff">relational, and full&#45;text</text>
<text text-anchor="start" x="2669" y="-642.3" font-family="Arial" font-size="24.00" fill="#ffffff">authority for migration</text>
<text text-anchor="start" x="2634.5" y="-618.3" font-family="Arial" font-size="24.00" fill="#ffffff">ledger, sources, documents,</text>
<text text-anchor="start" x="2637" y="-594.3" font-family="Arial" font-size="24.00" fill="#ffffff">visits, capture observations,</text>
<text text-anchor="start" x="2655.5" y="-570.3" font-family="Arial" font-size="24.00" fill="#ffffff">URL claims, visit events,</text>
<text text-anchor="start" x="2618" y="-546.3" font-family="Arial" font-size="24.00" fill="#ffffff">snapshots, chunks, chunks_fts,</text>
<text text-anchor="start" x="2625.5" y="-522.3" font-family="Arial" font-size="24.00" fill="#ffffff">media provenance/tasks, blob</text>
<text text-anchor="start" x="2662" y="-498.3" font-family="Arial" font-size="24.00" fill="#ffffff">lifecycle records, policy</text>
<text text-anchor="start" x="2661" y="-474.3" font-family="Arial" font-size="24.00" fill="#ffffff">rules, audit events, and</text>
<text text-anchor="start" x="2694.5" y="-450.3" font-family="Arial" font-size="24.00" fill="#ffffff">deletion receipts.</text>
</g>
<!-- 29&#45;&gt;37 -->
<g id="119" class="edge">
<title>29&#45;&gt;37</title>
<path fill="none" stroke="#444444" stroke-dasharray="5,2" d="M2193.16,-492.62C2321.02,-521.62 2465.07,-554.3 2579.1,-580.17"/>
<polygon fill="#444444" stroke="#444444" points="2578.46,-583.62 2588.99,-582.42 2580.01,-576.79 2578.46,-583.62"/>
<polygon fill="white" stroke="transparent" points="2229,-571 2229,-646 2553,-646 2553,-571 2229,-571"/>
<text text-anchor="start" x="2233" y="-623.3" font-family="Arial" font-size="24.00" fill="#444444">Reads and advances durable</text>
<text text-anchor="start" x="2265" y="-599.3" font-family="Arial" font-size="24.00" fill="#444444">blob lifecycle records in</text>
<text text-anchor="start" x="2357.5" y="-579.3" font-family="Arial" font-size="19.00" fill="#444444">[sqlite3]</text>
</g>
<!-- 32&#45;&gt;29 -->
<g id="125" class="edge">
<title>32&#45;&gt;29</title>
<path fill="none" stroke="#444444" stroke-dasharray="5,2" d="M1178.23,-384.57C1190.27,-382.38 1202.27,-380.48 1214,-379 1322.91,-365.22 1442.51,-367.55 1549.71,-375.89"/>
<polygon fill="#444444" stroke="#444444" points="1549.46,-379.38 1559.71,-376.68 1550.02,-372.4 1549.46,-379.38"/>
<polygon fill="white" stroke="transparent" points="1214,-379 1214,-439 1524,-439 1524,-379 1214,-379"/>
<text text-anchor="start" x="1218" y="-415.8" font-family="Arial" font-size="24.00" fill="#444444">Reads pending deletion and</text>
<text text-anchor="start" x="1262" y="-389.8" font-family="Arial" font-size="24.00" fill="#444444">lifecycle health from</text>
</g>
<!-- 32&#45;&gt;37 -->
<g id="124" class="edge">
<title>32&#45;&gt;37</title>
<path fill="none" stroke="#444444" stroke-dasharray="5,2" d="M1178.24,-509.04C1288.62,-546.51 1430.36,-589.65 1560,-614 1994.3,-695.59 2112.48,-698.83 2553,-664 2561.42,-663.33 2569.99,-662.53 2578.65,-661.63"/>
<polygon fill="#444444" stroke="#444444" points="2579.27,-665.08 2588.83,-660.52 2578.51,-658.12 2579.27,-665.08"/>
<polygon fill="white" stroke="transparent" points="1762.5,-685 1762.5,-760 1990.5,-760 1990.5,-685 1762.5,-685"/>
<text text-anchor="start" x="1766.5" y="-737.3" font-family="Arial" font-size="24.00" fill="#444444">Checks integrity and</text>
<text text-anchor="start" x="1828" y="-713.3" font-family="Arial" font-size="24.00" fill="#444444">counts in</text>
<text text-anchor="start" x="1843" y="-693.3" font-family="Arial" font-size="19.00" fill="#444444">[sqlite3]</text>
</g>
<!-- 38 -->
<g id="38" class="node">
<title>38</title>
<path fill="#2f95c8" stroke="#20688c" d="M2074,-1200.22C2074,-1218.51 1985.48,-1233.38 1876.5,-1233.38 1767.52,-1233.38 1679,-1218.51 1679,-1200.22 1679,-1200.22 1679,-901.78 1679,-901.78 1679,-883.49 1767.52,-868.62 1876.5,-868.62 1985.48,-868.62 2074,-883.49 2074,-901.78 2074,-901.78 2074,-1200.22 2074,-1200.22"/>
<path fill="none" stroke="#20688c" d="M2074,-1200.22C2074,-1181.92 1985.48,-1167.06 1876.5,-1167.06 1767.52,-1167.06 1679,-1181.92 1679,-1200.22"/>
<text text-anchor="start" x="1755" y="-1135.3" font-family="Arial" font-size="34.00" fill="#ffffff">Local Derivative</text>
<text text-anchor="start" x="1835.5" y="-1101.3" font-family="Arial" font-size="34.00" fill="#ffffff">Store</text>
<text text-anchor="start" x="1736.5" y="-1079.3" font-family="Arial" font-size="19.00" fill="#ffffff">[Container: WSL local filesystem]</text>
<text text-anchor="start" x="1723" y="-1042.3" font-family="Arial" font-size="24.00" fill="#ffffff">Reconstructible compatibility</text>
<text text-anchor="start" x="1708" y="-1018.3" font-family="Arial" font-size="24.00" fill="#ffffff">evidence such as pre&#45;version&#45;9</text>
<text text-anchor="start" x="1746.5" y="-994.3" font-family="Arial" font-size="24.00" fill="#ffffff">clean&#45;text sidecars; new</text>
<text text-anchor="start" x="1753" y="-970.3" font-family="Arial" font-size="24.00" fill="#ffffff">captures create no text</text>
<text text-anchor="start" x="1828" y="-946.3" font-family="Arial" font-size="24.00" fill="#ffffff">sidecars.</text>
</g>
<!-- 32&#45;&gt;38 -->
<g id="126" class="edge">
<title>32&#45;&gt;38</title>
<path fill="none" stroke="#444444" stroke-dasharray="5,2" d="M1069.04,-577.84C1107.95,-633.82 1157.96,-695.65 1214,-741 1349.76,-850.88 1530.88,-932.25 1669.28,-983.98"/>
<polygon fill="#444444" stroke="#444444" points="1668.15,-987.3 1678.75,-987.5 1670.59,-980.74 1668.15,-987.3"/>
<polygon fill="white" stroke="transparent" points="1240,-922 1240,-973 1498,-973 1498,-922 1240,-922"/>
<text text-anchor="start" x="1244" y="-950.3" font-family="Arial" font-size="24.00" fill="#444444">Counts text blob files in</text>
<text text-anchor="start" x="1317.5" y="-930.3" font-family="Arial" font-size="19.00" fill="#444444">[Filesystem]</text>
</g>
<!-- 39 -->
<g id="39" class="node">
<title>39</title>
<path fill="#2f95c8" stroke="#20688c" d="M2148.5,-1696.22C2148.5,-1717.82 2026.59,-1735.38 1876.5,-1735.38 1726.41,-1735.38 1604.5,-1717.82 1604.5,-1696.22 1604.5,-1696.22 1604.5,-1343.78 1604.5,-1343.78 1604.5,-1322.18 1726.41,-1304.62 1876.5,-1304.62 2026.59,-1304.62 2148.5,-1322.18 2148.5,-1343.78 2148.5,-1343.78 2148.5,-1696.22 2148.5,-1696.22"/>
<path fill="none" stroke="#20688c" d="M2148.5,-1696.22C2148.5,-1674.61 2026.59,-1657.06 1876.5,-1657.06 1726.41,-1657.06 1604.5,-1674.61 1604.5,-1696.22"/>
<text text-anchor="start" x="1721" y="-1628.3" font-family="Arial" font-size="34.00" fill="#ffffff">Guarded Media Blob</text>
<text text-anchor="start" x="1827" y="-1594.3" font-family="Arial" font-size="34.00" fill="#ffffff">Cache</text>
<text text-anchor="start" x="1633.5" y="-1572.3" font-family="Arial" font-size="19.00" fill="#ffffff">[Container: WSL&#45;visible local or NAS&#45;mounted filesystem]</text>
<text text-anchor="start" x="1766.5" y="-1535.3" font-family="Arial" font-size="24.00" fill="#ffffff">Bounded disposable</text>
<text text-anchor="start" x="1711" y="-1511.3" font-family="Arial" font-size="24.00" fill="#ffffff">image/video/audio bytes under</text>
<text text-anchor="start" x="1735" y="-1487.3" font-family="Arial" font-size="24.00" fill="#ffffff">the configured media root;</text>
<text text-anchor="start" x="1762.5" y="-1463.3" font-family="Arial" font-size="24.00" fill="#ffffff">explicit external roots</text>
<text text-anchor="start" x="1777.5" y="-1439.3" font-family="Arial" font-size="24.00" fill="#ffffff">require mount and</text>
<text text-anchor="start" x="1727" y="-1415.3" font-family="Arial" font-size="24.00" fill="#ffffff">identity&#45;marker proof before</text>
<text text-anchor="start" x="1835.5" y="-1391.3" font-family="Arial" font-size="24.00" fill="#ffffff">access.</text>
</g>
<!-- 32&#45;&gt;39 -->
<g id="127" class="edge">
<title>32&#45;&gt;39</title>
<path fill="none" stroke="#444444" stroke-dasharray="5,2" d="M1021.2,-577.71C1056.99,-695.89 1119.88,-865.55 1214,-991 1317.84,-1129.41 1465.97,-1252.34 1595.75,-1344.78"/>
<polygon fill="#444444" stroke="#444444" points="1594.09,-1347.89 1604.27,-1350.83 1598.14,-1342.19 1594.09,-1347.89"/>
<polygon fill="white" stroke="transparent" points="1226.5,-1280 1226.5,-1331 1511.5,-1331 1511.5,-1280 1226.5,-1280"/>
<text text-anchor="start" x="1231" y="-1308.3" font-family="Arial" font-size="24.00" fill="#444444">Counts media blob files in</text>
<text text-anchor="start" x="1318" y="-1288.3" font-family="Arial" font-size="19.00" fill="#444444">[Filesystem]</text>
</g>
<!-- 40 -->
<g id="40" class="node">
<title>40</title>
<path fill="#2f95c8" stroke="#20688c" d="M2069.5,-2228.72C2069.5,-2251.98 1982.99,-2270.88 1876.5,-2270.88 1770.01,-2270.88 1683.5,-2251.98 1683.5,-2228.72 1683.5,-2228.72 1683.5,-1849.28 1683.5,-1849.28 1683.5,-1826.02 1770.01,-1807.12 1876.5,-1807.12 1982.99,-1807.12 2069.5,-1826.02 2069.5,-1849.28 2069.5,-1849.28 2069.5,-2228.72 2069.5,-2228.72"/>
<path fill="none" stroke="#20688c" d="M2069.5,-2228.72C2069.5,-2205.45 1982.99,-2186.56 1876.5,-2186.56 1770.01,-2186.56 1683.5,-2205.45 1683.5,-2228.72"/>
<text text-anchor="start" x="1712.5" y="-2159.3" font-family="Arial" font-size="34.00" fill="#ffffff">Bounded Local Media</text>
<text text-anchor="start" x="1833" y="-2125.3" font-family="Arial" font-size="34.00" fill="#ffffff">Spool</text>
<text text-anchor="start" x="1736.5" y="-2103.3" font-family="Arial" font-size="19.00" fill="#ffffff">[Container: WSL local filesystem]</text>
<text text-anchor="start" x="1724.5" y="-2066.3" font-family="Arial" font-size="24.00" fill="#ffffff">Opt&#45;in durable outage buffer</text>
<text text-anchor="start" x="1728" y="-2042.3" font-family="Arial" font-size="24.00" fill="#ffffff">beneath the local WSL data</text>
<text text-anchor="start" x="1755" y="-2018.3" font-family="Arial" font-size="24.00" fill="#ffffff">root; admission counts</text>
<text text-anchor="start" x="1731" y="-1994.3" font-family="Arial" font-size="24.00" fill="#ffffff">committed files and distinct</text>
<text text-anchor="start" x="1724.5" y="-1970.3" font-family="Arial" font-size="24.00" fill="#ffffff">in&#45;flight SQLite reservations,</text>
<text text-anchor="start" x="1751.5" y="-1946.3" font-family="Arial" font-size="24.00" fill="#ffffff">and drain verifies bytes</text>
<text text-anchor="start" x="1729" y="-1922.3" font-family="Arial" font-size="24.00" fill="#ffffff">before tier transition/source</text>
<text text-anchor="start" x="1830.5" y="-1898.3" font-family="Arial" font-size="24.00" fill="#ffffff">cleanup.</text>
</g>
<!-- 32&#45;&gt;40 -->
<g id="128" class="edge">
<title>32&#45;&gt;40</title>
<path fill="none" stroke="#444444" stroke-dasharray="5,2" d="M1000.37,-577.74C1025.56,-762.46 1085.65,-1094.29 1214,-1349 1323.22,-1565.75 1523.56,-1760.05 1675.25,-1886.81"/>
<polygon fill="#444444" stroke="#444444" points="1673.42,-1889.84 1683.35,-1893.55 1677.9,-1884.46 1673.42,-1889.84"/>
<polygon fill="white" stroke="transparent" points="1224,-1738 1224,-1837 1514,-1837 1514,-1738 1224,-1738"/>
<text text-anchor="start" x="1233.5" y="-1814.3" font-family="Arial" font-size="24.00" fill="#444444">Reports filesystem bytes,</text>
<text text-anchor="start" x="1228" y="-1790.3" font-family="Arial" font-size="24.00" fill="#444444">reservations, and capacity</text>
<text text-anchor="start" x="1354.5" y="-1766.3" font-family="Arial" font-size="24.00" fill="#444444">for</text>
<text text-anchor="start" x="1317.5" y="-1746.3" font-family="Arial" font-size="19.00" fill="#444444">[Filesystem]</text>
</g>
</g>
</svg>
