<?xml version="1.0" encoding="UTF-8" standalone="no"?>
<!DOCTYPE svg PUBLIC "-//W3C//DTD SVG 1.1//EN"
 "http://www.w3.org/Graphics/SVG/1.1/DTD/svg11.dtd">
<!-- Generated by graphviz version 2.43.0 (0)
 -->
<!-- Title: %3 Pages: 1 -->
<svg width="1344pt" height="2088pt"
 viewBox="0.00 0.00 1344.00 2087.50" xmlns="http://www.w3.org/2000/svg" xmlns:xlink="http://www.w3.org/1999/xlink">
<g id="graph0" class="graph" transform="scale(1 1) rotate(0) translate(4 2083.5)">
<title>%3</title>
<polygon fill="white" stroke="transparent" points="-4,4 -4,-2083.5 1340,-2083.5 1340,4 -4,4"/>
<text text-anchor="start" x="345.5" y="-11.8" font-family="Arial" font-size="34.00">Container View: Browser Memory Daemon</text>
<g id="clust1" class="cluster">
<title>cluster_4</title>
<polygon fill="none" stroke="#444444" points="8,-346.5 8,-2071.5 1328,-2071.5 1328,-346.5 8,-346.5"/>
<text text-anchor="start" x="527" y="-375.3" font-family="Arial" font-size="24.00" fill="#444444">Browser Memory Daemon</text>
<text text-anchor="start" x="591" y="-355.3" font-family="Arial" font-size="19.00" fill="#444444">[Software System]</text>
</g>
<!-- 3 -->
<g id="3" class="node">
<title>3</title>
<polygon fill="#999999" stroke="#6b6b6b" points="1232.5,-321 829.5,-321 829.5,-56 1232.5,-56 1232.5,-321"/>
<text text-anchor="start" x="869.5" y="-272.8" font-family="Arial" font-size="34.00" fill="#ffffff">Web Sites and Media</text>
<text text-anchor="start" x="977" y="-238.8" font-family="Arial" font-size="34.00" fill="#ffffff">Origins</text>
<text text-anchor="start" x="954" y="-216.8" font-family="Arial" font-size="19.00" fill="#ffffff">[Software System]</text>
<text text-anchor="start" x="921" y="-179.8" font-family="Arial" font-size="24.00" fill="#ffffff">External web pages,</text>
<text text-anchor="start" x="868.5" y="-155.8" font-family="Arial" font-size="24.00" fill="#ffffff">image/video URLs, and media</text>
<text text-anchor="start" x="858.5" y="-131.8" font-family="Arial" font-size="24.00" fill="#ffffff">CDNs that Chrome loads or that</text>
<text text-anchor="start" x="868.5" y="-107.8" font-family="Arial" font-size="24.00" fill="#ffffff">sidecars fetch as page&#45;related</text>
<text text-anchor="start" x="994.5" y="-83.8" font-family="Arial" font-size="24.00" fill="#ffffff">media.</text>
</g>
<!-- 40 -->
<g id="40" class="node">
<title>40</title>
<polygon fill="#438dd5" stroke="#2e6295" points="387,-1059 33,-1059 33,-756 387,-756 387,-1059"/>
<text text-anchor="start" x="63" y="-1010.8" font-family="Arial" font-size="34.00" fill="#ffffff">WSL Media Worker</text>
<text text-anchor="start" x="70" y="-988.8" font-family="Arial" font-size="19.00" fill="#ffffff">[Container: Python 3.11 CLI loop]</text>
<text text-anchor="start" x="62.5" y="-951.8" font-family="Arial" font-size="24.00" fill="#ffffff">Long&#45;running systemd user</text>
<text text-anchor="start" x="111.5" y="-927.8" font-family="Arial" font-size="24.00" fill="#ffffff">worker that leases</text>
<text text-anchor="start" x="64" y="-903.8" font-family="Arial" font-size="24.00" fill="#ffffff">daemon&#45;public media fetch</text>
<text text-anchor="start" x="101" y="-879.8" font-family="Arial" font-size="24.00" fill="#ffffff">tasks, fetches public</text>
<text text-anchor="start" x="62" y="-855.8" font-family="Arial" font-size="24.00" fill="#ffffff">media/HLS without Chrome</text>
<text text-anchor="start" x="67" y="-831.8" font-family="Arial" font-size="24.00" fill="#ffffff">cookies, classifies terminal</text>
<text text-anchor="start" x="64" y="-807.8" font-family="Arial" font-size="24.00" fill="#ffffff">states, and updates artifact</text>
<text text-anchor="start" x="181" y="-783.8" font-family="Arial" font-size="24.00" fill="#ffffff">rows.</text>
</g>
<!-- 40&#45;&gt;3 -->
<g id="76" class="edge">
<title>40&#45;&gt;3</title>
<path fill="none" stroke="#444444" stroke-dasharray="5,2" d="M329.98,-755.77C433.73,-630.33 593.22,-453.19 759,-328.5 778.16,-314.09 799.01,-300.4 820.36,-287.63"/>
<polygon fill="#444444" stroke="#444444" points="822.38,-290.5 829.21,-282.4 818.82,-284.47 822.38,-290.5"/>
<polygon fill="white" stroke="transparent" points="430.5,-638.5 430.5,-713.5 715.5,-713.5 715.5,-638.5 430.5,-638.5"/>
<text text-anchor="start" x="435" y="-690.8" font-family="Arial" font-size="24.00" fill="#444444">Fetches public media and</text>
<text text-anchor="start" x="522" y="-666.8" font-family="Arial" font-size="24.00" fill="#444444">HLS from</text>
<text text-anchor="start" x="481.5" y="-646.8" font-family="Arial" font-size="19.00" fill="#444444">[HTTP(S), data URLs]</text>
</g>
<!-- 44 -->
<g id="44" class="node">
<title>44</title>
<path fill="#2f95c8" stroke="#20688c" d="M1228.5,-957.72C1228.5,-985.94 1139.98,-1008.88 1031,-1008.88 922.02,-1008.88 833.5,-985.94 833.5,-957.72 833.5,-957.72 833.5,-497.28 833.5,-497.28 833.5,-469.06 922.02,-446.12 1031,-446.12 1139.98,-446.12 1228.5,-469.06 1228.5,-497.28 1228.5,-497.28 1228.5,-957.72 1228.5,-957.72"/>
<path fill="none" stroke="#20688c" d="M1228.5,-957.72C1228.5,-929.49 1139.98,-906.56 1031,-906.56 922.02,-906.56 833.5,-929.49 833.5,-957.72"/>
<text text-anchor="start" x="918" y="-883.8" font-family="Arial" font-size="34.00" fill="#ffffff">SQLite + FTS5</text>
<text text-anchor="start" x="958" y="-849.8" font-family="Arial" font-size="34.00" fill="#ffffff">Database</text>
<text text-anchor="start" x="905" y="-827.8" font-family="Arial" font-size="19.00" fill="#ffffff">[Container: SQLite with FTS5]</text>
<text text-anchor="start" x="863" y="-790.8" font-family="Arial" font-size="24.00" fill="#ffffff">Durable complete cleaned&#45;text,</text>
<text text-anchor="start" x="912" y="-766.8" font-family="Arial" font-size="24.00" fill="#ffffff">relational, and full&#45;text</text>
<text text-anchor="start" x="913.5" y="-742.8" font-family="Arial" font-size="24.00" fill="#ffffff">authority for migration</text>
<text text-anchor="start" x="879" y="-718.8" font-family="Arial" font-size="24.00" fill="#ffffff">ledger, sources, documents,</text>
<text text-anchor="start" x="881.5" y="-694.8" font-family="Arial" font-size="24.00" fill="#ffffff">visits, capture observations,</text>
<text text-anchor="start" x="900" y="-670.8" font-family="Arial" font-size="24.00" fill="#ffffff">URL claims, visit events,</text>
<text text-anchor="start" x="862.5" y="-646.8" font-family="Arial" font-size="24.00" fill="#ffffff">snapshots, chunks, chunks_fts,</text>
<text text-anchor="start" x="870" y="-622.8" font-family="Arial" font-size="24.00" fill="#ffffff">media provenance/tasks, blob</text>
<text text-anchor="start" x="906.5" y="-598.8" font-family="Arial" font-size="24.00" fill="#ffffff">lifecycle records, policy</text>
<text text-anchor="start" x="905.5" y="-574.8" font-family="Arial" font-size="24.00" fill="#ffffff">rules, audit events, and</text>
<text text-anchor="start" x="939" y="-550.8" font-family="Arial" font-size="24.00" fill="#ffffff">deletion receipts.</text>
</g>
<!-- 40&#45;&gt;44 -->
<g id="70" class="edge">
<title>40&#45;&gt;44</title>
<path fill="none" stroke="#444444" stroke-dasharray="5,2" d="M387.2,-868.77C515.16,-840.65 688.74,-802.5 823.26,-772.94"/>
<polygon fill="#444444" stroke="#444444" points="824.27,-776.3 833.29,-770.73 822.77,-769.46 824.27,-776.3"/>
<polygon fill="white" stroke="transparent" points="423,-858.5 423,-933.5 723,-933.5 723,-858.5 423,-858.5"/>
<text text-anchor="start" x="427" y="-910.8" font-family="Arial" font-size="24.00" fill="#444444">Leases and updates media</text>
<text text-anchor="start" x="532" y="-886.8" font-family="Arial" font-size="24.00" fill="#444444">tasks in</text>
<text text-anchor="start" x="539.5" y="-866.8" font-family="Arial" font-size="19.00" fill="#444444">[sqlite3]</text>
</g>
<!-- 46 -->
<g id="46" class="node">
<title>46</title>
<path fill="#2f95c8" stroke="#20688c" d="M1303,-1471.72C1303,-1493.32 1181.09,-1510.88 1031,-1510.88 880.91,-1510.88 759,-1493.32 759,-1471.72 759,-1471.72 759,-1119.28 759,-1119.28 759,-1097.68 880.91,-1080.12 1031,-1080.12 1181.09,-1080.12 1303,-1097.68 1303,-1119.28 1303,-1119.28 1303,-1471.72 1303,-1471.72"/>
<path fill="none" stroke="#20688c" d="M1303,-1471.72C1303,-1450.11 1181.09,-1432.56 1031,-1432.56 880.91,-1432.56 759,-1450.11 759,-1471.72"/>
<text text-anchor="start" x="875.5" y="-1403.8" font-family="Arial" font-size="34.00" fill="#ffffff">Guarded Media Blob</text>
<text text-anchor="start" x="981.5" y="-1369.8" font-family="Arial" font-size="34.00" fill="#ffffff">Cache</text>
<text text-anchor="start" x="788" y="-1347.8" font-family="Arial" font-size="19.00" fill="#ffffff">[Container: WSL&#45;visible local or NAS&#45;mounted filesystem]</text>
<text text-anchor="start" x="921" y="-1310.8" font-family="Arial" font-size="24.00" fill="#ffffff">Bounded disposable</text>
<text text-anchor="start" x="865.5" y="-1286.8" font-family="Arial" font-size="24.00" fill="#ffffff">image/video/audio bytes under</text>
<text text-anchor="start" x="889.5" y="-1262.8" font-family="Arial" font-size="24.00" fill="#ffffff">the configured media root;</text>
<text text-anchor="start" x="917" y="-1238.8" font-family="Arial" font-size="24.00" fill="#ffffff">explicit external roots</text>
<text text-anchor="start" x="932" y="-1214.8" font-family="Arial" font-size="24.00" fill="#ffffff">require mount and</text>
<text text-anchor="start" x="881.5" y="-1190.8" font-family="Arial" font-size="24.00" fill="#ffffff">identity&#45;marker proof before</text>
<text text-anchor="start" x="990" y="-1166.8" font-family="Arial" font-size="24.00" fill="#ffffff">access.</text>
</g>
<!-- 40&#45;&gt;46 -->
<g id="77" class="edge">
<title>40&#45;&gt;46</title>
<path fill="none" stroke="#444444" stroke-dasharray="5,2" d="M387.2,-990.97C492.7,-1040.95 629.2,-1105.62 749.26,-1162.5"/>
<polygon fill="#444444" stroke="#444444" points="748.07,-1165.81 758.61,-1166.93 751.07,-1159.48 748.07,-1165.81"/>
<polygon fill="white" stroke="transparent" points="423,-1147.5 423,-1222.5 723,-1222.5 723,-1147.5 423,-1147.5"/>
<text text-anchor="start" x="427" y="-1199.8" font-family="Arial" font-size="24.00" fill="#444444">Writes fetched media blobs</text>
<text text-anchor="start" x="562.5" y="-1175.8" font-family="Arial" font-size="24.00" fill="#444444">to</text>
<text text-anchor="start" x="521.5" y="-1155.8" font-family="Arial" font-size="19.00" fill="#444444">[Filesystem]</text>
</g>
<!-- 47 -->
<g id="47" class="node">
<title>47</title>
<path fill="#2f95c8" stroke="#20688c" d="M1224,-2004.22C1224,-2027.48 1137.49,-2046.38 1031,-2046.38 924.51,-2046.38 838,-2027.48 838,-2004.22 838,-2004.22 838,-1624.78 838,-1624.78 838,-1601.52 924.51,-1582.62 1031,-1582.62 1137.49,-1582.62 1224,-1601.52 1224,-1624.78 1224,-1624.78 1224,-2004.22 1224,-2004.22"/>
<path fill="none" stroke="#20688c" d="M1224,-2004.22C1224,-1980.95 1137.49,-1962.06 1031,-1962.06 924.51,-1962.06 838,-1980.95 838,-2004.22"/>
<text text-anchor="start" x="867" y="-1934.8" font-family="Arial" font-size="34.00" fill="#ffffff">Bounded Local Media</text>
<text text-anchor="start" x="987.5" y="-1900.8" font-family="Arial" font-size="34.00" fill="#ffffff">Spool</text>
<text text-anchor="start" x="891" y="-1878.8" font-family="Arial" font-size="19.00" fill="#ffffff">[Container: WSL local filesystem]</text>
<text text-anchor="start" x="879" y="-1841.8" font-family="Arial" font-size="24.00" fill="#ffffff">Opt&#45;in durable outage buffer</text>
<text text-anchor="start" x="882.5" y="-1817.8" font-family="Arial" font-size="24.00" fill="#ffffff">beneath the local WSL data</text>
<text text-anchor="start" x="909.5" y="-1793.8" font-family="Arial" font-size="24.00" fill="#ffffff">root; admission counts</text>
<text text-anchor="start" x="885.5" y="-1769.8" font-family="Arial" font-size="24.00" fill="#ffffff">committed files and distinct</text>
<text text-anchor="start" x="879" y="-1745.8" font-family="Arial" font-size="24.00" fill="#ffffff">in&#45;flight SQLite reservations,</text>
<text text-anchor="start" x="906" y="-1721.8" font-family="Arial" font-size="24.00" fill="#ffffff">and drain verifies bytes</text>
<text text-anchor="start" x="883.5" y="-1697.8" font-family="Arial" font-size="24.00" fill="#ffffff">before tier transition/source</text>
<text text-anchor="start" x="985" y="-1673.8" font-family="Arial" font-size="24.00" fill="#ffffff">cleanup.</text>
</g>
<!-- 40&#45;&gt;47 -->
<g id="78" class="edge">
<title>40&#45;&gt;47</title>
<path fill="none" stroke="#444444" stroke-dasharray="5,2" d="M296.68,-1059.22C332.66,-1118.07 376.86,-1184.61 423,-1240.5 546,-1389.49 705.35,-1538.85 829.92,-1647.85"/>
<polygon fill="#444444" stroke="#444444" points="827.86,-1650.7 837.69,-1654.64 832.46,-1645.43 827.86,-1650.7"/>
<polygon fill="white" stroke="transparent" points="455,-1551.5 455,-1650.5 691,-1650.5 691,-1551.5 455,-1551.5"/>
<text text-anchor="start" x="459" y="-1627.8" font-family="Arial" font-size="24.00" fill="#444444">Writes fetched media</text>
<text text-anchor="start" x="466" y="-1603.8" font-family="Arial" font-size="24.00" fill="#444444">during guarded&#45;root</text>
<text text-anchor="start" x="516" y="-1579.8" font-family="Arial" font-size="24.00" fill="#444444">outages to</text>
<text text-anchor="start" x="521.5" y="-1559.8" font-family="Arial" font-size="19.00" fill="#444444">[Filesystem]</text>
</g>
</g>
</svg>
