<?xml version="1.0" encoding="UTF-8" standalone="no"?>
<!DOCTYPE svg PUBLIC "-//W3C//DTD SVG 1.1//EN"
 "http://www.w3.org/Graphics/SVG/1.1/DTD/svg11.dtd">
<!-- Generated by graphviz version 2.43.0 (0)
 -->
<!-- Title: %3 Pages: 1 -->
<svg width="2445pt" height="1364pt"
 viewBox="0.00 0.00 2445.00 1363.50" xmlns="http://www.w3.org/2000/svg" xmlns:xlink="http://www.w3.org/1999/xlink">
<g id="graph0" class="graph" transform="scale(1 1) rotate(0) translate(4 1359.5)">
<title>%3</title>
<polygon fill="white" stroke="transparent" points="-4,4 -4,-1359.5 2441,-1359.5 2441,4 -4,4"/>
<text text-anchor="start" x="939" y="-11.8" font-family="Arial" font-size="34.00">Browser Memory Daemon &#45; Dynamic</text>
<g id="clust1" class="cluster">
<title>cluster_4</title>
<polygon fill="none" stroke="#444444" points="8,-346.5 8,-1347.5 2429,-1347.5 2429,-346.5 8,-346.5"/>
<text text-anchor="start" x="1077.5" y="-375.3" font-family="Arial" font-size="24.00" fill="#444444">Browser Memory Daemon</text>
<text text-anchor="start" x="1141.5" y="-355.3" font-family="Arial" font-size="19.00" fill="#444444">[Software System]</text>
</g>
<!-- 21 -->
<g id="21" class="node">
<title>21</title>
<path fill="#2f95c8" stroke="#20688c" d="M1491.5,-957.72C1491.5,-985.94 1389.98,-1008.88 1265,-1008.88 1140.02,-1008.88 1038.5,-985.94 1038.5,-957.72 1038.5,-957.72 1038.5,-497.28 1038.5,-497.28 1038.5,-469.06 1140.02,-446.12 1265,-446.12 1389.98,-446.12 1491.5,-469.06 1491.5,-497.28 1491.5,-497.28 1491.5,-957.72 1491.5,-957.72"/>
<path fill="none" stroke="#20688c" d="M1491.5,-957.72C1491.5,-929.49 1389.98,-906.56 1265,-906.56 1140.02,-906.56 1038.5,-929.49 1038.5,-957.72"/>
<text text-anchor="start" x="1123" y="-883.8" font-family="Arial" font-size="34.00" fill="#ffffff">Extension Browser</text>
<text text-anchor="start" x="1205.5" y="-849.8" font-family="Arial" font-size="34.00" fill="#ffffff">Storage</text>
<text text-anchor="start" x="1067.5" y="-827.8" font-family="Arial" font-size="19.00" fill="#ffffff">[Container: chrome.storage.local + IndexedDB]</text>
<text text-anchor="start" x="1087.5" y="-790.8" font-family="Arial" font-size="24.00" fill="#ffffff">Browser&#45;side IndexedDB storage</text>
<text text-anchor="start" x="1178.5" y="-766.8" font-family="Arial" font-size="24.00" fill="#ffffff">for transactional</text>
<text text-anchor="start" x="1109.5" y="-742.8" font-family="Arial" font-size="24.00" fill="#ffffff">capture/lifecycle outbox rows</text>
<text text-anchor="start" x="1099.5" y="-718.8" font-family="Arial" font-size="24.00" fill="#ffffff">plus specialized durable media</text>
<text text-anchor="start" x="1201" y="-694.8" font-family="Arial" font-size="24.00" fill="#ffffff">tasks/blobs;</text>
<text text-anchor="start" x="1112.5" y="-670.8" font-family="Arial" font-size="24.00" fill="#ffffff">chrome.storage.local retains</text>
<text text-anchor="start" x="1113" y="-646.8" font-family="Arial" font-size="24.00" fill="#ffffff">typed configuration, lifecycle</text>
<text text-anchor="start" x="1097.5" y="-622.8" font-family="Arial" font-size="24.00" fill="#ffffff">tab state, minimal CDP capture</text>
<text text-anchor="start" x="1108.5" y="-598.8" font-family="Arial" font-size="24.00" fill="#ffffff">context, aggregate telemetry,</text>
<text text-anchor="start" x="1096.5" y="-574.8" font-family="Arial" font-size="24.00" fill="#ffffff">and one&#45;version queue fallback</text>
<text text-anchor="start" x="1240" y="-550.8" font-family="Arial" font-size="24.00" fill="#ffffff">only.</text>
</g>
<!-- 22 -->
<g id="22" class="node">
<title>22</title>
<polygon fill="#438dd5" stroke="#2e6295" points="1496,-1322 1034,-1322 1034,-1081 1496,-1081 1496,-1322"/>
<text text-anchor="start" x="1100.5" y="-1273.8" font-family="Arial" font-size="34.00" fill="#ffffff">WSL Loopback HTTP</text>
<text text-anchor="start" x="1200.5" y="-1239.8" font-family="Arial" font-size="34.00" fill="#ffffff">Daemon</text>
<text text-anchor="start" x="1063" y="-1217.8" font-family="Arial" font-size="19.00" fill="#ffffff">[Container: Python 3.11, ThreadingHTTPServer]</text>
<text text-anchor="start" x="1099.5" y="-1180.8" font-family="Arial" font-size="24.00" fill="#ffffff">Authenticated loopback API for</text>
<text text-anchor="start" x="1120.5" y="-1156.8" font-family="Arial" font-size="24.00" fill="#ffffff">capture, read/admin/media</text>
<text text-anchor="start" x="1121" y="-1132.8" font-family="Arial" font-size="24.00" fill="#ffffff">operations, and query&#45;only</text>
<text text-anchor="start" x="1102.5" y="-1108.8" font-family="Arial" font-size="24.00" fill="#ffffff">bmd.x&#45;observations v1 export.</text>
</g>
<!-- 49 -->
<g id="49" class="node">
<title>49</title>
<path fill="#2f95c8" stroke="#20688c" d="M2317,-787.72C2317,-806.01 2234.08,-820.88 2132,-820.88 2029.92,-820.88 1947,-806.01 1947,-787.72 1947,-787.72 1947,-489.28 1947,-489.28 1947,-470.99 2029.92,-456.12 2132,-456.12 2234.08,-456.12 2317,-470.99 2317,-489.28 2317,-489.28 2317,-787.72 2317,-787.72"/>
<path fill="none" stroke="#20688c" d="M2317,-787.72C2317,-769.42 2234.08,-754.56 2132,-754.56 2029.92,-754.56 1947,-769.42 1947,-787.72"/>
<text text-anchor="start" x="2019" y="-722.8" font-family="Arial" font-size="34.00" fill="#ffffff">SQLite + FTS5</text>
<text text-anchor="start" x="2059" y="-688.8" font-family="Arial" font-size="34.00" fill="#ffffff">Database</text>
<text text-anchor="start" x="2006" y="-666.8" font-family="Arial" font-size="19.00" fill="#ffffff">[Container: SQLite with FTS5]</text>
<text text-anchor="start" x="2012.5" y="-629.8" font-family="Arial" font-size="24.00" fill="#ffffff">Durable text/metadata</text>
<text text-anchor="start" x="1981" y="-605.8" font-family="Arial" font-size="24.00" fill="#ffffff">authority including migration</text>
<text text-anchor="start" x="1976" y="-581.8" font-family="Arial" font-size="24.00" fill="#ffffff">ledger, capture observations,</text>
<text text-anchor="start" x="1986" y="-557.8" font-family="Arial" font-size="24.00" fill="#ffffff">and immutable observation</text>
<text text-anchor="start" x="2034" y="-533.8" font-family="Arial" font-size="24.00" fill="#ffffff">ingest sequences.</text>
</g>
<!-- 22&#45;&gt;49 -->
<g id="71" class="edge">
<title>22&#45;&gt;49</title>
<path fill="none" stroke="#707070" stroke-dasharray="5,2" d="M1447.55,-1081C1475.79,-1062.37 1504.66,-1043.38 1532,-1025.5 1667.34,-937.01 1820.5,-838.08 1938.06,-762.4"/>
<polygon fill="#707070" stroke="#707070" points="1940.31,-765.12 1946.82,-756.76 1936.52,-759.23 1940.31,-765.12"/>
<polygon fill="white" stroke="transparent" points="1538,-1025.5 1538,-1124.5 1818,-1124.5 1818,-1025.5 1538,-1025.5"/>
<text text-anchor="start" x="1579.5" y="-1101.8" font-family="Arial" font-size="24.00" fill="#707070">6. Updates artifact</text>
<text text-anchor="start" x="1542" y="-1077.8" font-family="Arial" font-size="24.00" fill="#707070">status=stored, hash, byte</text>
<text text-anchor="start" x="1574" y="-1053.8" font-family="Arial" font-size="24.00" fill="#707070">size, and task state</text>
<text text-anchor="start" x="1644.5" y="-1033.8" font-family="Arial" font-size="19.00" fill="#707070">[sqlite3]</text>
</g>
<!-- 51 -->
<g id="51" class="node">
<title>51</title>
<path fill="#2f95c8" stroke="#20688c" d="M2404,-1283.72C2404,-1305.32 2282.09,-1322.88 2132,-1322.88 1981.91,-1322.88 1860,-1305.32 1860,-1283.72 1860,-1283.72 1860,-931.28 1860,-931.28 1860,-909.68 1981.91,-892.12 2132,-892.12 2282.09,-892.12 2404,-909.68 2404,-931.28 2404,-931.28 2404,-1283.72 2404,-1283.72"/>
<path fill="none" stroke="#20688c" d="M2404,-1283.72C2404,-1262.11 2282.09,-1244.56 2132,-1244.56 1981.91,-1244.56 1860,-1262.11 1860,-1283.72"/>
<text text-anchor="start" x="1976.5" y="-1215.8" font-family="Arial" font-size="34.00" fill="#ffffff">Guarded Media Blob</text>
<text text-anchor="start" x="2082.5" y="-1181.8" font-family="Arial" font-size="34.00" fill="#ffffff">Cache</text>
<text text-anchor="start" x="1889" y="-1159.8" font-family="Arial" font-size="19.00" fill="#ffffff">[Container: WSL&#45;visible local or NAS&#45;mounted filesystem]</text>
<text text-anchor="start" x="2022" y="-1122.8" font-family="Arial" font-size="24.00" fill="#ffffff">Bounded disposable</text>
<text text-anchor="start" x="1966.5" y="-1098.8" font-family="Arial" font-size="24.00" fill="#ffffff">image/video/audio bytes under</text>
<text text-anchor="start" x="1990.5" y="-1074.8" font-family="Arial" font-size="24.00" fill="#ffffff">the configured media root;</text>
<text text-anchor="start" x="2018" y="-1050.8" font-family="Arial" font-size="24.00" fill="#ffffff">explicit external roots</text>
<text text-anchor="start" x="2033" y="-1026.8" font-family="Arial" font-size="24.00" fill="#ffffff">require mount and</text>
<text text-anchor="start" x="1982.5" y="-1002.8" font-family="Arial" font-size="24.00" fill="#ffffff">identity&#45;marker proof before</text>
<text text-anchor="start" x="2091" y="-978.8" font-family="Arial" font-size="24.00" fill="#ffffff">access.</text>
</g>
<!-- 22&#45;&gt;51 -->
<g id="73" class="edge">
<title>22&#45;&gt;51</title>
<path fill="none" stroke="#707070" stroke-dasharray="5,2" d="M1496.1,-1176.49C1604.79,-1164.68 1735.51,-1150.48 1850,-1138.04"/>
<polygon fill="#707070" stroke="#707070" points="1850.41,-1141.51 1859.97,-1136.95 1849.65,-1134.55 1850.41,-1141.51"/>
<polygon fill="white" stroke="transparent" points="1532,-1170.5 1532,-1245.5 1824,-1245.5 1824,-1170.5 1532,-1170.5"/>
<text text-anchor="start" x="1536" y="-1222.8" font-family="Arial" font-size="24.00" fill="#707070">5. Writes blob if MIME and</text>
<text text-anchor="start" x="1581.5" y="-1198.8" font-family="Arial" font-size="24.00" fill="#707070">cache gates allow</text>
<text text-anchor="start" x="1626.5" y="-1178.8" font-family="Arial" font-size="19.00" fill="#707070">[Filesystem]</text>
</g>
<!-- 5 -->
<g id="5" class="node">
<title>5</title>
<polygon fill="#438dd5" stroke="#2e6295" points="467,-867 33,-867 33,-588 467,-588 467,-867"/>
<text text-anchor="start" x="70" y="-818.8" font-family="Arial" font-size="34.00" fill="#ffffff">Chrome MV3 Extension</text>
<text text-anchor="start" x="62" y="-796.8" font-family="Arial" font-size="19.00" fill="#ffffff">[Container: JavaScript, Chrome Manifest V3]</text>
<text text-anchor="start" x="107" y="-759.8" font-family="Arial" font-size="24.00" fill="#ffffff">Captures visible page text,</text>
<text text-anchor="start" x="132.5" y="-735.8" font-family="Arial" font-size="24.00" fill="#ffffff">media references, tab</text>
<text text-anchor="start" x="141" y="-711.8" font-family="Arial" font-size="24.00" fill="#ffffff">lifecycle events, and</text>
<text text-anchor="start" x="84" y="-687.8" font-family="Arial" font-size="24.00" fill="#ffffff">browser&#45;side media bytes from</text>
<text text-anchor="start" x="79" y="-663.8" font-family="Arial" font-size="24.00" fill="#ffffff">Windows Chrome; queues work</text>
<text text-anchor="start" x="91" y="-639.8" font-family="Arial" font-size="24.00" fill="#ffffff">durably and posts to the WSL</text>
<text text-anchor="start" x="202.5" y="-615.8" font-family="Arial" font-size="24.00" fill="#ffffff">daemon.</text>
</g>
<!-- 5&#45;&gt;21 -->
<g id="61" class="edge">
<title>5&#45;&gt;21</title>
<path fill="none" stroke="#707070" stroke-dasharray="5,2" d="M467.24,-656.98C479.26,-654.45 491.24,-652.26 503,-650.5 720.59,-618 780.18,-619.61 998,-650.5 1007.91,-651.91 1017.96,-653.59 1028.07,-655.5"/>
<polygon fill="#707070" stroke="#707070" points="1027.71,-659 1038.2,-657.49 1029.06,-652.13 1027.71,-659"/>
<polygon fill="white" stroke="transparent" points="595,-650.5 595,-701.5 906,-701.5 906,-650.5 595,-650.5"/>
<text text-anchor="start" x="617" y="-678.8" font-family="Arial" font-size="24.00" fill="#707070">1. Reads due media task</text>
<text text-anchor="start" x="599.5" y="-658.8" font-family="Arial" font-size="19.00" fill="#707070">[chrome.storage.local + IndexedDB]</text>
</g>
<!-- 5&#45;&gt;21 -->
<g id="61" class="edge">
<title>5&#45;&gt;21</title>
<path fill="none" stroke="#707070" stroke-dasharray="5,2" d="M467.07,-727.5C631.86,-727.5 858.6,-727.5 1028.11,-727.5"/>
<polygon fill="#707070" stroke="#707070" points="1028.17,-731 1038.17,-727.5 1028.17,-724 1028.17,-731"/>
<polygon fill="white" stroke="transparent" points="595,-727.5 595,-802.5 906,-802.5 906,-727.5 595,-727.5"/>
<text text-anchor="start" x="625" y="-779.8" font-family="Arial" font-size="24.00" fill="#707070">3. Persists fetched blob</text>
<text text-anchor="start" x="634.5" y="-755.8" font-family="Arial" font-size="24.00" fill="#707070">until upload succeeds</text>
<text text-anchor="start" x="599.5" y="-735.8" font-family="Arial" font-size="19.00" fill="#707070">[chrome.storage.local + IndexedDB]</text>
</g>
<!-- 5&#45;&gt;22 -->
<g id="62" class="edge">
<title>5&#45;&gt;22</title>
<path fill="none" stroke="#707070" stroke-dasharray="5,2" d="M467.07,-828.6C630.68,-905.16 855.36,-1010.29 1024.46,-1089.41"/>
<polygon fill="#707070" stroke="#707070" points="1023.19,-1092.69 1033.73,-1093.75 1026.16,-1086.35 1023.19,-1092.69"/>
<polygon fill="white" stroke="transparent" points="503,-1073.5 503,-1148.5 998,-1148.5 998,-1073.5 503,-1073.5"/>
<text text-anchor="start" x="646" y="-1125.8" font-family="Arial" font-size="24.00" fill="#707070">4. PUTs raw blob to</text>
<text text-anchor="start" x="620.5" y="-1101.8" font-family="Arial" font-size="24.00" fill="#707070">/media&#45;artifacts/{id}/blob</text>
<text text-anchor="start" x="507.5" y="-1081.8" font-family="Arial" font-size="19.00" fill="#707070">[Bearer HTTP/JSON; raw HTTP PUT over 127.0.0.1:8765]</text>
</g>
<!-- 3 -->
<g id="3" class="node">
<title>3</title>
<polygon fill="#999999" stroke="#6b6b6b" points="1466.5,-321 1063.5,-321 1063.5,-56 1466.5,-56 1466.5,-321"/>
<text text-anchor="start" x="1103.5" y="-272.8" font-family="Arial" font-size="34.00" fill="#ffffff">Web Sites and Media</text>
<text text-anchor="start" x="1211" y="-238.8" font-family="Arial" font-size="34.00" fill="#ffffff">Origins</text>
<text text-anchor="start" x="1188" y="-216.8" font-family="Arial" font-size="19.00" fill="#ffffff">[Software System]</text>
<text text-anchor="start" x="1155" y="-179.8" font-family="Arial" font-size="24.00" fill="#ffffff">External web pages,</text>
<text text-anchor="start" x="1102.5" y="-155.8" font-family="Arial" font-size="24.00" fill="#ffffff">image/video URLs, and media</text>
<text text-anchor="start" x="1092.5" y="-131.8" font-family="Arial" font-size="24.00" fill="#ffffff">CDNs that Chrome loads or that</text>
<text text-anchor="start" x="1102.5" y="-107.8" font-family="Arial" font-size="24.00" fill="#ffffff">sidecars fetch as page&#45;related</text>
<text text-anchor="start" x="1228.5" y="-83.8" font-family="Arial" font-size="24.00" fill="#ffffff">media.</text>
</g>
<!-- 5&#45;&gt;3 -->
<g id="60" class="edge">
<title>5&#45;&gt;3</title>
<path fill="none" stroke="#707070" stroke-dasharray="5,2" d="M421.48,-587.95C448.08,-568.64 475.78,-549.85 503,-533.5 680.86,-426.68 897.52,-331.53 1054.11,-268.35"/>
<polygon fill="#707070" stroke="#707070" points="1055.42,-271.6 1063.39,-264.62 1052.81,-265.1 1055.42,-271.6"/>
<polygon fill="white" stroke="transparent" points="598,-533.5 598,-608.5 903,-608.5 903,-533.5 598,-533.5"/>
<text text-anchor="start" x="602.5" y="-585.8" font-family="Arial" font-size="24.00" fill="#707070">2. Fetches source URL with</text>
<text text-anchor="start" x="617" y="-561.8" font-family="Arial" font-size="24.00" fill="#707070">Chrome cookie envelope</text>
<text text-anchor="start" x="609.5" y="-541.8" font-family="Arial" font-size="19.00" fill="#707070">[DOM; fetch(credentials: include)]</text>
</g>
</g>
</svg>
