<?xml version="1.0" encoding="UTF-8" standalone="no"?>
<!DOCTYPE svg PUBLIC "-//W3C//DTD SVG 1.1//EN"
 "http://www.w3.org/Graphics/SVG/1.1/DTD/svg11.dtd">
<!-- Generated by graphviz version 2.43.0 (0)
 -->
<!-- Title: %3 Pages: 1 -->
<svg width="2007pt" height="1580pt"
 viewBox="0.00 0.00 2007.00 1580.00" xmlns="http://www.w3.org/2000/svg" xmlns:xlink="http://www.w3.org/1999/xlink">
<g id="graph0" class="graph" transform="scale(1 1) rotate(0) translate(4 1576)">
<title>%3</title>
<polygon fill="white" stroke="transparent" points="-4,4 -4,-1576 2003,-1576 2003,4 -4,4"/>
<text text-anchor="start" x="414.5" y="-11.8" font-family="Arial" font-size="34.00">Component View: Browser Memory Daemon &#45; WSL Loopback HTTP Daemon</text>
<g id="clust1" class="cluster">
<title>cluster_4</title>
<polygon fill="none" stroke="#444444" points="8,-64 8,-1564 1991,-1564 1991,-64 8,-64"/>
<text text-anchor="start" x="858.5" y="-92.8" font-family="Arial" font-size="24.00" fill="#444444">Browser Memory Daemon</text>
<text text-anchor="start" x="922.5" y="-72.8" font-family="Arial" font-size="19.00" fill="#444444">[Software System]</text>
</g>
<g id="clust2" class="cluster">
<title>cluster_14</title>
<polygon fill="none" stroke="#444444" points="33,-626 33,-983 1196,-983 1196,-626 33,-626"/>
<text text-anchor="start" x="449" y="-654.8" font-family="Arial" font-size="24.00" fill="#444444">WSL Loopback HTTP Daemon</text>
<text text-anchor="start" x="412.5" y="-634.8" font-family="Arial" font-size="19.00" fill="#444444">[Container: Python 3.11, ThreadingHTTPServer]</text>
</g>
<!-- 15 -->
<g id="15" class="node">
<title>15</title>
<polygon fill="#85bbf0" stroke="#5d82a8" points="453,-957.5 58,-957.5 58,-726.5 453,-726.5 453,-957.5"/>
<text text-anchor="start" x="87" y="-909.3" font-family="Arial" font-size="34.00" fill="#000000">HTTP Request Router</text>
<text text-anchor="start" x="119" y="-887.3" font-family="Arial" font-size="19.00" fill="#000000">[Component: Python http.server]</text>
<text text-anchor="start" x="90" y="-850.3" font-family="Arial" font-size="24.00" fill="#000000">Routes loopback API requests,</text>
<text text-anchor="start" x="112.5" y="-826.3" font-family="Arial" font-size="24.00" fill="#000000">serves UI assets, enforces</text>
<text text-anchor="start" x="91.5" y="-802.3" font-family="Arial" font-size="24.00" fill="#000000">bearer auth for memory/admin</text>
<text text-anchor="start" x="106" y="-778.3" font-family="Arial" font-size="24.00" fill="#000000">APIs, and applies CORS for</text>
<text text-anchor="start" x="172" y="-754.3" font-family="Arial" font-size="24.00" fill="#000000">allowed origins.</text>
</g>
<!-- 23 -->
<g id="23" class="node">
<title>23</title>
<polygon fill="#85bbf0" stroke="#5d82a8" points="1171,-957.5 789,-957.5 789,-726.5 1171,-726.5 1171,-957.5"/>
<text text-anchor="start" x="818" y="-909.3" font-family="Arial" font-size="34.00" fill="#000000">Ops Doctor and Audit</text>
<text text-anchor="start" x="852" y="-887.3" font-family="Arial" font-size="19.00" fill="#000000">[Component: Python + sqlite3]</text>
<text text-anchor="start" x="829.5" y="-850.3" font-family="Arial" font-size="24.00" fill="#000000">Reports health, DB integrity,</text>
<text text-anchor="start" x="844" y="-826.3" font-family="Arial" font-size="24.00" fill="#000000">FTS consistency, runtime</text>
<text text-anchor="start" x="824" y="-802.3" font-family="Arial" font-size="24.00" fill="#000000">paths, storage counts, media</text>
<text text-anchor="start" x="848.5" y="-778.3" font-family="Arial" font-size="24.00" fill="#000000">queue status, and writes</text>
<text text-anchor="start" x="831" y="-754.3" font-family="Arial" font-size="24.00" fill="#000000">metadata&#45;only audit events.</text>
</g>
<!-- 15&#45;&gt;23 -->
<g id="68" class="edge">
<title>15&#45;&gt;23</title>
<path fill="none" stroke="#444444" stroke-dasharray="5,2" d="M453.45,-842C554.44,-842 677.2,-842 778.67,-842"/>
<polygon fill="#444444" stroke="#444444" points="778.74,-845.5 788.74,-842 778.74,-838.5 778.74,-845.5"/>
<polygon fill="white" stroke="transparent" points="489,-842 489,-902 753,-902 753,-842 489,-842"/>
<text text-anchor="start" x="493" y="-878.8" font-family="Arial" font-size="24.00" fill="#444444">Routes health and audit</text>
<text text-anchor="start" x="581.5" y="-852.8" font-family="Arial" font-size="24.00" fill="#444444">work to</text>
</g>
<!-- 27 -->
<g id="27" class="node">
<title>27</title>
<path fill="#2f95c8" stroke="#20688c" d="M1923,-585.72C1923,-608.98 1844.11,-627.88 1747,-627.88 1649.89,-627.88 1571,-608.98 1571,-585.72 1571,-585.72 1571,-206.28 1571,-206.28 1571,-183.02 1649.89,-164.12 1747,-164.12 1844.11,-164.12 1923,-183.02 1923,-206.28 1923,-206.28 1923,-585.72 1923,-585.72"/>
<path fill="none" stroke="#20688c" d="M1923,-585.72C1923,-562.45 1844.11,-543.56 1747,-543.56 1649.89,-543.56 1571,-562.45 1571,-585.72"/>
<text text-anchor="start" x="1634" y="-516.3" font-family="Arial" font-size="34.00" fill="#ffffff">SQLite + FTS5</text>
<text text-anchor="start" x="1674" y="-482.3" font-family="Arial" font-size="34.00" fill="#ffffff">Database</text>
<text text-anchor="start" x="1621" y="-460.3" font-family="Arial" font-size="19.00" fill="#ffffff">[Container: SQLite with FTS5]</text>
<text text-anchor="start" x="1628" y="-423.3" font-family="Arial" font-size="24.00" fill="#ffffff">Durable relational and</text>
<text text-anchor="start" x="1610.5" y="-399.3" font-family="Arial" font-size="24.00" fill="#ffffff">full&#45;text store for sources,</text>
<text text-anchor="start" x="1626.5" y="-375.3" font-family="Arial" font-size="24.00" fill="#ffffff">documents, visits, visit</text>
<text text-anchor="start" x="1601" y="-351.3" font-family="Arial" font-size="24.00" fill="#ffffff">events, snapshots, chunks,</text>
<text text-anchor="start" x="1600" y="-327.3" font-family="Arial" font-size="24.00" fill="#ffffff">chunks_fts, media artifacts,</text>
<text text-anchor="start" x="1615" y="-303.3" font-family="Arial" font-size="24.00" fill="#ffffff">media fetch tasks, policy</text>
<text text-anchor="start" x="1621.5" y="-279.3" font-family="Arial" font-size="24.00" fill="#ffffff">rules, audit events, and</text>
<text text-anchor="start" x="1655" y="-255.3" font-family="Arial" font-size="24.00" fill="#ffffff">deletion receipts.</text>
</g>
<!-- 23&#45;&gt;27 -->
<g id="82" class="edge">
<title>23&#45;&gt;27</title>
<path fill="none" stroke="#444444" stroke-dasharray="5,2" d="M1171.08,-731.18C1290.56,-661.53 1443.9,-572.13 1562.17,-503.18"/>
<polygon fill="#444444" stroke="#444444" points="1564.1,-506.1 1570.98,-498.04 1560.58,-500.05 1564.1,-506.1"/>
<polygon fill="white" stroke="transparent" points="1235.5,-710 1235.5,-785 1463.5,-785 1463.5,-710 1235.5,-710"/>
<text text-anchor="start" x="1239.5" y="-762.3" font-family="Arial" font-size="24.00" fill="#444444">Checks integrity and</text>
<text text-anchor="start" x="1301" y="-738.3" font-family="Arial" font-size="24.00" fill="#444444">counts in</text>
<text text-anchor="start" x="1316" y="-718.3" font-family="Arial" font-size="19.00" fill="#444444">[sqlite3]</text>
</g>
<!-- 28 -->
<g id="28" class="node">
<title>28</title>
<path fill="#2f95c8" stroke="#20688c" d="M1966,-958.28C1966,-972.54 1867.84,-984.13 1747,-984.13 1626.16,-984.13 1528,-972.54 1528,-958.28 1528,-958.28 1528,-725.72 1528,-725.72 1528,-711.46 1626.16,-699.87 1747,-699.87 1867.84,-699.87 1966,-711.46 1966,-725.72 1966,-725.72 1966,-958.28 1966,-958.28"/>
<path fill="none" stroke="#20688c" d="M1966,-958.28C1966,-944.03 1867.84,-932.44 1747,-932.44 1626.16,-932.44 1528,-944.03 1528,-958.28"/>
<text text-anchor="start" x="1582.5" y="-897.3" font-family="Arial" font-size="34.00" fill="#ffffff">Clean Text Blob Store</text>
<text text-anchor="start" x="1557" y="-875.3" font-family="Arial" font-size="19.00" fill="#ffffff">[Container: WSL or NAS&#45;mounted filesystem]</text>
<text text-anchor="start" x="1588.5" y="-838.3" font-family="Arial" font-size="24.00" fill="#ffffff">Filesystem store for snapshot</text>
<text text-anchor="start" x="1640" y="-814.3" font-family="Arial" font-size="24.00" fill="#ffffff">text blobs under the</text>
<text text-anchor="start" x="1597" y="-790.3" font-family="Arial" font-size="24.00" fill="#ffffff">configured WSL&#45;visible blob</text>
<text text-anchor="start" x="1722.5" y="-766.3" font-family="Arial" font-size="24.00" fill="#ffffff">root.</text>
</g>
<!-- 23&#45;&gt;28 -->
<g id="83" class="edge">
<title>23&#45;&gt;28</title>
<path fill="none" stroke="#444444" stroke-dasharray="5,2" d="M1171.08,-842C1276,-842 1407.04,-842 1517.5,-842"/>
<polygon fill="#444444" stroke="#444444" points="1517.78,-845.5 1527.78,-842 1517.78,-838.5 1517.78,-845.5"/>
<polygon fill="white" stroke="transparent" points="1220.5,-842 1220.5,-893 1478.5,-893 1478.5,-842 1220.5,-842"/>
<text text-anchor="start" x="1224.5" y="-870.3" font-family="Arial" font-size="24.00" fill="#444444">Counts text blob files in</text>
<text text-anchor="start" x="1298" y="-850.3" font-family="Arial" font-size="19.00" fill="#444444">[Filesystem]</text>
</g>
<!-- 29 -->
<g id="29" class="node">
<title>29</title>
<path fill="#2f95c8" stroke="#20688c" d="M1966,-1495.28C1966,-1519.47 1867.84,-1539.13 1747,-1539.13 1626.16,-1539.13 1528,-1519.47 1528,-1495.28 1528,-1495.28 1528,-1100.72 1528,-1100.72 1528,-1076.53 1626.16,-1056.87 1747,-1056.87 1867.84,-1056.87 1966,-1076.53 1966,-1100.72 1966,-1100.72 1966,-1495.28 1966,-1495.28"/>
<path fill="none" stroke="#20688c" d="M1966,-1495.28C1966,-1471.09 1867.84,-1451.44 1747,-1451.44 1626.16,-1451.44 1528,-1471.09 1528,-1495.28"/>
<text text-anchor="start" x="1608" y="-1425.3" font-family="Arial" font-size="34.00" fill="#ffffff">Media Blob Cache</text>
<text text-anchor="start" x="1557" y="-1403.3" font-family="Arial" font-size="19.00" fill="#ffffff">[Container: WSL or NAS&#45;mounted filesystem]</text>
<text text-anchor="start" x="1613.5" y="-1366.3" font-family="Arial" font-size="24.00" fill="#ffffff">Bounded and disposable</text>
<text text-anchor="start" x="1602.5" y="-1342.3" font-family="Arial" font-size="24.00" fill="#ffffff">filesystem cache for stored</text>
<text text-anchor="start" x="1581.5" y="-1318.3" font-family="Arial" font-size="24.00" fill="#ffffff">image/video/audio blobs under</text>
<text text-anchor="start" x="1603" y="-1294.3" font-family="Arial" font-size="24.00" fill="#ffffff">the configured WSL&#45;visible</text>
<text text-anchor="start" x="1671.5" y="-1270.3" font-family="Arial" font-size="24.00" fill="#ffffff">blob root, with</text>
<text text-anchor="start" x="1579.5" y="-1246.3" font-family="Arial" font-size="24.00" fill="#ffffff">purge/rehydrate semantics that</text>
<text text-anchor="start" x="1590.5" y="-1222.3" font-family="Arial" font-size="24.00" fill="#ffffff">preserve media refs, hashes,</text>
<text text-anchor="start" x="1574" y="-1198.3" font-family="Arial" font-size="24.00" fill="#ffffff">status reasons, and provenance</text>
<text text-anchor="start" x="1610.5" y="-1174.3" font-family="Arial" font-size="24.00" fill="#ffffff">when bytes are absent or</text>
<text text-anchor="start" x="1705.5" y="-1150.3" font-family="Arial" font-size="24.00" fill="#ffffff">purged.</text>
</g>
<!-- 23&#45;&gt;29 -->
<g id="84" class="edge">
<title>23&#45;&gt;29</title>
<path fill="none" stroke="#444444" stroke-dasharray="5,2" d="M1171.08,-955.3C1276.53,-1018.16 1408.36,-1096.74 1519.17,-1162.79"/>
<polygon fill="#444444" stroke="#444444" points="1517.4,-1165.81 1527.78,-1167.93 1520.99,-1159.8 1517.4,-1165.81"/>
<polygon fill="white" stroke="transparent" points="1207,-1144 1207,-1195 1492,-1195 1492,-1144 1207,-1144"/>
<text text-anchor="start" x="1211.5" y="-1172.3" font-family="Arial" font-size="24.00" fill="#444444">Counts media blob files in</text>
<text text-anchor="start" x="1298.5" y="-1152.3" font-family="Arial" font-size="19.00" fill="#444444">[Filesystem]</text>
</g>
</g>
</svg>
