<?xml version="1.0" encoding="UTF-8" standalone="no"?>
<!DOCTYPE svg PUBLIC "-//W3C//DTD SVG 1.1//EN"
 "http://www.w3.org/Graphics/SVG/1.1/DTD/svg11.dtd">
<!-- Generated by graphviz version 2.43.0 (0)
 -->
<!-- Title: %3 Pages: 1 -->
<svg width="2034pt" height="767pt"
 viewBox="0.00 0.00 2034.00 767.00" xmlns="http://www.w3.org/2000/svg" xmlns:xlink="http://www.w3.org/1999/xlink">
<g id="graph0" class="graph" transform="scale(1 1) rotate(0) translate(4 763)">
<title>%3</title>
<polygon fill="white" stroke="transparent" points="-4,4 -4,-763 2030,-763 2030,4 -4,4"/>
<text text-anchor="start" x="428" y="-11.8" font-family="Arial" font-size="34.00">Component View: Browser Memory Daemon &#45; WSL Loopback HTTP Daemon</text>
<g id="clust1" class="cluster">
<title>cluster_4</title>
<polygon fill="none" stroke="#444444" points="8,-64 8,-751 2018,-751 2018,-64 8,-64"/>
<text text-anchor="start" x="872" y="-92.8" font-family="Arial" font-size="24.00" fill="#444444">Browser Memory Daemon</text>
<text text-anchor="start" x="936" y="-72.8" font-family="Arial" font-size="19.00" fill="#444444">[Software System]</text>
</g>
<g id="clust2" class="cluster">
<title>cluster_22</title>
<polygon fill="none" stroke="#444444" points="33,-169 33,-646 1288,-646 1288,-169 33,-169"/>
<text text-anchor="start" x="495" y="-197.8" font-family="Arial" font-size="24.00" fill="#444444">WSL Loopback HTTP Daemon</text>
<text text-anchor="start" x="458.5" y="-177.8" font-family="Arial" font-size="19.00" fill="#444444">[Container: Python 3.11, ThreadingHTTPServer]</text>
</g>
<!-- 23 -->
<g id="23" class="node">
<title>23</title>
<polygon fill="#85bbf0" stroke="#1168bd" points="552,-620.5 58,-620.5 58,-269.5 552,-269.5 552,-620.5"/>
<text text-anchor="start" x="136.5" y="-572.3" font-family="Arial" font-size="34.00" fill="#000000">HTTP Request Router</text>
<text text-anchor="start" x="87" y="-550.3" font-family="Arial" font-size="19.00" fill="#000000">[Component: Python http.server + route descriptors]</text>
<text text-anchor="start" x="129" y="-513.3" font-family="Arial" font-size="24.00" fill="#000000">Matches immutable method/path</text>
<text text-anchor="start" x="189" y="-489.3" font-family="Arial" font-size="24.00" fill="#000000">descriptors with static</text>
<text text-anchor="start" x="172" y="-465.3" font-family="Arial" font-size="24.00" fill="#000000">precedence, maps typed</text>
<text text-anchor="start" x="169.5" y="-441.3" font-family="Arial" font-size="24.00" fill="#000000">compatible errors without</text>
<text text-anchor="start" x="181.5" y="-417.3" font-family="Arial" font-size="24.00" fill="#000000">leaking internal details,</text>
<text text-anchor="start" x="144" y="-393.3" font-family="Arial" font-size="24.00" fill="#000000">routes loopback API requests,</text>
<text text-anchor="start" x="162" y="-369.3" font-family="Arial" font-size="24.00" fill="#000000">serves UI assets, enforces</text>
<text text-anchor="start" x="141" y="-345.3" font-family="Arial" font-size="24.00" fill="#000000">bearer auth for memory/admin</text>
<text text-anchor="start" x="155.5" y="-321.3" font-family="Arial" font-size="24.00" fill="#000000">APIs, and applies CORS for</text>
<text text-anchor="start" x="221.5" y="-297.3" font-family="Arial" font-size="24.00" fill="#000000">allowed origins.</text>
</g>
<!-- 28 -->
<g id="28" class="node">
<title>28</title>
<polygon fill="#85bbf0" stroke="#1168bd" points="1263,-572.5 906,-572.5 906,-317.5 1263,-317.5 1263,-572.5"/>
<text text-anchor="start" x="953" y="-524.3" font-family="Arial" font-size="34.00" fill="#000000">Lifecycle Pipeline</text>
<text text-anchor="start" x="956.5" y="-502.3" font-family="Arial" font-size="19.00" fill="#000000">[Component: Python + sqlite3]</text>
<text text-anchor="start" x="935" y="-465.3" font-family="Arial" font-size="24.00" fill="#000000">Stores claimed/resolved tab</text>
<text text-anchor="start" x="939.5" y="-441.3" font-family="Arial" font-size="24.00" fill="#000000">lifecycle identity, reconciles</text>
<text text-anchor="start" x="937.5" y="-417.3" font-family="Arial" font-size="24.00" fill="#000000">delayed captures, validates</text>
<text text-anchor="start" x="935" y="-393.3" font-family="Arial" font-size="24.00" fill="#000000">active intervals, and derives</text>
<text text-anchor="start" x="962.5" y="-369.3" font-family="Arial" font-size="24.00" fill="#000000">visit dwell from interval</text>
<text text-anchor="start" x="1045" y="-345.3" font-family="Arial" font-size="24.00" fill="#000000">unions.</text>
</g>
<!-- 23&#45;&gt;28 -->
<g id="117" class="edge">
<title>23&#45;&gt;28</title>
<path fill="none" stroke="#444444" stroke-dasharray="5,2" d="M552.01,-445C663.2,-445 792.48,-445 895.69,-445"/>
<polygon fill="#444444" stroke="#444444" points="895.92,-448.5 905.92,-445 895.92,-441.5 895.92,-448.5"/>
<polygon fill="white" stroke="transparent" points="588,-445 588,-479 870,-479 870,-445 588,-445"/>
<text text-anchor="start" x="592" y="-455.8" font-family="Arial" font-size="24.00" fill="#444444">Routes lifecycle events to</text>
</g>
<!-- 47 -->
<g id="47" class="node">
<title>47</title>
<path fill="#2f95c8" stroke="#20688c" d="M1993,-675.22C1993,-703.44 1904.48,-726.38 1795.5,-726.38 1686.52,-726.38 1598,-703.44 1598,-675.22 1598,-675.22 1598,-214.78 1598,-214.78 1598,-186.56 1686.52,-163.62 1795.5,-163.62 1904.48,-163.62 1993,-186.56 1993,-214.78 1993,-214.78 1993,-675.22 1993,-675.22"/>
<path fill="none" stroke="#20688c" d="M1993,-675.22C1993,-646.99 1904.48,-624.06 1795.5,-624.06 1686.52,-624.06 1598,-646.99 1598,-675.22"/>
<text text-anchor="start" x="1682.5" y="-601.3" font-family="Arial" font-size="34.00" fill="#ffffff">SQLite + FTS5</text>
<text text-anchor="start" x="1722.5" y="-567.3" font-family="Arial" font-size="34.00" fill="#ffffff">Database</text>
<text text-anchor="start" x="1669.5" y="-545.3" font-family="Arial" font-size="19.00" fill="#ffffff">[Container: SQLite with FTS5]</text>
<text text-anchor="start" x="1627.5" y="-508.3" font-family="Arial" font-size="24.00" fill="#ffffff">Durable complete cleaned&#45;text,</text>
<text text-anchor="start" x="1676.5" y="-484.3" font-family="Arial" font-size="24.00" fill="#ffffff">relational, and full&#45;text</text>
<text text-anchor="start" x="1678" y="-460.3" font-family="Arial" font-size="24.00" fill="#ffffff">authority for migration</text>
<text text-anchor="start" x="1643.5" y="-436.3" font-family="Arial" font-size="24.00" fill="#ffffff">ledger, sources, documents,</text>
<text text-anchor="start" x="1646" y="-412.3" font-family="Arial" font-size="24.00" fill="#ffffff">visits, capture observations,</text>
<text text-anchor="start" x="1664.5" y="-388.3" font-family="Arial" font-size="24.00" fill="#ffffff">URL claims, visit events,</text>
<text text-anchor="start" x="1627" y="-364.3" font-family="Arial" font-size="24.00" fill="#ffffff">snapshots, chunks, chunks_fts,</text>
<text text-anchor="start" x="1634.5" y="-340.3" font-family="Arial" font-size="24.00" fill="#ffffff">media provenance/tasks, blob</text>
<text text-anchor="start" x="1671" y="-316.3" font-family="Arial" font-size="24.00" fill="#ffffff">lifecycle records, policy</text>
<text text-anchor="start" x="1670" y="-292.3" font-family="Arial" font-size="24.00" fill="#ffffff">rules, audit events, and</text>
<text text-anchor="start" x="1703.5" y="-268.3" font-family="Arial" font-size="24.00" fill="#ffffff">deletion receipts.</text>
</g>
<!-- 28&#45;&gt;47 -->
<g id="126" class="edge">
<title>28&#45;&gt;47</title>
<path fill="none" stroke="#444444" stroke-dasharray="5,2" d="M1263.04,-445C1361.58,-445 1484.67,-445 1587.56,-445"/>
<polygon fill="#444444" stroke="#444444" points="1587.77,-448.5 1597.77,-445 1587.77,-441.5 1587.77,-448.5"/>
<polygon fill="white" stroke="transparent" points="1299,-445 1299,-544 1562,-544 1562,-445 1299,-445"/>
<text text-anchor="start" x="1309" y="-521.3" font-family="Arial" font-size="24.00" fill="#444444">Writes lifecycle identity</text>
<text text-anchor="start" x="1303.5" y="-497.3" font-family="Arial" font-size="24.00" fill="#444444">and interval&#45;union dwell</text>
<text text-anchor="start" x="1420.5" y="-473.3" font-family="Arial" font-size="24.00" fill="#444444">to</text>
<text text-anchor="start" x="1397.5" y="-453.3" font-family="Arial" font-size="19.00" fill="#444444">[sqlite3]</text>
</g>
</g>
</svg>
