<?xml version="1.0" encoding="UTF-8" standalone="no"?>
<!DOCTYPE svg PUBLIC "-//W3C//DTD SVG 1.1//EN"
 "http://www.w3.org/Graphics/SVG/1.1/DTD/svg11.dtd">
<!-- Generated by graphviz version 2.43.0 (0)
 -->
<!-- Title: %3 Pages: 1 -->
<svg width="2808pt" height="766pt"
 viewBox="0.00 0.00 2808.00 766.00" xmlns="http://www.w3.org/2000/svg" xmlns:xlink="http://www.w3.org/1999/xlink">
<g id="graph0" class="graph" transform="scale(1 1) rotate(0) translate(4 762)">
<title>%3</title>
<polygon fill="white" stroke="transparent" points="-4,4 -4,-762 2804,-762 2804,4 -4,4"/>
<text text-anchor="start" x="815" y="-11.8" font-family="Arial" font-size="34.00">Component View: Browser Memory Daemon &#45; WSL Loopback HTTP Daemon</text>
<g id="clust1" class="cluster">
<title>cluster_4</title>
<polygon fill="none" stroke="#444444" points="8,-64 8,-750 2792,-750 2792,-64 8,-64"/>
<text text-anchor="start" x="1259" y="-92.8" font-family="Arial" font-size="24.00" fill="#444444">Browser Memory Daemon</text>
<text text-anchor="start" x="1323" y="-72.8" font-family="Arial" font-size="19.00" fill="#444444">[Software System]</text>
</g>
<g id="clust2" class="cluster">
<title>cluster_22</title>
<polygon fill="none" stroke="#444444" points="33,-164 33,-725 2767,-725 2767,-164 33,-164"/>
<text text-anchor="start" x="1234.5" y="-192.8" font-family="Arial" font-size="24.00" fill="#444444">WSL Loopback HTTP Daemon</text>
<text text-anchor="start" x="1198" y="-172.8" font-family="Arial" font-size="19.00" fill="#444444">[Container: Python 3.11, ThreadingHTTPServer]</text>
</g>
<!-- 23 -->
<g id="23" class="node">
<title>23</title>
<polygon fill="#85bbf0" stroke="#1168bd" points="552,-669.5 58,-669.5 58,-294.5 552,-294.5 552,-669.5"/>
<text text-anchor="start" x="136.5" y="-621.3" font-family="Arial" font-size="34.00" fill="#000000">HTTP Request Router</text>
<text text-anchor="start" x="87" y="-599.3" font-family="Arial" font-size="19.00" fill="#000000">[Component: Python http.server + route descriptors]</text>
<text text-anchor="start" x="117.5" y="-562.3" font-family="Arial" font-size="24.00" fill="#000000">Adapts BaseHTTPRequestHandler</text>
<text text-anchor="start" x="154.5" y="-538.3" font-family="Arial" font-size="24.00" fill="#000000">requests through immutable</text>
<text text-anchor="start" x="150" y="-514.3" font-family="Arial" font-size="24.00" fill="#000000">method/path descriptors with</text>
<text text-anchor="start" x="144.5" y="-490.3" font-family="Arial" font-size="24.00" fill="#000000">static precedence; owns auth,</text>
<text text-anchor="start" x="199.5" y="-466.3" font-family="Arial" font-size="24.00" fill="#000000">parsing, compatible</text>
<text text-anchor="start" x="180.5" y="-442.3" font-family="Arial" font-size="24.00" fill="#000000">status/error responses,</text>
<text text-anchor="start" x="144.5" y="-418.3" font-family="Arial" font-size="24.00" fill="#000000">request IDs, common security</text>
<text text-anchor="start" x="177" y="-394.3" font-family="Arial" font-size="24.00" fill="#000000">headers, redaction&#45;safe</text>
<text text-anchor="start" x="148.5" y="-370.3" font-family="Arial" font-size="24.00" fill="#000000">telemetry, bounded response</text>
<text text-anchor="start" x="138" y="-346.3" font-family="Arial" font-size="24.00" fill="#000000">streaming, disconnect cleanup,</text>
<text text-anchor="start" x="157.5" y="-322.3" font-family="Arial" font-size="24.00" fill="#000000">CORS, and finite UI assets.</text>
</g>
<!-- 24 -->
<g id="24" class="node">
<title>24</title>
<polygon fill="#85bbf0" stroke="#1168bd" points="1302,-657.5 901,-657.5 901,-306.5 1302,-306.5 1302,-657.5"/>
<text text-anchor="start" x="930" y="-609.3" font-family="Arial" font-size="34.00" fill="#000000">Application Use Cases</text>
<text text-anchor="start" x="1012.5" y="-587.3" font-family="Arial" font-size="19.00" fill="#000000">[Component: Python]</text>
<text text-anchor="start" x="939.5" y="-550.3" font-family="Arial" font-size="24.00" fill="#000000">Provides request&#45;independent</text>
<text text-anchor="start" x="976.5" y="-526.3" font-family="Arial" font-size="24.00" fill="#000000">capture, lifecycle, read,</text>
<text text-anchor="start" x="966.5" y="-502.3" font-family="Arial" font-size="24.00" fill="#000000">forget, policy, doctor, and</text>
<text text-anchor="start" x="975.5" y="-478.3" font-family="Arial" font-size="24.00" fill="#000000">media use cases; owns</text>
<text text-anchor="start" x="972.5" y="-454.3" font-family="Arial" font-size="24.00" fill="#000000">database&#45;ready checks,</text>
<text text-anchor="start" x="945.5" y="-430.3" font-family="Arial" font-size="24.00" fill="#000000">transaction/audit boundaries,</text>
<text text-anchor="start" x="949" y="-406.3" font-family="Arial" font-size="24.00" fill="#000000">asynchronous media kickoff,</text>
<text text-anchor="start" x="935.5" y="-382.3" font-family="Arial" font-size="24.00" fill="#000000">and upload/download resource</text>
<text text-anchor="start" x="936.5" y="-358.3" font-family="Arial" font-size="24.00" fill="#000000">leases without importing HTTP</text>
<text text-anchor="start" x="957.5" y="-334.3" font-family="Arial" font-size="24.00" fill="#000000">request or response types.</text>
</g>
<!-- 23&#45;&gt;24 -->
<g id="114" class="edge">
<title>23&#45;&gt;24</title>
<path fill="none" stroke="#444444" stroke-dasharray="5,2" d="M552.22,-482C660.59,-482 786.59,-482 890.45,-482"/>
<polygon fill="#444444" stroke="#444444" points="890.75,-485.5 900.75,-482 890.75,-478.5 890.75,-485.5"/>
<polygon fill="white" stroke="transparent" points="588,-482 588,-568 865,-568 865,-482 588,-482"/>
<text text-anchor="start" x="645" y="-544.8" font-family="Arial" font-size="24.00" fill="#444444">Invokes explicit</text>
<text text-anchor="start" x="592.5" y="-518.8" font-family="Arial" font-size="24.00" fill="#444444">request&#45;independent use</text>
<text text-anchor="start" x="650.5" y="-492.8" font-family="Arial" font-size="24.00" fill="#444444">cases through</text>
</g>
<!-- 26 -->
<g id="26" class="node">
<title>26</title>
<polygon fill="#85bbf0" stroke="#1168bd" points="1991,-495.5 1629,-495.5 1629,-264.5 1991,-264.5 1991,-495.5"/>
<text text-anchor="start" x="1707" y="-447.3" font-family="Arial" font-size="34.00" fill="#000000">Policy Engine</text>
<text text-anchor="start" x="1721" y="-425.3" font-family="Arial" font-size="19.00" fill="#000000">[Component: Python]</text>
<text text-anchor="start" x="1757" y="-388.3" font-family="Arial" font-size="24.00" fill="#000000">Evaluates</text>
<text text-anchor="start" x="1684" y="-364.3" font-family="Arial" font-size="24.00" fill="#000000">all/recall/balanced/strict</text>
<text text-anchor="start" x="1658" y="-340.3" font-family="Arial" font-size="24.00" fill="#000000">capture mode decisions and</text>
<text text-anchor="start" x="1668" y="-316.3" font-family="Arial" font-size="24.00" fill="#000000">redacts URL/title/body text</text>
<text text-anchor="start" x="1718" y="-292.3" font-family="Arial" font-size="24.00" fill="#000000">outside all mode.</text>
</g>
<!-- 24&#45;&gt;26 -->
<g id="116" class="edge">
<title>24&#45;&gt;26</title>
<path fill="none" stroke="#444444" stroke-dasharray="5,2" d="M1302.12,-453.18C1401.44,-438.84 1520.87,-421.6 1618.86,-407.45"/>
<polygon fill="#444444" stroke="#444444" points="1619.48,-410.9 1628.87,-406.01 1618.48,-403.97 1619.48,-410.9"/>
<polygon fill="white" stroke="transparent" points="1338,-446 1338,-506 1593,-506 1593,-446 1338,-446"/>
<text text-anchor="start" x="1342.5" y="-482.8" font-family="Arial" font-size="24.00" fill="#444444">Gets capture decisions</text>
<text text-anchor="start" x="1441.5" y="-456.8" font-family="Arial" font-size="24.00" fill="#444444">from</text>
</g>
<!-- 27 -->
<g id="27" class="node">
<title>27</title>
<polygon fill="#85bbf0" stroke="#1168bd" points="2742,-645.5 2360,-645.5 2360,-438.5 2742,-438.5 2742,-645.5"/>
<text text-anchor="start" x="2460" y="-597.3" font-family="Arial" font-size="34.00" fill="#000000">Policy Store</text>
<text text-anchor="start" x="2421.5" y="-575.3" font-family="Arial" font-size="19.00" fill="#000000">[Component: Python + SQLite]</text>
<text text-anchor="start" x="2429" y="-538.3" font-family="Arial" font-size="24.00" fill="#000000">Persists and evaluates</text>
<text text-anchor="start" x="2410.5" y="-514.3" font-family="Arial" font-size="24.00" fill="#000000">explicit local block&#45;domain</text>
<text text-anchor="start" x="2389" y="-490.3" font-family="Arial" font-size="24.00" fill="#000000">and URL&#45;prefix rules for every</text>
<text text-anchor="start" x="2483" y="-466.3" font-family="Arial" font-size="24.00" fill="#000000">policy mode.</text>
</g>
<!-- 24&#45;&gt;27 -->
<g id="118" class="edge">
<title>24&#45;&gt;27</title>
<path fill="none" stroke="#444444" stroke-dasharray="5,2" d="M1302.05,-519.21C1314.19,-520.97 1326.25,-522.59 1338,-524 1773.52,-576.25 1886.03,-591.15 2324,-567 2332.43,-566.54 2341.03,-565.97 2349.7,-565.33"/>
<polygon fill="#444444" stroke="#444444" points="2350.22,-568.81 2359.92,-564.55 2349.69,-561.83 2350.22,-568.81"/>
<polygon fill="white" stroke="transparent" points="1692,-578 1692,-638 1928,-638 1928,-578 1692,-578"/>
<text text-anchor="start" x="1696" y="-614.8" font-family="Arial" font-size="24.00" fill="#444444">Manages policy rules</text>
<text text-anchor="start" x="1768.5" y="-588.8" font-family="Arial" font-size="24.00" fill="#444444">through</text>
</g>
<!-- 26&#45;&gt;27 -->
<g id="126" class="edge">
<title>26&#45;&gt;27</title>
<path fill="none" stroke="#444444" stroke-dasharray="5,2" d="M1991.31,-419.53C2099.77,-443.3 2238.01,-473.61 2349.84,-498.12"/>
<polygon fill="#444444" stroke="#444444" points="2349.37,-501.6 2359.89,-500.33 2350.87,-494.77 2349.37,-501.6"/>
<polygon fill="white" stroke="transparent" points="2027,-489 2027,-549 2324,-549 2324,-489 2027,-489"/>
<text text-anchor="start" x="2031.5" y="-525.8" font-family="Arial" font-size="24.00" fill="#444444">Combines static mode with</text>
<text text-anchor="start" x="2121.5" y="-499.8" font-family="Arial" font-size="24.00" fill="#444444">rules from</text>
</g>
</g>
</svg>
