<?xml version="1.0" encoding="UTF-8" standalone="no"?>
<!DOCTYPE svg PUBLIC "-//W3C//DTD SVG 1.1//EN"
 "http://www.w3.org/Graphics/SVG/1.1/DTD/svg11.dtd">
<!-- Generated by graphviz version 2.43.0 (0)
 -->
<!-- Title: %3 Pages: 1 -->
<svg width="2311pt" height="1307pt"
 viewBox="0.00 0.00 2311.00 1306.50" xmlns="http://www.w3.org/2000/svg" xmlns:xlink="http://www.w3.org/1999/xlink">
<g id="graph0" class="graph" transform="scale(1 1) rotate(0) translate(4 1302.5)">
<title>%3</title>
<polygon fill="white" stroke="transparent" points="-4,4 -4,-1302.5 2307,-1302.5 2307,4 -4,4"/>
<text text-anchor="start" x="836" y="-11.8" font-family="Arial" font-size="34.00">Dynamic View: Browser Memory Daemon</text>
<g id="clust1" class="cluster">
<title>cluster_4</title>
<polygon fill="none" stroke="#444444" points="8,-312.5 8,-1290.5 2295,-1290.5 2295,-312.5 8,-312.5"/>
<text text-anchor="start" x="1010.5" y="-341.3" font-family="Arial" font-size="24.00" fill="#444444">Browser Memory Daemon</text>
<text text-anchor="start" x="1074.5" y="-321.3" font-family="Arial" font-size="19.00" fill="#444444">[Software System]</text>
</g>
<!-- 13 -->
<g id="13" class="node">
<title>13</title>
<path fill="#2f95c8" stroke="#20688c" d="M1483.5,-1232.72C1483.5,-1251.01 1381.98,-1265.88 1257,-1265.88 1132.02,-1265.88 1030.5,-1251.01 1030.5,-1232.72 1030.5,-1232.72 1030.5,-934.28 1030.5,-934.28 1030.5,-915.99 1132.02,-901.12 1257,-901.12 1381.98,-901.12 1483.5,-915.99 1483.5,-934.28 1483.5,-934.28 1483.5,-1232.72 1483.5,-1232.72"/>
<path fill="none" stroke="#20688c" d="M1483.5,-1232.72C1483.5,-1214.42 1381.98,-1199.56 1257,-1199.56 1132.02,-1199.56 1030.5,-1214.42 1030.5,-1232.72"/>
<text text-anchor="start" x="1115" y="-1167.8" font-family="Arial" font-size="34.00" fill="#ffffff">Extension Browser</text>
<text text-anchor="start" x="1197.5" y="-1133.8" font-family="Arial" font-size="34.00" fill="#ffffff">Storage</text>
<text text-anchor="start" x="1059.5" y="-1111.8" font-family="Arial" font-size="19.00" fill="#ffffff">[Container: chrome.storage.local + IndexedDB]</text>
<text text-anchor="start" x="1124.5" y="-1074.8" font-family="Arial" font-size="24.00" fill="#ffffff">Browser&#45;side storage for</text>
<text text-anchor="start" x="1112.5" y="-1050.8" font-family="Arial" font-size="24.00" fill="#ffffff">capture and visit queues in</text>
<text text-anchor="start" x="1118.5" y="-1026.8" font-family="Arial" font-size="24.00" fill="#ffffff">chrome.storage.local plus</text>
<text text-anchor="start" x="1124.5" y="-1002.8" font-family="Arial" font-size="24.00" fill="#ffffff">durable media tasks and</text>
<text text-anchor="start" x="1105.5" y="-978.8" font-family="Arial" font-size="24.00" fill="#ffffff">fetched blobs in IndexedDB.</text>
</g>
<!-- 14 -->
<g id="14" class="node">
<title>14</title>
<polygon fill="#438dd5" stroke="#2e6295" points="1488,-829 1026,-829 1026,-492 1488,-492 1488,-829"/>
<text text-anchor="start" x="1092.5" y="-780.8" font-family="Arial" font-size="34.00" fill="#ffffff">WSL Loopback HTTP</text>
<text text-anchor="start" x="1192.5" y="-746.8" font-family="Arial" font-size="34.00" fill="#ffffff">Daemon</text>
<text text-anchor="start" x="1055" y="-724.8" font-family="Arial" font-size="19.00" fill="#ffffff">[Container: Python 3.11, ThreadingHTTPServer]</text>
<text text-anchor="start" x="1096" y="-687.8" font-family="Arial" font-size="24.00" fill="#ffffff">Authenticated loopback HTTP</text>
<text text-anchor="start" x="1121" y="-663.8" font-family="Arial" font-size="24.00" fill="#ffffff">API that handles capture,</text>
<text text-anchor="start" x="1117.5" y="-639.8" font-family="Arial" font-size="24.00" fill="#ffffff">visit events, media artifact</text>
<text text-anchor="start" x="1120.5" y="-615.8" font-family="Arial" font-size="24.00" fill="#ffffff">upload/fetch/purge, exact</text>
<text text-anchor="start" x="1217" y="-591.8" font-family="Arial" font-size="24.00" fill="#ffffff">search,</text>
<text text-anchor="start" x="1108" y="-567.8" font-family="Arial" font-size="24.00" fill="#ffffff">recent/timeline/detail, policy</text>
<text text-anchor="start" x="1126" y="-543.8" font-family="Arial" font-size="24.00" fill="#ffffff">rules, doctor, forget, and</text>
<text text-anchor="start" x="1167.5" y="-519.8" font-family="Arial" font-size="24.00" fill="#ffffff">static UI serving.</text>
</g>
<!-- 28 -->
<g id="28" class="node">
<title>28</title>
<path fill="#2f95c8" stroke="#20688c" d="M2248.5,-863.72C2248.5,-888.63 2159.98,-908.88 2051,-908.88 1942.02,-908.88 1853.5,-888.63 1853.5,-863.72 1853.5,-863.72 1853.5,-457.28 1853.5,-457.28 1853.5,-432.37 1942.02,-412.12 2051,-412.12 2159.98,-412.12 2248.5,-432.37 2248.5,-457.28 2248.5,-457.28 2248.5,-863.72 2248.5,-863.72"/>
<path fill="none" stroke="#20688c" d="M2248.5,-863.72C2248.5,-838.8 2159.98,-818.56 2051,-818.56 1942.02,-818.56 1853.5,-838.8 1853.5,-863.72"/>
<text text-anchor="start" x="1938" y="-792.8" font-family="Arial" font-size="34.00" fill="#ffffff">SQLite + FTS5</text>
<text text-anchor="start" x="1978" y="-758.8" font-family="Arial" font-size="34.00" fill="#ffffff">Database</text>
<text text-anchor="start" x="1925" y="-736.8" font-family="Arial" font-size="19.00" fill="#ffffff">[Container: SQLite with FTS5]</text>
<text text-anchor="start" x="1932" y="-699.8" font-family="Arial" font-size="24.00" fill="#ffffff">Durable relational and</text>
<text text-anchor="start" x="1910.5" y="-675.8" font-family="Arial" font-size="24.00" fill="#ffffff">full&#45;text store for migration</text>
<text text-anchor="start" x="1899" y="-651.8" font-family="Arial" font-size="24.00" fill="#ffffff">ledger, sources, documents,</text>
<text text-anchor="start" x="1901.5" y="-627.8" font-family="Arial" font-size="24.00" fill="#ffffff">visits, capture observations,</text>
<text text-anchor="start" x="1920" y="-603.8" font-family="Arial" font-size="24.00" fill="#ffffff">URL claims, visit events,</text>
<text text-anchor="start" x="1882.5" y="-579.8" font-family="Arial" font-size="24.00" fill="#ffffff">snapshots, chunks, chunks_fts,</text>
<text text-anchor="start" x="1902.5" y="-555.8" font-family="Arial" font-size="24.00" fill="#ffffff">media artifacts, media fetch</text>
<text text-anchor="start" x="1922.5" y="-531.8" font-family="Arial" font-size="24.00" fill="#ffffff">tasks, policy rules, audit</text>
<text text-anchor="start" x="1893" y="-507.8" font-family="Arial" font-size="24.00" fill="#ffffff">events, and deletion receipts.</text>
</g>
<!-- 14&#45;&gt;28 -->
<g id="44" class="edge">
<title>14&#45;&gt;28</title>
<path fill="none" stroke="#444444" stroke-dasharray="5,2" d="M1488.14,-660.5C1600.42,-660.5 1734.4,-660.5 1843.36,-660.5"/>
<polygon fill="#444444" stroke="#444444" points="1843.49,-664 1853.49,-660.5 1843.49,-657 1843.49,-664"/>
<text text-anchor="start" x="1524" y="-733.3" font-family="Arial" font-size="24.00" fill="#444444">4. Stores document, visit,</text>
<text text-anchor="start" x="1532.5" y="-709.3" font-family="Arial" font-size="24.00" fill="#444444">snapshot, chunks, FTS,</text>
<text text-anchor="start" x="1544.5" y="-685.3" font-family="Arial" font-size="24.00" fill="#444444">media refs, and tasks</text>
<text text-anchor="start" x="1626.5" y="-665.3" font-family="Arial" font-size="19.00" fill="#444444">[sqlite3]</text>
</g>
<!-- 29 -->
<g id="29" class="node">
<title>29</title>
<path fill="#2f95c8" stroke="#20688c" d="M2270,-1239.78C2270,-1254.04 2171.84,-1265.63 2051,-1265.63 1930.16,-1265.63 1832,-1254.04 1832,-1239.78 1832,-1239.78 1832,-1007.22 1832,-1007.22 1832,-992.96 1930.16,-981.37 2051,-981.37 2171.84,-981.37 2270,-992.96 2270,-1007.22 2270,-1007.22 2270,-1239.78 2270,-1239.78"/>
<path fill="none" stroke="#20688c" d="M2270,-1239.78C2270,-1225.53 2171.84,-1213.94 2051,-1213.94 1930.16,-1213.94 1832,-1225.53 1832,-1239.78"/>
<text text-anchor="start" x="1886.5" y="-1178.8" font-family="Arial" font-size="34.00" fill="#ffffff">Clean Text Blob Store</text>
<text text-anchor="start" x="1861" y="-1156.8" font-family="Arial" font-size="19.00" fill="#ffffff">[Container: WSL or NAS&#45;mounted filesystem]</text>
<text text-anchor="start" x="1892.5" y="-1119.8" font-family="Arial" font-size="24.00" fill="#ffffff">Filesystem store for snapshot</text>
<text text-anchor="start" x="1944" y="-1095.8" font-family="Arial" font-size="24.00" fill="#ffffff">text blobs under the</text>
<text text-anchor="start" x="1901" y="-1071.8" font-family="Arial" font-size="24.00" fill="#ffffff">configured WSL&#45;visible blob</text>
<text text-anchor="start" x="2026.5" y="-1047.8" font-family="Arial" font-size="24.00" fill="#ffffff">root.</text>
</g>
<!-- 14&#45;&gt;29 -->
<g id="45" class="edge">
<title>14&#45;&gt;29</title>
<path fill="none" stroke="#444444" stroke-dasharray="5,2" d="M1488.14,-795.04C1593.54,-856.65 1718.06,-929.45 1823.06,-990.83"/>
<polygon fill="#444444" stroke="#444444" points="1821.47,-993.96 1831.87,-995.98 1825,-987.91 1821.47,-993.96"/>
<text text-anchor="start" x="1556" y="-1022.3" font-family="Arial" font-size="24.00" fill="#444444">5. Writes clean&#45;text</text>
<text text-anchor="start" x="1584.5" y="-998.3" font-family="Arial" font-size="24.00" fill="#444444">snapshot blob</text>
<text text-anchor="start" x="1608.5" y="-978.3" font-family="Arial" font-size="19.00" fill="#444444">[Filesystem]</text>
</g>
<!-- 5 -->
<g id="5" class="node">
<title>5</title>
<polygon fill="#438dd5" stroke="#2e6295" points="467,-746 33,-746 33,-467 467,-467 467,-746"/>
<text text-anchor="start" x="70" y="-697.8" font-family="Arial" font-size="34.00" fill="#ffffff">Chrome MV3 Extension</text>
<text text-anchor="start" x="62" y="-675.8" font-family="Arial" font-size="19.00" fill="#ffffff">[Container: JavaScript, Chrome Manifest V3]</text>
<text text-anchor="start" x="107" y="-638.8" font-family="Arial" font-size="24.00" fill="#ffffff">Captures visible page text,</text>
<text text-anchor="start" x="132.5" y="-614.8" font-family="Arial" font-size="24.00" fill="#ffffff">media references, tab</text>
<text text-anchor="start" x="141" y="-590.8" font-family="Arial" font-size="24.00" fill="#ffffff">lifecycle events, and</text>
<text text-anchor="start" x="84" y="-566.8" font-family="Arial" font-size="24.00" fill="#ffffff">browser&#45;side media bytes from</text>
<text text-anchor="start" x="79" y="-542.8" font-family="Arial" font-size="24.00" fill="#ffffff">Windows Chrome; queues work</text>
<text text-anchor="start" x="91" y="-518.8" font-family="Arial" font-size="24.00" fill="#ffffff">durably and posts to the WSL</text>
<text text-anchor="start" x="202.5" y="-494.8" font-family="Arial" font-size="24.00" fill="#ffffff">daemon.</text>
</g>
<!-- 14&#45;&gt;5 -->
<g id="39" class="edge">
<title>14&#45;&gt;5</title>
<path fill="none" stroke="#444444" stroke-dasharray="5,2" d="M1025.78,-661.41C876.51,-660.34 677.98,-655.81 503,-641.5 494.62,-640.81 486.08,-640.04 477.47,-639.18"/>
<polygon fill="#444444" stroke="#444444" points="477.63,-635.68 467.33,-638.15 476.92,-642.65 477.63,-635.68"/>
<text text-anchor="start" x="690.5" y="-757.3" font-family="Arial" font-size="24.00" fill="#444444">6. Returns</text>
<text text-anchor="start" x="600.5" y="-733.3" font-family="Arial" font-size="24.00" fill="#444444">document/snapshot/artifact</text>
<text text-anchor="start" x="629" y="-709.3" font-family="Arial" font-size="24.00" fill="#444444">IDs before lazy media</text>
<text text-anchor="start" x="717.5" y="-685.3" font-family="Arial" font-size="24.00" fill="#444444">bytes</text>
<text text-anchor="start" x="503" y="-665.3" font-family="Arial" font-size="19.00" fill="#444444">[Bearer HTTP/JSON; raw HTTP PUT over 127.0.0.1:8765]</text>
</g>
<!-- 5&#45;&gt;13 -->
<g id="38" class="edge">
<title>5&#45;&gt;13</title>
<path fill="none" stroke="#444444" stroke-dasharray="5,2" d="M426.65,-746.04C451.59,-763.1 477.46,-779.45 503,-793.5 668.45,-884.54 868.45,-960.11 1020.74,-1011.26"/>
<polygon fill="#444444" stroke="#444444" points="1019.64,-1014.59 1030.24,-1014.44 1021.87,-1007.95 1019.64,-1014.59"/>
<text text-anchor="start" x="617.5" y="-1069.3" font-family="Arial" font-size="24.00" fill="#444444">7. Queues browser&#45;side</text>
<text text-anchor="start" x="637" y="-1045.3" font-family="Arial" font-size="24.00" fill="#444444">media tasks for later</text>
<text text-anchor="start" x="680" y="-1021.3" font-family="Arial" font-size="24.00" fill="#444444">fetch/upload</text>
<text text-anchor="start" x="595" y="-1001.3" font-family="Arial" font-size="19.00" fill="#444444">[chrome.storage.local + IndexedDB]</text>
</g>
<!-- 5&#45;&gt;14 -->
<g id="39" class="edge">
<title>5&#45;&gt;14</title>
<path fill="none" stroke="#444444" stroke-dasharray="5,2" d="M467.06,-542.45C479.15,-540.13 491.19,-538.11 503,-536.5 717.46,-507.27 778.68,-489.67 990,-536.5 998.67,-538.42 1007.4,-540.66 1016.13,-543.16"/>
<polygon fill="#444444" stroke="#444444" points="1015.41,-546.59 1025.99,-546.08 1017.4,-539.88 1015.41,-546.59"/>
<text text-anchor="start" x="623.5" y="-609.3" font-family="Arial" font-size="24.00" fill="#444444">3. POSTs /capture with</text>
<text text-anchor="start" x="629" y="-585.3" font-family="Arial" font-size="24.00" fill="#444444">visible text, metadata,</text>
<text text-anchor="start" x="666" y="-561.3" font-family="Arial" font-size="24.00" fill="#444444">and media refs</text>
<text text-anchor="start" x="503" y="-541.3" font-family="Arial" font-size="19.00" fill="#444444">[Bearer HTTP/JSON; raw HTTP PUT over 127.0.0.1:8765]</text>
</g>
<!-- 2 -->
<g id="2" class="node">
<title>2</title>
<polygon fill="#999999" stroke="#6b6b6b" points="1450,-287 1064,-287 1064,-56 1450,-56 1450,-287"/>
<text text-anchor="start" x="1122.5" y="-238.8" font-family="Arial" font-size="34.00" fill="#ffffff">Windows Chrome</text>
<text text-anchor="start" x="1180" y="-216.8" font-family="Arial" font-size="19.00" fill="#ffffff">[Software System]</text>
<text text-anchor="start" x="1093" y="-179.8" font-family="Arial" font-size="24.00" fill="#ffffff">The Windows Chrome runtime</text>
<text text-anchor="start" x="1106.5" y="-155.8" font-family="Arial" font-size="24.00" fill="#ffffff">that loads web pages, hosts</text>
<text text-anchor="start" x="1106" y="-131.8" font-family="Arial" font-size="24.00" fill="#ffffff">the MV3 extension, runs the</text>
<text text-anchor="start" x="1098" y="-107.8" font-family="Arial" font-size="24.00" fill="#ffffff">local UI in a tab, and exposes</text>
<text text-anchor="start" x="1127.5" y="-83.8" font-family="Arial" font-size="24.00" fill="#ffffff">Chrome extension APIs.</text>
</g>
<!-- 5&#45;&gt;2 -->
<g id="36" class="edge">
<title>5&#45;&gt;2</title>
<path fill="none" stroke="#444444" stroke-dasharray="5,2" d="M400.65,-466.86C432.79,-441.62 467.74,-417.37 503,-398.5 677.93,-304.88 896.88,-244.4 1053.52,-209.61"/>
<polygon fill="#444444" stroke="#444444" points="1054.73,-212.92 1063.74,-207.35 1053.22,-206.09 1054.73,-212.92"/>
<text text-anchor="start" x="605.5" y="-471.3" font-family="Arial" font-size="24.00" fill="#444444">2. Runs content script and</text>
<text text-anchor="start" x="633.5" y="-447.3" font-family="Arial" font-size="24.00" fill="#444444">service worker inside</text>
<text text-anchor="start" x="694.5" y="-423.3" font-family="Arial" font-size="24.00" fill="#444444">active tab</text>
<text text-anchor="start" x="641.5" y="-403.3" font-family="Arial" font-size="19.00" fill="#444444">[Chrome extension APIs]</text>
</g>
<!-- 1 -->
<g id="1" class="node">
<title>1</title>
<polygon fill="#08427b" stroke="#052e56" points="447.5,-287 52.5,-287 52.5,-56 447.5,-56 447.5,-287"/>
<text text-anchor="start" x="183" y="-238.8" font-family="Arial" font-size="34.00" fill="#ffffff">Operator</text>
<text text-anchor="start" x="214.5" y="-216.8" font-family="Arial" font-size="19.00" fill="#ffffff">[Person]</text>
<text text-anchor="start" x="123.5" y="-179.8" font-family="Arial" font-size="24.00" fill="#ffffff">Sole local operator who</text>
<text text-anchor="start" x="81.5" y="-155.8" font-family="Arial" font-size="24.00" fill="#ffffff">browses with Windows Chrome</text>
<text text-anchor="start" x="102.5" y="-131.8" font-family="Arial" font-size="24.00" fill="#ffffff">and searches, reviews, and</text>
<text text-anchor="start" x="88" y="-107.8" font-family="Arial" font-size="24.00" fill="#ffffff">deletes local browser&#45;memory</text>
<text text-anchor="start" x="206" y="-83.8" font-family="Arial" font-size="24.00" fill="#ffffff">records.</text>
</g>
<!-- 1&#45;&gt;2 -->
<g id="31" class="edge">
<title>1&#45;&gt;2</title>
<path fill="none" stroke="#444444" stroke-dasharray="5,2" d="M447.76,-171.5C622.65,-171.5 877.26,-171.5 1053.79,-171.5"/>
<polygon fill="#444444" stroke="#444444" points="1053.98,-175 1063.98,-171.5 1053.98,-168 1053.98,-175"/>
<text text-anchor="start" x="620.5" y="-178.3" font-family="Arial" font-size="24.00" fill="#444444">1. Browses a web page</text>
</g>
</g>
</svg>
