<?xml version="1.0" encoding="UTF-8" standalone="no"?>
<!DOCTYPE svg PUBLIC "-//W3C//DTD SVG 1.1//EN"
 "http://www.w3.org/Graphics/SVG/1.1/DTD/svg11.dtd">
<!-- Generated by graphviz version 2.43.0 (0)
 -->
<!-- Title: %3 Pages: 1 -->
<svg width="3831pt" height="1531pt"
 viewBox="0.00 0.00 3831.00 1531.38" xmlns="http://www.w3.org/2000/svg" xmlns:xlink="http://www.w3.org/1999/xlink">
<g id="graph0" class="graph" transform="scale(1 1) rotate(0) translate(4 1527.38)">
<title>%3</title>
<polygon fill="white" stroke="transparent" points="-4,4 -4,-1527.38 3827,-1527.38 3827,4 -4,4"/>
<text text-anchor="start" x="1353.5" y="-11.8" font-family="Arial" font-size="34.00">Browser Memory Daemon &#45; WSL Loopback HTTP Daemon &#45; Components</text>
<g id="clust1" class="cluster">
<title>cluster_22</title>
<polygon fill="none" stroke="#444444" points="8,-445.19 8,-1249.19 2942,-1249.19 2942,-445.19 8,-445.19"/>
<text text-anchor="start" x="1309.5" y="-473.99" font-family="Arial" font-size="24.00" fill="#444444">WSL Loopback HTTP Daemon</text>
<text text-anchor="start" x="1273" y="-453.99" font-family="Arial" font-size="19.00" fill="#444444">[Container: Python 3.11, ThreadingHTTPServer]</text>
</g>
<!-- 49 -->
<g id="49" class="node">
<title>49</title>
<path fill="#2f95c8" stroke="#20688c" d="M2896.5,-387.4C2896.5,-405.7 2813.58,-420.56 2711.5,-420.56 2609.42,-420.56 2526.5,-405.7 2526.5,-387.4 2526.5,-387.4 2526.5,-88.97 2526.5,-88.97 2526.5,-70.67 2609.42,-55.81 2711.5,-55.81 2813.58,-55.81 2896.5,-70.67 2896.5,-88.97 2896.5,-88.97 2896.5,-387.4 2896.5,-387.4"/>
<path fill="none" stroke="#20688c" d="M2896.5,-387.4C2896.5,-369.11 2813.58,-354.24 2711.5,-354.24 2609.42,-354.24 2526.5,-369.11 2526.5,-387.4"/>
<text text-anchor="start" x="2598.5" y="-322.49" font-family="Arial" font-size="34.00" fill="#ffffff">SQLite + FTS5</text>
<text text-anchor="start" x="2638.5" y="-288.49" font-family="Arial" font-size="34.00" fill="#ffffff">Database</text>
<text text-anchor="start" x="2585.5" y="-266.49" font-family="Arial" font-size="19.00" fill="#ffffff">[Container: SQLite with FTS5]</text>
<text text-anchor="start" x="2592" y="-229.49" font-family="Arial" font-size="24.00" fill="#ffffff">Durable text/metadata</text>
<text text-anchor="start" x="2560.5" y="-205.49" font-family="Arial" font-size="24.00" fill="#ffffff">authority including migration</text>
<text text-anchor="start" x="2555.5" y="-181.49" font-family="Arial" font-size="24.00" fill="#ffffff">ledger, capture observations,</text>
<text text-anchor="start" x="2565.5" y="-157.49" font-family="Arial" font-size="24.00" fill="#ffffff">and immutable observation</text>
<text text-anchor="start" x="2613.5" y="-133.49" font-family="Arial" font-size="24.00" fill="#ffffff">ingest sequences.</text>
</g>
<!-- 50 -->
<g id="50" class="node">
<title>50</title>
<path fill="#2f95c8" stroke="#20688c" d="M3748.5,-1490.4C3748.5,-1508.7 3659.98,-1523.56 3551,-1523.56 3442.02,-1523.56 3353.5,-1508.7 3353.5,-1490.4 3353.5,-1490.4 3353.5,-1191.97 3353.5,-1191.97 3353.5,-1173.67 3442.02,-1158.81 3551,-1158.81 3659.98,-1158.81 3748.5,-1173.67 3748.5,-1191.97 3748.5,-1191.97 3748.5,-1490.4 3748.5,-1490.4"/>
<path fill="none" stroke="#20688c" d="M3748.5,-1490.4C3748.5,-1472.11 3659.98,-1457.24 3551,-1457.24 3442.02,-1457.24 3353.5,-1472.11 3353.5,-1490.4"/>
<text text-anchor="start" x="3429.5" y="-1425.49" font-family="Arial" font-size="34.00" fill="#ffffff">Local Derivative</text>
<text text-anchor="start" x="3510" y="-1391.49" font-family="Arial" font-size="34.00" fill="#ffffff">Store</text>
<text text-anchor="start" x="3411" y="-1369.49" font-family="Arial" font-size="19.00" fill="#ffffff">[Container: WSL local filesystem]</text>
<text text-anchor="start" x="3397.5" y="-1332.49" font-family="Arial" font-size="24.00" fill="#ffffff">Reconstructible compatibility</text>
<text text-anchor="start" x="3382.5" y="-1308.49" font-family="Arial" font-size="24.00" fill="#ffffff">evidence such as pre&#45;version&#45;9</text>
<text text-anchor="start" x="3421" y="-1284.49" font-family="Arial" font-size="24.00" fill="#ffffff">clean&#45;text sidecars; new</text>
<text text-anchor="start" x="3427.5" y="-1260.49" font-family="Arial" font-size="24.00" fill="#ffffff">captures create no text</text>
<text text-anchor="start" x="3502.5" y="-1236.49" font-family="Arial" font-size="24.00" fill="#ffffff">sidecars.</text>
</g>
<!-- 51 -->
<g id="51" class="node">
<title>51</title>
<path fill="#2f95c8" stroke="#20688c" d="M3823,-1048.4C3823,-1070.01 3701.09,-1087.56 3551,-1087.56 3400.91,-1087.56 3279,-1070.01 3279,-1048.4 3279,-1048.4 3279,-695.97 3279,-695.97 3279,-674.36 3400.91,-656.81 3551,-656.81 3701.09,-656.81 3823,-674.36 3823,-695.97 3823,-695.97 3823,-1048.4 3823,-1048.4"/>
<path fill="none" stroke="#20688c" d="M3823,-1048.4C3823,-1026.8 3701.09,-1009.24 3551,-1009.24 3400.91,-1009.24 3279,-1026.8 3279,-1048.4"/>
<text text-anchor="start" x="3395.5" y="-980.49" font-family="Arial" font-size="34.00" fill="#ffffff">Guarded Media Blob</text>
<text text-anchor="start" x="3501.5" y="-946.49" font-family="Arial" font-size="34.00" fill="#ffffff">Cache</text>
<text text-anchor="start" x="3308" y="-924.49" font-family="Arial" font-size="19.00" fill="#ffffff">[Container: WSL&#45;visible local or NAS&#45;mounted filesystem]</text>
<text text-anchor="start" x="3441" y="-887.49" font-family="Arial" font-size="24.00" fill="#ffffff">Bounded disposable</text>
<text text-anchor="start" x="3385.5" y="-863.49" font-family="Arial" font-size="24.00" fill="#ffffff">image/video/audio bytes under</text>
<text text-anchor="start" x="3409.5" y="-839.49" font-family="Arial" font-size="24.00" fill="#ffffff">the configured media root;</text>
<text text-anchor="start" x="3437" y="-815.49" font-family="Arial" font-size="24.00" fill="#ffffff">explicit external roots</text>
<text text-anchor="start" x="3452" y="-791.49" font-family="Arial" font-size="24.00" fill="#ffffff">require mount and</text>
<text text-anchor="start" x="3401.5" y="-767.49" font-family="Arial" font-size="24.00" fill="#ffffff">identity&#45;marker proof before</text>
<text text-anchor="start" x="3510" y="-743.49" font-family="Arial" font-size="24.00" fill="#ffffff">access.</text>
</g>
<!-- 52 -->
<g id="52" class="node">
<title>52</title>
<path fill="#2f95c8" stroke="#20688c" d="M3744,-542.9C3744,-566.17 3657.49,-585.06 3551,-585.06 3444.51,-585.06 3358,-566.17 3358,-542.9 3358,-542.9 3358,-163.47 3358,-163.47 3358,-140.21 3444.51,-121.31 3551,-121.31 3657.49,-121.31 3744,-140.21 3744,-163.47 3744,-163.47 3744,-542.9 3744,-542.9"/>
<path fill="none" stroke="#20688c" d="M3744,-542.9C3744,-519.64 3657.49,-500.74 3551,-500.74 3444.51,-500.74 3358,-519.64 3358,-542.9"/>
<text text-anchor="start" x="3387" y="-473.49" font-family="Arial" font-size="34.00" fill="#ffffff">Bounded Local Media</text>
<text text-anchor="start" x="3507.5" y="-439.49" font-family="Arial" font-size="34.00" fill="#ffffff">Spool</text>
<text text-anchor="start" x="3411" y="-417.49" font-family="Arial" font-size="19.00" fill="#ffffff">[Container: WSL local filesystem]</text>
<text text-anchor="start" x="3399" y="-380.49" font-family="Arial" font-size="24.00" fill="#ffffff">Opt&#45;in durable outage buffer</text>
<text text-anchor="start" x="3402.5" y="-356.49" font-family="Arial" font-size="24.00" fill="#ffffff">beneath the local WSL data</text>
<text text-anchor="start" x="3429.5" y="-332.49" font-family="Arial" font-size="24.00" fill="#ffffff">root; admission counts</text>
<text text-anchor="start" x="3405.5" y="-308.49" font-family="Arial" font-size="24.00" fill="#ffffff">committed files and distinct</text>
<text text-anchor="start" x="3399" y="-284.49" font-family="Arial" font-size="24.00" fill="#ffffff">in&#45;flight SQLite reservations,</text>
<text text-anchor="start" x="3426" y="-260.49" font-family="Arial" font-size="24.00" fill="#ffffff">and drain verifies bytes</text>
<text text-anchor="start" x="3403.5" y="-236.49" font-family="Arial" font-size="24.00" fill="#ffffff">before tier transition/source</text>
<text text-anchor="start" x="3505" y="-212.49" font-family="Arial" font-size="24.00" fill="#ffffff">cleanup.</text>
</g>
<!-- 23 -->
<g id="23" class="node">
<title>23</title>
<polygon fill="#85bbf0" stroke="#1168bd" points="527,-971.69 33,-971.69 33,-596.69 527,-596.69 527,-971.69"/>
<text text-anchor="start" x="111.5" y="-923.49" font-family="Arial" font-size="34.00" fill="#000000">HTTP Request Router</text>
<text text-anchor="start" x="62" y="-901.49" font-family="Arial" font-size="19.00" fill="#000000">[Component: Python http.server + route descriptors]</text>
<text text-anchor="start" x="92.5" y="-864.49" font-family="Arial" font-size="24.00" fill="#000000">Adapts BaseHTTPRequestHandler</text>
<text text-anchor="start" x="129.5" y="-840.49" font-family="Arial" font-size="24.00" fill="#000000">requests through immutable</text>
<text text-anchor="start" x="125" y="-816.49" font-family="Arial" font-size="24.00" fill="#000000">method/path descriptors with</text>
<text text-anchor="start" x="119.5" y="-792.49" font-family="Arial" font-size="24.00" fill="#000000">static precedence; owns auth,</text>
<text text-anchor="start" x="174.5" y="-768.49" font-family="Arial" font-size="24.00" fill="#000000">parsing, compatible</text>
<text text-anchor="start" x="155.5" y="-744.49" font-family="Arial" font-size="24.00" fill="#000000">status/error responses,</text>
<text text-anchor="start" x="119.5" y="-720.49" font-family="Arial" font-size="24.00" fill="#000000">request IDs, common security</text>
<text text-anchor="start" x="152" y="-696.49" font-family="Arial" font-size="24.00" fill="#000000">headers, redaction&#45;safe</text>
<text text-anchor="start" x="123.5" y="-672.49" font-family="Arial" font-size="24.00" fill="#000000">telemetry, bounded response</text>
<text text-anchor="start" x="113" y="-648.49" font-family="Arial" font-size="24.00" fill="#000000">streaming, disconnect cleanup,</text>
<text text-anchor="start" x="132.5" y="-624.49" font-family="Arial" font-size="24.00" fill="#000000">CORS, and finite UI assets.</text>
</g>
<!-- 24 -->
<g id="24" class="node">
<title>24</title>
<polygon fill="#85bbf0" stroke="#1168bd" points="1292,-1223.69 891,-1223.69 891,-872.69 1292,-872.69 1292,-1223.69"/>
<text text-anchor="start" x="920" y="-1175.49" font-family="Arial" font-size="34.00" fill="#000000">Application Use Cases</text>
<text text-anchor="start" x="1002.5" y="-1153.49" font-family="Arial" font-size="19.00" fill="#000000">[Component: Python]</text>
<text text-anchor="start" x="929.5" y="-1116.49" font-family="Arial" font-size="24.00" fill="#000000">Provides request&#45;independent</text>
<text text-anchor="start" x="966.5" y="-1092.49" font-family="Arial" font-size="24.00" fill="#000000">capture, lifecycle, read,</text>
<text text-anchor="start" x="956.5" y="-1068.49" font-family="Arial" font-size="24.00" fill="#000000">forget, policy, doctor, and</text>
<text text-anchor="start" x="965.5" y="-1044.49" font-family="Arial" font-size="24.00" fill="#000000">media use cases; owns</text>
<text text-anchor="start" x="962.5" y="-1020.49" font-family="Arial" font-size="24.00" fill="#000000">database&#45;ready checks,</text>
<text text-anchor="start" x="935.5" y="-996.49" font-family="Arial" font-size="24.00" fill="#000000">transaction/audit boundaries,</text>
<text text-anchor="start" x="939" y="-972.49" font-family="Arial" font-size="24.00" fill="#000000">asynchronous media kickoff,</text>
<text text-anchor="start" x="925.5" y="-948.49" font-family="Arial" font-size="24.00" fill="#000000">and upload/download resource</text>
<text text-anchor="start" x="926.5" y="-924.49" font-family="Arial" font-size="24.00" fill="#000000">leases without importing HTTP</text>
<text text-anchor="start" x="947.5" y="-900.49" font-family="Arial" font-size="24.00" fill="#000000">request or response types.</text>
</g>
<!-- 23&#45;&gt;24 -->
<g id="115" class="edge">
<title>23&#45;&gt;24</title>
<path fill="none" stroke="#707070" stroke-dasharray="5,2" d="M527.17,-864.47C640.28,-901.36 773.01,-944.65 881.22,-979.94"/>
<polygon fill="#707070" stroke="#707070" points="880.36,-983.33 890.95,-983.11 882.53,-976.68 880.36,-983.33"/>
<polygon fill="white" stroke="transparent" points="570.5,-969.19 570.5,-1055.19 847.5,-1055.19 847.5,-969.19 570.5,-969.19"/>
<text text-anchor="start" x="627.5" y="-1031.99" font-family="Arial" font-size="24.00" fill="#707070">Invokes explicit</text>
<text text-anchor="start" x="575" y="-1005.99" font-family="Arial" font-size="24.00" fill="#707070">request&#45;independent use</text>
<text text-anchor="start" x="633" y="-979.99" font-family="Arial" font-size="24.00" fill="#707070">cases through</text>
</g>
<!-- 42 -->
<g id="42" class="node">
<title>42</title>
<polygon fill="#85bbf0" stroke="#1168bd" points="1289,-800.69 894,-800.69 894,-545.69 1289,-545.69 1289,-800.69"/>
<text text-anchor="start" x="929.5" y="-752.49" font-family="Arial" font-size="34.00" fill="#000000">X Observation Export</text>
<text text-anchor="start" x="963.5" y="-730.49" font-family="Arial" font-size="19.00" fill="#000000">[Component: Python + sqlite3]</text>
<text text-anchor="start" x="971" y="-693.49" font-family="Arial" font-size="24.00" fill="#000000">Opens existing SQLite</text>
<text text-anchor="start" x="938.5" y="-669.49" font-family="Arial" font-size="24.00" fill="#000000">mode=ro/query_only, denies</text>
<text text-anchor="start" x="962" y="-645.49" font-family="Arial" font-size="24.00" fill="#000000">write opcodes, validates</text>
<text text-anchor="start" x="953" y="-621.49" font-family="Arial" font-size="24.00" fill="#000000">schema/ledger, and emits</text>
<text text-anchor="start" x="923" y="-597.49" font-family="Arial" font-size="24.00" fill="#000000">body&#45;safe cursor pages without</text>
<text text-anchor="start" x="1026.5" y="-573.49" font-family="Arial" font-size="24.00" fill="#000000">audit writes.</text>
</g>
<!-- 23&#45;&gt;42 -->
<g id="125" class="edge">
<title>23&#45;&gt;42</title>
<path fill="none" stroke="#707070" stroke-dasharray="5,2" d="M527.17,-750.43C641.18,-734.8 775.13,-716.43 883.8,-701.53"/>
<polygon fill="#707070" stroke="#707070" points="884.47,-704.97 893.9,-700.15 883.52,-698.04 884.47,-704.97"/>
<polygon fill="white" stroke="transparent" points="563,-744.19 563,-830.19 855,-830.19 855,-744.19 563,-744.19"/>
<text text-anchor="start" x="567" y="-806.99" font-family="Arial" font-size="24.00" fill="#707070">Serves authenticated GET</text>
<text text-anchor="start" x="583.5" y="-780.99" font-family="Arial" font-size="24.00" fill="#707070">/exports/x&#45;observations</text>
<text text-anchor="start" x="667.5" y="-754.99" font-family="Arial" font-size="24.00" fill="#707070">through</text>
</g>
<!-- 41 -->
<g id="41" class="node">
<title>41</title>
<polygon fill="#85bbf0" stroke="#1168bd" points="2134,-999.69 1627,-999.69 1627,-744.69 2134,-744.69 2134,-999.69"/>
<text text-anchor="start" x="1697" y="-951.49" font-family="Arial" font-size="34.00" fill="#000000">Search and Read Model</text>
<text text-anchor="start" x="1725.5" y="-929.49" font-family="Arial" font-size="19.00" fill="#000000">[Component: Python + SQLite FTS5]</text>
<text text-anchor="start" x="1709.5" y="-892.49" font-family="Arial" font-size="24.00" fill="#000000">Provides exact FTS search plus</text>
<text text-anchor="start" x="1750.5" y="-868.49" font-family="Arial" font-size="24.00" fill="#000000">SQLite&#45;authoritative text</text>
<text text-anchor="start" x="1738" y="-844.49" font-family="Arial" font-size="24.00" fill="#000000">detail and observation&#45;first</text>
<text text-anchor="start" x="1656" y="-820.49" font-family="Arial" font-size="24.00" fill="#000000">recent/timeline/document/snapshot/media</text>
<text text-anchor="start" x="1747" y="-796.49" font-family="Arial" font-size="24.00" fill="#000000">views with explicit legacy</text>
<text text-anchor="start" x="1830" y="-772.49" font-family="Arial" font-size="24.00" fill="#000000">fallbacks.</text>
</g>
<!-- 24&#45;&gt;41 -->
<g id="124" class="edge">
<title>24&#45;&gt;41</title>
<path fill="none" stroke="#707070" stroke-dasharray="5,2" d="M1292.11,-1003.55C1390.7,-981.5 1510.93,-954.61 1616.88,-930.92"/>
<polygon fill="#707070" stroke="#707070" points="1617.76,-934.31 1626.76,-928.71 1616.24,-927.48 1617.76,-934.31"/>
<polygon fill="white" stroke="transparent" points="1328,-991.19 1328,-1051.19 1591,-1051.19 1591,-991.19 1328,-991.19"/>
<text text-anchor="start" x="1332.5" y="-1027.99" font-family="Arial" font-size="24.00" fill="#707070">Executes read requests</text>
<text text-anchor="start" x="1418.5" y="-1001.99" font-family="Arial" font-size="24.00" fill="#707070">through</text>
</g>
<!-- 39 -->
<g id="39" class="node">
<title>39</title>
<polygon fill="#85bbf0" stroke="#1168bd" points="2917,-1023.69 2506,-1023.69 2506,-720.69 2917,-720.69 2917,-1023.69"/>
<text text-anchor="start" x="2555" y="-975.49" font-family="Arial" font-size="34.00" fill="#000000">Contained BlobStore</text>
<text text-anchor="start" x="2535" y="-953.49" font-family="Arial" font-size="19.00" fill="#000000">[Component: Python filesystem boundary]</text>
<text text-anchor="start" x="2559" y="-916.49" font-family="Arial" font-size="24.00" fill="#000000">Prefers root&#45;relative locators</text>
<text text-anchor="start" x="2595.5" y="-892.49" font-family="Arial" font-size="24.00" fill="#000000">with contained legacy</text>
<text text-anchor="start" x="2580.5" y="-868.49" font-family="Arial" font-size="24.00" fill="#000000">fallback; streams unique</text>
<text text-anchor="start" x="2596.5" y="-844.49" font-family="Arial" font-size="24.00" fill="#000000">stages with size/hash</text>
<text text-anchor="start" x="2592.5" y="-820.49" font-family="Arial" font-size="24.00" fill="#000000">accounting; atomically</text>
<text text-anchor="start" x="2564.5" y="-796.49" font-family="Arial" font-size="24.00" fill="#000000">commits; and contains blob</text>
<text text-anchor="start" x="2597" y="-772.49" font-family="Arial" font-size="24.00" fill="#000000">read, stat, and delete</text>
<text text-anchor="start" x="2651" y="-748.49" font-family="Arial" font-size="24.00" fill="#000000">operations.</text>
</g>
<!-- 39&#45;&gt;50 -->
<g id="162" class="edge">
<title>39&#45;&gt;50</title>
<path fill="none" stroke="#707070" stroke-dasharray="5,2" d="M2917.11,-986.77C3046.93,-1059.47 3214.32,-1153.21 3344.34,-1226.02"/>
<polygon fill="#707070" stroke="#707070" points="3342.81,-1229.17 3353.24,-1231 3346.23,-1223.06 3342.81,-1229.17"/>
<polygon fill="white" stroke="transparent" points="2962,-1162.19 2962,-1261.19 3234,-1261.19 3234,-1162.19 2962,-1162.19"/>
<text text-anchor="start" x="2966" y="-1238.49" font-family="Arial" font-size="24.00" fill="#707070">Reads, stats, reconciles,</text>
<text text-anchor="start" x="2974" y="-1214.49" font-family="Arial" font-size="24.00" fill="#707070">and deletes legacy text</text>
<text text-anchor="start" x="3040" y="-1190.49" font-family="Arial" font-size="24.00" fill="#707070">sidecars in</text>
<text text-anchor="start" x="3046.5" y="-1170.49" font-family="Arial" font-size="19.00" fill="#707070">[Filesystem]</text>
</g>
<!-- 39&#45;&gt;51 -->
<g id="163" class="edge">
<title>39&#45;&gt;51</title>
<path fill="none" stroke="#707070" stroke-dasharray="5,2" d="M2917.11,-872.19C3022.86,-872.19 3153.54,-872.19 3268.64,-872.19"/>
<polygon fill="#707070" stroke="#707070" points="3268.67,-875.69 3278.67,-872.19 3268.67,-868.69 3268.67,-875.69"/>
<polygon fill="white" stroke="transparent" points="2962.5,-872.19 2962.5,-971.19 3233.5,-971.19 3233.5,-872.19 2962.5,-872.19"/>
<text text-anchor="start" x="2968.5" y="-948.49" font-family="Arial" font-size="24.00" fill="#707070">Stages, commits, reads,</text>
<text text-anchor="start" x="2967" y="-924.49" font-family="Arial" font-size="24.00" fill="#707070">stats, and deletes media</text>
<text text-anchor="start" x="3056.5" y="-900.49" font-family="Arial" font-size="24.00" fill="#707070">blobs in</text>
<text text-anchor="start" x="3047" y="-880.49" font-family="Arial" font-size="19.00" fill="#707070">[Filesystem]</text>
</g>
<!-- 39&#45;&gt;52 -->
<g id="164" class="edge">
<title>39&#45;&gt;52</title>
<path fill="none" stroke="#707070" stroke-dasharray="5,2" d="M2917.11,-745.39C3048.6,-663.91 3218.63,-558.54 3349.34,-477.54"/>
<polygon fill="#707070" stroke="#707070" points="3351.23,-480.48 3357.89,-472.24 3347.55,-474.53 3351.23,-480.48"/>
<polygon fill="white" stroke="transparent" points="2953,-718.19 2953,-817.19 3243,-817.19 3243,-718.19 2953,-718.19"/>
<text text-anchor="start" x="2968" y="-794.49" font-family="Arial" font-size="24.00" fill="#707070">Stages, commits, reads,</text>
<text text-anchor="start" x="2957" y="-770.49" font-family="Arial" font-size="24.00" fill="#707070">stats, and deletes spooled</text>
<text text-anchor="start" x="3052" y="-746.49" font-family="Arial" font-size="24.00" fill="#707070">media in</text>
<text text-anchor="start" x="3046.5" y="-726.49" font-family="Arial" font-size="19.00" fill="#707070">[Filesystem]</text>
</g>
<!-- 41&#45;&gt;49 -->
<g id="155" class="edge">
<title>41&#45;&gt;49</title>
<path fill="none" stroke="#707070" stroke-dasharray="5,2" d="M2048.26,-744.65C2184.11,-640.76 2376.04,-493.98 2518.32,-385.16"/>
<polygon fill="#707070" stroke="#707070" points="2520.52,-387.88 2526.34,-379.03 2516.27,-382.32 2520.52,-387.88"/>
<polygon fill="white" stroke="transparent" points="2177,-648.19 2177,-723.19 2463,-723.19 2463,-648.19 2177,-648.19"/>
<text text-anchor="start" x="2181" y="-700.49" font-family="Arial" font-size="24.00" fill="#707070">Reads metadata and FTS</text>
<text text-anchor="start" x="2295.5" y="-676.49" font-family="Arial" font-size="24.00" fill="#707070">from</text>
<text text-anchor="start" x="2259.5" y="-656.49" font-family="Arial" font-size="19.00" fill="#707070">[SQLite FTS5]</text>
</g>
<!-- 41&#45;&gt;39 -->
<g id="157" class="edge">
<title>41&#45;&gt;39</title>
<path fill="none" stroke="#707070" stroke-dasharray="5,2" d="M2134.17,-872.19C2249.63,-872.19 2384.96,-872.19 2495.46,-872.19"/>
<polygon fill="#707070" stroke="#707070" points="2495.74,-875.69 2505.74,-872.19 2495.74,-868.69 2495.74,-875.69"/>
<polygon fill="white" stroke="transparent" points="2170,-872.19 2170,-958.19 2470,-958.19 2470,-872.19 2170,-872.19"/>
<text text-anchor="start" x="2198" y="-934.99" font-family="Arial" font-size="24.00" fill="#707070">Reads only legacy text</text>
<text text-anchor="start" x="2174" y="-908.99" font-family="Arial" font-size="24.00" fill="#707070">sidecars and checks media</text>
<text text-anchor="start" x="2253.5" y="-882.99" font-family="Arial" font-size="24.00" fill="#707070">files through</text>
</g>
<!-- 42&#45;&gt;49 -->
<g id="156" class="edge">
<title>42&#45;&gt;49</title>
<path fill="none" stroke="#707070" stroke-dasharray="5,2" d="M1289.28,-620.28C1601.29,-536.4 2205.89,-373.85 2516.29,-290.4"/>
<polygon fill="#707070" stroke="#707070" points="2517.55,-293.69 2526.29,-287.71 2515.73,-286.93 2517.55,-293.69"/>
<polygon fill="white" stroke="transparent" points="1725.5,-526.19 1725.5,-625.19 2035.5,-625.19 2035.5,-526.19 1725.5,-526.19"/>
<text text-anchor="start" x="1793.5" y="-602.49" font-family="Arial" font-size="24.00" fill="#707070">Reads validated</text>
<text text-anchor="start" x="1729.5" y="-578.49" font-family="Arial" font-size="24.00" fill="#707070">observation/evidence pages</text>
<text text-anchor="start" x="1763" y="-554.49" font-family="Arial" font-size="24.00" fill="#707070">without writes or audit</text>
<text text-anchor="start" x="1748" y="-534.49" font-family="Arial" font-size="19.00" fill="#707070">[SQLite mode=ro + query_only]</text>
</g>
</g>
</svg>
