<?xml version="1.0" encoding="UTF-8" standalone="no"?>
<!DOCTYPE svg PUBLIC "-//W3C//DTD SVG 1.1//EN"
 "http://www.w3.org/Graphics/SVG/1.1/DTD/svg11.dtd">
<!-- Generated by graphviz version 2.43.0 (0)
 -->
<!-- Title: %3 Pages: 1 -->
<svg width="3592pt" height="2061pt"
 viewBox="0.00 0.00 3592.00 2061.00" xmlns="http://www.w3.org/2000/svg" xmlns:xlink="http://www.w3.org/1999/xlink">
<g id="graph0" class="graph" transform="scale(1 1) rotate(0) translate(4 2057)">
<title>%3</title>
<polygon fill="white" stroke="transparent" points="-4,4 -4,-2057 3588,-2057 3588,4 -4,4"/>
<text text-anchor="start" x="1207" y="-11.8" font-family="Arial" font-size="34.00">Component View: Browser Memory Daemon &#45; WSL Loopback HTTP Daemon</text>
<g id="clust1" class="cluster">
<title>cluster_4</title>
<polygon fill="none" stroke="#444444" points="8,-64 8,-2045 3576,-2045 3576,-64 8,-64"/>
<text text-anchor="start" x="1651" y="-92.8" font-family="Arial" font-size="24.00" fill="#444444">Browser Memory Daemon</text>
<text text-anchor="start" x="1715" y="-72.8" font-family="Arial" font-size="19.00" fill="#444444">[Software System]</text>
</g>
<g id="clust2" class="cluster">
<title>cluster_14</title>
<polygon fill="none" stroke="#444444" points="33,-164 33,-1704 2836,-1704 2836,-164 33,-164"/>
<text text-anchor="start" x="1269" y="-192.8" font-family="Arial" font-size="24.00" fill="#444444">WSL Loopback HTTP Daemon</text>
<text text-anchor="start" x="1232.5" y="-172.8" font-family="Arial" font-size="19.00" fill="#444444">[Container: Python 3.11, ThreadingHTTPServer]</text>
</g>
<!-- 15 -->
<g id="15" class="node">
<title>15</title>
<polygon fill="#85bbf0" stroke="#1168bd" points="453,-1677.5 58,-1677.5 58,-1446.5 453,-1446.5 453,-1677.5"/>
<text text-anchor="start" x="87" y="-1629.3" font-family="Arial" font-size="34.00" fill="#000000">HTTP Request Router</text>
<text text-anchor="start" x="119" y="-1607.3" font-family="Arial" font-size="19.00" fill="#000000">[Component: Python http.server]</text>
<text text-anchor="start" x="90" y="-1570.3" font-family="Arial" font-size="24.00" fill="#000000">Routes loopback API requests,</text>
<text text-anchor="start" x="112.5" y="-1546.3" font-family="Arial" font-size="24.00" fill="#000000">serves UI assets, enforces</text>
<text text-anchor="start" x="91.5" y="-1522.3" font-family="Arial" font-size="24.00" fill="#000000">bearer auth for memory/admin</text>
<text text-anchor="start" x="106" y="-1498.3" font-family="Arial" font-size="24.00" fill="#000000">APIs, and applies CORS for</text>
<text text-anchor="start" x="172" y="-1474.3" font-family="Arial" font-size="24.00" fill="#000000">allowed origins.</text>
</g>
<!-- 21 -->
<g id="21" class="node">
<title>21</title>
<polygon fill="#85bbf0" stroke="#1168bd" points="1231,-1262.5 810,-1262.5 810,-925.5 1231,-925.5 1231,-1262.5"/>
<text text-anchor="start" x="917" y="-1214.3" font-family="Arial" font-size="34.00" fill="#000000">Media Artifact</text>
<text text-anchor="start" x="953.5" y="-1180.3" font-family="Arial" font-size="34.00" fill="#000000">Manager</text>
<text text-anchor="start" x="839" y="-1158.3" font-family="Arial" font-size="19.00" fill="#000000">[Component: Python + sqlite3 + filesystem]</text>
<text text-anchor="start" x="883.5" y="-1121.3" font-family="Arial" font-size="24.00" fill="#000000">Provides the compatibility</text>
<text text-anchor="start" x="853.5" y="-1097.3" font-family="Arial" font-size="24.00" fill="#000000">API, records media references,</text>
<text text-anchor="start" x="851" y="-1073.3" font-family="Arial" font-size="24.00" fill="#000000">streams bounded blob uploads,</text>
<text text-anchor="start" x="885" y="-1049.3" font-family="Arial" font-size="24.00" fill="#000000">delegates guarded public</text>
<text text-anchor="start" x="866.5" y="-1025.3" font-family="Arial" font-size="24.00" fill="#000000">transport, and drains verified</text>
<text text-anchor="start" x="869" y="-1001.3" font-family="Arial" font-size="24.00" fill="#000000">spool bytes without coupling</text>
<text text-anchor="start" x="915" y="-977.3" font-family="Arial" font-size="24.00" fill="#000000">text ingest to media</text>
<text text-anchor="start" x="962" y="-953.3" font-family="Arial" font-size="24.00" fill="#000000">availability.</text>
</g>
<!-- 15&#45;&gt;21 -->
<g id="90" class="edge">
<title>15&#45;&gt;21</title>
<path fill="none" stroke="#444444" stroke-dasharray="5,2" d="M445.11,-1446.31C552.95,-1380.16 688.71,-1296.9 801.16,-1227.92"/>
<polygon fill="#444444" stroke="#444444" points="803.21,-1230.77 809.9,-1222.56 799.55,-1224.81 803.21,-1230.77"/>
<polygon fill="white" stroke="transparent" points="489,-1410 489,-1444 774,-1444 774,-1410 489,-1410"/>
<text text-anchor="start" x="493.5" y="-1420.8" font-family="Arial" font-size="24.00" fill="#444444">Routes media requests to</text>
</g>
<!-- 28 -->
<g id="28" class="node">
<title>28</title>
<polygon fill="#85bbf0" stroke="#1168bd" points="2803,-1678.5 2397,-1678.5 2397,-1365.5 2803,-1365.5 2803,-1678.5"/>
<text text-anchor="start" x="2487" y="-1630.3" font-family="Arial" font-size="34.00" fill="#000000">Media Process</text>
<text text-anchor="start" x="2468.5" y="-1596.3" font-family="Arial" font-size="34.00" fill="#000000">Resource Budget</text>
<text text-anchor="start" x="2426" y="-1574.3" font-family="Arial" font-size="19.00" fill="#000000">[Component: Python threading.Condition]</text>
<text text-anchor="start" x="2437.5" y="-1537.3" font-family="Arial" font-size="24.00" fill="#000000">Bounds active media requests</text>
<text text-anchor="start" x="2466" y="-1513.3" font-family="Arial" font-size="24.00" fill="#000000">and in&#45;flight bytes across</text>
<text text-anchor="start" x="2440" y="-1489.3" font-family="Arial" font-size="24.00" fill="#000000">threads within one daemon or</text>
<text text-anchor="start" x="2466" y="-1465.3" font-family="Arial" font-size="24.00" fill="#000000">worker process; exposes</text>
<text text-anchor="start" x="2471.5" y="-1441.3" font-family="Arial" font-size="24.00" fill="#000000">aggregate counters and</text>
<text text-anchor="start" x="2448" y="-1417.3" font-family="Arial" font-size="24.00" fill="#000000">releases leases on failure or</text>
<text text-anchor="start" x="2532.5" y="-1393.3" font-family="Arial" font-size="24.00" fill="#000000">cancellation.</text>
</g>
<!-- 15&#45;&gt;28 -->
<g id="91" class="edge">
<title>15&#45;&gt;28</title>
<path fill="none" stroke="#444444" stroke-dasharray="5,2" d="M453.22,-1562.58C782.01,-1563.53 1463.98,-1565.35 2041,-1566 2179.67,-1566.16 2214.88,-1578.26 2353,-1566 2364.03,-1565.02 2375.31,-1563.8 2386.67,-1562.4"/>
<polygon fill="#444444" stroke="#444444" points="2387.2,-1565.86 2396.67,-1561.11 2386.31,-1558.91 2387.2,-1565.86"/>
<polygon fill="white" stroke="transparent" points="1278,-1565 1278,-1651 1539,-1651 1539,-1565 1278,-1565"/>
<text text-anchor="start" x="1282.5" y="-1627.8" font-family="Arial" font-size="24.00" fill="#444444">Leases bounded media</text>
<text text-anchor="start" x="1295.5" y="-1601.8" font-family="Arial" font-size="24.00" fill="#444444">upload and response</text>
<text text-anchor="start" x="1320" y="-1575.8" font-family="Arial" font-size="24.00" fill="#444444">capacity through</text>
</g>
<!-- 23 -->
<g id="23" class="node">
<title>23</title>
<polygon fill="#85bbf0" stroke="#1168bd" points="2801.5,-918.5 2398.5,-918.5 2398.5,-639.5 2801.5,-639.5 2801.5,-918.5"/>
<text text-anchor="start" x="2427.5" y="-870.3" font-family="Arial" font-size="34.00" fill="#000000">Media Task Repository</text>
<text text-anchor="start" x="2472" y="-848.3" font-family="Arial" font-size="19.00" fill="#000000">[Component: Python + sqlite3]</text>
<text text-anchor="start" x="2451" y="-811.3" font-family="Arial" font-size="24.00" fill="#000000">Creates deterministic tasks,</text>
<text text-anchor="start" x="2467" y="-787.3" font-family="Arial" font-size="24.00" fill="#000000">preserves terminal state,</text>
<text text-anchor="start" x="2452" y="-763.3" font-family="Arial" font-size="24.00" fill="#000000">atomically leases due work,</text>
<text text-anchor="start" x="2459" y="-739.3" font-family="Arial" font-size="24.00" fill="#000000">recovers stale leases, and</text>
<text text-anchor="start" x="2441" y="-715.3" font-family="Arial" font-size="24.00" fill="#000000">applies bounded retry/backoff</text>
<text text-anchor="start" x="2440.5" y="-691.3" font-family="Arial" font-size="24.00" fill="#000000">outcomes independently from</text>
<text text-anchor="start" x="2512" y="-667.3" font-family="Arial" font-size="24.00" fill="#000000">media transport.</text>
</g>
<!-- 21&#45;&gt;23 -->
<g id="100" class="edge">
<title>21&#45;&gt;23</title>
<path fill="none" stroke="#444444" stroke-dasharray="5,2" d="M1207.74,-925.39C1311.4,-842.05 1447.26,-749.04 1586,-700 1907.68,-586.29 2019.45,-596.23 2353,-668 2364.84,-670.55 2376.79,-673.71 2388.72,-677.34"/>
<polygon fill="#444444" stroke="#444444" points="2387.68,-680.69 2398.27,-680.35 2389.79,-674.01 2387.68,-680.69"/>
<polygon fill="white" stroke="transparent" points="1644,-700 1644,-760 1947,-760 1947,-700 1644,-700"/>
<text text-anchor="start" x="1648.5" y="-736.8" font-family="Arial" font-size="24.00" fill="#444444">Creates and claims durable</text>
<text text-anchor="start" x="1689" y="-710.8" font-family="Arial" font-size="24.00" fill="#444444">media work through</text>
</g>
<!-- 24 -->
<g id="24" class="node">
<title>24</title>
<polygon fill="#85bbf0" stroke="#1168bd" points="2005,-1146.5 1586,-1146.5 1586,-795.5 2005,-795.5 2005,-1146.5"/>
<text text-anchor="start" x="1646.5" y="-1098.3" font-family="Arial" font-size="34.00" fill="#000000">Media Artifact Store</text>
<text text-anchor="start" x="1615" y="-1076.3" font-family="Arial" font-size="19.00" fill="#000000">[Component: Python + sqlite3 + BlobStore]</text>
<text text-anchor="start" x="1692.5" y="-1039.3" font-family="Arial" font-size="24.00" fill="#000000">Owns artifact rows,</text>
<text text-anchor="start" x="1648" y="-1015.3" font-family="Arial" font-size="24.00" fill="#000000">transactional cross&#45;process</text>
<text text-anchor="start" x="1650.5" y="-991.3" font-family="Arial" font-size="24.00" fill="#000000">cache reservations, unique</text>
<text text-anchor="start" x="1680" y="-967.3" font-family="Arial" font-size="24.00" fill="#000000">streamed publication,</text>
<text text-anchor="start" x="1654.5" y="-943.3" font-family="Arial" font-size="24.00" fill="#000000">failed&#45;write compensation,</text>
<text text-anchor="start" x="1670" y="-919.3" font-family="Arial" font-size="24.00" fill="#000000">contained reads, cache</text>
<text text-anchor="start" x="1678" y="-895.3" font-family="Arial" font-size="24.00" fill="#000000">admission, oldest&#45;first</text>
<text text-anchor="start" x="1649" y="-871.3" font-family="Arial" font-size="24.00" fill="#000000">eviction, purge/rehydration,</text>
<text text-anchor="start" x="1729" y="-847.3" font-family="Arial" font-size="24.00" fill="#000000">and lifecycle</text>
<text text-anchor="start" x="1666" y="-823.3" font-family="Arial" font-size="24.00" fill="#000000">registration/tombstones.</text>
</g>
<!-- 21&#45;&gt;24 -->
<g id="101" class="edge">
<title>21&#45;&gt;24</title>
<path fill="none" stroke="#444444" stroke-dasharray="5,2" d="M1231.19,-1060.63C1337.96,-1043.64 1467.67,-1023.01 1575.7,-1005.82"/>
<polygon fill="#444444" stroke="#444444" points="1576.42,-1009.24 1585.75,-1004.22 1575.32,-1002.33 1576.42,-1009.24"/>
<polygon fill="white" stroke="transparent" points="1279.5,-1054 1279.5,-1140 1537.5,-1140 1537.5,-1054 1279.5,-1054"/>
<text text-anchor="start" x="1301" y="-1116.8" font-family="Arial" font-size="24.00" fill="#444444">Publishes, resolves,</text>
<text text-anchor="start" x="1283.5" y="-1090.8" font-family="Arial" font-size="24.00" fill="#444444">purges, and rehydrates</text>
<text text-anchor="start" x="1321" y="-1064.8" font-family="Arial" font-size="24.00" fill="#444444">artifacts through</text>
</g>
<!-- 25 -->
<g id="25" class="node">
<title>25</title>
<polygon fill="#85bbf0" stroke="#1168bd" points="2000.5,-1497.5 1590.5,-1497.5 1590.5,-1218.5 2000.5,-1218.5 2000.5,-1497.5"/>
<text text-anchor="start" x="1631" y="-1449.3" font-family="Arial" font-size="34.00" fill="#000000">Guarded Media Fetch</text>
<text text-anchor="start" x="1619.5" y="-1427.3" font-family="Arial" font-size="19.00" fill="#000000">[Component: Python stdlib urllib + socket]</text>
<text text-anchor="start" x="1648.5" y="-1390.3" font-family="Arial" font-size="24.00" fill="#000000">Owns streamed HTTP/data</text>
<text text-anchor="start" x="1661.5" y="-1366.3" font-family="Arial" font-size="24.00" fill="#000000">transport, public&#45;address</text>
<text text-anchor="start" x="1697" y="-1342.3" font-family="Arial" font-size="24.00" fill="#000000">validation, redirect</text>
<text text-anchor="start" x="1669" y="-1318.3" font-family="Arial" font-size="24.00" fill="#000000">revalidation, no&#45;referrer</text>
<text text-anchor="start" x="1665" y="-1294.3" font-family="Arial" font-size="24.00" fill="#000000">requests, response&#45;byte</text>
<text text-anchor="start" x="1648.5" y="-1270.3" font-family="Arial" font-size="24.00" fill="#000000">limits, process request/byte</text>
<text text-anchor="start" x="1634.5" y="-1246.3" font-family="Arial" font-size="24.00" fill="#000000">leases, and shared deadlines.</text>
</g>
<!-- 21&#45;&gt;25 -->
<g id="102" class="edge">
<title>21&#45;&gt;25</title>
<path fill="none" stroke="#444444" stroke-dasharray="5,2" d="M1231.19,-1165.62C1339.7,-1202.67 1471.89,-1247.82 1580.95,-1285.07"/>
<polygon fill="#444444" stroke="#444444" points="1579.83,-1288.38 1590.42,-1288.3 1582.09,-1281.76 1579.83,-1288.38"/>
<polygon fill="white" stroke="transparent" points="1267,-1272 1267,-1332 1550,-1332 1550,-1272 1267,-1272"/>
<text text-anchor="start" x="1271.5" y="-1308.8" font-family="Arial" font-size="24.00" fill="#444444">Delegates daemon&#45;public</text>
<text text-anchor="start" x="1311" y="-1282.8" font-family="Arial" font-size="24.00" fill="#444444">media transport to</text>
</g>
<!-- 29 -->
<g id="29" class="node">
<title>29</title>
<polygon fill="#85bbf0" stroke="#1168bd" points="2805.5,-567.5 2394.5,-567.5 2394.5,-264.5 2805.5,-264.5 2805.5,-567.5"/>
<text text-anchor="start" x="2443.5" y="-519.3" font-family="Arial" font-size="34.00" fill="#000000">Contained BlobStore</text>
<text text-anchor="start" x="2423.5" y="-497.3" font-family="Arial" font-size="19.00" fill="#000000">[Component: Python filesystem boundary]</text>
<text text-anchor="start" x="2447.5" y="-460.3" font-family="Arial" font-size="24.00" fill="#000000">Prefers root&#45;relative locators</text>
<text text-anchor="start" x="2484" y="-436.3" font-family="Arial" font-size="24.00" fill="#000000">with contained legacy</text>
<text text-anchor="start" x="2469" y="-412.3" font-family="Arial" font-size="24.00" fill="#000000">fallback; streams unique</text>
<text text-anchor="start" x="2485" y="-388.3" font-family="Arial" font-size="24.00" fill="#000000">stages with size/hash</text>
<text text-anchor="start" x="2481" y="-364.3" font-family="Arial" font-size="24.00" fill="#000000">accounting; atomically</text>
<text text-anchor="start" x="2453" y="-340.3" font-family="Arial" font-size="24.00" fill="#000000">commits; and contains blob</text>
<text text-anchor="start" x="2485.5" y="-316.3" font-family="Arial" font-size="24.00" fill="#000000">read, stat, and delete</text>
<text text-anchor="start" x="2539.5" y="-292.3" font-family="Arial" font-size="24.00" fill="#000000">operations.</text>
</g>
<!-- 21&#45;&gt;29 -->
<g id="118" class="edge">
<title>21&#45;&gt;29</title>
<path fill="none" stroke="#444444" stroke-dasharray="5,2" d="M1104.45,-925.32C1146.55,-850.13 1202.47,-763.68 1267,-697 1385.39,-574.67 1424.8,-539.72 1586,-485 1850,-395.37 2174.45,-390.16 2383.89,-399.26"/>
<polygon fill="#444444" stroke="#444444" points="2383.94,-402.76 2394.08,-399.72 2384.25,-395.77 2383.94,-402.76"/>
<polygon fill="white" stroke="transparent" points="1661,-485 1661,-597 1930,-597 1930,-485 1661,-485"/>
<text text-anchor="start" x="1674.5" y="-573.8" font-family="Arial" font-size="24.00" fill="#444444">Checks current artifact</text>
<text text-anchor="start" x="1679" y="-547.8" font-family="Arial" font-size="24.00" fill="#444444">presence during fetch</text>
<text text-anchor="start" x="1665.5" y="-521.8" font-family="Arial" font-size="24.00" fill="#444444">orchestration and drains</text>
<text text-anchor="start" x="1690" y="-495.8" font-family="Arial" font-size="24.00" fill="#444444">spool bytes through</text>
</g>
<!-- 38 -->
<g id="38" class="node">
<title>38</title>
<path fill="#2f95c8" stroke="#20688c" d="M3551,-1969.22C3551,-1997.44 3462.48,-2020.38 3353.5,-2020.38 3244.52,-2020.38 3156,-1997.44 3156,-1969.22 3156,-1969.22 3156,-1508.78 3156,-1508.78 3156,-1480.56 3244.52,-1457.62 3353.5,-1457.62 3462.48,-1457.62 3551,-1480.56 3551,-1508.78 3551,-1508.78 3551,-1969.22 3551,-1969.22"/>
<path fill="none" stroke="#20688c" d="M3551,-1969.22C3551,-1940.99 3462.48,-1918.06 3353.5,-1918.06 3244.52,-1918.06 3156,-1940.99 3156,-1969.22"/>
<text text-anchor="start" x="3240.5" y="-1895.3" font-family="Arial" font-size="34.00" fill="#ffffff">SQLite + FTS5</text>
<text text-anchor="start" x="3280.5" y="-1861.3" font-family="Arial" font-size="34.00" fill="#ffffff">Database</text>
<text text-anchor="start" x="3227.5" y="-1839.3" font-family="Arial" font-size="19.00" fill="#ffffff">[Container: SQLite with FTS5]</text>
<text text-anchor="start" x="3185.5" y="-1802.3" font-family="Arial" font-size="24.00" fill="#ffffff">Durable complete cleaned&#45;text,</text>
<text text-anchor="start" x="3234.5" y="-1778.3" font-family="Arial" font-size="24.00" fill="#ffffff">relational, and full&#45;text</text>
<text text-anchor="start" x="3236" y="-1754.3" font-family="Arial" font-size="24.00" fill="#ffffff">authority for migration</text>
<text text-anchor="start" x="3201.5" y="-1730.3" font-family="Arial" font-size="24.00" fill="#ffffff">ledger, sources, documents,</text>
<text text-anchor="start" x="3204" y="-1706.3" font-family="Arial" font-size="24.00" fill="#ffffff">visits, capture observations,</text>
<text text-anchor="start" x="3222.5" y="-1682.3" font-family="Arial" font-size="24.00" fill="#ffffff">URL claims, visit events,</text>
<text text-anchor="start" x="3185" y="-1658.3" font-family="Arial" font-size="24.00" fill="#ffffff">snapshots, chunks, chunks_fts,</text>
<text text-anchor="start" x="3192.5" y="-1634.3" font-family="Arial" font-size="24.00" fill="#ffffff">media provenance/tasks, blob</text>
<text text-anchor="start" x="3229" y="-1610.3" font-family="Arial" font-size="24.00" fill="#ffffff">lifecycle records, policy</text>
<text text-anchor="start" x="3228" y="-1586.3" font-family="Arial" font-size="24.00" fill="#ffffff">rules, audit events, and</text>
<text text-anchor="start" x="3261.5" y="-1562.3" font-family="Arial" font-size="24.00" fill="#ffffff">deletion receipts.</text>
</g>
<!-- 21&#45;&gt;38 -->
<g id="103" class="edge">
<title>21&#45;&gt;38</title>
<path fill="none" stroke="#444444" stroke-dasharray="5,2" d="M1052.13,-1262.57C1084.18,-1391.58 1147.26,-1564.57 1267,-1669 1656.64,-2008.8 1876.61,-1907.16 2389,-1976 2585.9,-2002.45 2641.91,-2018.4 2836,-1976 2943.27,-1952.56 3054.89,-1904.71 3146.8,-1858.1"/>
<polygon fill="#444444" stroke="#444444" points="3148.6,-1861.11 3155.92,-1853.45 3145.42,-1854.88 3148.6,-1861.11"/>
<polygon fill="white" stroke="transparent" points="2071.5,-1970 2071.5,-2045 2322.5,-2045 2322.5,-1970 2071.5,-1970"/>
<text text-anchor="start" x="2076" y="-2022.3" font-family="Arial" font-size="24.00" fill="#444444">Updates media artifact</text>
<text text-anchor="start" x="2159" y="-1998.3" font-family="Arial" font-size="24.00" fill="#444444">rows in</text>
<text text-anchor="start" x="2164" y="-1978.3" font-family="Arial" font-size="19.00" fill="#444444">[sqlite3]</text>
</g>
<!-- 23&#45;&gt;38 -->
<g id="105" class="edge">
<title>23&#45;&gt;38</title>
<path fill="none" stroke="#444444" stroke-dasharray="5,2" d="M2798.45,-918.57C2811.63,-930.37 2824.3,-942.57 2836,-955 2978.28,-1106.12 3106.81,-1300.89 3200.07,-1458.49"/>
<polygon fill="#444444" stroke="#444444" points="3197.22,-1460.55 3205.32,-1467.39 3203.25,-1457 3197.22,-1460.55"/>
<polygon fill="white" stroke="transparent" points="2847,-1321 2847,-1396 3120,-1396 3120,-1321 2847,-1321"/>
<text text-anchor="start" x="2872.5" y="-1373.3" font-family="Arial" font-size="24.00" fill="#444444">Creates, leases, and</text>
<text text-anchor="start" x="2851.5" y="-1349.3" font-family="Arial" font-size="24.00" fill="#444444">advances media tasks in</text>
<text text-anchor="start" x="2950.5" y="-1329.3" font-family="Arial" font-size="19.00" fill="#444444">[sqlite3]</text>
</g>
<!-- 24&#45;&gt;23 -->
<g id="107" class="edge">
<title>24&#45;&gt;23</title>
<path fill="none" stroke="#444444" stroke-dasharray="5,2" d="M2005.05,-947.71C2110.56,-933.12 2239.9,-910.91 2353,-879 2364.73,-875.69 2376.66,-872 2388.62,-868.04"/>
<polygon fill="#444444" stroke="#444444" points="2389.86,-871.32 2398.22,-864.81 2387.63,-864.68 2389.86,-871.32"/>
<polygon fill="white" stroke="transparent" points="2070,-940 2070,-1052 2324,-1052 2324,-940 2070,-940"/>
<text text-anchor="start" x="2081.5" y="-1028.8" font-family="Arial" font-size="24.00" fill="#444444">Marks stored/skipped</text>
<text text-anchor="start" x="2074" y="-1002.8" font-family="Arial" font-size="24.00" fill="#444444">outcomes and ensures</text>
<text text-anchor="start" x="2091" y="-976.8" font-family="Arial" font-size="24.00" fill="#444444">retryable fetch work</text>
<text text-anchor="start" x="2155.5" y="-950.8" font-family="Arial" font-size="24.00" fill="#444444">through</text>
</g>
<!-- 24&#45;&gt;29 -->
<g id="109" class="edge">
<title>24&#45;&gt;29</title>
<path fill="none" stroke="#444444" stroke-dasharray="5,2" d="M1982.51,-795.3C2001.84,-779.13 2021.54,-763.42 2041,-749 2149.56,-668.57 2278.66,-590.52 2385.33,-530.22"/>
<polygon fill="#444444" stroke="#444444" points="2387.28,-533.14 2394.27,-525.18 2383.84,-527.04 2387.28,-533.14"/>
<polygon fill="white" stroke="transparent" points="2050,-749 2050,-861 2344,-861 2344,-749 2050,-749"/>
<text text-anchor="start" x="2054" y="-837.8" font-family="Arial" font-size="24.00" fill="#444444">Stages unique candidates,</text>
<text text-anchor="start" x="2058.5" y="-811.8" font-family="Arial" font-size="24.00" fill="#444444">resolves contained reads,</text>
<text text-anchor="start" x="2102" y="-785.8" font-family="Arial" font-size="24.00" fill="#444444">and deletes failed</text>
<text text-anchor="start" x="2093.5" y="-759.8" font-family="Arial" font-size="24.00" fill="#444444">candidates through</text>
</g>
<!-- 24&#45;&gt;38 -->
<g id="108" class="edge">
<title>24&#45;&gt;38</title>
<path fill="none" stroke="#444444" stroke-dasharray="5,2" d="M1984.86,-1146.74C1992.43,-1158.48 1999.24,-1170.59 2005,-1183 2041.39,-1261.33 1989.81,-1500.43 2041,-1570 2287.7,-1905.27 2842.84,-1850.4 3145.75,-1789.85"/>
<polygon fill="#444444" stroke="#444444" points="3146.87,-1793.19 3155.98,-1787.78 3145.48,-1786.33 3146.87,-1793.19"/>
<polygon fill="white" stroke="transparent" points="2461.5,-1835 2461.5,-1958 2738.5,-1958 2738.5,-1835 2461.5,-1835"/>
<text text-anchor="start" x="2466" y="-1935.3" font-family="Arial" font-size="24.00" fill="#444444">Reserves cache capacity</text>
<text text-anchor="start" x="2488.5" y="-1911.3" font-family="Arial" font-size="24.00" fill="#444444">and advances media</text>
<text text-anchor="start" x="2535" y="-1887.3" font-family="Arial" font-size="24.00" fill="#444444">artifact rows</text>
<text text-anchor="start" x="2510" y="-1863.3" font-family="Arial" font-size="24.00" fill="#444444">transactionally in</text>
<text text-anchor="start" x="2567" y="-1843.3" font-family="Arial" font-size="19.00" fill="#444444">[sqlite3]</text>
</g>
<!-- 26 -->
<g id="26" class="node">
<title>26</title>
<polygon fill="#85bbf0" stroke="#1168bd" points="2811,-1293.5 2389,-1293.5 2389,-990.5 2811,-990.5 2811,-1293.5"/>
<text text-anchor="start" x="2418" y="-1245.3" font-family="Arial" font-size="34.00" fill="#000000">Bounded HLS Transport</text>
<text text-anchor="start" x="2511" y="-1223.3" font-family="Arial" font-size="19.00" fill="#000000">[Component: Python]</text>
<text text-anchor="start" x="2462" y="-1186.3" font-family="Arial" font-size="24.00" fill="#000000">Parses bounded playlists,</text>
<text text-anchor="start" x="2445" y="-1162.3" font-family="Arial" font-size="24.00" fill="#000000">selects variants, expands init</text>
<text text-anchor="start" x="2449.5" y="-1138.3" font-family="Arial" font-size="24.00" fill="#000000">maps/segments through the</text>
<text text-anchor="start" x="2445" y="-1114.3" font-family="Arial" font-size="24.00" fill="#000000">guarded fetch boundary, and</text>
<text text-anchor="start" x="2468" y="-1090.3" font-family="Arial" font-size="24.00" fill="#000000">streams assembly within</text>
<text text-anchor="start" x="2545" y="-1066.3" font-family="Arial" font-size="24.00" fill="#000000">aggregate</text>
<text text-anchor="start" x="2450" y="-1042.3" font-family="Arial" font-size="24.00" fill="#000000">byte/depth/request/deadline</text>
<text text-anchor="start" x="2569" y="-1018.3" font-family="Arial" font-size="24.00" fill="#000000">limits.</text>
</g>
<!-- 25&#45;&gt;26 -->
<g id="111" class="edge">
<title>25&#45;&gt;26</title>
<path fill="none" stroke="#444444" stroke-dasharray="5,2" d="M2000.51,-1309.91C2014.2,-1306.85 2027.79,-1303.85 2041,-1301 2179.2,-1271.17 2217.36,-1278.87 2353,-1239 2361.65,-1236.46 2370.43,-1233.73 2379.25,-1230.87"/>
<polygon fill="#444444" stroke="#444444" points="2380.44,-1234.16 2388.84,-1227.71 2378.25,-1227.52 2380.44,-1234.16"/>
<polygon fill="white" stroke="transparent" points="2061.5,-1301 2061.5,-1387 2332.5,-1387 2332.5,-1301 2061.5,-1301"/>
<text text-anchor="start" x="2093" y="-1363.8" font-family="Arial" font-size="24.00" fill="#444444">Delegates detected</text>
<text text-anchor="start" x="2086" y="-1337.8" font-family="Arial" font-size="24.00" fill="#444444">playlists for bounded</text>
<text text-anchor="start" x="2066" y="-1311.8" font-family="Arial" font-size="24.00" fill="#444444">parsing and assembly to</text>
</g>
<!-- 25&#45;&gt;28 -->
<g id="112" class="edge">
<title>25&#45;&gt;28</title>
<path fill="none" stroke="#444444" stroke-dasharray="5,2" d="M2000.67,-1395.99C2106.05,-1416.02 2236.6,-1441.46 2353,-1466 2364.02,-1468.32 2375.31,-1470.75 2386.7,-1473.22"/>
<polygon fill="#444444" stroke="#444444" points="2386.22,-1476.7 2396.74,-1475.41 2387.72,-1469.86 2386.22,-1476.7"/>
<polygon fill="white" stroke="transparent" points="2041,-1466 2041,-1552 2353,-1552 2353,-1466 2041,-1466"/>
<text text-anchor="start" x="2055" y="-1528.8" font-family="Arial" font-size="24.00" fill="#444444">Leases aggregate transfer</text>
<text text-anchor="start" x="2045" y="-1502.8" font-family="Arial" font-size="24.00" fill="#444444">bytes and each active HTTP</text>
<text text-anchor="start" x="2111.5" y="-1476.8" font-family="Arial" font-size="24.00" fill="#444444">request through</text>
</g>
<!-- 26&#45;&gt;25 -->
<g id="115" class="edge">
<title>26&#45;&gt;25</title>
<path fill="none" stroke="#444444" stroke-dasharray="5,2" d="M2388.97,-1095.02C2279.75,-1081.25 2147.26,-1081.87 2041,-1135 2017.15,-1146.93 2023.33,-1163.63 2005,-1183 1996.07,-1192.44 1986.65,-1201.86 1976.95,-1211.17"/>
<polygon fill="#444444" stroke="#444444" points="1974.32,-1208.84 1969.49,-1218.27 1979.15,-1213.92 1974.32,-1208.84"/>
<polygon fill="white" stroke="transparent" points="2073.5,-1135 2073.5,-1221 2320.5,-1221 2320.5,-1135 2073.5,-1135"/>
<text text-anchor="start" x="2078" y="-1197.8" font-family="Arial" font-size="24.00" fill="#444444">Fetches every variant,</text>
<text text-anchor="start" x="2078" y="-1171.8" font-family="Arial" font-size="24.00" fill="#444444">init map, and segment</text>
<text text-anchor="start" x="2156" y="-1145.8" font-family="Arial" font-size="24.00" fill="#444444">through</text>
</g>
</g>
</svg>
