<?xml version="1.0" encoding="UTF-8" standalone="no"?>
<!DOCTYPE svg PUBLIC "-//W3C//DTD SVG 1.1//EN"
 "http://www.w3.org/Graphics/SVG/1.1/DTD/svg11.dtd">
<!-- Generated by graphviz version 2.43.0 (0)
 -->
<!-- Title: %3 Pages: 1 -->
<svg width="4281pt" height="2537pt"
 viewBox="0.00 0.00 4280.96 2537.38" xmlns="http://www.w3.org/2000/svg" xmlns:xlink="http://www.w3.org/1999/xlink">
<g id="graph0" class="graph" transform="scale(1 1) rotate(0) translate(4 2533.38)">
<title>%3</title>
<polygon fill="white" stroke="transparent" points="-4,4 -4,-2533.38 4276.96,-2533.38 4276.96,4 -4,4"/>
<text text-anchor="start" x="1631.98" y="-11.8" font-family="Arial" font-size="34.00">Browser Memory Daemon &#45; Chrome MV3 Extension &#45; Components</text>
<g id="clust1" class="cluster">
<title>cluster_5</title>
<polygon fill="none" stroke="#444444" points="811.96,-737.38 811.96,-2521.38 3227.96,-2521.38 3227.96,-737.38 811.96,-737.38"/>
<text text-anchor="start" x="1891.96" y="-766.17" font-family="Arial" font-size="24.00" fill="#444444">Chrome MV3 Extension</text>
<text text-anchor="start" x="1831.96" y="-746.17" font-family="Arial" font-size="19.00" fill="#444444">[Container: JavaScript, Chrome Manifest V3]</text>
</g>
<!-- 2 -->
<g id="2" class="node">
<title>2</title>
<polygon fill="#999999" stroke="#6b6b6b" points="786.96,-1121.38 400.96,-1121.38 400.96,-890.38 786.96,-890.38 786.96,-1121.38"/>
<text text-anchor="start" x="459.46" y="-1073.17" font-family="Arial" font-size="34.00" fill="#ffffff">Windows Chrome</text>
<text text-anchor="start" x="516.96" y="-1051.17" font-family="Arial" font-size="19.00" fill="#ffffff">[Software System]</text>
<text text-anchor="start" x="429.96" y="-1014.17" font-family="Arial" font-size="24.00" fill="#ffffff">The Windows Chrome runtime</text>
<text text-anchor="start" x="443.46" y="-990.17" font-family="Arial" font-size="24.00" fill="#ffffff">that loads web pages, hosts</text>
<text text-anchor="start" x="442.96" y="-966.17" font-family="Arial" font-size="24.00" fill="#ffffff">the MV3 extension, runs the</text>
<text text-anchor="start" x="434.96" y="-942.17" font-family="Arial" font-size="24.00" fill="#ffffff">local UI in a tab, and exposes</text>
<text text-anchor="start" x="464.46" y="-918.17" font-family="Arial" font-size="24.00" fill="#ffffff">Chrome extension APIs.</text>
</g>
<!-- 21 -->
<g id="21" class="node">
<title>21</title>
<path fill="#2f95c8" stroke="#20688c" d="M2886.46,-567.4C2886.46,-595.63 2784.94,-618.56 2659.96,-618.56 2534.98,-618.56 2433.46,-595.63 2433.46,-567.4 2433.46,-567.4 2433.46,-106.97 2433.46,-106.97 2433.46,-78.74 2534.98,-55.81 2659.96,-55.81 2784.94,-55.81 2886.46,-78.74 2886.46,-106.97 2886.46,-106.97 2886.46,-567.4 2886.46,-567.4"/>
<path fill="none" stroke="#20688c" d="M2886.46,-567.4C2886.46,-539.17 2784.94,-516.24 2659.96,-516.24 2534.98,-516.24 2433.46,-539.17 2433.46,-567.4"/>
<text text-anchor="start" x="2517.96" y="-493.49" font-family="Arial" font-size="34.00" fill="#ffffff">Extension Browser</text>
<text text-anchor="start" x="2600.46" y="-459.49" font-family="Arial" font-size="34.00" fill="#ffffff">Storage</text>
<text text-anchor="start" x="2462.46" y="-437.49" font-family="Arial" font-size="19.00" fill="#ffffff">[Container: chrome.storage.local + IndexedDB]</text>
<text text-anchor="start" x="2482.46" y="-400.49" font-family="Arial" font-size="24.00" fill="#ffffff">Browser&#45;side IndexedDB storage</text>
<text text-anchor="start" x="2573.46" y="-376.49" font-family="Arial" font-size="24.00" fill="#ffffff">for transactional</text>
<text text-anchor="start" x="2504.46" y="-352.49" font-family="Arial" font-size="24.00" fill="#ffffff">capture/lifecycle outbox rows</text>
<text text-anchor="start" x="2494.46" y="-328.49" font-family="Arial" font-size="24.00" fill="#ffffff">plus specialized durable media</text>
<text text-anchor="start" x="2595.96" y="-304.49" font-family="Arial" font-size="24.00" fill="#ffffff">tasks/blobs;</text>
<text text-anchor="start" x="2507.46" y="-280.49" font-family="Arial" font-size="24.00" fill="#ffffff">chrome.storage.local retains</text>
<text text-anchor="start" x="2507.96" y="-256.49" font-family="Arial" font-size="24.00" fill="#ffffff">typed configuration, lifecycle</text>
<text text-anchor="start" x="2492.46" y="-232.49" font-family="Arial" font-size="24.00" fill="#ffffff">tab state, minimal CDP capture</text>
<text text-anchor="start" x="2503.46" y="-208.49" font-family="Arial" font-size="24.00" fill="#ffffff">context, aggregate telemetry,</text>
<text text-anchor="start" x="2491.46" y="-184.49" font-family="Arial" font-size="24.00" fill="#ffffff">and one&#45;version queue fallback</text>
<text text-anchor="start" x="2634.96" y="-160.49" font-family="Arial" font-size="24.00" fill="#ffffff">only.</text>
</g>
<!-- 22 -->
<g id="22" class="node">
<title>22</title>
<polygon fill="#438dd5" stroke="#2e6295" points="3787.96,-1126.38 3325.96,-1126.38 3325.96,-885.38 3787.96,-885.38 3787.96,-1126.38"/>
<text text-anchor="start" x="3392.46" y="-1078.17" font-family="Arial" font-size="34.00" fill="#ffffff">WSL Loopback HTTP</text>
<text text-anchor="start" x="3492.46" y="-1044.17" font-family="Arial" font-size="34.00" fill="#ffffff">Daemon</text>
<text text-anchor="start" x="3354.96" y="-1022.17" font-family="Arial" font-size="19.00" fill="#ffffff">[Container: Python 3.11, ThreadingHTTPServer]</text>
<text text-anchor="start" x="3391.46" y="-985.17" font-family="Arial" font-size="24.00" fill="#ffffff">Authenticated loopback API for</text>
<text text-anchor="start" x="3412.46" y="-961.17" font-family="Arial" font-size="24.00" fill="#ffffff">capture, read/admin/media</text>
<text text-anchor="start" x="3412.96" y="-937.17" font-family="Arial" font-size="24.00" fill="#ffffff">operations, and query&#45;only</text>
<text text-anchor="start" x="3394.46" y="-913.17" font-family="Arial" font-size="24.00" fill="#ffffff">bmd.x&#45;observations v1 export.</text>
</g>
<!-- 10 -->
<g id="10" class="node">
<title>10</title>
<polygon fill="#85bbf0" stroke="#1168bd" points="1300.96,-1598.38 836.96,-1598.38 836.96,-1357.38 1300.96,-1357.38 1300.96,-1598.38"/>
<text text-anchor="start" x="939.96" y="-1550.17" font-family="Arial" font-size="34.00" fill="#000000">Extension Config</text>
<text text-anchor="start" x="1027.96" y="-1516.17" font-family="Arial" font-size="34.00" fill="#000000">Store</text>
<text text-anchor="start" x="865.96" y="-1494.17" font-family="Arial" font-size="19.00" fill="#000000">[Component: JavaScript + chrome.storage.local]</text>
<text text-anchor="start" x="931.96" y="-1457.17" font-family="Arial" font-size="24.00" fill="#000000">Owns typed configuration</text>
<text text-anchor="start" x="947.46" y="-1433.17" font-family="Arial" font-size="24.00" fill="#000000">defaults/migration plus</text>
<text text-anchor="start" x="906.96" y="-1409.17" font-family="Arial" font-size="24.00" fill="#000000">durable visit and minimal CDP</text>
<text text-anchor="start" x="948.46" y="-1385.17" font-family="Arial" font-size="24.00" fill="#000000">capture&#45;context maps.</text>
</g>
<!-- 10&#45;&gt;21 -->
<g id="89" class="edge">
<title>10&#45;&gt;21</title>
<path fill="none" stroke="#707070" stroke-dasharray="5,2" d="M836.89,-1437.53C576.88,-1388.15 179.99,-1295.11 90.96,-1174.38 -24.32,-1018.06 -35.4,-884.88 90.96,-737.38 390.67,-387.49 1845.98,-341.78 2423.29,-337.62"/>
<polygon fill="#707070" stroke="#707070" points="2423.44,-341.12 2433.41,-337.55 2423.39,-334.12 2423.44,-341.12"/>
<polygon fill="white" stroke="transparent" points="90.96,-956.38 90.96,-1055.38 364.96,-1055.38 364.96,-956.38 90.96,-956.38"/>
<text text-anchor="start" x="101.46" y="-1032.67" font-family="Arial" font-size="24.00" fill="#707070">Reads and writes typed</text>
<text text-anchor="start" x="94.96" y="-1008.67" font-family="Arial" font-size="24.00" fill="#707070">settings and restart state</text>
<text text-anchor="start" x="218.46" y="-984.67" font-family="Arial" font-size="24.00" fill="#707070">in</text>
<text text-anchor="start" x="134.46" y="-964.67" font-family="Arial" font-size="19.00" fill="#707070">[chrome.storage.local]</text>
</g>
<!-- 13 -->
<g id="13" class="node">
<title>13</title>
<polygon fill="#85bbf0" stroke="#1168bd" points="3202.46,-2069.38 2717.46,-2069.38 2717.46,-1780.38 3202.46,-1780.38 3202.46,-2069.38"/>
<text text-anchor="start" x="2794.96" y="-2021.17" font-family="Arial" font-size="34.00" fill="#000000">Capture and Lifecycle</text>
<text text-anchor="start" x="2910.96" y="-1987.17" font-family="Arial" font-size="34.00" fill="#000000">Bridge</text>
<text text-anchor="start" x="2855.96" y="-1965.17" font-family="Arial" font-size="19.00" fill="#000000">[Component: JavaScript]</text>
<text text-anchor="start" x="2833.96" y="-1928.17" font-family="Arial" font-size="24.00" fill="#000000">Owns daemon delivery,</text>
<text text-anchor="start" x="2851.46" y="-1904.17" font-family="Arial" font-size="24.00" fill="#000000">transactional outbox</text>
<text text-anchor="start" x="2746.46" y="-1880.17" font-family="Arial" font-size="24.00" fill="#000000">import/admission/drain/checkpoint/retry,</text>
<text text-anchor="start" x="2840.96" y="-1856.17" font-family="Arial" font-size="24.00" fill="#000000">legacy fallback, media</text>
<text text-anchor="start" x="2819.96" y="-1832.17" font-family="Arial" font-size="24.00" fill="#000000">compensation, and queue</text>
<text text-anchor="start" x="2923.96" y="-1808.17" font-family="Arial" font-size="24.00" fill="#000000">status.</text>
</g>
<!-- 13&#45;&gt;21 -->
<g id="96" class="edge">
<title>13&#45;&gt;21</title>
<path fill="none" stroke="#707070" stroke-dasharray="5,2" d="M3202.52,-1901.41C3394.5,-1869.78 3652.44,-1793.64 3789.96,-1610.38 4023.01,-1299.79 4049.64,-1053.35 3823.96,-737.38 3714.52,-584.15 3203.91,-452.67 2896.48,-385.64"/>
<polygon fill="#707070" stroke="#707070" points="2897.06,-382.18 2886.54,-383.48 2895.57,-389.02 2897.06,-382.18"/>
<polygon fill="white" stroke="transparent" points="3974.96,-1210.38 3974.96,-1309.38 4272.96,-1309.38 4272.96,-1210.38 3974.96,-1210.38"/>
<text text-anchor="start" x="3982.46" y="-1286.67" font-family="Arial" font-size="24.00" fill="#707070">Imports and preserves the</text>
<text text-anchor="start" x="3978.96" y="-1262.67" font-family="Arial" font-size="24.00" fill="#707070">one&#45;version queue fallback</text>
<text text-anchor="start" x="4114.46" y="-1238.67" font-family="Arial" font-size="24.00" fill="#707070">in</text>
<text text-anchor="start" x="4030.46" y="-1218.67" font-family="Arial" font-size="19.00" fill="#707070">[chrome.storage.local]</text>
</g>
<!-- 13&#45;&gt;22 -->
<g id="98" class="edge">
<title>13&#45;&gt;22</title>
<path fill="none" stroke="#707070" stroke-dasharray="5,2" d="M3202.64,-1827.08C3249.24,-1801.09 3294.98,-1769.62 3331.96,-1732.38 3480.41,-1582.87 3493.35,-1513.39 3545.96,-1309.38 3560.25,-1253.92 3564.37,-1190.87 3564.39,-1136.74"/>
<polygon fill="#707070" stroke="#707070" points="3567.89,-1136.72 3564.34,-1126.73 3560.89,-1136.75 3567.89,-1136.72"/>
<polygon fill="white" stroke="transparent" points="3534.96,-1440.38 3534.96,-1515.38 3771.96,-1515.38 3771.96,-1440.38 3534.96,-1440.38"/>
<text text-anchor="start" x="3539.46" y="-1492.67" font-family="Arial" font-size="24.00" fill="#707070">Delivers /capture and</text>
<text text-anchor="start" x="3576.46" y="-1468.67" font-family="Arial" font-size="24.00" fill="#707070">/visit&#45;events to</text>
<text text-anchor="start" x="3564.96" y="-1448.67" font-family="Arial" font-size="19.00" fill="#707070">[Bearer HTTP/JSON]</text>
</g>
<!-- 14 -->
<g id="14" class="node">
<title>14</title>
<polygon fill="#85bbf0" stroke="#1168bd" points="3202.46,-1610.38 2825.46,-1610.38 2825.46,-1345.38 3202.46,-1345.38 3202.46,-1610.38"/>
<text text-anchor="start" x="2866.46" y="-1562.17" font-family="Arial" font-size="34.00" fill="#000000">Credentialed Media</text>
<text text-anchor="start" x="2964.96" y="-1528.17" font-family="Arial" font-size="34.00" fill="#000000">Bridge</text>
<text text-anchor="start" x="2909.96" y="-1506.17" font-family="Arial" font-size="19.00" fill="#000000">[Component: JavaScript]</text>
<text text-anchor="start" x="2866.96" y="-1469.17" font-family="Arial" font-size="24.00" fill="#000000">Owns browser credentialed</text>
<text text-anchor="start" x="2854.46" y="-1445.17" font-family="Arial" font-size="24.00" fill="#000000">fetch, inline/CDP blob upload,</text>
<text text-anchor="start" x="2880.46" y="-1421.17" font-family="Arial" font-size="24.00" fill="#000000">specialized media queue</text>
<text text-anchor="start" x="2885.96" y="-1397.17" font-family="Arial" font-size="24.00" fill="#000000">drain/retry, and terminal</text>
<text text-anchor="start" x="2967.96" y="-1373.17" font-family="Arial" font-size="24.00" fill="#000000">cleanup.</text>
</g>
<!-- 13&#45;&gt;14 -->
<g id="97" class="edge">
<title>13&#45;&gt;14</title>
<path fill="none" stroke="#707070" stroke-dasharray="5,2" d="M2977.38,-1780.32C2983.57,-1729.24 2990.55,-1671.78 2996.73,-1620.84"/>
<polygon fill="#707070" stroke="#707070" points="3000.22,-1621.09 2997.95,-1610.74 2993.28,-1620.25 3000.22,-1621.09"/>
<polygon fill="white" stroke="transparent" points="2992.96,-1659.38 2992.96,-1719.38 3313.96,-1719.38 3313.96,-1659.38 2992.96,-1659.38"/>
<text text-anchor="start" x="3022.96" y="-1696.17" font-family="Arial" font-size="24.00" fill="#707070">Dispatches post&#45;capture</text>
<text text-anchor="start" x="2997.46" y="-1670.17" font-family="Arial" font-size="24.00" fill="#707070">media compensation through</text>
</g>
<!-- 15 -->
<g id="15" class="node">
<title>15</title>
<polygon fill="#85bbf0" stroke="#1168bd" points="2588.96,-1121.38 2124.96,-1121.38 2124.96,-890.38 2588.96,-890.38 2588.96,-1121.38"/>
<text text-anchor="start" x="2203.46" y="-1073.17" font-family="Arial" font-size="34.00" fill="#000000">Extension Telemetry</text>
<text text-anchor="start" x="2153.96" y="-1051.17" font-family="Arial" font-size="19.00" fill="#000000">[Component: JavaScript + chrome.storage.local]</text>
<text text-anchor="start" x="2255.96" y="-1014.17" font-family="Arial" font-size="24.00" fill="#000000">Persists aggregate</text>
<text text-anchor="start" x="2193.96" y="-990.17" font-family="Arial" font-size="24.00" fill="#000000">bridge/queue/CDP status after</text>
<text text-anchor="start" x="2194.96" y="-966.17" font-family="Arial" font-size="24.00" fill="#000000">recursively removing captured</text>
<text text-anchor="start" x="2251.46" y="-942.17" font-family="Arial" font-size="24.00" fill="#000000">fields and redacting</text>
<text text-anchor="start" x="2249.96" y="-918.17" font-family="Arial" font-size="24.00" fill="#000000">URL&#45;shaped errors.</text>
</g>
<!-- 13&#45;&gt;15 -->
<g id="99" class="edge">
<title>13&#45;&gt;15</title>
<path fill="none" stroke="#707070" stroke-dasharray="5,2" d="M2732.17,-1780.32C2623.52,-1710 2513.3,-1635.17 2495.96,-1610.38 2395.65,-1466.98 2366.7,-1261.98 2358.92,-1131.66"/>
<polygon fill="#707070" stroke="#707070" points="2362.41,-1131.42 2358.36,-1121.63 2355.43,-1131.82 2362.41,-1131.42"/>
<polygon fill="white" stroke="transparent" points="2495.96,-1447.88 2495.96,-1507.88 2789.96,-1507.88 2789.96,-1447.88 2495.96,-1447.88"/>
<text text-anchor="start" x="2499.96" y="-1484.67" font-family="Arial" font-size="24.00" fill="#707070">Records aggregate outbox</text>
<text text-anchor="start" x="2565.96" y="-1458.67" font-family="Arial" font-size="24.00" fill="#707070">status through</text>
</g>
<!-- 14&#45;&gt;22 -->
<g id="102" class="edge">
<title>14&#45;&gt;22</title>
<path fill="none" stroke="#707070" stroke-dasharray="5,2" d="M3120.53,-1345.28C3129.63,-1333.26 3138.55,-1321.17 3146.96,-1309.38 3177.21,-1266.9 3172.41,-1246.58 3209.96,-1210.38 3241.74,-1179.73 3278.98,-1151.81 3317.06,-1127.13"/>
<polygon fill="#707070" stroke="#707070" points="3319.18,-1129.93 3325.71,-1121.59 3315.4,-1124.04 3319.18,-1129.93"/>
<polygon fill="white" stroke="transparent" points="3209.96,-1222.38 3209.96,-1297.38 3531.96,-1297.38 3531.96,-1222.38 3209.96,-1222.38"/>
<text text-anchor="start" x="3236.96" y="-1274.67" font-family="Arial" font-size="24.00" fill="#707070">Delivers media metadata</text>
<text text-anchor="start" x="3281.96" y="-1250.67" font-family="Arial" font-size="24.00" fill="#707070">and raw blobs to</text>
<text text-anchor="start" x="3213.96" y="-1230.67" font-family="Arial" font-size="19.00" fill="#707070">[Bearer HTTP/JSON; raw HTTP PUT]</text>
</g>
<!-- 14&#45;&gt;15 -->
<g id="104" class="edge">
<title>14&#45;&gt;15</title>
<path fill="none" stroke="#707070" stroke-dasharray="5,2" d="M2825.13,-1366.56C2807.17,-1358.56 2788.95,-1351.32 2770.96,-1345.38 2663.95,-1310.01 2612.36,-1373.89 2519.96,-1309.38 2459.24,-1266.98 2419.08,-1194.58 2393.82,-1131.24"/>
<polygon fill="#707070" stroke="#707070" points="2396.94,-1129.61 2390.05,-1121.56 2390.42,-1132.15 2396.94,-1129.61"/>
<polygon fill="white" stroke="transparent" points="2519.96,-1229.88 2519.96,-1289.88 2807.96,-1289.88 2807.96,-1229.88 2519.96,-1229.88"/>
<text text-anchor="start" x="2523.96" y="-1266.67" font-family="Arial" font-size="24.00" fill="#707070">Records aggregate media</text>
<text text-anchor="start" x="2586.96" y="-1240.67" font-family="Arial" font-size="24.00" fill="#707070">status through</text>
</g>
<!-- 17 -->
<g id="17" class="node">
<title>17</title>
<polygon fill="#85bbf0" stroke="#1168bd" points="3056.96,-1174.38 2660.96,-1174.38 2660.96,-837.38 3056.96,-837.38 3056.96,-1174.38"/>
<text text-anchor="start" x="2689.96" y="-1126.17" font-family="Arial" font-size="34.00" fill="#000000">Browser Media Queue</text>
<text text-anchor="start" x="2799.46" y="-1092.17" font-family="Arial" font-size="34.00" fill="#000000">Adapter</text>
<text text-anchor="start" x="2696.96" y="-1070.17" font-family="Arial" font-size="19.00" fill="#000000">[Component: JavaScript + IndexedDB]</text>
<text text-anchor="start" x="2724.46" y="-1033.17" font-family="Arial" font-size="24.00" fill="#000000">Persists media tasks and</text>
<text text-anchor="start" x="2717.96" y="-1009.17" font-family="Arial" font-size="24.00" fill="#000000">fetched blobs in versioned</text>
<text text-anchor="start" x="2735.46" y="-985.17" font-family="Arial" font-size="24.00" fill="#000000">IndexedDB with atomic</text>
<text text-anchor="start" x="2740.96" y="-961.17" font-family="Arial" font-size="24.00" fill="#000000">batch/blob transitions,</text>
<text text-anchor="start" x="2759.46" y="-937.17" font-family="Arial" font-size="24.00" fill="#000000">count/byte quotas,</text>
<text text-anchor="start" x="2694.46" y="-913.17" font-family="Arial" font-size="24.00" fill="#000000">stale&#45;processing recovery, and</text>
<text text-anchor="start" x="2703.96" y="-889.17" font-family="Arial" font-size="24.00" fill="#000000">bounded terminal quarantine</text>
<text text-anchor="start" x="2812.96" y="-865.17" font-family="Arial" font-size="24.00" fill="#000000">cleanup.</text>
</g>
<!-- 14&#45;&gt;17 -->
<g id="101" class="edge">
<title>14&#45;&gt;17</title>
<path fill="none" stroke="#707070" stroke-dasharray="5,2" d="M2865.3,-1345.32C2857.72,-1333.84 2851.13,-1321.83 2845.96,-1309.38 2829.91,-1270.72 2825.1,-1226.85 2826.1,-1184.75"/>
<polygon fill="#707070" stroke="#707070" points="2829.6,-1184.78 2826.44,-1174.66 2822.6,-1184.53 2829.6,-1184.78"/>
<polygon fill="white" stroke="transparent" points="2845.96,-1229.88 2845.96,-1289.88 3132.96,-1289.88 3132.96,-1229.88 2845.96,-1229.88"/>
<text text-anchor="start" x="2850.46" y="-1266.67" font-family="Arial" font-size="24.00" fill="#707070">Persists and drains media</text>
<text text-anchor="start" x="2919.46" y="-1240.67" font-family="Arial" font-size="24.00" fill="#707070">work through</text>
</g>
<!-- 15&#45;&gt;21 -->
<g id="106" class="edge">
<title>15&#45;&gt;21</title>
<path fill="none" stroke="#707070" stroke-dasharray="5,2" d="M2409.04,-890.27C2442.04,-817.67 2486.3,-720.28 2528.46,-627.53"/>
<polygon fill="#707070" stroke="#707070" points="2531.71,-628.83 2532.66,-618.28 2525.34,-625.93 2531.71,-628.83"/>
<polygon fill="white" stroke="transparent" points="2507.96,-654.38 2507.96,-729.38 2722.96,-729.38 2722.96,-654.38 2507.96,-654.38"/>
<text text-anchor="start" x="2521.96" y="-706.67" font-family="Arial" font-size="24.00" fill="#707070">Persists sanitized</text>
<text text-anchor="start" x="2512.46" y="-682.67" font-family="Arial" font-size="24.00" fill="#707070">aggregate status in</text>
<text text-anchor="start" x="2522.46" y="-662.67" font-family="Arial" font-size="19.00" fill="#707070">[chrome.storage.local]</text>
</g>
<!-- 17&#45;&gt;21 -->
<g id="105" class="edge">
<title>17&#45;&gt;21</title>
<path fill="none" stroke="#707070" stroke-dasharray="5,2" d="M2808.87,-837.07C2789.94,-773.67 2767.82,-699.56 2746.51,-628.15"/>
<polygon fill="#707070" stroke="#707070" points="2749.86,-627.13 2743.64,-618.55 2743.15,-629.13 2749.86,-627.13"/>
<polygon fill="white" stroke="transparent" points="2770.96,-654.38 2770.96,-729.38 3038.96,-729.38 3038.96,-654.38 2770.96,-654.38"/>
<text text-anchor="start" x="2774.96" y="-706.67" font-family="Arial" font-size="24.00" fill="#707070">Reads and writes media</text>
<text text-anchor="start" x="2831.46" y="-682.67" font-family="Arial" font-size="24.00" fill="#707070">tasks/blobs in</text>
<text text-anchor="start" x="2852.46" y="-662.67" font-family="Arial" font-size="19.00" fill="#707070">[IndexedDB]</text>
</g>
<!-- 18 -->
<g id="18" class="node">
<title>18</title>
<polygon fill="#85bbf0" stroke="#1168bd" points="1786.46,-1593.38 1373.46,-1593.38 1373.46,-1362.38 1786.46,-1362.38 1786.46,-1593.38"/>
<text text-anchor="start" x="1469.46" y="-1545.17" font-family="Arial" font-size="34.00" fill="#000000">CDP Recorder</text>
<text text-anchor="start" x="1407.46" y="-1523.17" font-family="Arial" font-size="19.00" fill="#000000">[Component: Chrome DevTools Protocol]</text>
<text text-anchor="start" x="1468.46" y="-1486.17" font-family="Arial" font-size="24.00" fill="#000000">Classifies configured</text>
<text text-anchor="start" x="1412.96" y="-1462.17" font-family="Arial" font-size="24.00" fill="#000000">X/Twitter video.twimg.com HLS</text>
<text text-anchor="start" x="1411.96" y="-1438.17" font-family="Arial" font-size="24.00" fill="#000000">manifests and media segments</text>
<text text-anchor="start" x="1402.46" y="-1414.17" font-family="Arial" font-size="24.00" fill="#000000">before they become opaque blob</text>
<text text-anchor="start" x="1509.96" y="-1390.17" font-family="Arial" font-size="24.00" fill="#000000">player URLs.</text>
</g>
<!-- 18&#45;&gt;2 -->
<g id="112" class="edge">
<title>18&#45;&gt;2</title>
<path fill="none" stroke="#707070" stroke-dasharray="5,2" d="M1374.81,-1362.37C1362.12,-1356.38 1349.43,-1350.66 1336.96,-1345.38 1103.97,-1246.72 1015.86,-1295.93 793.96,-1174.38 769.99,-1161.25 746.21,-1145 723.86,-1127.84"/>
<polygon fill="#707070" stroke="#707070" points="725.73,-1124.86 715.69,-1121.48 721.43,-1130.38 725.73,-1124.86"/>
<polygon fill="white" stroke="transparent" points="1234.96,-1222.38 1234.96,-1297.38 1519.96,-1297.38 1519.96,-1222.38 1234.96,-1222.38"/>
<text text-anchor="start" x="1239.46" y="-1274.67" font-family="Arial" font-size="24.00" fill="#707070">Classifies Network events</text>
<text text-anchor="start" x="1287.46" y="-1250.67" font-family="Arial" font-size="24.00" fill="#707070">received through</text>
<text text-anchor="start" x="1275.96" y="-1230.67" font-family="Arial" font-size="19.00" fill="#707070">[chrome.debugger/CDP]</text>
</g>
<!-- 19 -->
<g id="19" class="node">
<title>19</title>
<polygon fill="#85bbf0" stroke="#1168bd" points="1993.96,-2081.38 1557.96,-2081.38 1557.96,-1768.38 1993.96,-1768.38 1993.96,-2081.38"/>
<text text-anchor="start" x="1674.96" y="-2033.17" font-family="Arial" font-size="34.00" fill="#000000">CDP Session</text>
<text text-anchor="start" x="1701.96" y="-1999.17" font-family="Arial" font-size="34.00" fill="#000000">Controller</text>
<text text-anchor="start" x="1586.96" y="-1977.17" font-family="Arial" font-size="19.00" fill="#000000">[Component: JavaScript + chrome.debugger]</text>
<text text-anchor="start" x="1638.46" y="-1940.17" font-family="Arial" font-size="24.00" fill="#000000">Restores minimal capture</text>
<text text-anchor="start" x="1650.96" y="-1916.17" font-family="Arial" font-size="24.00" fill="#000000">provenance, reconciles</text>
<text text-anchor="start" x="1651.46" y="-1892.17" font-family="Arial" font-size="24.00" fill="#000000">debugger attachments,</text>
<text text-anchor="start" x="1632.46" y="-1868.17" font-family="Arial" font-size="24.00" fill="#000000">correlates Network events,</text>
<text text-anchor="start" x="1612.46" y="-1844.17" font-family="Arial" font-size="24.00" fill="#000000">retrieves bounded bodies, and</text>
<text text-anchor="start" x="1614.46" y="-1820.17" font-family="Arial" font-size="24.00" fill="#000000">dispatches media across MV3</text>
<text text-anchor="start" x="1691.96" y="-1796.17" font-family="Arial" font-size="24.00" fill="#000000">worker restarts.</text>
</g>
<!-- 19&#45;&gt;10 -->
<g id="108" class="edge">
<title>19&#45;&gt;10</title>
<path fill="none" stroke="#707070" stroke-dasharray="5,2" d="M1557.95,-1833.85C1500.47,-1811.33 1438.22,-1788.02 1379.96,-1768.38 1324.36,-1749.63 1301.06,-1765.96 1252.96,-1732.38 1206.68,-1700.06 1167.68,-1652.28 1137.67,-1606.89"/>
<polygon fill="#707070" stroke="#707070" points="1140.56,-1604.91 1132.17,-1598.44 1134.69,-1608.73 1140.56,-1604.91"/>
<polygon fill="white" stroke="transparent" points="1252.96,-1659.38 1252.96,-1719.38 1520.96,-1719.38 1520.96,-1659.38 1252.96,-1659.38"/>
<text text-anchor="start" x="1256.96" y="-1696.17" font-family="Arial" font-size="24.00" fill="#707070">Persists minimal per&#45;tab</text>
<text text-anchor="start" x="1258.96" y="-1670.17" font-family="Arial" font-size="24.00" fill="#707070">capture context through</text>
</g>
<!-- 19&#45;&gt;14 -->
<g id="110" class="edge">
<title>19&#45;&gt;14</title>
<path fill="none" stroke="#707070" stroke-dasharray="5,2" d="M1777.72,-1768.15C1786.39,-1722.21 1804.69,-1676.29 1840.96,-1646.38 1920.73,-1580.57 2671.22,-1637.69 2770.96,-1610.38 2785.99,-1606.26 2801.13,-1601.06 2816.1,-1595.14"/>
<polygon fill="#707070" stroke="#707070" points="2817.45,-1598.36 2825.39,-1591.35 2814.81,-1591.88 2817.45,-1598.36"/>
<polygon fill="white" stroke="transparent" points="1840.96,-1646.38 1840.96,-1732.38 2126.96,-1732.38 2126.96,-1646.38 1840.96,-1646.38"/>
<text text-anchor="start" x="1844.96" y="-1709.17" font-family="Arial" font-size="24.00" fill="#707070">Dispatches bounded CDP</text>
<text text-anchor="start" x="1858.96" y="-1683.17" font-family="Arial" font-size="24.00" fill="#707070">media rows and bodies</text>
<text text-anchor="start" x="1942.46" y="-1657.17" font-family="Arial" font-size="24.00" fill="#707070">through</text>
</g>
<!-- 19&#45;&gt;15 -->
<g id="111" class="edge">
<title>19&#45;&gt;15</title>
<path fill="none" stroke="#707070" stroke-dasharray="5,2" d="M1773.47,-1768.13C1773.59,-1711.53 1775.3,-1658.39 1780.96,-1646.38 1791.43,-1624.13 1807.02,-1629.09 1822.96,-1610.38 1912.46,-1505.28 1897.02,-1451.79 1984.96,-1345.38 2050.03,-1266.63 2133.31,-1189.17 2204.57,-1128.26"/>
<polygon fill="#707070" stroke="#707070" points="2206.97,-1130.81 2212.31,-1121.66 2202.43,-1125.48 2206.97,-1130.81"/>
<polygon fill="white" stroke="transparent" points="1984.96,-1447.88 1984.96,-1507.88 2294.96,-1507.88 2294.96,-1447.88 1984.96,-1447.88"/>
<text text-anchor="start" x="1988.96" y="-1484.67" font-family="Arial" font-size="24.00" fill="#707070">Records sanitized debugger</text>
<text text-anchor="start" x="2062.96" y="-1458.67" font-family="Arial" font-size="24.00" fill="#707070">status through</text>
</g>
<!-- 19&#45;&gt;18 -->
<g id="109" class="edge">
<title>19&#45;&gt;18</title>
<path fill="none" stroke="#707070" stroke-dasharray="5,2" d="M1576.38,-1768.19C1568.54,-1756.77 1561.62,-1744.82 1555.96,-1732.38 1537.89,-1692.71 1537.3,-1645.99 1543.41,-1603.54"/>
<polygon fill="#707070" stroke="#707070" points="1546.9,-1603.84 1545,-1593.42 1539.99,-1602.76 1546.9,-1603.84"/>
<polygon fill="white" stroke="transparent" points="1555.96,-1646.38 1555.96,-1732.38 1756.96,-1732.38 1756.96,-1646.38 1555.96,-1646.38"/>
<text text-anchor="start" x="1569.46" y="-1709.17" font-family="Arial" font-size="24.00" fill="#707070">Uses configured</text>
<text text-anchor="start" x="1569.46" y="-1683.17" font-family="Arial" font-size="24.00" fill="#707070">media&#45;response</text>
<text text-anchor="start" x="1560.46" y="-1657.17" font-family="Arial" font-size="24.00" fill="#707070">classification from</text>
</g>
<!-- 9 -->
<g id="9" class="node">
<title>9</title>
<polygon fill="#85bbf0" stroke="#1168bd" points="2418.96,-2496.38 1980.96,-2496.38 1980.96,-2265.38 2418.96,-2265.38 2418.96,-2496.38"/>
<text text-anchor="start" x="2083.96" y="-2448.18" font-family="Arial" font-size="34.00" fill="#000000">Service Worker</text>
<text text-anchor="start" x="2009.96" y="-2426.18" font-family="Arial" font-size="19.00" fill="#000000">[Component: JavaScript MV3 service worker]</text>
<text text-anchor="start" x="2013.96" y="-2389.18" font-family="Arial" font-size="24.00" fill="#000000">Composes extension modules and</text>
<text text-anchor="start" x="2045.46" y="-2365.18" font-family="Arial" font-size="24.00" fill="#000000">registers MV3 message, tab,</text>
<text text-anchor="start" x="2062.46" y="-2341.18" font-family="Arial" font-size="24.00" fill="#000000">window, debugger, alarm,</text>
<text text-anchor="start" x="2074.96" y="-2317.18" font-family="Arial" font-size="24.00" fill="#000000">startup, and installation</text>
<text text-anchor="start" x="2151.46" y="-2293.18" font-family="Arial" font-size="24.00" fill="#000000">listeners.</text>
</g>
<!-- 9&#45;&gt;10 -->
<g id="86" class="edge">
<title>9&#45;&gt;10</title>
<path fill="none" stroke="#707070" stroke-dasharray="5,2" d="M1980.76,-2369.99C1763.5,-2348.38 1435.63,-2281.99 1239.96,-2081.38 1115.98,-1954.28 1080.59,-1744.19 1071.22,-1608.69"/>
<polygon fill="#707070" stroke="#707070" points="1074.71,-1608.41 1070.56,-1598.66 1067.72,-1608.87 1074.71,-1608.41"/>
<polygon fill="white" stroke="transparent" points="1239.96,-1881.88 1239.96,-1967.88 1521.96,-1967.88 1521.96,-1881.88 1239.96,-1881.88"/>
<text text-anchor="start" x="1243.96" y="-1944.67" font-family="Arial" font-size="24.00" fill="#707070">Reads typed settings and</text>
<text text-anchor="start" x="1272.46" y="-1918.67" font-family="Arial" font-size="24.00" fill="#707070">durable restart state</text>
<text text-anchor="start" x="1339.46" y="-1892.67" font-family="Arial" font-size="24.00" fill="#707070">through</text>
</g>
<!-- 9&#45;&gt;13 -->
<g id="92" class="edge">
<title>9&#45;&gt;13</title>
<path fill="none" stroke="#707070" stroke-dasharray="5,2" d="M2391.74,-2265.31C2488.51,-2207.5 2607.06,-2136.68 2710.8,-2074.71"/>
<polygon fill="#707070" stroke="#707070" points="2712.72,-2077.64 2719.51,-2069.51 2709.13,-2071.63 2712.72,-2077.64"/>
<polygon fill="white" stroke="transparent" points="2624.96,-2130.38 2624.96,-2216.38 2896.96,-2216.38 2896.96,-2130.38 2624.96,-2130.38"/>
<text text-anchor="start" x="2706.46" y="-2193.18" font-family="Arial" font-size="24.00" fill="#707070">Delegates</text>
<text text-anchor="start" x="2628.96" y="-2167.18" font-family="Arial" font-size="24.00" fill="#707070">capture/lifecycle delivery</text>
<text text-anchor="start" x="2646.46" y="-2141.18" font-family="Arial" font-size="24.00" fill="#707070">and durable drains to</text>
</g>
<!-- 9&#45;&gt;14 -->
<g id="93" class="edge">
<title>9&#45;&gt;14</title>
<path fill="none" stroke="#707070" stroke-dasharray="5,2" d="M2220.16,-2265.16C2250.12,-2107.88 2310.53,-1836.93 2381.96,-1768.38 2428.93,-1723.29 2462.3,-1753.29 2523.96,-1732.38 2654.05,-1688.25 2686.55,-1674.66 2807.96,-1610.38 2810.73,-1608.91 2813.51,-1607.42 2816.3,-1605.9"/>
<polygon fill="#707070" stroke="#707070" points="2818.15,-1608.88 2825.23,-1601 2814.78,-1602.74 2818.15,-1608.88"/>
<polygon fill="white" stroke="transparent" points="2381.96,-1881.88 2381.96,-1967.88 2681.96,-1967.88 2681.96,-1881.88 2381.96,-1881.88"/>
<text text-anchor="start" x="2407.96" y="-1944.67" font-family="Arial" font-size="24.00" fill="#707070">Delegates credentialed</text>
<text text-anchor="start" x="2385.96" y="-1918.67" font-family="Arial" font-size="24.00" fill="#707070">media delivery and durable</text>
<text text-anchor="start" x="2484.96" y="-1892.67" font-family="Arial" font-size="24.00" fill="#707070">drains to</text>
</g>
<!-- 9&#45;&gt;15 -->
<g id="94" class="edge">
<title>9&#45;&gt;15</title>
<path fill="none" stroke="#707070" stroke-dasharray="5,2" d="M2198.24,-2265.21C2195.45,-2061.99 2191.04,-1658.71 2199.96,-1646.38 2229.84,-1605.03 2277.45,-1650.5 2308.96,-1610.38 2323.51,-1591.83 2341.24,-1302.82 2350.55,-1131.58"/>
<polygon fill="#707070" stroke="#707070" points="2354.05,-1131.67 2351.09,-1121.49 2347.06,-1131.29 2354.05,-1131.67"/>
<polygon fill="white" stroke="transparent" points="2199.96,-1659.38 2199.96,-1719.38 2505.96,-1719.38 2505.96,-1659.38 2199.96,-1659.38"/>
<text text-anchor="start" x="2209.96" y="-1696.17" font-family="Arial" font-size="24.00" fill="#707070">Creates the redaction&#45;safe</text>
<text text-anchor="start" x="2203.96" y="-1670.17" font-family="Arial" font-size="24.00" fill="#707070">telemetry boundary through</text>
</g>
<!-- 9&#45;&gt;19 -->
<g id="107" class="edge">
<title>9&#45;&gt;19</title>
<path fill="none" stroke="#707070" stroke-dasharray="5,2" d="M1980.94,-2274.12C1962.22,-2260.5 1944.52,-2245.58 1928.96,-2229.38 1891.05,-2189.92 1860.53,-2139.23 1837.02,-2090.61"/>
<polygon fill="#707070" stroke="#707070" points="1840.17,-2089.09 1832.71,-2081.56 1833.85,-2092.1 1840.17,-2089.09"/>
<polygon fill="white" stroke="transparent" points="1928.96,-2117.38 1928.96,-2229.38 2180.96,-2229.38 2180.96,-2117.38 1928.96,-2117.38"/>
<text text-anchor="start" x="1945.46" y="-2206.18" font-family="Arial" font-size="24.00" fill="#707070">Delegates debugger</text>
<text text-anchor="start" x="1958.46" y="-2180.18" font-family="Arial" font-size="24.00" fill="#707070">attachment, event</text>
<text text-anchor="start" x="1932.96" y="-2154.18" font-family="Arial" font-size="24.00" fill="#707070">correlation, and restart</text>
<text text-anchor="start" x="1970.46" y="-2128.18" font-family="Arial" font-size="24.00" fill="#707070">reconciliation to</text>
</g>
</g>
</svg>
