<?xml version="1.0" encoding="UTF-8" standalone="no"?>
<!DOCTYPE svg PUBLIC "-//W3C//DTD SVG 1.1//EN"
 "http://www.w3.org/Graphics/SVG/1.1/DTD/svg11.dtd">
<!-- Generated by graphviz version 2.43.0 (0)
 -->
<!-- Title: %3 Pages: 1 -->
<svg width="1384pt" height="1354pt"
 viewBox="0.00 0.00 1384.00 1353.50" xmlns="http://www.w3.org/2000/svg" xmlns:xlink="http://www.w3.org/1999/xlink">
<g id="graph0" class="graph" transform="scale(1 1) rotate(0) translate(4 1349.5)">
<title>%3</title>
<polygon fill="white" stroke="transparent" points="-4,4 -4,-1349.5 1380,-1349.5 1380,4 -4,4"/>
<text text-anchor="start" x="408.5" y="-11.8" font-family="Arial" font-size="34.00">Browser Memory Daemon &#45; Dynamic</text>
<g id="clust1" class="cluster">
<title>cluster_5</title>
<polygon fill="none" stroke="#444444" points="8,-346.5 8,-1337.5 1368,-1337.5 1368,-346.5 8,-346.5"/>
<text text-anchor="start" x="547" y="-375.3" font-family="Arial" font-size="24.00" fill="#444444">Browser Memory Daemon</text>
<text text-anchor="start" x="611" y="-355.3" font-family="Arial" font-size="19.00" fill="#444444">[Software System]</text>
</g>
<!-- 45 -->
<g id="45" class="node">
<title>45</title>
<polygon fill="#438dd5" stroke="#2e6295" points="418,-834 33,-834 33,-483 418,-483 418,-834"/>
<text text-anchor="start" x="78.5" y="-785.8" font-family="Arial" font-size="34.00" fill="#ffffff">WSL Media Worker</text>
<text text-anchor="start" x="85.5" y="-763.8" font-family="Arial" font-size="19.00" fill="#ffffff">[Container: Python 3.11 CLI loop]</text>
<text text-anchor="start" x="78" y="-726.8" font-family="Arial" font-size="24.00" fill="#ffffff">Long&#45;running systemd user</text>
<text text-anchor="start" x="133" y="-702.8" font-family="Arial" font-size="24.00" fill="#ffffff">worker that loads</text>
<text text-anchor="start" x="99" y="-678.8" font-family="Arial" font-size="24.00" fill="#ffffff">storage/media modules</text>
<text text-anchor="start" x="83" y="-654.8" font-family="Arial" font-size="24.00" fill="#ffffff">in&#45;process, first drains one</text>
<text text-anchor="start" x="62" y="-630.8" font-family="Arial" font-size="24.00" fill="#ffffff">bounded spool&#45;recovery batch</text>
<text text-anchor="start" x="66" y="-606.8" font-family="Arial" font-size="24.00" fill="#ffffff">when the guarded final root is</text>
<text text-anchor="start" x="127" y="-582.8" font-family="Arial" font-size="24.00" fill="#ffffff">ready, then leases</text>
<text text-anchor="start" x="79.5" y="-558.8" font-family="Arial" font-size="24.00" fill="#ffffff">daemon&#45;public media fetch</text>
<text text-anchor="start" x="63" y="-534.8" font-family="Arial" font-size="24.00" fill="#ffffff">tasks without calling the HTTP</text>
<text text-anchor="start" x="178" y="-510.8" font-family="Arial" font-size="24.00" fill="#ffffff">daemon.</text>
</g>
<!-- 57 -->
<g id="57" class="node">
<title>57</title>
<path fill="#2f95c8" stroke="#20688c" d="M1256,-777.72C1256,-796.01 1173.08,-810.88 1071,-810.88 968.92,-810.88 886,-796.01 886,-777.72 886,-777.72 886,-479.28 886,-479.28 886,-460.99 968.92,-446.12 1071,-446.12 1173.08,-446.12 1256,-460.99 1256,-479.28 1256,-479.28 1256,-777.72 1256,-777.72"/>
<path fill="none" stroke="#20688c" d="M1256,-777.72C1256,-759.42 1173.08,-744.56 1071,-744.56 968.92,-744.56 886,-759.42 886,-777.72"/>
<text text-anchor="start" x="958" y="-712.8" font-family="Arial" font-size="34.00" fill="#ffffff">SQLite + FTS5</text>
<text text-anchor="start" x="998" y="-678.8" font-family="Arial" font-size="34.00" fill="#ffffff">Database</text>
<text text-anchor="start" x="945" y="-656.8" font-family="Arial" font-size="19.00" fill="#ffffff">[Container: SQLite with FTS5]</text>
<text text-anchor="start" x="951.5" y="-619.8" font-family="Arial" font-size="24.00" fill="#ffffff">Durable text/metadata</text>
<text text-anchor="start" x="920" y="-595.8" font-family="Arial" font-size="24.00" fill="#ffffff">authority including migration</text>
<text text-anchor="start" x="915" y="-571.8" font-family="Arial" font-size="24.00" fill="#ffffff">ledger, capture observations,</text>
<text text-anchor="start" x="925" y="-547.8" font-family="Arial" font-size="24.00" fill="#ffffff">and immutable observation</text>
<text text-anchor="start" x="973" y="-523.8" font-family="Arial" font-size="24.00" fill="#ffffff">ingest sequences.</text>
</g>
<!-- 45&#45;&gt;57 -->
<g id="87" class="edge">
<title>45&#45;&gt;57</title>
<path fill="none" stroke="#707070" stroke-dasharray="5,2" d="M418.05,-569.64C430.06,-566.06 442.1,-562.95 454,-560.5 593.79,-531.67 754.11,-550.98 876.15,-576.28"/>
<polygon fill="#707070" stroke="#707070" points="875.48,-579.71 885.98,-578.35 876.92,-572.86 875.48,-579.71"/>
<polygon fill="white" stroke="transparent" points="503.5,-560.5 503.5,-659.5 713.5,-659.5 713.5,-560.5 503.5,-560.5"/>
<text text-anchor="start" x="534.5" y="-636.8" font-family="Arial" font-size="24.00" fill="#707070">1. Claims due</text>
<text text-anchor="start" x="528.5" y="-612.8" font-family="Arial" font-size="24.00" fill="#707070">daemon&#45;public</text>
<text text-anchor="start" x="507.5" y="-588.8" font-family="Arial" font-size="24.00" fill="#707070">media_fetch_tasks</text>
<text text-anchor="start" x="575" y="-568.8" font-family="Arial" font-size="19.00" fill="#707070">[sqlite3]</text>
</g>
<!-- 45&#45;&gt;57 -->
<g id="87" class="edge">
<title>45&#45;&gt;57</title>
<path fill="none" stroke="#707070" stroke-dasharray="5,2" d="M418.23,-672.05C430.33,-672.62 442.33,-673.12 454,-673.5 591.26,-678.02 626.03,-683.49 763,-673.5 799.62,-670.83 838.5,-666.39 875.85,-661.32"/>
<polygon fill="#707070" stroke="#707070" points="876.39,-664.78 885.82,-659.94 875.43,-657.84 876.39,-664.78"/>
<polygon fill="white" stroke="transparent" points="471.5,-678.5 471.5,-801.5 745.5,-801.5 745.5,-678.5 471.5,-678.5"/>
<text text-anchor="start" x="496.5" y="-778.8" font-family="Arial" font-size="24.00" fill="#707070">4. Marks task/artifact</text>
<text text-anchor="start" x="475.5" y="-754.8" font-family="Arial" font-size="24.00" fill="#707070">stored, retrying, skipped,</text>
<text text-anchor="start" x="494" y="-730.8" font-family="Arial" font-size="24.00" fill="#707070">expired, or failed with</text>
<text text-anchor="start" x="571" y="-706.8" font-family="Arial" font-size="24.00" fill="#707070">reason</text>
<text text-anchor="start" x="575" y="-686.8" font-family="Arial" font-size="19.00" fill="#707070">[sqlite3]</text>
</g>
<!-- 59 -->
<g id="59" class="node">
<title>59</title>
<path fill="#2f95c8" stroke="#20688c" d="M1343,-1273.72C1343,-1295.32 1221.09,-1312.88 1071,-1312.88 920.91,-1312.88 799,-1295.32 799,-1273.72 799,-1273.72 799,-921.28 799,-921.28 799,-899.68 920.91,-882.12 1071,-882.12 1221.09,-882.12 1343,-899.68 1343,-921.28 1343,-921.28 1343,-1273.72 1343,-1273.72"/>
<path fill="none" stroke="#20688c" d="M1343,-1273.72C1343,-1252.11 1221.09,-1234.56 1071,-1234.56 920.91,-1234.56 799,-1252.11 799,-1273.72"/>
<text text-anchor="start" x="915.5" y="-1205.8" font-family="Arial" font-size="34.00" fill="#ffffff">Guarded Media Blob</text>
<text text-anchor="start" x="1021.5" y="-1171.8" font-family="Arial" font-size="34.00" fill="#ffffff">Cache</text>
<text text-anchor="start" x="828" y="-1149.8" font-family="Arial" font-size="19.00" fill="#ffffff">[Container: WSL&#45;visible local or NAS&#45;mounted filesystem]</text>
<text text-anchor="start" x="961" y="-1112.8" font-family="Arial" font-size="24.00" fill="#ffffff">Bounded disposable</text>
<text text-anchor="start" x="905.5" y="-1088.8" font-family="Arial" font-size="24.00" fill="#ffffff">image/video/audio bytes under</text>
<text text-anchor="start" x="929.5" y="-1064.8" font-family="Arial" font-size="24.00" fill="#ffffff">the configured media root;</text>
<text text-anchor="start" x="957" y="-1040.8" font-family="Arial" font-size="24.00" fill="#ffffff">explicit external roots</text>
<text text-anchor="start" x="972" y="-1016.8" font-family="Arial" font-size="24.00" fill="#ffffff">require mount and</text>
<text text-anchor="start" x="921.5" y="-992.8" font-family="Arial" font-size="24.00" fill="#ffffff">identity&#45;marker proof before</text>
<text text-anchor="start" x="1030" y="-968.8" font-family="Arial" font-size="24.00" fill="#ffffff">access.</text>
</g>
<!-- 45&#45;&gt;59 -->
<g id="89" class="edge">
<title>45&#45;&gt;59</title>
<path fill="none" stroke="#707070" stroke-dasharray="5,2" d="M418.13,-797.93C430.12,-805.46 442.14,-812.71 454,-819.5 560.24,-880.32 682.2,-937.74 789.42,-984.43"/>
<polygon fill="#707070" stroke="#707070" points="788.19,-987.71 798.76,-988.48 790.98,-981.29 788.19,-987.71"/>
<polygon fill="white" stroke="transparent" points="454,-967.5 454,-1066.5 763,-1066.5 763,-967.5 454,-967.5"/>
<text text-anchor="start" x="503.5" y="-1043.8" font-family="Arial" font-size="24.00" fill="#707070">3. Writes fetched or</text>
<text text-anchor="start" x="458.5" y="-1019.8" font-family="Arial" font-size="24.00" fill="#707070">assembled blob when gates</text>
<text text-anchor="start" x="581.5" y="-995.8" font-family="Arial" font-size="24.00" fill="#707070">allow</text>
<text text-anchor="start" x="557.5" y="-975.8" font-family="Arial" font-size="19.00" fill="#707070">[Filesystem]</text>
</g>
<!-- 3 -->
<g id="3" class="node">
<title>3</title>
<polygon fill="#999999" stroke="#6b6b6b" points="1272.5,-321 869.5,-321 869.5,-56 1272.5,-56 1272.5,-321"/>
<text text-anchor="start" x="909.5" y="-272.8" font-family="Arial" font-size="34.00" fill="#ffffff">Web Sites and Media</text>
<text text-anchor="start" x="1017" y="-238.8" font-family="Arial" font-size="34.00" fill="#ffffff">Origins</text>
<text text-anchor="start" x="994" y="-216.8" font-family="Arial" font-size="19.00" fill="#ffffff">[Software System]</text>
<text text-anchor="start" x="961" y="-179.8" font-family="Arial" font-size="24.00" fill="#ffffff">External web pages,</text>
<text text-anchor="start" x="908.5" y="-155.8" font-family="Arial" font-size="24.00" fill="#ffffff">image/video URLs, and media</text>
<text text-anchor="start" x="898.5" y="-131.8" font-family="Arial" font-size="24.00" fill="#ffffff">CDNs that Chrome loads or that</text>
<text text-anchor="start" x="908.5" y="-107.8" font-family="Arial" font-size="24.00" fill="#ffffff">sidecars fetch as page&#45;related</text>
<text text-anchor="start" x="1034.5" y="-83.8" font-family="Arial" font-size="24.00" fill="#ffffff">media.</text>
</g>
<!-- 45&#45;&gt;3 -->
<g id="88" class="edge">
<title>45&#45;&gt;3</title>
<path fill="none" stroke="#707070" stroke-dasharray="5,2" d="M384.13,-482.79C406.4,-463 429.94,-444.3 454,-428.5 578.7,-346.59 735.58,-285.98 859.82,-246.17"/>
<polygon fill="#707070" stroke="#707070" points="860.99,-249.46 869.46,-243.1 858.87,-242.79 860.99,-249.46"/>
<polygon fill="white" stroke="transparent" points="454.5,-428.5 454.5,-527.5 762.5,-527.5 762.5,-428.5 454.5,-428.5"/>
<text text-anchor="start" x="466" y="-504.8" font-family="Arial" font-size="24.00" fill="#707070">2. Fetches public media or</text>
<text text-anchor="start" x="458.5" y="-480.8" font-family="Arial" font-size="24.00" fill="#707070">HLS assets without Chrome</text>
<text text-anchor="start" x="567.5" y="-456.8" font-family="Arial" font-size="24.00" fill="#707070">cookies</text>
<text text-anchor="start" x="516.5" y="-436.8" font-family="Arial" font-size="19.00" fill="#707070">[HTTP(S), data URLs]</text>
</g>
</g>
</svg>
