<?xml version="1.0" encoding="UTF-8" standalone="no"?>
<!DOCTYPE svg PUBLIC "-//W3C//DTD SVG 1.1//EN"
 "http://www.w3.org/Graphics/SVG/1.1/DTD/svg11.dtd">
<!-- Generated by graphviz version 2.43.0 (0)
 -->
<!-- Title: %3 Pages: 1 -->
<svg width="4758pt" height="2519pt"
 viewBox="0.00 0.00 4758.00 2519.00" xmlns="http://www.w3.org/2000/svg" xmlns:xlink="http://www.w3.org/1999/xlink">
<g id="graph0" class="graph" transform="scale(1 1) rotate(0) translate(4 2515)">
<title>%3</title>
<polygon fill="white" stroke="transparent" points="-4,4 -4,-2515 4754,-2515 4754,4 -4,4"/>
<text text-anchor="start" x="1790" y="-11.8" font-family="Arial" font-size="34.00">Component View: Browser Memory Daemon &#45; WSL Loopback HTTP Daemon</text>
<g id="clust1" class="cluster">
<title>cluster_4</title>
<polygon fill="none" stroke="#444444" points="8,-64 8,-2503 4742,-2503 4742,-64 8,-64"/>
<text text-anchor="start" x="2234" y="-92.8" font-family="Arial" font-size="24.00" fill="#444444">Browser Memory Daemon</text>
<text text-anchor="start" x="2298" y="-72.8" font-family="Arial" font-size="19.00" fill="#444444">[Software System]</text>
</g>
<g id="clust2" class="cluster">
<title>cluster_14</title>
<polygon fill="none" stroke="#444444" points="33,-164 33,-1891 3836,-1891 3836,-164 33,-164"/>
<text text-anchor="start" x="1769" y="-192.8" font-family="Arial" font-size="24.00" fill="#444444">WSL Loopback HTTP Daemon</text>
<text text-anchor="start" x="1732.5" y="-172.8" font-family="Arial" font-size="19.00" fill="#444444">[Container: Python 3.11, ThreadingHTTPServer]</text>
</g>
<!-- 15 -->
<g id="15" class="node">
<title>15</title>
<polygon fill="#85bbf0" stroke="#1168bd" points="453,-1227.5 58,-1227.5 58,-996.5 453,-996.5 453,-1227.5"/>
<text text-anchor="start" x="87" y="-1179.3" font-family="Arial" font-size="34.00" fill="#000000">HTTP Request Router</text>
<text text-anchor="start" x="119" y="-1157.3" font-family="Arial" font-size="19.00" fill="#000000">[Component: Python http.server]</text>
<text text-anchor="start" x="90" y="-1120.3" font-family="Arial" font-size="24.00" fill="#000000">Routes loopback API requests,</text>
<text text-anchor="start" x="112.5" y="-1096.3" font-family="Arial" font-size="24.00" fill="#000000">serves UI assets, enforces</text>
<text text-anchor="start" x="91.5" y="-1072.3" font-family="Arial" font-size="24.00" fill="#000000">bearer auth for memory/admin</text>
<text text-anchor="start" x="106" y="-1048.3" font-family="Arial" font-size="24.00" fill="#000000">APIs, and applies CORS for</text>
<text text-anchor="start" x="172" y="-1024.3" font-family="Arial" font-size="24.00" fill="#000000">allowed origins.</text>
</g>
<!-- 21 -->
<g id="21" class="node">
<title>21</title>
<polygon fill="#85bbf0" stroke="#1168bd" points="1231,-1280.5 810,-1280.5 810,-943.5 1231,-943.5 1231,-1280.5"/>
<text text-anchor="start" x="917" y="-1232.3" font-family="Arial" font-size="34.00" fill="#000000">Media Artifact</text>
<text text-anchor="start" x="953.5" y="-1198.3" font-family="Arial" font-size="34.00" fill="#000000">Manager</text>
<text text-anchor="start" x="839" y="-1176.3" font-family="Arial" font-size="19.00" fill="#000000">[Component: Python + sqlite3 + filesystem]</text>
<text text-anchor="start" x="883.5" y="-1139.3" font-family="Arial" font-size="24.00" fill="#000000">Provides the compatibility</text>
<text text-anchor="start" x="853.5" y="-1115.3" font-family="Arial" font-size="24.00" fill="#000000">API, records media references,</text>
<text text-anchor="start" x="885" y="-1091.3" font-family="Arial" font-size="24.00" fill="#000000">normalizes bounded blob</text>
<text text-anchor="start" x="870.5" y="-1067.3" font-family="Arial" font-size="24.00" fill="#000000">uploads, delegates guarded</text>
<text text-anchor="start" x="874" y="-1043.3" font-family="Arial" font-size="24.00" fill="#000000">public transport, and drains</text>
<text text-anchor="start" x="875" y="-1019.3" font-family="Arial" font-size="24.00" fill="#000000">verified spool bytes without</text>
<text text-anchor="start" x="867" y="-995.3" font-family="Arial" font-size="24.00" fill="#000000">coupling text ingest to media</text>
<text text-anchor="start" x="962" y="-971.3" font-family="Arial" font-size="24.00" fill="#000000">availability.</text>
</g>
<!-- 15&#45;&gt;21 -->
<g id="85" class="edge">
<title>15&#45;&gt;21</title>
<path fill="none" stroke="#444444" stroke-dasharray="5,2" d="M453.49,-1112C559.46,-1112 690.46,-1112 799.73,-1112"/>
<polygon fill="#444444" stroke="#444444" points="799.9,-1115.5 809.9,-1112 799.9,-1108.5 799.9,-1115.5"/>
<polygon fill="white" stroke="transparent" points="489,-1112 489,-1146 774,-1146 774,-1112 489,-1112"/>
<text text-anchor="start" x="493.5" y="-1122.8" font-family="Arial" font-size="24.00" fill="#444444">Routes media requests to</text>
</g>
<!-- 22 -->
<g id="22" class="node">
<title>22</title>
<polygon fill="#85bbf0" stroke="#1168bd" points="3779,-924.5 3432,-924.5 3432,-669.5 3779,-669.5 3779,-924.5"/>
<text text-anchor="start" x="3463.5" y="-876.3" font-family="Arial" font-size="34.00" fill="#000000">Media State Model</text>
<text text-anchor="start" x="3516.5" y="-854.3" font-family="Arial" font-size="19.00" fill="#000000">[Component: Python]</text>
<text text-anchor="start" x="3481" y="-817.3" font-family="Arial" font-size="24.00" fill="#000000">Owns caller&#45;visible and</text>
<text text-anchor="start" x="3464.5" y="-793.3" font-family="Arial" font-size="24.00" fill="#000000">internal artifact/task status</text>
<text text-anchor="start" x="3480.5" y="-769.3" font-family="Arial" font-size="24.00" fill="#000000">taxonomies, fetch&#45;error</text>
<text text-anchor="start" x="3470" y="-745.3" font-family="Arial" font-size="24.00" fill="#000000">classification, and explicit</text>
<text text-anchor="start" x="3461" y="-721.3" font-family="Arial" font-size="24.00" fill="#000000">ordinary versus force&#45;reset</text>
<text text-anchor="start" x="3503.5" y="-697.3" font-family="Arial" font-size="24.00" fill="#000000">transition matrices.</text>
</g>
<!-- 21&#45;&gt;22 -->
<g id="93" class="edge">
<title>21&#45;&gt;22</title>
<path fill="none" stroke="#444444" stroke-dasharray="5,2" d="M1231.31,-994.77C1243.22,-990.05 1255.16,-985.75 1267,-982 1667.9,-855.14 2944.01,-812.55 3421.68,-800.84"/>
<polygon fill="#444444" stroke="#444444" points="3421.87,-804.33 3431.78,-800.59 3421.7,-797.34 3421.87,-804.33"/>
<polygon fill="white" stroke="transparent" points="2055,-866 2055,-952 2321,-952 2321,-866 2055,-866"/>
<text text-anchor="start" x="2096.5" y="-928.8" font-family="Arial" font-size="24.00" fill="#444444">Classifies artifact</text>
<text text-anchor="start" x="2059" y="-902.8" font-family="Arial" font-size="24.00" fill="#444444">outcomes and transition</text>
<text text-anchor="start" x="2113.5" y="-876.8" font-family="Arial" font-size="24.00" fill="#444444">intent through</text>
</g>
<!-- 23 -->
<g id="23" class="node">
<title>23</title>
<polygon fill="#85bbf0" stroke="#1168bd" points="2889,-1405.5 2486,-1405.5 2486,-1126.5 2889,-1126.5 2889,-1405.5"/>
<text text-anchor="start" x="2515" y="-1357.3" font-family="Arial" font-size="34.00" fill="#000000">Media Task Repository</text>
<text text-anchor="start" x="2559.5" y="-1335.3" font-family="Arial" font-size="19.00" fill="#000000">[Component: Python + sqlite3]</text>
<text text-anchor="start" x="2538.5" y="-1298.3" font-family="Arial" font-size="24.00" fill="#000000">Creates deterministic tasks,</text>
<text text-anchor="start" x="2554.5" y="-1274.3" font-family="Arial" font-size="24.00" fill="#000000">preserves terminal state,</text>
<text text-anchor="start" x="2539.5" y="-1250.3" font-family="Arial" font-size="24.00" fill="#000000">atomically leases due work,</text>
<text text-anchor="start" x="2546.5" y="-1226.3" font-family="Arial" font-size="24.00" fill="#000000">recovers stale leases, and</text>
<text text-anchor="start" x="2528.5" y="-1202.3" font-family="Arial" font-size="24.00" fill="#000000">applies bounded retry/backoff</text>
<text text-anchor="start" x="2528" y="-1178.3" font-family="Arial" font-size="24.00" fill="#000000">outcomes independently from</text>
<text text-anchor="start" x="2599.5" y="-1154.3" font-family="Arial" font-size="24.00" fill="#000000">media transport.</text>
</g>
<!-- 21&#45;&gt;23 -->
<g id="94" class="edge">
<title>21&#45;&gt;23</title>
<path fill="none" stroke="#444444" stroke-dasharray="5,2" d="M1231.46,-1054.86C1431.49,-1008.59 1740.47,-958.43 2005,-1007 2168.97,-1037.11 2344.62,-1104.8 2476.52,-1163.42"/>
<polygon fill="#444444" stroke="#444444" points="2475.38,-1166.75 2485.94,-1167.63 2478.24,-1160.36 2475.38,-1166.75"/>
<polygon fill="white" stroke="transparent" points="1644,-1007 1644,-1067 1947,-1067 1947,-1007 1644,-1007"/>
<text text-anchor="start" x="1648.5" y="-1043.8" font-family="Arial" font-size="24.00" fill="#444444">Creates and claims durable</text>
<text text-anchor="start" x="1689" y="-1017.8" font-family="Arial" font-size="24.00" fill="#444444">media work through</text>
</g>
<!-- 24 -->
<g id="24" class="node">
<title>24</title>
<polygon fill="#85bbf0" stroke="#1168bd" points="2005,-1405.5 1586,-1405.5 1586,-1102.5 2005,-1102.5 2005,-1405.5"/>
<text text-anchor="start" x="1646.5" y="-1357.3" font-family="Arial" font-size="34.00" fill="#000000">Media Artifact Store</text>
<text text-anchor="start" x="1615" y="-1335.3" font-family="Arial" font-size="19.00" fill="#000000">[Component: Python + sqlite3 + BlobStore]</text>
<text text-anchor="start" x="1652.5" y="-1298.3" font-family="Arial" font-size="24.00" fill="#000000">Owns artifact rows, unique</text>
<text text-anchor="start" x="1694.5" y="-1274.3" font-family="Arial" font-size="24.00" fill="#000000">staged publication,</text>
<text text-anchor="start" x="1654.5" y="-1250.3" font-family="Arial" font-size="24.00" fill="#000000">failed&#45;write compensation,</text>
<text text-anchor="start" x="1670" y="-1226.3" font-family="Arial" font-size="24.00" fill="#000000">contained reads, cache</text>
<text text-anchor="start" x="1678" y="-1202.3" font-family="Arial" font-size="24.00" fill="#000000">admission, oldest&#45;first</text>
<text text-anchor="start" x="1649" y="-1178.3" font-family="Arial" font-size="24.00" fill="#000000">eviction, purge/rehydration,</text>
<text text-anchor="start" x="1729" y="-1154.3" font-family="Arial" font-size="24.00" fill="#000000">and lifecycle</text>
<text text-anchor="start" x="1666" y="-1130.3" font-family="Arial" font-size="24.00" fill="#000000">registration/tombstones.</text>
</g>
<!-- 21&#45;&gt;24 -->
<g id="95" class="edge">
<title>21&#45;&gt;24</title>
<path fill="none" stroke="#444444" stroke-dasharray="5,2" d="M1231.19,-1150.52C1337.96,-1170.13 1467.67,-1193.96 1575.7,-1213.81"/>
<polygon fill="#444444" stroke="#444444" points="1575.28,-1217.29 1585.75,-1215.65 1576.54,-1210.4 1575.28,-1217.29"/>
<polygon fill="white" stroke="transparent" points="1279.5,-1208 1279.5,-1294 1537.5,-1294 1537.5,-1208 1279.5,-1208"/>
<text text-anchor="start" x="1301" y="-1270.8" font-family="Arial" font-size="24.00" fill="#444444">Publishes, resolves,</text>
<text text-anchor="start" x="1283.5" y="-1244.8" font-family="Arial" font-size="24.00" fill="#444444">purges, and rehydrates</text>
<text text-anchor="start" x="1321" y="-1218.8" font-family="Arial" font-size="24.00" fill="#444444">artifacts through</text>
</g>
<!-- 25 -->
<g id="25" class="node">
<title>25</title>
<polygon fill="#85bbf0" stroke="#1168bd" points="2000.5,-682.5 1590.5,-682.5 1590.5,-427.5 2000.5,-427.5 2000.5,-682.5"/>
<text text-anchor="start" x="1631" y="-634.3" font-family="Arial" font-size="34.00" fill="#000000">Guarded Media Fetch</text>
<text text-anchor="start" x="1619.5" y="-612.3" font-family="Arial" font-size="19.00" fill="#000000">[Component: Python stdlib urllib + socket]</text>
<text text-anchor="start" x="1648" y="-575.3" font-family="Arial" font-size="24.00" fill="#000000">Owns HTTP/data transport,</text>
<text text-anchor="start" x="1658.5" y="-551.3" font-family="Arial" font-size="24.00" fill="#000000">public&#45;address validation,</text>
<text text-anchor="start" x="1686" y="-527.3" font-family="Arial" font-size="24.00" fill="#000000">redirect revalidation,</text>
<text text-anchor="start" x="1684" y="-503.3" font-family="Arial" font-size="24.00" fill="#000000">no&#45;referrer requests,</text>
<text text-anchor="start" x="1660.5" y="-479.3" font-family="Arial" font-size="24.00" fill="#000000">response&#45;byte limits, and</text>
<text text-anchor="start" x="1699.5" y="-455.3" font-family="Arial" font-size="24.00" fill="#000000">shared deadlines.</text>
</g>
<!-- 21&#45;&gt;25 -->
<g id="96" class="edge">
<title>21&#45;&gt;25</title>
<path fill="none" stroke="#444444" stroke-dasharray="5,2" d="M1092.68,-943.07C1133.38,-864.68 1191.51,-776.18 1267,-718 1357.28,-648.42 1477.51,-608.31 1580.38,-585.31"/>
<polygon fill="#444444" stroke="#444444" points="1581.26,-588.7 1590.28,-583.13 1579.76,-581.86 1581.26,-588.7"/>
<polygon fill="white" stroke="transparent" points="1267,-718 1267,-778 1550,-778 1550,-718 1267,-718"/>
<text text-anchor="start" x="1271.5" y="-754.8" font-family="Arial" font-size="24.00" fill="#444444">Delegates daemon&#45;public</text>
<text text-anchor="start" x="1311" y="-728.8" font-family="Arial" font-size="24.00" fill="#444444">media transport to</text>
</g>
<!-- 27 -->
<g id="27" class="node">
<title>27</title>
<polygon fill="#85bbf0" stroke="#1168bd" points="3811,-1630.5 3400,-1630.5 3400,-1327.5 3811,-1327.5 3811,-1630.5"/>
<text text-anchor="start" x="3449" y="-1582.3" font-family="Arial" font-size="34.00" fill="#000000">Contained BlobStore</text>
<text text-anchor="start" x="3429" y="-1560.3" font-family="Arial" font-size="19.00" fill="#000000">[Component: Python filesystem boundary]</text>
<text text-anchor="start" x="3453" y="-1523.3" font-family="Arial" font-size="24.00" fill="#000000">Prefers root&#45;relative locators</text>
<text text-anchor="start" x="3489.5" y="-1499.3" font-family="Arial" font-size="24.00" fill="#000000">with contained legacy</text>
<text text-anchor="start" x="3474.5" y="-1475.3" font-family="Arial" font-size="24.00" fill="#000000">fallback; streams unique</text>
<text text-anchor="start" x="3490.5" y="-1451.3" font-family="Arial" font-size="24.00" fill="#000000">stages with size/hash</text>
<text text-anchor="start" x="3486.5" y="-1427.3" font-family="Arial" font-size="24.00" fill="#000000">accounting; atomically</text>
<text text-anchor="start" x="3458.5" y="-1403.3" font-family="Arial" font-size="24.00" fill="#000000">commits; and contains blob</text>
<text text-anchor="start" x="3491" y="-1379.3" font-family="Arial" font-size="24.00" fill="#000000">read, stat, and delete</text>
<text text-anchor="start" x="3545" y="-1355.3" font-family="Arial" font-size="24.00" fill="#000000">operations.</text>
</g>
<!-- 21&#45;&gt;27 -->
<g id="109" class="edge">
<title>21&#45;&gt;27</title>
<path fill="none" stroke="#444444" stroke-dasharray="5,2" d="M1218.54,-1280.6C1234.55,-1291.78 1250.8,-1302.4 1267,-1312 1398.68,-1390.1 1436.03,-1411.19 1586,-1442 1758.58,-1477.46 2905.23,-1480.04 3389.39,-1479.52"/>
<polygon fill="#444444" stroke="#444444" points="3389.65,-1483.02 3399.65,-1479.51 3389.64,-1476.02 3389.65,-1483.02"/>
<polygon fill="white" stroke="transparent" points="2053.5,-1473 2053.5,-1585 2322.5,-1585 2322.5,-1473 2053.5,-1473"/>
<text text-anchor="start" x="2067" y="-1561.8" font-family="Arial" font-size="24.00" fill="#444444">Checks current artifact</text>
<text text-anchor="start" x="2071.5" y="-1535.8" font-family="Arial" font-size="24.00" fill="#444444">presence during fetch</text>
<text text-anchor="start" x="2058" y="-1509.8" font-family="Arial" font-size="24.00" fill="#444444">orchestration and drains</text>
<text text-anchor="start" x="2082.5" y="-1483.8" font-family="Arial" font-size="24.00" fill="#444444">spool bytes through</text>
</g>
<!-- 36 -->
<g id="36" class="node">
<title>36</title>
<path fill="#2f95c8" stroke="#20688c" d="M3803,-2427.22C3803,-2455.44 3714.48,-2478.38 3605.5,-2478.38 3496.52,-2478.38 3408,-2455.44 3408,-2427.22 3408,-2427.22 3408,-1966.78 3408,-1966.78 3408,-1938.56 3496.52,-1915.62 3605.5,-1915.62 3714.48,-1915.62 3803,-1938.56 3803,-1966.78 3803,-1966.78 3803,-2427.22 3803,-2427.22"/>
<path fill="none" stroke="#20688c" d="M3803,-2427.22C3803,-2398.99 3714.48,-2376.06 3605.5,-2376.06 3496.52,-2376.06 3408,-2398.99 3408,-2427.22"/>
<text text-anchor="start" x="3492.5" y="-2353.3" font-family="Arial" font-size="34.00" fill="#ffffff">SQLite + FTS5</text>
<text text-anchor="start" x="3532.5" y="-2319.3" font-family="Arial" font-size="34.00" fill="#ffffff">Database</text>
<text text-anchor="start" x="3479.5" y="-2297.3" font-family="Arial" font-size="19.00" fill="#ffffff">[Container: SQLite with FTS5]</text>
<text text-anchor="start" x="3437.5" y="-2260.3" font-family="Arial" font-size="24.00" fill="#ffffff">Durable complete cleaned&#45;text,</text>
<text text-anchor="start" x="3486.5" y="-2236.3" font-family="Arial" font-size="24.00" fill="#ffffff">relational, and full&#45;text</text>
<text text-anchor="start" x="3488" y="-2212.3" font-family="Arial" font-size="24.00" fill="#ffffff">authority for migration</text>
<text text-anchor="start" x="3453.5" y="-2188.3" font-family="Arial" font-size="24.00" fill="#ffffff">ledger, sources, documents,</text>
<text text-anchor="start" x="3456" y="-2164.3" font-family="Arial" font-size="24.00" fill="#ffffff">visits, capture observations,</text>
<text text-anchor="start" x="3474.5" y="-2140.3" font-family="Arial" font-size="24.00" fill="#ffffff">URL claims, visit events,</text>
<text text-anchor="start" x="3437" y="-2116.3" font-family="Arial" font-size="24.00" fill="#ffffff">snapshots, chunks, chunks_fts,</text>
<text text-anchor="start" x="3444.5" y="-2092.3" font-family="Arial" font-size="24.00" fill="#ffffff">media provenance/tasks, blob</text>
<text text-anchor="start" x="3481" y="-2068.3" font-family="Arial" font-size="24.00" fill="#ffffff">lifecycle records, policy</text>
<text text-anchor="start" x="3480" y="-2044.3" font-family="Arial" font-size="24.00" fill="#ffffff">rules, audit events, and</text>
<text text-anchor="start" x="3513.5" y="-2020.3" font-family="Arial" font-size="24.00" fill="#ffffff">deletion receipts.</text>
</g>
<!-- 21&#45;&gt;36 -->
<g id="97" class="edge">
<title>21&#45;&gt;36</title>
<path fill="none" stroke="#444444" stroke-dasharray="5,2" d="M1163.04,-1280.75C1387.89,-1533.75 1854.43,-1999.85 2371,-2170 2716.9,-2283.93 3147.42,-2258.44 3397.59,-2228.47"/>
<polygon fill="#444444" stroke="#444444" points="3398.38,-2231.89 3407.89,-2227.22 3397.54,-2224.95 3398.38,-2231.89"/>
<polygon fill="white" stroke="transparent" points="2062.5,-2152 2062.5,-2227 2313.5,-2227 2313.5,-2152 2062.5,-2152"/>
<text text-anchor="start" x="2067" y="-2204.3" font-family="Arial" font-size="24.00" fill="#444444">Updates media artifact</text>
<text text-anchor="start" x="2150" y="-2180.3" font-family="Arial" font-size="24.00" fill="#444444">rows in</text>
<text text-anchor="start" x="2155" y="-2160.3" font-family="Arial" font-size="19.00" fill="#444444">[sqlite3]</text>
</g>
<!-- 23&#45;&gt;22 -->
<g id="98" class="edge">
<title>23&#45;&gt;22</title>
<path fill="none" stroke="#444444" stroke-dasharray="5,2" d="M2889.24,-1163.22C3048.39,-1081.74 3268.88,-968.84 3422.83,-890.01"/>
<polygon fill="#444444" stroke="#444444" points="3424.65,-893.02 3431.95,-885.34 3421.46,-886.79 3424.65,-893.02"/>
<polygon fill="white" stroke="transparent" points="3085,-1073 3085,-1159 3319,-1159 3319,-1073 3085,-1073"/>
<text text-anchor="start" x="3092" y="-1135.8" font-family="Arial" font-size="24.00" fill="#444444">Validates task status</text>
<text text-anchor="start" x="3092" y="-1109.8" font-family="Arial" font-size="24.00" fill="#444444">vocabulary and retry</text>
<text text-anchor="start" x="3089" y="-1083.8" font-family="Arial" font-size="24.00" fill="#444444">classification through</text>
</g>
<!-- 23&#45;&gt;36 -->
<g id="99" class="edge">
<title>23&#45;&gt;36</title>
<path fill="none" stroke="#444444" stroke-dasharray="5,2" d="M2889.35,-1399.02C2931.29,-1433.67 2972.33,-1473.61 3004,-1517 3030.62,-1553.47 3009.65,-1578.57 3040,-1612 3147.95,-1730.91 3262.45,-1647.58 3364,-1772 3403.81,-1820.77 3373.34,-1851.97 3400,-1909 3402.92,-1915.25 3405.98,-1921.51 3409.16,-1927.76"/>
<polygon fill="#444444" stroke="#444444" points="3406.2,-1929.65 3413.91,-1936.92 3412.41,-1926.43 3406.2,-1929.65"/>
<polygon fill="white" stroke="transparent" points="3065.5,-1772 3065.5,-1847 3338.5,-1847 3338.5,-1772 3065.5,-1772"/>
<text text-anchor="start" x="3091" y="-1824.3" font-family="Arial" font-size="24.00" fill="#444444">Creates, leases, and</text>
<text text-anchor="start" x="3070" y="-1800.3" font-family="Arial" font-size="24.00" fill="#444444">advances media tasks in</text>
<text text-anchor="start" x="3169" y="-1780.3" font-family="Arial" font-size="19.00" fill="#444444">[sqlite3]</text>
</g>
<!-- 24&#45;&gt;22 -->
<g id="100" class="edge">
<title>24&#45;&gt;22</title>
<path fill="none" stroke="#444444" stroke-dasharray="5,2" d="M1994.54,-1102.46C1998.31,-1096.78 2001.81,-1090.95 2005,-1085 2044.88,-1010.64 1978.57,-763.77 2041,-707 2141.13,-615.96 3031.2,-720.96 3421.94,-772.14"/>
<polygon fill="#444444" stroke="#444444" points="3421.56,-775.62 3431.93,-773.45 3422.47,-768.68 3421.56,-775.62"/>
<polygon fill="white" stroke="transparent" points="2580.5,-720 2580.5,-780 2794.5,-780 2794.5,-720 2580.5,-720"/>
<text text-anchor="start" x="2584.5" y="-756.8" font-family="Arial" font-size="24.00" fill="#444444">Uses artifact status</text>
<text text-anchor="start" x="2601" y="-730.8" font-family="Arial" font-size="24.00" fill="#444444">vocabulary from</text>
</g>
<!-- 24&#45;&gt;23 -->
<g id="101" class="edge">
<title>24&#45;&gt;23</title>
<path fill="none" stroke="#444444" stroke-dasharray="5,2" d="M2005.17,-1256.81C2146.78,-1258.72 2333.38,-1261.24 2475.49,-1263.15"/>
<polygon fill="#444444" stroke="#444444" points="2475.6,-1266.66 2485.65,-1263.29 2475.7,-1259.66 2475.6,-1266.66"/>
<polygon fill="white" stroke="transparent" points="2061,-1261 2061,-1373 2315,-1373 2315,-1261 2061,-1261"/>
<text text-anchor="start" x="2072.5" y="-1349.8" font-family="Arial" font-size="24.00" fill="#444444">Marks stored/skipped</text>
<text text-anchor="start" x="2065" y="-1323.8" font-family="Arial" font-size="24.00" fill="#444444">outcomes and ensures</text>
<text text-anchor="start" x="2082" y="-1297.8" font-family="Arial" font-size="24.00" fill="#444444">retryable fetch work</text>
<text text-anchor="start" x="2146.5" y="-1271.8" font-family="Arial" font-size="24.00" fill="#444444">through</text>
</g>
<!-- 24&#45;&gt;27 -->
<g id="103" class="edge">
<title>24&#45;&gt;27</title>
<path fill="none" stroke="#444444" stroke-dasharray="5,2" d="M2005.08,-1126.33C2110.64,-1069.08 2243.22,-1008.01 2371,-979 2645.35,-916.72 2739.45,-883.28 3004,-979 3190.8,-1046.59 3360.38,-1200.45 3471.32,-1319.77"/>
<polygon fill="#444444" stroke="#444444" points="3468.85,-1322.26 3478.21,-1327.22 3473.99,-1317.51 3468.85,-1322.26"/>
<polygon fill="white" stroke="transparent" points="2540.5,-979 2540.5,-1091 2834.5,-1091 2834.5,-979 2540.5,-979"/>
<text text-anchor="start" x="2544.5" y="-1067.8" font-family="Arial" font-size="24.00" fill="#444444">Stages unique candidates,</text>
<text text-anchor="start" x="2549" y="-1041.8" font-family="Arial" font-size="24.00" fill="#444444">resolves contained reads,</text>
<text text-anchor="start" x="2592.5" y="-1015.8" font-family="Arial" font-size="24.00" fill="#444444">and deletes failed</text>
<text text-anchor="start" x="2584" y="-989.8" font-family="Arial" font-size="24.00" fill="#444444">candidates through</text>
</g>
<!-- 28 -->
<g id="28" class="node">
<title>28</title>
<polygon fill="#85bbf0" stroke="#1168bd" points="3004,-1865.5 2371,-1865.5 2371,-1552.5 3004,-1552.5 3004,-1865.5"/>
<text text-anchor="start" x="2549" y="-1817.3" font-family="Arial" font-size="34.00" fill="#000000">Blob Lifecycle and</text>
<text text-anchor="start" x="2543" y="-1783.3" font-family="Arial" font-size="34.00" fill="#000000">Storage Reconciler</text>
<text text-anchor="start" x="2506" y="-1761.3" font-family="Arial" font-size="19.00" fill="#000000">[Component: Python + sqlite3 + filesystem]</text>
<text text-anchor="start" x="2644.5" y="-1724.3" font-family="Arial" font-size="24.00" fill="#000000">Persists</text>
<text text-anchor="start" x="2400" y="-1700.3" font-family="Arial" font-size="24.00" fill="#000000">committed/tombstoned/missing/deleted/blocked/failed</text>
<text text-anchor="start" x="2577.5" y="-1676.3" font-family="Arial" font-size="24.00" fill="#000000">blob state; serializes</text>
<text text-anchor="start" x="2541.5" y="-1652.3" font-family="Arial" font-size="24.00" fill="#000000">deletion processors; retries</text>
<text text-anchor="start" x="2555.5" y="-1628.3" font-family="Arial" font-size="24.00" fill="#000000">tombstones; and dry&#45;run</text>
<text text-anchor="start" x="2539" y="-1604.3" font-family="Arial" font-size="24.00" fill="#000000">detects missing refs, in&#45;root</text>
<text text-anchor="start" x="2545" y="-1580.3" font-family="Arial" font-size="24.00" fill="#000000">orphans, and stale stages.</text>
</g>
<!-- 24&#45;&gt;28 -->
<g id="104" class="edge">
<title>24&#45;&gt;28</title>
<path fill="none" stroke="#444444" stroke-dasharray="5,2" d="M2002.27,-1405.7C2003.2,-1407.12 2004.11,-1408.56 2005,-1410 2052.26,-1486.45 1976.65,-1546.25 2041,-1609 2065.73,-1633.11 2213.1,-1656.92 2360.8,-1675.26"/>
<polygon fill="#444444" stroke="#444444" points="2360.62,-1678.76 2370.97,-1676.51 2361.48,-1671.81 2360.62,-1678.76"/>
<polygon fill="white" stroke="transparent" points="2041,-1671 2041,-1783 2335,-1783 2335,-1671 2041,-1671"/>
<text text-anchor="start" x="2045" y="-1759.8" font-family="Arial" font-size="24.00" fill="#444444">Registers committed blobs</text>
<text text-anchor="start" x="2101.5" y="-1733.8" font-family="Arial" font-size="24.00" fill="#444444">and tombstones</text>
<text text-anchor="start" x="2046.5" y="-1707.8" font-family="Arial" font-size="24.00" fill="#444444">replacement, eviction, and</text>
<text text-anchor="start" x="2079.5" y="-1681.8" font-family="Arial" font-size="24.00" fill="#444444">purge bytes through</text>
</g>
<!-- 24&#45;&gt;36 -->
<g id="102" class="edge">
<title>24&#45;&gt;36</title>
<path fill="none" stroke="#444444" stroke-dasharray="5,2" d="M2002.46,-1405.59C2003.32,-1407.05 2004.17,-1408.52 2005,-1410 2047.61,-1486.15 1985.94,-1733.31 2041,-1801 2127.32,-1907.13 2992.99,-2082 3397.82,-2158.81"/>
<polygon fill="#444444" stroke="#444444" points="3397.41,-2162.29 3407.89,-2160.71 3398.71,-2155.41 3397.41,-2162.29"/>
<polygon fill="white" stroke="transparent" points="2530,-2077 2530,-2152 2845,-2152 2845,-2077 2530,-2077"/>
<text text-anchor="start" x="2534.5" y="-2129.3" font-family="Arial" font-size="24.00" fill="#444444">Counts and advances media</text>
<text text-anchor="start" x="2609.5" y="-2105.3" font-family="Arial" font-size="24.00" fill="#444444">artifact rows in</text>
<text text-anchor="start" x="2654.5" y="-2085.3" font-family="Arial" font-size="19.00" fill="#444444">[sqlite3]</text>
</g>
<!-- 26 -->
<g id="26" class="node">
<title>26</title>
<polygon fill="#85bbf0" stroke="#1168bd" points="2898.5,-519.5 2476.5,-519.5 2476.5,-264.5 2898.5,-264.5 2898.5,-519.5"/>
<text text-anchor="start" x="2505.5" y="-471.3" font-family="Arial" font-size="34.00" fill="#000000">Bounded HLS Transport</text>
<text text-anchor="start" x="2598.5" y="-449.3" font-family="Arial" font-size="19.00" fill="#000000">[Component: Python]</text>
<text text-anchor="start" x="2549.5" y="-412.3" font-family="Arial" font-size="24.00" fill="#000000">Parses bounded playlists,</text>
<text text-anchor="start" x="2532.5" y="-388.3" font-family="Arial" font-size="24.00" fill="#000000">selects variants, expands init</text>
<text text-anchor="start" x="2537" y="-364.3" font-family="Arial" font-size="24.00" fill="#000000">maps/segments through the</text>
<text text-anchor="start" x="2532.5" y="-340.3" font-family="Arial" font-size="24.00" fill="#000000">guarded fetch boundary, and</text>
<text text-anchor="start" x="2563" y="-316.3" font-family="Arial" font-size="24.00" fill="#000000">assembles bytes within</text>
<text text-anchor="start" x="2529.5" y="-292.3" font-family="Arial" font-size="24.00" fill="#000000">depth/request/deadline limits.</text>
</g>
<!-- 25&#45;&gt;26 -->
<g id="105" class="edge">
<title>25&#45;&gt;26</title>
<path fill="none" stroke="#444444" stroke-dasharray="5,2" d="M1943.65,-427.32C1974.03,-407.45 2007.15,-389.92 2041,-379 2177.45,-335 2338.7,-338.21 2465.9,-352.44"/>
<polygon fill="#444444" stroke="#444444" points="2465.82,-355.96 2476.15,-353.62 2466.62,-349 2465.82,-355.96"/>
<polygon fill="white" stroke="transparent" points="2052.5,-379 2052.5,-465 2323.5,-465 2323.5,-379 2052.5,-379"/>
<text text-anchor="start" x="2084" y="-441.8" font-family="Arial" font-size="24.00" fill="#444444">Delegates detected</text>
<text text-anchor="start" x="2077" y="-415.8" font-family="Arial" font-size="24.00" fill="#444444">playlists for bounded</text>
<text text-anchor="start" x="2057" y="-389.8" font-family="Arial" font-size="24.00" fill="#444444">parsing and assembly to</text>
</g>
<!-- 26&#45;&gt;25 -->
<g id="108" class="edge">
<title>26&#45;&gt;25</title>
<path fill="none" stroke="#444444" stroke-dasharray="5,2" d="M2476.32,-447.75C2429.97,-459 2380.98,-470.09 2335,-479 2228.81,-499.58 2109.81,-516.96 2010.74,-529.88"/>
<polygon fill="#444444" stroke="#444444" points="2010.07,-526.44 2000.61,-531.2 2010.98,-533.38 2010.07,-526.44"/>
<polygon fill="white" stroke="transparent" points="2064.5,-526 2064.5,-612 2311.5,-612 2311.5,-526 2064.5,-526"/>
<text text-anchor="start" x="2069" y="-588.8" font-family="Arial" font-size="24.00" fill="#444444">Fetches every variant,</text>
<text text-anchor="start" x="2069" y="-562.8" font-family="Arial" font-size="24.00" fill="#444444">init map, and segment</text>
<text text-anchor="start" x="2147" y="-536.8" font-family="Arial" font-size="24.00" fill="#444444">through</text>
</g>
<!-- 38 -->
<g id="38" class="node">
<title>38</title>
<path fill="#2f95c8" stroke="#20688c" d="M4717,-1438.22C4717,-1459.82 4595.09,-1477.38 4445,-1477.38 4294.91,-1477.38 4173,-1459.82 4173,-1438.22 4173,-1438.22 4173,-1085.78 4173,-1085.78 4173,-1064.18 4294.91,-1046.62 4445,-1046.62 4595.09,-1046.62 4717,-1064.18 4717,-1085.78 4717,-1085.78 4717,-1438.22 4717,-1438.22"/>
<path fill="none" stroke="#20688c" d="M4717,-1438.22C4717,-1416.61 4595.09,-1399.06 4445,-1399.06 4294.91,-1399.06 4173,-1416.61 4173,-1438.22"/>
<text text-anchor="start" x="4289.5" y="-1370.3" font-family="Arial" font-size="34.00" fill="#ffffff">Guarded Media Blob</text>
<text text-anchor="start" x="4395.5" y="-1336.3" font-family="Arial" font-size="34.00" fill="#ffffff">Cache</text>
<text text-anchor="start" x="4202" y="-1314.3" font-family="Arial" font-size="19.00" fill="#ffffff">[Container: WSL&#45;visible local or NAS&#45;mounted filesystem]</text>
<text text-anchor="start" x="4335" y="-1277.3" font-family="Arial" font-size="24.00" fill="#ffffff">Bounded disposable</text>
<text text-anchor="start" x="4279.5" y="-1253.3" font-family="Arial" font-size="24.00" fill="#ffffff">image/video/audio bytes under</text>
<text text-anchor="start" x="4303.5" y="-1229.3" font-family="Arial" font-size="24.00" fill="#ffffff">the configured media root;</text>
<text text-anchor="start" x="4331" y="-1205.3" font-family="Arial" font-size="24.00" fill="#ffffff">explicit external roots</text>
<text text-anchor="start" x="4346" y="-1181.3" font-family="Arial" font-size="24.00" fill="#ffffff">require mount and</text>
<text text-anchor="start" x="4295.5" y="-1157.3" font-family="Arial" font-size="24.00" fill="#ffffff">identity&#45;marker proof before</text>
<text text-anchor="start" x="4404" y="-1133.3" font-family="Arial" font-size="24.00" fill="#ffffff">access.</text>
</g>
<!-- 27&#45;&gt;38 -->
<g id="117" class="edge">
<title>27&#45;&gt;38</title>
<path fill="none" stroke="#444444" stroke-dasharray="5,2" d="M3811.11,-1425.99C3916.86,-1398.58 4047.54,-1364.72 4162.64,-1334.9"/>
<polygon fill="#444444" stroke="#444444" points="4163.87,-1338.2 4172.67,-1332.3 4162.11,-1331.42 4163.87,-1338.2"/>
<polygon fill="white" stroke="transparent" points="3856.5,-1414 3856.5,-1513 4127.5,-1513 4127.5,-1414 3856.5,-1414"/>
<text text-anchor="start" x="3862.5" y="-1490.3" font-family="Arial" font-size="24.00" fill="#444444">Stages, commits, reads,</text>
<text text-anchor="start" x="3861" y="-1466.3" font-family="Arial" font-size="24.00" fill="#444444">stats, and deletes media</text>
<text text-anchor="start" x="3950.5" y="-1442.3" font-family="Arial" font-size="24.00" fill="#444444">blobs in</text>
<text text-anchor="start" x="3941" y="-1422.3" font-family="Arial" font-size="19.00" fill="#444444">[Filesystem]</text>
</g>
<!-- 39 -->
<g id="39" class="node">
<title>39</title>
<path fill="#2f95c8" stroke="#20688c" d="M4638,-1970.72C4638,-1993.98 4551.49,-2012.88 4445,-2012.88 4338.51,-2012.88 4252,-1993.98 4252,-1970.72 4252,-1970.72 4252,-1591.28 4252,-1591.28 4252,-1568.02 4338.51,-1549.12 4445,-1549.12 4551.49,-1549.12 4638,-1568.02 4638,-1591.28 4638,-1591.28 4638,-1970.72 4638,-1970.72"/>
<path fill="none" stroke="#20688c" d="M4638,-1970.72C4638,-1947.45 4551.49,-1928.56 4445,-1928.56 4338.51,-1928.56 4252,-1947.45 4252,-1970.72"/>
<text text-anchor="start" x="4281" y="-1901.3" font-family="Arial" font-size="34.00" fill="#ffffff">Bounded Local Media</text>
<text text-anchor="start" x="4401.5" y="-1867.3" font-family="Arial" font-size="34.00" fill="#ffffff">Spool</text>
<text text-anchor="start" x="4305" y="-1845.3" font-family="Arial" font-size="19.00" fill="#ffffff">[Container: WSL local filesystem]</text>
<text text-anchor="start" x="4293" y="-1808.3" font-family="Arial" font-size="24.00" fill="#ffffff">Opt&#45;in durable outage buffer</text>
<text text-anchor="start" x="4296.5" y="-1784.3" font-family="Arial" font-size="24.00" fill="#ffffff">beneath the local WSL data</text>
<text text-anchor="start" x="4323.5" y="-1760.3" font-family="Arial" font-size="24.00" fill="#ffffff">root; admission counts</text>
<text text-anchor="start" x="4299.5" y="-1736.3" font-family="Arial" font-size="24.00" fill="#ffffff">committed files and distinct</text>
<text text-anchor="start" x="4293" y="-1712.3" font-family="Arial" font-size="24.00" fill="#ffffff">in&#45;flight SQLite reservations,</text>
<text text-anchor="start" x="4320" y="-1688.3" font-family="Arial" font-size="24.00" fill="#ffffff">and drain verifies bytes</text>
<text text-anchor="start" x="4297.5" y="-1664.3" font-family="Arial" font-size="24.00" fill="#ffffff">before tier transition/source</text>
<text text-anchor="start" x="4399" y="-1640.3" font-family="Arial" font-size="24.00" fill="#ffffff">cleanup.</text>
</g>
<!-- 27&#45;&gt;39 -->
<g id="118" class="edge">
<title>27&#45;&gt;39</title>
<path fill="none" stroke="#444444" stroke-dasharray="5,2" d="M3811.11,-1552.78C3942.2,-1600.05 4111.61,-1661.14 4242.16,-1708.22"/>
<polygon fill="#444444" stroke="#444444" points="4241.3,-1711.63 4251.89,-1711.73 4243.67,-1705.04 4241.3,-1711.63"/>
<polygon fill="white" stroke="transparent" points="3847,-1665 3847,-1764 4137,-1764 4137,-1665 3847,-1665"/>
<text text-anchor="start" x="3862" y="-1741.3" font-family="Arial" font-size="24.00" fill="#444444">Stages, commits, reads,</text>
<text text-anchor="start" x="3851" y="-1717.3" font-family="Arial" font-size="24.00" fill="#444444">stats, and deletes spooled</text>
<text text-anchor="start" x="3946" y="-1693.3" font-family="Arial" font-size="24.00" fill="#444444">media in</text>
<text text-anchor="start" x="3940.5" y="-1673.3" font-family="Arial" font-size="19.00" fill="#444444">[Filesystem]</text>
</g>
<!-- 28&#45;&gt;27 -->
<g id="115" class="edge">
<title>28&#45;&gt;27</title>
<path fill="none" stroke="#444444" stroke-dasharray="5,2" d="M2927.04,-1552.47C2963.64,-1534.47 3001.95,-1518.74 3040,-1508 3074.66,-1498.21 3328.04,-1499.97 3364,-1498 3372.42,-1497.54 3381,-1497.03 3389.66,-1496.49"/>
<polygon fill="#444444" stroke="#444444" points="3390.11,-1499.97 3399.87,-1495.84 3389.66,-1492.98 3390.11,-1499.97"/>
<polygon fill="white" stroke="transparent" points="3075.5,-1508 3075.5,-1594 3328.5,-1594 3328.5,-1508 3075.5,-1508"/>
<text text-anchor="start" x="3080" y="-1570.8" font-family="Arial" font-size="24.00" fill="#444444">Resolves, deletes, and</text>
<text text-anchor="start" x="3088" y="-1544.8" font-family="Arial" font-size="24.00" fill="#444444">inventories contained</text>
<text text-anchor="start" x="3128.5" y="-1518.8" font-family="Arial" font-size="24.00" fill="#444444">bytes through</text>
</g>
<!-- 28&#45;&gt;36 -->
<g id="114" class="edge">
<title>28&#45;&gt;36</title>
<path fill="none" stroke="#444444" stroke-dasharray="5,2" d="M3004.44,-1852.79C3016.38,-1857.08 3028.26,-1861.17 3040,-1865 3180.06,-1910.68 3236.19,-1861.74 3364,-1935 3376.07,-1941.92 3387.88,-1949.65 3399.38,-1957.99"/>
<polygon fill="#444444" stroke="#444444" points="3397.58,-1961.02 3407.69,-1964.18 3401.76,-1955.4 3397.58,-1961.02"/>
<polygon fill="white" stroke="transparent" points="3040,-1935 3040,-2010 3364,-2010 3364,-1935 3040,-1935"/>
<text text-anchor="start" x="3044" y="-1987.3" font-family="Arial" font-size="24.00" fill="#444444">Reads and advances durable</text>
<text text-anchor="start" x="3076" y="-1963.3" font-family="Arial" font-size="24.00" fill="#444444">blob lifecycle records in</text>
<text text-anchor="start" x="3168.5" y="-1943.3" font-family="Arial" font-size="19.00" fill="#444444">[sqlite3]</text>
</g>
</g>
</svg>
