<?xml version="1.0" encoding="UTF-8" standalone="no"?>
<!DOCTYPE svg PUBLIC "-//W3C//DTD SVG 1.1//EN"
 "http://www.w3.org/Graphics/SVG/1.1/DTD/svg11.dtd">
<!-- Generated by graphviz version 2.43.0 (0)
 -->
<!-- Title: %3 Pages: 1 -->
<svg width="3797pt" height="2115pt"
 viewBox="0.00 0.00 3796.50 2114.50" xmlns="http://www.w3.org/2000/svg" xmlns:xlink="http://www.w3.org/1999/xlink">
<g id="graph0" class="graph" transform="scale(1 1) rotate(0) translate(4 2110.5)">
<title>%3</title>
<polygon fill="white" stroke="transparent" points="-4,4 -4,-2110.5 3792.5,-2110.5 3792.5,4 -4,4"/>
<text text-anchor="start" x="1362.75" y="-11.8" font-family="Arial" font-size="34.00">Component View: Browser Memory Daemon &#45; Chrome MV3 Extension</text>
<g id="clust1" class="cluster">
<title>cluster_4</title>
<polygon fill="none" stroke="#444444" points="8,-312.5 8,-2098.5 3780.5,-2098.5 3780.5,-312.5 8,-312.5"/>
<text text-anchor="start" x="1753.25" y="-341.3" font-family="Arial" font-size="24.00" fill="#444444">Browser Memory Daemon</text>
<text text-anchor="start" x="1817.25" y="-321.3" font-family="Arial" font-size="19.00" fill="#444444">[Software System]</text>
</g>
<g id="clust2" class="cluster">
<title>cluster_5</title>
<polygon fill="none" stroke="#444444" points="33,-412.5 33,-1344.5 2934.5,-1344.5 2934.5,-412.5 33,-412.5"/>
<text text-anchor="start" x="1355.75" y="-441.3" font-family="Arial" font-size="24.00" fill="#444444">Chrome MV3 Extension</text>
<text text-anchor="start" x="1295.75" y="-421.3" font-family="Arial" font-size="19.00" fill="#444444">[Container: JavaScript, Chrome Manifest V3]</text>
</g>
<!-- 2 -->
<g id="2" class="node">
<title>2</title>
<polygon fill="#999999" stroke="#6b6b6b" points="443.5,-287 57.5,-287 57.5,-56 443.5,-56 443.5,-287"/>
<text text-anchor="start" x="116" y="-238.8" font-family="Arial" font-size="34.00" fill="#ffffff">Windows Chrome</text>
<text text-anchor="start" x="173.5" y="-216.8" font-family="Arial" font-size="19.00" fill="#ffffff">[Software System]</text>
<text text-anchor="start" x="86.5" y="-179.8" font-family="Arial" font-size="24.00" fill="#ffffff">The Windows Chrome runtime</text>
<text text-anchor="start" x="100" y="-155.8" font-family="Arial" font-size="24.00" fill="#ffffff">that loads web pages, hosts</text>
<text text-anchor="start" x="99.5" y="-131.8" font-family="Arial" font-size="24.00" fill="#ffffff">the MV3 extension, runs the</text>
<text text-anchor="start" x="91.5" y="-107.8" font-family="Arial" font-size="24.00" fill="#ffffff">local UI in a tab, and exposes</text>
<text text-anchor="start" x="121" y="-83.8" font-family="Arial" font-size="24.00" fill="#ffffff">Chrome extension APIs.</text>
</g>
<!-- 10 -->
<g id="10" class="node">
<title>10</title>
<polygon fill="#85bbf0" stroke="#1168bd" points="2069,-1319 1605,-1319 1605,-1078 2069,-1078 2069,-1319"/>
<text text-anchor="start" x="1708" y="-1270.8" font-family="Arial" font-size="34.00" fill="#000000">Extension Config</text>
<text text-anchor="start" x="1796" y="-1236.8" font-family="Arial" font-size="34.00" fill="#000000">Store</text>
<text text-anchor="start" x="1634" y="-1214.8" font-family="Arial" font-size="19.00" fill="#000000">[Component: JavaScript + chrome.storage.local]</text>
<text text-anchor="start" x="1700" y="-1177.8" font-family="Arial" font-size="24.00" fill="#000000">Owns typed configuration</text>
<text text-anchor="start" x="1715.5" y="-1153.8" font-family="Arial" font-size="24.00" fill="#000000">defaults/migration plus</text>
<text text-anchor="start" x="1675" y="-1129.8" font-family="Arial" font-size="24.00" fill="#000000">durable visit and minimal CDP</text>
<text text-anchor="start" x="1716.5" y="-1105.8" font-family="Arial" font-size="24.00" fill="#000000">capture&#45;context maps.</text>
</g>
<!-- 21 -->
<g id="21" class="node">
<title>21</title>
<path fill="#2f95c8" stroke="#20688c" d="M3755.5,-1469.72C3755.5,-1497.94 3653.98,-1520.88 3529,-1520.88 3404.02,-1520.88 3302.5,-1497.94 3302.5,-1469.72 3302.5,-1469.72 3302.5,-1009.28 3302.5,-1009.28 3302.5,-981.06 3404.02,-958.12 3529,-958.12 3653.98,-958.12 3755.5,-981.06 3755.5,-1009.28 3755.5,-1009.28 3755.5,-1469.72 3755.5,-1469.72"/>
<path fill="none" stroke="#20688c" d="M3755.5,-1469.72C3755.5,-1441.49 3653.98,-1418.56 3529,-1418.56 3404.02,-1418.56 3302.5,-1441.49 3302.5,-1469.72"/>
<text text-anchor="start" x="3387" y="-1395.8" font-family="Arial" font-size="34.00" fill="#ffffff">Extension Browser</text>
<text text-anchor="start" x="3469.5" y="-1361.8" font-family="Arial" font-size="34.00" fill="#ffffff">Storage</text>
<text text-anchor="start" x="3331.5" y="-1339.8" font-family="Arial" font-size="19.00" fill="#ffffff">[Container: chrome.storage.local + IndexedDB]</text>
<text text-anchor="start" x="3351.5" y="-1302.8" font-family="Arial" font-size="24.00" fill="#ffffff">Browser&#45;side IndexedDB storage</text>
<text text-anchor="start" x="3442.5" y="-1278.8" font-family="Arial" font-size="24.00" fill="#ffffff">for transactional</text>
<text text-anchor="start" x="3373.5" y="-1254.8" font-family="Arial" font-size="24.00" fill="#ffffff">capture/lifecycle outbox rows</text>
<text text-anchor="start" x="3363.5" y="-1230.8" font-family="Arial" font-size="24.00" fill="#ffffff">plus specialized durable media</text>
<text text-anchor="start" x="3465" y="-1206.8" font-family="Arial" font-size="24.00" fill="#ffffff">tasks/blobs;</text>
<text text-anchor="start" x="3376.5" y="-1182.8" font-family="Arial" font-size="24.00" fill="#ffffff">chrome.storage.local retains</text>
<text text-anchor="start" x="3377" y="-1158.8" font-family="Arial" font-size="24.00" fill="#ffffff">typed configuration, lifecycle</text>
<text text-anchor="start" x="3361.5" y="-1134.8" font-family="Arial" font-size="24.00" fill="#ffffff">tab state, minimal CDP capture</text>
<text text-anchor="start" x="3372.5" y="-1110.8" font-family="Arial" font-size="24.00" fill="#ffffff">context, aggregate telemetry,</text>
<text text-anchor="start" x="3360.5" y="-1086.8" font-family="Arial" font-size="24.00" fill="#ffffff">and one&#45;version queue fallback</text>
<text text-anchor="start" x="3504" y="-1062.8" font-family="Arial" font-size="24.00" fill="#ffffff">only.</text>
</g>
<!-- 10&#45;&gt;21 -->
<g id="87" class="edge">
<title>10&#45;&gt;21</title>
<path fill="none" stroke="#444444" stroke-dasharray="5,2" d="M1891.9,-1319.26C1940.25,-1418.1 2018.47,-1557.31 2115.5,-1656.5 2237.07,-1780.77 2278.59,-1817.89 2445.5,-1866.5 2654.17,-1927.26 2734.87,-1952.42 2934.5,-1866.5 3101.55,-1794.6 3243.57,-1650.01 3346.77,-1517.78"/>
<polygon fill="#444444" stroke="#444444" points="3349.83,-1519.54 3353.2,-1509.49 3344.3,-1515.25 3349.83,-1519.54"/>
<polygon fill="white" stroke="transparent" points="2540.5,-1921.5 2540.5,-2020.5 2814.5,-2020.5 2814.5,-1921.5 2540.5,-1921.5"/>
<text text-anchor="start" x="2551" y="-1997.8" font-family="Arial" font-size="24.00" fill="#444444">Reads and writes typed</text>
<text text-anchor="start" x="2544.5" y="-1973.8" font-family="Arial" font-size="24.00" fill="#444444">settings and restart state</text>
<text text-anchor="start" x="2668" y="-1949.8" font-family="Arial" font-size="24.00" fill="#444444">in</text>
<text text-anchor="start" x="2584" y="-1929.8" font-family="Arial" font-size="19.00" fill="#444444">[chrome.storage.local]</text>
</g>
<!-- 13 -->
<g id="13" class="node">
<title>13</title>
<polygon fill="#85bbf0" stroke="#1168bd" points="2079.5,-1006 1594.5,-1006 1594.5,-717 2079.5,-717 2079.5,-1006"/>
<text text-anchor="start" x="1672" y="-957.8" font-family="Arial" font-size="34.00" fill="#000000">Capture and Lifecycle</text>
<text text-anchor="start" x="1788" y="-923.8" font-family="Arial" font-size="34.00" fill="#000000">Bridge</text>
<text text-anchor="start" x="1733" y="-901.8" font-family="Arial" font-size="19.00" fill="#000000">[Component: JavaScript]</text>
<text text-anchor="start" x="1711" y="-864.8" font-family="Arial" font-size="24.00" fill="#000000">Owns daemon delivery,</text>
<text text-anchor="start" x="1728.5" y="-840.8" font-family="Arial" font-size="24.00" fill="#000000">transactional outbox</text>
<text text-anchor="start" x="1623.5" y="-816.8" font-family="Arial" font-size="24.00" fill="#000000">import/admission/drain/checkpoint/retry,</text>
<text text-anchor="start" x="1718" y="-792.8" font-family="Arial" font-size="24.00" fill="#000000">legacy fallback, media</text>
<text text-anchor="start" x="1697" y="-768.8" font-family="Arial" font-size="24.00" fill="#000000">compensation, and queue</text>
<text text-anchor="start" x="1801" y="-744.8" font-family="Arial" font-size="24.00" fill="#000000">status.</text>
</g>
<!-- 15 -->
<g id="15" class="node">
<title>15</title>
<polygon fill="#85bbf0" stroke="#1168bd" points="2909.5,-744 2445.5,-744 2445.5,-513 2909.5,-513 2909.5,-744"/>
<text text-anchor="start" x="2524" y="-695.8" font-family="Arial" font-size="34.00" fill="#000000">Extension Telemetry</text>
<text text-anchor="start" x="2474.5" y="-673.8" font-family="Arial" font-size="19.00" fill="#000000">[Component: JavaScript + chrome.storage.local]</text>
<text text-anchor="start" x="2576.5" y="-636.8" font-family="Arial" font-size="24.00" fill="#000000">Persists aggregate</text>
<text text-anchor="start" x="2514.5" y="-612.8" font-family="Arial" font-size="24.00" fill="#000000">bridge/queue/CDP status after</text>
<text text-anchor="start" x="2515.5" y="-588.8" font-family="Arial" font-size="24.00" fill="#000000">recursively removing captured</text>
<text text-anchor="start" x="2572" y="-564.8" font-family="Arial" font-size="24.00" fill="#000000">fields and redacting</text>
<text text-anchor="start" x="2570.5" y="-540.8" font-family="Arial" font-size="24.00" fill="#000000">URL&#45;shaped errors.</text>
</g>
<!-- 13&#45;&gt;15 -->
<g id="97" class="edge">
<title>13&#45;&gt;15</title>
<path fill="none" stroke="#444444" stroke-dasharray="5,2" d="M2079.69,-794.34C2191.45,-763.29 2323.85,-726.49 2435.53,-695.46"/>
<polygon fill="#444444" stroke="#444444" points="2436.54,-698.81 2445.24,-692.76 2434.67,-692.07 2436.54,-698.81"/>
<polygon fill="white" stroke="transparent" points="2115.5,-778.5 2115.5,-838.5 2409.5,-838.5 2409.5,-778.5 2115.5,-778.5"/>
<text text-anchor="start" x="2119.5" y="-815.3" font-family="Arial" font-size="24.00" fill="#444444">Records aggregate outbox</text>
<text text-anchor="start" x="2185.5" y="-789.3" font-family="Arial" font-size="24.00" fill="#444444">status through</text>
</g>
<!-- 16 -->
<g id="16" class="node">
<title>16</title>
<polygon fill="#85bbf0" stroke="#1168bd" points="2899,-1177 2456,-1177 2456,-816 2899,-816 2899,-1177"/>
<text text-anchor="start" x="2512.5" y="-1128.8" font-family="Arial" font-size="34.00" fill="#000000">Capture and Lifecycle</text>
<text text-anchor="start" x="2622.5" y="-1094.8" font-family="Arial" font-size="34.00" fill="#000000">Outbox</text>
<text text-anchor="start" x="2515.5" y="-1072.8" font-family="Arial" font-size="19.00" fill="#000000">[Component: JavaScript + IndexedDB]</text>
<text text-anchor="start" x="2521" y="-1035.8" font-family="Arial" font-size="24.00" fill="#000000">Persists capture and lifecycle</text>
<text text-anchor="start" x="2527" y="-1011.8" font-family="Arial" font-size="24.00" fill="#000000">messages as independently</text>
<text text-anchor="start" x="2501.5" y="-987.8" font-family="Arial" font-size="24.00" fill="#000000">sequenced IndexedDB rows with</text>
<text text-anchor="start" x="2641.5" y="-963.8" font-family="Arial" font-size="24.00" fill="#000000">atomic</text>
<text text-anchor="start" x="2485" y="-939.8" font-family="Arial" font-size="24.00" fill="#000000">enqueue/claim/checkpoint/ack/retry,</text>
<text text-anchor="start" x="2528.5" y="-915.8" font-family="Arial" font-size="24.00" fill="#000000">stale&#45;claim recovery, legacy</text>
<text text-anchor="start" x="2519" y="-891.8" font-family="Arial" font-size="24.00" fill="#000000">queue import, item admission</text>
<text text-anchor="start" x="2541.5" y="-867.8" font-family="Arial" font-size="24.00" fill="#000000">limits, and serialized&#45;byte</text>
<text text-anchor="start" x="2615.5" y="-843.8" font-family="Arial" font-size="24.00" fill="#000000">accounting.</text>
</g>
<!-- 13&#45;&gt;16 -->
<g id="93" class="edge">
<title>13&#45;&gt;16</title>
<path fill="none" stroke="#444444" stroke-dasharray="5,2" d="M2079.59,-882.65C2181.83,-893.45 2301.94,-908.59 2409.5,-928.5 2421.47,-930.72 2433.7,-933.16 2446.01,-935.77"/>
<polygon fill="#444444" stroke="#444444" points="2445.39,-939.22 2455.91,-937.9 2446.87,-932.38 2445.39,-939.22"/>
<polygon fill="white" stroke="transparent" points="2121.5,-928.5 2121.5,-1040.5 2403.5,-1040.5 2403.5,-928.5 2121.5,-928.5"/>
<text text-anchor="start" x="2164.5" y="-1017.3" font-family="Arial" font-size="24.00" fill="#444444">Enqueues, drains,</text>
<text text-anchor="start" x="2131" y="-991.3" font-family="Arial" font-size="24.00" fill="#444444">checkpoints, retries, and</text>
<text text-anchor="start" x="2125.5" y="-965.3" font-family="Arial" font-size="24.00" fill="#444444">recovers capture/lifecycle</text>
<text text-anchor="start" x="2192" y="-939.3" font-family="Arial" font-size="24.00" fill="#444444">work through</text>
</g>
<!-- 13&#45;&gt;21 -->
<g id="94" class="edge">
<title>13&#45;&gt;21</title>
<path fill="none" stroke="#444444" stroke-dasharray="5,2" d="M2031.84,-1006.05C2146.02,-1082.66 2296.84,-1169.76 2445.5,-1213.5 2796.71,-1316.84 2901.5,-1308.94 3266.5,-1280.5 3274.9,-1279.85 3283.43,-1279.07 3292.04,-1278.21"/>
<polygon fill="#444444" stroke="#444444" points="3292.6,-1281.67 3302.18,-1277.15 3291.87,-1274.71 3292.6,-1281.67"/>
<polygon fill="white" stroke="transparent" points="2528.5,-1298.5 2528.5,-1397.5 2826.5,-1397.5 2826.5,-1298.5 2528.5,-1298.5"/>
<text text-anchor="start" x="2536" y="-1374.8" font-family="Arial" font-size="24.00" fill="#444444">Imports and preserves the</text>
<text text-anchor="start" x="2532.5" y="-1350.8" font-family="Arial" font-size="24.00" fill="#444444">one&#45;version queue fallback</text>
<text text-anchor="start" x="2668" y="-1326.8" font-family="Arial" font-size="24.00" fill="#444444">in</text>
<text text-anchor="start" x="2584" y="-1306.8" font-family="Arial" font-size="19.00" fill="#444444">[chrome.storage.local]</text>
</g>
<!-- 22 -->
<g id="22" class="node">
<title>22</title>
<polygon fill="#438dd5" stroke="#2e6295" points="2908.5,-1830 2446.5,-1830 2446.5,-1493 2908.5,-1493 2908.5,-1830"/>
<text text-anchor="start" x="2513" y="-1781.8" font-family="Arial" font-size="34.00" fill="#ffffff">WSL Loopback HTTP</text>
<text text-anchor="start" x="2613" y="-1747.8" font-family="Arial" font-size="34.00" fill="#ffffff">Daemon</text>
<text text-anchor="start" x="2475.5" y="-1725.8" font-family="Arial" font-size="19.00" fill="#ffffff">[Container: Python 3.11, ThreadingHTTPServer]</text>
<text text-anchor="start" x="2516.5" y="-1688.8" font-family="Arial" font-size="24.00" fill="#ffffff">Authenticated loopback HTTP</text>
<text text-anchor="start" x="2541.5" y="-1664.8" font-family="Arial" font-size="24.00" fill="#ffffff">API that handles capture,</text>
<text text-anchor="start" x="2538" y="-1640.8" font-family="Arial" font-size="24.00" fill="#ffffff">visit events, media artifact</text>
<text text-anchor="start" x="2541" y="-1616.8" font-family="Arial" font-size="24.00" fill="#ffffff">upload/fetch/purge, exact</text>
<text text-anchor="start" x="2637.5" y="-1592.8" font-family="Arial" font-size="24.00" fill="#ffffff">search,</text>
<text text-anchor="start" x="2528.5" y="-1568.8" font-family="Arial" font-size="24.00" fill="#ffffff">recent/timeline/detail, policy</text>
<text text-anchor="start" x="2526" y="-1544.8" font-family="Arial" font-size="24.00" fill="#ffffff">rules, doctor, durable forget,</text>
<text text-anchor="start" x="2564.5" y="-1520.8" font-family="Arial" font-size="24.00" fill="#ffffff">and static UI serving.</text>
</g>
<!-- 13&#45;&gt;22 -->
<g id="96" class="edge">
<title>13&#45;&gt;22</title>
<path fill="none" stroke="#444444" stroke-dasharray="5,2" d="M2054,-1006.25C2063.54,-1017.71 2072.16,-1029.8 2079.5,-1042.5 2146.24,-1158.01 2041.76,-1229.32 2115.5,-1340.5 2190.84,-1454.08 2320.97,-1532.14 2436.95,-1582.82"/>
<polygon fill="#444444" stroke="#444444" points="2435.77,-1586.13 2446.34,-1586.88 2438.54,-1579.7 2435.77,-1586.13"/>
<polygon fill="white" stroke="transparent" points="2144,-1563.5 2144,-1638.5 2381,-1638.5 2381,-1563.5 2144,-1563.5"/>
<text text-anchor="start" x="2148.5" y="-1615.8" font-family="Arial" font-size="24.00" fill="#444444">Delivers /capture and</text>
<text text-anchor="start" x="2185.5" y="-1591.8" font-family="Arial" font-size="24.00" fill="#444444">/visit&#45;events to</text>
<text text-anchor="start" x="2174" y="-1571.8" font-family="Arial" font-size="19.00" fill="#444444">[Bearer HTTP/JSON]</text>
</g>
<!-- 15&#45;&gt;21 -->
<g id="104" class="edge">
<title>15&#45;&gt;21</title>
<path fill="none" stroke="#444444" stroke-dasharray="5,2" d="M2873.59,-744.1C2894.17,-756.36 2914.77,-768.67 2934.5,-780.5 3082.44,-869.2 3130.4,-875.53 3266.5,-981.5 3275.84,-988.77 3285.19,-996.34 3294.52,-1004.13"/>
<polygon fill="#444444" stroke="#444444" points="3292.44,-1006.96 3302.35,-1010.73 3296.95,-1001.61 3292.44,-1006.96"/>
<polygon fill="white" stroke="transparent" points="2998.5,-981.5 2998.5,-1056.5 3213.5,-1056.5 3213.5,-981.5 2998.5,-981.5"/>
<text text-anchor="start" x="3012.5" y="-1033.8" font-family="Arial" font-size="24.00" fill="#444444">Persists sanitized</text>
<text text-anchor="start" x="3003" y="-1009.8" font-family="Arial" font-size="24.00" fill="#444444">aggregate status in</text>
<text text-anchor="start" x="3013" y="-989.8" font-family="Arial" font-size="19.00" fill="#444444">[chrome.storage.local]</text>
</g>
<!-- 16&#45;&gt;21 -->
<g id="98" class="edge">
<title>16&#45;&gt;21</title>
<path fill="none" stroke="#444444" stroke-dasharray="5,2" d="M2899.2,-1059.63C3019.94,-1094.17 3169.53,-1136.96 3292.51,-1172.14"/>
<polygon fill="#444444" stroke="#444444" points="3291.87,-1175.59 3302.44,-1174.98 3293.79,-1168.86 3291.87,-1175.59"/>
<polygon fill="white" stroke="transparent" points="2945.5,-1163.5 2945.5,-1262.5 3266.5,-1262.5 3266.5,-1163.5 2945.5,-1163.5"/>
<text text-anchor="start" x="2950" y="-1239.8" font-family="Arial" font-size="24.00" fill="#444444">Reads and writes sequenced</text>
<text text-anchor="start" x="2967" y="-1215.8" font-family="Arial" font-size="24.00" fill="#444444">capture/lifecycle rows and</text>
<text text-anchor="start" x="2989.5" y="-1191.8" font-family="Arial" font-size="24.00" fill="#444444">migration metadata in</text>
<text text-anchor="start" x="3054" y="-1171.8" font-family="Arial" font-size="19.00" fill="#444444">[IndexedDB]</text>
</g>
<!-- 8 -->
<g id="8" class="node">
<title>8</title>
<polygon fill="#85bbf0" stroke="#1168bd" points="443,-1013 58,-1013 58,-710 443,-710 443,-1013"/>
<text text-anchor="start" x="142" y="-964.8" font-family="Arial" font-size="34.00" fill="#000000">Content Script</text>
<text text-anchor="start" x="87" y="-942.8" font-family="Arial" font-size="19.00" fill="#000000">[Component: JavaScript content script]</text>
<text text-anchor="start" x="110.5" y="-905.8" font-family="Arial" font-size="24.00" fill="#000000">Schedules initial, delayed,</text>
<text text-anchor="start" x="91.5" y="-881.8" font-family="Arial" font-size="24.00" fill="#000000">reinjected, and SPA captures;</text>
<text text-anchor="start" x="107.5" y="-857.8" font-family="Arial" font-size="24.00" fill="#000000">computes full deterministic</text>
<text text-anchor="start" x="112.5" y="-833.8" font-family="Arial" font-size="24.00" fill="#000000">SHA&#45;256 capture digests;</text>
<text text-anchor="start" x="124" y="-809.8" font-family="Arial" font-size="24.00" fill="#000000">tracks scroll; and sends</text>
<text text-anchor="start" x="88.5" y="-785.8" font-family="Arial" font-size="24.00" fill="#000000">capture and inline blob upload</text>
<text text-anchor="start" x="119.5" y="-761.8" font-family="Arial" font-size="24.00" fill="#000000">messages to the service</text>
<text text-anchor="start" x="211" y="-737.8" font-family="Arial" font-size="24.00" fill="#000000">worker.</text>
</g>
<!-- 9 -->
<g id="9" class="node">
<title>9</title>
<polygon fill="#85bbf0" stroke="#1168bd" points="1240.5,-977 802.5,-977 802.5,-746 1240.5,-746 1240.5,-977"/>
<text text-anchor="start" x="905.5" y="-928.8" font-family="Arial" font-size="34.00" fill="#000000">Service Worker</text>
<text text-anchor="start" x="831.5" y="-906.8" font-family="Arial" font-size="19.00" fill="#000000">[Component: JavaScript MV3 service worker]</text>
<text text-anchor="start" x="835.5" y="-869.8" font-family="Arial" font-size="24.00" fill="#000000">Composes extension modules and</text>
<text text-anchor="start" x="867" y="-845.8" font-family="Arial" font-size="24.00" fill="#000000">registers MV3 message, tab,</text>
<text text-anchor="start" x="884" y="-821.8" font-family="Arial" font-size="24.00" fill="#000000">window, debugger, alarm,</text>
<text text-anchor="start" x="896.5" y="-797.8" font-family="Arial" font-size="24.00" fill="#000000">startup, and installation</text>
<text text-anchor="start" x="973" y="-773.8" font-family="Arial" font-size="24.00" fill="#000000">listeners.</text>
</g>
<!-- 8&#45;&gt;9 -->
<g id="83" class="edge">
<title>8&#45;&gt;9</title>
<path fill="none" stroke="#444444" stroke-dasharray="5,2" d="M443.07,-861.5C548.97,-861.5 681.23,-861.5 792.44,-861.5"/>
<polygon fill="#444444" stroke="#444444" points="792.45,-865 802.45,-861.5 792.45,-858 792.45,-865"/>
<polygon fill="white" stroke="transparent" points="479.5,-861.5 479.5,-936.5 766.5,-936.5 766.5,-861.5 479.5,-861.5"/>
<text text-anchor="start" x="484" y="-913.8" font-family="Arial" font-size="24.00" fill="#444444">Sends captures and inline</text>
<text text-anchor="start" x="581" y="-889.8" font-family="Arial" font-size="24.00" fill="#444444">blobs to</text>
<text text-anchor="start" x="490.5" y="-869.8" font-family="Arial" font-size="19.00" fill="#444444">[chrome.runtime.sendMessage]</text>
</g>
<!-- 9&#45;&gt;10 -->
<g id="84" class="edge">
<title>9&#45;&gt;10</title>
<path fill="none" stroke="#444444" stroke-dasharray="5,2" d="M1240.5,-951.81C1350.03,-997.18 1483.01,-1052.27 1595.5,-1098.87"/>
<polygon fill="#444444" stroke="#444444" points="1594.36,-1102.19 1604.93,-1102.78 1597.04,-1095.72 1594.36,-1102.19"/>
<polygon fill="white" stroke="transparent" points="1276.5,-1079.5 1276.5,-1165.5 1558.5,-1165.5 1558.5,-1079.5 1276.5,-1079.5"/>
<text text-anchor="start" x="1280.5" y="-1142.3" font-family="Arial" font-size="24.00" fill="#444444">Reads typed settings and</text>
<text text-anchor="start" x="1309" y="-1116.3" font-family="Arial" font-size="24.00" fill="#444444">durable restart state</text>
<text text-anchor="start" x="1376" y="-1090.3" font-family="Arial" font-size="24.00" fill="#444444">through</text>
</g>
<!-- 9&#45;&gt;13 -->
<g id="90" class="edge">
<title>9&#45;&gt;13</title>
<path fill="none" stroke="#444444" stroke-dasharray="5,2" d="M1240.5,-861.5C1346.39,-861.5 1474.2,-861.5 1584.22,-861.5"/>
<polygon fill="#444444" stroke="#444444" points="1584.47,-865 1594.47,-861.5 1584.47,-858 1584.47,-865"/>
<polygon fill="white" stroke="transparent" points="1281.5,-861.5 1281.5,-947.5 1553.5,-947.5 1553.5,-861.5 1281.5,-861.5"/>
<text text-anchor="start" x="1363" y="-924.3" font-family="Arial" font-size="24.00" fill="#444444">Delegates</text>
<text text-anchor="start" x="1285.5" y="-898.3" font-family="Arial" font-size="24.00" fill="#444444">capture/lifecycle delivery</text>
<text text-anchor="start" x="1303" y="-872.3" font-family="Arial" font-size="24.00" fill="#444444">and durable drains to</text>
</g>
<!-- 9&#45;&gt;15 -->
<g id="92" class="edge">
<title>9&#45;&gt;15</title>
<path fill="none" stroke="#444444" stroke-dasharray="5,2" d="M1240.41,-746C1344.5,-697.18 1472.69,-646.02 1594.5,-621.5 1879.02,-564.23 2214.22,-578.64 2435.29,-599.06"/>
<polygon fill="#444444" stroke="#444444" points="2435.12,-602.56 2445.4,-600.01 2435.77,-595.59 2435.12,-602.56"/>
<polygon fill="white" stroke="transparent" points="1684,-621.5 1684,-681.5 1990,-681.5 1990,-621.5 1684,-621.5"/>
<text text-anchor="start" x="1694" y="-658.3" font-family="Arial" font-size="24.00" fill="#444444">Creates the redaction&#45;safe</text>
<text text-anchor="start" x="1688" y="-632.3" font-family="Arial" font-size="24.00" fill="#444444">telemetry boundary through</text>
</g>
</g>
</svg>
