<?xml version="1.0" encoding="UTF-8" standalone="no"?>
<!DOCTYPE svg PUBLIC "-//W3C//DTD SVG 1.1//EN"
 "http://www.w3.org/Graphics/SVG/1.1/DTD/svg11.dtd">
<!-- Generated by graphviz version 2.43.0 (0)
 -->
<!-- Title: %3 Pages: 1 -->
<svg width="2169pt" height="1316pt"
 viewBox="0.00 0.00 2169.00 1315.50" xmlns="http://www.w3.org/2000/svg" xmlns:xlink="http://www.w3.org/1999/xlink">
<g id="graph0" class="graph" transform="scale(1 1) rotate(0) translate(4 1311.5)">
<title>%3</title>
<polygon fill="white" stroke="transparent" points="-4,4 -4,-1311.5 2165,-1311.5 2165,4 -4,4"/>
<text text-anchor="start" x="495.5" y="-11.8" font-family="Arial" font-size="34.00">Component View: Browser Memory Daemon &#45; WSL Loopback HTTP Daemon</text>
<g id="clust1" class="cluster">
<title>cluster_4</title>
<polygon fill="none" stroke="#444444" points="8,-346.5 8,-1299.5 2153,-1299.5 2153,-346.5 8,-346.5"/>
<text text-anchor="start" x="939.5" y="-375.3" font-family="Arial" font-size="24.00" fill="#444444">Browser Memory Daemon</text>
<text text-anchor="start" x="1003.5" y="-355.3" font-family="Arial" font-size="19.00" fill="#444444">[Software System]</text>
</g>
<g id="clust2" class="cluster">
<title>cluster_14</title>
<polygon fill="none" stroke="#444444" points="33,-446.5 33,-1274.5 2128,-1274.5 2128,-446.5 33,-446.5"/>
<text text-anchor="start" x="915" y="-475.3" font-family="Arial" font-size="24.00" fill="#444444">WSL Loopback HTTP Daemon</text>
<text text-anchor="start" x="878.5" y="-455.3" font-family="Arial" font-size="19.00" fill="#444444">[Container: Python 3.11, ThreadingHTTPServer]</text>
</g>
<!-- 3 -->
<g id="3" class="node">
<title>3</title>
<polygon fill="#999999" stroke="#6b6b6b" points="2093.5,-321 1690.5,-321 1690.5,-56 2093.5,-56 2093.5,-321"/>
<text text-anchor="start" x="1730.5" y="-272.8" font-family="Arial" font-size="34.00" fill="#ffffff">Web Sites and Media</text>
<text text-anchor="start" x="1838" y="-238.8" font-family="Arial" font-size="34.00" fill="#ffffff">Origins</text>
<text text-anchor="start" x="1815" y="-216.8" font-family="Arial" font-size="19.00" fill="#ffffff">[Software System]</text>
<text text-anchor="start" x="1782" y="-179.8" font-family="Arial" font-size="24.00" fill="#ffffff">External web pages,</text>
<text text-anchor="start" x="1729.5" y="-155.8" font-family="Arial" font-size="24.00" fill="#ffffff">image/video URLs, and media</text>
<text text-anchor="start" x="1719.5" y="-131.8" font-family="Arial" font-size="24.00" fill="#ffffff">CDNs that Chrome loads or that</text>
<text text-anchor="start" x="1729.5" y="-107.8" font-family="Arial" font-size="24.00" fill="#ffffff">sidecars fetch as page&#45;related</text>
<text text-anchor="start" x="1855.5" y="-83.8" font-family="Arial" font-size="24.00" fill="#ffffff">media.</text>
</g>
<!-- 21 -->
<g id="21" class="node">
<title>21</title>
<polygon fill="#85bbf0" stroke="#1168bd" points="479,-1028 58,-1028 58,-691 479,-691 479,-1028"/>
<text text-anchor="start" x="165" y="-979.8" font-family="Arial" font-size="34.00" fill="#000000">Media Artifact</text>
<text text-anchor="start" x="201.5" y="-945.8" font-family="Arial" font-size="34.00" fill="#000000">Manager</text>
<text text-anchor="start" x="87" y="-923.8" font-family="Arial" font-size="19.00" fill="#000000">[Component: Python + sqlite3 + filesystem]</text>
<text text-anchor="start" x="131.5" y="-886.8" font-family="Arial" font-size="24.00" fill="#000000">Provides the compatibility</text>
<text text-anchor="start" x="101.5" y="-862.8" font-family="Arial" font-size="24.00" fill="#000000">API, records media references,</text>
<text text-anchor="start" x="99" y="-838.8" font-family="Arial" font-size="24.00" fill="#000000">streams bounded blob uploads,</text>
<text text-anchor="start" x="133" y="-814.8" font-family="Arial" font-size="24.00" fill="#000000">delegates guarded public</text>
<text text-anchor="start" x="114.5" y="-790.8" font-family="Arial" font-size="24.00" fill="#000000">transport, and drains verified</text>
<text text-anchor="start" x="117" y="-766.8" font-family="Arial" font-size="24.00" fill="#000000">spool bytes without coupling</text>
<text text-anchor="start" x="163" y="-742.8" font-family="Arial" font-size="24.00" fill="#000000">text ingest to media</text>
<text text-anchor="start" x="210" y="-718.8" font-family="Arial" font-size="24.00" fill="#000000">availability.</text>
</g>
<!-- 24 -->
<g id="24" class="node">
<title>24</title>
<polygon fill="#85bbf0" stroke="#1168bd" points="1253,-898 834,-898 834,-547 1253,-547 1253,-898"/>
<text text-anchor="start" x="894.5" y="-849.8" font-family="Arial" font-size="34.00" fill="#000000">Media Artifact Store</text>
<text text-anchor="start" x="863" y="-827.8" font-family="Arial" font-size="19.00" fill="#000000">[Component: Python + sqlite3 + BlobStore]</text>
<text text-anchor="start" x="940.5" y="-790.8" font-family="Arial" font-size="24.00" fill="#000000">Owns artifact rows,</text>
<text text-anchor="start" x="896" y="-766.8" font-family="Arial" font-size="24.00" fill="#000000">transactional cross&#45;process</text>
<text text-anchor="start" x="898.5" y="-742.8" font-family="Arial" font-size="24.00" fill="#000000">cache reservations, unique</text>
<text text-anchor="start" x="928" y="-718.8" font-family="Arial" font-size="24.00" fill="#000000">streamed publication,</text>
<text text-anchor="start" x="902.5" y="-694.8" font-family="Arial" font-size="24.00" fill="#000000">failed&#45;write compensation,</text>
<text text-anchor="start" x="918" y="-670.8" font-family="Arial" font-size="24.00" fill="#000000">contained reads, cache</text>
<text text-anchor="start" x="926" y="-646.8" font-family="Arial" font-size="24.00" fill="#000000">admission, oldest&#45;first</text>
<text text-anchor="start" x="897" y="-622.8" font-family="Arial" font-size="24.00" fill="#000000">eviction, purge/rehydration,</text>
<text text-anchor="start" x="977" y="-598.8" font-family="Arial" font-size="24.00" fill="#000000">and lifecycle</text>
<text text-anchor="start" x="914" y="-574.8" font-family="Arial" font-size="24.00" fill="#000000">registration/tombstones.</text>
</g>
<!-- 21&#45;&gt;24 -->
<g id="101" class="edge">
<title>21&#45;&gt;24</title>
<path fill="none" stroke="#444444" stroke-dasharray="5,2" d="M479.19,-822.34C585.96,-803.41 715.67,-780.42 823.7,-761.28"/>
<polygon fill="#444444" stroke="#444444" points="824.51,-764.69 833.75,-759.5 823.29,-757.8 824.51,-764.69"/>
<polygon fill="white" stroke="transparent" points="527.5,-814.5 527.5,-900.5 785.5,-900.5 785.5,-814.5 527.5,-814.5"/>
<text text-anchor="start" x="549" y="-877.3" font-family="Arial" font-size="24.00" fill="#444444">Publishes, resolves,</text>
<text text-anchor="start" x="531.5" y="-851.3" font-family="Arial" font-size="24.00" fill="#444444">purges, and rehydrates</text>
<text text-anchor="start" x="569" y="-825.3" font-family="Arial" font-size="24.00" fill="#444444">artifacts through</text>
</g>
<!-- 25 -->
<g id="25" class="node">
<title>25</title>
<polygon fill="#85bbf0" stroke="#1168bd" points="1248.5,-1249 838.5,-1249 838.5,-970 1248.5,-970 1248.5,-1249"/>
<text text-anchor="start" x="879" y="-1200.8" font-family="Arial" font-size="34.00" fill="#000000">Guarded Media Fetch</text>
<text text-anchor="start" x="867.5" y="-1178.8" font-family="Arial" font-size="19.00" fill="#000000">[Component: Python stdlib urllib + socket]</text>
<text text-anchor="start" x="896.5" y="-1141.8" font-family="Arial" font-size="24.00" fill="#000000">Owns streamed HTTP/data</text>
<text text-anchor="start" x="909.5" y="-1117.8" font-family="Arial" font-size="24.00" fill="#000000">transport, public&#45;address</text>
<text text-anchor="start" x="945" y="-1093.8" font-family="Arial" font-size="24.00" fill="#000000">validation, redirect</text>
<text text-anchor="start" x="917" y="-1069.8" font-family="Arial" font-size="24.00" fill="#000000">revalidation, no&#45;referrer</text>
<text text-anchor="start" x="913" y="-1045.8" font-family="Arial" font-size="24.00" fill="#000000">requests, response&#45;byte</text>
<text text-anchor="start" x="896.5" y="-1021.8" font-family="Arial" font-size="24.00" fill="#000000">limits, process request/byte</text>
<text text-anchor="start" x="882.5" y="-997.8" font-family="Arial" font-size="24.00" fill="#000000">leases, and shared deadlines.</text>
</g>
<!-- 21&#45;&gt;25 -->
<g id="102" class="edge">
<title>21&#45;&gt;25</title>
<path fill="none" stroke="#444444" stroke-dasharray="5,2" d="M479.19,-927.32C587.59,-962.37 719.63,-1005.08 828.62,-1040.33"/>
<polygon fill="#444444" stroke="#444444" points="827.83,-1043.75 838.42,-1043.5 829.98,-1037.09 827.83,-1043.75"/>
<polygon fill="white" stroke="transparent" points="515,-1028.5 515,-1088.5 798,-1088.5 798,-1028.5 515,-1028.5"/>
<text text-anchor="start" x="519.5" y="-1065.3" font-family="Arial" font-size="24.00" fill="#444444">Delegates daemon&#45;public</text>
<text text-anchor="start" x="559" y="-1039.3" font-family="Arial" font-size="24.00" fill="#444444">media transport to</text>
</g>
<!-- 25&#45;&gt;3 -->
<g id="113" class="edge">
<title>25&#45;&gt;3</title>
<path fill="none" stroke="#444444" stroke-dasharray="5,2" d="M1230.1,-969.92C1238.76,-958.66 1246.52,-946.84 1253,-934.5 1331.49,-785.1 1199.57,-699.61 1289,-556.5 1378.32,-413.57 1545.52,-317.98 1681.09,-260.13"/>
<polygon fill="#444444" stroke="#444444" points="1682.53,-263.32 1690.38,-256.2 1679.81,-256.87 1682.53,-263.32"/>
<polygon fill="white" stroke="transparent" points="1289,-556.5 1289,-631.5 1645,-631.5 1645,-556.5 1289,-556.5"/>
<text text-anchor="start" x="1352" y="-608.8" font-family="Arial" font-size="24.00" fill="#444444">Validates and fetches</text>
<text text-anchor="start" x="1371" y="-584.8" font-family="Arial" font-size="24.00" fill="#444444">public media from</text>
<text text-anchor="start" x="1293" y="-564.8" font-family="Arial" font-size="19.00" fill="#444444">[HTTP(S), no Referer or Chrome cookies]</text>
</g>
<!-- 26 -->
<g id="26" class="node">
<title>26</title>
<polygon fill="#85bbf0" stroke="#1168bd" points="2103,-864 1681,-864 1681,-561 2103,-561 2103,-864"/>
<text text-anchor="start" x="1710" y="-815.8" font-family="Arial" font-size="34.00" fill="#000000">Bounded HLS Transport</text>
<text text-anchor="start" x="1803" y="-793.8" font-family="Arial" font-size="19.00" fill="#000000">[Component: Python]</text>
<text text-anchor="start" x="1754" y="-756.8" font-family="Arial" font-size="24.00" fill="#000000">Parses bounded playlists,</text>
<text text-anchor="start" x="1737" y="-732.8" font-family="Arial" font-size="24.00" fill="#000000">selects variants, expands init</text>
<text text-anchor="start" x="1741.5" y="-708.8" font-family="Arial" font-size="24.00" fill="#000000">maps/segments through the</text>
<text text-anchor="start" x="1737" y="-684.8" font-family="Arial" font-size="24.00" fill="#000000">guarded fetch boundary, and</text>
<text text-anchor="start" x="1760" y="-660.8" font-family="Arial" font-size="24.00" fill="#000000">streams assembly within</text>
<text text-anchor="start" x="1837" y="-636.8" font-family="Arial" font-size="24.00" fill="#000000">aggregate</text>
<text text-anchor="start" x="1742" y="-612.8" font-family="Arial" font-size="24.00" fill="#000000">byte/depth/request/deadline</text>
<text text-anchor="start" x="1861" y="-588.8" font-family="Arial" font-size="24.00" fill="#000000">limits.</text>
</g>
<!-- 25&#45;&gt;26 -->
<g id="111" class="edge">
<title>25&#45;&gt;26</title>
<path fill="none" stroke="#444444" stroke-dasharray="5,2" d="M1228.46,-969.83C1237.58,-958.56 1245.89,-946.77 1253,-934.5 1298.29,-856.36 1220.78,-793.69 1289,-734.5 1391.39,-645.67 1544.42,-641.15 1670.56,-658.34"/>
<polygon fill="#444444" stroke="#444444" points="1670.36,-661.84 1680.75,-659.78 1671.34,-654.91 1670.36,-661.84"/>
<polygon fill="white" stroke="transparent" points="1331.5,-734.5 1331.5,-820.5 1602.5,-820.5 1602.5,-734.5 1331.5,-734.5"/>
<text text-anchor="start" x="1363" y="-797.3" font-family="Arial" font-size="24.00" fill="#444444">Delegates detected</text>
<text text-anchor="start" x="1356" y="-771.3" font-family="Arial" font-size="24.00" fill="#444444">playlists for bounded</text>
<text text-anchor="start" x="1336" y="-745.3" font-family="Arial" font-size="24.00" fill="#444444">parsing and assembly to</text>
</g>
<!-- 28 -->
<g id="28" class="node">
<title>28</title>
<polygon fill="#85bbf0" stroke="#1168bd" points="2095,-1249 1689,-1249 1689,-936 2095,-936 2095,-1249"/>
<text text-anchor="start" x="1779" y="-1200.8" font-family="Arial" font-size="34.00" fill="#000000">Media Process</text>
<text text-anchor="start" x="1760.5" y="-1166.8" font-family="Arial" font-size="34.00" fill="#000000">Resource Budget</text>
<text text-anchor="start" x="1718" y="-1144.8" font-family="Arial" font-size="19.00" fill="#000000">[Component: Python threading.Condition]</text>
<text text-anchor="start" x="1729.5" y="-1107.8" font-family="Arial" font-size="24.00" fill="#000000">Bounds active media requests</text>
<text text-anchor="start" x="1758" y="-1083.8" font-family="Arial" font-size="24.00" fill="#000000">and in&#45;flight bytes across</text>
<text text-anchor="start" x="1732" y="-1059.8" font-family="Arial" font-size="24.00" fill="#000000">threads within one daemon or</text>
<text text-anchor="start" x="1758" y="-1035.8" font-family="Arial" font-size="24.00" fill="#000000">worker process; exposes</text>
<text text-anchor="start" x="1763.5" y="-1011.8" font-family="Arial" font-size="24.00" fill="#000000">aggregate counters and</text>
<text text-anchor="start" x="1740" y="-987.8" font-family="Arial" font-size="24.00" fill="#000000">releases leases on failure or</text>
<text text-anchor="start" x="1824.5" y="-963.8" font-family="Arial" font-size="24.00" fill="#000000">cancellation.</text>
</g>
<!-- 25&#45;&gt;28 -->
<g id="112" class="edge">
<title>25&#45;&gt;28</title>
<path fill="none" stroke="#444444" stroke-dasharray="5,2" d="M1248.6,-1105.4C1378.66,-1102.79 1546.83,-1099.41 1678.48,-1096.77"/>
<polygon fill="#444444" stroke="#444444" points="1678.77,-1100.26 1688.69,-1096.56 1678.62,-1093.26 1678.77,-1100.26"/>
<polygon fill="white" stroke="transparent" points="1311,-1103.5 1311,-1189.5 1623,-1189.5 1623,-1103.5 1311,-1103.5"/>
<text text-anchor="start" x="1325" y="-1166.3" font-family="Arial" font-size="24.00" fill="#444444">Leases aggregate transfer</text>
<text text-anchor="start" x="1315" y="-1140.3" font-family="Arial" font-size="24.00" fill="#444444">bytes and each active HTTP</text>
<text text-anchor="start" x="1381.5" y="-1114.3" font-family="Arial" font-size="24.00" fill="#444444">request through</text>
</g>
<!-- 26&#45;&gt;25 -->
<g id="115" class="edge">
<title>26&#45;&gt;25</title>
<path fill="none" stroke="#444444" stroke-dasharray="5,2" d="M1680.92,-817.39C1668.79,-823.22 1656.75,-828.96 1645,-834.5 1488.24,-908.34 1446.4,-921.02 1289,-993.5 1278.85,-998.17 1268.48,-1002.98 1258.01,-1007.85"/>
<polygon fill="#444444" stroke="#444444" points="1256.37,-1004.76 1248.79,-1012.15 1259.33,-1011.1 1256.37,-1004.76"/>
<polygon fill="white" stroke="transparent" points="1343.5,-993.5 1343.5,-1079.5 1590.5,-1079.5 1590.5,-993.5 1343.5,-993.5"/>
<text text-anchor="start" x="1348" y="-1056.3" font-family="Arial" font-size="24.00" fill="#444444">Fetches every variant,</text>
<text text-anchor="start" x="1348" y="-1030.3" font-family="Arial" font-size="24.00" fill="#444444">init map, and segment</text>
<text text-anchor="start" x="1426" y="-1004.3" font-family="Arial" font-size="24.00" fill="#444444">through</text>
</g>
</g>
</svg>
