<?xml version="1.0" encoding="UTF-8" standalone="no"?>
<!DOCTYPE svg PUBLIC "-//W3C//DTD SVG 1.1//EN"
 "http://www.w3.org/Graphics/SVG/1.1/DTD/svg11.dtd">
<!-- Generated by graphviz version 2.43.0 (0)
 -->
<!-- Title: %3 Pages: 1 -->
<svg width="3244pt" height="1607pt"
 viewBox="0.00 0.00 3244.00 1607.00" xmlns="http://www.w3.org/2000/svg" xmlns:xlink="http://www.w3.org/1999/xlink">
<g id="graph0" class="graph" transform="scale(1 1) rotate(0) translate(4 1603)">
<title>%3</title>
<polygon fill="white" stroke="transparent" points="-4,4 -4,-1603 3240,-1603 3240,4 -4,4"/>
<text text-anchor="start" x="1033" y="-11.8" font-family="Arial" font-size="34.00">Component View: Browser Memory Daemon &#45; WSL Loopback HTTP Daemon</text>
<g id="clust1" class="cluster">
<title>cluster_4</title>
<polygon fill="none" stroke="#444444" points="8,-64 8,-1591 3228,-1591 3228,-64 8,-64"/>
<text text-anchor="start" x="1477" y="-92.8" font-family="Arial" font-size="24.00" fill="#444444">Browser Memory Daemon</text>
<text text-anchor="start" x="1541" y="-72.8" font-family="Arial" font-size="19.00" fill="#444444">[Software System]</text>
</g>
<g id="clust2" class="cluster">
<title>cluster_14</title>
<polygon fill="none" stroke="#444444" points="832,-896 832,-1335 2322,-1335 2322,-896 832,-896"/>
<text text-anchor="start" x="1411.5" y="-924.8" font-family="Arial" font-size="24.00" fill="#444444">WSL Loopback HTTP Daemon</text>
<text text-anchor="start" x="1375" y="-904.8" font-family="Arial" font-size="19.00" fill="#444444">[Container: Python 3.11, ThreadingHTTPServer]</text>
</g>
<!-- 22 -->
<g id="22" class="node">
<title>22</title>
<polygon fill="#85bbf0" stroke="#1168bd" points="2297,-1301.5 1886,-1301.5 1886,-998.5 2297,-998.5 2297,-1301.5"/>
<text text-anchor="start" x="1935" y="-1253.3" font-family="Arial" font-size="34.00" fill="#000000">Contained BlobStore</text>
<text text-anchor="start" x="1915" y="-1231.3" font-family="Arial" font-size="19.00" fill="#000000">[Component: Python filesystem boundary]</text>
<text text-anchor="start" x="1939" y="-1194.3" font-family="Arial" font-size="24.00" fill="#000000">Prefers root&#45;relative locators</text>
<text text-anchor="start" x="1975.5" y="-1170.3" font-family="Arial" font-size="24.00" fill="#000000">with contained legacy</text>
<text text-anchor="start" x="1960.5" y="-1146.3" font-family="Arial" font-size="24.00" fill="#000000">fallback; streams unique</text>
<text text-anchor="start" x="1976.5" y="-1122.3" font-family="Arial" font-size="24.00" fill="#000000">stages with size/hash</text>
<text text-anchor="start" x="1972.5" y="-1098.3" font-family="Arial" font-size="24.00" fill="#000000">accounting; atomically</text>
<text text-anchor="start" x="1944.5" y="-1074.3" font-family="Arial" font-size="24.00" fill="#000000">commits; and contains blob</text>
<text text-anchor="start" x="1977" y="-1050.3" font-family="Arial" font-size="24.00" fill="#000000">read, stat, and delete</text>
<text text-anchor="start" x="2031" y="-1026.3" font-family="Arial" font-size="24.00" fill="#000000">operations.</text>
</g>
<!-- 31 -->
<g id="31" class="node">
<title>31</title>
<path fill="#2f95c8" stroke="#20688c" d="M3128.5,-1031.22C3128.5,-1049.51 3039.98,-1064.38 2931,-1064.38 2822.02,-1064.38 2733.5,-1049.51 2733.5,-1031.22 2733.5,-1031.22 2733.5,-732.78 2733.5,-732.78 2733.5,-714.49 2822.02,-699.62 2931,-699.62 3039.98,-699.62 3128.5,-714.49 3128.5,-732.78 3128.5,-732.78 3128.5,-1031.22 3128.5,-1031.22"/>
<path fill="none" stroke="#20688c" d="M3128.5,-1031.22C3128.5,-1012.92 3039.98,-998.06 2931,-998.06 2822.02,-998.06 2733.5,-1012.92 2733.5,-1031.22"/>
<text text-anchor="start" x="2809.5" y="-966.3" font-family="Arial" font-size="34.00" fill="#ffffff">Local Derivative</text>
<text text-anchor="start" x="2890" y="-932.3" font-family="Arial" font-size="34.00" fill="#ffffff">Store</text>
<text text-anchor="start" x="2791" y="-910.3" font-family="Arial" font-size="19.00" fill="#ffffff">[Container: WSL local filesystem]</text>
<text text-anchor="start" x="2777.5" y="-873.3" font-family="Arial" font-size="24.00" fill="#ffffff">Reconstructible compatibility</text>
<text text-anchor="start" x="2762.5" y="-849.3" font-family="Arial" font-size="24.00" fill="#ffffff">evidence such as pre&#45;version&#45;9</text>
<text text-anchor="start" x="2801" y="-825.3" font-family="Arial" font-size="24.00" fill="#ffffff">clean&#45;text sidecars; new</text>
<text text-anchor="start" x="2807.5" y="-801.3" font-family="Arial" font-size="24.00" fill="#ffffff">captures create no text</text>
<text text-anchor="start" x="2882.5" y="-777.3" font-family="Arial" font-size="24.00" fill="#ffffff">sidecars.</text>
</g>
<!-- 22&#45;&gt;31 -->
<g id="91" class="edge">
<title>22&#45;&gt;31</title>
<path fill="none" stroke="#444444" stroke-dasharray="5,2" d="M2297.11,-1084.53C2426.67,-1043.07 2593.65,-989.63 2723.56,-948.06"/>
<polygon fill="#444444" stroke="#444444" points="2724.79,-951.34 2733.24,-944.96 2722.65,-944.68 2724.79,-951.34"/>
<polygon fill="white" stroke="transparent" points="2342,-1070 2342,-1169 2614,-1169 2614,-1070 2342,-1070"/>
<text text-anchor="start" x="2346" y="-1146.3" font-family="Arial" font-size="24.00" fill="#444444">Reads, stats, reconciles,</text>
<text text-anchor="start" x="2354" y="-1122.3" font-family="Arial" font-size="24.00" fill="#444444">and deletes legacy text</text>
<text text-anchor="start" x="2420" y="-1098.3" font-family="Arial" font-size="24.00" fill="#444444">sidecars in</text>
<text text-anchor="start" x="2426.5" y="-1078.3" font-family="Arial" font-size="19.00" fill="#444444">[Filesystem]</text>
</g>
<!-- 32 -->
<g id="32" class="node">
<title>32</title>
<path fill="#2f95c8" stroke="#20688c" d="M3203,-1527.22C3203,-1548.82 3081.09,-1566.38 2931,-1566.38 2780.91,-1566.38 2659,-1548.82 2659,-1527.22 2659,-1527.22 2659,-1174.78 2659,-1174.78 2659,-1153.18 2780.91,-1135.62 2931,-1135.62 3081.09,-1135.62 3203,-1153.18 3203,-1174.78 3203,-1174.78 3203,-1527.22 3203,-1527.22"/>
<path fill="none" stroke="#20688c" d="M3203,-1527.22C3203,-1505.61 3081.09,-1488.06 2931,-1488.06 2780.91,-1488.06 2659,-1505.61 2659,-1527.22"/>
<text text-anchor="start" x="2775.5" y="-1459.3" font-family="Arial" font-size="34.00" fill="#ffffff">Guarded Media Blob</text>
<text text-anchor="start" x="2881.5" y="-1425.3" font-family="Arial" font-size="34.00" fill="#ffffff">Cache</text>
<text text-anchor="start" x="2688" y="-1403.3" font-family="Arial" font-size="19.00" fill="#ffffff">[Container: WSL&#45;visible local or NAS&#45;mounted filesystem]</text>
<text text-anchor="start" x="2821" y="-1366.3" font-family="Arial" font-size="24.00" fill="#ffffff">Bounded disposable</text>
<text text-anchor="start" x="2765.5" y="-1342.3" font-family="Arial" font-size="24.00" fill="#ffffff">image/video/audio bytes under</text>
<text text-anchor="start" x="2789.5" y="-1318.3" font-family="Arial" font-size="24.00" fill="#ffffff">the configured media root;</text>
<text text-anchor="start" x="2817" y="-1294.3" font-family="Arial" font-size="24.00" fill="#ffffff">explicit external roots</text>
<text text-anchor="start" x="2832" y="-1270.3" font-family="Arial" font-size="24.00" fill="#ffffff">require mount and</text>
<text text-anchor="start" x="2781.5" y="-1246.3" font-family="Arial" font-size="24.00" fill="#ffffff">identity&#45;marker proof before</text>
<text text-anchor="start" x="2890" y="-1222.3" font-family="Arial" font-size="24.00" fill="#ffffff">access.</text>
</g>
<!-- 22&#45;&gt;32 -->
<g id="92" class="edge">
<title>22&#45;&gt;32</title>
<path fill="none" stroke="#444444" stroke-dasharray="5,2" d="M2297.11,-1199.11C2402.86,-1224.49 2533.54,-1255.85 2648.64,-1283.47"/>
<polygon fill="#444444" stroke="#444444" points="2648.13,-1286.95 2658.67,-1285.88 2649.76,-1280.14 2648.13,-1286.95"/>
<polygon fill="white" stroke="transparent" points="2342.5,-1274 2342.5,-1373 2613.5,-1373 2613.5,-1274 2342.5,-1274"/>
<text text-anchor="start" x="2348.5" y="-1350.3" font-family="Arial" font-size="24.00" fill="#444444">Stages, commits, reads,</text>
<text text-anchor="start" x="2347" y="-1326.3" font-family="Arial" font-size="24.00" fill="#444444">stats, and deletes media</text>
<text text-anchor="start" x="2436.5" y="-1302.3" font-family="Arial" font-size="24.00" fill="#444444">blobs in</text>
<text text-anchor="start" x="2427" y="-1282.3" font-family="Arial" font-size="19.00" fill="#444444">[Filesystem]</text>
</g>
<!-- 33 -->
<g id="33" class="node">
<title>33</title>
<path fill="#2f95c8" stroke="#20688c" d="M3124,-585.72C3124,-608.98 3037.49,-627.88 2931,-627.88 2824.51,-627.88 2738,-608.98 2738,-585.72 2738,-585.72 2738,-206.28 2738,-206.28 2738,-183.02 2824.51,-164.12 2931,-164.12 3037.49,-164.12 3124,-183.02 3124,-206.28 3124,-206.28 3124,-585.72 3124,-585.72"/>
<path fill="none" stroke="#20688c" d="M3124,-585.72C3124,-562.45 3037.49,-543.56 2931,-543.56 2824.51,-543.56 2738,-562.45 2738,-585.72"/>
<text text-anchor="start" x="2767" y="-516.3" font-family="Arial" font-size="34.00" fill="#ffffff">Bounded Local Media</text>
<text text-anchor="start" x="2887.5" y="-482.3" font-family="Arial" font-size="34.00" fill="#ffffff">Spool</text>
<text text-anchor="start" x="2791" y="-460.3" font-family="Arial" font-size="19.00" fill="#ffffff">[Container: WSL local filesystem]</text>
<text text-anchor="start" x="2779" y="-423.3" font-family="Arial" font-size="24.00" fill="#ffffff">Opt&#45;in durable outage buffer</text>
<text text-anchor="start" x="2782.5" y="-399.3" font-family="Arial" font-size="24.00" fill="#ffffff">beneath the local WSL data</text>
<text text-anchor="start" x="2809.5" y="-375.3" font-family="Arial" font-size="24.00" fill="#ffffff">root; admission counts</text>
<text text-anchor="start" x="2785.5" y="-351.3" font-family="Arial" font-size="24.00" fill="#ffffff">committed files and distinct</text>
<text text-anchor="start" x="2779" y="-327.3" font-family="Arial" font-size="24.00" fill="#ffffff">in&#45;flight SQLite reservations,</text>
<text text-anchor="start" x="2806" y="-303.3" font-family="Arial" font-size="24.00" fill="#ffffff">and drain verifies bytes</text>
<text text-anchor="start" x="2783.5" y="-279.3" font-family="Arial" font-size="24.00" fill="#ffffff">before tier transition/source</text>
<text text-anchor="start" x="2885" y="-255.3" font-family="Arial" font-size="24.00" fill="#ffffff">cleanup.</text>
</g>
<!-- 22&#45;&gt;33 -->
<g id="93" class="edge">
<title>22&#45;&gt;33</title>
<path fill="none" stroke="#444444" stroke-dasharray="5,2" d="M2297.17,-1028.87C2306.53,-1018.31 2314.94,-1007.02 2322,-995 2350.93,-945.77 2305.91,-917.26 2333,-867 2421.02,-703.67 2592.32,-577.72 2728.94,-497.33"/>
<polygon fill="#444444" stroke="#444444" points="2731.02,-500.17 2737.88,-492.1 2727.48,-494.13 2731.02,-500.17"/>
<polygon fill="white" stroke="transparent" points="2333,-867 2333,-966 2623,-966 2623,-867 2333,-867"/>
<text text-anchor="start" x="2348" y="-943.3" font-family="Arial" font-size="24.00" fill="#444444">Stages, commits, reads,</text>
<text text-anchor="start" x="2337" y="-919.3" font-family="Arial" font-size="24.00" fill="#444444">stats, and deletes spooled</text>
<text text-anchor="start" x="2432" y="-895.3" font-family="Arial" font-size="24.00" fill="#444444">media in</text>
<text text-anchor="start" x="2426.5" y="-875.3" font-family="Arial" font-size="19.00" fill="#444444">[Filesystem]</text>
</g>
<!-- 23 -->
<g id="23" class="node">
<title>23</title>
<polygon fill="#85bbf0" stroke="#1168bd" points="1490,-1309.5 857,-1309.5 857,-996.5 1490,-996.5 1490,-1309.5"/>
<text text-anchor="start" x="1035" y="-1261.3" font-family="Arial" font-size="34.00" fill="#000000">Blob Lifecycle and</text>
<text text-anchor="start" x="1029" y="-1227.3" font-family="Arial" font-size="34.00" fill="#000000">Storage Reconciler</text>
<text text-anchor="start" x="992" y="-1205.3" font-family="Arial" font-size="19.00" fill="#000000">[Component: Python + sqlite3 + filesystem]</text>
<text text-anchor="start" x="1130.5" y="-1168.3" font-family="Arial" font-size="24.00" fill="#000000">Persists</text>
<text text-anchor="start" x="886" y="-1144.3" font-family="Arial" font-size="24.00" fill="#000000">committed/tombstoned/missing/deleted/blocked/failed</text>
<text text-anchor="start" x="1063.5" y="-1120.3" font-family="Arial" font-size="24.00" fill="#000000">blob state; serializes</text>
<text text-anchor="start" x="1027.5" y="-1096.3" font-family="Arial" font-size="24.00" fill="#000000">deletion processors; retries</text>
<text text-anchor="start" x="1041.5" y="-1072.3" font-family="Arial" font-size="24.00" fill="#000000">tombstones; and dry&#45;run</text>
<text text-anchor="start" x="1025" y="-1048.3" font-family="Arial" font-size="24.00" fill="#000000">detects missing refs, in&#45;root</text>
<text text-anchor="start" x="1031" y="-1024.3" font-family="Arial" font-size="24.00" fill="#000000">orphans, and stale stages.</text>
</g>
<!-- 23&#45;&gt;22 -->
<g id="90" class="edge">
<title>23&#45;&gt;22</title>
<path fill="none" stroke="#444444" stroke-dasharray="5,2" d="M1490.06,-1151.97C1617.25,-1151.55 1760.73,-1151.08 1875.53,-1150.7"/>
<polygon fill="#444444" stroke="#444444" points="1875.85,-1154.2 1885.84,-1150.67 1875.83,-1147.2 1875.85,-1154.2"/>
<polygon fill="white" stroke="transparent" points="1561.5,-1151 1561.5,-1237 1814.5,-1237 1814.5,-1151 1561.5,-1151"/>
<text text-anchor="start" x="1566" y="-1213.8" font-family="Arial" font-size="24.00" fill="#444444">Resolves, deletes, and</text>
<text text-anchor="start" x="1574" y="-1187.8" font-family="Arial" font-size="24.00" fill="#444444">inventories contained</text>
<text text-anchor="start" x="1614.5" y="-1161.8" font-family="Arial" font-size="24.00" fill="#444444">bytes through</text>
</g>
<!-- 30 -->
<g id="30" class="node">
<title>30</title>
<path fill="#2f95c8" stroke="#20688c" d="M2289,-820.22C2289,-848.44 2200.48,-871.38 2091.5,-871.38 1982.52,-871.38 1894,-848.44 1894,-820.22 1894,-820.22 1894,-359.78 1894,-359.78 1894,-331.56 1982.52,-308.62 2091.5,-308.62 2200.48,-308.62 2289,-331.56 2289,-359.78 2289,-359.78 2289,-820.22 2289,-820.22"/>
<path fill="none" stroke="#20688c" d="M2289,-820.22C2289,-791.99 2200.48,-769.06 2091.5,-769.06 1982.52,-769.06 1894,-791.99 1894,-820.22"/>
<text text-anchor="start" x="1978.5" y="-746.3" font-family="Arial" font-size="34.00" fill="#ffffff">SQLite + FTS5</text>
<text text-anchor="start" x="2018.5" y="-712.3" font-family="Arial" font-size="34.00" fill="#ffffff">Database</text>
<text text-anchor="start" x="1965.5" y="-690.3" font-family="Arial" font-size="19.00" fill="#ffffff">[Container: SQLite with FTS5]</text>
<text text-anchor="start" x="1923.5" y="-653.3" font-family="Arial" font-size="24.00" fill="#ffffff">Durable complete cleaned&#45;text,</text>
<text text-anchor="start" x="1972.5" y="-629.3" font-family="Arial" font-size="24.00" fill="#ffffff">relational, and full&#45;text</text>
<text text-anchor="start" x="1974" y="-605.3" font-family="Arial" font-size="24.00" fill="#ffffff">authority for migration</text>
<text text-anchor="start" x="1939.5" y="-581.3" font-family="Arial" font-size="24.00" fill="#ffffff">ledger, sources, documents,</text>
<text text-anchor="start" x="1942" y="-557.3" font-family="Arial" font-size="24.00" fill="#ffffff">visits, capture observations,</text>
<text text-anchor="start" x="1960.5" y="-533.3" font-family="Arial" font-size="24.00" fill="#ffffff">URL claims, visit events,</text>
<text text-anchor="start" x="1923" y="-509.3" font-family="Arial" font-size="24.00" fill="#ffffff">snapshots, chunks, chunks_fts,</text>
<text text-anchor="start" x="1930.5" y="-485.3" font-family="Arial" font-size="24.00" fill="#ffffff">media provenance/tasks, blob</text>
<text text-anchor="start" x="1967" y="-461.3" font-family="Arial" font-size="24.00" fill="#ffffff">lifecycle records, policy</text>
<text text-anchor="start" x="1966" y="-437.3" font-family="Arial" font-size="24.00" fill="#ffffff">rules, audit events, and</text>
<text text-anchor="start" x="1999.5" y="-413.3" font-family="Arial" font-size="24.00" fill="#ffffff">deletion receipts.</text>
</g>
<!-- 23&#45;&gt;30 -->
<g id="89" class="edge">
<title>23&#45;&gt;30</title>
<path fill="none" stroke="#444444" stroke-dasharray="5,2" d="M1484.01,-996.49C1486.02,-995.33 1488.01,-994.16 1490,-993 1625.13,-913.79 1771.16,-816.08 1885.38,-736.71"/>
<polygon fill="#444444" stroke="#444444" points="1887.69,-739.37 1893.9,-730.78 1883.69,-733.62 1887.69,-739.37"/>
<polygon fill="white" stroke="transparent" points="1526,-962 1526,-1037 1850,-1037 1850,-962 1526,-962"/>
<text text-anchor="start" x="1530" y="-1014.3" font-family="Arial" font-size="24.00" fill="#444444">Reads and advances durable</text>
<text text-anchor="start" x="1562" y="-990.3" font-family="Arial" font-size="24.00" fill="#444444">blob lifecycle records in</text>
<text text-anchor="start" x="1654.5" y="-970.3" font-family="Arial" font-size="19.00" fill="#444444">[sqlite3]</text>
</g>
<!-- 29 -->
<g id="29" class="node">
<title>29</title>
<polygon fill="#438dd5" stroke="#2e6295" points="547,-947.5 33,-947.5 33,-620.5 547,-620.5 547,-947.5"/>
<text text-anchor="start" x="263" y="-899.3" font-family="Arial" font-size="34.00" fill="#ffffff">CLI</text>
<text text-anchor="start" x="169" y="-877.3" font-family="Arial" font-size="19.00" fill="#ffffff">[Container: Python argparse]</text>
<text text-anchor="start" x="143.5" y="-840.3" font-family="Arial" font-size="24.00" fill="#ffffff">Command&#45;line interface for</text>
<text text-anchor="start" x="123" y="-816.3" font-family="Arial" font-size="24.00" fill="#ffffff">serving the daemon, migration,</text>
<text text-anchor="start" x="149.5" y="-792.3" font-family="Arial" font-size="24.00" fill="#ffffff">snapshot&#45;text and storage</text>
<text text-anchor="start" x="146.5" y="-768.3" font-family="Arial" font-size="24.00" fill="#ffffff">reconciliation, media&#45;spool</text>
<text text-anchor="start" x="223.5" y="-744.3" font-family="Arial" font-size="24.00" fill="#ffffff">status/drain,</text>
<text text-anchor="start" x="62" y="-720.3" font-family="Arial" font-size="24.00" fill="#ffffff">health/doctor/search/recent/timeline/detail,</text>
<text text-anchor="start" x="177" y="-696.3" font-family="Arial" font-size="24.00" fill="#ffffff">policy/forget, capture</text>
<text text-anchor="start" x="145" y="-672.3" font-family="Arial" font-size="24.00" fill="#ffffff">fixtures, media worker, and</text>
<text text-anchor="start" x="157.5" y="-648.3" font-family="Arial" font-size="24.00" fill="#ffffff">media cache operations.</text>
</g>
<!-- 29&#45;&gt;23 -->
<g id="46" class="edge">
<title>29&#45;&gt;23</title>
<path fill="none" stroke="#444444" stroke-dasharray="5,2" d="M547.15,-891.23C641.06,-930.53 748.61,-975.56 847.73,-1017.05"/>
<polygon fill="#444444" stroke="#444444" points="846.41,-1020.29 856.99,-1020.93 849.12,-1013.84 846.41,-1020.29"/>
<polygon fill="white" stroke="transparent" points="583,-1001 583,-1087 821,-1087 821,-1001 583,-1001"/>
<text text-anchor="start" x="587" y="-1063.8" font-family="Arial" font-size="24.00" fill="#444444">Previews or executes</text>
<text text-anchor="start" x="605.5" y="-1037.8" font-family="Arial" font-size="24.00" fill="#444444">contained storage</text>
<text text-anchor="start" x="587.5" y="-1011.8" font-family="Arial" font-size="24.00" fill="#444444">convergence through</text>
</g>
<!-- 29&#45;&gt;30 -->
<g id="45" class="edge">
<title>29&#45;&gt;30</title>
<path fill="none" stroke="#444444" stroke-dasharray="5,2" d="M547.39,-756.36C906.71,-717.62 1553.05,-647.94 1883.58,-612.31"/>
<polygon fill="#444444" stroke="#444444" points="1884.18,-615.76 1893.75,-611.21 1883.43,-608.8 1884.18,-615.76"/>
<polygon fill="white" stroke="transparent" points="1013.5,-724 1013.5,-871 1333.5,-871 1333.5,-724 1013.5,-724"/>
<text text-anchor="start" x="1088.5" y="-848.3" font-family="Arial" font-size="24.00" fill="#444444">Runs migration,</text>
<text text-anchor="start" x="1021" y="-824.3" font-family="Arial" font-size="24.00" fill="#444444">media&#45;worker, media&#45;cache,</text>
<text text-anchor="start" x="1080" y="-800.3" font-family="Arial" font-size="24.00" fill="#444444">media&#45;spool, and</text>
<text text-anchor="start" x="1017.5" y="-776.3" font-family="Arial" font-size="24.00" fill="#444444">storage&#45;reconcile commands</text>
<text text-anchor="start" x="1134" y="-752.3" font-family="Arial" font-size="24.00" fill="#444444">against</text>
<text text-anchor="start" x="1140" y="-732.3" font-family="Arial" font-size="19.00" fill="#444444">[sqlite3]</text>
</g>
<!-- 29&#45;&gt;32 -->
<g id="47" class="edge">
<title>29&#45;&gt;32</title>
<path fill="none" stroke="#444444" stroke-dasharray="5,2" d="M391.07,-947.71C485.49,-1084.96 640.89,-1271.22 832,-1353 1445.51,-1615.54 1665.73,-1382.55 2333,-1391 2461.88,-1392.63 2494.38,-1399.34 2623,-1391 2631.48,-1390.45 2640.09,-1389.81 2648.77,-1389.11"/>
<polygon fill="#444444" stroke="#444444" points="2649.32,-1392.57 2658.99,-1388.25 2648.73,-1385.6 2649.32,-1392.57"/>
<polygon fill="white" stroke="transparent" points="1561,-1470 1561,-1545 1815,-1545 1815,-1470 1561,-1470"/>
<text text-anchor="start" x="1565" y="-1522.3" font-family="Arial" font-size="24.00" fill="#444444">Purges and rehydrates</text>
<text text-anchor="start" x="1578" y="-1498.3" font-family="Arial" font-size="24.00" fill="#444444">media blobs through</text>
<text text-anchor="start" x="1636.5" y="-1478.3" font-family="Arial" font-size="19.00" fill="#444444">[Filesystem]</text>
</g>
<!-- 29&#45;&gt;33 -->
<g id="48" class="edge">
<title>29&#45;&gt;33</title>
<path fill="none" stroke="#444444" stroke-dasharray="5,2" d="M547.11,-674.61C857.3,-548.59 1398.87,-349.13 1886,-273 2077.45,-243.08 2129.19,-253.69 2322,-273 2458.8,-286.7 2610.36,-317.32 2727.94,-344.58"/>
<polygon fill="#444444" stroke="#444444" points="2727.24,-348.02 2737.77,-346.88 2728.83,-341.2 2727.24,-348.02"/>
<polygon fill="white" stroke="transparent" points="1530.5,-343 1530.5,-418 1845.5,-418 1845.5,-343 1530.5,-343"/>
<text text-anchor="start" x="1535" y="-395.3" font-family="Arial" font-size="24.00" fill="#444444">Reports and drains bounded</text>
<text text-anchor="start" x="1574" y="-371.3" font-family="Arial" font-size="24.00" fill="#444444">outage bytes through</text>
<text text-anchor="start" x="1637" y="-351.3" font-family="Arial" font-size="19.00" fill="#444444">[Filesystem]</text>
</g>
</g>
</svg>
