<?xml version="1.0" encoding="UTF-8" standalone="no"?>
<!DOCTYPE svg PUBLIC "-//W3C//DTD SVG 1.1//EN"
 "http://www.w3.org/Graphics/SVG/1.1/DTD/svg11.dtd">
<!-- Generated by graphviz version 2.43.0 (0)
 -->
<!-- Title: %3 Pages: 1 -->
<svg width="2007pt" height="1692pt"
 viewBox="0.00 0.00 2007.00 1692.00" xmlns="http://www.w3.org/2000/svg" xmlns:xlink="http://www.w3.org/1999/xlink">
<g id="graph0" class="graph" transform="scale(1 1) rotate(0) translate(4 1688)">
<title>%3</title>
<polygon fill="white" stroke="transparent" points="-4,4 -4,-1688 2003,-1688 2003,4 -4,4"/>
<text text-anchor="start" x="414.5" y="-11.8" font-family="Arial" font-size="34.00">Component View: Browser Memory Daemon &#45; WSL Loopback HTTP Daemon</text>
<g id="clust1" class="cluster">
<title>cluster_4</title>
<polygon fill="none" stroke="#444444" points="8,-64 8,-1676 1991,-1676 1991,-64 8,-64"/>
<text text-anchor="start" x="858.5" y="-92.8" font-family="Arial" font-size="24.00" fill="#444444">Browser Memory Daemon</text>
<text text-anchor="start" x="922.5" y="-72.8" font-family="Arial" font-size="19.00" fill="#444444">[Software System]</text>
</g>
<g id="clust2" class="cluster">
<title>cluster_14</title>
<polygon fill="none" stroke="#444444" points="33,-703 33,-1084 1196,-1084 1196,-703 33,-703"/>
<text text-anchor="start" x="449" y="-731.8" font-family="Arial" font-size="24.00" fill="#444444">WSL Loopback HTTP Daemon</text>
<text text-anchor="start" x="412.5" y="-711.8" font-family="Arial" font-size="19.00" fill="#444444">[Container: Python 3.11, ThreadingHTTPServer]</text>
</g>
<!-- 15 -->
<g id="15" class="node">
<title>15</title>
<polygon fill="#85bbf0" stroke="#1168bd" points="453,-1046.5 58,-1046.5 58,-815.5 453,-815.5 453,-1046.5"/>
<text text-anchor="start" x="87" y="-998.3" font-family="Arial" font-size="34.00" fill="#000000">HTTP Request Router</text>
<text text-anchor="start" x="119" y="-976.3" font-family="Arial" font-size="19.00" fill="#000000">[Component: Python http.server]</text>
<text text-anchor="start" x="90" y="-939.3" font-family="Arial" font-size="24.00" fill="#000000">Routes loopback API requests,</text>
<text text-anchor="start" x="112.5" y="-915.3" font-family="Arial" font-size="24.00" fill="#000000">serves UI assets, enforces</text>
<text text-anchor="start" x="91.5" y="-891.3" font-family="Arial" font-size="24.00" fill="#000000">bearer auth for memory/admin</text>
<text text-anchor="start" x="106" y="-867.3" font-family="Arial" font-size="24.00" fill="#000000">APIs, and applies CORS for</text>
<text text-anchor="start" x="172" y="-843.3" font-family="Arial" font-size="24.00" fill="#000000">allowed origins.</text>
</g>
<!-- 25 -->
<g id="25" class="node">
<title>25</title>
<polygon fill="#85bbf0" stroke="#1168bd" points="1171,-1058.5 789,-1058.5 789,-803.5 1171,-803.5 1171,-1058.5"/>
<text text-anchor="start" x="818" y="-1010.3" font-family="Arial" font-size="34.00" fill="#000000">Ops Doctor and Audit</text>
<text text-anchor="start" x="852" y="-988.3" font-family="Arial" font-size="19.00" fill="#000000">[Component: Python + sqlite3]</text>
<text text-anchor="start" x="829.5" y="-951.3" font-family="Arial" font-size="24.00" fill="#000000">Reports health, DB integrity,</text>
<text text-anchor="start" x="844" y="-927.3" font-family="Arial" font-size="24.00" fill="#000000">FTS consistency, runtime</text>
<text text-anchor="start" x="824" y="-903.3" font-family="Arial" font-size="24.00" fill="#000000">paths, storage counts, media</text>
<text text-anchor="start" x="848.5" y="-879.3" font-family="Arial" font-size="24.00" fill="#000000">queue status, and writes</text>
<text text-anchor="start" x="820.5" y="-855.3" font-family="Arial" font-size="24.00" fill="#000000">metadata&#45;only audit events to</text>
<text text-anchor="start" x="939.5" y="-831.3" font-family="Arial" font-size="24.00" fill="#000000">SQLite.</text>
</g>
<!-- 15&#45;&gt;25 -->
<g id="71" class="edge">
<title>15&#45;&gt;25</title>
<path fill="none" stroke="#444444" stroke-dasharray="5,2" d="M453.45,-931C554.44,-931 677.2,-931 778.67,-931"/>
<polygon fill="#444444" stroke="#444444" points="778.74,-934.5 788.74,-931 778.74,-927.5 778.74,-934.5"/>
<polygon fill="white" stroke="transparent" points="489,-931 489,-991 753,-991 753,-931 489,-931"/>
<text text-anchor="start" x="493" y="-967.8" font-family="Arial" font-size="24.00" fill="#444444">Routes health and audit</text>
<text text-anchor="start" x="581.5" y="-941.8" font-family="Arial" font-size="24.00" fill="#444444">work to</text>
</g>
<!-- 29 -->
<g id="29" class="node">
<title>29</title>
<path fill="#2f95c8" stroke="#20688c" d="M1945,-645.72C1945,-672.29 1856.25,-693.88 1747,-693.88 1637.75,-693.88 1549,-672.29 1549,-645.72 1549,-645.72 1549,-212.28 1549,-212.28 1549,-185.71 1637.75,-164.12 1747,-164.12 1856.25,-164.12 1945,-185.71 1945,-212.28 1945,-212.28 1945,-645.72 1945,-645.72"/>
<path fill="none" stroke="#20688c" d="M1945,-645.72C1945,-619.14 1856.25,-597.56 1747,-597.56 1637.75,-597.56 1549,-619.14 1549,-645.72"/>
<text text-anchor="start" x="1634" y="-573.3" font-family="Arial" font-size="34.00" fill="#ffffff">SQLite + FTS5</text>
<text text-anchor="start" x="1674" y="-539.3" font-family="Arial" font-size="34.00" fill="#ffffff">Database</text>
<text text-anchor="start" x="1621" y="-517.3" font-family="Arial" font-size="19.00" fill="#ffffff">[Container: SQLite with FTS5]</text>
<text text-anchor="start" x="1579" y="-480.3" font-family="Arial" font-size="24.00" fill="#ffffff">Durable complete cleaned&#45;text,</text>
<text text-anchor="start" x="1628" y="-456.3" font-family="Arial" font-size="24.00" fill="#ffffff">relational, and full&#45;text</text>
<text text-anchor="start" x="1629.5" y="-432.3" font-family="Arial" font-size="24.00" fill="#ffffff">authority for migration</text>
<text text-anchor="start" x="1595" y="-408.3" font-family="Arial" font-size="24.00" fill="#ffffff">ledger, sources, documents,</text>
<text text-anchor="start" x="1597.5" y="-384.3" font-family="Arial" font-size="24.00" fill="#ffffff">visits, capture observations,</text>
<text text-anchor="start" x="1616" y="-360.3" font-family="Arial" font-size="24.00" fill="#ffffff">URL claims, visit events,</text>
<text text-anchor="start" x="1578.5" y="-336.3" font-family="Arial" font-size="24.00" fill="#ffffff">snapshots, chunks, chunks_fts,</text>
<text text-anchor="start" x="1578" y="-312.3" font-family="Arial" font-size="24.00" fill="#ffffff">media provenance/tasks, policy</text>
<text text-anchor="start" x="1621.5" y="-288.3" font-family="Arial" font-size="24.00" fill="#ffffff">rules, audit events, and</text>
<text text-anchor="start" x="1655" y="-264.3" font-family="Arial" font-size="24.00" fill="#ffffff">deletion receipts.</text>
</g>
<!-- 25&#45;&gt;29 -->
<g id="84" class="edge">
<title>25&#45;&gt;29</title>
<path fill="none" stroke="#444444" stroke-dasharray="5,2" d="M1171.08,-806.27C1283.33,-732.61 1425.46,-639.34 1540.32,-563.97"/>
<polygon fill="#444444" stroke="#444444" points="1542.45,-566.76 1548.89,-558.34 1538.61,-560.9 1542.45,-566.76"/>
<polygon fill="white" stroke="transparent" points="1235.5,-782 1235.5,-857 1463.5,-857 1463.5,-782 1235.5,-782"/>
<text text-anchor="start" x="1239.5" y="-834.3" font-family="Arial" font-size="24.00" fill="#444444">Checks integrity and</text>
<text text-anchor="start" x="1301" y="-810.3" font-family="Arial" font-size="24.00" fill="#444444">counts in</text>
<text text-anchor="start" x="1316" y="-790.3" font-family="Arial" font-size="19.00" fill="#444444">[sqlite3]</text>
</g>
<!-- 30 -->
<g id="30" class="node">
<title>30</title>
<path fill="#2f95c8" stroke="#20688c" d="M1966,-1066.72C1966,-1083.36 1867.84,-1096.88 1747,-1096.88 1626.16,-1096.88 1528,-1083.36 1528,-1066.72 1528,-1066.72 1528,-795.28 1528,-795.28 1528,-778.64 1626.16,-765.12 1747,-765.12 1867.84,-765.12 1966,-778.64 1966,-795.28 1966,-795.28 1966,-1066.72 1966,-1066.72"/>
<path fill="none" stroke="#20688c" d="M1966,-1066.72C1966,-1050.07 1867.84,-1036.56 1747,-1036.56 1626.16,-1036.56 1528,-1050.07 1528,-1066.72"/>
<text text-anchor="start" x="1607" y="-1003.3" font-family="Arial" font-size="34.00" fill="#ffffff">Legacy Clean Text</text>
<text text-anchor="start" x="1680.5" y="-969.3" font-family="Arial" font-size="34.00" fill="#ffffff">Sidecars</text>
<text text-anchor="start" x="1557" y="-947.3" font-family="Arial" font-size="19.00" fill="#ffffff">[Container: WSL or NAS&#45;mounted filesystem]</text>
<text text-anchor="start" x="1594.5" y="-910.3" font-family="Arial" font-size="24.00" fill="#ffffff">Compatibility&#45;only filesystem</text>
<text text-anchor="start" x="1605.5" y="-886.3" font-family="Arial" font-size="24.00" fill="#ffffff">evidence for pre&#45;version&#45;9</text>
<text text-anchor="start" x="1575.5" y="-862.3" font-family="Arial" font-size="24.00" fill="#ffffff">snapshots; new captures create</text>
<text text-anchor="start" x="1658.5" y="-838.3" font-family="Arial" font-size="24.00" fill="#ffffff">no text sidecars.</text>
</g>
<!-- 25&#45;&gt;30 -->
<g id="85" class="edge">
<title>25&#45;&gt;30</title>
<path fill="none" stroke="#444444" stroke-dasharray="5,2" d="M1171.08,-931C1276,-931 1407.04,-931 1517.5,-931"/>
<polygon fill="#444444" stroke="#444444" points="1517.78,-934.5 1527.78,-931 1517.78,-927.5 1517.78,-934.5"/>
<polygon fill="white" stroke="transparent" points="1220.5,-931 1220.5,-982 1478.5,-982 1478.5,-931 1220.5,-931"/>
<text text-anchor="start" x="1224.5" y="-959.3" font-family="Arial" font-size="24.00" fill="#444444">Counts text blob files in</text>
<text text-anchor="start" x="1298" y="-939.3" font-family="Arial" font-size="19.00" fill="#444444">[Filesystem]</text>
</g>
<!-- 31 -->
<g id="31" class="node">
<title>31</title>
<path fill="#2f95c8" stroke="#20688c" d="M1966,-1607.28C1966,-1631.47 1867.84,-1651.13 1747,-1651.13 1626.16,-1651.13 1528,-1631.47 1528,-1607.28 1528,-1607.28 1528,-1212.72 1528,-1212.72 1528,-1188.53 1626.16,-1168.87 1747,-1168.87 1867.84,-1168.87 1966,-1188.53 1966,-1212.72 1966,-1212.72 1966,-1607.28 1966,-1607.28"/>
<path fill="none" stroke="#20688c" d="M1966,-1607.28C1966,-1583.09 1867.84,-1563.44 1747,-1563.44 1626.16,-1563.44 1528,-1583.09 1528,-1607.28"/>
<text text-anchor="start" x="1608" y="-1537.3" font-family="Arial" font-size="34.00" fill="#ffffff">Media Blob Cache</text>
<text text-anchor="start" x="1557" y="-1515.3" font-family="Arial" font-size="19.00" fill="#ffffff">[Container: WSL or NAS&#45;mounted filesystem]</text>
<text text-anchor="start" x="1613.5" y="-1478.3" font-family="Arial" font-size="24.00" fill="#ffffff">Bounded and disposable</text>
<text text-anchor="start" x="1602.5" y="-1454.3" font-family="Arial" font-size="24.00" fill="#ffffff">filesystem cache for stored</text>
<text text-anchor="start" x="1581.5" y="-1430.3" font-family="Arial" font-size="24.00" fill="#ffffff">image/video/audio blobs under</text>
<text text-anchor="start" x="1603" y="-1406.3" font-family="Arial" font-size="24.00" fill="#ffffff">the configured WSL&#45;visible</text>
<text text-anchor="start" x="1671.5" y="-1382.3" font-family="Arial" font-size="24.00" fill="#ffffff">blob root, with</text>
<text text-anchor="start" x="1579.5" y="-1358.3" font-family="Arial" font-size="24.00" fill="#ffffff">purge/rehydrate semantics that</text>
<text text-anchor="start" x="1590.5" y="-1334.3" font-family="Arial" font-size="24.00" fill="#ffffff">preserve media refs, hashes,</text>
<text text-anchor="start" x="1574" y="-1310.3" font-family="Arial" font-size="24.00" fill="#ffffff">status reasons, and provenance</text>
<text text-anchor="start" x="1610.5" y="-1286.3" font-family="Arial" font-size="24.00" fill="#ffffff">when bytes are absent or</text>
<text text-anchor="start" x="1705.5" y="-1262.3" font-family="Arial" font-size="24.00" fill="#ffffff">purged.</text>
</g>
<!-- 25&#45;&gt;31 -->
<g id="86" class="edge">
<title>25&#45;&gt;31</title>
<path fill="none" stroke="#444444" stroke-dasharray="5,2" d="M1171.08,-1050.02C1276.53,-1116.04 1408.36,-1198.59 1519.17,-1267.97"/>
<polygon fill="#444444" stroke="#444444" points="1517.45,-1271.03 1527.78,-1273.37 1521.17,-1265.09 1517.45,-1271.03"/>
<polygon fill="white" stroke="transparent" points="1207,-1248 1207,-1299 1492,-1299 1492,-1248 1207,-1248"/>
<text text-anchor="start" x="1211.5" y="-1276.3" font-family="Arial" font-size="24.00" fill="#444444">Counts media blob files in</text>
<text text-anchor="start" x="1298.5" y="-1256.3" font-family="Arial" font-size="19.00" fill="#444444">[Filesystem]</text>
</g>
</g>
</svg>
