<?xml version="1.0" encoding="UTF-8" standalone="no"?>
<!DOCTYPE svg PUBLIC "-//W3C//DTD SVG 1.1//EN"
 "http://www.w3.org/Graphics/SVG/1.1/DTD/svg11.dtd">
<!-- Generated by graphviz version 2.43.0 (0)
 -->
<!-- Title: %3 Pages: 1 -->
<svg width="1564pt" height="1825pt"
 viewBox="0.00 0.00 1564.00 1824.75" xmlns="http://www.w3.org/2000/svg" xmlns:xlink="http://www.w3.org/1999/xlink">
<g id="graph0" class="graph" transform="scale(1 1) rotate(0) translate(4 1820.75)">
<title>%3</title>
<polygon fill="white" stroke="transparent" points="-4,4 -4,-1820.75 1560,-1820.75 1560,4 -4,4"/>
<text text-anchor="start" x="482.5" y="-11.8" font-family="Arial" font-size="34.00">Browser Memory Daemon &#45; Containers</text>
<g id="clust1" class="cluster">
<title>cluster_4</title>
<polygon fill="none" stroke="#444444" points="8,-64 8,-1808.75 1045,-1808.75 1045,-64 8,-64"/>
<text text-anchor="start" x="385.5" y="-92.8" font-family="Arial" font-size="24.00" fill="#444444">Browser Memory Daemon</text>
<text text-anchor="start" x="449.5" y="-72.8" font-family="Arial" font-size="19.00" fill="#444444">[Software System]</text>
</g>
<!-- 2 -->
<g id="2" class="node">
<title>2</title>
<polygon fill="#999999" stroke="#6b6b6b" points="1478,-1096.06 1092,-1096.06 1092,-865.06 1478,-865.06 1478,-1096.06"/>
<text text-anchor="start" x="1150.5" y="-1047.86" font-family="Arial" font-size="34.00" fill="#ffffff">Windows Chrome</text>
<text text-anchor="start" x="1208" y="-1025.86" font-family="Arial" font-size="19.00" fill="#ffffff">[Software System]</text>
<text text-anchor="start" x="1121" y="-988.86" font-family="Arial" font-size="24.00" fill="#ffffff">The Windows Chrome runtime</text>
<text text-anchor="start" x="1134.5" y="-964.86" font-family="Arial" font-size="24.00" fill="#ffffff">that loads web pages, hosts</text>
<text text-anchor="start" x="1134" y="-940.86" font-family="Arial" font-size="24.00" fill="#ffffff">the MV3 extension, runs the</text>
<text text-anchor="start" x="1126" y="-916.86" font-family="Arial" font-size="24.00" fill="#ffffff">local UI in a tab, and exposes</text>
<text text-anchor="start" x="1155.5" y="-892.86" font-family="Arial" font-size="24.00" fill="#ffffff">Chrome extension APIs.</text>
</g>
<!-- 21 -->
<g id="21" class="node">
<title>21</title>
<path fill="#2f95c8" stroke="#20688c" d="M485.5,-1210.78C485.5,-1239.01 383.98,-1261.94 259,-1261.94 134.02,-1261.94 32.5,-1239.01 32.5,-1210.78 32.5,-1210.78 32.5,-750.35 32.5,-750.35 32.5,-722.12 134.02,-699.19 259,-699.19 383.98,-699.19 485.5,-722.12 485.5,-750.35 485.5,-750.35 485.5,-1210.78 485.5,-1210.78"/>
<path fill="none" stroke="#20688c" d="M485.5,-1210.78C485.5,-1182.55 383.98,-1159.62 259,-1159.62 134.02,-1159.62 32.5,-1182.55 32.5,-1210.78"/>
<text text-anchor="start" x="117" y="-1136.86" font-family="Arial" font-size="34.00" fill="#ffffff">Extension Browser</text>
<text text-anchor="start" x="199.5" y="-1102.86" font-family="Arial" font-size="34.00" fill="#ffffff">Storage</text>
<text text-anchor="start" x="61.5" y="-1080.86" font-family="Arial" font-size="19.00" fill="#ffffff">[Container: chrome.storage.local + IndexedDB]</text>
<text text-anchor="start" x="81.5" y="-1043.86" font-family="Arial" font-size="24.00" fill="#ffffff">Browser&#45;side IndexedDB storage</text>
<text text-anchor="start" x="172.5" y="-1019.86" font-family="Arial" font-size="24.00" fill="#ffffff">for transactional</text>
<text text-anchor="start" x="103.5" y="-995.86" font-family="Arial" font-size="24.00" fill="#ffffff">capture/lifecycle outbox rows</text>
<text text-anchor="start" x="93.5" y="-971.86" font-family="Arial" font-size="24.00" fill="#ffffff">plus specialized durable media</text>
<text text-anchor="start" x="195" y="-947.86" font-family="Arial" font-size="24.00" fill="#ffffff">tasks/blobs;</text>
<text text-anchor="start" x="106.5" y="-923.86" font-family="Arial" font-size="24.00" fill="#ffffff">chrome.storage.local retains</text>
<text text-anchor="start" x="107" y="-899.86" font-family="Arial" font-size="24.00" fill="#ffffff">typed configuration, lifecycle</text>
<text text-anchor="start" x="91.5" y="-875.86" font-family="Arial" font-size="24.00" fill="#ffffff">tab state, minimal CDP capture</text>
<text text-anchor="start" x="102.5" y="-851.86" font-family="Arial" font-size="24.00" fill="#ffffff">context, aggregate telemetry,</text>
<text text-anchor="start" x="90.5" y="-827.86" font-family="Arial" font-size="24.00" fill="#ffffff">and one&#45;version queue fallback</text>
<text text-anchor="start" x="234" y="-803.86" font-family="Arial" font-size="24.00" fill="#ffffff">only.</text>
</g>
<!-- 22 -->
<g id="22" class="node">
<title>22</title>
<polygon fill="#438dd5" stroke="#2e6295" points="1020,-1101.06 558,-1101.06 558,-860.06 1020,-860.06 1020,-1101.06"/>
<text text-anchor="start" x="624.5" y="-1052.86" font-family="Arial" font-size="34.00" fill="#ffffff">WSL Loopback HTTP</text>
<text text-anchor="start" x="724.5" y="-1018.86" font-family="Arial" font-size="34.00" fill="#ffffff">Daemon</text>
<text text-anchor="start" x="587" y="-996.86" font-family="Arial" font-size="19.00" fill="#ffffff">[Container: Python 3.11, ThreadingHTTPServer]</text>
<text text-anchor="start" x="623.5" y="-959.86" font-family="Arial" font-size="24.00" fill="#ffffff">Authenticated loopback API for</text>
<text text-anchor="start" x="644.5" y="-935.86" font-family="Arial" font-size="24.00" fill="#ffffff">capture, read/admin/media</text>
<text text-anchor="start" x="645" y="-911.86" font-family="Arial" font-size="24.00" fill="#ffffff">operations, and query&#45;only</text>
<text text-anchor="start" x="626.5" y="-887.86" font-family="Arial" font-size="24.00" fill="#ffffff">bmd.x&#45;observations v1 export.</text>
</g>
<!-- 49 -->
<g id="49" class="node">
<title>49</title>
<path fill="#2f95c8" stroke="#20688c" d="M516,-495.4C516,-513.7 433.08,-528.56 331,-528.56 228.92,-528.56 146,-513.7 146,-495.4 146,-495.4 146,-196.97 146,-196.97 146,-178.67 228.92,-163.81 331,-163.81 433.08,-163.81 516,-178.67 516,-196.97 516,-196.97 516,-495.4 516,-495.4"/>
<path fill="none" stroke="#20688c" d="M516,-495.4C516,-477.11 433.08,-462.24 331,-462.24 228.92,-462.24 146,-477.11 146,-495.4"/>
<text text-anchor="start" x="218" y="-430.49" font-family="Arial" font-size="34.00" fill="#ffffff">SQLite + FTS5</text>
<text text-anchor="start" x="258" y="-396.49" font-family="Arial" font-size="34.00" fill="#ffffff">Database</text>
<text text-anchor="start" x="205" y="-374.49" font-family="Arial" font-size="19.00" fill="#ffffff">[Container: SQLite with FTS5]</text>
<text text-anchor="start" x="211.5" y="-337.49" font-family="Arial" font-size="24.00" fill="#ffffff">Durable text/metadata</text>
<text text-anchor="start" x="180" y="-313.49" font-family="Arial" font-size="24.00" fill="#ffffff">authority including migration</text>
<text text-anchor="start" x="175" y="-289.49" font-family="Arial" font-size="24.00" fill="#ffffff">ledger, capture observations,</text>
<text text-anchor="start" x="185" y="-265.49" font-family="Arial" font-size="24.00" fill="#ffffff">and immutable observation</text>
<text text-anchor="start" x="233" y="-241.49" font-family="Arial" font-size="24.00" fill="#ffffff">ingest sequences.</text>
</g>
<!-- 22&#45;&gt;49 -->
<g id="71" class="edge">
<title>22&#45;&gt;49</title>
<path fill="none" stroke="#707070" stroke-dasharray="5,2" d="M687.98,-859.89C640.33,-807.29 580.87,-746.84 521,-699.38 496.33,-679.82 480.58,-687.2 460,-663.38 428.7,-627.14 404.31,-582.31 385.59,-537.9"/>
<polygon fill="#707070" stroke="#707070" points="388.73,-536.34 381.68,-528.43 382.26,-539.01 388.73,-536.34"/>
<polygon fill="white" stroke="transparent" points="460,-564.38 460,-663.38 770,-663.38 770,-564.38 460,-564.38"/>
<text text-anchor="start" x="464" y="-640.67" font-family="Arial" font-size="24.00" fill="#707070">Reads and writes metadata,</text>
<text text-anchor="start" x="497" y="-616.67" font-family="Arial" font-size="24.00" fill="#707070">FTS, tasks, audit, and</text>
<text text-anchor="start" x="559.5" y="-592.67" font-family="Arial" font-size="24.00" fill="#707070">receipts in</text>
<text text-anchor="start" x="581.5" y="-572.67" font-family="Arial" font-size="19.00" fill="#707070">[sqlite3]</text>
</g>
<!-- 50 -->
<g id="50" class="node">
<title>50</title>
<path fill="#2f95c8" stroke="#20688c" d="M983.5,-495.4C983.5,-513.7 894.98,-528.56 786,-528.56 677.02,-528.56 588.5,-513.7 588.5,-495.4 588.5,-495.4 588.5,-196.97 588.5,-196.97 588.5,-178.67 677.02,-163.81 786,-163.81 894.98,-163.81 983.5,-178.67 983.5,-196.97 983.5,-196.97 983.5,-495.4 983.5,-495.4"/>
<path fill="none" stroke="#20688c" d="M983.5,-495.4C983.5,-477.11 894.98,-462.24 786,-462.24 677.02,-462.24 588.5,-477.11 588.5,-495.4"/>
<text text-anchor="start" x="664.5" y="-430.49" font-family="Arial" font-size="34.00" fill="#ffffff">Local Derivative</text>
<text text-anchor="start" x="745" y="-396.49" font-family="Arial" font-size="34.00" fill="#ffffff">Store</text>
<text text-anchor="start" x="646" y="-374.49" font-family="Arial" font-size="19.00" fill="#ffffff">[Container: WSL local filesystem]</text>
<text text-anchor="start" x="632.5" y="-337.49" font-family="Arial" font-size="24.00" fill="#ffffff">Reconstructible compatibility</text>
<text text-anchor="start" x="617.5" y="-313.49" font-family="Arial" font-size="24.00" fill="#ffffff">evidence such as pre&#45;version&#45;9</text>
<text text-anchor="start" x="656" y="-289.49" font-family="Arial" font-size="24.00" fill="#ffffff">clean&#45;text sidecars; new</text>
<text text-anchor="start" x="662.5" y="-265.49" font-family="Arial" font-size="24.00" fill="#ffffff">captures create no text</text>
<text text-anchor="start" x="737.5" y="-241.49" font-family="Arial" font-size="24.00" fill="#ffffff">sidecars.</text>
</g>
<!-- 22&#45;&gt;50 -->
<g id="72" class="edge">
<title>22&#45;&gt;50</title>
<path fill="none" stroke="#707070" stroke-dasharray="5,2" d="M788.43,-859.87C788,-769.34 787.4,-643.19 786.91,-538.68"/>
<polygon fill="#707070" stroke="#707070" points="790.41,-538.62 786.86,-528.64 783.41,-538.66 790.41,-538.62"/>
<polygon fill="white" stroke="transparent" points="788,-564.38 788,-663.38 1056,-663.38 1056,-564.38 788,-564.38"/>
<text text-anchor="start" x="792" y="-640.67" font-family="Arial" font-size="24.00" fill="#707070">Reads or deletes legacy</text>
<text text-anchor="start" x="821.5" y="-616.67" font-family="Arial" font-size="24.00" fill="#707070">text sidecars when</text>
<text text-anchor="start" x="877" y="-592.67" font-family="Arial" font-size="24.00" fill="#707070">required</text>
<text text-anchor="start" x="870.5" y="-572.67" font-family="Arial" font-size="19.00" fill="#707070">[Filesystem]</text>
</g>
<!-- 5 -->
<g id="5" class="node">
<title>5</title>
<polygon fill="#438dd5" stroke="#2e6295" points="742,-1783.75 308,-1783.75 308,-1504.75 742,-1504.75 742,-1783.75"/>
<text text-anchor="start" x="345" y="-1735.55" font-family="Arial" font-size="34.00" fill="#ffffff">Chrome MV3 Extension</text>
<text text-anchor="start" x="337" y="-1713.55" font-family="Arial" font-size="19.00" fill="#ffffff">[Container: JavaScript, Chrome Manifest V3]</text>
<text text-anchor="start" x="382" y="-1676.55" font-family="Arial" font-size="24.00" fill="#ffffff">Captures visible page text,</text>
<text text-anchor="start" x="407.5" y="-1652.55" font-family="Arial" font-size="24.00" fill="#ffffff">media references, tab</text>
<text text-anchor="start" x="416" y="-1628.55" font-family="Arial" font-size="24.00" fill="#ffffff">lifecycle events, and</text>
<text text-anchor="start" x="359" y="-1604.55" font-family="Arial" font-size="24.00" fill="#ffffff">browser&#45;side media bytes from</text>
<text text-anchor="start" x="354" y="-1580.55" font-family="Arial" font-size="24.00" fill="#ffffff">Windows Chrome; queues work</text>
<text text-anchor="start" x="366" y="-1556.55" font-family="Arial" font-size="24.00" fill="#ffffff">durably and posts to the WSL</text>
<text text-anchor="start" x="477.5" y="-1532.55" font-family="Arial" font-size="24.00" fill="#ffffff">daemon.</text>
</g>
<!-- 5&#45;&gt;2 -->
<g id="59" class="edge">
<title>5&#45;&gt;2</title>
<path fill="none" stroke="#707070" stroke-dasharray="5,2" d="M742.31,-1608.91C905.44,-1578.78 1110.49,-1530.22 1170,-1468.75 1263.06,-1372.63 1285.78,-1215.94 1289.11,-1106.28"/>
<polygon fill="#707070" stroke="#707070" points="1292.61,-1106.24 1289.37,-1096.15 1285.61,-1106.06 1292.61,-1106.24"/>
<polygon fill="white" stroke="transparent" points="1259,-1333.75 1259,-1432.75 1556,-1432.75 1556,-1333.75 1259,-1333.75"/>
<text text-anchor="start" x="1305" y="-1410.05" font-family="Arial" font-size="24.00" fill="#707070">Uses tab, scripting,</text>
<text text-anchor="start" x="1263.5" y="-1386.05" font-family="Arial" font-size="24.00" fill="#707070">storage, alarms, debugger,</text>
<text text-anchor="start" x="1288" y="-1362.05" font-family="Arial" font-size="24.00" fill="#707070">and runtime APIs from</text>
<text text-anchor="start" x="1303" y="-1342.05" font-family="Arial" font-size="19.00" fill="#707070">[Chrome extension APIs]</text>
</g>
<!-- 5&#45;&gt;21 -->
<g id="61" class="edge">
<title>5&#45;&gt;21</title>
<path fill="none" stroke="#707070" stroke-dasharray="5,2" d="M307.94,-1522.88C291.86,-1506.62 277.75,-1488.6 267,-1468.75 234.91,-1409.49 222.02,-1339.94 219.49,-1272.24"/>
<polygon fill="#707070" stroke="#707070" points="222.97,-1271.72 219.18,-1261.83 215.97,-1271.93 222.97,-1271.72"/>
<polygon fill="white" stroke="transparent" points="267,-1297.75 267,-1468.75 578,-1468.75 578,-1297.75 267,-1297.75"/>
<text text-anchor="start" x="304" y="-1446.05" font-family="Arial" font-size="24.00" fill="#707070">Persists configuration,</text>
<text text-anchor="start" x="326.5" y="-1422.05" font-family="Arial" font-size="24.00" fill="#707070">lifecycle tab state,</text>
<text text-anchor="start" x="312" y="-1398.05" font-family="Arial" font-size="24.00" fill="#707070">aggregate telemetry,</text>
<text text-anchor="start" x="296.5" y="-1374.05" font-family="Arial" font-size="24.00" fill="#707070">capture/lifecycle outbox</text>
<text text-anchor="start" x="299" y="-1350.05" font-family="Arial" font-size="24.00" fill="#707070">rows, media tasks, and</text>
<text text-anchor="start" x="381" y="-1326.05" font-family="Arial" font-size="24.00" fill="#707070">blobs in</text>
<text text-anchor="start" x="271.5" y="-1306.05" font-family="Arial" font-size="19.00" fill="#707070">[chrome.storage.local + IndexedDB]</text>
</g>
<!-- 5&#45;&gt;22 -->
<g id="62" class="edge">
<title>5&#45;&gt;22</title>
<path fill="none" stroke="#707070" stroke-dasharray="5,2" d="M580.34,-1504.54C626.67,-1388.43 692.27,-1224.01 737.49,-1110.67"/>
<polygon fill="#707070" stroke="#707070" points="740.8,-1111.82 741.25,-1101.24 734.3,-1109.23 740.8,-1111.82"/>
<polygon fill="white" stroke="transparent" points="657,-1321.75 657,-1444.75 1152,-1444.75 1152,-1321.75 657,-1321.75"/>
<text text-anchor="start" x="824" y="-1422.05" font-family="Arial" font-size="24.00" fill="#707070">Posts /capture,</text>
<text text-anchor="start" x="801" y="-1398.05" font-family="Arial" font-size="24.00" fill="#707070">/visit&#45;events, media</text>
<text text-anchor="start" x="778" y="-1374.05" font-family="Arial" font-size="24.00" fill="#707070">metadata, and raw blob</text>
<text text-anchor="start" x="849" y="-1350.05" font-family="Arial" font-size="24.00" fill="#707070">uploads to</text>
<text text-anchor="start" x="661.5" y="-1330.05" font-family="Arial" font-size="19.00" fill="#707070">[Bearer HTTP/JSON; raw HTTP PUT over 127.0.0.1:8765]</text>
</g>
</g>
</svg>
