<?xml version="1.0" encoding="UTF-8" standalone="no"?>
<!DOCTYPE svg PUBLIC "-//W3C//DTD SVG 1.1//EN"
 "http://www.w3.org/Graphics/SVG/1.1/DTD/svg11.dtd">
<!-- Generated by graphviz version 2.43.0 (0)
 -->
<!-- Title: %3 Pages: 1 -->
<svg width="1353pt" height="1552pt"
 viewBox="0.00 0.00 1353.00 1551.50" xmlns="http://www.w3.org/2000/svg" xmlns:xlink="http://www.w3.org/1999/xlink">
<g id="graph0" class="graph" transform="scale(1 1) rotate(0) translate(4 1547.5)">
<title>%3</title>
<polygon fill="white" stroke="transparent" points="-4,4 -4,-1547.5 1349,-1547.5 1349,4 -4,4"/>
<text text-anchor="start" x="357" y="-11.8" font-family="Arial" font-size="34.00">Dynamic View: Browser Memory Daemon</text>
<g id="clust1" class="cluster">
<title>cluster_4</title>
<polygon fill="none" stroke="#444444" points="8,-346.5 8,-1535.5 1337,-1535.5 1337,-346.5 8,-346.5"/>
<text text-anchor="start" x="531.5" y="-375.3" font-family="Arial" font-size="24.00" fill="#444444">Browser Memory Daemon</text>
<text text-anchor="start" x="595.5" y="-355.3" font-family="Arial" font-size="19.00" fill="#444444">[Software System]</text>
</g>
<!-- 30 -->
<g id="30" class="node">
<title>30</title>
<polygon fill="#438dd5" stroke="#2e6295" points="387,-814 33,-814 33,-511 387,-511 387,-814"/>
<text text-anchor="start" x="63" y="-765.8" font-family="Arial" font-size="34.00" fill="#ffffff">WSL Media Worker</text>
<text text-anchor="start" x="70" y="-743.8" font-family="Arial" font-size="19.00" fill="#ffffff">[Container: Python 3.11 CLI loop]</text>
<text text-anchor="start" x="62.5" y="-706.8" font-family="Arial" font-size="24.00" fill="#ffffff">Long&#45;running systemd user</text>
<text text-anchor="start" x="111.5" y="-682.8" font-family="Arial" font-size="24.00" fill="#ffffff">worker that leases</text>
<text text-anchor="start" x="64" y="-658.8" font-family="Arial" font-size="24.00" fill="#ffffff">daemon&#45;public media fetch</text>
<text text-anchor="start" x="101" y="-634.8" font-family="Arial" font-size="24.00" fill="#ffffff">tasks, fetches public</text>
<text text-anchor="start" x="62" y="-610.8" font-family="Arial" font-size="24.00" fill="#ffffff">media/HLS without Chrome</text>
<text text-anchor="start" x="67" y="-586.8" font-family="Arial" font-size="24.00" fill="#ffffff">cookies, classifies terminal</text>
<text text-anchor="start" x="64" y="-562.8" font-family="Arial" font-size="24.00" fill="#ffffff">states, and updates artifact</text>
<text text-anchor="start" x="181" y="-538.8" font-family="Arial" font-size="24.00" fill="#ffffff">rows.</text>
</g>
<!-- 34 -->
<g id="34" class="node">
<title>34</title>
<path fill="#2f95c8" stroke="#20688c" d="M1237.5,-957.72C1237.5,-985.94 1148.98,-1008.88 1040,-1008.88 931.02,-1008.88 842.5,-985.94 842.5,-957.72 842.5,-957.72 842.5,-497.28 842.5,-497.28 842.5,-469.06 931.02,-446.12 1040,-446.12 1148.98,-446.12 1237.5,-469.06 1237.5,-497.28 1237.5,-497.28 1237.5,-957.72 1237.5,-957.72"/>
<path fill="none" stroke="#20688c" d="M1237.5,-957.72C1237.5,-929.49 1148.98,-906.56 1040,-906.56 931.02,-906.56 842.5,-929.49 842.5,-957.72"/>
<text text-anchor="start" x="927" y="-883.8" font-family="Arial" font-size="34.00" fill="#ffffff">SQLite + FTS5</text>
<text text-anchor="start" x="967" y="-849.8" font-family="Arial" font-size="34.00" fill="#ffffff">Database</text>
<text text-anchor="start" x="914" y="-827.8" font-family="Arial" font-size="19.00" fill="#ffffff">[Container: SQLite with FTS5]</text>
<text text-anchor="start" x="872" y="-790.8" font-family="Arial" font-size="24.00" fill="#ffffff">Durable complete cleaned&#45;text,</text>
<text text-anchor="start" x="921" y="-766.8" font-family="Arial" font-size="24.00" fill="#ffffff">relational, and full&#45;text</text>
<text text-anchor="start" x="922.5" y="-742.8" font-family="Arial" font-size="24.00" fill="#ffffff">authority for migration</text>
<text text-anchor="start" x="888" y="-718.8" font-family="Arial" font-size="24.00" fill="#ffffff">ledger, sources, documents,</text>
<text text-anchor="start" x="890.5" y="-694.8" font-family="Arial" font-size="24.00" fill="#ffffff">visits, capture observations,</text>
<text text-anchor="start" x="909" y="-670.8" font-family="Arial" font-size="24.00" fill="#ffffff">URL claims, visit events,</text>
<text text-anchor="start" x="871.5" y="-646.8" font-family="Arial" font-size="24.00" fill="#ffffff">snapshots, chunks, chunks_fts,</text>
<text text-anchor="start" x="879" y="-622.8" font-family="Arial" font-size="24.00" fill="#ffffff">media provenance/tasks, blob</text>
<text text-anchor="start" x="915.5" y="-598.8" font-family="Arial" font-size="24.00" fill="#ffffff">lifecycle records, policy</text>
<text text-anchor="start" x="914.5" y="-574.8" font-family="Arial" font-size="24.00" fill="#ffffff">rules, audit events, and</text>
<text text-anchor="start" x="948" y="-550.8" font-family="Arial" font-size="24.00" fill="#ffffff">deletion receipts.</text>
</g>
<!-- 30&#45;&gt;34 -->
<g id="59" class="edge">
<title>30&#45;&gt;34</title>
<path fill="none" stroke="#444444" stroke-dasharray="5,2" d="M387.26,-600.58C399.26,-597.78 411.24,-595.36 423,-593.5 558.64,-571.98 597.56,-565.44 732,-593.5 765.42,-600.48 799.66,-611.3 832.58,-623.84"/>
<polygon fill="#444444" stroke="#444444" points="831.7,-627.25 842.28,-627.6 834.22,-620.72 831.7,-627.25"/>
<polygon fill="white" stroke="transparent" points="472.5,-593.5 472.5,-692.5 682.5,-692.5 682.5,-593.5 472.5,-593.5"/>
<text text-anchor="start" x="503.5" y="-669.8" font-family="Arial" font-size="24.00" fill="#444444">1. Claims due</text>
<text text-anchor="start" x="497.5" y="-645.8" font-family="Arial" font-size="24.00" fill="#444444">daemon&#45;public</text>
<text text-anchor="start" x="476.5" y="-621.8" font-family="Arial" font-size="24.00" fill="#444444">media_fetch_tasks</text>
<text text-anchor="start" x="544" y="-601.8" font-family="Arial" font-size="19.00" fill="#444444">[sqlite3]</text>
</g>
<!-- 30&#45;&gt;34 -->
<g id="59" class="edge">
<title>30&#45;&gt;34</title>
<path fill="none" stroke="#444444" stroke-dasharray="5,2" d="M387.04,-701.41C399.17,-703.36 411.24,-705.09 423,-706.5 558.76,-722.78 712.47,-728.04 832.38,-729.23"/>
<polygon fill="#444444" stroke="#444444" points="832.38,-732.73 842.42,-729.32 832.45,-725.73 832.38,-732.73"/>
<polygon fill="white" stroke="transparent" points="440.5,-726.5 440.5,-849.5 714.5,-849.5 714.5,-726.5 440.5,-726.5"/>
<text text-anchor="start" x="465.5" y="-826.8" font-family="Arial" font-size="24.00" fill="#444444">4. Marks task/artifact</text>
<text text-anchor="start" x="444.5" y="-802.8" font-family="Arial" font-size="24.00" fill="#444444">stored, retrying, skipped,</text>
<text text-anchor="start" x="463" y="-778.8" font-family="Arial" font-size="24.00" fill="#444444">expired, or failed with</text>
<text text-anchor="start" x="540" y="-754.8" font-family="Arial" font-size="24.00" fill="#444444">reason</text>
<text text-anchor="start" x="544" y="-734.8" font-family="Arial" font-size="19.00" fill="#444444">[sqlite3]</text>
</g>
<!-- 36 -->
<g id="36" class="node">
<title>36</title>
<path fill="#2f95c8" stroke="#20688c" d="M1312,-1471.72C1312,-1493.32 1190.09,-1510.88 1040,-1510.88 889.91,-1510.88 768,-1493.32 768,-1471.72 768,-1471.72 768,-1119.28 768,-1119.28 768,-1097.68 889.91,-1080.12 1040,-1080.12 1190.09,-1080.12 1312,-1097.68 1312,-1119.28 1312,-1119.28 1312,-1471.72 1312,-1471.72"/>
<path fill="none" stroke="#20688c" d="M1312,-1471.72C1312,-1450.11 1190.09,-1432.56 1040,-1432.56 889.91,-1432.56 768,-1450.11 768,-1471.72"/>
<text text-anchor="start" x="884.5" y="-1403.8" font-family="Arial" font-size="34.00" fill="#ffffff">Guarded Media Blob</text>
<text text-anchor="start" x="990.5" y="-1369.8" font-family="Arial" font-size="34.00" fill="#ffffff">Cache</text>
<text text-anchor="start" x="797" y="-1347.8" font-family="Arial" font-size="19.00" fill="#ffffff">[Container: WSL&#45;visible local or NAS&#45;mounted filesystem]</text>
<text text-anchor="start" x="930" y="-1310.8" font-family="Arial" font-size="24.00" fill="#ffffff">Bounded disposable</text>
<text text-anchor="start" x="874.5" y="-1286.8" font-family="Arial" font-size="24.00" fill="#ffffff">image/video/audio bytes under</text>
<text text-anchor="start" x="898.5" y="-1262.8" font-family="Arial" font-size="24.00" fill="#ffffff">the configured media root;</text>
<text text-anchor="start" x="926" y="-1238.8" font-family="Arial" font-size="24.00" fill="#ffffff">explicit external roots</text>
<text text-anchor="start" x="941" y="-1214.8" font-family="Arial" font-size="24.00" fill="#ffffff">require mount and</text>
<text text-anchor="start" x="890.5" y="-1190.8" font-family="Arial" font-size="24.00" fill="#ffffff">identity&#45;marker proof before</text>
<text text-anchor="start" x="999" y="-1166.8" font-family="Arial" font-size="24.00" fill="#ffffff">access.</text>
</g>
<!-- 30&#45;&gt;36 -->
<g id="64" class="edge">
<title>30&#45;&gt;36</title>
<path fill="none" stroke="#444444" stroke-dasharray="5,2" d="M362.01,-814.17C382.08,-832.63 402.73,-850.84 423,-867.5 528.77,-954.43 651.57,-1042.15 759.56,-1115.34"/>
<polygon fill="#444444" stroke="#444444" points="757.72,-1118.33 767.97,-1121.03 761.64,-1112.53 757.72,-1118.33"/>
<polygon fill="white" stroke="transparent" points="423,-1087.5 423,-1186.5 732,-1186.5 732,-1087.5 423,-1087.5"/>
<text text-anchor="start" x="472.5" y="-1163.8" font-family="Arial" font-size="24.00" fill="#444444">3. Writes fetched or</text>
<text text-anchor="start" x="427.5" y="-1139.8" font-family="Arial" font-size="24.00" fill="#444444">assembled blob when gates</text>
<text text-anchor="start" x="550.5" y="-1115.8" font-family="Arial" font-size="24.00" fill="#444444">allow</text>
<text text-anchor="start" x="526.5" y="-1095.8" font-family="Arial" font-size="19.00" fill="#444444">[Filesystem]</text>
</g>
<!-- 3 -->
<g id="3" class="node">
<title>3</title>
<polygon fill="#999999" stroke="#6b6b6b" points="1241.5,-321 838.5,-321 838.5,-56 1241.5,-56 1241.5,-321"/>
<text text-anchor="start" x="878.5" y="-272.8" font-family="Arial" font-size="34.00" fill="#ffffff">Web Sites and Media</text>
<text text-anchor="start" x="986" y="-238.8" font-family="Arial" font-size="34.00" fill="#ffffff">Origins</text>
<text text-anchor="start" x="963" y="-216.8" font-family="Arial" font-size="19.00" fill="#ffffff">[Software System]</text>
<text text-anchor="start" x="930" y="-179.8" font-family="Arial" font-size="24.00" fill="#ffffff">External web pages,</text>
<text text-anchor="start" x="877.5" y="-155.8" font-family="Arial" font-size="24.00" fill="#ffffff">image/video URLs, and media</text>
<text text-anchor="start" x="867.5" y="-131.8" font-family="Arial" font-size="24.00" fill="#ffffff">CDNs that Chrome loads or that</text>
<text text-anchor="start" x="877.5" y="-107.8" font-family="Arial" font-size="24.00" fill="#ffffff">sidecars fetch as page&#45;related</text>
<text text-anchor="start" x="1003.5" y="-83.8" font-family="Arial" font-size="24.00" fill="#ffffff">media.</text>
</g>
<!-- 30&#45;&gt;3 -->
<g id="63" class="edge">
<title>30&#45;&gt;3</title>
<path fill="none" stroke="#444444" stroke-dasharray="5,2" d="M354.58,-510.8C376.48,-491.57 399.6,-473.17 423,-457.5 548.68,-373.32 705.02,-305.42 828.74,-258.9"/>
<polygon fill="#444444" stroke="#444444" points="830.2,-262.09 838.34,-255.31 827.75,-255.53 830.2,-262.09"/>
<polygon fill="white" stroke="transparent" points="423.5,-457.5 423.5,-556.5 731.5,-556.5 731.5,-457.5 423.5,-457.5"/>
<text text-anchor="start" x="435" y="-533.8" font-family="Arial" font-size="24.00" fill="#444444">2. Fetches public media or</text>
<text text-anchor="start" x="427.5" y="-509.8" font-family="Arial" font-size="24.00" fill="#444444">HLS assets without Chrome</text>
<text text-anchor="start" x="536.5" y="-485.8" font-family="Arial" font-size="24.00" fill="#444444">cookies</text>
<text text-anchor="start" x="485.5" y="-465.8" font-family="Arial" font-size="19.00" fill="#444444">[HTTP(S), data URLs]</text>
</g>
</g>
</svg>
