<?xml version="1.0" encoding="UTF-8" standalone="no"?>
<!DOCTYPE svg PUBLIC "-//W3C//DTD SVG 1.1//EN"
 "http://www.w3.org/Graphics/SVG/1.1/DTD/svg11.dtd">
<!-- Generated by graphviz version 2.43.0 (0)
 -->
<!-- Title: %3 Pages: 1 -->
<svg width="1216pt" height="766pt"
 viewBox="0.00 0.00 1216.00 765.69" xmlns="http://www.w3.org/2000/svg" xmlns:xlink="http://www.w3.org/1999/xlink">
<g id="graph0" class="graph" transform="scale(1 1) rotate(0) translate(4 761.69)">
<title>%3</title>
<polygon fill="white" stroke="transparent" points="-4,4 -4,-761.69 1212,-761.69 1212,4 -4,4"/>
<text text-anchor="start" x="252.5" y="-11.8" font-family="Arial" font-size="34.00">Browser Memory Daemon &#45; CLI &#45; Components</text>
<g id="clust1" class="cluster">
<title>cluster_51</title>
<polygon fill="none" stroke="#444444" points="8,-188.19 8,-601.19 448,-601.19 448,-188.19 8,-188.19"/>
<text text-anchor="start" x="209" y="-216.99" font-family="Arial" font-size="24.00" fill="#444444">CLI</text>
<text text-anchor="start" x="107" y="-196.99" font-family="Arial" font-size="19.00" fill="#444444">[Container: Python argparse]</text>
</g>
<!-- 4 -->
<g id="4" class="node">
<title>4</title>
<polygon fill="#999999" stroke="#6b6b6b" points="1208,-757.69 805,-757.69 805,-492.69 1208,-492.69 1208,-757.69"/>
<text text-anchor="start" x="834" y="-709.49" font-family="Arial" font-size="34.00" fill="#ffffff">Passive X Observation</text>
<text text-anchor="start" x="928" y="-675.49" font-family="Arial" font-size="34.00" fill="#ffffff">Consumer</text>
<text text-anchor="start" x="929.5" y="-653.49" font-family="Arial" font-size="19.00" fill="#ffffff">[Software System]</text>
<text text-anchor="start" x="841" y="-616.49" font-family="Arial" font-size="24.00" fill="#ffffff">A downstream local integration</text>
<text text-anchor="start" x="839.5" y="-592.49" font-family="Arial" font-size="24.00" fill="#ffffff">that reads versioned body&#45;safe</text>
<text text-anchor="start" x="865.5" y="-568.49" font-family="Arial" font-size="24.00" fill="#ffffff">observation pages without</text>
<text text-anchor="start" x="849" y="-544.49" font-family="Arial" font-size="24.00" fill="#ffffff">gaining capture, migration, or</text>
<text text-anchor="start" x="907" y="-520.49" font-family="Arial" font-size="24.00" fill="#ffffff">mutation authority.</text>
</g>
<!-- 57 -->
<g id="57" class="node">
<title>57</title>
<path fill="#2f95c8" stroke="#20688c" d="M1191.5,-387.4C1191.5,-405.7 1108.58,-420.56 1006.5,-420.56 904.42,-420.56 821.5,-405.7 821.5,-387.4 821.5,-387.4 821.5,-88.97 821.5,-88.97 821.5,-70.67 904.42,-55.81 1006.5,-55.81 1108.58,-55.81 1191.5,-70.67 1191.5,-88.97 1191.5,-88.97 1191.5,-387.4 1191.5,-387.4"/>
<path fill="none" stroke="#20688c" d="M1191.5,-387.4C1191.5,-369.11 1108.58,-354.24 1006.5,-354.24 904.42,-354.24 821.5,-369.11 821.5,-387.4"/>
<text text-anchor="start" x="893.5" y="-322.49" font-family="Arial" font-size="34.00" fill="#ffffff">SQLite + FTS5</text>
<text text-anchor="start" x="933.5" y="-288.49" font-family="Arial" font-size="34.00" fill="#ffffff">Database</text>
<text text-anchor="start" x="880.5" y="-266.49" font-family="Arial" font-size="19.00" fill="#ffffff">[Container: SQLite with FTS5]</text>
<text text-anchor="start" x="887" y="-229.49" font-family="Arial" font-size="24.00" fill="#ffffff">Durable text/metadata</text>
<text text-anchor="start" x="855.5" y="-205.49" font-family="Arial" font-size="24.00" fill="#ffffff">authority including migration</text>
<text text-anchor="start" x="850.5" y="-181.49" font-family="Arial" font-size="24.00" fill="#ffffff">ledger, capture observations,</text>
<text text-anchor="start" x="860.5" y="-157.49" font-family="Arial" font-size="24.00" fill="#ffffff">and immutable observation</text>
<text text-anchor="start" x="908.5" y="-133.49" font-family="Arial" font-size="24.00" fill="#ffffff">ingest sequences.</text>
</g>
<!-- 52 -->
<g id="52" class="node">
<title>52</title>
<polygon fill="#85bbf0" stroke="#1168bd" points="423,-576.69 33,-576.69 33,-287.69 423,-287.69 423,-576.69"/>
<text text-anchor="start" x="88.5" y="-528.49" font-family="Arial" font-size="34.00" fill="#000000">CLI X Observation</text>
<text text-anchor="start" x="115.5" y="-494.49" font-family="Arial" font-size="34.00" fill="#000000">Export Adapter</text>
<text text-anchor="start" x="100" y="-472.49" font-family="Arial" font-size="19.00" fill="#000000">[Component: Python + sqlite3]</text>
<text text-anchor="start" x="74.5" y="-435.49" font-family="Arial" font-size="24.00" fill="#000000">Opens the existing database</text>
<text text-anchor="start" x="84" y="-411.49" font-family="Arial" font-size="24.00" fill="#000000">directly through the shared</text>
<text text-anchor="start" x="65.5" y="-387.49" font-family="Arial" font-size="24.00" fill="#000000">query&#45;only export core without</text>
<text text-anchor="start" x="62" y="-363.49" font-family="Arial" font-size="24.00" fill="#000000">daemon readiness, migrations,</text>
<text text-anchor="start" x="76.5" y="-339.49" font-family="Arial" font-size="24.00" fill="#000000">token requirements, or audit</text>
<text text-anchor="start" x="193" y="-315.49" font-family="Arial" font-size="24.00" fill="#000000">writes.</text>
</g>
<!-- 52&#45;&gt;4 -->
<g id="194" class="edge">
<title>52&#45;&gt;4</title>
<path fill="none" stroke="#707070" stroke-dasharray="5,2" d="M423.19,-480.45C536.36,-508.58 679.13,-544.07 794.98,-572.86"/>
<polygon fill="#707070" stroke="#707070" points="794.14,-576.26 804.69,-575.28 795.83,-569.47 794.14,-576.26"/>
<polygon fill="white" stroke="transparent" points="460,-562.19 460,-661.19 768,-661.19 768,-562.19 460,-562.19"/>
<text text-anchor="start" x="529" y="-638.49" font-family="Arial" font-size="24.00" fill="#707070">Emits losslessly</text>
<text text-anchor="start" x="464" y="-614.49" font-family="Arial" font-size="24.00" fill="#707070">cursorable body&#45;safe pages</text>
<text text-anchor="start" x="599.5" y="-590.49" font-family="Arial" font-size="24.00" fill="#707070">for</text>
<text text-anchor="start" x="554.5" y="-570.49" font-family="Arial" font-size="19.00" fill="#707070">[JSON stdout]</text>
</g>
<!-- 52&#45;&gt;57 -->
<g id="193" class="edge">
<title>52&#45;&gt;57</title>
<path fill="none" stroke="#707070" stroke-dasharray="5,2" d="M423.19,-383.67C541.82,-354.03 692.98,-316.27 811.56,-286.64"/>
<polygon fill="#707070" stroke="#707070" points="812.63,-289.98 821.49,-284.16 810.94,-283.19 812.63,-289.98"/>
<polygon fill="white" stroke="transparent" points="459,-369.19 459,-468.19 769,-468.19 769,-369.19 459,-369.19"/>
<text text-anchor="start" x="527" y="-445.49" font-family="Arial" font-size="24.00" fill="#707070">Reads validated</text>
<text text-anchor="start" x="463" y="-421.49" font-family="Arial" font-size="24.00" fill="#707070">observation/evidence pages</text>
<text text-anchor="start" x="496.5" y="-397.49" font-family="Arial" font-size="24.00" fill="#707070">without writes or audit</text>
<text text-anchor="start" x="481.5" y="-377.49" font-family="Arial" font-size="19.00" fill="#707070">[SQLite mode=ro + query_only]</text>
</g>
</g>
</svg>
