<?xml version="1.0" encoding="UTF-8" standalone="no"?>
<!DOCTYPE svg PUBLIC "-//W3C//DTD SVG 1.1//EN"
 "http://www.w3.org/Graphics/SVG/1.1/DTD/svg11.dtd">
<!-- Generated by graphviz version 2.43.0 (0)
 -->
<!-- Title: %3 Pages: 1 -->
<svg width="2945pt" height="879pt"
 viewBox="0.00 0.00 2945.00 879.00" xmlns="http://www.w3.org/2000/svg" xmlns:xlink="http://www.w3.org/1999/xlink">
<g id="graph0" class="graph" transform="scale(1 1) rotate(0) translate(4 875)">
<title>%3</title>
<polygon fill="white" stroke="transparent" points="-4,4 -4,-875 2941,-875 2941,4 -4,4"/>
<text text-anchor="start" x="1134.5" y="-11.8" font-family="Arial" font-size="34.00">Browser Memory Daemon &#45; System Context</text>
<!-- 1 -->
<g id="1" class="node">
<title>1</title>
<polygon fill="#08427b" stroke="#052e56" points="335,-741 0,-741 0,-510 335,-510 335,-741"/>
<text text-anchor="start" x="100.5" y="-692.8" font-family="Arial" font-size="34.00" fill="#ffffff">Operator</text>
<text text-anchor="start" x="132" y="-670.8" font-family="Arial" font-size="19.00" fill="#ffffff">[Person]</text>
<text text-anchor="start" x="41" y="-633.8" font-family="Arial" font-size="24.00" fill="#ffffff">Sole local operator who</text>
<text text-anchor="start" x="45.5" y="-609.8" font-family="Arial" font-size="24.00" fill="#ffffff">browses with Windows</text>
<text text-anchor="start" x="44.5" y="-585.8" font-family="Arial" font-size="24.00" fill="#ffffff">Chrome and searches,</text>
<text text-anchor="start" x="29" y="-561.8" font-family="Arial" font-size="24.00" fill="#ffffff">reviews, and deletes local</text>
<text text-anchor="start" x="29" y="-537.8" font-family="Arial" font-size="24.00" fill="#ffffff">browser&#45;memory records.</text>
</g>
<!-- 2 -->
<g id="2" class="node">
<title>2</title>
<polygon fill="#999999" stroke="#6b6b6b" points="2006,-871 1620,-871 1620,-640 2006,-640 2006,-871"/>
<text text-anchor="start" x="1678.5" y="-822.8" font-family="Arial" font-size="34.00" fill="#ffffff">Windows Chrome</text>
<text text-anchor="start" x="1736" y="-800.8" font-family="Arial" font-size="19.00" fill="#ffffff">[Software System]</text>
<text text-anchor="start" x="1649" y="-763.8" font-family="Arial" font-size="24.00" fill="#ffffff">The Windows Chrome runtime</text>
<text text-anchor="start" x="1662.5" y="-739.8" font-family="Arial" font-size="24.00" fill="#ffffff">that loads web pages, hosts</text>
<text text-anchor="start" x="1662" y="-715.8" font-family="Arial" font-size="24.00" fill="#ffffff">the MV3 extension, runs the</text>
<text text-anchor="start" x="1654" y="-691.8" font-family="Arial" font-size="24.00" fill="#ffffff">local UI in a tab, and exposes</text>
<text text-anchor="start" x="1683.5" y="-667.8" font-family="Arial" font-size="24.00" fill="#ffffff">Chrome extension APIs.</text>
</g>
<!-- 1&#45;&gt;2 -->
<g id="63" class="edge">
<title>1&#45;&gt;2</title>
<path fill="none" stroke="#707070" stroke-dasharray="5,2" d="M335,-683.67C347.09,-686.69 359.18,-689.35 371,-691.5 807.1,-770.73 1329.02,-771 1609.61,-763.61"/>
<polygon fill="#707070" stroke="#707070" points="1610,-767.1 1619.9,-763.34 1609.81,-760.11 1610,-767.1"/>
<polygon fill="white" stroke="transparent" points="757,-762.5 757,-796.5 1031,-796.5 1031,-762.5 757,-762.5"/>
<text text-anchor="start" x="761" y="-773.3" font-family="Arial" font-size="24.00" fill="#707070">Browses web pages with</text>
</g>
<!-- 5 -->
<g id="5" class="node">
<title>5</title>
<polygon fill="#1168bd" stroke="#0b4884" points="1121,-611 667,-611 667,-380 1121,-380 1121,-611"/>
<text text-anchor="start" x="696" y="-562.8" font-family="Arial" font-size="34.00" fill="#ffffff">Browser Memory Daemon</text>
<text text-anchor="start" x="817" y="-540.8" font-family="Arial" font-size="19.00" fill="#ffffff">[Software System]</text>
<text text-anchor="start" x="759" y="-503.8" font-family="Arial" font-size="24.00" fill="#ffffff">Local&#45;first personal recall</text>
<text text-anchor="start" x="730" y="-479.8" font-family="Arial" font-size="24.00" fill="#ffffff">system that captures Windows</text>
<text text-anchor="start" x="737.5" y="-455.8" font-family="Arial" font-size="24.00" fill="#ffffff">Chrome page text/media and</text>
<text text-anchor="start" x="730" y="-431.8" font-family="Arial" font-size="24.00" fill="#ffffff">exports versioned body&#45;safe X</text>
<text text-anchor="start" x="821.5" y="-407.8" font-family="Arial" font-size="24.00" fill="#ffffff">observations.</text>
</g>
<!-- 1&#45;&gt;5 -->
<g id="64" class="edge">
<title>1&#45;&gt;5</title>
<path fill="none" stroke="#707070" stroke-dasharray="5,2" d="M335.17,-595.59C430.49,-578.49 551.62,-556.75 656.64,-537.91"/>
<polygon fill="#707070" stroke="#707070" points="657.52,-541.31 666.75,-536.1 656.29,-534.42 657.52,-541.31"/>
<polygon fill="white" stroke="transparent" points="371,-587.5 371,-673.5 631,-673.5 631,-587.5 371,-587.5"/>
<text text-anchor="start" x="375" y="-650.3" font-family="Arial" font-size="24.00" fill="#707070">Searches, reviews, and</text>
<text text-anchor="start" x="387" y="-624.3" font-family="Arial" font-size="24.00" fill="#707070">deletes local browser</text>
<text text-anchor="start" x="412" y="-598.3" font-family="Arial" font-size="24.00" fill="#707070">memory through</text>
</g>
<!-- 3 -->
<g id="3" class="node">
<title>3</title>
<polygon fill="#999999" stroke="#6b6b6b" points="2937,-321 2534,-321 2534,-56 2937,-56 2937,-321"/>
<text text-anchor="start" x="2574" y="-272.8" font-family="Arial" font-size="34.00" fill="#ffffff">Web Sites and Media</text>
<text text-anchor="start" x="2681.5" y="-238.8" font-family="Arial" font-size="34.00" fill="#ffffff">Origins</text>
<text text-anchor="start" x="2658.5" y="-216.8" font-family="Arial" font-size="19.00" fill="#ffffff">[Software System]</text>
<text text-anchor="start" x="2625.5" y="-179.8" font-family="Arial" font-size="24.00" fill="#ffffff">External web pages,</text>
<text text-anchor="start" x="2573" y="-155.8" font-family="Arial" font-size="24.00" fill="#ffffff">image/video URLs, and media</text>
<text text-anchor="start" x="2563" y="-131.8" font-family="Arial" font-size="24.00" fill="#ffffff">CDNs that Chrome loads or that</text>
<text text-anchor="start" x="2573" y="-107.8" font-family="Arial" font-size="24.00" fill="#ffffff">sidecars fetch as page&#45;related</text>
<text text-anchor="start" x="2699" y="-83.8" font-family="Arial" font-size="24.00" fill="#ffffff">media.</text>
</g>
<!-- 2&#45;&gt;3 -->
<g id="66" class="edge">
<title>2&#45;&gt;3</title>
<path fill="none" stroke="#707070" stroke-dasharray="5,2" d="M2006.25,-672.23C2050.6,-651.21 2097.05,-627.69 2139,-603.5 2283.45,-520.21 2437.68,-412.14 2552.98,-327.17"/>
<polygon fill="#707070" stroke="#707070" points="2555.24,-329.84 2561.21,-321.09 2551.09,-324.21 2555.24,-329.84"/>
<polygon fill="white" stroke="transparent" points="2175,-574.5 2175,-625.5 2498,-625.5 2498,-574.5 2175,-574.5"/>
<text text-anchor="start" x="2179.5" y="-602.8" font-family="Arial" font-size="24.00" fill="#707070">Loads pages and media from</text>
<text text-anchor="start" x="2300.5" y="-582.8" font-family="Arial" font-size="19.00" fill="#707070">[HTTPS]</text>
</g>
<!-- 4 -->
<g id="4" class="node">
<title>4</title>
<polygon fill="#999999" stroke="#6b6b6b" points="2014.5,-568 1611.5,-568 1611.5,-303 2014.5,-303 2014.5,-568"/>
<text text-anchor="start" x="1640.5" y="-519.8" font-family="Arial" font-size="34.00" fill="#ffffff">Passive X Observation</text>
<text text-anchor="start" x="1734.5" y="-485.8" font-family="Arial" font-size="34.00" fill="#ffffff">Consumer</text>
<text text-anchor="start" x="1736" y="-463.8" font-family="Arial" font-size="19.00" fill="#ffffff">[Software System]</text>
<text text-anchor="start" x="1647.5" y="-426.8" font-family="Arial" font-size="24.00" fill="#ffffff">A downstream local integration</text>
<text text-anchor="start" x="1646" y="-402.8" font-family="Arial" font-size="24.00" fill="#ffffff">that reads versioned body&#45;safe</text>
<text text-anchor="start" x="1672" y="-378.8" font-family="Arial" font-size="24.00" fill="#ffffff">observation pages without</text>
<text text-anchor="start" x="1655.5" y="-354.8" font-family="Arial" font-size="24.00" fill="#ffffff">gaining capture, migration, or</text>
<text text-anchor="start" x="1713.5" y="-330.8" font-family="Arial" font-size="24.00" fill="#ffffff">mutation authority.</text>
</g>
<!-- 4&#45;&gt;5 -->
<g id="68" class="edge">
<title>4&#45;&gt;5</title>
<path fill="none" stroke="#707070" stroke-dasharray="5,2" d="M1611.16,-345.83C1479.95,-299.64 1305.94,-262.01 1157,-309.5 1113.4,-323.4 1070.83,-347.5 1033.12,-373.83"/>
<polygon fill="#707070" stroke="#707070" points="1030.78,-371.2 1024.64,-379.84 1034.83,-376.91 1030.78,-371.2"/>
<polygon fill="white" stroke="transparent" points="1173,-309.5 1173,-408.5 1435,-408.5 1435,-309.5 1173,-309.5"/>
<text text-anchor="start" x="1192.5" y="-385.8" font-family="Arial" font-size="24.00" fill="#707070">Reads authenticated</text>
<text text-anchor="start" x="1194.5" y="-361.8" font-family="Arial" font-size="24.00" fill="#707070">versioned body&#45;safe</text>
<text text-anchor="start" x="1177" y="-337.8" font-family="Arial" font-size="24.00" fill="#707070">observation pages from</text>
<text text-anchor="start" x="1246" y="-317.8" font-family="Arial" font-size="19.00" fill="#707070">[HTTP/JSON]</text>
</g>
<!-- 5&#45;&gt;2 -->
<g id="69" class="edge">
<title>5&#45;&gt;2</title>
<path fill="none" stroke="#707070" stroke-dasharray="5,2" d="M1121.31,-561.94C1133.36,-565.23 1145.32,-568.44 1157,-571.5 1286.83,-605.54 1321.63,-604.77 1451,-640.5 1502.93,-654.84 1558.58,-671.78 1610.26,-688.18"/>
<polygon fill="#707070" stroke="#707070" points="1609.27,-691.54 1619.86,-691.24 1611.39,-684.87 1609.27,-691.54"/>
<polygon fill="white" stroke="transparent" points="1160,-640.5 1160,-700.5 1448,-700.5 1448,-640.5 1160,-640.5"/>
<text text-anchor="start" x="1177" y="-677.3" font-family="Arial" font-size="24.00" fill="#707070">Runs its MV3 extension</text>
<text text-anchor="start" x="1164" y="-651.3" font-family="Arial" font-size="24.00" fill="#707070">inside and uses APIs from</text>
</g>
<!-- 5&#45;&gt;3 -->
<g id="70" class="edge">
<title>5&#45;&gt;3</title>
<path fill="none" stroke="#707070" stroke-dasharray="5,2" d="M1008.91,-379.92C1052.34,-340.86 1104.16,-299.78 1157,-270.5 1291.39,-196.02 1335.11,-190.65 1487,-167.5 1847.9,-112.49 2274.31,-139.01 2523.54,-163.56"/>
<polygon fill="#707070" stroke="#707070" points="2523.5,-167.07 2533.8,-164.58 2524.2,-160.11 2523.5,-167.07"/>
<polygon fill="white" stroke="transparent" points="1487,-167.5 1487,-266.5 2139,-266.5 2139,-167.5 1487,-167.5"/>
<text text-anchor="start" x="1686" y="-243.8" font-family="Arial" font-size="24.00" fill="#707070">Captures page refs and</text>
<text text-anchor="start" x="1686.5" y="-219.8" font-family="Arial" font-size="24.00" fill="#707070">fetches browser&#45;side or</text>
<text text-anchor="start" x="1717" y="-195.8" font-family="Arial" font-size="24.00" fill="#707070">public media from</text>
<text text-anchor="start" x="1491" y="-175.8" font-family="Arial" font-size="19.00" fill="#707070">[Chrome DOM/fetch; WSL HTTP(S), data URLs; no Chrome cookies in WSL]</text>
</g>
<!-- 5&#45;&gt;4 -->
<g id="82" class="edge">
<title>5&#45;&gt;4</title>
<path fill="none" stroke="#707070" stroke-dasharray="5,2" d="M1121.09,-480.71C1267.78,-471.11 1457.63,-458.69 1601.19,-449.29"/>
<polygon fill="#707070" stroke="#707070" points="1601.7,-452.77 1611.45,-448.62 1601.24,-445.78 1601.7,-452.77"/>
<polygon fill="white" stroke="transparent" points="1157,-478.5 1157,-553.5 1451,-553.5 1451,-478.5 1157,-478.5"/>
<text text-anchor="start" x="1161" y="-530.8" font-family="Arial" font-size="24.00" fill="#707070">Emits versioned body&#45;safe</text>
<text text-anchor="start" x="1187" y="-506.8" font-family="Arial" font-size="24.00" fill="#707070">observation pages for</text>
<text text-anchor="start" x="1244.5" y="-486.8" font-family="Arial" font-size="19.00" fill="#707070">[JSON stdout]</text>
</g>
</g>
</svg>
