<?xml version="1.0" encoding="UTF-8" standalone="no"?>
<!DOCTYPE svg PUBLIC "-//W3C//DTD SVG 1.1//EN"
 "http://www.w3.org/Graphics/SVG/1.1/DTD/svg11.dtd">
<!-- Generated by graphviz version 2.43.0 (0)
 -->
<!-- Title: %3 Pages: 1 -->
<svg width="2327pt" height="1274pt"
 viewBox="0.00 0.00 2327.00 1273.50" xmlns="http://www.w3.org/2000/svg" xmlns:xlink="http://www.w3.org/1999/xlink">
<g id="graph0" class="graph" transform="scale(1 1) rotate(0) translate(4 1269.5)">
<title>%3</title>
<polygon fill="white" stroke="transparent" points="-4,4 -4,-1269.5 2323,-1269.5 2323,4 -4,4"/>
<text text-anchor="start" x="844" y="-11.8" font-family="Arial" font-size="34.00">Dynamic View: Browser Memory Daemon</text>
<g id="clust1" class="cluster">
<title>cluster_4</title>
<polygon fill="none" stroke="#444444" points="8,-312.5 8,-1257.5 2311,-1257.5 2311,-312.5 8,-312.5"/>
<text text-anchor="start" x="1018.5" y="-341.3" font-family="Arial" font-size="24.00" fill="#444444">Browser Memory Daemon</text>
<text text-anchor="start" x="1082.5" y="-321.3" font-family="Arial" font-size="19.00" fill="#444444">[Software System]</text>
</g>
<!-- 13 -->
<g id="13" class="node">
<title>13</title>
<path fill="#2f95c8" stroke="#20688c" d="M1491.5,-1199.72C1491.5,-1218.01 1389.98,-1232.88 1265,-1232.88 1140.02,-1232.88 1038.5,-1218.01 1038.5,-1199.72 1038.5,-1199.72 1038.5,-901.28 1038.5,-901.28 1038.5,-882.99 1140.02,-868.12 1265,-868.12 1389.98,-868.12 1491.5,-882.99 1491.5,-901.28 1491.5,-901.28 1491.5,-1199.72 1491.5,-1199.72"/>
<path fill="none" stroke="#20688c" d="M1491.5,-1199.72C1491.5,-1181.42 1389.98,-1166.56 1265,-1166.56 1140.02,-1166.56 1038.5,-1181.42 1038.5,-1199.72"/>
<text text-anchor="start" x="1123" y="-1134.8" font-family="Arial" font-size="34.00" fill="#ffffff">Extension Browser</text>
<text text-anchor="start" x="1205.5" y="-1100.8" font-family="Arial" font-size="34.00" fill="#ffffff">Storage</text>
<text text-anchor="start" x="1067.5" y="-1078.8" font-family="Arial" font-size="19.00" fill="#ffffff">[Container: chrome.storage.local + IndexedDB]</text>
<text text-anchor="start" x="1132.5" y="-1041.8" font-family="Arial" font-size="24.00" fill="#ffffff">Browser&#45;side storage for</text>
<text text-anchor="start" x="1120.5" y="-1017.8" font-family="Arial" font-size="24.00" fill="#ffffff">capture and visit queues in</text>
<text text-anchor="start" x="1126.5" y="-993.8" font-family="Arial" font-size="24.00" fill="#ffffff">chrome.storage.local plus</text>
<text text-anchor="start" x="1132.5" y="-969.8" font-family="Arial" font-size="24.00" fill="#ffffff">durable media tasks and</text>
<text text-anchor="start" x="1113.5" y="-945.8" font-family="Arial" font-size="24.00" fill="#ffffff">fetched blobs in IndexedDB.</text>
</g>
<!-- 14 -->
<g id="14" class="node">
<title>14</title>
<polygon fill="#438dd5" stroke="#2e6295" points="1496,-796 1034,-796 1034,-459 1496,-459 1496,-796"/>
<text text-anchor="start" x="1100.5" y="-747.8" font-family="Arial" font-size="34.00" fill="#ffffff">WSL Loopback HTTP</text>
<text text-anchor="start" x="1200.5" y="-713.8" font-family="Arial" font-size="34.00" fill="#ffffff">Daemon</text>
<text text-anchor="start" x="1063" y="-691.8" font-family="Arial" font-size="19.00" fill="#ffffff">[Container: Python 3.11, ThreadingHTTPServer]</text>
<text text-anchor="start" x="1104" y="-654.8" font-family="Arial" font-size="24.00" fill="#ffffff">Authenticated loopback HTTP</text>
<text text-anchor="start" x="1129" y="-630.8" font-family="Arial" font-size="24.00" fill="#ffffff">API that handles capture,</text>
<text text-anchor="start" x="1125.5" y="-606.8" font-family="Arial" font-size="24.00" fill="#ffffff">visit events, media artifact</text>
<text text-anchor="start" x="1128.5" y="-582.8" font-family="Arial" font-size="24.00" fill="#ffffff">upload/fetch/purge, exact</text>
<text text-anchor="start" x="1225" y="-558.8" font-family="Arial" font-size="24.00" fill="#ffffff">search,</text>
<text text-anchor="start" x="1116" y="-534.8" font-family="Arial" font-size="24.00" fill="#ffffff">recent/timeline/detail, policy</text>
<text text-anchor="start" x="1134" y="-510.8" font-family="Arial" font-size="24.00" fill="#ffffff">rules, doctor, forget, and</text>
<text text-anchor="start" x="1175.5" y="-486.8" font-family="Arial" font-size="24.00" fill="#ffffff">static UI serving.</text>
</g>
<!-- 27 -->
<g id="27" class="node">
<title>27</title>
<path fill="#2f95c8" stroke="#20688c" d="M2243,-834.22C2243,-857.48 2164.11,-876.38 2067,-876.38 1969.89,-876.38 1891,-857.48 1891,-834.22 1891,-834.22 1891,-454.78 1891,-454.78 1891,-431.52 1969.89,-412.62 2067,-412.62 2164.11,-412.62 2243,-431.52 2243,-454.78 2243,-454.78 2243,-834.22 2243,-834.22"/>
<path fill="none" stroke="#20688c" d="M2243,-834.22C2243,-810.95 2164.11,-792.06 2067,-792.06 1969.89,-792.06 1891,-810.95 1891,-834.22"/>
<text text-anchor="start" x="1954" y="-764.8" font-family="Arial" font-size="34.00" fill="#ffffff">SQLite + FTS5</text>
<text text-anchor="start" x="1994" y="-730.8" font-family="Arial" font-size="34.00" fill="#ffffff">Database</text>
<text text-anchor="start" x="1941" y="-708.8" font-family="Arial" font-size="19.00" fill="#ffffff">[Container: SQLite with FTS5]</text>
<text text-anchor="start" x="1948" y="-671.8" font-family="Arial" font-size="24.00" fill="#ffffff">Durable relational and</text>
<text text-anchor="start" x="1930.5" y="-647.8" font-family="Arial" font-size="24.00" fill="#ffffff">full&#45;text store for sources,</text>
<text text-anchor="start" x="1946.5" y="-623.8" font-family="Arial" font-size="24.00" fill="#ffffff">documents, visits, visit</text>
<text text-anchor="start" x="1921" y="-599.8" font-family="Arial" font-size="24.00" fill="#ffffff">events, snapshots, chunks,</text>
<text text-anchor="start" x="1920" y="-575.8" font-family="Arial" font-size="24.00" fill="#ffffff">chunks_fts, media artifacts,</text>
<text text-anchor="start" x="1935" y="-551.8" font-family="Arial" font-size="24.00" fill="#ffffff">media fetch tasks, policy</text>
<text text-anchor="start" x="1941.5" y="-527.8" font-family="Arial" font-size="24.00" fill="#ffffff">rules, audit events, and</text>
<text text-anchor="start" x="1975" y="-503.8" font-family="Arial" font-size="24.00" fill="#ffffff">deletion receipts.</text>
</g>
<!-- 14&#45;&gt;27 -->
<g id="43" class="edge">
<title>14&#45;&gt;27</title>
<path fill="none" stroke="#444444" stroke-dasharray="5,2" d="M1496.05,-632.39C1618.05,-634.98 1765.95,-638.12 1880.51,-640.56"/>
<polygon fill="#444444" stroke="#444444" points="1880.72,-644.06 1890.79,-640.78 1880.87,-637.07 1880.72,-644.06"/>
<polygon fill="white" stroke="transparent" points="1532,-638.5 1532,-737.5 1812,-737.5 1812,-638.5 1532,-638.5"/>
<text text-anchor="start" x="1536" y="-714.8" font-family="Arial" font-size="24.00" fill="#444444">4. Stores document, visit,</text>
<text text-anchor="start" x="1544.5" y="-690.8" font-family="Arial" font-size="24.00" fill="#444444">snapshot, chunks, FTS,</text>
<text text-anchor="start" x="1556.5" y="-666.8" font-family="Arial" font-size="24.00" fill="#444444">media refs, and tasks</text>
<text text-anchor="start" x="1638.5" y="-646.8" font-family="Arial" font-size="19.00" fill="#444444">[sqlite3]</text>
</g>
<!-- 28 -->
<g id="28" class="node">
<title>28</title>
<path fill="#2f95c8" stroke="#20688c" d="M2286,-1206.78C2286,-1221.04 2187.84,-1232.63 2067,-1232.63 1946.16,-1232.63 1848,-1221.04 1848,-1206.78 1848,-1206.78 1848,-974.22 1848,-974.22 1848,-959.96 1946.16,-948.37 2067,-948.37 2187.84,-948.37 2286,-959.96 2286,-974.22 2286,-974.22 2286,-1206.78 2286,-1206.78"/>
<path fill="none" stroke="#20688c" d="M2286,-1206.78C2286,-1192.53 2187.84,-1180.94 2067,-1180.94 1946.16,-1180.94 1848,-1192.53 1848,-1206.78"/>
<text text-anchor="start" x="1902.5" y="-1145.8" font-family="Arial" font-size="34.00" fill="#ffffff">Clean Text Blob Store</text>
<text text-anchor="start" x="1877" y="-1123.8" font-family="Arial" font-size="19.00" fill="#ffffff">[Container: WSL or NAS&#45;mounted filesystem]</text>
<text text-anchor="start" x="1908.5" y="-1086.8" font-family="Arial" font-size="24.00" fill="#ffffff">Filesystem store for snapshot</text>
<text text-anchor="start" x="1960" y="-1062.8" font-family="Arial" font-size="24.00" fill="#ffffff">text blobs under the</text>
<text text-anchor="start" x="1917" y="-1038.8" font-family="Arial" font-size="24.00" fill="#ffffff">configured WSL&#45;visible blob</text>
<text text-anchor="start" x="2042.5" y="-1014.8" font-family="Arial" font-size="24.00" fill="#ffffff">root.</text>
</g>
<!-- 14&#45;&gt;28 -->
<g id="44" class="edge">
<title>14&#45;&gt;28</title>
<path fill="none" stroke="#444444" stroke-dasharray="5,2" d="M1496.05,-760.64C1603.81,-823.01 1731.78,-897.07 1839.13,-959.2"/>
<polygon fill="#444444" stroke="#444444" points="1837.4,-962.24 1847.81,-964.22 1840.9,-956.18 1837.4,-962.24"/>
<polygon fill="white" stroke="transparent" points="1564,-940.5 1564,-1015.5 1780,-1015.5 1780,-940.5 1564,-940.5"/>
<text text-anchor="start" x="1568" y="-992.8" font-family="Arial" font-size="24.00" fill="#444444">5. Writes clean&#45;text</text>
<text text-anchor="start" x="1596.5" y="-968.8" font-family="Arial" font-size="24.00" fill="#444444">snapshot blob</text>
<text text-anchor="start" x="1620.5" y="-948.8" font-family="Arial" font-size="19.00" fill="#444444">[Filesystem]</text>
</g>
<!-- 5 -->
<g id="5" class="node">
<title>5</title>
<polygon fill="#438dd5" stroke="#2e6295" points="467,-746 33,-746 33,-467 467,-467 467,-746"/>
<text text-anchor="start" x="70" y="-697.8" font-family="Arial" font-size="34.00" fill="#ffffff">Chrome MV3 Extension</text>
<text text-anchor="start" x="62" y="-675.8" font-family="Arial" font-size="19.00" fill="#ffffff">[Container: JavaScript, Chrome Manifest V3]</text>
<text text-anchor="start" x="107" y="-638.8" font-family="Arial" font-size="24.00" fill="#ffffff">Captures visible page text,</text>
<text text-anchor="start" x="132.5" y="-614.8" font-family="Arial" font-size="24.00" fill="#ffffff">media references, tab</text>
<text text-anchor="start" x="141" y="-590.8" font-family="Arial" font-size="24.00" fill="#ffffff">lifecycle events, and</text>
<text text-anchor="start" x="84" y="-566.8" font-family="Arial" font-size="24.00" fill="#ffffff">browser&#45;side media bytes from</text>
<text text-anchor="start" x="79" y="-542.8" font-family="Arial" font-size="24.00" fill="#ffffff">Windows Chrome; queues work</text>
<text text-anchor="start" x="91" y="-518.8" font-family="Arial" font-size="24.00" fill="#ffffff">durably and posts to the WSL</text>
<text text-anchor="start" x="202.5" y="-494.8" font-family="Arial" font-size="24.00" fill="#ffffff">daemon.</text>
</g>
<!-- 14&#45;&gt;5 -->
<g id="38" class="edge">
<title>14&#45;&gt;5</title>
<path fill="none" stroke="#444444" stroke-dasharray="5,2" d="M1033.9,-644.93C882.78,-653.43 680.88,-659.18 503,-645.5 494.59,-644.85 486.04,-644.09 477.41,-643.22"/>
<polygon fill="#444444" stroke="#444444" points="477.56,-639.72 467.26,-642.16 476.84,-646.68 477.56,-639.72"/>
<polygon fill="white" stroke="transparent" points="503,-653.5 503,-776.5 998,-776.5 998,-653.5 503,-653.5"/>
<text text-anchor="start" x="695" y="-753.8" font-family="Arial" font-size="24.00" fill="#444444">6. Returns</text>
<text text-anchor="start" x="605" y="-729.8" font-family="Arial" font-size="24.00" fill="#444444">document/snapshot/artifact</text>
<text text-anchor="start" x="633.5" y="-705.8" font-family="Arial" font-size="24.00" fill="#444444">IDs before lazy media</text>
<text text-anchor="start" x="722" y="-681.8" font-family="Arial" font-size="24.00" fill="#444444">bytes</text>
<text text-anchor="start" x="507.5" y="-661.8" font-family="Arial" font-size="19.00" fill="#444444">[Bearer HTTP/JSON; raw HTTP PUT over 127.0.0.1:8765]</text>
</g>
<!-- 5&#45;&gt;13 -->
<g id="37" class="edge">
<title>5&#45;&gt;13</title>
<path fill="none" stroke="#444444" stroke-dasharray="5,2" d="M423.58,-746.18C449.37,-763.79 476.29,-780.5 503,-794.5 670.49,-882.28 874.17,-948.92 1028.65,-992.17"/>
<polygon fill="#444444" stroke="#444444" points="1027.71,-995.54 1038.29,-994.85 1029.59,-988.8 1027.71,-995.54"/>
<polygon fill="white" stroke="transparent" points="595,-978.5 595,-1077.5 906,-1077.5 906,-978.5 595,-978.5"/>
<text text-anchor="start" x="622" y="-1054.8" font-family="Arial" font-size="24.00" fill="#444444">7. Queues browser&#45;side</text>
<text text-anchor="start" x="641.5" y="-1030.8" font-family="Arial" font-size="24.00" fill="#444444">media tasks for later</text>
<text text-anchor="start" x="684.5" y="-1006.8" font-family="Arial" font-size="24.00" fill="#444444">fetch/upload</text>
<text text-anchor="start" x="599.5" y="-986.8" font-family="Arial" font-size="19.00" fill="#444444">[chrome.storage.local + IndexedDB]</text>
</g>
<!-- 5&#45;&gt;14 -->
<g id="38" class="edge">
<title>5&#45;&gt;14</title>
<path fill="none" stroke="#444444" stroke-dasharray="5,2" d="M467.31,-538.72C479.32,-536.3 491.27,-534.19 503,-532.5 720.76,-501.19 781.23,-494.95 998,-532.5 1006.6,-533.99 1015.29,-535.73 1024.02,-537.68"/>
<polygon fill="#444444" stroke="#444444" points="1023.35,-541.12 1033.88,-539.97 1024.93,-534.3 1023.35,-541.12"/>
<polygon fill="white" stroke="transparent" points="503,-532.5 503,-631.5 998,-631.5 998,-532.5 503,-532.5"/>
<text text-anchor="start" x="628" y="-608.8" font-family="Arial" font-size="24.00" fill="#444444">3. POSTs /capture with</text>
<text text-anchor="start" x="633.5" y="-584.8" font-family="Arial" font-size="24.00" fill="#444444">visible text, metadata,</text>
<text text-anchor="start" x="670.5" y="-560.8" font-family="Arial" font-size="24.00" fill="#444444">and media refs</text>
<text text-anchor="start" x="507.5" y="-540.8" font-family="Arial" font-size="19.00" fill="#444444">[Bearer HTTP/JSON; raw HTTP PUT over 127.0.0.1:8765]</text>
</g>
<!-- 2 -->
<g id="2" class="node">
<title>2</title>
<polygon fill="#999999" stroke="#6b6b6b" points="1458,-287 1072,-287 1072,-56 1458,-56 1458,-287"/>
<text text-anchor="start" x="1130.5" y="-238.8" font-family="Arial" font-size="34.00" fill="#ffffff">Windows Chrome</text>
<text text-anchor="start" x="1188" y="-216.8" font-family="Arial" font-size="19.00" fill="#ffffff">[Software System]</text>
<text text-anchor="start" x="1101" y="-179.8" font-family="Arial" font-size="24.00" fill="#ffffff">The Windows Chrome runtime</text>
<text text-anchor="start" x="1114.5" y="-155.8" font-family="Arial" font-size="24.00" fill="#ffffff">that loads web pages, hosts</text>
<text text-anchor="start" x="1114" y="-131.8" font-family="Arial" font-size="24.00" fill="#ffffff">the MV3 extension, runs the</text>
<text text-anchor="start" x="1106" y="-107.8" font-family="Arial" font-size="24.00" fill="#ffffff">local UI in a tab, and exposes</text>
<text text-anchor="start" x="1135.5" y="-83.8" font-family="Arial" font-size="24.00" fill="#ffffff">Chrome extension APIs.</text>
</g>
<!-- 5&#45;&gt;2 -->
<g id="35" class="edge">
<title>5&#45;&gt;2</title>
<path fill="none" stroke="#444444" stroke-dasharray="5,2" d="M391.61,-466.99C425.99,-438.3 464.13,-410.48 503,-389.5 599.36,-337.49 870.63,-265.76 1061.71,-219.01"/>
<polygon fill="#444444" stroke="#444444" points="1062.72,-222.37 1071.61,-216.6 1061.06,-215.57 1062.72,-222.37"/>
<polygon fill="white" stroke="transparent" points="605.5,-389.5 605.5,-488.5 895.5,-488.5 895.5,-389.5 605.5,-389.5"/>
<text text-anchor="start" x="609.5" y="-465.8" font-family="Arial" font-size="24.00" fill="#444444">2. Runs content script and</text>
<text text-anchor="start" x="637.5" y="-441.8" font-family="Arial" font-size="24.00" fill="#444444">service worker inside</text>
<text text-anchor="start" x="698.5" y="-417.8" font-family="Arial" font-size="24.00" fill="#444444">active tab</text>
<text text-anchor="start" x="645.5" y="-397.8" font-family="Arial" font-size="19.00" fill="#444444">[Chrome extension APIs]</text>
</g>
<!-- 1 -->
<g id="1" class="node">
<title>1</title>
<polygon fill="#08427b" stroke="#052e56" points="447.5,-287 52.5,-287 52.5,-56 447.5,-56 447.5,-287"/>
<text text-anchor="start" x="183" y="-238.8" font-family="Arial" font-size="34.00" fill="#ffffff">Operator</text>
<text text-anchor="start" x="214.5" y="-216.8" font-family="Arial" font-size="19.00" fill="#ffffff">[Person]</text>
<text text-anchor="start" x="123.5" y="-179.8" font-family="Arial" font-size="24.00" fill="#ffffff">Sole local operator who</text>
<text text-anchor="start" x="81.5" y="-155.8" font-family="Arial" font-size="24.00" fill="#ffffff">browses with Windows Chrome</text>
<text text-anchor="start" x="102.5" y="-131.8" font-family="Arial" font-size="24.00" fill="#ffffff">and searches, reviews, and</text>
<text text-anchor="start" x="88" y="-107.8" font-family="Arial" font-size="24.00" fill="#ffffff">deletes local browser&#45;memory</text>
<text text-anchor="start" x="206" y="-83.8" font-family="Arial" font-size="24.00" fill="#ffffff">records.</text>
</g>
<!-- 1&#45;&gt;2 -->
<g id="30" class="edge">
<title>1&#45;&gt;2</title>
<path fill="none" stroke="#444444" stroke-dasharray="5,2" d="M447.52,-171.5C624.41,-171.5 883.25,-171.5 1061.85,-171.5"/>
<polygon fill="#444444" stroke="#444444" points="1061.9,-175 1071.9,-171.5 1061.9,-168 1061.9,-175"/>
<polygon fill="white" stroke="transparent" points="620.5,-171.5 620.5,-205.5 880.5,-205.5 880.5,-171.5 620.5,-171.5"/>
<text text-anchor="start" x="624.5" y="-182.3" font-family="Arial" font-size="24.00" fill="#444444">1. Browses a web page</text>
</g>
</g>
</svg>
