<?xml version="1.0" encoding="UTF-8" standalone="no"?>
<!DOCTYPE svg PUBLIC "-//W3C//DTD SVG 1.1//EN"
 "http://www.w3.org/Graphics/SVG/1.1/DTD/svg11.dtd">
<!-- Generated by graphviz version 2.43.0 (0)
 -->
<!-- Title: %3 Pages: 1 -->
<svg width="2067pt" height="763pt"
 viewBox="0.00 0.00 2067.00 763.00" xmlns="http://www.w3.org/2000/svg" xmlns:xlink="http://www.w3.org/1999/xlink">
<g id="graph0" class="graph" transform="scale(1 1) rotate(0) translate(4 759)">
<title>%3</title>
<polygon fill="white" stroke="transparent" points="-4,4 -4,-759 2063,-759 2063,4 -4,4"/>
<text text-anchor="start" x="444.5" y="-11.8" font-family="Arial" font-size="34.00">Component View: Browser Memory Daemon &#45; WSL Loopback HTTP Daemon</text>
<g id="clust1" class="cluster">
<title>cluster_4</title>
<polygon fill="none" stroke="#444444" points="8,-64 8,-747 2051,-747 2051,-64 8,-64"/>
<text text-anchor="start" x="888.5" y="-92.8" font-family="Arial" font-size="24.00" fill="#444444">Browser Memory Daemon</text>
<text text-anchor="start" x="952.5" y="-72.8" font-family="Arial" font-size="19.00" fill="#444444">[Software System]</text>
</g>
<g id="clust2" class="cluster">
<title>cluster_14</title>
<polygon fill="none" stroke="#444444" points="33,-164 33,-722 1261,-722 1261,-164 33,-164"/>
<text text-anchor="start" x="481.5" y="-192.8" font-family="Arial" font-size="24.00" fill="#444444">WSL Loopback HTTP Daemon</text>
<text text-anchor="start" x="445" y="-172.8" font-family="Arial" font-size="19.00" fill="#444444">[Container: Python 3.11, ThreadingHTTPServer]</text>
</g>
<!-- 15 -->
<g id="15" class="node">
<title>15</title>
<polygon fill="#85bbf0" stroke="#1168bd" points="453,-596.5 58,-596.5 58,-365.5 453,-365.5 453,-596.5"/>
<text text-anchor="start" x="87" y="-548.3" font-family="Arial" font-size="34.00" fill="#000000">HTTP Request Router</text>
<text text-anchor="start" x="119" y="-526.3" font-family="Arial" font-size="19.00" fill="#000000">[Component: Python http.server]</text>
<text text-anchor="start" x="90" y="-489.3" font-family="Arial" font-size="24.00" fill="#000000">Routes loopback API requests,</text>
<text text-anchor="start" x="112.5" y="-465.3" font-family="Arial" font-size="24.00" fill="#000000">serves UI assets, enforces</text>
<text text-anchor="start" x="91.5" y="-441.3" font-family="Arial" font-size="24.00" fill="#000000">bearer auth for memory/admin</text>
<text text-anchor="start" x="106" y="-417.3" font-family="Arial" font-size="24.00" fill="#000000">APIs, and applies CORS for</text>
<text text-anchor="start" x="172" y="-393.3" font-family="Arial" font-size="24.00" fill="#000000">allowed origins.</text>
</g>
<!-- 16 -->
<g id="16" class="node">
<title>16</title>
<polygon fill="#85bbf0" stroke="#1168bd" points="1236,-697.5 813,-697.5 813,-264.5 1236,-264.5 1236,-697.5"/>
<text text-anchor="start" x="877" y="-649.3" font-family="Arial" font-size="34.00" fill="#000000">Database Migration</text>
<text text-anchor="start" x="975.5" y="-615.3" font-family="Arial" font-size="34.00" fill="#000000">Kernel</text>
<text text-anchor="start" x="896.5" y="-593.3" font-family="Arial" font-size="19.00" fill="#000000">[Component: Python + sqlite3]</text>
<text text-anchor="start" x="914.5" y="-556.3" font-family="Arial" font-size="24.00" fill="#000000">Serializes migrators;</text>
<text text-anchor="start" x="898.5" y="-532.3" font-family="Arial" font-size="24.00" fill="#000000">validates exact schema</text>
<text text-anchor="start" x="915.5" y="-508.3" font-family="Arial" font-size="24.00" fill="#000000">fingerprints, ordered</text>
<text text-anchor="start" x="842" y="-484.3" font-family="Arial" font-size="24.00" fill="#000000">names/checksums, and PRAGMA</text>
<text text-anchor="start" x="910" y="-460.3" font-family="Arial" font-size="24.00" fill="#000000">user_version; applies</text>
<text text-anchor="start" x="920" y="-436.3" font-family="Arial" font-size="24.00" fill="#000000">transactional steps,</text>
<text text-anchor="start" x="889.5" y="-412.3" font-family="Arial" font-size="24.00" fill="#000000">backup&#45;gates destructive</text>
<text text-anchor="start" x="858.5" y="-388.3" font-family="Arial" font-size="24.00" fill="#000000">changes, and expands capture</text>
<text text-anchor="start" x="866" y="-364.3" font-family="Arial" font-size="24.00" fill="#000000">provenance, relative locators,</text>
<text text-anchor="start" x="888.5" y="-340.3" font-family="Arial" font-size="24.00" fill="#000000">SQLite text authority, and</text>
<text text-anchor="start" x="876.5" y="-316.3" font-family="Arial" font-size="24.00" fill="#000000">media storage tiers through</text>
<text text-anchor="start" x="965" y="-292.3" font-family="Arial" font-size="24.00" fill="#000000">version 10.</text>
</g>
<!-- 15&#45;&gt;16 -->
<g id="68" class="edge">
<title>15&#45;&gt;16</title>
<path fill="none" stroke="#444444" stroke-dasharray="5,2" d="M453.03,-481C559.77,-481 692.1,-481 802.43,-481"/>
<polygon fill="#444444" stroke="#444444" points="802.69,-484.5 812.69,-481 802.69,-477.5 802.69,-484.5"/>
<polygon fill="white" stroke="transparent" points="489,-481 489,-541 777,-541 777,-481 489,-481"/>
<text text-anchor="start" x="522.5" y="-517.8" font-family="Arial" font-size="24.00" fill="#444444">Requires compatible</text>
<text text-anchor="start" x="493" y="-491.8" font-family="Arial" font-size="24.00" fill="#444444">initialized schema through</text>
</g>
<!-- 29 -->
<g id="29" class="node">
<title>29</title>
<path fill="#2f95c8" stroke="#20688c" d="M2026,-673.72C2026,-700.29 1937.25,-721.88 1828,-721.88 1718.75,-721.88 1630,-700.29 1630,-673.72 1630,-673.72 1630,-240.28 1630,-240.28 1630,-213.71 1718.75,-192.12 1828,-192.12 1937.25,-192.12 2026,-213.71 2026,-240.28 2026,-240.28 2026,-673.72 2026,-673.72"/>
<path fill="none" stroke="#20688c" d="M2026,-673.72C2026,-647.14 1937.25,-625.56 1828,-625.56 1718.75,-625.56 1630,-647.14 1630,-673.72"/>
<text text-anchor="start" x="1715" y="-601.3" font-family="Arial" font-size="34.00" fill="#ffffff">SQLite + FTS5</text>
<text text-anchor="start" x="1755" y="-567.3" font-family="Arial" font-size="34.00" fill="#ffffff">Database</text>
<text text-anchor="start" x="1702" y="-545.3" font-family="Arial" font-size="19.00" fill="#ffffff">[Container: SQLite with FTS5]</text>
<text text-anchor="start" x="1660" y="-508.3" font-family="Arial" font-size="24.00" fill="#ffffff">Durable complete cleaned&#45;text,</text>
<text text-anchor="start" x="1709" y="-484.3" font-family="Arial" font-size="24.00" fill="#ffffff">relational, and full&#45;text</text>
<text text-anchor="start" x="1710.5" y="-460.3" font-family="Arial" font-size="24.00" fill="#ffffff">authority for migration</text>
<text text-anchor="start" x="1676" y="-436.3" font-family="Arial" font-size="24.00" fill="#ffffff">ledger, sources, documents,</text>
<text text-anchor="start" x="1678.5" y="-412.3" font-family="Arial" font-size="24.00" fill="#ffffff">visits, capture observations,</text>
<text text-anchor="start" x="1697" y="-388.3" font-family="Arial" font-size="24.00" fill="#ffffff">URL claims, visit events,</text>
<text text-anchor="start" x="1659.5" y="-364.3" font-family="Arial" font-size="24.00" fill="#ffffff">snapshots, chunks, chunks_fts,</text>
<text text-anchor="start" x="1659" y="-340.3" font-family="Arial" font-size="24.00" fill="#ffffff">media provenance/tasks, policy</text>
<text text-anchor="start" x="1702.5" y="-316.3" font-family="Arial" font-size="24.00" fill="#ffffff">rules, audit events, and</text>
<text text-anchor="start" x="1736" y="-292.3" font-family="Arial" font-size="24.00" fill="#ffffff">deletion receipts.</text>
</g>
<!-- 16&#45;&gt;29 -->
<g id="93" class="edge">
<title>16&#45;&gt;29</title>
<path fill="none" stroke="#444444" stroke-dasharray="5,2" d="M1236.08,-474.69C1354.5,-471.15 1501.75,-466.74 1619.64,-463.21"/>
<polygon fill="#444444" stroke="#444444" points="1619.98,-466.7 1629.87,-462.9 1619.77,-459.7 1619.98,-466.7"/>
<polygon fill="white" stroke="transparent" points="1272,-473 1272,-572 1594,-572 1594,-473 1272,-473"/>
<text text-anchor="start" x="1305" y="-549.3" font-family="Arial" font-size="24.00" fill="#444444">Validates and advances</text>
<text text-anchor="start" x="1296" y="-525.3" font-family="Arial" font-size="24.00" fill="#444444">schema ledger/fingerprint</text>
<text text-anchor="start" x="1423.5" y="-501.3" font-family="Arial" font-size="24.00" fill="#444444">in</text>
<text text-anchor="start" x="1276" y="-481.3" font-family="Arial" font-size="19.00" fill="#444444">[sqlite3 online backup + transactions]</text>
</g>
</g>
</svg>
