<?xml version="1.0" encoding="UTF-8" standalone="no"?>
<!DOCTYPE svg PUBLIC "-//W3C//DTD SVG 1.1//EN"
 "http://www.w3.org/Graphics/SVG/1.1/DTD/svg11.dtd">
<!-- Generated by graphviz version 2.43.0 (0)
 -->
<!-- Title: %3 Pages: 1 -->
<svg width="3232pt" height="1952pt"
 viewBox="0.00 0.00 3232.00 1952.38" xmlns="http://www.w3.org/2000/svg" xmlns:xlink="http://www.w3.org/1999/xlink">
<g id="graph0" class="graph" transform="scale(1 1) rotate(0) translate(4 1948.38)">
<title>%3</title>
<polygon fill="white" stroke="transparent" points="-4,4 -4,-1948.38 3228,-1948.38 3228,4 -4,4"/>
<text text-anchor="start" x="1167" y="-11.8" font-family="Arial" font-size="34.00">Browser Memory Daemon &#45; Deployment &#45; Daily&#45;driver local</text>
<g id="clust1" class="cluster">
<title>cluster_175</title>
<polygon fill="none" stroke="#888888" points="8,-64 8,-1936.38 3216,-1936.38 3216,-64 8,-64"/>
<text text-anchor="start" x="1518.5" y="-92.8" font-family="Arial" font-size="24.00" fill="#000000">Local workstation</text>
<text text-anchor="start" x="1450" y="-72.8" font-family="Arial" font-size="19.00" fill="#000000">[Deployment Node: Windows + WSL2]</text>
</g>
<g id="clust2" class="cluster">
<title>cluster_176</title>
<polygon fill="none" stroke="#888888" points="2073,-1382.38 2073,-1863.38 3191,-1863.38 3191,-1382.38 2073,-1382.38"/>
<text text-anchor="start" x="2519.5" y="-1411.17" font-family="Arial" font-size="24.00" fill="#000000">Windows user profile</text>
<text text-anchor="start" x="2478.5" y="-1391.17" font-family="Arial" font-size="19.00" fill="#000000">[Deployment Node: Windows profile]</text>
</g>
<g id="clust3" class="cluster">
<title>cluster_177</title>
<polygon fill="none" stroke="#888888" points="2098,-1458.38 2098,-1838.38 3166,-1838.38 3166,-1458.38 2098,-1458.38"/>
<text text-anchor="start" x="2437.5" y="-1487.17" font-family="Arial" font-size="24.00" fill="#000000">Windows Chrome daily&#45;driver profile</text>
<text text-anchor="start" x="2456.5" y="-1467.17" font-family="Arial" font-size="19.00" fill="#000000">[Deployment Node: Google Chrome MV3]</text>
</g>
<g id="clust4" class="cluster">
<title>cluster_183</title>
<polygon fill="none" stroke="#888888" points="33,-140 33,-1911.38 2048,-1911.38 2048,-140 33,-140"/>
<text text-anchor="start" x="965" y="-168.8" font-family="Arial" font-size="24.00" fill="#000000">WSL2 Ubuntu</text>
<text text-anchor="start" x="850" y="-148.8" font-family="Arial" font-size="19.00" fill="#000000">[Deployment Node: Ubuntu + systemd &#45;&#45;user]</text>
</g>
<g id="clust5" class="cluster">
<title>cluster_184</title>
<polygon fill="none" stroke="#888888" points="1301,-898.38 1301,-1886.38 1813,-1886.38 1813,-898.38 1301,-898.38"/>
<text text-anchor="start" x="1429" y="-927.17" font-family="Arial" font-size="24.00" fill="#000000">systemd &#45;&#45;user services</text>
<text text-anchor="start" x="1408" y="-907.17" font-family="Arial" font-size="19.00" fill="#000000">[Deployment Node: systemd &#45;&#45;user]</text>
</g>
<g id="clust7" class="cluster">
<title>cluster_193</title>
<polygon fill="none" stroke="#888888" points="677,-216 677,-780.38 2023,-780.38 2023,-216 677,-216"/>
<text text-anchor="start" x="1191" y="-244.8" font-family="Arial" font-size="24.00" fill="#000000">WSL XDG runtime data paths</text>
<text text-anchor="start" x="1198" y="-224.8" font-family="Arial" font-size="19.00" fill="#000000">[Deployment Node: WSL filesystem]</text>
</g>
<g id="clust8" class="cluster">
<title>cluster_206</title>
<polygon fill="none" stroke="#888888" points="58,-232.5 58,-763.88 652,-763.88 652,-232.5 58,-232.5"/>
<text text-anchor="start" x="168.5" y="-261.3" font-family="Arial" font-size="24.00" fill="#000000">WSL&#45;mounted guarded media root</text>
<text text-anchor="start" x="114.5" y="-241.3" font-family="Arial" font-size="19.00" fill="#000000">[Deployment Node: NAS mount of TrueNAS ZFS dataset]</text>
</g>
<!-- 178 -->
<g id="178" class="node">
<title>178</title>
<polygon fill="#438dd5" stroke="#2e6295" points="2557,-1813.38 2123,-1813.38 2123,-1534.38 2557,-1534.38 2557,-1813.38"/>
<text text-anchor="start" x="2160" y="-1765.17" font-family="Arial" font-size="34.00" fill="#ffffff">Chrome MV3 Extension</text>
<text text-anchor="start" x="2152" y="-1743.17" font-family="Arial" font-size="19.00" fill="#ffffff">[Container: JavaScript, Chrome Manifest V3]</text>
<text text-anchor="start" x="2197" y="-1706.17" font-family="Arial" font-size="24.00" fill="#ffffff">Captures visible page text,</text>
<text text-anchor="start" x="2222.5" y="-1682.17" font-family="Arial" font-size="24.00" fill="#ffffff">media references, tab</text>
<text text-anchor="start" x="2231" y="-1658.17" font-family="Arial" font-size="24.00" fill="#ffffff">lifecycle events, and</text>
<text text-anchor="start" x="2174" y="-1634.17" font-family="Arial" font-size="24.00" fill="#ffffff">browser&#45;side media bytes from</text>
<text text-anchor="start" x="2169" y="-1610.17" font-family="Arial" font-size="24.00" fill="#ffffff">Windows Chrome; queues work</text>
<text text-anchor="start" x="2181" y="-1586.17" font-family="Arial" font-size="24.00" fill="#ffffff">durably and posts to the WSL</text>
<text text-anchor="start" x="2292.5" y="-1562.17" font-family="Arial" font-size="24.00" fill="#ffffff">daemon.</text>
</g>
<!-- 185 -->
<g id="185" class="node">
<title>185</title>
<polygon fill="#438dd5" stroke="#2e6295" points="1788,-1215.38 1326,-1215.38 1326,-974.38 1788,-974.38 1788,-1215.38"/>
<text text-anchor="start" x="1392.5" y="-1167.17" font-family="Arial" font-size="34.00" fill="#ffffff">WSL Loopback HTTP</text>
<text text-anchor="start" x="1492.5" y="-1133.17" font-family="Arial" font-size="34.00" fill="#ffffff">Daemon</text>
<text text-anchor="start" x="1355" y="-1111.17" font-family="Arial" font-size="19.00" fill="#ffffff">[Container: Python 3.11, ThreadingHTTPServer]</text>
<text text-anchor="start" x="1391.5" y="-1074.17" font-family="Arial" font-size="24.00" fill="#ffffff">Authenticated loopback API for</text>
<text text-anchor="start" x="1412.5" y="-1050.17" font-family="Arial" font-size="24.00" fill="#ffffff">capture, read/admin/media</text>
<text text-anchor="start" x="1413" y="-1026.17" font-family="Arial" font-size="24.00" fill="#ffffff">operations, and query&#45;only</text>
<text text-anchor="start" x="1394.5" y="-1002.17" font-family="Arial" font-size="24.00" fill="#ffffff">bmd.x&#45;observations v1 export.</text>
</g>
<!-- 178&#45;&gt;185 -->
<g id="186" class="edge">
<title>178&#45;&gt;185</title>
<path fill="none" stroke="#707070" stroke-dasharray="5,2" d="M2196.29,-1534.22C2102.13,-1447.27 1973.94,-1336.01 1850,-1251.38 1833.14,-1239.86 1815.33,-1228.56 1797.16,-1217.62"/>
<polygon fill="#707070" stroke="#707070" points="1798.6,-1214.4 1788.22,-1212.28 1795.01,-1220.41 1798.6,-1214.4"/>
<polygon fill="white" stroke="transparent" points="2005,-1251.38 2005,-1374.38 2500,-1374.38 2500,-1251.38 2005,-1251.38"/>
<text text-anchor="start" x="2172" y="-1351.67" font-family="Arial" font-size="24.00" fill="#707070">Posts /capture,</text>
<text text-anchor="start" x="2149" y="-1327.67" font-family="Arial" font-size="24.00" fill="#707070">/visit&#45;events, media</text>
<text text-anchor="start" x="2126" y="-1303.67" font-family="Arial" font-size="24.00" fill="#707070">metadata, and raw blob</text>
<text text-anchor="start" x="2197" y="-1279.67" font-family="Arial" font-size="24.00" fill="#707070">uploads to</text>
<text text-anchor="start" x="2009.5" y="-1259.67" font-family="Arial" font-size="19.00" fill="#707070">[Bearer HTTP/JSON; raw HTTP PUT over 127.0.0.1:8765]</text>
</g>
<!-- 181 -->
<g id="181" class="node">
<title>181</title>
<polygon fill="#438dd5" stroke="#2e6295" points="3141,-1801.38 2629,-1801.38 2629,-1546.38 3141,-1546.38 3141,-1801.38"/>
<text text-anchor="start" x="2782.5" y="-1753.17" font-family="Arial" font-size="34.00" fill="#ffffff">Local Web UI</text>
<text text-anchor="start" x="2658" y="-1731.17" font-family="Arial" font-size="19.00" fill="#ffffff">[Container: HTML/CSS/JavaScript served by daemon]</text>
<text text-anchor="start" x="2743" y="-1694.17" font-family="Arial" font-size="24.00" fill="#ffffff">Static browser UI for exact</text>
<text text-anchor="start" x="2726" y="-1670.17" font-family="Arial" font-size="24.00" fill="#ffffff">search, recent/timeline views,</text>
<text text-anchor="start" x="2743.5" y="-1646.17" font-family="Arial" font-size="24.00" fill="#ffffff">document/snapshot detail,</text>
<text text-anchor="start" x="2728" y="-1622.17" font-family="Arial" font-size="24.00" fill="#ffffff">media artifact opening, policy</text>
<text text-anchor="start" x="2791.5" y="-1598.17" font-family="Arial" font-size="24.00" fill="#ffffff">rules, doctor, and</text>
<text text-anchor="start" x="2746.5" y="-1574.17" font-family="Arial" font-size="24.00" fill="#ffffff">forget&#45;domain operations.</text>
</g>
<!-- 181&#45;&gt;185 -->
<g id="187" class="edge">
<title>181&#45;&gt;185</title>
<path fill="none" stroke="#707070" stroke-dasharray="5,2" d="M2809.53,-1545.9C2744.82,-1448.94 2642.45,-1320.56 2518,-1251.38 2397.71,-1184.5 2041.51,-1139.78 1798.26,-1116.09"/>
<polygon fill="#707070" stroke="#707070" points="1798.5,-1112.6 1788.21,-1115.12 1797.83,-1119.56 1798.5,-1112.6"/>
<polygon fill="white" stroke="transparent" points="2672,-1263.38 2672,-1362.38 2949,-1362.38 2949,-1263.38 2672,-1263.38"/>
<text text-anchor="start" x="2677" y="-1339.67" font-family="Arial" font-size="24.00" fill="#707070">Calls authenticated read,</text>
<text text-anchor="start" x="2676.5" y="-1315.67" font-family="Arial" font-size="24.00" fill="#707070">admin, media, and forget</text>
<text text-anchor="start" x="2768.5" y="-1291.67" font-family="Arial" font-size="24.00" fill="#707070">APIs on</text>
<text text-anchor="start" x="2753" y="-1271.67" font-family="Arial" font-size="19.00" fill="#707070">[HTTP/JSON]</text>
</g>
<!-- 194 -->
<g id="194" class="node">
<title>194</title>
<path fill="#2f95c8" stroke="#20688c" d="M1072,-672.9C1072,-691.2 989.08,-706.06 887,-706.06 784.92,-706.06 702,-691.2 702,-672.9 702,-672.9 702,-374.47 702,-374.47 702,-356.17 784.92,-341.31 887,-341.31 989.08,-341.31 1072,-356.17 1072,-374.47 1072,-374.47 1072,-672.9 1072,-672.9"/>
<path fill="none" stroke="#20688c" d="M1072,-672.9C1072,-654.61 989.08,-639.74 887,-639.74 784.92,-639.74 702,-654.61 702,-672.9"/>
<text text-anchor="start" x="774" y="-607.99" font-family="Arial" font-size="34.00" fill="#ffffff">SQLite + FTS5</text>
<text text-anchor="start" x="814" y="-573.99" font-family="Arial" font-size="34.00" fill="#ffffff">Database</text>
<text text-anchor="start" x="761" y="-551.99" font-family="Arial" font-size="19.00" fill="#ffffff">[Container: SQLite with FTS5]</text>
<text text-anchor="start" x="767.5" y="-514.99" font-family="Arial" font-size="24.00" fill="#ffffff">Durable text/metadata</text>
<text text-anchor="start" x="736" y="-490.99" font-family="Arial" font-size="24.00" fill="#ffffff">authority including migration</text>
<text text-anchor="start" x="731" y="-466.99" font-family="Arial" font-size="24.00" fill="#ffffff">ledger, capture observations,</text>
<text text-anchor="start" x="741" y="-442.99" font-family="Arial" font-size="24.00" fill="#ffffff">and immutable observation</text>
<text text-anchor="start" x="789" y="-418.99" font-family="Arial" font-size="24.00" fill="#ffffff">ingest sequences.</text>
</g>
<!-- 185&#45;&gt;194 -->
<g id="195" class="edge">
<title>185&#45;&gt;194</title>
<path fill="none" stroke="#707070" stroke-dasharray="5,2" d="M1416.53,-974.35C1372.92,-943.89 1322.88,-915.08 1272,-898.38 1246.44,-889.98 1051.97,-905.91 1030,-890.38 972.31,-849.58 937.89,-781.87 917.36,-715.73"/>
<polygon fill="#707070" stroke="#707070" points="920.66,-714.55 914.43,-705.98 913.96,-716.57 920.66,-714.55"/>
<polygon fill="white" stroke="transparent" points="1030,-791.38 1030,-890.38 1340,-890.38 1340,-791.38 1030,-791.38"/>
<text text-anchor="start" x="1034" y="-867.67" font-family="Arial" font-size="24.00" fill="#707070">Reads and writes metadata,</text>
<text text-anchor="start" x="1067" y="-843.67" font-family="Arial" font-size="24.00" fill="#707070">FTS, tasks, audit, and</text>
<text text-anchor="start" x="1129.5" y="-819.67" font-family="Arial" font-size="24.00" fill="#707070">receipts in</text>
<text text-anchor="start" x="1151.5" y="-799.67" font-family="Arial" font-size="19.00" fill="#707070">[sqlite3]</text>
</g>
<!-- 198 -->
<g id="198" class="node">
<title>198</title>
<path fill="#2f95c8" stroke="#20688c" d="M1997.5,-672.9C1997.5,-691.2 1908.98,-706.06 1800,-706.06 1691.02,-706.06 1602.5,-691.2 1602.5,-672.9 1602.5,-672.9 1602.5,-374.47 1602.5,-374.47 1602.5,-356.17 1691.02,-341.31 1800,-341.31 1908.98,-341.31 1997.5,-356.17 1997.5,-374.47 1997.5,-374.47 1997.5,-672.9 1997.5,-672.9"/>
<path fill="none" stroke="#20688c" d="M1997.5,-672.9C1997.5,-654.61 1908.98,-639.74 1800,-639.74 1691.02,-639.74 1602.5,-654.61 1602.5,-672.9"/>
<text text-anchor="start" x="1678.5" y="-607.99" font-family="Arial" font-size="34.00" fill="#ffffff">Local Derivative</text>
<text text-anchor="start" x="1759" y="-573.99" font-family="Arial" font-size="34.00" fill="#ffffff">Store</text>
<text text-anchor="start" x="1660" y="-551.99" font-family="Arial" font-size="19.00" fill="#ffffff">[Container: WSL local filesystem]</text>
<text text-anchor="start" x="1646.5" y="-514.99" font-family="Arial" font-size="24.00" fill="#ffffff">Reconstructible compatibility</text>
<text text-anchor="start" x="1631.5" y="-490.99" font-family="Arial" font-size="24.00" fill="#ffffff">evidence such as pre&#45;version&#45;9</text>
<text text-anchor="start" x="1670" y="-466.99" font-family="Arial" font-size="24.00" fill="#ffffff">clean&#45;text sidecars; new</text>
<text text-anchor="start" x="1676.5" y="-442.99" font-family="Arial" font-size="24.00" fill="#ffffff">captures create no text</text>
<text text-anchor="start" x="1751.5" y="-418.99" font-family="Arial" font-size="24.00" fill="#ffffff">sidecars.</text>
</g>
<!-- 185&#45;&gt;198 -->
<g id="199" class="edge">
<title>185&#45;&gt;198</title>
<path fill="none" stroke="#707070" stroke-dasharray="5,2" d="M1634.73,-974.12C1650.54,-947.17 1666.21,-918.27 1679,-890.38 1704.29,-835.21 1726.85,-773.2 1745.45,-716.13"/>
<polygon fill="#707070" stroke="#707070" points="1748.89,-716.87 1748.63,-706.28 1742.23,-714.72 1748.89,-716.87"/>
<polygon fill="white" stroke="transparent" points="1718,-791.38 1718,-890.38 1986,-890.38 1986,-791.38 1718,-791.38"/>
<text text-anchor="start" x="1722" y="-867.67" font-family="Arial" font-size="24.00" fill="#707070">Reads or deletes legacy</text>
<text text-anchor="start" x="1751.5" y="-843.67" font-family="Arial" font-size="24.00" fill="#707070">text sidecars when</text>
<text text-anchor="start" x="1807" y="-819.67" font-family="Arial" font-size="24.00" fill="#707070">required</text>
<text text-anchor="start" x="1800.5" y="-799.67" font-family="Arial" font-size="19.00" fill="#707070">[Filesystem]</text>
</g>
<!-- 201 -->
<g id="201" class="node">
<title>201</title>
<path fill="#2f95c8" stroke="#20688c" d="M1530,-713.4C1530,-736.67 1443.49,-755.56 1337,-755.56 1230.51,-755.56 1144,-736.67 1144,-713.4 1144,-713.4 1144,-333.97 1144,-333.97 1144,-310.71 1230.51,-291.81 1337,-291.81 1443.49,-291.81 1530,-310.71 1530,-333.97 1530,-333.97 1530,-713.4 1530,-713.4"/>
<path fill="none" stroke="#20688c" d="M1530,-713.4C1530,-690.14 1443.49,-671.24 1337,-671.24 1230.51,-671.24 1144,-690.14 1144,-713.4"/>
<text text-anchor="start" x="1173" y="-643.99" font-family="Arial" font-size="34.00" fill="#ffffff">Bounded Local Media</text>
<text text-anchor="start" x="1293.5" y="-609.99" font-family="Arial" font-size="34.00" fill="#ffffff">Spool</text>
<text text-anchor="start" x="1197" y="-587.99" font-family="Arial" font-size="19.00" fill="#ffffff">[Container: WSL local filesystem]</text>
<text text-anchor="start" x="1185" y="-550.99" font-family="Arial" font-size="24.00" fill="#ffffff">Opt&#45;in durable outage buffer</text>
<text text-anchor="start" x="1188.5" y="-526.99" font-family="Arial" font-size="24.00" fill="#ffffff">beneath the local WSL data</text>
<text text-anchor="start" x="1215.5" y="-502.99" font-family="Arial" font-size="24.00" fill="#ffffff">root; admission counts</text>
<text text-anchor="start" x="1191.5" y="-478.99" font-family="Arial" font-size="24.00" fill="#ffffff">committed files and distinct</text>
<text text-anchor="start" x="1185" y="-454.99" font-family="Arial" font-size="24.00" fill="#ffffff">in&#45;flight SQLite reservations,</text>
<text text-anchor="start" x="1212" y="-430.99" font-family="Arial" font-size="24.00" fill="#ffffff">and drain verifies bytes</text>
<text text-anchor="start" x="1189.5" y="-406.99" font-family="Arial" font-size="24.00" fill="#ffffff">before tier transition/source</text>
<text text-anchor="start" x="1291" y="-382.99" font-family="Arial" font-size="24.00" fill="#ffffff">cleanup.</text>
</g>
<!-- 185&#45;&gt;201 -->
<g id="202" class="edge">
<title>185&#45;&gt;201</title>
<path fill="none" stroke="#707070" stroke-dasharray="5,2" d="M1440.32,-974.16C1420.38,-948.22 1401.95,-919.71 1389,-890.38 1371.88,-851.6 1360.14,-808.46 1352.13,-765.81"/>
<polygon fill="#707070" stroke="#707070" points="1355.56,-765.07 1350.33,-755.85 1348.67,-766.32 1355.56,-765.07"/>
<polygon fill="white" stroke="transparent" points="1389,-791.38 1389,-890.38 1665,-890.38 1665,-791.38 1389,-791.38"/>
<text text-anchor="start" x="1393" y="-867.67" font-family="Arial" font-size="24.00" fill="#707070">Stores and serves media</text>
<text text-anchor="start" x="1420" y="-843.67" font-family="Arial" font-size="24.00" fill="#707070">during guarded&#45;root</text>
<text text-anchor="start" x="1471" y="-819.67" font-family="Arial" font-size="24.00" fill="#707070">outages in</text>
<text text-anchor="start" x="1475.5" y="-799.67" font-family="Arial" font-size="19.00" fill="#707070">[Filesystem]</text>
</g>
<!-- 207 -->
<g id="207" class="node">
<title>207</title>
<path fill="#2f95c8" stroke="#20688c" d="M627,-699.9C627,-721.51 505.09,-739.06 355,-739.06 204.91,-739.06 83,-721.51 83,-699.9 83,-699.9 83,-347.47 83,-347.47 83,-325.86 204.91,-308.31 355,-308.31 505.09,-308.31 627,-325.86 627,-347.47 627,-347.47 627,-699.9 627,-699.9"/>
<path fill="none" stroke="#20688c" d="M627,-699.9C627,-678.3 505.09,-660.74 355,-660.74 204.91,-660.74 83,-678.3 83,-699.9"/>
<text text-anchor="start" x="199.5" y="-631.99" font-family="Arial" font-size="34.00" fill="#ffffff">Guarded Media Blob</text>
<text text-anchor="start" x="305.5" y="-597.99" font-family="Arial" font-size="34.00" fill="#ffffff">Cache</text>
<text text-anchor="start" x="112" y="-575.99" font-family="Arial" font-size="19.00" fill="#ffffff">[Container: WSL&#45;visible local or NAS&#45;mounted filesystem]</text>
<text text-anchor="start" x="245" y="-538.99" font-family="Arial" font-size="24.00" fill="#ffffff">Bounded disposable</text>
<text text-anchor="start" x="189.5" y="-514.99" font-family="Arial" font-size="24.00" fill="#ffffff">image/video/audio bytes under</text>
<text text-anchor="start" x="213.5" y="-490.99" font-family="Arial" font-size="24.00" fill="#ffffff">the configured media root;</text>
<text text-anchor="start" x="241" y="-466.99" font-family="Arial" font-size="24.00" fill="#ffffff">explicit external roots</text>
<text text-anchor="start" x="256" y="-442.99" font-family="Arial" font-size="24.00" fill="#ffffff">require mount and</text>
<text text-anchor="start" x="205.5" y="-418.99" font-family="Arial" font-size="24.00" fill="#ffffff">identity&#45;marker proof before</text>
<text text-anchor="start" x="314" y="-394.99" font-family="Arial" font-size="24.00" fill="#ffffff">access.</text>
</g>
<!-- 185&#45;&gt;207 -->
<g id="208" class="edge">
<title>185&#45;&gt;207</title>
<path fill="none" stroke="#707070" stroke-dasharray="5,2" d="M1417.48,-974.19C1373.71,-943.53 1323.34,-914.64 1272,-898.38 1237.63,-887.49 655.06,-906.88 623,-890.38 560.63,-858.27 509.21,-804.21 468.67,-747.36"/>
<polygon fill="#707070" stroke="#707070" points="471.38,-745.12 462.77,-738.95 465.65,-749.15 471.38,-745.12"/>
<polygon fill="white" stroke="transparent" points="623,-791.38 623,-890.38 931,-890.38 931,-791.38 623,-791.38"/>
<text text-anchor="start" x="652" y="-867.67" font-family="Arial" font-size="24.00" fill="#707070">Stores, serves, purges,</text>
<text text-anchor="start" x="627" y="-843.67" font-family="Arial" font-size="24.00" fill="#707070">and rehydrates media blobs</text>
<text text-anchor="start" x="767.5" y="-819.67" font-family="Arial" font-size="24.00" fill="#707070">in</text>
<text text-anchor="start" x="725.5" y="-799.67" font-family="Arial" font-size="19.00" fill="#707070">[Filesystem]</text>
</g>
<!-- 188 -->
<g id="188" class="node">
<title>188</title>
<polygon fill="#438dd5" stroke="#2e6295" points="1711.5,-1861.38 1326.5,-1861.38 1326.5,-1486.38 1711.5,-1486.38 1711.5,-1861.38"/>
<text text-anchor="start" x="1372" y="-1813.17" font-family="Arial" font-size="34.00" fill="#ffffff">WSL Media Worker</text>
<text text-anchor="start" x="1379" y="-1791.17" font-family="Arial" font-size="19.00" fill="#ffffff">[Container: Python 3.11 CLI loop]</text>
<text text-anchor="start" x="1371.5" y="-1754.17" font-family="Arial" font-size="24.00" fill="#ffffff">Long&#45;running systemd user</text>
<text text-anchor="start" x="1376" y="-1730.17" font-family="Arial" font-size="24.00" fill="#ffffff">worker that first drains one</text>
<text text-anchor="start" x="1355.5" y="-1706.17" font-family="Arial" font-size="24.00" fill="#ffffff">bounded spool&#45;recovery batch</text>
<text text-anchor="start" x="1359.5" y="-1682.17" font-family="Arial" font-size="24.00" fill="#ffffff">when the guarded final root is</text>
<text text-anchor="start" x="1420.5" y="-1658.17" font-family="Arial" font-size="24.00" fill="#ffffff">ready, then leases</text>
<text text-anchor="start" x="1373" y="-1634.17" font-family="Arial" font-size="24.00" fill="#ffffff">daemon&#45;public media fetch</text>
<text text-anchor="start" x="1410" y="-1610.17" font-family="Arial" font-size="24.00" fill="#ffffff">tasks, fetches public</text>
<text text-anchor="start" x="1371" y="-1586.17" font-family="Arial" font-size="24.00" fill="#ffffff">media/HLS without Chrome</text>
<text text-anchor="start" x="1376" y="-1562.17" font-family="Arial" font-size="24.00" fill="#ffffff">cookies, classifies terminal</text>
<text text-anchor="start" x="1373" y="-1538.17" font-family="Arial" font-size="24.00" fill="#ffffff">states, and updates artifact</text>
<text text-anchor="start" x="1490" y="-1514.17" font-family="Arial" font-size="24.00" fill="#ffffff">rows.</text>
</g>
<!-- 188&#45;&gt;185 -->
<g id="189" class="edge">
<title>188&#45;&gt;185</title>
<path fill="none" stroke="#707070" stroke-dasharray="5,2" d="M1531.29,-1486.34C1536.89,-1401.26 1543.39,-1302.6 1548.45,-1225.74"/>
<polygon fill="#707070" stroke="#707070" points="1551.96,-1225.73 1549.12,-1215.53 1544.97,-1225.27 1551.96,-1225.73"/>
<polygon fill="white" stroke="transparent" points="1546,-1282.88 1546,-1342.88 1832,-1342.88 1832,-1282.88 1546,-1282.88"/>
<text text-anchor="start" x="1550" y="-1319.67" font-family="Arial" font-size="24.00" fill="#707070">Runs bounded lease/retry</text>
<text text-anchor="start" x="1571.5" y="-1293.67" font-family="Arial" font-size="24.00" fill="#707070">task workflow through</text>
</g>
<!-- 188&#45;&gt;194 -->
<g id="196" class="edge">
<title>188&#45;&gt;194</title>
<path fill="none" stroke="#707070" stroke-dasharray="5,2" d="M1326.08,-1626.13C1120.7,-1566.15 801.5,-1441.72 625,-1215.38 507.32,-1064.46 421.01,-932.74 550,-791.38 568.05,-771.59 646.24,-792.72 670,-780.38 703.43,-763 733.83,-738.07 760.59,-710.52"/>
<polygon fill="#707070" stroke="#707070" points="763.32,-712.73 767.68,-703.07 758.25,-707.9 763.32,-712.73"/>
<polygon fill="white" stroke="transparent" points="625,-1057.38 625,-1132.38 925,-1132.38 925,-1057.38 625,-1057.38"/>
<text text-anchor="start" x="629" y="-1109.67" font-family="Arial" font-size="24.00" fill="#707070">Leases and updates media</text>
<text text-anchor="start" x="734" y="-1085.67" font-family="Arial" font-size="24.00" fill="#707070">tasks in</text>
<text text-anchor="start" x="741.5" y="-1065.67" font-family="Arial" font-size="19.00" fill="#707070">[sqlite3]</text>
</g>
<!-- 188&#45;&gt;201 -->
<g id="203" class="edge">
<title>188&#45;&gt;201</title>
<path fill="none" stroke="#707070" stroke-dasharray="5,2" d="M1326.41,-1520.29C1233.43,-1438.26 1126.58,-1330.44 1054,-1215.38 972.5,-1086.15 967.24,-1041.06 942,-890.38 938.37,-868.68 926.97,-807.44 942,-791.38 954.63,-777.88 1091.38,-788.47 1108,-780.38 1126.07,-771.57 1143.35,-760.65 1159.75,-748.32"/>
<polygon fill="#707070" stroke="#707070" points="1161.95,-751.04 1167.72,-742.16 1157.67,-745.5 1161.95,-751.04"/>
<polygon fill="white" stroke="transparent" points="1054,-1045.38 1054,-1144.38 1290,-1144.38 1290,-1045.38 1054,-1045.38"/>
<text text-anchor="start" x="1058" y="-1121.67" font-family="Arial" font-size="24.00" fill="#707070">Writes fetched media</text>
<text text-anchor="start" x="1065" y="-1097.67" font-family="Arial" font-size="24.00" fill="#707070">during guarded&#45;root</text>
<text text-anchor="start" x="1115" y="-1073.67" font-family="Arial" font-size="24.00" fill="#707070">outages to</text>
<text text-anchor="start" x="1120.5" y="-1053.67" font-family="Arial" font-size="19.00" fill="#707070">[Filesystem]</text>
</g>
<!-- 188&#45;&gt;207 -->
<g id="209" class="edge">
<title>188&#45;&gt;207</title>
<path fill="none" stroke="#707070" stroke-dasharray="5,2" d="M1326.26,-1636.06C986.9,-1566.9 305.5,-1407.11 168,-1215.38 69.79,-1078.42 128.18,-892.66 204.77,-748.28"/>
<polygon fill="#707070" stroke="#707070" points="207.97,-749.73 209.61,-739.27 201.8,-746.43 207.97,-749.73"/>
<polygon fill="white" stroke="transparent" points="168,-1057.38 168,-1132.38 468,-1132.38 468,-1057.38 168,-1057.38"/>
<text text-anchor="start" x="172" y="-1109.67" font-family="Arial" font-size="24.00" fill="#707070">Writes fetched media blobs</text>
<text text-anchor="start" x="307.5" y="-1085.67" font-family="Arial" font-size="24.00" fill="#707070">to</text>
<text text-anchor="start" x="266.5" y="-1065.67" font-family="Arial" font-size="19.00" fill="#707070">[Filesystem]</text>
</g>
</g>
</svg>
