<?xml version="1.0" encoding="UTF-8" standalone="no"?>
<!DOCTYPE svg PUBLIC "-//W3C//DTD SVG 1.1//EN"
 "http://www.w3.org/Graphics/SVG/1.1/DTD/svg11.dtd">
<!-- Generated by graphviz version 2.43.0 (0)
 -->
<!-- Title: %3 Pages: 1 -->
<svg width="1146pt" height="487pt"
 viewBox="0.00 0.00 1146.00 487.19" xmlns="http://www.w3.org/2000/svg" xmlns:xlink="http://www.w3.org/1999/xlink">
<g id="graph0" class="graph" transform="scale(1 1) rotate(0) translate(4 483.19)">
<title>%3</title>
<polygon fill="white" stroke="transparent" points="-4,4 -4,-483.19 1142,-483.19 1142,4 -4,4"/>
<text text-anchor="start" x="217.5" y="-11.8" font-family="Arial" font-size="34.00">Browser Memory Daemon &#45; CLI &#45; Components</text>
<g id="clust1" class="cluster">
<title>cluster_51</title>
<polygon fill="none" stroke="#444444" points="8,-64 8,-455 464,-455 464,-64 8,-64"/>
<text text-anchor="start" x="217" y="-92.8" font-family="Arial" font-size="24.00" fill="#444444">CLI</text>
<text text-anchor="start" x="115" y="-72.8" font-family="Arial" font-size="19.00" fill="#444444">[Container: Python argparse]</text>
</g>
<!-- 57 -->
<g id="57" class="node">
<title>57</title>
<path fill="#2f95c8" stroke="#20688c" d="M1138,-446.22C1138,-464.51 1055.08,-479.38 953,-479.38 850.92,-479.38 768,-464.51 768,-446.22 768,-446.22 768,-147.78 768,-147.78 768,-129.49 850.92,-114.62 953,-114.62 1055.08,-114.62 1138,-129.49 1138,-147.78 1138,-147.78 1138,-446.22 1138,-446.22"/>
<path fill="none" stroke="#20688c" d="M1138,-446.22C1138,-427.92 1055.08,-413.06 953,-413.06 850.92,-413.06 768,-427.92 768,-446.22"/>
<text text-anchor="start" x="840" y="-381.3" font-family="Arial" font-size="34.00" fill="#ffffff">SQLite + FTS5</text>
<text text-anchor="start" x="880" y="-347.3" font-family="Arial" font-size="34.00" fill="#ffffff">Database</text>
<text text-anchor="start" x="827" y="-325.3" font-family="Arial" font-size="19.00" fill="#ffffff">[Container: SQLite with FTS5]</text>
<text text-anchor="start" x="833.5" y="-288.3" font-family="Arial" font-size="24.00" fill="#ffffff">Durable text/metadata</text>
<text text-anchor="start" x="802" y="-264.3" font-family="Arial" font-size="24.00" fill="#ffffff">authority including migration</text>
<text text-anchor="start" x="797" y="-240.3" font-family="Arial" font-size="24.00" fill="#ffffff">ledger, capture observations,</text>
<text text-anchor="start" x="807" y="-216.3" font-family="Arial" font-size="24.00" fill="#ffffff">and immutable observation</text>
<text text-anchor="start" x="855" y="-192.3" font-family="Arial" font-size="24.00" fill="#ffffff">ingest sequences.</text>
</g>
<!-- 54 -->
<g id="54" class="node">
<title>54</title>
<polygon fill="#85bbf0" stroke="#1168bd" points="439,-429.5 33,-429.5 33,-164.5 439,-164.5 439,-429.5"/>
<text text-anchor="start" x="62" y="-381.3" font-family="Arial" font-size="34.00" fill="#000000">Media Cache Requeue</text>
<text text-anchor="start" x="169" y="-347.3" font-family="Arial" font-size="34.00" fill="#000000">Operator</text>
<text text-anchor="start" x="108" y="-325.3" font-family="Arial" font-size="19.00" fill="#000000">[Component: Python + sqlite3]</text>
<text text-anchor="start" x="121" y="-288.3" font-family="Arial" font-size="24.00" fill="#000000">Previews or executes</text>
<text text-anchor="start" x="148" y="-264.3" font-family="Arial" font-size="24.00" fill="#000000">explicitly scoped</text>
<text text-anchor="start" x="85" y="-240.3" font-family="Arial" font-size="24.00" fill="#000000">dry&#45;run&#45;first budget requeue</text>
<text text-anchor="start" x="99" y="-216.3" font-family="Arial" font-size="24.00" fill="#000000">through in&#45;process media</text>
<text text-anchor="start" x="127.5" y="-192.3" font-family="Arial" font-size="24.00" fill="#000000">repository functions.</text>
</g>
<!-- 54&#45;&gt;57 -->
<g id="102" class="edge">
<title>54&#45;&gt;57</title>
<path fill="none" stroke="#707070" stroke-dasharray="5,2" d="M439.02,-297C538.93,-297 658.97,-297 757.79,-297"/>
<polygon fill="#707070" stroke="#707070" points="757.9,-300.5 767.9,-297 757.9,-293.5 757.9,-300.5"/>
<polygon fill="white" stroke="transparent" points="475,-297 475,-396 732,-396 732,-297 475,-297"/>
<text text-anchor="start" x="498.5" y="-373.3" font-family="Arial" font-size="24.00" fill="#707070">Reads and updates</text>
<text text-anchor="start" x="479.5" y="-349.3" font-family="Arial" font-size="24.00" fill="#707070">explicitly scoped media</text>
<text text-anchor="start" x="499.5" y="-325.3" font-family="Arial" font-size="24.00" fill="#707070">artifact/task state in</text>
<text text-anchor="start" x="570.5" y="-305.3" font-family="Arial" font-size="19.00" fill="#707070">[sqlite3]</text>
</g>
</g>
</svg>
