<?xml version="1.0" encoding="UTF-8" standalone="no"?>
<!DOCTYPE svg PUBLIC "-//W3C//DTD SVG 1.1//EN"
 "http://www.w3.org/Graphics/SVG/1.1/DTD/svg11.dtd">
<!-- Generated by graphviz version 2.43.0 (0)
 -->
<!-- Title: %3 Pages: 1 -->
<svg width="2174pt" height="1803pt"
 viewBox="0.00 0.00 2174.00 1802.69" xmlns="http://www.w3.org/2000/svg" xmlns:xlink="http://www.w3.org/1999/xlink">
<g id="graph0" class="graph" transform="scale(1 1) rotate(0) translate(4 1798.69)">
<title>%3</title>
<polygon fill="white" stroke="transparent" points="-4,4 -4,-1798.69 2170,-1798.69 2170,4 -4,4"/>
<text text-anchor="start" x="611.5" y="-11.8" font-family="Arial" font-size="34.00">Browser Memory Daemon &#45; WSL Media Worker &#45; Components</text>
<g id="clust1" class="cluster">
<title>cluster_45</title>
<polygon fill="none" stroke="#444444" points="8,-589.5 8,-1724.5 1257,-1724.5 1257,-589.5 8,-589.5"/>
<text text-anchor="start" x="528" y="-618.3" font-family="Arial" font-size="24.00" fill="#444444">WSL Media Worker</text>
<text text-anchor="start" x="492.5" y="-598.3" font-family="Arial" font-size="19.00" fill="#444444">[Container: Python 3.11 CLI loop]</text>
</g>
<!-- 3 -->
<g id="3" class="node">
<title>3</title>
<polygon fill="#999999" stroke="#6b6b6b" points="2095.5,-321 1692.5,-321 1692.5,-56 2095.5,-56 2095.5,-321"/>
<text text-anchor="start" x="1732.5" y="-272.8" font-family="Arial" font-size="34.00" fill="#ffffff">Web Sites and Media</text>
<text text-anchor="start" x="1840" y="-238.8" font-family="Arial" font-size="34.00" fill="#ffffff">Origins</text>
<text text-anchor="start" x="1817" y="-216.8" font-family="Arial" font-size="19.00" fill="#ffffff">[Software System]</text>
<text text-anchor="start" x="1784" y="-179.8" font-family="Arial" font-size="24.00" fill="#ffffff">External web pages,</text>
<text text-anchor="start" x="1731.5" y="-155.8" font-family="Arial" font-size="24.00" fill="#ffffff">image/video URLs, and media</text>
<text text-anchor="start" x="1721.5" y="-131.8" font-family="Arial" font-size="24.00" fill="#ffffff">CDNs that Chrome loads or that</text>
<text text-anchor="start" x="1731.5" y="-107.8" font-family="Arial" font-size="24.00" fill="#ffffff">sidecars fetch as page&#45;related</text>
<text text-anchor="start" x="1857.5" y="-83.8" font-family="Arial" font-size="24.00" fill="#ffffff">media.</text>
</g>
<!-- 57 -->
<g id="57" class="node">
<title>57</title>
<path fill="#2f95c8" stroke="#20688c" d="M2079,-1761.72C2079,-1780.01 1996.08,-1794.88 1894,-1794.88 1791.92,-1794.88 1709,-1780.01 1709,-1761.72 1709,-1761.72 1709,-1463.28 1709,-1463.28 1709,-1444.99 1791.92,-1430.12 1894,-1430.12 1996.08,-1430.12 2079,-1444.99 2079,-1463.28 2079,-1463.28 2079,-1761.72 2079,-1761.72"/>
<path fill="none" stroke="#20688c" d="M2079,-1761.72C2079,-1743.42 1996.08,-1728.56 1894,-1728.56 1791.92,-1728.56 1709,-1743.42 1709,-1761.72"/>
<text text-anchor="start" x="1781" y="-1696.8" font-family="Arial" font-size="34.00" fill="#ffffff">SQLite + FTS5</text>
<text text-anchor="start" x="1821" y="-1662.8" font-family="Arial" font-size="34.00" fill="#ffffff">Database</text>
<text text-anchor="start" x="1768" y="-1640.8" font-family="Arial" font-size="19.00" fill="#ffffff">[Container: SQLite with FTS5]</text>
<text text-anchor="start" x="1774.5" y="-1603.8" font-family="Arial" font-size="24.00" fill="#ffffff">Durable text/metadata</text>
<text text-anchor="start" x="1743" y="-1579.8" font-family="Arial" font-size="24.00" fill="#ffffff">authority including migration</text>
<text text-anchor="start" x="1738" y="-1555.8" font-family="Arial" font-size="24.00" fill="#ffffff">ledger, capture observations,</text>
<text text-anchor="start" x="1748" y="-1531.8" font-family="Arial" font-size="24.00" fill="#ffffff">and immutable observation</text>
<text text-anchor="start" x="1796" y="-1507.8" font-family="Arial" font-size="24.00" fill="#ffffff">ingest sequences.</text>
</g>
<!-- 59 -->
<g id="59" class="node">
<title>59</title>
<path fill="#2f95c8" stroke="#20688c" d="M2166,-1319.72C2166,-1341.32 2044.09,-1358.88 1894,-1358.88 1743.91,-1358.88 1622,-1341.32 1622,-1319.72 1622,-1319.72 1622,-967.28 1622,-967.28 1622,-945.68 1743.91,-928.12 1894,-928.12 2044.09,-928.12 2166,-945.68 2166,-967.28 2166,-967.28 2166,-1319.72 2166,-1319.72"/>
<path fill="none" stroke="#20688c" d="M2166,-1319.72C2166,-1298.11 2044.09,-1280.56 1894,-1280.56 1743.91,-1280.56 1622,-1298.11 1622,-1319.72"/>
<text text-anchor="start" x="1738.5" y="-1251.8" font-family="Arial" font-size="34.00" fill="#ffffff">Guarded Media Blob</text>
<text text-anchor="start" x="1844.5" y="-1217.8" font-family="Arial" font-size="34.00" fill="#ffffff">Cache</text>
<text text-anchor="start" x="1651" y="-1195.8" font-family="Arial" font-size="19.00" fill="#ffffff">[Container: WSL&#45;visible local or NAS&#45;mounted filesystem]</text>
<text text-anchor="start" x="1784" y="-1158.8" font-family="Arial" font-size="24.00" fill="#ffffff">Bounded disposable</text>
<text text-anchor="start" x="1728.5" y="-1134.8" font-family="Arial" font-size="24.00" fill="#ffffff">image/video/audio bytes under</text>
<text text-anchor="start" x="1752.5" y="-1110.8" font-family="Arial" font-size="24.00" fill="#ffffff">the configured media root;</text>
<text text-anchor="start" x="1780" y="-1086.8" font-family="Arial" font-size="24.00" fill="#ffffff">explicit external roots</text>
<text text-anchor="start" x="1795" y="-1062.8" font-family="Arial" font-size="24.00" fill="#ffffff">require mount and</text>
<text text-anchor="start" x="1744.5" y="-1038.8" font-family="Arial" font-size="24.00" fill="#ffffff">identity&#45;marker proof before</text>
<text text-anchor="start" x="1853" y="-1014.8" font-family="Arial" font-size="24.00" fill="#ffffff">access.</text>
</g>
<!-- 60 -->
<g id="60" class="node">
<title>60</title>
<path fill="#2f95c8" stroke="#20688c" d="M2087,-814.22C2087,-837.48 2000.49,-856.38 1894,-856.38 1787.51,-856.38 1701,-837.48 1701,-814.22 1701,-814.22 1701,-434.78 1701,-434.78 1701,-411.52 1787.51,-392.62 1894,-392.62 2000.49,-392.62 2087,-411.52 2087,-434.78 2087,-434.78 2087,-814.22 2087,-814.22"/>
<path fill="none" stroke="#20688c" d="M2087,-814.22C2087,-790.95 2000.49,-772.06 1894,-772.06 1787.51,-772.06 1701,-790.95 1701,-814.22"/>
<text text-anchor="start" x="1730" y="-744.8" font-family="Arial" font-size="34.00" fill="#ffffff">Bounded Local Media</text>
<text text-anchor="start" x="1850.5" y="-710.8" font-family="Arial" font-size="34.00" fill="#ffffff">Spool</text>
<text text-anchor="start" x="1754" y="-688.8" font-family="Arial" font-size="19.00" fill="#ffffff">[Container: WSL local filesystem]</text>
<text text-anchor="start" x="1742" y="-651.8" font-family="Arial" font-size="24.00" fill="#ffffff">Opt&#45;in durable outage buffer</text>
<text text-anchor="start" x="1745.5" y="-627.8" font-family="Arial" font-size="24.00" fill="#ffffff">beneath the local WSL data</text>
<text text-anchor="start" x="1772.5" y="-603.8" font-family="Arial" font-size="24.00" fill="#ffffff">root; admission counts</text>
<text text-anchor="start" x="1748.5" y="-579.8" font-family="Arial" font-size="24.00" fill="#ffffff">committed files and distinct</text>
<text text-anchor="start" x="1742" y="-555.8" font-family="Arial" font-size="24.00" fill="#ffffff">in&#45;flight SQLite reservations,</text>
<text text-anchor="start" x="1769" y="-531.8" font-family="Arial" font-size="24.00" fill="#ffffff">and drain verifies bytes</text>
<text text-anchor="start" x="1746.5" y="-507.8" font-family="Arial" font-size="24.00" fill="#ffffff">before tier transition/source</text>
<text text-anchor="start" x="1848" y="-483.8" font-family="Arial" font-size="24.00" fill="#ffffff">cleanup.</text>
</g>
<!-- 46 -->
<g id="46" class="node">
<title>46</title>
<polygon fill="#85bbf0" stroke="#1168bd" points="426,-1322 33,-1322 33,-1067 426,-1067 426,-1322"/>
<text text-anchor="start" x="81.5" y="-1273.8" font-family="Arial" font-size="34.00" fill="#000000">Media Worker Loop</text>
<text text-anchor="start" x="140.5" y="-1251.8" font-family="Arial" font-size="19.00" fill="#000000">[Component: Python]</text>
<text text-anchor="start" x="62" y="-1214.8" font-family="Arial" font-size="24.00" fill="#000000">Orders one bounded automatic</text>
<text text-anchor="start" x="67" y="-1190.8" font-family="Arial" font-size="24.00" fill="#000000">spool&#45;recovery pass, bounded</text>
<text text-anchor="start" x="83.5" y="-1166.8" font-family="Arial" font-size="24.00" fill="#000000">current&#45;state reconciliation,</text>
<text text-anchor="start" x="62.5" y="-1142.8" font-family="Arial" font-size="24.00" fill="#000000">and one bounded public&#45;media</text>
<text text-anchor="start" x="131" y="-1118.8" font-family="Arial" font-size="24.00" fill="#000000">task pass; records</text>
<text text-anchor="start" x="93" y="-1094.8" font-family="Arial" font-size="24.00" fill="#000000">redaction&#45;safe outcomes.</text>
</g>
<!-- 47 -->
<g id="47" class="node">
<title>47</title>
<polygon fill="#85bbf0" stroke="#1168bd" points="1232,-1339 811,-1339 811,-1050 1232,-1050 1232,-1339"/>
<text text-anchor="start" x="897.5" y="-1290.8" font-family="Arial" font-size="34.00" fill="#000000">Automatic Spool</text>
<text text-anchor="start" x="949" y="-1256.8" font-family="Arial" font-size="34.00" fill="#000000">Recovery</text>
<text text-anchor="start" x="840" y="-1234.8" font-family="Arial" font-size="19.00" fill="#000000">[Component: Python + sqlite3 + filesystem]</text>
<text text-anchor="start" x="848.5" y="-1197.8" font-family="Arial" font-size="24.00" fill="#000000">Checks guarded&#45;root readiness,</text>
<text text-anchor="start" x="882.5" y="-1173.8" font-family="Arial" font-size="24.00" fill="#000000">streams and hash&#45;verifies</text>
<text text-anchor="start" x="858.5" y="-1149.8" font-family="Arial" font-size="24.00" fill="#000000">destination bytes, commits the</text>
<text text-anchor="start" x="904" y="-1125.8" font-family="Arial" font-size="24.00" fill="#000000">SQLite tier switch and</text>
<text text-anchor="start" x="865.5" y="-1101.8" font-family="Arial" font-size="24.00" fill="#000000">deletion intent, then removes</text>
<text text-anchor="start" x="933" y="-1077.8" font-family="Arial" font-size="24.00" fill="#000000">the local source.</text>
</g>
<!-- 46&#45;&gt;47 -->
<g id="91" class="edge">
<title>46&#45;&gt;47</title>
<path fill="none" stroke="#707070" stroke-dasharray="5,2" d="M426.03,-1194.5C539.7,-1194.5 683.23,-1194.5 800.79,-1194.5"/>
<polygon fill="#707070" stroke="#707070" points="801,-1198 811,-1194.5 801,-1191 801,-1198"/>
<polygon fill="white" stroke="transparent" points="462,-1194.5 462,-1280.5 775,-1280.5 775,-1194.5 462,-1194.5"/>
<text text-anchor="start" x="466.5" y="-1257.3" font-family="Arial" font-size="24.00" fill="#707070">Runs one bounded recovery</text>
<text text-anchor="start" x="496" y="-1231.3" font-family="Arial" font-size="24.00" fill="#707070">batch before new fetch</text>
<text text-anchor="start" x="548.5" y="-1205.3" font-family="Arial" font-size="24.00" fill="#707070">work through</text>
</g>
<!-- 48 -->
<g id="48" class="node">
<title>48</title>
<polygon fill="#85bbf0" stroke="#1168bd" points="1204,-1700 839,-1700 839,-1411 1204,-1411 1204,-1700"/>
<text text-anchor="start" x="868" y="-1651.8" font-family="Arial" font-size="34.00" fill="#000000">Current&#45;State Media</text>
<text text-anchor="start" x="915.5" y="-1617.8" font-family="Arial" font-size="34.00" fill="#000000">Reconciliation</text>
<text text-anchor="start" x="893.5" y="-1595.8" font-family="Arial" font-size="19.00" fill="#000000">[Component: Python + sqlite3]</text>
<text text-anchor="start" x="868" y="-1558.8" font-family="Arial" font-size="24.00" fill="#000000">Closes bounded stale stored</text>
<text text-anchor="start" x="873" y="-1534.8" font-family="Arial" font-size="24.00" fill="#000000">work and reconciles current</text>
<text text-anchor="start" x="872" y="-1510.8" font-family="Arial" font-size="24.00" fill="#000000">CDP/blob coverage through</text>
<text text-anchor="start" x="908.5" y="-1486.8" font-family="Arial" font-size="24.00" fill="#000000">in&#45;process repository</text>
<text text-anchor="start" x="885" y="-1462.8" font-family="Arial" font-size="24.00" fill="#000000">functions before due&#45;task</text>
<text text-anchor="start" x="979.5" y="-1438.8" font-family="Arial" font-size="24.00" fill="#000000">leasing.</text>
</g>
<!-- 46&#45;&gt;48 -->
<g id="92" class="edge">
<title>46&#45;&gt;48</title>
<path fill="none" stroke="#707070" stroke-dasharray="5,2" d="M426.03,-1283.85C549.18,-1340.12 707.39,-1412.42 829.64,-1468.28"/>
<polygon fill="#707070" stroke="#707070" points="828.2,-1471.47 838.75,-1472.45 831.11,-1465.11 828.2,-1471.47"/>
<polygon fill="white" stroke="transparent" points="464,-1438.5 464,-1524.5 773,-1524.5 773,-1438.5 464,-1438.5"/>
<text text-anchor="start" x="468.5" y="-1501.3" font-family="Arial" font-size="24.00" fill="#707070">Runs bounded current&#45;state</text>
<text text-anchor="start" x="488.5" y="-1475.3" font-family="Arial" font-size="24.00" fill="#707070">cleanup before due&#45;task</text>
<text text-anchor="start" x="536" y="-1449.3" font-family="Arial" font-size="24.00" fill="#707070">leasing through</text>
</g>
<!-- 49 -->
<g id="49" class="node">
<title>49</title>
<polygon fill="#85bbf0" stroke="#1168bd" points="1217,-978 826,-978 826,-689 1217,-689 1217,-978"/>
<text text-anchor="start" x="884.5" y="-929.8" font-family="Arial" font-size="34.00" fill="#000000">Public Media Task</text>
<text text-anchor="start" x="965.5" y="-895.8" font-family="Arial" font-size="34.00" fill="#000000">Runner</text>
<text text-anchor="start" x="893.5" y="-873.8" font-family="Arial" font-size="19.00" fill="#000000">[Component: Python + sqlite3]</text>
<text text-anchor="start" x="875.5" y="-836.8" font-family="Arial" font-size="24.00" fill="#000000">Leases due daemon&#45;public</text>
<text text-anchor="start" x="855" y="-812.8" font-family="Arial" font-size="24.00" fill="#000000">tasks, runs guarded direct/HLS</text>
<text text-anchor="start" x="859" y="-788.8" font-family="Arial" font-size="24.00" fill="#000000">fetch without Chrome cookies,</text>
<text text-anchor="start" x="863.5" y="-764.8" font-family="Arial" font-size="24.00" fill="#000000">applies process budgets, and</text>
<text text-anchor="start" x="892" y="-740.8" font-family="Arial" font-size="24.00" fill="#000000">records terminal or retry</text>
<text text-anchor="start" x="991.5" y="-716.8" font-family="Arial" font-size="24.00" fill="#000000">state.</text>
</g>
<!-- 46&#45;&gt;49 -->
<g id="93" class="edge">
<title>46&#45;&gt;49</title>
<path fill="none" stroke="#707070" stroke-dasharray="5,2" d="M426.03,-1105.15C544.83,-1050.86 696.25,-981.67 816.54,-926.7"/>
<polygon fill="#707070" stroke="#707070" points="818.24,-929.78 825.88,-922.44 815.33,-923.41 818.24,-929.78"/>
<polygon fill="white" stroke="transparent" points="462,-1087.5 462,-1147.5 775,-1147.5 775,-1087.5 462,-1087.5"/>
<text text-anchor="start" x="466.5" y="-1124.3" font-family="Arial" font-size="24.00" fill="#707070">Runs one bounded due&#45;task</text>
<text text-anchor="start" x="544.5" y="-1098.3" font-family="Arial" font-size="24.00" fill="#707070">batch through</text>
</g>
<!-- 47&#45;&gt;57 -->
<g id="94" class="edge">
<title>47&#45;&gt;57</title>
<path fill="none" stroke="#707070" stroke-dasharray="5,2" d="M1232.28,-1294.86C1244.35,-1300.51 1256.33,-1306.09 1268,-1311.5 1408.62,-1376.62 1446.39,-1387.24 1586,-1454.5 1623,-1472.32 1662.18,-1491.92 1699.72,-1511.07"/>
<polygon fill="#707070" stroke="#707070" points="1698.22,-1514.23 1708.72,-1515.67 1701.41,-1508 1698.22,-1514.23"/>
<polygon fill="white" stroke="transparent" points="1296.5,-1454.5 1296.5,-1553.5 1557.5,-1553.5 1557.5,-1454.5 1296.5,-1454.5"/>
<text text-anchor="start" x="1301" y="-1530.8" font-family="Arial" font-size="24.00" fill="#707070">Commits tier transitions</text>
<text text-anchor="start" x="1317.5" y="-1506.8" font-family="Arial" font-size="24.00" fill="#707070">and durable deletion</text>
<text text-anchor="start" x="1385" y="-1482.8" font-family="Arial" font-size="24.00" fill="#707070">intent in</text>
<text text-anchor="start" x="1394" y="-1462.8" font-family="Arial" font-size="19.00" fill="#707070">[sqlite3]</text>
</g>
<!-- 47&#45;&gt;59 -->
<g id="96" class="edge">
<title>47&#45;&gt;59</title>
<path fill="none" stroke="#707070" stroke-dasharray="5,2" d="M1232.15,-1195.27C1338.31,-1194.33 1469.14,-1191.14 1586,-1182.5 1594.47,-1181.87 1603.07,-1181.18 1611.74,-1180.42"/>
<polygon fill="#707070" stroke="#707070" points="1612.31,-1183.88 1621.96,-1179.5 1611.69,-1176.91 1612.31,-1183.88"/>
<polygon fill="white" stroke="transparent" points="1307,-1194.5 1307,-1293.5 1547,-1293.5 1547,-1194.5 1307,-1194.5"/>
<text text-anchor="start" x="1316.5" y="-1270.8" font-family="Arial" font-size="24.00" fill="#707070">Streams and verifies</text>
<text text-anchor="start" x="1311" y="-1246.8" font-family="Arial" font-size="24.00" fill="#707070">recovered destination</text>
<text text-anchor="start" x="1385" y="-1222.8" font-family="Arial" font-size="24.00" fill="#707070">bytes in</text>
<text text-anchor="start" x="1375.5" y="-1202.8" font-family="Arial" font-size="19.00" fill="#707070">[Filesystem]</text>
</g>
<!-- 47&#45;&gt;60 -->
<g id="95" class="edge">
<title>47&#45;&gt;60</title>
<path fill="none" stroke="#707070" stroke-dasharray="5,2" d="M1232.27,-1079.15C1244.21,-1074.2 1256.17,-1069.6 1268,-1065.5 1403.82,-1018.43 1478.33,-1101.73 1586,-1006.5 1625.8,-971.3 1594.3,-937.84 1622,-892.5 1642.19,-859.45 1667.32,-827.49 1694.07,-797.87"/>
<polygon fill="#707070" stroke="#707070" points="1696.75,-800.13 1700.91,-790.39 1691.58,-795.41 1696.75,-800.13"/>
<polygon fill="white" stroke="transparent" points="1288,-1065.5 1288,-1164.5 1566,-1164.5 1566,-1065.5 1288,-1065.5"/>
<text text-anchor="start" x="1318.5" y="-1141.8" font-family="Arial" font-size="24.00" fill="#707070">Reads and removes</text>
<text text-anchor="start" x="1292" y="-1117.8" font-family="Arial" font-size="24.00" fill="#707070">authoritative local outage</text>
<text text-anchor="start" x="1370" y="-1093.8" font-family="Arial" font-size="24.00" fill="#707070">bytes from</text>
<text text-anchor="start" x="1375.5" y="-1073.8" font-family="Arial" font-size="19.00" fill="#707070">[Filesystem]</text>
</g>
<!-- 48&#45;&gt;57 -->
<g id="101" class="edge">
<title>48&#45;&gt;57</title>
<path fill="none" stroke="#707070" stroke-dasharray="5,2" d="M1204.19,-1567.4C1348.88,-1576.87 1550.96,-1590.1 1698.82,-1599.79"/>
<polygon fill="#707070" stroke="#707070" points="1698.72,-1603.29 1708.92,-1600.45 1699.17,-1596.3 1698.72,-1603.29"/>
<polygon fill="white" stroke="transparent" points="1268,-1591.5 1268,-1666.5 1586,-1666.5 1586,-1591.5 1268,-1591.5"/>
<text text-anchor="start" x="1272" y="-1643.8" font-family="Arial" font-size="24.00" fill="#707070">Reads and advances current</text>
<text text-anchor="start" x="1322.5" y="-1619.8" font-family="Arial" font-size="24.00" fill="#707070">artifact/task state in</text>
<text text-anchor="start" x="1393.5" y="-1599.8" font-family="Arial" font-size="19.00" fill="#707070">[sqlite3]</text>
</g>
<!-- 49&#45;&gt;3 -->
<g id="98" class="edge">
<title>49&#45;&gt;3</title>
<path fill="none" stroke="#707070" stroke-dasharray="5,2" d="M1098.63,-688.89C1141.13,-618.72 1199.36,-537.32 1268,-479.5 1389.56,-377.09 1553.2,-302.62 1682.54,-254.66"/>
<polygon fill="#707070" stroke="#707070" points="1684.01,-257.85 1692.18,-251.11 1681.59,-251.28 1684.01,-257.85"/>
<polygon fill="white" stroke="transparent" points="1272,-479.5 1272,-554.5 1582,-554.5 1582,-479.5 1272,-479.5"/>
<text text-anchor="start" x="1276" y="-531.8" font-family="Arial" font-size="24.00" fill="#707070">Fetches guarded direct/HLS</text>
<text text-anchor="start" x="1366" y="-507.8" font-family="Arial" font-size="24.00" fill="#707070">media from</text>
<text text-anchor="start" x="1335" y="-487.8" font-family="Arial" font-size="19.00" fill="#707070">[HTTP(S), data URLs]</text>
</g>
<!-- 49&#45;&gt;57 -->
<g id="97" class="edge">
<title>49&#45;&gt;57</title>
<path fill="none" stroke="#707070" stroke-dasharray="5,2" d="M1217.26,-855.32C1374.98,-873.91 1573.11,-899.72 1586,-913.5 1659.24,-991.76 1572.12,-1299.63 1622,-1394.5 1641.31,-1431.24 1669.8,-1463.96 1701.13,-1492.18"/>
<polygon fill="#707070" stroke="#707070" points="1698.9,-1494.89 1708.72,-1498.88 1703.54,-1489.64 1698.9,-1494.89"/>
<polygon fill="white" stroke="transparent" points="1284.5,-913.5 1284.5,-988.5 1569.5,-988.5 1569.5,-913.5 1284.5,-913.5"/>
<text text-anchor="start" x="1289" y="-965.8" font-family="Arial" font-size="24.00" fill="#707070">Leases tasks and records</text>
<text text-anchor="start" x="1322" y="-941.8" font-family="Arial" font-size="24.00" fill="#707070">artifact outcomes in</text>
<text text-anchor="start" x="1394" y="-921.8" font-family="Arial" font-size="19.00" fill="#707070">[sqlite3]</text>
</g>
<!-- 49&#45;&gt;59 -->
<g id="99" class="edge">
<title>49&#45;&gt;59</title>
<path fill="none" stroke="#707070" stroke-dasharray="5,2" d="M1217.01,-746.21C1334.83,-707.71 1481.94,-686.84 1586,-765.5 1632.8,-800.88 1591.34,-842.48 1622,-892.5 1630.33,-906.08 1639.59,-919.39 1649.53,-932.36"/>
<polygon fill="#707070" stroke="#707070" points="1646.89,-934.66 1655.8,-940.38 1652.4,-930.35 1646.89,-934.66"/>
<polygon fill="white" stroke="transparent" points="1295,-765.5 1295,-840.5 1559,-840.5 1559,-765.5 1295,-765.5"/>
<text text-anchor="start" x="1299" y="-817.8" font-family="Arial" font-size="24.00" fill="#707070">Publishes admitted final</text>
<text text-anchor="start" x="1385" y="-793.8" font-family="Arial" font-size="24.00" fill="#707070">bytes in</text>
<text text-anchor="start" x="1375.5" y="-773.8" font-family="Arial" font-size="19.00" fill="#707070">[Filesystem]</text>
</g>
<!-- 49&#45;&gt;60 -->
<g id="100" class="edge">
<title>49&#45;&gt;60</title>
<path fill="none" stroke="#707070" stroke-dasharray="5,2" d="M1149.12,-688.85C1184.23,-658.17 1224.7,-630.06 1268,-613.5 1402.34,-562.11 1565.1,-566.88 1690.84,-583.44"/>
<polygon fill="#707070" stroke="#707070" points="1690.6,-586.93 1700.98,-584.81 1691.54,-580 1690.6,-586.93"/>
<polygon fill="white" stroke="transparent" points="1280,-613.5 1280,-688.5 1574,-688.5 1574,-613.5 1280,-613.5"/>
<text text-anchor="start" x="1284" y="-665.8" font-family="Arial" font-size="24.00" fill="#707070">Publishes admitted outage</text>
<text text-anchor="start" x="1385" y="-641.8" font-family="Arial" font-size="24.00" fill="#707070">bytes in</text>
<text text-anchor="start" x="1375.5" y="-621.8" font-family="Arial" font-size="19.00" fill="#707070">[Filesystem]</text>
</g>
</g>
</svg>
