<?xml version="1.0" encoding="UTF-8" standalone="no"?>
<!DOCTYPE svg PUBLIC "-//W3C//DTD SVG 1.1//EN"
 "http://www.w3.org/Graphics/SVG/1.1/DTD/svg11.dtd">
<!-- Generated by graphviz version 2.43.0 (0)
 -->
<!-- Title: %3 Pages: 1 -->
<svg width="1980pt" height="1057pt"
 viewBox="0.00 0.00 1979.50 1056.50" xmlns="http://www.w3.org/2000/svg" xmlns:xlink="http://www.w3.org/1999/xlink">
<g id="graph0" class="graph" transform="scale(1 1) rotate(0) translate(4 1052.5)">
<title>%3</title>
<polygon fill="white" stroke="transparent" points="-4,4 -4,-1052.5 1975.5,-1052.5 1975.5,4 -4,4"/>
<text text-anchor="start" x="706.25" y="-11.8" font-family="Arial" font-size="34.00">Browser Memory Daemon &#45; Dynamic</text>
<g id="clust1" class="cluster">
<title>cluster_5</title>
<polygon fill="none" stroke="#444444" points="673,-346.5 673,-1040.5 1963.5,-1040.5 1963.5,-346.5 673,-346.5"/>
<text text-anchor="start" x="1177.25" y="-375.3" font-family="Arial" font-size="24.00" fill="#444444">Browser Memory Daemon</text>
<text text-anchor="start" x="1241.25" y="-355.3" font-family="Arial" font-size="19.00" fill="#444444">[Software System]</text>
</g>
<!-- 23 -->
<g id="23" class="node">
<title>23</title>
<polygon fill="#438dd5" stroke="#2e6295" points="1160,-688 698,-688 698,-447 1160,-447 1160,-688"/>
<text text-anchor="start" x="764.5" y="-639.8" font-family="Arial" font-size="34.00" fill="#ffffff">WSL Loopback HTTP</text>
<text text-anchor="start" x="864.5" y="-605.8" font-family="Arial" font-size="34.00" fill="#ffffff">Daemon</text>
<text text-anchor="start" x="727" y="-583.8" font-family="Arial" font-size="19.00" fill="#ffffff">[Container: Python 3.11, ThreadingHTTPServer]</text>
<text text-anchor="start" x="763.5" y="-546.8" font-family="Arial" font-size="24.00" fill="#ffffff">Authenticated loopback API for</text>
<text text-anchor="start" x="784.5" y="-522.8" font-family="Arial" font-size="24.00" fill="#ffffff">capture, read/admin/media</text>
<text text-anchor="start" x="785" y="-498.8" font-family="Arial" font-size="24.00" fill="#ffffff">operations, and query&#45;only</text>
<text text-anchor="start" x="766.5" y="-474.8" font-family="Arial" font-size="24.00" fill="#ffffff">bmd.x&#45;observations v1 export.</text>
</g>
<!-- 57 -->
<g id="57" class="node">
<title>57</title>
<path fill="#2f95c8" stroke="#20688c" d="M1938.5,-870.72C1938.5,-889.01 1855.58,-903.88 1753.5,-903.88 1651.42,-903.88 1568.5,-889.01 1568.5,-870.72 1568.5,-870.72 1568.5,-572.28 1568.5,-572.28 1568.5,-553.99 1651.42,-539.12 1753.5,-539.12 1855.58,-539.12 1938.5,-553.99 1938.5,-572.28 1938.5,-572.28 1938.5,-870.72 1938.5,-870.72"/>
<path fill="none" stroke="#20688c" d="M1938.5,-870.72C1938.5,-852.42 1855.58,-837.56 1753.5,-837.56 1651.42,-837.56 1568.5,-852.42 1568.5,-870.72"/>
<text text-anchor="start" x="1640.5" y="-805.8" font-family="Arial" font-size="34.00" fill="#ffffff">SQLite + FTS5</text>
<text text-anchor="start" x="1680.5" y="-771.8" font-family="Arial" font-size="34.00" fill="#ffffff">Database</text>
<text text-anchor="start" x="1627.5" y="-749.8" font-family="Arial" font-size="19.00" fill="#ffffff">[Container: SQLite with FTS5]</text>
<text text-anchor="start" x="1634" y="-712.8" font-family="Arial" font-size="24.00" fill="#ffffff">Durable text/metadata</text>
<text text-anchor="start" x="1602.5" y="-688.8" font-family="Arial" font-size="24.00" fill="#ffffff">authority including migration</text>
<text text-anchor="start" x="1597.5" y="-664.8" font-family="Arial" font-size="24.00" fill="#ffffff">ledger, capture observations,</text>
<text text-anchor="start" x="1607.5" y="-640.8" font-family="Arial" font-size="24.00" fill="#ffffff">and immutable observation</text>
<text text-anchor="start" x="1655.5" y="-616.8" font-family="Arial" font-size="24.00" fill="#ffffff">ingest sequences.</text>
</g>
<!-- 23&#45;&gt;57 -->
<g id="83" class="edge">
<title>23&#45;&gt;57</title>
<path fill="none" stroke="#707070" stroke-dasharray="5,2" d="M1160.06,-600.24C1268.44,-616.82 1399.27,-638.52 1516,-662.5 1529.81,-665.34 1544.03,-668.43 1558.32,-671.68"/>
<polygon fill="#707070" stroke="#707070" points="1557.69,-675.12 1568.22,-673.94 1559.25,-668.3 1557.69,-675.12"/>
<polygon fill="white" stroke="transparent" points="1231,-662.5 1231,-761.5 1481,-761.5 1481,-662.5 1231,-662.5"/>
<text text-anchor="start" x="1242.5" y="-738.8" font-family="Arial" font-size="24.00" fill="#707070">2. Reads through the</text>
<text text-anchor="start" x="1235" y="-714.8" font-family="Arial" font-size="24.00" fill="#707070">query&#45;only export core</text>
<text text-anchor="start" x="1253" y="-690.8" font-family="Arial" font-size="24.00" fill="#707070">without audit writes</text>
<text text-anchor="start" x="1322.5" y="-670.8" font-family="Arial" font-size="19.00" fill="#707070">[sqlite3]</text>
</g>
<!-- 51 -->
<g id="51" class="node">
<title>51</title>
<polygon fill="#438dd5" stroke="#2e6295" points="1107,-1015 751,-1015 751,-760 1107,-760 1107,-1015"/>
<text text-anchor="start" x="902" y="-966.8" font-family="Arial" font-size="34.00" fill="#ffffff">CLI</text>
<text text-anchor="start" x="808" y="-944.8" font-family="Arial" font-size="19.00" fill="#ffffff">[Container: Python argparse]</text>
<text text-anchor="start" x="782.5" y="-907.8" font-family="Arial" font-size="24.00" fill="#ffffff">Command&#45;line interface for</text>
<text text-anchor="start" x="790" y="-883.8" font-family="Arial" font-size="24.00" fill="#ffffff">serving/admin operations,</text>
<text text-anchor="start" x="819" y="-859.8" font-family="Arial" font-size="24.00" fill="#ffffff">direct storage/health</text>
<text text-anchor="start" x="786" y="-835.8" font-family="Arial" font-size="24.00" fill="#ffffff">workflows, and standalone</text>
<text text-anchor="start" x="780" y="-811.8" font-family="Arial" font-size="24.00" fill="#ffffff">mutation&#45;free X observation</text>
<text text-anchor="start" x="891.5" y="-787.8" font-family="Arial" font-size="24.00" fill="#ffffff">export.</text>
</g>
<!-- 51&#45;&gt;57 -->
<g id="77" class="edge">
<title>51&#45;&gt;57</title>
<path fill="none" stroke="#707070" stroke-dasharray="5,2" d="M1107.27,-855.32C1223.67,-833.77 1379.15,-804.19 1516,-775.5 1529.81,-772.6 1544.07,-769.54 1558.4,-766.4"/>
<polygon fill="#707070" stroke="#707070" points="1559.32,-769.78 1568.34,-764.22 1557.82,-762.95 1559.32,-769.78"/>
<polygon fill="white" stroke="transparent" points="1238,-837.5 1238,-936.5 1474,-936.5 1474,-837.5 1238,-837.5"/>
<text text-anchor="start" x="1242" y="-913.8" font-family="Arial" font-size="24.00" fill="#707070">4. Opens the existing</text>
<text text-anchor="start" x="1306" y="-889.8" font-family="Arial" font-size="24.00" fill="#707070">database</text>
<text text-anchor="start" x="1244.5" y="-865.8" font-family="Arial" font-size="24.00" fill="#707070">mode=ro/query_only</text>
<text text-anchor="start" x="1322.5" y="-845.8" font-family="Arial" font-size="19.00" fill="#707070">[sqlite3]</text>
</g>
<!-- 4 -->
<g id="4" class="node">
<title>4</title>
<polygon fill="#999999" stroke="#6b6b6b" points="1955,-321 1552,-321 1552,-56 1955,-56 1955,-321"/>
<text text-anchor="start" x="1581" y="-272.8" font-family="Arial" font-size="34.00" fill="#ffffff">Passive X Observation</text>
<text text-anchor="start" x="1675" y="-238.8" font-family="Arial" font-size="34.00" fill="#ffffff">Consumer</text>
<text text-anchor="start" x="1676.5" y="-216.8" font-family="Arial" font-size="19.00" fill="#ffffff">[Software System]</text>
<text text-anchor="start" x="1588" y="-179.8" font-family="Arial" font-size="24.00" fill="#ffffff">A downstream local integration</text>
<text text-anchor="start" x="1586.5" y="-155.8" font-family="Arial" font-size="24.00" fill="#ffffff">that reads versioned body&#45;safe</text>
<text text-anchor="start" x="1612.5" y="-131.8" font-family="Arial" font-size="24.00" fill="#ffffff">observation pages without</text>
<text text-anchor="start" x="1596" y="-107.8" font-family="Arial" font-size="24.00" fill="#ffffff">gaining capture, migration, or</text>
<text text-anchor="start" x="1654" y="-83.8" font-family="Arial" font-size="24.00" fill="#ffffff">mutation authority.</text>
</g>
<!-- 51&#45;&gt;4 -->
<g id="81" class="edge">
<title>51&#45;&gt;4</title>
<path fill="none" stroke="#707070" stroke-dasharray="5,2" d="M1107.13,-785.71C1127.53,-767.62 1145.99,-747.2 1160,-724.5 1215.71,-634.2 1131.82,-572.99 1196,-488.5 1290.34,-364.31 1379.36,-419.68 1516,-344.5 1526.44,-338.76 1537.02,-332.71 1547.62,-326.45"/>
<polygon fill="#707070" stroke="#707070" points="1549.72,-329.28 1556.52,-321.16 1546.14,-323.26 1549.72,-329.28"/>
<polygon fill="white" stroke="transparent" points="1196,-488.5 1196,-587.5 1516,-587.5 1516,-488.5 1196,-488.5"/>
<text text-anchor="start" x="1259" y="-564.8" font-family="Arial" font-size="24.00" fill="#707070">5. Emits the same</text>
<text text-anchor="start" x="1200" y="-540.8" font-family="Arial" font-size="24.00" fill="#707070">schema&#45;versioned body&#45;safe</text>
<text text-anchor="start" x="1275.5" y="-516.8" font-family="Arial" font-size="24.00" fill="#707070">page on stdout</text>
<text text-anchor="start" x="1296.5" y="-496.8" font-family="Arial" font-size="19.00" fill="#707070">[JSON stdout]</text>
</g>
<!-- 1 -->
<g id="1" class="node">
<title>1</title>
<polygon fill="#08427b" stroke="#052e56" points="335,-1003 0,-1003 0,-772 335,-772 335,-1003"/>
<text text-anchor="start" x="100.5" y="-954.8" font-family="Arial" font-size="34.00" fill="#ffffff">Operator</text>
<text text-anchor="start" x="132" y="-932.8" font-family="Arial" font-size="19.00" fill="#ffffff">[Person]</text>
<text text-anchor="start" x="41" y="-895.8" font-family="Arial" font-size="24.00" fill="#ffffff">Sole local operator who</text>
<text text-anchor="start" x="45.5" y="-871.8" font-family="Arial" font-size="24.00" fill="#ffffff">browses with Windows</text>
<text text-anchor="start" x="44.5" y="-847.8" font-family="Arial" font-size="24.00" fill="#ffffff">Chrome and searches,</text>
<text text-anchor="start" x="29" y="-823.8" font-family="Arial" font-size="24.00" fill="#ffffff">reviews, and deletes local</text>
<text text-anchor="start" x="29" y="-799.8" font-family="Arial" font-size="24.00" fill="#ffffff">browser&#45;memory records.</text>
</g>
<!-- 1&#45;&gt;51 -->
<g id="65" class="edge">
<title>1&#45;&gt;51</title>
<path fill="none" stroke="#707070" stroke-dasharray="5,2" d="M335.18,-887.5C454.96,-887.5 616.57,-887.5 740.79,-887.5"/>
<polygon fill="#707070" stroke="#707070" points="740.8,-891 750.8,-887.5 740.8,-884 740.8,-891"/>
<polygon fill="white" stroke="transparent" points="371,-887.5 371,-973.5 662,-973.5 662,-887.5 371,-887.5"/>
<text text-anchor="start" x="375.5" y="-950.3" font-family="Arial" font-size="24.00" fill="#707070">3. Runs standalone export</text>
<text text-anchor="start" x="375.5" y="-924.3" font-family="Arial" font-size="24.00" fill="#707070">without daemon readiness</text>
<text text-anchor="start" x="419" y="-898.3" font-family="Arial" font-size="24.00" fill="#707070">or token bootstrap</text>
</g>
<!-- 4&#45;&gt;23 -->
<g id="67" class="edge">
<title>4&#45;&gt;23</title>
<path fill="none" stroke="#707070" stroke-dasharray="5,2" d="M1551.77,-166.14C1440.82,-162.77 1303.99,-174.02 1196,-231.5 1110.01,-277.27 1042.4,-364.11 996.86,-438.04"/>
<polygon fill="#707070" stroke="#707070" points="993.63,-436.62 991.42,-446.99 999.61,-440.26 993.63,-436.62"/>
<polygon fill="white" stroke="transparent" points="1211.5,-231.5 1211.5,-330.5 1500.5,-330.5 1500.5,-231.5 1211.5,-231.5"/>
<text text-anchor="start" x="1268" y="-307.8" font-family="Arial" font-size="24.00" fill="#707070">1. Requests one</text>
<text text-anchor="start" x="1216" y="-283.8" font-family="Arial" font-size="24.00" fill="#707070">authenticated cursor page</text>
<text text-anchor="start" x="1297.5" y="-259.8" font-family="Arial" font-size="24.00" fill="#707070">over HTTP</text>
<text text-anchor="start" x="1298.5" y="-239.8" font-family="Arial" font-size="19.00" fill="#707070">[HTTP/JSON]</text>
</g>
</g>
</svg>
