<?xml version="1.0" encoding="UTF-8" standalone="no"?>
<!DOCTYPE svg PUBLIC "-//W3C//DTD SVG 1.1//EN"
 "http://www.w3.org/Graphics/SVG/1.1/DTD/svg11.dtd">
<!-- Generated by graphviz version 2.43.0 (0)
 -->
<!-- Title: %3 Pages: 1 -->
<svg width="2915pt" height="787pt"
 viewBox="0.00 0.00 2915.00 787.00" xmlns="http://www.w3.org/2000/svg" xmlns:xlink="http://www.w3.org/1999/xlink">
<g id="graph0" class="graph" transform="scale(1 1) rotate(0) translate(4 783)">
<title>%3</title>
<polygon fill="white" stroke="transparent" points="-4,4 -4,-783 2911,-783 2911,4 -4,4"/>
<text text-anchor="start" x="868.5" y="-11.8" font-family="Arial" font-size="34.00">Component View: Browser Memory Daemon &#45; WSL Loopback HTTP Daemon</text>
<g id="clust1" class="cluster">
<title>cluster_4</title>
<polygon fill="none" stroke="#444444" points="8,-64 8,-771 2899,-771 2899,-64 8,-64"/>
<text text-anchor="start" x="1312.5" y="-92.8" font-family="Arial" font-size="24.00" fill="#444444">Browser Memory Daemon</text>
<text text-anchor="start" x="1376.5" y="-72.8" font-family="Arial" font-size="19.00" fill="#444444">[Software System]</text>
</g>
<g id="clust2" class="cluster">
<title>cluster_22</title>
<polygon fill="none" stroke="#444444" points="33,-164 33,-746 2110,-746 2110,-164 33,-164"/>
<text text-anchor="start" x="906" y="-192.8" font-family="Arial" font-size="24.00" fill="#444444">WSL Loopback HTTP Daemon</text>
<text text-anchor="start" x="869.5" y="-172.8" font-family="Arial" font-size="19.00" fill="#444444">[Container: Python 3.11, ThreadingHTTPServer]</text>
</g>
<!-- 23 -->
<g id="23" class="node">
<title>23</title>
<polygon fill="#85bbf0" stroke="#1168bd" points="552,-680.5 58,-680.5 58,-305.5 552,-305.5 552,-680.5"/>
<text text-anchor="start" x="136.5" y="-632.3" font-family="Arial" font-size="34.00" fill="#000000">HTTP Request Router</text>
<text text-anchor="start" x="87" y="-610.3" font-family="Arial" font-size="19.00" fill="#000000">[Component: Python http.server + route descriptors]</text>
<text text-anchor="start" x="117.5" y="-573.3" font-family="Arial" font-size="24.00" fill="#000000">Adapts BaseHTTPRequestHandler</text>
<text text-anchor="start" x="154.5" y="-549.3" font-family="Arial" font-size="24.00" fill="#000000">requests through immutable</text>
<text text-anchor="start" x="150" y="-525.3" font-family="Arial" font-size="24.00" fill="#000000">method/path descriptors with</text>
<text text-anchor="start" x="144.5" y="-501.3" font-family="Arial" font-size="24.00" fill="#000000">static precedence; owns auth,</text>
<text text-anchor="start" x="199.5" y="-477.3" font-family="Arial" font-size="24.00" fill="#000000">parsing, compatible</text>
<text text-anchor="start" x="180.5" y="-453.3" font-family="Arial" font-size="24.00" fill="#000000">status/error responses,</text>
<text text-anchor="start" x="144.5" y="-429.3" font-family="Arial" font-size="24.00" fill="#000000">request IDs, common security</text>
<text text-anchor="start" x="177" y="-405.3" font-family="Arial" font-size="24.00" fill="#000000">headers, redaction&#45;safe</text>
<text text-anchor="start" x="148.5" y="-381.3" font-family="Arial" font-size="24.00" fill="#000000">telemetry, bounded response</text>
<text text-anchor="start" x="138" y="-357.3" font-family="Arial" font-size="24.00" fill="#000000">streaming, disconnect cleanup,</text>
<text text-anchor="start" x="157.5" y="-333.3" font-family="Arial" font-size="24.00" fill="#000000">CORS, and finite UI assets.</text>
</g>
<!-- 24 -->
<g id="24" class="node">
<title>24</title>
<polygon fill="#85bbf0" stroke="#1168bd" points="1302,-668.5 901,-668.5 901,-317.5 1302,-317.5 1302,-668.5"/>
<text text-anchor="start" x="930" y="-620.3" font-family="Arial" font-size="34.00" fill="#000000">Application Use Cases</text>
<text text-anchor="start" x="1012.5" y="-598.3" font-family="Arial" font-size="19.00" fill="#000000">[Component: Python]</text>
<text text-anchor="start" x="939.5" y="-561.3" font-family="Arial" font-size="24.00" fill="#000000">Provides request&#45;independent</text>
<text text-anchor="start" x="976.5" y="-537.3" font-family="Arial" font-size="24.00" fill="#000000">capture, lifecycle, read,</text>
<text text-anchor="start" x="966.5" y="-513.3" font-family="Arial" font-size="24.00" fill="#000000">forget, policy, doctor, and</text>
<text text-anchor="start" x="975.5" y="-489.3" font-family="Arial" font-size="24.00" fill="#000000">media use cases; owns</text>
<text text-anchor="start" x="972.5" y="-465.3" font-family="Arial" font-size="24.00" fill="#000000">database&#45;ready checks,</text>
<text text-anchor="start" x="945.5" y="-441.3" font-family="Arial" font-size="24.00" fill="#000000">transaction/audit boundaries,</text>
<text text-anchor="start" x="949" y="-417.3" font-family="Arial" font-size="24.00" fill="#000000">asynchronous media kickoff,</text>
<text text-anchor="start" x="935.5" y="-393.3" font-family="Arial" font-size="24.00" fill="#000000">and upload/download resource</text>
<text text-anchor="start" x="936.5" y="-369.3" font-family="Arial" font-size="24.00" fill="#000000">leases without importing HTTP</text>
<text text-anchor="start" x="957.5" y="-345.3" font-family="Arial" font-size="24.00" fill="#000000">request or response types.</text>
</g>
<!-- 23&#45;&gt;24 -->
<g id="114" class="edge">
<title>23&#45;&gt;24</title>
<path fill="none" stroke="#444444" stroke-dasharray="5,2" d="M552.22,-493C660.59,-493 786.59,-493 890.45,-493"/>
<polygon fill="#444444" stroke="#444444" points="890.75,-496.5 900.75,-493 890.75,-489.5 890.75,-496.5"/>
<polygon fill="white" stroke="transparent" points="588,-493 588,-579 865,-579 865,-493 588,-493"/>
<text text-anchor="start" x="645" y="-555.8" font-family="Arial" font-size="24.00" fill="#444444">Invokes explicit</text>
<text text-anchor="start" x="592.5" y="-529.8" font-family="Arial" font-size="24.00" fill="#444444">request&#45;independent use</text>
<text text-anchor="start" x="650.5" y="-503.8" font-family="Arial" font-size="24.00" fill="#444444">cases through</text>
</g>
<!-- 25 -->
<g id="25" class="node">
<title>25</title>
<polygon fill="#85bbf0" stroke="#1168bd" points="2085,-721.5 1662,-721.5 1662,-264.5 2085,-264.5 2085,-721.5"/>
<text text-anchor="start" x="1726" y="-673.3" font-family="Arial" font-size="34.00" fill="#000000">Database Migration</text>
<text text-anchor="start" x="1824.5" y="-639.3" font-family="Arial" font-size="34.00" fill="#000000">Kernel</text>
<text text-anchor="start" x="1745.5" y="-617.3" font-family="Arial" font-size="19.00" fill="#000000">[Component: Python + sqlite3]</text>
<text text-anchor="start" x="1763.5" y="-580.3" font-family="Arial" font-size="24.00" fill="#000000">Serializes migrators;</text>
<text text-anchor="start" x="1747.5" y="-556.3" font-family="Arial" font-size="24.00" fill="#000000">validates exact schema</text>
<text text-anchor="start" x="1764.5" y="-532.3" font-family="Arial" font-size="24.00" fill="#000000">fingerprints, ordered</text>
<text text-anchor="start" x="1691" y="-508.3" font-family="Arial" font-size="24.00" fill="#000000">names/checksums, and PRAGMA</text>
<text text-anchor="start" x="1759" y="-484.3" font-family="Arial" font-size="24.00" fill="#000000">user_version; applies</text>
<text text-anchor="start" x="1769" y="-460.3" font-family="Arial" font-size="24.00" fill="#000000">transactional steps,</text>
<text text-anchor="start" x="1738.5" y="-436.3" font-family="Arial" font-size="24.00" fill="#000000">backup&#45;gates destructive</text>
<text text-anchor="start" x="1707.5" y="-412.3" font-family="Arial" font-size="24.00" fill="#000000">changes, and expands capture</text>
<text text-anchor="start" x="1729.5" y="-388.3" font-family="Arial" font-size="24.00" fill="#000000">provenance, storage state,</text>
<text text-anchor="start" x="1738.5" y="-364.3" font-family="Arial" font-size="24.00" fill="#000000">one&#45;time historical media</text>
<text text-anchor="start" x="1711.5" y="-340.3" font-family="Arial" font-size="24.00" fill="#000000">correction, plus durable cache</text>
<text text-anchor="start" x="1720" y="-316.3" font-family="Arial" font-size="24.00" fill="#000000">reservations through version</text>
<text text-anchor="start" x="1856.5" y="-292.3" font-family="Arial" font-size="24.00" fill="#000000">13.</text>
</g>
<!-- 24&#45;&gt;25 -->
<g id="117" class="edge">
<title>24&#45;&gt;25</title>
<path fill="none" stroke="#444444" stroke-dasharray="5,2" d="M1302.05,-493C1409.1,-493 1541.29,-493 1651.46,-493"/>
<polygon fill="#444444" stroke="#444444" points="1651.71,-496.5 1661.71,-493 1651.71,-489.5 1651.71,-496.5"/>
<polygon fill="white" stroke="transparent" points="1338,-493 1338,-553 1626,-553 1626,-493 1338,-493"/>
<text text-anchor="start" x="1371.5" y="-529.8" font-family="Arial" font-size="24.00" fill="#444444">Requires compatible</text>
<text text-anchor="start" x="1342" y="-503.8" font-family="Arial" font-size="24.00" fill="#444444">initialized schema through</text>
</g>
<!-- 48 -->
<g id="48" class="node">
<title>48</title>
<path fill="#2f95c8" stroke="#20688c" d="M2874,-695.22C2874,-723.44 2785.48,-746.38 2676.5,-746.38 2567.52,-746.38 2479,-723.44 2479,-695.22 2479,-695.22 2479,-234.78 2479,-234.78 2479,-206.56 2567.52,-183.62 2676.5,-183.62 2785.48,-183.62 2874,-206.56 2874,-234.78 2874,-234.78 2874,-695.22 2874,-695.22"/>
<path fill="none" stroke="#20688c" d="M2874,-695.22C2874,-666.99 2785.48,-644.06 2676.5,-644.06 2567.52,-644.06 2479,-666.99 2479,-695.22"/>
<text text-anchor="start" x="2563.5" y="-621.3" font-family="Arial" font-size="34.00" fill="#ffffff">SQLite + FTS5</text>
<text text-anchor="start" x="2603.5" y="-587.3" font-family="Arial" font-size="34.00" fill="#ffffff">Database</text>
<text text-anchor="start" x="2550.5" y="-565.3" font-family="Arial" font-size="19.00" fill="#ffffff">[Container: SQLite with FTS5]</text>
<text text-anchor="start" x="2508.5" y="-528.3" font-family="Arial" font-size="24.00" fill="#ffffff">Durable complete cleaned&#45;text,</text>
<text text-anchor="start" x="2557.5" y="-504.3" font-family="Arial" font-size="24.00" fill="#ffffff">relational, and full&#45;text</text>
<text text-anchor="start" x="2559" y="-480.3" font-family="Arial" font-size="24.00" fill="#ffffff">authority for migration</text>
<text text-anchor="start" x="2524.5" y="-456.3" font-family="Arial" font-size="24.00" fill="#ffffff">ledger, sources, documents,</text>
<text text-anchor="start" x="2527" y="-432.3" font-family="Arial" font-size="24.00" fill="#ffffff">visits, capture observations,</text>
<text text-anchor="start" x="2545.5" y="-408.3" font-family="Arial" font-size="24.00" fill="#ffffff">URL claims, visit events,</text>
<text text-anchor="start" x="2508" y="-384.3" font-family="Arial" font-size="24.00" fill="#ffffff">snapshots, chunks, chunks_fts,</text>
<text text-anchor="start" x="2515.5" y="-360.3" font-family="Arial" font-size="24.00" fill="#ffffff">media provenance/tasks, blob</text>
<text text-anchor="start" x="2552" y="-336.3" font-family="Arial" font-size="24.00" fill="#ffffff">lifecycle records, policy</text>
<text text-anchor="start" x="2551" y="-312.3" font-family="Arial" font-size="24.00" fill="#ffffff">rules, audit events, and</text>
<text text-anchor="start" x="2584.5" y="-288.3" font-family="Arial" font-size="24.00" fill="#ffffff">deletion receipts.</text>
</g>
<!-- 25&#45;&gt;48 -->
<g id="166" class="edge">
<title>25&#45;&gt;48</title>
<path fill="none" stroke="#444444" stroke-dasharray="5,2" d="M2085.22,-485.63C2203.67,-481.49 2350.93,-476.35 2468.73,-472.23"/>
<polygon fill="#444444" stroke="#444444" points="2469.09,-475.72 2478.96,-471.87 2468.84,-468.72 2469.09,-475.72"/>
<polygon fill="white" stroke="transparent" points="2121,-483 2121,-582 2443,-582 2443,-483 2121,-483"/>
<text text-anchor="start" x="2154" y="-559.3" font-family="Arial" font-size="24.00" fill="#444444">Validates and advances</text>
<text text-anchor="start" x="2145" y="-535.3" font-family="Arial" font-size="24.00" fill="#444444">schema ledger/fingerprint</text>
<text text-anchor="start" x="2272.5" y="-511.3" font-family="Arial" font-size="24.00" fill="#444444">in</text>
<text text-anchor="start" x="2125" y="-491.3" font-family="Arial" font-size="19.00" fill="#444444">[sqlite3 online backup + transactions]</text>
</g>
</g>
</svg>
