<?xml version="1.0" encoding="UTF-8" standalone="no"?>
<!DOCTYPE svg PUBLIC "-//W3C//DTD SVG 1.1//EN"
 "http://www.w3.org/Graphics/SVG/1.1/DTD/svg11.dtd">
<!-- Generated by graphviz version 2.43.0 (0)
 -->
<!-- Title: %3 Pages: 1 -->
<svg width="2939pt" height="1295pt"
 viewBox="0.00 0.00 2939.00 1295.00" xmlns="http://www.w3.org/2000/svg" xmlns:xlink="http://www.w3.org/1999/xlink">
<g id="graph0" class="graph" transform="scale(1 1) rotate(0) translate(4 1291)">
<title>%3</title>
<polygon fill="white" stroke="transparent" points="-4,4 -4,-1291 2935,-1291 2935,4 -4,4"/>
<text text-anchor="start" x="880.5" y="-11.8" font-family="Arial" font-size="34.00">Component View: Browser Memory Daemon &#45; WSL Loopback HTTP Daemon</text>
<g id="clust1" class="cluster">
<title>cluster_4</title>
<polygon fill="none" stroke="#444444" points="8,-64 8,-1279 2923,-1279 2923,-64 8,-64"/>
<text text-anchor="start" x="1324.5" y="-92.8" font-family="Arial" font-size="24.00" fill="#444444">Browser Memory Daemon</text>
<text text-anchor="start" x="1388.5" y="-72.8" font-family="Arial" font-size="19.00" fill="#444444">[Software System]</text>
</g>
<g id="clust2" class="cluster">
<title>cluster_14</title>
<polygon fill="none" stroke="#444444" points="33,-164 33,-699 2017,-699 2017,-164 33,-164"/>
<text text-anchor="start" x="859.5" y="-192.8" font-family="Arial" font-size="24.00" fill="#444444">WSL Loopback HTTP Daemon</text>
<text text-anchor="start" x="823" y="-172.8" font-family="Arial" font-size="19.00" fill="#444444">[Container: Python 3.11, ThreadingHTTPServer]</text>
</g>
<!-- 15 -->
<g id="15" class="node">
<title>15</title>
<polygon fill="#85bbf0" stroke="#1168bd" points="453,-584.5 58,-584.5 58,-353.5 453,-353.5 453,-584.5"/>
<text text-anchor="start" x="87" y="-536.3" font-family="Arial" font-size="34.00" fill="#000000">HTTP Request Router</text>
<text text-anchor="start" x="119" y="-514.3" font-family="Arial" font-size="19.00" fill="#000000">[Component: Python http.server]</text>
<text text-anchor="start" x="90" y="-477.3" font-family="Arial" font-size="24.00" fill="#000000">Routes loopback API requests,</text>
<text text-anchor="start" x="112.5" y="-453.3" font-family="Arial" font-size="24.00" fill="#000000">serves UI assets, enforces</text>
<text text-anchor="start" x="91.5" y="-429.3" font-family="Arial" font-size="24.00" fill="#000000">bearer auth for memory/admin</text>
<text text-anchor="start" x="106" y="-405.3" font-family="Arial" font-size="24.00" fill="#000000">APIs, and applies CORS for</text>
<text text-anchor="start" x="172" y="-381.3" font-family="Arial" font-size="24.00" fill="#000000">allowed origins.</text>
</g>
<!-- 21 -->
<g id="21" class="node">
<title>21</title>
<polygon fill="#85bbf0" stroke="#1168bd" points="1231,-673.5 810,-673.5 810,-264.5 1231,-264.5 1231,-673.5"/>
<text text-anchor="start" x="917" y="-625.3" font-family="Arial" font-size="34.00" fill="#000000">Media Artifact</text>
<text text-anchor="start" x="953.5" y="-591.3" font-family="Arial" font-size="34.00" fill="#000000">Manager</text>
<text text-anchor="start" x="839" y="-569.3" font-family="Arial" font-size="19.00" fill="#000000">[Component: Python + sqlite3 + filesystem]</text>
<text text-anchor="start" x="874.5" y="-532.3" font-family="Arial" font-size="24.00" fill="#000000">Records media references,</text>
<text text-anchor="start" x="897" y="-508.3" font-family="Arial" font-size="24.00" fill="#000000">validates blob uploads,</text>
<text text-anchor="start" x="878.5" y="-484.3" font-family="Arial" font-size="24.00" fill="#000000">enforces MIME/size/cache</text>
<text text-anchor="start" x="900" y="-460.3" font-family="Arial" font-size="24.00" fill="#000000">gates, guards external</text>
<text text-anchor="start" x="868" y="-436.3" font-family="Arial" font-size="24.00" fill="#000000">media&#45;root identity, reserves</text>
<text text-anchor="start" x="862.5" y="-412.3" font-family="Arial" font-size="24.00" fill="#000000">bounded local spool capacity,</text>
<text text-anchor="start" x="897" y="-388.3" font-family="Arial" font-size="24.00" fill="#000000">writes blobs atomically,</text>
<text text-anchor="start" x="877" y="-364.3" font-family="Arial" font-size="24.00" fill="#000000">drains verified spool bytes,</text>
<text text-anchor="start" x="857.5" y="-340.3" font-family="Arial" font-size="24.00" fill="#000000">queues public fetch tasks, and</text>
<text text-anchor="start" x="872.5" y="-316.3" font-family="Arial" font-size="24.00" fill="#000000">purges or rehydrates cache</text>
<text text-anchor="start" x="980.5" y="-292.3" font-family="Arial" font-size="24.00" fill="#000000">entries.</text>
</g>
<!-- 15&#45;&gt;21 -->
<g id="72" class="edge">
<title>15&#45;&gt;21</title>
<path fill="none" stroke="#444444" stroke-dasharray="5,2" d="M453.49,-469C559.46,-469 690.46,-469 799.73,-469"/>
<polygon fill="#444444" stroke="#444444" points="799.9,-472.5 809.9,-469 799.9,-465.5 799.9,-472.5"/>
<polygon fill="white" stroke="transparent" points="489,-469 489,-503 774,-503 774,-469 489,-469"/>
<text text-anchor="start" x="493.5" y="-479.8" font-family="Arial" font-size="24.00" fill="#444444">Routes media requests to</text>
</g>
<!-- 22 -->
<g id="22" class="node">
<title>22</title>
<polygon fill="#85bbf0" stroke="#1168bd" points="1992,-620.5 1581,-620.5 1581,-317.5 1992,-317.5 1992,-620.5"/>
<text text-anchor="start" x="1630" y="-572.3" font-family="Arial" font-size="34.00" fill="#000000">Contained BlobStore</text>
<text text-anchor="start" x="1610" y="-550.3" font-family="Arial" font-size="19.00" fill="#000000">[Component: Python filesystem boundary]</text>
<text text-anchor="start" x="1634" y="-513.3" font-family="Arial" font-size="24.00" fill="#000000">Prefers root&#45;relative locators</text>
<text text-anchor="start" x="1670.5" y="-489.3" font-family="Arial" font-size="24.00" fill="#000000">with contained legacy</text>
<text text-anchor="start" x="1655.5" y="-465.3" font-family="Arial" font-size="24.00" fill="#000000">fallback; streams unique</text>
<text text-anchor="start" x="1671.5" y="-441.3" font-family="Arial" font-size="24.00" fill="#000000">stages with size/hash</text>
<text text-anchor="start" x="1667.5" y="-417.3" font-family="Arial" font-size="24.00" fill="#000000">accounting; atomically</text>
<text text-anchor="start" x="1639.5" y="-393.3" font-family="Arial" font-size="24.00" fill="#000000">commits; and contains blob</text>
<text text-anchor="start" x="1672" y="-369.3" font-family="Arial" font-size="24.00" fill="#000000">read, stat, and delete</text>
<text text-anchor="start" x="1726" y="-345.3" font-family="Arial" font-size="24.00" fill="#000000">operations.</text>
</g>
<!-- 21&#45;&gt;22 -->
<g id="81" class="edge">
<title>21&#45;&gt;22</title>
<path fill="none" stroke="#444444" stroke-dasharray="5,2" d="M1231.13,-399.61C1243.18,-397.03 1255.2,-394.78 1267,-393 1389.17,-374.52 1422.89,-374.16 1545,-393 1553.57,-394.32 1562.25,-395.89 1570.98,-397.67"/>
<polygon fill="#444444" stroke="#444444" points="1570.33,-401.11 1580.84,-399.76 1571.78,-394.26 1570.33,-401.11"/>
<polygon fill="white" stroke="transparent" points="1267,-393 1267,-479 1545,-479 1545,-393 1267,-393"/>
<text text-anchor="start" x="1276" y="-455.8" font-family="Arial" font-size="24.00" fill="#444444">Stages, commits, reads,</text>
<text text-anchor="start" x="1271" y="-429.8" font-family="Arial" font-size="24.00" fill="#444444">evicts, and purges media</text>
<text text-anchor="start" x="1364.5" y="-403.8" font-family="Arial" font-size="24.00" fill="#444444">through</text>
</g>
<!-- 29 -->
<g id="29" class="node">
<title>29</title>
<path fill="#2f95c8" stroke="#20688c" d="M1984.5,-1205.72C1984.5,-1232.29 1895.75,-1253.88 1786.5,-1253.88 1677.25,-1253.88 1588.5,-1232.29 1588.5,-1205.72 1588.5,-1205.72 1588.5,-772.28 1588.5,-772.28 1588.5,-745.71 1677.25,-724.12 1786.5,-724.12 1895.75,-724.12 1984.5,-745.71 1984.5,-772.28 1984.5,-772.28 1984.5,-1205.72 1984.5,-1205.72"/>
<path fill="none" stroke="#20688c" d="M1984.5,-1205.72C1984.5,-1179.14 1895.75,-1157.56 1786.5,-1157.56 1677.25,-1157.56 1588.5,-1179.14 1588.5,-1205.72"/>
<text text-anchor="start" x="1673.5" y="-1133.3" font-family="Arial" font-size="34.00" fill="#ffffff">SQLite + FTS5</text>
<text text-anchor="start" x="1713.5" y="-1099.3" font-family="Arial" font-size="34.00" fill="#ffffff">Database</text>
<text text-anchor="start" x="1660.5" y="-1077.3" font-family="Arial" font-size="19.00" fill="#ffffff">[Container: SQLite with FTS5]</text>
<text text-anchor="start" x="1618.5" y="-1040.3" font-family="Arial" font-size="24.00" fill="#ffffff">Durable complete cleaned&#45;text,</text>
<text text-anchor="start" x="1667.5" y="-1016.3" font-family="Arial" font-size="24.00" fill="#ffffff">relational, and full&#45;text</text>
<text text-anchor="start" x="1669" y="-992.3" font-family="Arial" font-size="24.00" fill="#ffffff">authority for migration</text>
<text text-anchor="start" x="1634.5" y="-968.3" font-family="Arial" font-size="24.00" fill="#ffffff">ledger, sources, documents,</text>
<text text-anchor="start" x="1637" y="-944.3" font-family="Arial" font-size="24.00" fill="#ffffff">visits, capture observations,</text>
<text text-anchor="start" x="1655.5" y="-920.3" font-family="Arial" font-size="24.00" fill="#ffffff">URL claims, visit events,</text>
<text text-anchor="start" x="1618" y="-896.3" font-family="Arial" font-size="24.00" fill="#ffffff">snapshots, chunks, chunks_fts,</text>
<text text-anchor="start" x="1617.5" y="-872.3" font-family="Arial" font-size="24.00" fill="#ffffff">media provenance/tasks, policy</text>
<text text-anchor="start" x="1661" y="-848.3" font-family="Arial" font-size="24.00" fill="#ffffff">rules, audit events, and</text>
<text text-anchor="start" x="1694.5" y="-824.3" font-family="Arial" font-size="24.00" fill="#ffffff">deletion receipts.</text>
</g>
<!-- 21&#45;&gt;29 -->
<g id="80" class="edge">
<title>21&#45;&gt;29</title>
<path fill="none" stroke="#444444" stroke-dasharray="5,2" d="M1231.02,-611.61C1339.63,-685.53 1471.78,-775.47 1579.82,-849.01"/>
<polygon fill="#444444" stroke="#444444" points="1577.98,-851.99 1588.21,-854.72 1581.92,-846.2 1577.98,-851.99"/>
<polygon fill="white" stroke="transparent" points="1268,-820 1268,-895 1544,-895 1544,-820 1268,-820"/>
<text text-anchor="start" x="1272" y="-872.3" font-family="Arial" font-size="24.00" fill="#444444">Updates media rows and</text>
<text text-anchor="start" x="1365" y="-848.3" font-family="Arial" font-size="24.00" fill="#444444">tasks in</text>
<text text-anchor="start" x="1372.5" y="-828.3" font-family="Arial" font-size="19.00" fill="#444444">[sqlite3]</text>
</g>
<!-- 31 -->
<g id="31" class="node">
<title>31</title>
<path fill="#2f95c8" stroke="#20688c" d="M2898,-600.22C2898,-621.82 2776.09,-639.38 2626,-639.38 2475.91,-639.38 2354,-621.82 2354,-600.22 2354,-600.22 2354,-247.78 2354,-247.78 2354,-226.18 2475.91,-208.62 2626,-208.62 2776.09,-208.62 2898,-226.18 2898,-247.78 2898,-247.78 2898,-600.22 2898,-600.22"/>
<path fill="none" stroke="#20688c" d="M2898,-600.22C2898,-578.61 2776.09,-561.06 2626,-561.06 2475.91,-561.06 2354,-578.61 2354,-600.22"/>
<text text-anchor="start" x="2470.5" y="-532.3" font-family="Arial" font-size="34.00" fill="#ffffff">Guarded Media Blob</text>
<text text-anchor="start" x="2576.5" y="-498.3" font-family="Arial" font-size="34.00" fill="#ffffff">Cache</text>
<text text-anchor="start" x="2383" y="-476.3" font-family="Arial" font-size="19.00" fill="#ffffff">[Container: WSL&#45;visible local or NAS&#45;mounted filesystem]</text>
<text text-anchor="start" x="2516" y="-439.3" font-family="Arial" font-size="24.00" fill="#ffffff">Bounded disposable</text>
<text text-anchor="start" x="2460.5" y="-415.3" font-family="Arial" font-size="24.00" fill="#ffffff">image/video/audio bytes under</text>
<text text-anchor="start" x="2484.5" y="-391.3" font-family="Arial" font-size="24.00" fill="#ffffff">the configured media root;</text>
<text text-anchor="start" x="2512" y="-367.3" font-family="Arial" font-size="24.00" fill="#ffffff">explicit external roots</text>
<text text-anchor="start" x="2527" y="-343.3" font-family="Arial" font-size="24.00" fill="#ffffff">require mount and</text>
<text text-anchor="start" x="2476.5" y="-319.3" font-family="Arial" font-size="24.00" fill="#ffffff">identity&#45;marker proof before</text>
<text text-anchor="start" x="2585" y="-295.3" font-family="Arial" font-size="24.00" fill="#ffffff">access.</text>
</g>
<!-- 22&#45;&gt;31 -->
<g id="87" class="edge">
<title>22&#45;&gt;31</title>
<path fill="none" stroke="#444444" stroke-dasharray="5,2" d="M1992.11,-458.01C2097.86,-452.32 2228.54,-445.3 2343.64,-439.12"/>
<polygon fill="#444444" stroke="#444444" points="2343.87,-442.61 2353.67,-438.58 2343.49,-435.62 2343.87,-442.61"/>
<polygon fill="white" stroke="transparent" points="2037.5,-456 2037.5,-555 2308.5,-555 2308.5,-456 2037.5,-456"/>
<text text-anchor="start" x="2043.5" y="-532.3" font-family="Arial" font-size="24.00" fill="#444444">Stages, commits, reads,</text>
<text text-anchor="start" x="2042" y="-508.3" font-family="Arial" font-size="24.00" fill="#444444">stats, and deletes media</text>
<text text-anchor="start" x="2131.5" y="-484.3" font-family="Arial" font-size="24.00" fill="#444444">blobs in</text>
<text text-anchor="start" x="2122" y="-464.3" font-family="Arial" font-size="19.00" fill="#444444">[Filesystem]</text>
</g>
<!-- 32 -->
<g id="32" class="node">
<title>32</title>
<path fill="#2f95c8" stroke="#20688c" d="M2819,-1132.72C2819,-1155.98 2732.49,-1174.88 2626,-1174.88 2519.51,-1174.88 2433,-1155.98 2433,-1132.72 2433,-1132.72 2433,-753.28 2433,-753.28 2433,-730.02 2519.51,-711.12 2626,-711.12 2732.49,-711.12 2819,-730.02 2819,-753.28 2819,-753.28 2819,-1132.72 2819,-1132.72"/>
<path fill="none" stroke="#20688c" d="M2819,-1132.72C2819,-1109.45 2732.49,-1090.56 2626,-1090.56 2519.51,-1090.56 2433,-1109.45 2433,-1132.72"/>
<text text-anchor="start" x="2462" y="-1063.3" font-family="Arial" font-size="34.00" fill="#ffffff">Bounded Local Media</text>
<text text-anchor="start" x="2582.5" y="-1029.3" font-family="Arial" font-size="34.00" fill="#ffffff">Spool</text>
<text text-anchor="start" x="2486" y="-1007.3" font-family="Arial" font-size="19.00" fill="#ffffff">[Container: WSL local filesystem]</text>
<text text-anchor="start" x="2474" y="-970.3" font-family="Arial" font-size="24.00" fill="#ffffff">Opt&#45;in durable outage buffer</text>
<text text-anchor="start" x="2477.5" y="-946.3" font-family="Arial" font-size="24.00" fill="#ffffff">beneath the local WSL data</text>
<text text-anchor="start" x="2504.5" y="-922.3" font-family="Arial" font-size="24.00" fill="#ffffff">root; admission counts</text>
<text text-anchor="start" x="2480.5" y="-898.3" font-family="Arial" font-size="24.00" fill="#ffffff">committed files and distinct</text>
<text text-anchor="start" x="2474" y="-874.3" font-family="Arial" font-size="24.00" fill="#ffffff">in&#45;flight SQLite reservations,</text>
<text text-anchor="start" x="2501" y="-850.3" font-family="Arial" font-size="24.00" fill="#ffffff">and drain verifies bytes</text>
<text text-anchor="start" x="2478.5" y="-826.3" font-family="Arial" font-size="24.00" fill="#ffffff">before tier transition/source</text>
<text text-anchor="start" x="2580" y="-802.3" font-family="Arial" font-size="24.00" fill="#ffffff">cleanup.</text>
</g>
<!-- 22&#45;&gt;32 -->
<g id="88" class="edge">
<title>22&#45;&gt;32</title>
<path fill="none" stroke="#444444" stroke-dasharray="5,2" d="M1992.11,-584.8C2123.47,-659.15 2293.29,-755.26 2423.95,-829.21"/>
<polygon fill="#444444" stroke="#444444" points="2422.46,-832.39 2432.89,-834.27 2425.91,-826.3 2422.46,-832.39"/>
<polygon fill="white" stroke="transparent" points="2028,-762 2028,-861 2318,-861 2318,-762 2028,-762"/>
<text text-anchor="start" x="2043" y="-838.3" font-family="Arial" font-size="24.00" fill="#444444">Stages, commits, reads,</text>
<text text-anchor="start" x="2032" y="-814.3" font-family="Arial" font-size="24.00" fill="#444444">stats, and deletes spooled</text>
<text text-anchor="start" x="2127" y="-790.3" font-family="Arial" font-size="24.00" fill="#444444">media in</text>
<text text-anchor="start" x="2121.5" y="-770.3" font-family="Arial" font-size="19.00" fill="#444444">[Filesystem]</text>
</g>
</g>
</svg>
