<?xml version="1.0" encoding="UTF-8" standalone="no"?>
<!DOCTYPE svg PUBLIC "-//W3C//DTD SVG 1.1//EN"
 "http://www.w3.org/Graphics/SVG/1.1/DTD/svg11.dtd">
<!-- Generated by graphviz version 2.43.0 (0)
 -->
<!-- Title: %3 Pages: 1 -->
<svg width="2140pt" height="2023pt"
 viewBox="0.00 0.00 2140.00 2022.75" xmlns="http://www.w3.org/2000/svg" xmlns:xlink="http://www.w3.org/1999/xlink">
<g id="graph0" class="graph" transform="scale(1 1) rotate(0) translate(4 2018.75)">
<title>%3</title>
<polygon fill="white" stroke="transparent" points="-4,4 -4,-2018.75 2136,-2018.75 2136,4 -4,4"/>
<text text-anchor="start" x="743.5" y="-11.8" font-family="Arial" font-size="34.00">Container View: Browser Memory Daemon</text>
<g id="clust1" class="cluster">
<title>cluster_4</title>
<polygon fill="none" stroke="#444444" points="8,-64 8,-2006.75 1528,-2006.75 1528,-64 8,-64"/>
<text text-anchor="start" x="627" y="-92.8" font-family="Arial" font-size="24.00" fill="#444444">Browser Memory Daemon</text>
<text text-anchor="start" x="691" y="-72.8" font-family="Arial" font-size="19.00" fill="#444444">[Software System]</text>
</g>
<!-- 3 -->
<g id="3" class="node">
<title>3</title>
<polygon fill="#999999" stroke="#6b6b6b" points="2044.5,-577.69 1641.5,-577.69 1641.5,-312.69 2044.5,-312.69 2044.5,-577.69"/>
<text text-anchor="start" x="1681.5" y="-529.49" font-family="Arial" font-size="34.00" fill="#ffffff">Web Sites and Media</text>
<text text-anchor="start" x="1789" y="-495.49" font-family="Arial" font-size="34.00" fill="#ffffff">Origins</text>
<text text-anchor="start" x="1766" y="-473.49" font-family="Arial" font-size="19.00" fill="#ffffff">[Software System]</text>
<text text-anchor="start" x="1733" y="-436.49" font-family="Arial" font-size="24.00" fill="#ffffff">External web pages,</text>
<text text-anchor="start" x="1680.5" y="-412.49" font-family="Arial" font-size="24.00" fill="#ffffff">image/video URLs, and media</text>
<text text-anchor="start" x="1670.5" y="-388.49" font-family="Arial" font-size="24.00" fill="#ffffff">CDNs that Chrome loads or that</text>
<text text-anchor="start" x="1680.5" y="-364.49" font-family="Arial" font-size="24.00" fill="#ffffff">sidecars fetch as page&#45;related</text>
<text text-anchor="start" x="1806.5" y="-340.49" font-family="Arial" font-size="24.00" fill="#ffffff">media.</text>
</g>
<!-- 21 -->
<g id="21" class="node">
<title>21</title>
<path fill="#2f95c8" stroke="#20688c" d="M739.5,-1408.78C739.5,-1437.01 637.98,-1459.94 513,-1459.94 388.02,-1459.94 286.5,-1437.01 286.5,-1408.78 286.5,-1408.78 286.5,-948.35 286.5,-948.35 286.5,-920.12 388.02,-897.19 513,-897.19 637.98,-897.19 739.5,-920.12 739.5,-948.35 739.5,-948.35 739.5,-1408.78 739.5,-1408.78"/>
<path fill="none" stroke="#20688c" d="M739.5,-1408.78C739.5,-1380.55 637.98,-1357.62 513,-1357.62 388.02,-1357.62 286.5,-1380.55 286.5,-1408.78"/>
<text text-anchor="start" x="371" y="-1334.86" font-family="Arial" font-size="34.00" fill="#ffffff">Extension Browser</text>
<text text-anchor="start" x="453.5" y="-1300.86" font-family="Arial" font-size="34.00" fill="#ffffff">Storage</text>
<text text-anchor="start" x="315.5" y="-1278.86" font-family="Arial" font-size="19.00" fill="#ffffff">[Container: chrome.storage.local + IndexedDB]</text>
<text text-anchor="start" x="335.5" y="-1241.86" font-family="Arial" font-size="24.00" fill="#ffffff">Browser&#45;side IndexedDB storage</text>
<text text-anchor="start" x="426.5" y="-1217.86" font-family="Arial" font-size="24.00" fill="#ffffff">for transactional</text>
<text text-anchor="start" x="357.5" y="-1193.86" font-family="Arial" font-size="24.00" fill="#ffffff">capture/lifecycle outbox rows</text>
<text text-anchor="start" x="347.5" y="-1169.86" font-family="Arial" font-size="24.00" fill="#ffffff">plus specialized durable media</text>
<text text-anchor="start" x="449" y="-1145.86" font-family="Arial" font-size="24.00" fill="#ffffff">tasks/blobs;</text>
<text text-anchor="start" x="360.5" y="-1121.86" font-family="Arial" font-size="24.00" fill="#ffffff">chrome.storage.local retains</text>
<text text-anchor="start" x="361" y="-1097.86" font-family="Arial" font-size="24.00" fill="#ffffff">typed configuration, lifecycle</text>
<text text-anchor="start" x="345.5" y="-1073.86" font-family="Arial" font-size="24.00" fill="#ffffff">tab state, minimal CDP capture</text>
<text text-anchor="start" x="356.5" y="-1049.86" font-family="Arial" font-size="24.00" fill="#ffffff">context, aggregate telemetry,</text>
<text text-anchor="start" x="344.5" y="-1025.86" font-family="Arial" font-size="24.00" fill="#ffffff">and one&#45;version queue fallback</text>
<text text-anchor="start" x="488" y="-1001.86" font-family="Arial" font-size="24.00" fill="#ffffff">only.</text>
</g>
<!-- 22 -->
<g id="22" class="node">
<title>22</title>
<polygon fill="#438dd5" stroke="#2e6295" points="1274,-1347.06 812,-1347.06 812,-1010.06 1274,-1010.06 1274,-1347.06"/>
<text text-anchor="start" x="878.5" y="-1298.86" font-family="Arial" font-size="34.00" fill="#ffffff">WSL Loopback HTTP</text>
<text text-anchor="start" x="978.5" y="-1264.86" font-family="Arial" font-size="34.00" fill="#ffffff">Daemon</text>
<text text-anchor="start" x="841" y="-1242.86" font-family="Arial" font-size="19.00" fill="#ffffff">[Container: Python 3.11, ThreadingHTTPServer]</text>
<text text-anchor="start" x="882" y="-1205.86" font-family="Arial" font-size="24.00" fill="#ffffff">Authenticated loopback HTTP</text>
<text text-anchor="start" x="907" y="-1181.86" font-family="Arial" font-size="24.00" fill="#ffffff">API that handles capture,</text>
<text text-anchor="start" x="903.5" y="-1157.86" font-family="Arial" font-size="24.00" fill="#ffffff">visit events, media artifact</text>
<text text-anchor="start" x="906.5" y="-1133.86" font-family="Arial" font-size="24.00" fill="#ffffff">upload/fetch/purge, exact</text>
<text text-anchor="start" x="1003" y="-1109.86" font-family="Arial" font-size="24.00" fill="#ffffff">search,</text>
<text text-anchor="start" x="894" y="-1085.86" font-family="Arial" font-size="24.00" fill="#ffffff">recent/timeline/detail, policy</text>
<text text-anchor="start" x="891.5" y="-1061.86" font-family="Arial" font-size="24.00" fill="#ffffff">rules, doctor, durable forget,</text>
<text text-anchor="start" x="930" y="-1037.86" font-family="Arial" font-size="24.00" fill="#ffffff">and static UI serving.</text>
</g>
<!-- 22&#45;&gt;3 -->
<g id="144" class="edge">
<title>22&#45;&gt;3</title>
<path fill="none" stroke="#444444" stroke-dasharray="5,2" d="M1253.27,-1010.05C1304.66,-964.47 1357.59,-913.28 1402,-861.38 1435.91,-821.75 1425.49,-796.42 1465,-762.38 1494.85,-736.66 1513.2,-748.2 1546,-726.38 1606.18,-686.32 1665.55,-633.71 1715.2,-584.91"/>
<polygon fill="#444444" stroke="#444444" points="1717.8,-587.26 1722.45,-577.74 1712.88,-582.28 1717.8,-587.26"/>
<polygon fill="white" stroke="transparent" points="1465,-774.38 1465,-849.38 1821,-849.38 1821,-774.38 1465,-774.38"/>
<text text-anchor="start" x="1528" y="-826.67" font-family="Arial" font-size="24.00" fill="#444444">Validates and fetches</text>
<text text-anchor="start" x="1547" y="-802.67" font-family="Arial" font-size="24.00" fill="#444444">public media from</text>
<text text-anchor="start" x="1469" y="-782.67" font-family="Arial" font-size="19.00" fill="#444444">[HTTP(S), no Referer or Chrome cookies]</text>
</g>
<!-- 47 -->
<g id="47" class="node">
<title>47</title>
<path fill="#2f95c8" stroke="#20688c" d="M428.5,-675.4C428.5,-703.63 339.98,-726.56 231,-726.56 122.02,-726.56 33.5,-703.63 33.5,-675.4 33.5,-675.4 33.5,-214.97 33.5,-214.97 33.5,-186.74 122.02,-163.81 231,-163.81 339.98,-163.81 428.5,-186.74 428.5,-214.97 428.5,-214.97 428.5,-675.4 428.5,-675.4"/>
<path fill="none" stroke="#20688c" d="M428.5,-675.4C428.5,-647.17 339.98,-624.24 231,-624.24 122.02,-624.24 33.5,-647.17 33.5,-675.4"/>
<text text-anchor="start" x="118" y="-601.49" font-family="Arial" font-size="34.00" fill="#ffffff">SQLite + FTS5</text>
<text text-anchor="start" x="158" y="-567.49" font-family="Arial" font-size="34.00" fill="#ffffff">Database</text>
<text text-anchor="start" x="105" y="-545.49" font-family="Arial" font-size="19.00" fill="#ffffff">[Container: SQLite with FTS5]</text>
<text text-anchor="start" x="63" y="-508.49" font-family="Arial" font-size="24.00" fill="#ffffff">Durable complete cleaned&#45;text,</text>
<text text-anchor="start" x="112" y="-484.49" font-family="Arial" font-size="24.00" fill="#ffffff">relational, and full&#45;text</text>
<text text-anchor="start" x="113.5" y="-460.49" font-family="Arial" font-size="24.00" fill="#ffffff">authority for migration</text>
<text text-anchor="start" x="79" y="-436.49" font-family="Arial" font-size="24.00" fill="#ffffff">ledger, sources, documents,</text>
<text text-anchor="start" x="81.5" y="-412.49" font-family="Arial" font-size="24.00" fill="#ffffff">visits, capture observations,</text>
<text text-anchor="start" x="100" y="-388.49" font-family="Arial" font-size="24.00" fill="#ffffff">URL claims, visit events,</text>
<text text-anchor="start" x="62.5" y="-364.49" font-family="Arial" font-size="24.00" fill="#ffffff">snapshots, chunks, chunks_fts,</text>
<text text-anchor="start" x="70" y="-340.49" font-family="Arial" font-size="24.00" fill="#ffffff">media provenance/tasks, blob</text>
<text text-anchor="start" x="106.5" y="-316.49" font-family="Arial" font-size="24.00" fill="#ffffff">lifecycle records, policy</text>
<text text-anchor="start" x="105.5" y="-292.49" font-family="Arial" font-size="24.00" fill="#ffffff">rules, audit events, and</text>
<text text-anchor="start" x="139" y="-268.49" font-family="Arial" font-size="24.00" fill="#ffffff">deletion receipts.</text>
</g>
<!-- 22&#45;&gt;47 -->
<g id="69" class="edge">
<title>22&#45;&gt;47</title>
<path fill="none" stroke="#444444" stroke-dasharray="5,2" d="M919.46,-1009.98C878.5,-966.14 829.32,-923.81 775,-897.38 701.51,-861.62 474.94,-909.65 409,-861.38 365.21,-829.32 332.09,-784.26 307.07,-735.57"/>
<polygon fill="#444444" stroke="#444444" points="310.1,-733.81 302.49,-726.44 303.85,-736.95 310.1,-733.81"/>
<polygon fill="white" stroke="transparent" points="409,-762.38 409,-861.38 719,-861.38 719,-762.38 409,-762.38"/>
<text text-anchor="start" x="413" y="-838.67" font-family="Arial" font-size="24.00" fill="#444444">Reads and writes metadata,</text>
<text text-anchor="start" x="446" y="-814.67" font-family="Arial" font-size="24.00" fill="#444444">FTS, tasks, audit, and</text>
<text text-anchor="start" x="508.5" y="-790.67" font-family="Arial" font-size="24.00" fill="#444444">receipts in</text>
<text text-anchor="start" x="530.5" y="-770.67" font-family="Arial" font-size="19.00" fill="#444444">[sqlite3]</text>
</g>
<!-- 49 -->
<g id="49" class="node">
<title>49</title>
<path fill="#2f95c8" stroke="#20688c" d="M1045,-621.4C1045,-643.01 923.09,-660.56 773,-660.56 622.91,-660.56 501,-643.01 501,-621.4 501,-621.4 501,-268.97 501,-268.97 501,-247.36 622.91,-229.81 773,-229.81 923.09,-229.81 1045,-247.36 1045,-268.97 1045,-268.97 1045,-621.4 1045,-621.4"/>
<path fill="none" stroke="#20688c" d="M1045,-621.4C1045,-599.8 923.09,-582.24 773,-582.24 622.91,-582.24 501,-599.8 501,-621.4"/>
<text text-anchor="start" x="617.5" y="-553.49" font-family="Arial" font-size="34.00" fill="#ffffff">Guarded Media Blob</text>
<text text-anchor="start" x="723.5" y="-519.49" font-family="Arial" font-size="34.00" fill="#ffffff">Cache</text>
<text text-anchor="start" x="530" y="-497.49" font-family="Arial" font-size="19.00" fill="#ffffff">[Container: WSL&#45;visible local or NAS&#45;mounted filesystem]</text>
<text text-anchor="start" x="663" y="-460.49" font-family="Arial" font-size="24.00" fill="#ffffff">Bounded disposable</text>
<text text-anchor="start" x="607.5" y="-436.49" font-family="Arial" font-size="24.00" fill="#ffffff">image/video/audio bytes under</text>
<text text-anchor="start" x="631.5" y="-412.49" font-family="Arial" font-size="24.00" fill="#ffffff">the configured media root;</text>
<text text-anchor="start" x="659" y="-388.49" font-family="Arial" font-size="24.00" fill="#ffffff">explicit external roots</text>
<text text-anchor="start" x="674" y="-364.49" font-family="Arial" font-size="24.00" fill="#ffffff">require mount and</text>
<text text-anchor="start" x="623.5" y="-340.49" font-family="Arial" font-size="24.00" fill="#ffffff">identity&#45;marker proof before</text>
<text text-anchor="start" x="732" y="-316.49" font-family="Arial" font-size="24.00" fill="#ffffff">access.</text>
</g>
<!-- 22&#45;&gt;49 -->
<g id="71" class="edge">
<title>22&#45;&gt;49</title>
<path fill="none" stroke="#444444" stroke-dasharray="5,2" d="M852.26,-1009.92C814.22,-965.79 779.66,-915.29 759,-861.38 736.22,-801.92 730.82,-734.1 733.51,-670.76"/>
<polygon fill="#444444" stroke="#444444" points="737.01,-670.79 734.01,-660.63 730.02,-670.44 737.01,-670.79"/>
<polygon fill="white" stroke="transparent" points="759,-762.38 759,-861.38 1067,-861.38 1067,-762.38 759,-762.38"/>
<text text-anchor="start" x="788" y="-838.67" font-family="Arial" font-size="24.00" fill="#444444">Stores, serves, purges,</text>
<text text-anchor="start" x="763" y="-814.67" font-family="Arial" font-size="24.00" fill="#444444">and rehydrates media blobs</text>
<text text-anchor="start" x="903.5" y="-790.67" font-family="Arial" font-size="24.00" fill="#444444">in</text>
<text text-anchor="start" x="861.5" y="-770.67" font-family="Arial" font-size="19.00" fill="#444444">[Filesystem]</text>
</g>
<!-- 50 -->
<g id="50" class="node">
<title>50</title>
<path fill="#2f95c8" stroke="#20688c" d="M1503,-634.9C1503,-658.17 1416.49,-677.06 1310,-677.06 1203.51,-677.06 1117,-658.17 1117,-634.9 1117,-634.9 1117,-255.47 1117,-255.47 1117,-232.21 1203.51,-213.31 1310,-213.31 1416.49,-213.31 1503,-232.21 1503,-255.47 1503,-255.47 1503,-634.9 1503,-634.9"/>
<path fill="none" stroke="#20688c" d="M1503,-634.9C1503,-611.64 1416.49,-592.74 1310,-592.74 1203.51,-592.74 1117,-611.64 1117,-634.9"/>
<text text-anchor="start" x="1146" y="-565.49" font-family="Arial" font-size="34.00" fill="#ffffff">Bounded Local Media</text>
<text text-anchor="start" x="1266.5" y="-531.49" font-family="Arial" font-size="34.00" fill="#ffffff">Spool</text>
<text text-anchor="start" x="1170" y="-509.49" font-family="Arial" font-size="19.00" fill="#ffffff">[Container: WSL local filesystem]</text>
<text text-anchor="start" x="1158" y="-472.49" font-family="Arial" font-size="24.00" fill="#ffffff">Opt&#45;in durable outage buffer</text>
<text text-anchor="start" x="1161.5" y="-448.49" font-family="Arial" font-size="24.00" fill="#ffffff">beneath the local WSL data</text>
<text text-anchor="start" x="1188.5" y="-424.49" font-family="Arial" font-size="24.00" fill="#ffffff">root; admission counts</text>
<text text-anchor="start" x="1164.5" y="-400.49" font-family="Arial" font-size="24.00" fill="#ffffff">committed files and distinct</text>
<text text-anchor="start" x="1158" y="-376.49" font-family="Arial" font-size="24.00" fill="#ffffff">in&#45;flight SQLite reservations,</text>
<text text-anchor="start" x="1185" y="-352.49" font-family="Arial" font-size="24.00" fill="#ffffff">and drain verifies bytes</text>
<text text-anchor="start" x="1162.5" y="-328.49" font-family="Arial" font-size="24.00" fill="#ffffff">before tier transition/source</text>
<text text-anchor="start" x="1264" y="-304.49" font-family="Arial" font-size="24.00" fill="#ffffff">cleanup.</text>
</g>
<!-- 22&#45;&gt;50 -->
<g id="72" class="edge">
<title>22&#45;&gt;50</title>
<path fill="none" stroke="#444444" stroke-dasharray="5,2" d="M1055.65,-1009.97C1065.29,-932.72 1082.24,-840.96 1112,-762.38 1122.92,-733.54 1136.62,-704.5 1151.7,-676.33"/>
<polygon fill="#444444" stroke="#444444" points="1154.95,-677.67 1156.64,-667.21 1148.8,-674.34 1154.95,-677.67"/>
<polygon fill="white" stroke="transparent" points="1112,-762.38 1112,-861.38 1388,-861.38 1388,-762.38 1112,-762.38"/>
<text text-anchor="start" x="1116" y="-838.67" font-family="Arial" font-size="24.00" fill="#444444">Stores and serves media</text>
<text text-anchor="start" x="1143" y="-814.67" font-family="Arial" font-size="24.00" fill="#444444">during guarded&#45;root</text>
<text text-anchor="start" x="1194" y="-790.67" font-family="Arial" font-size="24.00" fill="#444444">outages in</text>
<text text-anchor="start" x="1198.5" y="-770.67" font-family="Arial" font-size="19.00" fill="#444444">[Filesystem]</text>
</g>
<!-- 5 -->
<g id="5" class="node">
<title>5</title>
<polygon fill="#438dd5" stroke="#2e6295" points="1225,-1981.75 791,-1981.75 791,-1702.75 1225,-1702.75 1225,-1981.75"/>
<text text-anchor="start" x="828" y="-1933.55" font-family="Arial" font-size="34.00" fill="#ffffff">Chrome MV3 Extension</text>
<text text-anchor="start" x="820" y="-1911.55" font-family="Arial" font-size="19.00" fill="#ffffff">[Container: JavaScript, Chrome Manifest V3]</text>
<text text-anchor="start" x="865" y="-1874.55" font-family="Arial" font-size="24.00" fill="#ffffff">Captures visible page text,</text>
<text text-anchor="start" x="890.5" y="-1850.55" font-family="Arial" font-size="24.00" fill="#ffffff">media references, tab</text>
<text text-anchor="start" x="899" y="-1826.55" font-family="Arial" font-size="24.00" fill="#ffffff">lifecycle events, and</text>
<text text-anchor="start" x="842" y="-1802.55" font-family="Arial" font-size="24.00" fill="#ffffff">browser&#45;side media bytes from</text>
<text text-anchor="start" x="837" y="-1778.55" font-family="Arial" font-size="24.00" fill="#ffffff">Windows Chrome; queues work</text>
<text text-anchor="start" x="849" y="-1754.55" font-family="Arial" font-size="24.00" fill="#ffffff">durably and posts to the WSL</text>
<text text-anchor="start" x="960.5" y="-1730.55" font-family="Arial" font-size="24.00" fill="#ffffff">daemon.</text>
</g>
<!-- 5&#45;&gt;3 -->
<g id="58" class="edge">
<title>5&#45;&gt;3</title>
<path fill="none" stroke="#444444" stroke-dasharray="5,2" d="M1225.13,-1814.83C1331.56,-1791.68 1454.63,-1748.24 1539,-1666.75 1838.35,-1377.62 1860.47,-842.53 1852.23,-587.93"/>
<polygon fill="#444444" stroke="#444444" points="1855.73,-587.75 1851.89,-577.88 1848.74,-587.99 1855.73,-587.75"/>
<polygon fill="white" stroke="transparent" points="1841,-1129.06 1841,-1228.06 2132,-1228.06 2132,-1129.06 1841,-1129.06"/>
<text text-anchor="start" x="1864.5" y="-1205.36" font-family="Arial" font-size="24.00" fill="#444444">Extracts DOM refs and</text>
<text text-anchor="start" x="1904" y="-1181.36" font-family="Arial" font-size="24.00" fill="#444444">fetches queued</text>
<text text-anchor="start" x="1856.5" y="-1157.36" font-family="Arial" font-size="24.00" fill="#444444">credentialed media from</text>
<text text-anchor="start" x="1845.5" y="-1137.36" font-family="Arial" font-size="19.00" fill="#444444">[DOM; fetch(credentials: include)]</text>
</g>
<!-- 5&#45;&gt;21 -->
<g id="59" class="edge">
<title>5&#45;&gt;21</title>
<path fill="none" stroke="#444444" stroke-dasharray="5,2" d="M790.99,-1750.64C753.32,-1727.55 717.24,-1699.71 689,-1666.75 640.56,-1610.22 605.04,-1539.3 579.16,-1469.22"/>
<polygon fill="#444444" stroke="#444444" points="582.44,-1467.99 575.73,-1459.78 575.86,-1470.38 582.44,-1467.99"/>
<polygon fill="white" stroke="transparent" points="689,-1495.75 689,-1666.75 1000,-1666.75 1000,-1495.75 689,-1495.75"/>
<text text-anchor="start" x="726" y="-1644.05" font-family="Arial" font-size="24.00" fill="#444444">Persists configuration,</text>
<text text-anchor="start" x="748.5" y="-1620.05" font-family="Arial" font-size="24.00" fill="#444444">lifecycle tab state,</text>
<text text-anchor="start" x="734" y="-1596.05" font-family="Arial" font-size="24.00" fill="#444444">aggregate telemetry,</text>
<text text-anchor="start" x="718.5" y="-1572.05" font-family="Arial" font-size="24.00" fill="#444444">capture/lifecycle outbox</text>
<text text-anchor="start" x="721" y="-1548.05" font-family="Arial" font-size="24.00" fill="#444444">rows, media tasks, and</text>
<text text-anchor="start" x="803" y="-1524.05" font-family="Arial" font-size="24.00" fill="#444444">blobs in</text>
<text text-anchor="start" x="693.5" y="-1504.05" font-family="Arial" font-size="19.00" fill="#444444">[chrome.storage.local + IndexedDB]</text>
</g>
<!-- 5&#45;&gt;22 -->
<g id="60" class="edge">
<title>5&#45;&gt;22</title>
<path fill="none" stroke="#444444" stroke-dasharray="5,2" d="M1015.34,-1702.54C1020.65,-1602.12 1027.87,-1465.57 1033.6,-1357.18"/>
<polygon fill="#444444" stroke="#444444" points="1037.1,-1357.28 1034.14,-1347.11 1030.11,-1356.91 1037.1,-1357.28"/>
<polygon fill="white" stroke="transparent" points="1026,-1519.75 1026,-1642.75 1521,-1642.75 1521,-1519.75 1026,-1519.75"/>
<text text-anchor="start" x="1193" y="-1620.05" font-family="Arial" font-size="24.00" fill="#444444">Posts /capture,</text>
<text text-anchor="start" x="1170" y="-1596.05" font-family="Arial" font-size="24.00" fill="#444444">/visit&#45;events, media</text>
<text text-anchor="start" x="1147" y="-1572.05" font-family="Arial" font-size="24.00" fill="#444444">metadata, and raw blob</text>
<text text-anchor="start" x="1218" y="-1548.05" font-family="Arial" font-size="24.00" fill="#444444">uploads to</text>
<text text-anchor="start" x="1030.5" y="-1528.05" font-family="Arial" font-size="19.00" fill="#444444">[Bearer HTTP/JSON; raw HTTP PUT over 127.0.0.1:8765]</text>
</g>
</g>
</svg>
