<?xml version="1.0" encoding="UTF-8" standalone="no"?>
<!DOCTYPE svg PUBLIC "-//W3C//DTD SVG 1.1//EN"
 "http://www.w3.org/Graphics/SVG/1.1/DTD/svg11.dtd">
<!-- Generated by graphviz version 2.43.0 (0)
 -->
<!-- Title: %3 Pages: 1 -->
<svg width="1959pt" height="766pt"
 viewBox="0.00 0.00 1959.00 766.00" xmlns="http://www.w3.org/2000/svg" xmlns:xlink="http://www.w3.org/1999/xlink">
<g id="graph0" class="graph" transform="scale(1 1) rotate(0) translate(4 762)">
<title>%3</title>
<polygon fill="white" stroke="transparent" points="-4,4 -4,-762 1955,-762 1955,4 -4,4"/>
<text text-anchor="start" x="390.5" y="-11.8" font-family="Arial" font-size="34.00">Component View: Browser Memory Daemon &#45; WSL Loopback HTTP Daemon</text>
<g id="clust1" class="cluster">
<title>cluster_4</title>
<polygon fill="none" stroke="#444444" points="8,-64 8,-750 1943,-750 1943,-64 8,-64"/>
<text text-anchor="start" x="834.5" y="-92.8" font-family="Arial" font-size="24.00" fill="#444444">Browser Memory Daemon</text>
<text text-anchor="start" x="898.5" y="-72.8" font-family="Arial" font-size="19.00" fill="#444444">[Software System]</text>
</g>
<g id="clust2" class="cluster">
<title>cluster_14</title>
<polygon fill="none" stroke="#444444" points="33,-164 33,-725 1918,-725 1918,-164 33,-164"/>
<text text-anchor="start" x="810" y="-192.8" font-family="Arial" font-size="24.00" fill="#444444">WSL Loopback HTTP Daemon</text>
<text text-anchor="start" x="773.5" y="-172.8" font-family="Arial" font-size="19.00" fill="#444444">[Container: Python 3.11, ThreadingHTTPServer]</text>
</g>
<!-- 15 -->
<g id="15" class="node">
<title>15</title>
<polygon fill="#85bbf0" stroke="#1168bd" points="453,-597.5 58,-597.5 58,-366.5 453,-366.5 453,-597.5"/>
<text text-anchor="start" x="87" y="-549.3" font-family="Arial" font-size="34.00" fill="#000000">HTTP Request Router</text>
<text text-anchor="start" x="119" y="-527.3" font-family="Arial" font-size="19.00" fill="#000000">[Component: Python http.server]</text>
<text text-anchor="start" x="90" y="-490.3" font-family="Arial" font-size="24.00" fill="#000000">Routes loopback API requests,</text>
<text text-anchor="start" x="112.5" y="-466.3" font-family="Arial" font-size="24.00" fill="#000000">serves UI assets, enforces</text>
<text text-anchor="start" x="91.5" y="-442.3" font-family="Arial" font-size="24.00" fill="#000000">bearer auth for memory/admin</text>
<text text-anchor="start" x="106" y="-418.3" font-family="Arial" font-size="24.00" fill="#000000">APIs, and applies CORS for</text>
<text text-anchor="start" x="172" y="-394.3" font-family="Arial" font-size="24.00" fill="#000000">allowed origins.</text>
</g>
<!-- 17 -->
<g id="17" class="node">
<title>17</title>
<polygon fill="#85bbf0" stroke="#1168bd" points="1142,-495.5 780,-495.5 780,-264.5 1142,-264.5 1142,-495.5"/>
<text text-anchor="start" x="858" y="-447.3" font-family="Arial" font-size="34.00" fill="#000000">Policy Engine</text>
<text text-anchor="start" x="872" y="-425.3" font-family="Arial" font-size="19.00" fill="#000000">[Component: Python]</text>
<text text-anchor="start" x="908" y="-388.3" font-family="Arial" font-size="24.00" fill="#000000">Evaluates</text>
<text text-anchor="start" x="835" y="-364.3" font-family="Arial" font-size="24.00" fill="#000000">all/recall/balanced/strict</text>
<text text-anchor="start" x="809" y="-340.3" font-family="Arial" font-size="24.00" fill="#000000">capture mode decisions and</text>
<text text-anchor="start" x="819" y="-316.3" font-family="Arial" font-size="24.00" fill="#000000">redacts URL/title/body text</text>
<text text-anchor="start" x="869" y="-292.3" font-family="Arial" font-size="24.00" fill="#000000">outside all mode.</text>
</g>
<!-- 15&#45;&gt;17 -->
<g id="67" class="edge">
<title>15&#45;&gt;17</title>
<path fill="none" stroke="#444444" stroke-dasharray="5,2" d="M453.4,-453.45C552.33,-439.11 671.69,-421.8 769.69,-407.59"/>
<polygon fill="#444444" stroke="#444444" points="770.32,-411.04 779.71,-406.14 769.31,-404.11 770.32,-411.04"/>
<polygon fill="white" stroke="transparent" points="489,-446 489,-506 744,-506 744,-446 489,-446"/>
<text text-anchor="start" x="493.5" y="-482.8" font-family="Arial" font-size="24.00" fill="#444444">Gets capture decisions</text>
<text text-anchor="start" x="592.5" y="-456.8" font-family="Arial" font-size="24.00" fill="#444444">from</text>
</g>
<!-- 18 -->
<g id="18" class="node">
<title>18</title>
<polygon fill="#85bbf0" stroke="#1168bd" points="1893,-645.5 1511,-645.5 1511,-438.5 1893,-438.5 1893,-645.5"/>
<text text-anchor="start" x="1611" y="-597.3" font-family="Arial" font-size="34.00" fill="#000000">Policy Store</text>
<text text-anchor="start" x="1572.5" y="-575.3" font-family="Arial" font-size="19.00" fill="#000000">[Component: Python + SQLite]</text>
<text text-anchor="start" x="1580" y="-538.3" font-family="Arial" font-size="24.00" fill="#000000">Persists and evaluates</text>
<text text-anchor="start" x="1561.5" y="-514.3" font-family="Arial" font-size="24.00" fill="#000000">explicit local block&#45;domain</text>
<text text-anchor="start" x="1540" y="-490.3" font-family="Arial" font-size="24.00" fill="#000000">and URL&#45;prefix rules for every</text>
<text text-anchor="start" x="1634" y="-466.3" font-family="Arial" font-size="24.00" fill="#000000">policy mode.</text>
</g>
<!-- 15&#45;&gt;18 -->
<g id="69" class="edge">
<title>15&#45;&gt;18</title>
<path fill="none" stroke="#444444" stroke-dasharray="5,2" d="M453.19,-519.18C465.28,-520.95 477.29,-522.58 489,-524 924.46,-576.74 1037.03,-591.15 1475,-567 1483.43,-566.54 1492.03,-565.97 1500.7,-565.33"/>
<polygon fill="#444444" stroke="#444444" points="1501.22,-568.81 1510.92,-564.55 1500.69,-561.83 1501.22,-568.81"/>
<polygon fill="white" stroke="transparent" points="843,-578 843,-638 1079,-638 1079,-578 843,-578"/>
<text text-anchor="start" x="847" y="-614.8" font-family="Arial" font-size="24.00" fill="#444444">Manages policy rules</text>
<text text-anchor="start" x="919.5" y="-588.8" font-family="Arial" font-size="24.00" fill="#444444">through</text>
</g>
<!-- 17&#45;&gt;18 -->
<g id="76" class="edge">
<title>17&#45;&gt;18</title>
<path fill="none" stroke="#444444" stroke-dasharray="5,2" d="M1142.31,-419.53C1250.77,-443.3 1389.01,-473.61 1500.84,-498.12"/>
<polygon fill="#444444" stroke="#444444" points="1500.37,-501.6 1510.89,-500.33 1501.87,-494.77 1500.37,-501.6"/>
<polygon fill="white" stroke="transparent" points="1178,-489 1178,-549 1475,-549 1475,-489 1178,-489"/>
<text text-anchor="start" x="1182.5" y="-525.8" font-family="Arial" font-size="24.00" fill="#444444">Combines static mode with</text>
<text text-anchor="start" x="1272.5" y="-499.8" font-family="Arial" font-size="24.00" fill="#444444">rules from</text>
</g>
</g>
</svg>
