<?xml version="1.0" encoding="UTF-8" standalone="no"?>
<!DOCTYPE svg PUBLIC "-//W3C//DTD SVG 1.1//EN"
 "http://www.w3.org/Graphics/SVG/1.1/DTD/svg11.dtd">
<!-- Generated by graphviz version 2.43.0 (0)
 -->
<!-- Title: %3 Pages: 1 -->
<svg width="2012pt" height="1058pt"
 viewBox="0.00 0.00 2012.00 1058.00" xmlns="http://www.w3.org/2000/svg" xmlns:xlink="http://www.w3.org/1999/xlink">
<g id="graph0" class="graph" transform="scale(1 1) rotate(0) translate(4 1054)">
<title>%3</title>
<polygon fill="white" stroke="transparent" points="-4,4 -4,-1054 2008,-1054 2008,4 -4,4"/>
<text text-anchor="start" x="417" y="-11.8" font-family="Arial" font-size="34.00">Component View: Browser Memory Daemon &#45; WSL Loopback HTTP Daemon</text>
<g id="clust1" class="cluster">
<title>cluster_4</title>
<polygon fill="none" stroke="#444444" points="8,-64 8,-1042 1996,-1042 1996,-64 8,-64"/>
<text text-anchor="start" x="861" y="-92.8" font-family="Arial" font-size="24.00" fill="#444444">Browser Memory Daemon</text>
<text text-anchor="start" x="925" y="-72.8" font-family="Arial" font-size="19.00" fill="#444444">[Software System]</text>
</g>
<g id="clust2" class="cluster">
<title>cluster_14</title>
<polygon fill="none" stroke="#444444" points="33,-348 33,-705 1224,-705 1224,-348 33,-348"/>
<text text-anchor="start" x="463" y="-376.8" font-family="Arial" font-size="24.00" fill="#444444">WSL Loopback HTTP Daemon</text>
<text text-anchor="start" x="426.5" y="-356.8" font-family="Arial" font-size="19.00" fill="#444444">[Container: Python 3.11, ThreadingHTTPServer]</text>
</g>
<!-- 15 -->
<g id="15" class="node">
<title>15</title>
<polygon fill="#85bbf0" stroke="#1168bd" points="453,-679.5 58,-679.5 58,-448.5 453,-448.5 453,-679.5"/>
<text text-anchor="start" x="87" y="-631.3" font-family="Arial" font-size="34.00" fill="#000000">HTTP Request Router</text>
<text text-anchor="start" x="119" y="-609.3" font-family="Arial" font-size="19.00" fill="#000000">[Component: Python http.server]</text>
<text text-anchor="start" x="90" y="-572.3" font-family="Arial" font-size="24.00" fill="#000000">Routes loopback API requests,</text>
<text text-anchor="start" x="112.5" y="-548.3" font-family="Arial" font-size="24.00" fill="#000000">serves UI assets, enforces</text>
<text text-anchor="start" x="91.5" y="-524.3" font-family="Arial" font-size="24.00" fill="#000000">bearer auth for memory/admin</text>
<text text-anchor="start" x="106" y="-500.3" font-family="Arial" font-size="24.00" fill="#000000">APIs, and applies CORS for</text>
<text text-anchor="start" x="172" y="-476.3" font-family="Arial" font-size="24.00" fill="#000000">allowed origins.</text>
</g>
<!-- 19 -->
<g id="19" class="node">
<title>19</title>
<polygon fill="#85bbf0" stroke="#1168bd" points="1199,-679.5 807,-679.5 807,-448.5 1199,-448.5 1199,-679.5"/>
<text text-anchor="start" x="891.5" y="-631.3" font-family="Arial" font-size="34.00" fill="#000000">Ingest Pipeline</text>
<text text-anchor="start" x="875" y="-609.3" font-family="Arial" font-size="19.00" fill="#000000">[Component: Python + sqlite3]</text>
<text text-anchor="start" x="849.5" y="-572.3" font-family="Arial" font-size="24.00" fill="#000000">Normalizes URLs, computes</text>
<text text-anchor="start" x="836" y="-548.3" font-family="Arial" font-size="24.00" fill="#000000">document/snapshot IDs, stores</text>
<text text-anchor="start" x="849.5" y="-524.3" font-family="Arial" font-size="24.00" fill="#000000">visits/snapshots/chunks/FTS</text>
<text text-anchor="start" x="848" y="-500.3" font-family="Arial" font-size="24.00" fill="#000000">rows, writes clean text blobs,</text>
<text text-anchor="start" x="838" y="-476.3" font-family="Arial" font-size="24.00" fill="#000000">and records media references.</text>
</g>
<!-- 15&#45;&gt;19 -->
<g id="65" class="edge">
<title>15&#45;&gt;19</title>
<path fill="none" stroke="#444444" stroke-dasharray="5,2" d="M453.35,-564C559.18,-564 689.56,-564 796.67,-564"/>
<polygon fill="#444444" stroke="#444444" points="796.96,-567.5 806.96,-564 796.96,-560.5 796.96,-567.5"/>
<text text-anchor="start" x="489" y="-596.8" font-family="Arial" font-size="24.00" fill="#444444">Routes accepted captures</text>
<text text-anchor="start" x="619.5" y="-570.8" font-family="Arial" font-size="24.00" fill="#444444">to</text>
</g>
<!-- 28 -->
<g id="28" class="node">
<title>28</title>
<path fill="#2f95c8" stroke="#20688c" d="M1949.5,-615.22C1949.5,-640.13 1860.98,-660.38 1752,-660.38 1643.02,-660.38 1554.5,-640.13 1554.5,-615.22 1554.5,-615.22 1554.5,-208.78 1554.5,-208.78 1554.5,-183.87 1643.02,-163.62 1752,-163.62 1860.98,-163.62 1949.5,-183.87 1949.5,-208.78 1949.5,-208.78 1949.5,-615.22 1949.5,-615.22"/>
<path fill="none" stroke="#20688c" d="M1949.5,-615.22C1949.5,-590.3 1860.98,-570.06 1752,-570.06 1643.02,-570.06 1554.5,-590.3 1554.5,-615.22"/>
<text text-anchor="start" x="1639" y="-544.3" font-family="Arial" font-size="34.00" fill="#ffffff">SQLite + FTS5</text>
<text text-anchor="start" x="1679" y="-510.3" font-family="Arial" font-size="34.00" fill="#ffffff">Database</text>
<text text-anchor="start" x="1626" y="-488.3" font-family="Arial" font-size="19.00" fill="#ffffff">[Container: SQLite with FTS5]</text>
<text text-anchor="start" x="1633" y="-451.3" font-family="Arial" font-size="24.00" fill="#ffffff">Durable relational and</text>
<text text-anchor="start" x="1611.5" y="-427.3" font-family="Arial" font-size="24.00" fill="#ffffff">full&#45;text store for migration</text>
<text text-anchor="start" x="1600" y="-403.3" font-family="Arial" font-size="24.00" fill="#ffffff">ledger, sources, documents,</text>
<text text-anchor="start" x="1602.5" y="-379.3" font-family="Arial" font-size="24.00" fill="#ffffff">visits, capture observations,</text>
<text text-anchor="start" x="1621" y="-355.3" font-family="Arial" font-size="24.00" fill="#ffffff">URL claims, visit events,</text>
<text text-anchor="start" x="1583.5" y="-331.3" font-family="Arial" font-size="24.00" fill="#ffffff">snapshots, chunks, chunks_fts,</text>
<text text-anchor="start" x="1603.5" y="-307.3" font-family="Arial" font-size="24.00" fill="#ffffff">media artifacts, media fetch</text>
<text text-anchor="start" x="1623.5" y="-283.3" font-family="Arial" font-size="24.00" fill="#ffffff">tasks, policy rules, audit</text>
<text text-anchor="start" x="1594" y="-259.3" font-family="Arial" font-size="24.00" fill="#ffffff">events, and deletion receipts.</text>
</g>
<!-- 19&#45;&gt;28 -->
<g id="72" class="edge">
<title>19&#45;&gt;28</title>
<path fill="none" stroke="#444444" stroke-dasharray="5,2" d="M1199.29,-524.26C1305.35,-502.68 1436.44,-476.01 1544.23,-454.07"/>
<polygon fill="#444444" stroke="#444444" points="1545.15,-457.46 1554.26,-452.03 1543.76,-450.6 1545.15,-457.46"/>
<text text-anchor="start" x="1235" y="-562.8" font-family="Arial" font-size="24.00" fill="#444444">Writes capture rows and</text>
<text text-anchor="start" x="1329.5" y="-538.8" font-family="Arial" font-size="24.00" fill="#444444">FTS to</text>
<text text-anchor="start" x="1332.5" y="-518.8" font-family="Arial" font-size="19.00" fill="#444444">[sqlite3]</text>
</g>
<!-- 29 -->
<g id="29" class="node">
<title>29</title>
<path fill="#2f95c8" stroke="#20688c" d="M1971,-991.28C1971,-1005.54 1872.84,-1017.13 1752,-1017.13 1631.16,-1017.13 1533,-1005.54 1533,-991.28 1533,-991.28 1533,-758.72 1533,-758.72 1533,-744.46 1631.16,-732.87 1752,-732.87 1872.84,-732.87 1971,-744.46 1971,-758.72 1971,-758.72 1971,-991.28 1971,-991.28"/>
<path fill="none" stroke="#20688c" d="M1971,-991.28C1971,-977.03 1872.84,-965.44 1752,-965.44 1631.16,-965.44 1533,-977.03 1533,-991.28"/>
<text text-anchor="start" x="1587.5" y="-930.3" font-family="Arial" font-size="34.00" fill="#ffffff">Clean Text Blob Store</text>
<text text-anchor="start" x="1562" y="-908.3" font-family="Arial" font-size="19.00" fill="#ffffff">[Container: WSL or NAS&#45;mounted filesystem]</text>
<text text-anchor="start" x="1593.5" y="-871.3" font-family="Arial" font-size="24.00" fill="#ffffff">Filesystem store for snapshot</text>
<text text-anchor="start" x="1645" y="-847.3" font-family="Arial" font-size="24.00" fill="#ffffff">text blobs under the</text>
<text text-anchor="start" x="1602" y="-823.3" font-family="Arial" font-size="24.00" fill="#ffffff">configured WSL&#45;visible blob</text>
<text text-anchor="start" x="1727.5" y="-799.3" font-family="Arial" font-size="24.00" fill="#ffffff">root.</text>
</g>
<!-- 19&#45;&gt;29 -->
<g id="73" class="edge">
<title>19&#45;&gt;29</title>
<path fill="none" stroke="#444444" stroke-dasharray="5,2" d="M1199.29,-645.31C1298.63,-686.67 1419.95,-737.17 1523.5,-780.28"/>
<polygon fill="#444444" stroke="#444444" points="1522.25,-783.55 1532.82,-784.17 1524.94,-777.09 1522.25,-783.55"/>
<text text-anchor="start" x="1236.5" y="-789.8" font-family="Arial" font-size="24.00" fill="#444444">Writes text snapshots to</text>
<text text-anchor="start" x="1314.5" y="-769.8" font-family="Arial" font-size="19.00" fill="#444444">[Filesystem]</text>
</g>
</g>
</svg>
