<?xml version="1.0" encoding="UTF-8" standalone="no"?>
<!DOCTYPE svg PUBLIC "-//W3C//DTD SVG 1.1//EN"
 "http://www.w3.org/Graphics/SVG/1.1/DTD/svg11.dtd">
<!-- Generated by graphviz version 2.43.0 (0)
 -->
<!-- Title: %3 Pages: 1 -->
<svg width="2270pt" height="1330pt"
 viewBox="0.00 0.00 2270.00 1329.50" xmlns="http://www.w3.org/2000/svg" xmlns:xlink="http://www.w3.org/1999/xlink">
<g id="graph0" class="graph" transform="scale(1 1) rotate(0) translate(4 1325.5)">
<title>%3</title>
<polygon fill="white" stroke="transparent" points="-4,4 -4,-1325.5 2266,-1325.5 2266,4 -4,4"/>
<text text-anchor="start" x="851.5" y="-11.8" font-family="Arial" font-size="34.00">Browser Memory Daemon &#45; Dynamic</text>
<g id="clust1" class="cluster">
<title>cluster_4</title>
<polygon fill="none" stroke="#444444" points="8,-312.5 8,-1313.5 2254,-1313.5 2254,-312.5 8,-312.5"/>
<text text-anchor="start" x="990" y="-341.3" font-family="Arial" font-size="24.00" fill="#444444">Browser Memory Daemon</text>
<text text-anchor="start" x="1054" y="-321.3" font-family="Arial" font-size="19.00" fill="#444444">[Software System]</text>
</g>
<!-- 21 -->
<g id="21" class="node">
<title>21</title>
<path fill="#2f95c8" stroke="#20688c" d="M1491.5,-1237.72C1491.5,-1265.94 1389.98,-1288.88 1265,-1288.88 1140.02,-1288.88 1038.5,-1265.94 1038.5,-1237.72 1038.5,-1237.72 1038.5,-777.28 1038.5,-777.28 1038.5,-749.06 1140.02,-726.12 1265,-726.12 1389.98,-726.12 1491.5,-749.06 1491.5,-777.28 1491.5,-777.28 1491.5,-1237.72 1491.5,-1237.72"/>
<path fill="none" stroke="#20688c" d="M1491.5,-1237.72C1491.5,-1209.49 1389.98,-1186.56 1265,-1186.56 1140.02,-1186.56 1038.5,-1209.49 1038.5,-1237.72"/>
<text text-anchor="start" x="1123" y="-1163.8" font-family="Arial" font-size="34.00" fill="#ffffff">Extension Browser</text>
<text text-anchor="start" x="1205.5" y="-1129.8" font-family="Arial" font-size="34.00" fill="#ffffff">Storage</text>
<text text-anchor="start" x="1067.5" y="-1107.8" font-family="Arial" font-size="19.00" fill="#ffffff">[Container: chrome.storage.local + IndexedDB]</text>
<text text-anchor="start" x="1087.5" y="-1070.8" font-family="Arial" font-size="24.00" fill="#ffffff">Browser&#45;side IndexedDB storage</text>
<text text-anchor="start" x="1178.5" y="-1046.8" font-family="Arial" font-size="24.00" fill="#ffffff">for transactional</text>
<text text-anchor="start" x="1109.5" y="-1022.8" font-family="Arial" font-size="24.00" fill="#ffffff">capture/lifecycle outbox rows</text>
<text text-anchor="start" x="1099.5" y="-998.8" font-family="Arial" font-size="24.00" fill="#ffffff">plus specialized durable media</text>
<text text-anchor="start" x="1201" y="-974.8" font-family="Arial" font-size="24.00" fill="#ffffff">tasks/blobs;</text>
<text text-anchor="start" x="1112.5" y="-950.8" font-family="Arial" font-size="24.00" fill="#ffffff">chrome.storage.local retains</text>
<text text-anchor="start" x="1113" y="-926.8" font-family="Arial" font-size="24.00" fill="#ffffff">typed configuration, lifecycle</text>
<text text-anchor="start" x="1097.5" y="-902.8" font-family="Arial" font-size="24.00" fill="#ffffff">tab state, minimal CDP capture</text>
<text text-anchor="start" x="1108.5" y="-878.8" font-family="Arial" font-size="24.00" fill="#ffffff">context, aggregate telemetry,</text>
<text text-anchor="start" x="1096.5" y="-854.8" font-family="Arial" font-size="24.00" fill="#ffffff">and one&#45;version queue fallback</text>
<text text-anchor="start" x="1240" y="-830.8" font-family="Arial" font-size="24.00" fill="#ffffff">only.</text>
</g>
<!-- 22 -->
<g id="22" class="node">
<title>22</title>
<polygon fill="#438dd5" stroke="#2e6295" points="1496,-654 1034,-654 1034,-413 1496,-413 1496,-654"/>
<text text-anchor="start" x="1100.5" y="-605.8" font-family="Arial" font-size="34.00" fill="#ffffff">WSL Loopback HTTP</text>
<text text-anchor="start" x="1200.5" y="-571.8" font-family="Arial" font-size="34.00" fill="#ffffff">Daemon</text>
<text text-anchor="start" x="1063" y="-549.8" font-family="Arial" font-size="19.00" fill="#ffffff">[Container: Python 3.11, ThreadingHTTPServer]</text>
<text text-anchor="start" x="1099.5" y="-512.8" font-family="Arial" font-size="24.00" fill="#ffffff">Authenticated loopback API for</text>
<text text-anchor="start" x="1120.5" y="-488.8" font-family="Arial" font-size="24.00" fill="#ffffff">capture, read/admin/media</text>
<text text-anchor="start" x="1121" y="-464.8" font-family="Arial" font-size="24.00" fill="#ffffff">operations, and query&#45;only</text>
<text text-anchor="start" x="1102.5" y="-440.8" font-family="Arial" font-size="24.00" fill="#ffffff">bmd.x&#45;observations v1 export.</text>
</g>
<!-- 49 -->
<g id="49" class="node">
<title>49</title>
<path fill="#2f95c8" stroke="#20688c" d="M2229,-743.72C2229,-762.01 2146.08,-776.88 2044,-776.88 1941.92,-776.88 1859,-762.01 1859,-743.72 1859,-743.72 1859,-445.28 1859,-445.28 1859,-426.99 1941.92,-412.12 2044,-412.12 2146.08,-412.12 2229,-426.99 2229,-445.28 2229,-445.28 2229,-743.72 2229,-743.72"/>
<path fill="none" stroke="#20688c" d="M2229,-743.72C2229,-725.42 2146.08,-710.56 2044,-710.56 1941.92,-710.56 1859,-725.42 1859,-743.72"/>
<text text-anchor="start" x="1931" y="-678.8" font-family="Arial" font-size="34.00" fill="#ffffff">SQLite + FTS5</text>
<text text-anchor="start" x="1971" y="-644.8" font-family="Arial" font-size="34.00" fill="#ffffff">Database</text>
<text text-anchor="start" x="1918" y="-622.8" font-family="Arial" font-size="19.00" fill="#ffffff">[Container: SQLite with FTS5]</text>
<text text-anchor="start" x="1924.5" y="-585.8" font-family="Arial" font-size="24.00" fill="#ffffff">Durable text/metadata</text>
<text text-anchor="start" x="1893" y="-561.8" font-family="Arial" font-size="24.00" fill="#ffffff">authority including migration</text>
<text text-anchor="start" x="1888" y="-537.8" font-family="Arial" font-size="24.00" fill="#ffffff">ledger, capture observations,</text>
<text text-anchor="start" x="1898" y="-513.8" font-family="Arial" font-size="24.00" fill="#ffffff">and immutable observation</text>
<text text-anchor="start" x="1946" y="-489.8" font-family="Arial" font-size="24.00" fill="#ffffff">ingest sequences.</text>
</g>
<!-- 22&#45;&gt;49 -->
<g id="71" class="edge">
<title>22&#45;&gt;49</title>
<path fill="none" stroke="#707070" stroke-dasharray="5,2" d="M1496.23,-551.58C1608.29,-560.37 1741.53,-570.83 1848.43,-579.22"/>
<polygon fill="#707070" stroke="#707070" points="1848.44,-582.74 1858.69,-580.03 1848.99,-575.76 1848.44,-582.74"/>
<polygon fill="white" stroke="transparent" points="1532,-575.5 1532,-698.5 1823,-698.5 1823,-575.5 1532,-575.5"/>
<text text-anchor="start" x="1574" y="-675.8" font-family="Arial" font-size="24.00" fill="#707070">4. Atomically stores</text>
<text text-anchor="start" x="1556.5" y="-651.8" font-family="Arial" font-size="24.00" fill="#707070">complete cleaned text,</text>
<text text-anchor="start" x="1536.5" y="-627.8" font-family="Arial" font-size="24.00" fill="#707070">provenance, chunks, FTS,</text>
<text text-anchor="start" x="1562.5" y="-603.8" font-family="Arial" font-size="24.00" fill="#707070">media refs, and tasks</text>
<text text-anchor="start" x="1644.5" y="-583.8" font-family="Arial" font-size="19.00" fill="#707070">[sqlite3]</text>
</g>
<!-- 5 -->
<g id="5" class="node">
<title>5</title>
<polygon fill="#438dd5" stroke="#2e6295" points="467,-746 33,-746 33,-467 467,-467 467,-746"/>
<text text-anchor="start" x="70" y="-697.8" font-family="Arial" font-size="34.00" fill="#ffffff">Chrome MV3 Extension</text>
<text text-anchor="start" x="62" y="-675.8" font-family="Arial" font-size="19.00" fill="#ffffff">[Container: JavaScript, Chrome Manifest V3]</text>
<text text-anchor="start" x="107" y="-638.8" font-family="Arial" font-size="24.00" fill="#ffffff">Captures visible page text,</text>
<text text-anchor="start" x="132.5" y="-614.8" font-family="Arial" font-size="24.00" fill="#ffffff">media references, tab</text>
<text text-anchor="start" x="141" y="-590.8" font-family="Arial" font-size="24.00" fill="#ffffff">lifecycle events, and</text>
<text text-anchor="start" x="84" y="-566.8" font-family="Arial" font-size="24.00" fill="#ffffff">browser&#45;side media bytes from</text>
<text text-anchor="start" x="79" y="-542.8" font-family="Arial" font-size="24.00" fill="#ffffff">Windows Chrome; queues work</text>
<text text-anchor="start" x="91" y="-518.8" font-family="Arial" font-size="24.00" fill="#ffffff">durably and posts to the WSL</text>
<text text-anchor="start" x="202.5" y="-494.8" font-family="Arial" font-size="24.00" fill="#ffffff">daemon.</text>
</g>
<!-- 22&#45;&gt;5 -->
<g id="62" class="edge">
<title>22&#45;&gt;5</title>
<path fill="none" stroke="#707070" stroke-dasharray="5,2" d="M1033.77,-602.55C1021.74,-604.86 1009.76,-606.87 998,-608.5 824.39,-632.51 625.9,-630.61 477.18,-623.47"/>
<polygon fill="#707070" stroke="#707070" points="477.17,-619.96 467.01,-622.97 476.82,-626.95 477.17,-619.96"/>
<polygon fill="white" stroke="transparent" points="503,-627.5 503,-750.5 998,-750.5 998,-627.5 503,-627.5"/>
<text text-anchor="start" x="695" y="-727.8" font-family="Arial" font-size="24.00" fill="#707070">5. Returns</text>
<text text-anchor="start" x="605" y="-703.8" font-family="Arial" font-size="24.00" fill="#707070">document/snapshot/artifact</text>
<text text-anchor="start" x="633.5" y="-679.8" font-family="Arial" font-size="24.00" fill="#707070">IDs before lazy media</text>
<text text-anchor="start" x="722" y="-655.8" font-family="Arial" font-size="24.00" fill="#707070">bytes</text>
<text text-anchor="start" x="507.5" y="-635.8" font-family="Arial" font-size="19.00" fill="#707070">[Bearer HTTP/JSON; raw HTTP PUT over 127.0.0.1:8765]</text>
</g>
<!-- 5&#45;&gt;21 -->
<g id="61" class="edge">
<title>5&#45;&gt;21</title>
<path fill="none" stroke="#707070" stroke-dasharray="5,2" d="M458.97,-746.11C473.64,-754.11 488.4,-761.66 503,-768.5 672.36,-847.78 874.79,-909.92 1028.28,-950.95"/>
<polygon fill="#707070" stroke="#707070" points="1027.75,-954.43 1038.32,-953.62 1029.55,-947.66 1027.75,-954.43"/>
<polygon fill="white" stroke="transparent" points="595,-938.5 595,-1037.5 906,-1037.5 906,-938.5 595,-938.5"/>
<text text-anchor="start" x="622" y="-1014.8" font-family="Arial" font-size="24.00" fill="#707070">6. Queues browser&#45;side</text>
<text text-anchor="start" x="641.5" y="-990.8" font-family="Arial" font-size="24.00" fill="#707070">media tasks for later</text>
<text text-anchor="start" x="684.5" y="-966.8" font-family="Arial" font-size="24.00" fill="#707070">fetch/upload</text>
<text text-anchor="start" x="599.5" y="-946.8" font-family="Arial" font-size="19.00" fill="#707070">[chrome.storage.local + IndexedDB]</text>
</g>
<!-- 5&#45;&gt;22 -->
<g id="62" class="edge">
<title>5&#45;&gt;22</title>
<path fill="none" stroke="#707070" stroke-dasharray="5,2" d="M467.34,-504.59C479.25,-501.06 491.19,-497.99 503,-495.5 674.62,-459.38 872.58,-470.86 1023.58,-490.33"/>
<polygon fill="#707070" stroke="#707070" points="1023.54,-493.86 1033.91,-491.69 1024.45,-486.92 1023.54,-493.86"/>
<polygon fill="white" stroke="transparent" points="503,-495.5 503,-594.5 998,-594.5 998,-495.5 503,-495.5"/>
<text text-anchor="start" x="628" y="-571.8" font-family="Arial" font-size="24.00" fill="#707070">3. POSTs /capture with</text>
<text text-anchor="start" x="633.5" y="-547.8" font-family="Arial" font-size="24.00" fill="#707070">visible text, metadata,</text>
<text text-anchor="start" x="670.5" y="-523.8" font-family="Arial" font-size="24.00" fill="#707070">and media refs</text>
<text text-anchor="start" x="507.5" y="-503.8" font-family="Arial" font-size="19.00" fill="#707070">[Bearer HTTP/JSON; raw HTTP PUT over 127.0.0.1:8765]</text>
</g>
<!-- 2 -->
<g id="2" class="node">
<title>2</title>
<polygon fill="#999999" stroke="#6b6b6b" points="1458,-287 1072,-287 1072,-56 1458,-56 1458,-287"/>
<text text-anchor="start" x="1130.5" y="-238.8" font-family="Arial" font-size="34.00" fill="#ffffff">Windows Chrome</text>
<text text-anchor="start" x="1188" y="-216.8" font-family="Arial" font-size="19.00" fill="#ffffff">[Software System]</text>
<text text-anchor="start" x="1101" y="-179.8" font-family="Arial" font-size="24.00" fill="#ffffff">The Windows Chrome runtime</text>
<text text-anchor="start" x="1114.5" y="-155.8" font-family="Arial" font-size="24.00" fill="#ffffff">that loads web pages, hosts</text>
<text text-anchor="start" x="1114" y="-131.8" font-family="Arial" font-size="24.00" fill="#ffffff">the MV3 extension, runs the</text>
<text text-anchor="start" x="1106" y="-107.8" font-family="Arial" font-size="24.00" fill="#ffffff">local UI in a tab, and exposes</text>
<text text-anchor="start" x="1135.5" y="-83.8" font-family="Arial" font-size="24.00" fill="#ffffff">Chrome extension APIs.</text>
</g>
<!-- 5&#45;&gt;2 -->
<g id="59" class="edge">
<title>5&#45;&gt;2</title>
<path fill="none" stroke="#707070" stroke-dasharray="5,2" d="M363.8,-466.94C403.8,-425.34 451.72,-383.23 503,-354.5 597.6,-301.5 870.03,-243.46 1061.78,-207.26"/>
<polygon fill="#707070" stroke="#707070" points="1062.53,-210.68 1071.71,-205.39 1061.24,-203.8 1062.53,-210.68"/>
<polygon fill="white" stroke="transparent" points="605.5,-354.5 605.5,-453.5 895.5,-453.5 895.5,-354.5 605.5,-354.5"/>
<text text-anchor="start" x="609.5" y="-430.8" font-family="Arial" font-size="24.00" fill="#707070">2. Runs content script and</text>
<text text-anchor="start" x="637.5" y="-406.8" font-family="Arial" font-size="24.00" fill="#707070">service worker inside</text>
<text text-anchor="start" x="698.5" y="-382.8" font-family="Arial" font-size="24.00" fill="#707070">active tab</text>
<text text-anchor="start" x="645.5" y="-362.8" font-family="Arial" font-size="19.00" fill="#707070">[Chrome extension APIs]</text>
</g>
<!-- 1 -->
<g id="1" class="node">
<title>1</title>
<polygon fill="#08427b" stroke="#052e56" points="417.5,-287 82.5,-287 82.5,-56 417.5,-56 417.5,-287"/>
<text text-anchor="start" x="183" y="-238.8" font-family="Arial" font-size="34.00" fill="#ffffff">Operator</text>
<text text-anchor="start" x="214.5" y="-216.8" font-family="Arial" font-size="19.00" fill="#ffffff">[Person]</text>
<text text-anchor="start" x="123.5" y="-179.8" font-family="Arial" font-size="24.00" fill="#ffffff">Sole local operator who</text>
<text text-anchor="start" x="128" y="-155.8" font-family="Arial" font-size="24.00" fill="#ffffff">browses with Windows</text>
<text text-anchor="start" x="127" y="-131.8" font-family="Arial" font-size="24.00" fill="#ffffff">Chrome and searches,</text>
<text text-anchor="start" x="111.5" y="-107.8" font-family="Arial" font-size="24.00" fill="#ffffff">reviews, and deletes local</text>
<text text-anchor="start" x="111.5" y="-83.8" font-family="Arial" font-size="24.00" fill="#ffffff">browser&#45;memory records.</text>
</g>
<!-- 1&#45;&gt;2 -->
<g id="54" class="edge">
<title>1&#45;&gt;2</title>
<path fill="none" stroke="#707070" stroke-dasharray="5,2" d="M417.71,-171.5C594.13,-171.5 872.64,-171.5 1061.55,-171.5"/>
<polygon fill="#707070" stroke="#707070" points="1061.6,-175 1071.6,-171.5 1061.6,-168 1061.6,-175"/>
<polygon fill="white" stroke="transparent" points="620.5,-171.5 620.5,-205.5 880.5,-205.5 880.5,-171.5 620.5,-171.5"/>
<text text-anchor="start" x="624.5" y="-182.3" font-family="Arial" font-size="24.00" fill="#707070">1. Browses a web page</text>
</g>
</g>
</svg>
