<?xml version="1.0" encoding="UTF-8" standalone="no"?>
<!DOCTYPE svg PUBLIC "-//W3C//DTD SVG 1.1//EN"
 "http://www.w3.org/Graphics/SVG/1.1/DTD/svg11.dtd">
<!-- Generated by graphviz version 2.43.0 (0)
 -->
<!-- Title: %3 Pages: 1 -->
<svg width="2165pt" height="787pt"
 viewBox="0.00 0.00 2165.00 787.00" xmlns="http://www.w3.org/2000/svg" xmlns:xlink="http://www.w3.org/1999/xlink">
<g id="graph0" class="graph" transform="scale(1 1) rotate(0) translate(4 783)">
<title>%3</title>
<polygon fill="white" stroke="transparent" points="-4,4 -4,-783 2161,-783 2161,4 -4,4"/>
<text text-anchor="start" x="493.5" y="-11.8" font-family="Arial" font-size="34.00">Component View: Browser Memory Daemon &#45; WSL Loopback HTTP Daemon</text>
<g id="clust1" class="cluster">
<title>cluster_4</title>
<polygon fill="none" stroke="#444444" points="8,-64 8,-771 2149,-771 2149,-64 8,-64"/>
<text text-anchor="start" x="937.5" y="-92.8" font-family="Arial" font-size="24.00" fill="#444444">Browser Memory Daemon</text>
<text text-anchor="start" x="1001.5" y="-72.8" font-family="Arial" font-size="19.00" fill="#444444">[Software System]</text>
</g>
<g id="clust2" class="cluster">
<title>cluster_22</title>
<polygon fill="none" stroke="#444444" points="33,-164 33,-746 1360,-746 1360,-164 33,-164"/>
<text text-anchor="start" x="531" y="-192.8" font-family="Arial" font-size="24.00" fill="#444444">WSL Loopback HTTP Daemon</text>
<text text-anchor="start" x="494.5" y="-172.8" font-family="Arial" font-size="19.00" fill="#444444">[Container: Python 3.11, ThreadingHTTPServer]</text>
</g>
<!-- 23 -->
<g id="23" class="node">
<title>23</title>
<polygon fill="#85bbf0" stroke="#1168bd" points="552,-668.5 58,-668.5 58,-317.5 552,-317.5 552,-668.5"/>
<text text-anchor="start" x="136.5" y="-620.3" font-family="Arial" font-size="34.00" fill="#000000">HTTP Request Router</text>
<text text-anchor="start" x="87" y="-598.3" font-family="Arial" font-size="19.00" fill="#000000">[Component: Python http.server + route descriptors]</text>
<text text-anchor="start" x="129" y="-561.3" font-family="Arial" font-size="24.00" fill="#000000">Matches immutable method/path</text>
<text text-anchor="start" x="189" y="-537.3" font-family="Arial" font-size="24.00" fill="#000000">descriptors with static</text>
<text text-anchor="start" x="172" y="-513.3" font-family="Arial" font-size="24.00" fill="#000000">precedence, maps typed</text>
<text text-anchor="start" x="169.5" y="-489.3" font-family="Arial" font-size="24.00" fill="#000000">compatible errors without</text>
<text text-anchor="start" x="181.5" y="-465.3" font-family="Arial" font-size="24.00" fill="#000000">leaking internal details,</text>
<text text-anchor="start" x="144" y="-441.3" font-family="Arial" font-size="24.00" fill="#000000">routes loopback API requests,</text>
<text text-anchor="start" x="162" y="-417.3" font-family="Arial" font-size="24.00" fill="#000000">serves UI assets, enforces</text>
<text text-anchor="start" x="141" y="-393.3" font-family="Arial" font-size="24.00" fill="#000000">bearer auth for memory/admin</text>
<text text-anchor="start" x="155.5" y="-369.3" font-family="Arial" font-size="24.00" fill="#000000">APIs, and applies CORS for</text>
<text text-anchor="start" x="221.5" y="-345.3" font-family="Arial" font-size="24.00" fill="#000000">allowed origins.</text>
</g>
<!-- 24 -->
<g id="24" class="node">
<title>24</title>
<polygon fill="#85bbf0" stroke="#1168bd" points="1335,-721.5 912,-721.5 912,-264.5 1335,-264.5 1335,-721.5"/>
<text text-anchor="start" x="976" y="-673.3" font-family="Arial" font-size="34.00" fill="#000000">Database Migration</text>
<text text-anchor="start" x="1074.5" y="-639.3" font-family="Arial" font-size="34.00" fill="#000000">Kernel</text>
<text text-anchor="start" x="995.5" y="-617.3" font-family="Arial" font-size="19.00" fill="#000000">[Component: Python + sqlite3]</text>
<text text-anchor="start" x="1013.5" y="-580.3" font-family="Arial" font-size="24.00" fill="#000000">Serializes migrators;</text>
<text text-anchor="start" x="997.5" y="-556.3" font-family="Arial" font-size="24.00" fill="#000000">validates exact schema</text>
<text text-anchor="start" x="1014.5" y="-532.3" font-family="Arial" font-size="24.00" fill="#000000">fingerprints, ordered</text>
<text text-anchor="start" x="941" y="-508.3" font-family="Arial" font-size="24.00" fill="#000000">names/checksums, and PRAGMA</text>
<text text-anchor="start" x="1009" y="-484.3" font-family="Arial" font-size="24.00" fill="#000000">user_version; applies</text>
<text text-anchor="start" x="1019" y="-460.3" font-family="Arial" font-size="24.00" fill="#000000">transactional steps,</text>
<text text-anchor="start" x="988.5" y="-436.3" font-family="Arial" font-size="24.00" fill="#000000">backup&#45;gates destructive</text>
<text text-anchor="start" x="957.5" y="-412.3" font-family="Arial" font-size="24.00" fill="#000000">changes, and expands capture</text>
<text text-anchor="start" x="979.5" y="-388.3" font-family="Arial" font-size="24.00" fill="#000000">provenance, storage state,</text>
<text text-anchor="start" x="988.5" y="-364.3" font-family="Arial" font-size="24.00" fill="#000000">one&#45;time historical media</text>
<text text-anchor="start" x="961.5" y="-340.3" font-family="Arial" font-size="24.00" fill="#000000">correction, plus durable cache</text>
<text text-anchor="start" x="970" y="-316.3" font-family="Arial" font-size="24.00" fill="#000000">reservations through version</text>
<text text-anchor="start" x="1106.5" y="-292.3" font-family="Arial" font-size="24.00" fill="#000000">13.</text>
</g>
<!-- 23&#45;&gt;24 -->
<g id="114" class="edge">
<title>23&#45;&gt;24</title>
<path fill="none" stroke="#444444" stroke-dasharray="5,2" d="M552.08,-493C663.3,-493 793.69,-493 901.71,-493"/>
<polygon fill="#444444" stroke="#444444" points="901.76,-496.5 911.76,-493 901.76,-489.5 901.76,-496.5"/>
<polygon fill="white" stroke="transparent" points="588,-493 588,-553 876,-553 876,-493 588,-493"/>
<text text-anchor="start" x="621.5" y="-529.8" font-family="Arial" font-size="24.00" fill="#444444">Requires compatible</text>
<text text-anchor="start" x="592" y="-503.8" font-family="Arial" font-size="24.00" fill="#444444">initialized schema through</text>
</g>
<!-- 47 -->
<g id="47" class="node">
<title>47</title>
<path fill="#2f95c8" stroke="#20688c" d="M2124,-695.22C2124,-723.44 2035.48,-746.38 1926.5,-746.38 1817.52,-746.38 1729,-723.44 1729,-695.22 1729,-695.22 1729,-234.78 1729,-234.78 1729,-206.56 1817.52,-183.62 1926.5,-183.62 2035.48,-183.62 2124,-206.56 2124,-234.78 2124,-234.78 2124,-695.22 2124,-695.22"/>
<path fill="none" stroke="#20688c" d="M2124,-695.22C2124,-666.99 2035.48,-644.06 1926.5,-644.06 1817.52,-644.06 1729,-666.99 1729,-695.22"/>
<text text-anchor="start" x="1813.5" y="-621.3" font-family="Arial" font-size="34.00" fill="#ffffff">SQLite + FTS5</text>
<text text-anchor="start" x="1853.5" y="-587.3" font-family="Arial" font-size="34.00" fill="#ffffff">Database</text>
<text text-anchor="start" x="1800.5" y="-565.3" font-family="Arial" font-size="19.00" fill="#ffffff">[Container: SQLite with FTS5]</text>
<text text-anchor="start" x="1758.5" y="-528.3" font-family="Arial" font-size="24.00" fill="#ffffff">Durable complete cleaned&#45;text,</text>
<text text-anchor="start" x="1807.5" y="-504.3" font-family="Arial" font-size="24.00" fill="#ffffff">relational, and full&#45;text</text>
<text text-anchor="start" x="1809" y="-480.3" font-family="Arial" font-size="24.00" fill="#ffffff">authority for migration</text>
<text text-anchor="start" x="1774.5" y="-456.3" font-family="Arial" font-size="24.00" fill="#ffffff">ledger, sources, documents,</text>
<text text-anchor="start" x="1777" y="-432.3" font-family="Arial" font-size="24.00" fill="#ffffff">visits, capture observations,</text>
<text text-anchor="start" x="1795.5" y="-408.3" font-family="Arial" font-size="24.00" fill="#ffffff">URL claims, visit events,</text>
<text text-anchor="start" x="1758" y="-384.3" font-family="Arial" font-size="24.00" fill="#ffffff">snapshots, chunks, chunks_fts,</text>
<text text-anchor="start" x="1765.5" y="-360.3" font-family="Arial" font-size="24.00" fill="#ffffff">media provenance/tasks, blob</text>
<text text-anchor="start" x="1802" y="-336.3" font-family="Arial" font-size="24.00" fill="#ffffff">lifecycle records, policy</text>
<text text-anchor="start" x="1801" y="-312.3" font-family="Arial" font-size="24.00" fill="#ffffff">rules, audit events, and</text>
<text text-anchor="start" x="1834.5" y="-288.3" font-family="Arial" font-size="24.00" fill="#ffffff">deletion receipts.</text>
</g>
<!-- 24&#45;&gt;47 -->
<g id="163" class="edge">
<title>24&#45;&gt;47</title>
<path fill="none" stroke="#444444" stroke-dasharray="5,2" d="M1335.22,-485.63C1453.67,-481.49 1600.93,-476.35 1718.73,-472.23"/>
<polygon fill="#444444" stroke="#444444" points="1719.09,-475.72 1728.96,-471.87 1718.84,-468.72 1719.09,-475.72"/>
<polygon fill="white" stroke="transparent" points="1371,-483 1371,-582 1693,-582 1693,-483 1371,-483"/>
<text text-anchor="start" x="1404" y="-559.3" font-family="Arial" font-size="24.00" fill="#444444">Validates and advances</text>
<text text-anchor="start" x="1395" y="-535.3" font-family="Arial" font-size="24.00" fill="#444444">schema ledger/fingerprint</text>
<text text-anchor="start" x="1522.5" y="-511.3" font-family="Arial" font-size="24.00" fill="#444444">in</text>
<text text-anchor="start" x="1375" y="-491.3" font-family="Arial" font-size="19.00" fill="#444444">[sqlite3 online backup + transactions]</text>
</g>
</g>
</svg>
