<?xml version="1.0" encoding="UTF-8" standalone="no"?>
<!DOCTYPE svg PUBLIC "-//W3C//DTD SVG 1.1//EN"
 "http://www.w3.org/Graphics/SVG/1.1/DTD/svg11.dtd">
<!-- Generated by graphviz version 2.43.0 (0)
 -->
<!-- Title: %3 Pages: 1 -->
<svg width="1923pt" height="2039pt"
 viewBox="0.00 0.00 1923.00 2039.38" xmlns="http://www.w3.org/2000/svg" xmlns:xlink="http://www.w3.org/1999/xlink">
<g id="graph0" class="graph" transform="scale(1 1) rotate(0) translate(4 2035.38)">
<title>%3</title>
<polygon fill="white" stroke="transparent" points="-4,4 -4,-2035.38 1919,-2035.38 1919,4 -4,4"/>
<text text-anchor="start" x="477" y="-11.8" font-family="Arial" font-size="34.00">Deployment View: Browser Memory Daemon &#45; Daily&#45;driver local</text>
<g id="clust1" class="cluster">
<title>cluster_88</title>
<polygon fill="none" stroke="#444444" points="8,-64 8,-2023.38 1907,-2023.38 1907,-64 8,-64"/>
<text text-anchor="start" x="864" y="-92.8" font-family="Arial" font-size="24.00" fill="#444444">Local workstation</text>
<text text-anchor="start" x="795.5" y="-72.8" font-family="Arial" font-size="19.00" fill="#444444">[Deployment Node: Windows + WSL2]</text>
</g>
<g id="clust2" class="cluster">
<title>cluster_89</title>
<polygon fill="none" stroke="#444444" points="440,-1517.38 440,-1998.38 1558,-1998.38 1558,-1517.38 440,-1517.38"/>
<text text-anchor="start" x="886.5" y="-1546.17" font-family="Arial" font-size="24.00" fill="#444444">Windows user profile</text>
<text text-anchor="start" x="845.5" y="-1526.17" font-family="Arial" font-size="19.00" fill="#444444">[Deployment Node: Windows profile]</text>
</g>
<g id="clust3" class="cluster">
<title>cluster_90</title>
<polygon fill="none" stroke="#444444" points="465,-1593.38 465,-1973.38 1533,-1973.38 1533,-1593.38 465,-1593.38"/>
<text text-anchor="start" x="804.5" y="-1622.17" font-family="Arial" font-size="24.00" fill="#444444">Windows Chrome daily&#45;driver profile</text>
<text text-anchor="start" x="823.5" y="-1602.17" font-family="Arial" font-size="19.00" fill="#444444">[Deployment Node: Google Chrome MV3]</text>
</g>
<g id="clust4" class="cluster">
<title>cluster_96</title>
<polygon fill="none" stroke="#444444" points="33,-140 33,-1386.38 1882,-1386.38 1882,-140 33,-140"/>
<text text-anchor="start" x="882" y="-168.8" font-family="Arial" font-size="24.00" fill="#444444">WSL2 Ubuntu</text>
<text text-anchor="start" x="767" y="-148.8" font-family="Arial" font-size="19.00" fill="#444444">[Deployment Node: Ubuntu + systemd &#45;&#45;user]</text>
</g>
<g id="clust6" class="cluster">
<title>cluster_105</title>
<polygon fill="none" stroke="#444444" points="223,-216 223,-813.38 669,-813.38 669,-216 223,-216"/>
<text text-anchor="start" x="287" y="-244.8" font-family="Arial" font-size="24.00" fill="#444444">WSL XDG runtime data paths</text>
<text text-anchor="start" x="294" y="-224.8" font-family="Arial" font-size="19.00" fill="#444444">[Deployment Node: WSL filesystem]</text>
</g>
<g id="clust7" class="cluster">
<title>cluster_111</title>
<polygon fill="none" stroke="#444444" points="859,-222.88 859,-806.5 1857,-806.5 1857,-222.88 859,-222.88"/>
<text text-anchor="start" x="1202" y="-251.68" font-family="Arial" font-size="24.00" fill="#444444">WSL&#45;mounted NAS blob root</text>
<text text-anchor="start" x="1117.5" y="-231.68" font-family="Arial" font-size="19.00" fill="#444444">[Deployment Node: NAS mount of TrueNAS ZFS dataset]</text>
</g>
<g id="clust8" class="cluster">
<title>cluster_97</title>
<polygon fill="none" stroke="#444444" points="297,-923.38 297,-1361.38 1235,-1361.38 1235,-923.38 297,-923.38"/>
<text text-anchor="start" x="638" y="-952.17" font-family="Arial" font-size="24.00" fill="#444444">systemd &#45;&#45;user services</text>
<text text-anchor="start" x="617" y="-932.17" font-family="Arial" font-size="19.00" fill="#444444">[Deployment Node: systemd &#45;&#45;user]</text>
</g>
<!-- 91 -->
<g id="91" class="node">
<title>91</title>
<polygon fill="#438dd5" stroke="#2e6295" points="924,-1948.38 490,-1948.38 490,-1669.38 924,-1669.38 924,-1948.38"/>
<text text-anchor="start" x="527" y="-1900.17" font-family="Arial" font-size="34.00" fill="#ffffff">Chrome MV3 Extension</text>
<text text-anchor="start" x="519" y="-1878.17" font-family="Arial" font-size="19.00" fill="#ffffff">[Container: JavaScript, Chrome Manifest V3]</text>
<text text-anchor="start" x="564" y="-1841.17" font-family="Arial" font-size="24.00" fill="#ffffff">Captures visible page text,</text>
<text text-anchor="start" x="589.5" y="-1817.17" font-family="Arial" font-size="24.00" fill="#ffffff">media references, tab</text>
<text text-anchor="start" x="598" y="-1793.17" font-family="Arial" font-size="24.00" fill="#ffffff">lifecycle events, and</text>
<text text-anchor="start" x="541" y="-1769.17" font-family="Arial" font-size="24.00" fill="#ffffff">browser&#45;side media bytes from</text>
<text text-anchor="start" x="536" y="-1745.17" font-family="Arial" font-size="24.00" fill="#ffffff">Windows Chrome; queues work</text>
<text text-anchor="start" x="548" y="-1721.17" font-family="Arial" font-size="24.00" fill="#ffffff">durably and posts to the WSL</text>
<text text-anchor="start" x="659.5" y="-1697.17" font-family="Arial" font-size="24.00" fill="#ffffff">daemon.</text>
</g>
<!-- 98 -->
<g id="98" class="node">
<title>98</title>
<polygon fill="#438dd5" stroke="#2e6295" points="1210,-1336.38 748,-1336.38 748,-999.38 1210,-999.38 1210,-1336.38"/>
<text text-anchor="start" x="814.5" y="-1288.17" font-family="Arial" font-size="34.00" fill="#ffffff">WSL Loopback HTTP</text>
<text text-anchor="start" x="914.5" y="-1254.17" font-family="Arial" font-size="34.00" fill="#ffffff">Daemon</text>
<text text-anchor="start" x="777" y="-1232.17" font-family="Arial" font-size="19.00" fill="#ffffff">[Container: Python 3.11, ThreadingHTTPServer]</text>
<text text-anchor="start" x="818" y="-1195.17" font-family="Arial" font-size="24.00" fill="#ffffff">Authenticated loopback HTTP</text>
<text text-anchor="start" x="843" y="-1171.17" font-family="Arial" font-size="24.00" fill="#ffffff">API that handles capture,</text>
<text text-anchor="start" x="839.5" y="-1147.17" font-family="Arial" font-size="24.00" fill="#ffffff">visit events, media artifact</text>
<text text-anchor="start" x="842.5" y="-1123.17" font-family="Arial" font-size="24.00" fill="#ffffff">upload/fetch/purge, exact</text>
<text text-anchor="start" x="939" y="-1099.17" font-family="Arial" font-size="24.00" fill="#ffffff">search,</text>
<text text-anchor="start" x="830" y="-1075.17" font-family="Arial" font-size="24.00" fill="#ffffff">recent/timeline/detail, policy</text>
<text text-anchor="start" x="848" y="-1051.17" font-family="Arial" font-size="24.00" fill="#ffffff">rules, doctor, forget, and</text>
<text text-anchor="start" x="889.5" y="-1027.17" font-family="Arial" font-size="24.00" fill="#ffffff">static UI serving.</text>
</g>
<!-- 91&#45;&gt;98 -->
<g id="99" class="edge">
<title>91&#45;&gt;98</title>
<path fill="none" stroke="#444444" stroke-dasharray="5,2" d="M657.02,-1669.03C635.07,-1581.8 625.77,-1471.58 684,-1394.38 691.79,-1384.04 700.53,-1392.36 712,-1386.38 736.3,-1373.69 760.46,-1358.58 783.75,-1342.31"/>
<polygon fill="#444444" stroke="#444444" points="785.81,-1345.14 791.95,-1336.51 781.76,-1339.43 785.81,-1345.14"/>
<text text-anchor="start" x="846.5" y="-1491.17" font-family="Arial" font-size="24.00" fill="#444444">Posts /capture,</text>
<text text-anchor="start" x="823.5" y="-1467.17" font-family="Arial" font-size="24.00" fill="#444444">/visit&#45;events, media</text>
<text text-anchor="start" x="800.5" y="-1443.17" font-family="Arial" font-size="24.00" fill="#444444">metadata, and raw blob</text>
<text text-anchor="start" x="871.5" y="-1419.17" font-family="Arial" font-size="24.00" fill="#444444">uploads to</text>
<text text-anchor="start" x="684" y="-1399.17" font-family="Arial" font-size="19.00" fill="#444444">[Bearer HTTP/JSON; raw HTTP PUT over 127.0.0.1:8765]</text>
</g>
<!-- 94 -->
<g id="94" class="node">
<title>94</title>
<polygon fill="#438dd5" stroke="#2e6295" points="1508,-1936.38 996,-1936.38 996,-1681.38 1508,-1681.38 1508,-1936.38"/>
<text text-anchor="start" x="1149.5" y="-1888.17" font-family="Arial" font-size="34.00" fill="#ffffff">Local Web UI</text>
<text text-anchor="start" x="1025" y="-1866.17" font-family="Arial" font-size="19.00" fill="#ffffff">[Container: HTML/CSS/JavaScript served by daemon]</text>
<text text-anchor="start" x="1110" y="-1829.17" font-family="Arial" font-size="24.00" fill="#ffffff">Static browser UI for exact</text>
<text text-anchor="start" x="1093" y="-1805.17" font-family="Arial" font-size="24.00" fill="#ffffff">search, recent/timeline views,</text>
<text text-anchor="start" x="1110.5" y="-1781.17" font-family="Arial" font-size="24.00" fill="#ffffff">document/snapshot detail,</text>
<text text-anchor="start" x="1095" y="-1757.17" font-family="Arial" font-size="24.00" fill="#ffffff">media artifact opening, policy</text>
<text text-anchor="start" x="1158.5" y="-1733.17" font-family="Arial" font-size="24.00" fill="#ffffff">rules, doctor, and</text>
<text text-anchor="start" x="1113.5" y="-1709.17" font-family="Arial" font-size="24.00" fill="#ffffff">forget&#45;domain operations.</text>
</g>
<!-- 94&#45;&gt;98 -->
<g id="100" class="edge">
<title>94&#45;&gt;98</title>
<path fill="none" stroke="#444444" stroke-dasharray="5,2" d="M1250.15,-1681.04C1244.51,-1596.19 1228.38,-1484.07 1185,-1394.38 1176.79,-1377.4 1166.89,-1360.8 1155.93,-1344.78"/>
<polygon fill="#444444" stroke="#444444" points="1158.7,-1342.64 1150.1,-1336.46 1152.97,-1346.66 1158.7,-1342.64"/>
<text text-anchor="start" x="1223.5" y="-1479.17" font-family="Arial" font-size="24.00" fill="#444444">Calls authenticated read,</text>
<text text-anchor="start" x="1223" y="-1455.17" font-family="Arial" font-size="24.00" fill="#444444">admin, media, and forget</text>
<text text-anchor="start" x="1315" y="-1431.17" font-family="Arial" font-size="24.00" fill="#444444">APIs on</text>
<text text-anchor="start" x="1299.5" y="-1411.17" font-family="Arial" font-size="19.00" fill="#444444">[HTTP/JSON]</text>
</g>
<!-- 106 -->
<g id="106" class="node">
<title>106</title>
<path fill="#2f95c8" stroke="#20688c" d="M643.5,-743.4C643.5,-768.32 554.98,-788.56 446,-788.56 337.02,-788.56 248.5,-768.32 248.5,-743.4 248.5,-743.4 248.5,-336.97 248.5,-336.97 248.5,-312.05 337.02,-291.81 446,-291.81 554.98,-291.81 643.5,-312.05 643.5,-336.97 643.5,-336.97 643.5,-743.4 643.5,-743.4"/>
<path fill="none" stroke="#20688c" d="M643.5,-743.4C643.5,-718.49 554.98,-698.24 446,-698.24 337.02,-698.24 248.5,-718.49 248.5,-743.4"/>
<text text-anchor="start" x="333" y="-672.49" font-family="Arial" font-size="34.00" fill="#ffffff">SQLite + FTS5</text>
<text text-anchor="start" x="373" y="-638.49" font-family="Arial" font-size="34.00" fill="#ffffff">Database</text>
<text text-anchor="start" x="320" y="-616.49" font-family="Arial" font-size="19.00" fill="#ffffff">[Container: SQLite with FTS5]</text>
<text text-anchor="start" x="327" y="-579.49" font-family="Arial" font-size="24.00" fill="#ffffff">Durable relational and</text>
<text text-anchor="start" x="305.5" y="-555.49" font-family="Arial" font-size="24.00" fill="#ffffff">full&#45;text store for migration</text>
<text text-anchor="start" x="294" y="-531.49" font-family="Arial" font-size="24.00" fill="#ffffff">ledger, sources, documents,</text>
<text text-anchor="start" x="296.5" y="-507.49" font-family="Arial" font-size="24.00" fill="#ffffff">visits, capture observations,</text>
<text text-anchor="start" x="315" y="-483.49" font-family="Arial" font-size="24.00" fill="#ffffff">URL claims, visit events,</text>
<text text-anchor="start" x="277.5" y="-459.49" font-family="Arial" font-size="24.00" fill="#ffffff">snapshots, chunks, chunks_fts,</text>
<text text-anchor="start" x="297.5" y="-435.49" font-family="Arial" font-size="24.00" fill="#ffffff">media artifacts, media fetch</text>
<text text-anchor="start" x="317.5" y="-411.49" font-family="Arial" font-size="24.00" fill="#ffffff">tasks, policy rules, audit</text>
<text text-anchor="start" x="288" y="-387.49" font-family="Arial" font-size="24.00" fill="#ffffff">events, and deletion receipts.</text>
</g>
<!-- 112 -->
<g id="112" class="node">
<title>112</title>
<path fill="#2f95c8" stroke="#20688c" d="M1832,-656.47C1832,-670.73 1733.84,-682.31 1613,-682.31 1492.16,-682.31 1394,-670.73 1394,-656.47 1394,-656.47 1394,-423.9 1394,-423.9 1394,-409.64 1492.16,-398.06 1613,-398.06 1733.84,-398.06 1832,-409.64 1832,-423.9 1832,-423.9 1832,-656.47 1832,-656.47"/>
<path fill="none" stroke="#20688c" d="M1832,-656.47C1832,-642.21 1733.84,-630.63 1613,-630.63 1492.16,-630.63 1394,-642.21 1394,-656.47"/>
<text text-anchor="start" x="1448.5" y="-595.49" font-family="Arial" font-size="34.00" fill="#ffffff">Clean Text Blob Store</text>
<text text-anchor="start" x="1423" y="-573.49" font-family="Arial" font-size="19.00" fill="#ffffff">[Container: WSL or NAS&#45;mounted filesystem]</text>
<text text-anchor="start" x="1454.5" y="-536.49" font-family="Arial" font-size="24.00" fill="#ffffff">Filesystem store for snapshot</text>
<text text-anchor="start" x="1506" y="-512.49" font-family="Arial" font-size="24.00" fill="#ffffff">text blobs under the</text>
<text text-anchor="start" x="1463" y="-488.49" font-family="Arial" font-size="24.00" fill="#ffffff">configured WSL&#45;visible blob</text>
<text text-anchor="start" x="1588.5" y="-464.49" font-family="Arial" font-size="24.00" fill="#ffffff">root.</text>
</g>
<!-- 114 -->
<g id="114" class="node">
<title>114</title>
<path fill="#2f95c8" stroke="#20688c" d="M1322,-737.47C1322,-761.66 1223.84,-781.31 1103,-781.31 982.16,-781.31 884,-761.66 884,-737.47 884,-737.47 884,-342.9 884,-342.9 884,-318.71 982.16,-299.06 1103,-299.06 1223.84,-299.06 1322,-318.71 1322,-342.9 1322,-342.9 1322,-737.47 1322,-737.47"/>
<path fill="none" stroke="#20688c" d="M1322,-737.47C1322,-713.28 1223.84,-693.63 1103,-693.63 982.16,-693.63 884,-713.28 884,-737.47"/>
<text text-anchor="start" x="964" y="-667.49" font-family="Arial" font-size="34.00" fill="#ffffff">Media Blob Cache</text>
<text text-anchor="start" x="913" y="-645.49" font-family="Arial" font-size="19.00" fill="#ffffff">[Container: WSL or NAS&#45;mounted filesystem]</text>
<text text-anchor="start" x="969.5" y="-608.49" font-family="Arial" font-size="24.00" fill="#ffffff">Bounded and disposable</text>
<text text-anchor="start" x="958.5" y="-584.49" font-family="Arial" font-size="24.00" fill="#ffffff">filesystem cache for stored</text>
<text text-anchor="start" x="937.5" y="-560.49" font-family="Arial" font-size="24.00" fill="#ffffff">image/video/audio blobs under</text>
<text text-anchor="start" x="959" y="-536.49" font-family="Arial" font-size="24.00" fill="#ffffff">the configured WSL&#45;visible</text>
<text text-anchor="start" x="1027.5" y="-512.49" font-family="Arial" font-size="24.00" fill="#ffffff">blob root, with</text>
<text text-anchor="start" x="935.5" y="-488.49" font-family="Arial" font-size="24.00" fill="#ffffff">purge/rehydrate semantics that</text>
<text text-anchor="start" x="946.5" y="-464.49" font-family="Arial" font-size="24.00" fill="#ffffff">preserve media refs, hashes,</text>
<text text-anchor="start" x="930" y="-440.49" font-family="Arial" font-size="24.00" fill="#ffffff">status reasons, and provenance</text>
<text text-anchor="start" x="966.5" y="-416.49" font-family="Arial" font-size="24.00" fill="#ffffff">when bytes are absent or</text>
<text text-anchor="start" x="1061.5" y="-392.49" font-family="Arial" font-size="24.00" fill="#ffffff">purged.</text>
</g>
<!-- 101 -->
<g id="101" class="node">
<title>101</title>
<polygon fill="#438dd5" stroke="#2e6295" points="676,-1319.38 322,-1319.38 322,-1016.38 676,-1016.38 676,-1319.38"/>
<text text-anchor="start" x="352" y="-1271.17" font-family="Arial" font-size="34.00" fill="#ffffff">WSL Media Worker</text>
<text text-anchor="start" x="359" y="-1249.17" font-family="Arial" font-size="19.00" fill="#ffffff">[Container: Python 3.11 CLI loop]</text>
<text text-anchor="start" x="351.5" y="-1212.17" font-family="Arial" font-size="24.00" fill="#ffffff">Long&#45;running systemd user</text>
<text text-anchor="start" x="400.5" y="-1188.17" font-family="Arial" font-size="24.00" fill="#ffffff">worker that leases</text>
<text text-anchor="start" x="353" y="-1164.17" font-family="Arial" font-size="24.00" fill="#ffffff">daemon&#45;public media fetch</text>
<text text-anchor="start" x="390" y="-1140.17" font-family="Arial" font-size="24.00" fill="#ffffff">tasks, fetches public</text>
<text text-anchor="start" x="351" y="-1116.17" font-family="Arial" font-size="24.00" fill="#ffffff">media/HLS without Chrome</text>
<text text-anchor="start" x="356" y="-1092.17" font-family="Arial" font-size="24.00" fill="#ffffff">cookies, classifies terminal</text>
<text text-anchor="start" x="353" y="-1068.17" font-family="Arial" font-size="24.00" fill="#ffffff">states, and updates artifact</text>
<text text-anchor="start" x="470" y="-1044.17" font-family="Arial" font-size="24.00" fill="#ffffff">rows.</text>
</g>
<!-- 101&#45;&gt;106 -->
<g id="108" class="edge">
<title>101&#45;&gt;106</title>
<path fill="none" stroke="#444444" stroke-dasharray="5,2" d="M321.92,-1097.03C244.29,-1056.46 160.98,-996.98 117,-915.38 64.86,-818.63 145.51,-725.75 239.98,-656.73"/>
<polygon fill="#444444" stroke="#444444" points="242.2,-659.44 248.27,-650.75 238.11,-653.76 242.2,-659.44"/>
<text text-anchor="start" x="117" y="-885.17" font-family="Arial" font-size="24.00" fill="#444444">Leases and updates media</text>
<text text-anchor="start" x="222" y="-861.17" font-family="Arial" font-size="24.00" fill="#444444">tasks in</text>
<text text-anchor="start" x="229.5" y="-841.17" font-family="Arial" font-size="19.00" fill="#444444">[sqlite3]</text>
</g>
<!-- 101&#45;&gt;114 -->
<g id="116" class="edge">
<title>101&#45;&gt;114</title>
<path fill="none" stroke="#444444" stroke-dasharray="5,2" d="M446.6,-1016.15C433.53,-949.2 434.6,-874.39 482,-824.38 497.69,-807.82 665.32,-820.47 687,-813.38 752.18,-792.03 816.98,-757.71 875.35,-720.52"/>
<polygon fill="#444444" stroke="#444444" points="877.4,-723.37 883.92,-715.02 873.61,-717.48 877.4,-723.37"/>
<text text-anchor="start" x="482" y="-885.17" font-family="Arial" font-size="24.00" fill="#444444">Writes fetched media blobs</text>
<text text-anchor="start" x="617.5" y="-861.17" font-family="Arial" font-size="24.00" fill="#444444">to</text>
<text text-anchor="start" x="576.5" y="-841.17" font-family="Arial" font-size="19.00" fill="#444444">[Filesystem]</text>
</g>
<!-- 98&#45;&gt;106 -->
<g id="107" class="edge">
<title>98&#45;&gt;106</title>
<path fill="none" stroke="#444444" stroke-dasharray="5,2" d="M895.13,-999.21C858,-928.1 817.14,-854.69 792,-824.38 751.32,-775.31 701.14,-728.59 651.74,-687.76"/>
<polygon fill="#444444" stroke="#444444" points="653.77,-684.9 643.82,-681.25 649.33,-690.31 653.77,-684.9"/>
<text text-anchor="start" x="846" y="-897.17" font-family="Arial" font-size="24.00" fill="#444444">Reads and writes metadata,</text>
<text text-anchor="start" x="879" y="-873.17" font-family="Arial" font-size="24.00" fill="#444444">FTS, tasks, audit, and</text>
<text text-anchor="start" x="941.5" y="-849.17" font-family="Arial" font-size="24.00" fill="#444444">receipts in</text>
<text text-anchor="start" x="963.5" y="-829.17" font-family="Arial" font-size="19.00" fill="#444444">[sqlite3]</text>
</g>
<!-- 98&#45;&gt;112 -->
<g id="113" class="edge">
<title>98&#45;&gt;112</title>
<path fill="none" stroke="#444444" stroke-dasharray="5,2" d="M1210.17,-1102.94C1312.47,-1063.94 1426.47,-1004.06 1502,-915.38 1554.98,-853.17 1582.68,-766.54 1597.15,-692.3"/>
<polygon fill="#444444" stroke="#444444" points="1600.61,-692.86 1599.03,-682.38 1593.73,-691.56 1600.61,-692.86"/>
<text text-anchor="start" x="1556" y="-885.17" font-family="Arial" font-size="24.00" fill="#444444">Reads and writes text</text>
<text text-anchor="start" x="1604.5" y="-861.17" font-family="Arial" font-size="24.00" fill="#444444">snapshots in</text>
<text text-anchor="start" x="1621" y="-841.17" font-family="Arial" font-size="19.00" fill="#444444">[Filesystem]</text>
</g>
<!-- 98&#45;&gt;114 -->
<g id="115" class="edge">
<title>98&#45;&gt;114</title>
<path fill="none" stroke="#444444" stroke-dasharray="5,2" d="M1129.64,-999.22C1146.55,-972.69 1161.19,-944.39 1171,-915.38 1184.31,-876 1186.97,-833.36 1183.4,-791.45"/>
<polygon fill="#444444" stroke="#444444" points="1186.87,-791 1182.42,-781.38 1179.9,-791.67 1186.87,-791"/>
<text text-anchor="start" x="1209" y="-897.17" font-family="Arial" font-size="24.00" fill="#444444">Stores, serves, purges,</text>
<text text-anchor="start" x="1184" y="-873.17" font-family="Arial" font-size="24.00" fill="#444444">and rehydrates media blobs</text>
<text text-anchor="start" x="1324.5" y="-849.17" font-family="Arial" font-size="24.00" fill="#444444">in</text>
<text text-anchor="start" x="1282.5" y="-829.17" font-family="Arial" font-size="19.00" fill="#444444">[Filesystem]</text>
</g>
</g>
</svg>
