<?xml version="1.0" encoding="UTF-8" standalone="no"?>
<!DOCTYPE svg PUBLIC "-//W3C//DTD SVG 1.1//EN"
 "http://www.w3.org/Graphics/SVG/1.1/DTD/svg11.dtd">
<!-- Generated by graphviz version 2.43.0 (0)
 -->
<!-- Title: %3 Pages: 1 -->
<svg width="3475pt" height="2670pt"
 viewBox="0.00 0.00 3475.00 2670.38" xmlns="http://www.w3.org/2000/svg" xmlns:xlink="http://www.w3.org/1999/xlink">
<g id="graph0" class="graph" transform="scale(1 1) rotate(0) translate(4 2666.38)">
<title>%3</title>
<polygon fill="white" stroke="transparent" points="-4,4 -4,-2666.38 3471,-2666.38 3471,4 -4,4"/>
<text text-anchor="start" x="1202" y="-11.8" font-family="Arial" font-size="34.00">Component View: Browser Memory Daemon &#45; Chrome MV3 Extension</text>
<g id="clust1" class="cluster">
<title>cluster_4</title>
<polygon fill="none" stroke="#444444" points="8,-64 8,-2654.38 3034,-2654.38 3034,-64 8,-64"/>
<text text-anchor="start" x="1380" y="-92.8" font-family="Arial" font-size="24.00" fill="#444444">Browser Memory Daemon</text>
<text text-anchor="start" x="1444" y="-72.8" font-family="Arial" font-size="19.00" fill="#444444">[Software System]</text>
</g>
<g id="clust2" class="cluster">
<title>cluster_5</title>
<polygon fill="none" stroke="#444444" points="33,-845.38 33,-2629.38 2448,-2629.38 2448,-845.38 33,-845.38"/>
<text text-anchor="start" x="1112.5" y="-874.17" font-family="Arial" font-size="24.00" fill="#444444">Chrome MV3 Extension</text>
<text text-anchor="start" x="1052.5" y="-854.17" font-family="Arial" font-size="19.00" fill="#444444">[Container: JavaScript, Chrome Manifest V3]</text>
</g>
<!-- 2 -->
<g id="2" class="node">
<title>2</title>
<polygon fill="#999999" stroke="#6b6b6b" points="3467,-1229.38 3081,-1229.38 3081,-998.38 3467,-998.38 3467,-1229.38"/>
<text text-anchor="start" x="3139.5" y="-1181.17" font-family="Arial" font-size="34.00" fill="#ffffff">Windows Chrome</text>
<text text-anchor="start" x="3197" y="-1159.17" font-family="Arial" font-size="19.00" fill="#ffffff">[Software System]</text>
<text text-anchor="start" x="3110" y="-1122.17" font-family="Arial" font-size="24.00" fill="#ffffff">The Windows Chrome runtime</text>
<text text-anchor="start" x="3123.5" y="-1098.17" font-family="Arial" font-size="24.00" fill="#ffffff">that loads web pages, hosts</text>
<text text-anchor="start" x="3123" y="-1074.17" font-family="Arial" font-size="24.00" fill="#ffffff">the MV3 extension, runs the</text>
<text text-anchor="start" x="3115" y="-1050.17" font-family="Arial" font-size="24.00" fill="#ffffff">local UI in a tab, and exposes</text>
<text text-anchor="start" x="3144.5" y="-1026.17" font-family="Arial" font-size="24.00" fill="#ffffff">Chrome extension APIs.</text>
</g>
<!-- 10 -->
<g id="10" class="node">
<title>10</title>
<polygon fill="#85bbf0" stroke="#1168bd" points="522,-1706.38 58,-1706.38 58,-1465.38 522,-1465.38 522,-1706.38"/>
<text text-anchor="start" x="161" y="-1658.17" font-family="Arial" font-size="34.00" fill="#000000">Extension Config</text>
<text text-anchor="start" x="249" y="-1624.17" font-family="Arial" font-size="34.00" fill="#000000">Store</text>
<text text-anchor="start" x="87" y="-1602.17" font-family="Arial" font-size="19.00" fill="#000000">[Component: JavaScript + chrome.storage.local]</text>
<text text-anchor="start" x="153" y="-1565.17" font-family="Arial" font-size="24.00" fill="#000000">Owns typed configuration</text>
<text text-anchor="start" x="168.5" y="-1541.17" font-family="Arial" font-size="24.00" fill="#000000">defaults/migration plus</text>
<text text-anchor="start" x="128" y="-1517.17" font-family="Arial" font-size="24.00" fill="#000000">durable visit and minimal CDP</text>
<text text-anchor="start" x="169.5" y="-1493.17" font-family="Arial" font-size="24.00" fill="#000000">capture&#45;context maps.</text>
</g>
<!-- 21 -->
<g id="21" class="node">
<title>21</title>
<path fill="#2f95c8" stroke="#20688c" d="M1645.5,-675.4C1645.5,-703.63 1543.98,-726.56 1419,-726.56 1294.02,-726.56 1192.5,-703.63 1192.5,-675.4 1192.5,-675.4 1192.5,-214.97 1192.5,-214.97 1192.5,-186.74 1294.02,-163.81 1419,-163.81 1543.98,-163.81 1645.5,-186.74 1645.5,-214.97 1645.5,-214.97 1645.5,-675.4 1645.5,-675.4"/>
<path fill="none" stroke="#20688c" d="M1645.5,-675.4C1645.5,-647.17 1543.98,-624.24 1419,-624.24 1294.02,-624.24 1192.5,-647.17 1192.5,-675.4"/>
<text text-anchor="start" x="1277" y="-601.49" font-family="Arial" font-size="34.00" fill="#ffffff">Extension Browser</text>
<text text-anchor="start" x="1359.5" y="-567.49" font-family="Arial" font-size="34.00" fill="#ffffff">Storage</text>
<text text-anchor="start" x="1221.5" y="-545.49" font-family="Arial" font-size="19.00" fill="#ffffff">[Container: chrome.storage.local + IndexedDB]</text>
<text text-anchor="start" x="1241.5" y="-508.49" font-family="Arial" font-size="24.00" fill="#ffffff">Browser&#45;side IndexedDB storage</text>
<text text-anchor="start" x="1332.5" y="-484.49" font-family="Arial" font-size="24.00" fill="#ffffff">for transactional</text>
<text text-anchor="start" x="1263.5" y="-460.49" font-family="Arial" font-size="24.00" fill="#ffffff">capture/lifecycle outbox rows</text>
<text text-anchor="start" x="1253.5" y="-436.49" font-family="Arial" font-size="24.00" fill="#ffffff">plus specialized durable media</text>
<text text-anchor="start" x="1355" y="-412.49" font-family="Arial" font-size="24.00" fill="#ffffff">tasks/blobs;</text>
<text text-anchor="start" x="1266.5" y="-388.49" font-family="Arial" font-size="24.00" fill="#ffffff">chrome.storage.local retains</text>
<text text-anchor="start" x="1267" y="-364.49" font-family="Arial" font-size="24.00" fill="#ffffff">typed configuration, lifecycle</text>
<text text-anchor="start" x="1251.5" y="-340.49" font-family="Arial" font-size="24.00" fill="#ffffff">tab state, minimal CDP capture</text>
<text text-anchor="start" x="1262.5" y="-316.49" font-family="Arial" font-size="24.00" fill="#ffffff">context, aggregate telemetry,</text>
<text text-anchor="start" x="1250.5" y="-292.49" font-family="Arial" font-size="24.00" fill="#ffffff">and one&#45;version queue fallback</text>
<text text-anchor="start" x="1394" y="-268.49" font-family="Arial" font-size="24.00" fill="#ffffff">only.</text>
</g>
<!-- 10&#45;&gt;21 -->
<g id="87" class="edge">
<title>10&#45;&gt;21</title>
<path fill="none" stroke="#444444" stroke-dasharray="5,2" d="M322.8,-1465.1C371.54,-1306.25 476.69,-1025.06 652,-845.38 799.77,-693.92 1017.35,-588.22 1183.07,-523.82"/>
<polygon fill="#444444" stroke="#444444" points="1184.34,-527.08 1192.41,-520.21 1181.82,-520.55 1184.34,-527.08"/>
<polygon fill="white" stroke="transparent" points="652,-1064.38 652,-1163.38 926,-1163.38 926,-1064.38 652,-1064.38"/>
<text text-anchor="start" x="662.5" y="-1140.67" font-family="Arial" font-size="24.00" fill="#444444">Reads and writes typed</text>
<text text-anchor="start" x="656" y="-1116.67" font-family="Arial" font-size="24.00" fill="#444444">settings and restart state</text>
<text text-anchor="start" x="779.5" y="-1092.67" font-family="Arial" font-size="24.00" fill="#444444">in</text>
<text text-anchor="start" x="695.5" y="-1072.67" font-family="Arial" font-size="19.00" fill="#444444">[chrome.storage.local]</text>
</g>
<!-- 13 -->
<g id="13" class="node">
<title>13</title>
<polygon fill="#85bbf0" stroke="#1168bd" points="2422.5,-2177.38 1937.5,-2177.38 1937.5,-1888.38 2422.5,-1888.38 2422.5,-2177.38"/>
<text text-anchor="start" x="2015" y="-2129.18" font-family="Arial" font-size="34.00" fill="#000000">Capture and Lifecycle</text>
<text text-anchor="start" x="2131" y="-2095.18" font-family="Arial" font-size="34.00" fill="#000000">Bridge</text>
<text text-anchor="start" x="2076" y="-2073.18" font-family="Arial" font-size="19.00" fill="#000000">[Component: JavaScript]</text>
<text text-anchor="start" x="2054" y="-2036.18" font-family="Arial" font-size="24.00" fill="#000000">Owns daemon delivery,</text>
<text text-anchor="start" x="2071.5" y="-2012.18" font-family="Arial" font-size="24.00" fill="#000000">transactional outbox</text>
<text text-anchor="start" x="1966.5" y="-1988.18" font-family="Arial" font-size="24.00" fill="#000000">import/admission/drain/checkpoint/retry,</text>
<text text-anchor="start" x="2061" y="-1964.18" font-family="Arial" font-size="24.00" fill="#000000">legacy fallback, media</text>
<text text-anchor="start" x="2040" y="-1940.18" font-family="Arial" font-size="24.00" fill="#000000">compensation, and queue</text>
<text text-anchor="start" x="2144" y="-1916.18" font-family="Arial" font-size="24.00" fill="#000000">status.</text>
</g>
<!-- 14 -->
<g id="14" class="node">
<title>14</title>
<polygon fill="#85bbf0" stroke="#1168bd" points="1937.5,-1718.38 1560.5,-1718.38 1560.5,-1453.38 1937.5,-1453.38 1937.5,-1718.38"/>
<text text-anchor="start" x="1601.5" y="-1670.17" font-family="Arial" font-size="34.00" fill="#000000">Credentialed Media</text>
<text text-anchor="start" x="1700" y="-1636.17" font-family="Arial" font-size="34.00" fill="#000000">Bridge</text>
<text text-anchor="start" x="1645" y="-1614.17" font-family="Arial" font-size="19.00" fill="#000000">[Component: JavaScript]</text>
<text text-anchor="start" x="1602" y="-1577.17" font-family="Arial" font-size="24.00" fill="#000000">Owns browser credentialed</text>
<text text-anchor="start" x="1589.5" y="-1553.17" font-family="Arial" font-size="24.00" fill="#000000">fetch, inline/CDP blob upload,</text>
<text text-anchor="start" x="1615.5" y="-1529.17" font-family="Arial" font-size="24.00" fill="#000000">specialized media queue</text>
<text text-anchor="start" x="1621" y="-1505.17" font-family="Arial" font-size="24.00" fill="#000000">drain/retry, and terminal</text>
<text text-anchor="start" x="1703" y="-1481.17" font-family="Arial" font-size="24.00" fill="#000000">cleanup.</text>
</g>
<!-- 13&#45;&gt;14 -->
<g id="95" class="edge">
<title>13&#45;&gt;14</title>
<path fill="none" stroke="#444444" stroke-dasharray="5,2" d="M2040.31,-1888.13C2024.68,-1872.03 2009,-1855.85 1994,-1840.38 1958.07,-1803.29 1919.2,-1763.11 1883.25,-1725.91"/>
<polygon fill="#444444" stroke="#444444" points="1885.56,-1723.26 1876.1,-1718.51 1880.53,-1728.13 1885.56,-1723.26"/>
<polygon fill="white" stroke="transparent" points="1994,-1767.38 1994,-1827.38 2315,-1827.38 2315,-1767.38 1994,-1767.38"/>
<text text-anchor="start" x="2024" y="-1804.17" font-family="Arial" font-size="24.00" fill="#444444">Dispatches post&#45;capture</text>
<text text-anchor="start" x="1998.5" y="-1778.17" font-family="Arial" font-size="24.00" fill="#444444">media compensation through</text>
</g>
<!-- 15 -->
<g id="15" class="node">
<title>15</title>
<polygon fill="#85bbf0" stroke="#1168bd" points="1426,-1229.38 962,-1229.38 962,-998.38 1426,-998.38 1426,-1229.38"/>
<text text-anchor="start" x="1040.5" y="-1181.17" font-family="Arial" font-size="34.00" fill="#000000">Extension Telemetry</text>
<text text-anchor="start" x="991" y="-1159.17" font-family="Arial" font-size="19.00" fill="#000000">[Component: JavaScript + chrome.storage.local]</text>
<text text-anchor="start" x="1093" y="-1122.17" font-family="Arial" font-size="24.00" fill="#000000">Persists aggregate</text>
<text text-anchor="start" x="1031" y="-1098.17" font-family="Arial" font-size="24.00" fill="#000000">bridge/queue/CDP status after</text>
<text text-anchor="start" x="1032" y="-1074.17" font-family="Arial" font-size="24.00" fill="#000000">recursively removing captured</text>
<text text-anchor="start" x="1088.5" y="-1050.17" font-family="Arial" font-size="24.00" fill="#000000">fields and redacting</text>
<text text-anchor="start" x="1087" y="-1026.17" font-family="Arial" font-size="24.00" fill="#000000">URL&#45;shaped errors.</text>
</g>
<!-- 13&#45;&gt;15 -->
<g id="97" class="edge">
<title>13&#45;&gt;15</title>
<path fill="none" stroke="#444444" stroke-dasharray="5,2" d="M1953.95,-1888.31C1942.67,-1883.82 1931.33,-1879.8 1920,-1876.38 1839.6,-1852.09 1222.95,-1901.16 1165,-1840.38 1085.67,-1757.17 1134.1,-1424.25 1168.51,-1239.68"/>
<polygon fill="#444444" stroke="#444444" points="1171.99,-1240.12 1170.4,-1229.65 1165.11,-1238.83 1171.99,-1240.12"/>
<polygon fill="white" stroke="transparent" points="1136,-1555.88 1136,-1615.88 1430,-1615.88 1430,-1555.88 1136,-1555.88"/>
<text text-anchor="start" x="1140" y="-1592.67" font-family="Arial" font-size="24.00" fill="#444444">Records aggregate outbox</text>
<text text-anchor="start" x="1206" y="-1566.67" font-family="Arial" font-size="24.00" fill="#444444">status through</text>
</g>
<!-- 13&#45;&gt;21 -->
<g id="94" class="edge">
<title>13&#45;&gt;21</title>
<path fill="none" stroke="#444444" stroke-dasharray="5,2" d="M2422.73,-1981.74C2566.75,-1938.17 2737.92,-1859.03 2826,-1718.38 2888.51,-1618.56 2892.03,-1550.9 2826,-1453.38 2801.85,-1417.7 2760.15,-1453.05 2736,-1417.38 2711.33,-1380.94 2707.34,-1351.76 2736,-1318.38 2804.83,-1238.2 2902.17,-1362.55 2971,-1282.38 3034.26,-1208.69 3030.5,-922.12 2971,-845.38 2810.8,-638.76 2049.33,-520.37 1655.78,-472.02"/>
<polygon fill="#444444" stroke="#444444" points="1656.04,-468.52 1645.69,-470.78 1655.19,-475.47 1656.04,-468.52"/>
<polygon fill="white" stroke="transparent" points="2736,-1318.38 2736,-1417.38 3034,-1417.38 3034,-1318.38 2736,-1318.38"/>
<text text-anchor="start" x="2743.5" y="-1394.67" font-family="Arial" font-size="24.00" fill="#444444">Imports and preserves the</text>
<text text-anchor="start" x="2740" y="-1370.67" font-family="Arial" font-size="24.00" fill="#444444">one&#45;version queue fallback</text>
<text text-anchor="start" x="2875.5" y="-1346.67" font-family="Arial" font-size="24.00" fill="#444444">in</text>
<text text-anchor="start" x="2791.5" y="-1326.67" font-family="Arial" font-size="19.00" fill="#444444">[chrome.storage.local]</text>
</g>
<!-- 22 -->
<g id="22" class="node">
<title>22</title>
<polygon fill="#438dd5" stroke="#2e6295" points="2935,-1282.38 2473,-1282.38 2473,-945.38 2935,-945.38 2935,-1282.38"/>
<text text-anchor="start" x="2539.5" y="-1234.17" font-family="Arial" font-size="34.00" fill="#ffffff">WSL Loopback HTTP</text>
<text text-anchor="start" x="2639.5" y="-1200.17" font-family="Arial" font-size="34.00" fill="#ffffff">Daemon</text>
<text text-anchor="start" x="2502" y="-1178.17" font-family="Arial" font-size="19.00" fill="#ffffff">[Container: Python 3.11, ThreadingHTTPServer]</text>
<text text-anchor="start" x="2543" y="-1141.17" font-family="Arial" font-size="24.00" fill="#ffffff">Authenticated loopback HTTP</text>
<text text-anchor="start" x="2568" y="-1117.17" font-family="Arial" font-size="24.00" fill="#ffffff">API that handles capture,</text>
<text text-anchor="start" x="2564.5" y="-1093.17" font-family="Arial" font-size="24.00" fill="#ffffff">visit events, media artifact</text>
<text text-anchor="start" x="2567.5" y="-1069.17" font-family="Arial" font-size="24.00" fill="#ffffff">upload/fetch/purge, exact</text>
<text text-anchor="start" x="2664" y="-1045.17" font-family="Arial" font-size="24.00" fill="#ffffff">search,</text>
<text text-anchor="start" x="2555" y="-1021.17" font-family="Arial" font-size="24.00" fill="#ffffff">recent/timeline/detail, policy</text>
<text text-anchor="start" x="2552.5" y="-997.17" font-family="Arial" font-size="24.00" fill="#ffffff">rules, doctor, durable forget,</text>
<text text-anchor="start" x="2591" y="-973.17" font-family="Arial" font-size="24.00" fill="#ffffff">and static UI serving.</text>
</g>
<!-- 13&#45;&gt;22 -->
<g id="96" class="edge">
<title>13&#45;&gt;22</title>
<path fill="none" stroke="#444444" stroke-dasharray="5,2" d="M2326.38,-1888.37C2372.86,-1837.64 2421.79,-1778.25 2459,-1718.38 2560.24,-1555.46 2548.78,-1496.06 2621,-1318.38 2624.52,-1309.72 2628.12,-1300.85 2631.77,-1291.9"/>
<polygon fill="#444444" stroke="#444444" points="2635.05,-1293.13 2635.57,-1282.55 2628.56,-1290.49 2635.05,-1293.13"/>
<polygon fill="white" stroke="transparent" points="2571,-1548.38 2571,-1623.38 2808,-1623.38 2808,-1548.38 2571,-1548.38"/>
<text text-anchor="start" x="2575.5" y="-1600.67" font-family="Arial" font-size="24.00" fill="#444444">Delivers /capture and</text>
<text text-anchor="start" x="2612.5" y="-1576.67" font-family="Arial" font-size="24.00" fill="#444444">/visit&#45;events to</text>
<text text-anchor="start" x="2601" y="-1556.67" font-family="Arial" font-size="19.00" fill="#444444">[Bearer HTTP/JSON]</text>
</g>
<!-- 14&#45;&gt;15 -->
<g id="102" class="edge">
<title>14&#45;&gt;15</title>
<path fill="none" stroke="#444444" stroke-dasharray="5,2" d="M1560.21,-1480.45C1542,-1471.07 1523.72,-1461.9 1506,-1453.38 1469.03,-1435.59 1453.31,-1442.65 1421,-1417.38 1358.52,-1368.5 1304.45,-1298.38 1264.78,-1237.96"/>
<polygon fill="#444444" stroke="#444444" points="1267.66,-1235.97 1259.27,-1229.5 1261.79,-1239.79 1267.66,-1235.97"/>
<polygon fill="white" stroke="transparent" points="1421,-1337.88 1421,-1397.88 1709,-1397.88 1709,-1337.88 1421,-1337.88"/>
<text text-anchor="start" x="1425" y="-1374.67" font-family="Arial" font-size="24.00" fill="#444444">Records aggregate media</text>
<text text-anchor="start" x="1488" y="-1348.67" font-family="Arial" font-size="24.00" fill="#444444">status through</text>
</g>
<!-- 17 -->
<g id="17" class="node">
<title>17</title>
<polygon fill="#85bbf0" stroke="#1168bd" points="1908,-1282.38 1512,-1282.38 1512,-945.38 1908,-945.38 1908,-1282.38"/>
<text text-anchor="start" x="1541" y="-1234.17" font-family="Arial" font-size="34.00" fill="#000000">Browser Media Queue</text>
<text text-anchor="start" x="1650.5" y="-1200.17" font-family="Arial" font-size="34.00" fill="#000000">Adapter</text>
<text text-anchor="start" x="1548" y="-1178.17" font-family="Arial" font-size="19.00" fill="#000000">[Component: JavaScript + IndexedDB]</text>
<text text-anchor="start" x="1575.5" y="-1141.17" font-family="Arial" font-size="24.00" fill="#000000">Persists media tasks and</text>
<text text-anchor="start" x="1569" y="-1117.17" font-family="Arial" font-size="24.00" fill="#000000">fetched blobs in versioned</text>
<text text-anchor="start" x="1586.5" y="-1093.17" font-family="Arial" font-size="24.00" fill="#000000">IndexedDB with atomic</text>
<text text-anchor="start" x="1592" y="-1069.17" font-family="Arial" font-size="24.00" fill="#000000">batch/blob transitions,</text>
<text text-anchor="start" x="1610.5" y="-1045.17" font-family="Arial" font-size="24.00" fill="#000000">count/byte quotas,</text>
<text text-anchor="start" x="1545.5" y="-1021.17" font-family="Arial" font-size="24.00" fill="#000000">stale&#45;processing recovery, and</text>
<text text-anchor="start" x="1555" y="-997.17" font-family="Arial" font-size="24.00" fill="#000000">bounded terminal quarantine</text>
<text text-anchor="start" x="1664" y="-973.17" font-family="Arial" font-size="24.00" fill="#000000">cleanup.</text>
</g>
<!-- 14&#45;&gt;17 -->
<g id="99" class="edge">
<title>14&#45;&gt;17</title>
<path fill="none" stroke="#444444" stroke-dasharray="5,2" d="M1738.08,-1453.33C1733.96,-1403.58 1729.19,-1346.1 1724.76,-1292.79"/>
<polygon fill="#444444" stroke="#444444" points="1728.23,-1292.22 1723.91,-1282.54 1721.25,-1292.8 1728.23,-1292.22"/>
<polygon fill="white" stroke="transparent" points="1734,-1337.88 1734,-1397.88 2021,-1397.88 2021,-1337.88 1734,-1337.88"/>
<text text-anchor="start" x="1738.5" y="-1374.67" font-family="Arial" font-size="24.00" fill="#444444">Persists and drains media</text>
<text text-anchor="start" x="1807.5" y="-1348.67" font-family="Arial" font-size="24.00" fill="#444444">work through</text>
</g>
<!-- 14&#45;&gt;22 -->
<g id="100" class="edge">
<title>14&#45;&gt;22</title>
<path fill="none" stroke="#444444" stroke-dasharray="5,2" d="M1937.76,-1473.87C1950,-1466.89 1962.16,-1460.01 1974,-1453.38 1987.86,-1445.62 2210.93,-1323.38 2226,-1318.38 2325.27,-1285.44 2363.55,-1320.25 2463.17,-1283.3"/>
<polygon fill="#444444" stroke="#444444" points="2464.61,-1286.49 2472.68,-1279.62 2462.09,-1279.96 2464.61,-1286.49"/>
<polygon fill="white" stroke="transparent" points="2226,-1330.38 2226,-1405.38 2548,-1405.38 2548,-1330.38 2226,-1330.38"/>
<text text-anchor="start" x="2253" y="-1382.67" font-family="Arial" font-size="24.00" fill="#444444">Delivers media metadata</text>
<text text-anchor="start" x="2298" y="-1358.67" font-family="Arial" font-size="24.00" fill="#444444">and raw blobs to</text>
<text text-anchor="start" x="2230" y="-1338.67" font-family="Arial" font-size="19.00" fill="#444444">[Bearer HTTP/JSON; raw HTTP PUT]</text>
</g>
<!-- 15&#45;&gt;21 -->
<g id="104" class="edge">
<title>15&#45;&gt;21</title>
<path fill="none" stroke="#444444" stroke-dasharray="5,2" d="M1220.28,-998.05C1237.11,-929.04 1260.68,-839.87 1287,-762.38 1289.95,-753.69 1293.02,-744.9 1296.2,-736.06"/>
<polygon fill="#444444" stroke="#444444" points="1299.56,-737.03 1299.67,-726.44 1292.98,-734.65 1299.56,-737.03"/>
<polygon fill="white" stroke="transparent" points="1287,-762.38 1287,-837.38 1502,-837.38 1502,-762.38 1287,-762.38"/>
<text text-anchor="start" x="1301" y="-814.67" font-family="Arial" font-size="24.00" fill="#444444">Persists sanitized</text>
<text text-anchor="start" x="1291.5" y="-790.67" font-family="Arial" font-size="24.00" fill="#444444">aggregate status in</text>
<text text-anchor="start" x="1301.5" y="-770.67" font-family="Arial" font-size="19.00" fill="#444444">[chrome.storage.local]</text>
</g>
<!-- 17&#45;&gt;21 -->
<g id="103" class="edge">
<title>17&#45;&gt;21</title>
<path fill="none" stroke="#444444" stroke-dasharray="5,2" d="M1636.76,-945.07C1609.08,-881.67 1576.73,-807.56 1545.56,-736.15"/>
<polygon fill="#444444" stroke="#444444" points="1548.58,-734.31 1541.37,-726.55 1542.17,-737.11 1548.58,-734.31"/>
<polygon fill="white" stroke="transparent" points="1582,-762.38 1582,-837.38 1850,-837.38 1850,-762.38 1582,-762.38"/>
<text text-anchor="start" x="1586" y="-814.67" font-family="Arial" font-size="24.00" fill="#444444">Reads and writes media</text>
<text text-anchor="start" x="1642.5" y="-790.67" font-family="Arial" font-size="24.00" fill="#444444">tasks/blobs in</text>
<text text-anchor="start" x="1663.5" y="-770.67" font-family="Arial" font-size="19.00" fill="#444444">[IndexedDB]</text>
</g>
<!-- 18 -->
<g id="18" class="node">
<title>18</title>
<polygon fill="#85bbf0" stroke="#1168bd" points="2422.5,-1701.38 2009.5,-1701.38 2009.5,-1470.38 2422.5,-1470.38 2422.5,-1701.38"/>
<text text-anchor="start" x="2105.5" y="-1653.17" font-family="Arial" font-size="34.00" fill="#000000">CDP Recorder</text>
<text text-anchor="start" x="2043.5" y="-1631.17" font-family="Arial" font-size="19.00" fill="#000000">[Component: Chrome DevTools Protocol]</text>
<text text-anchor="start" x="2104.5" y="-1594.17" font-family="Arial" font-size="24.00" fill="#000000">Classifies configured</text>
<text text-anchor="start" x="2049" y="-1570.17" font-family="Arial" font-size="24.00" fill="#000000">X/Twitter video.twimg.com HLS</text>
<text text-anchor="start" x="2048" y="-1546.17" font-family="Arial" font-size="24.00" fill="#000000">manifests and media segments</text>
<text text-anchor="start" x="2038.5" y="-1522.17" font-family="Arial" font-size="24.00" fill="#000000">before they become opaque blob</text>
<text text-anchor="start" x="2146" y="-1498.17" font-family="Arial" font-size="24.00" fill="#000000">player URLs.</text>
</g>
<!-- 18&#45;&gt;2 -->
<g id="110" class="edge">
<title>18&#45;&gt;2</title>
<path fill="none" stroke="#444444" stroke-dasharray="5,2" d="M2384.05,-1470.3C2398.2,-1463.73 2412.6,-1457.95 2427,-1453.38 2559.6,-1411.28 2929.75,-1483.78 3052,-1417.38 3124.59,-1377.95 3179.73,-1303.36 3216.91,-1238.11"/>
<polygon fill="#444444" stroke="#444444" points="3219.96,-1239.82 3221.81,-1229.39 3213.86,-1236.39 3219.96,-1239.82"/>
<polygon fill="white" stroke="transparent" points="3158,-1330.38 3158,-1405.38 3443,-1405.38 3443,-1330.38 3158,-1330.38"/>
<text text-anchor="start" x="3162.5" y="-1382.67" font-family="Arial" font-size="24.00" fill="#444444">Classifies Network events</text>
<text text-anchor="start" x="3210.5" y="-1358.67" font-family="Arial" font-size="24.00" fill="#444444">received through</text>
<text text-anchor="start" x="3199" y="-1338.67" font-family="Arial" font-size="19.00" fill="#444444">[chrome.debugger/CDP]</text>
</g>
<!-- 19 -->
<g id="19" class="node">
<title>19</title>
<polygon fill="#85bbf0" stroke="#1168bd" points="1273,-2189.38 837,-2189.38 837,-1876.38 1273,-1876.38 1273,-2189.38"/>
<text text-anchor="start" x="954" y="-2141.18" font-family="Arial" font-size="34.00" fill="#000000">CDP Session</text>
<text text-anchor="start" x="981" y="-2107.18" font-family="Arial" font-size="34.00" fill="#000000">Controller</text>
<text text-anchor="start" x="866" y="-2085.18" font-family="Arial" font-size="19.00" fill="#000000">[Component: JavaScript + chrome.debugger]</text>
<text text-anchor="start" x="917.5" y="-2048.18" font-family="Arial" font-size="24.00" fill="#000000">Restores minimal capture</text>
<text text-anchor="start" x="930" y="-2024.18" font-family="Arial" font-size="24.00" fill="#000000">provenance, reconciles</text>
<text text-anchor="start" x="930.5" y="-2000.18" font-family="Arial" font-size="24.00" fill="#000000">debugger attachments,</text>
<text text-anchor="start" x="911.5" y="-1976.18" font-family="Arial" font-size="24.00" fill="#000000">correlates Network events,</text>
<text text-anchor="start" x="891.5" y="-1952.18" font-family="Arial" font-size="24.00" fill="#000000">retrieves bounded bodies, and</text>
<text text-anchor="start" x="893.5" y="-1928.18" font-family="Arial" font-size="24.00" fill="#000000">dispatches media across MV3</text>
<text text-anchor="start" x="971" y="-1904.18" font-family="Arial" font-size="24.00" fill="#000000">worker restarts.</text>
</g>
<!-- 19&#45;&gt;10 -->
<g id="106" class="edge">
<title>19&#45;&gt;10</title>
<path fill="none" stroke="#444444" stroke-dasharray="5,2" d="M836.95,-1967.69C728,-1937.16 593.76,-1901.86 472,-1876.38 420.29,-1865.55 271.41,-1880.46 237,-1840.38 207.6,-1806.13 209.41,-1759.76 222.47,-1716.04"/>
<polygon fill="#444444" stroke="#444444" points="225.82,-1717.06 225.52,-1706.47 219.15,-1714.94 225.82,-1717.06"/>
<polygon fill="white" stroke="transparent" points="237,-1767.38 237,-1827.38 505,-1827.38 505,-1767.38 237,-1767.38"/>
<text text-anchor="start" x="241" y="-1804.17" font-family="Arial" font-size="24.00" fill="#444444">Persists minimal per&#45;tab</text>
<text text-anchor="start" x="243" y="-1778.17" font-family="Arial" font-size="24.00" fill="#444444">capture context through</text>
</g>
<!-- 19&#45;&gt;14 -->
<g id="108" class="edge">
<title>19&#45;&gt;14</title>
<path fill="none" stroke="#444444" stroke-dasharray="5,2" d="M1118.05,-1876.34C1144.36,-1829.99 1179.58,-1783.76 1225,-1754.38 1330.71,-1685.98 1386.16,-1756.99 1506,-1718.38 1520.93,-1713.56 1536.02,-1707.83 1550.97,-1701.5"/>
<polygon fill="#444444" stroke="#444444" points="1552.48,-1704.66 1560.27,-1697.48 1549.7,-1698.24 1552.48,-1704.66"/>
<polygon fill="white" stroke="transparent" points="1225,-1754.38 1225,-1840.38 1511,-1840.38 1511,-1754.38 1225,-1754.38"/>
<text text-anchor="start" x="1229" y="-1817.17" font-family="Arial" font-size="24.00" fill="#444444">Dispatches bounded CDP</text>
<text text-anchor="start" x="1243" y="-1791.17" font-family="Arial" font-size="24.00" fill="#444444">media rows and bodies</text>
<text text-anchor="start" x="1326.5" y="-1765.17" font-family="Arial" font-size="24.00" fill="#444444">through</text>
</g>
<!-- 19&#45;&gt;15 -->
<g id="109" class="edge">
<title>19&#45;&gt;15</title>
<path fill="none" stroke="#444444" stroke-dasharray="5,2" d="M995.16,-1876.37C971.76,-1831.95 941,-1786.85 902,-1754.38 863.12,-1722 823.58,-1759.42 794,-1718.38 725.13,-1622.83 744.45,-1560.22 794,-1453.38 819.52,-1398.34 927.03,-1308.77 1024.16,-1235.59"/>
<polygon fill="#444444" stroke="#444444" points="1026.43,-1238.26 1032.33,-1229.45 1022.23,-1232.66 1026.43,-1238.26"/>
<polygon fill="white" stroke="transparent" points="794,-1555.88 794,-1615.88 1104,-1615.88 1104,-1555.88 794,-1555.88"/>
<text text-anchor="start" x="798" y="-1592.67" font-family="Arial" font-size="24.00" fill="#444444">Records sanitized debugger</text>
<text text-anchor="start" x="872" y="-1566.67" font-family="Arial" font-size="24.00" fill="#444444">status through</text>
</g>
<!-- 19&#45;&gt;18 -->
<g id="107" class="edge">
<title>19&#45;&gt;18</title>
<path fill="none" stroke="#444444" stroke-dasharray="5,2" d="M1273.06,-1947.45C1352.94,-1915.36 1443.67,-1877.56 1525,-1840.38 1601.65,-1805.33 1613.47,-1779.22 1694,-1754.38 1813.89,-1717.38 1854.62,-1756.99 1974,-1718.38 1985.76,-1714.57 1997.61,-1710.2 2009.41,-1705.4"/>
<polygon fill="#444444" stroke="#444444" points="2010.97,-1708.55 2018.86,-1701.47 2008.29,-1702.08 2010.97,-1708.55"/>
<polygon fill="white" stroke="transparent" points="1694,-1754.38 1694,-1840.38 1895,-1840.38 1895,-1754.38 1694,-1754.38"/>
<text text-anchor="start" x="1707.5" y="-1817.17" font-family="Arial" font-size="24.00" fill="#444444">Uses configured</text>
<text text-anchor="start" x="1707.5" y="-1791.17" font-family="Arial" font-size="24.00" fill="#444444">media&#45;response</text>
<text text-anchor="start" x="1698.5" y="-1765.17" font-family="Arial" font-size="24.00" fill="#444444">classification from</text>
</g>
<!-- 9 -->
<g id="9" class="node">
<title>9</title>
<polygon fill="#85bbf0" stroke="#1168bd" points="1274,-2604.38 836,-2604.38 836,-2373.38 1274,-2373.38 1274,-2604.38"/>
<text text-anchor="start" x="939" y="-2556.18" font-family="Arial" font-size="34.00" fill="#000000">Service Worker</text>
<text text-anchor="start" x="865" y="-2534.18" font-family="Arial" font-size="19.00" fill="#000000">[Component: JavaScript MV3 service worker]</text>
<text text-anchor="start" x="869" y="-2497.18" font-family="Arial" font-size="24.00" fill="#000000">Composes extension modules and</text>
<text text-anchor="start" x="900.5" y="-2473.18" font-family="Arial" font-size="24.00" fill="#000000">registers MV3 message, tab,</text>
<text text-anchor="start" x="917.5" y="-2449.18" font-family="Arial" font-size="24.00" fill="#000000">window, debugger, alarm,</text>
<text text-anchor="start" x="930" y="-2425.18" font-family="Arial" font-size="24.00" fill="#000000">startup, and installation</text>
<text text-anchor="start" x="1006.5" y="-2401.18" font-family="Arial" font-size="24.00" fill="#000000">listeners.</text>
</g>
<!-- 9&#45;&gt;10 -->
<g id="84" class="edge">
<title>9&#45;&gt;10</title>
<path fill="none" stroke="#444444" stroke-dasharray="5,2" d="M835.72,-2460.9C661.84,-2427.5 426.73,-2353.3 294,-2189.38 169.29,-2035.35 145.88,-1946.11 196,-1754.38 199.33,-1741.65 203.86,-1728.87 209.15,-1716.35"/>
<polygon fill="#444444" stroke="#444444" points="212.51,-1717.4 213.33,-1706.84 206.1,-1714.58 212.51,-1717.4"/>
<polygon fill="white" stroke="transparent" points="294,-1989.88 294,-2075.88 576,-2075.88 576,-1989.88 294,-1989.88"/>
<text text-anchor="start" x="298" y="-2052.68" font-family="Arial" font-size="24.00" fill="#444444">Reads typed settings and</text>
<text text-anchor="start" x="326.5" y="-2026.67" font-family="Arial" font-size="24.00" fill="#444444">durable restart state</text>
<text text-anchor="start" x="393.5" y="-2000.67" font-family="Arial" font-size="24.00" fill="#444444">through</text>
</g>
<!-- 9&#45;&gt;13 -->
<g id="90" class="edge">
<title>9&#45;&gt;13</title>
<path fill="none" stroke="#444444" stroke-dasharray="5,2" d="M1274.13,-2435.15C1370.51,-2409.51 1484.23,-2375.89 1584,-2337.38 1722.33,-2283.98 1750.87,-2256.66 1883,-2189.38 1897.74,-2181.87 1912.87,-2174.11 1928.12,-2166.25"/>
<polygon fill="#444444" stroke="#444444" points="1929.83,-2169.31 1937.11,-2161.62 1926.62,-2163.09 1929.83,-2169.31"/>
<polygon fill="white" stroke="transparent" points="1814,-2238.38 1814,-2324.38 2086,-2324.38 2086,-2238.38 1814,-2238.38"/>
<text text-anchor="start" x="1895.5" y="-2301.18" font-family="Arial" font-size="24.00" fill="#444444">Delegates</text>
<text text-anchor="start" x="1818" y="-2275.18" font-family="Arial" font-size="24.00" fill="#444444">capture/lifecycle delivery</text>
<text text-anchor="start" x="1835.5" y="-2249.18" font-family="Arial" font-size="24.00" fill="#444444">and durable drains to</text>
</g>
<!-- 9&#45;&gt;14 -->
<g id="91" class="edge">
<title>9&#45;&gt;14</title>
<path fill="none" stroke="#444444" stroke-dasharray="5,2" d="M1274,-2379.38C1292.17,-2366.42 1309.48,-2352.4 1325,-2337.38 1496.75,-2171.13 1405.19,-2012.03 1602,-1876.38 1676.72,-1824.87 1744.76,-1909.98 1803,-1840.38 1829.21,-1809.05 1830.05,-1768.07 1820.21,-1728.22"/>
<polygon fill="#444444" stroke="#444444" points="1823.54,-1727.14 1817.56,-1718.4 1816.78,-1728.96 1823.54,-1727.14"/>
<polygon fill="white" stroke="transparent" points="1602,-1989.88 1602,-2075.88 1902,-2075.88 1902,-1989.88 1602,-1989.88"/>
<text text-anchor="start" x="1628" y="-2052.68" font-family="Arial" font-size="24.00" fill="#444444">Delegates credentialed</text>
<text text-anchor="start" x="1606" y="-2026.67" font-family="Arial" font-size="24.00" fill="#444444">media delivery and durable</text>
<text text-anchor="start" x="1705" y="-2000.67" font-family="Arial" font-size="24.00" fill="#444444">drains to</text>
</g>
<!-- 9&#45;&gt;15 -->
<g id="92" class="edge">
<title>9&#45;&gt;15</title>
<path fill="none" stroke="#444444" stroke-dasharray="5,2" d="M951.07,-2373.22C903.51,-2318.92 847.53,-2252.29 801,-2189.38 746.27,-2115.38 603.81,-1928.72 578,-1840.38 567.28,-1803.69 569.05,-1791.53 578,-1754.38 629.08,-1542.38 630.39,-1451.63 803,-1318.38 858.98,-1275.16 893.5,-1311.39 958,-1282.38 986.76,-1269.44 1015.6,-1252.78 1042.75,-1235"/>
<polygon fill="#444444" stroke="#444444" points="1044.72,-1237.89 1051.12,-1229.45 1040.85,-1232.06 1044.72,-1237.89"/>
<polygon fill="white" stroke="transparent" points="578,-1767.38 578,-1827.38 884,-1827.38 884,-1767.38 578,-1767.38"/>
<text text-anchor="start" x="588" y="-1804.17" font-family="Arial" font-size="24.00" fill="#444444">Creates the redaction&#45;safe</text>
<text text-anchor="start" x="582" y="-1778.17" font-family="Arial" font-size="24.00" fill="#444444">telemetry boundary through</text>
</g>
<!-- 9&#45;&gt;19 -->
<g id="105" class="edge">
<title>9&#45;&gt;19</title>
<path fill="none" stroke="#444444" stroke-dasharray="5,2" d="M1055,-2373.31C1055,-2320.78 1055,-2257.49 1055,-2199.87"/>
<polygon fill="#444444" stroke="#444444" points="1058.5,-2199.56 1055,-2189.56 1051.5,-2199.56 1058.5,-2199.56"/>
<polygon fill="white" stroke="transparent" points="1055,-2225.38 1055,-2337.38 1307,-2337.38 1307,-2225.38 1055,-2225.38"/>
<text text-anchor="start" x="1071.5" y="-2314.18" font-family="Arial" font-size="24.00" fill="#444444">Delegates debugger</text>
<text text-anchor="start" x="1084.5" y="-2288.18" font-family="Arial" font-size="24.00" fill="#444444">attachment, event</text>
<text text-anchor="start" x="1059" y="-2262.18" font-family="Arial" font-size="24.00" fill="#444444">correlation, and restart</text>
<text text-anchor="start" x="1096.5" y="-2236.18" font-family="Arial" font-size="24.00" fill="#444444">reconciliation to</text>
</g>
</g>
</svg>
