<?xml version="1.0" encoding="UTF-8" standalone="no"?>
<!DOCTYPE svg PUBLIC "-//W3C//DTD SVG 1.1//EN"
 "http://www.w3.org/Graphics/SVG/1.1/DTD/svg11.dtd">
<!-- Generated by graphviz version 2.43.0 (0)
 -->
<!-- Title: %3 Pages: 1 -->
<svg width="2066pt" height="787pt"
 viewBox="0.00 0.00 2066.00 787.00" xmlns="http://www.w3.org/2000/svg" xmlns:xlink="http://www.w3.org/1999/xlink">
<g id="graph0" class="graph" transform="scale(1 1) rotate(0) translate(4 783)">
<title>%3</title>
<polygon fill="white" stroke="transparent" points="-4,4 -4,-783 2062,-783 2062,4 -4,4"/>
<text text-anchor="start" x="444" y="-11.8" font-family="Arial" font-size="34.00">Component View: Browser Memory Daemon &#45; WSL Loopback HTTP Daemon</text>
<g id="clust1" class="cluster">
<title>cluster_4</title>
<polygon fill="none" stroke="#444444" points="8,-64 8,-771 2050,-771 2050,-64 8,-64"/>
<text text-anchor="start" x="888" y="-92.8" font-family="Arial" font-size="24.00" fill="#444444">Browser Memory Daemon</text>
<text text-anchor="start" x="952" y="-72.8" font-family="Arial" font-size="19.00" fill="#444444">[Software System]</text>
</g>
<g id="clust2" class="cluster">
<title>cluster_19</title>
<polygon fill="none" stroke="#444444" points="33,-164 33,-746 1261,-746 1261,-164 33,-164"/>
<text text-anchor="start" x="481.5" y="-192.8" font-family="Arial" font-size="24.00" fill="#444444">WSL Loopback HTTP Daemon</text>
<text text-anchor="start" x="445" y="-172.8" font-family="Arial" font-size="19.00" fill="#444444">[Container: Python 3.11, ThreadingHTTPServer]</text>
</g>
<!-- 20 -->
<g id="20" class="node">
<title>20</title>
<polygon fill="#85bbf0" stroke="#1168bd" points="453,-608.5 58,-608.5 58,-377.5 453,-377.5 453,-608.5"/>
<text text-anchor="start" x="87" y="-560.3" font-family="Arial" font-size="34.00" fill="#000000">HTTP Request Router</text>
<text text-anchor="start" x="119" y="-538.3" font-family="Arial" font-size="19.00" fill="#000000">[Component: Python http.server]</text>
<text text-anchor="start" x="90" y="-501.3" font-family="Arial" font-size="24.00" fill="#000000">Routes loopback API requests,</text>
<text text-anchor="start" x="112.5" y="-477.3" font-family="Arial" font-size="24.00" fill="#000000">serves UI assets, enforces</text>
<text text-anchor="start" x="91.5" y="-453.3" font-family="Arial" font-size="24.00" fill="#000000">bearer auth for memory/admin</text>
<text text-anchor="start" x="106" y="-429.3" font-family="Arial" font-size="24.00" fill="#000000">APIs, and applies CORS for</text>
<text text-anchor="start" x="172" y="-405.3" font-family="Arial" font-size="24.00" fill="#000000">allowed origins.</text>
</g>
<!-- 21 -->
<g id="21" class="node">
<title>21</title>
<polygon fill="#85bbf0" stroke="#1168bd" points="1236,-721.5 813,-721.5 813,-264.5 1236,-264.5 1236,-721.5"/>
<text text-anchor="start" x="877" y="-673.3" font-family="Arial" font-size="34.00" fill="#000000">Database Migration</text>
<text text-anchor="start" x="975.5" y="-639.3" font-family="Arial" font-size="34.00" fill="#000000">Kernel</text>
<text text-anchor="start" x="896.5" y="-617.3" font-family="Arial" font-size="19.00" fill="#000000">[Component: Python + sqlite3]</text>
<text text-anchor="start" x="914.5" y="-580.3" font-family="Arial" font-size="24.00" fill="#000000">Serializes migrators;</text>
<text text-anchor="start" x="898.5" y="-556.3" font-family="Arial" font-size="24.00" fill="#000000">validates exact schema</text>
<text text-anchor="start" x="915.5" y="-532.3" font-family="Arial" font-size="24.00" fill="#000000">fingerprints, ordered</text>
<text text-anchor="start" x="842" y="-508.3" font-family="Arial" font-size="24.00" fill="#000000">names/checksums, and PRAGMA</text>
<text text-anchor="start" x="910" y="-484.3" font-family="Arial" font-size="24.00" fill="#000000">user_version; applies</text>
<text text-anchor="start" x="920" y="-460.3" font-family="Arial" font-size="24.00" fill="#000000">transactional steps,</text>
<text text-anchor="start" x="889.5" y="-436.3" font-family="Arial" font-size="24.00" fill="#000000">backup&#45;gates destructive</text>
<text text-anchor="start" x="858.5" y="-412.3" font-family="Arial" font-size="24.00" fill="#000000">changes, and expands capture</text>
<text text-anchor="start" x="880.5" y="-388.3" font-family="Arial" font-size="24.00" fill="#000000">provenance, storage state,</text>
<text text-anchor="start" x="889.5" y="-364.3" font-family="Arial" font-size="24.00" fill="#000000">one&#45;time historical media</text>
<text text-anchor="start" x="862.5" y="-340.3" font-family="Arial" font-size="24.00" fill="#000000">correction, plus durable cache</text>
<text text-anchor="start" x="871" y="-316.3" font-family="Arial" font-size="24.00" fill="#000000">reservations through version</text>
<text text-anchor="start" x="1007.5" y="-292.3" font-family="Arial" font-size="24.00" fill="#000000">13.</text>
</g>
<!-- 20&#45;&gt;21 -->
<g id="102" class="edge">
<title>20&#45;&gt;21</title>
<path fill="none" stroke="#444444" stroke-dasharray="5,2" d="M453.03,-493C559.77,-493 692.1,-493 802.43,-493"/>
<polygon fill="#444444" stroke="#444444" points="802.69,-496.5 812.69,-493 802.69,-489.5 802.69,-496.5"/>
<polygon fill="white" stroke="transparent" points="489,-493 489,-553 777,-553 777,-493 489,-493"/>
<text text-anchor="start" x="522.5" y="-529.8" font-family="Arial" font-size="24.00" fill="#444444">Requires compatible</text>
<text text-anchor="start" x="493" y="-503.8" font-family="Arial" font-size="24.00" fill="#444444">initialized schema through</text>
</g>
<!-- 44 -->
<g id="44" class="node">
<title>44</title>
<path fill="#2f95c8" stroke="#20688c" d="M2025,-695.22C2025,-723.44 1936.48,-746.38 1827.5,-746.38 1718.52,-746.38 1630,-723.44 1630,-695.22 1630,-695.22 1630,-234.78 1630,-234.78 1630,-206.56 1718.52,-183.62 1827.5,-183.62 1936.48,-183.62 2025,-206.56 2025,-234.78 2025,-234.78 2025,-695.22 2025,-695.22"/>
<path fill="none" stroke="#20688c" d="M2025,-695.22C2025,-666.99 1936.48,-644.06 1827.5,-644.06 1718.52,-644.06 1630,-666.99 1630,-695.22"/>
<text text-anchor="start" x="1714.5" y="-621.3" font-family="Arial" font-size="34.00" fill="#ffffff">SQLite + FTS5</text>
<text text-anchor="start" x="1754.5" y="-587.3" font-family="Arial" font-size="34.00" fill="#ffffff">Database</text>
<text text-anchor="start" x="1701.5" y="-565.3" font-family="Arial" font-size="19.00" fill="#ffffff">[Container: SQLite with FTS5]</text>
<text text-anchor="start" x="1659.5" y="-528.3" font-family="Arial" font-size="24.00" fill="#ffffff">Durable complete cleaned&#45;text,</text>
<text text-anchor="start" x="1708.5" y="-504.3" font-family="Arial" font-size="24.00" fill="#ffffff">relational, and full&#45;text</text>
<text text-anchor="start" x="1710" y="-480.3" font-family="Arial" font-size="24.00" fill="#ffffff">authority for migration</text>
<text text-anchor="start" x="1675.5" y="-456.3" font-family="Arial" font-size="24.00" fill="#ffffff">ledger, sources, documents,</text>
<text text-anchor="start" x="1678" y="-432.3" font-family="Arial" font-size="24.00" fill="#ffffff">visits, capture observations,</text>
<text text-anchor="start" x="1696.5" y="-408.3" font-family="Arial" font-size="24.00" fill="#ffffff">URL claims, visit events,</text>
<text text-anchor="start" x="1659" y="-384.3" font-family="Arial" font-size="24.00" fill="#ffffff">snapshots, chunks, chunks_fts,</text>
<text text-anchor="start" x="1666.5" y="-360.3" font-family="Arial" font-size="24.00" fill="#ffffff">media provenance/tasks, blob</text>
<text text-anchor="start" x="1703" y="-336.3" font-family="Arial" font-size="24.00" fill="#ffffff">lifecycle records, policy</text>
<text text-anchor="start" x="1702" y="-312.3" font-family="Arial" font-size="24.00" fill="#ffffff">rules, audit events, and</text>
<text text-anchor="start" x="1735.5" y="-288.3" font-family="Arial" font-size="24.00" fill="#ffffff">deletion receipts.</text>
</g>
<!-- 21&#45;&gt;44 -->
<g id="151" class="edge">
<title>21&#45;&gt;44</title>
<path fill="none" stroke="#444444" stroke-dasharray="5,2" d="M1236.22,-485.63C1354.67,-481.49 1501.93,-476.35 1619.73,-472.23"/>
<polygon fill="#444444" stroke="#444444" points="1620.09,-475.72 1629.96,-471.87 1619.84,-468.72 1620.09,-475.72"/>
<polygon fill="white" stroke="transparent" points="1272,-483 1272,-582 1594,-582 1594,-483 1272,-483"/>
<text text-anchor="start" x="1305" y="-559.3" font-family="Arial" font-size="24.00" fill="#444444">Validates and advances</text>
<text text-anchor="start" x="1296" y="-535.3" font-family="Arial" font-size="24.00" fill="#444444">schema ledger/fingerprint</text>
<text text-anchor="start" x="1423.5" y="-511.3" font-family="Arial" font-size="24.00" fill="#444444">in</text>
<text text-anchor="start" x="1276" y="-491.3" font-family="Arial" font-size="19.00" fill="#444444">[sqlite3 online backup + transactions]</text>
</g>
</g>
</svg>
