<?xml version="1.0" encoding="UTF-8" standalone="no"?>
<!DOCTYPE svg PUBLIC "-//W3C//DTD SVG 1.1//EN"
 "http://www.w3.org/Graphics/SVG/1.1/DTD/svg11.dtd">
<!-- Generated by graphviz version 2.43.0 (0)
 -->
<!-- Title: %3 Pages: 1 -->
<svg width="2225pt" height="1692pt"
 viewBox="0.00 0.00 2225.00 1692.00" xmlns="http://www.w3.org/2000/svg" xmlns:xlink="http://www.w3.org/1999/xlink">
<g id="graph0" class="graph" transform="scale(1 1) rotate(0) translate(4 1688)">
<title>%3</title>
<polygon fill="white" stroke="transparent" points="-4,4 -4,-1688 2221,-1688 2221,4 -4,4"/>
<text text-anchor="start" x="786" y="-11.8" font-family="Arial" font-size="34.00">Container View: Browser Memory Daemon</text>
<g id="clust1" class="cluster">
<title>cluster_4</title>
<polygon fill="none" stroke="#444444" points="8,-64 8,-1676 2209,-1676 2209,-64 8,-64"/>
<text text-anchor="start" x="967.5" y="-92.8" font-family="Arial" font-size="24.00" fill="#444444">Browser Memory Daemon</text>
<text text-anchor="start" x="1031.5" y="-72.8" font-family="Arial" font-size="19.00" fill="#444444">[Software System]</text>
</g>
<!-- 14 -->
<g id="14" class="node">
<title>14</title>
<polygon fill="#438dd5" stroke="#2e6295" points="1364,-1099.5 902,-1099.5 902,-762.5 1364,-762.5 1364,-1099.5"/>
<text text-anchor="start" x="968.5" y="-1051.3" font-family="Arial" font-size="34.00" fill="#ffffff">WSL Loopback HTTP</text>
<text text-anchor="start" x="1068.5" y="-1017.3" font-family="Arial" font-size="34.00" fill="#ffffff">Daemon</text>
<text text-anchor="start" x="931" y="-995.3" font-family="Arial" font-size="19.00" fill="#ffffff">[Container: Python 3.11, ThreadingHTTPServer]</text>
<text text-anchor="start" x="972" y="-958.3" font-family="Arial" font-size="24.00" fill="#ffffff">Authenticated loopback HTTP</text>
<text text-anchor="start" x="997" y="-934.3" font-family="Arial" font-size="24.00" fill="#ffffff">API that handles capture,</text>
<text text-anchor="start" x="993.5" y="-910.3" font-family="Arial" font-size="24.00" fill="#ffffff">visit events, media artifact</text>
<text text-anchor="start" x="996.5" y="-886.3" font-family="Arial" font-size="24.00" fill="#ffffff">upload/fetch/purge, exact</text>
<text text-anchor="start" x="1093" y="-862.3" font-family="Arial" font-size="24.00" fill="#ffffff">search,</text>
<text text-anchor="start" x="984" y="-838.3" font-family="Arial" font-size="24.00" fill="#ffffff">recent/timeline/detail, policy</text>
<text text-anchor="start" x="1002" y="-814.3" font-family="Arial" font-size="24.00" fill="#ffffff">rules, doctor, forget, and</text>
<text text-anchor="start" x="1043.5" y="-790.3" font-family="Arial" font-size="24.00" fill="#ffffff">static UI serving.</text>
</g>
<!-- 29 -->
<g id="29" class="node">
<title>29</title>
<path fill="#2f95c8" stroke="#20688c" d="M2163,-645.72C2163,-672.29 2074.25,-693.88 1965,-693.88 1855.75,-693.88 1767,-672.29 1767,-645.72 1767,-645.72 1767,-212.28 1767,-212.28 1767,-185.71 1855.75,-164.12 1965,-164.12 2074.25,-164.12 2163,-185.71 2163,-212.28 2163,-212.28 2163,-645.72 2163,-645.72"/>
<path fill="none" stroke="#20688c" d="M2163,-645.72C2163,-619.14 2074.25,-597.56 1965,-597.56 1855.75,-597.56 1767,-619.14 1767,-645.72"/>
<text text-anchor="start" x="1852" y="-573.3" font-family="Arial" font-size="34.00" fill="#ffffff">SQLite + FTS5</text>
<text text-anchor="start" x="1892" y="-539.3" font-family="Arial" font-size="34.00" fill="#ffffff">Database</text>
<text text-anchor="start" x="1839" y="-517.3" font-family="Arial" font-size="19.00" fill="#ffffff">[Container: SQLite with FTS5]</text>
<text text-anchor="start" x="1797" y="-480.3" font-family="Arial" font-size="24.00" fill="#ffffff">Durable complete cleaned&#45;text,</text>
<text text-anchor="start" x="1846" y="-456.3" font-family="Arial" font-size="24.00" fill="#ffffff">relational, and full&#45;text</text>
<text text-anchor="start" x="1847.5" y="-432.3" font-family="Arial" font-size="24.00" fill="#ffffff">authority for migration</text>
<text text-anchor="start" x="1813" y="-408.3" font-family="Arial" font-size="24.00" fill="#ffffff">ledger, sources, documents,</text>
<text text-anchor="start" x="1815.5" y="-384.3" font-family="Arial" font-size="24.00" fill="#ffffff">visits, capture observations,</text>
<text text-anchor="start" x="1834" y="-360.3" font-family="Arial" font-size="24.00" fill="#ffffff">URL claims, visit events,</text>
<text text-anchor="start" x="1796.5" y="-336.3" font-family="Arial" font-size="24.00" fill="#ffffff">snapshots, chunks, chunks_fts,</text>
<text text-anchor="start" x="1796" y="-312.3" font-family="Arial" font-size="24.00" fill="#ffffff">media provenance/tasks, policy</text>
<text text-anchor="start" x="1839.5" y="-288.3" font-family="Arial" font-size="24.00" fill="#ffffff">rules, audit events, and</text>
<text text-anchor="start" x="1873" y="-264.3" font-family="Arial" font-size="24.00" fill="#ffffff">deletion receipts.</text>
</g>
<!-- 14&#45;&gt;29 -->
<g id="45" class="edge">
<title>14&#45;&gt;29</title>
<path fill="none" stroke="#444444" stroke-dasharray="5,2" d="M1364.28,-794.07C1469.84,-731.05 1596.48,-655.08 1710,-586 1725.75,-576.42 1742.02,-566.47 1758.36,-556.44"/>
<polygon fill="#444444" stroke="#444444" points="1760.22,-559.41 1766.92,-551.19 1756.56,-553.44 1760.22,-559.41"/>
<polygon fill="white" stroke="transparent" points="1400,-765 1400,-864 1710,-864 1710,-765 1400,-765"/>
<text text-anchor="start" x="1404" y="-841.3" font-family="Arial" font-size="24.00" fill="#444444">Reads and writes metadata,</text>
<text text-anchor="start" x="1437" y="-817.3" font-family="Arial" font-size="24.00" fill="#444444">FTS, tasks, audit, and</text>
<text text-anchor="start" x="1499.5" y="-793.3" font-family="Arial" font-size="24.00" fill="#444444">receipts in</text>
<text text-anchor="start" x="1521.5" y="-773.3" font-family="Arial" font-size="19.00" fill="#444444">[sqlite3]</text>
</g>
<!-- 30 -->
<g id="30" class="node">
<title>30</title>
<path fill="#2f95c8" stroke="#20688c" d="M2184,-1066.72C2184,-1083.36 2085.84,-1096.88 1965,-1096.88 1844.16,-1096.88 1746,-1083.36 1746,-1066.72 1746,-1066.72 1746,-795.28 1746,-795.28 1746,-778.64 1844.16,-765.12 1965,-765.12 2085.84,-765.12 2184,-778.64 2184,-795.28 2184,-795.28 2184,-1066.72 2184,-1066.72"/>
<path fill="none" stroke="#20688c" d="M2184,-1066.72C2184,-1050.07 2085.84,-1036.56 1965,-1036.56 1844.16,-1036.56 1746,-1050.07 1746,-1066.72"/>
<text text-anchor="start" x="1825" y="-1003.3" font-family="Arial" font-size="34.00" fill="#ffffff">Legacy Clean Text</text>
<text text-anchor="start" x="1898.5" y="-969.3" font-family="Arial" font-size="34.00" fill="#ffffff">Sidecars</text>
<text text-anchor="start" x="1775" y="-947.3" font-family="Arial" font-size="19.00" fill="#ffffff">[Container: WSL or NAS&#45;mounted filesystem]</text>
<text text-anchor="start" x="1812.5" y="-910.3" font-family="Arial" font-size="24.00" fill="#ffffff">Compatibility&#45;only filesystem</text>
<text text-anchor="start" x="1823.5" y="-886.3" font-family="Arial" font-size="24.00" fill="#ffffff">evidence for pre&#45;version&#45;9</text>
<text text-anchor="start" x="1793.5" y="-862.3" font-family="Arial" font-size="24.00" fill="#ffffff">snapshots; new captures create</text>
<text text-anchor="start" x="1876.5" y="-838.3" font-family="Arial" font-size="24.00" fill="#ffffff">no text sidecars.</text>
</g>
<!-- 14&#45;&gt;30 -->
<g id="46" class="edge">
<title>14&#45;&gt;30</title>
<path fill="none" stroke="#444444" stroke-dasharray="5,2" d="M1364.1,-931C1480.06,-931 1620.23,-931 1735.91,-931"/>
<polygon fill="#444444" stroke="#444444" points="1735.96,-934.5 1745.96,-931 1735.96,-927.5 1735.96,-934.5"/>
<polygon fill="white" stroke="transparent" points="1421,-931 1421,-1030 1689,-1030 1689,-931 1421,-931"/>
<text text-anchor="start" x="1425" y="-1007.3" font-family="Arial" font-size="24.00" fill="#444444">Reads or deletes legacy</text>
<text text-anchor="start" x="1454.5" y="-983.3" font-family="Arial" font-size="24.00" fill="#444444">text sidecars when</text>
<text text-anchor="start" x="1510" y="-959.3" font-family="Arial" font-size="24.00" fill="#444444">required</text>
<text text-anchor="start" x="1503.5" y="-939.3" font-family="Arial" font-size="19.00" fill="#444444">[Filesystem]</text>
</g>
<!-- 31 -->
<g id="31" class="node">
<title>31</title>
<path fill="#2f95c8" stroke="#20688c" d="M2184,-1607.28C2184,-1631.47 2085.84,-1651.13 1965,-1651.13 1844.16,-1651.13 1746,-1631.47 1746,-1607.28 1746,-1607.28 1746,-1212.72 1746,-1212.72 1746,-1188.53 1844.16,-1168.87 1965,-1168.87 2085.84,-1168.87 2184,-1188.53 2184,-1212.72 2184,-1212.72 2184,-1607.28 2184,-1607.28"/>
<path fill="none" stroke="#20688c" d="M2184,-1607.28C2184,-1583.09 2085.84,-1563.44 1965,-1563.44 1844.16,-1563.44 1746,-1583.09 1746,-1607.28"/>
<text text-anchor="start" x="1826" y="-1537.3" font-family="Arial" font-size="34.00" fill="#ffffff">Media Blob Cache</text>
<text text-anchor="start" x="1775" y="-1515.3" font-family="Arial" font-size="19.00" fill="#ffffff">[Container: WSL or NAS&#45;mounted filesystem]</text>
<text text-anchor="start" x="1831.5" y="-1478.3" font-family="Arial" font-size="24.00" fill="#ffffff">Bounded and disposable</text>
<text text-anchor="start" x="1820.5" y="-1454.3" font-family="Arial" font-size="24.00" fill="#ffffff">filesystem cache for stored</text>
<text text-anchor="start" x="1799.5" y="-1430.3" font-family="Arial" font-size="24.00" fill="#ffffff">image/video/audio blobs under</text>
<text text-anchor="start" x="1821" y="-1406.3" font-family="Arial" font-size="24.00" fill="#ffffff">the configured WSL&#45;visible</text>
<text text-anchor="start" x="1889.5" y="-1382.3" font-family="Arial" font-size="24.00" fill="#ffffff">blob root, with</text>
<text text-anchor="start" x="1797.5" y="-1358.3" font-family="Arial" font-size="24.00" fill="#ffffff">purge/rehydrate semantics that</text>
<text text-anchor="start" x="1808.5" y="-1334.3" font-family="Arial" font-size="24.00" fill="#ffffff">preserve media refs, hashes,</text>
<text text-anchor="start" x="1792" y="-1310.3" font-family="Arial" font-size="24.00" fill="#ffffff">status reasons, and provenance</text>
<text text-anchor="start" x="1828.5" y="-1286.3" font-family="Arial" font-size="24.00" fill="#ffffff">when bytes are absent or</text>
<text text-anchor="start" x="1923.5" y="-1262.3" font-family="Arial" font-size="24.00" fill="#ffffff">purged.</text>
</g>
<!-- 14&#45;&gt;31 -->
<g id="47" class="edge">
<title>14&#45;&gt;31</title>
<path fill="none" stroke="#444444" stroke-dasharray="5,2" d="M1364.04,-1035.76C1496.12,-1097.13 1647.77,-1170.03 1710,-1209 1719.12,-1214.71 1728.3,-1220.7 1737.47,-1226.88"/>
<polygon fill="#444444" stroke="#444444" points="1735.66,-1229.87 1745.9,-1232.6 1739.6,-1224.09 1735.66,-1229.87"/>
<polygon fill="white" stroke="transparent" points="1401,-1209 1401,-1308 1709,-1308 1709,-1209 1401,-1209"/>
<text text-anchor="start" x="1430" y="-1285.3" font-family="Arial" font-size="24.00" fill="#444444">Stores, serves, purges,</text>
<text text-anchor="start" x="1405" y="-1261.3" font-family="Arial" font-size="24.00" fill="#444444">and rehydrates media blobs</text>
<text text-anchor="start" x="1545.5" y="-1237.3" font-family="Arial" font-size="24.00" fill="#444444">in</text>
<text text-anchor="start" x="1503.5" y="-1217.3" font-family="Arial" font-size="19.00" fill="#444444">[Filesystem]</text>
</g>
<!-- 27 -->
<g id="27" class="node">
<title>27</title>
<polygon fill="#438dd5" stroke="#2e6295" points="546,-589.5 34,-589.5 34,-334.5 546,-334.5 546,-589.5"/>
<text text-anchor="start" x="187.5" y="-541.3" font-family="Arial" font-size="34.00" fill="#ffffff">Local Web UI</text>
<text text-anchor="start" x="63" y="-519.3" font-family="Arial" font-size="19.00" fill="#ffffff">[Container: HTML/CSS/JavaScript served by daemon]</text>
<text text-anchor="start" x="148" y="-482.3" font-family="Arial" font-size="24.00" fill="#ffffff">Static browser UI for exact</text>
<text text-anchor="start" x="131" y="-458.3" font-family="Arial" font-size="24.00" fill="#ffffff">search, recent/timeline views,</text>
<text text-anchor="start" x="148.5" y="-434.3" font-family="Arial" font-size="24.00" fill="#ffffff">document/snapshot detail,</text>
<text text-anchor="start" x="133" y="-410.3" font-family="Arial" font-size="24.00" fill="#ffffff">media artifact opening, policy</text>
<text text-anchor="start" x="196.5" y="-386.3" font-family="Arial" font-size="24.00" fill="#ffffff">rules, doctor, and</text>
<text text-anchor="start" x="151.5" y="-362.3" font-family="Arial" font-size="24.00" fill="#ffffff">forget&#45;domain operations.</text>
</g>
<!-- 27&#45;&gt;14 -->
<g id="41" class="edge">
<title>27&#45;&gt;14</title>
<path fill="none" stroke="#444444" stroke-dasharray="5,2" d="M519.7,-589.54C635.48,-654.11 775.96,-732.45 893.14,-797.79"/>
<polygon fill="#444444" stroke="#444444" points="891.45,-800.86 901.89,-802.67 894.86,-794.75 891.45,-800.86"/>
<polygon fill="white" stroke="transparent" points="586,-779 586,-878 863,-878 863,-779 586,-779"/>
<text text-anchor="start" x="591" y="-855.3" font-family="Arial" font-size="24.00" fill="#444444">Calls authenticated read,</text>
<text text-anchor="start" x="590.5" y="-831.3" font-family="Arial" font-size="24.00" fill="#444444">admin, media, and forget</text>
<text text-anchor="start" x="682.5" y="-807.3" font-family="Arial" font-size="24.00" fill="#444444">APIs on</text>
<text text-anchor="start" x="667" y="-787.3" font-family="Arial" font-size="19.00" fill="#444444">[HTTP/JSON]</text>
</g>
<!-- 28 -->
<g id="28" class="node">
<title>28</title>
<polygon fill="#438dd5" stroke="#2e6295" points="547,-1082.5 33,-1082.5 33,-779.5 547,-779.5 547,-1082.5"/>
<text text-anchor="start" x="263" y="-1034.3" font-family="Arial" font-size="34.00" fill="#ffffff">CLI</text>
<text text-anchor="start" x="169" y="-1012.3" font-family="Arial" font-size="19.00" fill="#ffffff">[Container: Python argparse]</text>
<text text-anchor="start" x="143.5" y="-975.3" font-family="Arial" font-size="24.00" fill="#ffffff">Command&#45;line interface for</text>
<text text-anchor="start" x="126.5" y="-951.3" font-family="Arial" font-size="24.00" fill="#ffffff">serving the daemon, migration</text>
<text text-anchor="start" x="193.5" y="-927.3" font-family="Arial" font-size="24.00" fill="#ffffff">and snapshot&#45;text</text>
<text text-anchor="start" x="216" y="-903.3" font-family="Arial" font-size="24.00" fill="#ffffff">reconciliation,</text>
<text text-anchor="start" x="62" y="-879.3" font-family="Arial" font-size="24.00" fill="#ffffff">health/doctor/search/recent/timeline/detail,</text>
<text text-anchor="start" x="177" y="-855.3" font-family="Arial" font-size="24.00" fill="#ffffff">policy/forget, capture</text>
<text text-anchor="start" x="145" y="-831.3" font-family="Arial" font-size="24.00" fill="#ffffff">fixtures, media worker, and</text>
<text text-anchor="start" x="157.5" y="-807.3" font-family="Arial" font-size="24.00" fill="#ffffff">media cache operations.</text>
</g>
<!-- 28&#45;&gt;14 -->
<g id="42" class="edge">
<title>28&#45;&gt;14</title>
<path fill="none" stroke="#444444" stroke-dasharray="5,2" d="M547.04,-931C656.69,-931 784.04,-931 891.87,-931"/>
<polygon fill="#444444" stroke="#444444" points="891.91,-934.5 901.91,-931 891.91,-927.5 891.91,-934.5"/>
<polygon fill="white" stroke="transparent" points="583,-931 583,-1030 866,-1030 866,-931 583,-931"/>
<text text-anchor="start" x="587.5" y="-1007.3" font-family="Arial" font-size="24.00" fill="#444444">Calls health, read, admin,</text>
<text text-anchor="start" x="620" y="-983.3" font-family="Arial" font-size="24.00" fill="#444444">capture&#45;fixture, and</text>
<text text-anchor="start" x="649" y="-959.3" font-family="Arial" font-size="24.00" fill="#444444">forget APIs on</text>
<text text-anchor="start" x="667" y="-939.3" font-family="Arial" font-size="19.00" fill="#444444">[HTTP/JSON]</text>
</g>
<!-- 28&#45;&gt;29 -->
<g id="43" class="edge">
<title>28&#45;&gt;29</title>
<path fill="none" stroke="#444444" stroke-dasharray="5,2" d="M530.18,-779.39C639.73,-716.25 773.55,-647.62 902,-604 1188.95,-506.56 1538.54,-462.34 1756.24,-443.02"/>
<polygon fill="#444444" stroke="#444444" points="1756.85,-446.48 1766.51,-442.12 1756.24,-439.51 1756.85,-446.48"/>
<polygon fill="white" stroke="transparent" points="996.5,-604 996.5,-727 1269.5,-727 1269.5,-604 996.5,-604"/>
<text text-anchor="start" x="1048.5" y="-704.3" font-family="Arial" font-size="24.00" fill="#444444">Runs migration,</text>
<text text-anchor="start" x="1033.5" y="-680.3" font-family="Arial" font-size="24.00" fill="#444444">media&#45;worker, and</text>
<text text-anchor="start" x="1001" y="-656.3" font-family="Arial" font-size="24.00" fill="#444444">media&#45;cache commands</text>
<text text-anchor="start" x="1094" y="-632.3" font-family="Arial" font-size="24.00" fill="#444444">against</text>
<text text-anchor="start" x="1100" y="-612.3" font-family="Arial" font-size="19.00" fill="#444444">[sqlite3]</text>
</g>
<!-- 28&#45;&gt;31 -->
<g id="44" class="edge">
<title>28&#45;&gt;31</title>
<path fill="none" stroke="#444444" stroke-dasharray="5,2" d="M547.05,-1034.56C559.18,-1039.17 571.21,-1043.67 583,-1048 942.46,-1180.17 1027.92,-1231.27 1400,-1322 1509.24,-1348.64 1632.44,-1368.95 1735.77,-1383.31"/>
<polygon fill="#444444" stroke="#444444" points="1735.32,-1386.78 1745.71,-1384.68 1736.28,-1379.85 1735.32,-1386.78"/>
<polygon fill="white" stroke="transparent" points="1006,-1313 1006,-1388 1260,-1388 1260,-1313 1006,-1313"/>
<text text-anchor="start" x="1010" y="-1365.3" font-family="Arial" font-size="24.00" fill="#444444">Purges and rehydrates</text>
<text text-anchor="start" x="1023" y="-1341.3" font-family="Arial" font-size="24.00" fill="#444444">media blobs through</text>
<text text-anchor="start" x="1081.5" y="-1321.3" font-family="Arial" font-size="19.00" fill="#444444">[Filesystem]</text>
</g>
</g>
</svg>
