<?xml version="1.0" encoding="UTF-8" standalone="no"?>
<!DOCTYPE svg PUBLIC "-//W3C//DTD SVG 1.1//EN"
 "http://www.w3.org/Graphics/SVG/1.1/DTD/svg11.dtd">
<!-- Generated by graphviz version 2.43.0 (0)
 -->
<!-- Title: %3 Pages: 1 -->
<svg width="2209pt" height="1613pt"
 viewBox="0.00 0.00 2209.00 1613.00" xmlns="http://www.w3.org/2000/svg" xmlns:xlink="http://www.w3.org/1999/xlink">
<g id="graph0" class="graph" transform="scale(1 1) rotate(0) translate(4 1609)">
<title>%3</title>
<polygon fill="white" stroke="transparent" points="-4,4 -4,-1609 2205,-1609 2205,4 -4,4"/>
<text text-anchor="start" x="778" y="-11.8" font-family="Arial" font-size="34.00">Container View: Browser Memory Daemon</text>
<g id="clust1" class="cluster">
<title>cluster_4</title>
<polygon fill="none" stroke="#444444" points="8,-64 8,-1597 2193,-1597 2193,-64 8,-64"/>
<text text-anchor="start" x="959.5" y="-92.8" font-family="Arial" font-size="24.00" fill="#444444">Browser Memory Daemon</text>
<text text-anchor="start" x="1023.5" y="-72.8" font-family="Arial" font-size="19.00" fill="#444444">[Software System]</text>
</g>
<!-- 14 -->
<g id="14" class="node">
<title>14</title>
<polygon fill="#438dd5" stroke="#2e6295" points="1356,-1043.5 894,-1043.5 894,-706.5 1356,-706.5 1356,-1043.5"/>
<text text-anchor="start" x="960.5" y="-995.3" font-family="Arial" font-size="34.00" fill="#ffffff">WSL Loopback HTTP</text>
<text text-anchor="start" x="1060.5" y="-961.3" font-family="Arial" font-size="34.00" fill="#ffffff">Daemon</text>
<text text-anchor="start" x="923" y="-939.3" font-family="Arial" font-size="19.00" fill="#ffffff">[Container: Python 3.11, ThreadingHTTPServer]</text>
<text text-anchor="start" x="964" y="-902.3" font-family="Arial" font-size="24.00" fill="#ffffff">Authenticated loopback HTTP</text>
<text text-anchor="start" x="989" y="-878.3" font-family="Arial" font-size="24.00" fill="#ffffff">API that handles capture,</text>
<text text-anchor="start" x="985.5" y="-854.3" font-family="Arial" font-size="24.00" fill="#ffffff">visit events, media artifact</text>
<text text-anchor="start" x="988.5" y="-830.3" font-family="Arial" font-size="24.00" fill="#ffffff">upload/fetch/purge, exact</text>
<text text-anchor="start" x="1085" y="-806.3" font-family="Arial" font-size="24.00" fill="#ffffff">search,</text>
<text text-anchor="start" x="976" y="-782.3" font-family="Arial" font-size="24.00" fill="#ffffff">recent/timeline/detail, policy</text>
<text text-anchor="start" x="994" y="-758.3" font-family="Arial" font-size="24.00" fill="#ffffff">rules, doctor, forget, and</text>
<text text-anchor="start" x="1035.5" y="-734.3" font-family="Arial" font-size="24.00" fill="#ffffff">static UI serving.</text>
</g>
<!-- 28 -->
<g id="28" class="node">
<title>28</title>
<path fill="#2f95c8" stroke="#20688c" d="M2146.5,-615.22C2146.5,-640.13 2057.98,-660.38 1949,-660.38 1840.02,-660.38 1751.5,-640.13 1751.5,-615.22 1751.5,-615.22 1751.5,-208.78 1751.5,-208.78 1751.5,-183.87 1840.02,-163.62 1949,-163.62 2057.98,-163.62 2146.5,-183.87 2146.5,-208.78 2146.5,-208.78 2146.5,-615.22 2146.5,-615.22"/>
<path fill="none" stroke="#20688c" d="M2146.5,-615.22C2146.5,-590.3 2057.98,-570.06 1949,-570.06 1840.02,-570.06 1751.5,-590.3 1751.5,-615.22"/>
<text text-anchor="start" x="1836" y="-544.3" font-family="Arial" font-size="34.00" fill="#ffffff">SQLite + FTS5</text>
<text text-anchor="start" x="1876" y="-510.3" font-family="Arial" font-size="34.00" fill="#ffffff">Database</text>
<text text-anchor="start" x="1823" y="-488.3" font-family="Arial" font-size="19.00" fill="#ffffff">[Container: SQLite with FTS5]</text>
<text text-anchor="start" x="1830" y="-451.3" font-family="Arial" font-size="24.00" fill="#ffffff">Durable relational and</text>
<text text-anchor="start" x="1808.5" y="-427.3" font-family="Arial" font-size="24.00" fill="#ffffff">full&#45;text store for migration</text>
<text text-anchor="start" x="1797" y="-403.3" font-family="Arial" font-size="24.00" fill="#ffffff">ledger, sources, documents,</text>
<text text-anchor="start" x="1799.5" y="-379.3" font-family="Arial" font-size="24.00" fill="#ffffff">visits, capture observations,</text>
<text text-anchor="start" x="1818" y="-355.3" font-family="Arial" font-size="24.00" fill="#ffffff">URL claims, visit events,</text>
<text text-anchor="start" x="1780.5" y="-331.3" font-family="Arial" font-size="24.00" fill="#ffffff">snapshots, chunks, chunks_fts,</text>
<text text-anchor="start" x="1800.5" y="-307.3" font-family="Arial" font-size="24.00" fill="#ffffff">media artifacts, media fetch</text>
<text text-anchor="start" x="1820.5" y="-283.3" font-family="Arial" font-size="24.00" fill="#ffffff">tasks, policy rules, audit</text>
<text text-anchor="start" x="1791" y="-259.3" font-family="Arial" font-size="24.00" fill="#ffffff">events, and deletion receipts.</text>
</g>
<!-- 14&#45;&gt;28 -->
<g id="44" class="edge">
<title>14&#45;&gt;28</title>
<path fill="none" stroke="#444444" stroke-dasharray="5,2" d="M1356.07,-745.41C1477.47,-677.03 1625.18,-593.83 1742.68,-527.65"/>
<polygon fill="#444444" stroke="#444444" points="1744.45,-530.67 1751.44,-522.71 1741.01,-524.57 1744.45,-530.67"/>
<text text-anchor="start" x="1392" y="-784.8" font-family="Arial" font-size="24.00" fill="#444444">Reads and writes metadata,</text>
<text text-anchor="start" x="1425" y="-760.8" font-family="Arial" font-size="24.00" fill="#444444">FTS, tasks, audit, and</text>
<text text-anchor="start" x="1487.5" y="-736.8" font-family="Arial" font-size="24.00" fill="#444444">receipts in</text>
<text text-anchor="start" x="1509.5" y="-716.8" font-family="Arial" font-size="19.00" fill="#444444">[sqlite3]</text>
</g>
<!-- 29 -->
<g id="29" class="node">
<title>29</title>
<path fill="#2f95c8" stroke="#20688c" d="M2168,-991.28C2168,-1005.54 2069.84,-1017.13 1949,-1017.13 1828.16,-1017.13 1730,-1005.54 1730,-991.28 1730,-991.28 1730,-758.72 1730,-758.72 1730,-744.46 1828.16,-732.87 1949,-732.87 2069.84,-732.87 2168,-744.46 2168,-758.72 2168,-758.72 2168,-991.28 2168,-991.28"/>
<path fill="none" stroke="#20688c" d="M2168,-991.28C2168,-977.03 2069.84,-965.44 1949,-965.44 1828.16,-965.44 1730,-977.03 1730,-991.28"/>
<text text-anchor="start" x="1784.5" y="-930.3" font-family="Arial" font-size="34.00" fill="#ffffff">Clean Text Blob Store</text>
<text text-anchor="start" x="1759" y="-908.3" font-family="Arial" font-size="19.00" fill="#ffffff">[Container: WSL or NAS&#45;mounted filesystem]</text>
<text text-anchor="start" x="1790.5" y="-871.3" font-family="Arial" font-size="24.00" fill="#ffffff">Filesystem store for snapshot</text>
<text text-anchor="start" x="1842" y="-847.3" font-family="Arial" font-size="24.00" fill="#ffffff">text blobs under the</text>
<text text-anchor="start" x="1799" y="-823.3" font-family="Arial" font-size="24.00" fill="#ffffff">configured WSL&#45;visible blob</text>
<text text-anchor="start" x="1924.5" y="-799.3" font-family="Arial" font-size="24.00" fill="#ffffff">root.</text>
</g>
<!-- 14&#45;&gt;29 -->
<g id="45" class="edge">
<title>14&#45;&gt;29</title>
<path fill="none" stroke="#444444" stroke-dasharray="5,2" d="M1356.07,-875C1469.6,-875 1606.14,-875 1719.46,-875"/>
<polygon fill="#444444" stroke="#444444" points="1719.66,-878.5 1729.66,-875 1719.66,-871.5 1719.66,-878.5"/>
<text text-anchor="start" x="1426.5" y="-923.8" font-family="Arial" font-size="24.00" fill="#444444">Reads and writes text</text>
<text text-anchor="start" x="1475" y="-899.8" font-family="Arial" font-size="24.00" fill="#444444">snapshots in</text>
<text text-anchor="start" x="1491.5" y="-879.8" font-family="Arial" font-size="19.00" fill="#444444">[Filesystem]</text>
</g>
<!-- 30 -->
<g id="30" class="node">
<title>30</title>
<path fill="#2f95c8" stroke="#20688c" d="M2168,-1528.28C2168,-1552.47 2069.84,-1572.13 1949,-1572.13 1828.16,-1572.13 1730,-1552.47 1730,-1528.28 1730,-1528.28 1730,-1133.72 1730,-1133.72 1730,-1109.53 1828.16,-1089.87 1949,-1089.87 2069.84,-1089.87 2168,-1109.53 2168,-1133.72 2168,-1133.72 2168,-1528.28 2168,-1528.28"/>
<path fill="none" stroke="#20688c" d="M2168,-1528.28C2168,-1504.09 2069.84,-1484.44 1949,-1484.44 1828.16,-1484.44 1730,-1504.09 1730,-1528.28"/>
<text text-anchor="start" x="1810" y="-1458.3" font-family="Arial" font-size="34.00" fill="#ffffff">Media Blob Cache</text>
<text text-anchor="start" x="1759" y="-1436.3" font-family="Arial" font-size="19.00" fill="#ffffff">[Container: WSL or NAS&#45;mounted filesystem]</text>
<text text-anchor="start" x="1815.5" y="-1399.3" font-family="Arial" font-size="24.00" fill="#ffffff">Bounded and disposable</text>
<text text-anchor="start" x="1804.5" y="-1375.3" font-family="Arial" font-size="24.00" fill="#ffffff">filesystem cache for stored</text>
<text text-anchor="start" x="1783.5" y="-1351.3" font-family="Arial" font-size="24.00" fill="#ffffff">image/video/audio blobs under</text>
<text text-anchor="start" x="1805" y="-1327.3" font-family="Arial" font-size="24.00" fill="#ffffff">the configured WSL&#45;visible</text>
<text text-anchor="start" x="1873.5" y="-1303.3" font-family="Arial" font-size="24.00" fill="#ffffff">blob root, with</text>
<text text-anchor="start" x="1781.5" y="-1279.3" font-family="Arial" font-size="24.00" fill="#ffffff">purge/rehydrate semantics that</text>
<text text-anchor="start" x="1792.5" y="-1255.3" font-family="Arial" font-size="24.00" fill="#ffffff">preserve media refs, hashes,</text>
<text text-anchor="start" x="1776" y="-1231.3" font-family="Arial" font-size="24.00" fill="#ffffff">status reasons, and provenance</text>
<text text-anchor="start" x="1812.5" y="-1207.3" font-family="Arial" font-size="24.00" fill="#ffffff">when bytes are absent or</text>
<text text-anchor="start" x="1907.5" y="-1183.3" font-family="Arial" font-size="24.00" fill="#ffffff">purged.</text>
</g>
<!-- 14&#45;&gt;30 -->
<g id="46" class="edge">
<title>14&#45;&gt;30</title>
<path fill="none" stroke="#444444" stroke-dasharray="5,2" d="M1356.3,-975.11C1461.47,-1023.6 1586.31,-1085.09 1694,-1149 1703.11,-1154.41 1712.3,-1160.04 1721.52,-1165.85"/>
<polygon fill="#444444" stroke="#444444" points="1719.67,-1168.82 1729.99,-1171.23 1723.43,-1162.91 1719.67,-1168.82"/>
<text text-anchor="start" x="1418" y="-1221.8" font-family="Arial" font-size="24.00" fill="#444444">Stores, serves, purges,</text>
<text text-anchor="start" x="1393" y="-1197.8" font-family="Arial" font-size="24.00" fill="#444444">and rehydrates media blobs</text>
<text text-anchor="start" x="1533.5" y="-1173.8" font-family="Arial" font-size="24.00" fill="#444444">in</text>
<text text-anchor="start" x="1491.5" y="-1153.8" font-family="Arial" font-size="19.00" fill="#444444">[Filesystem]</text>
</g>
<!-- 26 -->
<g id="26" class="node">
<title>26</title>
<polygon fill="#438dd5" stroke="#2e6295" points="546,-549.5 34,-549.5 34,-294.5 546,-294.5 546,-549.5"/>
<text text-anchor="start" x="187.5" y="-501.3" font-family="Arial" font-size="34.00" fill="#ffffff">Local Web UI</text>
<text text-anchor="start" x="63" y="-479.3" font-family="Arial" font-size="19.00" fill="#ffffff">[Container: HTML/CSS/JavaScript served by daemon]</text>
<text text-anchor="start" x="148" y="-442.3" font-family="Arial" font-size="24.00" fill="#ffffff">Static browser UI for exact</text>
<text text-anchor="start" x="131" y="-418.3" font-family="Arial" font-size="24.00" fill="#ffffff">search, recent/timeline views,</text>
<text text-anchor="start" x="148.5" y="-394.3" font-family="Arial" font-size="24.00" fill="#ffffff">document/snapshot detail,</text>
<text text-anchor="start" x="133" y="-370.3" font-family="Arial" font-size="24.00" fill="#ffffff">media artifact opening, policy</text>
<text text-anchor="start" x="196.5" y="-346.3" font-family="Arial" font-size="24.00" fill="#ffffff">rules, doctor, and</text>
<text text-anchor="start" x="151.5" y="-322.3" font-family="Arial" font-size="24.00" fill="#ffffff">forget&#45;domain operations.</text>
</g>
<!-- 26&#45;&gt;14 -->
<g id="40" class="edge">
<title>26&#45;&gt;14</title>
<path fill="none" stroke="#444444" stroke-dasharray="5,2" d="M525.53,-549.54C637.74,-610.56 771.87,-683.51 884.69,-744.86"/>
<polygon fill="#444444" stroke="#444444" points="883.35,-748.12 893.81,-749.82 886.7,-741.97 883.35,-748.12"/>
<text text-anchor="start" x="586.5" y="-800.8" font-family="Arial" font-size="24.00" fill="#444444">Calls authenticated read,</text>
<text text-anchor="start" x="586" y="-776.8" font-family="Arial" font-size="24.00" fill="#444444">admin, media, and forget</text>
<text text-anchor="start" x="678" y="-752.8" font-family="Arial" font-size="24.00" fill="#444444">APIs on</text>
<text text-anchor="start" x="662.5" y="-732.8" font-family="Arial" font-size="19.00" fill="#444444">[HTTP/JSON]</text>
</g>
<!-- 27 -->
<g id="27" class="node">
<title>27</title>
<polygon fill="#438dd5" stroke="#2e6295" points="547,-1014.5 33,-1014.5 33,-735.5 547,-735.5 547,-1014.5"/>
<text text-anchor="start" x="263" y="-966.3" font-family="Arial" font-size="34.00" fill="#ffffff">CLI</text>
<text text-anchor="start" x="169" y="-944.3" font-family="Arial" font-size="19.00" fill="#ffffff">[Container: Python argparse]</text>
<text text-anchor="start" x="143.5" y="-907.3" font-family="Arial" font-size="24.00" fill="#ffffff">Command&#45;line interface for</text>
<text text-anchor="start" x="126.5" y="-883.3" font-family="Arial" font-size="24.00" fill="#ffffff">serving the daemon, migration</text>
<text text-anchor="start" x="209" y="-859.3" font-family="Arial" font-size="24.00" fill="#ffffff">check/execute,</text>
<text text-anchor="start" x="62" y="-835.3" font-family="Arial" font-size="24.00" fill="#ffffff">health/doctor/search/recent/timeline/detail,</text>
<text text-anchor="start" x="177" y="-811.3" font-family="Arial" font-size="24.00" fill="#ffffff">policy/forget, capture</text>
<text text-anchor="start" x="145" y="-787.3" font-family="Arial" font-size="24.00" fill="#ffffff">fixtures, media worker, and</text>
<text text-anchor="start" x="157.5" y="-763.3" font-family="Arial" font-size="24.00" fill="#ffffff">media cache operations.</text>
</g>
<!-- 27&#45;&gt;14 -->
<g id="41" class="edge">
<title>27&#45;&gt;14</title>
<path fill="none" stroke="#444444" stroke-dasharray="5,2" d="M547.16,-875C654.39,-875 778.35,-875 883.82,-875"/>
<polygon fill="#444444" stroke="#444444" points="883.97,-878.5 893.97,-875 883.97,-871.5 883.97,-878.5"/>
<text text-anchor="start" x="583" y="-947.8" font-family="Arial" font-size="24.00" fill="#444444">Calls health, read, admin,</text>
<text text-anchor="start" x="615.5" y="-923.8" font-family="Arial" font-size="24.00" fill="#444444">capture&#45;fixture, and</text>
<text text-anchor="start" x="644.5" y="-899.8" font-family="Arial" font-size="24.00" fill="#444444">forget APIs on</text>
<text text-anchor="start" x="662.5" y="-879.8" font-family="Arial" font-size="19.00" fill="#444444">[HTTP/JSON]</text>
</g>
<!-- 27&#45;&gt;28 -->
<g id="42" class="edge">
<title>27&#45;&gt;28</title>
<path fill="none" stroke="#444444" stroke-dasharray="5,2" d="M509.67,-735.37C620.69,-670.81 760.11,-599.06 894,-556 1178.7,-464.43 1524.94,-431.09 1740.96,-418.95"/>
<polygon fill="#444444" stroke="#444444" points="1741.36,-422.43 1751.15,-418.39 1740.97,-415.44 1741.36,-422.43"/>
<text text-anchor="start" x="1040" y="-652.8" font-family="Arial" font-size="24.00" fill="#444444">Runs migration,</text>
<text text-anchor="start" x="1025" y="-628.8" font-family="Arial" font-size="24.00" fill="#444444">media&#45;worker, and</text>
<text text-anchor="start" x="992.5" y="-604.8" font-family="Arial" font-size="24.00" fill="#444444">media&#45;cache commands</text>
<text text-anchor="start" x="1085.5" y="-580.8" font-family="Arial" font-size="24.00" fill="#444444">against</text>
<text text-anchor="start" x="1091.5" y="-560.8" font-family="Arial" font-size="19.00" fill="#444444">[sqlite3]</text>
</g>
<!-- 27&#45;&gt;30 -->
<g id="43" class="edge">
<title>27&#45;&gt;30</title>
<path fill="none" stroke="#444444" stroke-dasharray="5,2" d="M547.19,-971.21C559.28,-975.57 571.27,-979.85 583,-984 940.39,-1110.3 1022.92,-1167.63 1392,-1254 1498.52,-1278.93 1618.54,-1296.8 1719.73,-1309.01"/>
<polygon fill="#444444" stroke="#444444" points="1719.43,-1312.5 1729.78,-1310.21 1720.26,-1305.55 1719.43,-1312.5"/>
<text text-anchor="start" x="1002" y="-1290.8" font-family="Arial" font-size="24.00" fill="#444444">Purges and rehydrates</text>
<text text-anchor="start" x="1015" y="-1266.8" font-family="Arial" font-size="24.00" fill="#444444">media blobs through</text>
<text text-anchor="start" x="1073.5" y="-1246.8" font-family="Arial" font-size="19.00" fill="#444444">[Filesystem]</text>
</g>
</g>
</svg>
