<?xml version="1.0" encoding="UTF-8" standalone="no"?>
<!DOCTYPE svg PUBLIC "-//W3C//DTD SVG 1.1//EN"
 "http://www.w3.org/Graphics/SVG/1.1/DTD/svg11.dtd">
<!-- Generated by graphviz version 2.43.0 (0)
 -->
<!-- Title: %3 Pages: 1 -->
<svg width="2387pt" height="1665pt"
 viewBox="0.00 0.00 2387.00 1665.19" xmlns="http://www.w3.org/2000/svg" xmlns:xlink="http://www.w3.org/1999/xlink">
<g id="graph0" class="graph" transform="scale(1 1) rotate(0) translate(4 1661.19)">
<title>%3</title>
<polygon fill="white" stroke="transparent" points="-4,4 -4,-1661.19 2383,-1661.19 2383,4 -4,4"/>
<text text-anchor="start" x="631.5" y="-11.8" font-family="Arial" font-size="34.00">Browser Memory Daemon &#45; WSL Loopback HTTP Daemon &#45; Components</text>
<g id="clust1" class="cluster">
<title>cluster_22</title>
<polygon fill="none" stroke="#444444" points="8,-64 8,-503 1498,-503 1498,-64 8,-64"/>
<text text-anchor="start" x="587.5" y="-92.8" font-family="Arial" font-size="24.00" fill="#444444">WSL Loopback HTTP Daemon</text>
<text text-anchor="start" x="551" y="-72.8" font-family="Arial" font-size="19.00" fill="#444444">[Container: Python 3.11, ThreadingHTTPServer]</text>
</g>
<!-- 47 -->
<g id="47" class="node">
<title>47</title>
<polygon fill="#438dd5" stroke="#2e6295" points="539.5,-1151.5 159.5,-1151.5 159.5,-944.5 539.5,-944.5 539.5,-1151.5"/>
<text text-anchor="start" x="322.5" y="-1103.3" font-family="Arial" font-size="34.00" fill="#ffffff">CLI</text>
<text text-anchor="start" x="228.5" y="-1081.3" font-family="Arial" font-size="19.00" fill="#ffffff">[Container: Python argparse]</text>
<text text-anchor="start" x="203" y="-1044.3" font-family="Arial" font-size="24.00" fill="#ffffff">Command&#45;line interface for</text>
<text text-anchor="start" x="188.5" y="-1020.3" font-family="Arial" font-size="24.00" fill="#ffffff">serving/admin operations plus</text>
<text text-anchor="start" x="203.5" y="-996.3" font-family="Arial" font-size="24.00" fill="#ffffff">standalone mutation&#45;free X</text>
<text text-anchor="start" x="246" y="-972.3" font-family="Arial" font-size="24.00" fill="#ffffff">observation export.</text>
</g>
<!-- 49 -->
<g id="49" class="node">
<title>49</title>
<path fill="#2f95c8" stroke="#20688c" d="M1452.5,-871.22C1452.5,-889.51 1369.58,-904.38 1267.5,-904.38 1165.42,-904.38 1082.5,-889.51 1082.5,-871.22 1082.5,-871.22 1082.5,-572.78 1082.5,-572.78 1082.5,-554.49 1165.42,-539.62 1267.5,-539.62 1369.58,-539.62 1452.5,-554.49 1452.5,-572.78 1452.5,-572.78 1452.5,-871.22 1452.5,-871.22"/>
<path fill="none" stroke="#20688c" d="M1452.5,-871.22C1452.5,-852.92 1369.58,-838.06 1267.5,-838.06 1165.42,-838.06 1082.5,-852.92 1082.5,-871.22"/>
<text text-anchor="start" x="1154.5" y="-806.3" font-family="Arial" font-size="34.00" fill="#ffffff">SQLite + FTS5</text>
<text text-anchor="start" x="1194.5" y="-772.3" font-family="Arial" font-size="34.00" fill="#ffffff">Database</text>
<text text-anchor="start" x="1141.5" y="-750.3" font-family="Arial" font-size="19.00" fill="#ffffff">[Container: SQLite with FTS5]</text>
<text text-anchor="start" x="1148" y="-713.3" font-family="Arial" font-size="24.00" fill="#ffffff">Durable text/metadata</text>
<text text-anchor="start" x="1116.5" y="-689.3" font-family="Arial" font-size="24.00" fill="#ffffff">authority including migration</text>
<text text-anchor="start" x="1111.5" y="-665.3" font-family="Arial" font-size="24.00" fill="#ffffff">ledger, capture observations,</text>
<text text-anchor="start" x="1121.5" y="-641.3" font-family="Arial" font-size="24.00" fill="#ffffff">and immutable observation</text>
<text text-anchor="start" x="1169.5" y="-617.3" font-family="Arial" font-size="24.00" fill="#ffffff">ingest sequences.</text>
</g>
<!-- 47&#45;&gt;49 -->
<g id="65" class="edge">
<title>47&#45;&gt;49</title>
<path fill="none" stroke="#707070" stroke-dasharray="5,2" d="M506.8,-944.49C565.98,-909.03 635.2,-871.82 702,-846 821.12,-799.95 961.34,-769.03 1072.23,-749.59"/>
<polygon fill="#707070" stroke="#707070" points="1072.93,-753.02 1082.18,-747.86 1071.73,-746.13 1072.93,-753.02"/>
<polygon fill="white" stroke="transparent" points="704,-846 704,-993 1024,-993 1024,-846 704,-846"/>
<text text-anchor="start" x="779" y="-970.3" font-family="Arial" font-size="24.00" fill="#707070">Runs migration,</text>
<text text-anchor="start" x="711.5" y="-946.3" font-family="Arial" font-size="24.00" fill="#707070">media&#45;worker, media&#45;cache,</text>
<text text-anchor="start" x="770.5" y="-922.3" font-family="Arial" font-size="24.00" fill="#707070">media&#45;spool, and</text>
<text text-anchor="start" x="708" y="-898.3" font-family="Arial" font-size="24.00" fill="#707070">storage&#45;reconcile commands</text>
<text text-anchor="start" x="824.5" y="-874.3" font-family="Arial" font-size="24.00" fill="#707070">against</text>
<text text-anchor="start" x="830.5" y="-854.3" font-family="Arial" font-size="19.00" fill="#707070">[sqlite3]</text>
</g>
<!-- 50 -->
<g id="50" class="node">
<title>50</title>
<path fill="#2f95c8" stroke="#20688c" d="M2304.5,-1624.22C2304.5,-1642.51 2215.98,-1657.38 2107,-1657.38 1998.02,-1657.38 1909.5,-1642.51 1909.5,-1624.22 1909.5,-1624.22 1909.5,-1325.78 1909.5,-1325.78 1909.5,-1307.49 1998.02,-1292.62 2107,-1292.62 2215.98,-1292.62 2304.5,-1307.49 2304.5,-1325.78 2304.5,-1325.78 2304.5,-1624.22 2304.5,-1624.22"/>
<path fill="none" stroke="#20688c" d="M2304.5,-1624.22C2304.5,-1605.92 2215.98,-1591.06 2107,-1591.06 1998.02,-1591.06 1909.5,-1605.92 1909.5,-1624.22"/>
<text text-anchor="start" x="1985.5" y="-1559.3" font-family="Arial" font-size="34.00" fill="#ffffff">Local Derivative</text>
<text text-anchor="start" x="2066" y="-1525.3" font-family="Arial" font-size="34.00" fill="#ffffff">Store</text>
<text text-anchor="start" x="1967" y="-1503.3" font-family="Arial" font-size="19.00" fill="#ffffff">[Container: WSL local filesystem]</text>
<text text-anchor="start" x="1953.5" y="-1466.3" font-family="Arial" font-size="24.00" fill="#ffffff">Reconstructible compatibility</text>
<text text-anchor="start" x="1938.5" y="-1442.3" font-family="Arial" font-size="24.00" fill="#ffffff">evidence such as pre&#45;version&#45;9</text>
<text text-anchor="start" x="1977" y="-1418.3" font-family="Arial" font-size="24.00" fill="#ffffff">clean&#45;text sidecars; new</text>
<text text-anchor="start" x="1983.5" y="-1394.3" font-family="Arial" font-size="24.00" fill="#ffffff">captures create no text</text>
<text text-anchor="start" x="2058.5" y="-1370.3" font-family="Arial" font-size="24.00" fill="#ffffff">sidecars.</text>
</g>
<!-- 47&#45;&gt;50 -->
<g id="173" class="edge">
<title>47&#45;&gt;50</title>
<path fill="none" stroke="#707070" stroke-dasharray="5,2" d="M492.44,-1151.53C554.53,-1193.42 629.61,-1239.65 702,-1273 1097.2,-1455.06 1615.7,-1482.03 1899.03,-1481.27"/>
<polygon fill="#707070" stroke="#707070" points="1899.44,-1484.77 1909.43,-1481.23 1899.41,-1477.77 1899.44,-1484.77"/>
<polygon fill="white" stroke="transparent" points="1149,-1462 1149,-1561 1386,-1561 1386,-1462 1149,-1462"/>
<text text-anchor="start" x="1176" y="-1538.3" font-family="Arial" font-size="24.00" fill="#707070">Optionally copies</text>
<text text-anchor="start" x="1153.5" y="-1514.3" font-family="Arial" font-size="24.00" fill="#707070">referenced contained</text>
<text text-anchor="start" x="1182" y="-1490.3" font-family="Arial" font-size="24.00" fill="#707070">derivatives from</text>
<text text-anchor="start" x="1216.5" y="-1470.3" font-family="Arial" font-size="19.00" fill="#707070">[Filesystem]</text>
</g>
<!-- 51 -->
<g id="51" class="node">
<title>51</title>
<path fill="#2f95c8" stroke="#20688c" d="M2379,-1159.22C2379,-1180.82 2257.09,-1198.38 2107,-1198.38 1956.91,-1198.38 1835,-1180.82 1835,-1159.22 1835,-1159.22 1835,-806.78 1835,-806.78 1835,-785.18 1956.91,-767.62 2107,-767.62 2257.09,-767.62 2379,-785.18 2379,-806.78 2379,-806.78 2379,-1159.22 2379,-1159.22"/>
<path fill="none" stroke="#20688c" d="M2379,-1159.22C2379,-1137.61 2257.09,-1120.06 2107,-1120.06 1956.91,-1120.06 1835,-1137.61 1835,-1159.22"/>
<text text-anchor="start" x="1951.5" y="-1091.3" font-family="Arial" font-size="34.00" fill="#ffffff">Guarded Media Blob</text>
<text text-anchor="start" x="2057.5" y="-1057.3" font-family="Arial" font-size="34.00" fill="#ffffff">Cache</text>
<text text-anchor="start" x="1864" y="-1035.3" font-family="Arial" font-size="19.00" fill="#ffffff">[Container: WSL&#45;visible local or NAS&#45;mounted filesystem]</text>
<text text-anchor="start" x="1997" y="-998.3" font-family="Arial" font-size="24.00" fill="#ffffff">Bounded disposable</text>
<text text-anchor="start" x="1941.5" y="-974.3" font-family="Arial" font-size="24.00" fill="#ffffff">image/video/audio bytes under</text>
<text text-anchor="start" x="1965.5" y="-950.3" font-family="Arial" font-size="24.00" fill="#ffffff">the configured media root;</text>
<text text-anchor="start" x="1993" y="-926.3" font-family="Arial" font-size="24.00" fill="#ffffff">explicit external roots</text>
<text text-anchor="start" x="2008" y="-902.3" font-family="Arial" font-size="24.00" fill="#ffffff">require mount and</text>
<text text-anchor="start" x="1957.5" y="-878.3" font-family="Arial" font-size="24.00" fill="#ffffff">identity&#45;marker proof before</text>
<text text-anchor="start" x="2066" y="-854.3" font-family="Arial" font-size="24.00" fill="#ffffff">access.</text>
</g>
<!-- 47&#45;&gt;51 -->
<g id="68" class="edge">
<title>47&#45;&gt;51</title>
<path fill="none" stroke="#707070" stroke-dasharray="5,2" d="M539.69,-1123.89C821.87,-1225.51 1366.16,-1376.57 1799,-1226 1823.62,-1217.43 1847.76,-1205.98 1871,-1192.7"/>
<polygon fill="#707070" stroke="#707070" points="1872.99,-1195.59 1879.86,-1187.52 1869.46,-1189.55 1872.99,-1195.59"/>
<polygon fill="white" stroke="transparent" points="1140.5,-1289 1140.5,-1364 1394.5,-1364 1394.5,-1289 1140.5,-1289"/>
<text text-anchor="start" x="1144.5" y="-1341.3" font-family="Arial" font-size="24.00" fill="#707070">Purges and rehydrates</text>
<text text-anchor="start" x="1157.5" y="-1317.3" font-family="Arial" font-size="24.00" fill="#707070">media blobs through</text>
<text text-anchor="start" x="1216" y="-1297.3" font-family="Arial" font-size="19.00" fill="#707070">[Filesystem]</text>
</g>
<!-- 52 -->
<g id="52" class="node">
<title>52</title>
<path fill="#2f95c8" stroke="#20688c" d="M2300,-608.72C2300,-631.98 2213.49,-650.88 2107,-650.88 2000.51,-650.88 1914,-631.98 1914,-608.72 1914,-608.72 1914,-229.28 1914,-229.28 1914,-206.02 2000.51,-187.12 2107,-187.12 2213.49,-187.12 2300,-206.02 2300,-229.28 2300,-229.28 2300,-608.72 2300,-608.72"/>
<path fill="none" stroke="#20688c" d="M2300,-608.72C2300,-585.45 2213.49,-566.56 2107,-566.56 2000.51,-566.56 1914,-585.45 1914,-608.72"/>
<text text-anchor="start" x="1943" y="-539.3" font-family="Arial" font-size="34.00" fill="#ffffff">Bounded Local Media</text>
<text text-anchor="start" x="2063.5" y="-505.3" font-family="Arial" font-size="34.00" fill="#ffffff">Spool</text>
<text text-anchor="start" x="1967" y="-483.3" font-family="Arial" font-size="19.00" fill="#ffffff">[Container: WSL local filesystem]</text>
<text text-anchor="start" x="1955" y="-446.3" font-family="Arial" font-size="24.00" fill="#ffffff">Opt&#45;in durable outage buffer</text>
<text text-anchor="start" x="1958.5" y="-422.3" font-family="Arial" font-size="24.00" fill="#ffffff">beneath the local WSL data</text>
<text text-anchor="start" x="1985.5" y="-398.3" font-family="Arial" font-size="24.00" fill="#ffffff">root; admission counts</text>
<text text-anchor="start" x="1961.5" y="-374.3" font-family="Arial" font-size="24.00" fill="#ffffff">committed files and distinct</text>
<text text-anchor="start" x="1955" y="-350.3" font-family="Arial" font-size="24.00" fill="#ffffff">in&#45;flight SQLite reservations,</text>
<text text-anchor="start" x="1982" y="-326.3" font-family="Arial" font-size="24.00" fill="#ffffff">and drain verifies bytes</text>
<text text-anchor="start" x="1959.5" y="-302.3" font-family="Arial" font-size="24.00" fill="#ffffff">before tier transition/source</text>
<text text-anchor="start" x="2061" y="-278.3" font-family="Arial" font-size="24.00" fill="#ffffff">cleanup.</text>
</g>
<!-- 47&#45;&gt;52 -->
<g id="69" class="edge">
<title>47&#45;&gt;52</title>
<path fill="none" stroke="#707070" stroke-dasharray="5,2" d="M539.59,-1085.49C849.37,-1134.82 1463.96,-1179.97 1799,-846 1836.63,-808.49 1809.07,-778.38 1835,-732 1855.46,-695.41 1880.66,-659.24 1907.38,-625.21"/>
<polygon fill="#707070" stroke="#707070" points="1910.37,-627.08 1913.84,-617.06 1904.88,-622.73 1910.37,-627.08"/>
<polygon fill="white" stroke="transparent" points="1110,-1116 1110,-1191 1425,-1191 1425,-1116 1110,-1116"/>
<text text-anchor="start" x="1114.5" y="-1168.3" font-family="Arial" font-size="24.00" fill="#707070">Reports and drains bounded</text>
<text text-anchor="start" x="1153.5" y="-1144.3" font-family="Arial" font-size="24.00" fill="#707070">outage bytes through</text>
<text text-anchor="start" x="1216.5" y="-1124.3" font-family="Arial" font-size="19.00" fill="#707070">[Filesystem]</text>
</g>
<!-- 40 -->
<g id="40" class="node">
<title>40</title>
<polygon fill="#85bbf0" stroke="#1168bd" points="666,-477.5 33,-477.5 33,-164.5 666,-164.5 666,-477.5"/>
<text text-anchor="start" x="211" y="-429.3" font-family="Arial" font-size="34.00" fill="#000000">Blob Lifecycle and</text>
<text text-anchor="start" x="205" y="-395.3" font-family="Arial" font-size="34.00" fill="#000000">Storage Reconciler</text>
<text text-anchor="start" x="168" y="-373.3" font-family="Arial" font-size="19.00" fill="#000000">[Component: Python + sqlite3 + filesystem]</text>
<text text-anchor="start" x="306.5" y="-336.3" font-family="Arial" font-size="24.00" fill="#000000">Persists</text>
<text text-anchor="start" x="62" y="-312.3" font-family="Arial" font-size="24.00" fill="#000000">committed/tombstoned/missing/deleted/blocked/failed</text>
<text text-anchor="start" x="239.5" y="-288.3" font-family="Arial" font-size="24.00" fill="#000000">blob state; serializes</text>
<text text-anchor="start" x="203.5" y="-264.3" font-family="Arial" font-size="24.00" fill="#000000">deletion processors; retries</text>
<text text-anchor="start" x="217.5" y="-240.3" font-family="Arial" font-size="24.00" fill="#000000">tombstones; and dry&#45;run</text>
<text text-anchor="start" x="201" y="-216.3" font-family="Arial" font-size="24.00" fill="#000000">detects missing refs, in&#45;root</text>
<text text-anchor="start" x="207" y="-192.3" font-family="Arial" font-size="24.00" fill="#000000">orphans, and stale stages.</text>
</g>
<!-- 47&#45;&gt;40 -->
<g id="66" class="edge">
<title>47&#45;&gt;40</title>
<path fill="none" stroke="#707070" stroke-dasharray="5,2" d="M349.5,-944.37C349.5,-825.38 349.5,-628.54 349.5,-487.88"/>
<polygon fill="#707070" stroke="#707070" points="353,-487.85 349.5,-477.85 346,-487.85 353,-487.85"/>
<polygon fill="white" stroke="transparent" points="184.5,-668 184.5,-754 422.5,-754 422.5,-668 184.5,-668"/>
<text text-anchor="start" x="188.5" y="-730.8" font-family="Arial" font-size="24.00" fill="#707070">Previews or executes</text>
<text text-anchor="start" x="207" y="-704.8" font-family="Arial" font-size="24.00" fill="#707070">contained storage</text>
<text text-anchor="start" x="189" y="-678.8" font-family="Arial" font-size="24.00" fill="#707070">convergence through</text>
</g>
<!-- 39 -->
<g id="39" class="node">
<title>39</title>
<polygon fill="#85bbf0" stroke="#1168bd" points="1473,-467.5 1062,-467.5 1062,-164.5 1473,-164.5 1473,-467.5"/>
<text text-anchor="start" x="1111" y="-419.3" font-family="Arial" font-size="34.00" fill="#000000">Contained BlobStore</text>
<text text-anchor="start" x="1091" y="-397.3" font-family="Arial" font-size="19.00" fill="#000000">[Component: Python filesystem boundary]</text>
<text text-anchor="start" x="1115" y="-360.3" font-family="Arial" font-size="24.00" fill="#000000">Prefers root&#45;relative locators</text>
<text text-anchor="start" x="1151.5" y="-336.3" font-family="Arial" font-size="24.00" fill="#000000">with contained legacy</text>
<text text-anchor="start" x="1136.5" y="-312.3" font-family="Arial" font-size="24.00" fill="#000000">fallback; streams unique</text>
<text text-anchor="start" x="1152.5" y="-288.3" font-family="Arial" font-size="24.00" fill="#000000">stages with size/hash</text>
<text text-anchor="start" x="1148.5" y="-264.3" font-family="Arial" font-size="24.00" fill="#000000">accounting; atomically</text>
<text text-anchor="start" x="1120.5" y="-240.3" font-family="Arial" font-size="24.00" fill="#000000">commits; and contains blob</text>
<text text-anchor="start" x="1153" y="-216.3" font-family="Arial" font-size="24.00" fill="#000000">read, stat, and delete</text>
<text text-anchor="start" x="1207" y="-192.3" font-family="Arial" font-size="24.00" fill="#000000">operations.</text>
</g>
<!-- 39&#45;&gt;50 -->
<g id="162" class="edge">
<title>39&#45;&gt;50</title>
<path fill="none" stroke="#707070" stroke-dasharray="5,2" d="M1473.06,-464.15C1482.64,-476.73 1491.11,-490.03 1498,-504 1514.82,-538.1 1495.41,-810.49 1509,-846 1589.49,-1056.36 1677.99,-1072.52 1835,-1234 1856.39,-1256 1879.45,-1278.35 1902.78,-1300.13"/>
<polygon fill="#707070" stroke="#707070" points="1900.65,-1302.93 1910.36,-1307.18 1905.42,-1297.8 1900.65,-1302.93"/>
<polygon fill="white" stroke="transparent" points="1518,-1197 1518,-1296 1790,-1296 1790,-1197 1518,-1197"/>
<text text-anchor="start" x="1522" y="-1273.3" font-family="Arial" font-size="24.00" fill="#707070">Reads, stats, reconciles,</text>
<text text-anchor="start" x="1530" y="-1249.3" font-family="Arial" font-size="24.00" fill="#707070">and deletes legacy text</text>
<text text-anchor="start" x="1596" y="-1225.3" font-family="Arial" font-size="24.00" fill="#707070">sidecars in</text>
<text text-anchor="start" x="1602.5" y="-1205.3" font-family="Arial" font-size="19.00" fill="#707070">[Filesystem]</text>
</g>
<!-- 39&#45;&gt;51 -->
<g id="163" class="edge">
<title>39&#45;&gt;51</title>
<path fill="none" stroke="#707070" stroke-dasharray="5,2" d="M1458.8,-467.56C1573.45,-558.86 1721.01,-676.39 1846.28,-776.15"/>
<polygon fill="#707070" stroke="#707070" points="1844.11,-778.9 1854.11,-782.39 1848.47,-773.43 1844.11,-778.9"/>
<polygon fill="white" stroke="transparent" points="1518.5,-729 1518.5,-828 1789.5,-828 1789.5,-729 1518.5,-729"/>
<text text-anchor="start" x="1524.5" y="-805.3" font-family="Arial" font-size="24.00" fill="#707070">Stages, commits, reads,</text>
<text text-anchor="start" x="1523" y="-781.3" font-family="Arial" font-size="24.00" fill="#707070">stats, and deletes media</text>
<text text-anchor="start" x="1612.5" y="-757.3" font-family="Arial" font-size="24.00" fill="#707070">blobs in</text>
<text text-anchor="start" x="1603" y="-737.3" font-family="Arial" font-size="19.00" fill="#707070">[Filesystem]</text>
</g>
<!-- 39&#45;&gt;52 -->
<g id="164" class="edge">
<title>39&#45;&gt;52</title>
<path fill="none" stroke="#707070" stroke-dasharray="5,2" d="M1473.11,-341.16C1604.07,-357.27 1773.27,-378.08 1903.77,-394.13"/>
<polygon fill="#707070" stroke="#707070" points="1903.54,-397.63 1913.89,-395.37 1904.39,-390.68 1903.54,-397.63"/>
<polygon fill="white" stroke="transparent" points="1509,-380 1509,-479 1799,-479 1799,-380 1509,-380"/>
<text text-anchor="start" x="1524" y="-456.3" font-family="Arial" font-size="24.00" fill="#707070">Stages, commits, reads,</text>
<text text-anchor="start" x="1513" y="-432.3" font-family="Arial" font-size="24.00" fill="#707070">stats, and deletes spooled</text>
<text text-anchor="start" x="1608" y="-408.3" font-family="Arial" font-size="24.00" fill="#707070">media in</text>
<text text-anchor="start" x="1602.5" y="-388.3" font-family="Arial" font-size="19.00" fill="#707070">[Filesystem]</text>
</g>
<!-- 40&#45;&gt;49 -->
<g id="160" class="edge">
<title>40&#45;&gt;49</title>
<path fill="none" stroke="#707070" stroke-dasharray="5,2" d="M666.06,-459.14C801.19,-518.3 954.7,-585.5 1072.68,-637.15"/>
<polygon fill="#707070" stroke="#707070" points="1071.62,-640.51 1082.18,-641.31 1074.43,-634.09 1071.62,-640.51"/>
<polygon fill="white" stroke="transparent" points="702,-615 702,-690 1026,-690 1026,-615 702,-615"/>
<text text-anchor="start" x="706" y="-667.3" font-family="Arial" font-size="24.00" fill="#707070">Reads and advances durable</text>
<text text-anchor="start" x="738" y="-643.3" font-family="Arial" font-size="24.00" fill="#707070">blob lifecycle records in</text>
<text text-anchor="start" x="830.5" y="-623.3" font-family="Arial" font-size="19.00" fill="#707070">[sqlite3]</text>
</g>
<!-- 40&#45;&gt;39 -->
<g id="161" class="edge">
<title>40&#45;&gt;39</title>
<path fill="none" stroke="#707070" stroke-dasharray="5,2" d="M666.06,-319.28C793.25,-318.58 936.73,-317.8 1051.53,-317.17"/>
<polygon fill="#707070" stroke="#707070" points="1051.86,-320.67 1061.84,-317.12 1051.82,-313.67 1051.86,-320.67"/>
<polygon fill="white" stroke="transparent" points="737.5,-319 737.5,-405 990.5,-405 990.5,-319 737.5,-319"/>
<text text-anchor="start" x="742" y="-381.8" font-family="Arial" font-size="24.00" fill="#707070">Resolves, deletes, and</text>
<text text-anchor="start" x="750" y="-355.8" font-family="Arial" font-size="24.00" fill="#707070">inventories contained</text>
<text text-anchor="start" x="790.5" y="-329.8" font-family="Arial" font-size="24.00" fill="#707070">bytes through</text>
</g>
</g>
</svg>
