<?xml version="1.0" encoding="UTF-8" standalone="no"?>
<!DOCTYPE svg PUBLIC "-//W3C//DTD SVG 1.1//EN"
 "http://www.w3.org/Graphics/SVG/1.1/DTD/svg11.dtd">
<!-- Generated by graphviz version 2.43.0 (0)
 -->
<!-- Title: %3 Pages: 1 -->
<svg width="2688pt" height="581pt"
 viewBox="0.00 0.00 2688.00 581.00" xmlns="http://www.w3.org/2000/svg" xmlns:xlink="http://www.w3.org/1999/xlink">
<g id="graph0" class="graph" transform="scale(1 1) rotate(0) translate(4 577)">
<title>%3</title>
<polygon fill="white" stroke="transparent" points="-4,4 -4,-577 2684,-577 2684,4 -4,4"/>
<text text-anchor="start" x="782" y="-11.8" font-family="Arial" font-size="34.00">Browser Memory Daemon &#45; WSL Loopback HTTP Daemon &#45; Components</text>
<g id="clust1" class="cluster">
<title>cluster_22</title>
<polygon fill="none" stroke="#444444" points="8,-64 8,-565 2000,-565 2000,-64 8,-64"/>
<text text-anchor="start" x="838.5" y="-92.8" font-family="Arial" font-size="24.00" fill="#444444">WSL Loopback HTTP Daemon</text>
<text text-anchor="start" x="802" y="-72.8" font-family="Arial" font-size="19.00" fill="#444444">[Container: Python 3.11, ThreadingHTTPServer]</text>
</g>
<!-- 49 -->
<g id="49" class="node">
<title>49</title>
<path fill="#2f95c8" stroke="#20688c" d="M2680,-501.22C2680,-519.51 2597.08,-534.38 2495,-534.38 2392.92,-534.38 2310,-519.51 2310,-501.22 2310,-501.22 2310,-202.78 2310,-202.78 2310,-184.49 2392.92,-169.62 2495,-169.62 2597.08,-169.62 2680,-184.49 2680,-202.78 2680,-202.78 2680,-501.22 2680,-501.22"/>
<path fill="none" stroke="#20688c" d="M2680,-501.22C2680,-482.92 2597.08,-468.06 2495,-468.06 2392.92,-468.06 2310,-482.92 2310,-501.22"/>
<text text-anchor="start" x="2382" y="-436.3" font-family="Arial" font-size="34.00" fill="#ffffff">SQLite + FTS5</text>
<text text-anchor="start" x="2422" y="-402.3" font-family="Arial" font-size="34.00" fill="#ffffff">Database</text>
<text text-anchor="start" x="2369" y="-380.3" font-family="Arial" font-size="19.00" fill="#ffffff">[Container: SQLite with FTS5]</text>
<text text-anchor="start" x="2375.5" y="-343.3" font-family="Arial" font-size="24.00" fill="#ffffff">Durable text/metadata</text>
<text text-anchor="start" x="2344" y="-319.3" font-family="Arial" font-size="24.00" fill="#ffffff">authority including migration</text>
<text text-anchor="start" x="2339" y="-295.3" font-family="Arial" font-size="24.00" fill="#ffffff">ledger, capture observations,</text>
<text text-anchor="start" x="2349" y="-271.3" font-family="Arial" font-size="24.00" fill="#ffffff">and immutable observation</text>
<text text-anchor="start" x="2397" y="-247.3" font-family="Arial" font-size="24.00" fill="#ffffff">ingest sequences.</text>
</g>
<!-- 23 -->
<g id="23" class="node">
<title>23</title>
<polygon fill="#85bbf0" stroke="#1168bd" points="527,-539.5 33,-539.5 33,-164.5 527,-164.5 527,-539.5"/>
<text text-anchor="start" x="111.5" y="-491.3" font-family="Arial" font-size="34.00" fill="#000000">HTTP Request Router</text>
<text text-anchor="start" x="62" y="-469.3" font-family="Arial" font-size="19.00" fill="#000000">[Component: Python http.server + route descriptors]</text>
<text text-anchor="start" x="92.5" y="-432.3" font-family="Arial" font-size="24.00" fill="#000000">Adapts BaseHTTPRequestHandler</text>
<text text-anchor="start" x="129.5" y="-408.3" font-family="Arial" font-size="24.00" fill="#000000">requests through immutable</text>
<text text-anchor="start" x="125" y="-384.3" font-family="Arial" font-size="24.00" fill="#000000">method/path descriptors with</text>
<text text-anchor="start" x="119.5" y="-360.3" font-family="Arial" font-size="24.00" fill="#000000">static precedence; owns auth,</text>
<text text-anchor="start" x="174.5" y="-336.3" font-family="Arial" font-size="24.00" fill="#000000">parsing, compatible</text>
<text text-anchor="start" x="155.5" y="-312.3" font-family="Arial" font-size="24.00" fill="#000000">status/error responses,</text>
<text text-anchor="start" x="119.5" y="-288.3" font-family="Arial" font-size="24.00" fill="#000000">request IDs, common security</text>
<text text-anchor="start" x="152" y="-264.3" font-family="Arial" font-size="24.00" fill="#000000">headers, redaction&#45;safe</text>
<text text-anchor="start" x="123.5" y="-240.3" font-family="Arial" font-size="24.00" fill="#000000">telemetry, bounded response</text>
<text text-anchor="start" x="113" y="-216.3" font-family="Arial" font-size="24.00" fill="#000000">streaming, disconnect cleanup,</text>
<text text-anchor="start" x="132.5" y="-192.3" font-family="Arial" font-size="24.00" fill="#000000">CORS, and finite UI assets.</text>
</g>
<!-- 24 -->
<g id="24" class="node">
<title>24</title>
<polygon fill="#85bbf0" stroke="#1168bd" points="1277,-527.5 876,-527.5 876,-176.5 1277,-176.5 1277,-527.5"/>
<text text-anchor="start" x="905" y="-479.3" font-family="Arial" font-size="34.00" fill="#000000">Application Use Cases</text>
<text text-anchor="start" x="987.5" y="-457.3" font-family="Arial" font-size="19.00" fill="#000000">[Component: Python]</text>
<text text-anchor="start" x="914.5" y="-420.3" font-family="Arial" font-size="24.00" fill="#000000">Provides request&#45;independent</text>
<text text-anchor="start" x="951.5" y="-396.3" font-family="Arial" font-size="24.00" fill="#000000">capture, lifecycle, read,</text>
<text text-anchor="start" x="941.5" y="-372.3" font-family="Arial" font-size="24.00" fill="#000000">forget, policy, doctor, and</text>
<text text-anchor="start" x="950.5" y="-348.3" font-family="Arial" font-size="24.00" fill="#000000">media use cases; owns</text>
<text text-anchor="start" x="947.5" y="-324.3" font-family="Arial" font-size="24.00" fill="#000000">database&#45;ready checks,</text>
<text text-anchor="start" x="920.5" y="-300.3" font-family="Arial" font-size="24.00" fill="#000000">transaction/audit boundaries,</text>
<text text-anchor="start" x="924" y="-276.3" font-family="Arial" font-size="24.00" fill="#000000">asynchronous media kickoff,</text>
<text text-anchor="start" x="910.5" y="-252.3" font-family="Arial" font-size="24.00" fill="#000000">and upload/download resource</text>
<text text-anchor="start" x="911.5" y="-228.3" font-family="Arial" font-size="24.00" fill="#000000">leases without importing HTTP</text>
<text text-anchor="start" x="932.5" y="-204.3" font-family="Arial" font-size="24.00" fill="#000000">request or response types.</text>
</g>
<!-- 23&#45;&gt;24 -->
<g id="115" class="edge">
<title>23&#45;&gt;24</title>
<path fill="none" stroke="#707070" stroke-dasharray="5,2" d="M527.22,-352C635.59,-352 761.59,-352 865.45,-352"/>
<polygon fill="#707070" stroke="#707070" points="865.75,-355.5 875.75,-352 865.75,-348.5 865.75,-355.5"/>
<polygon fill="white" stroke="transparent" points="563,-352 563,-438 840,-438 840,-352 563,-352"/>
<text text-anchor="start" x="620" y="-414.8" font-family="Arial" font-size="24.00" fill="#707070">Invokes explicit</text>
<text text-anchor="start" x="567.5" y="-388.8" font-family="Arial" font-size="24.00" fill="#707070">request&#45;independent use</text>
<text text-anchor="start" x="625.5" y="-362.8" font-family="Arial" font-size="24.00" fill="#707070">cases through</text>
</g>
<!-- 29 -->
<g id="29" class="node">
<title>29</title>
<polygon fill="#85bbf0" stroke="#1168bd" points="1975,-479.5 1618,-479.5 1618,-224.5 1975,-224.5 1975,-479.5"/>
<text text-anchor="start" x="1665" y="-431.3" font-family="Arial" font-size="34.00" fill="#000000">Lifecycle Pipeline</text>
<text text-anchor="start" x="1668.5" y="-409.3" font-family="Arial" font-size="19.00" fill="#000000">[Component: Python + sqlite3]</text>
<text text-anchor="start" x="1647" y="-372.3" font-family="Arial" font-size="24.00" fill="#000000">Stores claimed/resolved tab</text>
<text text-anchor="start" x="1651.5" y="-348.3" font-family="Arial" font-size="24.00" fill="#000000">lifecycle identity, reconciles</text>
<text text-anchor="start" x="1649.5" y="-324.3" font-family="Arial" font-size="24.00" fill="#000000">delayed captures, validates</text>
<text text-anchor="start" x="1647" y="-300.3" font-family="Arial" font-size="24.00" fill="#000000">active intervals, and derives</text>
<text text-anchor="start" x="1674.5" y="-276.3" font-family="Arial" font-size="24.00" fill="#000000">visit dwell from interval</text>
<text text-anchor="start" x="1757" y="-252.3" font-family="Arial" font-size="24.00" fill="#000000">unions.</text>
</g>
<!-- 24&#45;&gt;29 -->
<g id="121" class="edge">
<title>24&#45;&gt;29</title>
<path fill="none" stroke="#707070" stroke-dasharray="5,2" d="M1277.03,-352C1380.44,-352 1506.01,-352 1607.67,-352"/>
<polygon fill="#707070" stroke="#707070" points="1607.75,-355.5 1617.75,-352 1607.75,-348.5 1607.75,-355.5"/>
<polygon fill="white" stroke="transparent" points="1313,-352 1313,-412 1582,-412 1582,-352 1313,-352"/>
<text text-anchor="start" x="1317.5" y="-388.8" font-family="Arial" font-size="24.00" fill="#707070">Records lifecycle events</text>
<text text-anchor="start" x="1406.5" y="-362.8" font-family="Arial" font-size="24.00" fill="#707070">through</text>
</g>
<!-- 29&#45;&gt;49 -->
<g id="132" class="edge">
<title>29&#45;&gt;49</title>
<path fill="none" stroke="#707070" stroke-dasharray="5,2" d="M1975.06,-352C2074.23,-352 2197.93,-352 2299.69,-352"/>
<polygon fill="#707070" stroke="#707070" points="2299.78,-355.5 2309.78,-352 2299.78,-348.5 2299.78,-355.5"/>
<polygon fill="white" stroke="transparent" points="2011,-352 2011,-451 2274,-451 2274,-352 2011,-352"/>
<text text-anchor="start" x="2021" y="-428.3" font-family="Arial" font-size="24.00" fill="#707070">Writes lifecycle identity</text>
<text text-anchor="start" x="2015.5" y="-404.3" font-family="Arial" font-size="24.00" fill="#707070">and interval&#45;union dwell</text>
<text text-anchor="start" x="2132.5" y="-380.3" font-family="Arial" font-size="24.00" fill="#707070">to</text>
<text text-anchor="start" x="2109.5" y="-360.3" font-family="Arial" font-size="19.00" fill="#707070">[sqlite3]</text>
</g>
</g>
</svg>
