<?xml version="1.0" encoding="UTF-8" standalone="no"?>
<!DOCTYPE svg PUBLIC "-//W3C//DTD SVG 1.1//EN"
 "http://www.w3.org/Graphics/SVG/1.1/DTD/svg11.dtd">
<!-- Generated by graphviz version 2.43.0 (0)
 -->
<!-- Title: %3 Pages: 1 -->
<svg width="2034pt" height="778pt"
 viewBox="0.00 0.00 2034.00 778.00" xmlns="http://www.w3.org/2000/svg" xmlns:xlink="http://www.w3.org/1999/xlink">
<g id="graph0" class="graph" transform="scale(1 1) rotate(0) translate(4 774)">
<title>%3</title>
<polygon fill="white" stroke="transparent" points="-4,4 -4,-774 2030,-774 2030,4 -4,4"/>
<text text-anchor="start" x="428" y="-11.8" font-family="Arial" font-size="34.00">Component View: Browser Memory Daemon &#45; WSL Loopback HTTP Daemon</text>
<g id="clust1" class="cluster">
<title>cluster_4</title>
<polygon fill="none" stroke="#444444" points="8,-64 8,-762 2018,-762 2018,-64 8,-64"/>
<text text-anchor="start" x="872" y="-92.8" font-family="Arial" font-size="24.00" fill="#444444">Browser Memory Daemon</text>
<text text-anchor="start" x="936" y="-72.8" font-family="Arial" font-size="19.00" fill="#444444">[Software System]</text>
</g>
<g id="clust2" class="cluster">
<title>cluster_22</title>
<polygon fill="none" stroke="#444444" points="33,-164 33,-737 1288,-737 1288,-164 33,-164"/>
<text text-anchor="start" x="495" y="-192.8" font-family="Arial" font-size="24.00" fill="#444444">WSL Loopback HTTP Daemon</text>
<text text-anchor="start" x="458.5" y="-172.8" font-family="Arial" font-size="19.00" fill="#444444">[Container: Python 3.11, ThreadingHTTPServer]</text>
</g>
<!-- 23 -->
<g id="23" class="node">
<title>23</title>
<polygon fill="#85bbf0" stroke="#1168bd" points="552,-711.5 58,-711.5 58,-264.5 552,-264.5 552,-711.5"/>
<text text-anchor="start" x="136.5" y="-663.3" font-family="Arial" font-size="34.00" fill="#000000">HTTP Request Router</text>
<text text-anchor="start" x="87" y="-641.3" font-family="Arial" font-size="19.00" fill="#000000">[Component: Python http.server + route descriptors]</text>
<text text-anchor="start" x="129" y="-604.3" font-family="Arial" font-size="24.00" fill="#000000">Matches immutable method/path</text>
<text text-anchor="start" x="189" y="-580.3" font-family="Arial" font-size="24.00" fill="#000000">descriptors with static</text>
<text text-anchor="start" x="172" y="-556.3" font-family="Arial" font-size="24.00" fill="#000000">precedence, maps typed</text>
<text text-anchor="start" x="166" y="-532.3" font-family="Arial" font-size="24.00" fill="#000000">compatible errors, applies</text>
<text text-anchor="start" x="125.5" y="-508.3" font-family="Arial" font-size="24.00" fill="#000000">opaque request IDs and common</text>
<text text-anchor="start" x="180" y="-484.3" font-family="Arial" font-size="24.00" fill="#000000">security headers, emits</text>
<text text-anchor="start" x="228" y="-460.3" font-family="Arial" font-size="24.00" fill="#000000">redaction&#45;safe</text>
<text text-anchor="start" x="199.5" y="-436.3" font-family="Arial" font-size="24.00" fill="#000000">route/status/latency</text>
<text text-anchor="start" x="156.5" y="-412.3" font-family="Arial" font-size="24.00" fill="#000000">telemetry, streams media in</text>
<text text-anchor="start" x="130" y="-388.3" font-family="Arial" font-size="24.00" fill="#000000">bounded chunks with disconnect</text>
<text text-anchor="start" x="163" y="-364.3" font-family="Arial" font-size="24.00" fill="#000000">cleanup, serves UI assets,</text>
<text text-anchor="start" x="175" y="-340.3" font-family="Arial" font-size="24.00" fill="#000000">enforces bearer auth for</text>
<text text-anchor="start" x="128" y="-316.3" font-family="Arial" font-size="24.00" fill="#000000">memory/admin APIs, and applies</text>
<text text-anchor="start" x="166" y="-292.3" font-family="Arial" font-size="24.00" fill="#000000">CORS for allowed origins.</text>
</g>
<!-- 28 -->
<g id="28" class="node">
<title>28</title>
<polygon fill="#85bbf0" stroke="#1168bd" points="1263,-607.5 906,-607.5 906,-352.5 1263,-352.5 1263,-607.5"/>
<text text-anchor="start" x="953" y="-559.3" font-family="Arial" font-size="34.00" fill="#000000">Lifecycle Pipeline</text>
<text text-anchor="start" x="956.5" y="-537.3" font-family="Arial" font-size="19.00" fill="#000000">[Component: Python + sqlite3]</text>
<text text-anchor="start" x="935" y="-500.3" font-family="Arial" font-size="24.00" fill="#000000">Stores claimed/resolved tab</text>
<text text-anchor="start" x="939.5" y="-476.3" font-family="Arial" font-size="24.00" fill="#000000">lifecycle identity, reconciles</text>
<text text-anchor="start" x="937.5" y="-452.3" font-family="Arial" font-size="24.00" fill="#000000">delayed captures, validates</text>
<text text-anchor="start" x="935" y="-428.3" font-family="Arial" font-size="24.00" fill="#000000">active intervals, and derives</text>
<text text-anchor="start" x="962.5" y="-404.3" font-family="Arial" font-size="24.00" fill="#000000">visit dwell from interval</text>
<text text-anchor="start" x="1045" y="-380.3" font-family="Arial" font-size="24.00" fill="#000000">unions.</text>
</g>
<!-- 23&#45;&gt;28 -->
<g id="117" class="edge">
<title>23&#45;&gt;28</title>
<path fill="none" stroke="#444444" stroke-dasharray="5,2" d="M552.01,-485.47C663.2,-484.32 792.48,-482.99 895.69,-481.93"/>
<polygon fill="#444444" stroke="#444444" points="895.95,-485.43 905.92,-481.83 895.88,-478.43 895.95,-485.43"/>
<polygon fill="white" stroke="transparent" points="588,-484 588,-518 870,-518 870,-484 588,-484"/>
<text text-anchor="start" x="592" y="-494.8" font-family="Arial" font-size="24.00" fill="#444444">Routes lifecycle events to</text>
</g>
<!-- 47 -->
<g id="47" class="node">
<title>47</title>
<path fill="#2f95c8" stroke="#20688c" d="M1993,-686.22C1993,-714.44 1904.48,-737.38 1795.5,-737.38 1686.52,-737.38 1598,-714.44 1598,-686.22 1598,-686.22 1598,-225.78 1598,-225.78 1598,-197.56 1686.52,-174.62 1795.5,-174.62 1904.48,-174.62 1993,-197.56 1993,-225.78 1993,-225.78 1993,-686.22 1993,-686.22"/>
<path fill="none" stroke="#20688c" d="M1993,-686.22C1993,-657.99 1904.48,-635.06 1795.5,-635.06 1686.52,-635.06 1598,-657.99 1598,-686.22"/>
<text text-anchor="start" x="1682.5" y="-612.3" font-family="Arial" font-size="34.00" fill="#ffffff">SQLite + FTS5</text>
<text text-anchor="start" x="1722.5" y="-578.3" font-family="Arial" font-size="34.00" fill="#ffffff">Database</text>
<text text-anchor="start" x="1669.5" y="-556.3" font-family="Arial" font-size="19.00" fill="#ffffff">[Container: SQLite with FTS5]</text>
<text text-anchor="start" x="1627.5" y="-519.3" font-family="Arial" font-size="24.00" fill="#ffffff">Durable complete cleaned&#45;text,</text>
<text text-anchor="start" x="1676.5" y="-495.3" font-family="Arial" font-size="24.00" fill="#ffffff">relational, and full&#45;text</text>
<text text-anchor="start" x="1678" y="-471.3" font-family="Arial" font-size="24.00" fill="#ffffff">authority for migration</text>
<text text-anchor="start" x="1643.5" y="-447.3" font-family="Arial" font-size="24.00" fill="#ffffff">ledger, sources, documents,</text>
<text text-anchor="start" x="1646" y="-423.3" font-family="Arial" font-size="24.00" fill="#ffffff">visits, capture observations,</text>
<text text-anchor="start" x="1664.5" y="-399.3" font-family="Arial" font-size="24.00" fill="#ffffff">URL claims, visit events,</text>
<text text-anchor="start" x="1627" y="-375.3" font-family="Arial" font-size="24.00" fill="#ffffff">snapshots, chunks, chunks_fts,</text>
<text text-anchor="start" x="1634.5" y="-351.3" font-family="Arial" font-size="24.00" fill="#ffffff">media provenance/tasks, blob</text>
<text text-anchor="start" x="1671" y="-327.3" font-family="Arial" font-size="24.00" fill="#ffffff">lifecycle records, policy</text>
<text text-anchor="start" x="1670" y="-303.3" font-family="Arial" font-size="24.00" fill="#ffffff">rules, audit events, and</text>
<text text-anchor="start" x="1703.5" y="-279.3" font-family="Arial" font-size="24.00" fill="#ffffff">deletion receipts.</text>
</g>
<!-- 28&#45;&gt;47 -->
<g id="126" class="edge">
<title>28&#45;&gt;47</title>
<path fill="none" stroke="#444444" stroke-dasharray="5,2" d="M1263.04,-473.99C1361.58,-470.65 1484.67,-466.49 1587.56,-463.01"/>
<polygon fill="#444444" stroke="#444444" points="1587.89,-466.5 1597.77,-462.66 1587.66,-459.5 1587.89,-466.5"/>
<polygon fill="white" stroke="transparent" points="1299,-472 1299,-571 1562,-571 1562,-472 1299,-472"/>
<text text-anchor="start" x="1309" y="-548.3" font-family="Arial" font-size="24.00" fill="#444444">Writes lifecycle identity</text>
<text text-anchor="start" x="1303.5" y="-524.3" font-family="Arial" font-size="24.00" fill="#444444">and interval&#45;union dwell</text>
<text text-anchor="start" x="1420.5" y="-500.3" font-family="Arial" font-size="24.00" fill="#444444">to</text>
<text text-anchor="start" x="1397.5" y="-480.3" font-family="Arial" font-size="19.00" fill="#444444">[sqlite3]</text>
</g>
</g>
</svg>
