<?xml version="1.0" encoding="UTF-8" standalone="no"?>
<!DOCTYPE svg PUBLIC "-//W3C//DTD SVG 1.1//EN"
 "http://www.w3.org/Graphics/SVG/1.1/DTD/svg11.dtd">
<!-- Generated by graphviz version 2.43.0 (0)
 -->
<!-- Title: %3 Pages: 1 -->
<svg width="2062pt" height="669pt"
 viewBox="0.00 0.00 2062.00 669.00" xmlns="http://www.w3.org/2000/svg" xmlns:xlink="http://www.w3.org/1999/xlink">
<g id="graph0" class="graph" transform="scale(1 1) rotate(0) translate(4 665)">
<title>%3</title>
<polygon fill="white" stroke="transparent" points="-4,4 -4,-665 2058,-665 2058,4 -4,4"/>
<text text-anchor="start" x="442" y="-11.8" font-family="Arial" font-size="34.00">Component View: Browser Memory Daemon &#45; WSL Loopback HTTP Daemon</text>
<g id="clust1" class="cluster">
<title>cluster_4</title>
<polygon fill="none" stroke="#444444" points="8,-64 8,-653 2046,-653 2046,-64 8,-64"/>
<text text-anchor="start" x="886" y="-92.8" font-family="Arial" font-size="24.00" fill="#444444">Browser Memory Daemon</text>
<text text-anchor="start" x="950" y="-72.8" font-family="Arial" font-size="19.00" fill="#444444">[Software System]</text>
</g>
<g id="clust2" class="cluster">
<title>cluster_14</title>
<polygon fill="none" stroke="#444444" points="33,-164 33,-603 1257,-603 1257,-164 33,-164"/>
<text text-anchor="start" x="479.5" y="-192.8" font-family="Arial" font-size="24.00" fill="#444444">WSL Loopback HTTP Daemon</text>
<text text-anchor="start" x="443" y="-172.8" font-family="Arial" font-size="19.00" fill="#444444">[Container: Python 3.11, ThreadingHTTPServer]</text>
</g>
<!-- 15 -->
<g id="15" class="node">
<title>15</title>
<polygon fill="#85bbf0" stroke="#1168bd" points="453,-536.5 58,-536.5 58,-305.5 453,-305.5 453,-536.5"/>
<text text-anchor="start" x="87" y="-488.3" font-family="Arial" font-size="34.00" fill="#000000">HTTP Request Router</text>
<text text-anchor="start" x="119" y="-466.3" font-family="Arial" font-size="19.00" fill="#000000">[Component: Python http.server]</text>
<text text-anchor="start" x="90" y="-429.3" font-family="Arial" font-size="24.00" fill="#000000">Routes loopback API requests,</text>
<text text-anchor="start" x="112.5" y="-405.3" font-family="Arial" font-size="24.00" fill="#000000">serves UI assets, enforces</text>
<text text-anchor="start" x="91.5" y="-381.3" font-family="Arial" font-size="24.00" fill="#000000">bearer auth for memory/admin</text>
<text text-anchor="start" x="106" y="-357.3" font-family="Arial" font-size="24.00" fill="#000000">APIs, and applies CORS for</text>
<text text-anchor="start" x="172" y="-333.3" font-family="Arial" font-size="24.00" fill="#000000">allowed origins.</text>
</g>
<!-- 16 -->
<g id="16" class="node">
<title>16</title>
<polygon fill="#85bbf0" stroke="#1168bd" points="1232,-577.5 813,-577.5 813,-264.5 1232,-264.5 1232,-577.5"/>
<text text-anchor="start" x="875" y="-529.3" font-family="Arial" font-size="34.00" fill="#000000">Database Migration</text>
<text text-anchor="start" x="973.5" y="-495.3" font-family="Arial" font-size="34.00" fill="#000000">Kernel</text>
<text text-anchor="start" x="894.5" y="-473.3" font-family="Arial" font-size="19.00" fill="#000000">[Component: Python + sqlite3]</text>
<text text-anchor="start" x="895.5" y="-436.3" font-family="Arial" font-size="24.00" fill="#000000">Validates exact schema</text>
<text text-anchor="start" x="913.5" y="-412.3" font-family="Arial" font-size="24.00" fill="#000000">fingerprints, ordered</text>
<text text-anchor="start" x="842" y="-388.3" font-family="Arial" font-size="24.00" fill="#000000">migration names/checksums, and</text>
<text text-anchor="start" x="853" y="-364.3" font-family="Arial" font-size="24.00" fill="#000000">PRAGMA user_version; applies</text>
<text text-anchor="start" x="897.5" y="-340.3" font-family="Arial" font-size="24.00" fill="#000000">transactional steps and</text>
<text text-anchor="start" x="887.5" y="-316.3" font-family="Arial" font-size="24.00" fill="#000000">backup&#45;gates destructive</text>
<text text-anchor="start" x="973" y="-292.3" font-family="Arial" font-size="24.00" fill="#000000">changes.</text>
</g>
<!-- 15&#45;&gt;16 -->
<g id="63" class="edge">
<title>15&#45;&gt;16</title>
<path fill="none" stroke="#444444" stroke-dasharray="5,2" d="M453.01,-421C559.9,-421 692.41,-421 802.6,-421"/>
<polygon fill="#444444" stroke="#444444" points="802.86,-424.5 812.86,-421 802.86,-417.5 802.86,-424.5"/>
<polygon fill="white" stroke="transparent" points="489,-421 489,-481 777,-481 777,-421 489,-421"/>
<text text-anchor="start" x="522.5" y="-457.8" font-family="Arial" font-size="24.00" fill="#444444">Requires compatible</text>
<text text-anchor="start" x="493" y="-431.8" font-family="Arial" font-size="24.00" fill="#444444">initialized schema through</text>
</g>
<!-- 28 -->
<g id="28" class="node">
<title>28</title>
<path fill="#2f95c8" stroke="#20688c" d="M2021,-585.72C2021,-608.98 1932.48,-627.88 1823.5,-627.88 1714.52,-627.88 1626,-608.98 1626,-585.72 1626,-585.72 1626,-206.28 1626,-206.28 1626,-183.02 1714.52,-164.12 1823.5,-164.12 1932.48,-164.12 2021,-183.02 2021,-206.28 2021,-206.28 2021,-585.72 2021,-585.72"/>
<path fill="none" stroke="#20688c" d="M2021,-585.72C2021,-562.45 1932.48,-543.56 1823.5,-543.56 1714.52,-543.56 1626,-562.45 1626,-585.72"/>
<text text-anchor="start" x="1710.5" y="-516.3" font-family="Arial" font-size="34.00" fill="#ffffff">SQLite + FTS5</text>
<text text-anchor="start" x="1750.5" y="-482.3" font-family="Arial" font-size="34.00" fill="#ffffff">Database</text>
<text text-anchor="start" x="1697.5" y="-460.3" font-family="Arial" font-size="19.00" fill="#ffffff">[Container: SQLite with FTS5]</text>
<text text-anchor="start" x="1704.5" y="-423.3" font-family="Arial" font-size="24.00" fill="#ffffff">Durable relational and</text>
<text text-anchor="start" x="1683" y="-399.3" font-family="Arial" font-size="24.00" fill="#ffffff">full&#45;text store for migration</text>
<text text-anchor="start" x="1671.5" y="-375.3" font-family="Arial" font-size="24.00" fill="#ffffff">ledger, sources, documents,</text>
<text text-anchor="start" x="1727" y="-351.3" font-family="Arial" font-size="24.00" fill="#ffffff">visits, visit events,</text>
<text text-anchor="start" x="1655" y="-327.3" font-family="Arial" font-size="24.00" fill="#ffffff">snapshots, chunks, chunks_fts,</text>
<text text-anchor="start" x="1675" y="-303.3" font-family="Arial" font-size="24.00" fill="#ffffff">media artifacts, media fetch</text>
<text text-anchor="start" x="1695" y="-279.3" font-family="Arial" font-size="24.00" fill="#ffffff">tasks, policy rules, audit</text>
<text text-anchor="start" x="1665.5" y="-255.3" font-family="Arial" font-size="24.00" fill="#ffffff">events, and deletion receipts.</text>
</g>
<!-- 16&#45;&gt;28 -->
<g id="87" class="edge">
<title>16&#45;&gt;28</title>
<path fill="none" stroke="#444444" stroke-dasharray="5,2" d="M1232.12,-414.47C1350.29,-410.78 1497.57,-406.17 1615.47,-402.48"/>
<polygon fill="#444444" stroke="#444444" points="1615.82,-405.97 1625.7,-402.16 1615.6,-398.97 1615.82,-405.97"/>
<polygon fill="white" stroke="transparent" points="1268,-412 1268,-511 1590,-511 1590,-412 1268,-412"/>
<text text-anchor="start" x="1301" y="-488.3" font-family="Arial" font-size="24.00" fill="#444444">Validates and advances</text>
<text text-anchor="start" x="1292" y="-464.3" font-family="Arial" font-size="24.00" fill="#444444">schema ledger/fingerprint</text>
<text text-anchor="start" x="1419.5" y="-440.3" font-family="Arial" font-size="24.00" fill="#444444">in</text>
<text text-anchor="start" x="1272" y="-420.3" font-family="Arial" font-size="19.00" fill="#444444">[sqlite3 online backup + transactions]</text>
</g>
</g>
</svg>
