<?xml version="1.0" encoding="UTF-8" standalone="no"?>
<!DOCTYPE svg PUBLIC "-//W3C//DTD SVG 1.1//EN"
 "http://www.w3.org/Graphics/SVG/1.1/DTD/svg11.dtd">
<!-- Generated by graphviz version 2.43.0 (0)
 -->
<!-- Title: %3 Pages: 1 -->
<svg width="2331pt" height="2209pt"
 viewBox="0.00 0.00 2331.00 2209.00" xmlns="http://www.w3.org/2000/svg" xmlns:xlink="http://www.w3.org/1999/xlink">
<g id="graph0" class="graph" transform="scale(1 1) rotate(0) translate(4 2205)">
<title>%3</title>
<polygon fill="white" stroke="transparent" points="-4,4 -4,-2205 2327,-2205 2327,4 -4,4"/>
<text text-anchor="start" x="839" y="-11.8" font-family="Arial" font-size="34.00">Container View: Browser Memory Daemon</text>
<g id="clust1" class="cluster">
<title>cluster_4</title>
<polygon fill="none" stroke="#444444" points="8,-64 8,-2193 2315,-2193 2315,-64 8,-64"/>
<text text-anchor="start" x="1020.5" y="-92.8" font-family="Arial" font-size="24.00" fill="#444444">Browser Memory Daemon</text>
<text text-anchor="start" x="1084.5" y="-72.8" font-family="Arial" font-size="19.00" fill="#444444">[Software System]</text>
</g>
<!-- 14 -->
<g id="14" class="node">
<title>14</title>
<polygon fill="#438dd5" stroke="#2e6295" points="1364,-1272.5 902,-1272.5 902,-935.5 1364,-935.5 1364,-1272.5"/>
<text text-anchor="start" x="968.5" y="-1224.3" font-family="Arial" font-size="34.00" fill="#ffffff">WSL Loopback HTTP</text>
<text text-anchor="start" x="1068.5" y="-1190.3" font-family="Arial" font-size="34.00" fill="#ffffff">Daemon</text>
<text text-anchor="start" x="931" y="-1168.3" font-family="Arial" font-size="19.00" fill="#ffffff">[Container: Python 3.11, ThreadingHTTPServer]</text>
<text text-anchor="start" x="972" y="-1131.3" font-family="Arial" font-size="24.00" fill="#ffffff">Authenticated loopback HTTP</text>
<text text-anchor="start" x="997" y="-1107.3" font-family="Arial" font-size="24.00" fill="#ffffff">API that handles capture,</text>
<text text-anchor="start" x="993.5" y="-1083.3" font-family="Arial" font-size="24.00" fill="#ffffff">visit events, media artifact</text>
<text text-anchor="start" x="996.5" y="-1059.3" font-family="Arial" font-size="24.00" fill="#ffffff">upload/fetch/purge, exact</text>
<text text-anchor="start" x="1093" y="-1035.3" font-family="Arial" font-size="24.00" fill="#ffffff">search,</text>
<text text-anchor="start" x="984" y="-1011.3" font-family="Arial" font-size="24.00" fill="#ffffff">recent/timeline/detail, policy</text>
<text text-anchor="start" x="1002" y="-987.3" font-family="Arial" font-size="24.00" fill="#ffffff">rules, doctor, forget, and</text>
<text text-anchor="start" x="1043.5" y="-963.3" font-family="Arial" font-size="24.00" fill="#ffffff">static UI serving.</text>
</g>
<!-- 29 -->
<g id="29" class="node">
<title>29</title>
<path fill="#2f95c8" stroke="#20688c" d="M2216,-645.72C2216,-672.29 2127.25,-693.88 2018,-693.88 1908.75,-693.88 1820,-672.29 1820,-645.72 1820,-645.72 1820,-212.28 1820,-212.28 1820,-185.71 1908.75,-164.12 2018,-164.12 2127.25,-164.12 2216,-185.71 2216,-212.28 2216,-212.28 2216,-645.72 2216,-645.72"/>
<path fill="none" stroke="#20688c" d="M2216,-645.72C2216,-619.14 2127.25,-597.56 2018,-597.56 1908.75,-597.56 1820,-619.14 1820,-645.72"/>
<text text-anchor="start" x="1905" y="-573.3" font-family="Arial" font-size="34.00" fill="#ffffff">SQLite + FTS5</text>
<text text-anchor="start" x="1945" y="-539.3" font-family="Arial" font-size="34.00" fill="#ffffff">Database</text>
<text text-anchor="start" x="1892" y="-517.3" font-family="Arial" font-size="19.00" fill="#ffffff">[Container: SQLite with FTS5]</text>
<text text-anchor="start" x="1850" y="-480.3" font-family="Arial" font-size="24.00" fill="#ffffff">Durable complete cleaned&#45;text,</text>
<text text-anchor="start" x="1899" y="-456.3" font-family="Arial" font-size="24.00" fill="#ffffff">relational, and full&#45;text</text>
<text text-anchor="start" x="1900.5" y="-432.3" font-family="Arial" font-size="24.00" fill="#ffffff">authority for migration</text>
<text text-anchor="start" x="1866" y="-408.3" font-family="Arial" font-size="24.00" fill="#ffffff">ledger, sources, documents,</text>
<text text-anchor="start" x="1868.5" y="-384.3" font-family="Arial" font-size="24.00" fill="#ffffff">visits, capture observations,</text>
<text text-anchor="start" x="1887" y="-360.3" font-family="Arial" font-size="24.00" fill="#ffffff">URL claims, visit events,</text>
<text text-anchor="start" x="1849.5" y="-336.3" font-family="Arial" font-size="24.00" fill="#ffffff">snapshots, chunks, chunks_fts,</text>
<text text-anchor="start" x="1849" y="-312.3" font-family="Arial" font-size="24.00" fill="#ffffff">media provenance/tasks, policy</text>
<text text-anchor="start" x="1892.5" y="-288.3" font-family="Arial" font-size="24.00" fill="#ffffff">rules, audit events, and</text>
<text text-anchor="start" x="1926" y="-264.3" font-family="Arial" font-size="24.00" fill="#ffffff">deletion receipts.</text>
</g>
<!-- 14&#45;&gt;29 -->
<g id="47" class="edge">
<title>14&#45;&gt;29</title>
<path fill="none" stroke="#444444" stroke-dasharray="5,2" d="M1302.21,-935.45C1323.62,-911.99 1344.76,-887.78 1364,-864 1381.91,-841.87 1376.86,-827.6 1400,-811 1516.17,-727.65 1585.84,-795.91 1710,-725 1745.41,-704.78 1779.8,-679.55 1811.97,-652.41"/>
<polygon fill="#444444" stroke="#444444" points="1814.32,-655 1819.66,-645.85 1809.78,-649.68 1814.32,-655"/>
<polygon fill="white" stroke="transparent" points="1400,-811 1400,-910 1710,-910 1710,-811 1400,-811"/>
<text text-anchor="start" x="1404" y="-887.3" font-family="Arial" font-size="24.00" fill="#444444">Reads and writes metadata,</text>
<text text-anchor="start" x="1437" y="-863.3" font-family="Arial" font-size="24.00" fill="#444444">FTS, tasks, audit, and</text>
<text text-anchor="start" x="1499.5" y="-839.3" font-family="Arial" font-size="24.00" fill="#444444">receipts in</text>
<text text-anchor="start" x="1521.5" y="-819.3" font-family="Arial" font-size="19.00" fill="#444444">[sqlite3]</text>
</g>
<!-- 30 -->
<g id="30" class="node">
<title>30</title>
<path fill="#2f95c8" stroke="#20688c" d="M2215.5,-1097.22C2215.5,-1115.51 2126.98,-1130.38 2018,-1130.38 1909.02,-1130.38 1820.5,-1115.51 1820.5,-1097.22 1820.5,-1097.22 1820.5,-798.78 1820.5,-798.78 1820.5,-780.49 1909.02,-765.62 2018,-765.62 2126.98,-765.62 2215.5,-780.49 2215.5,-798.78 2215.5,-798.78 2215.5,-1097.22 2215.5,-1097.22"/>
<path fill="none" stroke="#20688c" d="M2215.5,-1097.22C2215.5,-1078.92 2126.98,-1064.06 2018,-1064.06 1909.02,-1064.06 1820.5,-1078.92 1820.5,-1097.22"/>
<text text-anchor="start" x="1896.5" y="-1032.3" font-family="Arial" font-size="34.00" fill="#ffffff">Local Derivative</text>
<text text-anchor="start" x="1977" y="-998.3" font-family="Arial" font-size="34.00" fill="#ffffff">Store</text>
<text text-anchor="start" x="1878" y="-976.3" font-family="Arial" font-size="19.00" fill="#ffffff">[Container: WSL local filesystem]</text>
<text text-anchor="start" x="1864.5" y="-939.3" font-family="Arial" font-size="24.00" fill="#ffffff">Reconstructible compatibility</text>
<text text-anchor="start" x="1849.5" y="-915.3" font-family="Arial" font-size="24.00" fill="#ffffff">evidence such as pre&#45;version&#45;9</text>
<text text-anchor="start" x="1888" y="-891.3" font-family="Arial" font-size="24.00" fill="#ffffff">clean&#45;text sidecars; new</text>
<text text-anchor="start" x="1894.5" y="-867.3" font-family="Arial" font-size="24.00" fill="#ffffff">captures create no text</text>
<text text-anchor="start" x="1969.5" y="-843.3" font-family="Arial" font-size="24.00" fill="#ffffff">sidecars.</text>
</g>
<!-- 14&#45;&gt;30 -->
<g id="48" class="edge">
<title>14&#45;&gt;30</title>
<path fill="none" stroke="#444444" stroke-dasharray="5,2" d="M1364.32,-974.98C1376.2,-970.8 1388.13,-967.1 1400,-964 1533.5,-929.17 1688.79,-925.33 1810.18,-930.12"/>
<polygon fill="#444444" stroke="#444444" points="1810.2,-933.62 1820.33,-930.54 1810.49,-926.63 1810.2,-933.62"/>
<polygon fill="white" stroke="transparent" points="1421,-964 1421,-1063 1689,-1063 1689,-964 1421,-964"/>
<text text-anchor="start" x="1425" y="-1040.3" font-family="Arial" font-size="24.00" fill="#444444">Reads or deletes legacy</text>
<text text-anchor="start" x="1454.5" y="-1016.3" font-family="Arial" font-size="24.00" fill="#444444">text sidecars when</text>
<text text-anchor="start" x="1510" y="-992.3" font-family="Arial" font-size="24.00" fill="#444444">required</text>
<text text-anchor="start" x="1503.5" y="-972.3" font-family="Arial" font-size="19.00" fill="#444444">[Filesystem]</text>
</g>
<!-- 31 -->
<g id="31" class="node">
<title>31</title>
<path fill="#2f95c8" stroke="#20688c" d="M2290,-2129.22C2290,-2150.82 2168.09,-2168.38 2018,-2168.38 1867.91,-2168.38 1746,-2150.82 1746,-2129.22 1746,-2129.22 1746,-1776.78 1746,-1776.78 1746,-1755.18 1867.91,-1737.62 2018,-1737.62 2168.09,-1737.62 2290,-1755.18 2290,-1776.78 2290,-1776.78 2290,-2129.22 2290,-2129.22"/>
<path fill="none" stroke="#20688c" d="M2290,-2129.22C2290,-2107.61 2168.09,-2090.06 2018,-2090.06 1867.91,-2090.06 1746,-2107.61 1746,-2129.22"/>
<text text-anchor="start" x="1862.5" y="-2061.3" font-family="Arial" font-size="34.00" fill="#ffffff">Guarded Media Blob</text>
<text text-anchor="start" x="1968.5" y="-2027.3" font-family="Arial" font-size="34.00" fill="#ffffff">Cache</text>
<text text-anchor="start" x="1775" y="-2005.3" font-family="Arial" font-size="19.00" fill="#ffffff">[Container: WSL&#45;visible local or NAS&#45;mounted filesystem]</text>
<text text-anchor="start" x="1908" y="-1968.3" font-family="Arial" font-size="24.00" fill="#ffffff">Bounded disposable</text>
<text text-anchor="start" x="1852.5" y="-1944.3" font-family="Arial" font-size="24.00" fill="#ffffff">image/video/audio bytes under</text>
<text text-anchor="start" x="1876.5" y="-1920.3" font-family="Arial" font-size="24.00" fill="#ffffff">the configured media root;</text>
<text text-anchor="start" x="1904" y="-1896.3" font-family="Arial" font-size="24.00" fill="#ffffff">explicit external roots</text>
<text text-anchor="start" x="1919" y="-1872.3" font-family="Arial" font-size="24.00" fill="#ffffff">require mount and</text>
<text text-anchor="start" x="1868.5" y="-1848.3" font-family="Arial" font-size="24.00" fill="#ffffff">identity&#45;marker proof before</text>
<text text-anchor="start" x="1977" y="-1824.3" font-family="Arial" font-size="24.00" fill="#ffffff">access.</text>
</g>
<!-- 14&#45;&gt;31 -->
<g id="49" class="edge">
<title>14&#45;&gt;31</title>
<path fill="none" stroke="#444444" stroke-dasharray="5,2" d="M1304.28,-1272.78C1426.42,-1393.25 1595.32,-1558.65 1746,-1702 1759.45,-1714.8 1773.33,-1727.91 1787.36,-1741.11"/>
<polygon fill="#444444" stroke="#444444" points="1785.03,-1743.71 1794.71,-1748.01 1789.82,-1738.61 1785.03,-1743.71"/>
<polygon fill="white" stroke="transparent" points="1401,-1654 1401,-1753 1709,-1753 1709,-1654 1401,-1654"/>
<text text-anchor="start" x="1430" y="-1730.3" font-family="Arial" font-size="24.00" fill="#444444">Stores, serves, purges,</text>
<text text-anchor="start" x="1405" y="-1706.3" font-family="Arial" font-size="24.00" fill="#444444">and rehydrates media blobs</text>
<text text-anchor="start" x="1545.5" y="-1682.3" font-family="Arial" font-size="24.00" fill="#444444">in</text>
<text text-anchor="start" x="1503.5" y="-1662.3" font-family="Arial" font-size="19.00" fill="#444444">[Filesystem]</text>
</g>
<!-- 32 -->
<g id="32" class="node">
<title>32</title>
<path fill="#2f95c8" stroke="#20688c" d="M2211,-1623.72C2211,-1646.98 2124.49,-1665.88 2018,-1665.88 1911.51,-1665.88 1825,-1646.98 1825,-1623.72 1825,-1623.72 1825,-1244.28 1825,-1244.28 1825,-1221.02 1911.51,-1202.12 2018,-1202.12 2124.49,-1202.12 2211,-1221.02 2211,-1244.28 2211,-1244.28 2211,-1623.72 2211,-1623.72"/>
<path fill="none" stroke="#20688c" d="M2211,-1623.72C2211,-1600.45 2124.49,-1581.56 2018,-1581.56 1911.51,-1581.56 1825,-1600.45 1825,-1623.72"/>
<text text-anchor="start" x="1854" y="-1554.3" font-family="Arial" font-size="34.00" fill="#ffffff">Bounded Local Media</text>
<text text-anchor="start" x="1974.5" y="-1520.3" font-family="Arial" font-size="34.00" fill="#ffffff">Spool</text>
<text text-anchor="start" x="1878" y="-1498.3" font-family="Arial" font-size="19.00" fill="#ffffff">[Container: WSL local filesystem]</text>
<text text-anchor="start" x="1866" y="-1461.3" font-family="Arial" font-size="24.00" fill="#ffffff">Opt&#45;in durable outage buffer</text>
<text text-anchor="start" x="1869.5" y="-1437.3" font-family="Arial" font-size="24.00" fill="#ffffff">beneath the local WSL data</text>
<text text-anchor="start" x="1896.5" y="-1413.3" font-family="Arial" font-size="24.00" fill="#ffffff">root; admission counts</text>
<text text-anchor="start" x="1872.5" y="-1389.3" font-family="Arial" font-size="24.00" fill="#ffffff">committed files and distinct</text>
<text text-anchor="start" x="1866" y="-1365.3" font-family="Arial" font-size="24.00" fill="#ffffff">in&#45;flight SQLite reservations,</text>
<text text-anchor="start" x="1893" y="-1341.3" font-family="Arial" font-size="24.00" fill="#ffffff">and drain verifies bytes</text>
<text text-anchor="start" x="1870.5" y="-1317.3" font-family="Arial" font-size="24.00" fill="#ffffff">before tier transition/source</text>
<text text-anchor="start" x="1972" y="-1293.3" font-family="Arial" font-size="24.00" fill="#ffffff">cleanup.</text>
</g>
<!-- 14&#45;&gt;32 -->
<g id="50" class="edge">
<title>14&#45;&gt;32</title>
<path fill="none" stroke="#444444" stroke-dasharray="5,2" d="M1364.07,-1082.69C1473.09,-1081.38 1602.63,-1092.94 1710,-1140 1725.34,-1146.72 1768.41,-1185.65 1817.61,-1233.1"/>
<polygon fill="#444444" stroke="#444444" points="1815.29,-1235.72 1824.91,-1240.16 1820.16,-1230.69 1815.29,-1235.72"/>
<polygon fill="white" stroke="transparent" points="1417,-1140 1417,-1239 1693,-1239 1693,-1140 1417,-1140"/>
<text text-anchor="start" x="1421" y="-1216.3" font-family="Arial" font-size="24.00" fill="#444444">Stores and serves media</text>
<text text-anchor="start" x="1448" y="-1192.3" font-family="Arial" font-size="24.00" fill="#444444">during guarded&#45;root</text>
<text text-anchor="start" x="1499" y="-1168.3" font-family="Arial" font-size="24.00" fill="#444444">outages in</text>
<text text-anchor="start" x="1503.5" y="-1148.3" font-family="Arial" font-size="19.00" fill="#444444">[Filesystem]</text>
</g>
<!-- 27 -->
<g id="27" class="node">
<title>27</title>
<polygon fill="#438dd5" stroke="#2e6295" points="546,-745.5 34,-745.5 34,-490.5 546,-490.5 546,-745.5"/>
<text text-anchor="start" x="187.5" y="-697.3" font-family="Arial" font-size="34.00" fill="#ffffff">Local Web UI</text>
<text text-anchor="start" x="63" y="-675.3" font-family="Arial" font-size="19.00" fill="#ffffff">[Container: HTML/CSS/JavaScript served by daemon]</text>
<text text-anchor="start" x="148" y="-638.3" font-family="Arial" font-size="24.00" fill="#ffffff">Static browser UI for exact</text>
<text text-anchor="start" x="131" y="-614.3" font-family="Arial" font-size="24.00" fill="#ffffff">search, recent/timeline views,</text>
<text text-anchor="start" x="148.5" y="-590.3" font-family="Arial" font-size="24.00" fill="#ffffff">document/snapshot detail,</text>
<text text-anchor="start" x="133" y="-566.3" font-family="Arial" font-size="24.00" fill="#ffffff">media artifact opening, policy</text>
<text text-anchor="start" x="196.5" y="-542.3" font-family="Arial" font-size="24.00" fill="#ffffff">rules, doctor, and</text>
<text text-anchor="start" x="151.5" y="-518.3" font-family="Arial" font-size="24.00" fill="#ffffff">forget&#45;domain operations.</text>
</g>
<!-- 27&#45;&gt;14 -->
<g id="42" class="edge">
<title>27&#45;&gt;14</title>
<path fill="none" stroke="#444444" stroke-dasharray="5,2" d="M511.69,-745.53C628.84,-813.23 772.96,-896.52 892.78,-965.76"/>
<polygon fill="#444444" stroke="#444444" points="891.32,-968.96 901.73,-970.93 894.82,-962.9 891.32,-968.96"/>
<polygon fill="white" stroke="transparent" points="586,-946 586,-1045 863,-1045 863,-946 586,-946"/>
<text text-anchor="start" x="591" y="-1022.3" font-family="Arial" font-size="24.00" fill="#444444">Calls authenticated read,</text>
<text text-anchor="start" x="590.5" y="-998.3" font-family="Arial" font-size="24.00" fill="#444444">admin, media, and forget</text>
<text text-anchor="start" x="682.5" y="-974.3" font-family="Arial" font-size="24.00" fill="#444444">APIs on</text>
<text text-anchor="start" x="667" y="-954.3" font-family="Arial" font-size="19.00" fill="#444444">[HTTP/JSON]</text>
</g>
<!-- 28 -->
<g id="28" class="node">
<title>28</title>
<polygon fill="#438dd5" stroke="#2e6295" points="547,-1476.5 33,-1476.5 33,-1173.5 547,-1173.5 547,-1476.5"/>
<text text-anchor="start" x="263" y="-1428.3" font-family="Arial" font-size="34.00" fill="#ffffff">CLI</text>
<text text-anchor="start" x="169" y="-1406.3" font-family="Arial" font-size="19.00" fill="#ffffff">[Container: Python argparse]</text>
<text text-anchor="start" x="143.5" y="-1369.3" font-family="Arial" font-size="24.00" fill="#ffffff">Command&#45;line interface for</text>
<text text-anchor="start" x="123" y="-1345.3" font-family="Arial" font-size="24.00" fill="#ffffff">serving the daemon, migration,</text>
<text text-anchor="start" x="139.5" y="-1321.3" font-family="Arial" font-size="24.00" fill="#ffffff">snapshot&#45;text reconciliation,</text>
<text text-anchor="start" x="154.5" y="-1297.3" font-family="Arial" font-size="24.00" fill="#ffffff">media&#45;spool status/drain,</text>
<text text-anchor="start" x="62" y="-1273.3" font-family="Arial" font-size="24.00" fill="#ffffff">health/doctor/search/recent/timeline/detail,</text>
<text text-anchor="start" x="177" y="-1249.3" font-family="Arial" font-size="24.00" fill="#ffffff">policy/forget, capture</text>
<text text-anchor="start" x="145" y="-1225.3" font-family="Arial" font-size="24.00" fill="#ffffff">fixtures, media worker, and</text>
<text text-anchor="start" x="157.5" y="-1201.3" font-family="Arial" font-size="24.00" fill="#ffffff">media cache operations.</text>
</g>
<!-- 28&#45;&gt;14 -->
<g id="43" class="edge">
<title>28&#45;&gt;14</title>
<path fill="none" stroke="#444444" stroke-dasharray="5,2" d="M547.04,-1257.72C656.8,-1228.88 784.3,-1195.37 892.2,-1167.02"/>
<polygon fill="#444444" stroke="#444444" points="893.13,-1170.39 901.91,-1164.46 891.35,-1163.62 893.13,-1170.39"/>
<polygon fill="white" stroke="transparent" points="583,-1247 583,-1346 866,-1346 866,-1247 583,-1247"/>
<text text-anchor="start" x="587.5" y="-1323.3" font-family="Arial" font-size="24.00" fill="#444444">Calls health, read, admin,</text>
<text text-anchor="start" x="620" y="-1299.3" font-family="Arial" font-size="24.00" fill="#444444">capture&#45;fixture, and</text>
<text text-anchor="start" x="649" y="-1275.3" font-family="Arial" font-size="24.00" fill="#444444">forget APIs on</text>
<text text-anchor="start" x="667" y="-1255.3" font-family="Arial" font-size="19.00" fill="#444444">[HTTP/JSON]</text>
</g>
<!-- 28&#45;&gt;29 -->
<g id="44" class="edge">
<title>28&#45;&gt;29</title>
<path fill="none" stroke="#444444" stroke-dasharray="5,2" d="M424.67,-1173.42C540.12,-1050.9 717.11,-882.08 902,-777 1195.08,-610.43 1577.69,-513.45 1809.98,-465.92"/>
<polygon fill="#444444" stroke="#444444" points="1810.79,-469.32 1819.89,-463.9 1809.4,-462.46 1810.79,-469.32"/>
<polygon fill="white" stroke="transparent" points="976.5,-777 976.5,-900 1289.5,-900 1289.5,-777 976.5,-777"/>
<text text-anchor="start" x="1048.5" y="-877.3" font-family="Arial" font-size="24.00" fill="#444444">Runs migration,</text>
<text text-anchor="start" x="981" y="-853.3" font-family="Arial" font-size="24.00" fill="#444444">media&#45;worker, media&#45;cache,</text>
<text text-anchor="start" x="981" y="-829.3" font-family="Arial" font-size="24.00" fill="#444444">and media&#45;spool commands</text>
<text text-anchor="start" x="1094" y="-805.3" font-family="Arial" font-size="24.00" fill="#444444">against</text>
<text text-anchor="start" x="1100" y="-785.3" font-family="Arial" font-size="19.00" fill="#444444">[sqlite3]</text>
</g>
<!-- 28&#45;&gt;31 -->
<g id="45" class="edge">
<title>28&#45;&gt;31</title>
<path fill="none" stroke="#444444" stroke-dasharray="5,2" d="M547.07,-1418.17C865.33,-1533.97 1406.63,-1730.92 1736.04,-1850.77"/>
<polygon fill="#444444" stroke="#444444" points="1735.12,-1854.17 1745.72,-1854.3 1737.52,-1847.59 1735.12,-1854.17"/>
<polygon fill="white" stroke="transparent" points="1006,-1711 1006,-1786 1260,-1786 1260,-1711 1006,-1711"/>
<text text-anchor="start" x="1010" y="-1763.3" font-family="Arial" font-size="24.00" fill="#444444">Purges and rehydrates</text>
<text text-anchor="start" x="1023" y="-1739.3" font-family="Arial" font-size="24.00" fill="#444444">media blobs through</text>
<text text-anchor="start" x="1081.5" y="-1719.3" font-family="Arial" font-size="19.00" fill="#444444">[Filesystem]</text>
</g>
<!-- 28&#45;&gt;32 -->
<g id="46" class="edge">
<title>28&#45;&gt;32</title>
<path fill="none" stroke="#444444" stroke-dasharray="5,2" d="M547.28,-1360.02C559.35,-1361.42 571.3,-1362.75 583,-1364 945.21,-1402.57 1036.09,-1413.07 1400,-1429 1538.31,-1435.05 1694.23,-1436.27 1814.72,-1435.99"/>
<polygon fill="#444444" stroke="#444444" points="1814.81,-1439.49 1824.8,-1435.96 1814.79,-1432.49 1814.81,-1439.49"/>
<polygon fill="white" stroke="transparent" points="975.5,-1426 975.5,-1501 1290.5,-1501 1290.5,-1426 975.5,-1426"/>
<text text-anchor="start" x="980" y="-1478.3" font-family="Arial" font-size="24.00" fill="#444444">Reports and drains bounded</text>
<text text-anchor="start" x="1019" y="-1454.3" font-family="Arial" font-size="24.00" fill="#444444">outage bytes through</text>
<text text-anchor="start" x="1082" y="-1434.3" font-family="Arial" font-size="19.00" fill="#444444">[Filesystem]</text>
</g>
</g>
</svg>
