<?xml version="1.0" encoding="UTF-8" standalone="no"?>
<!DOCTYPE svg PUBLIC "-//W3C//DTD SVG 1.1//EN"
 "http://www.w3.org/Graphics/SVG/1.1/DTD/svg11.dtd">
<!-- Generated by graphviz version 2.43.0 (0)
 -->
<!-- Title: %3 Pages: 1 -->
<svg width="2656pt" height="2088pt"
 viewBox="0.00 0.00 2656.00 2088.38" xmlns="http://www.w3.org/2000/svg" xmlns:xlink="http://www.w3.org/1999/xlink">
<g id="graph0" class="graph" transform="scale(1 1) rotate(0) translate(4 2084.38)">
<title>%3</title>
<polygon fill="white" stroke="transparent" points="-4,4 -4,-2084.38 2652,-2084.38 2652,4 -4,4"/>
<text text-anchor="start" x="843.5" y="-11.8" font-family="Arial" font-size="34.00">Deployment View: Browser Memory Daemon &#45; Daily&#45;driver local</text>
<g id="clust1" class="cluster">
<title>cluster_94</title>
<polygon fill="none" stroke="#444444" points="8,-64 8,-2072.38 2640,-2072.38 2640,-64 8,-64"/>
<text text-anchor="start" x="1230.5" y="-92.8" font-family="Arial" font-size="24.00" fill="#444444">Local workstation</text>
<text text-anchor="start" x="1162" y="-72.8" font-family="Arial" font-size="19.00" fill="#444444">[Deployment Node: Windows + WSL2]</text>
</g>
<g id="clust2" class="cluster">
<title>cluster_102</title>
<polygon fill="none" stroke="#444444" points="33,-140 33,-1427.38 2615,-1427.38 2615,-140 33,-140"/>
<text text-anchor="start" x="1248.5" y="-168.8" font-family="Arial" font-size="24.00" fill="#444444">WSL2 Ubuntu</text>
<text text-anchor="start" x="1133.5" y="-148.8" font-family="Arial" font-size="19.00" fill="#444444">[Deployment Node: Ubuntu + systemd &#45;&#45;user]</text>
</g>
<g id="clust3" class="cluster">
<title>cluster_103</title>
<polygon fill="none" stroke="#444444" points="864,-964.38 864,-1402.38 1802,-1402.38 1802,-964.38 864,-964.38"/>
<text text-anchor="start" x="1205" y="-993.17" font-family="Arial" font-size="24.00" fill="#444444">systemd &#45;&#45;user services</text>
<text text-anchor="start" x="1184" y="-973.17" font-family="Arial" font-size="19.00" fill="#444444">[Deployment Node: systemd &#45;&#45;user]</text>
</g>
<g id="clust5" class="cluster">
<title>cluster_111</title>
<polygon fill="none" stroke="#444444" points="58,-216 58,-846.38 1430,-846.38 1430,-216 58,-216"/>
<text text-anchor="start" x="585" y="-244.8" font-family="Arial" font-size="24.00" fill="#444444">WSL XDG runtime data paths</text>
<text text-anchor="start" x="592" y="-224.8" font-family="Arial" font-size="19.00" fill="#444444">[Deployment Node: WSL filesystem]</text>
</g>
<g id="clust6" class="cluster">
<title>cluster_123</title>
<polygon fill="none" stroke="#444444" points="1724,-265.5 1724,-796.88 2318,-796.88 2318,-265.5 1724,-265.5"/>
<text text-anchor="start" x="1834.5" y="-294.3" font-family="Arial" font-size="24.00" fill="#444444">WSL&#45;mounted guarded media root</text>
<text text-anchor="start" x="1780.5" y="-274.3" font-family="Arial" font-size="19.00" fill="#444444">[Deployment Node: NAS mount of TrueNAS ZFS dataset]</text>
</g>
<g id="clust7" class="cluster">
<title>cluster_95</title>
<polygon fill="none" stroke="#444444" points="589,-1566.38 589,-2047.38 1707,-2047.38 1707,-1566.38 589,-1566.38"/>
<text text-anchor="start" x="1035.5" y="-1595.17" font-family="Arial" font-size="24.00" fill="#444444">Windows user profile</text>
<text text-anchor="start" x="994.5" y="-1575.17" font-family="Arial" font-size="19.00" fill="#444444">[Deployment Node: Windows profile]</text>
</g>
<g id="clust8" class="cluster">
<title>cluster_96</title>
<polygon fill="none" stroke="#444444" points="614,-1642.38 614,-2022.38 1682,-2022.38 1682,-1642.38 614,-1642.38"/>
<text text-anchor="start" x="953.5" y="-1671.17" font-family="Arial" font-size="24.00" fill="#444444">Windows Chrome daily&#45;driver profile</text>
<text text-anchor="start" x="972.5" y="-1651.17" font-family="Arial" font-size="19.00" fill="#444444">[Deployment Node: Google Chrome MV3]</text>
</g>
<!-- 104 -->
<g id="104" class="node">
<title>104</title>
<polygon fill="#438dd5" stroke="#2e6295" points="1351,-1377.38 889,-1377.38 889,-1040.38 1351,-1040.38 1351,-1377.38"/>
<text text-anchor="start" x="955.5" y="-1329.17" font-family="Arial" font-size="34.00" fill="#ffffff">WSL Loopback HTTP</text>
<text text-anchor="start" x="1055.5" y="-1295.17" font-family="Arial" font-size="34.00" fill="#ffffff">Daemon</text>
<text text-anchor="start" x="918" y="-1273.17" font-family="Arial" font-size="19.00" fill="#ffffff">[Container: Python 3.11, ThreadingHTTPServer]</text>
<text text-anchor="start" x="959" y="-1236.17" font-family="Arial" font-size="24.00" fill="#ffffff">Authenticated loopback HTTP</text>
<text text-anchor="start" x="984" y="-1212.17" font-family="Arial" font-size="24.00" fill="#ffffff">API that handles capture,</text>
<text text-anchor="start" x="980.5" y="-1188.17" font-family="Arial" font-size="24.00" fill="#ffffff">visit events, media artifact</text>
<text text-anchor="start" x="983.5" y="-1164.17" font-family="Arial" font-size="24.00" fill="#ffffff">upload/fetch/purge, exact</text>
<text text-anchor="start" x="1080" y="-1140.17" font-family="Arial" font-size="24.00" fill="#ffffff">search,</text>
<text text-anchor="start" x="971" y="-1116.17" font-family="Arial" font-size="24.00" fill="#ffffff">recent/timeline/detail, policy</text>
<text text-anchor="start" x="989" y="-1092.17" font-family="Arial" font-size="24.00" fill="#ffffff">rules, doctor, forget, and</text>
<text text-anchor="start" x="1030.5" y="-1068.17" font-family="Arial" font-size="24.00" fill="#ffffff">static UI serving.</text>
</g>
<!-- 112 -->
<g id="112" class="node">
<title>112</title>
<path fill="#2f95c8" stroke="#20688c" d="M947,-773.4C947,-799.98 858.25,-821.56 749,-821.56 639.75,-821.56 551,-799.98 551,-773.4 551,-773.4 551,-339.97 551,-339.97 551,-313.4 639.75,-291.81 749,-291.81 858.25,-291.81 947,-313.4 947,-339.97 947,-339.97 947,-773.4 947,-773.4"/>
<path fill="none" stroke="#20688c" d="M947,-773.4C947,-746.83 858.25,-725.24 749,-725.24 639.75,-725.24 551,-746.83 551,-773.4"/>
<text text-anchor="start" x="636" y="-700.99" font-family="Arial" font-size="34.00" fill="#ffffff">SQLite + FTS5</text>
<text text-anchor="start" x="676" y="-666.99" font-family="Arial" font-size="34.00" fill="#ffffff">Database</text>
<text text-anchor="start" x="623" y="-644.99" font-family="Arial" font-size="19.00" fill="#ffffff">[Container: SQLite with FTS5]</text>
<text text-anchor="start" x="581" y="-607.99" font-family="Arial" font-size="24.00" fill="#ffffff">Durable complete cleaned&#45;text,</text>
<text text-anchor="start" x="630" y="-583.99" font-family="Arial" font-size="24.00" fill="#ffffff">relational, and full&#45;text</text>
<text text-anchor="start" x="631.5" y="-559.99" font-family="Arial" font-size="24.00" fill="#ffffff">authority for migration</text>
<text text-anchor="start" x="597" y="-535.99" font-family="Arial" font-size="24.00" fill="#ffffff">ledger, sources, documents,</text>
<text text-anchor="start" x="599.5" y="-511.99" font-family="Arial" font-size="24.00" fill="#ffffff">visits, capture observations,</text>
<text text-anchor="start" x="618" y="-487.99" font-family="Arial" font-size="24.00" fill="#ffffff">URL claims, visit events,</text>
<text text-anchor="start" x="580.5" y="-463.99" font-family="Arial" font-size="24.00" fill="#ffffff">snapshots, chunks, chunks_fts,</text>
<text text-anchor="start" x="580" y="-439.99" font-family="Arial" font-size="24.00" fill="#ffffff">media provenance/tasks, policy</text>
<text text-anchor="start" x="623.5" y="-415.99" font-family="Arial" font-size="24.00" fill="#ffffff">rules, audit events, and</text>
<text text-anchor="start" x="657" y="-391.99" font-family="Arial" font-size="24.00" fill="#ffffff">deletion receipts.</text>
</g>
<!-- 104&#45;&gt;112 -->
<g id="113" class="edge">
<title>104&#45;&gt;112</title>
<path fill="none" stroke="#444444" stroke-dasharray="5,2" d="M888.87,-1179.55C749.29,-1149.22 581.89,-1086.4 494,-956.38 469.36,-919.92 471.22,-895.02 494,-857.38 499.45,-848.36 506.85,-853.05 515,-846.38 528.79,-835.08 542.34,-822.86 555.52,-810.05"/>
<polygon fill="#444444" stroke="#444444" points="558.14,-812.38 562.81,-802.87 553.23,-807.39 558.14,-812.38"/>
<polygon fill="white" stroke="transparent" points="494,-857.38 494,-956.38 804,-956.38 804,-857.38 494,-857.38"/>
<text text-anchor="start" x="498" y="-933.67" font-family="Arial" font-size="24.00" fill="#444444">Reads and writes metadata,</text>
<text text-anchor="start" x="531" y="-909.67" font-family="Arial" font-size="24.00" fill="#444444">FTS, tasks, audit, and</text>
<text text-anchor="start" x="593.5" y="-885.67" font-family="Arial" font-size="24.00" fill="#444444">receipts in</text>
<text text-anchor="start" x="615.5" y="-865.67" font-family="Arial" font-size="19.00" fill="#444444">[sqlite3]</text>
</g>
<!-- 116 -->
<g id="116" class="node">
<title>116</title>
<path fill="#2f95c8" stroke="#20688c" d="M478.5,-705.9C478.5,-724.2 389.98,-739.06 281,-739.06 172.02,-739.06 83.5,-724.2 83.5,-705.9 83.5,-705.9 83.5,-407.47 83.5,-407.47 83.5,-389.17 172.02,-374.31 281,-374.31 389.98,-374.31 478.5,-389.17 478.5,-407.47 478.5,-407.47 478.5,-705.9 478.5,-705.9"/>
<path fill="none" stroke="#20688c" d="M478.5,-705.9C478.5,-687.61 389.98,-672.74 281,-672.74 172.02,-672.74 83.5,-687.61 83.5,-705.9"/>
<text text-anchor="start" x="159.5" y="-640.99" font-family="Arial" font-size="34.00" fill="#ffffff">Local Derivative</text>
<text text-anchor="start" x="240" y="-606.99" font-family="Arial" font-size="34.00" fill="#ffffff">Store</text>
<text text-anchor="start" x="141" y="-584.99" font-family="Arial" font-size="19.00" fill="#ffffff">[Container: WSL local filesystem]</text>
<text text-anchor="start" x="127.5" y="-547.99" font-family="Arial" font-size="24.00" fill="#ffffff">Reconstructible compatibility</text>
<text text-anchor="start" x="112.5" y="-523.99" font-family="Arial" font-size="24.00" fill="#ffffff">evidence such as pre&#45;version&#45;9</text>
<text text-anchor="start" x="151" y="-499.99" font-family="Arial" font-size="24.00" fill="#ffffff">clean&#45;text sidecars; new</text>
<text text-anchor="start" x="157.5" y="-475.99" font-family="Arial" font-size="24.00" fill="#ffffff">captures create no text</text>
<text text-anchor="start" x="232.5" y="-451.99" font-family="Arial" font-size="24.00" fill="#ffffff">sidecars.</text>
</g>
<!-- 104&#45;&gt;116 -->
<g id="117" class="edge">
<title>104&#45;&gt;116</title>
<path fill="none" stroke="#444444" stroke-dasharray="5,2" d="M888.95,-1177.61C642.03,-1139.96 274.57,-1066.86 190,-956.38 144.72,-897.23 151.84,-819.6 176.01,-748.57"/>
<polygon fill="#444444" stroke="#444444" points="179.35,-749.64 179.37,-739.05 172.75,-747.32 179.35,-749.64"/>
<polygon fill="white" stroke="transparent" points="190,-857.38 190,-956.38 458,-956.38 458,-857.38 190,-857.38"/>
<text text-anchor="start" x="194" y="-933.67" font-family="Arial" font-size="24.00" fill="#444444">Reads or deletes legacy</text>
<text text-anchor="start" x="223.5" y="-909.67" font-family="Arial" font-size="24.00" fill="#444444">text sidecars when</text>
<text text-anchor="start" x="279" y="-885.67" font-family="Arial" font-size="24.00" fill="#444444">required</text>
<text text-anchor="start" x="272.5" y="-865.67" font-family="Arial" font-size="19.00" fill="#444444">[Filesystem]</text>
</g>
<!-- 118 -->
<g id="118" class="node">
<title>118</title>
<path fill="#2f95c8" stroke="#20688c" d="M1405,-746.4C1405,-769.67 1318.49,-788.56 1212,-788.56 1105.51,-788.56 1019,-769.67 1019,-746.4 1019,-746.4 1019,-366.97 1019,-366.97 1019,-343.71 1105.51,-324.81 1212,-324.81 1318.49,-324.81 1405,-343.71 1405,-366.97 1405,-366.97 1405,-746.4 1405,-746.4"/>
<path fill="none" stroke="#20688c" d="M1405,-746.4C1405,-723.14 1318.49,-704.24 1212,-704.24 1105.51,-704.24 1019,-723.14 1019,-746.4"/>
<text text-anchor="start" x="1048" y="-676.99" font-family="Arial" font-size="34.00" fill="#ffffff">Bounded Local Media</text>
<text text-anchor="start" x="1168.5" y="-642.99" font-family="Arial" font-size="34.00" fill="#ffffff">Spool</text>
<text text-anchor="start" x="1072" y="-620.99" font-family="Arial" font-size="19.00" fill="#ffffff">[Container: WSL local filesystem]</text>
<text text-anchor="start" x="1060" y="-583.99" font-family="Arial" font-size="24.00" fill="#ffffff">Opt&#45;in durable outage buffer</text>
<text text-anchor="start" x="1063.5" y="-559.99" font-family="Arial" font-size="24.00" fill="#ffffff">beneath the local WSL data</text>
<text text-anchor="start" x="1090.5" y="-535.99" font-family="Arial" font-size="24.00" fill="#ffffff">root; admission counts</text>
<text text-anchor="start" x="1066.5" y="-511.99" font-family="Arial" font-size="24.00" fill="#ffffff">committed files and distinct</text>
<text text-anchor="start" x="1060" y="-487.99" font-family="Arial" font-size="24.00" fill="#ffffff">in&#45;flight SQLite reservations,</text>
<text text-anchor="start" x="1087" y="-463.99" font-family="Arial" font-size="24.00" fill="#ffffff">and drain verifies bytes</text>
<text text-anchor="start" x="1064.5" y="-439.99" font-family="Arial" font-size="24.00" fill="#ffffff">before tier transition/source</text>
<text text-anchor="start" x="1166" y="-415.99" font-family="Arial" font-size="24.00" fill="#ffffff">cleanup.</text>
</g>
<!-- 104&#45;&gt;118 -->
<g id="119" class="edge">
<title>104&#45;&gt;118</title>
<path fill="none" stroke="#444444" stroke-dasharray="5,2" d="M888.65,-1045.26C829.03,-984.42 795.06,-915.93 849,-857.38 869.24,-835.4 956.65,-860.46 983,-846.38 1011.37,-831.2 1037.44,-810.85 1061.01,-787.93"/>
<polygon fill="#444444" stroke="#444444" points="1063.62,-790.28 1068.24,-780.74 1058.68,-785.31 1063.62,-790.28"/>
<polygon fill="white" stroke="transparent" points="849,-857.38 849,-956.38 1125,-956.38 1125,-857.38 849,-857.38"/>
<text text-anchor="start" x="853" y="-933.67" font-family="Arial" font-size="24.00" fill="#444444">Stores and serves media</text>
<text text-anchor="start" x="880" y="-909.67" font-family="Arial" font-size="24.00" fill="#444444">during guarded&#45;root</text>
<text text-anchor="start" x="931" y="-885.67" font-family="Arial" font-size="24.00" fill="#444444">outages in</text>
<text text-anchor="start" x="935.5" y="-865.67" font-family="Arial" font-size="19.00" fill="#444444">[Filesystem]</text>
</g>
<!-- 124 -->
<g id="124" class="node">
<title>124</title>
<path fill="#2f95c8" stroke="#20688c" d="M2293,-732.9C2293,-754.51 2171.09,-772.06 2021,-772.06 1870.91,-772.06 1749,-754.51 1749,-732.9 1749,-732.9 1749,-380.47 1749,-380.47 1749,-358.86 1870.91,-341.31 2021,-341.31 2171.09,-341.31 2293,-358.86 2293,-380.47 2293,-380.47 2293,-732.9 2293,-732.9"/>
<path fill="none" stroke="#20688c" d="M2293,-732.9C2293,-711.3 2171.09,-693.74 2021,-693.74 1870.91,-693.74 1749,-711.3 1749,-732.9"/>
<text text-anchor="start" x="1865.5" y="-664.99" font-family="Arial" font-size="34.00" fill="#ffffff">Guarded Media Blob</text>
<text text-anchor="start" x="1971.5" y="-630.99" font-family="Arial" font-size="34.00" fill="#ffffff">Cache</text>
<text text-anchor="start" x="1778" y="-608.99" font-family="Arial" font-size="19.00" fill="#ffffff">[Container: WSL&#45;visible local or NAS&#45;mounted filesystem]</text>
<text text-anchor="start" x="1911" y="-571.99" font-family="Arial" font-size="24.00" fill="#ffffff">Bounded disposable</text>
<text text-anchor="start" x="1855.5" y="-547.99" font-family="Arial" font-size="24.00" fill="#ffffff">image/video/audio bytes under</text>
<text text-anchor="start" x="1879.5" y="-523.99" font-family="Arial" font-size="24.00" fill="#ffffff">the configured media root;</text>
<text text-anchor="start" x="1907" y="-499.99" font-family="Arial" font-size="24.00" fill="#ffffff">explicit external roots</text>
<text text-anchor="start" x="1922" y="-475.99" font-family="Arial" font-size="24.00" fill="#ffffff">require mount and</text>
<text text-anchor="start" x="1871.5" y="-451.99" font-family="Arial" font-size="24.00" fill="#ffffff">identity&#45;marker proof before</text>
<text text-anchor="start" x="1980" y="-427.99" font-family="Arial" font-size="24.00" fill="#ffffff">access.</text>
</g>
<!-- 104&#45;&gt;124 -->
<g id="125" class="edge">
<title>104&#45;&gt;124</title>
<path fill="none" stroke="#444444" stroke-dasharray="5,2" d="M1137.87,-1039.92C1149.86,-962.23 1168.92,-881.76 1198,-857.38 1219.3,-839.51 1421.1,-853.4 1448,-846.38 1547.48,-820.41 1649.72,-775.64 1739.79,-729"/>
<polygon fill="#444444" stroke="#444444" points="1741.49,-732.05 1748.74,-724.33 1738.26,-725.85 1741.49,-732.05"/>
<polygon fill="white" stroke="transparent" points="1198,-857.38 1198,-956.38 1506,-956.38 1506,-857.38 1198,-857.38"/>
<text text-anchor="start" x="1227" y="-933.67" font-family="Arial" font-size="24.00" fill="#444444">Stores, serves, purges,</text>
<text text-anchor="start" x="1202" y="-909.67" font-family="Arial" font-size="24.00" fill="#444444">and rehydrates media blobs</text>
<text text-anchor="start" x="1342.5" y="-885.67" font-family="Arial" font-size="24.00" fill="#444444">in</text>
<text text-anchor="start" x="1300.5" y="-865.67" font-family="Arial" font-size="19.00" fill="#444444">[Filesystem]</text>
</g>
<!-- 107 -->
<g id="107" class="node">
<title>107</title>
<polygon fill="#438dd5" stroke="#2e6295" points="1777,-1360.38 1423,-1360.38 1423,-1057.38 1777,-1057.38 1777,-1360.38"/>
<text text-anchor="start" x="1453" y="-1312.17" font-family="Arial" font-size="34.00" fill="#ffffff">WSL Media Worker</text>
<text text-anchor="start" x="1460" y="-1290.17" font-family="Arial" font-size="19.00" fill="#ffffff">[Container: Python 3.11 CLI loop]</text>
<text text-anchor="start" x="1452.5" y="-1253.17" font-family="Arial" font-size="24.00" fill="#ffffff">Long&#45;running systemd user</text>
<text text-anchor="start" x="1501.5" y="-1229.17" font-family="Arial" font-size="24.00" fill="#ffffff">worker that leases</text>
<text text-anchor="start" x="1454" y="-1205.17" font-family="Arial" font-size="24.00" fill="#ffffff">daemon&#45;public media fetch</text>
<text text-anchor="start" x="1491" y="-1181.17" font-family="Arial" font-size="24.00" fill="#ffffff">tasks, fetches public</text>
<text text-anchor="start" x="1452" y="-1157.17" font-family="Arial" font-size="24.00" fill="#ffffff">media/HLS without Chrome</text>
<text text-anchor="start" x="1457" y="-1133.17" font-family="Arial" font-size="24.00" fill="#ffffff">cookies, classifies terminal</text>
<text text-anchor="start" x="1454" y="-1109.17" font-family="Arial" font-size="24.00" fill="#ffffff">states, and updates artifact</text>
<text text-anchor="start" x="1571" y="-1085.17" font-family="Arial" font-size="24.00" fill="#ffffff">rows.</text>
</g>
<!-- 107&#45;&gt;112 -->
<g id="114" class="edge">
<title>107&#45;&gt;112</title>
<path fill="none" stroke="#444444" stroke-dasharray="5,2" d="M1585.86,-1057.33C1574.65,-974.47 1555.49,-883.3 1524,-857.38 1500.79,-838.27 1010,-859.59 983,-846.38 964.32,-837.24 946.64,-825.83 930,-812.86"/>
<polygon fill="#444444" stroke="#444444" points="931.9,-809.9 921.91,-806.37 927.52,-815.36 931.9,-809.9"/>
<polygon fill="white" stroke="transparent" points="1567,-869.38 1567,-944.38 1867,-944.38 1867,-869.38 1567,-869.38"/>
<text text-anchor="start" x="1571" y="-921.67" font-family="Arial" font-size="24.00" fill="#444444">Leases and updates media</text>
<text text-anchor="start" x="1676" y="-897.67" font-family="Arial" font-size="24.00" fill="#444444">tasks in</text>
<text text-anchor="start" x="1683.5" y="-877.67" font-family="Arial" font-size="19.00" fill="#444444">[sqlite3]</text>
</g>
<!-- 107&#45;&gt;118 -->
<g id="120" class="edge">
<title>107&#45;&gt;118</title>
<path fill="none" stroke="#444444" stroke-dasharray="5,2" d="M1777.19,-1107.27C1881.06,-1035.98 1978.07,-938.91 1901,-857.38 1886.09,-841.6 1726.78,-852.63 1706,-846.38 1603.37,-815.46 1499.49,-759.31 1413.64,-704.7"/>
<polygon fill="#444444" stroke="#444444" points="1415.44,-701.69 1405.13,-699.25 1411.67,-707.59 1415.44,-701.69"/>
<polygon fill="white" stroke="transparent" points="1928,-857.38 1928,-956.38 2164,-956.38 2164,-857.38 1928,-857.38"/>
<text text-anchor="start" x="1932" y="-933.67" font-family="Arial" font-size="24.00" fill="#444444">Writes fetched media</text>
<text text-anchor="start" x="1939" y="-909.67" font-family="Arial" font-size="24.00" fill="#444444">during guarded&#45;root</text>
<text text-anchor="start" x="1989" y="-885.67" font-family="Arial" font-size="24.00" fill="#444444">outages to</text>
<text text-anchor="start" x="1994.5" y="-865.67" font-family="Arial" font-size="19.00" fill="#444444">[Filesystem]</text>
</g>
<!-- 107&#45;&gt;124 -->
<g id="126" class="edge">
<title>107&#45;&gt;124</title>
<path fill="none" stroke="#444444" stroke-dasharray="5,2" d="M1777.31,-1183.68C1913.51,-1154.77 2092.9,-1091.94 2182,-956.38 2217.37,-902.57 2210.62,-839.75 2186.12,-780.11"/>
<polygon fill="#444444" stroke="#444444" points="2189.19,-778.39 2182.04,-770.57 2182.76,-781.14 2189.19,-778.39"/>
<polygon fill="white" stroke="transparent" points="2206,-869.38 2206,-944.38 2506,-944.38 2506,-869.38 2206,-869.38"/>
<text text-anchor="start" x="2210" y="-921.67" font-family="Arial" font-size="24.00" fill="#444444">Writes fetched media blobs</text>
<text text-anchor="start" x="2345.5" y="-897.67" font-family="Arial" font-size="24.00" fill="#444444">to</text>
<text text-anchor="start" x="2304.5" y="-877.67" font-family="Arial" font-size="19.00" fill="#444444">[Filesystem]</text>
</g>
<!-- 100 -->
<g id="100" class="node">
<title>100</title>
<polygon fill="#438dd5" stroke="#2e6295" points="1151,-1985.38 639,-1985.38 639,-1730.38 1151,-1730.38 1151,-1985.38"/>
<text text-anchor="start" x="792.5" y="-1937.17" font-family="Arial" font-size="34.00" fill="#ffffff">Local Web UI</text>
<text text-anchor="start" x="668" y="-1915.17" font-family="Arial" font-size="19.00" fill="#ffffff">[Container: HTML/CSS/JavaScript served by daemon]</text>
<text text-anchor="start" x="753" y="-1878.17" font-family="Arial" font-size="24.00" fill="#ffffff">Static browser UI for exact</text>
<text text-anchor="start" x="736" y="-1854.17" font-family="Arial" font-size="24.00" fill="#ffffff">search, recent/timeline views,</text>
<text text-anchor="start" x="753.5" y="-1830.17" font-family="Arial" font-size="24.00" fill="#ffffff">document/snapshot detail,</text>
<text text-anchor="start" x="738" y="-1806.17" font-family="Arial" font-size="24.00" fill="#ffffff">media artifact opening, policy</text>
<text text-anchor="start" x="801.5" y="-1782.17" font-family="Arial" font-size="24.00" fill="#ffffff">rules, doctor, and</text>
<text text-anchor="start" x="756.5" y="-1758.17" font-family="Arial" font-size="24.00" fill="#ffffff">forget&#45;domain operations.</text>
</g>
<!-- 100&#45;&gt;104 -->
<g id="106" class="edge">
<title>100&#45;&gt;104</title>
<path fill="none" stroke="#444444" stroke-dasharray="5,2" d="M930.44,-1730.37C954.93,-1646.09 989.39,-1533.25 1025,-1435.38 1030.74,-1419.61 1036.97,-1403.34 1043.4,-1387.09"/>
<polygon fill="#444444" stroke="#444444" points="1046.75,-1388.12 1047.2,-1377.54 1040.25,-1385.53 1046.75,-1388.12"/>
<polygon fill="white" stroke="transparent" points="1025,-1447.38 1025,-1546.38 1302,-1546.38 1302,-1447.38 1025,-1447.38"/>
<text text-anchor="start" x="1030" y="-1523.67" font-family="Arial" font-size="24.00" fill="#444444">Calls authenticated read,</text>
<text text-anchor="start" x="1029.5" y="-1499.67" font-family="Arial" font-size="24.00" fill="#444444">admin, media, and forget</text>
<text text-anchor="start" x="1121.5" y="-1475.67" font-family="Arial" font-size="24.00" fill="#444444">APIs on</text>
<text text-anchor="start" x="1106" y="-1455.67" font-family="Arial" font-size="19.00" fill="#444444">[HTTP/JSON]</text>
</g>
<!-- 97 -->
<g id="97" class="node">
<title>97</title>
<polygon fill="#438dd5" stroke="#2e6295" points="1657,-1997.38 1223,-1997.38 1223,-1718.38 1657,-1718.38 1657,-1997.38"/>
<text text-anchor="start" x="1260" y="-1949.17" font-family="Arial" font-size="34.00" fill="#ffffff">Chrome MV3 Extension</text>
<text text-anchor="start" x="1252" y="-1927.17" font-family="Arial" font-size="19.00" fill="#ffffff">[Container: JavaScript, Chrome Manifest V3]</text>
<text text-anchor="start" x="1297" y="-1890.17" font-family="Arial" font-size="24.00" fill="#ffffff">Captures visible page text,</text>
<text text-anchor="start" x="1322.5" y="-1866.17" font-family="Arial" font-size="24.00" fill="#ffffff">media references, tab</text>
<text text-anchor="start" x="1331" y="-1842.17" font-family="Arial" font-size="24.00" fill="#ffffff">lifecycle events, and</text>
<text text-anchor="start" x="1274" y="-1818.17" font-family="Arial" font-size="24.00" fill="#ffffff">browser&#45;side media bytes from</text>
<text text-anchor="start" x="1269" y="-1794.17" font-family="Arial" font-size="24.00" fill="#ffffff">Windows Chrome; queues work</text>
<text text-anchor="start" x="1281" y="-1770.17" font-family="Arial" font-size="24.00" fill="#ffffff">durably and posts to the WSL</text>
<text text-anchor="start" x="1392.5" y="-1746.17" font-family="Arial" font-size="24.00" fill="#ffffff">daemon.</text>
</g>
<!-- 97&#45;&gt;104 -->
<g id="105" class="edge">
<title>97&#45;&gt;104</title>
<path fill="none" stroke="#444444" stroke-dasharray="5,2" d="M1414.93,-1718.17C1395.8,-1633 1364.34,-1523.7 1316,-1435.38 1306.83,-1418.62 1296.24,-1402.01 1284.83,-1385.87"/>
<polygon fill="#444444" stroke="#444444" points="1287.47,-1383.54 1278.79,-1377.47 1281.78,-1387.63 1287.47,-1383.54"/>
<polygon fill="white" stroke="transparent" points="1369,-1435.38 1369,-1558.38 1864,-1558.38 1864,-1435.38 1369,-1435.38"/>
<text text-anchor="start" x="1536" y="-1535.67" font-family="Arial" font-size="24.00" fill="#444444">Posts /capture,</text>
<text text-anchor="start" x="1513" y="-1511.67" font-family="Arial" font-size="24.00" fill="#444444">/visit&#45;events, media</text>
<text text-anchor="start" x="1490" y="-1487.67" font-family="Arial" font-size="24.00" fill="#444444">metadata, and raw blob</text>
<text text-anchor="start" x="1561" y="-1463.67" font-family="Arial" font-size="24.00" fill="#444444">uploads to</text>
<text text-anchor="start" x="1373.5" y="-1443.67" font-family="Arial" font-size="19.00" fill="#444444">[Bearer HTTP/JSON; raw HTTP PUT over 127.0.0.1:8765]</text>
</g>
</g>
</svg>
