<?xml version="1.0" encoding="UTF-8" standalone="no"?>
<!DOCTYPE svg PUBLIC "-//W3C//DTD SVG 1.1//EN"
 "http://www.w3.org/Graphics/SVG/1.1/DTD/svg11.dtd">
<!-- Generated by graphviz version 2.43.0 (0)
 -->
<!-- Title: %3 Pages: 1 -->
<svg width="1375pt" height="1890pt"
 viewBox="0.00 0.00 1375.00 1889.50" xmlns="http://www.w3.org/2000/svg" xmlns:xlink="http://www.w3.org/1999/xlink">
<g id="graph0" class="graph" transform="scale(1 1) rotate(0) translate(4 1885.5)">
<title>%3</title>
<polygon fill="white" stroke="transparent" points="-4,4 -4,-1885.5 1371,-1885.5 1371,4 -4,4"/>
<text text-anchor="start" x="388" y="-11.8" font-family="Arial" font-size="34.00">Browser Memory Daemon &#45; Containers</text>
<g id="clust1" class="cluster">
<title>cluster_4</title>
<polygon fill="none" stroke="#444444" points="8,-346.5 8,-1873.5 1359,-1873.5 1359,-346.5 8,-346.5"/>
<text text-anchor="start" x="542.5" y="-375.3" font-family="Arial" font-size="24.00" fill="#444444">Browser Memory Daemon</text>
<text text-anchor="start" x="606.5" y="-355.3" font-family="Arial" font-size="19.00" fill="#444444">[Software System]</text>
</g>
<!-- 3 -->
<g id="3" class="node">
<title>3</title>
<polygon fill="#999999" stroke="#6b6b6b" points="1263.5,-321 860.5,-321 860.5,-56 1263.5,-56 1263.5,-321"/>
<text text-anchor="start" x="900.5" y="-272.8" font-family="Arial" font-size="34.00" fill="#ffffff">Web Sites and Media</text>
<text text-anchor="start" x="1008" y="-238.8" font-family="Arial" font-size="34.00" fill="#ffffff">Origins</text>
<text text-anchor="start" x="985" y="-216.8" font-family="Arial" font-size="19.00" fill="#ffffff">[Software System]</text>
<text text-anchor="start" x="952" y="-179.8" font-family="Arial" font-size="24.00" fill="#ffffff">External web pages,</text>
<text text-anchor="start" x="899.5" y="-155.8" font-family="Arial" font-size="24.00" fill="#ffffff">image/video URLs, and media</text>
<text text-anchor="start" x="889.5" y="-131.8" font-family="Arial" font-size="24.00" fill="#ffffff">CDNs that Chrome loads or that</text>
<text text-anchor="start" x="899.5" y="-107.8" font-family="Arial" font-size="24.00" fill="#ffffff">sidecars fetch as page&#45;related</text>
<text text-anchor="start" x="1025.5" y="-83.8" font-family="Arial" font-size="24.00" fill="#ffffff">media.</text>
</g>
<!-- 45 -->
<g id="45" class="node">
<title>45</title>
<polygon fill="#438dd5" stroke="#2e6295" points="418,-895 33,-895 33,-520 418,-520 418,-895"/>
<text text-anchor="start" x="78.5" y="-846.8" font-family="Arial" font-size="34.00" fill="#ffffff">WSL Media Worker</text>
<text text-anchor="start" x="85.5" y="-824.8" font-family="Arial" font-size="19.00" fill="#ffffff">[Container: Python 3.11 CLI loop]</text>
<text text-anchor="start" x="78" y="-787.8" font-family="Arial" font-size="24.00" fill="#ffffff">Long&#45;running systemd user</text>
<text text-anchor="start" x="82.5" y="-763.8" font-family="Arial" font-size="24.00" fill="#ffffff">worker that first drains one</text>
<text text-anchor="start" x="62" y="-739.8" font-family="Arial" font-size="24.00" fill="#ffffff">bounded spool&#45;recovery batch</text>
<text text-anchor="start" x="66" y="-715.8" font-family="Arial" font-size="24.00" fill="#ffffff">when the guarded final root is</text>
<text text-anchor="start" x="127" y="-691.8" font-family="Arial" font-size="24.00" fill="#ffffff">ready, then leases</text>
<text text-anchor="start" x="79.5" y="-667.8" font-family="Arial" font-size="24.00" fill="#ffffff">daemon&#45;public media fetch</text>
<text text-anchor="start" x="116.5" y="-643.8" font-family="Arial" font-size="24.00" fill="#ffffff">tasks, fetches public</text>
<text text-anchor="start" x="77.5" y="-619.8" font-family="Arial" font-size="24.00" fill="#ffffff">media/HLS without Chrome</text>
<text text-anchor="start" x="82.5" y="-595.8" font-family="Arial" font-size="24.00" fill="#ffffff">cookies, classifies terminal</text>
<text text-anchor="start" x="79.5" y="-571.8" font-family="Arial" font-size="24.00" fill="#ffffff">states, and updates artifact</text>
<text text-anchor="start" x="196.5" y="-547.8" font-family="Arial" font-size="24.00" fill="#ffffff">rows.</text>
</g>
<!-- 45&#45;&gt;3 -->
<g id="81" class="edge">
<title>45&#45;&gt;3</title>
<path fill="none" stroke="#707070" stroke-dasharray="5,2" d="M418.2,-570.53C525.58,-495.87 663.05,-403.64 790,-328.5 809.64,-316.88 830.34,-305.2 851.2,-293.81"/>
<polygon fill="#707070" stroke="#707070" points="853.03,-296.8 860.15,-288.95 849.69,-290.65 853.03,-296.8"/>
<polygon fill="white" stroke="transparent" points="461.5,-537.5 461.5,-612.5 746.5,-612.5 746.5,-537.5 461.5,-537.5"/>
<text text-anchor="start" x="466" y="-589.8" font-family="Arial" font-size="24.00" fill="#707070">Fetches public media and</text>
<text text-anchor="start" x="553" y="-565.8" font-family="Arial" font-size="24.00" fill="#707070">HLS from</text>
<text text-anchor="start" x="512.5" y="-545.8" font-family="Arial" font-size="19.00" fill="#707070">[HTTP(S), data URLs]</text>
</g>
<!-- 49 -->
<g id="49" class="node">
<title>49</title>
<path fill="#2f95c8" stroke="#20688c" d="M1247,-777.72C1247,-796.01 1164.08,-810.88 1062,-810.88 959.92,-810.88 877,-796.01 877,-777.72 877,-777.72 877,-479.28 877,-479.28 877,-460.99 959.92,-446.12 1062,-446.12 1164.08,-446.12 1247,-460.99 1247,-479.28 1247,-479.28 1247,-777.72 1247,-777.72"/>
<path fill="none" stroke="#20688c" d="M1247,-777.72C1247,-759.42 1164.08,-744.56 1062,-744.56 959.92,-744.56 877,-759.42 877,-777.72"/>
<text text-anchor="start" x="949" y="-712.8" font-family="Arial" font-size="34.00" fill="#ffffff">SQLite + FTS5</text>
<text text-anchor="start" x="989" y="-678.8" font-family="Arial" font-size="34.00" fill="#ffffff">Database</text>
<text text-anchor="start" x="936" y="-656.8" font-family="Arial" font-size="19.00" fill="#ffffff">[Container: SQLite with FTS5]</text>
<text text-anchor="start" x="942.5" y="-619.8" font-family="Arial" font-size="24.00" fill="#ffffff">Durable text/metadata</text>
<text text-anchor="start" x="911" y="-595.8" font-family="Arial" font-size="24.00" fill="#ffffff">authority including migration</text>
<text text-anchor="start" x="906" y="-571.8" font-family="Arial" font-size="24.00" fill="#ffffff">ledger, capture observations,</text>
<text text-anchor="start" x="916" y="-547.8" font-family="Arial" font-size="24.00" fill="#ffffff">and immutable observation</text>
<text text-anchor="start" x="964" y="-523.8" font-family="Arial" font-size="24.00" fill="#ffffff">ingest sequences.</text>
</g>
<!-- 45&#45;&gt;49 -->
<g id="75" class="edge">
<title>45&#45;&gt;49</title>
<path fill="none" stroke="#707070" stroke-dasharray="5,2" d="M418.21,-689.35C552.6,-676.63 731.62,-659.68 866.6,-646.9"/>
<polygon fill="#707070" stroke="#707070" points="867.02,-650.38 876.65,-645.95 866.36,-643.41 867.02,-650.38"/>
<polygon fill="white" stroke="transparent" points="454,-683.5 454,-758.5 754,-758.5 754,-683.5 454,-683.5"/>
<text text-anchor="start" x="458" y="-735.8" font-family="Arial" font-size="24.00" fill="#707070">Leases and updates media</text>
<text text-anchor="start" x="563" y="-711.8" font-family="Arial" font-size="24.00" fill="#707070">tasks in</text>
<text text-anchor="start" x="570.5" y="-691.8" font-family="Arial" font-size="19.00" fill="#707070">[sqlite3]</text>
</g>
<!-- 51 -->
<g id="51" class="node">
<title>51</title>
<path fill="#2f95c8" stroke="#20688c" d="M1334,-1273.72C1334,-1295.32 1212.09,-1312.88 1062,-1312.88 911.91,-1312.88 790,-1295.32 790,-1273.72 790,-1273.72 790,-921.28 790,-921.28 790,-899.68 911.91,-882.12 1062,-882.12 1212.09,-882.12 1334,-899.68 1334,-921.28 1334,-921.28 1334,-1273.72 1334,-1273.72"/>
<path fill="none" stroke="#20688c" d="M1334,-1273.72C1334,-1252.11 1212.09,-1234.56 1062,-1234.56 911.91,-1234.56 790,-1252.11 790,-1273.72"/>
<text text-anchor="start" x="906.5" y="-1205.8" font-family="Arial" font-size="34.00" fill="#ffffff">Guarded Media Blob</text>
<text text-anchor="start" x="1012.5" y="-1171.8" font-family="Arial" font-size="34.00" fill="#ffffff">Cache</text>
<text text-anchor="start" x="819" y="-1149.8" font-family="Arial" font-size="19.00" fill="#ffffff">[Container: WSL&#45;visible local or NAS&#45;mounted filesystem]</text>
<text text-anchor="start" x="952" y="-1112.8" font-family="Arial" font-size="24.00" fill="#ffffff">Bounded disposable</text>
<text text-anchor="start" x="896.5" y="-1088.8" font-family="Arial" font-size="24.00" fill="#ffffff">image/video/audio bytes under</text>
<text text-anchor="start" x="920.5" y="-1064.8" font-family="Arial" font-size="24.00" fill="#ffffff">the configured media root;</text>
<text text-anchor="start" x="948" y="-1040.8" font-family="Arial" font-size="24.00" fill="#ffffff">explicit external roots</text>
<text text-anchor="start" x="963" y="-1016.8" font-family="Arial" font-size="24.00" fill="#ffffff">require mount and</text>
<text text-anchor="start" x="912.5" y="-992.8" font-family="Arial" font-size="24.00" fill="#ffffff">identity&#45;marker proof before</text>
<text text-anchor="start" x="1021" y="-968.8" font-family="Arial" font-size="24.00" fill="#ffffff">access.</text>
</g>
<!-- 45&#45;&gt;51 -->
<g id="82" class="edge">
<title>45&#45;&gt;51</title>
<path fill="none" stroke="#707070" stroke-dasharray="5,2" d="M418.21,-797.1C525.62,-847.29 661.53,-910.81 780.68,-966.49"/>
<polygon fill="#707070" stroke="#707070" points="779.41,-969.77 789.96,-970.83 782.38,-963.42 779.41,-969.77"/>
<polygon fill="white" stroke="transparent" points="454,-948.5 454,-1023.5 754,-1023.5 754,-948.5 454,-948.5"/>
<text text-anchor="start" x="458" y="-1000.8" font-family="Arial" font-size="24.00" fill="#707070">Writes fetched media blobs</text>
<text text-anchor="start" x="593.5" y="-976.8" font-family="Arial" font-size="24.00" fill="#707070">to</text>
<text text-anchor="start" x="552.5" y="-956.8" font-family="Arial" font-size="19.00" fill="#707070">[Filesystem]</text>
</g>
<!-- 52 -->
<g id="52" class="node">
<title>52</title>
<path fill="#2f95c8" stroke="#20688c" d="M1255,-1806.22C1255,-1829.48 1168.49,-1848.38 1062,-1848.38 955.51,-1848.38 869,-1829.48 869,-1806.22 869,-1806.22 869,-1426.78 869,-1426.78 869,-1403.52 955.51,-1384.62 1062,-1384.62 1168.49,-1384.62 1255,-1403.52 1255,-1426.78 1255,-1426.78 1255,-1806.22 1255,-1806.22"/>
<path fill="none" stroke="#20688c" d="M1255,-1806.22C1255,-1782.95 1168.49,-1764.06 1062,-1764.06 955.51,-1764.06 869,-1782.95 869,-1806.22"/>
<text text-anchor="start" x="898" y="-1736.8" font-family="Arial" font-size="34.00" fill="#ffffff">Bounded Local Media</text>
<text text-anchor="start" x="1018.5" y="-1702.8" font-family="Arial" font-size="34.00" fill="#ffffff">Spool</text>
<text text-anchor="start" x="922" y="-1680.8" font-family="Arial" font-size="19.00" fill="#ffffff">[Container: WSL local filesystem]</text>
<text text-anchor="start" x="910" y="-1643.8" font-family="Arial" font-size="24.00" fill="#ffffff">Opt&#45;in durable outage buffer</text>
<text text-anchor="start" x="913.5" y="-1619.8" font-family="Arial" font-size="24.00" fill="#ffffff">beneath the local WSL data</text>
<text text-anchor="start" x="940.5" y="-1595.8" font-family="Arial" font-size="24.00" fill="#ffffff">root; admission counts</text>
<text text-anchor="start" x="916.5" y="-1571.8" font-family="Arial" font-size="24.00" fill="#ffffff">committed files and distinct</text>
<text text-anchor="start" x="910" y="-1547.8" font-family="Arial" font-size="24.00" fill="#ffffff">in&#45;flight SQLite reservations,</text>
<text text-anchor="start" x="937" y="-1523.8" font-family="Arial" font-size="24.00" fill="#ffffff">and drain verifies bytes</text>
<text text-anchor="start" x="914.5" y="-1499.8" font-family="Arial" font-size="24.00" fill="#ffffff">before tier transition/source</text>
<text text-anchor="start" x="1016" y="-1475.8" font-family="Arial" font-size="24.00" fill="#ffffff">cleanup.</text>
</g>
<!-- 45&#45;&gt;52 -->
<g id="83" class="edge">
<title>45&#45;&gt;52</title>
<path fill="none" stroke="#707070" stroke-dasharray="5,2" d="M343.97,-895.14C377.5,-944.32 415.46,-996.22 454,-1041.5 578.88,-1188.2 737.42,-1337.34 861.16,-1446.96"/>
<polygon fill="#707070" stroke="#707070" points="859.08,-1449.79 868.89,-1453.79 863.71,-1444.54 859.08,-1449.79"/>
<polygon fill="white" stroke="transparent" points="486,-1336.5 486,-1435.5 722,-1435.5 722,-1336.5 486,-1336.5"/>
<text text-anchor="start" x="490" y="-1412.8" font-family="Arial" font-size="24.00" fill="#707070">Writes fetched media</text>
<text text-anchor="start" x="497" y="-1388.8" font-family="Arial" font-size="24.00" fill="#707070">during guarded&#45;root</text>
<text text-anchor="start" x="547" y="-1364.8" font-family="Arial" font-size="24.00" fill="#707070">outages to</text>
<text text-anchor="start" x="552.5" y="-1344.8" font-family="Arial" font-size="19.00" fill="#707070">[Filesystem]</text>
</g>
</g>
</svg>
