<?xml version="1.0" encoding="UTF-8" standalone="no"?>
<!DOCTYPE svg PUBLIC "-//W3C//DTD SVG 1.1//EN"
 "http://www.w3.org/Graphics/SVG/1.1/DTD/svg11.dtd">
<!-- Generated by graphviz version 2.43.0 (0)
 -->
<!-- Title: %3 Pages: 1 -->
<svg width="1991pt" height="1613pt"
 viewBox="0.00 0.00 1991.00 1613.00" xmlns="http://www.w3.org/2000/svg" xmlns:xlink="http://www.w3.org/1999/xlink">
<g id="graph0" class="graph" transform="scale(1 1) rotate(0) translate(4 1609)">
<title>%3</title>
<polygon fill="white" stroke="transparent" points="-4,4 -4,-1609 1987,-1609 1987,4 -4,4"/>
<text text-anchor="start" x="406.5" y="-11.8" font-family="Arial" font-size="34.00">Component View: Browser Memory Daemon &#45; WSL Loopback HTTP Daemon</text>
<g id="clust1" class="cluster">
<title>cluster_4</title>
<polygon fill="none" stroke="#444444" points="8,-64 8,-1597 1975,-1597 1975,-64 8,-64"/>
<text text-anchor="start" x="850.5" y="-92.8" font-family="Arial" font-size="24.00" fill="#444444">Browser Memory Daemon</text>
<text text-anchor="start" x="914.5" y="-72.8" font-family="Arial" font-size="19.00" fill="#444444">[Software System]</text>
</g>
<g id="clust2" class="cluster">
<title>cluster_14</title>
<polygon fill="none" stroke="#444444" points="33,-647 33,-1028 1188,-1028 1188,-647 33,-647"/>
<text text-anchor="start" x="445" y="-675.8" font-family="Arial" font-size="24.00" fill="#444444">WSL Loopback HTTP Daemon</text>
<text text-anchor="start" x="408.5" y="-655.8" font-family="Arial" font-size="19.00" fill="#444444">[Container: Python 3.11, ThreadingHTTPServer]</text>
</g>
<!-- 15 -->
<g id="15" class="node">
<title>15</title>
<polygon fill="#85bbf0" stroke="#1168bd" points="453,-990.5 58,-990.5 58,-759.5 453,-759.5 453,-990.5"/>
<text text-anchor="start" x="87" y="-942.3" font-family="Arial" font-size="34.00" fill="#000000">HTTP Request Router</text>
<text text-anchor="start" x="119" y="-920.3" font-family="Arial" font-size="19.00" fill="#000000">[Component: Python http.server]</text>
<text text-anchor="start" x="90" y="-883.3" font-family="Arial" font-size="24.00" fill="#000000">Routes loopback API requests,</text>
<text text-anchor="start" x="112.5" y="-859.3" font-family="Arial" font-size="24.00" fill="#000000">serves UI assets, enforces</text>
<text text-anchor="start" x="91.5" y="-835.3" font-family="Arial" font-size="24.00" fill="#000000">bearer auth for memory/admin</text>
<text text-anchor="start" x="106" y="-811.3" font-family="Arial" font-size="24.00" fill="#000000">APIs, and applies CORS for</text>
<text text-anchor="start" x="172" y="-787.3" font-family="Arial" font-size="24.00" fill="#000000">allowed origins.</text>
</g>
<!-- 24 -->
<g id="24" class="node">
<title>24</title>
<polygon fill="#85bbf0" stroke="#1168bd" points="1163,-1002.5 781,-1002.5 781,-747.5 1163,-747.5 1163,-1002.5"/>
<text text-anchor="start" x="810" y="-954.3" font-family="Arial" font-size="34.00" fill="#000000">Ops Doctor and Audit</text>
<text text-anchor="start" x="844" y="-932.3" font-family="Arial" font-size="19.00" fill="#000000">[Component: Python + sqlite3]</text>
<text text-anchor="start" x="821.5" y="-895.3" font-family="Arial" font-size="24.00" fill="#000000">Reports health, DB integrity,</text>
<text text-anchor="start" x="836" y="-871.3" font-family="Arial" font-size="24.00" fill="#000000">FTS consistency, runtime</text>
<text text-anchor="start" x="816" y="-847.3" font-family="Arial" font-size="24.00" fill="#000000">paths, storage counts, media</text>
<text text-anchor="start" x="840.5" y="-823.3" font-family="Arial" font-size="24.00" fill="#000000">queue status, and writes</text>
<text text-anchor="start" x="812.5" y="-799.3" font-family="Arial" font-size="24.00" fill="#000000">metadata&#45;only audit events to</text>
<text text-anchor="start" x="931.5" y="-775.3" font-family="Arial" font-size="24.00" fill="#000000">SQLite.</text>
</g>
<!-- 15&#45;&gt;24 -->
<g id="70" class="edge">
<title>15&#45;&gt;24</title>
<path fill="none" stroke="#444444" stroke-dasharray="5,2" d="M453.16,-875C551.9,-875 671.32,-875 770.58,-875"/>
<polygon fill="#444444" stroke="#444444" points="770.74,-878.5 780.74,-875 770.74,-871.5 770.74,-878.5"/>
<text text-anchor="start" x="489" y="-907.8" font-family="Arial" font-size="24.00" fill="#444444">Routes health and audit</text>
<text text-anchor="start" x="577.5" y="-881.8" font-family="Arial" font-size="24.00" fill="#444444">work to</text>
</g>
<!-- 28 -->
<g id="28" class="node">
<title>28</title>
<path fill="#2f95c8" stroke="#20688c" d="M1928.5,-615.22C1928.5,-640.13 1839.98,-660.38 1731,-660.38 1622.02,-660.38 1533.5,-640.13 1533.5,-615.22 1533.5,-615.22 1533.5,-208.78 1533.5,-208.78 1533.5,-183.87 1622.02,-163.62 1731,-163.62 1839.98,-163.62 1928.5,-183.87 1928.5,-208.78 1928.5,-208.78 1928.5,-615.22 1928.5,-615.22"/>
<path fill="none" stroke="#20688c" d="M1928.5,-615.22C1928.5,-590.3 1839.98,-570.06 1731,-570.06 1622.02,-570.06 1533.5,-590.3 1533.5,-615.22"/>
<text text-anchor="start" x="1618" y="-544.3" font-family="Arial" font-size="34.00" fill="#ffffff">SQLite + FTS5</text>
<text text-anchor="start" x="1658" y="-510.3" font-family="Arial" font-size="34.00" fill="#ffffff">Database</text>
<text text-anchor="start" x="1605" y="-488.3" font-family="Arial" font-size="19.00" fill="#ffffff">[Container: SQLite with FTS5]</text>
<text text-anchor="start" x="1612" y="-451.3" font-family="Arial" font-size="24.00" fill="#ffffff">Durable relational and</text>
<text text-anchor="start" x="1590.5" y="-427.3" font-family="Arial" font-size="24.00" fill="#ffffff">full&#45;text store for migration</text>
<text text-anchor="start" x="1579" y="-403.3" font-family="Arial" font-size="24.00" fill="#ffffff">ledger, sources, documents,</text>
<text text-anchor="start" x="1581.5" y="-379.3" font-family="Arial" font-size="24.00" fill="#ffffff">visits, capture observations,</text>
<text text-anchor="start" x="1600" y="-355.3" font-family="Arial" font-size="24.00" fill="#ffffff">URL claims, visit events,</text>
<text text-anchor="start" x="1562.5" y="-331.3" font-family="Arial" font-size="24.00" fill="#ffffff">snapshots, chunks, chunks_fts,</text>
<text text-anchor="start" x="1582.5" y="-307.3" font-family="Arial" font-size="24.00" fill="#ffffff">media artifacts, media fetch</text>
<text text-anchor="start" x="1602.5" y="-283.3" font-family="Arial" font-size="24.00" fill="#ffffff">tasks, policy rules, audit</text>
<text text-anchor="start" x="1573" y="-259.3" font-family="Arial" font-size="24.00" fill="#ffffff">events, and deletion receipts.</text>
</g>
<!-- 24&#45;&gt;28 -->
<g id="84" class="edge">
<title>24&#45;&gt;28</title>
<path fill="none" stroke="#444444" stroke-dasharray="5,2" d="M1163.05,-758.76C1273.17,-691.41 1411.87,-606.57 1524.52,-537.68"/>
<polygon fill="#444444" stroke="#444444" points="1526.57,-540.53 1533.27,-532.32 1522.92,-534.56 1526.57,-540.53"/>
<text text-anchor="start" x="1227.5" y="-773.8" font-family="Arial" font-size="24.00" fill="#444444">Checks integrity and</text>
<text text-anchor="start" x="1289" y="-749.8" font-family="Arial" font-size="24.00" fill="#444444">counts in</text>
<text text-anchor="start" x="1304" y="-729.8" font-family="Arial" font-size="19.00" fill="#444444">[sqlite3]</text>
</g>
<!-- 29 -->
<g id="29" class="node">
<title>29</title>
<path fill="#2f95c8" stroke="#20688c" d="M1950,-991.28C1950,-1005.54 1851.84,-1017.13 1731,-1017.13 1610.16,-1017.13 1512,-1005.54 1512,-991.28 1512,-991.28 1512,-758.72 1512,-758.72 1512,-744.46 1610.16,-732.87 1731,-732.87 1851.84,-732.87 1950,-744.46 1950,-758.72 1950,-758.72 1950,-991.28 1950,-991.28"/>
<path fill="none" stroke="#20688c" d="M1950,-991.28C1950,-977.03 1851.84,-965.44 1731,-965.44 1610.16,-965.44 1512,-977.03 1512,-991.28"/>
<text text-anchor="start" x="1566.5" y="-930.3" font-family="Arial" font-size="34.00" fill="#ffffff">Clean Text Blob Store</text>
<text text-anchor="start" x="1541" y="-908.3" font-family="Arial" font-size="19.00" fill="#ffffff">[Container: WSL or NAS&#45;mounted filesystem]</text>
<text text-anchor="start" x="1572.5" y="-871.3" font-family="Arial" font-size="24.00" fill="#ffffff">Filesystem store for snapshot</text>
<text text-anchor="start" x="1624" y="-847.3" font-family="Arial" font-size="24.00" fill="#ffffff">text blobs under the</text>
<text text-anchor="start" x="1581" y="-823.3" font-family="Arial" font-size="24.00" fill="#ffffff">configured WSL&#45;visible blob</text>
<text text-anchor="start" x="1706.5" y="-799.3" font-family="Arial" font-size="24.00" fill="#ffffff">root.</text>
</g>
<!-- 24&#45;&gt;29 -->
<g id="85" class="edge">
<title>24&#45;&gt;29</title>
<path fill="none" stroke="#444444" stroke-dasharray="5,2" d="M1163.05,-875C1265.82,-875 1393.49,-875 1501.64,-875"/>
<polygon fill="#444444" stroke="#444444" points="1501.71,-878.5 1511.71,-875 1501.71,-871.5 1501.71,-878.5"/>
<text text-anchor="start" x="1212.5" y="-899.8" font-family="Arial" font-size="24.00" fill="#444444">Counts text blob files in</text>
<text text-anchor="start" x="1286" y="-879.8" font-family="Arial" font-size="19.00" fill="#444444">[Filesystem]</text>
</g>
<!-- 30 -->
<g id="30" class="node">
<title>30</title>
<path fill="#2f95c8" stroke="#20688c" d="M1950,-1528.28C1950,-1552.47 1851.84,-1572.13 1731,-1572.13 1610.16,-1572.13 1512,-1552.47 1512,-1528.28 1512,-1528.28 1512,-1133.72 1512,-1133.72 1512,-1109.53 1610.16,-1089.87 1731,-1089.87 1851.84,-1089.87 1950,-1109.53 1950,-1133.72 1950,-1133.72 1950,-1528.28 1950,-1528.28"/>
<path fill="none" stroke="#20688c" d="M1950,-1528.28C1950,-1504.09 1851.84,-1484.44 1731,-1484.44 1610.16,-1484.44 1512,-1504.09 1512,-1528.28"/>
<text text-anchor="start" x="1592" y="-1458.3" font-family="Arial" font-size="34.00" fill="#ffffff">Media Blob Cache</text>
<text text-anchor="start" x="1541" y="-1436.3" font-family="Arial" font-size="19.00" fill="#ffffff">[Container: WSL or NAS&#45;mounted filesystem]</text>
<text text-anchor="start" x="1597.5" y="-1399.3" font-family="Arial" font-size="24.00" fill="#ffffff">Bounded and disposable</text>
<text text-anchor="start" x="1586.5" y="-1375.3" font-family="Arial" font-size="24.00" fill="#ffffff">filesystem cache for stored</text>
<text text-anchor="start" x="1565.5" y="-1351.3" font-family="Arial" font-size="24.00" fill="#ffffff">image/video/audio blobs under</text>
<text text-anchor="start" x="1587" y="-1327.3" font-family="Arial" font-size="24.00" fill="#ffffff">the configured WSL&#45;visible</text>
<text text-anchor="start" x="1655.5" y="-1303.3" font-family="Arial" font-size="24.00" fill="#ffffff">blob root, with</text>
<text text-anchor="start" x="1563.5" y="-1279.3" font-family="Arial" font-size="24.00" fill="#ffffff">purge/rehydrate semantics that</text>
<text text-anchor="start" x="1574.5" y="-1255.3" font-family="Arial" font-size="24.00" fill="#ffffff">preserve media refs, hashes,</text>
<text text-anchor="start" x="1558" y="-1231.3" font-family="Arial" font-size="24.00" fill="#ffffff">status reasons, and provenance</text>
<text text-anchor="start" x="1594.5" y="-1207.3" font-family="Arial" font-size="24.00" fill="#ffffff">when bytes are absent or</text>
<text text-anchor="start" x="1689.5" y="-1183.3" font-family="Arial" font-size="24.00" fill="#ffffff">purged.</text>
</g>
<!-- 24&#45;&gt;30 -->
<g id="86" class="edge">
<title>24&#45;&gt;30</title>
<path fill="none" stroke="#444444" stroke-dasharray="5,2" d="M1163.05,-989.48C1266.24,-1051.64 1394.52,-1128.92 1502.95,-1194.23"/>
<polygon fill="#444444" stroke="#444444" points="1501.34,-1197.35 1511.71,-1199.51 1504.95,-1191.35 1501.34,-1197.35"/>
<text text-anchor="start" x="1199" y="-1194.8" font-family="Arial" font-size="24.00" fill="#444444">Counts media blob files in</text>
<text text-anchor="start" x="1286" y="-1174.8" font-family="Arial" font-size="19.00" fill="#444444">[Filesystem]</text>
</g>
</g>
</svg>
