<?xml version="1.0" encoding="UTF-8" standalone="no"?>
<!DOCTYPE svg PUBLIC "-//W3C//DTD SVG 1.1//EN"
 "http://www.w3.org/Graphics/SVG/1.1/DTD/svg11.dtd">
<!-- Generated by graphviz version 2.43.0 (0)
 -->
<!-- Title: %3 Pages: 1 -->
<svg width="1939pt" height="701pt"
 viewBox="0.00 0.00 1939.00 701.00" xmlns="http://www.w3.org/2000/svg" xmlns:xlink="http://www.w3.org/1999/xlink">
<g id="graph0" class="graph" transform="scale(1 1) rotate(0) translate(4 697)">
<title>%3</title>
<polygon fill="white" stroke="transparent" points="-4,4 -4,-697 1935,-697 1935,4 -4,4"/>
<text text-anchor="start" x="380.5" y="-11.8" font-family="Arial" font-size="34.00">Component View: Browser Memory Daemon &#45; WSL Loopback HTTP Daemon</text>
<g id="clust1" class="cluster">
<title>cluster_4</title>
<polygon fill="none" stroke="#444444" points="8,-64 8,-685 1923,-685 1923,-64 8,-64"/>
<text text-anchor="start" x="824.5" y="-92.8" font-family="Arial" font-size="24.00" fill="#444444">Browser Memory Daemon</text>
<text text-anchor="start" x="888.5" y="-72.8" font-family="Arial" font-size="19.00" fill="#444444">[Software System]</text>
</g>
<g id="clust2" class="cluster">
<title>cluster_14</title>
<polygon fill="none" stroke="#444444" points="33,-196 33,-553 1186,-553 1186,-196 33,-196"/>
<text text-anchor="start" x="444" y="-224.8" font-family="Arial" font-size="24.00" fill="#444444">WSL Loopback HTTP Daemon</text>
<text text-anchor="start" x="407.5" y="-204.8" font-family="Arial" font-size="19.00" fill="#444444">[Container: Python 3.11, ThreadingHTTPServer]</text>
</g>
<!-- 15 -->
<g id="15" class="node">
<title>15</title>
<polygon fill="#85bbf0" stroke="#1168bd" points="453,-527.5 58,-527.5 58,-296.5 453,-296.5 453,-527.5"/>
<text text-anchor="start" x="87" y="-479.3" font-family="Arial" font-size="34.00" fill="#000000">HTTP Request Router</text>
<text text-anchor="start" x="119" y="-457.3" font-family="Arial" font-size="19.00" fill="#000000">[Component: Python http.server]</text>
<text text-anchor="start" x="90" y="-420.3" font-family="Arial" font-size="24.00" fill="#000000">Routes loopback API requests,</text>
<text text-anchor="start" x="112.5" y="-396.3" font-family="Arial" font-size="24.00" fill="#000000">serves UI assets, enforces</text>
<text text-anchor="start" x="91.5" y="-372.3" font-family="Arial" font-size="24.00" fill="#000000">bearer auth for memory/admin</text>
<text text-anchor="start" x="106" y="-348.3" font-family="Arial" font-size="24.00" fill="#000000">APIs, and applies CORS for</text>
<text text-anchor="start" x="172" y="-324.3" font-family="Arial" font-size="24.00" fill="#000000">allowed origins.</text>
</g>
<!-- 20 -->
<g id="20" class="node">
<title>20</title>
<polygon fill="#85bbf0" stroke="#1168bd" points="1161,-515.5 799,-515.5 799,-308.5 1161,-308.5 1161,-515.5"/>
<text text-anchor="start" x="848.5" y="-467.3" font-family="Arial" font-size="34.00" fill="#000000">Lifecycle Pipeline</text>
<text text-anchor="start" x="852" y="-445.3" font-family="Arial" font-size="19.00" fill="#000000">[Component: Python + sqlite3]</text>
<text text-anchor="start" x="844.5" y="-408.3" font-family="Arial" font-size="24.00" fill="#000000">Stores metadata&#45;only tab</text>
<text text-anchor="start" x="828" y="-384.3" font-family="Arial" font-size="24.00" fill="#000000">lifecycle events and updates</text>
<text text-anchor="start" x="880" y="-360.3" font-family="Arial" font-size="24.00" fill="#000000">visit dwell seconds</text>
<text text-anchor="start" x="908.5" y="-336.3" font-family="Arial" font-size="24.00" fill="#000000">idempotently.</text>
</g>
<!-- 15&#45;&gt;20 -->
<g id="66" class="edge">
<title>15&#45;&gt;20</title>
<path fill="none" stroke="#444444" stroke-dasharray="5,2" d="M453.45,-412C557.78,-412 685.34,-412 788.66,-412"/>
<polygon fill="#444444" stroke="#444444" points="788.9,-415.5 798.9,-412 788.9,-408.5 788.9,-415.5"/>
<text text-anchor="start" x="489" y="-418.8" font-family="Arial" font-size="24.00" fill="#444444">Routes lifecycle events to</text>
</g>
<!-- 28 -->
<g id="28" class="node">
<title>28</title>
<path fill="#2f95c8" stroke="#20688c" d="M1898,-615.22C1898,-640.13 1809.48,-660.38 1700.5,-660.38 1591.52,-660.38 1503,-640.13 1503,-615.22 1503,-615.22 1503,-208.78 1503,-208.78 1503,-183.87 1591.52,-163.62 1700.5,-163.62 1809.48,-163.62 1898,-183.87 1898,-208.78 1898,-208.78 1898,-615.22 1898,-615.22"/>
<path fill="none" stroke="#20688c" d="M1898,-615.22C1898,-590.3 1809.48,-570.06 1700.5,-570.06 1591.52,-570.06 1503,-590.3 1503,-615.22"/>
<text text-anchor="start" x="1587.5" y="-544.3" font-family="Arial" font-size="34.00" fill="#ffffff">SQLite + FTS5</text>
<text text-anchor="start" x="1627.5" y="-510.3" font-family="Arial" font-size="34.00" fill="#ffffff">Database</text>
<text text-anchor="start" x="1574.5" y="-488.3" font-family="Arial" font-size="19.00" fill="#ffffff">[Container: SQLite with FTS5]</text>
<text text-anchor="start" x="1581.5" y="-451.3" font-family="Arial" font-size="24.00" fill="#ffffff">Durable relational and</text>
<text text-anchor="start" x="1560" y="-427.3" font-family="Arial" font-size="24.00" fill="#ffffff">full&#45;text store for migration</text>
<text text-anchor="start" x="1548.5" y="-403.3" font-family="Arial" font-size="24.00" fill="#ffffff">ledger, sources, documents,</text>
<text text-anchor="start" x="1551" y="-379.3" font-family="Arial" font-size="24.00" fill="#ffffff">visits, capture observations,</text>
<text text-anchor="start" x="1569.5" y="-355.3" font-family="Arial" font-size="24.00" fill="#ffffff">URL claims, visit events,</text>
<text text-anchor="start" x="1532" y="-331.3" font-family="Arial" font-size="24.00" fill="#ffffff">snapshots, chunks, chunks_fts,</text>
<text text-anchor="start" x="1552" y="-307.3" font-family="Arial" font-size="24.00" fill="#ffffff">media artifacts, media fetch</text>
<text text-anchor="start" x="1572" y="-283.3" font-family="Arial" font-size="24.00" fill="#ffffff">tasks, policy rules, audit</text>
<text text-anchor="start" x="1542.5" y="-259.3" font-family="Arial" font-size="24.00" fill="#ffffff">events, and deletion receipts.</text>
</g>
<!-- 20&#45;&gt;28 -->
<g id="75" class="edge">
<title>20&#45;&gt;28</title>
<path fill="none" stroke="#444444" stroke-dasharray="5,2" d="M1161.38,-412C1262.16,-412 1388.14,-412 1492.87,-412"/>
<polygon fill="#444444" stroke="#444444" points="1492.94,-415.5 1502.94,-412 1492.94,-408.5 1492.94,-415.5"/>
<text text-anchor="start" x="1197" y="-460.8" font-family="Arial" font-size="24.00" fill="#444444">Writes lifecycle and dwell</text>
<text text-anchor="start" x="1321.5" y="-436.8" font-family="Arial" font-size="24.00" fill="#444444">to</text>
<text text-anchor="start" x="1298.5" y="-416.8" font-family="Arial" font-size="19.00" fill="#444444">[sqlite3]</text>
</g>
</g>
</svg>
