<?xml version="1.0" encoding="UTF-8" standalone="no"?>
<!DOCTYPE svg PUBLIC "-//W3C//DTD SVG 1.1//EN"
 "http://www.w3.org/Graphics/SVG/1.1/DTD/svg11.dtd">
<!-- Generated by graphviz version 2.43.0 (0)
 -->
<!-- Title: %3 Pages: 1 -->
<svg width="1991pt" height="993pt"
 viewBox="0.00 0.00 1991.00 993.00" xmlns="http://www.w3.org/2000/svg" xmlns:xlink="http://www.w3.org/1999/xlink">
<g id="graph0" class="graph" transform="scale(1 1) rotate(0) translate(4 989)">
<title>%3</title>
<polygon fill="white" stroke="transparent" points="-4,4 -4,-989 1987,-989 1987,4 -4,4"/>
<text text-anchor="start" x="406.5" y="-11.8" font-family="Arial" font-size="34.00">Component View: Browser Memory Daemon &#45; WSL Loopback HTTP Daemon</text>
<g id="clust1" class="cluster">
<title>cluster_4</title>
<polygon fill="none" stroke="#444444" points="8,-64 8,-977 1975,-977 1975,-64 8,-64"/>
<text text-anchor="start" x="850.5" y="-92.8" font-family="Arial" font-size="24.00" fill="#444444">Browser Memory Daemon</text>
<text text-anchor="start" x="914.5" y="-72.8" font-family="Arial" font-size="19.00" fill="#444444">[Software System]</text>
</g>
<g id="clust2" class="cluster">
<title>cluster_14</title>
<polygon fill="none" stroke="#444444" points="33,-325 33,-682 1232,-682 1232,-325 33,-325"/>
<text text-anchor="start" x="467" y="-353.8" font-family="Arial" font-size="24.00" fill="#444444">WSL Loopback HTTP Daemon</text>
<text text-anchor="start" x="430.5" y="-333.8" font-family="Arial" font-size="19.00" fill="#444444">[Container: Python 3.11, ThreadingHTTPServer]</text>
</g>
<!-- 15 -->
<g id="15" class="node">
<title>15</title>
<polygon fill="#85bbf0" stroke="#5d82a8" points="453,-656.5 58,-656.5 58,-425.5 453,-425.5 453,-656.5"/>
<text text-anchor="start" x="87" y="-608.3" font-family="Arial" font-size="34.00" fill="#000000">HTTP Request Router</text>
<text text-anchor="start" x="119" y="-586.3" font-family="Arial" font-size="19.00" fill="#000000">[Component: Python http.server]</text>
<text text-anchor="start" x="90" y="-549.3" font-family="Arial" font-size="24.00" fill="#000000">Routes loopback API requests,</text>
<text text-anchor="start" x="112.5" y="-525.3" font-family="Arial" font-size="24.00" fill="#000000">serves UI assets, enforces</text>
<text text-anchor="start" x="91.5" y="-501.3" font-family="Arial" font-size="24.00" fill="#000000">bearer auth for memory/admin</text>
<text text-anchor="start" x="106" y="-477.3" font-family="Arial" font-size="24.00" fill="#000000">APIs, and applies CORS for</text>
<text text-anchor="start" x="172" y="-453.3" font-family="Arial" font-size="24.00" fill="#000000">allowed origins.</text>
</g>
<!-- 18 -->
<g id="18" class="node">
<title>18</title>
<polygon fill="#85bbf0" stroke="#5d82a8" points="1207,-656.5 815,-656.5 815,-425.5 1207,-425.5 1207,-656.5"/>
<text text-anchor="start" x="899.5" y="-608.3" font-family="Arial" font-size="34.00" fill="#000000">Ingest Pipeline</text>
<text text-anchor="start" x="883" y="-586.3" font-family="Arial" font-size="19.00" fill="#000000">[Component: Python + sqlite3]</text>
<text text-anchor="start" x="857.5" y="-549.3" font-family="Arial" font-size="24.00" fill="#000000">Normalizes URLs, computes</text>
<text text-anchor="start" x="844" y="-525.3" font-family="Arial" font-size="24.00" fill="#000000">document/snapshot IDs, stores</text>
<text text-anchor="start" x="857.5" y="-501.3" font-family="Arial" font-size="24.00" fill="#000000">visits/snapshots/chunks/FTS</text>
<text text-anchor="start" x="856" y="-477.3" font-family="Arial" font-size="24.00" fill="#000000">rows, writes clean text blobs,</text>
<text text-anchor="start" x="846" y="-453.3" font-family="Arial" font-size="24.00" fill="#000000">and records media references.</text>
</g>
<!-- 15&#45;&gt;18 -->
<g id="63" class="edge">
<title>15&#45;&gt;18</title>
<path fill="none" stroke="#444444" stroke-dasharray="5,2" d="M453.49,-541C561.53,-541 695.32,-541 804.65,-541"/>
<polygon fill="#444444" stroke="#444444" points="804.81,-544.5 814.81,-541 804.81,-537.5 804.81,-544.5"/>
<polygon fill="white" stroke="transparent" points="489,-541 489,-601 779,-601 779,-541 489,-541"/>
<text text-anchor="start" x="493" y="-577.8" font-family="Arial" font-size="24.00" fill="#444444">Routes accepted captures</text>
<text text-anchor="start" x="623.5" y="-551.8" font-family="Arial" font-size="24.00" fill="#444444">to</text>
</g>
<!-- 27 -->
<g id="27" class="node">
<title>27</title>
<path fill="#2f95c8" stroke="#20688c" d="M1925.5,-585.72C1925.5,-608.98 1846.61,-627.88 1749.5,-627.88 1652.39,-627.88 1573.5,-608.98 1573.5,-585.72 1573.5,-585.72 1573.5,-206.28 1573.5,-206.28 1573.5,-183.02 1652.39,-164.12 1749.5,-164.12 1846.61,-164.12 1925.5,-183.02 1925.5,-206.28 1925.5,-206.28 1925.5,-585.72 1925.5,-585.72"/>
<path fill="none" stroke="#20688c" d="M1925.5,-585.72C1925.5,-562.45 1846.61,-543.56 1749.5,-543.56 1652.39,-543.56 1573.5,-562.45 1573.5,-585.72"/>
<text text-anchor="start" x="1636.5" y="-516.3" font-family="Arial" font-size="34.00" fill="#ffffff">SQLite + FTS5</text>
<text text-anchor="start" x="1676.5" y="-482.3" font-family="Arial" font-size="34.00" fill="#ffffff">Database</text>
<text text-anchor="start" x="1623.5" y="-460.3" font-family="Arial" font-size="19.00" fill="#ffffff">[Container: SQLite with FTS5]</text>
<text text-anchor="start" x="1630.5" y="-423.3" font-family="Arial" font-size="24.00" fill="#ffffff">Durable relational and</text>
<text text-anchor="start" x="1613" y="-399.3" font-family="Arial" font-size="24.00" fill="#ffffff">full&#45;text store for sources,</text>
<text text-anchor="start" x="1629" y="-375.3" font-family="Arial" font-size="24.00" fill="#ffffff">documents, visits, visit</text>
<text text-anchor="start" x="1603.5" y="-351.3" font-family="Arial" font-size="24.00" fill="#ffffff">events, snapshots, chunks,</text>
<text text-anchor="start" x="1602.5" y="-327.3" font-family="Arial" font-size="24.00" fill="#ffffff">chunks_fts, media artifacts,</text>
<text text-anchor="start" x="1617.5" y="-303.3" font-family="Arial" font-size="24.00" fill="#ffffff">media fetch tasks, policy</text>
<text text-anchor="start" x="1624" y="-279.3" font-family="Arial" font-size="24.00" fill="#ffffff">rules, audit events, and</text>
<text text-anchor="start" x="1657.5" y="-255.3" font-family="Arial" font-size="24.00" fill="#ffffff">deletion receipts.</text>
</g>
<!-- 18&#45;&gt;27 -->
<g id="70" class="edge">
<title>18&#45;&gt;27</title>
<path fill="none" stroke="#444444" stroke-dasharray="5,2" d="M1207.43,-502.52C1317.67,-480.82 1454.63,-453.86 1563.17,-432.49"/>
<polygon fill="#444444" stroke="#444444" points="1564.11,-435.87 1573.25,-430.5 1562.76,-429 1564.11,-435.87"/>
<polygon fill="white" stroke="transparent" points="1243,-494 1243,-569 1513,-569 1513,-494 1243,-494"/>
<text text-anchor="start" x="1247" y="-546.3" font-family="Arial" font-size="24.00" fill="#444444">Writes capture rows and</text>
<text text-anchor="start" x="1341.5" y="-522.3" font-family="Arial" font-size="24.00" fill="#444444">FTS to</text>
<text text-anchor="start" x="1344.5" y="-502.3" font-family="Arial" font-size="19.00" fill="#444444">[sqlite3]</text>
</g>
<!-- 28 -->
<g id="28" class="node">
<title>28</title>
<path fill="#2f95c8" stroke="#20688c" d="M1950,-928.78C1950,-941.39 1860.13,-951.63 1749.5,-951.63 1638.87,-951.63 1549,-941.39 1549,-928.78 1549,-928.78 1549,-723.22 1549,-723.22 1549,-710.61 1638.87,-700.37 1749.5,-700.37 1860.13,-700.37 1950,-710.61 1950,-723.22 1950,-723.22 1950,-928.78 1950,-928.78"/>
<path fill="none" stroke="#20688c" d="M1950,-928.78C1950,-916.18 1860.13,-905.94 1749.5,-905.94 1638.87,-905.94 1549,-916.18 1549,-928.78"/>
<text text-anchor="start" x="1585" y="-869.3" font-family="Arial" font-size="34.00" fill="#ffffff">Clean Text Blob Store</text>
<text text-anchor="start" x="1632" y="-847.3" font-family="Arial" font-size="19.00" fill="#ffffff">[Container: WSL filesystem]</text>
<text text-anchor="start" x="1591" y="-810.3" font-family="Arial" font-size="24.00" fill="#ffffff">Filesystem store for snapshot</text>
<text text-anchor="start" x="1578" y="-786.3" font-family="Arial" font-size="24.00" fill="#ffffff">text blobs under WSL XDG data</text>
<text text-anchor="start" x="1716" y="-762.3" font-family="Arial" font-size="24.00" fill="#ffffff">paths.</text>
</g>
<!-- 18&#45;&gt;28 -->
<g id="71" class="edge">
<title>18&#45;&gt;28</title>
<path fill="none" stroke="#444444" stroke-dasharray="5,2" d="M1207.43,-616.63C1309.82,-656.25 1435.25,-704.78 1539.56,-745.15"/>
<polygon fill="#444444" stroke="#444444" points="1538.35,-748.43 1548.94,-748.78 1540.88,-741.91 1538.35,-748.43"/>
<polygon fill="white" stroke="transparent" points="1244.5,-733 1244.5,-784 1511.5,-784 1511.5,-733 1244.5,-733"/>
<text text-anchor="start" x="1249" y="-761.3" font-family="Arial" font-size="24.00" fill="#444444">Writes text snapshots to</text>
<text text-anchor="start" x="1327" y="-741.3" font-family="Arial" font-size="19.00" fill="#444444">[Filesystem]</text>
</g>
</g>
</svg>
