<?xml version="1.0" encoding="UTF-8" standalone="no"?>
<!DOCTYPE svg PUBLIC "-//W3C//DTD SVG 1.1//EN"
 "http://www.w3.org/Graphics/SVG/1.1/DTD/svg11.dtd">
<!-- Generated by graphviz version 2.43.0 (0)
 -->
<!-- Title: %3 Pages: 1 -->
<svg width="2225pt" height="1580pt"
 viewBox="0.00 0.00 2225.00 1580.00" xmlns="http://www.w3.org/2000/svg" xmlns:xlink="http://www.w3.org/1999/xlink">
<g id="graph0" class="graph" transform="scale(1 1) rotate(0) translate(4 1576)">
<title>%3</title>
<polygon fill="white" stroke="transparent" points="-4,4 -4,-1576 2221,-1576 2221,4 -4,4"/>
<text text-anchor="start" x="786" y="-11.8" font-family="Arial" font-size="34.00">Container View: Browser Memory Daemon</text>
<g id="clust1" class="cluster">
<title>cluster_4</title>
<polygon fill="none" stroke="#444444" points="8,-64 8,-1564 2209,-1564 2209,-64 8,-64"/>
<text text-anchor="start" x="967.5" y="-92.8" font-family="Arial" font-size="24.00" fill="#444444">Browser Memory Daemon</text>
<text text-anchor="start" x="1031.5" y="-72.8" font-family="Arial" font-size="19.00" fill="#444444">[Software System]</text>
</g>
<!-- 14 -->
<g id="14" class="node">
<title>14</title>
<polygon fill="#438dd5" stroke="#2e6295" points="1364,-1010.5 902,-1010.5 902,-673.5 1364,-673.5 1364,-1010.5"/>
<text text-anchor="start" x="968.5" y="-962.3" font-family="Arial" font-size="34.00" fill="#ffffff">WSL Loopback HTTP</text>
<text text-anchor="start" x="1068.5" y="-928.3" font-family="Arial" font-size="34.00" fill="#ffffff">Daemon</text>
<text text-anchor="start" x="931" y="-906.3" font-family="Arial" font-size="19.00" fill="#ffffff">[Container: Python 3.11, ThreadingHTTPServer]</text>
<text text-anchor="start" x="972" y="-869.3" font-family="Arial" font-size="24.00" fill="#ffffff">Authenticated loopback HTTP</text>
<text text-anchor="start" x="997" y="-845.3" font-family="Arial" font-size="24.00" fill="#ffffff">API that handles capture,</text>
<text text-anchor="start" x="993.5" y="-821.3" font-family="Arial" font-size="24.00" fill="#ffffff">visit events, media artifact</text>
<text text-anchor="start" x="996.5" y="-797.3" font-family="Arial" font-size="24.00" fill="#ffffff">upload/fetch/purge, exact</text>
<text text-anchor="start" x="1093" y="-773.3" font-family="Arial" font-size="24.00" fill="#ffffff">search,</text>
<text text-anchor="start" x="984" y="-749.3" font-family="Arial" font-size="24.00" fill="#ffffff">recent/timeline/detail, policy</text>
<text text-anchor="start" x="1002" y="-725.3" font-family="Arial" font-size="24.00" fill="#ffffff">rules, doctor, forget, and</text>
<text text-anchor="start" x="1043.5" y="-701.3" font-family="Arial" font-size="24.00" fill="#ffffff">static UI serving.</text>
</g>
<!-- 28 -->
<g id="28" class="node">
<title>28</title>
<path fill="#2f95c8" stroke="#20688c" d="M2162.5,-585.72C2162.5,-608.98 2073.98,-627.88 1965,-627.88 1856.02,-627.88 1767.5,-608.98 1767.5,-585.72 1767.5,-585.72 1767.5,-206.28 1767.5,-206.28 1767.5,-183.02 1856.02,-164.12 1965,-164.12 2073.98,-164.12 2162.5,-183.02 2162.5,-206.28 2162.5,-206.28 2162.5,-585.72 2162.5,-585.72"/>
<path fill="none" stroke="#20688c" d="M2162.5,-585.72C2162.5,-562.45 2073.98,-543.56 1965,-543.56 1856.02,-543.56 1767.5,-562.45 1767.5,-585.72"/>
<text text-anchor="start" x="1852" y="-516.3" font-family="Arial" font-size="34.00" fill="#ffffff">SQLite + FTS5</text>
<text text-anchor="start" x="1892" y="-482.3" font-family="Arial" font-size="34.00" fill="#ffffff">Database</text>
<text text-anchor="start" x="1839" y="-460.3" font-family="Arial" font-size="19.00" fill="#ffffff">[Container: SQLite with FTS5]</text>
<text text-anchor="start" x="1846" y="-423.3" font-family="Arial" font-size="24.00" fill="#ffffff">Durable relational and</text>
<text text-anchor="start" x="1824.5" y="-399.3" font-family="Arial" font-size="24.00" fill="#ffffff">full&#45;text store for migration</text>
<text text-anchor="start" x="1813" y="-375.3" font-family="Arial" font-size="24.00" fill="#ffffff">ledger, sources, documents,</text>
<text text-anchor="start" x="1868.5" y="-351.3" font-family="Arial" font-size="24.00" fill="#ffffff">visits, visit events,</text>
<text text-anchor="start" x="1796.5" y="-327.3" font-family="Arial" font-size="24.00" fill="#ffffff">snapshots, chunks, chunks_fts,</text>
<text text-anchor="start" x="1816.5" y="-303.3" font-family="Arial" font-size="24.00" fill="#ffffff">media artifacts, media fetch</text>
<text text-anchor="start" x="1836.5" y="-279.3" font-family="Arial" font-size="24.00" fill="#ffffff">tasks, policy rules, audit</text>
<text text-anchor="start" x="1807" y="-255.3" font-family="Arial" font-size="24.00" fill="#ffffff">events, and deletion receipts.</text>
</g>
<!-- 14&#45;&gt;28 -->
<g id="44" class="edge">
<title>14&#45;&gt;28</title>
<path fill="none" stroke="#444444" stroke-dasharray="5,2" d="M1364.1,-718.36C1487.66,-651.96 1638.71,-570.79 1758.33,-506.52"/>
<polygon fill="#444444" stroke="#444444" points="1760.1,-509.54 1767.25,-501.72 1756.79,-503.37 1760.1,-509.54"/>
<polygon fill="white" stroke="transparent" points="1400,-697 1400,-796 1710,-796 1710,-697 1400,-697"/>
<text text-anchor="start" x="1404" y="-773.3" font-family="Arial" font-size="24.00" fill="#444444">Reads and writes metadata,</text>
<text text-anchor="start" x="1437" y="-749.3" font-family="Arial" font-size="24.00" fill="#444444">FTS, tasks, audit, and</text>
<text text-anchor="start" x="1499.5" y="-725.3" font-family="Arial" font-size="24.00" fill="#444444">receipts in</text>
<text text-anchor="start" x="1521.5" y="-705.3" font-family="Arial" font-size="19.00" fill="#444444">[sqlite3]</text>
</g>
<!-- 29 -->
<g id="29" class="node">
<title>29</title>
<path fill="#2f95c8" stroke="#20688c" d="M2184,-958.28C2184,-972.54 2085.84,-984.13 1965,-984.13 1844.16,-984.13 1746,-972.54 1746,-958.28 1746,-958.28 1746,-725.72 1746,-725.72 1746,-711.46 1844.16,-699.87 1965,-699.87 2085.84,-699.87 2184,-711.46 2184,-725.72 2184,-725.72 2184,-958.28 2184,-958.28"/>
<path fill="none" stroke="#20688c" d="M2184,-958.28C2184,-944.03 2085.84,-932.44 1965,-932.44 1844.16,-932.44 1746,-944.03 1746,-958.28"/>
<text text-anchor="start" x="1800.5" y="-897.3" font-family="Arial" font-size="34.00" fill="#ffffff">Clean Text Blob Store</text>
<text text-anchor="start" x="1775" y="-875.3" font-family="Arial" font-size="19.00" fill="#ffffff">[Container: WSL or NAS&#45;mounted filesystem]</text>
<text text-anchor="start" x="1806.5" y="-838.3" font-family="Arial" font-size="24.00" fill="#ffffff">Filesystem store for snapshot</text>
<text text-anchor="start" x="1858" y="-814.3" font-family="Arial" font-size="24.00" fill="#ffffff">text blobs under the</text>
<text text-anchor="start" x="1815" y="-790.3" font-family="Arial" font-size="24.00" fill="#ffffff">configured WSL&#45;visible blob</text>
<text text-anchor="start" x="1940.5" y="-766.3" font-family="Arial" font-size="24.00" fill="#ffffff">root.</text>
</g>
<!-- 14&#45;&gt;29 -->
<g id="45" class="edge">
<title>14&#45;&gt;29</title>
<path fill="none" stroke="#444444" stroke-dasharray="5,2" d="M1364.1,-842C1480.06,-842 1620.23,-842 1735.91,-842"/>
<polygon fill="#444444" stroke="#444444" points="1735.96,-845.5 1745.96,-842 1735.96,-838.5 1735.96,-845.5"/>
<polygon fill="white" stroke="transparent" points="1434.5,-842 1434.5,-917 1675.5,-917 1675.5,-842 1434.5,-842"/>
<text text-anchor="start" x="1439" y="-894.3" font-family="Arial" font-size="24.00" fill="#444444">Reads and writes text</text>
<text text-anchor="start" x="1487.5" y="-870.3" font-family="Arial" font-size="24.00" fill="#444444">snapshots in</text>
<text text-anchor="start" x="1504" y="-850.3" font-family="Arial" font-size="19.00" fill="#444444">[Filesystem]</text>
</g>
<!-- 30 -->
<g id="30" class="node">
<title>30</title>
<path fill="#2f95c8" stroke="#20688c" d="M2184,-1495.28C2184,-1519.47 2085.84,-1539.13 1965,-1539.13 1844.16,-1539.13 1746,-1519.47 1746,-1495.28 1746,-1495.28 1746,-1100.72 1746,-1100.72 1746,-1076.53 1844.16,-1056.87 1965,-1056.87 2085.84,-1056.87 2184,-1076.53 2184,-1100.72 2184,-1100.72 2184,-1495.28 2184,-1495.28"/>
<path fill="none" stroke="#20688c" d="M2184,-1495.28C2184,-1471.09 2085.84,-1451.44 1965,-1451.44 1844.16,-1451.44 1746,-1471.09 1746,-1495.28"/>
<text text-anchor="start" x="1826" y="-1425.3" font-family="Arial" font-size="34.00" fill="#ffffff">Media Blob Cache</text>
<text text-anchor="start" x="1775" y="-1403.3" font-family="Arial" font-size="19.00" fill="#ffffff">[Container: WSL or NAS&#45;mounted filesystem]</text>
<text text-anchor="start" x="1831.5" y="-1366.3" font-family="Arial" font-size="24.00" fill="#ffffff">Bounded and disposable</text>
<text text-anchor="start" x="1820.5" y="-1342.3" font-family="Arial" font-size="24.00" fill="#ffffff">filesystem cache for stored</text>
<text text-anchor="start" x="1799.5" y="-1318.3" font-family="Arial" font-size="24.00" fill="#ffffff">image/video/audio blobs under</text>
<text text-anchor="start" x="1821" y="-1294.3" font-family="Arial" font-size="24.00" fill="#ffffff">the configured WSL&#45;visible</text>
<text text-anchor="start" x="1889.5" y="-1270.3" font-family="Arial" font-size="24.00" fill="#ffffff">blob root, with</text>
<text text-anchor="start" x="1797.5" y="-1246.3" font-family="Arial" font-size="24.00" fill="#ffffff">purge/rehydrate semantics that</text>
<text text-anchor="start" x="1808.5" y="-1222.3" font-family="Arial" font-size="24.00" fill="#ffffff">preserve media refs, hashes,</text>
<text text-anchor="start" x="1792" y="-1198.3" font-family="Arial" font-size="24.00" fill="#ffffff">status reasons, and provenance</text>
<text text-anchor="start" x="1828.5" y="-1174.3" font-family="Arial" font-size="24.00" fill="#ffffff">when bytes are absent or</text>
<text text-anchor="start" x="1923.5" y="-1150.3" font-family="Arial" font-size="24.00" fill="#ffffff">purged.</text>
</g>
<!-- 14&#45;&gt;30 -->
<g id="46" class="edge">
<title>14&#45;&gt;30</title>
<path fill="none" stroke="#444444" stroke-dasharray="5,2" d="M1364.25,-935.11C1471.96,-981.97 1600.36,-1042.66 1710,-1108 1718.96,-1113.34 1727.99,-1118.93 1737.02,-1124.71"/>
<polygon fill="#444444" stroke="#444444" points="1735.38,-1127.81 1745.68,-1130.3 1739.18,-1121.93 1735.38,-1127.81"/>
<polygon fill="white" stroke="transparent" points="1401,-1108 1401,-1207 1709,-1207 1709,-1108 1401,-1108"/>
<text text-anchor="start" x="1430" y="-1184.3" font-family="Arial" font-size="24.00" fill="#444444">Stores, serves, purges,</text>
<text text-anchor="start" x="1405" y="-1160.3" font-family="Arial" font-size="24.00" fill="#444444">and rehydrates media blobs</text>
<text text-anchor="start" x="1545.5" y="-1136.3" font-family="Arial" font-size="24.00" fill="#444444">in</text>
<text text-anchor="start" x="1503.5" y="-1116.3" font-family="Arial" font-size="19.00" fill="#444444">[Filesystem]</text>
</g>
<!-- 26 -->
<g id="26" class="node">
<title>26</title>
<polygon fill="#438dd5" stroke="#2e6295" points="546,-500.5 34,-500.5 34,-245.5 546,-245.5 546,-500.5"/>
<text text-anchor="start" x="187.5" y="-452.3" font-family="Arial" font-size="34.00" fill="#ffffff">Local Web UI</text>
<text text-anchor="start" x="63" y="-430.3" font-family="Arial" font-size="19.00" fill="#ffffff">[Container: HTML/CSS/JavaScript served by daemon]</text>
<text text-anchor="start" x="148" y="-393.3" font-family="Arial" font-size="24.00" fill="#ffffff">Static browser UI for exact</text>
<text text-anchor="start" x="131" y="-369.3" font-family="Arial" font-size="24.00" fill="#ffffff">search, recent/timeline views,</text>
<text text-anchor="start" x="148.5" y="-345.3" font-family="Arial" font-size="24.00" fill="#ffffff">document/snapshot detail,</text>
<text text-anchor="start" x="133" y="-321.3" font-family="Arial" font-size="24.00" fill="#ffffff">media artifact opening, policy</text>
<text text-anchor="start" x="196.5" y="-297.3" font-family="Arial" font-size="24.00" fill="#ffffff">rules, doctor, and</text>
<text text-anchor="start" x="151.5" y="-273.3" font-family="Arial" font-size="24.00" fill="#ffffff">forget&#45;domain operations.</text>
</g>
<!-- 26&#45;&gt;14 -->
<g id="40" class="edge">
<title>26&#45;&gt;14</title>
<path fill="none" stroke="#444444" stroke-dasharray="5,2" d="M519.7,-500.54C635.48,-565.11 775.96,-643.45 893.14,-708.79"/>
<polygon fill="#444444" stroke="#444444" points="891.45,-711.86 901.89,-713.67 894.86,-705.75 891.45,-711.86"/>
<polygon fill="white" stroke="transparent" points="586,-690 586,-789 863,-789 863,-690 586,-690"/>
<text text-anchor="start" x="591" y="-766.3" font-family="Arial" font-size="24.00" fill="#444444">Calls authenticated read,</text>
<text text-anchor="start" x="590.5" y="-742.3" font-family="Arial" font-size="24.00" fill="#444444">admin, media, and forget</text>
<text text-anchor="start" x="682.5" y="-718.3" font-family="Arial" font-size="24.00" fill="#444444">APIs on</text>
<text text-anchor="start" x="667" y="-698.3" font-family="Arial" font-size="19.00" fill="#444444">[HTTP/JSON]</text>
</g>
<!-- 27 -->
<g id="27" class="node">
<title>27</title>
<polygon fill="#438dd5" stroke="#2e6295" points="547,-981.5 33,-981.5 33,-702.5 547,-702.5 547,-981.5"/>
<text text-anchor="start" x="263" y="-933.3" font-family="Arial" font-size="34.00" fill="#ffffff">CLI</text>
<text text-anchor="start" x="169" y="-911.3" font-family="Arial" font-size="19.00" fill="#ffffff">[Container: Python argparse]</text>
<text text-anchor="start" x="143.5" y="-874.3" font-family="Arial" font-size="24.00" fill="#ffffff">Command&#45;line interface for</text>
<text text-anchor="start" x="126.5" y="-850.3" font-family="Arial" font-size="24.00" fill="#ffffff">serving the daemon, migration</text>
<text text-anchor="start" x="209" y="-826.3" font-family="Arial" font-size="24.00" fill="#ffffff">check/execute,</text>
<text text-anchor="start" x="62" y="-802.3" font-family="Arial" font-size="24.00" fill="#ffffff">health/doctor/search/recent/timeline/detail,</text>
<text text-anchor="start" x="177" y="-778.3" font-family="Arial" font-size="24.00" fill="#ffffff">policy/forget, capture</text>
<text text-anchor="start" x="145" y="-754.3" font-family="Arial" font-size="24.00" fill="#ffffff">fixtures, media worker, and</text>
<text text-anchor="start" x="157.5" y="-730.3" font-family="Arial" font-size="24.00" fill="#ffffff">media cache operations.</text>
</g>
<!-- 27&#45;&gt;14 -->
<g id="41" class="edge">
<title>27&#45;&gt;14</title>
<path fill="none" stroke="#444444" stroke-dasharray="5,2" d="M547.04,-842C656.69,-842 784.04,-842 891.87,-842"/>
<polygon fill="#444444" stroke="#444444" points="891.91,-845.5 901.91,-842 891.91,-838.5 891.91,-845.5"/>
<polygon fill="white" stroke="transparent" points="583,-842 583,-941 866,-941 866,-842 583,-842"/>
<text text-anchor="start" x="587.5" y="-918.3" font-family="Arial" font-size="24.00" fill="#444444">Calls health, read, admin,</text>
<text text-anchor="start" x="620" y="-894.3" font-family="Arial" font-size="24.00" fill="#444444">capture&#45;fixture, and</text>
<text text-anchor="start" x="649" y="-870.3" font-family="Arial" font-size="24.00" fill="#444444">forget APIs on</text>
<text text-anchor="start" x="667" y="-850.3" font-family="Arial" font-size="19.00" fill="#444444">[HTTP/JSON]</text>
</g>
<!-- 27&#45;&gt;28 -->
<g id="42" class="edge">
<title>27&#45;&gt;28</title>
<path fill="none" stroke="#444444" stroke-dasharray="5,2" d="M503.46,-702.42C617.1,-634.58 762.13,-558.5 902,-515 1189.53,-425.59 1539.33,-401.72 1756.88,-396.22"/>
<polygon fill="#444444" stroke="#444444" points="1757.23,-399.71 1767.14,-395.97 1757.06,-392.72 1757.23,-399.71"/>
<polygon fill="white" stroke="transparent" points="996.5,-515 996.5,-638 1269.5,-638 1269.5,-515 996.5,-515"/>
<text text-anchor="start" x="1048.5" y="-615.3" font-family="Arial" font-size="24.00" fill="#444444">Runs migration,</text>
<text text-anchor="start" x="1033.5" y="-591.3" font-family="Arial" font-size="24.00" fill="#444444">media&#45;worker, and</text>
<text text-anchor="start" x="1001" y="-567.3" font-family="Arial" font-size="24.00" fill="#444444">media&#45;cache commands</text>
<text text-anchor="start" x="1094" y="-543.3" font-family="Arial" font-size="24.00" fill="#444444">against</text>
<text text-anchor="start" x="1100" y="-523.3" font-family="Arial" font-size="19.00" fill="#444444">[sqlite3]</text>
</g>
<!-- 27&#45;&gt;30 -->
<g id="43" class="edge">
<title>27&#45;&gt;30</title>
<path fill="none" stroke="#444444" stroke-dasharray="5,2" d="M547.38,-945.91C559.39,-950.4 571.31,-954.79 583,-959 941.76,-1088.22 1028.12,-1136.67 1400,-1221 1509.35,-1245.8 1632.57,-1263.74 1735.87,-1276.03"/>
<polygon fill="#444444" stroke="#444444" points="1735.47,-1279.51 1745.81,-1277.21 1736.29,-1272.56 1735.47,-1279.51"/>
<polygon fill="white" stroke="transparent" points="1006,-1212 1006,-1287 1260,-1287 1260,-1212 1006,-1212"/>
<text text-anchor="start" x="1010" y="-1264.3" font-family="Arial" font-size="24.00" fill="#444444">Purges and rehydrates</text>
<text text-anchor="start" x="1023" y="-1240.3" font-family="Arial" font-size="24.00" fill="#444444">media blobs through</text>
<text text-anchor="start" x="1081.5" y="-1220.3" font-family="Arial" font-size="19.00" fill="#444444">[Filesystem]</text>
</g>
</g>
</svg>
