<?xml version="1.0" encoding="UTF-8" standalone="no"?>
<!DOCTYPE svg PUBLIC "-//W3C//DTD SVG 1.1//EN"
 "http://www.w3.org/Graphics/SVG/1.1/DTD/svg11.dtd">
<!-- Generated by graphviz version 2.43.0 (0)
 -->
<!-- Title: %3 Pages: 1 -->
<svg width="5576pt" height="3290pt"
 viewBox="0.00 0.00 5576.00 3289.69" xmlns="http://www.w3.org/2000/svg" xmlns:xlink="http://www.w3.org/1999/xlink">
<g id="graph0" class="graph" transform="scale(1 1) rotate(0) translate(4 3285.69)">
<title>%3</title>
<polygon fill="white" stroke="transparent" points="-4,4 -4,-3285.69 5572,-3285.69 5572,4 -4,4"/>
<text text-anchor="start" x="2226" y="-11.8" font-family="Arial" font-size="34.00">Browser Memory Daemon &#45; WSL Loopback HTTP Daemon &#45; Components</text>
<g id="clust1" class="cluster">
<title>cluster_23</title>
<polygon fill="none" stroke="#444444" points="8,-1046.69 8,-3273.69 5524,-3273.69 5524,-1046.69 8,-1046.69"/>
<text text-anchor="start" x="2600.5" y="-1075.49" font-family="Arial" font-size="24.00" fill="#444444">WSL Loopback HTTP Daemon</text>
<text text-anchor="start" x="2564" y="-1055.49" font-family="Arial" font-size="19.00" fill="#444444">[Container: Python 3.11, ThreadingHTTPServer]</text>
</g>
<!-- 57 -->
<g id="57" class="node">
<title>57</title>
<path fill="#2f95c8" stroke="#20688c" d="M4641.5,-988.9C4641.5,-1007.2 4558.58,-1022.06 4456.5,-1022.06 4354.42,-1022.06 4271.5,-1007.2 4271.5,-988.9 4271.5,-988.9 4271.5,-690.47 4271.5,-690.47 4271.5,-672.17 4354.42,-657.31 4456.5,-657.31 4558.58,-657.31 4641.5,-672.17 4641.5,-690.47 4641.5,-690.47 4641.5,-988.9 4641.5,-988.9"/>
<path fill="none" stroke="#20688c" d="M4641.5,-988.9C4641.5,-970.61 4558.58,-955.74 4456.5,-955.74 4354.42,-955.74 4271.5,-970.61 4271.5,-988.9"/>
<text text-anchor="start" x="4343.5" y="-923.99" font-family="Arial" font-size="34.00" fill="#ffffff">SQLite + FTS5</text>
<text text-anchor="start" x="4383.5" y="-889.99" font-family="Arial" font-size="34.00" fill="#ffffff">Database</text>
<text text-anchor="start" x="4330.5" y="-867.99" font-family="Arial" font-size="19.00" fill="#ffffff">[Container: SQLite with FTS5]</text>
<text text-anchor="start" x="4337" y="-830.99" font-family="Arial" font-size="24.00" fill="#ffffff">Durable text/metadata</text>
<text text-anchor="start" x="4305.5" y="-806.99" font-family="Arial" font-size="24.00" fill="#ffffff">authority including migration</text>
<text text-anchor="start" x="4300.5" y="-782.99" font-family="Arial" font-size="24.00" fill="#ffffff">ledger, capture observations,</text>
<text text-anchor="start" x="4310.5" y="-758.99" font-family="Arial" font-size="24.00" fill="#ffffff">and immutable observation</text>
<text text-anchor="start" x="4358.5" y="-734.99" font-family="Arial" font-size="24.00" fill="#ffffff">ingest sequences.</text>
</g>
<!-- 59 -->
<g id="59" class="node">
<title>59</title>
<path fill="#2f95c8" stroke="#20688c" d="M5568,-982.9C5568,-1004.51 5446.09,-1022.06 5296,-1022.06 5145.91,-1022.06 5024,-1004.51 5024,-982.9 5024,-982.9 5024,-630.47 5024,-630.47 5024,-608.86 5145.91,-591.31 5296,-591.31 5446.09,-591.31 5568,-608.86 5568,-630.47 5568,-630.47 5568,-982.9 5568,-982.9"/>
<path fill="none" stroke="#20688c" d="M5568,-982.9C5568,-961.3 5446.09,-943.74 5296,-943.74 5145.91,-943.74 5024,-961.3 5024,-982.9"/>
<text text-anchor="start" x="5140.5" y="-914.99" font-family="Arial" font-size="34.00" fill="#ffffff">Guarded Media Blob</text>
<text text-anchor="start" x="5246.5" y="-880.99" font-family="Arial" font-size="34.00" fill="#ffffff">Cache</text>
<text text-anchor="start" x="5053" y="-858.99" font-family="Arial" font-size="19.00" fill="#ffffff">[Container: WSL&#45;visible local or NAS&#45;mounted filesystem]</text>
<text text-anchor="start" x="5186" y="-821.99" font-family="Arial" font-size="24.00" fill="#ffffff">Bounded disposable</text>
<text text-anchor="start" x="5130.5" y="-797.99" font-family="Arial" font-size="24.00" fill="#ffffff">image/video/audio bytes under</text>
<text text-anchor="start" x="5154.5" y="-773.99" font-family="Arial" font-size="24.00" fill="#ffffff">the configured media root;</text>
<text text-anchor="start" x="5182" y="-749.99" font-family="Arial" font-size="24.00" fill="#ffffff">explicit external roots</text>
<text text-anchor="start" x="5197" y="-725.99" font-family="Arial" font-size="24.00" fill="#ffffff">require mount and</text>
<text text-anchor="start" x="5146.5" y="-701.99" font-family="Arial" font-size="24.00" fill="#ffffff">identity&#45;marker proof before</text>
<text text-anchor="start" x="5255" y="-677.99" font-family="Arial" font-size="24.00" fill="#ffffff">access.</text>
</g>
<!-- 60 -->
<g id="60" class="node">
<title>60</title>
<path fill="#2f95c8" stroke="#20688c" d="M5489,-477.4C5489,-500.67 5402.49,-519.56 5296,-519.56 5189.51,-519.56 5103,-500.67 5103,-477.4 5103,-477.4 5103,-97.97 5103,-97.97 5103,-74.71 5189.51,-55.81 5296,-55.81 5402.49,-55.81 5489,-74.71 5489,-97.97 5489,-97.97 5489,-477.4 5489,-477.4"/>
<path fill="none" stroke="#20688c" d="M5489,-477.4C5489,-454.14 5402.49,-435.24 5296,-435.24 5189.51,-435.24 5103,-454.14 5103,-477.4"/>
<text text-anchor="start" x="5132" y="-407.99" font-family="Arial" font-size="34.00" fill="#ffffff">Bounded Local Media</text>
<text text-anchor="start" x="5252.5" y="-373.99" font-family="Arial" font-size="34.00" fill="#ffffff">Spool</text>
<text text-anchor="start" x="5156" y="-351.99" font-family="Arial" font-size="19.00" fill="#ffffff">[Container: WSL local filesystem]</text>
<text text-anchor="start" x="5144" y="-314.99" font-family="Arial" font-size="24.00" fill="#ffffff">Opt&#45;in durable outage buffer</text>
<text text-anchor="start" x="5147.5" y="-290.99" font-family="Arial" font-size="24.00" fill="#ffffff">beneath the local WSL data</text>
<text text-anchor="start" x="5174.5" y="-266.99" font-family="Arial" font-size="24.00" fill="#ffffff">root; admission counts</text>
<text text-anchor="start" x="5150.5" y="-242.99" font-family="Arial" font-size="24.00" fill="#ffffff">committed files and distinct</text>
<text text-anchor="start" x="5144" y="-218.99" font-family="Arial" font-size="24.00" fill="#ffffff">in&#45;flight SQLite reservations,</text>
<text text-anchor="start" x="5171" y="-194.99" font-family="Arial" font-size="24.00" fill="#ffffff">and drain verifies bytes</text>
<text text-anchor="start" x="5148.5" y="-170.99" font-family="Arial" font-size="24.00" fill="#ffffff">before tier transition/source</text>
<text text-anchor="start" x="5250" y="-146.99" font-family="Arial" font-size="24.00" fill="#ffffff">cleanup.</text>
</g>
<!-- 24 -->
<g id="24" class="node">
<title>24</title>
<polygon fill="#85bbf0" stroke="#1168bd" points="527,-3188.19 33,-3188.19 33,-2813.19 527,-2813.19 527,-3188.19"/>
<text text-anchor="start" x="111.5" y="-3139.99" font-family="Arial" font-size="34.00" fill="#000000">HTTP Request Router</text>
<text text-anchor="start" x="62" y="-3117.99" font-family="Arial" font-size="19.00" fill="#000000">[Component: Python http.server + route descriptors]</text>
<text text-anchor="start" x="92.5" y="-3080.99" font-family="Arial" font-size="24.00" fill="#000000">Adapts BaseHTTPRequestHandler</text>
<text text-anchor="start" x="129.5" y="-3056.99" font-family="Arial" font-size="24.00" fill="#000000">requests through immutable</text>
<text text-anchor="start" x="125" y="-3032.99" font-family="Arial" font-size="24.00" fill="#000000">method/path descriptors with</text>
<text text-anchor="start" x="119.5" y="-3008.99" font-family="Arial" font-size="24.00" fill="#000000">static precedence; owns auth,</text>
<text text-anchor="start" x="174.5" y="-2984.99" font-family="Arial" font-size="24.00" fill="#000000">parsing, compatible</text>
<text text-anchor="start" x="155.5" y="-2960.99" font-family="Arial" font-size="24.00" fill="#000000">status/error responses,</text>
<text text-anchor="start" x="119.5" y="-2936.99" font-family="Arial" font-size="24.00" fill="#000000">request IDs, common security</text>
<text text-anchor="start" x="152" y="-2912.99" font-family="Arial" font-size="24.00" fill="#000000">headers, redaction&#45;safe</text>
<text text-anchor="start" x="123.5" y="-2888.99" font-family="Arial" font-size="24.00" fill="#000000">telemetry, bounded response</text>
<text text-anchor="start" x="113" y="-2864.99" font-family="Arial" font-size="24.00" fill="#000000">streaming, disconnect cleanup,</text>
<text text-anchor="start" x="132.5" y="-2840.99" font-family="Arial" font-size="24.00" fill="#000000">CORS, and finite UI assets.</text>
</g>
<!-- 25 -->
<g id="25" class="node">
<title>25</title>
<polygon fill="#85bbf0" stroke="#1168bd" points="1277,-3115.19 876,-3115.19 876,-2764.19 1277,-2764.19 1277,-3115.19"/>
<text text-anchor="start" x="905" y="-3066.99" font-family="Arial" font-size="34.00" fill="#000000">Application Use Cases</text>
<text text-anchor="start" x="987.5" y="-3044.99" font-family="Arial" font-size="19.00" fill="#000000">[Component: Python]</text>
<text text-anchor="start" x="914.5" y="-3007.99" font-family="Arial" font-size="24.00" fill="#000000">Provides request&#45;independent</text>
<text text-anchor="start" x="951.5" y="-2983.99" font-family="Arial" font-size="24.00" fill="#000000">capture, lifecycle, read,</text>
<text text-anchor="start" x="941.5" y="-2959.99" font-family="Arial" font-size="24.00" fill="#000000">forget, policy, doctor, and</text>
<text text-anchor="start" x="950.5" y="-2935.99" font-family="Arial" font-size="24.00" fill="#000000">media use cases; owns</text>
<text text-anchor="start" x="947.5" y="-2911.99" font-family="Arial" font-size="24.00" fill="#000000">database&#45;ready checks,</text>
<text text-anchor="start" x="920.5" y="-2887.99" font-family="Arial" font-size="24.00" fill="#000000">transaction/audit boundaries,</text>
<text text-anchor="start" x="924" y="-2863.99" font-family="Arial" font-size="24.00" fill="#000000">asynchronous media kickoff,</text>
<text text-anchor="start" x="910.5" y="-2839.99" font-family="Arial" font-size="24.00" fill="#000000">and upload/download resource</text>
<text text-anchor="start" x="911.5" y="-2815.99" font-family="Arial" font-size="24.00" fill="#000000">leases without importing HTTP</text>
<text text-anchor="start" x="932.5" y="-2791.99" font-family="Arial" font-size="24.00" fill="#000000">request or response types.</text>
</g>
<!-- 24&#45;&gt;25 -->
<g id="134" class="edge">
<title>24&#45;&gt;25</title>
<path fill="none" stroke="#707070" stroke-dasharray="5,2" d="M527.22,-2981.78C635.7,-2973.45 761.84,-2963.77 865.76,-2955.79"/>
<polygon fill="#707070" stroke="#707070" points="866.05,-2959.28 875.75,-2955.02 865.51,-2952.3 866.05,-2959.28"/>
<polygon fill="white" stroke="transparent" points="563,-2976.69 563,-3062.69 840,-3062.69 840,-2976.69 563,-2976.69"/>
<text text-anchor="start" x="620" y="-3039.49" font-family="Arial" font-size="24.00" fill="#707070">Invokes explicit</text>
<text text-anchor="start" x="567.5" y="-3013.49" font-family="Arial" font-size="24.00" fill="#707070">request&#45;independent use</text>
<text text-anchor="start" x="625.5" y="-2987.49" font-family="Arial" font-size="24.00" fill="#707070">cases through</text>
</g>
<!-- 38 -->
<g id="38" class="node">
<title>38</title>
<polygon fill="#85bbf0" stroke="#1168bd" points="5499,-3248.19 5093,-3248.19 5093,-2935.19 5499,-2935.19 5499,-3248.19"/>
<text text-anchor="start" x="5183" y="-3199.99" font-family="Arial" font-size="34.00" fill="#000000">Media Process</text>
<text text-anchor="start" x="5164.5" y="-3165.99" font-family="Arial" font-size="34.00" fill="#000000">Resource Budget</text>
<text text-anchor="start" x="5122" y="-3143.99" font-family="Arial" font-size="19.00" fill="#000000">[Component: Python threading.Condition]</text>
<text text-anchor="start" x="5133.5" y="-3106.99" font-family="Arial" font-size="24.00" fill="#000000">Bounds active media requests</text>
<text text-anchor="start" x="5162" y="-3082.99" font-family="Arial" font-size="24.00" fill="#000000">and in&#45;flight bytes across</text>
<text text-anchor="start" x="5136" y="-3058.99" font-family="Arial" font-size="24.00" fill="#000000">threads within one daemon or</text>
<text text-anchor="start" x="5162" y="-3034.99" font-family="Arial" font-size="24.00" fill="#000000">worker process; exposes</text>
<text text-anchor="start" x="5167.5" y="-3010.99" font-family="Arial" font-size="24.00" fill="#000000">aggregate counters and</text>
<text text-anchor="start" x="5144" y="-2986.99" font-family="Arial" font-size="24.00" fill="#000000">releases leases on failure or</text>
<text text-anchor="start" x="5228.5" y="-2962.99" font-family="Arial" font-size="24.00" fill="#000000">cancellation.</text>
</g>
<!-- 24&#45;&gt;38 -->
<g id="135" class="edge">
<title>24&#45;&gt;38</title>
<path fill="none" stroke="#707070" stroke-dasharray="5,2" d="M527.06,-3090.01C682.23,-3138.51 888.04,-3188.69 1075.5,-3188.69 1075.5,-3188.69 1075.5,-3188.69 2260.5,-3188.69 2541.53,-3188.69 2611.06,-3213.57 2892,-3220.69 3503.32,-3236.17 4565.01,-3174.93 4662,-3169.69 4807.07,-3161.84 4843.83,-3163.63 4988,-3145.69 5018.65,-3141.87 5050.89,-3137.08 5082.49,-3131.92"/>
<polygon fill="#707070" stroke="#707070" points="5083.43,-3135.32 5092.73,-3130.24 5082.29,-3128.41 5083.43,-3135.32"/>
<polygon fill="white" stroke="transparent" points="2481,-3218.69 2481,-3278.69 2812,-3278.69 2812,-3218.69 2481,-3218.69"/>
<text text-anchor="start" x="2485.5" y="-3255.49" font-family="Arial" font-size="24.00" fill="#707070">Leases bounded JSON media</text>
<text text-anchor="start" x="2504" y="-3229.49" font-family="Arial" font-size="24.00" fill="#707070">request admission through</text>
</g>
<!-- 31 -->
<g id="31" class="node">
<title>31</title>
<polygon fill="#85bbf0" stroke="#1168bd" points="2082,-2443.19 1661,-2443.19 1661,-2130.19 2082,-2130.19 2082,-2443.19"/>
<text text-anchor="start" x="1768" y="-2394.99" font-family="Arial" font-size="34.00" fill="#000000">Media Artifact</text>
<text text-anchor="start" x="1804.5" y="-2360.99" font-family="Arial" font-size="34.00" fill="#000000">Manager</text>
<text text-anchor="start" x="1690" y="-2338.99" font-family="Arial" font-size="19.00" fill="#000000">[Component: Python + sqlite3 + filesystem]</text>
<text text-anchor="start" x="1734.5" y="-2301.99" font-family="Arial" font-size="24.00" fill="#000000">Provides the compatibility</text>
<text text-anchor="start" x="1704.5" y="-2277.99" font-family="Arial" font-size="24.00" fill="#000000">API, records media references,</text>
<text text-anchor="start" x="1702" y="-2253.99" font-family="Arial" font-size="24.00" fill="#000000">streams bounded blob uploads,</text>
<text text-anchor="start" x="1712" y="-2229.99" font-family="Arial" font-size="24.00" fill="#000000">and delegates guarded public</text>
<text text-anchor="start" x="1733" y="-2205.99" font-family="Arial" font-size="24.00" fill="#000000">transport without coupling</text>
<text text-anchor="start" x="1766" y="-2181.99" font-family="Arial" font-size="24.00" fill="#000000">text ingest to media</text>
<text text-anchor="start" x="1813" y="-2157.99" font-family="Arial" font-size="24.00" fill="#000000">availability.</text>
</g>
<!-- 25&#45;&gt;31 -->
<g id="141" class="edge">
<title>25&#45;&gt;31</title>
<path fill="none" stroke="#707070" stroke-dasharray="5,2" d="M1277.1,-2775.33C1397.98,-2675.79 1551.58,-2549.3 1672.22,-2449.96"/>
<polygon fill="#707070" stroke="#707070" points="1674.63,-2452.52 1680.12,-2443.46 1670.18,-2447.11 1674.63,-2452.52"/>
<polygon fill="white" stroke="transparent" points="1313,-2727.69 1313,-2787.69 1625,-2787.69 1625,-2727.69 1313,-2727.69"/>
<text text-anchor="start" x="1317" y="-2764.49" font-family="Arial" font-size="24.00" fill="#707070">Coordinates media requests</text>
<text text-anchor="start" x="1427.5" y="-2738.49" font-family="Arial" font-size="24.00" fill="#707070">through</text>
</g>
<!-- 25&#45;&gt;38 -->
<g id="142" class="edge">
<title>25&#45;&gt;38</title>
<path fill="none" stroke="#707070" stroke-dasharray="5,2" d="M1277.43,-2957.61C1831.59,-3006.94 3379.98,-3142.47 3891,-3162.69 4034.89,-3168.38 4071.08,-3167.41 4215,-3162.69 4516.57,-3152.79 4864.74,-3127.37 5082.4,-3109.8"/>
<polygon fill="#707070" stroke="#707070" points="5082.98,-3113.27 5092.66,-3108.97 5082.41,-3106.29 5082.98,-3113.27"/>
<polygon fill="white" stroke="transparent" points="2908.5,-3116.69 2908.5,-3202.69 3169.5,-3202.69 3169.5,-3116.69 2908.5,-3116.69"/>
<text text-anchor="start" x="2913" y="-3179.49" font-family="Arial" font-size="24.00" fill="#707070">Leases bounded media</text>
<text text-anchor="start" x="2926" y="-3153.49" font-family="Arial" font-size="24.00" fill="#707070">upload and response</text>
<text text-anchor="start" x="2950.5" y="-3127.49" font-family="Arial" font-size="24.00" fill="#707070">capacity through</text>
</g>
<!-- 31&#45;&gt;57 -->
<g id="155" class="edge">
<title>31&#45;&gt;57</title>
<path fill="none" stroke="#707070" stroke-dasharray="5,2" d="M1908.6,-2129.96C1946.32,-1985.98 2014.6,-1770.45 2118,-1604.69 2370.71,-1199.58 2467.36,-1077.98 2892,-859.69 3337.13,-630.86 3952.07,-721.26 4261.34,-789.77"/>
<polygon fill="#707070" stroke="#707070" points="4260.78,-793.23 4271.31,-791.99 4262.31,-786.4 4260.78,-793.23"/>
<polygon fill="white" stroke="transparent" points="2913.5,-859.69 2913.5,-934.69 3164.5,-934.69 3164.5,-859.69 2913.5,-859.69"/>
<text text-anchor="start" x="2918" y="-911.99" font-family="Arial" font-size="24.00" fill="#707070">Updates media artifact</text>
<text text-anchor="start" x="3001" y="-887.99" font-family="Arial" font-size="24.00" fill="#707070">rows in</text>
<text text-anchor="start" x="3006" y="-867.99" font-family="Arial" font-size="19.00" fill="#707070">[sqlite3]</text>
</g>
<!-- 32 -->
<g id="32" class="node">
<title>32</title>
<polygon fill="#85bbf0" stroke="#1168bd" points="4630,-2414.19 4283,-2414.19 4283,-2159.19 4630,-2159.19 4630,-2414.19"/>
<text text-anchor="start" x="4314.5" y="-2365.99" font-family="Arial" font-size="34.00" fill="#000000">Media State Model</text>
<text text-anchor="start" x="4367.5" y="-2343.99" font-family="Arial" font-size="19.00" fill="#000000">[Component: Python]</text>
<text text-anchor="start" x="4332" y="-2306.99" font-family="Arial" font-size="24.00" fill="#000000">Owns caller&#45;visible and</text>
<text text-anchor="start" x="4315.5" y="-2282.99" font-family="Arial" font-size="24.00" fill="#000000">internal artifact/task status</text>
<text text-anchor="start" x="4331.5" y="-2258.99" font-family="Arial" font-size="24.00" fill="#000000">taxonomies, fetch&#45;error</text>
<text text-anchor="start" x="4321" y="-2234.99" font-family="Arial" font-size="24.00" fill="#000000">classification, and explicit</text>
<text text-anchor="start" x="4312" y="-2210.99" font-family="Arial" font-size="24.00" fill="#000000">ordinary versus force&#45;reset</text>
<text text-anchor="start" x="4354.5" y="-2186.99" font-family="Arial" font-size="24.00" fill="#000000">transition matrices.</text>
</g>
<!-- 31&#45;&gt;32 -->
<g id="151" class="edge">
<title>31&#45;&gt;32</title>
<path fill="none" stroke="#707070" stroke-dasharray="5,2" d="M2082.08,-2306.64C2443.95,-2338.25 3209.25,-2392.67 3855,-2355.69 3995.75,-2347.63 4154.16,-2329.02 4272.92,-2313.16"/>
<polygon fill="#707070" stroke="#707070" points="4273.4,-2316.63 4282.84,-2311.83 4272.47,-2309.69 4273.4,-2316.63"/>
<polygon fill="white" stroke="transparent" points="2906,-2365.69 2906,-2451.69 3172,-2451.69 3172,-2365.69 2906,-2365.69"/>
<text text-anchor="start" x="2947.5" y="-2428.49" font-family="Arial" font-size="24.00" fill="#707070">Classifies artifact</text>
<text text-anchor="start" x="2910" y="-2402.49" font-family="Arial" font-size="24.00" fill="#707070">outcomes and transition</text>
<text text-anchor="start" x="2964.5" y="-2376.49" font-family="Arial" font-size="24.00" fill="#707070">intent through</text>
</g>
<!-- 33 -->
<g id="33" class="node">
<title>33</title>
<polygon fill="#85bbf0" stroke="#1168bd" points="3740,-2142.19 3337,-2142.19 3337,-1863.19 3740,-1863.19 3740,-2142.19"/>
<text text-anchor="start" x="3366" y="-2093.99" font-family="Arial" font-size="34.00" fill="#000000">Media Task Repository</text>
<text text-anchor="start" x="3410.5" y="-2071.99" font-family="Arial" font-size="19.00" fill="#000000">[Component: Python + sqlite3]</text>
<text text-anchor="start" x="3389.5" y="-2034.99" font-family="Arial" font-size="24.00" fill="#000000">Creates deterministic tasks,</text>
<text text-anchor="start" x="3405.5" y="-2010.99" font-family="Arial" font-size="24.00" fill="#000000">preserves terminal state,</text>
<text text-anchor="start" x="3390.5" y="-1986.99" font-family="Arial" font-size="24.00" fill="#000000">atomically leases due work,</text>
<text text-anchor="start" x="3397.5" y="-1962.99" font-family="Arial" font-size="24.00" fill="#000000">recovers stale leases, and</text>
<text text-anchor="start" x="3379.5" y="-1938.99" font-family="Arial" font-size="24.00" fill="#000000">applies bounded retry/backoff</text>
<text text-anchor="start" x="3379" y="-1914.99" font-family="Arial" font-size="24.00" fill="#000000">outcomes independently from</text>
<text text-anchor="start" x="3450.5" y="-1890.99" font-family="Arial" font-size="24.00" fill="#000000">media transport.</text>
</g>
<!-- 31&#45;&gt;33 -->
<g id="152" class="edge">
<title>31&#45;&gt;33</title>
<path fill="none" stroke="#707070" stroke-dasharray="5,2" d="M2082.14,-2273.71C2179.43,-2266.23 2296.44,-2255.18 2401,-2239.69 2726.75,-2191.41 3099.62,-2108.22 3326.78,-2054.35"/>
<polygon fill="#707070" stroke="#707070" points="3327.9,-2057.68 3336.82,-2051.96 3326.28,-2050.87 3327.9,-2057.68"/>
<polygon fill="white" stroke="transparent" points="2495,-2231.69 2495,-2291.69 2798,-2291.69 2798,-2231.69 2495,-2231.69"/>
<text text-anchor="start" x="2499.5" y="-2268.49" font-family="Arial" font-size="24.00" fill="#707070">Creates and claims durable</text>
<text text-anchor="start" x="2540" y="-2242.49" font-family="Arial" font-size="24.00" fill="#707070">media work through</text>
</g>
<!-- 34 -->
<g id="34" class="node">
<title>34</title>
<polygon fill="#85bbf0" stroke="#1168bd" points="2856,-1998.19 2437,-1998.19 2437,-1647.19 2856,-1647.19 2856,-1998.19"/>
<text text-anchor="start" x="2497.5" y="-1949.99" font-family="Arial" font-size="34.00" fill="#000000">Media Artifact Store</text>
<text text-anchor="start" x="2466" y="-1927.99" font-family="Arial" font-size="19.00" fill="#000000">[Component: Python + sqlite3 + BlobStore]</text>
<text text-anchor="start" x="2543.5" y="-1890.99" font-family="Arial" font-size="24.00" fill="#000000">Owns artifact rows,</text>
<text text-anchor="start" x="2499" y="-1866.99" font-family="Arial" font-size="24.00" fill="#000000">transactional cross&#45;process</text>
<text text-anchor="start" x="2501.5" y="-1842.99" font-family="Arial" font-size="24.00" fill="#000000">cache reservations, unique</text>
<text text-anchor="start" x="2531" y="-1818.99" font-family="Arial" font-size="24.00" fill="#000000">streamed publication,</text>
<text text-anchor="start" x="2505.5" y="-1794.99" font-family="Arial" font-size="24.00" fill="#000000">failed&#45;write compensation,</text>
<text text-anchor="start" x="2521" y="-1770.99" font-family="Arial" font-size="24.00" fill="#000000">contained reads, cache</text>
<text text-anchor="start" x="2529" y="-1746.99" font-family="Arial" font-size="24.00" fill="#000000">admission, oldest&#45;first</text>
<text text-anchor="start" x="2500" y="-1722.99" font-family="Arial" font-size="24.00" fill="#000000">eviction, purge/rehydration,</text>
<text text-anchor="start" x="2580" y="-1698.99" font-family="Arial" font-size="24.00" fill="#000000">and lifecycle</text>
<text text-anchor="start" x="2517" y="-1674.99" font-family="Arial" font-size="24.00" fill="#000000">registration/tombstones.</text>
</g>
<!-- 31&#45;&gt;34 -->
<g id="153" class="edge">
<title>31&#45;&gt;34</title>
<path fill="none" stroke="#707070" stroke-dasharray="5,2" d="M2082.19,-2160.82C2189.39,-2096.47 2319.71,-2018.24 2428,-1953.24"/>
<polygon fill="#707070" stroke="#707070" points="2429.97,-1956.14 2436.75,-1947.99 2426.37,-1950.14 2429.97,-1956.14"/>
<polygon fill="white" stroke="transparent" points="2130.5,-2135.69 2130.5,-2221.69 2388.5,-2221.69 2388.5,-2135.69 2130.5,-2135.69"/>
<text text-anchor="start" x="2152" y="-2198.49" font-family="Arial" font-size="24.00" fill="#707070">Publishes, resolves,</text>
<text text-anchor="start" x="2134.5" y="-2172.49" font-family="Arial" font-size="24.00" fill="#707070">purges, and rehydrates</text>
<text text-anchor="start" x="2172" y="-2146.49" font-family="Arial" font-size="24.00" fill="#707070">artifacts through</text>
</g>
<!-- 35 -->
<g id="35" class="node">
<title>35</title>
<polygon fill="#85bbf0" stroke="#1168bd" points="2841.5,-2888.19 2451.5,-2888.19 2451.5,-2575.19 2841.5,-2575.19 2841.5,-2888.19"/>
<text text-anchor="start" x="2523.5" y="-2839.99" font-family="Arial" font-size="34.00" fill="#000000">Media Transport</text>
<text text-anchor="start" x="2557.5" y="-2805.99" font-family="Arial" font-size="34.00" fill="#000000">Coordinator</text>
<text text-anchor="start" x="2557.5" y="-2783.99" font-family="Arial" font-size="19.00" fill="#000000">[Component: Python]</text>
<text text-anchor="start" x="2496" y="-2746.99" font-family="Arial" font-size="24.00" fill="#000000">Classifies direct versus HLS</text>
<text text-anchor="start" x="2525" y="-2722.99" font-family="Arial" font-size="24.00" fill="#000000">responses, applies the</text>
<text text-anchor="start" x="2480.5" y="-2698.99" font-family="Arial" font-size="24.00" fill="#000000">aggregate HLS request budget</text>
<text text-anchor="start" x="2499" y="-2674.99" font-family="Arial" font-size="24.00" fill="#000000">from the first network open,</text>
<text text-anchor="start" x="2494.5" y="-2650.99" font-family="Arial" font-size="24.00" fill="#000000">enforces playlist sniffing and</text>
<text text-anchor="start" x="2501.5" y="-2626.99" font-family="Arial" font-size="24.00" fill="#000000">byte caps, and coordinates</text>
<text text-anchor="start" x="2488" y="-2602.99" font-family="Arial" font-size="24.00" fill="#000000">bounded streamed assembly.</text>
</g>
<!-- 31&#45;&gt;35 -->
<g id="154" class="edge">
<title>31&#45;&gt;35</title>
<path fill="none" stroke="#707070" stroke-dasharray="5,2" d="M2082.03,-2417.33C2094.16,-2424.61 2106.22,-2431.77 2118,-2438.69 2224.12,-2500.96 2343.9,-2567.77 2442.48,-2621.85"/>
<polygon fill="#707070" stroke="#707070" points="2440.89,-2624.97 2451.34,-2626.71 2444.26,-2618.83 2440.89,-2624.97"/>
<polygon fill="white" stroke="transparent" points="2118,-2592.69 2118,-2652.69 2401,-2652.69 2401,-2592.69 2118,-2592.69"/>
<text text-anchor="start" x="2122.5" y="-2629.49" font-family="Arial" font-size="24.00" fill="#707070">Delegates daemon&#45;public</text>
<text text-anchor="start" x="2139.5" y="-2603.49" font-family="Arial" font-size="24.00" fill="#707070">media orchestration to</text>
</g>
<!-- 39 -->
<g id="39" class="node">
<title>39</title>
<polygon fill="#85bbf0" stroke="#1168bd" points="4662,-1450.19 4251,-1450.19 4251,-1147.19 4662,-1147.19 4662,-1450.19"/>
<text text-anchor="start" x="4300" y="-1401.99" font-family="Arial" font-size="34.00" fill="#000000">Contained BlobStore</text>
<text text-anchor="start" x="4280" y="-1379.99" font-family="Arial" font-size="19.00" fill="#000000">[Component: Python filesystem boundary]</text>
<text text-anchor="start" x="4304" y="-1342.99" font-family="Arial" font-size="24.00" fill="#000000">Prefers root&#45;relative locators</text>
<text text-anchor="start" x="4340.5" y="-1318.99" font-family="Arial" font-size="24.00" fill="#000000">with contained legacy</text>
<text text-anchor="start" x="4325.5" y="-1294.99" font-family="Arial" font-size="24.00" fill="#000000">fallback; streams unique</text>
<text text-anchor="start" x="4341.5" y="-1270.99" font-family="Arial" font-size="24.00" fill="#000000">stages with size/hash</text>
<text text-anchor="start" x="4337.5" y="-1246.99" font-family="Arial" font-size="24.00" fill="#000000">accounting; atomically</text>
<text text-anchor="start" x="4309.5" y="-1222.99" font-family="Arial" font-size="24.00" fill="#000000">commits; and contains blob</text>
<text text-anchor="start" x="4342" y="-1198.99" font-family="Arial" font-size="24.00" fill="#000000">read, stat, and delete</text>
<text text-anchor="start" x="4396" y="-1174.99" font-family="Arial" font-size="24.00" fill="#000000">operations.</text>
</g>
<!-- 31&#45;&gt;39 -->
<g id="170" class="edge">
<title>31&#45;&gt;39</title>
<path fill="none" stroke="#707070" stroke-dasharray="5,2" d="M1982.95,-2129.79C2024.02,-2073.51 2071.86,-2010.25 2118,-1954.69 2499.98,-1494.63 2636.49,-1307.09 3222,-1185.69 3497.47,-1128.57 3574.88,-1159.56 3855,-1185.69 3984.19,-1197.74 4127.01,-1224.07 4240.94,-1248.28"/>
<polygon fill="#707070" stroke="#707070" points="4240.32,-1251.73 4250.83,-1250.39 4241.78,-1244.88 4240.32,-1251.73"/>
<polygon fill="white" stroke="transparent" points="2893.5,-1274.69 2893.5,-1360.69 3184.5,-1360.69 3184.5,-1274.69 2893.5,-1274.69"/>
<text text-anchor="start" x="2918" y="-1337.49" font-family="Arial" font-size="24.00" fill="#707070">Checks current artifact</text>
<text text-anchor="start" x="2917.5" y="-1311.49" font-family="Arial" font-size="24.00" fill="#707070">presence and resolves</text>
<text text-anchor="start" x="2898" y="-1285.49" font-family="Arial" font-size="24.00" fill="#707070">contained storage through</text>
</g>
<!-- 33&#45;&gt;57 -->
<g id="157" class="edge">
<title>33&#45;&gt;57</title>
<path fill="none" stroke="#707070" stroke-dasharray="5,2" d="M3740.2,-1918.82C3785.23,-1890.49 3827.7,-1854.17 3855,-1808.69 3921.69,-1697.59 3824.03,-1337.62 3891,-1226.69 3978.1,-1082.41 4076.62,-1125.88 4215,-1029.69 4230.81,-1018.7 4246.96,-1007.01 4263.03,-995.06"/>
<polygon fill="#707070" stroke="#707070" points="4265.52,-997.57 4271.43,-988.78 4261.32,-991.97 4265.52,-997.57"/>
<polygon fill="white" stroke="transparent" points="3916.5,-1226.69 3916.5,-1301.69 4189.5,-1301.69 4189.5,-1226.69 3916.5,-1226.69"/>
<text text-anchor="start" x="3942" y="-1278.99" font-family="Arial" font-size="24.00" fill="#707070">Creates, leases, and</text>
<text text-anchor="start" x="3921" y="-1254.99" font-family="Arial" font-size="24.00" fill="#707070">advances media tasks in</text>
<text text-anchor="start" x="4020" y="-1234.99" font-family="Arial" font-size="19.00" fill="#707070">[sqlite3]</text>
</g>
<!-- 33&#45;&gt;32 -->
<g id="156" class="edge">
<title>33&#45;&gt;32</title>
<path fill="none" stroke="#707070" stroke-dasharray="5,2" d="M3740.32,-2047.39C3875.96,-2079.66 4058.19,-2127.04 4215,-2181.69 4234.13,-2188.35 4253.86,-2195.87 4273.42,-2203.74"/>
<polygon fill="#707070" stroke="#707070" points="4272.12,-2206.99 4282.7,-2207.51 4274.75,-2200.5 4272.12,-2206.99"/>
<polygon fill="white" stroke="transparent" points="3936,-2181.69 3936,-2267.69 4170,-2267.69 4170,-2181.69 3936,-2181.69"/>
<text text-anchor="start" x="3943" y="-2244.49" font-family="Arial" font-size="24.00" fill="#707070">Validates task status</text>
<text text-anchor="start" x="3943" y="-2218.49" font-family="Arial" font-size="24.00" fill="#707070">vocabulary and retry</text>
<text text-anchor="start" x="3940" y="-2192.49" font-family="Arial" font-size="24.00" fill="#707070">classification through</text>
</g>
<!-- 34&#45;&gt;57 -->
<g id="160" class="edge">
<title>34&#45;&gt;57</title>
<path fill="none" stroke="#707070" stroke-dasharray="5,2" d="M2663.05,-1647.18C2686.47,-1489.28 2745.12,-1262.18 2892,-1128.69 3274.75,-780.81 3934.79,-787.35 4261.17,-815.86"/>
<polygon fill="#707070" stroke="#707070" points="4260.94,-819.35 4271.21,-816.75 4261.56,-812.38 4260.94,-819.35"/>
<polygon fill="white" stroke="transparent" points="3400,-924.69 3400,-1047.69 3677,-1047.69 3677,-924.69 3400,-924.69"/>
<text text-anchor="start" x="3404.5" y="-1024.99" font-family="Arial" font-size="24.00" fill="#707070">Reserves cache capacity</text>
<text text-anchor="start" x="3427" y="-1000.99" font-family="Arial" font-size="24.00" fill="#707070">and advances media</text>
<text text-anchor="start" x="3473.5" y="-976.99" font-family="Arial" font-size="24.00" fill="#707070">artifact rows</text>
<text text-anchor="start" x="3448.5" y="-952.99" font-family="Arial" font-size="24.00" fill="#707070">transactionally in</text>
<text text-anchor="start" x="3505.5" y="-932.99" font-family="Arial" font-size="19.00" fill="#707070">[sqlite3]</text>
</g>
<!-- 34&#45;&gt;32 -->
<g id="158" class="edge">
<title>34&#45;&gt;32</title>
<path fill="none" stroke="#707070" stroke-dasharray="5,2" d="M2811.4,-1998.3C2837.01,-2020.43 2864.23,-2041.34 2892,-2058.69 3024.37,-2141.35 3070.82,-2139.96 3222,-2178.69 3513.43,-2253.34 3591.15,-2257.4 3891,-2281.69 4018.18,-2291.99 4161.99,-2293.1 4272.63,-2291.71"/>
<polygon fill="#707070" stroke="#707070" points="4272.94,-2295.21 4282.89,-2291.58 4272.85,-2288.21 4272.94,-2295.21"/>
<polygon fill="white" stroke="transparent" points="3431.5,-2277.69 3431.5,-2337.69 3645.5,-2337.69 3645.5,-2277.69 3431.5,-2277.69"/>
<text text-anchor="start" x="3435.5" y="-2314.49" font-family="Arial" font-size="24.00" fill="#707070">Uses artifact status</text>
<text text-anchor="start" x="3452" y="-2288.49" font-family="Arial" font-size="24.00" fill="#707070">vocabulary from</text>
</g>
<!-- 34&#45;&gt;33 -->
<g id="159" class="edge">
<title>34&#45;&gt;33</title>
<path fill="none" stroke="#707070" stroke-dasharray="5,2" d="M2856.17,-1864.89C2997.78,-1893.53 3184.38,-1931.27 3326.49,-1960.01"/>
<polygon fill="#707070" stroke="#707070" points="3326.15,-1963.51 3336.65,-1962.07 3327.54,-1956.65 3326.15,-1963.51"/>
<polygon fill="white" stroke="transparent" points="2912,-1928.69 2912,-2040.69 3166,-2040.69 3166,-1928.69 2912,-1928.69"/>
<text text-anchor="start" x="2923.5" y="-2017.49" font-family="Arial" font-size="24.00" fill="#707070">Marks stored/skipped</text>
<text text-anchor="start" x="2916" y="-1991.49" font-family="Arial" font-size="24.00" fill="#707070">outcomes and ensures</text>
<text text-anchor="start" x="2933" y="-1965.49" font-family="Arial" font-size="24.00" fill="#707070">retryable fetch work</text>
<text text-anchor="start" x="2997.5" y="-1939.49" font-family="Arial" font-size="24.00" fill="#707070">through</text>
</g>
<!-- 34&#45;&gt;39 -->
<g id="161" class="edge">
<title>34&#45;&gt;39</title>
<path fill="none" stroke="#707070" stroke-dasharray="5,2" d="M2856.25,-1782.29C3149.8,-1724.95 3669.44,-1621.29 3855,-1570.69 4017.99,-1526.24 4062.31,-1520.98 4215,-1448.69 4223.92,-1444.46 4232.92,-1439.98 4241.94,-1435.3"/>
<polygon fill="#707070" stroke="#707070" points="4243.73,-1438.32 4250.95,-1430.56 4240.47,-1432.12 4243.73,-1438.32"/>
<polygon fill="white" stroke="transparent" points="3391.5,-1708.69 3391.5,-1820.69 3685.5,-1820.69 3685.5,-1708.69 3391.5,-1708.69"/>
<text text-anchor="start" x="3395.5" y="-1797.49" font-family="Arial" font-size="24.00" fill="#707070">Stages unique candidates,</text>
<text text-anchor="start" x="3400" y="-1771.49" font-family="Arial" font-size="24.00" fill="#707070">resolves contained reads,</text>
<text text-anchor="start" x="3443.5" y="-1745.49" font-family="Arial" font-size="24.00" fill="#707070">and deletes failed</text>
<text text-anchor="start" x="3435" y="-1719.49" font-family="Arial" font-size="24.00" fill="#707070">candidates through</text>
</g>
<!-- 40 -->
<g id="40" class="node">
<title>40</title>
<polygon fill="#85bbf0" stroke="#1168bd" points="3855,-1534.19 3222,-1534.19 3222,-1221.19 3855,-1221.19 3855,-1534.19"/>
<text text-anchor="start" x="3400" y="-1485.99" font-family="Arial" font-size="34.00" fill="#000000">Blob Lifecycle and</text>
<text text-anchor="start" x="3394" y="-1451.99" font-family="Arial" font-size="34.00" fill="#000000">Storage Reconciler</text>
<text text-anchor="start" x="3357" y="-1429.99" font-family="Arial" font-size="19.00" fill="#000000">[Component: Python + sqlite3 + filesystem]</text>
<text text-anchor="start" x="3495.5" y="-1392.99" font-family="Arial" font-size="24.00" fill="#000000">Persists</text>
<text text-anchor="start" x="3251" y="-1368.99" font-family="Arial" font-size="24.00" fill="#000000">committed/tombstoned/missing/deleted/blocked/failed</text>
<text text-anchor="start" x="3428.5" y="-1344.99" font-family="Arial" font-size="24.00" fill="#000000">blob state; serializes</text>
<text text-anchor="start" x="3392.5" y="-1320.99" font-family="Arial" font-size="24.00" fill="#000000">deletion processors; retries</text>
<text text-anchor="start" x="3406.5" y="-1296.99" font-family="Arial" font-size="24.00" fill="#000000">tombstones; and dry&#45;run</text>
<text text-anchor="start" x="3390" y="-1272.99" font-family="Arial" font-size="24.00" fill="#000000">detects missing refs, in&#45;root</text>
<text text-anchor="start" x="3396" y="-1248.99" font-family="Arial" font-size="24.00" fill="#000000">orphans, and stale stages.</text>
</g>
<!-- 34&#45;&gt;40 -->
<g id="162" class="edge">
<title>34&#45;&gt;40</title>
<path fill="none" stroke="#707070" stroke-dasharray="5,2" d="M2775.83,-1646.9C2810,-1609.71 2849.4,-1573.85 2892,-1547.69 2988.12,-1488.65 3104.46,-1449.93 3211.76,-1424.62"/>
<polygon fill="#707070" stroke="#707070" points="3212.83,-1427.96 3221.78,-1422.29 3211.25,-1421.14 3212.83,-1427.96"/>
<polygon fill="white" stroke="transparent" points="2892,-1547.69 2892,-1659.69 3186,-1659.69 3186,-1547.69 2892,-1547.69"/>
<text text-anchor="start" x="2896" y="-1636.49" font-family="Arial" font-size="24.00" fill="#707070">Registers committed blobs</text>
<text text-anchor="start" x="2952.5" y="-1610.49" font-family="Arial" font-size="24.00" fill="#707070">and tombstones</text>
<text text-anchor="start" x="2897.5" y="-1584.49" font-family="Arial" font-size="24.00" fill="#707070">replacement, eviction, and</text>
<text text-anchor="start" x="2930.5" y="-1558.49" font-family="Arial" font-size="24.00" fill="#707070">purge bytes through</text>
</g>
<!-- 36 -->
<g id="36" class="node">
<title>36</title>
<polygon fill="#85bbf0" stroke="#1168bd" points="4661.5,-3014.19 4251.5,-3014.19 4251.5,-2735.19 4661.5,-2735.19 4661.5,-3014.19"/>
<text text-anchor="start" x="4292" y="-2965.99" font-family="Arial" font-size="34.00" fill="#000000">Guarded Media Fetch</text>
<text text-anchor="start" x="4280.5" y="-2943.99" font-family="Arial" font-size="19.00" fill="#000000">[Component: Python stdlib urllib + socket]</text>
<text text-anchor="start" x="4309.5" y="-2906.99" font-family="Arial" font-size="24.00" fill="#000000">Owns streamed HTTP/data</text>
<text text-anchor="start" x="4322.5" y="-2882.99" font-family="Arial" font-size="24.00" fill="#000000">transport, public&#45;address</text>
<text text-anchor="start" x="4358" y="-2858.99" font-family="Arial" font-size="24.00" fill="#000000">validation, redirect</text>
<text text-anchor="start" x="4330" y="-2834.99" font-family="Arial" font-size="24.00" fill="#000000">revalidation, no&#45;referrer</text>
<text text-anchor="start" x="4326" y="-2810.99" font-family="Arial" font-size="24.00" fill="#000000">requests, response&#45;byte</text>
<text text-anchor="start" x="4309.5" y="-2786.99" font-family="Arial" font-size="24.00" fill="#000000">limits, process request/byte</text>
<text text-anchor="start" x="4295.5" y="-2762.99" font-family="Arial" font-size="24.00" fill="#000000">leases, and shared deadlines.</text>
</g>
<!-- 35&#45;&gt;36 -->
<g id="163" class="edge">
<title>35&#45;&gt;36</title>
<path fill="none" stroke="#707070" stroke-dasharray="5,2" d="M2841.66,-2673.03C3081.93,-2609.06 3502.5,-2525.32 3855,-2601.69 3989.86,-2630.9 4130.79,-2693.09 4242.21,-2750.74"/>
<polygon fill="#707070" stroke="#707070" points="4240.71,-2753.91 4251.19,-2755.42 4243.94,-2747.7 4240.71,-2753.91"/>
<polygon fill="white" stroke="transparent" points="3394.5,-2601.69 3394.5,-2687.69 3682.5,-2687.69 3682.5,-2601.69 3394.5,-2601.69"/>
<text text-anchor="start" x="3442" y="-2664.49" font-family="Arial" font-size="24.00" fill="#707070">Streams the initial</text>
<text text-anchor="start" x="3398.5" y="-2638.49" font-family="Arial" font-size="24.00" fill="#707070">response and every direct</text>
<text text-anchor="start" x="3457" y="-2612.49" font-family="Arial" font-size="24.00" fill="#707070">artifact through</text>
</g>
<!-- 37 -->
<g id="37" class="node">
<title>37</title>
<polygon fill="#85bbf0" stroke="#1168bd" points="3749.5,-3026.19 3327.5,-3026.19 3327.5,-2723.19 3749.5,-2723.19 3749.5,-3026.19"/>
<text text-anchor="start" x="3356.5" y="-2977.99" font-family="Arial" font-size="34.00" fill="#000000">Bounded HLS Transport</text>
<text text-anchor="start" x="3449.5" y="-2955.99" font-family="Arial" font-size="19.00" fill="#000000">[Component: Python]</text>
<text text-anchor="start" x="3400.5" y="-2918.99" font-family="Arial" font-size="24.00" fill="#000000">Parses bounded playlists,</text>
<text text-anchor="start" x="3383.5" y="-2894.99" font-family="Arial" font-size="24.00" fill="#000000">selects variants, expands init</text>
<text text-anchor="start" x="3388" y="-2870.99" font-family="Arial" font-size="24.00" fill="#000000">maps/segments through the</text>
<text text-anchor="start" x="3383.5" y="-2846.99" font-family="Arial" font-size="24.00" fill="#000000">guarded fetch boundary, and</text>
<text text-anchor="start" x="3406.5" y="-2822.99" font-family="Arial" font-size="24.00" fill="#000000">streams assembly within</text>
<text text-anchor="start" x="3483.5" y="-2798.99" font-family="Arial" font-size="24.00" fill="#000000">aggregate</text>
<text text-anchor="start" x="3388.5" y="-2774.99" font-family="Arial" font-size="24.00" fill="#000000">byte/depth/request/deadline</text>
<text text-anchor="start" x="3507.5" y="-2750.99" font-family="Arial" font-size="24.00" fill="#000000">limits.</text>
</g>
<!-- 35&#45;&gt;37 -->
<g id="164" class="edge">
<title>35&#45;&gt;37</title>
<path fill="none" stroke="#707070" stroke-dasharray="5,2" d="M2841.71,-2762.89C2981.96,-2785.43 3171.55,-2815.89 3317.4,-2839.32"/>
<polygon fill="#707070" stroke="#707070" points="3316.96,-2842.8 3327.39,-2840.93 3318.07,-2835.89 3316.96,-2842.8"/>
<polygon fill="white" stroke="transparent" points="2903.5,-2815.69 2903.5,-2901.69 3174.5,-2901.69 3174.5,-2815.69 2903.5,-2815.69"/>
<text text-anchor="start" x="2935" y="-2878.49" font-family="Arial" font-size="24.00" fill="#707070">Delegates detected</text>
<text text-anchor="start" x="2928" y="-2852.49" font-family="Arial" font-size="24.00" fill="#707070">playlists for bounded</text>
<text text-anchor="start" x="2908" y="-2826.49" font-family="Arial" font-size="24.00" fill="#707070">parsing and assembly to</text>
</g>
<!-- 35&#45;&gt;38 -->
<g id="165" class="edge">
<title>35&#45;&gt;38</title>
<path fill="none" stroke="#707070" stroke-dasharray="5,2" d="M2841.71,-2887.67C2858.38,-2899.01 2875.27,-2909.84 2892,-2919.69 3029.74,-3000.8 3065.75,-3028.96 3222,-3062.69 3311.62,-3082.03 4572.01,-3088.95 5082.55,-3090.97"/>
<polygon fill="#707070" stroke="#707070" points="5082.6,-3094.47 5092.62,-3091.01 5082.63,-3087.47 5082.6,-3094.47"/>
<polygon fill="white" stroke="transparent" points="3907,-3084.69 3907,-3144.69 4199,-3144.69 4199,-3084.69 3907,-3084.69"/>
<text text-anchor="start" x="3911" y="-3121.49" font-family="Arial" font-size="24.00" fill="#707070">Leases aggregate transfer</text>
<text text-anchor="start" x="3979" y="-3095.49" font-family="Arial" font-size="24.00" fill="#707070">bytes through</text>
</g>
<!-- 36&#45;&gt;38 -->
<g id="166" class="edge">
<title>36&#45;&gt;38</title>
<path fill="none" stroke="#707070" stroke-dasharray="5,2" d="M4661.57,-2927.56C4789.34,-2960.67 4953.66,-3003.25 5082.92,-3036.74"/>
<polygon fill="#707070" stroke="#707070" points="5082.39,-3040.21 5092.95,-3039.33 5084.15,-3033.44 5082.39,-3040.21"/>
<polygon fill="white" stroke="transparent" points="4700.5,-3008.69 4700.5,-3068.69 4985.5,-3068.69 4985.5,-3008.69 4700.5,-3008.69"/>
<text text-anchor="start" x="4705" y="-3045.49" font-family="Arial" font-size="24.00" fill="#707070">Leases each active HTTP</text>
<text text-anchor="start" x="4758" y="-3019.49" font-family="Arial" font-size="24.00" fill="#707070">request through</text>
</g>
<!-- 37&#45;&gt;36 -->
<g id="169" class="edge">
<title>37&#45;&gt;36</title>
<path fill="none" stroke="#707070" stroke-dasharray="5,2" d="M3749.65,-2874.69C3896.93,-2874.69 4093.15,-2874.69 4241.32,-2874.69"/>
<polygon fill="#707070" stroke="#707070" points="4241.45,-2878.19 4251.45,-2874.69 4241.45,-2871.19 4241.45,-2878.19"/>
<polygon fill="white" stroke="transparent" points="3929.5,-2874.69 3929.5,-2960.69 4176.5,-2960.69 4176.5,-2874.69 3929.5,-2874.69"/>
<text text-anchor="start" x="3934" y="-2937.49" font-family="Arial" font-size="24.00" fill="#707070">Fetches every variant,</text>
<text text-anchor="start" x="3934" y="-2911.49" font-family="Arial" font-size="24.00" fill="#707070">init map, and segment</text>
<text text-anchor="start" x="4012" y="-2885.49" font-family="Arial" font-size="24.00" fill="#707070">through</text>
</g>
<!-- 39&#45;&gt;59 -->
<g id="179" class="edge">
<title>39&#45;&gt;59</title>
<path fill="none" stroke="#707070" stroke-dasharray="5,2" d="M4662.11,-1178.49C4768.28,-1116.11 4899.59,-1038.98 5015.03,-971.16"/>
<polygon fill="#707070" stroke="#707070" points="5016.82,-974.17 5023.67,-966.09 5013.27,-968.13 5016.82,-974.17"/>
<polygon fill="white" stroke="transparent" points="4707.5,-1152.69 4707.5,-1251.69 4978.5,-1251.69 4978.5,-1152.69 4707.5,-1152.69"/>
<text text-anchor="start" x="4713.5" y="-1228.99" font-family="Arial" font-size="24.00" fill="#707070">Stages, commits, reads,</text>
<text text-anchor="start" x="4712" y="-1204.99" font-family="Arial" font-size="24.00" fill="#707070">stats, and deletes media</text>
<text text-anchor="start" x="4801.5" y="-1180.99" font-family="Arial" font-size="24.00" fill="#707070">blobs in</text>
<text text-anchor="start" x="4792" y="-1160.99" font-family="Arial" font-size="19.00" fill="#707070">[Filesystem]</text>
</g>
<!-- 39&#45;&gt;60 -->
<g id="180" class="edge">
<title>39&#45;&gt;60</title>
<path fill="none" stroke="#707070" stroke-dasharray="5,2" d="M4605.53,-1147.02C4627.08,-1118.97 4647.01,-1088.68 4662,-1057.69 4697.52,-984.24 4659.29,-949.5 4698,-877.69 4794.09,-699.41 4961.8,-540.81 5095.05,-433.07"/>
<polygon fill="#707070" stroke="#707070" points="5097.38,-435.69 5102.97,-426.69 5092.99,-430.23 5097.38,-435.69"/>
<polygon fill="white" stroke="transparent" points="4698,-877.69 4698,-976.69 4988,-976.69 4988,-877.69 4698,-877.69"/>
<text text-anchor="start" x="4713" y="-953.99" font-family="Arial" font-size="24.00" fill="#707070">Stages, commits, reads,</text>
<text text-anchor="start" x="4702" y="-929.99" font-family="Arial" font-size="24.00" fill="#707070">stats, and deletes spooled</text>
<text text-anchor="start" x="4797" y="-905.99" font-family="Arial" font-size="24.00" fill="#707070">media in</text>
<text text-anchor="start" x="4791.5" y="-885.99" font-family="Arial" font-size="19.00" fill="#707070">[Filesystem]</text>
</g>
<!-- 40&#45;&gt;57 -->
<g id="176" class="edge">
<title>40&#45;&gt;57</title>
<path fill="none" stroke="#707070" stroke-dasharray="5,2" d="M3663.43,-1221.03C3761.42,-1097.57 3883.07,-945.39 3891,-940.69 3907.31,-931.01 4104.27,-897.06 4261.01,-871.17"/>
<polygon fill="#707070" stroke="#707070" points="4261.97,-874.56 4271.27,-869.47 4260.83,-867.65 4261.97,-874.56"/>
<polygon fill="white" stroke="transparent" points="3891,-940.69 3891,-1015.69 4215,-1015.69 4215,-940.69 3891,-940.69"/>
<text text-anchor="start" x="3895" y="-992.99" font-family="Arial" font-size="24.00" fill="#707070">Reads and advances durable</text>
<text text-anchor="start" x="3927" y="-968.99" font-family="Arial" font-size="24.00" fill="#707070">blob lifecycle records in</text>
<text text-anchor="start" x="4019.5" y="-948.99" font-family="Arial" font-size="19.00" fill="#707070">[sqlite3]</text>
</g>
<!-- 40&#45;&gt;39 -->
<g id="177" class="edge">
<title>40&#45;&gt;39</title>
<path fill="none" stroke="#707070" stroke-dasharray="5,2" d="M3855.06,-1350.47C3982.38,-1339.49 4126.02,-1327.1 4240.87,-1317.2"/>
<polygon fill="#707070" stroke="#707070" points="4241.18,-1320.68 4250.84,-1316.34 4240.58,-1313.71 4241.18,-1320.68"/>
<polygon fill="white" stroke="transparent" points="3926.5,-1344.69 3926.5,-1430.69 4179.5,-1430.69 4179.5,-1344.69 3926.5,-1344.69"/>
<text text-anchor="start" x="3931" y="-1407.49" font-family="Arial" font-size="24.00" fill="#707070">Resolves, deletes, and</text>
<text text-anchor="start" x="3939" y="-1381.49" font-family="Arial" font-size="24.00" fill="#707070">inventories contained</text>
<text text-anchor="start" x="3979.5" y="-1355.49" font-family="Arial" font-size="24.00" fill="#707070">bytes through</text>
</g>
</g>
</svg>
