<?xml version="1.0" encoding="UTF-8" standalone="no"?>
<!DOCTYPE svg PUBLIC "-//W3C//DTD SVG 1.1//EN"
 "http://www.w3.org/Graphics/SVG/1.1/DTD/svg11.dtd">
<!-- Generated by graphviz version 2.43.0 (0)
 -->
<!-- Title: %3 Pages: 1 -->
<svg width="2910pt" height="1607pt"
 viewBox="0.00 0.00 2910.00 1607.00" xmlns="http://www.w3.org/2000/svg" xmlns:xlink="http://www.w3.org/1999/xlink">
<g id="graph0" class="graph" transform="scale(1 1) rotate(0) translate(4 1603)">
<title>%3</title>
<polygon fill="white" stroke="transparent" points="-4,4 -4,-1603 2906,-1603 2906,4 -4,4"/>
<text text-anchor="start" x="866" y="-11.8" font-family="Arial" font-size="34.00">Component View: Browser Memory Daemon &#45; WSL Loopback HTTP Daemon</text>
<g id="clust1" class="cluster">
<title>cluster_4</title>
<polygon fill="none" stroke="#444444" points="8,-64 8,-1591 2894,-1591 2894,-64 8,-64"/>
<text text-anchor="start" x="1310" y="-92.8" font-family="Arial" font-size="24.00" fill="#444444">Browser Memory Daemon</text>
<text text-anchor="start" x="1374" y="-72.8" font-family="Arial" font-size="19.00" fill="#444444">[Software System]</text>
</g>
<g id="clust2" class="cluster">
<title>cluster_14</title>
<polygon fill="none" stroke="#444444" points="33,-561 33,-990 1988,-990 1988,-561 33,-561"/>
<text text-anchor="start" x="845" y="-589.8" font-family="Arial" font-size="24.00" fill="#444444">WSL Loopback HTTP Daemon</text>
<text text-anchor="start" x="808.5" y="-569.8" font-family="Arial" font-size="19.00" fill="#444444">[Container: Python 3.11, ThreadingHTTPServer]</text>
</g>
<!-- 15 -->
<g id="15" class="node">
<title>15</title>
<polygon fill="#85bbf0" stroke="#1168bd" points="453,-955.5 58,-955.5 58,-724.5 453,-724.5 453,-955.5"/>
<text text-anchor="start" x="87" y="-907.3" font-family="Arial" font-size="34.00" fill="#000000">HTTP Request Router</text>
<text text-anchor="start" x="119" y="-885.3" font-family="Arial" font-size="19.00" fill="#000000">[Component: Python http.server]</text>
<text text-anchor="start" x="90" y="-848.3" font-family="Arial" font-size="24.00" fill="#000000">Routes loopback API requests,</text>
<text text-anchor="start" x="112.5" y="-824.3" font-family="Arial" font-size="24.00" fill="#000000">serves UI assets, enforces</text>
<text text-anchor="start" x="91.5" y="-800.3" font-family="Arial" font-size="24.00" fill="#000000">bearer auth for memory/admin</text>
<text text-anchor="start" x="106" y="-776.3" font-family="Arial" font-size="24.00" fill="#000000">APIs, and applies CORS for</text>
<text text-anchor="start" x="172" y="-752.3" font-family="Arial" font-size="24.00" fill="#000000">allowed origins.</text>
</g>
<!-- 24 -->
<g id="24" class="node">
<title>24</title>
<polygon fill="#85bbf0" stroke="#1168bd" points="1185,-955.5 806,-955.5 806,-724.5 1185,-724.5 1185,-955.5"/>
<text text-anchor="start" x="881" y="-907.3" font-family="Arial" font-size="34.00" fill="#000000">Forget Pipeline</text>
<text text-anchor="start" x="867.5" y="-885.3" font-family="Arial" font-size="19.00" fill="#000000">[Component: Python + sqlite3]</text>
<text text-anchor="start" x="840.5" y="-848.3" font-family="Arial" font-size="24.00" fill="#000000">Deletes URL/domain&#45;scoped</text>
<text text-anchor="start" x="849.5" y="-824.3" font-family="Arial" font-size="24.00" fill="#000000">memory rows, FTS entries,</text>
<text text-anchor="start" x="835" y="-800.3" font-family="Arial" font-size="24.00" fill="#000000">clean&#45;text blobs, media blobs,</text>
<text text-anchor="start" x="852.5" y="-776.3" font-family="Arial" font-size="24.00" fill="#000000">lifecycle rows, and records</text>
<text text-anchor="start" x="903.5" y="-752.3" font-family="Arial" font-size="24.00" fill="#000000">deletion receipts.</text>
</g>
<!-- 15&#45;&gt;24 -->
<g id="74" class="edge">
<title>15&#45;&gt;24</title>
<path fill="none" stroke="#444444" stroke-dasharray="5,2" d="M453.3,-840C559.2,-840 689.48,-840 795.68,-840"/>
<polygon fill="#444444" stroke="#444444" points="795.88,-843.5 805.88,-840 795.88,-836.5 795.88,-843.5"/>
<polygon fill="white" stroke="transparent" points="489,-840 489,-874 770,-874 770,-840 489,-840"/>
<text text-anchor="start" x="493.5" y="-850.8" font-family="Arial" font-size="24.00" fill="#444444">Routes forget requests to</text>
</g>
<!-- 22 -->
<g id="22" class="node">
<title>22</title>
<polygon fill="#85bbf0" stroke="#1168bd" points="1963,-964.5 1552,-964.5 1552,-661.5 1963,-661.5 1963,-964.5"/>
<text text-anchor="start" x="1601" y="-916.3" font-family="Arial" font-size="34.00" fill="#000000">Contained BlobStore</text>
<text text-anchor="start" x="1581" y="-894.3" font-family="Arial" font-size="19.00" fill="#000000">[Component: Python filesystem boundary]</text>
<text text-anchor="start" x="1605" y="-857.3" font-family="Arial" font-size="24.00" fill="#000000">Prefers root&#45;relative locators</text>
<text text-anchor="start" x="1641.5" y="-833.3" font-family="Arial" font-size="24.00" fill="#000000">with contained legacy</text>
<text text-anchor="start" x="1626.5" y="-809.3" font-family="Arial" font-size="24.00" fill="#000000">fallback; streams unique</text>
<text text-anchor="start" x="1642.5" y="-785.3" font-family="Arial" font-size="24.00" fill="#000000">stages with size/hash</text>
<text text-anchor="start" x="1638.5" y="-761.3" font-family="Arial" font-size="24.00" fill="#000000">accounting; atomically</text>
<text text-anchor="start" x="1610.5" y="-737.3" font-family="Arial" font-size="24.00" fill="#000000">commits; and contains blob</text>
<text text-anchor="start" x="1643" y="-713.3" font-family="Arial" font-size="24.00" fill="#000000">read, stat, and delete</text>
<text text-anchor="start" x="1697" y="-689.3" font-family="Arial" font-size="24.00" fill="#000000">operations.</text>
</g>
<!-- 30 -->
<g id="30" class="node">
<title>30</title>
<path fill="#2f95c8" stroke="#20688c" d="M2794.5,-495.22C2794.5,-513.51 2705.98,-528.38 2597,-528.38 2488.02,-528.38 2399.5,-513.51 2399.5,-495.22 2399.5,-495.22 2399.5,-196.78 2399.5,-196.78 2399.5,-178.49 2488.02,-163.62 2597,-163.62 2705.98,-163.62 2794.5,-178.49 2794.5,-196.78 2794.5,-196.78 2794.5,-495.22 2794.5,-495.22"/>
<path fill="none" stroke="#20688c" d="M2794.5,-495.22C2794.5,-476.92 2705.98,-462.06 2597,-462.06 2488.02,-462.06 2399.5,-476.92 2399.5,-495.22"/>
<text text-anchor="start" x="2475.5" y="-430.3" font-family="Arial" font-size="34.00" fill="#ffffff">Local Derivative</text>
<text text-anchor="start" x="2556" y="-396.3" font-family="Arial" font-size="34.00" fill="#ffffff">Store</text>
<text text-anchor="start" x="2457" y="-374.3" font-family="Arial" font-size="19.00" fill="#ffffff">[Container: WSL local filesystem]</text>
<text text-anchor="start" x="2443.5" y="-337.3" font-family="Arial" font-size="24.00" fill="#ffffff">Reconstructible compatibility</text>
<text text-anchor="start" x="2428.5" y="-313.3" font-family="Arial" font-size="24.00" fill="#ffffff">evidence such as pre&#45;version&#45;9</text>
<text text-anchor="start" x="2467" y="-289.3" font-family="Arial" font-size="24.00" fill="#ffffff">clean&#45;text sidecars; new</text>
<text text-anchor="start" x="2473.5" y="-265.3" font-family="Arial" font-size="24.00" fill="#ffffff">captures create no text</text>
<text text-anchor="start" x="2548.5" y="-241.3" font-family="Arial" font-size="24.00" fill="#ffffff">sidecars.</text>
</g>
<!-- 22&#45;&gt;30 -->
<g id="86" class="edge">
<title>22&#45;&gt;30</title>
<path fill="none" stroke="#444444" stroke-dasharray="5,2" d="M1963.11,-698.91C2092.93,-626.52 2260.32,-533.18 2390.34,-460.68"/>
<polygon fill="#444444" stroke="#444444" points="2392.21,-463.64 2399.24,-455.71 2388.8,-457.53 2392.21,-463.64"/>
<polygon fill="white" stroke="transparent" points="2008,-675 2008,-774 2280,-774 2280,-675 2008,-675"/>
<text text-anchor="start" x="2012" y="-751.3" font-family="Arial" font-size="24.00" fill="#444444">Reads, stats, reconciles,</text>
<text text-anchor="start" x="2020" y="-727.3" font-family="Arial" font-size="24.00" fill="#444444">and deletes legacy text</text>
<text text-anchor="start" x="2086" y="-703.3" font-family="Arial" font-size="24.00" fill="#444444">sidecars in</text>
<text text-anchor="start" x="2092.5" y="-683.3" font-family="Arial" font-size="19.00" fill="#444444">[Filesystem]</text>
</g>
<!-- 31 -->
<g id="31" class="node">
<title>31</title>
<path fill="#2f95c8" stroke="#20688c" d="M2869,-991.22C2869,-1012.82 2747.09,-1030.38 2597,-1030.38 2446.91,-1030.38 2325,-1012.82 2325,-991.22 2325,-991.22 2325,-638.78 2325,-638.78 2325,-617.18 2446.91,-599.62 2597,-599.62 2747.09,-599.62 2869,-617.18 2869,-638.78 2869,-638.78 2869,-991.22 2869,-991.22"/>
<path fill="none" stroke="#20688c" d="M2869,-991.22C2869,-969.61 2747.09,-952.06 2597,-952.06 2446.91,-952.06 2325,-969.61 2325,-991.22"/>
<text text-anchor="start" x="2441.5" y="-923.3" font-family="Arial" font-size="34.00" fill="#ffffff">Guarded Media Blob</text>
<text text-anchor="start" x="2547.5" y="-889.3" font-family="Arial" font-size="34.00" fill="#ffffff">Cache</text>
<text text-anchor="start" x="2354" y="-867.3" font-family="Arial" font-size="19.00" fill="#ffffff">[Container: WSL&#45;visible local or NAS&#45;mounted filesystem]</text>
<text text-anchor="start" x="2487" y="-830.3" font-family="Arial" font-size="24.00" fill="#ffffff">Bounded disposable</text>
<text text-anchor="start" x="2431.5" y="-806.3" font-family="Arial" font-size="24.00" fill="#ffffff">image/video/audio bytes under</text>
<text text-anchor="start" x="2455.5" y="-782.3" font-family="Arial" font-size="24.00" fill="#ffffff">the configured media root;</text>
<text text-anchor="start" x="2483" y="-758.3" font-family="Arial" font-size="24.00" fill="#ffffff">explicit external roots</text>
<text text-anchor="start" x="2498" y="-734.3" font-family="Arial" font-size="24.00" fill="#ffffff">require mount and</text>
<text text-anchor="start" x="2447.5" y="-710.3" font-family="Arial" font-size="24.00" fill="#ffffff">identity&#45;marker proof before</text>
<text text-anchor="start" x="2556" y="-686.3" font-family="Arial" font-size="24.00" fill="#ffffff">access.</text>
</g>
<!-- 22&#45;&gt;31 -->
<g id="87" class="edge">
<title>22&#45;&gt;31</title>
<path fill="none" stroke="#444444" stroke-dasharray="5,2" d="M1963.11,-813.49C2068.86,-813.74 2199.54,-814.05 2314.64,-814.33"/>
<polygon fill="#444444" stroke="#444444" points="2314.66,-817.83 2324.67,-814.35 2314.68,-810.83 2314.66,-817.83"/>
<polygon fill="white" stroke="transparent" points="2008.5,-814 2008.5,-913 2279.5,-913 2279.5,-814 2008.5,-814"/>
<text text-anchor="start" x="2014.5" y="-890.3" font-family="Arial" font-size="24.00" fill="#444444">Stages, commits, reads,</text>
<text text-anchor="start" x="2013" y="-866.3" font-family="Arial" font-size="24.00" fill="#444444">stats, and deletes media</text>
<text text-anchor="start" x="2102.5" y="-842.3" font-family="Arial" font-size="24.00" fill="#444444">blobs in</text>
<text text-anchor="start" x="2093" y="-822.3" font-family="Arial" font-size="19.00" fill="#444444">[Filesystem]</text>
</g>
<!-- 32 -->
<g id="32" class="node">
<title>32</title>
<path fill="#2f95c8" stroke="#20688c" d="M2790,-1523.72C2790,-1546.98 2703.49,-1565.88 2597,-1565.88 2490.51,-1565.88 2404,-1546.98 2404,-1523.72 2404,-1523.72 2404,-1144.28 2404,-1144.28 2404,-1121.02 2490.51,-1102.12 2597,-1102.12 2703.49,-1102.12 2790,-1121.02 2790,-1144.28 2790,-1144.28 2790,-1523.72 2790,-1523.72"/>
<path fill="none" stroke="#20688c" d="M2790,-1523.72C2790,-1500.45 2703.49,-1481.56 2597,-1481.56 2490.51,-1481.56 2404,-1500.45 2404,-1523.72"/>
<text text-anchor="start" x="2433" y="-1454.3" font-family="Arial" font-size="34.00" fill="#ffffff">Bounded Local Media</text>
<text text-anchor="start" x="2553.5" y="-1420.3" font-family="Arial" font-size="34.00" fill="#ffffff">Spool</text>
<text text-anchor="start" x="2457" y="-1398.3" font-family="Arial" font-size="19.00" fill="#ffffff">[Container: WSL local filesystem]</text>
<text text-anchor="start" x="2445" y="-1361.3" font-family="Arial" font-size="24.00" fill="#ffffff">Opt&#45;in durable outage buffer</text>
<text text-anchor="start" x="2448.5" y="-1337.3" font-family="Arial" font-size="24.00" fill="#ffffff">beneath the local WSL data</text>
<text text-anchor="start" x="2475.5" y="-1313.3" font-family="Arial" font-size="24.00" fill="#ffffff">root; admission counts</text>
<text text-anchor="start" x="2451.5" y="-1289.3" font-family="Arial" font-size="24.00" fill="#ffffff">committed files and distinct</text>
<text text-anchor="start" x="2445" y="-1265.3" font-family="Arial" font-size="24.00" fill="#ffffff">in&#45;flight SQLite reservations,</text>
<text text-anchor="start" x="2472" y="-1241.3" font-family="Arial" font-size="24.00" fill="#ffffff">and drain verifies bytes</text>
<text text-anchor="start" x="2449.5" y="-1217.3" font-family="Arial" font-size="24.00" fill="#ffffff">before tier transition/source</text>
<text text-anchor="start" x="2551" y="-1193.3" font-family="Arial" font-size="24.00" fill="#ffffff">cleanup.</text>
</g>
<!-- 22&#45;&gt;32 -->
<g id="88" class="edge">
<title>22&#45;&gt;32</title>
<path fill="none" stroke="#444444" stroke-dasharray="5,2" d="M1963.11,-940.28C2094.6,-1022.08 2264.63,-1127.86 2395.34,-1209.17"/>
<polygon fill="#444444" stroke="#444444" points="2393.55,-1212.18 2403.89,-1214.49 2397.25,-1206.24 2393.55,-1212.18"/>
<polygon fill="white" stroke="transparent" points="1999,-1135 1999,-1234 2289,-1234 2289,-1135 1999,-1135"/>
<text text-anchor="start" x="2014" y="-1211.3" font-family="Arial" font-size="24.00" fill="#444444">Stages, commits, reads,</text>
<text text-anchor="start" x="2003" y="-1187.3" font-family="Arial" font-size="24.00" fill="#444444">stats, and deletes spooled</text>
<text text-anchor="start" x="2098" y="-1163.3" font-family="Arial" font-size="24.00" fill="#444444">media in</text>
<text text-anchor="start" x="2092.5" y="-1143.3" font-family="Arial" font-size="19.00" fill="#444444">[Filesystem]</text>
</g>
<!-- 24&#45;&gt;22 -->
<g id="85" class="edge">
<title>24&#45;&gt;22</title>
<path fill="none" stroke="#444444" stroke-dasharray="5,2" d="M1185.14,-778.57C1197.2,-775.98 1209.22,-773.75 1221,-772 1326.11,-756.43 1443.76,-762.85 1541.95,-774.76"/>
<polygon fill="#444444" stroke="#444444" points="1541.64,-778.25 1552,-776.01 1542.51,-771.3 1541.64,-778.25"/>
<polygon fill="white" stroke="transparent" points="1221,-772 1221,-832 1516,-832 1516,-772 1221,-772"/>
<text text-anchor="start" x="1225.5" y="-808.8" font-family="Arial" font-size="24.00" fill="#444444">Deletes contained text and</text>
<text text-anchor="start" x="1259" y="-782.8" font-family="Arial" font-size="24.00" fill="#444444">media blobs through</text>
</g>
<!-- 29 -->
<g id="29" class="node">
<title>29</title>
<path fill="#2f95c8" stroke="#20688c" d="M1955.5,-1517.72C1955.5,-1544.29 1866.75,-1565.88 1757.5,-1565.88 1648.25,-1565.88 1559.5,-1544.29 1559.5,-1517.72 1559.5,-1517.72 1559.5,-1084.28 1559.5,-1084.28 1559.5,-1057.71 1648.25,-1036.12 1757.5,-1036.12 1866.75,-1036.12 1955.5,-1057.71 1955.5,-1084.28 1955.5,-1084.28 1955.5,-1517.72 1955.5,-1517.72"/>
<path fill="none" stroke="#20688c" d="M1955.5,-1517.72C1955.5,-1491.14 1866.75,-1469.56 1757.5,-1469.56 1648.25,-1469.56 1559.5,-1491.14 1559.5,-1517.72"/>
<text text-anchor="start" x="1644.5" y="-1445.3" font-family="Arial" font-size="34.00" fill="#ffffff">SQLite + FTS5</text>
<text text-anchor="start" x="1684.5" y="-1411.3" font-family="Arial" font-size="34.00" fill="#ffffff">Database</text>
<text text-anchor="start" x="1631.5" y="-1389.3" font-family="Arial" font-size="19.00" fill="#ffffff">[Container: SQLite with FTS5]</text>
<text text-anchor="start" x="1589.5" y="-1352.3" font-family="Arial" font-size="24.00" fill="#ffffff">Durable complete cleaned&#45;text,</text>
<text text-anchor="start" x="1638.5" y="-1328.3" font-family="Arial" font-size="24.00" fill="#ffffff">relational, and full&#45;text</text>
<text text-anchor="start" x="1640" y="-1304.3" font-family="Arial" font-size="24.00" fill="#ffffff">authority for migration</text>
<text text-anchor="start" x="1605.5" y="-1280.3" font-family="Arial" font-size="24.00" fill="#ffffff">ledger, sources, documents,</text>
<text text-anchor="start" x="1608" y="-1256.3" font-family="Arial" font-size="24.00" fill="#ffffff">visits, capture observations,</text>
<text text-anchor="start" x="1626.5" y="-1232.3" font-family="Arial" font-size="24.00" fill="#ffffff">URL claims, visit events,</text>
<text text-anchor="start" x="1589" y="-1208.3" font-family="Arial" font-size="24.00" fill="#ffffff">snapshots, chunks, chunks_fts,</text>
<text text-anchor="start" x="1588.5" y="-1184.3" font-family="Arial" font-size="24.00" fill="#ffffff">media provenance/tasks, policy</text>
<text text-anchor="start" x="1632" y="-1160.3" font-family="Arial" font-size="24.00" fill="#ffffff">rules, audit events, and</text>
<text text-anchor="start" x="1665.5" y="-1136.3" font-family="Arial" font-size="24.00" fill="#ffffff">deletion receipts.</text>
</g>
<!-- 24&#45;&gt;29 -->
<g id="84" class="edge">
<title>24&#45;&gt;29</title>
<path fill="none" stroke="#444444" stroke-dasharray="5,2" d="M1185.34,-954.55C1296.31,-1021.86 1436.69,-1107.01 1550.51,-1176.05"/>
<polygon fill="#444444" stroke="#444444" points="1548.98,-1179.22 1559.35,-1181.41 1552.61,-1173.23 1548.98,-1179.22"/>
<polygon fill="white" stroke="transparent" points="1227,-1151 1227,-1226 1510,-1226 1510,-1151 1227,-1151"/>
<text text-anchor="start" x="1231.5" y="-1203.3" font-family="Arial" font-size="24.00" fill="#444444">Deletes rows and records</text>
<text text-anchor="start" x="1313.5" y="-1179.3" font-family="Arial" font-size="24.00" fill="#444444">receipts in</text>
<text text-anchor="start" x="1335.5" y="-1159.3" font-family="Arial" font-size="19.00" fill="#444444">[sqlite3]</text>
</g>
</g>
</svg>
