<?xml version="1.0" encoding="UTF-8" standalone="no"?>
<!DOCTYPE svg PUBLIC "-//W3C//DTD SVG 1.1//EN"
 "http://www.w3.org/Graphics/SVG/1.1/DTD/svg11.dtd">
<!-- Generated by graphviz version 2.43.0 (0)
 -->
<!-- Title: %3 Pages: 1 -->
<svg width="4750pt" height="1607pt"
 viewBox="0.00 0.00 4750.00 1607.00" xmlns="http://www.w3.org/2000/svg" xmlns:xlink="http://www.w3.org/1999/xlink">
<g id="graph0" class="graph" transform="scale(1 1) rotate(0) translate(4 1603)">
<title>%3</title>
<polygon fill="white" stroke="transparent" points="-4,4 -4,-1603 4746,-1603 4746,4 -4,4"/>
<text text-anchor="start" x="1786" y="-11.8" font-family="Arial" font-size="34.00">Component View: Browser Memory Daemon &#45; WSL Loopback HTTP Daemon</text>
<g id="clust1" class="cluster">
<title>cluster_4</title>
<polygon fill="none" stroke="#444444" points="8,-64 8,-1591 4734,-1591 4734,-64 8,-64"/>
<text text-anchor="start" x="2230" y="-92.8" font-family="Arial" font-size="24.00" fill="#444444">Browser Memory Daemon</text>
<text text-anchor="start" x="2294" y="-72.8" font-family="Arial" font-size="19.00" fill="#444444">[Software System]</text>
</g>
<g id="clust2" class="cluster">
<title>cluster_22</title>
<polygon fill="none" stroke="#444444" points="33,-478 33,-979 3828,-979 3828,-478 33,-478"/>
<text text-anchor="start" x="1765" y="-506.8" font-family="Arial" font-size="24.00" fill="#444444">WSL Loopback HTTP Daemon</text>
<text text-anchor="start" x="1728.5" y="-486.8" font-family="Arial" font-size="19.00" fill="#444444">[Container: Python 3.11, ThreadingHTTPServer]</text>
</g>
<!-- 23 -->
<g id="23" class="node">
<title>23</title>
<polygon fill="#85bbf0" stroke="#1168bd" points="552,-953.5 58,-953.5 58,-578.5 552,-578.5 552,-953.5"/>
<text text-anchor="start" x="136.5" y="-905.3" font-family="Arial" font-size="34.00" fill="#000000">HTTP Request Router</text>
<text text-anchor="start" x="87" y="-883.3" font-family="Arial" font-size="19.00" fill="#000000">[Component: Python http.server + route descriptors]</text>
<text text-anchor="start" x="117.5" y="-846.3" font-family="Arial" font-size="24.00" fill="#000000">Adapts BaseHTTPRequestHandler</text>
<text text-anchor="start" x="154.5" y="-822.3" font-family="Arial" font-size="24.00" fill="#000000">requests through immutable</text>
<text text-anchor="start" x="150" y="-798.3" font-family="Arial" font-size="24.00" fill="#000000">method/path descriptors with</text>
<text text-anchor="start" x="144.5" y="-774.3" font-family="Arial" font-size="24.00" fill="#000000">static precedence; owns auth,</text>
<text text-anchor="start" x="199.5" y="-750.3" font-family="Arial" font-size="24.00" fill="#000000">parsing, compatible</text>
<text text-anchor="start" x="180.5" y="-726.3" font-family="Arial" font-size="24.00" fill="#000000">status/error responses,</text>
<text text-anchor="start" x="144.5" y="-702.3" font-family="Arial" font-size="24.00" fill="#000000">request IDs, common security</text>
<text text-anchor="start" x="177" y="-678.3" font-family="Arial" font-size="24.00" fill="#000000">headers, redaction&#45;safe</text>
<text text-anchor="start" x="148.5" y="-654.3" font-family="Arial" font-size="24.00" fill="#000000">telemetry, bounded response</text>
<text text-anchor="start" x="138" y="-630.3" font-family="Arial" font-size="24.00" fill="#000000">streaming, disconnect cleanup,</text>
<text text-anchor="start" x="157.5" y="-606.3" font-family="Arial" font-size="24.00" fill="#000000">CORS, and finite UI assets.</text>
</g>
<!-- 24 -->
<g id="24" class="node">
<title>24</title>
<polygon fill="#85bbf0" stroke="#1168bd" points="1302,-950.5 901,-950.5 901,-599.5 1302,-599.5 1302,-950.5"/>
<text text-anchor="start" x="930" y="-902.3" font-family="Arial" font-size="34.00" fill="#000000">Application Use Cases</text>
<text text-anchor="start" x="1012.5" y="-880.3" font-family="Arial" font-size="19.00" fill="#000000">[Component: Python]</text>
<text text-anchor="start" x="939.5" y="-843.3" font-family="Arial" font-size="24.00" fill="#000000">Provides request&#45;independent</text>
<text text-anchor="start" x="976.5" y="-819.3" font-family="Arial" font-size="24.00" fill="#000000">capture, lifecycle, read,</text>
<text text-anchor="start" x="966.5" y="-795.3" font-family="Arial" font-size="24.00" fill="#000000">forget, policy, doctor, and</text>
<text text-anchor="start" x="975.5" y="-771.3" font-family="Arial" font-size="24.00" fill="#000000">media use cases; owns</text>
<text text-anchor="start" x="972.5" y="-747.3" font-family="Arial" font-size="24.00" fill="#000000">database&#45;ready checks,</text>
<text text-anchor="start" x="945.5" y="-723.3" font-family="Arial" font-size="24.00" fill="#000000">transaction/audit boundaries,</text>
<text text-anchor="start" x="949" y="-699.3" font-family="Arial" font-size="24.00" fill="#000000">asynchronous media kickoff,</text>
<text text-anchor="start" x="935.5" y="-675.3" font-family="Arial" font-size="24.00" fill="#000000">and upload/download resource</text>
<text text-anchor="start" x="936.5" y="-651.3" font-family="Arial" font-size="24.00" fill="#000000">leases without importing HTTP</text>
<text text-anchor="start" x="957.5" y="-627.3" font-family="Arial" font-size="24.00" fill="#000000">request or response types.</text>
</g>
<!-- 23&#45;&gt;24 -->
<g id="114" class="edge">
<title>23&#45;&gt;24</title>
<path fill="none" stroke="#444444" stroke-dasharray="5,2" d="M552.22,-768.79C660.59,-770.02 786.59,-771.44 890.45,-772.62"/>
<polygon fill="#444444" stroke="#444444" points="890.71,-776.12 900.75,-772.74 890.79,-769.12 890.71,-776.12"/>
<polygon fill="white" stroke="transparent" points="588,-772 588,-858 865,-858 865,-772 588,-772"/>
<text text-anchor="start" x="645" y="-834.8" font-family="Arial" font-size="24.00" fill="#444444">Invokes explicit</text>
<text text-anchor="start" x="592.5" y="-808.8" font-family="Arial" font-size="24.00" fill="#444444">request&#45;independent use</text>
<text text-anchor="start" x="650.5" y="-782.8" font-family="Arial" font-size="24.00" fill="#444444">cases through</text>
</g>
<!-- 42 -->
<g id="42" class="node">
<title>42</title>
<polygon fill="#85bbf0" stroke="#1168bd" points="2031,-919.5 1650,-919.5 1650,-664.5 2031,-664.5 2031,-919.5"/>
<text text-anchor="start" x="1726" y="-871.3" font-family="Arial" font-size="34.00" fill="#000000">Forget Pipeline</text>
<text text-anchor="start" x="1712.5" y="-849.3" font-family="Arial" font-size="19.00" fill="#000000">[Component: Python + sqlite3]</text>
<text text-anchor="start" x="1679" y="-812.3" font-family="Arial" font-size="24.00" fill="#000000">Commits URL/domain&#45;scoped</text>
<text text-anchor="start" x="1684" y="-788.3" font-family="Arial" font-size="24.00" fill="#000000">relational deletion, minimized</text>
<text text-anchor="start" x="1684.5" y="-764.3" font-family="Arial" font-size="24.00" fill="#000000">receipt, and blob tombstones</text>
<text text-anchor="start" x="1700" y="-740.3" font-family="Arial" font-size="24.00" fill="#000000">in one transaction; reports</text>
<text text-anchor="start" x="1690" y="-716.3" font-family="Arial" font-size="24.00" fill="#000000">complete only after required</text>
<text text-anchor="start" x="1754.5" y="-692.3" font-family="Arial" font-size="24.00" fill="#000000">bytes converge.</text>
</g>
<!-- 24&#45;&gt;42 -->
<g id="124" class="edge">
<title>24&#45;&gt;42</title>
<path fill="none" stroke="#444444" stroke-dasharray="5,2" d="M1302.43,-779.61C1407.22,-782.03 1535.18,-784.98 1639.92,-787.4"/>
<polygon fill="#444444" stroke="#444444" points="1639.9,-790.9 1649.98,-787.63 1640.07,-783.9 1639.9,-790.9"/>
<polygon fill="white" stroke="transparent" points="1338,-786 1338,-846 1614,-846 1614,-786 1338,-786"/>
<text text-anchor="start" x="1342" y="-822.8" font-family="Arial" font-size="24.00" fill="#444444">Executes forget requests</text>
<text text-anchor="start" x="1434.5" y="-796.8" font-family="Arial" font-size="24.00" fill="#444444">through</text>
</g>
<!-- 39 -->
<g id="39" class="node">
<title>39</title>
<polygon fill="#85bbf0" stroke="#1168bd" points="3803,-931.5 3392,-931.5 3392,-628.5 3803,-628.5 3803,-931.5"/>
<text text-anchor="start" x="3441" y="-883.3" font-family="Arial" font-size="34.00" fill="#000000">Contained BlobStore</text>
<text text-anchor="start" x="3421" y="-861.3" font-family="Arial" font-size="19.00" fill="#000000">[Component: Python filesystem boundary]</text>
<text text-anchor="start" x="3445" y="-824.3" font-family="Arial" font-size="24.00" fill="#000000">Prefers root&#45;relative locators</text>
<text text-anchor="start" x="3481.5" y="-800.3" font-family="Arial" font-size="24.00" fill="#000000">with contained legacy</text>
<text text-anchor="start" x="3466.5" y="-776.3" font-family="Arial" font-size="24.00" fill="#000000">fallback; streams unique</text>
<text text-anchor="start" x="3482.5" y="-752.3" font-family="Arial" font-size="24.00" fill="#000000">stages with size/hash</text>
<text text-anchor="start" x="3478.5" y="-728.3" font-family="Arial" font-size="24.00" fill="#000000">accounting; atomically</text>
<text text-anchor="start" x="3450.5" y="-704.3" font-family="Arial" font-size="24.00" fill="#000000">commits; and contains blob</text>
<text text-anchor="start" x="3483" y="-680.3" font-family="Arial" font-size="24.00" fill="#000000">read, stat, and delete</text>
<text text-anchor="start" x="3537" y="-656.3" font-family="Arial" font-size="24.00" fill="#000000">operations.</text>
</g>
<!-- 49 -->
<g id="49" class="node">
<title>49</title>
<path fill="#2f95c8" stroke="#20688c" d="M4634.5,-495.22C4634.5,-513.51 4545.98,-528.38 4437,-528.38 4328.02,-528.38 4239.5,-513.51 4239.5,-495.22 4239.5,-495.22 4239.5,-196.78 4239.5,-196.78 4239.5,-178.49 4328.02,-163.62 4437,-163.62 4545.98,-163.62 4634.5,-178.49 4634.5,-196.78 4634.5,-196.78 4634.5,-495.22 4634.5,-495.22"/>
<path fill="none" stroke="#20688c" d="M4634.5,-495.22C4634.5,-476.92 4545.98,-462.06 4437,-462.06 4328.02,-462.06 4239.5,-476.92 4239.5,-495.22"/>
<text text-anchor="start" x="4315.5" y="-430.3" font-family="Arial" font-size="34.00" fill="#ffffff">Local Derivative</text>
<text text-anchor="start" x="4396" y="-396.3" font-family="Arial" font-size="34.00" fill="#ffffff">Store</text>
<text text-anchor="start" x="4297" y="-374.3" font-family="Arial" font-size="19.00" fill="#ffffff">[Container: WSL local filesystem]</text>
<text text-anchor="start" x="4283.5" y="-337.3" font-family="Arial" font-size="24.00" fill="#ffffff">Reconstructible compatibility</text>
<text text-anchor="start" x="4268.5" y="-313.3" font-family="Arial" font-size="24.00" fill="#ffffff">evidence such as pre&#45;version&#45;9</text>
<text text-anchor="start" x="4307" y="-289.3" font-family="Arial" font-size="24.00" fill="#ffffff">clean&#45;text sidecars; new</text>
<text text-anchor="start" x="4313.5" y="-265.3" font-family="Arial" font-size="24.00" fill="#ffffff">captures create no text</text>
<text text-anchor="start" x="4388.5" y="-241.3" font-family="Arial" font-size="24.00" fill="#ffffff">sidecars.</text>
</g>
<!-- 39&#45;&gt;49 -->
<g id="158" class="edge">
<title>39&#45;&gt;49</title>
<path fill="none" stroke="#444444" stroke-dasharray="5,2" d="M3803.11,-673.97C3932.93,-606.7 4100.32,-519.95 4230.34,-452.57"/>
<polygon fill="#444444" stroke="#444444" points="4231.97,-455.67 4239.24,-447.96 4228.75,-449.45 4231.97,-455.67"/>
<polygon fill="white" stroke="transparent" points="3848,-651 3848,-750 4120,-750 4120,-651 3848,-651"/>
<text text-anchor="start" x="3852" y="-727.3" font-family="Arial" font-size="24.00" fill="#444444">Reads, stats, reconciles,</text>
<text text-anchor="start" x="3860" y="-703.3" font-family="Arial" font-size="24.00" fill="#444444">and deletes legacy text</text>
<text text-anchor="start" x="3926" y="-679.3" font-family="Arial" font-size="24.00" fill="#444444">sidecars in</text>
<text text-anchor="start" x="3932.5" y="-659.3" font-family="Arial" font-size="19.00" fill="#444444">[Filesystem]</text>
</g>
<!-- 50 -->
<g id="50" class="node">
<title>50</title>
<path fill="#2f95c8" stroke="#20688c" d="M4709,-991.22C4709,-1012.82 4587.09,-1030.38 4437,-1030.38 4286.91,-1030.38 4165,-1012.82 4165,-991.22 4165,-991.22 4165,-638.78 4165,-638.78 4165,-617.18 4286.91,-599.62 4437,-599.62 4587.09,-599.62 4709,-617.18 4709,-638.78 4709,-638.78 4709,-991.22 4709,-991.22"/>
<path fill="none" stroke="#20688c" d="M4709,-991.22C4709,-969.61 4587.09,-952.06 4437,-952.06 4286.91,-952.06 4165,-969.61 4165,-991.22"/>
<text text-anchor="start" x="4281.5" y="-923.3" font-family="Arial" font-size="34.00" fill="#ffffff">Guarded Media Blob</text>
<text text-anchor="start" x="4387.5" y="-889.3" font-family="Arial" font-size="34.00" fill="#ffffff">Cache</text>
<text text-anchor="start" x="4194" y="-867.3" font-family="Arial" font-size="19.00" fill="#ffffff">[Container: WSL&#45;visible local or NAS&#45;mounted filesystem]</text>
<text text-anchor="start" x="4327" y="-830.3" font-family="Arial" font-size="24.00" fill="#ffffff">Bounded disposable</text>
<text text-anchor="start" x="4271.5" y="-806.3" font-family="Arial" font-size="24.00" fill="#ffffff">image/video/audio bytes under</text>
<text text-anchor="start" x="4295.5" y="-782.3" font-family="Arial" font-size="24.00" fill="#ffffff">the configured media root;</text>
<text text-anchor="start" x="4323" y="-758.3" font-family="Arial" font-size="24.00" fill="#ffffff">explicit external roots</text>
<text text-anchor="start" x="4338" y="-734.3" font-family="Arial" font-size="24.00" fill="#ffffff">require mount and</text>
<text text-anchor="start" x="4287.5" y="-710.3" font-family="Arial" font-size="24.00" fill="#ffffff">identity&#45;marker proof before</text>
<text text-anchor="start" x="4396" y="-686.3" font-family="Arial" font-size="24.00" fill="#ffffff">access.</text>
</g>
<!-- 39&#45;&gt;50 -->
<g id="159" class="edge">
<title>39&#45;&gt;50</title>
<path fill="none" stroke="#444444" stroke-dasharray="5,2" d="M3803.11,-788.55C3908.86,-792.97 4039.54,-798.43 4154.64,-803.24"/>
<polygon fill="#444444" stroke="#444444" points="4154.53,-806.74 4164.67,-803.66 4154.82,-799.75 4154.53,-806.74"/>
<polygon fill="white" stroke="transparent" points="3848.5,-801 3848.5,-900 4119.5,-900 4119.5,-801 3848.5,-801"/>
<text text-anchor="start" x="3854.5" y="-877.3" font-family="Arial" font-size="24.00" fill="#444444">Stages, commits, reads,</text>
<text text-anchor="start" x="3853" y="-853.3" font-family="Arial" font-size="24.00" fill="#444444">stats, and deletes media</text>
<text text-anchor="start" x="3942.5" y="-829.3" font-family="Arial" font-size="24.00" fill="#444444">blobs in</text>
<text text-anchor="start" x="3933" y="-809.3" font-family="Arial" font-size="19.00" fill="#444444">[Filesystem]</text>
</g>
<!-- 51 -->
<g id="51" class="node">
<title>51</title>
<path fill="#2f95c8" stroke="#20688c" d="M4630,-1523.72C4630,-1546.98 4543.49,-1565.88 4437,-1565.88 4330.51,-1565.88 4244,-1546.98 4244,-1523.72 4244,-1523.72 4244,-1144.28 4244,-1144.28 4244,-1121.02 4330.51,-1102.12 4437,-1102.12 4543.49,-1102.12 4630,-1121.02 4630,-1144.28 4630,-1144.28 4630,-1523.72 4630,-1523.72"/>
<path fill="none" stroke="#20688c" d="M4630,-1523.72C4630,-1500.45 4543.49,-1481.56 4437,-1481.56 4330.51,-1481.56 4244,-1500.45 4244,-1523.72"/>
<text text-anchor="start" x="4273" y="-1454.3" font-family="Arial" font-size="34.00" fill="#ffffff">Bounded Local Media</text>
<text text-anchor="start" x="4393.5" y="-1420.3" font-family="Arial" font-size="34.00" fill="#ffffff">Spool</text>
<text text-anchor="start" x="4297" y="-1398.3" font-family="Arial" font-size="19.00" fill="#ffffff">[Container: WSL local filesystem]</text>
<text text-anchor="start" x="4285" y="-1361.3" font-family="Arial" font-size="24.00" fill="#ffffff">Opt&#45;in durable outage buffer</text>
<text text-anchor="start" x="4288.5" y="-1337.3" font-family="Arial" font-size="24.00" fill="#ffffff">beneath the local WSL data</text>
<text text-anchor="start" x="4315.5" y="-1313.3" font-family="Arial" font-size="24.00" fill="#ffffff">root; admission counts</text>
<text text-anchor="start" x="4291.5" y="-1289.3" font-family="Arial" font-size="24.00" fill="#ffffff">committed files and distinct</text>
<text text-anchor="start" x="4285" y="-1265.3" font-family="Arial" font-size="24.00" fill="#ffffff">in&#45;flight SQLite reservations,</text>
<text text-anchor="start" x="4312" y="-1241.3" font-family="Arial" font-size="24.00" fill="#ffffff">and drain verifies bytes</text>
<text text-anchor="start" x="4289.5" y="-1217.3" font-family="Arial" font-size="24.00" fill="#ffffff">before tier transition/source</text>
<text text-anchor="start" x="4391" y="-1193.3" font-family="Arial" font-size="24.00" fill="#ffffff">cleanup.</text>
</g>
<!-- 39&#45;&gt;51 -->
<g id="160" class="edge">
<title>39&#45;&gt;51</title>
<path fill="none" stroke="#444444" stroke-dasharray="5,2" d="M3803.11,-915.35C3934.6,-1002.33 4104.63,-1114.8 4235.34,-1201.26"/>
<polygon fill="#444444" stroke="#444444" points="4233.62,-1204.32 4243.89,-1206.92 4237.48,-1198.48 4233.62,-1204.32"/>
<polygon fill="white" stroke="transparent" points="3839,-1122 3839,-1221 4129,-1221 4129,-1122 3839,-1122"/>
<text text-anchor="start" x="3854" y="-1198.3" font-family="Arial" font-size="24.00" fill="#444444">Stages, commits, reads,</text>
<text text-anchor="start" x="3843" y="-1174.3" font-family="Arial" font-size="24.00" fill="#444444">stats, and deletes spooled</text>
<text text-anchor="start" x="3938" y="-1150.3" font-family="Arial" font-size="24.00" fill="#444444">media in</text>
<text text-anchor="start" x="3932.5" y="-1130.3" font-family="Arial" font-size="19.00" fill="#444444">[Filesystem]</text>
</g>
<!-- 40 -->
<g id="40" class="node">
<title>40</title>
<polygon fill="#85bbf0" stroke="#1168bd" points="2996,-948.5 2363,-948.5 2363,-635.5 2996,-635.5 2996,-948.5"/>
<text text-anchor="start" x="2541" y="-900.3" font-family="Arial" font-size="34.00" fill="#000000">Blob Lifecycle and</text>
<text text-anchor="start" x="2535" y="-866.3" font-family="Arial" font-size="34.00" fill="#000000">Storage Reconciler</text>
<text text-anchor="start" x="2498" y="-844.3" font-family="Arial" font-size="19.00" fill="#000000">[Component: Python + sqlite3 + filesystem]</text>
<text text-anchor="start" x="2636.5" y="-807.3" font-family="Arial" font-size="24.00" fill="#000000">Persists</text>
<text text-anchor="start" x="2392" y="-783.3" font-family="Arial" font-size="24.00" fill="#000000">committed/tombstoned/missing/deleted/blocked/failed</text>
<text text-anchor="start" x="2569.5" y="-759.3" font-family="Arial" font-size="24.00" fill="#000000">blob state; serializes</text>
<text text-anchor="start" x="2533.5" y="-735.3" font-family="Arial" font-size="24.00" fill="#000000">deletion processors; retries</text>
<text text-anchor="start" x="2547.5" y="-711.3" font-family="Arial" font-size="24.00" fill="#000000">tombstones; and dry&#45;run</text>
<text text-anchor="start" x="2531" y="-687.3" font-family="Arial" font-size="24.00" fill="#000000">detects missing refs, in&#45;root</text>
<text text-anchor="start" x="2537" y="-663.3" font-family="Arial" font-size="24.00" fill="#000000">orphans, and stale stages.</text>
</g>
<!-- 40&#45;&gt;39 -->
<g id="157" class="edge">
<title>40&#45;&gt;39</title>
<path fill="none" stroke="#444444" stroke-dasharray="5,2" d="M2996.04,-712.91C3008.14,-711.05 3020.16,-709.4 3032,-708 3175.01,-691.15 3213.52,-687.13 3356,-708 3364.54,-709.25 3373.19,-710.74 3381.9,-712.42"/>
<polygon fill="#444444" stroke="#444444" points="3381.25,-715.86 3391.74,-714.4 3382.63,-709 3381.25,-715.86"/>
<polygon fill="white" stroke="transparent" points="3067.5,-708 3067.5,-794 3320.5,-794 3320.5,-708 3067.5,-708"/>
<text text-anchor="start" x="3072" y="-770.8" font-family="Arial" font-size="24.00" fill="#444444">Resolves, deletes, and</text>
<text text-anchor="start" x="3080" y="-744.8" font-family="Arial" font-size="24.00" fill="#444444">inventories contained</text>
<text text-anchor="start" x="3120.5" y="-718.8" font-family="Arial" font-size="24.00" fill="#444444">bytes through</text>
</g>
<!-- 48 -->
<g id="48" class="node">
<title>48</title>
<path fill="#2f95c8" stroke="#20688c" d="M3795,-1515.22C3795,-1543.44 3706.48,-1566.38 3597.5,-1566.38 3488.52,-1566.38 3400,-1543.44 3400,-1515.22 3400,-1515.22 3400,-1054.78 3400,-1054.78 3400,-1026.56 3488.52,-1003.62 3597.5,-1003.62 3706.48,-1003.62 3795,-1026.56 3795,-1054.78 3795,-1054.78 3795,-1515.22 3795,-1515.22"/>
<path fill="none" stroke="#20688c" d="M3795,-1515.22C3795,-1486.99 3706.48,-1464.06 3597.5,-1464.06 3488.52,-1464.06 3400,-1486.99 3400,-1515.22"/>
<text text-anchor="start" x="3484.5" y="-1441.3" font-family="Arial" font-size="34.00" fill="#ffffff">SQLite + FTS5</text>
<text text-anchor="start" x="3524.5" y="-1407.3" font-family="Arial" font-size="34.00" fill="#ffffff">Database</text>
<text text-anchor="start" x="3471.5" y="-1385.3" font-family="Arial" font-size="19.00" fill="#ffffff">[Container: SQLite with FTS5]</text>
<text text-anchor="start" x="3429.5" y="-1348.3" font-family="Arial" font-size="24.00" fill="#ffffff">Durable complete cleaned&#45;text,</text>
<text text-anchor="start" x="3478.5" y="-1324.3" font-family="Arial" font-size="24.00" fill="#ffffff">relational, and full&#45;text</text>
<text text-anchor="start" x="3480" y="-1300.3" font-family="Arial" font-size="24.00" fill="#ffffff">authority for migration</text>
<text text-anchor="start" x="3445.5" y="-1276.3" font-family="Arial" font-size="24.00" fill="#ffffff">ledger, sources, documents,</text>
<text text-anchor="start" x="3448" y="-1252.3" font-family="Arial" font-size="24.00" fill="#ffffff">visits, capture observations,</text>
<text text-anchor="start" x="3466.5" y="-1228.3" font-family="Arial" font-size="24.00" fill="#ffffff">URL claims, visit events,</text>
<text text-anchor="start" x="3429" y="-1204.3" font-family="Arial" font-size="24.00" fill="#ffffff">snapshots, chunks, chunks_fts,</text>
<text text-anchor="start" x="3436.5" y="-1180.3" font-family="Arial" font-size="24.00" fill="#ffffff">media provenance/tasks, blob</text>
<text text-anchor="start" x="3473" y="-1156.3" font-family="Arial" font-size="24.00" fill="#ffffff">lifecycle records, policy</text>
<text text-anchor="start" x="3472" y="-1132.3" font-family="Arial" font-size="24.00" fill="#ffffff">rules, audit events, and</text>
<text text-anchor="start" x="3505.5" y="-1108.3" font-family="Arial" font-size="24.00" fill="#ffffff">deletion receipts.</text>
</g>
<!-- 40&#45;&gt;48 -->
<g id="156" class="edge">
<title>40&#45;&gt;48</title>
<path fill="none" stroke="#444444" stroke-dasharray="5,2" d="M2996.06,-918.81C3112.15,-969.97 3242.83,-1033 3356,-1101 3367.69,-1108.03 3379.49,-1115.52 3391.24,-1123.31"/>
<polygon fill="#444444" stroke="#444444" points="3389.54,-1126.38 3399.79,-1129.04 3393.43,-1120.56 3389.54,-1126.38"/>
<polygon fill="white" stroke="transparent" points="3032,-1101 3032,-1176 3356,-1176 3356,-1101 3032,-1101"/>
<text text-anchor="start" x="3036" y="-1153.3" font-family="Arial" font-size="24.00" fill="#444444">Reads and advances durable</text>
<text text-anchor="start" x="3068" y="-1129.3" font-family="Arial" font-size="24.00" fill="#444444">blob lifecycle records in</text>
<text text-anchor="start" x="3160.5" y="-1109.3" font-family="Arial" font-size="19.00" fill="#444444">[sqlite3]</text>
</g>
<!-- 42&#45;&gt;40 -->
<g id="155" class="edge">
<title>42&#45;&gt;40</title>
<path fill="none" stroke="#444444" stroke-dasharray="5,2" d="M2031.09,-723.28C2043.14,-720.41 2055.18,-717.94 2067,-716 2159.44,-700.84 2260.18,-704.94 2352.73,-716.9"/>
<polygon fill="#444444" stroke="#444444" points="2352.44,-720.4 2362.81,-718.24 2353.36,-713.46 2352.44,-720.4"/>
<polygon fill="white" stroke="transparent" points="2067,-716 2067,-802 2327,-802 2327,-716 2067,-716"/>
<text text-anchor="start" x="2071" y="-778.8" font-family="Arial" font-size="24.00" fill="#444444">Processes post&#45;commit</text>
<text text-anchor="start" x="2072" y="-752.8" font-family="Arial" font-size="24.00" fill="#444444">contained blob deletion</text>
<text text-anchor="start" x="2155.5" y="-726.8" font-family="Arial" font-size="24.00" fill="#444444">through</text>
</g>
<!-- 42&#45;&gt;48 -->
<g id="154" class="edge">
<title>42&#45;&gt;48</title>
<path fill="none" stroke="#444444" stroke-dasharray="5,2" d="M2031.29,-865.21C2129.78,-902.44 2252.34,-947.6 2363,-985 2657.61,-1084.56 2729.35,-1118.49 3032,-1190 3149.47,-1217.76 3282.54,-1240.56 3389.97,-1256.86"/>
<polygon fill="#444444" stroke="#444444" points="3389.55,-1260.34 3399.96,-1258.37 3390.59,-1253.42 3389.55,-1260.34"/>
<polygon fill="white" stroke="transparent" points="2549,-1180 2549,-1279 2810,-1279 2810,-1180 2549,-1180"/>
<text text-anchor="start" x="2553.5" y="-1256.3" font-family="Arial" font-size="24.00" fill="#444444">Atomically deletes rows</text>
<text text-anchor="start" x="2615.5" y="-1232.3" font-family="Arial" font-size="24.00" fill="#444444">and records</text>
<text text-anchor="start" x="2558.5" y="-1208.3" font-family="Arial" font-size="24.00" fill="#444444">receipts/tombstones in</text>
<text text-anchor="start" x="2646.5" y="-1188.3" font-family="Arial" font-size="19.00" fill="#444444">[sqlite3]</text>
</g>
</g>
</svg>
