<?xml version="1.0" encoding="UTF-8" standalone="no"?>
<!DOCTYPE svg PUBLIC "-//W3C//DTD SVG 1.1//EN"
 "http://www.w3.org/Graphics/SVG/1.1/DTD/svg11.dtd">
<!-- Generated by graphviz version 2.43.0 (0)
 -->
<!-- Title: %3 Pages: 1 -->
<svg width="3244pt" height="1607pt"
 viewBox="0.00 0.00 3244.00 1607.00" xmlns="http://www.w3.org/2000/svg" xmlns:xlink="http://www.w3.org/1999/xlink">
<g id="graph0" class="graph" transform="scale(1 1) rotate(0) translate(4 1603)">
<title>%3</title>
<polygon fill="white" stroke="transparent" points="-4,4 -4,-1603 3240,-1603 3240,4 -4,4"/>
<text text-anchor="start" x="1033" y="-11.8" font-family="Arial" font-size="34.00">Component View: Browser Memory Daemon &#45; WSL Loopback HTTP Daemon</text>
<g id="clust1" class="cluster">
<title>cluster_4</title>
<polygon fill="none" stroke="#444444" points="8,-64 8,-1591 3228,-1591 3228,-64 8,-64"/>
<text text-anchor="start" x="1477" y="-92.8" font-family="Arial" font-size="24.00" fill="#444444">Browser Memory Daemon</text>
<text text-anchor="start" x="1541" y="-72.8" font-family="Arial" font-size="19.00" fill="#444444">[Software System]</text>
</g>
<g id="clust2" class="cluster">
<title>cluster_15</title>
<polygon fill="none" stroke="#444444" points="832,-955 832,-1394 2322,-1394 2322,-955 832,-955"/>
<text text-anchor="start" x="1411.5" y="-983.8" font-family="Arial" font-size="24.00" fill="#444444">WSL Loopback HTTP Daemon</text>
<text text-anchor="start" x="1375" y="-963.8" font-family="Arial" font-size="19.00" fill="#444444">[Container: Python 3.11, ThreadingHTTPServer]</text>
</g>
<!-- 31 -->
<g id="31" class="node">
<title>31</title>
<polygon fill="#85bbf0" stroke="#1168bd" points="2297,-1360.5 1886,-1360.5 1886,-1057.5 2297,-1057.5 2297,-1360.5"/>
<text text-anchor="start" x="1935" y="-1312.3" font-family="Arial" font-size="34.00" fill="#000000">Contained BlobStore</text>
<text text-anchor="start" x="1915" y="-1290.3" font-family="Arial" font-size="19.00" fill="#000000">[Component: Python filesystem boundary]</text>
<text text-anchor="start" x="1939" y="-1253.3" font-family="Arial" font-size="24.00" fill="#000000">Prefers root&#45;relative locators</text>
<text text-anchor="start" x="1975.5" y="-1229.3" font-family="Arial" font-size="24.00" fill="#000000">with contained legacy</text>
<text text-anchor="start" x="1960.5" y="-1205.3" font-family="Arial" font-size="24.00" fill="#000000">fallback; streams unique</text>
<text text-anchor="start" x="1976.5" y="-1181.3" font-family="Arial" font-size="24.00" fill="#000000">stages with size/hash</text>
<text text-anchor="start" x="1972.5" y="-1157.3" font-family="Arial" font-size="24.00" fill="#000000">accounting; atomically</text>
<text text-anchor="start" x="1944.5" y="-1133.3" font-family="Arial" font-size="24.00" fill="#000000">commits; and contains blob</text>
<text text-anchor="start" x="1977" y="-1109.3" font-family="Arial" font-size="24.00" fill="#000000">read, stat, and delete</text>
<text text-anchor="start" x="2031" y="-1085.3" font-family="Arial" font-size="24.00" fill="#000000">operations.</text>
</g>
<!-- 41 -->
<g id="41" class="node">
<title>41</title>
<path fill="#2f95c8" stroke="#20688c" d="M3128.5,-495.22C3128.5,-513.51 3039.98,-528.38 2931,-528.38 2822.02,-528.38 2733.5,-513.51 2733.5,-495.22 2733.5,-495.22 2733.5,-196.78 2733.5,-196.78 2733.5,-178.49 2822.02,-163.62 2931,-163.62 3039.98,-163.62 3128.5,-178.49 3128.5,-196.78 3128.5,-196.78 3128.5,-495.22 3128.5,-495.22"/>
<path fill="none" stroke="#20688c" d="M3128.5,-495.22C3128.5,-476.92 3039.98,-462.06 2931,-462.06 2822.02,-462.06 2733.5,-476.92 2733.5,-495.22"/>
<text text-anchor="start" x="2809.5" y="-430.3" font-family="Arial" font-size="34.00" fill="#ffffff">Local Derivative</text>
<text text-anchor="start" x="2890" y="-396.3" font-family="Arial" font-size="34.00" fill="#ffffff">Store</text>
<text text-anchor="start" x="2791" y="-374.3" font-family="Arial" font-size="19.00" fill="#ffffff">[Container: WSL local filesystem]</text>
<text text-anchor="start" x="2777.5" y="-337.3" font-family="Arial" font-size="24.00" fill="#ffffff">Reconstructible compatibility</text>
<text text-anchor="start" x="2762.5" y="-313.3" font-family="Arial" font-size="24.00" fill="#ffffff">evidence such as pre&#45;version&#45;9</text>
<text text-anchor="start" x="2801" y="-289.3" font-family="Arial" font-size="24.00" fill="#ffffff">clean&#45;text sidecars; new</text>
<text text-anchor="start" x="2807.5" y="-265.3" font-family="Arial" font-size="24.00" fill="#ffffff">captures create no text</text>
<text text-anchor="start" x="2882.5" y="-241.3" font-family="Arial" font-size="24.00" fill="#ffffff">sidecars.</text>
</g>
<!-- 31&#45;&gt;41 -->
<g id="131" class="edge">
<title>31&#45;&gt;41</title>
<path fill="none" stroke="#444444" stroke-dasharray="5,2" d="M2297.15,-1088.69C2306.59,-1077.9 2315.01,-1066.34 2322,-1054 2344.58,-1014.1 2312.91,-889.2 2333,-848 2416.14,-677.52 2587.02,-543.31 2724.74,-456.72"/>
<polygon fill="#444444" stroke="#444444" points="2726.72,-459.61 2733.35,-451.34 2723.01,-453.67 2726.72,-459.61"/>
<polygon fill="white" stroke="transparent" points="2342,-848 2342,-947 2614,-947 2614,-848 2342,-848"/>
<text text-anchor="start" x="2346" y="-924.3" font-family="Arial" font-size="24.00" fill="#444444">Reads, stats, reconciles,</text>
<text text-anchor="start" x="2354" y="-900.3" font-family="Arial" font-size="24.00" fill="#444444">and deletes legacy text</text>
<text text-anchor="start" x="2420" y="-876.3" font-family="Arial" font-size="24.00" fill="#444444">sidecars in</text>
<text text-anchor="start" x="2426.5" y="-856.3" font-family="Arial" font-size="19.00" fill="#444444">[Filesystem]</text>
</g>
<!-- 42 -->
<g id="42" class="node">
<title>42</title>
<path fill="#2f95c8" stroke="#20688c" d="M3203,-991.22C3203,-1012.82 3081.09,-1030.38 2931,-1030.38 2780.91,-1030.38 2659,-1012.82 2659,-991.22 2659,-991.22 2659,-638.78 2659,-638.78 2659,-617.18 2780.91,-599.62 2931,-599.62 3081.09,-599.62 3203,-617.18 3203,-638.78 3203,-638.78 3203,-991.22 3203,-991.22"/>
<path fill="none" stroke="#20688c" d="M3203,-991.22C3203,-969.61 3081.09,-952.06 2931,-952.06 2780.91,-952.06 2659,-969.61 2659,-991.22"/>
<text text-anchor="start" x="2775.5" y="-923.3" font-family="Arial" font-size="34.00" fill="#ffffff">Guarded Media Blob</text>
<text text-anchor="start" x="2881.5" y="-889.3" font-family="Arial" font-size="34.00" fill="#ffffff">Cache</text>
<text text-anchor="start" x="2688" y="-867.3" font-family="Arial" font-size="19.00" fill="#ffffff">[Container: WSL&#45;visible local or NAS&#45;mounted filesystem]</text>
<text text-anchor="start" x="2821" y="-830.3" font-family="Arial" font-size="24.00" fill="#ffffff">Bounded disposable</text>
<text text-anchor="start" x="2765.5" y="-806.3" font-family="Arial" font-size="24.00" fill="#ffffff">image/video/audio bytes under</text>
<text text-anchor="start" x="2789.5" y="-782.3" font-family="Arial" font-size="24.00" fill="#ffffff">the configured media root;</text>
<text text-anchor="start" x="2817" y="-758.3" font-family="Arial" font-size="24.00" fill="#ffffff">explicit external roots</text>
<text text-anchor="start" x="2832" y="-734.3" font-family="Arial" font-size="24.00" fill="#ffffff">require mount and</text>
<text text-anchor="start" x="2781.5" y="-710.3" font-family="Arial" font-size="24.00" fill="#ffffff">identity&#45;marker proof before</text>
<text text-anchor="start" x="2890" y="-686.3" font-family="Arial" font-size="24.00" fill="#ffffff">access.</text>
</g>
<!-- 31&#45;&gt;42 -->
<g id="132" class="edge">
<title>31&#45;&gt;42</title>
<path fill="none" stroke="#444444" stroke-dasharray="5,2" d="M2297.11,-1112.74C2403.07,-1062.89 2534.06,-1001.27 2649.34,-947.04"/>
<polygon fill="#444444" stroke="#444444" points="2651.11,-950.07 2658.67,-942.65 2648.13,-943.74 2651.11,-950.07"/>
<polygon fill="white" stroke="transparent" points="2342.5,-1092 2342.5,-1191 2613.5,-1191 2613.5,-1092 2342.5,-1092"/>
<text text-anchor="start" x="2348.5" y="-1168.3" font-family="Arial" font-size="24.00" fill="#444444">Stages, commits, reads,</text>
<text text-anchor="start" x="2347" y="-1144.3" font-family="Arial" font-size="24.00" fill="#444444">stats, and deletes media</text>
<text text-anchor="start" x="2436.5" y="-1120.3" font-family="Arial" font-size="24.00" fill="#444444">blobs in</text>
<text text-anchor="start" x="2427" y="-1100.3" font-family="Arial" font-size="19.00" fill="#444444">[Filesystem]</text>
</g>
<!-- 43 -->
<g id="43" class="node">
<title>43</title>
<path fill="#2f95c8" stroke="#20688c" d="M3124,-1523.72C3124,-1546.98 3037.49,-1565.88 2931,-1565.88 2824.51,-1565.88 2738,-1546.98 2738,-1523.72 2738,-1523.72 2738,-1144.28 2738,-1144.28 2738,-1121.02 2824.51,-1102.12 2931,-1102.12 3037.49,-1102.12 3124,-1121.02 3124,-1144.28 3124,-1144.28 3124,-1523.72 3124,-1523.72"/>
<path fill="none" stroke="#20688c" d="M3124,-1523.72C3124,-1500.45 3037.49,-1481.56 2931,-1481.56 2824.51,-1481.56 2738,-1500.45 2738,-1523.72"/>
<text text-anchor="start" x="2767" y="-1454.3" font-family="Arial" font-size="34.00" fill="#ffffff">Bounded Local Media</text>
<text text-anchor="start" x="2887.5" y="-1420.3" font-family="Arial" font-size="34.00" fill="#ffffff">Spool</text>
<text text-anchor="start" x="2791" y="-1398.3" font-family="Arial" font-size="19.00" fill="#ffffff">[Container: WSL local filesystem]</text>
<text text-anchor="start" x="2779" y="-1361.3" font-family="Arial" font-size="24.00" fill="#ffffff">Opt&#45;in durable outage buffer</text>
<text text-anchor="start" x="2782.5" y="-1337.3" font-family="Arial" font-size="24.00" fill="#ffffff">beneath the local WSL data</text>
<text text-anchor="start" x="2809.5" y="-1313.3" font-family="Arial" font-size="24.00" fill="#ffffff">root; admission counts</text>
<text text-anchor="start" x="2785.5" y="-1289.3" font-family="Arial" font-size="24.00" fill="#ffffff">committed files and distinct</text>
<text text-anchor="start" x="2779" y="-1265.3" font-family="Arial" font-size="24.00" fill="#ffffff">in&#45;flight SQLite reservations,</text>
<text text-anchor="start" x="2806" y="-1241.3" font-family="Arial" font-size="24.00" fill="#ffffff">and drain verifies bytes</text>
<text text-anchor="start" x="2783.5" y="-1217.3" font-family="Arial" font-size="24.00" fill="#ffffff">before tier transition/source</text>
<text text-anchor="start" x="2885" y="-1193.3" font-family="Arial" font-size="24.00" fill="#ffffff">cleanup.</text>
</g>
<!-- 31&#45;&gt;43 -->
<g id="133" class="edge">
<title>31&#45;&gt;43</title>
<path fill="none" stroke="#444444" stroke-dasharray="5,2" d="M2297.11,-1239.54C2428.07,-1259.09 2597.27,-1284.34 2727.77,-1303.82"/>
<polygon fill="#444444" stroke="#444444" points="2727.48,-1307.31 2737.89,-1305.33 2728.52,-1300.39 2727.48,-1307.31"/>
<polygon fill="white" stroke="transparent" points="2333,-1286 2333,-1385 2623,-1385 2623,-1286 2333,-1286"/>
<text text-anchor="start" x="2348" y="-1362.3" font-family="Arial" font-size="24.00" fill="#444444">Stages, commits, reads,</text>
<text text-anchor="start" x="2337" y="-1338.3" font-family="Arial" font-size="24.00" fill="#444444">stats, and deletes spooled</text>
<text text-anchor="start" x="2432" y="-1314.3" font-family="Arial" font-size="24.00" fill="#444444">media in</text>
<text text-anchor="start" x="2426.5" y="-1294.3" font-family="Arial" font-size="19.00" fill="#444444">[Filesystem]</text>
</g>
<!-- 32 -->
<g id="32" class="node">
<title>32</title>
<polygon fill="#85bbf0" stroke="#1168bd" points="1490,-1368.5 857,-1368.5 857,-1055.5 1490,-1055.5 1490,-1368.5"/>
<text text-anchor="start" x="1035" y="-1320.3" font-family="Arial" font-size="34.00" fill="#000000">Blob Lifecycle and</text>
<text text-anchor="start" x="1029" y="-1286.3" font-family="Arial" font-size="34.00" fill="#000000">Storage Reconciler</text>
<text text-anchor="start" x="992" y="-1264.3" font-family="Arial" font-size="19.00" fill="#000000">[Component: Python + sqlite3 + filesystem]</text>
<text text-anchor="start" x="1130.5" y="-1227.3" font-family="Arial" font-size="24.00" fill="#000000">Persists</text>
<text text-anchor="start" x="886" y="-1203.3" font-family="Arial" font-size="24.00" fill="#000000">committed/tombstoned/missing/deleted/blocked/failed</text>
<text text-anchor="start" x="1063.5" y="-1179.3" font-family="Arial" font-size="24.00" fill="#000000">blob state; serializes</text>
<text text-anchor="start" x="1027.5" y="-1155.3" font-family="Arial" font-size="24.00" fill="#000000">deletion processors; retries</text>
<text text-anchor="start" x="1041.5" y="-1131.3" font-family="Arial" font-size="24.00" fill="#000000">tombstones; and dry&#45;run</text>
<text text-anchor="start" x="1025" y="-1107.3" font-family="Arial" font-size="24.00" fill="#000000">detects missing refs, in&#45;root</text>
<text text-anchor="start" x="1031" y="-1083.3" font-family="Arial" font-size="24.00" fill="#000000">orphans, and stale stages.</text>
</g>
<!-- 32&#45;&gt;31 -->
<g id="130" class="edge">
<title>32&#45;&gt;31</title>
<path fill="none" stroke="#444444" stroke-dasharray="5,2" d="M1490.06,-1210.97C1617.25,-1210.55 1760.73,-1210.08 1875.53,-1209.7"/>
<polygon fill="#444444" stroke="#444444" points="1875.85,-1213.2 1885.84,-1209.67 1875.83,-1206.2 1875.85,-1213.2"/>
<polygon fill="white" stroke="transparent" points="1561.5,-1210 1561.5,-1296 1814.5,-1296 1814.5,-1210 1561.5,-1210"/>
<text text-anchor="start" x="1566" y="-1272.8" font-family="Arial" font-size="24.00" fill="#444444">Resolves, deletes, and</text>
<text text-anchor="start" x="1574" y="-1246.8" font-family="Arial" font-size="24.00" fill="#444444">inventories contained</text>
<text text-anchor="start" x="1614.5" y="-1220.8" font-family="Arial" font-size="24.00" fill="#444444">bytes through</text>
</g>
<!-- 40 -->
<g id="40" class="node">
<title>40</title>
<path fill="#2f95c8" stroke="#20688c" d="M2289,-879.22C2289,-907.44 2200.48,-930.38 2091.5,-930.38 1982.52,-930.38 1894,-907.44 1894,-879.22 1894,-879.22 1894,-418.78 1894,-418.78 1894,-390.56 1982.52,-367.62 2091.5,-367.62 2200.48,-367.62 2289,-390.56 2289,-418.78 2289,-418.78 2289,-879.22 2289,-879.22"/>
<path fill="none" stroke="#20688c" d="M2289,-879.22C2289,-850.99 2200.48,-828.06 2091.5,-828.06 1982.52,-828.06 1894,-850.99 1894,-879.22"/>
<text text-anchor="start" x="1978.5" y="-805.3" font-family="Arial" font-size="34.00" fill="#ffffff">SQLite + FTS5</text>
<text text-anchor="start" x="2018.5" y="-771.3" font-family="Arial" font-size="34.00" fill="#ffffff">Database</text>
<text text-anchor="start" x="1965.5" y="-749.3" font-family="Arial" font-size="19.00" fill="#ffffff">[Container: SQLite with FTS5]</text>
<text text-anchor="start" x="1923.5" y="-712.3" font-family="Arial" font-size="24.00" fill="#ffffff">Durable complete cleaned&#45;text,</text>
<text text-anchor="start" x="1972.5" y="-688.3" font-family="Arial" font-size="24.00" fill="#ffffff">relational, and full&#45;text</text>
<text text-anchor="start" x="1974" y="-664.3" font-family="Arial" font-size="24.00" fill="#ffffff">authority for migration</text>
<text text-anchor="start" x="1939.5" y="-640.3" font-family="Arial" font-size="24.00" fill="#ffffff">ledger, sources, documents,</text>
<text text-anchor="start" x="1942" y="-616.3" font-family="Arial" font-size="24.00" fill="#ffffff">visits, capture observations,</text>
<text text-anchor="start" x="1960.5" y="-592.3" font-family="Arial" font-size="24.00" fill="#ffffff">URL claims, visit events,</text>
<text text-anchor="start" x="1923" y="-568.3" font-family="Arial" font-size="24.00" fill="#ffffff">snapshots, chunks, chunks_fts,</text>
<text text-anchor="start" x="1930.5" y="-544.3" font-family="Arial" font-size="24.00" fill="#ffffff">media provenance/tasks, blob</text>
<text text-anchor="start" x="1967" y="-520.3" font-family="Arial" font-size="24.00" fill="#ffffff">lifecycle records, policy</text>
<text text-anchor="start" x="1966" y="-496.3" font-family="Arial" font-size="24.00" fill="#ffffff">rules, audit events, and</text>
<text text-anchor="start" x="1999.5" y="-472.3" font-family="Arial" font-size="24.00" fill="#ffffff">deletion receipts.</text>
</g>
<!-- 32&#45;&gt;40 -->
<g id="129" class="edge">
<title>32&#45;&gt;40</title>
<path fill="none" stroke="#444444" stroke-dasharray="5,2" d="M1484.01,-1055.49C1486.02,-1054.33 1488.01,-1053.16 1490,-1052 1625.13,-972.79 1771.16,-875.08 1885.38,-795.71"/>
<polygon fill="#444444" stroke="#444444" points="1887.69,-798.37 1893.9,-789.78 1883.69,-792.62 1887.69,-798.37"/>
<polygon fill="white" stroke="transparent" points="1526,-1021 1526,-1096 1850,-1096 1850,-1021 1526,-1021"/>
<text text-anchor="start" x="1530" y="-1073.3" font-family="Arial" font-size="24.00" fill="#444444">Reads and advances durable</text>
<text text-anchor="start" x="1562" y="-1049.3" font-family="Arial" font-size="24.00" fill="#444444">blob lifecycle records in</text>
<text text-anchor="start" x="1654.5" y="-1029.3" font-family="Arial" font-size="19.00" fill="#444444">[sqlite3]</text>
</g>
<!-- 38 -->
<g id="38" class="node">
<title>38</title>
<polygon fill="#438dd5" stroke="#2e6295" points="547,-836.5 33,-836.5 33,-461.5 547,-461.5 547,-836.5"/>
<text text-anchor="start" x="263" y="-788.3" font-family="Arial" font-size="34.00" fill="#ffffff">CLI</text>
<text text-anchor="start" x="169" y="-766.3" font-family="Arial" font-size="19.00" fill="#ffffff">[Container: Python argparse]</text>
<text text-anchor="start" x="143.5" y="-729.3" font-family="Arial" font-size="24.00" fill="#ffffff">Command&#45;line interface for</text>
<text text-anchor="start" x="123" y="-705.3" font-family="Arial" font-size="24.00" fill="#ffffff">serving the daemon, migration,</text>
<text text-anchor="start" x="149.5" y="-681.3" font-family="Arial" font-size="24.00" fill="#ffffff">snapshot&#45;text and storage</text>
<text text-anchor="start" x="216" y="-657.3" font-family="Arial" font-size="24.00" fill="#ffffff">reconciliation,</text>
<text text-anchor="start" x="201" y="-633.3" font-family="Arial" font-size="24.00" fill="#ffffff">manifest&#45;backed</text>
<text text-anchor="start" x="136.5" y="-609.3" font-family="Arial" font-size="24.00" fill="#ffffff">backup/restore, media&#45;spool</text>
<text text-anchor="start" x="223.5" y="-585.3" font-family="Arial" font-size="24.00" fill="#ffffff">status/drain,</text>
<text text-anchor="start" x="62" y="-561.3" font-family="Arial" font-size="24.00" fill="#ffffff">health/doctor/search/recent/timeline/detail,</text>
<text text-anchor="start" x="177" y="-537.3" font-family="Arial" font-size="24.00" fill="#ffffff">policy/forget, capture</text>
<text text-anchor="start" x="145" y="-513.3" font-family="Arial" font-size="24.00" fill="#ffffff">fixtures, media worker, and</text>
<text text-anchor="start" x="157.5" y="-489.3" font-family="Arial" font-size="24.00" fill="#ffffff">media cache operations.</text>
</g>
<!-- 38&#45;&gt;32 -->
<g id="57" class="edge">
<title>38&#45;&gt;32</title>
<path fill="none" stroke="#444444" stroke-dasharray="5,2" d="M521.53,-836.73C614.97,-908.52 725.75,-988.35 832,-1052 837.2,-1055.12 842.48,-1058.22 847.81,-1061.3"/>
<polygon fill="#444444" stroke="#444444" points="846.43,-1064.54 856.84,-1066.48 849.91,-1058.47 846.43,-1064.54"/>
<polygon fill="white" stroke="transparent" points="583,-1042 583,-1128 821,-1128 821,-1042 583,-1042"/>
<text text-anchor="start" x="587" y="-1104.8" font-family="Arial" font-size="24.00" fill="#444444">Previews or executes</text>
<text text-anchor="start" x="605.5" y="-1078.8" font-family="Arial" font-size="24.00" fill="#444444">contained storage</text>
<text text-anchor="start" x="587.5" y="-1052.8" font-family="Arial" font-size="24.00" fill="#444444">convergence through</text>
</g>
<!-- 38&#45;&gt;40 -->
<g id="56" class="edge">
<title>38&#45;&gt;40</title>
<path fill="none" stroke="#444444" stroke-dasharray="5,2" d="M547.39,-649C906.71,-649 1553.05,-649 1883.58,-649"/>
<polygon fill="#444444" stroke="#444444" points="1883.75,-652.5 1893.75,-649 1883.75,-645.5 1883.75,-652.5"/>
<polygon fill="white" stroke="transparent" points="1013.5,-649 1013.5,-796 1333.5,-796 1333.5,-649 1013.5,-649"/>
<text text-anchor="start" x="1088.5" y="-773.3" font-family="Arial" font-size="24.00" fill="#444444">Runs migration,</text>
<text text-anchor="start" x="1021" y="-749.3" font-family="Arial" font-size="24.00" fill="#444444">media&#45;worker, media&#45;cache,</text>
<text text-anchor="start" x="1080" y="-725.3" font-family="Arial" font-size="24.00" fill="#444444">media&#45;spool, and</text>
<text text-anchor="start" x="1017.5" y="-701.3" font-family="Arial" font-size="24.00" fill="#444444">storage&#45;reconcile commands</text>
<text text-anchor="start" x="1134" y="-677.3" font-family="Arial" font-size="24.00" fill="#444444">against</text>
<text text-anchor="start" x="1140" y="-657.3" font-family="Arial" font-size="19.00" fill="#444444">[sqlite3]</text>
</g>
<!-- 38&#45;&gt;41 -->
<g id="142" class="edge">
<title>38&#45;&gt;41</title>
<path fill="none" stroke="#444444" stroke-dasharray="5,2" d="M547.23,-505.41C635.49,-460.23 736.25,-413.24 832,-379 1457.75,-155.27 1661.47,-181.05 2322,-254 2456.04,-268.8 2605.83,-291.4 2723.2,-310.49"/>
<polygon fill="#444444" stroke="#444444" points="2722.94,-313.99 2733.38,-312.15 2724.07,-307.09 2722.94,-313.99"/>
<polygon fill="white" stroke="transparent" points="1569.5,-208 1569.5,-307 1806.5,-307 1806.5,-208 1569.5,-208"/>
<text text-anchor="start" x="1596.5" y="-284.3" font-family="Arial" font-size="24.00" fill="#444444">Optionally copies</text>
<text text-anchor="start" x="1574" y="-260.3" font-family="Arial" font-size="24.00" fill="#444444">referenced contained</text>
<text text-anchor="start" x="1602.5" y="-236.3" font-family="Arial" font-size="24.00" fill="#444444">derivatives from</text>
<text text-anchor="start" x="1637" y="-216.3" font-family="Arial" font-size="19.00" fill="#444444">[Filesystem]</text>
</g>
<!-- 38&#45;&gt;42 -->
<g id="59" class="edge">
<title>38&#45;&gt;42</title>
<path fill="none" stroke="#444444" stroke-dasharray="5,2" d="M547.32,-591.68C929.14,-507.39 1629.79,-357.21 1886,-332 2078.85,-313.02 2174.3,-206.57 2322,-332 2345,-351.53 2316.91,-373.47 2333,-399 2409.07,-519.68 2534.2,-614.83 2650.29,-683.51"/>
<polygon fill="#444444" stroke="#444444" points="2648.6,-686.57 2658.99,-688.61 2652.14,-680.53 2648.6,-686.57"/>
<polygon fill="white" stroke="transparent" points="1561,-386 1561,-461 1815,-461 1815,-386 1561,-386"/>
<text text-anchor="start" x="1565" y="-438.3" font-family="Arial" font-size="24.00" fill="#444444">Purges and rehydrates</text>
<text text-anchor="start" x="1578" y="-414.3" font-family="Arial" font-size="24.00" fill="#444444">media blobs through</text>
<text text-anchor="start" x="1636.5" y="-394.3" font-family="Arial" font-size="19.00" fill="#444444">[Filesystem]</text>
</g>
<!-- 38&#45;&gt;43 -->
<g id="60" class="edge">
<title>38&#45;&gt;43</title>
<path fill="none" stroke="#444444" stroke-dasharray="5,2" d="M357.36,-836.67C436.47,-1026.59 589.35,-1306.77 832,-1412 1439.55,-1675.48 1659.85,-1421.9 2322,-1412 2455.82,-1410 2490.21,-1419.75 2623,-1403 2657.04,-1398.71 2692.85,-1392.37 2727.52,-1385.24"/>
<polygon fill="#444444" stroke="#444444" points="2728.67,-1388.58 2737.75,-1383.11 2727.25,-1381.73 2728.67,-1388.58"/>
<polygon fill="white" stroke="transparent" points="1530.5,-1518 1530.5,-1593 1845.5,-1593 1845.5,-1518 1530.5,-1518"/>
<text text-anchor="start" x="1535" y="-1570.3" font-family="Arial" font-size="24.00" fill="#444444">Reports and drains bounded</text>
<text text-anchor="start" x="1574" y="-1546.3" font-family="Arial" font-size="24.00" fill="#444444">outage bytes through</text>
<text text-anchor="start" x="1637" y="-1526.3" font-family="Arial" font-size="19.00" fill="#444444">[Filesystem]</text>
</g>
</g>
</svg>
