<?xml version="1.0" encoding="UTF-8" standalone="no"?>
<!DOCTYPE svg PUBLIC "-//W3C//DTD SVG 1.1//EN"
 "http://www.w3.org/Graphics/SVG/1.1/DTD/svg11.dtd">
<!-- Generated by graphviz version 2.43.0 (0)
 -->
<!-- Title: %3 Pages: 1 -->
<svg width="2290pt" height="1242pt"
 viewBox="0.00 0.00 2290.00 1241.50" xmlns="http://www.w3.org/2000/svg" xmlns:xlink="http://www.w3.org/1999/xlink">
<g id="graph0" class="graph" transform="scale(1 1) rotate(0) translate(4 1237.5)">
<title>%3</title>
<polygon fill="white" stroke="transparent" points="-4,4 -4,-1237.5 2286,-1237.5 2286,4 -4,4"/>
<text text-anchor="start" x="825.5" y="-11.8" font-family="Arial" font-size="34.00">Dynamic View: Browser Memory Daemon</text>
<g id="clust1" class="cluster">
<title>cluster_4</title>
<polygon fill="none" stroke="#444444" points="8,-312.5 8,-1225.5 2274,-1225.5 2274,-312.5 8,-312.5"/>
<text text-anchor="start" x="1000" y="-341.3" font-family="Arial" font-size="24.00" fill="#444444">Browser Memory Daemon</text>
<text text-anchor="start" x="1064" y="-321.3" font-family="Arial" font-size="19.00" fill="#444444">[Software System]</text>
</g>
<!-- 13 -->
<g id="13" class="node">
<title>13</title>
<path fill="#2f95c8" stroke="#20688c" d="M1491.5,-1167.72C1491.5,-1186.01 1389.98,-1200.88 1265,-1200.88 1140.02,-1200.88 1038.5,-1186.01 1038.5,-1167.72 1038.5,-1167.72 1038.5,-869.28 1038.5,-869.28 1038.5,-850.99 1140.02,-836.12 1265,-836.12 1389.98,-836.12 1491.5,-850.99 1491.5,-869.28 1491.5,-869.28 1491.5,-1167.72 1491.5,-1167.72"/>
<path fill="none" stroke="#20688c" d="M1491.5,-1167.72C1491.5,-1149.42 1389.98,-1134.56 1265,-1134.56 1140.02,-1134.56 1038.5,-1149.42 1038.5,-1167.72"/>
<text text-anchor="start" x="1123" y="-1102.8" font-family="Arial" font-size="34.00" fill="#ffffff">Extension Browser</text>
<text text-anchor="start" x="1205.5" y="-1068.8" font-family="Arial" font-size="34.00" fill="#ffffff">Storage</text>
<text text-anchor="start" x="1067.5" y="-1046.8" font-family="Arial" font-size="19.00" fill="#ffffff">[Container: chrome.storage.local + IndexedDB]</text>
<text text-anchor="start" x="1132.5" y="-1009.8" font-family="Arial" font-size="24.00" fill="#ffffff">Browser&#45;side storage for</text>
<text text-anchor="start" x="1120.5" y="-985.8" font-family="Arial" font-size="24.00" fill="#ffffff">capture and visit queues in</text>
<text text-anchor="start" x="1126.5" y="-961.8" font-family="Arial" font-size="24.00" fill="#ffffff">chrome.storage.local plus</text>
<text text-anchor="start" x="1132.5" y="-937.8" font-family="Arial" font-size="24.00" fill="#ffffff">durable media tasks and</text>
<text text-anchor="start" x="1113.5" y="-913.8" font-family="Arial" font-size="24.00" fill="#ffffff">fetched blobs in IndexedDB.</text>
</g>
<!-- 14 -->
<g id="14" class="node">
<title>14</title>
<polygon fill="#438dd5" stroke="#2e6295" points="1496,-764 1034,-764 1034,-427 1496,-427 1496,-764"/>
<text text-anchor="start" x="1100.5" y="-715.8" font-family="Arial" font-size="34.00" fill="#ffffff">WSL Loopback HTTP</text>
<text text-anchor="start" x="1200.5" y="-681.8" font-family="Arial" font-size="34.00" fill="#ffffff">Daemon</text>
<text text-anchor="start" x="1063" y="-659.8" font-family="Arial" font-size="19.00" fill="#ffffff">[Container: Python 3.11, ThreadingHTTPServer]</text>
<text text-anchor="start" x="1104" y="-622.8" font-family="Arial" font-size="24.00" fill="#ffffff">Authenticated loopback HTTP</text>
<text text-anchor="start" x="1129" y="-598.8" font-family="Arial" font-size="24.00" fill="#ffffff">API that handles capture,</text>
<text text-anchor="start" x="1125.5" y="-574.8" font-family="Arial" font-size="24.00" fill="#ffffff">visit events, media artifact</text>
<text text-anchor="start" x="1128.5" y="-550.8" font-family="Arial" font-size="24.00" fill="#ffffff">upload/fetch/purge, exact</text>
<text text-anchor="start" x="1225" y="-526.8" font-family="Arial" font-size="24.00" fill="#ffffff">search,</text>
<text text-anchor="start" x="1116" y="-502.8" font-family="Arial" font-size="24.00" fill="#ffffff">recent/timeline/detail, policy</text>
<text text-anchor="start" x="1134" y="-478.8" font-family="Arial" font-size="24.00" fill="#ffffff">rules, doctor, forget, and</text>
<text text-anchor="start" x="1175.5" y="-454.8" font-family="Arial" font-size="24.00" fill="#ffffff">static UI serving.</text>
</g>
<!-- 27 -->
<g id="27" class="node">
<title>27</title>
<path fill="#2f95c8" stroke="#20688c" d="M2224.5,-834.22C2224.5,-857.48 2145.61,-876.38 2048.5,-876.38 1951.39,-876.38 1872.5,-857.48 1872.5,-834.22 1872.5,-834.22 1872.5,-454.78 1872.5,-454.78 1872.5,-431.52 1951.39,-412.62 2048.5,-412.62 2145.61,-412.62 2224.5,-431.52 2224.5,-454.78 2224.5,-454.78 2224.5,-834.22 2224.5,-834.22"/>
<path fill="none" stroke="#20688c" d="M2224.5,-834.22C2224.5,-810.95 2145.61,-792.06 2048.5,-792.06 1951.39,-792.06 1872.5,-810.95 1872.5,-834.22"/>
<text text-anchor="start" x="1935.5" y="-764.8" font-family="Arial" font-size="34.00" fill="#ffffff">SQLite + FTS5</text>
<text text-anchor="start" x="1975.5" y="-730.8" font-family="Arial" font-size="34.00" fill="#ffffff">Database</text>
<text text-anchor="start" x="1922.5" y="-708.8" font-family="Arial" font-size="19.00" fill="#ffffff">[Container: SQLite with FTS5]</text>
<text text-anchor="start" x="1929.5" y="-671.8" font-family="Arial" font-size="24.00" fill="#ffffff">Durable relational and</text>
<text text-anchor="start" x="1912" y="-647.8" font-family="Arial" font-size="24.00" fill="#ffffff">full&#45;text store for sources,</text>
<text text-anchor="start" x="1928" y="-623.8" font-family="Arial" font-size="24.00" fill="#ffffff">documents, visits, visit</text>
<text text-anchor="start" x="1902.5" y="-599.8" font-family="Arial" font-size="24.00" fill="#ffffff">events, snapshots, chunks,</text>
<text text-anchor="start" x="1901.5" y="-575.8" font-family="Arial" font-size="24.00" fill="#ffffff">chunks_fts, media artifacts,</text>
<text text-anchor="start" x="1916.5" y="-551.8" font-family="Arial" font-size="24.00" fill="#ffffff">media fetch tasks, policy</text>
<text text-anchor="start" x="1923" y="-527.8" font-family="Arial" font-size="24.00" fill="#ffffff">rules, audit events, and</text>
<text text-anchor="start" x="1956.5" y="-503.8" font-family="Arial" font-size="24.00" fill="#ffffff">deletion receipts.</text>
</g>
<!-- 14&#45;&gt;27 -->
<g id="43" class="edge">
<title>14&#45;&gt;27</title>
<path fill="none" stroke="#444444" stroke-dasharray="5,2" d="M1496.25,-609.94C1612.82,-617.25 1752.47,-626 1862.04,-632.87"/>
<polygon fill="#444444" stroke="#444444" points="1862.01,-636.38 1872.21,-633.51 1862.45,-629.39 1862.01,-636.38"/>
<polygon fill="white" stroke="transparent" points="1532,-628.5 1532,-727.5 1812,-727.5 1812,-628.5 1532,-628.5"/>
<text text-anchor="start" x="1536" y="-704.8" font-family="Arial" font-size="24.00" fill="#444444">4. Stores document, visit,</text>
<text text-anchor="start" x="1544.5" y="-680.8" font-family="Arial" font-size="24.00" fill="#444444">snapshot, chunks, FTS,</text>
<text text-anchor="start" x="1556.5" y="-656.8" font-family="Arial" font-size="24.00" fill="#444444">media refs, and tasks</text>
<text text-anchor="start" x="1638.5" y="-636.8" font-family="Arial" font-size="19.00" fill="#444444">[sqlite3]</text>
</g>
<!-- 28 -->
<g id="28" class="node">
<title>28</title>
<path fill="#2f95c8" stroke="#20688c" d="M2249,-1177.28C2249,-1189.89 2159.13,-1200.13 2048.5,-1200.13 1937.87,-1200.13 1848,-1189.89 1848,-1177.28 1848,-1177.28 1848,-971.72 1848,-971.72 1848,-959.11 1937.87,-948.87 2048.5,-948.87 2159.13,-948.87 2249,-959.11 2249,-971.72 2249,-971.72 2249,-1177.28 2249,-1177.28"/>
<path fill="none" stroke="#20688c" d="M2249,-1177.28C2249,-1164.68 2159.13,-1154.44 2048.5,-1154.44 1937.87,-1154.44 1848,-1164.68 1848,-1177.28"/>
<text text-anchor="start" x="1884" y="-1117.8" font-family="Arial" font-size="34.00" fill="#ffffff">Clean Text Blob Store</text>
<text text-anchor="start" x="1931" y="-1095.8" font-family="Arial" font-size="19.00" fill="#ffffff">[Container: WSL filesystem]</text>
<text text-anchor="start" x="1890" y="-1058.8" font-family="Arial" font-size="24.00" fill="#ffffff">Filesystem store for snapshot</text>
<text text-anchor="start" x="1877" y="-1034.8" font-family="Arial" font-size="24.00" fill="#ffffff">text blobs under WSL XDG data</text>
<text text-anchor="start" x="2015" y="-1010.8" font-family="Arial" font-size="24.00" fill="#ffffff">paths.</text>
</g>
<!-- 14&#45;&gt;28 -->
<g id="44" class="edge">
<title>14&#45;&gt;28</title>
<path fill="none" stroke="#444444" stroke-dasharray="5,2" d="M1496.25,-736.63C1608.14,-805.21 1741.29,-886.82 1848.69,-952.65"/>
<polygon fill="#444444" stroke="#444444" points="1847.01,-955.72 1857.36,-957.96 1850.67,-949.75 1847.01,-955.72"/>
<polygon fill="white" stroke="transparent" points="1564,-919.5 1564,-994.5 1780,-994.5 1780,-919.5 1564,-919.5"/>
<text text-anchor="start" x="1568" y="-971.8" font-family="Arial" font-size="24.00" fill="#444444">5. Writes clean&#45;text</text>
<text text-anchor="start" x="1596.5" y="-947.8" font-family="Arial" font-size="24.00" fill="#444444">snapshot blob</text>
<text text-anchor="start" x="1620.5" y="-927.8" font-family="Arial" font-size="19.00" fill="#444444">[Filesystem]</text>
</g>
<!-- 5 -->
<g id="5" class="node">
<title>5</title>
<polygon fill="#438dd5" stroke="#2e6295" points="467,-746 33,-746 33,-467 467,-467 467,-746"/>
<text text-anchor="start" x="70" y="-697.8" font-family="Arial" font-size="34.00" fill="#ffffff">Chrome MV3 Extension</text>
<text text-anchor="start" x="62" y="-675.8" font-family="Arial" font-size="19.00" fill="#ffffff">[Container: JavaScript, Chrome Manifest V3]</text>
<text text-anchor="start" x="107" y="-638.8" font-family="Arial" font-size="24.00" fill="#ffffff">Captures visible page text,</text>
<text text-anchor="start" x="132.5" y="-614.8" font-family="Arial" font-size="24.00" fill="#ffffff">media references, tab</text>
<text text-anchor="start" x="141" y="-590.8" font-family="Arial" font-size="24.00" fill="#ffffff">lifecycle events, and</text>
<text text-anchor="start" x="84" y="-566.8" font-family="Arial" font-size="24.00" fill="#ffffff">browser&#45;side media bytes from</text>
<text text-anchor="start" x="79" y="-542.8" font-family="Arial" font-size="24.00" fill="#ffffff">Windows Chrome; queues work</text>
<text text-anchor="start" x="91" y="-518.8" font-family="Arial" font-size="24.00" fill="#ffffff">durably and posts to the WSL</text>
<text text-anchor="start" x="202.5" y="-494.8" font-family="Arial" font-size="24.00" fill="#ffffff">daemon.</text>
</g>
<!-- 14&#45;&gt;5 -->
<g id="38" class="edge">
<title>14&#45;&gt;5</title>
<path fill="none" stroke="#444444" stroke-dasharray="5,2" d="M1033.96,-635.94C1021.82,-637.33 1009.78,-638.53 998,-639.5 778.74,-657.51 722.53,-653.81 503,-639.5 494.61,-638.95 486.08,-638.31 477.47,-637.57"/>
<polygon fill="#444444" stroke="#444444" points="477.6,-634.07 467.33,-636.68 476.98,-641.04 477.6,-634.07"/>
<polygon fill="white" stroke="transparent" points="503,-651.5 503,-774.5 998,-774.5 998,-651.5 503,-651.5"/>
<text text-anchor="start" x="695" y="-751.8" font-family="Arial" font-size="24.00" fill="#444444">6. Returns</text>
<text text-anchor="start" x="605" y="-727.8" font-family="Arial" font-size="24.00" fill="#444444">document/snapshot/artifact</text>
<text text-anchor="start" x="633.5" y="-703.8" font-family="Arial" font-size="24.00" fill="#444444">IDs before lazy media</text>
<text text-anchor="start" x="722" y="-679.8" font-family="Arial" font-size="24.00" fill="#444444">bytes</text>
<text text-anchor="start" x="507.5" y="-659.8" font-family="Arial" font-size="19.00" fill="#444444">[Bearer HTTP/JSON; raw HTTP PUT over 127.0.0.1:8765]</text>
</g>
<!-- 5&#45;&gt;13 -->
<g id="37" class="edge">
<title>5&#45;&gt;13</title>
<path fill="none" stroke="#444444" stroke-dasharray="5,2" d="M423.95,-746C449.58,-763.12 476.35,-779.22 503,-792.5 670.18,-875.8 873.63,-934.24 1028.09,-970.8"/>
<polygon fill="#444444" stroke="#444444" points="1027.65,-974.29 1038.19,-973.17 1029.26,-967.48 1027.65,-974.29"/>
<polygon fill="white" stroke="transparent" points="595,-959.5 595,-1058.5 906,-1058.5 906,-959.5 595,-959.5"/>
<text text-anchor="start" x="622" y="-1035.8" font-family="Arial" font-size="24.00" fill="#444444">7. Queues browser&#45;side</text>
<text text-anchor="start" x="641.5" y="-1011.8" font-family="Arial" font-size="24.00" fill="#444444">media tasks for later</text>
<text text-anchor="start" x="684.5" y="-987.8" font-family="Arial" font-size="24.00" fill="#444444">fetch/upload</text>
<text text-anchor="start" x="599.5" y="-967.8" font-family="Arial" font-size="19.00" fill="#444444">[chrome.storage.local + IndexedDB]</text>
</g>
<!-- 5&#45;&gt;14 -->
<g id="38" class="edge">
<title>5&#45;&gt;14</title>
<path fill="none" stroke="#444444" stroke-dasharray="5,2" d="M467.17,-533.23C479.21,-530.61 491.21,-528.33 503,-526.5 720.41,-492.82 779.77,-498.66 998,-526.5 1006.42,-527.57 1014.95,-528.83 1023.54,-530.24"/>
<polygon fill="#444444" stroke="#444444" points="1023.2,-533.74 1033.65,-531.97 1024.38,-526.84 1023.2,-533.74"/>
<polygon fill="white" stroke="transparent" points="503,-526.5 503,-625.5 998,-625.5 998,-526.5 503,-526.5"/>
<text text-anchor="start" x="628" y="-602.8" font-family="Arial" font-size="24.00" fill="#444444">3. POSTs /capture with</text>
<text text-anchor="start" x="633.5" y="-578.8" font-family="Arial" font-size="24.00" fill="#444444">visible text, metadata,</text>
<text text-anchor="start" x="670.5" y="-554.8" font-family="Arial" font-size="24.00" fill="#444444">and media refs</text>
<text text-anchor="start" x="507.5" y="-534.8" font-family="Arial" font-size="19.00" fill="#444444">[Bearer HTTP/JSON; raw HTTP PUT over 127.0.0.1:8765]</text>
</g>
<!-- 2 -->
<g id="2" class="node">
<title>2</title>
<polygon fill="#999999" stroke="#6b6b6b" points="1458,-287 1072,-287 1072,-56 1458,-56 1458,-287"/>
<text text-anchor="start" x="1130.5" y="-238.8" font-family="Arial" font-size="34.00" fill="#ffffff">Windows Chrome</text>
<text text-anchor="start" x="1188" y="-216.8" font-family="Arial" font-size="19.00" fill="#ffffff">[Software System]</text>
<text text-anchor="start" x="1101" y="-179.8" font-family="Arial" font-size="24.00" fill="#ffffff">The Windows Chrome runtime</text>
<text text-anchor="start" x="1114.5" y="-155.8" font-family="Arial" font-size="24.00" fill="#ffffff">that loads web pages, hosts</text>
<text text-anchor="start" x="1114" y="-131.8" font-family="Arial" font-size="24.00" fill="#ffffff">the MV3 extension, runs the</text>
<text text-anchor="start" x="1106" y="-107.8" font-family="Arial" font-size="24.00" fill="#ffffff">local UI in a tab, and exposes</text>
<text text-anchor="start" x="1135.5" y="-83.8" font-family="Arial" font-size="24.00" fill="#ffffff">Chrome extension APIs.</text>
</g>
<!-- 5&#45;&gt;2 -->
<g id="35" class="edge">
<title>5&#45;&gt;2</title>
<path fill="none" stroke="#444444" stroke-dasharray="5,2" d="M388.2,-466.8C423.37,-436.67 462.72,-407.35 503,-385.5 599.19,-333.32 870.86,-263.1 1062.05,-217.57"/>
<polygon fill="#444444" stroke="#444444" points="1063.03,-220.94 1071.95,-215.22 1061.41,-214.13 1063.03,-220.94"/>
<polygon fill="white" stroke="transparent" points="605.5,-385.5 605.5,-484.5 895.5,-484.5 895.5,-385.5 605.5,-385.5"/>
<text text-anchor="start" x="609.5" y="-461.8" font-family="Arial" font-size="24.00" fill="#444444">2. Runs content script and</text>
<text text-anchor="start" x="637.5" y="-437.8" font-family="Arial" font-size="24.00" fill="#444444">service worker inside</text>
<text text-anchor="start" x="698.5" y="-413.8" font-family="Arial" font-size="24.00" fill="#444444">active tab</text>
<text text-anchor="start" x="645.5" y="-393.8" font-family="Arial" font-size="19.00" fill="#444444">[Chrome extension APIs]</text>
</g>
<!-- 1 -->
<g id="1" class="node">
<title>1</title>
<polygon fill="#08427b" stroke="#052e56" points="447.5,-287 52.5,-287 52.5,-56 447.5,-56 447.5,-287"/>
<text text-anchor="start" x="183" y="-238.8" font-family="Arial" font-size="34.00" fill="#ffffff">Operator</text>
<text text-anchor="start" x="214.5" y="-216.8" font-family="Arial" font-size="19.00" fill="#ffffff">[Person]</text>
<text text-anchor="start" x="123.5" y="-179.8" font-family="Arial" font-size="24.00" fill="#ffffff">Sole local operator who</text>
<text text-anchor="start" x="81.5" y="-155.8" font-family="Arial" font-size="24.00" fill="#ffffff">browses with Windows Chrome</text>
<text text-anchor="start" x="102.5" y="-131.8" font-family="Arial" font-size="24.00" fill="#ffffff">and searches, reviews, and</text>
<text text-anchor="start" x="88" y="-107.8" font-family="Arial" font-size="24.00" fill="#ffffff">deletes local browser&#45;memory</text>
<text text-anchor="start" x="206" y="-83.8" font-family="Arial" font-size="24.00" fill="#ffffff">records.</text>
</g>
<!-- 1&#45;&gt;2 -->
<g id="30" class="edge">
<title>1&#45;&gt;2</title>
<path fill="none" stroke="#444444" stroke-dasharray="5,2" d="M447.52,-171.5C624.41,-171.5 883.25,-171.5 1061.85,-171.5"/>
<polygon fill="#444444" stroke="#444444" points="1061.9,-175 1071.9,-171.5 1061.9,-168 1061.9,-175"/>
<polygon fill="white" stroke="transparent" points="620.5,-171.5 620.5,-205.5 880.5,-205.5 880.5,-171.5 620.5,-171.5"/>
<text text-anchor="start" x="624.5" y="-182.3" font-family="Arial" font-size="24.00" fill="#444444">1. Browses a web page</text>
</g>
</g>
</svg>
