<?xml version="1.0" encoding="UTF-8" standalone="no"?>
<!DOCTYPE svg PUBLIC "-//W3C//DTD SVG 1.1//EN"
 "http://www.w3.org/Graphics/SVG/1.1/DTD/svg11.dtd">
<!-- Generated by graphviz version 2.43.0 (0)
 -->
<!-- Title: %3 Pages: 1 -->
<svg width="2224pt" height="767pt"
 viewBox="0.00 0.00 2224.00 767.00" xmlns="http://www.w3.org/2000/svg" xmlns:xlink="http://www.w3.org/1999/xlink">
<g id="graph0" class="graph" transform="scale(1 1) rotate(0) translate(4 763)">
<title>%3</title>
<polygon fill="white" stroke="transparent" points="-4,4 -4,-763 2220,-763 2220,4 -4,4"/>
<text text-anchor="start" x="523" y="-11.8" font-family="Arial" font-size="34.00">Component View: Browser Memory Daemon &#45; WSL Loopback HTTP Daemon</text>
<g id="clust1" class="cluster">
<title>cluster_4</title>
<polygon fill="none" stroke="#444444" points="8,-64 8,-751 2208,-751 2208,-64 8,-64"/>
<text text-anchor="start" x="967" y="-92.8" font-family="Arial" font-size="24.00" fill="#444444">Browser Memory Daemon</text>
<text text-anchor="start" x="1031" y="-72.8" font-family="Arial" font-size="19.00" fill="#444444">[Software System]</text>
</g>
<g id="clust2" class="cluster">
<title>cluster_22</title>
<polygon fill="none" stroke="#444444" points="33,-164 33,-688 1448,-688 1448,-164 33,-164"/>
<text text-anchor="start" x="575" y="-192.8" font-family="Arial" font-size="24.00" fill="#444444">WSL Loopback HTTP Daemon</text>
<text text-anchor="start" x="538.5" y="-172.8" font-family="Arial" font-size="19.00" fill="#444444">[Container: Python 3.11, ThreadingHTTPServer]</text>
</g>
<!-- 23 -->
<g id="23" class="node">
<title>23</title>
<polygon fill="#85bbf0" stroke="#1168bd" points="552,-663.5 58,-663.5 58,-264.5 552,-264.5 552,-663.5"/>
<text text-anchor="start" x="136.5" y="-615.3" font-family="Arial" font-size="34.00" fill="#000000">HTTP Request Router</text>
<text text-anchor="start" x="87" y="-593.3" font-family="Arial" font-size="19.00" fill="#000000">[Component: Python http.server + route descriptors]</text>
<text text-anchor="start" x="129" y="-556.3" font-family="Arial" font-size="24.00" fill="#000000">Matches immutable method/path</text>
<text text-anchor="start" x="189" y="-532.3" font-family="Arial" font-size="24.00" fill="#000000">descriptors with static</text>
<text text-anchor="start" x="172" y="-508.3" font-family="Arial" font-size="24.00" fill="#000000">precedence, maps typed</text>
<text text-anchor="start" x="166" y="-484.3" font-family="Arial" font-size="24.00" fill="#000000">compatible errors, applies</text>
<text text-anchor="start" x="125.5" y="-460.3" font-family="Arial" font-size="24.00" fill="#000000">opaque request IDs and common</text>
<text text-anchor="start" x="180" y="-436.3" font-family="Arial" font-size="24.00" fill="#000000">security headers, emits</text>
<text text-anchor="start" x="228" y="-412.3" font-family="Arial" font-size="24.00" fill="#000000">redaction&#45;safe</text>
<text text-anchor="start" x="199.5" y="-388.3" font-family="Arial" font-size="24.00" fill="#000000">route/status/latency</text>
<text text-anchor="start" x="156" y="-364.3" font-family="Arial" font-size="24.00" fill="#000000">telemetry, serves UI assets,</text>
<text text-anchor="start" x="175" y="-340.3" font-family="Arial" font-size="24.00" fill="#000000">enforces bearer auth for</text>
<text text-anchor="start" x="128" y="-316.3" font-family="Arial" font-size="24.00" fill="#000000">memory/admin APIs, and applies</text>
<text text-anchor="start" x="166" y="-292.3" font-family="Arial" font-size="24.00" fill="#000000">CORS for allowed origins.</text>
</g>
<!-- 27 -->
<g id="27" class="node">
<title>27</title>
<polygon fill="#85bbf0" stroke="#1168bd" points="1423,-622.5 914,-622.5 914,-295.5 1423,-295.5 1423,-622.5"/>
<text text-anchor="start" x="1057" y="-574.3" font-family="Arial" font-size="34.00" fill="#000000">Ingest Pipeline</text>
<text text-anchor="start" x="1040.5" y="-552.3" font-family="Arial" font-size="19.00" fill="#000000">[Component: Python + sqlite3]</text>
<text text-anchor="start" x="1018" y="-515.3" font-family="Arial" font-size="24.00" fill="#000000">Normalizes observed URLs,</text>
<text text-anchor="start" x="1006.5" y="-491.3" font-family="Arial" font-size="24.00" fill="#000000">computes document/snapshot</text>
<text text-anchor="start" x="1053.5" y="-467.3" font-family="Arial" font-size="24.00" fill="#000000">IDs, atomically stores</text>
<text text-anchor="start" x="1025" y="-443.3" font-family="Arial" font-size="24.00" fill="#000000">complete cleaned text plus</text>
<text text-anchor="start" x="943" y="-419.3" font-family="Arial" font-size="24.00" fill="#000000">visits/observations/snapshots/chunks/FTS</text>
<text text-anchor="start" x="1095.5" y="-395.3" font-family="Arial" font-size="24.00" fill="#000000">rows, records</text>
<text text-anchor="start" x="1010" y="-371.3" font-family="Arial" font-size="24.00" fill="#000000">non&#45;authoritative URL claims,</text>
<text text-anchor="start" x="1023.5" y="-347.3" font-family="Arial" font-size="24.00" fill="#000000">and links media references</text>
<text text-anchor="start" x="1007.5" y="-323.3" font-family="Arial" font-size="24.00" fill="#000000">without touching blob storage.</text>
</g>
<!-- 23&#45;&gt;27 -->
<g id="116" class="edge">
<title>23&#45;&gt;27</title>
<path fill="none" stroke="#444444" stroke-dasharray="5,2" d="M552.01,-462.57C661.95,-461.93 791.7,-461.18 903.66,-460.53"/>
<polygon fill="#444444" stroke="#444444" points="903.77,-464.03 913.75,-460.47 903.73,-457.03 903.77,-464.03"/>
<polygon fill="white" stroke="transparent" points="588,-462 588,-522 878,-522 878,-462 588,-462"/>
<text text-anchor="start" x="592" y="-498.8" font-family="Arial" font-size="24.00" fill="#444444">Routes accepted captures</text>
<text text-anchor="start" x="722.5" y="-472.8" font-family="Arial" font-size="24.00" fill="#444444">to</text>
</g>
<!-- 47 -->
<g id="47" class="node">
<title>47</title>
<path fill="#2f95c8" stroke="#20688c" d="M2183,-675.22C2183,-703.44 2094.48,-726.38 1985.5,-726.38 1876.52,-726.38 1788,-703.44 1788,-675.22 1788,-675.22 1788,-214.78 1788,-214.78 1788,-186.56 1876.52,-163.62 1985.5,-163.62 2094.48,-163.62 2183,-186.56 2183,-214.78 2183,-214.78 2183,-675.22 2183,-675.22"/>
<path fill="none" stroke="#20688c" d="M2183,-675.22C2183,-646.99 2094.48,-624.06 1985.5,-624.06 1876.52,-624.06 1788,-646.99 1788,-675.22"/>
<text text-anchor="start" x="1872.5" y="-601.3" font-family="Arial" font-size="34.00" fill="#ffffff">SQLite + FTS5</text>
<text text-anchor="start" x="1912.5" y="-567.3" font-family="Arial" font-size="34.00" fill="#ffffff">Database</text>
<text text-anchor="start" x="1859.5" y="-545.3" font-family="Arial" font-size="19.00" fill="#ffffff">[Container: SQLite with FTS5]</text>
<text text-anchor="start" x="1817.5" y="-508.3" font-family="Arial" font-size="24.00" fill="#ffffff">Durable complete cleaned&#45;text,</text>
<text text-anchor="start" x="1866.5" y="-484.3" font-family="Arial" font-size="24.00" fill="#ffffff">relational, and full&#45;text</text>
<text text-anchor="start" x="1868" y="-460.3" font-family="Arial" font-size="24.00" fill="#ffffff">authority for migration</text>
<text text-anchor="start" x="1833.5" y="-436.3" font-family="Arial" font-size="24.00" fill="#ffffff">ledger, sources, documents,</text>
<text text-anchor="start" x="1836" y="-412.3" font-family="Arial" font-size="24.00" fill="#ffffff">visits, capture observations,</text>
<text text-anchor="start" x="1854.5" y="-388.3" font-family="Arial" font-size="24.00" fill="#ffffff">URL claims, visit events,</text>
<text text-anchor="start" x="1817" y="-364.3" font-family="Arial" font-size="24.00" fill="#ffffff">snapshots, chunks, chunks_fts,</text>
<text text-anchor="start" x="1824.5" y="-340.3" font-family="Arial" font-size="24.00" fill="#ffffff">media provenance/tasks, blob</text>
<text text-anchor="start" x="1861" y="-316.3" font-family="Arial" font-size="24.00" fill="#ffffff">lifecycle records, policy</text>
<text text-anchor="start" x="1860" y="-292.3" font-family="Arial" font-size="24.00" fill="#ffffff">rules, audit events, and</text>
<text text-anchor="start" x="1893.5" y="-268.3" font-family="Arial" font-size="24.00" fill="#ffffff">deletion receipts.</text>
</g>
<!-- 27&#45;&gt;47 -->
<g id="124" class="edge">
<title>27&#45;&gt;47</title>
<path fill="none" stroke="#444444" stroke-dasharray="5,2" d="M1423.18,-454.64C1537.13,-452.68 1669.89,-450.4 1777.68,-448.55"/>
<polygon fill="#444444" stroke="#444444" points="1777.76,-452.05 1787.7,-448.38 1777.64,-445.05 1777.76,-452.05"/>
<polygon fill="white" stroke="transparent" points="1459,-453 1459,-552 1752,-552 1752,-453 1459,-453"/>
<text text-anchor="start" x="1463.5" y="-529.3" font-family="Arial" font-size="24.00" fill="#444444">Atomically writes complete</text>
<text text-anchor="start" x="1493" y="-505.3" font-family="Arial" font-size="24.00" fill="#444444">cleaned text, capture</text>
<text text-anchor="start" x="1513.5" y="-481.3" font-family="Arial" font-size="24.00" fill="#444444">rows, and FTS to</text>
<text text-anchor="start" x="1572.5" y="-461.3" font-family="Arial" font-size="19.00" fill="#444444">[sqlite3]</text>
</g>
</g>
</svg>
