<?xml version="1.0" encoding="UTF-8" standalone="no"?>
<!DOCTYPE svg PUBLIC "-//W3C//DTD SVG 1.1//EN"
 "http://www.w3.org/Graphics/SVG/1.1/DTD/svg11.dtd">
<!-- Generated by graphviz version 2.43.0 (0)
 -->
<!-- Title: %3 Pages: 1 -->
<svg width="1562pt" height="1777pt"
 viewBox="0.00 0.00 1562.00 1776.75" xmlns="http://www.w3.org/2000/svg" xmlns:xlink="http://www.w3.org/1999/xlink">
<g id="graph0" class="graph" transform="scale(1 1) rotate(0) translate(4 1772.75)">
<title>%3</title>
<polygon fill="white" stroke="transparent" points="-4,4 -4,-1772.75 1558,-1772.75 1558,4 -4,4"/>
<text text-anchor="start" x="454.5" y="-11.8" font-family="Arial" font-size="34.00">Container View: Browser Memory Daemon</text>
<g id="clust1" class="cluster">
<title>cluster_4</title>
<polygon fill="none" stroke="#444444" points="8,-64 8,-1760.75 1045,-1760.75 1045,-64 8,-64"/>
<text text-anchor="start" x="385.5" y="-92.8" font-family="Arial" font-size="24.00" fill="#444444">Browser Memory Daemon</text>
<text text-anchor="start" x="449.5" y="-72.8" font-family="Arial" font-size="19.00" fill="#444444">[Software System]</text>
</g>
<!-- 2 -->
<g id="2" class="node">
<title>2</title>
<polygon fill="#999999" stroke="#6b6b6b" points="1478,-1195.06 1092,-1195.06 1092,-964.06 1478,-964.06 1478,-1195.06"/>
<text text-anchor="start" x="1150.5" y="-1146.86" font-family="Arial" font-size="34.00" fill="#ffffff">Windows Chrome</text>
<text text-anchor="start" x="1208" y="-1124.86" font-family="Arial" font-size="19.00" fill="#ffffff">[Software System]</text>
<text text-anchor="start" x="1121" y="-1087.86" font-family="Arial" font-size="24.00" fill="#ffffff">The Windows Chrome runtime</text>
<text text-anchor="start" x="1134.5" y="-1063.86" font-family="Arial" font-size="24.00" fill="#ffffff">that loads web pages, hosts</text>
<text text-anchor="start" x="1134" y="-1039.86" font-family="Arial" font-size="24.00" fill="#ffffff">the MV3 extension, runs the</text>
<text text-anchor="start" x="1126" y="-1015.86" font-family="Arial" font-size="24.00" fill="#ffffff">local UI in a tab, and exposes</text>
<text text-anchor="start" x="1155.5" y="-991.86" font-family="Arial" font-size="24.00" fill="#ffffff">Chrome extension APIs.</text>
</g>
<!-- 13 -->
<g id="13" class="node">
<title>13</title>
<path fill="#2f95c8" stroke="#20688c" d="M485.5,-1228.78C485.5,-1247.08 383.98,-1261.94 259,-1261.94 134.02,-1261.94 32.5,-1247.08 32.5,-1228.78 32.5,-1228.78 32.5,-930.35 32.5,-930.35 32.5,-912.05 134.02,-897.19 259,-897.19 383.98,-897.19 485.5,-912.05 485.5,-930.35 485.5,-930.35 485.5,-1228.78 485.5,-1228.78"/>
<path fill="none" stroke="#20688c" d="M485.5,-1228.78C485.5,-1210.48 383.98,-1195.62 259,-1195.62 134.02,-1195.62 32.5,-1210.48 32.5,-1228.78"/>
<text text-anchor="start" x="117" y="-1163.86" font-family="Arial" font-size="34.00" fill="#ffffff">Extension Browser</text>
<text text-anchor="start" x="199.5" y="-1129.86" font-family="Arial" font-size="34.00" fill="#ffffff">Storage</text>
<text text-anchor="start" x="61.5" y="-1107.86" font-family="Arial" font-size="19.00" fill="#ffffff">[Container: chrome.storage.local + IndexedDB]</text>
<text text-anchor="start" x="126.5" y="-1070.86" font-family="Arial" font-size="24.00" fill="#ffffff">Browser&#45;side storage for</text>
<text text-anchor="start" x="114.5" y="-1046.86" font-family="Arial" font-size="24.00" fill="#ffffff">capture and visit queues in</text>
<text text-anchor="start" x="120.5" y="-1022.86" font-family="Arial" font-size="24.00" fill="#ffffff">chrome.storage.local plus</text>
<text text-anchor="start" x="126.5" y="-998.86" font-family="Arial" font-size="24.00" fill="#ffffff">durable media tasks and</text>
<text text-anchor="start" x="107.5" y="-974.86" font-family="Arial" font-size="24.00" fill="#ffffff">fetched blobs in IndexedDB.</text>
</g>
<!-- 14 -->
<g id="14" class="node">
<title>14</title>
<polygon fill="#438dd5" stroke="#2e6295" points="1020,-1248.06 558,-1248.06 558,-911.06 1020,-911.06 1020,-1248.06"/>
<text text-anchor="start" x="624.5" y="-1199.86" font-family="Arial" font-size="34.00" fill="#ffffff">WSL Loopback HTTP</text>
<text text-anchor="start" x="724.5" y="-1165.86" font-family="Arial" font-size="34.00" fill="#ffffff">Daemon</text>
<text text-anchor="start" x="587" y="-1143.86" font-family="Arial" font-size="19.00" fill="#ffffff">[Container: Python 3.11, ThreadingHTTPServer]</text>
<text text-anchor="start" x="628" y="-1106.86" font-family="Arial" font-size="24.00" fill="#ffffff">Authenticated loopback HTTP</text>
<text text-anchor="start" x="653" y="-1082.86" font-family="Arial" font-size="24.00" fill="#ffffff">API that handles capture,</text>
<text text-anchor="start" x="649.5" y="-1058.86" font-family="Arial" font-size="24.00" fill="#ffffff">visit events, media artifact</text>
<text text-anchor="start" x="652.5" y="-1034.86" font-family="Arial" font-size="24.00" fill="#ffffff">upload/fetch/purge, exact</text>
<text text-anchor="start" x="749" y="-1010.86" font-family="Arial" font-size="24.00" fill="#ffffff">search,</text>
<text text-anchor="start" x="640" y="-986.86" font-family="Arial" font-size="24.00" fill="#ffffff">recent/timeline/detail, policy</text>
<text text-anchor="start" x="637.5" y="-962.86" font-family="Arial" font-size="24.00" fill="#ffffff">rules, doctor, durable forget,</text>
<text text-anchor="start" x="676" y="-938.86" font-family="Arial" font-size="24.00" fill="#ffffff">and static UI serving.</text>
</g>
<!-- 30 -->
<g id="30" class="node">
<title>30</title>
<path fill="#2f95c8" stroke="#20688c" d="M517.5,-675.4C517.5,-703.63 428.98,-726.56 320,-726.56 211.02,-726.56 122.5,-703.63 122.5,-675.4 122.5,-675.4 122.5,-214.97 122.5,-214.97 122.5,-186.74 211.02,-163.81 320,-163.81 428.98,-163.81 517.5,-186.74 517.5,-214.97 517.5,-214.97 517.5,-675.4 517.5,-675.4"/>
<path fill="none" stroke="#20688c" d="M517.5,-675.4C517.5,-647.17 428.98,-624.24 320,-624.24 211.02,-624.24 122.5,-647.17 122.5,-675.4"/>
<text text-anchor="start" x="207" y="-601.49" font-family="Arial" font-size="34.00" fill="#ffffff">SQLite + FTS5</text>
<text text-anchor="start" x="247" y="-567.49" font-family="Arial" font-size="34.00" fill="#ffffff">Database</text>
<text text-anchor="start" x="194" y="-545.49" font-family="Arial" font-size="19.00" fill="#ffffff">[Container: SQLite with FTS5]</text>
<text text-anchor="start" x="152" y="-508.49" font-family="Arial" font-size="24.00" fill="#ffffff">Durable complete cleaned&#45;text,</text>
<text text-anchor="start" x="201" y="-484.49" font-family="Arial" font-size="24.00" fill="#ffffff">relational, and full&#45;text</text>
<text text-anchor="start" x="202.5" y="-460.49" font-family="Arial" font-size="24.00" fill="#ffffff">authority for migration</text>
<text text-anchor="start" x="168" y="-436.49" font-family="Arial" font-size="24.00" fill="#ffffff">ledger, sources, documents,</text>
<text text-anchor="start" x="170.5" y="-412.49" font-family="Arial" font-size="24.00" fill="#ffffff">visits, capture observations,</text>
<text text-anchor="start" x="189" y="-388.49" font-family="Arial" font-size="24.00" fill="#ffffff">URL claims, visit events,</text>
<text text-anchor="start" x="151.5" y="-364.49" font-family="Arial" font-size="24.00" fill="#ffffff">snapshots, chunks, chunks_fts,</text>
<text text-anchor="start" x="159" y="-340.49" font-family="Arial" font-size="24.00" fill="#ffffff">media provenance/tasks, blob</text>
<text text-anchor="start" x="195.5" y="-316.49" font-family="Arial" font-size="24.00" fill="#ffffff">lifecycle records, policy</text>
<text text-anchor="start" x="194.5" y="-292.49" font-family="Arial" font-size="24.00" fill="#ffffff">rules, audit events, and</text>
<text text-anchor="start" x="228" y="-268.49" font-family="Arial" font-size="24.00" fill="#ffffff">deletion receipts.</text>
</g>
<!-- 14&#45;&gt;30 -->
<g id="49" class="edge">
<title>14&#45;&gt;30</title>
<path fill="none" stroke="#444444" stroke-dasharray="5,2" d="M557.89,-921.02C545.46,-912.96 533.1,-905.03 521,-897.38 494.39,-880.55 479.83,-885.82 460,-861.38 430.02,-824.41 406.33,-780.72 387.65,-735.79"/>
<polygon fill="#444444" stroke="#444444" points="390.88,-734.43 383.86,-726.49 384.4,-737.07 390.88,-734.43"/>
<polygon fill="white" stroke="transparent" points="460,-762.38 460,-861.38 770,-861.38 770,-762.38 460,-762.38"/>
<text text-anchor="start" x="464" y="-838.67" font-family="Arial" font-size="24.00" fill="#444444">Reads and writes metadata,</text>
<text text-anchor="start" x="497" y="-814.67" font-family="Arial" font-size="24.00" fill="#444444">FTS, tasks, audit, and</text>
<text text-anchor="start" x="559.5" y="-790.67" font-family="Arial" font-size="24.00" fill="#444444">receipts in</text>
<text text-anchor="start" x="581.5" y="-770.67" font-family="Arial" font-size="19.00" fill="#444444">[sqlite3]</text>
</g>
<!-- 31 -->
<g id="31" class="node">
<title>31</title>
<path fill="#2f95c8" stroke="#20688c" d="M984.5,-594.4C984.5,-612.7 895.98,-627.56 787,-627.56 678.02,-627.56 589.5,-612.7 589.5,-594.4 589.5,-594.4 589.5,-295.97 589.5,-295.97 589.5,-277.67 678.02,-262.81 787,-262.81 895.98,-262.81 984.5,-277.67 984.5,-295.97 984.5,-295.97 984.5,-594.4 984.5,-594.4"/>
<path fill="none" stroke="#20688c" d="M984.5,-594.4C984.5,-576.11 895.98,-561.24 787,-561.24 678.02,-561.24 589.5,-576.11 589.5,-594.4"/>
<text text-anchor="start" x="665.5" y="-529.49" font-family="Arial" font-size="34.00" fill="#ffffff">Local Derivative</text>
<text text-anchor="start" x="746" y="-495.49" font-family="Arial" font-size="34.00" fill="#ffffff">Store</text>
<text text-anchor="start" x="647" y="-473.49" font-family="Arial" font-size="19.00" fill="#ffffff">[Container: WSL local filesystem]</text>
<text text-anchor="start" x="633.5" y="-436.49" font-family="Arial" font-size="24.00" fill="#ffffff">Reconstructible compatibility</text>
<text text-anchor="start" x="618.5" y="-412.49" font-family="Arial" font-size="24.00" fill="#ffffff">evidence such as pre&#45;version&#45;9</text>
<text text-anchor="start" x="657" y="-388.49" font-family="Arial" font-size="24.00" fill="#ffffff">clean&#45;text sidecars; new</text>
<text text-anchor="start" x="663.5" y="-364.49" font-family="Arial" font-size="24.00" fill="#ffffff">captures create no text</text>
<text text-anchor="start" x="738.5" y="-340.49" font-family="Arial" font-size="24.00" fill="#ffffff">sidecars.</text>
</g>
<!-- 14&#45;&gt;31 -->
<g id="50" class="edge">
<title>14&#45;&gt;31</title>
<path fill="none" stroke="#444444" stroke-dasharray="5,2" d="M788.47,-910.76C788.2,-826.81 787.88,-724.82 787.61,-637.81"/>
<polygon fill="#444444" stroke="#444444" points="791.11,-637.54 787.57,-627.55 784.11,-637.56 791.11,-637.54"/>
<polygon fill="white" stroke="transparent" points="789,-762.38 789,-861.38 1057,-861.38 1057,-762.38 789,-762.38"/>
<text text-anchor="start" x="793" y="-838.67" font-family="Arial" font-size="24.00" fill="#444444">Reads or deletes legacy</text>
<text text-anchor="start" x="822.5" y="-814.67" font-family="Arial" font-size="24.00" fill="#444444">text sidecars when</text>
<text text-anchor="start" x="878" y="-790.67" font-family="Arial" font-size="24.00" fill="#444444">required</text>
<text text-anchor="start" x="871.5" y="-770.67" font-family="Arial" font-size="19.00" fill="#444444">[Filesystem]</text>
</g>
<!-- 5 -->
<g id="5" class="node">
<title>5</title>
<polygon fill="#438dd5" stroke="#2e6295" points="742,-1735.75 308,-1735.75 308,-1456.75 742,-1456.75 742,-1735.75"/>
<text text-anchor="start" x="345" y="-1687.55" font-family="Arial" font-size="34.00" fill="#ffffff">Chrome MV3 Extension</text>
<text text-anchor="start" x="337" y="-1665.55" font-family="Arial" font-size="19.00" fill="#ffffff">[Container: JavaScript, Chrome Manifest V3]</text>
<text text-anchor="start" x="382" y="-1628.55" font-family="Arial" font-size="24.00" fill="#ffffff">Captures visible page text,</text>
<text text-anchor="start" x="407.5" y="-1604.55" font-family="Arial" font-size="24.00" fill="#ffffff">media references, tab</text>
<text text-anchor="start" x="416" y="-1580.55" font-family="Arial" font-size="24.00" fill="#ffffff">lifecycle events, and</text>
<text text-anchor="start" x="359" y="-1556.55" font-family="Arial" font-size="24.00" fill="#ffffff">browser&#45;side media bytes from</text>
<text text-anchor="start" x="354" y="-1532.55" font-family="Arial" font-size="24.00" fill="#ffffff">Windows Chrome; queues work</text>
<text text-anchor="start" x="366" y="-1508.55" font-family="Arial" font-size="24.00" fill="#ffffff">durably and posts to the WSL</text>
<text text-anchor="start" x="477.5" y="-1484.55" font-family="Arial" font-size="24.00" fill="#ffffff">daemon.</text>
</g>
<!-- 5&#45;&gt;2 -->
<g id="39" class="edge">
<title>5&#45;&gt;2</title>
<path fill="none" stroke="#444444" stroke-dasharray="5,2" d="M742.14,-1561.56C909.52,-1531.39 1122.75,-1482.43 1186,-1420.75 1243.41,-1364.76 1268.02,-1277.58 1278.35,-1205.49"/>
<polygon fill="#444444" stroke="#444444" points="1281.84,-1205.8 1279.72,-1195.42 1274.91,-1204.86 1281.84,-1205.8"/>
<polygon fill="white" stroke="transparent" points="1257,-1309.75 1257,-1408.75 1554,-1408.75 1554,-1309.75 1257,-1309.75"/>
<text text-anchor="start" x="1303" y="-1386.05" font-family="Arial" font-size="24.00" fill="#444444">Uses tab, scripting,</text>
<text text-anchor="start" x="1261.5" y="-1362.05" font-family="Arial" font-size="24.00" fill="#444444">storage, alarms, debugger,</text>
<text text-anchor="start" x="1286" y="-1338.05" font-family="Arial" font-size="24.00" fill="#444444">and runtime APIs from</text>
<text text-anchor="start" x="1301" y="-1318.05" font-family="Arial" font-size="19.00" fill="#444444">[Chrome extension APIs]</text>
</g>
<!-- 5&#45;&gt;13 -->
<g id="41" class="edge">
<title>5&#45;&gt;13</title>
<path fill="none" stroke="#444444" stroke-dasharray="5,2" d="M313.7,-1456.47C304.4,-1445.22 296.04,-1433.31 289,-1420.75 263.99,-1376.15 252.43,-1322.98 248.09,-1272.09"/>
<polygon fill="#444444" stroke="#444444" points="251.57,-1271.65 247.32,-1261.95 244.59,-1272.18 251.57,-1271.65"/>
<polygon fill="white" stroke="transparent" points="289,-1297.75 289,-1420.75 600,-1420.75 600,-1297.75 289,-1297.75"/>
<text text-anchor="start" x="302.5" y="-1398.05" font-family="Arial" font-size="24.00" fill="#444444">Queues identity&#45;decorated</text>
<text text-anchor="start" x="348.5" y="-1374.05" font-family="Arial" font-size="24.00" fill="#444444">captures, lifecycle</text>
<text text-anchor="start" x="311" y="-1350.05" font-family="Arial" font-size="24.00" fill="#444444">events, media tasks, and</text>
<text text-anchor="start" x="403" y="-1326.05" font-family="Arial" font-size="24.00" fill="#444444">blobs in</text>
<text text-anchor="start" x="293.5" y="-1306.05" font-family="Arial" font-size="19.00" fill="#444444">[chrome.storage.local + IndexedDB]</text>
</g>
<!-- 5&#45;&gt;14 -->
<g id="42" class="edge">
<title>5&#45;&gt;14</title>
<path fill="none" stroke="#444444" stroke-dasharray="5,2" d="M596.09,-1456.65C627.53,-1395.37 664.86,-1322.58 698.27,-1257.44"/>
<polygon fill="#444444" stroke="#444444" points="701.51,-1258.8 702.96,-1248.3 695.28,-1255.6 701.51,-1258.8"/>
<polygon fill="white" stroke="transparent" points="673,-1297.75 673,-1420.75 1168,-1420.75 1168,-1297.75 673,-1297.75"/>
<text text-anchor="start" x="840" y="-1398.05" font-family="Arial" font-size="24.00" fill="#444444">Posts /capture,</text>
<text text-anchor="start" x="817" y="-1374.05" font-family="Arial" font-size="24.00" fill="#444444">/visit&#45;events, media</text>
<text text-anchor="start" x="794" y="-1350.05" font-family="Arial" font-size="24.00" fill="#444444">metadata, and raw blob</text>
<text text-anchor="start" x="865" y="-1326.05" font-family="Arial" font-size="24.00" fill="#444444">uploads to</text>
<text text-anchor="start" x="677.5" y="-1306.05" font-family="Arial" font-size="19.00" fill="#444444">[Bearer HTTP/JSON; raw HTTP PUT over 127.0.0.1:8765]</text>
</g>
</g>
</svg>
