<?xml version="1.0" encoding="UTF-8" standalone="no"?>
<!DOCTYPE svg PUBLIC "-//W3C//DTD SVG 1.1//EN"
 "http://www.w3.org/Graphics/SVG/1.1/DTD/svg11.dtd">
<!-- Generated by graphviz version 2.43.0 (0)
 -->
<!-- Title: %3 Pages: 1 -->
<svg width="1402pt" height="1902pt"
 viewBox="0.00 0.00 1402.00 1901.88" xmlns="http://www.w3.org/2000/svg" xmlns:xlink="http://www.w3.org/1999/xlink">
<g id="graph0" class="graph" transform="scale(1 1) rotate(0) translate(4 1897.88)">
<title>%3</title>
<polygon fill="white" stroke="transparent" points="-4,4 -4,-1897.88 1398,-1897.88 1398,4 -4,4"/>
<text text-anchor="start" x="345.5" y="-11.8" font-family="Arial" font-size="34.00">Browser Memory Daemon &#45; CLI &#45; Components</text>
<g id="clust1" class="cluster">
<title>cluster_51</title>
<polygon fill="none" stroke="#444444" points="8,-808.69 8,-1199.69 479,-1199.69 479,-808.69 8,-808.69"/>
<text text-anchor="start" x="224.5" y="-837.49" font-family="Arial" font-size="24.00" fill="#444444">CLI</text>
<text text-anchor="start" x="122.5" y="-817.49" font-family="Arial" font-size="19.00" fill="#444444">[Container: Python argparse]</text>
</g>
<!-- 57 -->
<g id="57" class="node">
<title>57</title>
<path fill="#2f95c8" stroke="#20688c" d="M1307,-1860.9C1307,-1879.2 1224.08,-1894.06 1122,-1894.06 1019.92,-1894.06 937,-1879.2 937,-1860.9 937,-1860.9 937,-1562.47 937,-1562.47 937,-1544.17 1019.92,-1529.31 1122,-1529.31 1224.08,-1529.31 1307,-1544.17 1307,-1562.47 1307,-1562.47 1307,-1860.9 1307,-1860.9"/>
<path fill="none" stroke="#20688c" d="M1307,-1860.9C1307,-1842.61 1224.08,-1827.74 1122,-1827.74 1019.92,-1827.74 937,-1842.61 937,-1860.9"/>
<text text-anchor="start" x="1009" y="-1795.99" font-family="Arial" font-size="34.00" fill="#ffffff">SQLite + FTS5</text>
<text text-anchor="start" x="1049" y="-1761.99" font-family="Arial" font-size="34.00" fill="#ffffff">Database</text>
<text text-anchor="start" x="996" y="-1739.99" font-family="Arial" font-size="19.00" fill="#ffffff">[Container: SQLite with FTS5]</text>
<text text-anchor="start" x="1002.5" y="-1702.99" font-family="Arial" font-size="24.00" fill="#ffffff">Durable text/metadata</text>
<text text-anchor="start" x="971" y="-1678.99" font-family="Arial" font-size="24.00" fill="#ffffff">authority including migration</text>
<text text-anchor="start" x="966" y="-1654.99" font-family="Arial" font-size="24.00" fill="#ffffff">ledger, capture observations,</text>
<text text-anchor="start" x="976" y="-1630.99" font-family="Arial" font-size="24.00" fill="#ffffff">and immutable observation</text>
<text text-anchor="start" x="1024" y="-1606.99" font-family="Arial" font-size="24.00" fill="#ffffff">ingest sequences.</text>
</g>
<!-- 58 -->
<g id="58" class="node">
<title>58</title>
<path fill="#2f95c8" stroke="#20688c" d="M1319.5,-1424.9C1319.5,-1443.2 1230.98,-1458.06 1122,-1458.06 1013.02,-1458.06 924.5,-1443.2 924.5,-1424.9 924.5,-1424.9 924.5,-1126.47 924.5,-1126.47 924.5,-1108.17 1013.02,-1093.31 1122,-1093.31 1230.98,-1093.31 1319.5,-1108.17 1319.5,-1126.47 1319.5,-1126.47 1319.5,-1424.9 1319.5,-1424.9"/>
<path fill="none" stroke="#20688c" d="M1319.5,-1424.9C1319.5,-1406.61 1230.98,-1391.74 1122,-1391.74 1013.02,-1391.74 924.5,-1406.61 924.5,-1424.9"/>
<text text-anchor="start" x="1000.5" y="-1359.99" font-family="Arial" font-size="34.00" fill="#ffffff">Local Derivative</text>
<text text-anchor="start" x="1081" y="-1325.99" font-family="Arial" font-size="34.00" fill="#ffffff">Store</text>
<text text-anchor="start" x="982" y="-1303.99" font-family="Arial" font-size="19.00" fill="#ffffff">[Container: WSL local filesystem]</text>
<text text-anchor="start" x="968.5" y="-1266.99" font-family="Arial" font-size="24.00" fill="#ffffff">Reconstructible compatibility</text>
<text text-anchor="start" x="953.5" y="-1242.99" font-family="Arial" font-size="24.00" fill="#ffffff">evidence such as pre&#45;version&#45;9</text>
<text text-anchor="start" x="992" y="-1218.99" font-family="Arial" font-size="24.00" fill="#ffffff">clean&#45;text sidecars; new</text>
<text text-anchor="start" x="998.5" y="-1194.99" font-family="Arial" font-size="24.00" fill="#ffffff">captures create no text</text>
<text text-anchor="start" x="1073.5" y="-1170.99" font-family="Arial" font-size="24.00" fill="#ffffff">sidecars.</text>
</g>
<!-- 59 -->
<g id="59" class="node">
<title>59</title>
<path fill="#2f95c8" stroke="#20688c" d="M1394,-982.9C1394,-1004.51 1272.09,-1022.06 1122,-1022.06 971.91,-1022.06 850,-1004.51 850,-982.9 850,-982.9 850,-630.47 850,-630.47 850,-608.86 971.91,-591.31 1122,-591.31 1272.09,-591.31 1394,-608.86 1394,-630.47 1394,-630.47 1394,-982.9 1394,-982.9"/>
<path fill="none" stroke="#20688c" d="M1394,-982.9C1394,-961.3 1272.09,-943.74 1122,-943.74 971.91,-943.74 850,-961.3 850,-982.9"/>
<text text-anchor="start" x="966.5" y="-914.99" font-family="Arial" font-size="34.00" fill="#ffffff">Guarded Media Blob</text>
<text text-anchor="start" x="1072.5" y="-880.99" font-family="Arial" font-size="34.00" fill="#ffffff">Cache</text>
<text text-anchor="start" x="879" y="-858.99" font-family="Arial" font-size="19.00" fill="#ffffff">[Container: WSL&#45;visible local or NAS&#45;mounted filesystem]</text>
<text text-anchor="start" x="1012" y="-821.99" font-family="Arial" font-size="24.00" fill="#ffffff">Bounded disposable</text>
<text text-anchor="start" x="956.5" y="-797.99" font-family="Arial" font-size="24.00" fill="#ffffff">image/video/audio bytes under</text>
<text text-anchor="start" x="980.5" y="-773.99" font-family="Arial" font-size="24.00" fill="#ffffff">the configured media root;</text>
<text text-anchor="start" x="1008" y="-749.99" font-family="Arial" font-size="24.00" fill="#ffffff">explicit external roots</text>
<text text-anchor="start" x="1023" y="-725.99" font-family="Arial" font-size="24.00" fill="#ffffff">require mount and</text>
<text text-anchor="start" x="972.5" y="-701.99" font-family="Arial" font-size="24.00" fill="#ffffff">identity&#45;marker proof before</text>
<text text-anchor="start" x="1081" y="-677.99" font-family="Arial" font-size="24.00" fill="#ffffff">access.</text>
</g>
<!-- 60 -->
<g id="60" class="node">
<title>60</title>
<path fill="#2f95c8" stroke="#20688c" d="M1315,-477.4C1315,-500.67 1228.49,-519.56 1122,-519.56 1015.51,-519.56 929,-500.67 929,-477.4 929,-477.4 929,-97.97 929,-97.97 929,-74.71 1015.51,-55.81 1122,-55.81 1228.49,-55.81 1315,-74.71 1315,-97.97 1315,-97.97 1315,-477.4 1315,-477.4"/>
<path fill="none" stroke="#20688c" d="M1315,-477.4C1315,-454.14 1228.49,-435.24 1122,-435.24 1015.51,-435.24 929,-454.14 929,-477.4"/>
<text text-anchor="start" x="958" y="-407.99" font-family="Arial" font-size="34.00" fill="#ffffff">Bounded Local Media</text>
<text text-anchor="start" x="1078.5" y="-373.99" font-family="Arial" font-size="34.00" fill="#ffffff">Spool</text>
<text text-anchor="start" x="982" y="-351.99" font-family="Arial" font-size="19.00" fill="#ffffff">[Container: WSL local filesystem]</text>
<text text-anchor="start" x="970" y="-314.99" font-family="Arial" font-size="24.00" fill="#ffffff">Opt&#45;in durable outage buffer</text>
<text text-anchor="start" x="973.5" y="-290.99" font-family="Arial" font-size="24.00" fill="#ffffff">beneath the local WSL data</text>
<text text-anchor="start" x="1000.5" y="-266.99" font-family="Arial" font-size="24.00" fill="#ffffff">root; admission counts</text>
<text text-anchor="start" x="976.5" y="-242.99" font-family="Arial" font-size="24.00" fill="#ffffff">committed files and distinct</text>
<text text-anchor="start" x="970" y="-218.99" font-family="Arial" font-size="24.00" fill="#ffffff">in&#45;flight SQLite reservations,</text>
<text text-anchor="start" x="997" y="-194.99" font-family="Arial" font-size="24.00" fill="#ffffff">and drain verifies bytes</text>
<text text-anchor="start" x="974.5" y="-170.99" font-family="Arial" font-size="24.00" fill="#ffffff">before tier transition/source</text>
<text text-anchor="start" x="1076" y="-146.99" font-family="Arial" font-size="24.00" fill="#ffffff">cleanup.</text>
</g>
<!-- 55 -->
<g id="55" class="node">
<title>55</title>
<polygon fill="#85bbf0" stroke="#1168bd" points="454,-1174.19 33,-1174.19 33,-909.19 454,-909.19 454,-1174.19"/>
<text text-anchor="start" x="104.5" y="-1125.99" font-family="Arial" font-size="34.00" fill="#000000">Storage Reconcile</text>
<text text-anchor="start" x="176.5" y="-1091.99" font-family="Arial" font-size="34.00" fill="#000000">Operator</text>
<text text-anchor="start" x="62" y="-1069.99" font-family="Arial" font-size="19.00" fill="#000000">[Component: Python + sqlite3 + filesystem]</text>
<text text-anchor="start" x="78" y="-1032.99" font-family="Arial" font-size="24.00" fill="#000000">Previews or executes bounded</text>
<text text-anchor="start" x="79" y="-1008.99" font-family="Arial" font-size="24.00" fill="#000000">contained convergence across</text>
<text text-anchor="start" x="89" y="-984.99" font-family="Arial" font-size="24.00" fill="#000000">durable tombstones, missing</text>
<text text-anchor="start" x="94" y="-960.99" font-family="Arial" font-size="24.00" fill="#000000">references, in&#45;root orphans,</text>
<text text-anchor="start" x="151.5" y="-936.99" font-family="Arial" font-size="24.00" fill="#000000">and stale stages.</text>
</g>
<!-- 55&#45;&gt;57 -->
<g id="199" class="edge">
<title>55&#45;&gt;57</title>
<path fill="none" stroke="#707070" stroke-dasharray="5,2" d="M353.65,-1174.45C394.11,-1219.86 441.91,-1269.33 490,-1309.69 626.65,-1424.37 798.3,-1531.71 928.06,-1606.57"/>
<polygon fill="#707070" stroke="#707070" points="926.52,-1609.73 936.94,-1611.68 930.01,-1603.66 926.52,-1609.73"/>
<polygon fill="white" stroke="transparent" points="490,-1532.69 490,-1607.69 814,-1607.69 814,-1532.69 490,-1532.69"/>
<text text-anchor="start" x="494" y="-1584.99" font-family="Arial" font-size="24.00" fill="#707070">Reads and advances durable</text>
<text text-anchor="start" x="526" y="-1560.99" font-family="Arial" font-size="24.00" fill="#707070">blob lifecycle records in</text>
<text text-anchor="start" x="618.5" y="-1540.99" font-family="Arial" font-size="19.00" fill="#707070">[sqlite3]</text>
</g>
<!-- 55&#45;&gt;58 -->
<g id="200" class="edge">
<title>55&#45;&gt;58</title>
<path fill="none" stroke="#707070" stroke-dasharray="5,2" d="M454.17,-1097.66C593.51,-1134.86 775.66,-1183.49 914.38,-1220.53"/>
<polygon fill="#707070" stroke="#707070" points="913.72,-1223.97 924.29,-1223.17 915.53,-1217.21 913.72,-1223.97"/>
<polygon fill="white" stroke="transparent" points="505.5,-1192.69 505.5,-1291.69 798.5,-1291.69 798.5,-1192.69 505.5,-1192.69"/>
<text text-anchor="start" x="510" y="-1268.99" font-family="Arial" font-size="24.00" fill="#707070">Inventories and converges</text>
<text text-anchor="start" x="561.5" y="-1244.99" font-family="Arial" font-size="24.00" fill="#707070">contained legacy</text>
<text text-anchor="start" x="581.5" y="-1220.99" font-family="Arial" font-size="24.00" fill="#707070">derivatives in</text>
<text text-anchor="start" x="601" y="-1200.99" font-family="Arial" font-size="19.00" fill="#707070">[Filesystem]</text>
</g>
<!-- 55&#45;&gt;59 -->
<g id="201" class="edge">
<title>55&#45;&gt;59</title>
<path fill="none" stroke="#707070" stroke-dasharray="5,2" d="M454.17,-985.47C569.78,-954.48 714.88,-915.57 840.18,-881.98"/>
<polygon fill="#707070" stroke="#707070" points="841.18,-885.34 849.93,-879.37 839.36,-878.57 841.18,-885.34"/>
<polygon fill="white" stroke="transparent" points="505.5,-971.69 505.5,-1046.69 798.5,-1046.69 798.5,-971.69 505.5,-971.69"/>
<text text-anchor="start" x="510" y="-1023.99" font-family="Arial" font-size="24.00" fill="#707070">Inventories and converges</text>
<text text-anchor="start" x="525" y="-999.99" font-family="Arial" font-size="24.00" fill="#707070">contained final media in</text>
<text text-anchor="start" x="601" y="-979.99" font-family="Arial" font-size="19.00" fill="#707070">[Filesystem]</text>
</g>
<!-- 55&#45;&gt;60 -->
<g id="202" class="edge">
<title>55&#45;&gt;60</title>
<path fill="none" stroke="#707070" stroke-dasharray="5,2" d="M371.58,-909.08C408.92,-871.57 450.4,-831.28 490,-795.69 629.2,-670.58 794.19,-538.27 920.55,-440.05"/>
<polygon fill="#707070" stroke="#707070" points="923.06,-442.53 928.81,-433.63 918.77,-437 923.06,-442.53"/>
<polygon fill="white" stroke="transparent" points="505.5,-795.69 505.5,-870.69 798.5,-870.69 798.5,-795.69 505.5,-795.69"/>
<text text-anchor="start" x="510" y="-847.99" font-family="Arial" font-size="24.00" fill="#707070">Inventories and converges</text>
<text text-anchor="start" x="514" y="-823.99" font-family="Arial" font-size="24.00" fill="#707070">contained outage bytes in</text>
<text text-anchor="start" x="601" y="-803.99" font-family="Arial" font-size="19.00" fill="#707070">[Filesystem]</text>
</g>
</g>
</svg>
