<?xml version="1.0" encoding="UTF-8" standalone="no"?>
<!DOCTYPE svg PUBLIC "-//W3C//DTD SVG 1.1//EN"
 "http://www.w3.org/Graphics/SVG/1.1/DTD/svg11.dtd">
<!-- Generated by graphviz version 2.43.0 (0)
 -->
<!-- Title: %3 Pages: 1 -->
<svg width="2066pt" height="767pt"
 viewBox="0.00 0.00 2066.00 767.00" xmlns="http://www.w3.org/2000/svg" xmlns:xlink="http://www.w3.org/1999/xlink">
<g id="graph0" class="graph" transform="scale(1 1) rotate(0) translate(4 763)">
<title>%3</title>
<polygon fill="white" stroke="transparent" points="-4,4 -4,-763 2062,-763 2062,4 -4,4"/>
<text text-anchor="start" x="444" y="-11.8" font-family="Arial" font-size="34.00">Component View: Browser Memory Daemon &#45; WSL Loopback HTTP Daemon</text>
<g id="clust1" class="cluster">
<title>cluster_4</title>
<polygon fill="none" stroke="#444444" points="8,-64 8,-751 2050,-751 2050,-64 8,-64"/>
<text text-anchor="start" x="888" y="-92.8" font-family="Arial" font-size="24.00" fill="#444444">Browser Memory Daemon</text>
<text text-anchor="start" x="952" y="-72.8" font-family="Arial" font-size="19.00" fill="#444444">[Software System]</text>
</g>
<g id="clust2" class="cluster">
<title>cluster_14</title>
<polygon fill="none" stroke="#444444" points="33,-164 33,-722 1261,-722 1261,-164 33,-164"/>
<text text-anchor="start" x="481.5" y="-192.8" font-family="Arial" font-size="24.00" fill="#444444">WSL Loopback HTTP Daemon</text>
<text text-anchor="start" x="445" y="-172.8" font-family="Arial" font-size="19.00" fill="#444444">[Container: Python 3.11, ThreadingHTTPServer]</text>
</g>
<!-- 15 -->
<g id="15" class="node">
<title>15</title>
<polygon fill="#85bbf0" stroke="#1168bd" points="453,-596.5 58,-596.5 58,-365.5 453,-365.5 453,-596.5"/>
<text text-anchor="start" x="87" y="-548.3" font-family="Arial" font-size="34.00" fill="#000000">HTTP Request Router</text>
<text text-anchor="start" x="119" y="-526.3" font-family="Arial" font-size="19.00" fill="#000000">[Component: Python http.server]</text>
<text text-anchor="start" x="90" y="-489.3" font-family="Arial" font-size="24.00" fill="#000000">Routes loopback API requests,</text>
<text text-anchor="start" x="112.5" y="-465.3" font-family="Arial" font-size="24.00" fill="#000000">serves UI assets, enforces</text>
<text text-anchor="start" x="91.5" y="-441.3" font-family="Arial" font-size="24.00" fill="#000000">bearer auth for memory/admin</text>
<text text-anchor="start" x="106" y="-417.3" font-family="Arial" font-size="24.00" fill="#000000">APIs, and applies CORS for</text>
<text text-anchor="start" x="172" y="-393.3" font-family="Arial" font-size="24.00" fill="#000000">allowed origins.</text>
</g>
<!-- 16 -->
<g id="16" class="node">
<title>16</title>
<polygon fill="#85bbf0" stroke="#1168bd" points="1236,-697.5 813,-697.5 813,-264.5 1236,-264.5 1236,-697.5"/>
<text text-anchor="start" x="877" y="-649.3" font-family="Arial" font-size="34.00" fill="#000000">Database Migration</text>
<text text-anchor="start" x="975.5" y="-615.3" font-family="Arial" font-size="34.00" fill="#000000">Kernel</text>
<text text-anchor="start" x="896.5" y="-593.3" font-family="Arial" font-size="19.00" fill="#000000">[Component: Python + sqlite3]</text>
<text text-anchor="start" x="914.5" y="-556.3" font-family="Arial" font-size="24.00" fill="#000000">Serializes migrators;</text>
<text text-anchor="start" x="898.5" y="-532.3" font-family="Arial" font-size="24.00" fill="#000000">validates exact schema</text>
<text text-anchor="start" x="915.5" y="-508.3" font-family="Arial" font-size="24.00" fill="#000000">fingerprints, ordered</text>
<text text-anchor="start" x="842" y="-484.3" font-family="Arial" font-size="24.00" fill="#000000">names/checksums, and PRAGMA</text>
<text text-anchor="start" x="910" y="-460.3" font-family="Arial" font-size="24.00" fill="#000000">user_version; applies</text>
<text text-anchor="start" x="920" y="-436.3" font-family="Arial" font-size="24.00" fill="#000000">transactional steps,</text>
<text text-anchor="start" x="889.5" y="-412.3" font-family="Arial" font-size="24.00" fill="#000000">backup&#45;gates destructive</text>
<text text-anchor="start" x="858.5" y="-388.3" font-family="Arial" font-size="24.00" fill="#000000">changes, and expands capture</text>
<text text-anchor="start" x="866" y="-364.3" font-family="Arial" font-size="24.00" fill="#000000">provenance, relative locators,</text>
<text text-anchor="start" x="875.5" y="-340.3" font-family="Arial" font-size="24.00" fill="#000000">SQLite text authority, media</text>
<text text-anchor="start" x="902" y="-316.3" font-family="Arial" font-size="24.00" fill="#000000">tiers, and blob lifecycle</text>
<text text-anchor="start" x="876.5" y="-292.3" font-family="Arial" font-size="24.00" fill="#000000">records through version 11.</text>
</g>
<!-- 15&#45;&gt;16 -->
<g id="70" class="edge">
<title>15&#45;&gt;16</title>
<path fill="none" stroke="#444444" stroke-dasharray="5,2" d="M453.03,-481C559.77,-481 692.1,-481 802.43,-481"/>
<polygon fill="#444444" stroke="#444444" points="802.69,-484.5 812.69,-481 802.69,-477.5 802.69,-484.5"/>
<polygon fill="white" stroke="transparent" points="489,-481 489,-541 777,-541 777,-481 489,-481"/>
<text text-anchor="start" x="522.5" y="-517.8" font-family="Arial" font-size="24.00" fill="#444444">Requires compatible</text>
<text text-anchor="start" x="493" y="-491.8" font-family="Arial" font-size="24.00" fill="#444444">initialized schema through</text>
</g>
<!-- 30 -->
<g id="30" class="node">
<title>30</title>
<path fill="#2f95c8" stroke="#20688c" d="M2025,-675.22C2025,-703.44 1936.48,-726.38 1827.5,-726.38 1718.52,-726.38 1630,-703.44 1630,-675.22 1630,-675.22 1630,-214.78 1630,-214.78 1630,-186.56 1718.52,-163.62 1827.5,-163.62 1936.48,-163.62 2025,-186.56 2025,-214.78 2025,-214.78 2025,-675.22 2025,-675.22"/>
<path fill="none" stroke="#20688c" d="M2025,-675.22C2025,-646.99 1936.48,-624.06 1827.5,-624.06 1718.52,-624.06 1630,-646.99 1630,-675.22"/>
<text text-anchor="start" x="1714.5" y="-601.3" font-family="Arial" font-size="34.00" fill="#ffffff">SQLite + FTS5</text>
<text text-anchor="start" x="1754.5" y="-567.3" font-family="Arial" font-size="34.00" fill="#ffffff">Database</text>
<text text-anchor="start" x="1701.5" y="-545.3" font-family="Arial" font-size="19.00" fill="#ffffff">[Container: SQLite with FTS5]</text>
<text text-anchor="start" x="1659.5" y="-508.3" font-family="Arial" font-size="24.00" fill="#ffffff">Durable complete cleaned&#45;text,</text>
<text text-anchor="start" x="1708.5" y="-484.3" font-family="Arial" font-size="24.00" fill="#ffffff">relational, and full&#45;text</text>
<text text-anchor="start" x="1710" y="-460.3" font-family="Arial" font-size="24.00" fill="#ffffff">authority for migration</text>
<text text-anchor="start" x="1675.5" y="-436.3" font-family="Arial" font-size="24.00" fill="#ffffff">ledger, sources, documents,</text>
<text text-anchor="start" x="1678" y="-412.3" font-family="Arial" font-size="24.00" fill="#ffffff">visits, capture observations,</text>
<text text-anchor="start" x="1696.5" y="-388.3" font-family="Arial" font-size="24.00" fill="#ffffff">URL claims, visit events,</text>
<text text-anchor="start" x="1659" y="-364.3" font-family="Arial" font-size="24.00" fill="#ffffff">snapshots, chunks, chunks_fts,</text>
<text text-anchor="start" x="1666.5" y="-340.3" font-family="Arial" font-size="24.00" fill="#ffffff">media provenance/tasks, blob</text>
<text text-anchor="start" x="1703" y="-316.3" font-family="Arial" font-size="24.00" fill="#ffffff">lifecycle records, policy</text>
<text text-anchor="start" x="1702" y="-292.3" font-family="Arial" font-size="24.00" fill="#ffffff">rules, audit events, and</text>
<text text-anchor="start" x="1735.5" y="-268.3" font-family="Arial" font-size="24.00" fill="#ffffff">deletion receipts.</text>
</g>
<!-- 16&#45;&gt;30 -->
<g id="99" class="edge">
<title>16&#45;&gt;30</title>
<path fill="none" stroke="#444444" stroke-dasharray="5,2" d="M1236.22,-471.53C1354.67,-466.21 1501.93,-459.59 1619.73,-454.29"/>
<polygon fill="#444444" stroke="#444444" points="1620.12,-457.78 1629.96,-453.83 1619.81,-450.79 1620.12,-457.78"/>
<polygon fill="white" stroke="transparent" points="1272,-469 1272,-568 1594,-568 1594,-469 1272,-469"/>
<text text-anchor="start" x="1305" y="-545.3" font-family="Arial" font-size="24.00" fill="#444444">Validates and advances</text>
<text text-anchor="start" x="1296" y="-521.3" font-family="Arial" font-size="24.00" fill="#444444">schema ledger/fingerprint</text>
<text text-anchor="start" x="1423.5" y="-497.3" font-family="Arial" font-size="24.00" fill="#444444">in</text>
<text text-anchor="start" x="1276" y="-477.3" font-family="Arial" font-size="19.00" fill="#444444">[sqlite3 online backup + transactions]</text>
</g>
</g>
</svg>
