<?xml version="1.0" encoding="UTF-8" standalone="no"?>
<!DOCTYPE svg PUBLIC "-//W3C//DTD SVG 1.1//EN"
 "http://www.w3.org/Graphics/SVG/1.1/DTD/svg11.dtd">
<!-- Generated by graphviz version 2.43.0 (0)
 -->
<!-- Title: %3 Pages: 1 -->
<svg width="2046pt" height="701pt"
 viewBox="0.00 0.00 2046.00 701.00" xmlns="http://www.w3.org/2000/svg" xmlns:xlink="http://www.w3.org/1999/xlink">
<g id="graph0" class="graph" transform="scale(1 1) rotate(0) translate(4 697)">
<title>%3</title>
<polygon fill="white" stroke="transparent" points="-4,4 -4,-697 2042,-697 2042,4 -4,4"/>
<text text-anchor="start" x="434" y="-11.8" font-family="Arial" font-size="34.00">Component View: Browser Memory Daemon &#45; WSL Loopback HTTP Daemon</text>
<g id="clust1" class="cluster">
<title>cluster_4</title>
<polygon fill="none" stroke="#444444" points="8,-64 8,-685 2030,-685 2030,-64 8,-64"/>
<text text-anchor="start" x="878" y="-92.8" font-family="Arial" font-size="24.00" fill="#444444">Browser Memory Daemon</text>
<text text-anchor="start" x="942" y="-72.8" font-family="Arial" font-size="19.00" fill="#444444">[Software System]</text>
</g>
<g id="clust2" class="cluster">
<title>cluster_14</title>
<polygon fill="none" stroke="#444444" points="33,-164 33,-650 1249,-650 1249,-164 33,-164"/>
<text text-anchor="start" x="475.5" y="-192.8" font-family="Arial" font-size="24.00" fill="#444444">WSL Loopback HTTP Daemon</text>
<text text-anchor="start" x="439" y="-172.8" font-family="Arial" font-size="19.00" fill="#444444">[Container: Python 3.11, ThreadingHTTPServer]</text>
</g>
<!-- 15 -->
<g id="15" class="node">
<title>15</title>
<polygon fill="#85bbf0" stroke="#1168bd" points="453,-560.5 58,-560.5 58,-329.5 453,-329.5 453,-560.5"/>
<text text-anchor="start" x="87" y="-512.3" font-family="Arial" font-size="34.00" fill="#000000">HTTP Request Router</text>
<text text-anchor="start" x="119" y="-490.3" font-family="Arial" font-size="19.00" fill="#000000">[Component: Python http.server]</text>
<text text-anchor="start" x="90" y="-453.3" font-family="Arial" font-size="24.00" fill="#000000">Routes loopback API requests,</text>
<text text-anchor="start" x="112.5" y="-429.3" font-family="Arial" font-size="24.00" fill="#000000">serves UI assets, enforces</text>
<text text-anchor="start" x="91.5" y="-405.3" font-family="Arial" font-size="24.00" fill="#000000">bearer auth for memory/admin</text>
<text text-anchor="start" x="106" y="-381.3" font-family="Arial" font-size="24.00" fill="#000000">APIs, and applies CORS for</text>
<text text-anchor="start" x="172" y="-357.3" font-family="Arial" font-size="24.00" fill="#000000">allowed origins.</text>
</g>
<!-- 16 -->
<g id="16" class="node">
<title>16</title>
<polygon fill="#85bbf0" stroke="#1168bd" points="1224,-625.5 805,-625.5 805,-264.5 1224,-264.5 1224,-625.5"/>
<text text-anchor="start" x="867" y="-577.3" font-family="Arial" font-size="34.00" fill="#000000">Database Migration</text>
<text text-anchor="start" x="965.5" y="-543.3" font-family="Arial" font-size="34.00" fill="#000000">Kernel</text>
<text text-anchor="start" x="886.5" y="-521.3" font-family="Arial" font-size="19.00" fill="#000000">[Component: Python + sqlite3]</text>
<text text-anchor="start" x="887.5" y="-484.3" font-family="Arial" font-size="24.00" fill="#000000">Validates exact schema</text>
<text text-anchor="start" x="905.5" y="-460.3" font-family="Arial" font-size="24.00" fill="#000000">fingerprints, ordered</text>
<text text-anchor="start" x="834" y="-436.3" font-family="Arial" font-size="24.00" fill="#000000">migration names/checksums, and</text>
<text text-anchor="start" x="845" y="-412.3" font-family="Arial" font-size="24.00" fill="#000000">PRAGMA user_version; applies</text>
<text text-anchor="start" x="910" y="-388.3" font-family="Arial" font-size="24.00" fill="#000000">transactional steps,</text>
<text text-anchor="start" x="879.5" y="-364.3" font-family="Arial" font-size="24.00" fill="#000000">backup&#45;gates destructive</text>
<text text-anchor="start" x="848.5" y="-340.3" font-family="Arial" font-size="24.00" fill="#000000">changes, and expands capture</text>
<text text-anchor="start" x="844" y="-316.3" font-family="Arial" font-size="24.00" fill="#000000">observations and URL claims at</text>
<text text-anchor="start" x="961.5" y="-292.3" font-family="Arial" font-size="24.00" fill="#000000">version 4.</text>
</g>
<!-- 15&#45;&gt;16 -->
<g id="63" class="edge">
<title>15&#45;&gt;16</title>
<path fill="none" stroke="#444444" stroke-dasharray="5,2" d="M453.42,-445C558.13,-445 687.15,-445 794.96,-445"/>
<polygon fill="#444444" stroke="#444444" points="794.99,-448.5 804.99,-445 794.99,-441.5 794.99,-448.5"/>
<text text-anchor="start" x="518.5" y="-477.8" font-family="Arial" font-size="24.00" fill="#444444">Requires compatible</text>
<text text-anchor="start" x="489" y="-451.8" font-family="Arial" font-size="24.00" fill="#444444">initialized schema through</text>
</g>
<!-- 28 -->
<g id="28" class="node">
<title>28</title>
<path fill="#2f95c8" stroke="#20688c" d="M2005,-615.22C2005,-640.13 1916.48,-660.38 1807.5,-660.38 1698.52,-660.38 1610,-640.13 1610,-615.22 1610,-615.22 1610,-208.78 1610,-208.78 1610,-183.87 1698.52,-163.62 1807.5,-163.62 1916.48,-163.62 2005,-183.87 2005,-208.78 2005,-208.78 2005,-615.22 2005,-615.22"/>
<path fill="none" stroke="#20688c" d="M2005,-615.22C2005,-590.3 1916.48,-570.06 1807.5,-570.06 1698.52,-570.06 1610,-590.3 1610,-615.22"/>
<text text-anchor="start" x="1694.5" y="-544.3" font-family="Arial" font-size="34.00" fill="#ffffff">SQLite + FTS5</text>
<text text-anchor="start" x="1734.5" y="-510.3" font-family="Arial" font-size="34.00" fill="#ffffff">Database</text>
<text text-anchor="start" x="1681.5" y="-488.3" font-family="Arial" font-size="19.00" fill="#ffffff">[Container: SQLite with FTS5]</text>
<text text-anchor="start" x="1688.5" y="-451.3" font-family="Arial" font-size="24.00" fill="#ffffff">Durable relational and</text>
<text text-anchor="start" x="1667" y="-427.3" font-family="Arial" font-size="24.00" fill="#ffffff">full&#45;text store for migration</text>
<text text-anchor="start" x="1655.5" y="-403.3" font-family="Arial" font-size="24.00" fill="#ffffff">ledger, sources, documents,</text>
<text text-anchor="start" x="1658" y="-379.3" font-family="Arial" font-size="24.00" fill="#ffffff">visits, capture observations,</text>
<text text-anchor="start" x="1676.5" y="-355.3" font-family="Arial" font-size="24.00" fill="#ffffff">URL claims, visit events,</text>
<text text-anchor="start" x="1639" y="-331.3" font-family="Arial" font-size="24.00" fill="#ffffff">snapshots, chunks, chunks_fts,</text>
<text text-anchor="start" x="1659" y="-307.3" font-family="Arial" font-size="24.00" fill="#ffffff">media artifacts, media fetch</text>
<text text-anchor="start" x="1679" y="-283.3" font-family="Arial" font-size="24.00" fill="#ffffff">tasks, policy rules, audit</text>
<text text-anchor="start" x="1649.5" y="-259.3" font-family="Arial" font-size="24.00" fill="#ffffff">events, and deletion receipts.</text>
</g>
<!-- 16&#45;&gt;28 -->
<g id="87" class="edge">
<title>16&#45;&gt;28</title>
<path fill="none" stroke="#444444" stroke-dasharray="5,2" d="M1224.1,-436.3C1340.18,-431.45 1484.16,-425.45 1599.92,-420.62"/>
<polygon fill="#444444" stroke="#444444" points="1600.12,-424.11 1609.96,-420.2 1599.83,-417.12 1600.12,-424.11"/>
<text text-anchor="start" x="1289" y="-506.8" font-family="Arial" font-size="24.00" fill="#444444">Validates and advances</text>
<text text-anchor="start" x="1280" y="-482.8" font-family="Arial" font-size="24.00" fill="#444444">schema ledger/fingerprint</text>
<text text-anchor="start" x="1407.5" y="-458.8" font-family="Arial" font-size="24.00" fill="#444444">in</text>
<text text-anchor="start" x="1260" y="-438.8" font-family="Arial" font-size="19.00" fill="#444444">[sqlite3 online backup + transactions]</text>
</g>
</g>
</svg>
