<?xml version="1.0" encoding="UTF-8" standalone="no"?>
<!DOCTYPE svg PUBLIC "-//W3C//DTD SVG 1.1//EN"
 "http://www.w3.org/Graphics/SVG/1.1/DTD/svg11.dtd">
<!-- Generated by graphviz version 2.43.0 (0)
 -->
<!-- Title: %3 Pages: 1 -->
<svg width="1239pt" height="1539pt"
 viewBox="0.00 0.00 1239.00 1538.50" xmlns="http://www.w3.org/2000/svg" xmlns:xlink="http://www.w3.org/1999/xlink">
<g id="graph0" class="graph" transform="scale(1 1) rotate(0) translate(4 1534.5)">
<title>%3</title>
<polygon fill="white" stroke="transparent" points="-4,4 -4,-1534.5 1235,-1534.5 1235,4 -4,4"/>
<text text-anchor="start" x="300" y="-11.8" font-family="Arial" font-size="34.00">Dynamic View: Browser Memory Daemon</text>
<g id="clust1" class="cluster">
<title>cluster_4</title>
<polygon fill="none" stroke="#444444" points="8,-346.5 8,-1522.5 1223,-1522.5 1223,-346.5 8,-346.5"/>
<text text-anchor="start" x="474.5" y="-375.3" font-family="Arial" font-size="24.00" fill="#444444">Browser Memory Daemon</text>
<text text-anchor="start" x="538.5" y="-355.3" font-family="Arial" font-size="19.00" fill="#444444">[Software System]</text>
</g>
<!-- 25 -->
<g id="25" class="node">
<title>25</title>
<polygon fill="#438dd5" stroke="#2e6295" points="387,-798 33,-798 33,-495 387,-495 387,-798"/>
<text text-anchor="start" x="63" y="-749.8" font-family="Arial" font-size="34.00" fill="#ffffff">WSL Media Worker</text>
<text text-anchor="start" x="70" y="-727.8" font-family="Arial" font-size="19.00" fill="#ffffff">[Container: Python 3.11 CLI loop]</text>
<text text-anchor="start" x="62.5" y="-690.8" font-family="Arial" font-size="24.00" fill="#ffffff">Long&#45;running systemd user</text>
<text text-anchor="start" x="111.5" y="-666.8" font-family="Arial" font-size="24.00" fill="#ffffff">worker that leases</text>
<text text-anchor="start" x="64" y="-642.8" font-family="Arial" font-size="24.00" fill="#ffffff">daemon&#45;public media fetch</text>
<text text-anchor="start" x="101" y="-618.8" font-family="Arial" font-size="24.00" fill="#ffffff">tasks, fetches public</text>
<text text-anchor="start" x="62" y="-594.8" font-family="Arial" font-size="24.00" fill="#ffffff">media/HLS without Chrome</text>
<text text-anchor="start" x="67" y="-570.8" font-family="Arial" font-size="24.00" fill="#ffffff">cookies, classifies terminal</text>
<text text-anchor="start" x="64" y="-546.8" font-family="Arial" font-size="24.00" fill="#ffffff">states, and updates artifact</text>
<text text-anchor="start" x="181" y="-522.8" font-family="Arial" font-size="24.00" fill="#ffffff">rows.</text>
</g>
<!-- 28 -->
<g id="28" class="node">
<title>28</title>
<path fill="#2f95c8" stroke="#20688c" d="M1176.5,-897.72C1176.5,-922.63 1087.98,-942.88 979,-942.88 870.02,-942.88 781.5,-922.63 781.5,-897.72 781.5,-897.72 781.5,-491.28 781.5,-491.28 781.5,-466.37 870.02,-446.12 979,-446.12 1087.98,-446.12 1176.5,-466.37 1176.5,-491.28 1176.5,-491.28 1176.5,-897.72 1176.5,-897.72"/>
<path fill="none" stroke="#20688c" d="M1176.5,-897.72C1176.5,-872.8 1087.98,-852.56 979,-852.56 870.02,-852.56 781.5,-872.8 781.5,-897.72"/>
<text text-anchor="start" x="866" y="-826.8" font-family="Arial" font-size="34.00" fill="#ffffff">SQLite + FTS5</text>
<text text-anchor="start" x="906" y="-792.8" font-family="Arial" font-size="34.00" fill="#ffffff">Database</text>
<text text-anchor="start" x="853" y="-770.8" font-family="Arial" font-size="19.00" fill="#ffffff">[Container: SQLite with FTS5]</text>
<text text-anchor="start" x="860" y="-733.8" font-family="Arial" font-size="24.00" fill="#ffffff">Durable relational and</text>
<text text-anchor="start" x="838.5" y="-709.8" font-family="Arial" font-size="24.00" fill="#ffffff">full&#45;text store for migration</text>
<text text-anchor="start" x="827" y="-685.8" font-family="Arial" font-size="24.00" fill="#ffffff">ledger, sources, documents,</text>
<text text-anchor="start" x="829.5" y="-661.8" font-family="Arial" font-size="24.00" fill="#ffffff">visits, capture observations,</text>
<text text-anchor="start" x="848" y="-637.8" font-family="Arial" font-size="24.00" fill="#ffffff">URL claims, visit events,</text>
<text text-anchor="start" x="810.5" y="-613.8" font-family="Arial" font-size="24.00" fill="#ffffff">snapshots, chunks, chunks_fts,</text>
<text text-anchor="start" x="830.5" y="-589.8" font-family="Arial" font-size="24.00" fill="#ffffff">media artifacts, media fetch</text>
<text text-anchor="start" x="850.5" y="-565.8" font-family="Arial" font-size="24.00" fill="#ffffff">tasks, policy rules, audit</text>
<text text-anchor="start" x="821" y="-541.8" font-family="Arial" font-size="24.00" fill="#ffffff">events, and deletion receipts.</text>
</g>
<!-- 25&#45;&gt;28 -->
<g id="47" class="edge">
<title>25&#45;&gt;28</title>
<path fill="none" stroke="#444444" stroke-dasharray="5,2" d="M387.14,-581C399.17,-578.03 411.19,-575.48 423,-573.5 554.94,-551.42 593.51,-544.01 724,-573.5 739.78,-577.07 755.73,-581.74 771.54,-587.16"/>
<polygon fill="#444444" stroke="#444444" points="770.77,-590.6 781.37,-590.64 773.11,-584 770.77,-590.6"/>
<text text-anchor="start" x="499.5" y="-646.3" font-family="Arial" font-size="24.00" fill="#444444">1. Claims due</text>
<text text-anchor="start" x="493.5" y="-622.3" font-family="Arial" font-size="24.00" fill="#444444">daemon&#45;public</text>
<text text-anchor="start" x="472.5" y="-598.3" font-family="Arial" font-size="24.00" fill="#444444">media_fetch_tasks</text>
<text text-anchor="start" x="540" y="-578.3" font-family="Arial" font-size="19.00" fill="#444444">[sqlite3]</text>
</g>
<!-- 25&#45;&gt;28 -->
<g id="47" class="edge">
<title>25&#45;&gt;28</title>
<path fill="none" stroke="#444444" stroke-dasharray="5,2" d="M387.22,-674.75C399.31,-676.18 411.32,-677.45 423,-678.5 537.98,-688.8 666.85,-692.96 771.44,-694.48"/>
<polygon fill="#444444" stroke="#444444" points="771.44,-697.98 781.49,-694.62 771.54,-690.98 771.44,-697.98"/>
<text text-anchor="start" x="461.5" y="-789.3" font-family="Arial" font-size="24.00" fill="#444444">4. Marks task/artifact</text>
<text text-anchor="start" x="440.5" y="-765.3" font-family="Arial" font-size="24.00" fill="#444444">stored, retrying, skipped,</text>
<text text-anchor="start" x="459" y="-741.3" font-family="Arial" font-size="24.00" fill="#444444">expired, or failed with</text>
<text text-anchor="start" x="536" y="-717.3" font-family="Arial" font-size="24.00" fill="#444444">reason</text>
<text text-anchor="start" x="540" y="-697.3" font-family="Arial" font-size="19.00" fill="#444444">[sqlite3]</text>
</g>
<!-- 30 -->
<g id="30" class="node">
<title>30</title>
<path fill="#2f95c8" stroke="#20688c" d="M1198,-1453.78C1198,-1477.97 1099.84,-1497.63 979,-1497.63 858.16,-1497.63 760,-1477.97 760,-1453.78 760,-1453.78 760,-1059.22 760,-1059.22 760,-1035.03 858.16,-1015.37 979,-1015.37 1099.84,-1015.37 1198,-1035.03 1198,-1059.22 1198,-1059.22 1198,-1453.78 1198,-1453.78"/>
<path fill="none" stroke="#20688c" d="M1198,-1453.78C1198,-1429.59 1099.84,-1409.94 979,-1409.94 858.16,-1409.94 760,-1429.59 760,-1453.78"/>
<text text-anchor="start" x="840" y="-1383.8" font-family="Arial" font-size="34.00" fill="#ffffff">Media Blob Cache</text>
<text text-anchor="start" x="789" y="-1361.8" font-family="Arial" font-size="19.00" fill="#ffffff">[Container: WSL or NAS&#45;mounted filesystem]</text>
<text text-anchor="start" x="845.5" y="-1324.8" font-family="Arial" font-size="24.00" fill="#ffffff">Bounded and disposable</text>
<text text-anchor="start" x="834.5" y="-1300.8" font-family="Arial" font-size="24.00" fill="#ffffff">filesystem cache for stored</text>
<text text-anchor="start" x="813.5" y="-1276.8" font-family="Arial" font-size="24.00" fill="#ffffff">image/video/audio blobs under</text>
<text text-anchor="start" x="835" y="-1252.8" font-family="Arial" font-size="24.00" fill="#ffffff">the configured WSL&#45;visible</text>
<text text-anchor="start" x="903.5" y="-1228.8" font-family="Arial" font-size="24.00" fill="#ffffff">blob root, with</text>
<text text-anchor="start" x="811.5" y="-1204.8" font-family="Arial" font-size="24.00" fill="#ffffff">purge/rehydrate semantics that</text>
<text text-anchor="start" x="822.5" y="-1180.8" font-family="Arial" font-size="24.00" fill="#ffffff">preserve media refs, hashes,</text>
<text text-anchor="start" x="806" y="-1156.8" font-family="Arial" font-size="24.00" fill="#ffffff">status reasons, and provenance</text>
<text text-anchor="start" x="842.5" y="-1132.8" font-family="Arial" font-size="24.00" fill="#ffffff">when bytes are absent or</text>
<text text-anchor="start" x="937.5" y="-1108.8" font-family="Arial" font-size="24.00" fill="#ffffff">purged.</text>
</g>
<!-- 25&#45;&gt;30 -->
<g id="49" class="edge">
<title>25&#45;&gt;30</title>
<path fill="none" stroke="#444444" stroke-dasharray="5,2" d="M387.25,-796.24C399.3,-806.2 411.3,-816.03 423,-825.5 529.96,-912.12 650.43,-1006.11 751.74,-1084.14"/>
<polygon fill="#444444" stroke="#444444" points="749.87,-1087.11 759.93,-1090.44 754.14,-1081.57 749.87,-1087.11"/>
<text text-anchor="start" x="468" y="-1134.3" font-family="Arial" font-size="24.00" fill="#444444">3. Writes fetched or</text>
<text text-anchor="start" x="423" y="-1110.3" font-family="Arial" font-size="24.00" fill="#444444">assembled blob when gates</text>
<text text-anchor="start" x="546" y="-1086.3" font-family="Arial" font-size="24.00" fill="#444444">allow</text>
<text text-anchor="start" x="522" y="-1066.3" font-family="Arial" font-size="19.00" fill="#444444">[Filesystem]</text>
</g>
<!-- 3 -->
<g id="3" class="node">
<title>3</title>
<polygon fill="#999999" stroke="#6b6b6b" points="1180.5,-321 777.5,-321 777.5,-56 1180.5,-56 1180.5,-321"/>
<text text-anchor="start" x="817.5" y="-272.8" font-family="Arial" font-size="34.00" fill="#ffffff">Web Sites and Media</text>
<text text-anchor="start" x="925" y="-238.8" font-family="Arial" font-size="34.00" fill="#ffffff">Origins</text>
<text text-anchor="start" x="902" y="-216.8" font-family="Arial" font-size="19.00" fill="#ffffff">[Software System]</text>
<text text-anchor="start" x="869" y="-179.8" font-family="Arial" font-size="24.00" fill="#ffffff">External web pages,</text>
<text text-anchor="start" x="816.5" y="-155.8" font-family="Arial" font-size="24.00" fill="#ffffff">image/video URLs, and media</text>
<text text-anchor="start" x="806.5" y="-131.8" font-family="Arial" font-size="24.00" fill="#ffffff">CDNs that Chrome loads or that</text>
<text text-anchor="start" x="816.5" y="-107.8" font-family="Arial" font-size="24.00" fill="#ffffff">sidecars fetch as page&#45;related</text>
<text text-anchor="start" x="942.5" y="-83.8" font-family="Arial" font-size="24.00" fill="#ffffff">media.</text>
</g>
<!-- 25&#45;&gt;3 -->
<g id="48" class="edge">
<title>25&#45;&gt;3</title>
<path fill="none" stroke="#444444" stroke-dasharray="5,2" d="M358.06,-494.93C378.98,-476.84 400.92,-459.5 423,-444.5 529.72,-372.01 660.25,-310.63 767.91,-266.16"/>
<polygon fill="#444444" stroke="#444444" points="769.35,-269.35 777.26,-262.31 766.68,-262.88 769.35,-269.35"/>
<text text-anchor="start" x="431" y="-517.3" font-family="Arial" font-size="24.00" fill="#444444">2. Fetches public media or</text>
<text text-anchor="start" x="423.5" y="-493.3" font-family="Arial" font-size="24.00" fill="#444444">HLS assets without Chrome</text>
<text text-anchor="start" x="532.5" y="-469.3" font-family="Arial" font-size="24.00" fill="#444444">cookies</text>
<text text-anchor="start" x="481.5" y="-449.3" font-family="Arial" font-size="19.00" fill="#444444">[HTTP(S), data URLs]</text>
</g>
</g>
</svg>
