<?xml version="1.0" encoding="UTF-8" standalone="no"?>
<!DOCTYPE svg PUBLIC "-//W3C//DTD SVG 1.1//EN"
 "http://www.w3.org/Graphics/SVG/1.1/DTD/svg11.dtd">
<!-- Generated by graphviz version 2.43.0 (0)
 -->
<!-- Title: %3 Pages: 1 -->
<svg width="2118pt" height="2209pt"
 viewBox="0.00 0.00 2118.00 2209.00" xmlns="http://www.w3.org/2000/svg" xmlns:xlink="http://www.w3.org/1999/xlink">
<g id="graph0" class="graph" transform="scale(1 1) rotate(0) translate(4 2205)">
<title>%3</title>
<polygon fill="white" stroke="transparent" points="-4,4 -4,-2205 2114,-2205 2114,4 -4,4"/>
<text text-anchor="start" x="470" y="-11.8" font-family="Arial" font-size="34.00">Component View: Browser Memory Daemon &#45; WSL Loopback HTTP Daemon</text>
<g id="clust1" class="cluster">
<title>cluster_4</title>
<polygon fill="none" stroke="#444444" points="8,-64 8,-2193 2102,-2193 2102,-64 8,-64"/>
<text text-anchor="start" x="914" y="-92.8" font-family="Arial" font-size="24.00" fill="#444444">Browser Memory Daemon</text>
<text text-anchor="start" x="978" y="-72.8" font-family="Arial" font-size="19.00" fill="#444444">[Software System]</text>
</g>
<g id="clust2" class="cluster">
<title>cluster_14</title>
<polygon fill="none" stroke="#444444" points="33,-869 33,-1250 1196,-1250 1196,-869 33,-869"/>
<text text-anchor="start" x="449" y="-897.8" font-family="Arial" font-size="24.00" fill="#444444">WSL Loopback HTTP Daemon</text>
<text text-anchor="start" x="412.5" y="-877.8" font-family="Arial" font-size="19.00" fill="#444444">[Container: Python 3.11, ThreadingHTTPServer]</text>
</g>
<!-- 15 -->
<g id="15" class="node">
<title>15</title>
<polygon fill="#85bbf0" stroke="#1168bd" points="453,-1212.5 58,-1212.5 58,-981.5 453,-981.5 453,-1212.5"/>
<text text-anchor="start" x="87" y="-1164.3" font-family="Arial" font-size="34.00" fill="#000000">HTTP Request Router</text>
<text text-anchor="start" x="119" y="-1142.3" font-family="Arial" font-size="19.00" fill="#000000">[Component: Python http.server]</text>
<text text-anchor="start" x="90" y="-1105.3" font-family="Arial" font-size="24.00" fill="#000000">Routes loopback API requests,</text>
<text text-anchor="start" x="112.5" y="-1081.3" font-family="Arial" font-size="24.00" fill="#000000">serves UI assets, enforces</text>
<text text-anchor="start" x="91.5" y="-1057.3" font-family="Arial" font-size="24.00" fill="#000000">bearer auth for memory/admin</text>
<text text-anchor="start" x="106" y="-1033.3" font-family="Arial" font-size="24.00" fill="#000000">APIs, and applies CORS for</text>
<text text-anchor="start" x="172" y="-1009.3" font-family="Arial" font-size="24.00" fill="#000000">allowed origins.</text>
</g>
<!-- 25 -->
<g id="25" class="node">
<title>25</title>
<polygon fill="#85bbf0" stroke="#1168bd" points="1171,-1224.5 789,-1224.5 789,-969.5 1171,-969.5 1171,-1224.5"/>
<text text-anchor="start" x="818" y="-1176.3" font-family="Arial" font-size="34.00" fill="#000000">Ops Doctor and Audit</text>
<text text-anchor="start" x="852" y="-1154.3" font-family="Arial" font-size="19.00" fill="#000000">[Component: Python + sqlite3]</text>
<text text-anchor="start" x="829.5" y="-1117.3" font-family="Arial" font-size="24.00" fill="#000000">Reports health, DB integrity,</text>
<text text-anchor="start" x="844" y="-1093.3" font-family="Arial" font-size="24.00" fill="#000000">FTS consistency, runtime</text>
<text text-anchor="start" x="824" y="-1069.3" font-family="Arial" font-size="24.00" fill="#000000">paths, storage counts, media</text>
<text text-anchor="start" x="848.5" y="-1045.3" font-family="Arial" font-size="24.00" fill="#000000">queue status, and writes</text>
<text text-anchor="start" x="820.5" y="-1021.3" font-family="Arial" font-size="24.00" fill="#000000">metadata&#45;only audit events to</text>
<text text-anchor="start" x="939.5" y="-997.3" font-family="Arial" font-size="24.00" fill="#000000">SQLite.</text>
</g>
<!-- 15&#45;&gt;25 -->
<g id="75" class="edge">
<title>15&#45;&gt;25</title>
<path fill="none" stroke="#444444" stroke-dasharray="5,2" d="M453.45,-1097C554.44,-1097 677.2,-1097 778.67,-1097"/>
<polygon fill="#444444" stroke="#444444" points="778.74,-1100.5 788.74,-1097 778.74,-1093.5 778.74,-1100.5"/>
<polygon fill="white" stroke="transparent" points="489,-1097 489,-1157 753,-1157 753,-1097 489,-1097"/>
<text text-anchor="start" x="493" y="-1133.8" font-family="Arial" font-size="24.00" fill="#444444">Routes health and audit</text>
<text text-anchor="start" x="581.5" y="-1107.8" font-family="Arial" font-size="24.00" fill="#444444">work to</text>
</g>
<!-- 29 -->
<g id="29" class="node">
<title>29</title>
<path fill="#2f95c8" stroke="#20688c" d="M2003,-645.72C2003,-672.29 1914.25,-693.88 1805,-693.88 1695.75,-693.88 1607,-672.29 1607,-645.72 1607,-645.72 1607,-212.28 1607,-212.28 1607,-185.71 1695.75,-164.12 1805,-164.12 1914.25,-164.12 2003,-185.71 2003,-212.28 2003,-212.28 2003,-645.72 2003,-645.72"/>
<path fill="none" stroke="#20688c" d="M2003,-645.72C2003,-619.14 1914.25,-597.56 1805,-597.56 1695.75,-597.56 1607,-619.14 1607,-645.72"/>
<text text-anchor="start" x="1692" y="-573.3" font-family="Arial" font-size="34.00" fill="#ffffff">SQLite + FTS5</text>
<text text-anchor="start" x="1732" y="-539.3" font-family="Arial" font-size="34.00" fill="#ffffff">Database</text>
<text text-anchor="start" x="1679" y="-517.3" font-family="Arial" font-size="19.00" fill="#ffffff">[Container: SQLite with FTS5]</text>
<text text-anchor="start" x="1637" y="-480.3" font-family="Arial" font-size="24.00" fill="#ffffff">Durable complete cleaned&#45;text,</text>
<text text-anchor="start" x="1686" y="-456.3" font-family="Arial" font-size="24.00" fill="#ffffff">relational, and full&#45;text</text>
<text text-anchor="start" x="1687.5" y="-432.3" font-family="Arial" font-size="24.00" fill="#ffffff">authority for migration</text>
<text text-anchor="start" x="1653" y="-408.3" font-family="Arial" font-size="24.00" fill="#ffffff">ledger, sources, documents,</text>
<text text-anchor="start" x="1655.5" y="-384.3" font-family="Arial" font-size="24.00" fill="#ffffff">visits, capture observations,</text>
<text text-anchor="start" x="1674" y="-360.3" font-family="Arial" font-size="24.00" fill="#ffffff">URL claims, visit events,</text>
<text text-anchor="start" x="1636.5" y="-336.3" font-family="Arial" font-size="24.00" fill="#ffffff">snapshots, chunks, chunks_fts,</text>
<text text-anchor="start" x="1636" y="-312.3" font-family="Arial" font-size="24.00" fill="#ffffff">media provenance/tasks, policy</text>
<text text-anchor="start" x="1679.5" y="-288.3" font-family="Arial" font-size="24.00" fill="#ffffff">rules, audit events, and</text>
<text text-anchor="start" x="1713" y="-264.3" font-family="Arial" font-size="24.00" fill="#ffffff">deletion receipts.</text>
</g>
<!-- 25&#45;&gt;29 -->
<g id="89" class="edge">
<title>25&#45;&gt;29</title>
<path fill="none" stroke="#444444" stroke-dasharray="5,2" d="M1135.54,-969.49C1159.44,-949.86 1183.86,-929.86 1207,-911 1336.95,-805.07 1483.42,-686.8 1598.76,-593.92"/>
<polygon fill="#444444" stroke="#444444" points="1601.07,-596.56 1606.66,-587.56 1596.68,-591.1 1601.07,-596.56"/>
<polygon fill="white" stroke="transparent" points="1238,-911 1238,-986 1466,-986 1466,-911 1238,-911"/>
<text text-anchor="start" x="1242" y="-963.3" font-family="Arial" font-size="24.00" fill="#444444">Checks integrity and</text>
<text text-anchor="start" x="1303.5" y="-939.3" font-family="Arial" font-size="24.00" fill="#444444">counts in</text>
<text text-anchor="start" x="1318.5" y="-919.3" font-family="Arial" font-size="19.00" fill="#444444">[sqlite3]</text>
</g>
<!-- 30 -->
<g id="30" class="node">
<title>30</title>
<path fill="#2f95c8" stroke="#20688c" d="M2002.5,-1097.22C2002.5,-1115.51 1913.98,-1130.38 1805,-1130.38 1696.02,-1130.38 1607.5,-1115.51 1607.5,-1097.22 1607.5,-1097.22 1607.5,-798.78 1607.5,-798.78 1607.5,-780.49 1696.02,-765.62 1805,-765.62 1913.98,-765.62 2002.5,-780.49 2002.5,-798.78 2002.5,-798.78 2002.5,-1097.22 2002.5,-1097.22"/>
<path fill="none" stroke="#20688c" d="M2002.5,-1097.22C2002.5,-1078.92 1913.98,-1064.06 1805,-1064.06 1696.02,-1064.06 1607.5,-1078.92 1607.5,-1097.22"/>
<text text-anchor="start" x="1683.5" y="-1032.3" font-family="Arial" font-size="34.00" fill="#ffffff">Local Derivative</text>
<text text-anchor="start" x="1764" y="-998.3" font-family="Arial" font-size="34.00" fill="#ffffff">Store</text>
<text text-anchor="start" x="1665" y="-976.3" font-family="Arial" font-size="19.00" fill="#ffffff">[Container: WSL local filesystem]</text>
<text text-anchor="start" x="1651.5" y="-939.3" font-family="Arial" font-size="24.00" fill="#ffffff">Reconstructible compatibility</text>
<text text-anchor="start" x="1636.5" y="-915.3" font-family="Arial" font-size="24.00" fill="#ffffff">evidence such as pre&#45;version&#45;9</text>
<text text-anchor="start" x="1675" y="-891.3" font-family="Arial" font-size="24.00" fill="#ffffff">clean&#45;text sidecars; new</text>
<text text-anchor="start" x="1681.5" y="-867.3" font-family="Arial" font-size="24.00" fill="#ffffff">captures create no text</text>
<text text-anchor="start" x="1756.5" y="-843.3" font-family="Arial" font-size="24.00" fill="#ffffff">sidecars.</text>
</g>
<!-- 25&#45;&gt;30 -->
<g id="90" class="edge">
<title>25&#45;&gt;30</title>
<path fill="none" stroke="#444444" stroke-dasharray="5,2" d="M1171.1,-1062.58C1298.58,-1039.5 1466.41,-1009.12 1597.21,-985.44"/>
<polygon fill="#444444" stroke="#444444" points="1598.14,-988.83 1607.36,-983.6 1596.89,-981.94 1598.14,-988.83"/>
<polygon fill="white" stroke="transparent" points="1223,-1052 1223,-1103 1481,-1103 1481,-1052 1223,-1052"/>
<text text-anchor="start" x="1227" y="-1080.3" font-family="Arial" font-size="24.00" fill="#444444">Counts text blob files in</text>
<text text-anchor="start" x="1300.5" y="-1060.3" font-family="Arial" font-size="19.00" fill="#444444">[Filesystem]</text>
</g>
<!-- 31 -->
<g id="31" class="node">
<title>31</title>
<path fill="#2f95c8" stroke="#20688c" d="M2077,-1593.22C2077,-1614.82 1955.09,-1632.38 1805,-1632.38 1654.91,-1632.38 1533,-1614.82 1533,-1593.22 1533,-1593.22 1533,-1240.78 1533,-1240.78 1533,-1219.18 1654.91,-1201.62 1805,-1201.62 1955.09,-1201.62 2077,-1219.18 2077,-1240.78 2077,-1240.78 2077,-1593.22 2077,-1593.22"/>
<path fill="none" stroke="#20688c" d="M2077,-1593.22C2077,-1571.61 1955.09,-1554.06 1805,-1554.06 1654.91,-1554.06 1533,-1571.61 1533,-1593.22"/>
<text text-anchor="start" x="1649.5" y="-1525.3" font-family="Arial" font-size="34.00" fill="#ffffff">Guarded Media Blob</text>
<text text-anchor="start" x="1755.5" y="-1491.3" font-family="Arial" font-size="34.00" fill="#ffffff">Cache</text>
<text text-anchor="start" x="1562" y="-1469.3" font-family="Arial" font-size="19.00" fill="#ffffff">[Container: WSL&#45;visible local or NAS&#45;mounted filesystem]</text>
<text text-anchor="start" x="1695" y="-1432.3" font-family="Arial" font-size="24.00" fill="#ffffff">Bounded disposable</text>
<text text-anchor="start" x="1639.5" y="-1408.3" font-family="Arial" font-size="24.00" fill="#ffffff">image/video/audio bytes under</text>
<text text-anchor="start" x="1663.5" y="-1384.3" font-family="Arial" font-size="24.00" fill="#ffffff">the configured media root;</text>
<text text-anchor="start" x="1691" y="-1360.3" font-family="Arial" font-size="24.00" fill="#ffffff">explicit external roots</text>
<text text-anchor="start" x="1706" y="-1336.3" font-family="Arial" font-size="24.00" fill="#ffffff">require mount and</text>
<text text-anchor="start" x="1655.5" y="-1312.3" font-family="Arial" font-size="24.00" fill="#ffffff">identity&#45;marker proof before</text>
<text text-anchor="start" x="1764" y="-1288.3" font-family="Arial" font-size="24.00" fill="#ffffff">access.</text>
</g>
<!-- 25&#45;&gt;31 -->
<g id="91" class="edge">
<title>25&#45;&gt;31</title>
<path fill="none" stroke="#444444" stroke-dasharray="5,2" d="M1171.1,-1170.92C1275.57,-1211.53 1407.14,-1262.69 1523.22,-1307.83"/>
<polygon fill="#444444" stroke="#444444" points="1522.03,-1311.12 1532.62,-1311.48 1524.56,-1304.59 1522.03,-1311.12"/>
<polygon fill="white" stroke="transparent" points="1209.5,-1295 1209.5,-1346 1494.5,-1346 1494.5,-1295 1209.5,-1295"/>
<text text-anchor="start" x="1214" y="-1323.3" font-family="Arial" font-size="24.00" fill="#444444">Counts media blob files in</text>
<text text-anchor="start" x="1301" y="-1303.3" font-family="Arial" font-size="19.00" fill="#444444">[Filesystem]</text>
</g>
<!-- 32 -->
<g id="32" class="node">
<title>32</title>
<path fill="#2f95c8" stroke="#20688c" d="M1998,-2125.72C1998,-2148.98 1911.49,-2167.88 1805,-2167.88 1698.51,-2167.88 1612,-2148.98 1612,-2125.72 1612,-2125.72 1612,-1746.28 1612,-1746.28 1612,-1723.02 1698.51,-1704.12 1805,-1704.12 1911.49,-1704.12 1998,-1723.02 1998,-1746.28 1998,-1746.28 1998,-2125.72 1998,-2125.72"/>
<path fill="none" stroke="#20688c" d="M1998,-2125.72C1998,-2102.45 1911.49,-2083.56 1805,-2083.56 1698.51,-2083.56 1612,-2102.45 1612,-2125.72"/>
<text text-anchor="start" x="1641" y="-2056.3" font-family="Arial" font-size="34.00" fill="#ffffff">Bounded Local Media</text>
<text text-anchor="start" x="1761.5" y="-2022.3" font-family="Arial" font-size="34.00" fill="#ffffff">Spool</text>
<text text-anchor="start" x="1665" y="-2000.3" font-family="Arial" font-size="19.00" fill="#ffffff">[Container: WSL local filesystem]</text>
<text text-anchor="start" x="1653" y="-1963.3" font-family="Arial" font-size="24.00" fill="#ffffff">Opt&#45;in durable outage buffer</text>
<text text-anchor="start" x="1656.5" y="-1939.3" font-family="Arial" font-size="24.00" fill="#ffffff">beneath the local WSL data</text>
<text text-anchor="start" x="1683.5" y="-1915.3" font-family="Arial" font-size="24.00" fill="#ffffff">root; admission counts</text>
<text text-anchor="start" x="1659.5" y="-1891.3" font-family="Arial" font-size="24.00" fill="#ffffff">committed files and distinct</text>
<text text-anchor="start" x="1653" y="-1867.3" font-family="Arial" font-size="24.00" fill="#ffffff">in&#45;flight SQLite reservations,</text>
<text text-anchor="start" x="1680" y="-1843.3" font-family="Arial" font-size="24.00" fill="#ffffff">and drain verifies bytes</text>
<text text-anchor="start" x="1657.5" y="-1819.3" font-family="Arial" font-size="24.00" fill="#ffffff">before tier transition/source</text>
<text text-anchor="start" x="1759" y="-1795.3" font-family="Arial" font-size="24.00" fill="#ffffff">cleanup.</text>
</g>
<!-- 25&#45;&gt;32 -->
<g id="92" class="edge">
<title>25&#45;&gt;32</title>
<path fill="none" stroke="#444444" stroke-dasharray="5,2" d="M1084.43,-1224.65C1122.03,-1269.59 1165.5,-1319.87 1207,-1364 1334.49,-1499.59 1485.98,-1644.57 1604.46,-1754.64"/>
<polygon fill="#444444" stroke="#444444" points="1602.15,-1757.27 1611.86,-1761.51 1606.91,-1752.14 1602.15,-1757.27"/>
<polygon fill="white" stroke="transparent" points="1207,-1651 1207,-1750 1497,-1750 1497,-1651 1207,-1651"/>
<text text-anchor="start" x="1216.5" y="-1727.3" font-family="Arial" font-size="24.00" fill="#444444">Reports filesystem bytes,</text>
<text text-anchor="start" x="1211" y="-1703.3" font-family="Arial" font-size="24.00" fill="#444444">reservations, and capacity</text>
<text text-anchor="start" x="1337.5" y="-1679.3" font-family="Arial" font-size="24.00" fill="#444444">for</text>
<text text-anchor="start" x="1300.5" y="-1659.3" font-family="Arial" font-size="19.00" fill="#444444">[Filesystem]</text>
</g>
</g>
</svg>
