<?xml version="1.0" encoding="UTF-8" standalone="no"?>
<!DOCTYPE svg PUBLIC "-//W3C//DTD SVG 1.1//EN"
 "http://www.w3.org/Graphics/SVG/1.1/DTD/svg11.dtd">
<!-- Generated by graphviz version 2.43.0 (0)
 -->
<!-- Title: %3 Pages: 1 -->
<svg width="1990pt" height="2088pt"
 viewBox="0.00 0.00 1990.00 2088.38" xmlns="http://www.w3.org/2000/svg" xmlns:xlink="http://www.w3.org/1999/xlink">
<g id="graph0" class="graph" transform="scale(1 1) rotate(0) translate(4 2084.38)">
<title>%3</title>
<polygon fill="white" stroke="transparent" points="-4,4 -4,-2084.38 1986,-2084.38 1986,4 -4,4"/>
<text text-anchor="start" x="510.5" y="-11.8" font-family="Arial" font-size="34.00">Deployment View: Browser Memory Daemon &#45; Daily&#45;driver local</text>
<g id="clust1" class="cluster">
<title>cluster_88</title>
<polygon fill="none" stroke="#444444" points="8,-64 8,-2072.38 1974,-2072.38 1974,-64 8,-64"/>
<text text-anchor="start" x="897.5" y="-92.8" font-family="Arial" font-size="24.00" fill="#444444">Local workstation</text>
<text text-anchor="start" x="829" y="-72.8" font-family="Arial" font-size="19.00" fill="#444444">[Deployment Node: Windows + WSL2]</text>
</g>
<g id="clust2" class="cluster">
<title>cluster_89</title>
<polygon fill="none" stroke="#444444" points="448,-1566.38 448,-2047.38 1566,-2047.38 1566,-1566.38 448,-1566.38"/>
<text text-anchor="start" x="894.5" y="-1595.17" font-family="Arial" font-size="24.00" fill="#444444">Windows user profile</text>
<text text-anchor="start" x="853.5" y="-1575.17" font-family="Arial" font-size="19.00" fill="#444444">[Deployment Node: Windows profile]</text>
</g>
<g id="clust3" class="cluster">
<title>cluster_90</title>
<polygon fill="none" stroke="#444444" points="473,-1642.38 473,-2022.38 1541,-2022.38 1541,-1642.38 473,-1642.38"/>
<text text-anchor="start" x="812.5" y="-1671.17" font-family="Arial" font-size="24.00" fill="#444444">Windows Chrome daily&#45;driver profile</text>
<text text-anchor="start" x="831.5" y="-1651.17" font-family="Arial" font-size="19.00" fill="#444444">[Deployment Node: Google Chrome MV3]</text>
</g>
<g id="clust4" class="cluster">
<title>cluster_96</title>
<polygon fill="none" stroke="#444444" points="33,-140 33,-1427.38 1949,-1427.38 1949,-140 33,-140"/>
<text text-anchor="start" x="915.5" y="-168.8" font-family="Arial" font-size="24.00" fill="#444444">WSL2 Ubuntu</text>
<text text-anchor="start" x="800.5" y="-148.8" font-family="Arial" font-size="19.00" fill="#444444">[Deployment Node: Ubuntu + systemd &#45;&#45;user]</text>
</g>
<g id="clust6" class="cluster">
<title>cluster_105</title>
<polygon fill="none" stroke="#444444" points="245,-216 245,-846.38 691,-846.38 691,-216 245,-216"/>
<text text-anchor="start" x="309" y="-244.8" font-family="Arial" font-size="24.00" fill="#444444">WSL XDG runtime data paths</text>
<text text-anchor="start" x="316" y="-224.8" font-family="Arial" font-size="19.00" fill="#444444">[Deployment Node: WSL filesystem]</text>
</g>
<g id="clust7" class="cluster">
<title>cluster_111</title>
<polygon fill="none" stroke="#444444" points="902,-239.38 902,-823 1900,-823 1900,-239.38 902,-239.38"/>
<text text-anchor="start" x="1245" y="-268.18" font-family="Arial" font-size="24.00" fill="#444444">WSL&#45;mounted NAS blob root</text>
<text text-anchor="start" x="1160.5" y="-248.18" font-family="Arial" font-size="19.00" fill="#444444">[Deployment Node: NAS mount of TrueNAS ZFS dataset]</text>
</g>
<g id="clust8" class="cluster">
<title>cluster_97</title>
<polygon fill="none" stroke="#444444" points="305,-964.38 305,-1402.38 1243,-1402.38 1243,-964.38 305,-964.38"/>
<text text-anchor="start" x="646" y="-993.17" font-family="Arial" font-size="24.00" fill="#444444">systemd &#45;&#45;user services</text>
<text text-anchor="start" x="625" y="-973.17" font-family="Arial" font-size="19.00" fill="#444444">[Deployment Node: systemd &#45;&#45;user]</text>
</g>
<!-- 91 -->
<g id="91" class="node">
<title>91</title>
<polygon fill="#438dd5" stroke="#2e6295" points="932,-1997.38 498,-1997.38 498,-1718.38 932,-1718.38 932,-1997.38"/>
<text text-anchor="start" x="535" y="-1949.17" font-family="Arial" font-size="34.00" fill="#ffffff">Chrome MV3 Extension</text>
<text text-anchor="start" x="527" y="-1927.17" font-family="Arial" font-size="19.00" fill="#ffffff">[Container: JavaScript, Chrome Manifest V3]</text>
<text text-anchor="start" x="572" y="-1890.17" font-family="Arial" font-size="24.00" fill="#ffffff">Captures visible page text,</text>
<text text-anchor="start" x="597.5" y="-1866.17" font-family="Arial" font-size="24.00" fill="#ffffff">media references, tab</text>
<text text-anchor="start" x="606" y="-1842.17" font-family="Arial" font-size="24.00" fill="#ffffff">lifecycle events, and</text>
<text text-anchor="start" x="549" y="-1818.17" font-family="Arial" font-size="24.00" fill="#ffffff">browser&#45;side media bytes from</text>
<text text-anchor="start" x="544" y="-1794.17" font-family="Arial" font-size="24.00" fill="#ffffff">Windows Chrome; queues work</text>
<text text-anchor="start" x="556" y="-1770.17" font-family="Arial" font-size="24.00" fill="#ffffff">durably and posts to the WSL</text>
<text text-anchor="start" x="667.5" y="-1746.17" font-family="Arial" font-size="24.00" fill="#ffffff">daemon.</text>
</g>
<!-- 98 -->
<g id="98" class="node">
<title>98</title>
<polygon fill="#438dd5" stroke="#2e6295" points="1218,-1377.38 756,-1377.38 756,-1040.38 1218,-1040.38 1218,-1377.38"/>
<text text-anchor="start" x="822.5" y="-1329.17" font-family="Arial" font-size="34.00" fill="#ffffff">WSL Loopback HTTP</text>
<text text-anchor="start" x="922.5" y="-1295.17" font-family="Arial" font-size="34.00" fill="#ffffff">Daemon</text>
<text text-anchor="start" x="785" y="-1273.17" font-family="Arial" font-size="19.00" fill="#ffffff">[Container: Python 3.11, ThreadingHTTPServer]</text>
<text text-anchor="start" x="826" y="-1236.17" font-family="Arial" font-size="24.00" fill="#ffffff">Authenticated loopback HTTP</text>
<text text-anchor="start" x="851" y="-1212.17" font-family="Arial" font-size="24.00" fill="#ffffff">API that handles capture,</text>
<text text-anchor="start" x="847.5" y="-1188.17" font-family="Arial" font-size="24.00" fill="#ffffff">visit events, media artifact</text>
<text text-anchor="start" x="850.5" y="-1164.17" font-family="Arial" font-size="24.00" fill="#ffffff">upload/fetch/purge, exact</text>
<text text-anchor="start" x="947" y="-1140.17" font-family="Arial" font-size="24.00" fill="#ffffff">search,</text>
<text text-anchor="start" x="838" y="-1116.17" font-family="Arial" font-size="24.00" fill="#ffffff">recent/timeline/detail, policy</text>
<text text-anchor="start" x="856" y="-1092.17" font-family="Arial" font-size="24.00" fill="#ffffff">rules, doctor, forget, and</text>
<text text-anchor="start" x="897.5" y="-1068.17" font-family="Arial" font-size="24.00" fill="#ffffff">static UI serving.</text>
</g>
<!-- 91&#45;&gt;98 -->
<g id="99" class="edge">
<title>91&#45;&gt;98</title>
<path fill="none" stroke="#444444" stroke-dasharray="5,2" d="M662.44,-1718.17C638.13,-1628.44 626.52,-1514.12 688,-1435.38 697.02,-1423.82 706.89,-1433.94 720,-1427.38 744.87,-1414.92 769.51,-1399.81 793.19,-1383.43"/>
<polygon fill="#444444" stroke="#444444" points="795.35,-1386.19 801.53,-1377.58 791.33,-1380.46 795.35,-1386.19"/>
<polygon fill="white" stroke="transparent" points="688,-1435.38 688,-1558.38 1183,-1558.38 1183,-1435.38 688,-1435.38"/>
<text text-anchor="start" x="855" y="-1535.67" font-family="Arial" font-size="24.00" fill="#444444">Posts /capture,</text>
<text text-anchor="start" x="832" y="-1511.67" font-family="Arial" font-size="24.00" fill="#444444">/visit&#45;events, media</text>
<text text-anchor="start" x="809" y="-1487.67" font-family="Arial" font-size="24.00" fill="#444444">metadata, and raw blob</text>
<text text-anchor="start" x="880" y="-1463.67" font-family="Arial" font-size="24.00" fill="#444444">uploads to</text>
<text text-anchor="start" x="692.5" y="-1443.67" font-family="Arial" font-size="19.00" fill="#444444">[Bearer HTTP/JSON; raw HTTP PUT over 127.0.0.1:8765]</text>
</g>
<!-- 94 -->
<g id="94" class="node">
<title>94</title>
<polygon fill="#438dd5" stroke="#2e6295" points="1516,-1985.38 1004,-1985.38 1004,-1730.38 1516,-1730.38 1516,-1985.38"/>
<text text-anchor="start" x="1157.5" y="-1937.17" font-family="Arial" font-size="34.00" fill="#ffffff">Local Web UI</text>
<text text-anchor="start" x="1033" y="-1915.17" font-family="Arial" font-size="19.00" fill="#ffffff">[Container: HTML/CSS/JavaScript served by daemon]</text>
<text text-anchor="start" x="1118" y="-1878.17" font-family="Arial" font-size="24.00" fill="#ffffff">Static browser UI for exact</text>
<text text-anchor="start" x="1101" y="-1854.17" font-family="Arial" font-size="24.00" fill="#ffffff">search, recent/timeline views,</text>
<text text-anchor="start" x="1118.5" y="-1830.17" font-family="Arial" font-size="24.00" fill="#ffffff">document/snapshot detail,</text>
<text text-anchor="start" x="1103" y="-1806.17" font-family="Arial" font-size="24.00" fill="#ffffff">media artifact opening, policy</text>
<text text-anchor="start" x="1166.5" y="-1782.17" font-family="Arial" font-size="24.00" fill="#ffffff">rules, doctor, and</text>
<text text-anchor="start" x="1121.5" y="-1758.17" font-family="Arial" font-size="24.00" fill="#ffffff">forget&#45;domain operations.</text>
</g>
<!-- 94&#45;&gt;98 -->
<g id="100" class="edge">
<title>94&#45;&gt;98</title>
<path fill="none" stroke="#444444" stroke-dasharray="5,2" d="M1260.48,-1730.34C1256.28,-1643.49 1241.49,-1527.69 1197,-1435.38 1188.79,-1418.34 1178.85,-1401.72 1167.8,-1385.71"/>
<polygon fill="#444444" stroke="#444444" points="1170.56,-1383.54 1161.93,-1377.4 1164.84,-1387.58 1170.56,-1383.54"/>
<polygon fill="white" stroke="transparent" points="1237,-1447.38 1237,-1546.38 1514,-1546.38 1514,-1447.38 1237,-1447.38"/>
<text text-anchor="start" x="1242" y="-1523.67" font-family="Arial" font-size="24.00" fill="#444444">Calls authenticated read,</text>
<text text-anchor="start" x="1241.5" y="-1499.67" font-family="Arial" font-size="24.00" fill="#444444">admin, media, and forget</text>
<text text-anchor="start" x="1333.5" y="-1475.67" font-family="Arial" font-size="24.00" fill="#444444">APIs on</text>
<text text-anchor="start" x="1318" y="-1455.67" font-family="Arial" font-size="19.00" fill="#444444">[HTTP/JSON]</text>
</g>
<!-- 106 -->
<g id="106" class="node">
<title>106</title>
<path fill="#2f95c8" stroke="#20688c" d="M666,-773.4C666,-799.98 577.25,-821.56 468,-821.56 358.75,-821.56 270,-799.98 270,-773.4 270,-773.4 270,-339.97 270,-339.97 270,-313.4 358.75,-291.81 468,-291.81 577.25,-291.81 666,-313.4 666,-339.97 666,-339.97 666,-773.4 666,-773.4"/>
<path fill="none" stroke="#20688c" d="M666,-773.4C666,-746.83 577.25,-725.24 468,-725.24 358.75,-725.24 270,-746.83 270,-773.4"/>
<text text-anchor="start" x="355" y="-700.99" font-family="Arial" font-size="34.00" fill="#ffffff">SQLite + FTS5</text>
<text text-anchor="start" x="395" y="-666.99" font-family="Arial" font-size="34.00" fill="#ffffff">Database</text>
<text text-anchor="start" x="342" y="-644.99" font-family="Arial" font-size="19.00" fill="#ffffff">[Container: SQLite with FTS5]</text>
<text text-anchor="start" x="300" y="-607.99" font-family="Arial" font-size="24.00" fill="#ffffff">Durable complete cleaned&#45;text,</text>
<text text-anchor="start" x="349" y="-583.99" font-family="Arial" font-size="24.00" fill="#ffffff">relational, and full&#45;text</text>
<text text-anchor="start" x="350.5" y="-559.99" font-family="Arial" font-size="24.00" fill="#ffffff">authority for migration</text>
<text text-anchor="start" x="316" y="-535.99" font-family="Arial" font-size="24.00" fill="#ffffff">ledger, sources, documents,</text>
<text text-anchor="start" x="318.5" y="-511.99" font-family="Arial" font-size="24.00" fill="#ffffff">visits, capture observations,</text>
<text text-anchor="start" x="337" y="-487.99" font-family="Arial" font-size="24.00" fill="#ffffff">URL claims, visit events,</text>
<text text-anchor="start" x="299.5" y="-463.99" font-family="Arial" font-size="24.00" fill="#ffffff">snapshots, chunks, chunks_fts,</text>
<text text-anchor="start" x="299" y="-439.99" font-family="Arial" font-size="24.00" fill="#ffffff">media provenance/tasks, policy</text>
<text text-anchor="start" x="342.5" y="-415.99" font-family="Arial" font-size="24.00" fill="#ffffff">rules, audit events, and</text>
<text text-anchor="start" x="376" y="-391.99" font-family="Arial" font-size="24.00" fill="#ffffff">deletion receipts.</text>
</g>
<!-- 112 -->
<g id="112" class="node">
<title>112</title>
<path fill="#2f95c8" stroke="#20688c" d="M1875,-692.4C1875,-709.04 1776.84,-722.56 1656,-722.56 1535.16,-722.56 1437,-709.04 1437,-692.4 1437,-692.4 1437,-420.97 1437,-420.97 1437,-404.33 1535.16,-390.81 1656,-390.81 1776.84,-390.81 1875,-404.33 1875,-420.97 1875,-420.97 1875,-692.4 1875,-692.4"/>
<path fill="none" stroke="#20688c" d="M1875,-692.4C1875,-675.76 1776.84,-662.24 1656,-662.24 1535.16,-662.24 1437,-675.76 1437,-692.4"/>
<text text-anchor="start" x="1516" y="-628.99" font-family="Arial" font-size="34.00" fill="#ffffff">Legacy Clean Text</text>
<text text-anchor="start" x="1589.5" y="-594.99" font-family="Arial" font-size="34.00" fill="#ffffff">Sidecars</text>
<text text-anchor="start" x="1466" y="-572.99" font-family="Arial" font-size="19.00" fill="#ffffff">[Container: WSL or NAS&#45;mounted filesystem]</text>
<text text-anchor="start" x="1503.5" y="-535.99" font-family="Arial" font-size="24.00" fill="#ffffff">Compatibility&#45;only filesystem</text>
<text text-anchor="start" x="1514.5" y="-511.99" font-family="Arial" font-size="24.00" fill="#ffffff">evidence for pre&#45;version&#45;9</text>
<text text-anchor="start" x="1484.5" y="-487.99" font-family="Arial" font-size="24.00" fill="#ffffff">snapshots; new captures create</text>
<text text-anchor="start" x="1567.5" y="-463.99" font-family="Arial" font-size="24.00" fill="#ffffff">no text sidecars.</text>
</g>
<!-- 114 -->
<g id="114" class="node">
<title>114</title>
<path fill="#2f95c8" stroke="#20688c" d="M1365,-753.97C1365,-778.16 1266.84,-797.81 1146,-797.81 1025.16,-797.81 927,-778.16 927,-753.97 927,-753.97 927,-359.4 927,-359.4 927,-335.21 1025.16,-315.56 1146,-315.56 1266.84,-315.56 1365,-335.21 1365,-359.4 1365,-359.4 1365,-753.97 1365,-753.97"/>
<path fill="none" stroke="#20688c" d="M1365,-753.97C1365,-729.78 1266.84,-710.13 1146,-710.13 1025.16,-710.13 927,-729.78 927,-753.97"/>
<text text-anchor="start" x="1007" y="-683.99" font-family="Arial" font-size="34.00" fill="#ffffff">Media Blob Cache</text>
<text text-anchor="start" x="956" y="-661.99" font-family="Arial" font-size="19.00" fill="#ffffff">[Container: WSL or NAS&#45;mounted filesystem]</text>
<text text-anchor="start" x="1012.5" y="-624.99" font-family="Arial" font-size="24.00" fill="#ffffff">Bounded and disposable</text>
<text text-anchor="start" x="1001.5" y="-600.99" font-family="Arial" font-size="24.00" fill="#ffffff">filesystem cache for stored</text>
<text text-anchor="start" x="980.5" y="-576.99" font-family="Arial" font-size="24.00" fill="#ffffff">image/video/audio blobs under</text>
<text text-anchor="start" x="1002" y="-552.99" font-family="Arial" font-size="24.00" fill="#ffffff">the configured WSL&#45;visible</text>
<text text-anchor="start" x="1070.5" y="-528.99" font-family="Arial" font-size="24.00" fill="#ffffff">blob root, with</text>
<text text-anchor="start" x="978.5" y="-504.99" font-family="Arial" font-size="24.00" fill="#ffffff">purge/rehydrate semantics that</text>
<text text-anchor="start" x="989.5" y="-480.99" font-family="Arial" font-size="24.00" fill="#ffffff">preserve media refs, hashes,</text>
<text text-anchor="start" x="973" y="-456.99" font-family="Arial" font-size="24.00" fill="#ffffff">status reasons, and provenance</text>
<text text-anchor="start" x="1009.5" y="-432.99" font-family="Arial" font-size="24.00" fill="#ffffff">when bytes are absent or</text>
<text text-anchor="start" x="1104.5" y="-408.99" font-family="Arial" font-size="24.00" fill="#ffffff">purged.</text>
</g>
<!-- 101 -->
<g id="101" class="node">
<title>101</title>
<polygon fill="#438dd5" stroke="#2e6295" points="684,-1360.38 330,-1360.38 330,-1057.38 684,-1057.38 684,-1360.38"/>
<text text-anchor="start" x="360" y="-1312.17" font-family="Arial" font-size="34.00" fill="#ffffff">WSL Media Worker</text>
<text text-anchor="start" x="367" y="-1290.17" font-family="Arial" font-size="19.00" fill="#ffffff">[Container: Python 3.11 CLI loop]</text>
<text text-anchor="start" x="359.5" y="-1253.17" font-family="Arial" font-size="24.00" fill="#ffffff">Long&#45;running systemd user</text>
<text text-anchor="start" x="408.5" y="-1229.17" font-family="Arial" font-size="24.00" fill="#ffffff">worker that leases</text>
<text text-anchor="start" x="361" y="-1205.17" font-family="Arial" font-size="24.00" fill="#ffffff">daemon&#45;public media fetch</text>
<text text-anchor="start" x="398" y="-1181.17" font-family="Arial" font-size="24.00" fill="#ffffff">tasks, fetches public</text>
<text text-anchor="start" x="359" y="-1157.17" font-family="Arial" font-size="24.00" fill="#ffffff">media/HLS without Chrome</text>
<text text-anchor="start" x="364" y="-1133.17" font-family="Arial" font-size="24.00" fill="#ffffff">cookies, classifies terminal</text>
<text text-anchor="start" x="361" y="-1109.17" font-family="Arial" font-size="24.00" fill="#ffffff">states, and updates artifact</text>
<text text-anchor="start" x="478" y="-1085.17" font-family="Arial" font-size="24.00" fill="#ffffff">rows.</text>
</g>
<!-- 101&#45;&gt;106 -->
<g id="108" class="edge">
<title>101&#45;&gt;106</title>
<path fill="none" stroke="#444444" stroke-dasharray="5,2" d="M329.87,-1140.7C249.64,-1100.31 162.69,-1040.2 117,-956.38 58.4,-848.85 155.03,-745.6 261.62,-671.13"/>
<polygon fill="#444444" stroke="#444444" points="263.73,-673.92 269.97,-665.36 259.75,-668.16 263.73,-673.92"/>
<polygon fill="white" stroke="transparent" points="117,-869.38 117,-944.38 417,-944.38 417,-869.38 117,-869.38"/>
<text text-anchor="start" x="121" y="-921.67" font-family="Arial" font-size="24.00" fill="#444444">Leases and updates media</text>
<text text-anchor="start" x="226" y="-897.67" font-family="Arial" font-size="24.00" fill="#444444">tasks in</text>
<text text-anchor="start" x="233.5" y="-877.67" font-family="Arial" font-size="19.00" fill="#444444">[sqlite3]</text>
</g>
<!-- 101&#45;&gt;114 -->
<g id="116" class="edge">
<title>101&#45;&gt;114</title>
<path fill="none" stroke="#444444" stroke-dasharray="5,2" d="M454.23,-1057.1C440.2,-987.67 440.56,-909.36 490,-857.38 506.79,-839.72 685.85,-853.97 709,-846.38 781.87,-822.47 854.15,-782.98 918.33,-740.78"/>
<polygon fill="#444444" stroke="#444444" points="920.53,-743.52 926.92,-735.08 916.66,-737.69 920.53,-743.52"/>
<polygon fill="white" stroke="transparent" points="490,-869.38 490,-944.38 790,-944.38 790,-869.38 490,-869.38"/>
<text text-anchor="start" x="494" y="-921.67" font-family="Arial" font-size="24.00" fill="#444444">Writes fetched media blobs</text>
<text text-anchor="start" x="629.5" y="-897.67" font-family="Arial" font-size="24.00" fill="#444444">to</text>
<text text-anchor="start" x="588.5" y="-877.67" font-family="Arial" font-size="19.00" fill="#444444">[Filesystem]</text>
</g>
<!-- 98&#45;&gt;106 -->
<g id="107" class="edge">
<title>98&#45;&gt;106</title>
<path fill="none" stroke="#444444" stroke-dasharray="5,2" d="M908.82,-1040.36C872.86,-966.5 832.78,-889.28 808,-857.38 769.29,-807.53 721.46,-759.5 674.03,-717.04"/>
<polygon fill="#444444" stroke="#444444" points="676.22,-714.3 666.42,-710.27 671.57,-719.53 676.22,-714.3"/>
<polygon fill="white" stroke="transparent" points="865,-857.38 865,-956.38 1175,-956.38 1175,-857.38 865,-857.38"/>
<text text-anchor="start" x="869" y="-933.67" font-family="Arial" font-size="24.00" fill="#444444">Reads and writes metadata,</text>
<text text-anchor="start" x="902" y="-909.67" font-family="Arial" font-size="24.00" fill="#444444">FTS, tasks, audit, and</text>
<text text-anchor="start" x="964.5" y="-885.67" font-family="Arial" font-size="24.00" fill="#444444">receipts in</text>
<text text-anchor="start" x="986.5" y="-865.67" font-family="Arial" font-size="19.00" fill="#444444">[sqlite3]</text>
</g>
<!-- 98&#45;&gt;112 -->
<g id="113" class="edge">
<title>98&#45;&gt;112</title>
<path fill="none" stroke="#444444" stroke-dasharray="5,2" d="M1218.24,-1151.01C1329.01,-1112.86 1455.25,-1051.64 1538,-956.38 1591.8,-894.44 1621.08,-808.92 1637.02,-732.97"/>
<polygon fill="#444444" stroke="#444444" points="1640.52,-733.29 1639.09,-722.8 1633.67,-731.9 1640.52,-733.29"/>
<polygon fill="white" stroke="transparent" points="1596,-857.38 1596,-956.38 1864,-956.38 1864,-857.38 1596,-857.38"/>
<text text-anchor="start" x="1600" y="-933.67" font-family="Arial" font-size="24.00" fill="#444444">Reads or deletes legacy</text>
<text text-anchor="start" x="1629.5" y="-909.67" font-family="Arial" font-size="24.00" fill="#444444">text sidecars when</text>
<text text-anchor="start" x="1685" y="-885.67" font-family="Arial" font-size="24.00" fill="#444444">required</text>
<text text-anchor="start" x="1678.5" y="-865.67" font-family="Arial" font-size="19.00" fill="#444444">[Filesystem]</text>
</g>
<!-- 98&#45;&gt;114 -->
<g id="115" class="edge">
<title>98&#45;&gt;114</title>
<path fill="none" stroke="#444444" stroke-dasharray="5,2" d="M1151.05,-1040.08C1168.97,-1013.77 1184.49,-985.56 1195,-956.38 1211.83,-909.62 1215.49,-858.01 1212.02,-807.87"/>
<polygon fill="#444444" stroke="#444444" points="1215.51,-807.56 1211.23,-797.86 1208.53,-808.11 1215.51,-807.56"/>
<polygon fill="white" stroke="transparent" points="1212,-857.38 1212,-956.38 1520,-956.38 1520,-857.38 1212,-857.38"/>
<text text-anchor="start" x="1241" y="-933.67" font-family="Arial" font-size="24.00" fill="#444444">Stores, serves, purges,</text>
<text text-anchor="start" x="1216" y="-909.67" font-family="Arial" font-size="24.00" fill="#444444">and rehydrates media blobs</text>
<text text-anchor="start" x="1356.5" y="-885.67" font-family="Arial" font-size="24.00" fill="#444444">in</text>
<text text-anchor="start" x="1314.5" y="-865.67" font-family="Arial" font-size="19.00" fill="#444444">[Filesystem]</text>
</g>
</g>
</svg>
