<?xml version="1.0" encoding="UTF-8" standalone="no"?>
<!DOCTYPE svg PUBLIC "-//W3C//DTD SVG 1.1//EN"
 "http://www.w3.org/Graphics/SVG/1.1/DTD/svg11.dtd">
<!-- Generated by graphviz version 2.43.0 (0)
 -->
<!-- Title: %3 Pages: 1 -->
<svg width="1547pt" height="1695pt"
 viewBox="0.00 0.00 1547.00 1694.75" xmlns="http://www.w3.org/2000/svg" xmlns:xlink="http://www.w3.org/1999/xlink">
<g id="graph0" class="graph" transform="scale(1 1) rotate(0) translate(4 1690.75)">
<title>%3</title>
<polygon fill="white" stroke="transparent" points="-4,4 -4,-1690.75 1543,-1690.75 1543,4 -4,4"/>
<text text-anchor="start" x="447" y="-11.8" font-family="Arial" font-size="34.00">Container View: Browser Memory Daemon</text>
<g id="clust1" class="cluster">
<title>cluster_4</title>
<polygon fill="none" stroke="#444444" points="8,-64 8,-1678.75 1045,-1678.75 1045,-64 8,-64"/>
<text text-anchor="start" x="385.5" y="-92.8" font-family="Arial" font-size="24.00" fill="#444444">Browser Memory Daemon</text>
<text text-anchor="start" x="449.5" y="-72.8" font-family="Arial" font-size="19.00" fill="#444444">[Software System]</text>
</g>
<!-- 2 -->
<g id="2" class="node">
<title>2</title>
<polygon fill="#999999" stroke="#6b6b6b" points="1478,-1121.06 1092,-1121.06 1092,-890.06 1478,-890.06 1478,-1121.06"/>
<text text-anchor="start" x="1150.5" y="-1072.86" font-family="Arial" font-size="34.00" fill="#ffffff">Windows Chrome</text>
<text text-anchor="start" x="1208" y="-1050.86" font-family="Arial" font-size="19.00" fill="#ffffff">[Software System]</text>
<text text-anchor="start" x="1121" y="-1013.86" font-family="Arial" font-size="24.00" fill="#ffffff">The Windows Chrome runtime</text>
<text text-anchor="start" x="1134.5" y="-989.86" font-family="Arial" font-size="24.00" fill="#ffffff">that loads web pages, hosts</text>
<text text-anchor="start" x="1134" y="-965.86" font-family="Arial" font-size="24.00" fill="#ffffff">the MV3 extension, runs the</text>
<text text-anchor="start" x="1126" y="-941.86" font-family="Arial" font-size="24.00" fill="#ffffff">local UI in a tab, and exposes</text>
<text text-anchor="start" x="1155.5" y="-917.86" font-family="Arial" font-size="24.00" fill="#ffffff">Chrome extension APIs.</text>
</g>
<!-- 13 -->
<g id="13" class="node">
<title>13</title>
<path fill="#2f95c8" stroke="#20688c" d="M485.5,-1154.78C485.5,-1173.08 383.98,-1187.94 259,-1187.94 134.02,-1187.94 32.5,-1173.08 32.5,-1154.78 32.5,-1154.78 32.5,-856.35 32.5,-856.35 32.5,-838.05 134.02,-823.19 259,-823.19 383.98,-823.19 485.5,-838.05 485.5,-856.35 485.5,-856.35 485.5,-1154.78 485.5,-1154.78"/>
<path fill="none" stroke="#20688c" d="M485.5,-1154.78C485.5,-1136.48 383.98,-1121.62 259,-1121.62 134.02,-1121.62 32.5,-1136.48 32.5,-1154.78"/>
<text text-anchor="start" x="117" y="-1089.86" font-family="Arial" font-size="34.00" fill="#ffffff">Extension Browser</text>
<text text-anchor="start" x="199.5" y="-1055.86" font-family="Arial" font-size="34.00" fill="#ffffff">Storage</text>
<text text-anchor="start" x="61.5" y="-1033.86" font-family="Arial" font-size="19.00" fill="#ffffff">[Container: chrome.storage.local + IndexedDB]</text>
<text text-anchor="start" x="126.5" y="-996.86" font-family="Arial" font-size="24.00" fill="#ffffff">Browser&#45;side storage for</text>
<text text-anchor="start" x="114.5" y="-972.86" font-family="Arial" font-size="24.00" fill="#ffffff">capture and visit queues in</text>
<text text-anchor="start" x="120.5" y="-948.86" font-family="Arial" font-size="24.00" fill="#ffffff">chrome.storage.local plus</text>
<text text-anchor="start" x="126.5" y="-924.86" font-family="Arial" font-size="24.00" fill="#ffffff">durable media tasks and</text>
<text text-anchor="start" x="107.5" y="-900.86" font-family="Arial" font-size="24.00" fill="#ffffff">fetched blobs in IndexedDB.</text>
</g>
<!-- 14 -->
<g id="14" class="node">
<title>14</title>
<polygon fill="#438dd5" stroke="#2e6295" points="1020,-1174.06 558,-1174.06 558,-837.06 1020,-837.06 1020,-1174.06"/>
<text text-anchor="start" x="624.5" y="-1125.86" font-family="Arial" font-size="34.00" fill="#ffffff">WSL Loopback HTTP</text>
<text text-anchor="start" x="724.5" y="-1091.86" font-family="Arial" font-size="34.00" fill="#ffffff">Daemon</text>
<text text-anchor="start" x="587" y="-1069.86" font-family="Arial" font-size="19.00" fill="#ffffff">[Container: Python 3.11, ThreadingHTTPServer]</text>
<text text-anchor="start" x="628" y="-1032.86" font-family="Arial" font-size="24.00" fill="#ffffff">Authenticated loopback HTTP</text>
<text text-anchor="start" x="653" y="-1008.86" font-family="Arial" font-size="24.00" fill="#ffffff">API that handles capture,</text>
<text text-anchor="start" x="649.5" y="-984.86" font-family="Arial" font-size="24.00" fill="#ffffff">visit events, media artifact</text>
<text text-anchor="start" x="652.5" y="-960.86" font-family="Arial" font-size="24.00" fill="#ffffff">upload/fetch/purge, exact</text>
<text text-anchor="start" x="749" y="-936.86" font-family="Arial" font-size="24.00" fill="#ffffff">search,</text>
<text text-anchor="start" x="640" y="-912.86" font-family="Arial" font-size="24.00" fill="#ffffff">recent/timeline/detail, policy</text>
<text text-anchor="start" x="658" y="-888.86" font-family="Arial" font-size="24.00" fill="#ffffff">rules, doctor, forget, and</text>
<text text-anchor="start" x="699.5" y="-864.86" font-family="Arial" font-size="24.00" fill="#ffffff">static UI serving.</text>
</g>
<!-- 28 -->
<g id="28" class="node">
<title>28</title>
<path fill="#2f95c8" stroke="#20688c" d="M502.5,-615.4C502.5,-640.32 413.98,-660.56 305,-660.56 196.02,-660.56 107.5,-640.32 107.5,-615.4 107.5,-615.4 107.5,-208.97 107.5,-208.97 107.5,-184.05 196.02,-163.81 305,-163.81 413.98,-163.81 502.5,-184.05 502.5,-208.97 502.5,-208.97 502.5,-615.4 502.5,-615.4"/>
<path fill="none" stroke="#20688c" d="M502.5,-615.4C502.5,-590.49 413.98,-570.24 305,-570.24 196.02,-570.24 107.5,-590.49 107.5,-615.4"/>
<text text-anchor="start" x="192" y="-544.49" font-family="Arial" font-size="34.00" fill="#ffffff">SQLite + FTS5</text>
<text text-anchor="start" x="232" y="-510.49" font-family="Arial" font-size="34.00" fill="#ffffff">Database</text>
<text text-anchor="start" x="179" y="-488.49" font-family="Arial" font-size="19.00" fill="#ffffff">[Container: SQLite with FTS5]</text>
<text text-anchor="start" x="186" y="-451.49" font-family="Arial" font-size="24.00" fill="#ffffff">Durable relational and</text>
<text text-anchor="start" x="164.5" y="-427.49" font-family="Arial" font-size="24.00" fill="#ffffff">full&#45;text store for migration</text>
<text text-anchor="start" x="153" y="-403.49" font-family="Arial" font-size="24.00" fill="#ffffff">ledger, sources, documents,</text>
<text text-anchor="start" x="155.5" y="-379.49" font-family="Arial" font-size="24.00" fill="#ffffff">visits, capture observations,</text>
<text text-anchor="start" x="174" y="-355.49" font-family="Arial" font-size="24.00" fill="#ffffff">URL claims, visit events,</text>
<text text-anchor="start" x="136.5" y="-331.49" font-family="Arial" font-size="24.00" fill="#ffffff">snapshots, chunks, chunks_fts,</text>
<text text-anchor="start" x="156.5" y="-307.49" font-family="Arial" font-size="24.00" fill="#ffffff">media artifacts, media fetch</text>
<text text-anchor="start" x="176.5" y="-283.49" font-family="Arial" font-size="24.00" fill="#ffffff">tasks, policy rules, audit</text>
<text text-anchor="start" x="147" y="-259.49" font-family="Arial" font-size="24.00" fill="#ffffff">events, and deletion receipts.</text>
</g>
<!-- 14&#45;&gt;28 -->
<g id="44" class="edge">
<title>14&#45;&gt;28</title>
<path fill="none" stroke="#444444" stroke-dasharray="5,2" d="M557.59,-848.09C509.94,-815.55 473.3,-790.14 471,-787.38 441.87,-752.4 416.92,-711.5 395.89,-669.84"/>
<polygon fill="#444444" stroke="#444444" points="398.91,-668.05 391.32,-660.65 392.64,-671.17 398.91,-668.05"/>
<text text-anchor="start" x="471" y="-769.17" font-family="Arial" font-size="24.00" fill="#444444">Reads and writes metadata,</text>
<text text-anchor="start" x="504" y="-745.17" font-family="Arial" font-size="24.00" fill="#444444">FTS, tasks, audit, and</text>
<text text-anchor="start" x="566.5" y="-721.17" font-family="Arial" font-size="24.00" fill="#444444">receipts in</text>
<text text-anchor="start" x="588.5" y="-701.17" font-family="Arial" font-size="19.00" fill="#444444">[sqlite3]</text>
</g>
<!-- 29 -->
<g id="29" class="node">
<title>29</title>
<path fill="#2f95c8" stroke="#20688c" d="M1013,-528.47C1013,-542.73 914.84,-554.31 794,-554.31 673.16,-554.31 575,-542.73 575,-528.47 575,-528.47 575,-295.9 575,-295.9 575,-281.64 673.16,-270.06 794,-270.06 914.84,-270.06 1013,-281.64 1013,-295.9 1013,-295.9 1013,-528.47 1013,-528.47"/>
<path fill="none" stroke="#20688c" d="M1013,-528.47C1013,-514.21 914.84,-502.63 794,-502.63 673.16,-502.63 575,-514.21 575,-528.47"/>
<text text-anchor="start" x="629.5" y="-467.49" font-family="Arial" font-size="34.00" fill="#ffffff">Clean Text Blob Store</text>
<text text-anchor="start" x="604" y="-445.49" font-family="Arial" font-size="19.00" fill="#ffffff">[Container: WSL or NAS&#45;mounted filesystem]</text>
<text text-anchor="start" x="635.5" y="-408.49" font-family="Arial" font-size="24.00" fill="#ffffff">Filesystem store for snapshot</text>
<text text-anchor="start" x="687" y="-384.49" font-family="Arial" font-size="24.00" fill="#ffffff">text blobs under the</text>
<text text-anchor="start" x="644" y="-360.49" font-family="Arial" font-size="24.00" fill="#ffffff">configured WSL&#45;visible blob</text>
<text text-anchor="start" x="769.5" y="-336.49" font-family="Arial" font-size="24.00" fill="#ffffff">root.</text>
</g>
<!-- 14&#45;&gt;29 -->
<g id="45" class="edge">
<title>14&#45;&gt;29</title>
<path fill="none" stroke="#444444" stroke-dasharray="5,2" d="M790.42,-836.68C791.14,-751.04 792.02,-647.68 792.72,-564.51"/>
<polygon fill="#444444" stroke="#444444" points="796.22,-564.5 792.81,-554.47 789.22,-564.44 796.22,-564.5"/>
<text text-anchor="start" x="792" y="-757.17" font-family="Arial" font-size="24.00" fill="#444444">Reads and writes text</text>
<text text-anchor="start" x="840.5" y="-733.17" font-family="Arial" font-size="24.00" fill="#444444">snapshots in</text>
<text text-anchor="start" x="857" y="-713.17" font-family="Arial" font-size="19.00" fill="#444444">[Filesystem]</text>
</g>
<!-- 5 -->
<g id="5" class="node">
<title>5</title>
<polygon fill="#438dd5" stroke="#2e6295" points="750,-1653.75 316,-1653.75 316,-1374.75 750,-1374.75 750,-1653.75"/>
<text text-anchor="start" x="353" y="-1605.55" font-family="Arial" font-size="34.00" fill="#ffffff">Chrome MV3 Extension</text>
<text text-anchor="start" x="345" y="-1583.55" font-family="Arial" font-size="19.00" fill="#ffffff">[Container: JavaScript, Chrome Manifest V3]</text>
<text text-anchor="start" x="390" y="-1546.55" font-family="Arial" font-size="24.00" fill="#ffffff">Captures visible page text,</text>
<text text-anchor="start" x="415.5" y="-1522.55" font-family="Arial" font-size="24.00" fill="#ffffff">media references, tab</text>
<text text-anchor="start" x="424" y="-1498.55" font-family="Arial" font-size="24.00" fill="#ffffff">lifecycle events, and</text>
<text text-anchor="start" x="367" y="-1474.55" font-family="Arial" font-size="24.00" fill="#ffffff">browser&#45;side media bytes from</text>
<text text-anchor="start" x="362" y="-1450.55" font-family="Arial" font-size="24.00" fill="#ffffff">Windows Chrome; queues work</text>
<text text-anchor="start" x="374" y="-1426.55" font-family="Arial" font-size="24.00" fill="#ffffff">durably and posts to the WSL</text>
<text text-anchor="start" x="485.5" y="-1402.55" font-family="Arial" font-size="24.00" fill="#ffffff">daemon.</text>
</g>
<!-- 5&#45;&gt;2 -->
<g id="36" class="edge">
<title>5&#45;&gt;2</title>
<path fill="none" stroke="#444444" stroke-dasharray="5,2" d="M750.1,-1478.02C913.65,-1447.35 1119.96,-1398.48 1182,-1338.75 1237.97,-1284.87 1263.7,-1201.23 1275.44,-1131.36"/>
<polygon fill="#444444" stroke="#444444" points="1278.95,-1131.58 1277.08,-1121.16 1272.04,-1130.48 1278.95,-1131.58"/>
<text text-anchor="start" x="1291.5" y="-1308.55" font-family="Arial" font-size="24.00" fill="#444444">Uses tab, scripting,</text>
<text text-anchor="start" x="1250" y="-1284.55" font-family="Arial" font-size="24.00" fill="#444444">storage, alarms, debugger,</text>
<text text-anchor="start" x="1274.5" y="-1260.55" font-family="Arial" font-size="24.00" fill="#444444">and runtime APIs from</text>
<text text-anchor="start" x="1289.5" y="-1240.55" font-family="Arial" font-size="19.00" fill="#444444">[Chrome extension APIs]</text>
</g>
<!-- 5&#45;&gt;13 -->
<g id="38" class="edge">
<title>5&#45;&gt;13</title>
<path fill="none" stroke="#444444" stroke-dasharray="5,2" d="M328.42,-1374.6C318.91,-1363.27 310.31,-1351.32 303,-1338.75 278.44,-1296.52 265.26,-1246.26 258.64,-1197.78"/>
<polygon fill="#444444" stroke="#444444" points="262.1,-1197.26 257.36,-1187.78 255.16,-1198.15 262.1,-1197.26"/>
<text text-anchor="start" x="312.5" y="-1308.55" font-family="Arial" font-size="24.00" fill="#444444">Queues captures, lifecycle</text>
<text text-anchor="start" x="320.5" y="-1284.55" font-family="Arial" font-size="24.00" fill="#444444">events, media tasks, and</text>
<text text-anchor="start" x="412.5" y="-1260.55" font-family="Arial" font-size="24.00" fill="#444444">blobs in</text>
<text text-anchor="start" x="303" y="-1240.55" font-family="Arial" font-size="19.00" fill="#444444">[chrome.storage.local + IndexedDB]</text>
</g>
<!-- 5&#45;&gt;14 -->
<g id="39" class="edge">
<title>5&#45;&gt;14</title>
<path fill="none" stroke="#444444" stroke-dasharray="5,2" d="M603.12,-1374.46C632.89,-1315.54 667.95,-1246.14 699.56,-1183.59"/>
<polygon fill="#444444" stroke="#444444" points="702.81,-1184.92 704.19,-1174.42 696.56,-1181.76 702.81,-1184.92"/>
<text text-anchor="start" x="839.5" y="-1320.55" font-family="Arial" font-size="24.00" fill="#444444">Posts /capture,</text>
<text text-anchor="start" x="816.5" y="-1296.55" font-family="Arial" font-size="24.00" fill="#444444">/visit&#45;events, media</text>
<text text-anchor="start" x="793.5" y="-1272.55" font-family="Arial" font-size="24.00" fill="#444444">metadata, and raw blob</text>
<text text-anchor="start" x="864.5" y="-1248.55" font-family="Arial" font-size="24.00" fill="#444444">uploads to</text>
<text text-anchor="start" x="677" y="-1228.55" font-family="Arial" font-size="19.00" fill="#444444">[Bearer HTTP/JSON; raw HTTP PUT over 127.0.0.1:8765]</text>
</g>
</g>
</svg>
