<?xml version="1.0" encoding="UTF-8" standalone="no"?>
<!DOCTYPE svg PUBLIC "-//W3C//DTD SVG 1.1//EN"
 "http://www.w3.org/Graphics/SVG/1.1/DTD/svg11.dtd">
<!-- Generated by graphviz version 2.43.0 (0)
 -->
<!-- Title: %3 Pages: 1 -->
<svg width="3077pt" height="1838pt"
 viewBox="0.00 0.00 3077.00 1837.50" xmlns="http://www.w3.org/2000/svg" xmlns:xlink="http://www.w3.org/1999/xlink">
<g id="graph0" class="graph" transform="scale(1 1) rotate(0) translate(4 1833.5)">
<title>%3</title>
<polygon fill="white" stroke="transparent" points="-4,4 -4,-1833.5 3073,-1833.5 3073,4 -4,4"/>
<text text-anchor="start" x="1003" y="-11.8" font-family="Arial" font-size="34.00">Component View: Browser Memory Daemon &#45; Chrome MV3 Extension</text>
<g id="clust1" class="cluster">
<title>cluster_4</title>
<polygon fill="none" stroke="#444444" points="8,-312.5 8,-1821.5 3061,-1821.5 3061,-312.5 8,-312.5"/>
<text text-anchor="start" x="1393.5" y="-341.3" font-family="Arial" font-size="24.00" fill="#444444">Browser Memory Daemon</text>
<text text-anchor="start" x="1457.5" y="-321.3" font-family="Arial" font-size="19.00" fill="#444444">[Software System]</text>
</g>
<g id="clust2" class="cluster">
<title>cluster_5</title>
<polygon fill="none" stroke="#444444" points="33,-412.5 33,-1433.5 2205.5,-1433.5 2205.5,-412.5 33,-412.5"/>
<text text-anchor="start" x="991.25" y="-441.3" font-family="Arial" font-size="24.00" fill="#444444">Chrome MV3 Extension</text>
<text text-anchor="start" x="931.25" y="-421.3" font-family="Arial" font-size="19.00" fill="#444444">[Container: JavaScript, Chrome Manifest V3]</text>
</g>
<!-- 2 -->
<g id="2" class="node">
<title>2</title>
<polygon fill="#999999" stroke="#6b6b6b" points="453.5,-287 67.5,-287 67.5,-56 453.5,-56 453.5,-287"/>
<text text-anchor="start" x="126" y="-238.8" font-family="Arial" font-size="34.00" fill="#ffffff">Windows Chrome</text>
<text text-anchor="start" x="183.5" y="-216.8" font-family="Arial" font-size="19.00" fill="#ffffff">[Software System]</text>
<text text-anchor="start" x="96.5" y="-179.8" font-family="Arial" font-size="24.00" fill="#ffffff">The Windows Chrome runtime</text>
<text text-anchor="start" x="110" y="-155.8" font-family="Arial" font-size="24.00" fill="#ffffff">that loads web pages, hosts</text>
<text text-anchor="start" x="109.5" y="-131.8" font-family="Arial" font-size="24.00" fill="#ffffff">the MV3 extension, runs the</text>
<text text-anchor="start" x="101.5" y="-107.8" font-family="Arial" font-size="24.00" fill="#ffffff">local UI in a tab, and exposes</text>
<text text-anchor="start" x="131" y="-83.8" font-family="Arial" font-size="24.00" fill="#ffffff">Chrome extension APIs.</text>
</g>
<!-- 10 -->
<g id="10" class="node">
<title>10</title>
<polygon fill="#85bbf0" stroke="#1168bd" points="2180.5,-1095 1737.5,-1095 1737.5,-734 2180.5,-734 2180.5,-1095"/>
<text text-anchor="start" x="1794" y="-1046.8" font-family="Arial" font-size="34.00" fill="#000000">Capture and Lifecycle</text>
<text text-anchor="start" x="1904" y="-1012.8" font-family="Arial" font-size="34.00" fill="#000000">Outbox</text>
<text text-anchor="start" x="1797" y="-990.8" font-family="Arial" font-size="19.00" fill="#000000">[Component: JavaScript + IndexedDB]</text>
<text text-anchor="start" x="1802.5" y="-953.8" font-family="Arial" font-size="24.00" fill="#000000">Persists capture and lifecycle</text>
<text text-anchor="start" x="1808.5" y="-929.8" font-family="Arial" font-size="24.00" fill="#000000">messages as independently</text>
<text text-anchor="start" x="1783" y="-905.8" font-family="Arial" font-size="24.00" fill="#000000">sequenced IndexedDB rows with</text>
<text text-anchor="start" x="1923" y="-881.8" font-family="Arial" font-size="24.00" fill="#000000">atomic</text>
<text text-anchor="start" x="1766.5" y="-857.8" font-family="Arial" font-size="24.00" fill="#000000">enqueue/claim/checkpoint/ack/retry,</text>
<text text-anchor="start" x="1810" y="-833.8" font-family="Arial" font-size="24.00" fill="#000000">stale&#45;claim recovery, legacy</text>
<text text-anchor="start" x="1800.5" y="-809.8" font-family="Arial" font-size="24.00" fill="#000000">queue import, item admission</text>
<text text-anchor="start" x="1823" y="-785.8" font-family="Arial" font-size="24.00" fill="#000000">limits, and serialized&#45;byte</text>
<text text-anchor="start" x="1897" y="-761.8" font-family="Arial" font-size="24.00" fill="#000000">accounting.</text>
</g>
<!-- 14 -->
<g id="14" class="node">
<title>14</title>
<path fill="#2f95c8" stroke="#20688c" d="M3036,-1349.22C3036,-1375.79 2934.48,-1397.38 2809.5,-1397.38 2684.52,-1397.38 2583,-1375.79 2583,-1349.22 2583,-1349.22 2583,-915.78 2583,-915.78 2583,-889.21 2684.52,-867.62 2809.5,-867.62 2934.48,-867.62 3036,-889.21 3036,-915.78 3036,-915.78 3036,-1349.22 3036,-1349.22"/>
<path fill="none" stroke="#20688c" d="M3036,-1349.22C3036,-1322.64 2934.48,-1301.06 2809.5,-1301.06 2684.52,-1301.06 2583,-1322.64 2583,-1349.22"/>
<text text-anchor="start" x="2667.5" y="-1276.8" font-family="Arial" font-size="34.00" fill="#ffffff">Extension Browser</text>
<text text-anchor="start" x="2750" y="-1242.8" font-family="Arial" font-size="34.00" fill="#ffffff">Storage</text>
<text text-anchor="start" x="2612" y="-1220.8" font-family="Arial" font-size="19.00" fill="#ffffff">[Container: chrome.storage.local + IndexedDB]</text>
<text text-anchor="start" x="2632" y="-1183.8" font-family="Arial" font-size="24.00" fill="#ffffff">Browser&#45;side IndexedDB storage</text>
<text text-anchor="start" x="2723" y="-1159.8" font-family="Arial" font-size="24.00" fill="#ffffff">for transactional</text>
<text text-anchor="start" x="2654" y="-1135.8" font-family="Arial" font-size="24.00" fill="#ffffff">capture/lifecycle outbox rows</text>
<text text-anchor="start" x="2644" y="-1111.8" font-family="Arial" font-size="24.00" fill="#ffffff">plus specialized durable media</text>
<text text-anchor="start" x="2745.5" y="-1087.8" font-family="Arial" font-size="24.00" fill="#ffffff">tasks/blobs;</text>
<text text-anchor="start" x="2657" y="-1063.8" font-family="Arial" font-size="24.00" fill="#ffffff">chrome.storage.local retains</text>
<text text-anchor="start" x="2657.5" y="-1039.8" font-family="Arial" font-size="24.00" fill="#ffffff">typed configuration, lifecycle</text>
<text text-anchor="start" x="2701" y="-1015.8" font-family="Arial" font-size="24.00" fill="#ffffff">tab state, aggregate</text>
<text text-anchor="start" x="2666.5" y="-991.8" font-family="Arial" font-size="24.00" fill="#ffffff">telemetry, and one&#45;version</text>
<text text-anchor="start" x="2703" y="-967.8" font-family="Arial" font-size="24.00" fill="#ffffff">queue fallback only.</text>
</g>
<!-- 10&#45;&gt;14 -->
<g id="78" class="edge">
<title>10&#45;&gt;14</title>
<path fill="none" stroke="#444444" stroke-dasharray="5,2" d="M2180.72,-971.21C2301.19,-1002.16 2450.37,-1040.49 2573.07,-1072.01"/>
<polygon fill="#444444" stroke="#444444" points="2572.42,-1075.46 2582.98,-1074.56 2574.17,-1068.68 2572.42,-1075.46"/>
<polygon fill="white" stroke="transparent" points="2226,-1061.5 2226,-1160.5 2547,-1160.5 2547,-1061.5 2226,-1061.5"/>
<text text-anchor="start" x="2230.5" y="-1137.8" font-family="Arial" font-size="24.00" fill="#444444">Reads and writes sequenced</text>
<text text-anchor="start" x="2247.5" y="-1113.8" font-family="Arial" font-size="24.00" fill="#444444">capture/lifecycle rows and</text>
<text text-anchor="start" x="2270" y="-1089.8" font-family="Arial" font-size="24.00" fill="#444444">migration metadata in</text>
<text text-anchor="start" x="2334.5" y="-1069.8" font-family="Arial" font-size="19.00" fill="#444444">[IndexedDB]</text>
</g>
<!-- 13 -->
<g id="13" class="node">
<title>13</title>
<polygon fill="#85bbf0" stroke="#1168bd" points="457,-1408 64,-1408 64,-1201 457,-1201 457,-1408"/>
<text text-anchor="start" x="93" y="-1359.8" font-family="Arial" font-size="34.00" fill="#000000">Popup and Options UI</text>
<text text-anchor="start" x="128" y="-1337.8" font-family="Arial" font-size="19.00" fill="#000000">[Component: HTML/JavaScript]</text>
<text text-anchor="start" x="102" y="-1300.8" font-family="Arial" font-size="24.00" fill="#000000">Lets the operator view status,</text>
<text text-anchor="start" x="101" y="-1276.8" font-family="Arial" font-size="24.00" fill="#000000">pause/resume capture, select</text>
<text text-anchor="start" x="102.5" y="-1252.8" font-family="Arial" font-size="24.00" fill="#000000">policy mode, and trigger local</text>
<text text-anchor="start" x="111.5" y="-1228.8" font-family="Arial" font-size="24.00" fill="#000000">controls from the extension.</text>
</g>
<!-- 9 -->
<g id="9" class="node">
<title>9</title>
<polygon fill="#85bbf0" stroke="#1168bd" points="1334,-1379 896,-1379 896,-1100 1334,-1100 1334,-1379"/>
<text text-anchor="start" x="999" y="-1330.8" font-family="Arial" font-size="34.00" fill="#000000">Service Worker</text>
<text text-anchor="start" x="925" y="-1308.8" font-family="Arial" font-size="19.00" fill="#000000">[Component: JavaScript MV3 service worker]</text>
<text text-anchor="start" x="943.5" y="-1271.8" font-family="Arial" font-size="24.00" fill="#000000">Orchestrates daemon transport,</text>
<text text-anchor="start" x="984.5" y="-1247.8" font-family="Arial" font-size="24.00" fill="#000000">bearer token use, stable</text>
<text text-anchor="start" x="993.5" y="-1223.8" font-family="Arial" font-size="24.00" fill="#000000">observation/navigation</text>
<text text-anchor="start" x="994.5" y="-1199.8" font-family="Arial" font-size="24.00" fill="#000000">identity, lifecycle state,</text>
<text text-anchor="start" x="978.5" y="-1175.8" font-family="Arial" font-size="24.00" fill="#000000">outbox and media drains,</text>
<text text-anchor="start" x="974" y="-1151.8" font-family="Arial" font-size="24.00" fill="#000000">alarms, and CDP recorder</text>
<text text-anchor="start" x="1054.5" y="-1127.8" font-family="Arial" font-size="24.00" fill="#000000">integration.</text>
</g>
<!-- 13&#45;&gt;9 -->
<g id="87" class="edge">
<title>13&#45;&gt;9</title>
<path fill="none" stroke="#444444" stroke-dasharray="5,2" d="M442.25,-1200.87C460.97,-1193.43 480.08,-1187.08 499,-1182.5 624.83,-1152.07 768.76,-1163.02 885.73,-1183.09"/>
<polygon fill="#444444" stroke="#444444" points="885.44,-1186.59 895.89,-1184.86 886.64,-1179.69 885.44,-1186.59"/>
<polygon fill="white" stroke="transparent" points="499,-1182.5 499,-1281.5 860,-1281.5 860,-1182.5 499,-1182.5"/>
<text text-anchor="start" x="558" y="-1258.8" font-family="Arial" font-size="24.00" fill="#444444">Updates pause, policy,</text>
<text text-anchor="start" x="577.5" y="-1234.8" font-family="Arial" font-size="24.00" fill="#444444">token, and controls</text>
<text text-anchor="start" x="638.5" y="-1210.8" font-family="Arial" font-size="24.00" fill="#444444">through</text>
<text text-anchor="start" x="503.5" y="-1190.8" font-family="Arial" font-size="19.00" fill="#444444">[chrome.storage.local, runtime messages]</text>
</g>
<!-- 15 -->
<g id="15" class="node">
<title>15</title>
<polygon fill="#438dd5" stroke="#2e6295" points="2190,-1796 1728,-1796 1728,-1459 2190,-1459 2190,-1796"/>
<text text-anchor="start" x="1794.5" y="-1747.8" font-family="Arial" font-size="34.00" fill="#ffffff">WSL Loopback HTTP</text>
<text text-anchor="start" x="1894.5" y="-1713.8" font-family="Arial" font-size="34.00" fill="#ffffff">Daemon</text>
<text text-anchor="start" x="1757" y="-1691.8" font-family="Arial" font-size="19.00" fill="#ffffff">[Container: Python 3.11, ThreadingHTTPServer]</text>
<text text-anchor="start" x="1798" y="-1654.8" font-family="Arial" font-size="24.00" fill="#ffffff">Authenticated loopback HTTP</text>
<text text-anchor="start" x="1823" y="-1630.8" font-family="Arial" font-size="24.00" fill="#ffffff">API that handles capture,</text>
<text text-anchor="start" x="1819.5" y="-1606.8" font-family="Arial" font-size="24.00" fill="#ffffff">visit events, media artifact</text>
<text text-anchor="start" x="1822.5" y="-1582.8" font-family="Arial" font-size="24.00" fill="#ffffff">upload/fetch/purge, exact</text>
<text text-anchor="start" x="1919" y="-1558.8" font-family="Arial" font-size="24.00" fill="#ffffff">search,</text>
<text text-anchor="start" x="1810" y="-1534.8" font-family="Arial" font-size="24.00" fill="#ffffff">recent/timeline/detail, policy</text>
<text text-anchor="start" x="1807.5" y="-1510.8" font-family="Arial" font-size="24.00" fill="#ffffff">rules, doctor, durable forget,</text>
<text text-anchor="start" x="1846" y="-1486.8" font-family="Arial" font-size="24.00" fill="#ffffff">and static UI serving.</text>
</g>
<!-- 13&#45;&gt;15 -->
<g id="88" class="edge">
<title>13&#45;&gt;15</title>
<path fill="none" stroke="#444444" stroke-dasharray="5,2" d="M457.04,-1360.15C677.2,-1420.76 1046.48,-1516.27 1370,-1570.5 1483.55,-1589.53 1610.57,-1602.83 1717.42,-1611.77"/>
<polygon fill="#444444" stroke="#444444" points="1717.44,-1615.28 1727.7,-1612.62 1718.02,-1608.31 1717.44,-1615.28"/>
<polygon fill="white" stroke="transparent" points="966.5,-1561.5 966.5,-1636.5 1263.5,-1636.5 1263.5,-1561.5 966.5,-1561.5"/>
<text text-anchor="start" x="971" y="-1613.8" font-family="Arial" font-size="24.00" fill="#444444">Checks health and triggers</text>
<text text-anchor="start" x="991.5" y="-1589.8" font-family="Arial" font-size="24.00" fill="#444444">forget/policy actions on</text>
<text text-anchor="start" x="1057.5" y="-1569.8" font-family="Arial" font-size="19.00" fill="#444444">[HTTP/JSON]</text>
</g>
<!-- 6 -->
<g id="6" class="node">
<title>6</title>
<polygon fill="#85bbf0" stroke="#1168bd" points="463,-1129 58,-1129 58,-888 463,-888 463,-1129"/>
<text text-anchor="start" x="162.5" y="-1080.8" font-family="Arial" font-size="34.00" fill="#000000">Manifest and</text>
<text text-anchor="start" x="101" y="-1046.8" font-family="Arial" font-size="34.00" fill="#000000">Permission Envelope</text>
<text text-anchor="start" x="144.5" y="-1024.8" font-family="Arial" font-size="19.00" fill="#000000">[Component: manifest.json]</text>
<text text-anchor="start" x="87" y="-987.8" font-family="Arial" font-size="24.00" fill="#000000">Declares MV3 permissions, host</text>
<text text-anchor="start" x="108.5" y="-963.8" font-family="Arial" font-size="24.00" fill="#000000">permissions, service worker,</text>
<text text-anchor="start" x="157" y="-939.8" font-family="Arial" font-size="24.00" fill="#000000">popup, and options</text>
<text text-anchor="start" x="197.5" y="-915.8" font-family="Arial" font-size="24.00" fill="#000000">entrypoints.</text>
</g>
<!-- 7 -->
<g id="7" class="node">
<title>7</title>
<polygon fill="#85bbf0" stroke="#1168bd" points="1307.5,-792 922.5,-792 922.5,-537 1307.5,-537 1307.5,-792"/>
<text text-anchor="start" x="1046.5" y="-743.8" font-family="Arial" font-size="34.00" fill="#000000">Extractor</text>
<text text-anchor="start" x="1011" y="-721.8" font-family="Arial" font-size="19.00" fill="#000000">[Component: JavaScript]</text>
<text text-anchor="start" x="951.5" y="-684.8" font-family="Arial" font-size="24.00" fill="#000000">Traverses rendered light&#45;DOM</text>
<text text-anchor="start" x="961.5" y="-660.8" font-family="Arial" font-size="24.00" fill="#000000">text with computed&#45;style and</text>
<text text-anchor="start" x="979.5" y="-636.8" font-family="Arial" font-size="24.00" fill="#000000">ancestor visibility checks,</text>
<text text-anchor="start" x="995" y="-612.8" font-family="Arial" font-size="24.00" fill="#000000">discovers image/video</text>
<text text-anchor="start" x="968.5" y="-588.8" font-family="Arial" font-size="24.00" fill="#000000">references, and applies the</text>
<text text-anchor="start" x="998.5" y="-564.8" font-family="Arial" font-size="24.00" fill="#000000">selected policy mode.</text>
</g>
<!-- 8 -->
<g id="8" class="node">
<title>8</title>
<polygon fill="#85bbf0" stroke="#1168bd" points="453,-816 68,-816 68,-513 453,-513 453,-816"/>
<text text-anchor="start" x="152" y="-767.8" font-family="Arial" font-size="34.00" fill="#000000">Content Script</text>
<text text-anchor="start" x="97" y="-745.8" font-family="Arial" font-size="19.00" fill="#000000">[Component: JavaScript content script]</text>
<text text-anchor="start" x="120.5" y="-708.8" font-family="Arial" font-size="24.00" fill="#000000">Schedules initial, delayed,</text>
<text text-anchor="start" x="101.5" y="-684.8" font-family="Arial" font-size="24.00" fill="#000000">reinjected, and SPA captures;</text>
<text text-anchor="start" x="117.5" y="-660.8" font-family="Arial" font-size="24.00" fill="#000000">computes full deterministic</text>
<text text-anchor="start" x="122.5" y="-636.8" font-family="Arial" font-size="24.00" fill="#000000">SHA&#45;256 capture digests;</text>
<text text-anchor="start" x="134" y="-612.8" font-family="Arial" font-size="24.00" fill="#000000">tracks scroll; and sends</text>
<text text-anchor="start" x="98.5" y="-588.8" font-family="Arial" font-size="24.00" fill="#000000">capture and inline blob upload</text>
<text text-anchor="start" x="129.5" y="-564.8" font-family="Arial" font-size="24.00" fill="#000000">messages to the service</text>
<text text-anchor="start" x="221" y="-540.8" font-family="Arial" font-size="24.00" fill="#000000">worker.</text>
</g>
<!-- 8&#45;&gt;7 -->
<g id="75" class="edge">
<title>8&#45;&gt;7</title>
<path fill="none" stroke="#444444" stroke-dasharray="5,2" d="M453.08,-664.5C589.71,-664.5 773.06,-664.5 911.99,-664.5"/>
<polygon fill="#444444" stroke="#444444" points="912.33,-668 922.33,-664.5 912.33,-661 912.33,-668"/>
<polygon fill="white" stroke="transparent" points="547,-664.5 547,-724.5 812,-724.5 812,-664.5 547,-664.5"/>
<text text-anchor="start" x="551.5" y="-701.3" font-family="Arial" font-size="24.00" fill="#444444">Builds capture payloads</text>
<text text-anchor="start" x="658.5" y="-675.3" font-family="Arial" font-size="24.00" fill="#444444">with</text>
</g>
<!-- 8&#45;&gt;9 -->
<g id="76" class="edge">
<title>8&#45;&gt;9</title>
<path fill="none" stroke="#444444" stroke-dasharray="5,2" d="M453.08,-793.72C585.33,-882.92 761.35,-1001.64 898.49,-1094.14"/>
<polygon fill="#444444" stroke="#444444" points="896.8,-1097.22 907.05,-1099.91 900.72,-1091.42 896.8,-1097.22"/>
<polygon fill="white" stroke="transparent" points="536,-1053.5 536,-1128.5 823,-1128.5 823,-1053.5 536,-1053.5"/>
<text text-anchor="start" x="540.5" y="-1105.8" font-family="Arial" font-size="24.00" fill="#444444">Sends captures and inline</text>
<text text-anchor="start" x="637.5" y="-1081.8" font-family="Arial" font-size="24.00" fill="#444444">blobs to</text>
<text text-anchor="start" x="547" y="-1061.8" font-family="Arial" font-size="19.00" fill="#444444">[chrome.runtime.sendMessage]</text>
</g>
<!-- 9&#45;&gt;10 -->
<g id="77" class="edge">
<title>9&#45;&gt;10</title>
<path fill="none" stroke="#444444" stroke-dasharray="5,2" d="M1186.19,-1099.64C1229.01,-1030.65 1290.82,-954.12 1370,-915.5 1479.32,-862.18 1614.26,-858.27 1727.29,-869.34"/>
<polygon fill="#444444" stroke="#444444" points="1727.16,-872.84 1737.46,-870.38 1727.87,-865.88 1727.16,-872.84"/>
<polygon fill="white" stroke="transparent" points="1390,-915.5 1390,-1027.5 1672,-1027.5 1672,-915.5 1390,-915.5"/>
<text text-anchor="start" x="1433" y="-1004.3" font-family="Arial" font-size="24.00" fill="#444444">Enqueues, drains,</text>
<text text-anchor="start" x="1399.5" y="-978.3" font-family="Arial" font-size="24.00" fill="#444444">checkpoints, retries, and</text>
<text text-anchor="start" x="1394" y="-952.3" font-family="Arial" font-size="24.00" fill="#444444">recovers capture/lifecycle</text>
<text text-anchor="start" x="1460.5" y="-926.3" font-family="Arial" font-size="24.00" fill="#444444">work through</text>
</g>
<!-- 9&#45;&gt;14 -->
<g id="79" class="edge">
<title>9&#45;&gt;14</title>
<path fill="none" stroke="#444444" stroke-dasharray="5,2" d="M1334.26,-1239.1C1615.45,-1236.54 2119.03,-1225.06 2547,-1178.5 2555.4,-1177.59 2563.94,-1176.57 2572.55,-1175.46"/>
<polygon fill="#444444" stroke="#444444" points="2573.23,-1178.9 2582.69,-1174.13 2572.32,-1171.96 2573.23,-1178.9"/>
<polygon fill="white" stroke="transparent" points="1812,-1230.5 1812,-1377.5 2106,-1377.5 2106,-1230.5 1812,-1230.5"/>
<text text-anchor="start" x="1883" y="-1354.8" font-family="Arial" font-size="24.00" fill="#444444">Persists typed</text>
<text text-anchor="start" x="1840" y="-1330.8" font-family="Arial" font-size="24.00" fill="#444444">configuration, lifecycle</text>
<text text-anchor="start" x="1850.5" y="-1306.8" font-family="Arial" font-size="24.00" fill="#444444">tab state, aggregate</text>
<text text-anchor="start" x="1816" y="-1282.8" font-family="Arial" font-size="24.00" fill="#444444">telemetry, and one&#45;version</text>
<text text-anchor="start" x="1868" y="-1258.8" font-family="Arial" font-size="24.00" fill="#444444">queue fallback in</text>
<text text-anchor="start" x="1865.5" y="-1238.8" font-family="Arial" font-size="19.00" fill="#444444">[chrome.storage.local]</text>
</g>
<!-- 9&#45;&gt;15 -->
<g id="80" class="edge">
<title>9&#45;&gt;15</title>
<path fill="none" stroke="#444444" stroke-dasharray="5,2" d="M1334.22,-1310.09C1443.88,-1348.55 1577.45,-1400 1692,-1457.5 1700.91,-1461.97 1709.89,-1466.67 1718.9,-1471.53"/>
<polygon fill="#444444" stroke="#444444" points="1717.46,-1474.73 1727.91,-1476.45 1720.81,-1468.58 1717.46,-1474.73"/>
<polygon fill="white" stroke="transparent" points="1370,-1457.5 1370,-1556.5 1692,-1556.5 1692,-1457.5 1370,-1457.5"/>
<text text-anchor="start" x="1436.5" y="-1533.8" font-family="Arial" font-size="24.00" fill="#444444">Delivers /capture,</text>
<text text-anchor="start" x="1427" y="-1509.8" font-family="Arial" font-size="24.00" fill="#444444">/visit&#45;events, media</text>
<text text-anchor="start" x="1384.5" y="-1485.8" font-family="Arial" font-size="24.00" fill="#444444">metadata, and raw blobs to</text>
<text text-anchor="start" x="1374" y="-1465.8" font-family="Arial" font-size="19.00" fill="#444444">[Bearer HTTP/JSON; raw HTTP PUT]</text>
</g>
</g>
</svg>
