<?xml version="1.0" encoding="UTF-8" standalone="no"?>
<!DOCTYPE svg PUBLIC "-//W3C//DTD SVG 1.1//EN"
 "http://www.w3.org/Graphics/SVG/1.1/DTD/svg11.dtd">
<!-- Generated by graphviz version 2.43.0 (0)
 -->
<!-- Title: %3 Pages: 1 -->
<svg width="3814pt" height="2104pt"
 viewBox="0.00 0.00 3814.00 2103.69" xmlns="http://www.w3.org/2000/svg" xmlns:xlink="http://www.w3.org/1999/xlink">
<g id="graph0" class="graph" transform="scale(1 1) rotate(0) translate(4 2099.69)">
<title>%3</title>
<polygon fill="white" stroke="transparent" points="-4,4 -4,-2099.69 3810,-2099.69 3810,4 -4,4"/>
<text text-anchor="start" x="1345" y="-11.8" font-family="Arial" font-size="34.00">Browser Memory Daemon &#45; WSL Loopback HTTP Daemon &#45; Components</text>
<g id="clust1" class="cluster">
<title>cluster_23</title>
<polygon fill="none" stroke="#444444" points="8,-1586.69 8,-2087.69 3065,-2087.69 3065,-1586.69 8,-1586.69"/>
<text text-anchor="start" x="1371" y="-1615.49" font-family="Arial" font-size="24.00" fill="#444444">WSL Loopback HTTP Daemon</text>
<text text-anchor="start" x="1334.5" y="-1595.49" font-family="Arial" font-size="19.00" fill="#444444">[Container: Python 3.11, ThreadingHTTPServer]</text>
</g>
<!-- 57 -->
<g id="57" class="node">
<title>57</title>
<path fill="#2f95c8" stroke="#20688c" d="M3806,-1854.9C3806,-1873.2 3723.08,-1888.06 3621,-1888.06 3518.92,-1888.06 3436,-1873.2 3436,-1854.9 3436,-1854.9 3436,-1556.47 3436,-1556.47 3436,-1538.17 3518.92,-1523.31 3621,-1523.31 3723.08,-1523.31 3806,-1538.17 3806,-1556.47 3806,-1556.47 3806,-1854.9 3806,-1854.9"/>
<path fill="none" stroke="#20688c" d="M3806,-1854.9C3806,-1836.61 3723.08,-1821.74 3621,-1821.74 3518.92,-1821.74 3436,-1836.61 3436,-1854.9"/>
<text text-anchor="start" x="3508" y="-1789.99" font-family="Arial" font-size="34.00" fill="#ffffff">SQLite + FTS5</text>
<text text-anchor="start" x="3548" y="-1755.99" font-family="Arial" font-size="34.00" fill="#ffffff">Database</text>
<text text-anchor="start" x="3495" y="-1733.99" font-family="Arial" font-size="19.00" fill="#ffffff">[Container: SQLite with FTS5]</text>
<text text-anchor="start" x="3501.5" y="-1696.99" font-family="Arial" font-size="24.00" fill="#ffffff">Durable text/metadata</text>
<text text-anchor="start" x="3470" y="-1672.99" font-family="Arial" font-size="24.00" fill="#ffffff">authority including migration</text>
<text text-anchor="start" x="3465" y="-1648.99" font-family="Arial" font-size="24.00" fill="#ffffff">ledger, capture observations,</text>
<text text-anchor="start" x="3475" y="-1624.99" font-family="Arial" font-size="24.00" fill="#ffffff">and immutable observation</text>
<text text-anchor="start" x="3523" y="-1600.99" font-family="Arial" font-size="24.00" fill="#ffffff">ingest sequences.</text>
</g>
<!-- 58 -->
<g id="58" class="node">
<title>58</title>
<path fill="#2f95c8" stroke="#20688c" d="M2921,-1424.9C2921,-1443.2 2832.48,-1458.06 2723.5,-1458.06 2614.52,-1458.06 2526,-1443.2 2526,-1424.9 2526,-1424.9 2526,-1126.47 2526,-1126.47 2526,-1108.17 2614.52,-1093.31 2723.5,-1093.31 2832.48,-1093.31 2921,-1108.17 2921,-1126.47 2921,-1126.47 2921,-1424.9 2921,-1424.9"/>
<path fill="none" stroke="#20688c" d="M2921,-1424.9C2921,-1406.61 2832.48,-1391.74 2723.5,-1391.74 2614.52,-1391.74 2526,-1406.61 2526,-1424.9"/>
<text text-anchor="start" x="2602" y="-1359.99" font-family="Arial" font-size="34.00" fill="#ffffff">Local Derivative</text>
<text text-anchor="start" x="2682.5" y="-1325.99" font-family="Arial" font-size="34.00" fill="#ffffff">Store</text>
<text text-anchor="start" x="2583.5" y="-1303.99" font-family="Arial" font-size="19.00" fill="#ffffff">[Container: WSL local filesystem]</text>
<text text-anchor="start" x="2570" y="-1266.99" font-family="Arial" font-size="24.00" fill="#ffffff">Reconstructible compatibility</text>
<text text-anchor="start" x="2555" y="-1242.99" font-family="Arial" font-size="24.00" fill="#ffffff">evidence such as pre&#45;version&#45;9</text>
<text text-anchor="start" x="2593.5" y="-1218.99" font-family="Arial" font-size="24.00" fill="#ffffff">clean&#45;text sidecars; new</text>
<text text-anchor="start" x="2600" y="-1194.99" font-family="Arial" font-size="24.00" fill="#ffffff">captures create no text</text>
<text text-anchor="start" x="2675" y="-1170.99" font-family="Arial" font-size="24.00" fill="#ffffff">sidecars.</text>
</g>
<!-- 59 -->
<g id="59" class="node">
<title>59</title>
<path fill="#2f95c8" stroke="#20688c" d="M2995.5,-982.9C2995.5,-1004.51 2873.59,-1022.06 2723.5,-1022.06 2573.41,-1022.06 2451.5,-1004.51 2451.5,-982.9 2451.5,-982.9 2451.5,-630.47 2451.5,-630.47 2451.5,-608.86 2573.41,-591.31 2723.5,-591.31 2873.59,-591.31 2995.5,-608.86 2995.5,-630.47 2995.5,-630.47 2995.5,-982.9 2995.5,-982.9"/>
<path fill="none" stroke="#20688c" d="M2995.5,-982.9C2995.5,-961.3 2873.59,-943.74 2723.5,-943.74 2573.41,-943.74 2451.5,-961.3 2451.5,-982.9"/>
<text text-anchor="start" x="2568" y="-914.99" font-family="Arial" font-size="34.00" fill="#ffffff">Guarded Media Blob</text>
<text text-anchor="start" x="2674" y="-880.99" font-family="Arial" font-size="34.00" fill="#ffffff">Cache</text>
<text text-anchor="start" x="2480.5" y="-858.99" font-family="Arial" font-size="19.00" fill="#ffffff">[Container: WSL&#45;visible local or NAS&#45;mounted filesystem]</text>
<text text-anchor="start" x="2613.5" y="-821.99" font-family="Arial" font-size="24.00" fill="#ffffff">Bounded disposable</text>
<text text-anchor="start" x="2558" y="-797.99" font-family="Arial" font-size="24.00" fill="#ffffff">image/video/audio bytes under</text>
<text text-anchor="start" x="2582" y="-773.99" font-family="Arial" font-size="24.00" fill="#ffffff">the configured media root;</text>
<text text-anchor="start" x="2609.5" y="-749.99" font-family="Arial" font-size="24.00" fill="#ffffff">explicit external roots</text>
<text text-anchor="start" x="2624.5" y="-725.99" font-family="Arial" font-size="24.00" fill="#ffffff">require mount and</text>
<text text-anchor="start" x="2574" y="-701.99" font-family="Arial" font-size="24.00" fill="#ffffff">identity&#45;marker proof before</text>
<text text-anchor="start" x="2682.5" y="-677.99" font-family="Arial" font-size="24.00" fill="#ffffff">access.</text>
</g>
<!-- 60 -->
<g id="60" class="node">
<title>60</title>
<path fill="#2f95c8" stroke="#20688c" d="M2916.5,-477.4C2916.5,-500.67 2829.99,-519.56 2723.5,-519.56 2617.01,-519.56 2530.5,-500.67 2530.5,-477.4 2530.5,-477.4 2530.5,-97.97 2530.5,-97.97 2530.5,-74.71 2617.01,-55.81 2723.5,-55.81 2829.99,-55.81 2916.5,-74.71 2916.5,-97.97 2916.5,-97.97 2916.5,-477.4 2916.5,-477.4"/>
<path fill="none" stroke="#20688c" d="M2916.5,-477.4C2916.5,-454.14 2829.99,-435.24 2723.5,-435.24 2617.01,-435.24 2530.5,-454.14 2530.5,-477.4"/>
<text text-anchor="start" x="2559.5" y="-407.99" font-family="Arial" font-size="34.00" fill="#ffffff">Bounded Local Media</text>
<text text-anchor="start" x="2680" y="-373.99" font-family="Arial" font-size="34.00" fill="#ffffff">Spool</text>
<text text-anchor="start" x="2583.5" y="-351.99" font-family="Arial" font-size="19.00" fill="#ffffff">[Container: WSL local filesystem]</text>
<text text-anchor="start" x="2571.5" y="-314.99" font-family="Arial" font-size="24.00" fill="#ffffff">Opt&#45;in durable outage buffer</text>
<text text-anchor="start" x="2575" y="-290.99" font-family="Arial" font-size="24.00" fill="#ffffff">beneath the local WSL data</text>
<text text-anchor="start" x="2602" y="-266.99" font-family="Arial" font-size="24.00" fill="#ffffff">root; admission counts</text>
<text text-anchor="start" x="2578" y="-242.99" font-family="Arial" font-size="24.00" fill="#ffffff">committed files and distinct</text>
<text text-anchor="start" x="2571.5" y="-218.99" font-family="Arial" font-size="24.00" fill="#ffffff">in&#45;flight SQLite reservations,</text>
<text text-anchor="start" x="2598.5" y="-194.99" font-family="Arial" font-size="24.00" fill="#ffffff">and drain verifies bytes</text>
<text text-anchor="start" x="2576" y="-170.99" font-family="Arial" font-size="24.00" fill="#ffffff">before tier transition/source</text>
<text text-anchor="start" x="2677.5" y="-146.99" font-family="Arial" font-size="24.00" fill="#ffffff">cleanup.</text>
</g>
<!-- 24 -->
<g id="24" class="node">
<title>24</title>
<polygon fill="#85bbf0" stroke="#1168bd" points="527,-2062.19 33,-2062.19 33,-1687.19 527,-1687.19 527,-2062.19"/>
<text text-anchor="start" x="111.5" y="-2013.99" font-family="Arial" font-size="34.00" fill="#000000">HTTP Request Router</text>
<text text-anchor="start" x="62" y="-1991.99" font-family="Arial" font-size="19.00" fill="#000000">[Component: Python http.server + route descriptors]</text>
<text text-anchor="start" x="92.5" y="-1954.99" font-family="Arial" font-size="24.00" fill="#000000">Adapts BaseHTTPRequestHandler</text>
<text text-anchor="start" x="129.5" y="-1930.99" font-family="Arial" font-size="24.00" fill="#000000">requests through immutable</text>
<text text-anchor="start" x="125" y="-1906.99" font-family="Arial" font-size="24.00" fill="#000000">method/path descriptors with</text>
<text text-anchor="start" x="119.5" y="-1882.99" font-family="Arial" font-size="24.00" fill="#000000">static precedence; owns auth,</text>
<text text-anchor="start" x="174.5" y="-1858.99" font-family="Arial" font-size="24.00" fill="#000000">parsing, compatible</text>
<text text-anchor="start" x="155.5" y="-1834.99" font-family="Arial" font-size="24.00" fill="#000000">status/error responses,</text>
<text text-anchor="start" x="119.5" y="-1810.99" font-family="Arial" font-size="24.00" fill="#000000">request IDs, common security</text>
<text text-anchor="start" x="152" y="-1786.99" font-family="Arial" font-size="24.00" fill="#000000">headers, redaction&#45;safe</text>
<text text-anchor="start" x="123.5" y="-1762.99" font-family="Arial" font-size="24.00" fill="#000000">telemetry, bounded response</text>
<text text-anchor="start" x="113" y="-1738.99" font-family="Arial" font-size="24.00" fill="#000000">streaming, disconnect cleanup,</text>
<text text-anchor="start" x="132.5" y="-1714.99" font-family="Arial" font-size="24.00" fill="#000000">CORS, and finite UI assets.</text>
</g>
<!-- 25 -->
<g id="25" class="node">
<title>25</title>
<polygon fill="#85bbf0" stroke="#1168bd" points="1277,-2044.19 876,-2044.19 876,-1693.19 1277,-1693.19 1277,-2044.19"/>
<text text-anchor="start" x="905" y="-1995.99" font-family="Arial" font-size="34.00" fill="#000000">Application Use Cases</text>
<text text-anchor="start" x="987.5" y="-1973.99" font-family="Arial" font-size="19.00" fill="#000000">[Component: Python]</text>
<text text-anchor="start" x="914.5" y="-1936.99" font-family="Arial" font-size="24.00" fill="#000000">Provides request&#45;independent</text>
<text text-anchor="start" x="951.5" y="-1912.99" font-family="Arial" font-size="24.00" fill="#000000">capture, lifecycle, read,</text>
<text text-anchor="start" x="941.5" y="-1888.99" font-family="Arial" font-size="24.00" fill="#000000">forget, policy, doctor, and</text>
<text text-anchor="start" x="950.5" y="-1864.99" font-family="Arial" font-size="24.00" fill="#000000">media use cases; owns</text>
<text text-anchor="start" x="947.5" y="-1840.99" font-family="Arial" font-size="24.00" fill="#000000">database&#45;ready checks,</text>
<text text-anchor="start" x="920.5" y="-1816.99" font-family="Arial" font-size="24.00" fill="#000000">transaction/audit boundaries,</text>
<text text-anchor="start" x="924" y="-1792.99" font-family="Arial" font-size="24.00" fill="#000000">asynchronous media kickoff,</text>
<text text-anchor="start" x="910.5" y="-1768.99" font-family="Arial" font-size="24.00" fill="#000000">and upload/download resource</text>
<text text-anchor="start" x="911.5" y="-1744.99" font-family="Arial" font-size="24.00" fill="#000000">leases without importing HTTP</text>
<text text-anchor="start" x="932.5" y="-1720.99" font-family="Arial" font-size="24.00" fill="#000000">request or response types.</text>
</g>
<!-- 24&#45;&gt;25 -->
<g id="134" class="edge">
<title>24&#45;&gt;25</title>
<path fill="none" stroke="#707070" stroke-dasharray="5,2" d="M527.22,-1872.83C635.59,-1872.01 761.59,-1871.06 865.45,-1870.27"/>
<polygon fill="#707070" stroke="#707070" points="865.78,-1873.77 875.75,-1870.2 865.72,-1866.77 865.78,-1873.77"/>
<polygon fill="white" stroke="transparent" points="563,-1871.69 563,-1957.69 840,-1957.69 840,-1871.69 563,-1871.69"/>
<text text-anchor="start" x="620" y="-1934.49" font-family="Arial" font-size="24.00" fill="#707070">Invokes explicit</text>
<text text-anchor="start" x="567.5" y="-1908.49" font-family="Arial" font-size="24.00" fill="#707070">request&#45;independent use</text>
<text text-anchor="start" x="625.5" y="-1882.49" font-family="Arial" font-size="24.00" fill="#707070">cases through</text>
</g>
<!-- 44 -->
<g id="44" class="node">
<title>44</title>
<polygon fill="#85bbf0" stroke="#1168bd" points="2025,-1966.19 1636,-1966.19 1636,-1687.19 2025,-1687.19 2025,-1966.19"/>
<text text-anchor="start" x="1668.5" y="-1917.99" font-family="Arial" font-size="34.00" fill="#000000">Ops Doctor and Audit</text>
<text text-anchor="start" x="1702.5" y="-1895.99" font-family="Arial" font-size="19.00" fill="#000000">[Component: Python + sqlite3]</text>
<text text-anchor="start" x="1680" y="-1858.99" font-family="Arial" font-size="24.00" fill="#000000">Reports health, DB integrity,</text>
<text text-anchor="start" x="1712" y="-1834.99" font-family="Arial" font-size="24.00" fill="#000000">FTS consistency, blob</text>
<text text-anchor="start" x="1695" y="-1810.99" font-family="Arial" font-size="24.00" fill="#000000">lifecycle/pending deletion</text>
<text text-anchor="start" x="1676.5" y="-1786.99" font-family="Arial" font-size="24.00" fill="#000000">state, runtime paths, storage</text>
<text text-anchor="start" x="1678.5" y="-1762.99" font-family="Arial" font-size="24.00" fill="#000000">counts, media queue status,</text>
<text text-anchor="start" x="1665" y="-1738.99" font-family="Arial" font-size="24.00" fill="#000000">and writes metadata&#45;only audit</text>
<text text-anchor="start" x="1737.5" y="-1714.99" font-family="Arial" font-size="24.00" fill="#000000">events to SQLite.</text>
</g>
<!-- 25&#45;&gt;44 -->
<g id="146" class="edge">
<title>25&#45;&gt;44</title>
<path fill="none" stroke="#707070" stroke-dasharray="5,2" d="M1277.05,-1857.54C1384.75,-1851.53 1517.44,-1844.12 1625.77,-1838.07"/>
<polygon fill="#707070" stroke="#707070" points="1626.06,-1841.56 1635.85,-1837.5 1625.67,-1834.57 1626.06,-1841.56"/>
<polygon fill="white" stroke="transparent" points="1313,-1854.69 1313,-1914.69 1600,-1914.69 1600,-1854.69 1313,-1854.69"/>
<text text-anchor="start" x="1317.5" y="-1891.49" font-family="Arial" font-size="24.00" fill="#707070">Executes health and audit</text>
<text text-anchor="start" x="1386.5" y="-1865.49" font-family="Arial" font-size="24.00" fill="#707070">work through</text>
</g>
<!-- 40 -->
<g id="40" class="node">
<title>40</title>
<polygon fill="#85bbf0" stroke="#1168bd" points="3040,-2062.19 2407,-2062.19 2407,-1749.19 3040,-1749.19 3040,-2062.19"/>
<text text-anchor="start" x="2585" y="-2013.99" font-family="Arial" font-size="34.00" fill="#000000">Blob Lifecycle and</text>
<text text-anchor="start" x="2579" y="-1979.99" font-family="Arial" font-size="34.00" fill="#000000">Storage Reconciler</text>
<text text-anchor="start" x="2542" y="-1957.99" font-family="Arial" font-size="19.00" fill="#000000">[Component: Python + sqlite3 + filesystem]</text>
<text text-anchor="start" x="2680.5" y="-1920.99" font-family="Arial" font-size="24.00" fill="#000000">Persists</text>
<text text-anchor="start" x="2436" y="-1896.99" font-family="Arial" font-size="24.00" fill="#000000">committed/tombstoned/missing/deleted/blocked/failed</text>
<text text-anchor="start" x="2613.5" y="-1872.99" font-family="Arial" font-size="24.00" fill="#000000">blob state; serializes</text>
<text text-anchor="start" x="2577.5" y="-1848.99" font-family="Arial" font-size="24.00" fill="#000000">deletion processors; retries</text>
<text text-anchor="start" x="2591.5" y="-1824.99" font-family="Arial" font-size="24.00" fill="#000000">tombstones; and dry&#45;run</text>
<text text-anchor="start" x="2575" y="-1800.99" font-family="Arial" font-size="24.00" fill="#000000">detects missing refs, in&#45;root</text>
<text text-anchor="start" x="2581" y="-1776.99" font-family="Arial" font-size="24.00" fill="#000000">orphans, and stale stages.</text>
</g>
<!-- 40&#45;&gt;57 -->
<g id="176" class="edge">
<title>40&#45;&gt;57</title>
<path fill="none" stroke="#707070" stroke-dasharray="5,2" d="M3040.22,-1835.17C3168.9,-1806.43 3313.57,-1774.13 3426.2,-1748.97"/>
<polygon fill="#707070" stroke="#707070" points="3426.97,-1752.39 3435.97,-1746.79 3425.44,-1745.55 3426.97,-1752.39"/>
<polygon fill="white" stroke="transparent" points="3076,-1822.69 3076,-1897.69 3400,-1897.69 3400,-1822.69 3076,-1822.69"/>
<text text-anchor="start" x="3080" y="-1874.99" font-family="Arial" font-size="24.00" fill="#707070">Reads and advances durable</text>
<text text-anchor="start" x="3112" y="-1850.99" font-family="Arial" font-size="24.00" fill="#707070">blob lifecycle records in</text>
<text text-anchor="start" x="3204.5" y="-1830.99" font-family="Arial" font-size="19.00" fill="#707070">[sqlite3]</text>
</g>
<!-- 44&#45;&gt;57 -->
<g id="181" class="edge">
<title>44&#45;&gt;57</title>
<path fill="none" stroke="#707070" stroke-dasharray="5,2" d="M2025.14,-1746.47C2135.03,-1705.29 2276.34,-1659.49 2407,-1638.69 2763.44,-1581.94 3185.37,-1631 3425.96,-1669.77"/>
<polygon fill="#707070" stroke="#707070" points="3425.43,-1673.23 3435.86,-1671.37 3426.55,-1666.32 3425.43,-1673.23"/>
<polygon fill="white" stroke="transparent" points="2609.5,-1638.69 2609.5,-1713.69 2837.5,-1713.69 2837.5,-1638.69 2609.5,-1638.69"/>
<text text-anchor="start" x="2613.5" y="-1690.99" font-family="Arial" font-size="24.00" fill="#707070">Checks integrity and</text>
<text text-anchor="start" x="2675" y="-1666.99" font-family="Arial" font-size="24.00" fill="#707070">counts in</text>
<text text-anchor="start" x="2690" y="-1646.99" font-family="Arial" font-size="19.00" fill="#707070">[sqlite3]</text>
</g>
<!-- 44&#45;&gt;58 -->
<g id="183" class="edge">
<title>44&#45;&gt;58</title>
<path fill="none" stroke="#707070" stroke-dasharray="5,2" d="M1900.86,-1687.03C1939.89,-1620.91 1994.25,-1545.67 2061,-1495.69 2194.74,-1395.52 2376.63,-1339.41 2515.83,-1308.97"/>
<polygon fill="#707070" stroke="#707070" points="2516.74,-1312.35 2525.77,-1306.82 2515.26,-1305.51 2516.74,-1312.35"/>
<polygon fill="white" stroke="transparent" points="2087,-1495.69 2087,-1546.69 2345,-1546.69 2345,-1495.69 2087,-1495.69"/>
<text text-anchor="start" x="2091" y="-1523.99" font-family="Arial" font-size="24.00" fill="#707070">Counts text blob files in</text>
<text text-anchor="start" x="2164.5" y="-1503.99" font-family="Arial" font-size="19.00" fill="#707070">[Filesystem]</text>
</g>
<!-- 44&#45;&gt;59 -->
<g id="184" class="edge">
<title>44&#45;&gt;59</title>
<path fill="none" stroke="#707070" stroke-dasharray="5,2" d="M1866.78,-1687.16C1901.68,-1569.42 1964.07,-1401.12 2061,-1279.69 2164.64,-1149.85 2312.75,-1039.44 2442.57,-958.03"/>
<polygon fill="#707070" stroke="#707070" points="2444.46,-960.98 2451.09,-952.71 2440.75,-955.04 2444.46,-960.98"/>
<polygon fill="white" stroke="transparent" points="2073.5,-1279.69 2073.5,-1330.69 2358.5,-1330.69 2358.5,-1279.69 2073.5,-1279.69"/>
<text text-anchor="start" x="2078" y="-1307.99" font-family="Arial" font-size="24.00" fill="#707070">Counts media blob files in</text>
<text text-anchor="start" x="2165" y="-1287.99" font-family="Arial" font-size="19.00" fill="#707070">[Filesystem]</text>
</g>
<!-- 44&#45;&gt;60 -->
<g id="185" class="edge">
<title>44&#45;&gt;60</title>
<path fill="none" stroke="#707070" stroke-dasharray="5,2" d="M1842.37,-1687.09C1862.2,-1497.56 1916.55,-1153.28 2061,-898.69 2173.25,-700.85 2371.59,-530.52 2521.9,-420.35"/>
<polygon fill="#707070" stroke="#707070" points="2524.36,-422.88 2530.37,-414.16 2520.23,-417.23 2524.36,-422.88"/>
<polygon fill="white" stroke="transparent" points="2071,-898.69 2071,-997.69 2361,-997.69 2361,-898.69 2071,-898.69"/>
<text text-anchor="start" x="2080.5" y="-974.99" font-family="Arial" font-size="24.00" fill="#707070">Reports filesystem bytes,</text>
<text text-anchor="start" x="2075" y="-950.99" font-family="Arial" font-size="24.00" fill="#707070">reservations, and capacity</text>
<text text-anchor="start" x="2201.5" y="-926.99" font-family="Arial" font-size="24.00" fill="#707070">for</text>
<text text-anchor="start" x="2164.5" y="-906.99" font-family="Arial" font-size="19.00" fill="#707070">[Filesystem]</text>
</g>
<!-- 44&#45;&gt;40 -->
<g id="182" class="edge">
<title>44&#45;&gt;40</title>
<path fill="none" stroke="#707070" stroke-dasharray="5,2" d="M2025.11,-1843.85C2133.63,-1853.48 2271.85,-1865.73 2396.58,-1876.79"/>
<polygon fill="#707070" stroke="#707070" points="2396.41,-1880.29 2406.68,-1877.69 2397.03,-1873.32 2396.41,-1880.29"/>
<polygon fill="white" stroke="transparent" points="2061,-1872.69 2061,-1932.69 2371,-1932.69 2371,-1872.69 2061,-1872.69"/>
<text text-anchor="start" x="2065" y="-1909.49" font-family="Arial" font-size="24.00" fill="#707070">Reads pending deletion and</text>
<text text-anchor="start" x="2109" y="-1883.49" font-family="Arial" font-size="24.00" fill="#707070">lifecycle health from</text>
</g>
</g>
</svg>
