<?xml version="1.0" encoding="UTF-8" standalone="no"?>
<!DOCTYPE svg PUBLIC "-//W3C//DTD SVG 1.1//EN"
 "http://www.w3.org/Graphics/SVG/1.1/DTD/svg11.dtd">
<!-- Generated by graphviz version 2.43.0 (0)
 -->
<!-- Title: %3 Pages: 1 -->
<svg width="2250pt" height="1441pt"
 viewBox="0.00 0.00 2250.00 1441.38" xmlns="http://www.w3.org/2000/svg" xmlns:xlink="http://www.w3.org/1999/xlink">
<g id="graph0" class="graph" transform="scale(1 1) rotate(0) translate(4 1437.38)">
<title>%3</title>
<polygon fill="white" stroke="transparent" points="-4,4 -4,-1437.38 2246,-1437.38 2246,4 -4,4"/>
<text text-anchor="start" x="589.5" y="-11.8" font-family="Arial" font-size="34.00">Component View: Browser Memory Daemon &#45; Chrome MV3 Extension</text>
<g id="clust1" class="cluster">
<title>cluster_4</title>
<polygon fill="none" stroke="#444444" points="8,-64 8,-1425.38 1831,-1425.38 1831,-64 8,-64"/>
<text text-anchor="start" x="778.5" y="-92.8" font-family="Arial" font-size="24.00" fill="#444444">Browser Memory Daemon</text>
<text text-anchor="start" x="842.5" y="-72.8" font-family="Arial" font-size="19.00" fill="#444444">[Software System]</text>
</g>
<g id="clust2" class="cluster">
<title>cluster_5</title>
<polygon fill="none" stroke="#444444" points="433,-647.38 433,-1400.38 1365,-1400.38 1365,-647.38 433,-647.38"/>
<text text-anchor="start" x="771" y="-676.17" font-family="Arial" font-size="24.00" fill="#444444">Chrome MV3 Extension</text>
<text text-anchor="start" x="711" y="-656.17" font-family="Arial" font-size="19.00" fill="#444444">[Container: JavaScript, Chrome Manifest V3]</text>
</g>
<!-- 2 -->
<g id="2" class="node">
<title>2</title>
<polygon fill="#999999" stroke="#6b6b6b" points="2242,-461.69 1856,-461.69 1856,-230.69 2242,-230.69 2242,-461.69"/>
<text text-anchor="start" x="1914.5" y="-413.49" font-family="Arial" font-size="34.00" fill="#ffffff">Windows Chrome</text>
<text text-anchor="start" x="1972" y="-391.49" font-family="Arial" font-size="19.00" fill="#ffffff">[Software System]</text>
<text text-anchor="start" x="1885" y="-354.49" font-family="Arial" font-size="24.00" fill="#ffffff">The Windows Chrome runtime</text>
<text text-anchor="start" x="1898.5" y="-330.49" font-family="Arial" font-size="24.00" fill="#ffffff">that loads web pages, hosts</text>
<text text-anchor="start" x="1898" y="-306.49" font-family="Arial" font-size="24.00" fill="#ffffff">the MV3 extension, runs the</text>
<text text-anchor="start" x="1890" y="-282.49" font-family="Arial" font-size="24.00" fill="#ffffff">local UI in a tab, and exposes</text>
<text text-anchor="start" x="1919.5" y="-258.49" font-family="Arial" font-size="24.00" fill="#ffffff">Chrome extension APIs.</text>
</g>
<!-- 10 -->
<g id="10" class="node">
<title>10</title>
<polygon fill="#85bbf0" stroke="#1168bd" points="854,-1012.38 458,-1012.38 458,-747.38 854,-747.38 854,-1012.38"/>
<text text-anchor="start" x="487" y="-964.17" font-family="Arial" font-size="34.00" fill="#000000">Browser Media Queue</text>
<text text-anchor="start" x="596.5" y="-930.17" font-family="Arial" font-size="34.00" fill="#000000">Adapter</text>
<text text-anchor="start" x="494" y="-908.17" font-family="Arial" font-size="19.00" fill="#000000">[Component: JavaScript + IndexedDB]</text>
<text text-anchor="start" x="521.5" y="-871.17" font-family="Arial" font-size="24.00" fill="#000000">Persists media tasks and</text>
<text text-anchor="start" x="492" y="-847.17" font-family="Arial" font-size="24.00" fill="#000000">fetched blobs in IndexedDB so</text>
<text text-anchor="start" x="550" y="-823.17" font-family="Arial" font-size="24.00" fill="#000000">browser&#45;side media</text>
<text text-anchor="start" x="497" y="-799.17" font-family="Arial" font-size="24.00" fill="#000000">fetch/upload can survive MV3</text>
<text text-anchor="start" x="551.5" y="-775.17" font-family="Arial" font-size="24.00" fill="#000000">worker suspension.</text>
</g>
<!-- 13 -->
<g id="13" class="node">
<title>13</title>
<path fill="#2f95c8" stroke="#20688c" d="M775.5,-495.4C775.5,-513.7 673.98,-528.56 549,-528.56 424.02,-528.56 322.5,-513.7 322.5,-495.4 322.5,-495.4 322.5,-196.97 322.5,-196.97 322.5,-178.67 424.02,-163.81 549,-163.81 673.98,-163.81 775.5,-178.67 775.5,-196.97 775.5,-196.97 775.5,-495.4 775.5,-495.4"/>
<path fill="none" stroke="#20688c" d="M775.5,-495.4C775.5,-477.11 673.98,-462.24 549,-462.24 424.02,-462.24 322.5,-477.11 322.5,-495.4"/>
<text text-anchor="start" x="407" y="-430.49" font-family="Arial" font-size="34.00" fill="#ffffff">Extension Browser</text>
<text text-anchor="start" x="489.5" y="-396.49" font-family="Arial" font-size="34.00" fill="#ffffff">Storage</text>
<text text-anchor="start" x="351.5" y="-374.49" font-family="Arial" font-size="19.00" fill="#ffffff">[Container: chrome.storage.local + IndexedDB]</text>
<text text-anchor="start" x="416.5" y="-337.49" font-family="Arial" font-size="24.00" fill="#ffffff">Browser&#45;side storage for</text>
<text text-anchor="start" x="404.5" y="-313.49" font-family="Arial" font-size="24.00" fill="#ffffff">capture and visit queues in</text>
<text text-anchor="start" x="410.5" y="-289.49" font-family="Arial" font-size="24.00" fill="#ffffff">chrome.storage.local plus</text>
<text text-anchor="start" x="416.5" y="-265.49" font-family="Arial" font-size="24.00" fill="#ffffff">durable media tasks and</text>
<text text-anchor="start" x="397.5" y="-241.49" font-family="Arial" font-size="24.00" fill="#ffffff">fetched blobs in IndexedDB.</text>
</g>
<!-- 10&#45;&gt;13 -->
<g id="54" class="edge">
<title>10&#45;&gt;13</title>
<path fill="none" stroke="#444444" stroke-dasharray="5,2" d="M629.48,-747.11C616.83,-684.23 601.45,-607.8 587.54,-538.67"/>
<polygon fill="#444444" stroke="#444444" points="590.9,-537.64 585.49,-528.53 584.04,-539.02 590.9,-537.64"/>
<polygon fill="white" stroke="transparent" points="606,-564.38 606,-639.38 874,-639.38 874,-564.38 606,-564.38"/>
<text text-anchor="start" x="610" y="-616.67" font-family="Arial" font-size="24.00" fill="#444444">Reads and writes media</text>
<text text-anchor="start" x="666.5" y="-592.67" font-family="Arial" font-size="24.00" fill="#444444">tasks/blobs in</text>
<text text-anchor="start" x="687.5" y="-572.67" font-family="Arial" font-size="19.00" fill="#444444">[IndexedDB]</text>
</g>
<!-- 11 -->
<g id="11" class="node">
<title>11</title>
<polygon fill="#85bbf0" stroke="#1168bd" points="1339.5,-1007.38 926.5,-1007.38 926.5,-752.38 1339.5,-752.38 1339.5,-1007.38"/>
<text text-anchor="start" x="1022.5" y="-959.17" font-family="Arial" font-size="34.00" fill="#000000">CDP Recorder</text>
<text text-anchor="start" x="960.5" y="-937.17" font-family="Arial" font-size="19.00" fill="#000000">[Component: Chrome DevTools Protocol]</text>
<text text-anchor="start" x="990" y="-900.17" font-family="Arial" font-size="24.00" fill="#000000">Uses chrome.debugger on</text>
<text text-anchor="start" x="986" y="-876.17" font-family="Arial" font-size="24.00" fill="#000000">configured X/Twitter tabs to</text>
<text text-anchor="start" x="972" y="-852.17" font-family="Arial" font-size="24.00" fill="#000000">capture video.twimg.com HLS</text>
<text text-anchor="start" x="965" y="-828.17" font-family="Arial" font-size="24.00" fill="#000000">manifests and media segments</text>
<text text-anchor="start" x="955.5" y="-804.17" font-family="Arial" font-size="24.00" fill="#000000">before they become opaque blob</text>
<text text-anchor="start" x="1063" y="-780.17" font-family="Arial" font-size="24.00" fill="#000000">player URLs.</text>
</g>
<!-- 11&#45;&gt;2 -->
<g id="57" class="edge">
<title>11&#45;&gt;2</title>
<path fill="none" stroke="#444444" stroke-dasharray="5,2" d="M1216.07,-752.19C1250.32,-710.96 1293.81,-670.02 1344,-647.38 1369.58,-635.84 1824.28,-652.66 1849,-639.38 1916.22,-603.24 1965.28,-533.44 1997.98,-471.12"/>
<polygon fill="#444444" stroke="#444444" points="2001.22,-472.48 2002.69,-461.99 1995,-469.28 2001.22,-472.48"/>
<polygon fill="white" stroke="transparent" points="1935,-564.38 1935,-639.38 2216,-639.38 2216,-564.38 1935,-564.38"/>
<text text-anchor="start" x="1939.5" y="-616.67" font-family="Arial" font-size="24.00" fill="#444444">Receives Network events</text>
<text text-anchor="start" x="2051.5" y="-592.67" font-family="Arial" font-size="24.00" fill="#444444">from</text>
<text text-anchor="start" x="1974" y="-572.67" font-family="Arial" font-size="19.00" fill="#444444">[chrome.debugger/CDP]</text>
</g>
<!-- 14 -->
<g id="14" class="node">
<title>14</title>
<polygon fill="#438dd5" stroke="#2e6295" points="1482,-514.69 1020,-514.69 1020,-177.69 1482,-177.69 1482,-514.69"/>
<text text-anchor="start" x="1086.5" y="-466.49" font-family="Arial" font-size="34.00" fill="#ffffff">WSL Loopback HTTP</text>
<text text-anchor="start" x="1186.5" y="-432.49" font-family="Arial" font-size="34.00" fill="#ffffff">Daemon</text>
<text text-anchor="start" x="1049" y="-410.49" font-family="Arial" font-size="19.00" fill="#ffffff">[Container: Python 3.11, ThreadingHTTPServer]</text>
<text text-anchor="start" x="1090" y="-373.49" font-family="Arial" font-size="24.00" fill="#ffffff">Authenticated loopback HTTP</text>
<text text-anchor="start" x="1115" y="-349.49" font-family="Arial" font-size="24.00" fill="#ffffff">API that handles capture,</text>
<text text-anchor="start" x="1111.5" y="-325.49" font-family="Arial" font-size="24.00" fill="#ffffff">visit events, media artifact</text>
<text text-anchor="start" x="1114.5" y="-301.49" font-family="Arial" font-size="24.00" fill="#ffffff">upload/fetch/purge, exact</text>
<text text-anchor="start" x="1211" y="-277.49" font-family="Arial" font-size="24.00" fill="#ffffff">search,</text>
<text text-anchor="start" x="1102" y="-253.49" font-family="Arial" font-size="24.00" fill="#ffffff">recent/timeline/detail, policy</text>
<text text-anchor="start" x="1120" y="-229.49" font-family="Arial" font-size="24.00" fill="#ffffff">rules, doctor, forget, and</text>
<text text-anchor="start" x="1161.5" y="-205.49" font-family="Arial" font-size="24.00" fill="#ffffff">static UI serving.</text>
</g>
<!-- 11&#45;&gt;14 -->
<g id="58" class="edge">
<title>11&#45;&gt;14</title>
<path fill="none" stroke="#444444" stroke-dasharray="5,2" d="M1118.87,-751.99C1115.99,-693.97 1117.64,-624.83 1133,-564.38 1136.38,-551.07 1140.76,-537.7 1145.83,-524.49"/>
<polygon fill="#444444" stroke="#444444" points="1149.2,-525.49 1149.64,-514.9 1142.7,-522.9 1149.2,-525.49"/>
<polygon fill="white" stroke="transparent" points="1133,-564.38 1133,-639.38 1465,-639.38 1465,-564.38 1133,-564.38"/>
<text text-anchor="start" x="1137" y="-616.67" font-family="Arial" font-size="24.00" fill="#444444">Uploads CDP media rows and</text>
<text text-anchor="start" x="1256.5" y="-592.67" font-family="Arial" font-size="24.00" fill="#444444">blobs to</text>
<text text-anchor="start" x="1142" y="-572.67" font-family="Arial" font-size="19.00" fill="#444444">[Bearer HTTP/JSON; raw HTTP PUT]</text>
</g>
<!-- 9 -->
<g id="9" class="node">
<title>9</title>
<polygon fill="#85bbf0" stroke="#1168bd" points="1117,-1375.38 679,-1375.38 679,-1144.38 1117,-1144.38 1117,-1375.38"/>
<text text-anchor="start" x="782" y="-1327.17" font-family="Arial" font-size="34.00" fill="#000000">Service Worker</text>
<text text-anchor="start" x="708" y="-1305.17" font-family="Arial" font-size="19.00" fill="#000000">[Component: JavaScript MV3 service worker]</text>
<text text-anchor="start" x="726.5" y="-1268.17" font-family="Arial" font-size="24.00" fill="#000000">Owns daemon transport, bearer</text>
<text text-anchor="start" x="750.5" y="-1244.17" font-family="Arial" font-size="24.00" fill="#000000">token use, capture and visit</text>
<text text-anchor="start" x="739" y="-1220.17" font-family="Arial" font-size="24.00" fill="#000000">queues, lifecycle state, media</text>
<text text-anchor="start" x="762" y="-1196.17" font-family="Arial" font-size="24.00" fill="#000000">queue draining, and CDP</text>
<text text-anchor="start" x="775.5" y="-1172.17" font-family="Arial" font-size="24.00" fill="#000000">recorder orchestration.</text>
</g>
<!-- 9&#45;&gt;10 -->
<g id="53" class="edge">
<title>9&#45;&gt;10</title>
<path fill="none" stroke="#444444" stroke-dasharray="5,2" d="M716.18,-1144.2C705.95,-1133.03 696.71,-1121.09 689,-1108.38 673.42,-1082.7 664.15,-1052.47 658.82,-1022.57"/>
<polygon fill="#444444" stroke="#444444" points="662.24,-1021.75 657.17,-1012.45 655.33,-1022.88 662.24,-1021.75"/>
<polygon fill="white" stroke="transparent" points="689,-1048.38 689,-1108.38 976,-1108.38 976,-1048.38 689,-1048.38"/>
<text text-anchor="start" x="693.5" y="-1085.17" font-family="Arial" font-size="24.00" fill="#444444">Persists and drains media</text>
<text text-anchor="start" x="762.5" y="-1059.17" font-family="Arial" font-size="24.00" fill="#444444">work through</text>
</g>
<!-- 9&#45;&gt;11 -->
<g id="55" class="edge">
<title>9&#45;&gt;11</title>
<path fill="none" stroke="#444444" stroke-dasharray="5,2" d="M969.31,-1144.18C994.39,-1103.84 1022.81,-1058.12 1048.85,-1016.23"/>
<polygon fill="#444444" stroke="#444444" points="1051.89,-1017.97 1054.2,-1007.63 1045.94,-1014.28 1051.89,-1017.97"/>
<polygon fill="white" stroke="transparent" points="1022,-1048.38 1022,-1108.38 1242,-1108.38 1242,-1048.38 1022,-1048.38"/>
<text text-anchor="start" x="1026" y="-1085.17" font-family="Arial" font-size="24.00" fill="#444444">Detects CDP media</text>
<text text-anchor="start" x="1048.5" y="-1059.17" font-family="Arial" font-size="24.00" fill="#444444">candidates with</text>
</g>
<!-- 9&#45;&gt;13 -->
<g id="51" class="edge">
<title>9&#45;&gt;13</title>
<path fill="none" stroke="#444444" stroke-dasharray="5,2" d="M678.81,-1217.11C478.91,-1174.04 205.2,-1100.8 141,-1012.38 45.69,-881.1 67.79,-792.14 141,-647.38 178.95,-572.34 245.46,-511.48 313.91,-464.68"/>
<polygon fill="#444444" stroke="#444444" points="315.94,-467.53 322.27,-459.04 312.02,-461.73 315.94,-467.53"/>
<polygon fill="white" stroke="transparent" points="141,-823.88 141,-935.88 422,-935.88 422,-823.88 141,-823.88"/>
<text text-anchor="start" x="176.5" y="-912.67" font-family="Arial" font-size="24.00" fill="#444444">Queues captures in</text>
<text text-anchor="start" x="145.5" y="-886.67" font-family="Arial" font-size="24.00" fill="#444444">chrome.storage.local and</text>
<text text-anchor="start" x="172" y="-860.67" font-family="Arial" font-size="24.00" fill="#444444">media tasks/blobs in</text>
<text text-anchor="start" x="222" y="-834.67" font-family="Arial" font-size="24.00" fill="#444444">IndexedDB</text>
</g>
<!-- 9&#45;&gt;14 -->
<g id="52" class="edge">
<title>9&#45;&gt;14</title>
<path fill="none" stroke="#444444" stroke-dasharray="5,2" d="M1117.09,-1200.17C1213.04,-1162.69 1317.02,-1103.5 1376,-1012.38 1487.01,-840.86 1559.47,-752.17 1479,-564.38 1472.95,-550.26 1465.48,-536.62 1456.98,-523.53"/>
<polygon fill="#444444" stroke="#444444" points="1459.73,-521.36 1451.25,-515.01 1453.93,-525.26 1459.73,-521.36"/>
<polygon fill="white" stroke="transparent" points="1513,-830.38 1513,-929.38 1835,-929.38 1835,-830.38 1513,-830.38"/>
<text text-anchor="start" x="1579.5" y="-906.67" font-family="Arial" font-size="24.00" fill="#444444">Delivers /capture,</text>
<text text-anchor="start" x="1570" y="-882.67" font-family="Arial" font-size="24.00" fill="#444444">/visit&#45;events, media</text>
<text text-anchor="start" x="1527.5" y="-858.67" font-family="Arial" font-size="24.00" fill="#444444">metadata, and raw blobs to</text>
<text text-anchor="start" x="1517" y="-838.67" font-family="Arial" font-size="19.00" fill="#444444">[Bearer HTTP/JSON; raw HTTP PUT]</text>
</g>
</g>
</svg>
