<?xml version="1.0" encoding="UTF-8" standalone="no"?>
<!DOCTYPE svg PUBLIC "-//W3C//DTD SVG 1.1//EN"
 "http://www.w3.org/Graphics/SVG/1.1/DTD/svg11.dtd">
<!-- Generated by graphviz version 2.43.0 (0)
 -->
<!-- Title: %3 Pages: 1 -->
<svg width="2445pt" height="1552pt"
 viewBox="0.00 0.00 2445.00 1551.50" xmlns="http://www.w3.org/2000/svg" xmlns:xlink="http://www.w3.org/1999/xlink">
<g id="graph0" class="graph" transform="scale(1 1) rotate(0) translate(4 1547.5)">
<title>%3</title>
<polygon fill="white" stroke="transparent" points="-4,4 -4,-1547.5 2441,-1547.5 2441,4 -4,4"/>
<text text-anchor="start" x="903" y="-11.8" font-family="Arial" font-size="34.00">Dynamic View: Browser Memory Daemon</text>
<g id="clust1" class="cluster">
<title>cluster_4</title>
<polygon fill="none" stroke="#444444" points="8,-346.5 8,-1535.5 2429,-1535.5 2429,-346.5 8,-346.5"/>
<text text-anchor="start" x="1077.5" y="-375.3" font-family="Arial" font-size="24.00" fill="#444444">Browser Memory Daemon</text>
<text text-anchor="start" x="1141.5" y="-355.3" font-family="Arial" font-size="19.00" fill="#444444">[Software System]</text>
</g>
<!-- 21 -->
<g id="21" class="node">
<title>21</title>
<path fill="#2f95c8" stroke="#20688c" d="M1491.5,-957.72C1491.5,-985.94 1389.98,-1008.88 1265,-1008.88 1140.02,-1008.88 1038.5,-985.94 1038.5,-957.72 1038.5,-957.72 1038.5,-497.28 1038.5,-497.28 1038.5,-469.06 1140.02,-446.12 1265,-446.12 1389.98,-446.12 1491.5,-469.06 1491.5,-497.28 1491.5,-497.28 1491.5,-957.72 1491.5,-957.72"/>
<path fill="none" stroke="#20688c" d="M1491.5,-957.72C1491.5,-929.49 1389.98,-906.56 1265,-906.56 1140.02,-906.56 1038.5,-929.49 1038.5,-957.72"/>
<text text-anchor="start" x="1123" y="-883.8" font-family="Arial" font-size="34.00" fill="#ffffff">Extension Browser</text>
<text text-anchor="start" x="1205.5" y="-849.8" font-family="Arial" font-size="34.00" fill="#ffffff">Storage</text>
<text text-anchor="start" x="1067.5" y="-827.8" font-family="Arial" font-size="19.00" fill="#ffffff">[Container: chrome.storage.local + IndexedDB]</text>
<text text-anchor="start" x="1087.5" y="-790.8" font-family="Arial" font-size="24.00" fill="#ffffff">Browser&#45;side IndexedDB storage</text>
<text text-anchor="start" x="1178.5" y="-766.8" font-family="Arial" font-size="24.00" fill="#ffffff">for transactional</text>
<text text-anchor="start" x="1109.5" y="-742.8" font-family="Arial" font-size="24.00" fill="#ffffff">capture/lifecycle outbox rows</text>
<text text-anchor="start" x="1099.5" y="-718.8" font-family="Arial" font-size="24.00" fill="#ffffff">plus specialized durable media</text>
<text text-anchor="start" x="1201" y="-694.8" font-family="Arial" font-size="24.00" fill="#ffffff">tasks/blobs;</text>
<text text-anchor="start" x="1112.5" y="-670.8" font-family="Arial" font-size="24.00" fill="#ffffff">chrome.storage.local retains</text>
<text text-anchor="start" x="1113" y="-646.8" font-family="Arial" font-size="24.00" fill="#ffffff">typed configuration, lifecycle</text>
<text text-anchor="start" x="1097.5" y="-622.8" font-family="Arial" font-size="24.00" fill="#ffffff">tab state, minimal CDP capture</text>
<text text-anchor="start" x="1108.5" y="-598.8" font-family="Arial" font-size="24.00" fill="#ffffff">context, aggregate telemetry,</text>
<text text-anchor="start" x="1096.5" y="-574.8" font-family="Arial" font-size="24.00" fill="#ffffff">and one&#45;version queue fallback</text>
<text text-anchor="start" x="1240" y="-550.8" font-family="Arial" font-size="24.00" fill="#ffffff">only.</text>
</g>
<!-- 22 -->
<g id="22" class="node">
<title>22</title>
<polygon fill="#438dd5" stroke="#2e6295" points="1496,-1418 1034,-1418 1034,-1081 1496,-1081 1496,-1418"/>
<text text-anchor="start" x="1100.5" y="-1369.8" font-family="Arial" font-size="34.00" fill="#ffffff">WSL Loopback HTTP</text>
<text text-anchor="start" x="1200.5" y="-1335.8" font-family="Arial" font-size="34.00" fill="#ffffff">Daemon</text>
<text text-anchor="start" x="1063" y="-1313.8" font-family="Arial" font-size="19.00" fill="#ffffff">[Container: Python 3.11, ThreadingHTTPServer]</text>
<text text-anchor="start" x="1104" y="-1276.8" font-family="Arial" font-size="24.00" fill="#ffffff">Authenticated loopback HTTP</text>
<text text-anchor="start" x="1129" y="-1252.8" font-family="Arial" font-size="24.00" fill="#ffffff">API that handles capture,</text>
<text text-anchor="start" x="1125.5" y="-1228.8" font-family="Arial" font-size="24.00" fill="#ffffff">visit events, media artifact</text>
<text text-anchor="start" x="1128.5" y="-1204.8" font-family="Arial" font-size="24.00" fill="#ffffff">upload/fetch/purge, exact</text>
<text text-anchor="start" x="1225" y="-1180.8" font-family="Arial" font-size="24.00" fill="#ffffff">search,</text>
<text text-anchor="start" x="1116" y="-1156.8" font-family="Arial" font-size="24.00" fill="#ffffff">recent/timeline/detail, policy</text>
<text text-anchor="start" x="1113.5" y="-1132.8" font-family="Arial" font-size="24.00" fill="#ffffff">rules, doctor, durable forget,</text>
<text text-anchor="start" x="1152" y="-1108.8" font-family="Arial" font-size="24.00" fill="#ffffff">and static UI serving.</text>
</g>
<!-- 47 -->
<g id="47" class="node">
<title>47</title>
<path fill="#2f95c8" stroke="#20688c" d="M2329.5,-957.72C2329.5,-985.94 2240.98,-1008.88 2132,-1008.88 2023.02,-1008.88 1934.5,-985.94 1934.5,-957.72 1934.5,-957.72 1934.5,-497.28 1934.5,-497.28 1934.5,-469.06 2023.02,-446.12 2132,-446.12 2240.98,-446.12 2329.5,-469.06 2329.5,-497.28 2329.5,-497.28 2329.5,-957.72 2329.5,-957.72"/>
<path fill="none" stroke="#20688c" d="M2329.5,-957.72C2329.5,-929.49 2240.98,-906.56 2132,-906.56 2023.02,-906.56 1934.5,-929.49 1934.5,-957.72"/>
<text text-anchor="start" x="2019" y="-883.8" font-family="Arial" font-size="34.00" fill="#ffffff">SQLite + FTS5</text>
<text text-anchor="start" x="2059" y="-849.8" font-family="Arial" font-size="34.00" fill="#ffffff">Database</text>
<text text-anchor="start" x="2006" y="-827.8" font-family="Arial" font-size="19.00" fill="#ffffff">[Container: SQLite with FTS5]</text>
<text text-anchor="start" x="1964" y="-790.8" font-family="Arial" font-size="24.00" fill="#ffffff">Durable complete cleaned&#45;text,</text>
<text text-anchor="start" x="2013" y="-766.8" font-family="Arial" font-size="24.00" fill="#ffffff">relational, and full&#45;text</text>
<text text-anchor="start" x="2014.5" y="-742.8" font-family="Arial" font-size="24.00" fill="#ffffff">authority for migration</text>
<text text-anchor="start" x="1980" y="-718.8" font-family="Arial" font-size="24.00" fill="#ffffff">ledger, sources, documents,</text>
<text text-anchor="start" x="1982.5" y="-694.8" font-family="Arial" font-size="24.00" fill="#ffffff">visits, capture observations,</text>
<text text-anchor="start" x="2001" y="-670.8" font-family="Arial" font-size="24.00" fill="#ffffff">URL claims, visit events,</text>
<text text-anchor="start" x="1963.5" y="-646.8" font-family="Arial" font-size="24.00" fill="#ffffff">snapshots, chunks, chunks_fts,</text>
<text text-anchor="start" x="1971" y="-622.8" font-family="Arial" font-size="24.00" fill="#ffffff">media provenance/tasks, blob</text>
<text text-anchor="start" x="2007.5" y="-598.8" font-family="Arial" font-size="24.00" fill="#ffffff">lifecycle records, policy</text>
<text text-anchor="start" x="2006.5" y="-574.8" font-family="Arial" font-size="24.00" fill="#ffffff">rules, audit events, and</text>
<text text-anchor="start" x="2040" y="-550.8" font-family="Arial" font-size="24.00" fill="#ffffff">deletion receipts.</text>
</g>
<!-- 22&#45;&gt;47 -->
<g id="69" class="edge">
<title>22&#45;&gt;47</title>
<path fill="none" stroke="#444444" stroke-dasharray="5,2" d="M1496.1,-1110.64C1629.67,-1030.04 1796.48,-929.37 1925.6,-851.45"/>
<polygon fill="#444444" stroke="#444444" points="1927.69,-854.28 1934.44,-846.12 1924.07,-848.29 1927.69,-854.28"/>
<polygon fill="white" stroke="transparent" points="1538,-1080.5 1538,-1179.5 1818,-1179.5 1818,-1080.5 1538,-1080.5"/>
<text text-anchor="start" x="1579.5" y="-1156.8" font-family="Arial" font-size="24.00" fill="#444444">6. Updates artifact</text>
<text text-anchor="start" x="1542" y="-1132.8" font-family="Arial" font-size="24.00" fill="#444444">status=stored, hash, byte</text>
<text text-anchor="start" x="1574" y="-1108.8" font-family="Arial" font-size="24.00" fill="#444444">size, and task state</text>
<text text-anchor="start" x="1644.5" y="-1088.8" font-family="Arial" font-size="19.00" fill="#444444">[sqlite3]</text>
</g>
<!-- 49 -->
<g id="49" class="node">
<title>49</title>
<path fill="#2f95c8" stroke="#20688c" d="M2404,-1471.72C2404,-1493.32 2282.09,-1510.88 2132,-1510.88 1981.91,-1510.88 1860,-1493.32 1860,-1471.72 1860,-1471.72 1860,-1119.28 1860,-1119.28 1860,-1097.68 1981.91,-1080.12 2132,-1080.12 2282.09,-1080.12 2404,-1097.68 2404,-1119.28 2404,-1119.28 2404,-1471.72 2404,-1471.72"/>
<path fill="none" stroke="#20688c" d="M2404,-1471.72C2404,-1450.11 2282.09,-1432.56 2132,-1432.56 1981.91,-1432.56 1860,-1450.11 1860,-1471.72"/>
<text text-anchor="start" x="1976.5" y="-1403.8" font-family="Arial" font-size="34.00" fill="#ffffff">Guarded Media Blob</text>
<text text-anchor="start" x="2082.5" y="-1369.8" font-family="Arial" font-size="34.00" fill="#ffffff">Cache</text>
<text text-anchor="start" x="1889" y="-1347.8" font-family="Arial" font-size="19.00" fill="#ffffff">[Container: WSL&#45;visible local or NAS&#45;mounted filesystem]</text>
<text text-anchor="start" x="2022" y="-1310.8" font-family="Arial" font-size="24.00" fill="#ffffff">Bounded disposable</text>
<text text-anchor="start" x="1966.5" y="-1286.8" font-family="Arial" font-size="24.00" fill="#ffffff">image/video/audio bytes under</text>
<text text-anchor="start" x="1990.5" y="-1262.8" font-family="Arial" font-size="24.00" fill="#ffffff">the configured media root;</text>
<text text-anchor="start" x="2018" y="-1238.8" font-family="Arial" font-size="24.00" fill="#ffffff">explicit external roots</text>
<text text-anchor="start" x="2033" y="-1214.8" font-family="Arial" font-size="24.00" fill="#ffffff">require mount and</text>
<text text-anchor="start" x="1982.5" y="-1190.8" font-family="Arial" font-size="24.00" fill="#ffffff">identity&#45;marker proof before</text>
<text text-anchor="start" x="2091" y="-1166.8" font-family="Arial" font-size="24.00" fill="#ffffff">access.</text>
</g>
<!-- 22&#45;&gt;49 -->
<g id="71" class="edge">
<title>22&#45;&gt;49</title>
<path fill="none" stroke="#444444" stroke-dasharray="5,2" d="M1496.1,-1261.74C1604.68,-1267.51 1735.24,-1274.45 1849.66,-1280.54"/>
<polygon fill="#444444" stroke="#444444" points="1849.8,-1284.05 1859.97,-1281.09 1850.17,-1277.06 1849.8,-1284.05"/>
<polygon fill="white" stroke="transparent" points="1532,-1277.5 1532,-1352.5 1824,-1352.5 1824,-1277.5 1532,-1277.5"/>
<text text-anchor="start" x="1536" y="-1329.8" font-family="Arial" font-size="24.00" fill="#444444">5. Writes blob if MIME and</text>
<text text-anchor="start" x="1581.5" y="-1305.8" font-family="Arial" font-size="24.00" fill="#444444">cache gates allow</text>
<text text-anchor="start" x="1626.5" y="-1285.8" font-family="Arial" font-size="19.00" fill="#444444">[Filesystem]</text>
</g>
<!-- 5 -->
<g id="5" class="node">
<title>5</title>
<polygon fill="#438dd5" stroke="#2e6295" points="467,-867 33,-867 33,-588 467,-588 467,-867"/>
<text text-anchor="start" x="70" y="-818.8" font-family="Arial" font-size="34.00" fill="#ffffff">Chrome MV3 Extension</text>
<text text-anchor="start" x="62" y="-796.8" font-family="Arial" font-size="19.00" fill="#ffffff">[Container: JavaScript, Chrome Manifest V3]</text>
<text text-anchor="start" x="107" y="-759.8" font-family="Arial" font-size="24.00" fill="#ffffff">Captures visible page text,</text>
<text text-anchor="start" x="132.5" y="-735.8" font-family="Arial" font-size="24.00" fill="#ffffff">media references, tab</text>
<text text-anchor="start" x="141" y="-711.8" font-family="Arial" font-size="24.00" fill="#ffffff">lifecycle events, and</text>
<text text-anchor="start" x="84" y="-687.8" font-family="Arial" font-size="24.00" fill="#ffffff">browser&#45;side media bytes from</text>
<text text-anchor="start" x="79" y="-663.8" font-family="Arial" font-size="24.00" fill="#ffffff">Windows Chrome; queues work</text>
<text text-anchor="start" x="91" y="-639.8" font-family="Arial" font-size="24.00" fill="#ffffff">durably and posts to the WSL</text>
<text text-anchor="start" x="202.5" y="-615.8" font-family="Arial" font-size="24.00" fill="#ffffff">daemon.</text>
</g>
<!-- 5&#45;&gt;21 -->
<g id="59" class="edge">
<title>5&#45;&gt;21</title>
<path fill="none" stroke="#444444" stroke-dasharray="5,2" d="M467.24,-656.98C479.26,-654.45 491.24,-652.26 503,-650.5 720.59,-618 780.18,-619.61 998,-650.5 1007.91,-651.91 1017.96,-653.59 1028.07,-655.5"/>
<polygon fill="#444444" stroke="#444444" points="1027.71,-659 1038.2,-657.49 1029.06,-652.13 1027.71,-659"/>
<polygon fill="white" stroke="transparent" points="595,-650.5 595,-701.5 906,-701.5 906,-650.5 595,-650.5"/>
<text text-anchor="start" x="617" y="-678.8" font-family="Arial" font-size="24.00" fill="#444444">1. Reads due media task</text>
<text text-anchor="start" x="599.5" y="-658.8" font-family="Arial" font-size="19.00" fill="#444444">[chrome.storage.local + IndexedDB]</text>
</g>
<!-- 5&#45;&gt;21 -->
<g id="59" class="edge">
<title>5&#45;&gt;21</title>
<path fill="none" stroke="#444444" stroke-dasharray="5,2" d="M467.07,-727.5C631.86,-727.5 858.6,-727.5 1028.11,-727.5"/>
<polygon fill="#444444" stroke="#444444" points="1028.17,-731 1038.17,-727.5 1028.17,-724 1028.17,-731"/>
<polygon fill="white" stroke="transparent" points="595,-727.5 595,-802.5 906,-802.5 906,-727.5 595,-727.5"/>
<text text-anchor="start" x="625" y="-779.8" font-family="Arial" font-size="24.00" fill="#444444">3. Persists fetched blob</text>
<text text-anchor="start" x="634.5" y="-755.8" font-family="Arial" font-size="24.00" fill="#444444">until upload succeeds</text>
<text text-anchor="start" x="599.5" y="-735.8" font-family="Arial" font-size="19.00" fill="#444444">[chrome.storage.local + IndexedDB]</text>
</g>
<!-- 5&#45;&gt;22 -->
<g id="60" class="edge">
<title>5&#45;&gt;22</title>
<path fill="none" stroke="#444444" stroke-dasharray="5,2" d="M467.07,-838.84C630.76,-923.19 855.58,-1039.04 1024.71,-1126.19"/>
<polygon fill="#444444" stroke="#444444" points="1023.24,-1129.37 1033.73,-1130.84 1026.45,-1123.15 1023.24,-1129.37"/>
<polygon fill="white" stroke="transparent" points="503,-1109.5 503,-1184.5 998,-1184.5 998,-1109.5 503,-1109.5"/>
<text text-anchor="start" x="646" y="-1161.8" font-family="Arial" font-size="24.00" fill="#444444">4. PUTs raw blob to</text>
<text text-anchor="start" x="620.5" y="-1137.8" font-family="Arial" font-size="24.00" fill="#444444">/media&#45;artifacts/{id}/blob</text>
<text text-anchor="start" x="507.5" y="-1117.8" font-family="Arial" font-size="19.00" fill="#444444">[Bearer HTTP/JSON; raw HTTP PUT over 127.0.0.1:8765]</text>
</g>
<!-- 3 -->
<g id="3" class="node">
<title>3</title>
<polygon fill="#999999" stroke="#6b6b6b" points="1466.5,-321 1063.5,-321 1063.5,-56 1466.5,-56 1466.5,-321"/>
<text text-anchor="start" x="1103.5" y="-272.8" font-family="Arial" font-size="34.00" fill="#ffffff">Web Sites and Media</text>
<text text-anchor="start" x="1211" y="-238.8" font-family="Arial" font-size="34.00" fill="#ffffff">Origins</text>
<text text-anchor="start" x="1188" y="-216.8" font-family="Arial" font-size="19.00" fill="#ffffff">[Software System]</text>
<text text-anchor="start" x="1155" y="-179.8" font-family="Arial" font-size="24.00" fill="#ffffff">External web pages,</text>
<text text-anchor="start" x="1102.5" y="-155.8" font-family="Arial" font-size="24.00" fill="#ffffff">image/video URLs, and media</text>
<text text-anchor="start" x="1092.5" y="-131.8" font-family="Arial" font-size="24.00" fill="#ffffff">CDNs that Chrome loads or that</text>
<text text-anchor="start" x="1102.5" y="-107.8" font-family="Arial" font-size="24.00" fill="#ffffff">sidecars fetch as page&#45;related</text>
<text text-anchor="start" x="1228.5" y="-83.8" font-family="Arial" font-size="24.00" fill="#ffffff">media.</text>
</g>
<!-- 5&#45;&gt;3 -->
<g id="58" class="edge">
<title>5&#45;&gt;3</title>
<path fill="none" stroke="#444444" stroke-dasharray="5,2" d="M421.48,-587.95C448.08,-568.64 475.78,-549.85 503,-533.5 680.86,-426.68 897.52,-331.53 1054.11,-268.35"/>
<polygon fill="#444444" stroke="#444444" points="1055.42,-271.6 1063.39,-264.62 1052.81,-265.1 1055.42,-271.6"/>
<polygon fill="white" stroke="transparent" points="598,-533.5 598,-608.5 903,-608.5 903,-533.5 598,-533.5"/>
<text text-anchor="start" x="602.5" y="-585.8" font-family="Arial" font-size="24.00" fill="#444444">2. Fetches source URL with</text>
<text text-anchor="start" x="617" y="-561.8" font-family="Arial" font-size="24.00" fill="#444444">Chrome cookie envelope</text>
<text text-anchor="start" x="609.5" y="-541.8" font-family="Arial" font-size="19.00" fill="#444444">[DOM; fetch(credentials: include)]</text>
</g>
</g>
</svg>
