<?xml version="1.0" encoding="UTF-8" standalone="no"?>
<!DOCTYPE svg PUBLIC "-//W3C//DTD SVG 1.1//EN"
 "http://www.w3.org/Graphics/SVG/1.1/DTD/svg11.dtd">
<!-- Generated by graphviz version 2.43.0 (0)
 -->
<!-- Title: %3 Pages: 1 -->
<svg width="1213pt" height="1440pt"
 viewBox="0.00 0.00 1213.00 1439.50" xmlns="http://www.w3.org/2000/svg" xmlns:xlink="http://www.w3.org/1999/xlink">
<g id="graph0" class="graph" transform="scale(1 1) rotate(0) translate(4 1435.5)">
<title>%3</title>
<polygon fill="white" stroke="transparent" points="-4,4 -4,-1435.5 1209,-1435.5 1209,4 -4,4"/>
<text text-anchor="start" x="287" y="-11.8" font-family="Arial" font-size="34.00">Dynamic View: Browser Memory Daemon</text>
<g id="clust1" class="cluster">
<title>cluster_4</title>
<polygon fill="none" stroke="#444444" points="8,-346.5 8,-1423.5 1197,-1423.5 1197,-346.5 8,-346.5"/>
<text text-anchor="start" x="461.5" y="-375.3" font-family="Arial" font-size="24.00" fill="#444444">Browser Memory Daemon</text>
<text text-anchor="start" x="525.5" y="-355.3" font-family="Arial" font-size="19.00" fill="#444444">[Software System]</text>
</g>
<!-- 24 -->
<g id="24" class="node">
<title>24</title>
<polygon fill="#438dd5" stroke="#2e6295" points="387,-798 33,-798 33,-495 387,-495 387,-798"/>
<text text-anchor="start" x="63" y="-749.8" font-family="Arial" font-size="34.00" fill="#ffffff">WSL Media Worker</text>
<text text-anchor="start" x="70" y="-727.8" font-family="Arial" font-size="19.00" fill="#ffffff">[Container: Python 3.11 CLI loop]</text>
<text text-anchor="start" x="62.5" y="-690.8" font-family="Arial" font-size="24.00" fill="#ffffff">Long&#45;running systemd user</text>
<text text-anchor="start" x="111.5" y="-666.8" font-family="Arial" font-size="24.00" fill="#ffffff">worker that leases</text>
<text text-anchor="start" x="64" y="-642.8" font-family="Arial" font-size="24.00" fill="#ffffff">daemon&#45;public media fetch</text>
<text text-anchor="start" x="101" y="-618.8" font-family="Arial" font-size="24.00" fill="#ffffff">tasks, fetches public</text>
<text text-anchor="start" x="62" y="-594.8" font-family="Arial" font-size="24.00" fill="#ffffff">media/HLS without Chrome</text>
<text text-anchor="start" x="67" y="-570.8" font-family="Arial" font-size="24.00" fill="#ffffff">cookies, classifies terminal</text>
<text text-anchor="start" x="64" y="-546.8" font-family="Arial" font-size="24.00" fill="#ffffff">states, and updates artifact</text>
<text text-anchor="start" x="181" y="-522.8" font-family="Arial" font-size="24.00" fill="#ffffff">rows.</text>
</g>
<!-- 27 -->
<g id="27" class="node">
<title>27</title>
<path fill="#2f95c8" stroke="#20688c" d="M1146,-868.22C1146,-891.48 1067.11,-910.38 970,-910.38 872.89,-910.38 794,-891.48 794,-868.22 794,-868.22 794,-488.78 794,-488.78 794,-465.52 872.89,-446.62 970,-446.62 1067.11,-446.62 1146,-465.52 1146,-488.78 1146,-488.78 1146,-868.22 1146,-868.22"/>
<path fill="none" stroke="#20688c" d="M1146,-868.22C1146,-844.95 1067.11,-826.06 970,-826.06 872.89,-826.06 794,-844.95 794,-868.22"/>
<text text-anchor="start" x="857" y="-798.8" font-family="Arial" font-size="34.00" fill="#ffffff">SQLite + FTS5</text>
<text text-anchor="start" x="897" y="-764.8" font-family="Arial" font-size="34.00" fill="#ffffff">Database</text>
<text text-anchor="start" x="844" y="-742.8" font-family="Arial" font-size="19.00" fill="#ffffff">[Container: SQLite with FTS5]</text>
<text text-anchor="start" x="851" y="-705.8" font-family="Arial" font-size="24.00" fill="#ffffff">Durable relational and</text>
<text text-anchor="start" x="833.5" y="-681.8" font-family="Arial" font-size="24.00" fill="#ffffff">full&#45;text store for sources,</text>
<text text-anchor="start" x="849.5" y="-657.8" font-family="Arial" font-size="24.00" fill="#ffffff">documents, visits, visit</text>
<text text-anchor="start" x="824" y="-633.8" font-family="Arial" font-size="24.00" fill="#ffffff">events, snapshots, chunks,</text>
<text text-anchor="start" x="823" y="-609.8" font-family="Arial" font-size="24.00" fill="#ffffff">chunks_fts, media artifacts,</text>
<text text-anchor="start" x="838" y="-585.8" font-family="Arial" font-size="24.00" fill="#ffffff">media fetch tasks, policy</text>
<text text-anchor="start" x="844.5" y="-561.8" font-family="Arial" font-size="24.00" fill="#ffffff">rules, audit events, and</text>
<text text-anchor="start" x="878" y="-537.8" font-family="Arial" font-size="24.00" fill="#ffffff">deletion receipts.</text>
</g>
<!-- 24&#45;&gt;27 -->
<g id="46" class="edge">
<title>24&#45;&gt;27</title>
<path fill="none" stroke="#444444" stroke-dasharray="5,2" d="M387.02,-577.41C399.07,-574.28 411.14,-571.59 423,-569.5 558.25,-545.7 597.84,-540.13 732,-569.5 749.36,-573.3 766.96,-578.5 784.33,-584.57"/>
<polygon fill="#444444" stroke="#444444" points="783.36,-587.94 793.95,-588.03 785.73,-581.35 783.36,-587.94"/>
<polygon fill="white" stroke="transparent" points="472.5,-569.5 472.5,-668.5 682.5,-668.5 682.5,-569.5 472.5,-569.5"/>
<text text-anchor="start" x="503.5" y="-645.8" font-family="Arial" font-size="24.00" fill="#444444">1. Claims due</text>
<text text-anchor="start" x="497.5" y="-621.8" font-family="Arial" font-size="24.00" fill="#444444">daemon&#45;public</text>
<text text-anchor="start" x="476.5" y="-597.8" font-family="Arial" font-size="24.00" fill="#444444">media_fetch_tasks</text>
<text text-anchor="start" x="544" y="-577.8" font-family="Arial" font-size="19.00" fill="#444444">[sqlite3]</text>
</g>
<!-- 24&#45;&gt;27 -->
<g id="46" class="edge">
<title>24&#45;&gt;27</title>
<path fill="none" stroke="#444444" stroke-dasharray="5,2" d="M387.13,-678.72C399.24,-680.22 411.28,-681.51 423,-682.5 542.76,-692.6 677.82,-691.71 783.65,-688.24"/>
<polygon fill="#444444" stroke="#444444" points="783.92,-691.74 793.8,-687.9 783.68,-684.74 783.92,-691.74"/>
<polygon fill="white" stroke="transparent" points="440.5,-690.5 440.5,-813.5 714.5,-813.5 714.5,-690.5 440.5,-690.5"/>
<text text-anchor="start" x="465.5" y="-790.8" font-family="Arial" font-size="24.00" fill="#444444">4. Marks task/artifact</text>
<text text-anchor="start" x="444.5" y="-766.8" font-family="Arial" font-size="24.00" fill="#444444">stored, retrying, skipped,</text>
<text text-anchor="start" x="463" y="-742.8" font-family="Arial" font-size="24.00" fill="#444444">expired, or failed with</text>
<text text-anchor="start" x="540" y="-718.8" font-family="Arial" font-size="24.00" fill="#444444">reason</text>
<text text-anchor="start" x="544" y="-698.8" font-family="Arial" font-size="19.00" fill="#444444">[sqlite3]</text>
</g>
<!-- 29 -->
<g id="29" class="node">
<title>29</title>
<path fill="#2f95c8" stroke="#20688c" d="M1172,-1360.78C1172,-1381.66 1081.46,-1398.63 970,-1398.63 858.54,-1398.63 768,-1381.66 768,-1360.78 768,-1360.78 768,-1020.22 768,-1020.22 768,-999.34 858.54,-982.37 970,-982.37 1081.46,-982.37 1172,-999.34 1172,-1020.22 1172,-1020.22 1172,-1360.78 1172,-1360.78"/>
<path fill="none" stroke="#20688c" d="M1172,-1360.78C1172,-1339.9 1081.46,-1322.94 970,-1322.94 858.54,-1322.94 768,-1339.9 768,-1360.78"/>
<text text-anchor="start" x="831" y="-1293.8" font-family="Arial" font-size="34.00" fill="#ffffff">Media Blob Cache</text>
<text text-anchor="start" x="852.5" y="-1271.8" font-family="Arial" font-size="19.00" fill="#ffffff">[Container: WSL filesystem]</text>
<text text-anchor="start" x="836.5" y="-1234.8" font-family="Arial" font-size="24.00" fill="#ffffff">Bounded and disposable</text>
<text text-anchor="start" x="825.5" y="-1210.8" font-family="Arial" font-size="24.00" fill="#ffffff">filesystem cache for stored</text>
<text text-anchor="start" x="814.5" y="-1186.8" font-family="Arial" font-size="24.00" fill="#ffffff">image/video/audio blobs with</text>
<text text-anchor="start" x="802.5" y="-1162.8" font-family="Arial" font-size="24.00" fill="#ffffff">purge/rehydrate semantics that</text>
<text text-anchor="start" x="813.5" y="-1138.8" font-family="Arial" font-size="24.00" fill="#ffffff">preserve media refs, hashes,</text>
<text text-anchor="start" x="797" y="-1114.8" font-family="Arial" font-size="24.00" fill="#ffffff">status reasons, and provenance</text>
<text text-anchor="start" x="833.5" y="-1090.8" font-family="Arial" font-size="24.00" fill="#ffffff">when bytes are absent or</text>
<text text-anchor="start" x="928.5" y="-1066.8" font-family="Arial" font-size="24.00" fill="#ffffff">purged.</text>
</g>
<!-- 24&#45;&gt;29 -->
<g id="48" class="edge">
<title>24&#45;&gt;29</title>
<path fill="none" stroke="#444444" stroke-dasharray="5,2" d="M380.87,-798.23C394.94,-809.72 409.09,-820.94 423,-831.5 530.31,-913.01 655.59,-996.17 759.06,-1061.9"/>
<polygon fill="#444444" stroke="#444444" points="757.42,-1065 767.74,-1067.4 761.17,-1059.09 757.42,-1065"/>
<polygon fill="white" stroke="transparent" points="423,-1042.5 423,-1141.5 732,-1141.5 732,-1042.5 423,-1042.5"/>
<text text-anchor="start" x="472.5" y="-1118.8" font-family="Arial" font-size="24.00" fill="#444444">3. Writes fetched or</text>
<text text-anchor="start" x="427.5" y="-1094.8" font-family="Arial" font-size="24.00" fill="#444444">assembled blob when gates</text>
<text text-anchor="start" x="550.5" y="-1070.8" font-family="Arial" font-size="24.00" fill="#444444">allow</text>
<text text-anchor="start" x="526.5" y="-1050.8" font-family="Arial" font-size="19.00" fill="#444444">[Filesystem]</text>
</g>
<!-- 3 -->
<g id="3" class="node">
<title>3</title>
<polygon fill="#999999" stroke="#6b6b6b" points="1171.5,-321 768.5,-321 768.5,-56 1171.5,-56 1171.5,-321"/>
<text text-anchor="start" x="808.5" y="-272.8" font-family="Arial" font-size="34.00" fill="#ffffff">Web Sites and Media</text>
<text text-anchor="start" x="916" y="-238.8" font-family="Arial" font-size="34.00" fill="#ffffff">Origins</text>
<text text-anchor="start" x="893" y="-216.8" font-family="Arial" font-size="19.00" fill="#ffffff">[Software System]</text>
<text text-anchor="start" x="860" y="-179.8" font-family="Arial" font-size="24.00" fill="#ffffff">External web pages,</text>
<text text-anchor="start" x="807.5" y="-155.8" font-family="Arial" font-size="24.00" fill="#ffffff">image/video URLs, and media</text>
<text text-anchor="start" x="797.5" y="-131.8" font-family="Arial" font-size="24.00" fill="#ffffff">CDNs that Chrome loads or that</text>
<text text-anchor="start" x="807.5" y="-107.8" font-family="Arial" font-size="24.00" fill="#ffffff">sidecars fetch as page&#45;related</text>
<text text-anchor="start" x="933.5" y="-83.8" font-family="Arial" font-size="24.00" fill="#ffffff">media.</text>
</g>
<!-- 24&#45;&gt;3 -->
<g id="47" class="edge">
<title>24&#45;&gt;3</title>
<path fill="none" stroke="#444444" stroke-dasharray="5,2" d="M346.96,-494.75C370.99,-472.3 396.76,-450.65 423,-432.5 525.99,-361.26 653.12,-302.99 758.8,-261.27"/>
<polygon fill="#444444" stroke="#444444" points="760.28,-264.45 768.31,-257.54 757.72,-257.94 760.28,-264.45"/>
<polygon fill="white" stroke="transparent" points="423.5,-432.5 423.5,-531.5 731.5,-531.5 731.5,-432.5 423.5,-432.5"/>
<text text-anchor="start" x="435" y="-508.8" font-family="Arial" font-size="24.00" fill="#444444">2. Fetches public media or</text>
<text text-anchor="start" x="427.5" y="-484.8" font-family="Arial" font-size="24.00" fill="#444444">HLS assets without Chrome</text>
<text text-anchor="start" x="536.5" y="-460.8" font-family="Arial" font-size="24.00" fill="#444444">cookies</text>
<text text-anchor="start" x="485.5" y="-440.8" font-family="Arial" font-size="19.00" fill="#444444">[HTTP(S), data URLs]</text>
</g>
</g>
</svg>
