<?xml version="1.0" encoding="UTF-8" standalone="no"?>
<!DOCTYPE svg PUBLIC "-//W3C//DTD SVG 1.1//EN"
 "http://www.w3.org/Graphics/SVG/1.1/DTD/svg11.dtd">
<!-- Generated by graphviz version 2.43.0 (0)
 -->
<!-- Title: %3 Pages: 1 -->
<svg width="2125pt" height="767pt"
 viewBox="0.00 0.00 2125.00 767.00" xmlns="http://www.w3.org/2000/svg" xmlns:xlink="http://www.w3.org/1999/xlink">
<g id="graph0" class="graph" transform="scale(1 1) rotate(0) translate(4 763)">
<title>%3</title>
<polygon fill="white" stroke="transparent" points="-4,4 -4,-763 2121,-763 2121,4 -4,4"/>
<text text-anchor="start" x="473.5" y="-11.8" font-family="Arial" font-size="34.00">Component View: Browser Memory Daemon &#45; WSL Loopback HTTP Daemon</text>
<g id="clust1" class="cluster">
<title>cluster_4</title>
<polygon fill="none" stroke="#444444" points="8,-64 8,-751 2109,-751 2109,-64 8,-64"/>
<text text-anchor="start" x="917.5" y="-92.8" font-family="Arial" font-size="24.00" fill="#444444">Browser Memory Daemon</text>
<text text-anchor="start" x="981.5" y="-72.8" font-family="Arial" font-size="19.00" fill="#444444">[Software System]</text>
</g>
<g id="clust2" class="cluster">
<title>cluster_14</title>
<polygon fill="none" stroke="#444444" points="33,-181 33,-633 1349,-633 1349,-181 33,-181"/>
<text text-anchor="start" x="525.5" y="-209.8" font-family="Arial" font-size="24.00" fill="#444444">WSL Loopback HTTP Daemon</text>
<text text-anchor="start" x="489" y="-189.8" font-family="Arial" font-size="19.00" fill="#444444">[Container: Python 3.11, ThreadingHTTPServer]</text>
</g>
<!-- 15 -->
<g id="15" class="node">
<title>15</title>
<polygon fill="#85bbf0" stroke="#1168bd" points="453,-560.5 58,-560.5 58,-329.5 453,-329.5 453,-560.5"/>
<text text-anchor="start" x="87" y="-512.3" font-family="Arial" font-size="34.00" fill="#000000">HTTP Request Router</text>
<text text-anchor="start" x="119" y="-490.3" font-family="Arial" font-size="19.00" fill="#000000">[Component: Python http.server]</text>
<text text-anchor="start" x="90" y="-453.3" font-family="Arial" font-size="24.00" fill="#000000">Routes loopback API requests,</text>
<text text-anchor="start" x="112.5" y="-429.3" font-family="Arial" font-size="24.00" fill="#000000">serves UI assets, enforces</text>
<text text-anchor="start" x="91.5" y="-405.3" font-family="Arial" font-size="24.00" fill="#000000">bearer auth for memory/admin</text>
<text text-anchor="start" x="106" y="-381.3" font-family="Arial" font-size="24.00" fill="#000000">APIs, and applies CORS for</text>
<text text-anchor="start" x="172" y="-357.3" font-family="Arial" font-size="24.00" fill="#000000">allowed origins.</text>
</g>
<!-- 19 -->
<g id="19" class="node">
<title>19</title>
<polygon fill="#85bbf0" stroke="#1168bd" points="1324,-608.5 815,-608.5 815,-281.5 1324,-281.5 1324,-608.5"/>
<text text-anchor="start" x="958" y="-560.3" font-family="Arial" font-size="34.00" fill="#000000">Ingest Pipeline</text>
<text text-anchor="start" x="941.5" y="-538.3" font-family="Arial" font-size="19.00" fill="#000000">[Component: Python + sqlite3]</text>
<text text-anchor="start" x="919" y="-501.3" font-family="Arial" font-size="24.00" fill="#000000">Normalizes observed URLs,</text>
<text text-anchor="start" x="907.5" y="-477.3" font-family="Arial" font-size="24.00" fill="#000000">computes document/snapshot</text>
<text text-anchor="start" x="954.5" y="-453.3" font-family="Arial" font-size="24.00" fill="#000000">IDs, atomically stores</text>
<text text-anchor="start" x="926" y="-429.3" font-family="Arial" font-size="24.00" fill="#000000">complete cleaned text plus</text>
<text text-anchor="start" x="844" y="-405.3" font-family="Arial" font-size="24.00" fill="#000000">visits/observations/snapshots/chunks/FTS</text>
<text text-anchor="start" x="996.5" y="-381.3" font-family="Arial" font-size="24.00" fill="#000000">rows, records</text>
<text text-anchor="start" x="911" y="-357.3" font-family="Arial" font-size="24.00" fill="#000000">non&#45;authoritative URL claims,</text>
<text text-anchor="start" x="924.5" y="-333.3" font-family="Arial" font-size="24.00" fill="#000000">and links media references</text>
<text text-anchor="start" x="908.5" y="-309.3" font-family="Arial" font-size="24.00" fill="#000000">without touching blob storage.</text>
</g>
<!-- 15&#45;&gt;19 -->
<g id="75" class="edge">
<title>15&#45;&gt;19</title>
<path fill="none" stroke="#444444" stroke-dasharray="5,2" d="M453.06,-445C558.65,-445 690.26,-445 804.65,-445"/>
<polygon fill="#444444" stroke="#444444" points="804.96,-448.5 814.96,-445 804.96,-441.5 804.96,-448.5"/>
<polygon fill="white" stroke="transparent" points="489,-445 489,-505 779,-505 779,-445 489,-445"/>
<text text-anchor="start" x="493" y="-481.8" font-family="Arial" font-size="24.00" fill="#444444">Routes accepted captures</text>
<text text-anchor="start" x="623.5" y="-455.8" font-family="Arial" font-size="24.00" fill="#444444">to</text>
</g>
<!-- 31 -->
<g id="31" class="node">
<title>31</title>
<path fill="#2f95c8" stroke="#20688c" d="M2084,-675.22C2084,-703.44 1995.48,-726.38 1886.5,-726.38 1777.52,-726.38 1689,-703.44 1689,-675.22 1689,-675.22 1689,-214.78 1689,-214.78 1689,-186.56 1777.52,-163.62 1886.5,-163.62 1995.48,-163.62 2084,-186.56 2084,-214.78 2084,-214.78 2084,-675.22 2084,-675.22"/>
<path fill="none" stroke="#20688c" d="M2084,-675.22C2084,-646.99 1995.48,-624.06 1886.5,-624.06 1777.52,-624.06 1689,-646.99 1689,-675.22"/>
<text text-anchor="start" x="1773.5" y="-601.3" font-family="Arial" font-size="34.00" fill="#ffffff">SQLite + FTS5</text>
<text text-anchor="start" x="1813.5" y="-567.3" font-family="Arial" font-size="34.00" fill="#ffffff">Database</text>
<text text-anchor="start" x="1760.5" y="-545.3" font-family="Arial" font-size="19.00" fill="#ffffff">[Container: SQLite with FTS5]</text>
<text text-anchor="start" x="1718.5" y="-508.3" font-family="Arial" font-size="24.00" fill="#ffffff">Durable complete cleaned&#45;text,</text>
<text text-anchor="start" x="1767.5" y="-484.3" font-family="Arial" font-size="24.00" fill="#ffffff">relational, and full&#45;text</text>
<text text-anchor="start" x="1769" y="-460.3" font-family="Arial" font-size="24.00" fill="#ffffff">authority for migration</text>
<text text-anchor="start" x="1734.5" y="-436.3" font-family="Arial" font-size="24.00" fill="#ffffff">ledger, sources, documents,</text>
<text text-anchor="start" x="1737" y="-412.3" font-family="Arial" font-size="24.00" fill="#ffffff">visits, capture observations,</text>
<text text-anchor="start" x="1755.5" y="-388.3" font-family="Arial" font-size="24.00" fill="#ffffff">URL claims, visit events,</text>
<text text-anchor="start" x="1718" y="-364.3" font-family="Arial" font-size="24.00" fill="#ffffff">snapshots, chunks, chunks_fts,</text>
<text text-anchor="start" x="1725.5" y="-340.3" font-family="Arial" font-size="24.00" fill="#ffffff">media provenance/tasks, blob</text>
<text text-anchor="start" x="1762" y="-316.3" font-family="Arial" font-size="24.00" fill="#ffffff">lifecycle records, policy</text>
<text text-anchor="start" x="1761" y="-292.3" font-family="Arial" font-size="24.00" fill="#ffffff">rules, audit events, and</text>
<text text-anchor="start" x="1794.5" y="-268.3" font-family="Arial" font-size="24.00" fill="#ffffff">deletion receipts.</text>
</g>
<!-- 19&#45;&gt;31 -->
<g id="82" class="edge">
<title>19&#45;&gt;31</title>
<path fill="none" stroke="#444444" stroke-dasharray="5,2" d="M1324.18,-445C1438.13,-445 1570.89,-445 1678.68,-445"/>
<polygon fill="#444444" stroke="#444444" points="1678.7,-448.5 1688.7,-445 1678.7,-441.5 1678.7,-448.5"/>
<polygon fill="white" stroke="transparent" points="1360,-445 1360,-544 1653,-544 1653,-445 1360,-445"/>
<text text-anchor="start" x="1364.5" y="-521.3" font-family="Arial" font-size="24.00" fill="#444444">Atomically writes complete</text>
<text text-anchor="start" x="1394" y="-497.3" font-family="Arial" font-size="24.00" fill="#444444">cleaned text, capture</text>
<text text-anchor="start" x="1414.5" y="-473.3" font-family="Arial" font-size="24.00" fill="#444444">rows, and FTS to</text>
<text text-anchor="start" x="1473.5" y="-453.3" font-family="Arial" font-size="19.00" fill="#444444">[sqlite3]</text>
</g>
</g>
</svg>
