<?xml version="1.0" encoding="UTF-8" standalone="no"?>
<!DOCTYPE svg PUBLIC "-//W3C//DTD SVG 1.1//EN"
 "http://www.w3.org/Graphics/SVG/1.1/DTD/svg11.dtd">
<!-- Generated by graphviz version 2.43.0 (0)
 -->
<!-- Title: %3 Pages: 1 -->
<svg width="3012pt" height="618pt"
 viewBox="0.00 0.00 3012.00 618.00" xmlns="http://www.w3.org/2000/svg" xmlns:xlink="http://www.w3.org/1999/xlink">
<g id="graph0" class="graph" transform="scale(1 1) rotate(0) translate(4 614)">
<title>%3</title>
<polygon fill="white" stroke="transparent" points="-4,4 -4,-614 3008,-614 3008,4 -4,4"/>
<text text-anchor="start" x="1132.5" y="-11.8" font-family="Arial" font-size="34.00">System Context View: Browser Memory Daemon</text>
<!-- 1 -->
<g id="1" class="node">
<title>1</title>
<polygon fill="#08427b" stroke="#052e56" points="408,-459 0,-459 0,-252 408,-252 408,-459"/>
<text text-anchor="start" x="145" y="-410.8" font-family="Arial" font-size="34.00" fill="#ffffff">Operator</text>
<text text-anchor="start" x="168.5" y="-388.8" font-family="Arial" font-size="19.00" fill="#ffffff">[Person]</text>
<text text-anchor="start" x="32.5" y="-351.8" font-family="Arial" font-size="24.00" fill="#ffffff">Sole operator who browses with</text>
<text text-anchor="start" x="29" y="-327.8" font-family="Arial" font-size="24.00" fill="#ffffff">Windows Chrome and searches,</text>
<text text-anchor="start" x="65.5" y="-303.8" font-family="Arial" font-size="24.00" fill="#ffffff">reviews, and deletes local</text>
<text text-anchor="start" x="65.5" y="-279.8" font-family="Arial" font-size="24.00" fill="#ffffff">browser&#45;memory records.</text>
</g>
<!-- 2 -->
<g id="2" class="node">
<title>2</title>
<polygon fill="#999999" stroke="#6b6b6b" points="2073,-610 1687,-610 1687,-379 2073,-379 2073,-610"/>
<text text-anchor="start" x="1745.5" y="-561.8" font-family="Arial" font-size="34.00" fill="#ffffff">Windows Chrome</text>
<text text-anchor="start" x="1803" y="-539.8" font-family="Arial" font-size="19.00" fill="#ffffff">[Software System]</text>
<text text-anchor="start" x="1716" y="-502.8" font-family="Arial" font-size="24.00" fill="#ffffff">The Windows Chrome runtime</text>
<text text-anchor="start" x="1729.5" y="-478.8" font-family="Arial" font-size="24.00" fill="#ffffff">that loads web pages, hosts</text>
<text text-anchor="start" x="1729" y="-454.8" font-family="Arial" font-size="24.00" fill="#ffffff">the MV3 extension, runs the</text>
<text text-anchor="start" x="1721" y="-430.8" font-family="Arial" font-size="24.00" fill="#ffffff">local UI in a tab, and exposes</text>
<text text-anchor="start" x="1750.5" y="-406.8" font-family="Arial" font-size="24.00" fill="#ffffff">Chrome extension APIs.</text>
</g>
<!-- 1&#45;&gt;2 -->
<g id="30" class="edge">
<title>1&#45;&gt;2</title>
<path fill="none" stroke="#444444" stroke-dasharray="5,2" d="M408.25,-406.54C420.31,-408.77 432.29,-410.78 444,-412.5 880.25,-476.47 1397.9,-491.2 1676.77,-494.19"/>
<polygon fill="#444444" stroke="#444444" points="1676.96,-497.69 1687,-494.29 1677.03,-490.69 1676.96,-497.69"/>
<polygon fill="white" stroke="transparent" points="830,-478.5 830,-512.5 1104,-512.5 1104,-478.5 830,-478.5"/>
<text text-anchor="start" x="834" y="-489.3" font-family="Arial" font-size="24.00" fill="#444444">Browses web pages with</text>
</g>
<!-- 4 -->
<g id="4" class="node">
<title>4</title>
<polygon fill="#1168bd" stroke="#0b4884" points="1194,-359 740,-359 740,-56 1194,-56 1194,-359"/>
<text text-anchor="start" x="769" y="-310.8" font-family="Arial" font-size="34.00" fill="#ffffff">Browser Memory Daemon</text>
<text text-anchor="start" x="890" y="-288.8" font-family="Arial" font-size="19.00" fill="#ffffff">[Software System]</text>
<text text-anchor="start" x="832" y="-251.8" font-family="Arial" font-size="24.00" fill="#ffffff">Local&#45;first personal recall</text>
<text text-anchor="start" x="803" y="-227.8" font-family="Arial" font-size="24.00" fill="#ffffff">system that captures Windows</text>
<text text-anchor="start" x="810.5" y="-203.8" font-family="Arial" font-size="24.00" fill="#ffffff">Chrome page text and media</text>
<text text-anchor="start" x="826.5" y="-179.8" font-family="Arial" font-size="24.00" fill="#ffffff">references, stores them in</text>
<text text-anchor="start" x="790" y="-155.8" font-family="Arial" font-size="24.00" fill="#ffffff">WSL, and exposes exact search,</text>
<text text-anchor="start" x="837" y="-131.8" font-family="Arial" font-size="24.00" fill="#ffffff">timeline, detail, deletion,</text>
<text text-anchor="start" x="807.5" y="-107.8" font-family="Arial" font-size="24.00" fill="#ffffff">diagnostics, and media cache</text>
<text text-anchor="start" x="906.5" y="-83.8" font-family="Arial" font-size="24.00" fill="#ffffff">operations.</text>
</g>
<!-- 1&#45;&gt;4 -->
<g id="31" class="edge">
<title>1&#45;&gt;4</title>
<path fill="none" stroke="#444444" stroke-dasharray="5,2" d="M408.43,-315.94C507.39,-296.69 626.91,-273.45 729.86,-253.42"/>
<polygon fill="#444444" stroke="#444444" points="730.63,-256.84 739.78,-251.5 729.29,-249.97 730.63,-256.84"/>
<polygon fill="white" stroke="transparent" points="444,-308.5 444,-394.5 704,-394.5 704,-308.5 444,-308.5"/>
<text text-anchor="start" x="448" y="-371.3" font-family="Arial" font-size="24.00" fill="#444444">Searches, reviews, and</text>
<text text-anchor="start" x="460" y="-345.3" font-family="Arial" font-size="24.00" fill="#444444">deletes local browser</text>
<text text-anchor="start" x="485" y="-319.3" font-family="Arial" font-size="24.00" fill="#444444">memory through</text>
</g>
<!-- 3 -->
<g id="3" class="node">
<title>3</title>
<polygon fill="#999999" stroke="#6b6b6b" points="3004,-397 2601,-397 2601,-132 3004,-132 3004,-397"/>
<text text-anchor="start" x="2641" y="-348.8" font-family="Arial" font-size="34.00" fill="#ffffff">Web Sites and Media</text>
<text text-anchor="start" x="2748.5" y="-314.8" font-family="Arial" font-size="34.00" fill="#ffffff">Origins</text>
<text text-anchor="start" x="2725.5" y="-292.8" font-family="Arial" font-size="19.00" fill="#ffffff">[Software System]</text>
<text text-anchor="start" x="2692.5" y="-255.8" font-family="Arial" font-size="24.00" fill="#ffffff">External web pages,</text>
<text text-anchor="start" x="2640" y="-231.8" font-family="Arial" font-size="24.00" fill="#ffffff">image/video URLs, and media</text>
<text text-anchor="start" x="2630" y="-207.8" font-family="Arial" font-size="24.00" fill="#ffffff">CDNs that Chrome loads or that</text>
<text text-anchor="start" x="2640" y="-183.8" font-family="Arial" font-size="24.00" fill="#ffffff">sidecars fetch as page&#45;related</text>
<text text-anchor="start" x="2766" y="-159.8" font-family="Arial" font-size="24.00" fill="#ffffff">media.</text>
</g>
<!-- 2&#45;&gt;3 -->
<g id="32" class="edge">
<title>2&#45;&gt;3</title>
<path fill="none" stroke="#444444" stroke-dasharray="5,2" d="M2073.13,-446.49C2224.49,-408.67 2435.26,-356.01 2591.15,-317.06"/>
<polygon fill="#444444" stroke="#444444" points="2592.01,-320.45 2600.87,-314.63 2590.32,-313.66 2592.01,-320.45"/>
<polygon fill="white" stroke="transparent" points="2242,-399.5 2242,-450.5 2565,-450.5 2565,-399.5 2242,-399.5"/>
<text text-anchor="start" x="2246.5" y="-427.8" font-family="Arial" font-size="24.00" fill="#444444">Loads pages and media from</text>
<text text-anchor="start" x="2367.5" y="-407.8" font-family="Arial" font-size="19.00" fill="#444444">[HTTPS]</text>
</g>
<!-- 4&#45;&gt;2 -->
<g id="33" class="edge">
<title>4&#45;&gt;2</title>
<path fill="none" stroke="#444444" stroke-dasharray="5,2" d="M1194.07,-278.72C1342.16,-325.38 1534.05,-385.83 1677.03,-430.87"/>
<polygon fill="#444444" stroke="#444444" points="1676.22,-434.28 1686.81,-433.95 1678.32,-427.61 1676.22,-434.28"/>
<polygon fill="white" stroke="transparent" points="1230,-376.5 1230,-436.5 1518,-436.5 1518,-376.5 1230,-376.5"/>
<text text-anchor="start" x="1247" y="-413.3" font-family="Arial" font-size="24.00" fill="#444444">Runs its MV3 extension</text>
<text text-anchor="start" x="1234" y="-387.3" font-family="Arial" font-size="24.00" fill="#444444">inside and uses APIs from</text>
</g>
<!-- 4&#45;&gt;3 -->
<g id="34" class="edge">
<title>4&#45;&gt;3</title>
<path fill="none" stroke="#444444" stroke-dasharray="5,2" d="M1194.2,-214.01C1442.41,-221.21 1852.59,-233.28 2206,-244.5 2333.71,-248.55 2476.82,-253.35 2590.73,-257.23"/>
<polygon fill="#444444" stroke="#444444" points="2590.85,-260.74 2600.97,-257.58 2591.09,-253.74 2590.85,-260.74"/>
<polygon fill="white" stroke="transparent" points="1554,-244.5 1554,-343.5 2206,-343.5 2206,-244.5 1554,-244.5"/>
<text text-anchor="start" x="1753" y="-320.8" font-family="Arial" font-size="24.00" fill="#444444">Captures page refs and</text>
<text text-anchor="start" x="1753.5" y="-296.8" font-family="Arial" font-size="24.00" fill="#444444">fetches browser&#45;side or</text>
<text text-anchor="start" x="1784" y="-272.8" font-family="Arial" font-size="24.00" fill="#444444">public media from</text>
<text text-anchor="start" x="1558" y="-252.8" font-family="Arial" font-size="19.00" fill="#444444">[Chrome DOM/fetch; WSL HTTP(S), data URLs; no Chrome cookies in WSL]</text>
</g>
</g>
</svg>
