<?xml version="1.0" encoding="UTF-8" standalone="no"?>
<!DOCTYPE svg PUBLIC "-//W3C//DTD SVG 1.1//EN"
 "http://www.w3.org/Graphics/SVG/1.1/DTD/svg11.dtd">
<!-- Generated by graphviz version 2.43.0 (0)
 -->
<!-- Title: %3 Pages: 1 -->
<svg width="2989pt" height="1617pt"
 viewBox="0.00 0.00 2989.00 1616.50" xmlns="http://www.w3.org/2000/svg" xmlns:xlink="http://www.w3.org/1999/xlink">
<g id="graph0" class="graph" transform="scale(1 1) rotate(0) translate(4 1612.5)">
<title>%3</title>
<polygon fill="white" stroke="transparent" points="-4,4 -4,-1612.5 2985,-1612.5 2985,4 -4,4"/>
<text text-anchor="start" x="959" y="-11.8" font-family="Arial" font-size="34.00">Component View: Browser Memory Daemon &#45; Chrome MV3 Extension</text>
<g id="clust1" class="cluster">
<title>cluster_4</title>
<polygon fill="none" stroke="#444444" points="8,-312.5 8,-1600.5 2973,-1600.5 2973,-312.5 8,-312.5"/>
<text text-anchor="start" x="1349.5" y="-341.3" font-family="Arial" font-size="24.00" fill="#444444">Browser Memory Daemon</text>
<text text-anchor="start" x="1413.5" y="-321.3" font-family="Arial" font-size="19.00" fill="#444444">[Software System]</text>
</g>
<g id="clust2" class="cluster">
<title>cluster_5</title>
<polygon fill="none" stroke="#444444" points="33,-412.5 33,-898.5 2117.5,-898.5 2117.5,-412.5 33,-412.5"/>
<text text-anchor="start" x="947.25" y="-441.3" font-family="Arial" font-size="24.00" fill="#444444">Chrome MV3 Extension</text>
<text text-anchor="start" x="887.25" y="-421.3" font-family="Arial" font-size="19.00" fill="#444444">[Container: JavaScript, Chrome Manifest V3]</text>
</g>
<!-- 2 -->
<g id="2" class="node">
<title>2</title>
<polygon fill="#999999" stroke="#6b6b6b" points="446.5,-287 60.5,-287 60.5,-56 446.5,-56 446.5,-287"/>
<text text-anchor="start" x="119" y="-238.8" font-family="Arial" font-size="34.00" fill="#ffffff">Windows Chrome</text>
<text text-anchor="start" x="176.5" y="-216.8" font-family="Arial" font-size="19.00" fill="#ffffff">[Software System]</text>
<text text-anchor="start" x="89.5" y="-179.8" font-family="Arial" font-size="24.00" fill="#ffffff">The Windows Chrome runtime</text>
<text text-anchor="start" x="103" y="-155.8" font-family="Arial" font-size="24.00" fill="#ffffff">that loads web pages, hosts</text>
<text text-anchor="start" x="102.5" y="-131.8" font-family="Arial" font-size="24.00" fill="#ffffff">the MV3 extension, runs the</text>
<text text-anchor="start" x="94.5" y="-107.8" font-family="Arial" font-size="24.00" fill="#ffffff">local UI in a tab, and exposes</text>
<text text-anchor="start" x="124" y="-83.8" font-family="Arial" font-size="24.00" fill="#ffffff">Chrome extension APIs.</text>
</g>
<!-- 10 -->
<g id="10" class="node">
<title>10</title>
<polygon fill="#85bbf0" stroke="#1168bd" points="2092.5,-874 1649.5,-874 1649.5,-513 2092.5,-513 2092.5,-874"/>
<text text-anchor="start" x="1706" y="-825.8" font-family="Arial" font-size="34.00" fill="#000000">Capture and Lifecycle</text>
<text text-anchor="start" x="1816" y="-791.8" font-family="Arial" font-size="34.00" fill="#000000">Outbox</text>
<text text-anchor="start" x="1709" y="-769.8" font-family="Arial" font-size="19.00" fill="#000000">[Component: JavaScript + IndexedDB]</text>
<text text-anchor="start" x="1714.5" y="-732.8" font-family="Arial" font-size="24.00" fill="#000000">Persists capture and lifecycle</text>
<text text-anchor="start" x="1720.5" y="-708.8" font-family="Arial" font-size="24.00" fill="#000000">messages as independently</text>
<text text-anchor="start" x="1695" y="-684.8" font-family="Arial" font-size="24.00" fill="#000000">sequenced IndexedDB rows with</text>
<text text-anchor="start" x="1835" y="-660.8" font-family="Arial" font-size="24.00" fill="#000000">atomic</text>
<text text-anchor="start" x="1678.5" y="-636.8" font-family="Arial" font-size="24.00" fill="#000000">enqueue/claim/checkpoint/ack/retry,</text>
<text text-anchor="start" x="1722" y="-612.8" font-family="Arial" font-size="24.00" fill="#000000">stale&#45;claim recovery, legacy</text>
<text text-anchor="start" x="1712.5" y="-588.8" font-family="Arial" font-size="24.00" fill="#000000">queue import, item admission</text>
<text text-anchor="start" x="1735" y="-564.8" font-family="Arial" font-size="24.00" fill="#000000">limits, and serialized&#45;byte</text>
<text text-anchor="start" x="1809" y="-540.8" font-family="Arial" font-size="24.00" fill="#000000">accounting.</text>
</g>
<!-- 14 -->
<g id="14" class="node">
<title>14</title>
<path fill="#2f95c8" stroke="#20688c" d="M2948,-1128.22C2948,-1154.79 2846.48,-1176.38 2721.5,-1176.38 2596.52,-1176.38 2495,-1154.79 2495,-1128.22 2495,-1128.22 2495,-694.78 2495,-694.78 2495,-668.21 2596.52,-646.62 2721.5,-646.62 2846.48,-646.62 2948,-668.21 2948,-694.78 2948,-694.78 2948,-1128.22 2948,-1128.22"/>
<path fill="none" stroke="#20688c" d="M2948,-1128.22C2948,-1101.64 2846.48,-1080.06 2721.5,-1080.06 2596.52,-1080.06 2495,-1101.64 2495,-1128.22"/>
<text text-anchor="start" x="2579.5" y="-1055.8" font-family="Arial" font-size="34.00" fill="#ffffff">Extension Browser</text>
<text text-anchor="start" x="2662" y="-1021.8" font-family="Arial" font-size="34.00" fill="#ffffff">Storage</text>
<text text-anchor="start" x="2524" y="-999.8" font-family="Arial" font-size="19.00" fill="#ffffff">[Container: chrome.storage.local + IndexedDB]</text>
<text text-anchor="start" x="2544" y="-962.8" font-family="Arial" font-size="24.00" fill="#ffffff">Browser&#45;side IndexedDB storage</text>
<text text-anchor="start" x="2635" y="-938.8" font-family="Arial" font-size="24.00" fill="#ffffff">for transactional</text>
<text text-anchor="start" x="2566" y="-914.8" font-family="Arial" font-size="24.00" fill="#ffffff">capture/lifecycle outbox rows</text>
<text text-anchor="start" x="2556" y="-890.8" font-family="Arial" font-size="24.00" fill="#ffffff">plus specialized durable media</text>
<text text-anchor="start" x="2657.5" y="-866.8" font-family="Arial" font-size="24.00" fill="#ffffff">tasks/blobs;</text>
<text text-anchor="start" x="2569" y="-842.8" font-family="Arial" font-size="24.00" fill="#ffffff">chrome.storage.local retains</text>
<text text-anchor="start" x="2569.5" y="-818.8" font-family="Arial" font-size="24.00" fill="#ffffff">typed configuration, lifecycle</text>
<text text-anchor="start" x="2613" y="-794.8" font-family="Arial" font-size="24.00" fill="#ffffff">tab state, aggregate</text>
<text text-anchor="start" x="2578.5" y="-770.8" font-family="Arial" font-size="24.00" fill="#ffffff">telemetry, and one&#45;version</text>
<text text-anchor="start" x="2615" y="-746.8" font-family="Arial" font-size="24.00" fill="#ffffff">queue fallback only.</text>
</g>
<!-- 10&#45;&gt;14 -->
<g id="78" class="edge">
<title>10&#45;&gt;14</title>
<path fill="none" stroke="#444444" stroke-dasharray="5,2" d="M2092.72,-750.21C2213.19,-781.16 2362.37,-819.49 2485.07,-851.01"/>
<polygon fill="#444444" stroke="#444444" points="2484.42,-854.46 2494.98,-853.56 2486.17,-847.68 2484.42,-854.46"/>
<polygon fill="white" stroke="transparent" points="2138,-840.5 2138,-939.5 2459,-939.5 2459,-840.5 2138,-840.5"/>
<text text-anchor="start" x="2142.5" y="-916.8" font-family="Arial" font-size="24.00" fill="#444444">Reads and writes sequenced</text>
<text text-anchor="start" x="2159.5" y="-892.8" font-family="Arial" font-size="24.00" fill="#444444">capture/lifecycle rows and</text>
<text text-anchor="start" x="2182" y="-868.8" font-family="Arial" font-size="24.00" fill="#444444">migration metadata in</text>
<text text-anchor="start" x="2246.5" y="-848.8" font-family="Arial" font-size="19.00" fill="#444444">[IndexedDB]</text>
</g>
<!-- 8 -->
<g id="8" class="node">
<title>8</title>
<polygon fill="#85bbf0" stroke="#1168bd" points="449,-849 58,-849 58,-618 449,-618 449,-849"/>
<text text-anchor="start" x="145" y="-800.8" font-family="Arial" font-size="34.00" fill="#000000">Content Script</text>
<text text-anchor="start" x="90" y="-778.8" font-family="Arial" font-size="19.00" fill="#000000">[Component: JavaScript content script]</text>
<text text-anchor="start" x="113.5" y="-741.8" font-family="Arial" font-size="24.00" fill="#000000">Schedules initial, delayed,</text>
<text text-anchor="start" x="118" y="-717.8" font-family="Arial" font-size="24.00" fill="#000000">and SPA captures; tracks</text>
<text text-anchor="start" x="118.5" y="-693.8" font-family="Arial" font-size="24.00" fill="#000000">scroll; sends capture and</text>
<text text-anchor="start" x="87" y="-669.8" font-family="Arial" font-size="24.00" fill="#000000">inline blob upload messages to</text>
<text text-anchor="start" x="152.5" y="-645.8" font-family="Arial" font-size="24.00" fill="#000000">the service worker.</text>
</g>
<!-- 9 -->
<g id="9" class="node">
<title>9</title>
<polygon fill="#85bbf0" stroke="#1168bd" points="1246,-873 808,-873 808,-594 1246,-594 1246,-873"/>
<text text-anchor="start" x="911" y="-824.8" font-family="Arial" font-size="34.00" fill="#000000">Service Worker</text>
<text text-anchor="start" x="837" y="-802.8" font-family="Arial" font-size="19.00" fill="#000000">[Component: JavaScript MV3 service worker]</text>
<text text-anchor="start" x="855.5" y="-765.8" font-family="Arial" font-size="24.00" fill="#000000">Orchestrates daemon transport,</text>
<text text-anchor="start" x="896.5" y="-741.8" font-family="Arial" font-size="24.00" fill="#000000">bearer token use, stable</text>
<text text-anchor="start" x="905.5" y="-717.8" font-family="Arial" font-size="24.00" fill="#000000">observation/navigation</text>
<text text-anchor="start" x="906.5" y="-693.8" font-family="Arial" font-size="24.00" fill="#000000">identity, lifecycle state,</text>
<text text-anchor="start" x="890.5" y="-669.8" font-family="Arial" font-size="24.00" fill="#000000">outbox and media drains,</text>
<text text-anchor="start" x="886" y="-645.8" font-family="Arial" font-size="24.00" fill="#000000">alarms, and CDP recorder</text>
<text text-anchor="start" x="966.5" y="-621.8" font-family="Arial" font-size="24.00" fill="#000000">integration.</text>
</g>
<!-- 8&#45;&gt;9 -->
<g id="76" class="edge">
<title>8&#45;&gt;9</title>
<path fill="none" stroke="#444444" stroke-dasharray="5,2" d="M449.18,-733.5C555.13,-733.5 686.8,-733.5 797.58,-733.5"/>
<polygon fill="#444444" stroke="#444444" points="797.89,-737 807.89,-733.5 797.89,-730 797.89,-737"/>
<polygon fill="white" stroke="transparent" points="485,-733.5 485,-808.5 772,-808.5 772,-733.5 485,-733.5"/>
<text text-anchor="start" x="489.5" y="-785.8" font-family="Arial" font-size="24.00" fill="#444444">Sends captures and inline</text>
<text text-anchor="start" x="586.5" y="-761.8" font-family="Arial" font-size="24.00" fill="#444444">blobs to</text>
<text text-anchor="start" x="496" y="-741.8" font-family="Arial" font-size="19.00" fill="#444444">[chrome.runtime.sendMessage]</text>
</g>
<!-- 9&#45;&gt;10 -->
<g id="77" class="edge">
<title>9&#45;&gt;10</title>
<path fill="none" stroke="#444444" stroke-dasharray="5,2" d="M1246.08,-621.4C1258.06,-617.56 1270.08,-614.22 1282,-611.5 1421.54,-579.73 1462.49,-590.18 1604,-611.5 1615.67,-613.26 1627.53,-615.43 1639.44,-617.91"/>
<polygon fill="#444444" stroke="#444444" points="1638.94,-621.38 1649.45,-620.07 1640.42,-614.54 1638.94,-621.38"/>
<polygon fill="white" stroke="transparent" points="1302,-611.5 1302,-723.5 1584,-723.5 1584,-611.5 1302,-611.5"/>
<text text-anchor="start" x="1345" y="-700.3" font-family="Arial" font-size="24.00" fill="#444444">Enqueues, drains,</text>
<text text-anchor="start" x="1311.5" y="-674.3" font-family="Arial" font-size="24.00" fill="#444444">checkpoints, retries, and</text>
<text text-anchor="start" x="1306" y="-648.3" font-family="Arial" font-size="24.00" fill="#444444">recovers capture/lifecycle</text>
<text text-anchor="start" x="1372.5" y="-622.3" font-family="Arial" font-size="24.00" fill="#444444">work through</text>
</g>
<!-- 9&#45;&gt;14 -->
<g id="79" class="edge">
<title>9&#45;&gt;14</title>
<path fill="none" stroke="#444444" stroke-dasharray="5,2" d="M1246.18,-807.4C1361.93,-843.84 1507.3,-885.28 1640,-910.5 1998.19,-978.58 2095.78,-989.2 2459,-957.5 2467.42,-956.77 2475.97,-955.9 2484.59,-954.93"/>
<polygon fill="#444444" stroke="#444444" points="2485.22,-958.38 2494.75,-953.74 2484.41,-951.42 2485.22,-958.38"/>
<polygon fill="white" stroke="transparent" points="1724,-973.5 1724,-1120.5 2018,-1120.5 2018,-973.5 1724,-973.5"/>
<text text-anchor="start" x="1795" y="-1097.8" font-family="Arial" font-size="24.00" fill="#444444">Persists typed</text>
<text text-anchor="start" x="1752" y="-1073.8" font-family="Arial" font-size="24.00" fill="#444444">configuration, lifecycle</text>
<text text-anchor="start" x="1762.5" y="-1049.8" font-family="Arial" font-size="24.00" fill="#444444">tab state, aggregate</text>
<text text-anchor="start" x="1728" y="-1025.8" font-family="Arial" font-size="24.00" fill="#444444">telemetry, and one&#45;version</text>
<text text-anchor="start" x="1780" y="-1001.8" font-family="Arial" font-size="24.00" fill="#444444">queue fallback in</text>
<text text-anchor="start" x="1777.5" y="-981.8" font-family="Arial" font-size="19.00" fill="#444444">[chrome.storage.local]</text>
</g>
<!-- 15 -->
<g id="15" class="node">
<title>15</title>
<polygon fill="#438dd5" stroke="#2e6295" points="2102,-1575 1640,-1575 1640,-1238 2102,-1238 2102,-1575"/>
<text text-anchor="start" x="1706.5" y="-1526.8" font-family="Arial" font-size="34.00" fill="#ffffff">WSL Loopback HTTP</text>
<text text-anchor="start" x="1806.5" y="-1492.8" font-family="Arial" font-size="34.00" fill="#ffffff">Daemon</text>
<text text-anchor="start" x="1669" y="-1470.8" font-family="Arial" font-size="19.00" fill="#ffffff">[Container: Python 3.11, ThreadingHTTPServer]</text>
<text text-anchor="start" x="1710" y="-1433.8" font-family="Arial" font-size="24.00" fill="#ffffff">Authenticated loopback HTTP</text>
<text text-anchor="start" x="1735" y="-1409.8" font-family="Arial" font-size="24.00" fill="#ffffff">API that handles capture,</text>
<text text-anchor="start" x="1731.5" y="-1385.8" font-family="Arial" font-size="24.00" fill="#ffffff">visit events, media artifact</text>
<text text-anchor="start" x="1734.5" y="-1361.8" font-family="Arial" font-size="24.00" fill="#ffffff">upload/fetch/purge, exact</text>
<text text-anchor="start" x="1831" y="-1337.8" font-family="Arial" font-size="24.00" fill="#ffffff">search,</text>
<text text-anchor="start" x="1722" y="-1313.8" font-family="Arial" font-size="24.00" fill="#ffffff">recent/timeline/detail, policy</text>
<text text-anchor="start" x="1719.5" y="-1289.8" font-family="Arial" font-size="24.00" fill="#ffffff">rules, doctor, durable forget,</text>
<text text-anchor="start" x="1758" y="-1265.8" font-family="Arial" font-size="24.00" fill="#ffffff">and static UI serving.</text>
</g>
<!-- 9&#45;&gt;15 -->
<g id="80" class="edge">
<title>9&#45;&gt;15</title>
<path fill="none" stroke="#444444" stroke-dasharray="5,2" d="M1129.32,-873.01C1172.84,-927.78 1226.43,-989 1282,-1037.5 1387.86,-1129.9 1519.25,-1214.67 1630.97,-1279.6"/>
<polygon fill="#444444" stroke="#444444" points="1629.25,-1282.65 1639.66,-1284.63 1632.76,-1276.59 1629.25,-1282.65"/>
<polygon fill="white" stroke="transparent" points="1282,-1254.5 1282,-1353.5 1604,-1353.5 1604,-1254.5 1282,-1254.5"/>
<text text-anchor="start" x="1348.5" y="-1330.8" font-family="Arial" font-size="24.00" fill="#444444">Delivers /capture,</text>
<text text-anchor="start" x="1339" y="-1306.8" font-family="Arial" font-size="24.00" fill="#444444">/visit&#45;events, media</text>
<text text-anchor="start" x="1296.5" y="-1282.8" font-family="Arial" font-size="24.00" fill="#444444">metadata, and raw blobs to</text>
<text text-anchor="start" x="1286" y="-1262.8" font-family="Arial" font-size="19.00" fill="#444444">[Bearer HTTP/JSON; raw HTTP PUT]</text>
</g>
</g>
</svg>
