<?xml version="1.0" encoding="UTF-8" standalone="no"?>
<!DOCTYPE svg PUBLIC "-//W3C//DTD SVG 1.1//EN"
 "http://www.w3.org/Graphics/SVG/1.1/DTD/svg11.dtd">
<!-- Generated by graphviz version 2.43.0 (0)
 -->
<!-- Title: %3 Pages: 1 -->
<svg width="2939pt" height="555pt"
 viewBox="0.00 0.00 2939.00 555.00" xmlns="http://www.w3.org/2000/svg" xmlns:xlink="http://www.w3.org/1999/xlink">
<g id="graph0" class="graph" transform="scale(1 1) rotate(0) translate(4 551)">
<title>%3</title>
<polygon fill="white" stroke="transparent" points="-4,4 -4,-551 2935,-551 2935,4 -4,4"/>
<text text-anchor="start" x="1131.5" y="-11.8" font-family="Arial" font-size="34.00">Browser Memory Daemon &#45; System Context</text>
<!-- 1 -->
<g id="1" class="node">
<title>1</title>
<polygon fill="#08427b" stroke="#052e56" points="335,-417 0,-417 0,-186 335,-186 335,-417"/>
<text text-anchor="start" x="100.5" y="-368.8" font-family="Arial" font-size="34.00" fill="#ffffff">Operator</text>
<text text-anchor="start" x="132" y="-346.8" font-family="Arial" font-size="19.00" fill="#ffffff">[Person]</text>
<text text-anchor="start" x="41" y="-309.8" font-family="Arial" font-size="24.00" fill="#ffffff">Sole local operator who</text>
<text text-anchor="start" x="45.5" y="-285.8" font-family="Arial" font-size="24.00" fill="#ffffff">browses with Windows</text>
<text text-anchor="start" x="44.5" y="-261.8" font-family="Arial" font-size="24.00" fill="#ffffff">Chrome and searches,</text>
<text text-anchor="start" x="29" y="-237.8" font-family="Arial" font-size="24.00" fill="#ffffff">reviews, and deletes local</text>
<text text-anchor="start" x="29" y="-213.8" font-family="Arial" font-size="24.00" fill="#ffffff">browser&#45;memory records.</text>
</g>
<!-- 2 -->
<g id="2" class="node">
<title>2</title>
<polygon fill="#999999" stroke="#6b6b6b" points="2000,-547 1614,-547 1614,-316 2000,-316 2000,-547"/>
<text text-anchor="start" x="1672.5" y="-498.8" font-family="Arial" font-size="34.00" fill="#ffffff">Windows Chrome</text>
<text text-anchor="start" x="1730" y="-476.8" font-family="Arial" font-size="19.00" fill="#ffffff">[Software System]</text>
<text text-anchor="start" x="1643" y="-439.8" font-family="Arial" font-size="24.00" fill="#ffffff">The Windows Chrome runtime</text>
<text text-anchor="start" x="1656.5" y="-415.8" font-family="Arial" font-size="24.00" fill="#ffffff">that loads web pages, hosts</text>
<text text-anchor="start" x="1656" y="-391.8" font-family="Arial" font-size="24.00" fill="#ffffff">the MV3 extension, runs the</text>
<text text-anchor="start" x="1648" y="-367.8" font-family="Arial" font-size="24.00" fill="#ffffff">local UI in a tab, and exposes</text>
<text text-anchor="start" x="1677.5" y="-343.8" font-family="Arial" font-size="24.00" fill="#ffffff">Chrome extension APIs.</text>
</g>
<!-- 1&#45;&gt;2 -->
<g id="54" class="edge">
<title>1&#45;&gt;2</title>
<path fill="none" stroke="#707070" stroke-dasharray="5,2" d="M335,-359.66C347.09,-362.68 359.18,-365.35 371,-367.5 804.83,-446.36 1323.94,-446.82 1603.57,-439.55"/>
<polygon fill="#707070" stroke="#707070" points="1603.92,-443.05 1613.83,-439.28 1603.74,-436.05 1603.92,-443.05"/>
<polygon fill="white" stroke="transparent" points="757,-437.5 757,-471.5 1031,-471.5 1031,-437.5 757,-437.5"/>
<text text-anchor="start" x="761" y="-448.3" font-family="Arial" font-size="24.00" fill="#707070">Browses web pages with</text>
</g>
<!-- 4 -->
<g id="4" class="node">
<title>4</title>
<polygon fill="#1168bd" stroke="#0b4884" points="1121,-287 667,-287 667,-56 1121,-56 1121,-287"/>
<text text-anchor="start" x="696" y="-238.8" font-family="Arial" font-size="34.00" fill="#ffffff">Browser Memory Daemon</text>
<text text-anchor="start" x="817" y="-216.8" font-family="Arial" font-size="19.00" fill="#ffffff">[Software System]</text>
<text text-anchor="start" x="759" y="-179.8" font-family="Arial" font-size="24.00" fill="#ffffff">Local&#45;first personal recall</text>
<text text-anchor="start" x="730" y="-155.8" font-family="Arial" font-size="24.00" fill="#ffffff">system that captures Windows</text>
<text text-anchor="start" x="737.5" y="-131.8" font-family="Arial" font-size="24.00" fill="#ffffff">Chrome page text/media and</text>
<text text-anchor="start" x="730" y="-107.8" font-family="Arial" font-size="24.00" fill="#ffffff">exports versioned body&#45;safe X</text>
<text text-anchor="start" x="821.5" y="-83.8" font-family="Arial" font-size="24.00" fill="#ffffff">observations.</text>
</g>
<!-- 1&#45;&gt;4 -->
<g id="55" class="edge">
<title>1&#45;&gt;4</title>
<path fill="none" stroke="#707070" stroke-dasharray="5,2" d="M335.17,-271.59C430.49,-254.49 551.62,-232.75 656.64,-213.91"/>
<polygon fill="#707070" stroke="#707070" points="657.52,-217.31 666.75,-212.1 656.29,-210.42 657.52,-217.31"/>
<polygon fill="white" stroke="transparent" points="371,-263.5 371,-349.5 631,-349.5 631,-263.5 371,-263.5"/>
<text text-anchor="start" x="375" y="-326.3" font-family="Arial" font-size="24.00" fill="#707070">Searches, reviews, and</text>
<text text-anchor="start" x="387" y="-300.3" font-family="Arial" font-size="24.00" fill="#707070">deletes local browser</text>
<text text-anchor="start" x="412" y="-274.3" font-family="Arial" font-size="24.00" fill="#707070">memory through</text>
</g>
<!-- 3 -->
<g id="3" class="node">
<title>3</title>
<polygon fill="#999999" stroke="#6b6b6b" points="2931,-334 2528,-334 2528,-69 2931,-69 2931,-334"/>
<text text-anchor="start" x="2568" y="-285.8" font-family="Arial" font-size="34.00" fill="#ffffff">Web Sites and Media</text>
<text text-anchor="start" x="2675.5" y="-251.8" font-family="Arial" font-size="34.00" fill="#ffffff">Origins</text>
<text text-anchor="start" x="2652.5" y="-229.8" font-family="Arial" font-size="19.00" fill="#ffffff">[Software System]</text>
<text text-anchor="start" x="2619.5" y="-192.8" font-family="Arial" font-size="24.00" fill="#ffffff">External web pages,</text>
<text text-anchor="start" x="2567" y="-168.8" font-family="Arial" font-size="24.00" fill="#ffffff">image/video URLs, and media</text>
<text text-anchor="start" x="2557" y="-144.8" font-family="Arial" font-size="24.00" fill="#ffffff">CDNs that Chrome loads or that</text>
<text text-anchor="start" x="2567" y="-120.8" font-family="Arial" font-size="24.00" fill="#ffffff">sidecars fetch as page&#45;related</text>
<text text-anchor="start" x="2693" y="-96.8" font-family="Arial" font-size="24.00" fill="#ffffff">media.</text>
</g>
<!-- 2&#45;&gt;3 -->
<g id="56" class="edge">
<title>2&#45;&gt;3</title>
<path fill="none" stroke="#707070" stroke-dasharray="5,2" d="M2000.13,-383.49C2151.49,-345.67 2362.26,-293.01 2518.15,-254.06"/>
<polygon fill="#707070" stroke="#707070" points="2519.01,-257.45 2527.87,-251.63 2517.32,-250.66 2519.01,-257.45"/>
<polygon fill="white" stroke="transparent" points="2169,-336.5 2169,-387.5 2492,-387.5 2492,-336.5 2169,-336.5"/>
<text text-anchor="start" x="2173.5" y="-364.8" font-family="Arial" font-size="24.00" fill="#707070">Loads pages and media from</text>
<text text-anchor="start" x="2294.5" y="-344.8" font-family="Arial" font-size="19.00" fill="#707070">[HTTPS]</text>
</g>
<!-- 4&#45;&gt;2 -->
<g id="57" class="edge">
<title>4&#45;&gt;2</title>
<path fill="none" stroke="#707070" stroke-dasharray="5,2" d="M1121.16,-228.37C1220.78,-254.13 1339.04,-285.68 1445,-316.5 1496.73,-331.55 1552.31,-348.74 1603.98,-365.16"/>
<polygon fill="#707070" stroke="#707070" points="1602.99,-368.52 1613.58,-368.22 1605.11,-361.85 1602.99,-368.52"/>
<polygon fill="white" stroke="transparent" points="1157,-316.5 1157,-376.5 1445,-376.5 1445,-316.5 1157,-316.5"/>
<text text-anchor="start" x="1174" y="-353.3" font-family="Arial" font-size="24.00" fill="#707070">Runs its MV3 extension</text>
<text text-anchor="start" x="1161" y="-327.3" font-family="Arial" font-size="24.00" fill="#707070">inside and uses APIs from</text>
</g>
<!-- 4&#45;&gt;3 -->
<g id="58" class="edge">
<title>4&#45;&gt;3</title>
<path fill="none" stroke="#707070" stroke-dasharray="5,2" d="M1121.21,-171.6C1369.44,-172.11 1779.64,-174.14 2133,-181.5 2260.75,-184.16 2403.86,-188.91 2517.76,-193.11"/>
<polygon fill="#707070" stroke="#707070" points="2517.87,-196.62 2528,-193.49 2518.13,-189.62 2517.87,-196.62"/>
<polygon fill="white" stroke="transparent" points="1481,-181.5 1481,-280.5 2133,-280.5 2133,-181.5 1481,-181.5"/>
<text text-anchor="start" x="1680" y="-257.8" font-family="Arial" font-size="24.00" fill="#707070">Captures page refs and</text>
<text text-anchor="start" x="1680.5" y="-233.8" font-family="Arial" font-size="24.00" fill="#707070">fetches browser&#45;side or</text>
<text text-anchor="start" x="1711" y="-209.8" font-family="Arial" font-size="24.00" fill="#707070">public media from</text>
<text text-anchor="start" x="1485" y="-189.8" font-family="Arial" font-size="19.00" fill="#707070">[Chrome DOM/fetch; WSL HTTP(S), data URLs; no Chrome cookies in WSL]</text>
</g>
</g>
</svg>
