<?xml version="1.0" encoding="UTF-8" standalone="no"?>
<!DOCTYPE svg PUBLIC "-//W3C//DTD SVG 1.1//EN"
 "http://www.w3.org/Graphics/SVG/1.1/DTD/svg11.dtd">
<!-- Generated by graphviz version 2.43.0 (0)
 -->
<!-- Title: %3 Pages: 1 -->
<svg width="1987pt" height="2173pt"
 viewBox="0.00 0.00 1987.00 2173.38" xmlns="http://www.w3.org/2000/svg" xmlns:xlink="http://www.w3.org/1999/xlink">
<g id="graph0" class="graph" transform="scale(1 1) rotate(0) translate(4 2169.38)">
<title>%3</title>
<polygon fill="white" stroke="transparent" points="-4,4 -4,-2169.38 1983,-2169.38 1983,4 -4,4"/>
<text text-anchor="start" x="458" y="-11.8" font-family="Arial" font-size="34.00">Component View: Browser Memory Daemon &#45; Chrome MV3 Extension</text>
<g id="clust1" class="cluster">
<title>cluster_4</title>
<polygon fill="none" stroke="#444444" points="8,-64 8,-2157.38 1568,-2157.38 1568,-64 8,-64"/>
<text text-anchor="start" x="647" y="-92.8" font-family="Arial" font-size="24.00" fill="#444444">Browser Memory Daemon</text>
<text text-anchor="start" x="711" y="-72.8" font-family="Arial" font-size="19.00" fill="#444444">[Software System]</text>
</g>
<g id="clust2" class="cluster">
<title>cluster_5</title>
<polygon fill="none" stroke="#444444" points="114,-869.38 114,-2132.38 1494,-2132.38 1494,-869.38 114,-869.38"/>
<text text-anchor="start" x="676" y="-898.17" font-family="Arial" font-size="24.00" fill="#444444">Chrome MV3 Extension</text>
<text text-anchor="start" x="616" y="-878.17" font-family="Arial" font-size="19.00" fill="#444444">[Container: JavaScript, Chrome Manifest V3]</text>
</g>
<!-- 2 -->
<g id="2" class="node">
<title>2</title>
<polygon fill="#999999" stroke="#6b6b6b" points="1979,-560.69 1593,-560.69 1593,-329.69 1979,-329.69 1979,-560.69"/>
<text text-anchor="start" x="1651.5" y="-512.49" font-family="Arial" font-size="34.00" fill="#ffffff">Windows Chrome</text>
<text text-anchor="start" x="1709" y="-490.49" font-family="Arial" font-size="19.00" fill="#ffffff">[Software System]</text>
<text text-anchor="start" x="1622" y="-453.49" font-family="Arial" font-size="24.00" fill="#ffffff">The Windows Chrome runtime</text>
<text text-anchor="start" x="1635.5" y="-429.49" font-family="Arial" font-size="24.00" fill="#ffffff">that loads web pages, hosts</text>
<text text-anchor="start" x="1635" y="-405.49" font-family="Arial" font-size="24.00" fill="#ffffff">the MV3 extension, runs the</text>
<text text-anchor="start" x="1627" y="-381.49" font-family="Arial" font-size="24.00" fill="#ffffff">local UI in a tab, and exposes</text>
<text text-anchor="start" x="1656.5" y="-357.49" font-family="Arial" font-size="24.00" fill="#ffffff">Chrome extension APIs.</text>
</g>
<!-- 10 -->
<g id="10" class="node">
<title>10</title>
<polygon fill="#85bbf0" stroke="#1168bd" points="983,-1210.38 519,-1210.38 519,-969.38 983,-969.38 983,-1210.38"/>
<text text-anchor="start" x="622" y="-1162.17" font-family="Arial" font-size="34.00" fill="#000000">Extension Config</text>
<text text-anchor="start" x="710" y="-1128.17" font-family="Arial" font-size="34.00" fill="#000000">Store</text>
<text text-anchor="start" x="548" y="-1106.17" font-family="Arial" font-size="19.00" fill="#000000">[Component: JavaScript + chrome.storage.local]</text>
<text text-anchor="start" x="614" y="-1069.17" font-family="Arial" font-size="24.00" fill="#000000">Owns typed configuration</text>
<text text-anchor="start" x="629.5" y="-1045.17" font-family="Arial" font-size="24.00" fill="#000000">defaults/migration plus</text>
<text text-anchor="start" x="589" y="-1021.17" font-family="Arial" font-size="24.00" fill="#000000">durable visit and minimal CDP</text>
<text text-anchor="start" x="630.5" y="-997.17" font-family="Arial" font-size="24.00" fill="#000000">capture&#45;context maps.</text>
</g>
<!-- 18 -->
<g id="18" class="node">
<title>18</title>
<path fill="#2f95c8" stroke="#20688c" d="M485.5,-675.4C485.5,-703.63 383.98,-726.56 259,-726.56 134.02,-726.56 32.5,-703.63 32.5,-675.4 32.5,-675.4 32.5,-214.97 32.5,-214.97 32.5,-186.74 134.02,-163.81 259,-163.81 383.98,-163.81 485.5,-186.74 485.5,-214.97 485.5,-214.97 485.5,-675.4 485.5,-675.4"/>
<path fill="none" stroke="#20688c" d="M485.5,-675.4C485.5,-647.17 383.98,-624.24 259,-624.24 134.02,-624.24 32.5,-647.17 32.5,-675.4"/>
<text text-anchor="start" x="117" y="-601.49" font-family="Arial" font-size="34.00" fill="#ffffff">Extension Browser</text>
<text text-anchor="start" x="199.5" y="-567.49" font-family="Arial" font-size="34.00" fill="#ffffff">Storage</text>
<text text-anchor="start" x="61.5" y="-545.49" font-family="Arial" font-size="19.00" fill="#ffffff">[Container: chrome.storage.local + IndexedDB]</text>
<text text-anchor="start" x="81.5" y="-508.49" font-family="Arial" font-size="24.00" fill="#ffffff">Browser&#45;side IndexedDB storage</text>
<text text-anchor="start" x="172.5" y="-484.49" font-family="Arial" font-size="24.00" fill="#ffffff">for transactional</text>
<text text-anchor="start" x="103.5" y="-460.49" font-family="Arial" font-size="24.00" fill="#ffffff">capture/lifecycle outbox rows</text>
<text text-anchor="start" x="93.5" y="-436.49" font-family="Arial" font-size="24.00" fill="#ffffff">plus specialized durable media</text>
<text text-anchor="start" x="195" y="-412.49" font-family="Arial" font-size="24.00" fill="#ffffff">tasks/blobs;</text>
<text text-anchor="start" x="106.5" y="-388.49" font-family="Arial" font-size="24.00" fill="#ffffff">chrome.storage.local retains</text>
<text text-anchor="start" x="107" y="-364.49" font-family="Arial" font-size="24.00" fill="#ffffff">typed configuration, lifecycle</text>
<text text-anchor="start" x="91.5" y="-340.49" font-family="Arial" font-size="24.00" fill="#ffffff">tab state, minimal CDP capture</text>
<text text-anchor="start" x="102.5" y="-316.49" font-family="Arial" font-size="24.00" fill="#ffffff">context, aggregate telemetry,</text>
<text text-anchor="start" x="90.5" y="-292.49" font-family="Arial" font-size="24.00" fill="#ffffff">and one&#45;version queue fallback</text>
<text text-anchor="start" x="234" y="-268.49" font-family="Arial" font-size="24.00" fill="#ffffff">only.</text>
</g>
<!-- 10&#45;&gt;18 -->
<g id="84" class="edge">
<title>10&#45;&gt;18</title>
<path fill="none" stroke="#444444" stroke-dasharray="5,2" d="M659.32,-969.12C605.07,-898.25 534.01,-805.43 466.84,-717.69"/>
<polygon fill="#444444" stroke="#444444" points="469.42,-715.3 460.56,-709.49 463.86,-719.55 469.42,-715.3"/>
<polygon fill="white" stroke="transparent" points="564,-762.38 564,-861.38 838,-861.38 838,-762.38 564,-762.38"/>
<text text-anchor="start" x="574.5" y="-838.67" font-family="Arial" font-size="24.00" fill="#444444">Reads and writes typed</text>
<text text-anchor="start" x="568" y="-814.67" font-family="Arial" font-size="24.00" fill="#444444">settings and restart state</text>
<text text-anchor="start" x="691.5" y="-790.67" font-family="Arial" font-size="24.00" fill="#444444">in</text>
<text text-anchor="start" x="607.5" y="-770.67" font-family="Arial" font-size="19.00" fill="#444444">[chrome.storage.local]</text>
</g>
<!-- 14 -->
<g id="14" class="node">
<title>14</title>
<polygon fill="#85bbf0" stroke="#1168bd" points="535,-1718.38 139,-1718.38 139,-1381.38 535,-1381.38 535,-1718.38"/>
<text text-anchor="start" x="168" y="-1670.17" font-family="Arial" font-size="34.00" fill="#000000">Browser Media Queue</text>
<text text-anchor="start" x="277.5" y="-1636.17" font-family="Arial" font-size="34.00" fill="#000000">Adapter</text>
<text text-anchor="start" x="175" y="-1614.17" font-family="Arial" font-size="19.00" fill="#000000">[Component: JavaScript + IndexedDB]</text>
<text text-anchor="start" x="202.5" y="-1577.17" font-family="Arial" font-size="24.00" fill="#000000">Persists media tasks and</text>
<text text-anchor="start" x="196" y="-1553.17" font-family="Arial" font-size="24.00" fill="#000000">fetched blobs in versioned</text>
<text text-anchor="start" x="213.5" y="-1529.17" font-family="Arial" font-size="24.00" fill="#000000">IndexedDB with atomic</text>
<text text-anchor="start" x="219" y="-1505.17" font-family="Arial" font-size="24.00" fill="#000000">batch/blob transitions,</text>
<text text-anchor="start" x="237.5" y="-1481.17" font-family="Arial" font-size="24.00" fill="#000000">count/byte quotas,</text>
<text text-anchor="start" x="172.5" y="-1457.17" font-family="Arial" font-size="24.00" fill="#000000">stale&#45;processing recovery, and</text>
<text text-anchor="start" x="182" y="-1433.17" font-family="Arial" font-size="24.00" fill="#000000">bounded terminal quarantine</text>
<text text-anchor="start" x="291" y="-1409.17" font-family="Arial" font-size="24.00" fill="#000000">cleanup.</text>
</g>
<!-- 14&#45;&gt;18 -->
<g id="92" class="edge">
<title>14&#45;&gt;18</title>
<path fill="none" stroke="#444444" stroke-dasharray="5,2" d="M416.58,-1381.16C427.45,-1333.38 425.94,-1284.11 395,-1246.38 343.28,-1183.28 266.72,-1273.47 215,-1210.38 108.65,-1080.65 117.88,-893.05 154.56,-736.19"/>
<polygon fill="#444444" stroke="#444444" points="157.99,-736.92 156.9,-726.38 151.18,-735.3 157.99,-736.92"/>
<polygon fill="white" stroke="transparent" points="215,-1052.38 215,-1127.38 483,-1127.38 483,-1052.38 215,-1052.38"/>
<text text-anchor="start" x="219" y="-1104.67" font-family="Arial" font-size="24.00" fill="#444444">Reads and writes media</text>
<text text-anchor="start" x="275.5" y="-1080.67" font-family="Arial" font-size="24.00" fill="#444444">tasks/blobs in</text>
<text text-anchor="start" x="296.5" y="-1060.67" font-family="Arial" font-size="19.00" fill="#444444">[IndexedDB]</text>
</g>
<!-- 15 -->
<g id="15" class="node">
<title>15</title>
<polygon fill="#85bbf0" stroke="#1168bd" points="1468.5,-1205.38 1055.5,-1205.38 1055.5,-974.38 1468.5,-974.38 1468.5,-1205.38"/>
<text text-anchor="start" x="1151.5" y="-1157.17" font-family="Arial" font-size="34.00" fill="#000000">CDP Recorder</text>
<text text-anchor="start" x="1089.5" y="-1135.17" font-family="Arial" font-size="19.00" fill="#000000">[Component: Chrome DevTools Protocol]</text>
<text text-anchor="start" x="1150.5" y="-1098.17" font-family="Arial" font-size="24.00" fill="#000000">Classifies configured</text>
<text text-anchor="start" x="1095" y="-1074.17" font-family="Arial" font-size="24.00" fill="#000000">X/Twitter video.twimg.com HLS</text>
<text text-anchor="start" x="1094" y="-1050.17" font-family="Arial" font-size="24.00" fill="#000000">manifests and media segments</text>
<text text-anchor="start" x="1084.5" y="-1026.17" font-family="Arial" font-size="24.00" fill="#000000">before they become opaque blob</text>
<text text-anchor="start" x="1192" y="-1002.17" font-family="Arial" font-size="24.00" fill="#000000">player URLs.</text>
</g>
<!-- 15&#45;&gt;2 -->
<g id="97" class="edge">
<title>15&#45;&gt;2</title>
<path fill="none" stroke="#444444" stroke-dasharray="5,2" d="M1459.56,-974.19C1504.87,-941.71 1550.2,-903.56 1586,-861.38 1658.93,-775.45 1712.16,-658.37 1745.28,-570.44"/>
<polygon fill="#444444" stroke="#444444" points="1748.61,-571.54 1748.82,-560.95 1742.05,-569.1 1748.61,-571.54"/>
<polygon fill="white" stroke="transparent" points="1651,-774.38 1651,-849.38 1932,-849.38 1932,-774.38 1651,-774.38"/>
<text text-anchor="start" x="1655.5" y="-826.67" font-family="Arial" font-size="24.00" fill="#444444">Receives Network events</text>
<text text-anchor="start" x="1767.5" y="-802.67" font-family="Arial" font-size="24.00" fill="#444444">from</text>
<text text-anchor="start" x="1690" y="-782.67" font-family="Arial" font-size="19.00" fill="#444444">[chrome.debugger/CDP]</text>
</g>
<!-- 19 -->
<g id="19" class="node">
<title>19</title>
<polygon fill="#438dd5" stroke="#2e6295" points="1478,-613.69 1016,-613.69 1016,-276.69 1478,-276.69 1478,-613.69"/>
<text text-anchor="start" x="1082.5" y="-565.49" font-family="Arial" font-size="34.00" fill="#ffffff">WSL Loopback HTTP</text>
<text text-anchor="start" x="1182.5" y="-531.49" font-family="Arial" font-size="34.00" fill="#ffffff">Daemon</text>
<text text-anchor="start" x="1045" y="-509.49" font-family="Arial" font-size="19.00" fill="#ffffff">[Container: Python 3.11, ThreadingHTTPServer]</text>
<text text-anchor="start" x="1086" y="-472.49" font-family="Arial" font-size="24.00" fill="#ffffff">Authenticated loopback HTTP</text>
<text text-anchor="start" x="1111" y="-448.49" font-family="Arial" font-size="24.00" fill="#ffffff">API that handles capture,</text>
<text text-anchor="start" x="1107.5" y="-424.49" font-family="Arial" font-size="24.00" fill="#ffffff">visit events, media artifact</text>
<text text-anchor="start" x="1110.5" y="-400.49" font-family="Arial" font-size="24.00" fill="#ffffff">upload/fetch/purge, exact</text>
<text text-anchor="start" x="1207" y="-376.49" font-family="Arial" font-size="24.00" fill="#ffffff">search,</text>
<text text-anchor="start" x="1098" y="-352.49" font-family="Arial" font-size="24.00" fill="#ffffff">recent/timeline/detail, policy</text>
<text text-anchor="start" x="1095.5" y="-328.49" font-family="Arial" font-size="24.00" fill="#ffffff">rules, doctor, durable forget,</text>
<text text-anchor="start" x="1134" y="-304.49" font-family="Arial" font-size="24.00" fill="#ffffff">and static UI serving.</text>
</g>
<!-- 15&#45;&gt;19 -->
<g id="98" class="edge">
<title>15&#45;&gt;19</title>
<path fill="none" stroke="#444444" stroke-dasharray="5,2" d="M1218.79,-974.15C1207.4,-938.54 1196.7,-898.8 1191,-861.38 1179.13,-783.53 1187.32,-697.27 1200.72,-623.64"/>
<polygon fill="#444444" stroke="#444444" points="1204.16,-624.27 1202.56,-613.8 1197.28,-622.99 1204.16,-624.27"/>
<polygon fill="white" stroke="transparent" points="1191,-774.38 1191,-849.38 1523,-849.38 1523,-774.38 1191,-774.38"/>
<text text-anchor="start" x="1195" y="-826.67" font-family="Arial" font-size="24.00" fill="#444444">Uploads CDP media rows and</text>
<text text-anchor="start" x="1314.5" y="-802.67" font-family="Arial" font-size="24.00" fill="#444444">blobs to</text>
<text text-anchor="start" x="1200" y="-782.67" font-family="Arial" font-size="19.00" fill="#444444">[Bearer HTTP/JSON; raw HTTP PUT]</text>
</g>
<!-- 16 -->
<g id="16" class="node">
<title>16</title>
<polygon fill="#85bbf0" stroke="#1168bd" points="1469,-1694.38 1033,-1694.38 1033,-1405.38 1469,-1405.38 1469,-1694.38"/>
<text text-anchor="start" x="1150" y="-1646.17" font-family="Arial" font-size="34.00" fill="#000000">CDP Session</text>
<text text-anchor="start" x="1177" y="-1612.17" font-family="Arial" font-size="34.00" fill="#000000">Controller</text>
<text text-anchor="start" x="1062" y="-1590.17" font-family="Arial" font-size="19.00" fill="#000000">[Component: JavaScript + chrome.debugger]</text>
<text text-anchor="start" x="1113.5" y="-1553.17" font-family="Arial" font-size="24.00" fill="#000000">Restores minimal capture</text>
<text text-anchor="start" x="1126" y="-1529.17" font-family="Arial" font-size="24.00" fill="#000000">provenance, reconciles</text>
<text text-anchor="start" x="1104.5" y="-1505.17" font-family="Arial" font-size="24.00" fill="#000000">extension&#45;owned debugger</text>
<text text-anchor="start" x="1084" y="-1481.17" font-family="Arial" font-size="24.00" fill="#000000">attachments, and owns per&#45;tab</text>
<text text-anchor="start" x="1097.5" y="-1457.17" font-family="Arial" font-size="24.00" fill="#000000">request/session state across</text>
<text text-anchor="start" x="1139" y="-1433.17" font-family="Arial" font-size="24.00" fill="#000000">MV3 worker restarts.</text>
</g>
<!-- 16&#45;&gt;10 -->
<g id="94" class="edge">
<title>16&#45;&gt;10</title>
<path fill="none" stroke="#444444" stroke-dasharray="5,2" d="M1037.52,-1405.32C1018.24,-1396.11 998.59,-1387.92 979,-1381.38 897.08,-1354.01 650.18,-1409.21 592,-1345.38 557.48,-1307.49 572.97,-1261.14 605.13,-1218.43"/>
<polygon fill="#444444" stroke="#444444" points="607.93,-1220.53 611.32,-1210.5 602.41,-1216.22 607.93,-1220.53"/>
<polygon fill="white" stroke="transparent" points="592,-1265.88 592,-1325.88 860,-1325.88 860,-1265.88 592,-1265.88"/>
<text text-anchor="start" x="596" y="-1302.67" font-family="Arial" font-size="24.00" fill="#444444">Persists minimal per&#45;tab</text>
<text text-anchor="start" x="598" y="-1276.67" font-family="Arial" font-size="24.00" fill="#444444">capture context through</text>
</g>
<!-- 16&#45;&gt;15 -->
<g id="95" class="edge">
<title>16&#45;&gt;15</title>
<path fill="none" stroke="#444444" stroke-dasharray="5,2" d="M1032.85,-1410.83C1014.81,-1400.55 996.7,-1390.61 979,-1381.38 943.35,-1362.79 918.06,-1378.99 896,-1345.38 871.86,-1308.59 869.62,-1281.59 896,-1246.38 930.15,-1200.79 965.91,-1231.02 1019,-1210.38 1027.86,-1206.93 1036.84,-1203.28 1045.86,-1199.49"/>
<polygon fill="#444444" stroke="#444444" points="1047.44,-1202.62 1055.27,-1195.48 1044.7,-1196.18 1047.44,-1202.62"/>
<polygon fill="white" stroke="transparent" points="896,-1265.88 896,-1325.88 1144,-1325.88 1144,-1265.88 896,-1265.88"/>
<text text-anchor="start" x="900" y="-1302.67" font-family="Arial" font-size="24.00" fill="#444444">Feeds recovered CDP</text>
<text text-anchor="start" x="926.5" y="-1276.67" font-family="Arial" font-size="24.00" fill="#444444">response state to</text>
</g>
<!-- 9 -->
<g id="9" class="node">
<title>9</title>
<polygon fill="#85bbf0" stroke="#1168bd" points="898,-2107.38 460,-2107.38 460,-1876.38 898,-1876.38 898,-2107.38"/>
<text text-anchor="start" x="563" y="-2059.18" font-family="Arial" font-size="34.00" fill="#000000">Service Worker</text>
<text text-anchor="start" x="489" y="-2037.18" font-family="Arial" font-size="19.00" fill="#000000">[Component: JavaScript MV3 service worker]</text>
<text text-anchor="start" x="527.5" y="-2000.18" font-family="Arial" font-size="24.00" fill="#000000">Registers MV3 listeners and</text>
<text text-anchor="start" x="531.5" y="-1976.18" font-family="Arial" font-size="24.00" fill="#000000">orchestrates capture/media</text>
<text text-anchor="start" x="555" y="-1952.18" font-family="Arial" font-size="24.00" fill="#000000">delivery, outbox drains,</text>
<text text-anchor="start" x="532.5" y="-1928.18" font-family="Arial" font-size="24.00" fill="#000000">alarms, and extracted state</text>
<text text-anchor="start" x="619.5" y="-1904.18" font-family="Arial" font-size="24.00" fill="#000000">controllers.</text>
</g>
<!-- 9&#45;&gt;10 -->
<g id="81" class="edge">
<title>9&#45;&gt;10</title>
<path fill="none" stroke="#444444" stroke-dasharray="5,2" d="M682.28,-1876.12C681.88,-1837.29 679.77,-1793.79 674,-1754.38 649.1,-1584.2 628.97,-1543.29 571,-1381.38 565.1,-1364.89 558.63,-1362.5 555,-1345.38 545.87,-1302.33 535.86,-1285.99 555,-1246.38 559.7,-1236.64 565.34,-1227.33 571.69,-1218.46"/>
<polygon fill="#444444" stroke="#444444" points="574.51,-1220.53 577.72,-1210.43 568.92,-1216.33 574.51,-1220.53"/>
<polygon fill="white" stroke="transparent" points="669,-1506.88 669,-1592.88 951,-1592.88 951,-1506.88 669,-1506.88"/>
<text text-anchor="start" x="673" y="-1569.67" font-family="Arial" font-size="24.00" fill="#444444">Reads typed settings and</text>
<text text-anchor="start" x="701.5" y="-1543.67" font-family="Arial" font-size="24.00" fill="#444444">durable restart state</text>
<text text-anchor="start" x="768.5" y="-1517.67" font-family="Arial" font-size="24.00" fill="#444444">through</text>
</g>
<!-- 9&#45;&gt;14 -->
<g id="91" class="edge">
<title>9&#45;&gt;14</title>
<path fill="none" stroke="#444444" stroke-dasharray="5,2" d="M459.82,-1917.14C426.27,-1897.05 395.4,-1871.84 373,-1840.38 349.91,-1807.95 337.61,-1768.15 331.64,-1728.56"/>
<polygon fill="#444444" stroke="#444444" points="335.09,-1727.93 330.26,-1718.5 328.16,-1728.89 335.09,-1727.93"/>
<polygon fill="white" stroke="transparent" points="373,-1767.38 373,-1827.38 660,-1827.38 660,-1767.38 373,-1767.38"/>
<text text-anchor="start" x="377.5" y="-1804.17" font-family="Arial" font-size="24.00" fill="#444444">Persists and drains media</text>
<text text-anchor="start" x="446.5" y="-1778.17" font-family="Arial" font-size="24.00" fill="#444444">work through</text>
</g>
<!-- 9&#45;&gt;16 -->
<g id="93" class="edge">
<title>9&#45;&gt;16</title>
<path fill="none" stroke="#444444" stroke-dasharray="5,2" d="M698.82,-1876.25C710.1,-1824.6 725.83,-1771.38 745,-1754.38 823.71,-1684.55 880.24,-1754.68 979,-1718.38 994.45,-1712.7 1009.97,-1706.08 1025.34,-1698.83"/>
<polygon fill="#444444" stroke="#444444" points="1026.87,-1701.97 1034.37,-1694.49 1023.84,-1695.67 1026.87,-1701.97"/>
<polygon fill="white" stroke="transparent" points="745,-1754.38 745,-1840.38 997,-1840.38 997,-1754.38 745,-1754.38"/>
<text text-anchor="start" x="761.5" y="-1817.17" font-family="Arial" font-size="24.00" fill="#444444">Delegates debugger</text>
<text text-anchor="start" x="749" y="-1791.17" font-family="Arial" font-size="24.00" fill="#444444">attachment and restart</text>
<text text-anchor="start" x="786.5" y="-1765.17" font-family="Arial" font-size="24.00" fill="#444444">reconciliation to</text>
</g>
<!-- 9&#45;&gt;18 -->
<g id="89" class="edge">
<title>9&#45;&gt;18</title>
<path fill="none" stroke="#444444" stroke-dasharray="5,2" d="M459.9,-1949.24C331.32,-1912.19 179.49,-1843.58 103,-1718.38 -79.29,-1419.99 20.98,-1008.59 125.61,-735.34"/>
<polygon fill="#444444" stroke="#444444" points="129.01,-736.27 129.34,-725.68 122.47,-733.75 129.01,-736.27"/>
<polygon fill="white" stroke="transparent" points="4,-1246.38 4,-1345.38 293,-1345.38 293,-1246.38 4,-1246.38"/>
<text text-anchor="start" x="48" y="-1322.67" font-family="Arial" font-size="24.00" fill="#444444">Persists aggregate</text>
<text text-anchor="start" x="8.5" y="-1298.67" font-family="Arial" font-size="24.00" fill="#444444">telemetry and one&#45;version</text>
<text text-anchor="start" x="58" y="-1274.67" font-family="Arial" font-size="24.00" fill="#444444">queue fallback in</text>
<text text-anchor="start" x="55.5" y="-1254.67" font-family="Arial" font-size="19.00" fill="#444444">[chrome.storage.local]</text>
</g>
<!-- 9&#45;&gt;19 -->
<g id="90" class="edge">
<title>9&#45;&gt;19</title>
<path fill="none" stroke="#444444" stroke-dasharray="5,2" d="M898.05,-1947.95C1116.87,-1900.19 1431.09,-1816.66 1505,-1718.38 1632.75,-1548.48 1614.09,-960.47 1537,-762.38 1517.23,-711.57 1485.06,-663.96 1449.19,-621.89"/>
<polygon fill="#444444" stroke="#444444" points="1451.64,-619.37 1442.45,-614.1 1446.35,-623.95 1451.64,-619.37"/>
<polygon fill="white" stroke="transparent" points="1597,-1246.38 1597,-1345.38 1919,-1345.38 1919,-1246.38 1597,-1246.38"/>
<text text-anchor="start" x="1663.5" y="-1322.67" font-family="Arial" font-size="24.00" fill="#444444">Delivers /capture,</text>
<text text-anchor="start" x="1654" y="-1298.67" font-family="Arial" font-size="24.00" fill="#444444">/visit&#45;events, media</text>
<text text-anchor="start" x="1611.5" y="-1274.67" font-family="Arial" font-size="24.00" fill="#444444">metadata, and raw blobs to</text>
<text text-anchor="start" x="1601" y="-1254.67" font-family="Arial" font-size="19.00" fill="#444444">[Bearer HTTP/JSON; raw HTTP PUT]</text>
</g>
</g>
</svg>
