<?xml version="1.0" encoding="UTF-8" standalone="no"?>
<!DOCTYPE svg PUBLIC "-//W3C//DTD SVG 1.1//EN"
 "http://www.w3.org/Graphics/SVG/1.1/DTD/svg11.dtd">
<!-- Generated by graphviz version 2.43.0 (0)
 -->
<!-- Title: %3 Pages: 1 -->
<svg width="2116pt" height="1497pt"
 viewBox="0.00 0.00 2115.50 1497.00" xmlns="http://www.w3.org/2000/svg" xmlns:xlink="http://www.w3.org/1999/xlink">
<g id="graph0" class="graph" transform="scale(1 1) rotate(0) translate(4 1493)">
<title>%3</title>
<polygon fill="white" stroke="transparent" points="-4,4 -4,-1493 2111.5,-1493 2111.5,4 -4,4"/>
<text text-anchor="start" x="468.75" y="-11.8" font-family="Arial" font-size="34.00">Component View: Browser Memory Daemon &#45; WSL Loopback HTTP Daemon</text>
<g id="clust1" class="cluster">
<title>cluster_4</title>
<polygon fill="none" stroke="#444444" points="8,-64 8,-1481 2099.5,-1481 2099.5,-64 8,-64"/>
<text text-anchor="start" x="912.75" y="-92.8" font-family="Arial" font-size="24.00" fill="#444444">Browser Memory Daemon</text>
<text text-anchor="start" x="976.75" y="-72.8" font-family="Arial" font-size="19.00" fill="#444444">[Software System]</text>
</g>
<g id="clust2" class="cluster">
<title>cluster_14</title>
<polygon fill="none" stroke="#444444" points="33,-1075 33,-1456 1345.5,-1456 1345.5,-1075 33,-1075"/>
<text text-anchor="start" x="523.75" y="-1103.8" font-family="Arial" font-size="24.00" fill="#444444">WSL Loopback HTTP Daemon</text>
<text text-anchor="start" x="487.25" y="-1083.8" font-family="Arial" font-size="19.00" fill="#444444">[Container: Python 3.11, ThreadingHTTPServer]</text>
</g>
<!-- 15 -->
<g id="15" class="node">
<title>15</title>
<polygon fill="#85bbf0" stroke="#1168bd" points="453,-1418.5 58,-1418.5 58,-1187.5 453,-1187.5 453,-1418.5"/>
<text text-anchor="start" x="87" y="-1370.3" font-family="Arial" font-size="34.00" fill="#000000">HTTP Request Router</text>
<text text-anchor="start" x="119" y="-1348.3" font-family="Arial" font-size="19.00" fill="#000000">[Component: Python http.server]</text>
<text text-anchor="start" x="90" y="-1311.3" font-family="Arial" font-size="24.00" fill="#000000">Routes loopback API requests,</text>
<text text-anchor="start" x="112.5" y="-1287.3" font-family="Arial" font-size="24.00" fill="#000000">serves UI assets, enforces</text>
<text text-anchor="start" x="91.5" y="-1263.3" font-family="Arial" font-size="24.00" fill="#000000">bearer auth for memory/admin</text>
<text text-anchor="start" x="106" y="-1239.3" font-family="Arial" font-size="24.00" fill="#000000">APIs, and applies CORS for</text>
<text text-anchor="start" x="172" y="-1215.3" font-family="Arial" font-size="24.00" fill="#000000">allowed origins.</text>
</g>
<!-- 23 -->
<g id="23" class="node">
<title>23</title>
<polygon fill="#85bbf0" stroke="#1168bd" points="1320.5,-1430.5 813.5,-1430.5 813.5,-1175.5 1320.5,-1175.5 1320.5,-1430.5"/>
<text text-anchor="start" x="883.5" y="-1382.3" font-family="Arial" font-size="34.00" fill="#000000">Search and Read Model</text>
<text text-anchor="start" x="912" y="-1360.3" font-family="Arial" font-size="19.00" fill="#000000">[Component: Python + SQLite FTS5]</text>
<text text-anchor="start" x="896" y="-1323.3" font-family="Arial" font-size="24.00" fill="#000000">Provides exact FTS search plus</text>
<text text-anchor="start" x="937" y="-1299.3" font-family="Arial" font-size="24.00" fill="#000000">SQLite&#45;authoritative text</text>
<text text-anchor="start" x="924.5" y="-1275.3" font-family="Arial" font-size="24.00" fill="#000000">detail and observation&#45;first</text>
<text text-anchor="start" x="842.5" y="-1251.3" font-family="Arial" font-size="24.00" fill="#000000">recent/timeline/document/snapshot/media</text>
<text text-anchor="start" x="933.5" y="-1227.3" font-family="Arial" font-size="24.00" fill="#000000">views with explicit legacy</text>
<text text-anchor="start" x="1016.5" y="-1203.3" font-family="Arial" font-size="24.00" fill="#000000">fallbacks.</text>
</g>
<!-- 15&#45;&gt;23 -->
<g id="69" class="edge">
<title>15&#45;&gt;23</title>
<path fill="none" stroke="#444444" stroke-dasharray="5,2" d="M453.23,-1303C558.4,-1303 689.29,-1303 803.06,-1303"/>
<polygon fill="#444444" stroke="#444444" points="803.32,-1306.5 813.32,-1303 803.32,-1299.5 803.32,-1306.5"/>
<polygon fill="white" stroke="transparent" points="510.5,-1303 510.5,-1337 777.5,-1337 777.5,-1303 510.5,-1303"/>
<text text-anchor="start" x="515" y="-1313.8" font-family="Arial" font-size="24.00" fill="#444444">Routes read requests to</text>
</g>
<!-- 29 -->
<g id="29" class="node">
<title>29</title>
<path fill="#2f95c8" stroke="#20688c" d="M2074.5,-1407.72C2074.5,-1434.29 1985.75,-1455.88 1876.5,-1455.88 1767.25,-1455.88 1678.5,-1434.29 1678.5,-1407.72 1678.5,-1407.72 1678.5,-974.28 1678.5,-974.28 1678.5,-947.71 1767.25,-926.12 1876.5,-926.12 1985.75,-926.12 2074.5,-947.71 2074.5,-974.28 2074.5,-974.28 2074.5,-1407.72 2074.5,-1407.72"/>
<path fill="none" stroke="#20688c" d="M2074.5,-1407.72C2074.5,-1381.14 1985.75,-1359.56 1876.5,-1359.56 1767.25,-1359.56 1678.5,-1381.14 1678.5,-1407.72"/>
<text text-anchor="start" x="1763.5" y="-1335.3" font-family="Arial" font-size="34.00" fill="#ffffff">SQLite + FTS5</text>
<text text-anchor="start" x="1803.5" y="-1301.3" font-family="Arial" font-size="34.00" fill="#ffffff">Database</text>
<text text-anchor="start" x="1750.5" y="-1279.3" font-family="Arial" font-size="19.00" fill="#ffffff">[Container: SQLite with FTS5]</text>
<text text-anchor="start" x="1708.5" y="-1242.3" font-family="Arial" font-size="24.00" fill="#ffffff">Durable complete cleaned&#45;text,</text>
<text text-anchor="start" x="1757.5" y="-1218.3" font-family="Arial" font-size="24.00" fill="#ffffff">relational, and full&#45;text</text>
<text text-anchor="start" x="1759" y="-1194.3" font-family="Arial" font-size="24.00" fill="#ffffff">authority for migration</text>
<text text-anchor="start" x="1724.5" y="-1170.3" font-family="Arial" font-size="24.00" fill="#ffffff">ledger, sources, documents,</text>
<text text-anchor="start" x="1727" y="-1146.3" font-family="Arial" font-size="24.00" fill="#ffffff">visits, capture observations,</text>
<text text-anchor="start" x="1745.5" y="-1122.3" font-family="Arial" font-size="24.00" fill="#ffffff">URL claims, visit events,</text>
<text text-anchor="start" x="1708" y="-1098.3" font-family="Arial" font-size="24.00" fill="#ffffff">snapshots, chunks, chunks_fts,</text>
<text text-anchor="start" x="1707.5" y="-1074.3" font-family="Arial" font-size="24.00" fill="#ffffff">media provenance/tasks, policy</text>
<text text-anchor="start" x="1751" y="-1050.3" font-family="Arial" font-size="24.00" fill="#ffffff">rules, audit events, and</text>
<text text-anchor="start" x="1784.5" y="-1026.3" font-family="Arial" font-size="24.00" fill="#ffffff">deletion receipts.</text>
</g>
<!-- 23&#45;&gt;29 -->
<g id="78" class="edge">
<title>23&#45;&gt;29</title>
<path fill="none" stroke="#444444" stroke-dasharray="5,2" d="M1320.73,-1267.95C1432.44,-1252.45 1562.17,-1234.46 1668.08,-1219.77"/>
<polygon fill="#444444" stroke="#444444" points="1668.83,-1223.2 1678.25,-1218.36 1667.87,-1216.27 1668.83,-1223.2"/>
<polygon fill="white" stroke="transparent" points="1356.5,-1260 1356.5,-1335 1642.5,-1335 1642.5,-1260 1356.5,-1260"/>
<text text-anchor="start" x="1360.5" y="-1312.3" font-family="Arial" font-size="24.00" fill="#444444">Reads metadata and FTS</text>
<text text-anchor="start" x="1475" y="-1288.3" font-family="Arial" font-size="24.00" fill="#444444">from</text>
<text text-anchor="start" x="1439" y="-1268.3" font-family="Arial" font-size="19.00" fill="#444444">[SQLite FTS5]</text>
</g>
<!-- 30 -->
<g id="30" class="node">
<title>30</title>
<path fill="#2f95c8" stroke="#20688c" d="M474.5,-1019.72C474.5,-1036.36 376.34,-1049.88 255.5,-1049.88 134.66,-1049.88 36.5,-1036.36 36.5,-1019.72 36.5,-1019.72 36.5,-748.28 36.5,-748.28 36.5,-731.64 134.66,-718.12 255.5,-718.12 376.34,-718.12 474.5,-731.64 474.5,-748.28 474.5,-748.28 474.5,-1019.72 474.5,-1019.72"/>
<path fill="none" stroke="#20688c" d="M474.5,-1019.72C474.5,-1003.07 376.34,-989.56 255.5,-989.56 134.66,-989.56 36.5,-1003.07 36.5,-1019.72"/>
<text text-anchor="start" x="115.5" y="-956.3" font-family="Arial" font-size="34.00" fill="#ffffff">Legacy Clean Text</text>
<text text-anchor="start" x="189" y="-922.3" font-family="Arial" font-size="34.00" fill="#ffffff">Sidecars</text>
<text text-anchor="start" x="65.5" y="-900.3" font-family="Arial" font-size="19.00" fill="#ffffff">[Container: WSL or NAS&#45;mounted filesystem]</text>
<text text-anchor="start" x="103" y="-863.3" font-family="Arial" font-size="24.00" fill="#ffffff">Compatibility&#45;only filesystem</text>
<text text-anchor="start" x="114" y="-839.3" font-family="Arial" font-size="24.00" fill="#ffffff">evidence for pre&#45;version&#45;9</text>
<text text-anchor="start" x="84" y="-815.3" font-family="Arial" font-size="24.00" fill="#ffffff">snapshots; new captures create</text>
<text text-anchor="start" x="167" y="-791.3" font-family="Arial" font-size="24.00" fill="#ffffff">no text sidecars.</text>
</g>
<!-- 31 -->
<g id="31" class="node">
<title>31</title>
<path fill="#2f95c8" stroke="#20688c" d="M474.5,-602.28C474.5,-626.47 376.34,-646.13 255.5,-646.13 134.66,-646.13 36.5,-626.47 36.5,-602.28 36.5,-602.28 36.5,-207.72 36.5,-207.72 36.5,-183.53 134.66,-163.87 255.5,-163.87 376.34,-163.87 474.5,-183.53 474.5,-207.72 474.5,-207.72 474.5,-602.28 474.5,-602.28"/>
<path fill="none" stroke="#20688c" d="M474.5,-602.28C474.5,-578.09 376.34,-558.44 255.5,-558.44 134.66,-558.44 36.5,-578.09 36.5,-602.28"/>
<text text-anchor="start" x="116.5" y="-532.3" font-family="Arial" font-size="34.00" fill="#ffffff">Media Blob Cache</text>
<text text-anchor="start" x="65.5" y="-510.3" font-family="Arial" font-size="19.00" fill="#ffffff">[Container: WSL or NAS&#45;mounted filesystem]</text>
<text text-anchor="start" x="122" y="-473.3" font-family="Arial" font-size="24.00" fill="#ffffff">Bounded and disposable</text>
<text text-anchor="start" x="111" y="-449.3" font-family="Arial" font-size="24.00" fill="#ffffff">filesystem cache for stored</text>
<text text-anchor="start" x="90" y="-425.3" font-family="Arial" font-size="24.00" fill="#ffffff">image/video/audio blobs under</text>
<text text-anchor="start" x="111.5" y="-401.3" font-family="Arial" font-size="24.00" fill="#ffffff">the configured WSL&#45;visible</text>
<text text-anchor="start" x="180" y="-377.3" font-family="Arial" font-size="24.00" fill="#ffffff">blob root, with</text>
<text text-anchor="start" x="88" y="-353.3" font-family="Arial" font-size="24.00" fill="#ffffff">purge/rehydrate semantics that</text>
<text text-anchor="start" x="99" y="-329.3" font-family="Arial" font-size="24.00" fill="#ffffff">preserve media refs, hashes,</text>
<text text-anchor="start" x="82.5" y="-305.3" font-family="Arial" font-size="24.00" fill="#ffffff">status reasons, and provenance</text>
<text text-anchor="start" x="119" y="-281.3" font-family="Arial" font-size="24.00" fill="#ffffff">when bytes are absent or</text>
<text text-anchor="start" x="214" y="-257.3" font-family="Arial" font-size="24.00" fill="#ffffff">purged.</text>
</g>
</g>
</svg>
