<?xml version="1.0" encoding="UTF-8" standalone="no"?>
<!DOCTYPE svg PUBLIC "-//W3C//DTD SVG 1.1//EN"
 "http://www.w3.org/Graphics/SVG/1.1/DTD/svg11.dtd">
<!-- Generated by graphviz version 2.43.0 (0)
 -->
<!-- Title: %3 Pages: 1 -->
<svg width="2039pt" height="1613pt"
 viewBox="0.00 0.00 2039.00 1613.00" xmlns="http://www.w3.org/2000/svg" xmlns:xlink="http://www.w3.org/1999/xlink">
<g id="graph0" class="graph" transform="scale(1 1) rotate(0) translate(4 1609)">
<title>%3</title>
<polygon fill="white" stroke="transparent" points="-4,4 -4,-1609 2035,-1609 2035,4 -4,4"/>
<text text-anchor="start" x="430.5" y="-11.8" font-family="Arial" font-size="34.00">Component View: Browser Memory Daemon &#45; WSL Loopback HTTP Daemon</text>
<g id="clust1" class="cluster">
<title>cluster_4</title>
<polygon fill="none" stroke="#444444" points="8,-64 8,-1597 2023,-1597 2023,-64 8,-64"/>
<text text-anchor="start" x="874.5" y="-92.8" font-family="Arial" font-size="24.00" fill="#444444">Browser Memory Daemon</text>
<text text-anchor="start" x="938.5" y="-72.8" font-family="Arial" font-size="19.00" fill="#444444">[Software System]</text>
</g>
<g id="clust2" class="cluster">
<title>cluster_14</title>
<polygon fill="none" stroke="#444444" points="33,-659 33,-1016 1234,-1016 1234,-659 33,-659"/>
<text text-anchor="start" x="468" y="-687.8" font-family="Arial" font-size="24.00" fill="#444444">WSL Loopback HTTP Daemon</text>
<text text-anchor="start" x="431.5" y="-667.8" font-family="Arial" font-size="19.00" fill="#444444">[Container: Python 3.11, ThreadingHTTPServer]</text>
</g>
<!-- 15 -->
<g id="15" class="node">
<title>15</title>
<polygon fill="#85bbf0" stroke="#1168bd" points="453,-990.5 58,-990.5 58,-759.5 453,-759.5 453,-990.5"/>
<text text-anchor="start" x="87" y="-942.3" font-family="Arial" font-size="34.00" fill="#000000">HTTP Request Router</text>
<text text-anchor="start" x="119" y="-920.3" font-family="Arial" font-size="19.00" fill="#000000">[Component: Python http.server]</text>
<text text-anchor="start" x="90" y="-883.3" font-family="Arial" font-size="24.00" fill="#000000">Routes loopback API requests,</text>
<text text-anchor="start" x="112.5" y="-859.3" font-family="Arial" font-size="24.00" fill="#000000">serves UI assets, enforces</text>
<text text-anchor="start" x="91.5" y="-835.3" font-family="Arial" font-size="24.00" fill="#000000">bearer auth for memory/admin</text>
<text text-anchor="start" x="106" y="-811.3" font-family="Arial" font-size="24.00" fill="#000000">APIs, and applies CORS for</text>
<text text-anchor="start" x="172" y="-787.3" font-family="Arial" font-size="24.00" fill="#000000">allowed origins.</text>
</g>
<!-- 22 -->
<g id="22" class="node">
<title>22</title>
<polygon fill="#85bbf0" stroke="#1168bd" points="1209,-990.5 784,-990.5 784,-759.5 1209,-759.5 1209,-990.5"/>
<text text-anchor="start" x="813" y="-942.3" font-family="Arial" font-size="34.00" fill="#000000">Search and Read Model</text>
<text text-anchor="start" x="841.5" y="-920.3" font-family="Arial" font-size="19.00" fill="#000000">[Component: Python + SQLite FTS5]</text>
<text text-anchor="start" x="847.5" y="-883.3" font-family="Arial" font-size="24.00" fill="#000000">Provides exact FTS search,</text>
<text text-anchor="start" x="861" y="-859.3" font-family="Arial" font-size="24.00" fill="#000000">recent captures, timeline,</text>
<text text-anchor="start" x="855" y="-835.3" font-family="Arial" font-size="24.00" fill="#000000">document detail, snapshot</text>
<text text-anchor="start" x="864" y="-811.3" font-family="Arial" font-size="24.00" fill="#000000">detail, and media artifact</text>
<text text-anchor="start" x="930.5" y="-787.3" font-family="Arial" font-size="24.00" fill="#000000">detail views.</text>
</g>
<!-- 15&#45;&gt;22 -->
<g id="68" class="edge">
<title>15&#45;&gt;22</title>
<path fill="none" stroke="#444444" stroke-dasharray="5,2" d="M453.08,-875C551.78,-875 671.72,-875 773.7,-875"/>
<polygon fill="#444444" stroke="#444444" points="773.82,-878.5 783.82,-875 773.82,-871.5 773.82,-878.5"/>
<text text-anchor="start" x="489" y="-881.8" font-family="Arial" font-size="24.00" fill="#444444">Routes read requests to</text>
</g>
<!-- 28 -->
<g id="28" class="node">
<title>28</title>
<path fill="#2f95c8" stroke="#20688c" d="M1976.5,-615.22C1976.5,-640.13 1887.98,-660.38 1779,-660.38 1670.02,-660.38 1581.5,-640.13 1581.5,-615.22 1581.5,-615.22 1581.5,-208.78 1581.5,-208.78 1581.5,-183.87 1670.02,-163.62 1779,-163.62 1887.98,-163.62 1976.5,-183.87 1976.5,-208.78 1976.5,-208.78 1976.5,-615.22 1976.5,-615.22"/>
<path fill="none" stroke="#20688c" d="M1976.5,-615.22C1976.5,-590.3 1887.98,-570.06 1779,-570.06 1670.02,-570.06 1581.5,-590.3 1581.5,-615.22"/>
<text text-anchor="start" x="1666" y="-544.3" font-family="Arial" font-size="34.00" fill="#ffffff">SQLite + FTS5</text>
<text text-anchor="start" x="1706" y="-510.3" font-family="Arial" font-size="34.00" fill="#ffffff">Database</text>
<text text-anchor="start" x="1653" y="-488.3" font-family="Arial" font-size="19.00" fill="#ffffff">[Container: SQLite with FTS5]</text>
<text text-anchor="start" x="1660" y="-451.3" font-family="Arial" font-size="24.00" fill="#ffffff">Durable relational and</text>
<text text-anchor="start" x="1638.5" y="-427.3" font-family="Arial" font-size="24.00" fill="#ffffff">full&#45;text store for migration</text>
<text text-anchor="start" x="1627" y="-403.3" font-family="Arial" font-size="24.00" fill="#ffffff">ledger, sources, documents,</text>
<text text-anchor="start" x="1629.5" y="-379.3" font-family="Arial" font-size="24.00" fill="#ffffff">visits, capture observations,</text>
<text text-anchor="start" x="1648" y="-355.3" font-family="Arial" font-size="24.00" fill="#ffffff">URL claims, visit events,</text>
<text text-anchor="start" x="1610.5" y="-331.3" font-family="Arial" font-size="24.00" fill="#ffffff">snapshots, chunks, chunks_fts,</text>
<text text-anchor="start" x="1630.5" y="-307.3" font-family="Arial" font-size="24.00" fill="#ffffff">media artifacts, media fetch</text>
<text text-anchor="start" x="1650.5" y="-283.3" font-family="Arial" font-size="24.00" fill="#ffffff">tasks, policy rules, audit</text>
<text text-anchor="start" x="1621" y="-259.3" font-family="Arial" font-size="24.00" fill="#ffffff">events, and deletion receipts.</text>
</g>
<!-- 22&#45;&gt;28 -->
<g id="78" class="edge">
<title>22&#45;&gt;28</title>
<path fill="none" stroke="#444444" stroke-dasharray="5,2" d="M1192.44,-759.36C1308.29,-690.64 1455.08,-603.56 1572.71,-533.78"/>
<polygon fill="#444444" stroke="#444444" points="1574.67,-536.69 1581.48,-528.58 1571.1,-530.67 1574.67,-536.69"/>
<text text-anchor="start" x="1245.5" y="-773.8" font-family="Arial" font-size="24.00" fill="#444444">Reads metadata and FTS</text>
<text text-anchor="start" x="1360" y="-749.8" font-family="Arial" font-size="24.00" fill="#444444">from</text>
<text text-anchor="start" x="1324" y="-729.8" font-family="Arial" font-size="19.00" fill="#444444">[SQLite FTS5]</text>
</g>
<!-- 29 -->
<g id="29" class="node">
<title>29</title>
<path fill="#2f95c8" stroke="#20688c" d="M1998,-991.28C1998,-1005.54 1899.84,-1017.13 1779,-1017.13 1658.16,-1017.13 1560,-1005.54 1560,-991.28 1560,-991.28 1560,-758.72 1560,-758.72 1560,-744.46 1658.16,-732.87 1779,-732.87 1899.84,-732.87 1998,-744.46 1998,-758.72 1998,-758.72 1998,-991.28 1998,-991.28"/>
<path fill="none" stroke="#20688c" d="M1998,-991.28C1998,-977.03 1899.84,-965.44 1779,-965.44 1658.16,-965.44 1560,-977.03 1560,-991.28"/>
<text text-anchor="start" x="1614.5" y="-930.3" font-family="Arial" font-size="34.00" fill="#ffffff">Clean Text Blob Store</text>
<text text-anchor="start" x="1589" y="-908.3" font-family="Arial" font-size="19.00" fill="#ffffff">[Container: WSL or NAS&#45;mounted filesystem]</text>
<text text-anchor="start" x="1620.5" y="-871.3" font-family="Arial" font-size="24.00" fill="#ffffff">Filesystem store for snapshot</text>
<text text-anchor="start" x="1672" y="-847.3" font-family="Arial" font-size="24.00" fill="#ffffff">text blobs under the</text>
<text text-anchor="start" x="1629" y="-823.3" font-family="Arial" font-size="24.00" fill="#ffffff">configured WSL&#45;visible blob</text>
<text text-anchor="start" x="1754.5" y="-799.3" font-family="Arial" font-size="24.00" fill="#ffffff">root.</text>
</g>
<!-- 22&#45;&gt;29 -->
<g id="79" class="edge">
<title>22&#45;&gt;29</title>
<path fill="none" stroke="#444444" stroke-dasharray="5,2" d="M1209.23,-875C1314.62,-875 1442.16,-875 1549.73,-875"/>
<polygon fill="#444444" stroke="#444444" points="1549.75,-878.5 1559.75,-875 1549.75,-871.5 1549.75,-878.5"/>
<text text-anchor="start" x="1255" y="-923.8" font-family="Arial" font-size="24.00" fill="#444444">Reads full snapshot text</text>
<text text-anchor="start" x="1360" y="-899.8" font-family="Arial" font-size="24.00" fill="#444444">from</text>
<text text-anchor="start" x="1333" y="-879.8" font-family="Arial" font-size="19.00" fill="#444444">[Filesystem]</text>
</g>
<!-- 30 -->
<g id="30" class="node">
<title>30</title>
<path fill="#2f95c8" stroke="#20688c" d="M1998,-1528.28C1998,-1552.47 1899.84,-1572.13 1779,-1572.13 1658.16,-1572.13 1560,-1552.47 1560,-1528.28 1560,-1528.28 1560,-1133.72 1560,-1133.72 1560,-1109.53 1658.16,-1089.87 1779,-1089.87 1899.84,-1089.87 1998,-1109.53 1998,-1133.72 1998,-1133.72 1998,-1528.28 1998,-1528.28"/>
<path fill="none" stroke="#20688c" d="M1998,-1528.28C1998,-1504.09 1899.84,-1484.44 1779,-1484.44 1658.16,-1484.44 1560,-1504.09 1560,-1528.28"/>
<text text-anchor="start" x="1640" y="-1458.3" font-family="Arial" font-size="34.00" fill="#ffffff">Media Blob Cache</text>
<text text-anchor="start" x="1589" y="-1436.3" font-family="Arial" font-size="19.00" fill="#ffffff">[Container: WSL or NAS&#45;mounted filesystem]</text>
<text text-anchor="start" x="1645.5" y="-1399.3" font-family="Arial" font-size="24.00" fill="#ffffff">Bounded and disposable</text>
<text text-anchor="start" x="1634.5" y="-1375.3" font-family="Arial" font-size="24.00" fill="#ffffff">filesystem cache for stored</text>
<text text-anchor="start" x="1613.5" y="-1351.3" font-family="Arial" font-size="24.00" fill="#ffffff">image/video/audio blobs under</text>
<text text-anchor="start" x="1635" y="-1327.3" font-family="Arial" font-size="24.00" fill="#ffffff">the configured WSL&#45;visible</text>
<text text-anchor="start" x="1703.5" y="-1303.3" font-family="Arial" font-size="24.00" fill="#ffffff">blob root, with</text>
<text text-anchor="start" x="1611.5" y="-1279.3" font-family="Arial" font-size="24.00" fill="#ffffff">purge/rehydrate semantics that</text>
<text text-anchor="start" x="1622.5" y="-1255.3" font-family="Arial" font-size="24.00" fill="#ffffff">preserve media refs, hashes,</text>
<text text-anchor="start" x="1606" y="-1231.3" font-family="Arial" font-size="24.00" fill="#ffffff">status reasons, and provenance</text>
<text text-anchor="start" x="1642.5" y="-1207.3" font-family="Arial" font-size="24.00" fill="#ffffff">when bytes are absent or</text>
<text text-anchor="start" x="1737.5" y="-1183.3" font-family="Arial" font-size="24.00" fill="#ffffff">purged.</text>
</g>
<!-- 22&#45;&gt;30 -->
<g id="80" class="edge">
<title>22&#45;&gt;30</title>
<path fill="none" stroke="#444444" stroke-dasharray="5,2" d="M1195.21,-990.51C1303.6,-1053.83 1438.42,-1132.61 1551.09,-1198.43"/>
<polygon fill="#444444" stroke="#444444" points="1549.45,-1201.52 1559.85,-1203.55 1552.98,-1195.48 1549.45,-1201.52"/>
<text text-anchor="start" x="1245" y="-1225.8" font-family="Arial" font-size="24.00" fill="#444444">Checks and serves media</text>
<text text-anchor="start" x="1335" y="-1201.8" font-family="Arial" font-size="24.00" fill="#444444">files from</text>
<text text-anchor="start" x="1333" y="-1181.8" font-family="Arial" font-size="19.00" fill="#444444">[Filesystem]</text>
</g>
</g>
</svg>
