<?xml version="1.0" encoding="UTF-8" standalone="no"?>
<!DOCTYPE svg PUBLIC "-//W3C//DTD SVG 1.1//EN"
 "http://www.w3.org/Graphics/SVG/1.1/DTD/svg11.dtd">
<!-- Generated by graphviz version 2.43.0 (0)
 -->
<!-- Title: %3 Pages: 1 -->
<svg width="2231pt" height="1403pt"
 viewBox="0.00 0.00 2231.00 1402.50" xmlns="http://www.w3.org/2000/svg" xmlns:xlink="http://www.w3.org/1999/xlink">
<g id="graph0" class="graph" transform="scale(1 1) rotate(0) translate(4 1398.5)">
<title>%3</title>
<polygon fill="white" stroke="transparent" points="-4,4 -4,-1398.5 2227,-1398.5 2227,4 -4,4"/>
<text text-anchor="start" x="580" y="-11.8" font-family="Arial" font-size="34.00">Component View: Browser Memory Daemon &#45; Chrome MV3 Extension</text>
<g id="clust1" class="cluster">
<title>cluster_4</title>
<polygon fill="none" stroke="#444444" points="8,-312.5 8,-1386.5 2215,-1386.5 2215,-312.5 8,-312.5"/>
<text text-anchor="start" x="970.5" y="-341.3" font-family="Arial" font-size="24.00" fill="#444444">Browser Memory Daemon</text>
<text text-anchor="start" x="1034.5" y="-321.3" font-family="Arial" font-size="19.00" fill="#444444">[Software System]</text>
</g>
<g id="clust2" class="cluster">
<title>cluster_5</title>
<polygon fill="none" stroke="#444444" points="33,-412.5 33,-1361.5 1359,-1361.5 1359,-412.5 33,-412.5"/>
<text text-anchor="start" x="568" y="-441.3" font-family="Arial" font-size="24.00" fill="#444444">Chrome MV3 Extension</text>
<text text-anchor="start" x="508" y="-421.3" font-family="Arial" font-size="19.00" fill="#444444">[Container: JavaScript, Chrome Manifest V3]</text>
</g>
<!-- 2 -->
<g id="2" class="node">
<title>2</title>
<polygon fill="#999999" stroke="#6b6b6b" points="453.5,-287 67.5,-287 67.5,-56 453.5,-56 453.5,-287"/>
<text text-anchor="start" x="126" y="-238.8" font-family="Arial" font-size="34.00" fill="#ffffff">Windows Chrome</text>
<text text-anchor="start" x="183.5" y="-216.8" font-family="Arial" font-size="19.00" fill="#ffffff">[Software System]</text>
<text text-anchor="start" x="96.5" y="-179.8" font-family="Arial" font-size="24.00" fill="#ffffff">The Windows Chrome runtime</text>
<text text-anchor="start" x="110" y="-155.8" font-family="Arial" font-size="24.00" fill="#ffffff">that loads web pages, hosts</text>
<text text-anchor="start" x="109.5" y="-131.8" font-family="Arial" font-size="24.00" fill="#ffffff">the MV3 extension, runs the</text>
<text text-anchor="start" x="101.5" y="-107.8" font-family="Arial" font-size="24.00" fill="#ffffff">local UI in a tab, and exposes</text>
<text text-anchor="start" x="131" y="-83.8" font-family="Arial" font-size="24.00" fill="#ffffff">Chrome extension APIs.</text>
</g>
<!-- 12 -->
<g id="12" class="node">
<title>12</title>
<polygon fill="#85bbf0" stroke="#5d82a8" points="457,-1336 64,-1336 64,-1129 457,-1129 457,-1336"/>
<text text-anchor="start" x="93" y="-1287.8" font-family="Arial" font-size="34.00" fill="#000000">Popup and Options UI</text>
<text text-anchor="start" x="128" y="-1265.8" font-family="Arial" font-size="19.00" fill="#000000">[Component: HTML/JavaScript]</text>
<text text-anchor="start" x="102" y="-1228.8" font-family="Arial" font-size="24.00" fill="#000000">Lets the operator view status,</text>
<text text-anchor="start" x="101" y="-1204.8" font-family="Arial" font-size="24.00" fill="#000000">pause/resume capture, select</text>
<text text-anchor="start" x="102.5" y="-1180.8" font-family="Arial" font-size="24.00" fill="#000000">policy mode, and trigger local</text>
<text text-anchor="start" x="111.5" y="-1156.8" font-family="Arial" font-size="24.00" fill="#000000">controls from the extension.</text>
</g>
<!-- 9 -->
<g id="9" class="node">
<title>9</title>
<polygon fill="#85bbf0" stroke="#5d82a8" points="1334,-1064 896,-1064 896,-833 1334,-833 1334,-1064"/>
<text text-anchor="start" x="999" y="-1015.8" font-family="Arial" font-size="34.00" fill="#000000">Service Worker</text>
<text text-anchor="start" x="925" y="-993.8" font-family="Arial" font-size="19.00" fill="#000000">[Component: JavaScript MV3 service worker]</text>
<text text-anchor="start" x="943.5" y="-956.8" font-family="Arial" font-size="24.00" fill="#000000">Owns daemon transport, bearer</text>
<text text-anchor="start" x="967.5" y="-932.8" font-family="Arial" font-size="24.00" fill="#000000">token use, capture and visit</text>
<text text-anchor="start" x="956" y="-908.8" font-family="Arial" font-size="24.00" fill="#000000">queues, lifecycle state, media</text>
<text text-anchor="start" x="979" y="-884.8" font-family="Arial" font-size="24.00" fill="#000000">queue draining, and CDP</text>
<text text-anchor="start" x="992.5" y="-860.8" font-family="Arial" font-size="24.00" fill="#000000">recorder orchestration.</text>
</g>
<!-- 12&#45;&gt;9 -->
<g id="59" class="edge">
<title>12&#45;&gt;9</title>
<path fill="none" stroke="#444444" stroke-dasharray="5,2" d="M426.24,-1128.96C439.36,-1117.76 451.84,-1105.9 463,-1093.5 485.36,-1068.67 471.42,-1046.36 499,-1027.5 560.9,-985.19 737.53,-965.53 885.7,-956.41"/>
<polygon fill="#444444" stroke="#444444" points="886.1,-959.89 895.87,-955.79 885.67,-952.9 886.1,-959.89"/>
<polygon fill="white" stroke="transparent" points="499,-1027.5 499,-1126.5 860,-1126.5 860,-1027.5 499,-1027.5"/>
<text text-anchor="start" x="558" y="-1103.8" font-family="Arial" font-size="24.00" fill="#444444">Updates pause, policy,</text>
<text text-anchor="start" x="577.5" y="-1079.8" font-family="Arial" font-size="24.00" fill="#444444">token, and controls</text>
<text text-anchor="start" x="638.5" y="-1055.8" font-family="Arial" font-size="24.00" fill="#444444">through</text>
<text text-anchor="start" x="503.5" y="-1035.8" font-family="Arial" font-size="19.00" fill="#444444">[chrome.storage.local, runtime messages]</text>
</g>
<!-- 14 -->
<g id="14" class="node">
<title>14</title>
<polygon fill="#438dd5" stroke="#2e6295" points="2190,-1361 1728,-1361 1728,-1024 2190,-1024 2190,-1361"/>
<text text-anchor="start" x="1794.5" y="-1312.8" font-family="Arial" font-size="34.00" fill="#ffffff">WSL Loopback HTTP</text>
<text text-anchor="start" x="1894.5" y="-1278.8" font-family="Arial" font-size="34.00" fill="#ffffff">Daemon</text>
<text text-anchor="start" x="1757" y="-1256.8" font-family="Arial" font-size="19.00" fill="#ffffff">[Container: Python 3.11, ThreadingHTTPServer]</text>
<text text-anchor="start" x="1798" y="-1219.8" font-family="Arial" font-size="24.00" fill="#ffffff">Authenticated loopback HTTP</text>
<text text-anchor="start" x="1823" y="-1195.8" font-family="Arial" font-size="24.00" fill="#ffffff">API that handles capture,</text>
<text text-anchor="start" x="1819.5" y="-1171.8" font-family="Arial" font-size="24.00" fill="#ffffff">visit events, media artifact</text>
<text text-anchor="start" x="1822.5" y="-1147.8" font-family="Arial" font-size="24.00" fill="#ffffff">upload/fetch/purge, exact</text>
<text text-anchor="start" x="1919" y="-1123.8" font-family="Arial" font-size="24.00" fill="#ffffff">search,</text>
<text text-anchor="start" x="1810" y="-1099.8" font-family="Arial" font-size="24.00" fill="#ffffff">recent/timeline/detail, policy</text>
<text text-anchor="start" x="1828" y="-1075.8" font-family="Arial" font-size="24.00" fill="#ffffff">rules, doctor, forget, and</text>
<text text-anchor="start" x="1869.5" y="-1051.8" font-family="Arial" font-size="24.00" fill="#ffffff">static UI serving.</text>
</g>
<!-- 12&#45;&gt;14 -->
<g id="60" class="edge">
<title>12&#45;&gt;14</title>
<path fill="none" stroke="#444444" stroke-dasharray="5,2" d="M457.08,-1231.49C732.63,-1229.51 1250.79,-1223.79 1692,-1207.5 1700.39,-1207.19 1708.92,-1206.85 1717.55,-1206.48"/>
<polygon fill="#444444" stroke="#444444" points="1717.86,-1209.97 1727.7,-1206.04 1717.56,-1202.98 1717.86,-1209.97"/>
<polygon fill="white" stroke="transparent" points="966.5,-1225.5 966.5,-1300.5 1263.5,-1300.5 1263.5,-1225.5 966.5,-1225.5"/>
<text text-anchor="start" x="971" y="-1277.8" font-family="Arial" font-size="24.00" fill="#444444">Checks health and triggers</text>
<text text-anchor="start" x="991.5" y="-1253.8" font-family="Arial" font-size="24.00" fill="#444444">forget/policy actions on</text>
<text text-anchor="start" x="1057.5" y="-1233.8" font-family="Arial" font-size="19.00" fill="#444444">[HTTP/JSON]</text>
</g>
<!-- 6 -->
<g id="6" class="node">
<title>6</title>
<polygon fill="#85bbf0" stroke="#5d82a8" points="463,-1057 58,-1057 58,-816 463,-816 463,-1057"/>
<text text-anchor="start" x="162.5" y="-1008.8" font-family="Arial" font-size="34.00" fill="#000000">Manifest and</text>
<text text-anchor="start" x="101" y="-974.8" font-family="Arial" font-size="34.00" fill="#000000">Permission Envelope</text>
<text text-anchor="start" x="144.5" y="-952.8" font-family="Arial" font-size="19.00" fill="#000000">[Component: manifest.json]</text>
<text text-anchor="start" x="87" y="-915.8" font-family="Arial" font-size="24.00" fill="#000000">Declares MV3 permissions, host</text>
<text text-anchor="start" x="108.5" y="-891.8" font-family="Arial" font-size="24.00" fill="#000000">permissions, service worker,</text>
<text text-anchor="start" x="157" y="-867.8" font-family="Arial" font-size="24.00" fill="#000000">popup, and options</text>
<text text-anchor="start" x="197.5" y="-843.8" font-family="Arial" font-size="24.00" fill="#000000">entrypoints.</text>
</g>
<!-- 7 -->
<g id="7" class="node">
<title>7</title>
<polygon fill="#85bbf0" stroke="#5d82a8" points="1312.5,-732 917.5,-732 917.5,-525 1312.5,-525 1312.5,-732"/>
<text text-anchor="start" x="1046.5" y="-683.8" font-family="Arial" font-size="34.00" fill="#000000">Extractor</text>
<text text-anchor="start" x="1011" y="-661.8" font-family="Arial" font-size="19.00" fill="#000000">[Component: JavaScript]</text>
<text text-anchor="start" x="946.5" y="-624.8" font-family="Arial" font-size="24.00" fill="#000000">Traverses visible DOM text and</text>
<text text-anchor="start" x="995" y="-600.8" font-family="Arial" font-size="24.00" fill="#000000">discovers image/video</text>
<text text-anchor="start" x="958" y="-576.8" font-family="Arial" font-size="24.00" fill="#000000">references while applying the</text>
<text text-anchor="start" x="998.5" y="-552.8" font-family="Arial" font-size="24.00" fill="#000000">selected policy mode.</text>
</g>
<!-- 8 -->
<g id="8" class="node">
<title>8</title>
<polygon fill="#85bbf0" stroke="#5d82a8" points="456,-744 65,-744 65,-513 456,-513 456,-744"/>
<text text-anchor="start" x="152" y="-695.8" font-family="Arial" font-size="34.00" fill="#000000">Content Script</text>
<text text-anchor="start" x="97" y="-673.8" font-family="Arial" font-size="19.00" fill="#000000">[Component: JavaScript content script]</text>
<text text-anchor="start" x="120.5" y="-636.8" font-family="Arial" font-size="24.00" fill="#000000">Schedules initial, delayed,</text>
<text text-anchor="start" x="125" y="-612.8" font-family="Arial" font-size="24.00" fill="#000000">and SPA captures; tracks</text>
<text text-anchor="start" x="125.5" y="-588.8" font-family="Arial" font-size="24.00" fill="#000000">scroll; sends capture and</text>
<text text-anchor="start" x="94" y="-564.8" font-family="Arial" font-size="24.00" fill="#000000">inline blob upload messages to</text>
<text text-anchor="start" x="159.5" y="-540.8" font-family="Arial" font-size="24.00" fill="#000000">the service worker.</text>
</g>
<!-- 8&#45;&gt;7 -->
<g id="49" class="edge">
<title>8&#45;&gt;7</title>
<path fill="none" stroke="#444444" stroke-dasharray="5,2" d="M456.01,-628.5C590.73,-628.5 769.82,-628.5 907.14,-628.5"/>
<polygon fill="#444444" stroke="#444444" points="907.37,-632 917.37,-628.5 907.37,-625 907.37,-632"/>
<polygon fill="white" stroke="transparent" points="547,-628.5 547,-688.5 812,-688.5 812,-628.5 547,-628.5"/>
<text text-anchor="start" x="551.5" y="-665.3" font-family="Arial" font-size="24.00" fill="#444444">Builds capture payloads</text>
<text text-anchor="start" x="658.5" y="-639.3" font-family="Arial" font-size="24.00" fill="#444444">with</text>
</g>
<!-- 8&#45;&gt;9 -->
<g id="50" class="edge">
<title>8&#45;&gt;9</title>
<path fill="none" stroke="#444444" stroke-dasharray="5,2" d="M456.01,-701.51C584.03,-749.57 752.11,-812.66 886.34,-863.04"/>
<polygon fill="#444444" stroke="#444444" points="885.36,-866.41 895.95,-866.65 887.82,-859.86 885.36,-866.41"/>
<polygon fill="white" stroke="transparent" points="536,-844.5 536,-919.5 823,-919.5 823,-844.5 536,-844.5"/>
<text text-anchor="start" x="540.5" y="-896.8" font-family="Arial" font-size="24.00" fill="#444444">Sends captures and inline</text>
<text text-anchor="start" x="637.5" y="-872.8" font-family="Arial" font-size="24.00" fill="#444444">blobs to</text>
<text text-anchor="start" x="547" y="-852.8" font-family="Arial" font-size="19.00" fill="#444444">[chrome.runtime.sendMessage]</text>
</g>
<!-- 13 -->
<g id="13" class="node">
<title>13</title>
<path fill="#2f95c8" stroke="#20688c" d="M2185.5,-918.72C2185.5,-937.01 2083.98,-951.88 1959,-951.88 1834.02,-951.88 1732.5,-937.01 1732.5,-918.72 1732.5,-918.72 1732.5,-620.28 1732.5,-620.28 1732.5,-601.99 1834.02,-587.12 1959,-587.12 2083.98,-587.12 2185.5,-601.99 2185.5,-620.28 2185.5,-620.28 2185.5,-918.72 2185.5,-918.72"/>
<path fill="none" stroke="#20688c" d="M2185.5,-918.72C2185.5,-900.42 2083.98,-885.56 1959,-885.56 1834.02,-885.56 1732.5,-900.42 1732.5,-918.72"/>
<text text-anchor="start" x="1817" y="-853.8" font-family="Arial" font-size="34.00" fill="#ffffff">Extension Browser</text>
<text text-anchor="start" x="1899.5" y="-819.8" font-family="Arial" font-size="34.00" fill="#ffffff">Storage</text>
<text text-anchor="start" x="1761.5" y="-797.8" font-family="Arial" font-size="19.00" fill="#ffffff">[Container: chrome.storage.local + IndexedDB]</text>
<text text-anchor="start" x="1826.5" y="-760.8" font-family="Arial" font-size="24.00" fill="#ffffff">Browser&#45;side storage for</text>
<text text-anchor="start" x="1814.5" y="-736.8" font-family="Arial" font-size="24.00" fill="#ffffff">capture and visit queues in</text>
<text text-anchor="start" x="1820.5" y="-712.8" font-family="Arial" font-size="24.00" fill="#ffffff">chrome.storage.local plus</text>
<text text-anchor="start" x="1826.5" y="-688.8" font-family="Arial" font-size="24.00" fill="#ffffff">durable media tasks and</text>
<text text-anchor="start" x="1807.5" y="-664.8" font-family="Arial" font-size="24.00" fill="#ffffff">fetched blobs in IndexedDB.</text>
</g>
<!-- 9&#45;&gt;13 -->
<g id="51" class="edge">
<title>9&#45;&gt;13</title>
<path fill="none" stroke="#444444" stroke-dasharray="5,2" d="M1334.21,-872C1346.26,-868.59 1358.25,-865.4 1370,-862.5 1484.71,-834.23 1614.21,-812.66 1722.42,-797.45"/>
<polygon fill="#444444" stroke="#444444" points="1723.07,-800.89 1732.49,-796.04 1722.11,-793.96 1723.07,-800.89"/>
<polygon fill="white" stroke="transparent" points="1390.5,-862.5 1390.5,-974.5 1671.5,-974.5 1671.5,-862.5 1390.5,-862.5"/>
<text text-anchor="start" x="1426" y="-951.3" font-family="Arial" font-size="24.00" fill="#444444">Queues captures in</text>
<text text-anchor="start" x="1395" y="-925.3" font-family="Arial" font-size="24.00" fill="#444444">chrome.storage.local and</text>
<text text-anchor="start" x="1421.5" y="-899.3" font-family="Arial" font-size="24.00" fill="#444444">media tasks/blobs in</text>
<text text-anchor="start" x="1471.5" y="-873.3" font-family="Arial" font-size="24.00" fill="#444444">IndexedDB</text>
</g>
<!-- 9&#45;&gt;14 -->
<g id="52" class="edge">
<title>9&#45;&gt;14</title>
<path fill="none" stroke="#444444" stroke-dasharray="5,2" d="M1334.26,-998.12C1442.59,-1024.19 1574.99,-1058.22 1692,-1094.5 1700.63,-1097.18 1709.39,-1099.97 1718.22,-1102.86"/>
<polygon fill="#444444" stroke="#444444" points="1717.23,-1106.22 1727.82,-1106.02 1719.42,-1099.57 1717.23,-1106.22"/>
<polygon fill="white" stroke="transparent" points="1370,-1094.5 1370,-1193.5 1692,-1193.5 1692,-1094.5 1370,-1094.5"/>
<text text-anchor="start" x="1436.5" y="-1170.8" font-family="Arial" font-size="24.00" fill="#444444">Delivers /capture,</text>
<text text-anchor="start" x="1427" y="-1146.8" font-family="Arial" font-size="24.00" fill="#444444">/visit&#45;events, media</text>
<text text-anchor="start" x="1384.5" y="-1122.8" font-family="Arial" font-size="24.00" fill="#444444">metadata, and raw blobs to</text>
<text text-anchor="start" x="1374" y="-1102.8" font-family="Arial" font-size="19.00" fill="#444444">[Bearer HTTP/JSON; raw HTTP PUT]</text>
</g>
</g>
</svg>
