<?xml version="1.0" encoding="UTF-8" standalone="no"?>
<!DOCTYPE svg PUBLIC "-//W3C//DTD SVG 1.1//EN"
 "http://www.w3.org/Graphics/SVG/1.1/DTD/svg11.dtd">
<!-- Generated by graphviz version 2.43.0 (0)
 -->
<!-- Title: %3 Pages: 1 -->
<svg width="2967pt" height="610pt"
 viewBox="0.00 0.00 2967.00 610.00" xmlns="http://www.w3.org/2000/svg" xmlns:xlink="http://www.w3.org/1999/xlink">
<g id="graph0" class="graph" transform="scale(1 1) rotate(0) translate(4 606)">
<title>%3</title>
<polygon fill="white" stroke="transparent" points="-4,4 -4,-606 2963,-606 2963,4 -4,4"/>
<text text-anchor="start" x="1110" y="-11.8" font-family="Arial" font-size="34.00">System Context View: Browser Memory Daemon</text>
<!-- 1 -->
<g id="1" class="node">
<title>1</title>
<polygon fill="#08427b" stroke="#052e56" points="395,-471 0,-471 0,-240 395,-240 395,-471"/>
<text text-anchor="start" x="130.5" y="-422.8" font-family="Arial" font-size="34.00" fill="#ffffff">Operator</text>
<text text-anchor="start" x="162" y="-400.8" font-family="Arial" font-size="19.00" fill="#ffffff">[Person]</text>
<text text-anchor="start" x="71" y="-363.8" font-family="Arial" font-size="24.00" fill="#ffffff">Sole local operator who</text>
<text text-anchor="start" x="29" y="-339.8" font-family="Arial" font-size="24.00" fill="#ffffff">browses with Windows Chrome</text>
<text text-anchor="start" x="50" y="-315.8" font-family="Arial" font-size="24.00" fill="#ffffff">and searches, reviews, and</text>
<text text-anchor="start" x="35.5" y="-291.8" font-family="Arial" font-size="24.00" fill="#ffffff">deletes local browser&#45;memory</text>
<text text-anchor="start" x="153.5" y="-267.8" font-family="Arial" font-size="24.00" fill="#ffffff">records.</text>
</g>
<!-- 2 -->
<g id="2" class="node">
<title>2</title>
<polygon fill="#999999" stroke="#6b6b6b" points="2040,-602 1654,-602 1654,-371 2040,-371 2040,-602"/>
<text text-anchor="start" x="1712.5" y="-553.8" font-family="Arial" font-size="34.00" fill="#ffffff">Windows Chrome</text>
<text text-anchor="start" x="1770" y="-531.8" font-family="Arial" font-size="19.00" fill="#ffffff">[Software System]</text>
<text text-anchor="start" x="1683" y="-494.8" font-family="Arial" font-size="24.00" fill="#ffffff">The Windows Chrome runtime</text>
<text text-anchor="start" x="1696.5" y="-470.8" font-family="Arial" font-size="24.00" fill="#ffffff">that loads web pages, hosts</text>
<text text-anchor="start" x="1696" y="-446.8" font-family="Arial" font-size="24.00" fill="#ffffff">the MV3 extension, runs the</text>
<text text-anchor="start" x="1688" y="-422.8" font-family="Arial" font-size="24.00" fill="#ffffff">local UI in a tab, and exposes</text>
<text text-anchor="start" x="1717.5" y="-398.8" font-family="Arial" font-size="24.00" fill="#ffffff">Chrome extension APIs.</text>
</g>
<!-- 1&#45;&gt;2 -->
<g id="31" class="edge">
<title>1&#45;&gt;2</title>
<path fill="none" stroke="#444444" stroke-dasharray="5,2" d="M395.07,-399.07C407.2,-401.09 419.24,-402.93 431,-404.5 860.3,-461.85 1368.18,-479.1 1643.64,-484.28"/>
<polygon fill="#444444" stroke="#444444" points="1643.68,-487.78 1653.74,-484.47 1643.81,-480.79 1643.68,-487.78"/>
<text text-anchor="start" x="813" y="-473.3" font-family="Arial" font-size="24.00" fill="#444444">Browses web pages with</text>
</g>
<!-- 4 -->
<g id="4" class="node">
<title>4</title>
<polygon fill="#1168bd" stroke="#0b4884" points="1173,-359 719,-359 719,-56 1173,-56 1173,-359"/>
<text text-anchor="start" x="748" y="-310.8" font-family="Arial" font-size="34.00" fill="#ffffff">Browser Memory Daemon</text>
<text text-anchor="start" x="869" y="-288.8" font-family="Arial" font-size="19.00" fill="#ffffff">[Software System]</text>
<text text-anchor="start" x="811" y="-251.8" font-family="Arial" font-size="24.00" fill="#ffffff">Local&#45;first personal recall</text>
<text text-anchor="start" x="782" y="-227.8" font-family="Arial" font-size="24.00" fill="#ffffff">system that captures Windows</text>
<text text-anchor="start" x="789.5" y="-203.8" font-family="Arial" font-size="24.00" fill="#ffffff">Chrome page text and media</text>
<text text-anchor="start" x="805.5" y="-179.8" font-family="Arial" font-size="24.00" fill="#ffffff">references, stores them in</text>
<text text-anchor="start" x="769" y="-155.8" font-family="Arial" font-size="24.00" fill="#ffffff">WSL, and exposes exact search,</text>
<text text-anchor="start" x="816" y="-131.8" font-family="Arial" font-size="24.00" fill="#ffffff">timeline, detail, deletion,</text>
<text text-anchor="start" x="786.5" y="-107.8" font-family="Arial" font-size="24.00" fill="#ffffff">diagnostics, and media cache</text>
<text text-anchor="start" x="885.5" y="-83.8" font-family="Arial" font-size="24.00" fill="#ffffff">operations.</text>
</g>
<!-- 1&#45;&gt;4 -->
<g id="32" class="edge">
<title>1&#45;&gt;4</title>
<path fill="none" stroke="#444444" stroke-dasharray="5,2" d="M395.12,-316.52C491.27,-297.45 607.75,-274.36 708.71,-254.35"/>
<polygon fill="#444444" stroke="#444444" points="709.61,-257.74 718.74,-252.36 708.25,-250.87 709.61,-257.74"/>
<text text-anchor="start" x="431" y="-367.3" font-family="Arial" font-size="24.00" fill="#444444">Searches, reviews, and</text>
<text text-anchor="start" x="443" y="-341.3" font-family="Arial" font-size="24.00" fill="#444444">deletes local browser</text>
<text text-anchor="start" x="468" y="-315.3" font-family="Arial" font-size="24.00" fill="#444444">memory through</text>
</g>
<!-- 3 -->
<g id="3" class="node">
<title>3</title>
<polygon fill="#999999" stroke="#6b6b6b" points="2959,-397 2556,-397 2556,-132 2959,-132 2959,-397"/>
<text text-anchor="start" x="2596" y="-348.8" font-family="Arial" font-size="34.00" fill="#ffffff">Web Sites and Media</text>
<text text-anchor="start" x="2703.5" y="-314.8" font-family="Arial" font-size="34.00" fill="#ffffff">Origins</text>
<text text-anchor="start" x="2680.5" y="-292.8" font-family="Arial" font-size="19.00" fill="#ffffff">[Software System]</text>
<text text-anchor="start" x="2647.5" y="-255.8" font-family="Arial" font-size="24.00" fill="#ffffff">External web pages,</text>
<text text-anchor="start" x="2595" y="-231.8" font-family="Arial" font-size="24.00" fill="#ffffff">image/video URLs, and media</text>
<text text-anchor="start" x="2585" y="-207.8" font-family="Arial" font-size="24.00" fill="#ffffff">CDNs that Chrome loads or that</text>
<text text-anchor="start" x="2595" y="-183.8" font-family="Arial" font-size="24.00" fill="#ffffff">sidecars fetch as page&#45;related</text>
<text text-anchor="start" x="2721" y="-159.8" font-family="Arial" font-size="24.00" fill="#ffffff">media.</text>
</g>
<!-- 2&#45;&gt;3 -->
<g id="33" class="edge">
<title>2&#45;&gt;3</title>
<path fill="none" stroke="#444444" stroke-dasharray="5,2" d="M2040.11,-439.56C2188.26,-403.35 2392.97,-353.33 2545.63,-316.03"/>
<polygon fill="#444444" stroke="#444444" points="2546.72,-319.36 2555.61,-313.59 2545.06,-312.56 2546.72,-319.36"/>
<text text-anchor="start" x="2205" y="-419.3" font-family="Arial" font-size="24.00" fill="#444444">Loads pages and media from</text>
<text text-anchor="start" x="2326" y="-399.3" font-family="Arial" font-size="19.00" fill="#444444">[HTTPS]</text>
</g>
<!-- 4&#45;&gt;2 -->
<g id="34" class="edge">
<title>4&#45;&gt;2</title>
<path fill="none" stroke="#444444" stroke-dasharray="5,2" d="M1173.28,-277.72C1318.19,-322.7 1504.58,-380.54 1644.4,-423.94"/>
<polygon fill="#444444" stroke="#444444" points="1643.38,-427.28 1653.97,-426.9 1645.45,-420.6 1643.38,-427.28"/>
<text text-anchor="start" x="1222" y="-404.3" font-family="Arial" font-size="24.00" fill="#444444">Runs its MV3 extension</text>
<text text-anchor="start" x="1209" y="-378.3" font-family="Arial" font-size="24.00" fill="#444444">inside and uses APIs from</text>
</g>
<!-- 4&#45;&gt;3 -->
<g id="35" class="edge">
<title>4&#45;&gt;3</title>
<path fill="none" stroke="#444444" stroke-dasharray="5,2" d="M1173.07,-214.09C1418.35,-221.3 1821.49,-233.32 2169,-244.5 2294.01,-248.52 2433.96,-253.27 2545.91,-257.14"/>
<polygon fill="#444444" stroke="#444444" points="2545.85,-260.64 2555.97,-257.49 2546.1,-253.64 2545.85,-260.64"/>
<text text-anchor="start" x="1720" y="-317.3" font-family="Arial" font-size="24.00" fill="#444444">Captures page refs and</text>
<text text-anchor="start" x="1720.5" y="-293.3" font-family="Arial" font-size="24.00" fill="#444444">fetches browser&#45;side or</text>
<text text-anchor="start" x="1751" y="-269.3" font-family="Arial" font-size="24.00" fill="#444444">public media from</text>
<text text-anchor="start" x="1525" y="-249.3" font-family="Arial" font-size="19.00" fill="#444444">[Chrome DOM/fetch; WSL HTTP(S), data URLs; no Chrome cookies in WSL]</text>
</g>
</g>
</svg>
