<?xml version="1.0" encoding="UTF-8" standalone="no"?>
<!DOCTYPE svg PUBLIC "-//W3C//DTD SVG 1.1//EN"
 "http://www.w3.org/Graphics/SVG/1.1/DTD/svg11.dtd">
<!-- Generated by graphviz version 2.43.0 (0)
 -->
<!-- Title: %3 Pages: 1 -->
<svg width="5222pt" height="2069pt"
 viewBox="0.00 0.00 5222.00 2069.19" xmlns="http://www.w3.org/2000/svg" xmlns:xlink="http://www.w3.org/1999/xlink">
<g id="graph0" class="graph" transform="scale(1 1) rotate(0) translate(4 2065.19)">
<title>%3</title>
<polygon fill="white" stroke="transparent" points="-4,4 -4,-2065.19 5218,-2065.19 5218,4 -4,4"/>
<text text-anchor="start" x="2049" y="-11.8" font-family="Arial" font-size="34.00">Browser Memory Daemon &#45; WSL Loopback HTTP Daemon &#45; Components</text>
<g id="clust1" class="cluster">
<title>cluster_23</title>
<polygon fill="none" stroke="#444444" points="8,-445.19 8,-2053.19 5206,-2053.19 5206,-445.19 8,-445.19"/>
<text text-anchor="start" x="2441.5" y="-473.99" font-family="Arial" font-size="24.00" fill="#444444">WSL Loopback HTTP Daemon</text>
<text text-anchor="start" x="2405" y="-453.99" font-family="Arial" font-size="19.00" fill="#444444">[Container: Python 3.11, ThreadingHTTPServer]</text>
</g>
<!-- 57 -->
<g id="57" class="node">
<title>57</title>
<path fill="#2f95c8" stroke="#20688c" d="M4398,-387.4C4398,-405.7 4315.08,-420.56 4213,-420.56 4110.92,-420.56 4028,-405.7 4028,-387.4 4028,-387.4 4028,-88.97 4028,-88.97 4028,-70.67 4110.92,-55.81 4213,-55.81 4315.08,-55.81 4398,-70.67 4398,-88.97 4398,-88.97 4398,-387.4 4398,-387.4"/>
<path fill="none" stroke="#20688c" d="M4398,-387.4C4398,-369.11 4315.08,-354.24 4213,-354.24 4110.92,-354.24 4028,-369.11 4028,-387.4"/>
<text text-anchor="start" x="4100" y="-322.49" font-family="Arial" font-size="34.00" fill="#ffffff">SQLite + FTS5</text>
<text text-anchor="start" x="4140" y="-288.49" font-family="Arial" font-size="34.00" fill="#ffffff">Database</text>
<text text-anchor="start" x="4087" y="-266.49" font-family="Arial" font-size="19.00" fill="#ffffff">[Container: SQLite with FTS5]</text>
<text text-anchor="start" x="4093.5" y="-229.49" font-family="Arial" font-size="24.00" fill="#ffffff">Durable text/metadata</text>
<text text-anchor="start" x="4062" y="-205.49" font-family="Arial" font-size="24.00" fill="#ffffff">authority including migration</text>
<text text-anchor="start" x="4057" y="-181.49" font-family="Arial" font-size="24.00" fill="#ffffff">ledger, capture observations,</text>
<text text-anchor="start" x="4067" y="-157.49" font-family="Arial" font-size="24.00" fill="#ffffff">and immutable observation</text>
<text text-anchor="start" x="4115" y="-133.49" font-family="Arial" font-size="24.00" fill="#ffffff">ingest sequences.</text>
</g>
<!-- 24 -->
<g id="24" class="node">
<title>24</title>
<polygon fill="#85bbf0" stroke="#1168bd" points="527,-1967.69 33,-1967.69 33,-1592.69 527,-1592.69 527,-1967.69"/>
<text text-anchor="start" x="111.5" y="-1919.49" font-family="Arial" font-size="34.00" fill="#000000">HTTP Request Router</text>
<text text-anchor="start" x="62" y="-1897.49" font-family="Arial" font-size="19.00" fill="#000000">[Component: Python http.server + route descriptors]</text>
<text text-anchor="start" x="92.5" y="-1860.49" font-family="Arial" font-size="24.00" fill="#000000">Adapts BaseHTTPRequestHandler</text>
<text text-anchor="start" x="129.5" y="-1836.49" font-family="Arial" font-size="24.00" fill="#000000">requests through immutable</text>
<text text-anchor="start" x="125" y="-1812.49" font-family="Arial" font-size="24.00" fill="#000000">method/path descriptors with</text>
<text text-anchor="start" x="119.5" y="-1788.49" font-family="Arial" font-size="24.00" fill="#000000">static precedence; owns auth,</text>
<text text-anchor="start" x="174.5" y="-1764.49" font-family="Arial" font-size="24.00" fill="#000000">parsing, compatible</text>
<text text-anchor="start" x="155.5" y="-1740.49" font-family="Arial" font-size="24.00" fill="#000000">status/error responses,</text>
<text text-anchor="start" x="119.5" y="-1716.49" font-family="Arial" font-size="24.00" fill="#000000">request IDs, common security</text>
<text text-anchor="start" x="152" y="-1692.49" font-family="Arial" font-size="24.00" fill="#000000">headers, redaction&#45;safe</text>
<text text-anchor="start" x="123.5" y="-1668.49" font-family="Arial" font-size="24.00" fill="#000000">telemetry, bounded response</text>
<text text-anchor="start" x="113" y="-1644.49" font-family="Arial" font-size="24.00" fill="#000000">streaming, disconnect cleanup,</text>
<text text-anchor="start" x="132.5" y="-1620.49" font-family="Arial" font-size="24.00" fill="#000000">CORS, and finite UI assets.</text>
</g>
<!-- 25 -->
<g id="25" class="node">
<title>25</title>
<polygon fill="#85bbf0" stroke="#1168bd" points="1277,-1894.69 876,-1894.69 876,-1543.69 1277,-1543.69 1277,-1894.69"/>
<text text-anchor="start" x="905" y="-1846.49" font-family="Arial" font-size="34.00" fill="#000000">Application Use Cases</text>
<text text-anchor="start" x="987.5" y="-1824.49" font-family="Arial" font-size="19.00" fill="#000000">[Component: Python]</text>
<text text-anchor="start" x="914.5" y="-1787.49" font-family="Arial" font-size="24.00" fill="#000000">Provides request&#45;independent</text>
<text text-anchor="start" x="951.5" y="-1763.49" font-family="Arial" font-size="24.00" fill="#000000">capture, lifecycle, read,</text>
<text text-anchor="start" x="941.5" y="-1739.49" font-family="Arial" font-size="24.00" fill="#000000">forget, policy, doctor, and</text>
<text text-anchor="start" x="950.5" y="-1715.49" font-family="Arial" font-size="24.00" fill="#000000">media use cases; owns</text>
<text text-anchor="start" x="947.5" y="-1691.49" font-family="Arial" font-size="24.00" fill="#000000">database&#45;ready checks,</text>
<text text-anchor="start" x="920.5" y="-1667.49" font-family="Arial" font-size="24.00" fill="#000000">transaction/audit boundaries,</text>
<text text-anchor="start" x="924" y="-1643.49" font-family="Arial" font-size="24.00" fill="#000000">asynchronous media kickoff,</text>
<text text-anchor="start" x="910.5" y="-1619.49" font-family="Arial" font-size="24.00" fill="#000000">and upload/download resource</text>
<text text-anchor="start" x="911.5" y="-1595.49" font-family="Arial" font-size="24.00" fill="#000000">leases without importing HTTP</text>
<text text-anchor="start" x="932.5" y="-1571.49" font-family="Arial" font-size="24.00" fill="#000000">request or response types.</text>
</g>
<!-- 24&#45;&gt;25 -->
<g id="134" class="edge">
<title>24&#45;&gt;25</title>
<path fill="none" stroke="#707070" stroke-dasharray="5,2" d="M527.22,-1761.28C635.7,-1752.95 761.84,-1743.27 865.76,-1735.29"/>
<polygon fill="#707070" stroke="#707070" points="866.05,-1738.78 875.75,-1734.52 865.51,-1731.8 866.05,-1738.78"/>
<polygon fill="white" stroke="transparent" points="563,-1756.19 563,-1842.19 840,-1842.19 840,-1756.19 563,-1756.19"/>
<text text-anchor="start" x="620" y="-1818.99" font-family="Arial" font-size="24.00" fill="#707070">Invokes explicit</text>
<text text-anchor="start" x="567.5" y="-1792.99" font-family="Arial" font-size="24.00" fill="#707070">request&#45;independent use</text>
<text text-anchor="start" x="625.5" y="-1766.99" font-family="Arial" font-size="24.00" fill="#707070">cases through</text>
</g>
<!-- 38 -->
<g id="38" class="node">
<title>38</title>
<polygon fill="#85bbf0" stroke="#1168bd" points="5181,-1956.69 4775,-1956.69 4775,-1643.69 5181,-1643.69 5181,-1956.69"/>
<text text-anchor="start" x="4865" y="-1908.49" font-family="Arial" font-size="34.00" fill="#000000">Media Process</text>
<text text-anchor="start" x="4846.5" y="-1874.49" font-family="Arial" font-size="34.00" fill="#000000">Resource Budget</text>
<text text-anchor="start" x="4804" y="-1852.49" font-family="Arial" font-size="19.00" fill="#000000">[Component: Python threading.Condition]</text>
<text text-anchor="start" x="4815.5" y="-1815.49" font-family="Arial" font-size="24.00" fill="#000000">Bounds active media requests</text>
<text text-anchor="start" x="4844" y="-1791.49" font-family="Arial" font-size="24.00" fill="#000000">and in&#45;flight bytes across</text>
<text text-anchor="start" x="4818" y="-1767.49" font-family="Arial" font-size="24.00" fill="#000000">threads within one daemon or</text>
<text text-anchor="start" x="4844" y="-1743.49" font-family="Arial" font-size="24.00" fill="#000000">worker process; exposes</text>
<text text-anchor="start" x="4849.5" y="-1719.49" font-family="Arial" font-size="24.00" fill="#000000">aggregate counters and</text>
<text text-anchor="start" x="4826" y="-1695.49" font-family="Arial" font-size="24.00" fill="#000000">releases leases on failure or</text>
<text text-anchor="start" x="4910.5" y="-1671.49" font-family="Arial" font-size="24.00" fill="#000000">cancellation.</text>
</g>
<!-- 24&#45;&gt;38 -->
<g id="135" class="edge">
<title>24&#45;&gt;38</title>
<path fill="none" stroke="#707070" stroke-dasharray="5,2" d="M527.06,-1869.51C682.23,-1918.01 888.04,-1968.19 1075.5,-1968.19 1075.5,-1968.19 1075.5,-1968.19 2260.5,-1968.19 2541.37,-1968.19 2611.18,-1986.85 2892,-1992.19 3570.64,-2005.08 3741.36,-1984.78 4418,-1931.19 4561.06,-1919.86 4599.81,-1931.14 4739,-1896.19 4747.56,-1894.04 4756.21,-1891.65 4764.9,-1889.07"/>
<polygon fill="#707070" stroke="#707070" points="4766.18,-1892.34 4774.72,-1886.07 4764.14,-1885.64 4766.18,-1892.34"/>
<polygon fill="white" stroke="transparent" points="2481,-1991.19 2481,-2051.19 2812,-2051.19 2812,-1991.19 2481,-1991.19"/>
<text text-anchor="start" x="2485.5" y="-2027.99" font-family="Arial" font-size="24.00" fill="#707070">Leases bounded JSON media</text>
<text text-anchor="start" x="2504" y="-2001.99" font-family="Arial" font-size="24.00" fill="#707070">request admission through</text>
</g>
<!-- 31 -->
<g id="31" class="node">
<title>31</title>
<polygon fill="#85bbf0" stroke="#1168bd" points="2082,-1299.69 1661,-1299.69 1661,-986.69 2082,-986.69 2082,-1299.69"/>
<text text-anchor="start" x="1768" y="-1251.49" font-family="Arial" font-size="34.00" fill="#000000">Media Artifact</text>
<text text-anchor="start" x="1804.5" y="-1217.49" font-family="Arial" font-size="34.00" fill="#000000">Manager</text>
<text text-anchor="start" x="1690" y="-1195.49" font-family="Arial" font-size="19.00" fill="#000000">[Component: Python + sqlite3 + filesystem]</text>
<text text-anchor="start" x="1734.5" y="-1158.49" font-family="Arial" font-size="24.00" fill="#000000">Provides the compatibility</text>
<text text-anchor="start" x="1704.5" y="-1134.49" font-family="Arial" font-size="24.00" fill="#000000">API, records media references,</text>
<text text-anchor="start" x="1702" y="-1110.49" font-family="Arial" font-size="24.00" fill="#000000">streams bounded blob uploads,</text>
<text text-anchor="start" x="1712" y="-1086.49" font-family="Arial" font-size="24.00" fill="#000000">and delegates guarded public</text>
<text text-anchor="start" x="1733" y="-1062.49" font-family="Arial" font-size="24.00" fill="#000000">transport without coupling</text>
<text text-anchor="start" x="1766" y="-1038.49" font-family="Arial" font-size="24.00" fill="#000000">text ingest to media</text>
<text text-anchor="start" x="1813" y="-1014.49" font-family="Arial" font-size="24.00" fill="#000000">availability.</text>
</g>
<!-- 25&#45;&gt;31 -->
<g id="141" class="edge">
<title>25&#45;&gt;31</title>
<path fill="none" stroke="#707070" stroke-dasharray="5,2" d="M1277.1,-1574.21C1391.46,-1491.14 1535.12,-1386.79 1652.44,-1301.58"/>
<polygon fill="#707070" stroke="#707070" points="1654.81,-1304.18 1660.84,-1295.47 1650.7,-1298.52 1654.81,-1304.18"/>
<polygon fill="white" stroke="transparent" points="1313,-1532.19 1313,-1592.19 1625,-1592.19 1625,-1532.19 1313,-1532.19"/>
<text text-anchor="start" x="1317" y="-1568.99" font-family="Arial" font-size="24.00" fill="#707070">Coordinates media requests</text>
<text text-anchor="start" x="1427.5" y="-1542.99" font-family="Arial" font-size="24.00" fill="#707070">through</text>
</g>
<!-- 25&#45;&gt;38 -->
<g id="142" class="edge">
<title>25&#45;&gt;38</title>
<path fill="none" stroke="#707070" stroke-dasharray="5,2" d="M1277.25,-1722.86C1732.95,-1733.29 2836.84,-1770.66 3186,-1892.19 3204.16,-1898.51 3203.6,-1910.62 3222,-1916.19 3401.51,-1970.54 3456.45,-1917.64 3644,-1916.19 3988.03,-1913.52 4075.2,-1933.4 4418,-1904.19 4533.65,-1894.33 4660.99,-1871.59 4764.88,-1849.88"/>
<polygon fill="#707070" stroke="#707070" points="4765.8,-1853.26 4774.86,-1847.78 4764.36,-1846.41 4765.8,-1853.26"/>
<polygon fill="white" stroke="transparent" points="2908.5,-1892.19 2908.5,-1978.19 3169.5,-1978.19 3169.5,-1892.19 2908.5,-1892.19"/>
<text text-anchor="start" x="2913" y="-1954.99" font-family="Arial" font-size="24.00" fill="#707070">Leases bounded media</text>
<text text-anchor="start" x="2926" y="-1928.99" font-family="Arial" font-size="24.00" fill="#707070">upload and response</text>
<text text-anchor="start" x="2950.5" y="-1902.99" font-family="Arial" font-size="24.00" fill="#707070">capacity through</text>
</g>
<!-- 31&#45;&gt;57 -->
<g id="155" class="edge">
<title>31&#45;&gt;57</title>
<path fill="none" stroke="#707070" stroke-dasharray="5,2" d="M1967.31,-986.5C2009.84,-921.39 2062.83,-846.81 2118,-785.19 2242.86,-645.73 2278.96,-610.5 2437,-510.19 2914.95,-206.83 3114.39,-255.61 3680,-232.19 3791.75,-227.56 3916.81,-228.65 4017.59,-231.09"/>
<polygon fill="#707070" stroke="#707070" points="4017.8,-234.6 4027.89,-231.34 4017.98,-227.6 4017.8,-234.6"/>
<polygon fill="white" stroke="transparent" points="2913.5,-295.19 2913.5,-370.19 3164.5,-370.19 3164.5,-295.19 2913.5,-295.19"/>
<text text-anchor="start" x="2918" y="-347.49" font-family="Arial" font-size="24.00" fill="#707070">Updates media artifact</text>
<text text-anchor="start" x="3001" y="-323.49" font-family="Arial" font-size="24.00" fill="#707070">rows in</text>
<text text-anchor="start" x="3006" y="-303.49" font-family="Arial" font-size="19.00" fill="#707070">[sqlite3]</text>
</g>
<!-- 33 -->
<g id="33" class="node">
<title>33</title>
<polygon fill="#85bbf0" stroke="#1168bd" points="3634.5,-824.69 3231.5,-824.69 3231.5,-545.69 3634.5,-545.69 3634.5,-824.69"/>
<text text-anchor="start" x="3260.5" y="-776.49" font-family="Arial" font-size="34.00" fill="#000000">Media Task Repository</text>
<text text-anchor="start" x="3305" y="-754.49" font-family="Arial" font-size="19.00" fill="#000000">[Component: Python + sqlite3]</text>
<text text-anchor="start" x="3284" y="-717.49" font-family="Arial" font-size="24.00" fill="#000000">Creates deterministic tasks,</text>
<text text-anchor="start" x="3300" y="-693.49" font-family="Arial" font-size="24.00" fill="#000000">preserves terminal state,</text>
<text text-anchor="start" x="3285" y="-669.49" font-family="Arial" font-size="24.00" fill="#000000">atomically leases due work,</text>
<text text-anchor="start" x="3292" y="-645.49" font-family="Arial" font-size="24.00" fill="#000000">recovers stale leases, and</text>
<text text-anchor="start" x="3274" y="-621.49" font-family="Arial" font-size="24.00" fill="#000000">applies bounded retry/backoff</text>
<text text-anchor="start" x="3273.5" y="-597.49" font-family="Arial" font-size="24.00" fill="#000000">outcomes independently from</text>
<text text-anchor="start" x="3345" y="-573.49" font-family="Arial" font-size="24.00" fill="#000000">media transport.</text>
</g>
<!-- 31&#45;&gt;33 -->
<g id="152" class="edge">
<title>31&#45;&gt;33</title>
<path fill="none" stroke="#707070" stroke-dasharray="5,2" d="M2082.09,-1096.45C2187.9,-1075.12 2318.62,-1052.19 2437,-1041.19 2447.36,-1040.22 3177.96,-1042.79 3186,-1036.19 3247.38,-985.81 3181.31,-929.37 3222,-861.19 3227.85,-851.39 3234.44,-841.89 3241.59,-832.71"/>
<polygon fill="#707070" stroke="#707070" points="3244.47,-834.71 3248.01,-824.72 3239.01,-830.32 3244.47,-834.71"/>
<polygon fill="white" stroke="transparent" points="2495,-1041.19 2495,-1101.19 2798,-1101.19 2798,-1041.19 2495,-1041.19"/>
<text text-anchor="start" x="2499.5" y="-1077.99" font-family="Arial" font-size="24.00" fill="#707070">Creates and claims durable</text>
<text text-anchor="start" x="2540" y="-1051.99" font-family="Arial" font-size="24.00" fill="#707070">media work through</text>
</g>
<!-- 34 -->
<g id="34" class="node">
<title>34</title>
<polygon fill="#85bbf0" stroke="#1168bd" points="2856,-896.69 2437,-896.69 2437,-545.69 2856,-545.69 2856,-896.69"/>
<text text-anchor="start" x="2497.5" y="-848.49" font-family="Arial" font-size="34.00" fill="#000000">Media Artifact Store</text>
<text text-anchor="start" x="2466" y="-826.49" font-family="Arial" font-size="19.00" fill="#000000">[Component: Python + sqlite3 + BlobStore]</text>
<text text-anchor="start" x="2543.5" y="-789.49" font-family="Arial" font-size="24.00" fill="#000000">Owns artifact rows,</text>
<text text-anchor="start" x="2499" y="-765.49" font-family="Arial" font-size="24.00" fill="#000000">transactional cross&#45;process</text>
<text text-anchor="start" x="2501.5" y="-741.49" font-family="Arial" font-size="24.00" fill="#000000">cache reservations, unique</text>
<text text-anchor="start" x="2531" y="-717.49" font-family="Arial" font-size="24.00" fill="#000000">streamed publication,</text>
<text text-anchor="start" x="2505.5" y="-693.49" font-family="Arial" font-size="24.00" fill="#000000">failed&#45;write compensation,</text>
<text text-anchor="start" x="2521" y="-669.49" font-family="Arial" font-size="24.00" fill="#000000">contained reads, cache</text>
<text text-anchor="start" x="2529" y="-645.49" font-family="Arial" font-size="24.00" fill="#000000">admission, oldest&#45;first</text>
<text text-anchor="start" x="2500" y="-621.49" font-family="Arial" font-size="24.00" fill="#000000">eviction, purge/rehydration,</text>
<text text-anchor="start" x="2580" y="-597.49" font-family="Arial" font-size="24.00" fill="#000000">and lifecycle</text>
<text text-anchor="start" x="2517" y="-573.49" font-family="Arial" font-size="24.00" fill="#000000">registration/tombstones.</text>
</g>
<!-- 31&#45;&gt;34 -->
<g id="153" class="edge">
<title>31&#45;&gt;34</title>
<path fill="none" stroke="#707070" stroke-dasharray="5,2" d="M2044.81,-986.65C2068.57,-968.46 2093.31,-951.11 2118,-936.19 2214.33,-877.95 2329.29,-828.99 2427.26,-792.58"/>
<polygon fill="#707070" stroke="#707070" points="2428.52,-795.85 2436.69,-789.1 2426.09,-789.28 2428.52,-795.85"/>
<polygon fill="white" stroke="transparent" points="2130.5,-936.19 2130.5,-1022.19 2388.5,-1022.19 2388.5,-936.19 2130.5,-936.19"/>
<text text-anchor="start" x="2152" y="-998.99" font-family="Arial" font-size="24.00" fill="#707070">Publishes, resolves,</text>
<text text-anchor="start" x="2134.5" y="-972.99" font-family="Arial" font-size="24.00" fill="#707070">purges, and rehydrates</text>
<text text-anchor="start" x="2172" y="-946.99" font-family="Arial" font-size="24.00" fill="#707070">artifacts through</text>
</g>
<!-- 35 -->
<g id="35" class="node">
<title>35</title>
<polygon fill="#85bbf0" stroke="#1168bd" points="2841.5,-1716.69 2451.5,-1716.69 2451.5,-1403.69 2841.5,-1403.69 2841.5,-1716.69"/>
<text text-anchor="start" x="2523.5" y="-1668.49" font-family="Arial" font-size="34.00" fill="#000000">Media Transport</text>
<text text-anchor="start" x="2557.5" y="-1634.49" font-family="Arial" font-size="34.00" fill="#000000">Coordinator</text>
<text text-anchor="start" x="2557.5" y="-1612.49" font-family="Arial" font-size="19.00" fill="#000000">[Component: Python]</text>
<text text-anchor="start" x="2496" y="-1575.49" font-family="Arial" font-size="24.00" fill="#000000">Classifies direct versus HLS</text>
<text text-anchor="start" x="2525" y="-1551.49" font-family="Arial" font-size="24.00" fill="#000000">responses, applies the</text>
<text text-anchor="start" x="2480.5" y="-1527.49" font-family="Arial" font-size="24.00" fill="#000000">aggregate HLS request budget</text>
<text text-anchor="start" x="2499" y="-1503.49" font-family="Arial" font-size="24.00" fill="#000000">from the first network open,</text>
<text text-anchor="start" x="2494.5" y="-1479.49" font-family="Arial" font-size="24.00" fill="#000000">enforces playlist sniffing and</text>
<text text-anchor="start" x="2501.5" y="-1455.49" font-family="Arial" font-size="24.00" fill="#000000">byte caps, and coordinates</text>
<text text-anchor="start" x="2488" y="-1431.49" font-family="Arial" font-size="24.00" fill="#000000">bounded streamed assembly.</text>
</g>
<!-- 31&#45;&gt;35 -->
<g id="154" class="edge">
<title>31&#45;&gt;35</title>
<path fill="none" stroke="#707070" stroke-dasharray="5,2" d="M2082.19,-1256.31C2194.18,-1316.72 2331.4,-1390.75 2442.37,-1450.61"/>
<polygon fill="#707070" stroke="#707070" points="2440.87,-1453.77 2451.33,-1455.44 2444.19,-1447.61 2440.87,-1453.77"/>
<polygon fill="white" stroke="transparent" points="2118,-1425.19 2118,-1485.19 2401,-1485.19 2401,-1425.19 2118,-1425.19"/>
<text text-anchor="start" x="2122.5" y="-1461.99" font-family="Arial" font-size="24.00" fill="#707070">Delegates daemon&#45;public</text>
<text text-anchor="start" x="2139.5" y="-1435.99" font-family="Arial" font-size="24.00" fill="#707070">media orchestration to</text>
</g>
<!-- 39 -->
<g id="39" class="node">
<title>39</title>
<polygon fill="#85bbf0" stroke="#1168bd" points="3638.5,-1199.69 3227.5,-1199.69 3227.5,-896.69 3638.5,-896.69 3638.5,-1199.69"/>
<text text-anchor="start" x="3276.5" y="-1151.49" font-family="Arial" font-size="34.00" fill="#000000">Contained BlobStore</text>
<text text-anchor="start" x="3256.5" y="-1129.49" font-family="Arial" font-size="19.00" fill="#000000">[Component: Python filesystem boundary]</text>
<text text-anchor="start" x="3280.5" y="-1092.49" font-family="Arial" font-size="24.00" fill="#000000">Prefers root&#45;relative locators</text>
<text text-anchor="start" x="3317" y="-1068.49" font-family="Arial" font-size="24.00" fill="#000000">with contained legacy</text>
<text text-anchor="start" x="3302" y="-1044.49" font-family="Arial" font-size="24.00" fill="#000000">fallback; streams unique</text>
<text text-anchor="start" x="3318" y="-1020.49" font-family="Arial" font-size="24.00" fill="#000000">stages with size/hash</text>
<text text-anchor="start" x="3314" y="-996.49" font-family="Arial" font-size="24.00" fill="#000000">accounting; atomically</text>
<text text-anchor="start" x="3286" y="-972.49" font-family="Arial" font-size="24.00" fill="#000000">commits; and contains blob</text>
<text text-anchor="start" x="3318.5" y="-948.49" font-family="Arial" font-size="24.00" fill="#000000">read, stat, and delete</text>
<text text-anchor="start" x="3372.5" y="-924.49" font-family="Arial" font-size="24.00" fill="#000000">operations.</text>
</g>
<!-- 31&#45;&gt;39 -->
<g id="170" class="edge">
<title>31&#45;&gt;39</title>
<path fill="none" stroke="#707070" stroke-dasharray="5,2" d="M2082.39,-1144.03C2281.72,-1143.41 2589.64,-1138.81 2856,-1119.19 2975.85,-1110.36 3109.06,-1094.35 3217.16,-1079.76"/>
<polygon fill="#707070" stroke="#707070" points="3217.77,-1083.21 3227.21,-1078.4 3216.83,-1076.27 3217.77,-1083.21"/>
<polygon fill="white" stroke="transparent" points="2501,-1138.19 2501,-1224.19 2792,-1224.19 2792,-1138.19 2501,-1138.19"/>
<text text-anchor="start" x="2525.5" y="-1200.99" font-family="Arial" font-size="24.00" fill="#707070">Checks current artifact</text>
<text text-anchor="start" x="2525" y="-1174.99" font-family="Arial" font-size="24.00" fill="#707070">presence and resolves</text>
<text text-anchor="start" x="2505.5" y="-1148.99" font-family="Arial" font-size="24.00" fill="#707070">contained storage through</text>
</g>
<!-- 33&#45;&gt;57 -->
<g id="157" class="edge">
<title>33&#45;&gt;57</title>
<path fill="none" stroke="#707070" stroke-dasharray="5,2" d="M3634.73,-588.4C3737.35,-537 3863.2,-470.98 3972,-405.19 3987.48,-395.82 4003.31,-385.83 4019.08,-375.56"/>
<polygon fill="#707070" stroke="#707070" points="4021.39,-378.24 4027.84,-369.83 4017.55,-372.38 4021.39,-378.24"/>
<polygon fill="white" stroke="transparent" points="3689.5,-563.19 3689.5,-638.19 3962.5,-638.19 3962.5,-563.19 3689.5,-563.19"/>
<text text-anchor="start" x="3715" y="-615.49" font-family="Arial" font-size="24.00" fill="#707070">Creates, leases, and</text>
<text text-anchor="start" x="3694" y="-591.49" font-family="Arial" font-size="24.00" fill="#707070">advances media tasks in</text>
<text text-anchor="start" x="3793" y="-571.49" font-family="Arial" font-size="19.00" fill="#707070">[sqlite3]</text>
</g>
<!-- 34&#45;&gt;57 -->
<g id="160" class="edge">
<title>34&#45;&gt;57</title>
<path fill="none" stroke="#707070" stroke-dasharray="5,2" d="M2856.04,-574.22C2961.19,-506.98 3093.43,-432.38 3222,-387.19 3487.87,-293.74 3814.08,-258.89 4017.55,-245.9"/>
<polygon fill="#707070" stroke="#707070" points="4017.99,-249.38 4027.75,-245.26 4017.55,-242.4 4017.99,-249.38"/>
<polygon fill="white" stroke="transparent" points="3294.5,-387.19 3294.5,-510.19 3571.5,-510.19 3571.5,-387.19 3294.5,-387.19"/>
<text text-anchor="start" x="3299" y="-487.49" font-family="Arial" font-size="24.00" fill="#707070">Reserves cache capacity</text>
<text text-anchor="start" x="3321.5" y="-463.49" font-family="Arial" font-size="24.00" fill="#707070">and advances media</text>
<text text-anchor="start" x="3368" y="-439.49" font-family="Arial" font-size="24.00" fill="#707070">artifact rows</text>
<text text-anchor="start" x="3343" y="-415.49" font-family="Arial" font-size="24.00" fill="#707070">transactionally in</text>
<text text-anchor="start" x="3400" y="-395.49" font-family="Arial" font-size="19.00" fill="#707070">[sqlite3]</text>
</g>
<!-- 34&#45;&gt;33 -->
<g id="159" class="edge">
<title>34&#45;&gt;33</title>
<path fill="none" stroke="#707070" stroke-dasharray="5,2" d="M2856.19,-711.61C2968.98,-706.43 3107.93,-700.06 3221.07,-694.87"/>
<polygon fill="#707070" stroke="#707070" points="3221.42,-698.35 3231.24,-694.4 3221.09,-691.36 3221.42,-698.35"/>
<polygon fill="white" stroke="transparent" points="2912,-709.19 2912,-821.19 3166,-821.19 3166,-709.19 2912,-709.19"/>
<text text-anchor="start" x="2923.5" y="-797.99" font-family="Arial" font-size="24.00" fill="#707070">Marks stored/skipped</text>
<text text-anchor="start" x="2916" y="-771.99" font-family="Arial" font-size="24.00" fill="#707070">outcomes and ensures</text>
<text text-anchor="start" x="2933" y="-745.99" font-family="Arial" font-size="24.00" fill="#707070">retryable fetch work</text>
<text text-anchor="start" x="2997.5" y="-719.99" font-family="Arial" font-size="24.00" fill="#707070">through</text>
</g>
<!-- 34&#45;&gt;39 -->
<g id="161" class="edge">
<title>34&#45;&gt;39</title>
<path fill="none" stroke="#707070" stroke-dasharray="5,2" d="M2856.06,-823.21C2868.17,-828.71 2880.22,-834.07 2892,-839.19 2998.09,-885.23 3117.87,-932.09 3217.62,-969.75"/>
<polygon fill="#707070" stroke="#707070" points="3216.62,-973.11 3227.21,-973.36 3219.09,-966.56 3216.62,-973.11"/>
<polygon fill="white" stroke="transparent" points="2892,-956.19 2892,-1068.19 3186,-1068.19 3186,-956.19 2892,-956.19"/>
<text text-anchor="start" x="2896" y="-1044.99" font-family="Arial" font-size="24.00" fill="#707070">Stages unique candidates,</text>
<text text-anchor="start" x="2900.5" y="-1018.99" font-family="Arial" font-size="24.00" fill="#707070">resolves contained reads,</text>
<text text-anchor="start" x="2944" y="-992.99" font-family="Arial" font-size="24.00" fill="#707070">and deletes failed</text>
<text text-anchor="start" x="2935.5" y="-966.99" font-family="Arial" font-size="24.00" fill="#707070">candidates through</text>
</g>
<!-- 36 -->
<g id="36" class="node">
<title>36</title>
<polygon fill="#85bbf0" stroke="#1168bd" points="4418,-1867.69 4008,-1867.69 4008,-1588.69 4418,-1588.69 4418,-1867.69"/>
<text text-anchor="start" x="4048.5" y="-1819.49" font-family="Arial" font-size="34.00" fill="#000000">Guarded Media Fetch</text>
<text text-anchor="start" x="4037" y="-1797.49" font-family="Arial" font-size="19.00" fill="#000000">[Component: Python stdlib urllib + socket]</text>
<text text-anchor="start" x="4066" y="-1760.49" font-family="Arial" font-size="24.00" fill="#000000">Owns streamed HTTP/data</text>
<text text-anchor="start" x="4079" y="-1736.49" font-family="Arial" font-size="24.00" fill="#000000">transport, public&#45;address</text>
<text text-anchor="start" x="4114.5" y="-1712.49" font-family="Arial" font-size="24.00" fill="#000000">validation, redirect</text>
<text text-anchor="start" x="4086.5" y="-1688.49" font-family="Arial" font-size="24.00" fill="#000000">revalidation, no&#45;referrer</text>
<text text-anchor="start" x="4082.5" y="-1664.49" font-family="Arial" font-size="24.00" fill="#000000">requests, response&#45;byte</text>
<text text-anchor="start" x="4066" y="-1640.49" font-family="Arial" font-size="24.00" fill="#000000">limits, process request/byte</text>
<text text-anchor="start" x="4052" y="-1616.49" font-family="Arial" font-size="24.00" fill="#000000">leases, and shared deadlines.</text>
</g>
<!-- 35&#45;&gt;36 -->
<g id="163" class="edge">
<title>35&#45;&gt;36</title>
<path fill="none" stroke="#707070" stroke-dasharray="5,2" d="M2841.69,-1502.55C3044.17,-1451.08 3369.65,-1392.68 3644,-1455.19 3767.61,-1483.35 3895.69,-1541.95 3998.87,-1597.66"/>
<polygon fill="#707070" stroke="#707070" points="3997.36,-1600.83 4007.82,-1602.52 4000.7,-1594.68 3997.36,-1600.83"/>
<polygon fill="white" stroke="transparent" points="3289,-1455.19 3289,-1541.19 3577,-1541.19 3577,-1455.19 3289,-1455.19"/>
<text text-anchor="start" x="3336.5" y="-1517.99" font-family="Arial" font-size="24.00" fill="#707070">Streams the initial</text>
<text text-anchor="start" x="3293" y="-1491.99" font-family="Arial" font-size="24.00" fill="#707070">response and every direct</text>
<text text-anchor="start" x="3351.5" y="-1465.99" font-family="Arial" font-size="24.00" fill="#707070">artifact through</text>
</g>
<!-- 37 -->
<g id="37" class="node">
<title>37</title>
<polygon fill="#85bbf0" stroke="#1168bd" points="3644,-1879.69 3222,-1879.69 3222,-1576.69 3644,-1576.69 3644,-1879.69"/>
<text text-anchor="start" x="3251" y="-1831.49" font-family="Arial" font-size="34.00" fill="#000000">Bounded HLS Transport</text>
<text text-anchor="start" x="3344" y="-1809.49" font-family="Arial" font-size="19.00" fill="#000000">[Component: Python]</text>
<text text-anchor="start" x="3295" y="-1772.49" font-family="Arial" font-size="24.00" fill="#000000">Parses bounded playlists,</text>
<text text-anchor="start" x="3278" y="-1748.49" font-family="Arial" font-size="24.00" fill="#000000">selects variants, expands init</text>
<text text-anchor="start" x="3282.5" y="-1724.49" font-family="Arial" font-size="24.00" fill="#000000">maps/segments through the</text>
<text text-anchor="start" x="3278" y="-1700.49" font-family="Arial" font-size="24.00" fill="#000000">guarded fetch boundary, and</text>
<text text-anchor="start" x="3301" y="-1676.49" font-family="Arial" font-size="24.00" fill="#000000">streams assembly within</text>
<text text-anchor="start" x="3378" y="-1652.49" font-family="Arial" font-size="24.00" fill="#000000">aggregate</text>
<text text-anchor="start" x="3283" y="-1628.49" font-family="Arial" font-size="24.00" fill="#000000">byte/depth/request/deadline</text>
<text text-anchor="start" x="3402" y="-1604.49" font-family="Arial" font-size="24.00" fill="#000000">limits.</text>
</g>
<!-- 35&#45;&gt;37 -->
<g id="164" class="edge">
<title>35&#45;&gt;37</title>
<path fill="none" stroke="#707070" stroke-dasharray="5,2" d="M2841.67,-1601.77C2953.88,-1625.8 3095.41,-1656.11 3211.76,-1681.02"/>
<polygon fill="#707070" stroke="#707070" points="3211.36,-1684.52 3221.87,-1683.19 3212.82,-1677.67 3211.36,-1684.52"/>
<polygon fill="white" stroke="transparent" points="2903.5,-1673.19 2903.5,-1759.19 3174.5,-1759.19 3174.5,-1673.19 2903.5,-1673.19"/>
<text text-anchor="start" x="2935" y="-1735.99" font-family="Arial" font-size="24.00" fill="#707070">Delegates detected</text>
<text text-anchor="start" x="2928" y="-1709.99" font-family="Arial" font-size="24.00" fill="#707070">playlists for bounded</text>
<text text-anchor="start" x="2908" y="-1683.99" font-family="Arial" font-size="24.00" fill="#707070">parsing and assembly to</text>
</g>
<!-- 35&#45;&gt;38 -->
<g id="165" class="edge">
<title>35&#45;&gt;38</title>
<path fill="none" stroke="#707070" stroke-dasharray="5,2" d="M2841.78,-1439.3C2858.37,-1432.22 2875.23,-1426.02 2892,-1421.19 3353.46,-1288.16 3499.43,-1300.61 3972,-1386.19 4259.8,-1438.3 4567.5,-1579.07 4765.51,-1682.03"/>
<polygon fill="#707070" stroke="#707070" points="4764.07,-1685.23 4774.56,-1686.76 4767.31,-1679.03 4764.07,-1685.23"/>
<polygon fill="white" stroke="transparent" points="3680,-1386.19 3680,-1446.19 3972,-1446.19 3972,-1386.19 3680,-1386.19"/>
<text text-anchor="start" x="3684" y="-1422.99" font-family="Arial" font-size="24.00" fill="#707070">Leases aggregate transfer</text>
<text text-anchor="start" x="3752" y="-1396.99" font-family="Arial" font-size="24.00" fill="#707070">bytes through</text>
</g>
<!-- 36&#45;&gt;38 -->
<g id="166" class="edge">
<title>36&#45;&gt;38</title>
<path fill="none" stroke="#707070" stroke-dasharray="5,2" d="M4418.22,-1747.46C4525.34,-1757.57 4656.45,-1769.94 4764.74,-1780.16"/>
<polygon fill="#707070" stroke="#707070" points="4764.53,-1783.65 4774.81,-1781.11 4765.19,-1776.68 4764.53,-1783.65"/>
<polygon fill="white" stroke="transparent" points="4454,-1776.19 4454,-1836.19 4739,-1836.19 4739,-1776.19 4454,-1776.19"/>
<text text-anchor="start" x="4458.5" y="-1812.99" font-family="Arial" font-size="24.00" fill="#707070">Leases each active HTTP</text>
<text text-anchor="start" x="4511.5" y="-1786.99" font-family="Arial" font-size="24.00" fill="#707070">request through</text>
</g>
<!-- 37&#45;&gt;36 -->
<g id="169" class="edge">
<title>37&#45;&gt;36</title>
<path fill="none" stroke="#707070" stroke-dasharray="5,2" d="M3644.03,-1728.19C3753.57,-1728.19 3887.32,-1728.19 3997.51,-1728.19"/>
<polygon fill="#707070" stroke="#707070" points="3997.76,-1731.69 4007.76,-1728.19 3997.76,-1724.69 3997.76,-1731.69"/>
<polygon fill="white" stroke="transparent" points="3702.5,-1728.19 3702.5,-1814.19 3949.5,-1814.19 3949.5,-1728.19 3702.5,-1728.19"/>
<text text-anchor="start" x="3707" y="-1790.99" font-family="Arial" font-size="24.00" fill="#707070">Fetches every variant,</text>
<text text-anchor="start" x="3707" y="-1764.99" font-family="Arial" font-size="24.00" fill="#707070">init map, and segment</text>
<text text-anchor="start" x="3785" y="-1738.99" font-family="Arial" font-size="24.00" fill="#707070">through</text>
</g>
</g>
</svg>
