<?xml version="1.0" encoding="UTF-8" standalone="no"?>
<!DOCTYPE svg PUBLIC "-//W3C//DTD SVG 1.1//EN"
 "http://www.w3.org/Graphics/SVG/1.1/DTD/svg11.dtd">
<!-- Generated by graphviz version 2.43.0 (0)
 -->
<!-- Title: %3 Pages: 1 -->
<svg width="4758pt" height="2519pt"
 viewBox="0.00 0.00 4758.00 2519.00" xmlns="http://www.w3.org/2000/svg" xmlns:xlink="http://www.w3.org/1999/xlink">
<g id="graph0" class="graph" transform="scale(1 1) rotate(0) translate(4 2515)">
<title>%3</title>
<polygon fill="white" stroke="transparent" points="-4,4 -4,-2515 4754,-2515 4754,4 -4,4"/>
<text text-anchor="start" x="1790" y="-11.8" font-family="Arial" font-size="34.00">Component View: Browser Memory Daemon &#45; WSL Loopback HTTP Daemon</text>
<g id="clust1" class="cluster">
<title>cluster_4</title>
<polygon fill="none" stroke="#444444" points="8,-64 8,-2503 4742,-2503 4742,-64 8,-64"/>
<text text-anchor="start" x="2234" y="-92.8" font-family="Arial" font-size="24.00" fill="#444444">Browser Memory Daemon</text>
<text text-anchor="start" x="2298" y="-72.8" font-family="Arial" font-size="19.00" fill="#444444">[Software System]</text>
</g>
<g id="clust2" class="cluster">
<title>cluster_14</title>
<polygon fill="none" stroke="#444444" points="33,-164 33,-1891 3836,-1891 3836,-164 33,-164"/>
<text text-anchor="start" x="1769" y="-192.8" font-family="Arial" font-size="24.00" fill="#444444">WSL Loopback HTTP Daemon</text>
<text text-anchor="start" x="1732.5" y="-172.8" font-family="Arial" font-size="19.00" fill="#444444">[Container: Python 3.11, ThreadingHTTPServer]</text>
</g>
<!-- 15 -->
<g id="15" class="node">
<title>15</title>
<polygon fill="#85bbf0" stroke="#1168bd" points="453,-1012.5 58,-1012.5 58,-781.5 453,-781.5 453,-1012.5"/>
<text text-anchor="start" x="87" y="-964.3" font-family="Arial" font-size="34.00" fill="#000000">HTTP Request Router</text>
<text text-anchor="start" x="119" y="-942.3" font-family="Arial" font-size="19.00" fill="#000000">[Component: Python http.server]</text>
<text text-anchor="start" x="90" y="-905.3" font-family="Arial" font-size="24.00" fill="#000000">Routes loopback API requests,</text>
<text text-anchor="start" x="112.5" y="-881.3" font-family="Arial" font-size="24.00" fill="#000000">serves UI assets, enforces</text>
<text text-anchor="start" x="91.5" y="-857.3" font-family="Arial" font-size="24.00" fill="#000000">bearer auth for memory/admin</text>
<text text-anchor="start" x="106" y="-833.3" font-family="Arial" font-size="24.00" fill="#000000">APIs, and applies CORS for</text>
<text text-anchor="start" x="172" y="-809.3" font-family="Arial" font-size="24.00" fill="#000000">allowed origins.</text>
</g>
<!-- 21 -->
<g id="21" class="node">
<title>21</title>
<polygon fill="#85bbf0" stroke="#1168bd" points="1231,-1065.5 810,-1065.5 810,-728.5 1231,-728.5 1231,-1065.5"/>
<text text-anchor="start" x="917" y="-1017.3" font-family="Arial" font-size="34.00" fill="#000000">Media Artifact</text>
<text text-anchor="start" x="953.5" y="-983.3" font-family="Arial" font-size="34.00" fill="#000000">Manager</text>
<text text-anchor="start" x="839" y="-961.3" font-family="Arial" font-size="19.00" fill="#000000">[Component: Python + sqlite3 + filesystem]</text>
<text text-anchor="start" x="883.5" y="-924.3" font-family="Arial" font-size="24.00" fill="#000000">Provides the compatibility</text>
<text text-anchor="start" x="853.5" y="-900.3" font-family="Arial" font-size="24.00" fill="#000000">API, records media references,</text>
<text text-anchor="start" x="885" y="-876.3" font-family="Arial" font-size="24.00" fill="#000000">normalizes bounded blob</text>
<text text-anchor="start" x="870.5" y="-852.3" font-family="Arial" font-size="24.00" fill="#000000">uploads, delegates guarded</text>
<text text-anchor="start" x="874" y="-828.3" font-family="Arial" font-size="24.00" fill="#000000">public transport, and drains</text>
<text text-anchor="start" x="875" y="-804.3" font-family="Arial" font-size="24.00" fill="#000000">verified spool bytes without</text>
<text text-anchor="start" x="867" y="-780.3" font-family="Arial" font-size="24.00" fill="#000000">coupling text ingest to media</text>
<text text-anchor="start" x="962" y="-756.3" font-family="Arial" font-size="24.00" fill="#000000">availability.</text>
</g>
<!-- 15&#45;&gt;21 -->
<g id="88" class="edge">
<title>15&#45;&gt;21</title>
<path fill="none" stroke="#444444" stroke-dasharray="5,2" d="M453.49,-897C559.46,-897 690.46,-897 799.73,-897"/>
<polygon fill="#444444" stroke="#444444" points="799.9,-900.5 809.9,-897 799.9,-893.5 799.9,-900.5"/>
<polygon fill="white" stroke="transparent" points="489,-897 489,-931 774,-931 774,-897 489,-897"/>
<text text-anchor="start" x="493.5" y="-907.8" font-family="Arial" font-size="24.00" fill="#444444">Routes media requests to</text>
</g>
<!-- 22 -->
<g id="22" class="node">
<title>22</title>
<polygon fill="#85bbf0" stroke="#1168bd" points="3779,-939.5 3432,-939.5 3432,-684.5 3779,-684.5 3779,-939.5"/>
<text text-anchor="start" x="3463.5" y="-891.3" font-family="Arial" font-size="34.00" fill="#000000">Media State Model</text>
<text text-anchor="start" x="3516.5" y="-869.3" font-family="Arial" font-size="19.00" fill="#000000">[Component: Python]</text>
<text text-anchor="start" x="3481" y="-832.3" font-family="Arial" font-size="24.00" fill="#000000">Owns caller&#45;visible and</text>
<text text-anchor="start" x="3464.5" y="-808.3" font-family="Arial" font-size="24.00" fill="#000000">internal artifact/task status</text>
<text text-anchor="start" x="3480.5" y="-784.3" font-family="Arial" font-size="24.00" fill="#000000">taxonomies, fetch&#45;error</text>
<text text-anchor="start" x="3470" y="-760.3" font-family="Arial" font-size="24.00" fill="#000000">classification, and explicit</text>
<text text-anchor="start" x="3461" y="-736.3" font-family="Arial" font-size="24.00" fill="#000000">ordinary versus force&#45;reset</text>
<text text-anchor="start" x="3503.5" y="-712.3" font-family="Arial" font-size="24.00" fill="#000000">transition matrices.</text>
</g>
<!-- 21&#45;&gt;22 -->
<g id="96" class="edge">
<title>21&#45;&gt;22</title>
<path fill="none" stroke="#444444" stroke-dasharray="5,2" d="M1231.05,-816.9C1243.15,-813.03 1255.2,-809.36 1267,-806 2012.52,-593.6 2229.57,-613.65 3004,-648 3164.47,-655.12 3210.32,-633.25 3364,-680 3383.57,-685.95 3403.34,-693.62 3422.7,-702.27"/>
<polygon fill="#444444" stroke="#444444" points="3421.31,-705.48 3431.86,-706.45 3424.22,-699.11 3421.31,-705.48"/>
<polygon fill="white" stroke="transparent" points="2055,-641 2055,-727 2321,-727 2321,-641 2055,-641"/>
<text text-anchor="start" x="2096.5" y="-703.8" font-family="Arial" font-size="24.00" fill="#444444">Classifies artifact</text>
<text text-anchor="start" x="2059" y="-677.8" font-family="Arial" font-size="24.00" fill="#444444">outcomes and transition</text>
<text text-anchor="start" x="2113.5" y="-651.8" font-family="Arial" font-size="24.00" fill="#444444">intent through</text>
</g>
<!-- 23 -->
<g id="23" class="node">
<title>23</title>
<polygon fill="#85bbf0" stroke="#1168bd" points="2889,-1223.5 2486,-1223.5 2486,-944.5 2889,-944.5 2889,-1223.5"/>
<text text-anchor="start" x="2515" y="-1175.3" font-family="Arial" font-size="34.00" fill="#000000">Media Task Repository</text>
<text text-anchor="start" x="2559.5" y="-1153.3" font-family="Arial" font-size="19.00" fill="#000000">[Component: Python + sqlite3]</text>
<text text-anchor="start" x="2538.5" y="-1116.3" font-family="Arial" font-size="24.00" fill="#000000">Creates deterministic tasks,</text>
<text text-anchor="start" x="2554.5" y="-1092.3" font-family="Arial" font-size="24.00" fill="#000000">preserves terminal state,</text>
<text text-anchor="start" x="2539.5" y="-1068.3" font-family="Arial" font-size="24.00" fill="#000000">atomically leases due work,</text>
<text text-anchor="start" x="2546.5" y="-1044.3" font-family="Arial" font-size="24.00" fill="#000000">recovers stale leases, and</text>
<text text-anchor="start" x="2528.5" y="-1020.3" font-family="Arial" font-size="24.00" fill="#000000">applies bounded retry/backoff</text>
<text text-anchor="start" x="2528" y="-996.3" font-family="Arial" font-size="24.00" fill="#000000">outcomes independently from</text>
<text text-anchor="start" x="2599.5" y="-972.3" font-family="Arial" font-size="24.00" fill="#000000">media transport.</text>
</g>
<!-- 21&#45;&gt;23 -->
<g id="97" class="edge">
<title>21&#45;&gt;23</title>
<path fill="none" stroke="#444444" stroke-dasharray="5,2" d="M1231.11,-920.54C1550.41,-956.4 2155.25,-1024.33 2475.42,-1060.29"/>
<polygon fill="#444444" stroke="#444444" points="2475.42,-1063.82 2485.75,-1061.45 2476.2,-1056.86 2475.42,-1063.82"/>
<polygon fill="white" stroke="transparent" points="1644,-1006 1644,-1066 1947,-1066 1947,-1006 1644,-1006"/>
<text text-anchor="start" x="1648.5" y="-1042.8" font-family="Arial" font-size="24.00" fill="#444444">Creates and claims durable</text>
<text text-anchor="start" x="1689" y="-1016.8" font-family="Arial" font-size="24.00" fill="#444444">media work through</text>
</g>
<!-- 24 -->
<g id="24" class="node">
<title>24</title>
<polygon fill="#85bbf0" stroke="#1168bd" points="2005,-1496.5 1586,-1496.5 1586,-1193.5 2005,-1193.5 2005,-1496.5"/>
<text text-anchor="start" x="1646.5" y="-1448.3" font-family="Arial" font-size="34.00" fill="#000000">Media Artifact Store</text>
<text text-anchor="start" x="1615" y="-1426.3" font-family="Arial" font-size="19.00" fill="#000000">[Component: Python + sqlite3 + BlobStore]</text>
<text text-anchor="start" x="1652.5" y="-1389.3" font-family="Arial" font-size="24.00" fill="#000000">Owns artifact rows, unique</text>
<text text-anchor="start" x="1694.5" y="-1365.3" font-family="Arial" font-size="24.00" fill="#000000">staged publication,</text>
<text text-anchor="start" x="1654.5" y="-1341.3" font-family="Arial" font-size="24.00" fill="#000000">failed&#45;write compensation,</text>
<text text-anchor="start" x="1670" y="-1317.3" font-family="Arial" font-size="24.00" fill="#000000">contained reads, cache</text>
<text text-anchor="start" x="1678" y="-1293.3" font-family="Arial" font-size="24.00" fill="#000000">admission, oldest&#45;first</text>
<text text-anchor="start" x="1649" y="-1269.3" font-family="Arial" font-size="24.00" fill="#000000">eviction, purge/rehydration,</text>
<text text-anchor="start" x="1729" y="-1245.3" font-family="Arial" font-size="24.00" fill="#000000">and lifecycle</text>
<text text-anchor="start" x="1666" y="-1221.3" font-family="Arial" font-size="24.00" fill="#000000">registration/tombstones.</text>
</g>
<!-- 21&#45;&gt;24 -->
<g id="98" class="edge">
<title>21&#45;&gt;24</title>
<path fill="none" stroke="#444444" stroke-dasharray="5,2" d="M1231.25,-987.86C1330.42,-1033.79 1448.95,-1093.08 1550,-1156 1565.8,-1165.84 1581.82,-1176.49 1597.69,-1187.54"/>
<polygon fill="#444444" stroke="#444444" points="1595.78,-1190.47 1605.98,-1193.35 1599.8,-1184.74 1595.78,-1190.47"/>
<polygon fill="white" stroke="transparent" points="1279.5,-1156 1279.5,-1242 1537.5,-1242 1537.5,-1156 1279.5,-1156"/>
<text text-anchor="start" x="1301" y="-1218.8" font-family="Arial" font-size="24.00" fill="#444444">Publishes, resolves,</text>
<text text-anchor="start" x="1283.5" y="-1192.8" font-family="Arial" font-size="24.00" fill="#444444">purges, and rehydrates</text>
<text text-anchor="start" x="1321" y="-1166.8" font-family="Arial" font-size="24.00" fill="#444444">artifacts through</text>
</g>
<!-- 25 -->
<g id="25" class="node">
<title>25</title>
<polygon fill="#85bbf0" stroke="#1168bd" points="2000.5,-588.5 1590.5,-588.5 1590.5,-333.5 2000.5,-333.5 2000.5,-588.5"/>
<text text-anchor="start" x="1631" y="-540.3" font-family="Arial" font-size="34.00" fill="#000000">Guarded Media Fetch</text>
<text text-anchor="start" x="1619.5" y="-518.3" font-family="Arial" font-size="19.00" fill="#000000">[Component: Python stdlib urllib + socket]</text>
<text text-anchor="start" x="1648" y="-481.3" font-family="Arial" font-size="24.00" fill="#000000">Owns HTTP/data transport,</text>
<text text-anchor="start" x="1658.5" y="-457.3" font-family="Arial" font-size="24.00" fill="#000000">public&#45;address validation,</text>
<text text-anchor="start" x="1686" y="-433.3" font-family="Arial" font-size="24.00" fill="#000000">redirect revalidation,</text>
<text text-anchor="start" x="1684" y="-409.3" font-family="Arial" font-size="24.00" fill="#000000">no&#45;referrer requests,</text>
<text text-anchor="start" x="1660.5" y="-385.3" font-family="Arial" font-size="24.00" fill="#000000">response&#45;byte limits, and</text>
<text text-anchor="start" x="1699.5" y="-361.3" font-family="Arial" font-size="24.00" fill="#000000">shared deadlines.</text>
</g>
<!-- 21&#45;&gt;25 -->
<g id="99" class="edge">
<title>21&#45;&gt;25</title>
<path fill="none" stroke="#444444" stroke-dasharray="5,2" d="M1120.66,-728.27C1159.92,-674.55 1209.52,-619.62 1267,-583 1360.22,-523.61 1479.09,-493.04 1580.38,-477.34"/>
<polygon fill="#444444" stroke="#444444" points="1581.07,-480.78 1590.44,-475.83 1580.03,-473.86 1581.07,-480.78"/>
<polygon fill="white" stroke="transparent" points="1267,-583 1267,-643 1550,-643 1550,-583 1267,-583"/>
<text text-anchor="start" x="1271.5" y="-619.8" font-family="Arial" font-size="24.00" fill="#444444">Delegates daemon&#45;public</text>
<text text-anchor="start" x="1311" y="-593.8" font-family="Arial" font-size="24.00" fill="#444444">media transport to</text>
</g>
<!-- 28 -->
<g id="28" class="node">
<title>28</title>
<polygon fill="#85bbf0" stroke="#1168bd" points="3811,-1519.5 3400,-1519.5 3400,-1216.5 3811,-1216.5 3811,-1519.5"/>
<text text-anchor="start" x="3449" y="-1471.3" font-family="Arial" font-size="34.00" fill="#000000">Contained BlobStore</text>
<text text-anchor="start" x="3429" y="-1449.3" font-family="Arial" font-size="19.00" fill="#000000">[Component: Python filesystem boundary]</text>
<text text-anchor="start" x="3453" y="-1412.3" font-family="Arial" font-size="24.00" fill="#000000">Prefers root&#45;relative locators</text>
<text text-anchor="start" x="3489.5" y="-1388.3" font-family="Arial" font-size="24.00" fill="#000000">with contained legacy</text>
<text text-anchor="start" x="3474.5" y="-1364.3" font-family="Arial" font-size="24.00" fill="#000000">fallback; streams unique</text>
<text text-anchor="start" x="3490.5" y="-1340.3" font-family="Arial" font-size="24.00" fill="#000000">stages with size/hash</text>
<text text-anchor="start" x="3486.5" y="-1316.3" font-family="Arial" font-size="24.00" fill="#000000">accounting; atomically</text>
<text text-anchor="start" x="3458.5" y="-1292.3" font-family="Arial" font-size="24.00" fill="#000000">commits; and contains blob</text>
<text text-anchor="start" x="3491" y="-1268.3" font-family="Arial" font-size="24.00" fill="#000000">read, stat, and delete</text>
<text text-anchor="start" x="3545" y="-1244.3" font-family="Arial" font-size="24.00" fill="#000000">operations.</text>
</g>
<!-- 21&#45;&gt;28 -->
<g id="114" class="edge">
<title>21&#45;&gt;28</title>
<path fill="none" stroke="#444444" stroke-dasharray="5,2" d="M1231.23,-896.25C1555.9,-891.26 2160.94,-865.49 2335,-745 2363.76,-725.09 2341.14,-693.22 2371,-675 2401.02,-656.68 2969.87,-666.51 3004,-675 3179.76,-718.74 3247.37,-727.43 3364,-866 3397.12,-905.36 3380.04,-928.59 3400,-976 3432.85,-1054.02 3475.35,-1137.57 3513.09,-1207.4"/>
<polygon fill="#444444" stroke="#444444" points="3510.06,-1209.16 3517.9,-1216.28 3516.22,-1205.82 3510.06,-1209.16"/>
<polygon fill="white" stroke="transparent" points="2053.5,-836 2053.5,-948 2322.5,-948 2322.5,-836 2053.5,-836"/>
<text text-anchor="start" x="2067" y="-924.8" font-family="Arial" font-size="24.00" fill="#444444">Checks current artifact</text>
<text text-anchor="start" x="2071.5" y="-898.8" font-family="Arial" font-size="24.00" fill="#444444">presence during fetch</text>
<text text-anchor="start" x="2058" y="-872.8" font-family="Arial" font-size="24.00" fill="#444444">orchestration and drains</text>
<text text-anchor="start" x="2082.5" y="-846.8" font-family="Arial" font-size="24.00" fill="#444444">spool bytes through</text>
</g>
<!-- 37 -->
<g id="37" class="node">
<title>37</title>
<path fill="#2f95c8" stroke="#20688c" d="M3803,-2427.22C3803,-2455.44 3714.48,-2478.38 3605.5,-2478.38 3496.52,-2478.38 3408,-2455.44 3408,-2427.22 3408,-2427.22 3408,-1966.78 3408,-1966.78 3408,-1938.56 3496.52,-1915.62 3605.5,-1915.62 3714.48,-1915.62 3803,-1938.56 3803,-1966.78 3803,-1966.78 3803,-2427.22 3803,-2427.22"/>
<path fill="none" stroke="#20688c" d="M3803,-2427.22C3803,-2398.99 3714.48,-2376.06 3605.5,-2376.06 3496.52,-2376.06 3408,-2398.99 3408,-2427.22"/>
<text text-anchor="start" x="3492.5" y="-2353.3" font-family="Arial" font-size="34.00" fill="#ffffff">SQLite + FTS5</text>
<text text-anchor="start" x="3532.5" y="-2319.3" font-family="Arial" font-size="34.00" fill="#ffffff">Database</text>
<text text-anchor="start" x="3479.5" y="-2297.3" font-family="Arial" font-size="19.00" fill="#ffffff">[Container: SQLite with FTS5]</text>
<text text-anchor="start" x="3437.5" y="-2260.3" font-family="Arial" font-size="24.00" fill="#ffffff">Durable complete cleaned&#45;text,</text>
<text text-anchor="start" x="3486.5" y="-2236.3" font-family="Arial" font-size="24.00" fill="#ffffff">relational, and full&#45;text</text>
<text text-anchor="start" x="3488" y="-2212.3" font-family="Arial" font-size="24.00" fill="#ffffff">authority for migration</text>
<text text-anchor="start" x="3453.5" y="-2188.3" font-family="Arial" font-size="24.00" fill="#ffffff">ledger, sources, documents,</text>
<text text-anchor="start" x="3456" y="-2164.3" font-family="Arial" font-size="24.00" fill="#ffffff">visits, capture observations,</text>
<text text-anchor="start" x="3474.5" y="-2140.3" font-family="Arial" font-size="24.00" fill="#ffffff">URL claims, visit events,</text>
<text text-anchor="start" x="3437" y="-2116.3" font-family="Arial" font-size="24.00" fill="#ffffff">snapshots, chunks, chunks_fts,</text>
<text text-anchor="start" x="3444.5" y="-2092.3" font-family="Arial" font-size="24.00" fill="#ffffff">media provenance/tasks, blob</text>
<text text-anchor="start" x="3481" y="-2068.3" font-family="Arial" font-size="24.00" fill="#ffffff">lifecycle records, policy</text>
<text text-anchor="start" x="3480" y="-2044.3" font-family="Arial" font-size="24.00" fill="#ffffff">rules, audit events, and</text>
<text text-anchor="start" x="3513.5" y="-2020.3" font-family="Arial" font-size="24.00" fill="#ffffff">deletion receipts.</text>
</g>
<!-- 21&#45;&gt;37 -->
<g id="100" class="edge">
<title>21&#45;&gt;37</title>
<path fill="none" stroke="#444444" stroke-dasharray="5,2" d="M1083.94,-1065.92C1169.8,-1279.54 1341.92,-1648.57 1586,-1890 1869.58,-2170.51 1984.82,-2225.15 2371,-2325 2724.28,-2416.34 3150.44,-2330.63 3398.13,-2262.27"/>
<polygon fill="#444444" stroke="#444444" points="3399.27,-2265.59 3407.97,-2259.54 3397.39,-2258.84 3399.27,-2265.59"/>
<polygon fill="white" stroke="transparent" points="2062.5,-2313 2062.5,-2388 2313.5,-2388 2313.5,-2313 2062.5,-2313"/>
<text text-anchor="start" x="2067" y="-2365.3" font-family="Arial" font-size="24.00" fill="#444444">Updates media artifact</text>
<text text-anchor="start" x="2150" y="-2341.3" font-family="Arial" font-size="24.00" fill="#444444">rows in</text>
<text text-anchor="start" x="2155" y="-2321.3" font-family="Arial" font-size="19.00" fill="#444444">[sqlite3]</text>
</g>
<!-- 23&#45;&gt;22 -->
<g id="101" class="edge">
<title>23&#45;&gt;22</title>
<path fill="none" stroke="#444444" stroke-dasharray="5,2" d="M2889.24,-1024.39C3048.07,-977.23 3268,-911.92 3421.91,-866.22"/>
<polygon fill="#444444" stroke="#444444" points="3423.36,-869.44 3431.95,-863.24 3421.37,-862.73 3423.36,-869.44"/>
<polygon fill="white" stroke="transparent" points="3085,-972 3085,-1058 3319,-1058 3319,-972 3085,-972"/>
<text text-anchor="start" x="3092" y="-1034.8" font-family="Arial" font-size="24.00" fill="#444444">Validates task status</text>
<text text-anchor="start" x="3092" y="-1008.8" font-family="Arial" font-size="24.00" fill="#444444">vocabulary and retry</text>
<text text-anchor="start" x="3089" y="-982.8" font-family="Arial" font-size="24.00" fill="#444444">classification through</text>
</g>
<!-- 23&#45;&gt;37 -->
<g id="102" class="edge">
<title>23&#45;&gt;37</title>
<path fill="none" stroke="#444444" stroke-dasharray="5,2" d="M2889.19,-1170.44C2933.51,-1198.55 2975.65,-1234.12 3004,-1278 3072.1,-1383.38 2966.59,-1456.25 3040,-1558 3133.51,-1687.61 3266.98,-1586.99 3364,-1714 3417.5,-1784.04 3365.68,-1827.83 3400,-1909 3402.65,-1915.26 3405.45,-1921.52 3408.39,-1927.77"/>
<polygon fill="#444444" stroke="#444444" points="3405.29,-1929.41 3412.79,-1936.91 3411.6,-1926.38 3405.29,-1929.41"/>
<polygon fill="white" stroke="transparent" points="3065.5,-1714 3065.5,-1789 3338.5,-1789 3338.5,-1714 3065.5,-1714"/>
<text text-anchor="start" x="3091" y="-1766.3" font-family="Arial" font-size="24.00" fill="#444444">Creates, leases, and</text>
<text text-anchor="start" x="3070" y="-1742.3" font-family="Arial" font-size="24.00" fill="#444444">advances media tasks in</text>
<text text-anchor="start" x="3169" y="-1722.3" font-family="Arial" font-size="19.00" fill="#444444">[sqlite3]</text>
</g>
<!-- 24&#45;&gt;22 -->
<g id="103" class="edge">
<title>24&#45;&gt;22</title>
<path fill="none" stroke="#444444" stroke-dasharray="5,2" d="M1971.49,-1193.44C1994.5,-1174.96 2018.06,-1156.72 2041,-1140 2165.77,-1049.08 2239.34,-1076.17 2335,-955 2365.83,-915.95 2330.99,-878.58 2371,-849 2679.91,-620.59 3161.28,-694.01 3421.93,-758.49"/>
<polygon fill="#444444" stroke="#444444" points="3421.33,-761.95 3431.88,-760.97 3423.02,-755.15 3421.33,-761.95"/>
<polygon fill="white" stroke="transparent" points="2580.5,-849 2580.5,-909 2794.5,-909 2794.5,-849 2580.5,-849"/>
<text text-anchor="start" x="2584.5" y="-885.8" font-family="Arial" font-size="24.00" fill="#444444">Uses artifact status</text>
<text text-anchor="start" x="2601" y="-859.8" font-family="Arial" font-size="24.00" fill="#444444">vocabulary from</text>
</g>
<!-- 24&#45;&gt;23 -->
<g id="104" class="edge">
<title>24&#45;&gt;23</title>
<path fill="none" stroke="#444444" stroke-dasharray="5,2" d="M2005.24,-1249.81C2017.26,-1245.26 2029.23,-1240.96 2041,-1237 2183.44,-1189.11 2348.36,-1150.29 2475.85,-1123.74"/>
<polygon fill="#444444" stroke="#444444" points="2476.65,-1127.15 2485.73,-1121.69 2475.23,-1120.29 2476.65,-1127.15"/>
<polygon fill="white" stroke="transparent" points="2061,-1237 2061,-1349 2315,-1349 2315,-1237 2061,-1237"/>
<text text-anchor="start" x="2072.5" y="-1325.8" font-family="Arial" font-size="24.00" fill="#444444">Marks stored/skipped</text>
<text text-anchor="start" x="2065" y="-1299.8" font-family="Arial" font-size="24.00" fill="#444444">outcomes and ensures</text>
<text text-anchor="start" x="2082" y="-1273.8" font-family="Arial" font-size="24.00" fill="#444444">retryable fetch work</text>
<text text-anchor="start" x="2146.5" y="-1247.8" font-family="Arial" font-size="24.00" fill="#444444">through</text>
</g>
<!-- 24&#45;&gt;28 -->
<g id="106" class="edge">
<title>24&#45;&gt;28</title>
<path fill="none" stroke="#444444" stroke-dasharray="5,2" d="M2005.19,-1361.35C2017.3,-1361.99 2029.3,-1362.55 2041,-1363 2296.79,-1372.81 3024.35,-1370.88 3389.68,-1369.18"/>
<polygon fill="#444444" stroke="#444444" points="3389.86,-1372.68 3399.84,-1369.14 3389.83,-1365.68 3389.86,-1372.68"/>
<polygon fill="white" stroke="transparent" points="2540.5,-1370 2540.5,-1482 2834.5,-1482 2834.5,-1370 2540.5,-1370"/>
<text text-anchor="start" x="2544.5" y="-1458.8" font-family="Arial" font-size="24.00" fill="#444444">Stages unique candidates,</text>
<text text-anchor="start" x="2549" y="-1432.8" font-family="Arial" font-size="24.00" fill="#444444">resolves contained reads,</text>
<text text-anchor="start" x="2592.5" y="-1406.8" font-family="Arial" font-size="24.00" fill="#444444">and deletes failed</text>
<text text-anchor="start" x="2584" y="-1380.8" font-family="Arial" font-size="24.00" fill="#444444">candidates through</text>
</g>
<!-- 29 -->
<g id="29" class="node">
<title>29</title>
<polygon fill="#85bbf0" stroke="#1168bd" points="3004,-1865.5 2371,-1865.5 2371,-1552.5 3004,-1552.5 3004,-1865.5"/>
<text text-anchor="start" x="2549" y="-1817.3" font-family="Arial" font-size="34.00" fill="#000000">Blob Lifecycle and</text>
<text text-anchor="start" x="2543" y="-1783.3" font-family="Arial" font-size="34.00" fill="#000000">Storage Reconciler</text>
<text text-anchor="start" x="2506" y="-1761.3" font-family="Arial" font-size="19.00" fill="#000000">[Component: Python + sqlite3 + filesystem]</text>
<text text-anchor="start" x="2644.5" y="-1724.3" font-family="Arial" font-size="24.00" fill="#000000">Persists</text>
<text text-anchor="start" x="2400" y="-1700.3" font-family="Arial" font-size="24.00" fill="#000000">committed/tombstoned/missing/deleted/blocked/failed</text>
<text text-anchor="start" x="2577.5" y="-1676.3" font-family="Arial" font-size="24.00" fill="#000000">blob state; serializes</text>
<text text-anchor="start" x="2541.5" y="-1652.3" font-family="Arial" font-size="24.00" fill="#000000">deletion processors; retries</text>
<text text-anchor="start" x="2555.5" y="-1628.3" font-family="Arial" font-size="24.00" fill="#000000">tombstones; and dry&#45;run</text>
<text text-anchor="start" x="2539" y="-1604.3" font-family="Arial" font-size="24.00" fill="#000000">detects missing refs, in&#45;root</text>
<text text-anchor="start" x="2545" y="-1580.3" font-family="Arial" font-size="24.00" fill="#000000">orphans, and stale stages.</text>
</g>
<!-- 24&#45;&gt;29 -->
<g id="107" class="edge">
<title>24&#45;&gt;29</title>
<path fill="none" stroke="#444444" stroke-dasharray="5,2" d="M2005.15,-1382.28C2130.68,-1406.71 2277.04,-1439.31 2335,-1468 2353.67,-1477.24 2354.32,-1485.53 2371,-1498 2392.5,-1514.08 2415.15,-1530.39 2438.04,-1546.44"/>
<polygon fill="#444444" stroke="#444444" points="2436.28,-1549.48 2446.48,-1552.34 2440.29,-1543.74 2436.28,-1549.48"/>
<polygon fill="white" stroke="transparent" points="2041,-1468 2041,-1580 2335,-1580 2335,-1468 2041,-1468"/>
<text text-anchor="start" x="2045" y="-1556.8" font-family="Arial" font-size="24.00" fill="#444444">Registers committed blobs</text>
<text text-anchor="start" x="2101.5" y="-1530.8" font-family="Arial" font-size="24.00" fill="#444444">and tombstones</text>
<text text-anchor="start" x="2046.5" y="-1504.8" font-family="Arial" font-size="24.00" fill="#444444">replacement, eviction, and</text>
<text text-anchor="start" x="2079.5" y="-1478.8" font-family="Arial" font-size="24.00" fill="#444444">purge bytes through</text>
</g>
<!-- 24&#45;&gt;37 -->
<g id="105" class="edge">
<title>24&#45;&gt;37</title>
<path fill="none" stroke="#444444" stroke-dasharray="5,2" d="M1969.97,-1496.69C1982.7,-1511.61 1994.6,-1527.13 2005,-1543 2030.66,-1582.16 2013.56,-1604.06 2041,-1642 2150.42,-1793.3 2202.95,-1820.61 2371,-1902 2417.5,-1924.52 3059,-2072.62 3397.94,-2150.03"/>
<polygon fill="#444444" stroke="#444444" points="3397.35,-2153.49 3407.88,-2152.3 3398.91,-2146.66 3397.35,-2153.49"/>
<polygon fill="white" stroke="transparent" points="2530,-2056 2530,-2131 2845,-2131 2845,-2056 2530,-2056"/>
<text text-anchor="start" x="2534.5" y="-2108.3" font-family="Arial" font-size="24.00" fill="#444444">Counts and advances media</text>
<text text-anchor="start" x="2609.5" y="-2084.3" font-family="Arial" font-size="24.00" fill="#444444">artifact rows in</text>
<text text-anchor="start" x="2654.5" y="-2064.3" font-family="Arial" font-size="19.00" fill="#444444">[sqlite3]</text>
</g>
<!-- 26 -->
<g id="26" class="node">
<title>26</title>
<polygon fill="#85bbf0" stroke="#1168bd" points="2898.5,-519.5 2476.5,-519.5 2476.5,-264.5 2898.5,-264.5 2898.5,-519.5"/>
<text text-anchor="start" x="2505.5" y="-471.3" font-family="Arial" font-size="34.00" fill="#000000">Bounded HLS Transport</text>
<text text-anchor="start" x="2598.5" y="-449.3" font-family="Arial" font-size="19.00" fill="#000000">[Component: Python]</text>
<text text-anchor="start" x="2549.5" y="-412.3" font-family="Arial" font-size="24.00" fill="#000000">Parses bounded playlists,</text>
<text text-anchor="start" x="2532.5" y="-388.3" font-family="Arial" font-size="24.00" fill="#000000">selects variants, expands init</text>
<text text-anchor="start" x="2537" y="-364.3" font-family="Arial" font-size="24.00" fill="#000000">maps/segments through the</text>
<text text-anchor="start" x="2532.5" y="-340.3" font-family="Arial" font-size="24.00" fill="#000000">guarded fetch boundary, and</text>
<text text-anchor="start" x="2563" y="-316.3" font-family="Arial" font-size="24.00" fill="#000000">assembles bytes within</text>
<text text-anchor="start" x="2529.5" y="-292.3" font-family="Arial" font-size="24.00" fill="#000000">depth/request/deadline limits.</text>
</g>
<!-- 25&#45;&gt;26 -->
<g id="108" class="edge">
<title>25&#45;&gt;26</title>
<path fill="none" stroke="#444444" stroke-dasharray="5,2" d="M2000.81,-447.43C2101.47,-440.53 2224.64,-431.76 2335,-423 2377.35,-419.64 2422.55,-415.82 2465.95,-412.05"/>
<polygon fill="#444444" stroke="#444444" points="2466.4,-415.52 2476.05,-411.17 2465.79,-408.55 2466.4,-415.52"/>
<polygon fill="white" stroke="transparent" points="2052.5,-445 2052.5,-531 2323.5,-531 2323.5,-445 2052.5,-445"/>
<text text-anchor="start" x="2084" y="-507.8" font-family="Arial" font-size="24.00" fill="#444444">Delegates detected</text>
<text text-anchor="start" x="2077" y="-481.8" font-family="Arial" font-size="24.00" fill="#444444">playlists for bounded</text>
<text text-anchor="start" x="2057" y="-455.8" font-family="Arial" font-size="24.00" fill="#444444">parsing and assembly to</text>
</g>
<!-- 26&#45;&gt;25 -->
<g id="111" class="edge">
<title>26&#45;&gt;25</title>
<path fill="none" stroke="#444444" stroke-dasharray="5,2" d="M2476.4,-329.14C2348.71,-300.52 2183.39,-280.65 2041,-319 2029.8,-322.02 2018.58,-325.69 2007.45,-329.86"/>
<polygon fill="#444444" stroke="#444444" points="2006.17,-326.6 1998.12,-333.49 2008.7,-333.13 2006.17,-326.6"/>
<polygon fill="white" stroke="transparent" points="2064.5,-319 2064.5,-405 2311.5,-405 2311.5,-319 2064.5,-319"/>
<text text-anchor="start" x="2069" y="-381.8" font-family="Arial" font-size="24.00" fill="#444444">Fetches every variant,</text>
<text text-anchor="start" x="2069" y="-355.8" font-family="Arial" font-size="24.00" fill="#444444">init map, and segment</text>
<text text-anchor="start" x="2147" y="-329.8" font-family="Arial" font-size="24.00" fill="#444444">through</text>
</g>
<!-- 27 -->
<g id="27" class="node">
<title>27</title>
<polygon fill="#85bbf0" stroke="#1168bd" points="1986,-1853.5 1605,-1853.5 1605,-1578.5 1986,-1578.5 1986,-1853.5"/>
<text text-anchor="start" x="1644.5" y="-1805.3" font-family="Arial" font-size="34.00" fill="#000000">Media Operator and</text>
<text text-anchor="start" x="1689.5" y="-1771.3" font-family="Arial" font-size="34.00" fill="#000000">Reconciliation</text>
<text text-anchor="start" x="1725.5" y="-1737.3" font-family="Arial" font-size="34.00" fill="#000000">Workflow</text>
<text text-anchor="start" x="1667.5" y="-1715.3" font-family="Arial" font-size="19.00" fill="#000000">[Component: Python + sqlite3]</text>
<text text-anchor="start" x="1656.5" y="-1678.3" font-family="Arial" font-size="24.00" fill="#000000">Owns scoped dry&#45;run&#45;first</text>
<text text-anchor="start" x="1634" y="-1654.3" font-family="Arial" font-size="24.00" fill="#000000">budget requeue plus bounded</text>
<text text-anchor="start" x="1648.5" y="-1630.3" font-family="Arial" font-size="24.00" fill="#000000">current&#45;state CDP/blob and</text>
<text text-anchor="start" x="1658" y="-1606.3" font-family="Arial" font-size="24.00" fill="#000000">stored&#45;task reconciliation.</text>
</g>
<!-- 27&#45;&gt;23 -->
<g id="112" class="edge">
<title>27&#45;&gt;23</title>
<path fill="none" stroke="#444444" stroke-dasharray="5,2" d="M1967.58,-1578.41C2080.1,-1489.71 2231.77,-1373.53 2371,-1278 2404.87,-1254.76 2441.48,-1231.04 2477.36,-1208.53"/>
<polygon fill="#444444" stroke="#444444" points="2479.35,-1211.41 2485.97,-1203.14 2475.63,-1205.48 2479.35,-1211.41"/>
<polygon fill="white" stroke="transparent" points="2044,-1538 2044,-1624 2332,-1624 2332,-1538 2044,-1538"/>
<text text-anchor="start" x="2053" y="-1600.8" font-family="Arial" font-size="24.00" fill="#444444">Resets explicitly selected</text>
<text text-anchor="start" x="2048" y="-1574.8" font-family="Arial" font-size="24.00" fill="#444444">tasks and closes bounded</text>
<text text-anchor="start" x="2051.5" y="-1548.8" font-family="Arial" font-size="24.00" fill="#444444">stale stored work through</text>
</g>
<!-- 27&#45;&gt;37 -->
<g id="113" class="edge">
<title>27&#45;&gt;37</title>
<path fill="none" stroke="#444444" stroke-dasharray="5,2" d="M1986.32,-1833.97C1993.11,-1841.62 1999.39,-1849.63 2005,-1858 2048.22,-1922.53 1986.44,-1973.72 2041,-2029 2225.62,-2216.06 3016.98,-2216.77 3397.95,-2205.63"/>
<polygon fill="#444444" stroke="#444444" points="3398.1,-2209.13 3407.99,-2205.33 3397.89,-2202.13 3398.1,-2209.13"/>
<polygon fill="white" stroke="transparent" points="2536,-2208 2536,-2307 2839,-2307 2839,-2208 2536,-2208"/>
<text text-anchor="start" x="2540.5" y="-2284.3" font-family="Arial" font-size="24.00" fill="#444444">Reads and updates scoped</text>
<text text-anchor="start" x="2560" y="-2260.3" font-family="Arial" font-size="24.00" fill="#444444">media artifact/task state</text>
<text text-anchor="start" x="2678.5" y="-2236.3" font-family="Arial" font-size="24.00" fill="#444444">in</text>
<text text-anchor="start" x="2654.5" y="-2216.3" font-family="Arial" font-size="19.00" fill="#444444">[sqlite3]</text>
</g>
<!-- 39 -->
<g id="39" class="node">
<title>39</title>
<path fill="#2f95c8" stroke="#20688c" d="M4717,-1284.22C4717,-1305.82 4595.09,-1323.38 4445,-1323.38 4294.91,-1323.38 4173,-1305.82 4173,-1284.22 4173,-1284.22 4173,-931.78 4173,-931.78 4173,-910.18 4294.91,-892.62 4445,-892.62 4595.09,-892.62 4717,-910.18 4717,-931.78 4717,-931.78 4717,-1284.22 4717,-1284.22"/>
<path fill="none" stroke="#20688c" d="M4717,-1284.22C4717,-1262.61 4595.09,-1245.06 4445,-1245.06 4294.91,-1245.06 4173,-1262.61 4173,-1284.22"/>
<text text-anchor="start" x="4289.5" y="-1216.3" font-family="Arial" font-size="34.00" fill="#ffffff">Guarded Media Blob</text>
<text text-anchor="start" x="4395.5" y="-1182.3" font-family="Arial" font-size="34.00" fill="#ffffff">Cache</text>
<text text-anchor="start" x="4202" y="-1160.3" font-family="Arial" font-size="19.00" fill="#ffffff">[Container: WSL&#45;visible local or NAS&#45;mounted filesystem]</text>
<text text-anchor="start" x="4335" y="-1123.3" font-family="Arial" font-size="24.00" fill="#ffffff">Bounded disposable</text>
<text text-anchor="start" x="4279.5" y="-1099.3" font-family="Arial" font-size="24.00" fill="#ffffff">image/video/audio bytes under</text>
<text text-anchor="start" x="4303.5" y="-1075.3" font-family="Arial" font-size="24.00" fill="#ffffff">the configured media root;</text>
<text text-anchor="start" x="4331" y="-1051.3" font-family="Arial" font-size="24.00" fill="#ffffff">explicit external roots</text>
<text text-anchor="start" x="4346" y="-1027.3" font-family="Arial" font-size="24.00" fill="#ffffff">require mount and</text>
<text text-anchor="start" x="4295.5" y="-1003.3" font-family="Arial" font-size="24.00" fill="#ffffff">identity&#45;marker proof before</text>
<text text-anchor="start" x="4404" y="-979.3" font-family="Arial" font-size="24.00" fill="#ffffff">access.</text>
</g>
<!-- 28&#45;&gt;39 -->
<g id="122" class="edge">
<title>28&#45;&gt;39</title>
<path fill="none" stroke="#444444" stroke-dasharray="5,2" d="M3811.11,-1304.48C3916.96,-1271.62 4047.8,-1231 4162.99,-1195.24"/>
<polygon fill="#444444" stroke="#444444" points="4164.16,-1198.54 4172.67,-1192.23 4162.08,-1191.86 4164.16,-1198.54"/>
<polygon fill="white" stroke="transparent" points="3856.5,-1291 3856.5,-1390 4127.5,-1390 4127.5,-1291 3856.5,-1291"/>
<text text-anchor="start" x="3862.5" y="-1367.3" font-family="Arial" font-size="24.00" fill="#444444">Stages, commits, reads,</text>
<text text-anchor="start" x="3861" y="-1343.3" font-family="Arial" font-size="24.00" fill="#444444">stats, and deletes media</text>
<text text-anchor="start" x="3950.5" y="-1319.3" font-family="Arial" font-size="24.00" fill="#444444">blobs in</text>
<text text-anchor="start" x="3941" y="-1299.3" font-family="Arial" font-size="19.00" fill="#444444">[Filesystem]</text>
</g>
<!-- 40 -->
<g id="40" class="node">
<title>40</title>
<path fill="#2f95c8" stroke="#20688c" d="M4638,-1816.72C4638,-1839.98 4551.49,-1858.88 4445,-1858.88 4338.51,-1858.88 4252,-1839.98 4252,-1816.72 4252,-1816.72 4252,-1437.28 4252,-1437.28 4252,-1414.02 4338.51,-1395.12 4445,-1395.12 4551.49,-1395.12 4638,-1414.02 4638,-1437.28 4638,-1437.28 4638,-1816.72 4638,-1816.72"/>
<path fill="none" stroke="#20688c" d="M4638,-1816.72C4638,-1793.45 4551.49,-1774.56 4445,-1774.56 4338.51,-1774.56 4252,-1793.45 4252,-1816.72"/>
<text text-anchor="start" x="4281" y="-1747.3" font-family="Arial" font-size="34.00" fill="#ffffff">Bounded Local Media</text>
<text text-anchor="start" x="4401.5" y="-1713.3" font-family="Arial" font-size="34.00" fill="#ffffff">Spool</text>
<text text-anchor="start" x="4305" y="-1691.3" font-family="Arial" font-size="19.00" fill="#ffffff">[Container: WSL local filesystem]</text>
<text text-anchor="start" x="4293" y="-1654.3" font-family="Arial" font-size="24.00" fill="#ffffff">Opt&#45;in durable outage buffer</text>
<text text-anchor="start" x="4296.5" y="-1630.3" font-family="Arial" font-size="24.00" fill="#ffffff">beneath the local WSL data</text>
<text text-anchor="start" x="4323.5" y="-1606.3" font-family="Arial" font-size="24.00" fill="#ffffff">root; admission counts</text>
<text text-anchor="start" x="4299.5" y="-1582.3" font-family="Arial" font-size="24.00" fill="#ffffff">committed files and distinct</text>
<text text-anchor="start" x="4293" y="-1558.3" font-family="Arial" font-size="24.00" fill="#ffffff">in&#45;flight SQLite reservations,</text>
<text text-anchor="start" x="4320" y="-1534.3" font-family="Arial" font-size="24.00" fill="#ffffff">and drain verifies bytes</text>
<text text-anchor="start" x="4297.5" y="-1510.3" font-family="Arial" font-size="24.00" fill="#ffffff">before tier transition/source</text>
<text text-anchor="start" x="4399" y="-1486.3" font-family="Arial" font-size="24.00" fill="#ffffff">cleanup.</text>
</g>
<!-- 28&#45;&gt;40 -->
<g id="123" class="edge">
<title>28&#45;&gt;40</title>
<path fill="none" stroke="#444444" stroke-dasharray="5,2" d="M3811.11,-1431.28C3942.2,-1471.82 4111.61,-1524.21 4242.16,-1564.58"/>
<polygon fill="#444444" stroke="#444444" points="4241.3,-1567.98 4251.89,-1567.59 4243.37,-1561.29 4241.3,-1567.98"/>
<polygon fill="white" stroke="transparent" points="3847,-1528 3847,-1627 4137,-1627 4137,-1528 3847,-1528"/>
<text text-anchor="start" x="3862" y="-1604.3" font-family="Arial" font-size="24.00" fill="#444444">Stages, commits, reads,</text>
<text text-anchor="start" x="3851" y="-1580.3" font-family="Arial" font-size="24.00" fill="#444444">stats, and deletes spooled</text>
<text text-anchor="start" x="3946" y="-1556.3" font-family="Arial" font-size="24.00" fill="#444444">media in</text>
<text text-anchor="start" x="3940.5" y="-1536.3" font-family="Arial" font-size="19.00" fill="#444444">[Filesystem]</text>
</g>
<!-- 29&#45;&gt;28 -->
<g id="120" class="edge">
<title>29&#45;&gt;28</title>
<path fill="none" stroke="#444444" stroke-dasharray="5,2" d="M2937.95,-1552.49C2960.99,-1535 2983.39,-1516.72 3004,-1498 3022.71,-1481.01 3018.05,-1466.51 3040,-1454 3098.92,-1420.41 3256.11,-1398.16 3389.7,-1384.72"/>
<polygon fill="#444444" stroke="#444444" points="3390.08,-1388.2 3399.68,-1383.73 3389.39,-1381.24 3390.08,-1388.2"/>
<polygon fill="white" stroke="transparent" points="3075.5,-1454 3075.5,-1540 3328.5,-1540 3328.5,-1454 3075.5,-1454"/>
<text text-anchor="start" x="3080" y="-1516.8" font-family="Arial" font-size="24.00" fill="#444444">Resolves, deletes, and</text>
<text text-anchor="start" x="3088" y="-1490.8" font-family="Arial" font-size="24.00" fill="#444444">inventories contained</text>
<text text-anchor="start" x="3128.5" y="-1464.8" font-family="Arial" font-size="24.00" fill="#444444">bytes through</text>
</g>
<!-- 29&#45;&gt;37 -->
<g id="119" class="edge">
<title>29&#45;&gt;37</title>
<path fill="none" stroke="#444444" stroke-dasharray="5,2" d="M3004.45,-1797.18C3164.27,-1843.34 3331.36,-1894.61 3364,-1916 3376.22,-1924.01 3388.16,-1932.81 3399.79,-1942.21"/>
<polygon fill="#444444" stroke="#444444" points="3397.85,-1945.14 3407.79,-1948.8 3402.3,-1939.74 3397.85,-1945.14"/>
<polygon fill="white" stroke="transparent" points="3040,-1916 3040,-1991 3364,-1991 3364,-1916 3040,-1916"/>
<text text-anchor="start" x="3044" y="-1968.3" font-family="Arial" font-size="24.00" fill="#444444">Reads and advances durable</text>
<text text-anchor="start" x="3076" y="-1944.3" font-family="Arial" font-size="24.00" fill="#444444">blob lifecycle records in</text>
<text text-anchor="start" x="3168.5" y="-1924.3" font-family="Arial" font-size="19.00" fill="#444444">[sqlite3]</text>
</g>
</g>
</svg>
