<?xml version="1.0" encoding="UTF-8" standalone="no"?>
<!DOCTYPE svg PUBLIC "-//W3C//DTD SVG 1.1//EN"
 "http://www.w3.org/Graphics/SVG/1.1/DTD/svg11.dtd">
<!-- Generated by graphviz version 2.43.0 (0)
 -->
<!-- Title: %3 Pages: 1 -->
<svg width="1965pt" height="1777pt"
 viewBox="0.00 0.00 1964.50 1776.75" xmlns="http://www.w3.org/2000/svg" xmlns:xlink="http://www.w3.org/1999/xlink">
<g id="graph0" class="graph" transform="scale(1 1) rotate(0) translate(4 1772.75)">
<title>%3</title>
<polygon fill="white" stroke="transparent" points="-4,4 -4,-1772.75 1960.5,-1772.75 1960.5,4 -4,4"/>
<text text-anchor="start" x="655.75" y="-11.8" font-family="Arial" font-size="34.00">Container View: Browser Memory Daemon</text>
<g id="clust1" class="cluster">
<title>cluster_4</title>
<polygon fill="none" stroke="#444444" points="8,-64 8,-1760.75 1528,-1760.75 1528,-64 8,-64"/>
<text text-anchor="start" x="627" y="-92.8" font-family="Arial" font-size="24.00" fill="#444444">Browser Memory Daemon</text>
<text text-anchor="start" x="691" y="-72.8" font-family="Arial" font-size="19.00" fill="#444444">[Software System]</text>
</g>
<!-- 3 -->
<g id="3" class="node">
<title>3</title>
<polygon fill="#999999" stroke="#6b6b6b" points="1956.5,-1212.06 1553.5,-1212.06 1553.5,-947.06 1956.5,-947.06 1956.5,-1212.06"/>
<text text-anchor="start" x="1593.5" y="-1163.86" font-family="Arial" font-size="34.00" fill="#ffffff">Web Sites and Media</text>
<text text-anchor="start" x="1701" y="-1129.86" font-family="Arial" font-size="34.00" fill="#ffffff">Origins</text>
<text text-anchor="start" x="1678" y="-1107.86" font-family="Arial" font-size="19.00" fill="#ffffff">[Software System]</text>
<text text-anchor="start" x="1645" y="-1070.86" font-family="Arial" font-size="24.00" fill="#ffffff">External web pages,</text>
<text text-anchor="start" x="1592.5" y="-1046.86" font-family="Arial" font-size="24.00" fill="#ffffff">image/video URLs, and media</text>
<text text-anchor="start" x="1582.5" y="-1022.86" font-family="Arial" font-size="24.00" fill="#ffffff">CDNs that Chrome loads or that</text>
<text text-anchor="start" x="1592.5" y="-998.86" font-family="Arial" font-size="24.00" fill="#ffffff">sidecars fetch as page&#45;related</text>
<text text-anchor="start" x="1718.5" y="-974.86" font-family="Arial" font-size="24.00" fill="#ffffff">media.</text>
</g>
<!-- 13 -->
<g id="13" class="node">
<title>13</title>
<path fill="#2f95c8" stroke="#20688c" d="M594.5,-1228.78C594.5,-1247.08 492.98,-1261.94 368,-1261.94 243.02,-1261.94 141.5,-1247.08 141.5,-1228.78 141.5,-1228.78 141.5,-930.35 141.5,-930.35 141.5,-912.05 243.02,-897.19 368,-897.19 492.98,-897.19 594.5,-912.05 594.5,-930.35 594.5,-930.35 594.5,-1228.78 594.5,-1228.78"/>
<path fill="none" stroke="#20688c" d="M594.5,-1228.78C594.5,-1210.48 492.98,-1195.62 368,-1195.62 243.02,-1195.62 141.5,-1210.48 141.5,-1228.78"/>
<text text-anchor="start" x="226" y="-1163.86" font-family="Arial" font-size="34.00" fill="#ffffff">Extension Browser</text>
<text text-anchor="start" x="308.5" y="-1129.86" font-family="Arial" font-size="34.00" fill="#ffffff">Storage</text>
<text text-anchor="start" x="170.5" y="-1107.86" font-family="Arial" font-size="19.00" fill="#ffffff">[Container: chrome.storage.local + IndexedDB]</text>
<text text-anchor="start" x="235.5" y="-1070.86" font-family="Arial" font-size="24.00" fill="#ffffff">Browser&#45;side storage for</text>
<text text-anchor="start" x="223.5" y="-1046.86" font-family="Arial" font-size="24.00" fill="#ffffff">capture and visit queues in</text>
<text text-anchor="start" x="229.5" y="-1022.86" font-family="Arial" font-size="24.00" fill="#ffffff">chrome.storage.local plus</text>
<text text-anchor="start" x="235.5" y="-998.86" font-family="Arial" font-size="24.00" fill="#ffffff">durable media tasks and</text>
<text text-anchor="start" x="216.5" y="-974.86" font-family="Arial" font-size="24.00" fill="#ffffff">fetched blobs in IndexedDB.</text>
</g>
<!-- 14 -->
<g id="14" class="node">
<title>14</title>
<polygon fill="#438dd5" stroke="#2e6295" points="1129,-1248.06 667,-1248.06 667,-911.06 1129,-911.06 1129,-1248.06"/>
<text text-anchor="start" x="733.5" y="-1199.86" font-family="Arial" font-size="34.00" fill="#ffffff">WSL Loopback HTTP</text>
<text text-anchor="start" x="833.5" y="-1165.86" font-family="Arial" font-size="34.00" fill="#ffffff">Daemon</text>
<text text-anchor="start" x="696" y="-1143.86" font-family="Arial" font-size="19.00" fill="#ffffff">[Container: Python 3.11, ThreadingHTTPServer]</text>
<text text-anchor="start" x="737" y="-1106.86" font-family="Arial" font-size="24.00" fill="#ffffff">Authenticated loopback HTTP</text>
<text text-anchor="start" x="762" y="-1082.86" font-family="Arial" font-size="24.00" fill="#ffffff">API that handles capture,</text>
<text text-anchor="start" x="758.5" y="-1058.86" font-family="Arial" font-size="24.00" fill="#ffffff">visit events, media artifact</text>
<text text-anchor="start" x="761.5" y="-1034.86" font-family="Arial" font-size="24.00" fill="#ffffff">upload/fetch/purge, exact</text>
<text text-anchor="start" x="858" y="-1010.86" font-family="Arial" font-size="24.00" fill="#ffffff">search,</text>
<text text-anchor="start" x="749" y="-986.86" font-family="Arial" font-size="24.00" fill="#ffffff">recent/timeline/detail, policy</text>
<text text-anchor="start" x="746.5" y="-962.86" font-family="Arial" font-size="24.00" fill="#ffffff">rules, doctor, durable forget,</text>
<text text-anchor="start" x="785" y="-938.86" font-family="Arial" font-size="24.00" fill="#ffffff">and static UI serving.</text>
</g>
<!-- 30 -->
<g id="30" class="node">
<title>30</title>
<path fill="#2f95c8" stroke="#20688c" d="M428.5,-675.4C428.5,-703.63 339.98,-726.56 231,-726.56 122.02,-726.56 33.5,-703.63 33.5,-675.4 33.5,-675.4 33.5,-214.97 33.5,-214.97 33.5,-186.74 122.02,-163.81 231,-163.81 339.98,-163.81 428.5,-186.74 428.5,-214.97 428.5,-214.97 428.5,-675.4 428.5,-675.4"/>
<path fill="none" stroke="#20688c" d="M428.5,-675.4C428.5,-647.17 339.98,-624.24 231,-624.24 122.02,-624.24 33.5,-647.17 33.5,-675.4"/>
<text text-anchor="start" x="118" y="-601.49" font-family="Arial" font-size="34.00" fill="#ffffff">SQLite + FTS5</text>
<text text-anchor="start" x="158" y="-567.49" font-family="Arial" font-size="34.00" fill="#ffffff">Database</text>
<text text-anchor="start" x="105" y="-545.49" font-family="Arial" font-size="19.00" fill="#ffffff">[Container: SQLite with FTS5]</text>
<text text-anchor="start" x="63" y="-508.49" font-family="Arial" font-size="24.00" fill="#ffffff">Durable complete cleaned&#45;text,</text>
<text text-anchor="start" x="112" y="-484.49" font-family="Arial" font-size="24.00" fill="#ffffff">relational, and full&#45;text</text>
<text text-anchor="start" x="113.5" y="-460.49" font-family="Arial" font-size="24.00" fill="#ffffff">authority for migration</text>
<text text-anchor="start" x="79" y="-436.49" font-family="Arial" font-size="24.00" fill="#ffffff">ledger, sources, documents,</text>
<text text-anchor="start" x="81.5" y="-412.49" font-family="Arial" font-size="24.00" fill="#ffffff">visits, capture observations,</text>
<text text-anchor="start" x="100" y="-388.49" font-family="Arial" font-size="24.00" fill="#ffffff">URL claims, visit events,</text>
<text text-anchor="start" x="62.5" y="-364.49" font-family="Arial" font-size="24.00" fill="#ffffff">snapshots, chunks, chunks_fts,</text>
<text text-anchor="start" x="70" y="-340.49" font-family="Arial" font-size="24.00" fill="#ffffff">media provenance/tasks, blob</text>
<text text-anchor="start" x="106.5" y="-316.49" font-family="Arial" font-size="24.00" fill="#ffffff">lifecycle records, policy</text>
<text text-anchor="start" x="105.5" y="-292.49" font-family="Arial" font-size="24.00" fill="#ffffff">rules, audit events, and</text>
<text text-anchor="start" x="139" y="-268.49" font-family="Arial" font-size="24.00" fill="#ffffff">deletion receipts.</text>
</g>
<!-- 14&#45;&gt;30 -->
<g id="49" class="edge">
<title>14&#45;&gt;30</title>
<path fill="none" stroke="#444444" stroke-dasharray="5,2" d="M666.76,-914.75C654.55,-908.48 642.26,-902.63 630,-897.38 561.42,-867.95 526.04,-905.7 466,-861.38 420.43,-827.73 382.43,-782.43 351.21,-734.1"/>
<polygon fill="#444444" stroke="#444444" points="353.98,-731.93 345.67,-725.36 348.07,-735.68 353.98,-731.93"/>
<polygon fill="white" stroke="transparent" points="466,-762.38 466,-861.38 776,-861.38 776,-762.38 466,-762.38"/>
<text text-anchor="start" x="470" y="-838.67" font-family="Arial" font-size="24.00" fill="#444444">Reads and writes metadata,</text>
<text text-anchor="start" x="503" y="-814.67" font-family="Arial" font-size="24.00" fill="#444444">FTS, tasks, audit, and</text>
<text text-anchor="start" x="565.5" y="-790.67" font-family="Arial" font-size="24.00" fill="#444444">receipts in</text>
<text text-anchor="start" x="587.5" y="-770.67" font-family="Arial" font-size="19.00" fill="#444444">[sqlite3]</text>
</g>
<!-- 32 -->
<g id="32" class="node">
<title>32</title>
<path fill="#2f95c8" stroke="#20688c" d="M1045,-621.4C1045,-643.01 923.09,-660.56 773,-660.56 622.91,-660.56 501,-643.01 501,-621.4 501,-621.4 501,-268.97 501,-268.97 501,-247.36 622.91,-229.81 773,-229.81 923.09,-229.81 1045,-247.36 1045,-268.97 1045,-268.97 1045,-621.4 1045,-621.4"/>
<path fill="none" stroke="#20688c" d="M1045,-621.4C1045,-599.8 923.09,-582.24 773,-582.24 622.91,-582.24 501,-599.8 501,-621.4"/>
<text text-anchor="start" x="617.5" y="-553.49" font-family="Arial" font-size="34.00" fill="#ffffff">Guarded Media Blob</text>
<text text-anchor="start" x="723.5" y="-519.49" font-family="Arial" font-size="34.00" fill="#ffffff">Cache</text>
<text text-anchor="start" x="530" y="-497.49" font-family="Arial" font-size="19.00" fill="#ffffff">[Container: WSL&#45;visible local or NAS&#45;mounted filesystem]</text>
<text text-anchor="start" x="663" y="-460.49" font-family="Arial" font-size="24.00" fill="#ffffff">Bounded disposable</text>
<text text-anchor="start" x="607.5" y="-436.49" font-family="Arial" font-size="24.00" fill="#ffffff">image/video/audio bytes under</text>
<text text-anchor="start" x="631.5" y="-412.49" font-family="Arial" font-size="24.00" fill="#ffffff">the configured media root;</text>
<text text-anchor="start" x="659" y="-388.49" font-family="Arial" font-size="24.00" fill="#ffffff">explicit external roots</text>
<text text-anchor="start" x="674" y="-364.49" font-family="Arial" font-size="24.00" fill="#ffffff">require mount and</text>
<text text-anchor="start" x="623.5" y="-340.49" font-family="Arial" font-size="24.00" fill="#ffffff">identity&#45;marker proof before</text>
<text text-anchor="start" x="732" y="-316.49" font-family="Arial" font-size="24.00" fill="#ffffff">access.</text>
</g>
<!-- 14&#45;&gt;32 -->
<g id="51" class="edge">
<title>14&#45;&gt;32</title>
<path fill="none" stroke="#444444" stroke-dasharray="5,2" d="M825.32,-910.87C819.84,-894.34 814.92,-877.67 811,-861.38 796.29,-800.25 787.19,-732.81 781.58,-670.38"/>
<polygon fill="#444444" stroke="#444444" points="785.07,-670.06 780.71,-660.41 778.1,-670.67 785.07,-670.06"/>
<polygon fill="white" stroke="transparent" points="811,-762.38 811,-861.38 1119,-861.38 1119,-762.38 811,-762.38"/>
<text text-anchor="start" x="840" y="-838.67" font-family="Arial" font-size="24.00" fill="#444444">Stores, serves, purges,</text>
<text text-anchor="start" x="815" y="-814.67" font-family="Arial" font-size="24.00" fill="#444444">and rehydrates media blobs</text>
<text text-anchor="start" x="955.5" y="-790.67" font-family="Arial" font-size="24.00" fill="#444444">in</text>
<text text-anchor="start" x="913.5" y="-770.67" font-family="Arial" font-size="19.00" fill="#444444">[Filesystem]</text>
</g>
<!-- 33 -->
<g id="33" class="node">
<title>33</title>
<path fill="#2f95c8" stroke="#20688c" d="M1503,-634.9C1503,-658.17 1416.49,-677.06 1310,-677.06 1203.51,-677.06 1117,-658.17 1117,-634.9 1117,-634.9 1117,-255.47 1117,-255.47 1117,-232.21 1203.51,-213.31 1310,-213.31 1416.49,-213.31 1503,-232.21 1503,-255.47 1503,-255.47 1503,-634.9 1503,-634.9"/>
<path fill="none" stroke="#20688c" d="M1503,-634.9C1503,-611.64 1416.49,-592.74 1310,-592.74 1203.51,-592.74 1117,-611.64 1117,-634.9"/>
<text text-anchor="start" x="1146" y="-565.49" font-family="Arial" font-size="34.00" fill="#ffffff">Bounded Local Media</text>
<text text-anchor="start" x="1266.5" y="-531.49" font-family="Arial" font-size="34.00" fill="#ffffff">Spool</text>
<text text-anchor="start" x="1170" y="-509.49" font-family="Arial" font-size="19.00" fill="#ffffff">[Container: WSL local filesystem]</text>
<text text-anchor="start" x="1158" y="-472.49" font-family="Arial" font-size="24.00" fill="#ffffff">Opt&#45;in durable outage buffer</text>
<text text-anchor="start" x="1161.5" y="-448.49" font-family="Arial" font-size="24.00" fill="#ffffff">beneath the local WSL data</text>
<text text-anchor="start" x="1188.5" y="-424.49" font-family="Arial" font-size="24.00" fill="#ffffff">root; admission counts</text>
<text text-anchor="start" x="1164.5" y="-400.49" font-family="Arial" font-size="24.00" fill="#ffffff">committed files and distinct</text>
<text text-anchor="start" x="1158" y="-376.49" font-family="Arial" font-size="24.00" fill="#ffffff">in&#45;flight SQLite reservations,</text>
<text text-anchor="start" x="1185" y="-352.49" font-family="Arial" font-size="24.00" fill="#ffffff">and drain verifies bytes</text>
<text text-anchor="start" x="1162.5" y="-328.49" font-family="Arial" font-size="24.00" fill="#ffffff">before tier transition/source</text>
<text text-anchor="start" x="1264" y="-304.49" font-family="Arial" font-size="24.00" fill="#ffffff">cleanup.</text>
</g>
<!-- 14&#45;&gt;33 -->
<g id="52" class="edge">
<title>14&#45;&gt;33</title>
<path fill="none" stroke="#444444" stroke-dasharray="5,2" d="M1093.41,-910.89C1107.65,-894.88 1121.08,-878.29 1133,-861.38 1170.41,-808.29 1202.14,-746.07 1227.96,-686.19"/>
<polygon fill="#444444" stroke="#444444" points="1231.18,-687.56 1231.89,-676.99 1224.74,-684.81 1231.18,-687.56"/>
<polygon fill="white" stroke="transparent" points="1190,-762.38 1190,-861.38 1466,-861.38 1466,-762.38 1190,-762.38"/>
<text text-anchor="start" x="1194" y="-838.67" font-family="Arial" font-size="24.00" fill="#444444">Stores and serves media</text>
<text text-anchor="start" x="1221" y="-814.67" font-family="Arial" font-size="24.00" fill="#444444">during guarded&#45;root</text>
<text text-anchor="start" x="1272" y="-790.67" font-family="Arial" font-size="24.00" fill="#444444">outages in</text>
<text text-anchor="start" x="1276.5" y="-770.67" font-family="Arial" font-size="19.00" fill="#444444">[Filesystem]</text>
</g>
<!-- 5 -->
<g id="5" class="node">
<title>5</title>
<polygon fill="#438dd5" stroke="#2e6295" points="1115,-1735.75 681,-1735.75 681,-1456.75 1115,-1456.75 1115,-1735.75"/>
<text text-anchor="start" x="718" y="-1687.55" font-family="Arial" font-size="34.00" fill="#ffffff">Chrome MV3 Extension</text>
<text text-anchor="start" x="710" y="-1665.55" font-family="Arial" font-size="19.00" fill="#ffffff">[Container: JavaScript, Chrome Manifest V3]</text>
<text text-anchor="start" x="755" y="-1628.55" font-family="Arial" font-size="24.00" fill="#ffffff">Captures visible page text,</text>
<text text-anchor="start" x="780.5" y="-1604.55" font-family="Arial" font-size="24.00" fill="#ffffff">media references, tab</text>
<text text-anchor="start" x="789" y="-1580.55" font-family="Arial" font-size="24.00" fill="#ffffff">lifecycle events, and</text>
<text text-anchor="start" x="732" y="-1556.55" font-family="Arial" font-size="24.00" fill="#ffffff">browser&#45;side media bytes from</text>
<text text-anchor="start" x="727" y="-1532.55" font-family="Arial" font-size="24.00" fill="#ffffff">Windows Chrome; queues work</text>
<text text-anchor="start" x="739" y="-1508.55" font-family="Arial" font-size="24.00" fill="#ffffff">durably and posts to the WSL</text>
<text text-anchor="start" x="850.5" y="-1484.55" font-family="Arial" font-size="24.00" fill="#ffffff">daemon.</text>
</g>
<!-- 5&#45;&gt;3 -->
<g id="40" class="edge">
<title>5&#45;&gt;3</title>
<path fill="none" stroke="#444444" stroke-dasharray="5,2" d="M1115.07,-1544.98C1210.28,-1517.12 1320.69,-1476.6 1411,-1420.75 1497.5,-1367.26 1579.13,-1288.26 1641.15,-1219.85"/>
<polygon fill="#444444" stroke="#444444" points="1643.76,-1222.19 1647.85,-1212.42 1638.56,-1217.5 1643.76,-1222.19"/>
<polygon fill="white" stroke="transparent" points="1556,-1309.75 1556,-1408.75 1847,-1408.75 1847,-1309.75 1556,-1309.75"/>
<text text-anchor="start" x="1579.5" y="-1386.05" font-family="Arial" font-size="24.00" fill="#444444">Extracts DOM refs and</text>
<text text-anchor="start" x="1619" y="-1362.05" font-family="Arial" font-size="24.00" fill="#444444">fetches queued</text>
<text text-anchor="start" x="1571.5" y="-1338.05" font-family="Arial" font-size="24.00" fill="#444444">credentialed media from</text>
<text text-anchor="start" x="1560.5" y="-1318.05" font-family="Arial" font-size="19.00" fill="#444444">[DOM; fetch(credentials: include)]</text>
</g>
<!-- 5&#45;&gt;13 -->
<g id="41" class="edge">
<title>5&#45;&gt;13</title>
<path fill="none" stroke="#444444" stroke-dasharray="5,2" d="M680.75,-1502.01C640.88,-1479.02 601.61,-1451.9 569,-1420.75 524.47,-1378.23 486.46,-1323.7 455.87,-1270.82"/>
<polygon fill="#444444" stroke="#444444" points="458.83,-1268.95 450.83,-1262.01 452.76,-1272.43 458.83,-1268.95"/>
<polygon fill="white" stroke="transparent" points="569,-1297.75 569,-1420.75 880,-1420.75 880,-1297.75 569,-1297.75"/>
<text text-anchor="start" x="582.5" y="-1398.05" font-family="Arial" font-size="24.00" fill="#444444">Queues identity&#45;decorated</text>
<text text-anchor="start" x="628.5" y="-1374.05" font-family="Arial" font-size="24.00" fill="#444444">captures, lifecycle</text>
<text text-anchor="start" x="591" y="-1350.05" font-family="Arial" font-size="24.00" fill="#444444">events, media tasks, and</text>
<text text-anchor="start" x="683" y="-1326.05" font-family="Arial" font-size="24.00" fill="#444444">blobs in</text>
<text text-anchor="start" x="573.5" y="-1306.05" font-family="Arial" font-size="19.00" fill="#444444">[chrome.storage.local + IndexedDB]</text>
</g>
<!-- 5&#45;&gt;14 -->
<g id="42" class="edge">
<title>5&#45;&gt;14</title>
<path fill="none" stroke="#444444" stroke-dasharray="5,2" d="M898,-1456.65C898,-1395.74 898,-1323.47 898,-1258.64"/>
<polygon fill="#444444" stroke="#444444" points="901.5,-1258.3 898,-1248.3 894.5,-1258.3 901.5,-1258.3"/>
<polygon fill="white" stroke="transparent" points="898,-1297.75 898,-1420.75 1393,-1420.75 1393,-1297.75 898,-1297.75"/>
<text text-anchor="start" x="1065" y="-1398.05" font-family="Arial" font-size="24.00" fill="#444444">Posts /capture,</text>
<text text-anchor="start" x="1042" y="-1374.05" font-family="Arial" font-size="24.00" fill="#444444">/visit&#45;events, media</text>
<text text-anchor="start" x="1019" y="-1350.05" font-family="Arial" font-size="24.00" fill="#444444">metadata, and raw blob</text>
<text text-anchor="start" x="1090" y="-1326.05" font-family="Arial" font-size="24.00" fill="#444444">uploads to</text>
<text text-anchor="start" x="902.5" y="-1306.05" font-family="Arial" font-size="19.00" fill="#444444">[Bearer HTTP/JSON; raw HTTP PUT over 127.0.0.1:8765]</text>
</g>
</g>
</svg>
