<?xml version="1.0" encoding="UTF-8" standalone="no"?>
<!DOCTYPE svg PUBLIC "-//W3C//DTD SVG 1.1//EN"
 "http://www.w3.org/Graphics/SVG/1.1/DTD/svg11.dtd">
<!-- Generated by graphviz version 2.43.0 (0)
 -->
<!-- Title: %3 Pages: 1 -->
<svg width="1571pt" height="1990pt"
 viewBox="0.00 0.00 1571.00 1989.75" xmlns="http://www.w3.org/2000/svg" xmlns:xlink="http://www.w3.org/1999/xlink">
<g id="graph0" class="graph" transform="scale(1 1) rotate(0) translate(4 1985.75)">
<title>%3</title>
<polygon fill="white" stroke="transparent" points="-4,4 -4,-1985.75 1567,-1985.75 1567,4 -4,4"/>
<text text-anchor="start" x="459" y="-11.8" font-family="Arial" font-size="34.00">Container View: Browser Memory Daemon</text>
<g id="clust1" class="cluster">
<title>cluster_4</title>
<polygon fill="none" stroke="#444444" points="8,-64 8,-1973.75 1045,-1973.75 1045,-64 8,-64"/>
<text text-anchor="start" x="385.5" y="-92.8" font-family="Arial" font-size="24.00" fill="#444444">Browser Memory Daemon</text>
<text text-anchor="start" x="449.5" y="-72.8" font-family="Arial" font-size="19.00" fill="#444444">[Software System]</text>
</g>
<!-- 2 -->
<g id="2" class="node">
<title>2</title>
<polygon fill="#999999" stroke="#6b6b6b" points="1478,-1277.56 1092,-1277.56 1092,-1046.56 1478,-1046.56 1478,-1277.56"/>
<text text-anchor="start" x="1150.5" y="-1229.36" font-family="Arial" font-size="34.00" fill="#ffffff">Windows Chrome</text>
<text text-anchor="start" x="1208" y="-1207.36" font-family="Arial" font-size="19.00" fill="#ffffff">[Software System]</text>
<text text-anchor="start" x="1121" y="-1170.36" font-family="Arial" font-size="24.00" fill="#ffffff">The Windows Chrome runtime</text>
<text text-anchor="start" x="1134.5" y="-1146.36" font-family="Arial" font-size="24.00" fill="#ffffff">that loads web pages, hosts</text>
<text text-anchor="start" x="1134" y="-1122.36" font-family="Arial" font-size="24.00" fill="#ffffff">the MV3 extension, runs the</text>
<text text-anchor="start" x="1126" y="-1098.36" font-family="Arial" font-size="24.00" fill="#ffffff">local UI in a tab, and exposes</text>
<text text-anchor="start" x="1155.5" y="-1074.36" font-family="Arial" font-size="24.00" fill="#ffffff">Chrome extension APIs.</text>
</g>
<!-- 14 -->
<g id="14" class="node">
<title>14</title>
<path fill="#2f95c8" stroke="#20688c" d="M485.5,-1378.78C485.5,-1405.35 383.98,-1426.94 259,-1426.94 134.02,-1426.94 32.5,-1405.35 32.5,-1378.78 32.5,-1378.78 32.5,-945.35 32.5,-945.35 32.5,-918.77 134.02,-897.19 259,-897.19 383.98,-897.19 485.5,-918.77 485.5,-945.35 485.5,-945.35 485.5,-1378.78 485.5,-1378.78"/>
<path fill="none" stroke="#20688c" d="M485.5,-1378.78C485.5,-1352.21 383.98,-1330.62 259,-1330.62 134.02,-1330.62 32.5,-1352.21 32.5,-1378.78"/>
<text text-anchor="start" x="117" y="-1306.36" font-family="Arial" font-size="34.00" fill="#ffffff">Extension Browser</text>
<text text-anchor="start" x="199.5" y="-1272.36" font-family="Arial" font-size="34.00" fill="#ffffff">Storage</text>
<text text-anchor="start" x="61.5" y="-1250.36" font-family="Arial" font-size="19.00" fill="#ffffff">[Container: chrome.storage.local + IndexedDB]</text>
<text text-anchor="start" x="81.5" y="-1213.36" font-family="Arial" font-size="24.00" fill="#ffffff">Browser&#45;side IndexedDB storage</text>
<text text-anchor="start" x="172.5" y="-1189.36" font-family="Arial" font-size="24.00" fill="#ffffff">for transactional</text>
<text text-anchor="start" x="103.5" y="-1165.36" font-family="Arial" font-size="24.00" fill="#ffffff">capture/lifecycle outbox rows</text>
<text text-anchor="start" x="93.5" y="-1141.36" font-family="Arial" font-size="24.00" fill="#ffffff">plus specialized durable media</text>
<text text-anchor="start" x="195" y="-1117.36" font-family="Arial" font-size="24.00" fill="#ffffff">tasks/blobs;</text>
<text text-anchor="start" x="106.5" y="-1093.36" font-family="Arial" font-size="24.00" fill="#ffffff">chrome.storage.local retains</text>
<text text-anchor="start" x="107" y="-1069.36" font-family="Arial" font-size="24.00" fill="#ffffff">typed configuration, lifecycle</text>
<text text-anchor="start" x="150.5" y="-1045.36" font-family="Arial" font-size="24.00" fill="#ffffff">tab state, aggregate</text>
<text text-anchor="start" x="116" y="-1021.36" font-family="Arial" font-size="24.00" fill="#ffffff">telemetry, and one&#45;version</text>
<text text-anchor="start" x="152.5" y="-997.36" font-family="Arial" font-size="24.00" fill="#ffffff">queue fallback only.</text>
</g>
<!-- 15 -->
<g id="15" class="node">
<title>15</title>
<polygon fill="#438dd5" stroke="#2e6295" points="1020,-1330.56 558,-1330.56 558,-993.56 1020,-993.56 1020,-1330.56"/>
<text text-anchor="start" x="624.5" y="-1282.36" font-family="Arial" font-size="34.00" fill="#ffffff">WSL Loopback HTTP</text>
<text text-anchor="start" x="724.5" y="-1248.36" font-family="Arial" font-size="34.00" fill="#ffffff">Daemon</text>
<text text-anchor="start" x="587" y="-1226.36" font-family="Arial" font-size="19.00" fill="#ffffff">[Container: Python 3.11, ThreadingHTTPServer]</text>
<text text-anchor="start" x="628" y="-1189.36" font-family="Arial" font-size="24.00" fill="#ffffff">Authenticated loopback HTTP</text>
<text text-anchor="start" x="653" y="-1165.36" font-family="Arial" font-size="24.00" fill="#ffffff">API that handles capture,</text>
<text text-anchor="start" x="649.5" y="-1141.36" font-family="Arial" font-size="24.00" fill="#ffffff">visit events, media artifact</text>
<text text-anchor="start" x="652.5" y="-1117.36" font-family="Arial" font-size="24.00" fill="#ffffff">upload/fetch/purge, exact</text>
<text text-anchor="start" x="749" y="-1093.36" font-family="Arial" font-size="24.00" fill="#ffffff">search,</text>
<text text-anchor="start" x="640" y="-1069.36" font-family="Arial" font-size="24.00" fill="#ffffff">recent/timeline/detail, policy</text>
<text text-anchor="start" x="637.5" y="-1045.36" font-family="Arial" font-size="24.00" fill="#ffffff">rules, doctor, durable forget,</text>
<text text-anchor="start" x="676" y="-1021.36" font-family="Arial" font-size="24.00" fill="#ffffff">and static UI serving.</text>
</g>
<!-- 40 -->
<g id="40" class="node">
<title>40</title>
<path fill="#2f95c8" stroke="#20688c" d="M517.5,-675.4C517.5,-703.63 428.98,-726.56 320,-726.56 211.02,-726.56 122.5,-703.63 122.5,-675.4 122.5,-675.4 122.5,-214.97 122.5,-214.97 122.5,-186.74 211.02,-163.81 320,-163.81 428.98,-163.81 517.5,-186.74 517.5,-214.97 517.5,-214.97 517.5,-675.4 517.5,-675.4"/>
<path fill="none" stroke="#20688c" d="M517.5,-675.4C517.5,-647.17 428.98,-624.24 320,-624.24 211.02,-624.24 122.5,-647.17 122.5,-675.4"/>
<text text-anchor="start" x="207" y="-601.49" font-family="Arial" font-size="34.00" fill="#ffffff">SQLite + FTS5</text>
<text text-anchor="start" x="247" y="-567.49" font-family="Arial" font-size="34.00" fill="#ffffff">Database</text>
<text text-anchor="start" x="194" y="-545.49" font-family="Arial" font-size="19.00" fill="#ffffff">[Container: SQLite with FTS5]</text>
<text text-anchor="start" x="152" y="-508.49" font-family="Arial" font-size="24.00" fill="#ffffff">Durable complete cleaned&#45;text,</text>
<text text-anchor="start" x="201" y="-484.49" font-family="Arial" font-size="24.00" fill="#ffffff">relational, and full&#45;text</text>
<text text-anchor="start" x="202.5" y="-460.49" font-family="Arial" font-size="24.00" fill="#ffffff">authority for migration</text>
<text text-anchor="start" x="168" y="-436.49" font-family="Arial" font-size="24.00" fill="#ffffff">ledger, sources, documents,</text>
<text text-anchor="start" x="170.5" y="-412.49" font-family="Arial" font-size="24.00" fill="#ffffff">visits, capture observations,</text>
<text text-anchor="start" x="189" y="-388.49" font-family="Arial" font-size="24.00" fill="#ffffff">URL claims, visit events,</text>
<text text-anchor="start" x="151.5" y="-364.49" font-family="Arial" font-size="24.00" fill="#ffffff">snapshots, chunks, chunks_fts,</text>
<text text-anchor="start" x="159" y="-340.49" font-family="Arial" font-size="24.00" fill="#ffffff">media provenance/tasks, blob</text>
<text text-anchor="start" x="195.5" y="-316.49" font-family="Arial" font-size="24.00" fill="#ffffff">lifecycle records, policy</text>
<text text-anchor="start" x="194.5" y="-292.49" font-family="Arial" font-size="24.00" fill="#ffffff">rules, audit events, and</text>
<text text-anchor="start" x="228" y="-268.49" font-family="Arial" font-size="24.00" fill="#ffffff">deletion receipts.</text>
</g>
<!-- 15&#45;&gt;40 -->
<g id="62" class="edge">
<title>15&#45;&gt;40</title>
<path fill="none" stroke="#444444" stroke-dasharray="5,2" d="M631.15,-993.29C596.29,-959.86 558.52,-926.21 521,-897.38 496.04,-878.19 479.83,-885.82 460,-861.38 430.02,-824.41 406.33,-780.72 387.65,-735.79"/>
<polygon fill="#444444" stroke="#444444" points="390.88,-734.43 383.86,-726.49 384.4,-737.07 390.88,-734.43"/>
<polygon fill="white" stroke="transparent" points="460,-762.38 460,-861.38 770,-861.38 770,-762.38 460,-762.38"/>
<text text-anchor="start" x="464" y="-838.67" font-family="Arial" font-size="24.00" fill="#444444">Reads and writes metadata,</text>
<text text-anchor="start" x="497" y="-814.67" font-family="Arial" font-size="24.00" fill="#444444">FTS, tasks, audit, and</text>
<text text-anchor="start" x="559.5" y="-790.67" font-family="Arial" font-size="24.00" fill="#444444">receipts in</text>
<text text-anchor="start" x="581.5" y="-770.67" font-family="Arial" font-size="19.00" fill="#444444">[sqlite3]</text>
</g>
<!-- 41 -->
<g id="41" class="node">
<title>41</title>
<path fill="#2f95c8" stroke="#20688c" d="M984.5,-594.4C984.5,-612.7 895.98,-627.56 787,-627.56 678.02,-627.56 589.5,-612.7 589.5,-594.4 589.5,-594.4 589.5,-295.97 589.5,-295.97 589.5,-277.67 678.02,-262.81 787,-262.81 895.98,-262.81 984.5,-277.67 984.5,-295.97 984.5,-295.97 984.5,-594.4 984.5,-594.4"/>
<path fill="none" stroke="#20688c" d="M984.5,-594.4C984.5,-576.11 895.98,-561.24 787,-561.24 678.02,-561.24 589.5,-576.11 589.5,-594.4"/>
<text text-anchor="start" x="665.5" y="-529.49" font-family="Arial" font-size="34.00" fill="#ffffff">Local Derivative</text>
<text text-anchor="start" x="746" y="-495.49" font-family="Arial" font-size="34.00" fill="#ffffff">Store</text>
<text text-anchor="start" x="647" y="-473.49" font-family="Arial" font-size="19.00" fill="#ffffff">[Container: WSL local filesystem]</text>
<text text-anchor="start" x="633.5" y="-436.49" font-family="Arial" font-size="24.00" fill="#ffffff">Reconstructible compatibility</text>
<text text-anchor="start" x="618.5" y="-412.49" font-family="Arial" font-size="24.00" fill="#ffffff">evidence such as pre&#45;version&#45;9</text>
<text text-anchor="start" x="657" y="-388.49" font-family="Arial" font-size="24.00" fill="#ffffff">clean&#45;text sidecars; new</text>
<text text-anchor="start" x="663.5" y="-364.49" font-family="Arial" font-size="24.00" fill="#ffffff">captures create no text</text>
<text text-anchor="start" x="738.5" y="-340.49" font-family="Arial" font-size="24.00" fill="#ffffff">sidecars.</text>
</g>
<!-- 15&#45;&gt;41 -->
<g id="63" class="edge">
<title>15&#45;&gt;41</title>
<path fill="none" stroke="#444444" stroke-dasharray="5,2" d="M788.53,-993.46C788.23,-886.9 787.85,-748.65 787.54,-637.76"/>
<polygon fill="#444444" stroke="#444444" points="791.04,-637.45 787.51,-627.46 784.04,-637.46 791.04,-637.45"/>
<polygon fill="white" stroke="transparent" points="789,-762.38 789,-861.38 1057,-861.38 1057,-762.38 789,-762.38"/>
<text text-anchor="start" x="793" y="-838.67" font-family="Arial" font-size="24.00" fill="#444444">Reads or deletes legacy</text>
<text text-anchor="start" x="822.5" y="-814.67" font-family="Arial" font-size="24.00" fill="#444444">text sidecars when</text>
<text text-anchor="start" x="878" y="-790.67" font-family="Arial" font-size="24.00" fill="#444444">required</text>
<text text-anchor="start" x="871.5" y="-770.67" font-family="Arial" font-size="19.00" fill="#444444">[Filesystem]</text>
</g>
<!-- 5 -->
<g id="5" class="node">
<title>5</title>
<polygon fill="#438dd5" stroke="#2e6295" points="742,-1948.75 308,-1948.75 308,-1669.75 742,-1669.75 742,-1948.75"/>
<text text-anchor="start" x="345" y="-1900.55" font-family="Arial" font-size="34.00" fill="#ffffff">Chrome MV3 Extension</text>
<text text-anchor="start" x="337" y="-1878.55" font-family="Arial" font-size="19.00" fill="#ffffff">[Container: JavaScript, Chrome Manifest V3]</text>
<text text-anchor="start" x="382" y="-1841.55" font-family="Arial" font-size="24.00" fill="#ffffff">Captures visible page text,</text>
<text text-anchor="start" x="407.5" y="-1817.55" font-family="Arial" font-size="24.00" fill="#ffffff">media references, tab</text>
<text text-anchor="start" x="416" y="-1793.55" font-family="Arial" font-size="24.00" fill="#ffffff">lifecycle events, and</text>
<text text-anchor="start" x="359" y="-1769.55" font-family="Arial" font-size="24.00" fill="#ffffff">browser&#45;side media bytes from</text>
<text text-anchor="start" x="354" y="-1745.55" font-family="Arial" font-size="24.00" fill="#ffffff">Windows Chrome; queues work</text>
<text text-anchor="start" x="366" y="-1721.55" font-family="Arial" font-size="24.00" fill="#ffffff">durably and posts to the WSL</text>
<text text-anchor="start" x="477.5" y="-1697.55" font-family="Arial" font-size="24.00" fill="#ffffff">daemon.</text>
</g>
<!-- 5&#45;&gt;2 -->
<g id="50" class="edge">
<title>5&#45;&gt;2</title>
<path fill="none" stroke="#444444" stroke-dasharray="5,2" d="M742.18,-1774.9C907.86,-1745.09 1117.61,-1696.45 1178,-1633.75 1266.27,-1542.09 1287.47,-1393.56 1290.11,-1287.88"/>
<polygon fill="#444444" stroke="#444444" points="1293.61,-1287.85 1290.31,-1277.79 1286.61,-1287.71 1293.61,-1287.85"/>
<polygon fill="white" stroke="transparent" points="1266,-1498.75 1266,-1597.75 1563,-1597.75 1563,-1498.75 1266,-1498.75"/>
<text text-anchor="start" x="1312" y="-1575.05" font-family="Arial" font-size="24.00" fill="#444444">Uses tab, scripting,</text>
<text text-anchor="start" x="1270.5" y="-1551.05" font-family="Arial" font-size="24.00" fill="#444444">storage, alarms, debugger,</text>
<text text-anchor="start" x="1295" y="-1527.05" font-family="Arial" font-size="24.00" fill="#444444">and runtime APIs from</text>
<text text-anchor="start" x="1310" y="-1507.05" font-family="Arial" font-size="19.00" fill="#444444">[Chrome extension APIs]</text>
</g>
<!-- 5&#45;&gt;14 -->
<g id="52" class="edge">
<title>5&#45;&gt;14</title>
<path fill="none" stroke="#444444" stroke-dasharray="5,2" d="M307.78,-1679.34C295.1,-1665.33 283.91,-1650.14 275,-1633.75 242.84,-1574.55 229.72,-1504.7 226.72,-1437.19"/>
<polygon fill="#444444" stroke="#444444" points="230.21,-1436.68 226.34,-1426.81 223.21,-1436.93 230.21,-1436.68"/>
<polygon fill="white" stroke="transparent" points="275,-1462.75 275,-1633.75 586,-1633.75 586,-1462.75 275,-1462.75"/>
<text text-anchor="start" x="312" y="-1611.05" font-family="Arial" font-size="24.00" fill="#444444">Persists configuration,</text>
<text text-anchor="start" x="334.5" y="-1587.05" font-family="Arial" font-size="24.00" fill="#444444">lifecycle tab state,</text>
<text text-anchor="start" x="320" y="-1563.05" font-family="Arial" font-size="24.00" fill="#444444">aggregate telemetry,</text>
<text text-anchor="start" x="304.5" y="-1539.05" font-family="Arial" font-size="24.00" fill="#444444">capture/lifecycle outbox</text>
<text text-anchor="start" x="307" y="-1515.05" font-family="Arial" font-size="24.00" fill="#444444">rows, media tasks, and</text>
<text text-anchor="start" x="389" y="-1491.05" font-family="Arial" font-size="24.00" fill="#444444">blobs in</text>
<text text-anchor="start" x="279.5" y="-1471.05" font-family="Arial" font-size="19.00" fill="#444444">[chrome.storage.local + IndexedDB]</text>
</g>
<!-- 5&#45;&gt;15 -->
<g id="53" class="edge">
<title>5&#45;&gt;15</title>
<path fill="none" stroke="#444444" stroke-dasharray="5,2" d="M581.8,-1669.44C621.22,-1573.1 674.08,-1443.93 716.53,-1340.16"/>
<polygon fill="#444444" stroke="#444444" points="719.8,-1341.42 720.35,-1330.84 713.32,-1338.77 719.8,-1341.42"/>
<polygon fill="white" stroke="transparent" points="665,-1486.75 665,-1609.75 1160,-1609.75 1160,-1486.75 665,-1486.75"/>
<text text-anchor="start" x="832" y="-1587.05" font-family="Arial" font-size="24.00" fill="#444444">Posts /capture,</text>
<text text-anchor="start" x="809" y="-1563.05" font-family="Arial" font-size="24.00" fill="#444444">/visit&#45;events, media</text>
<text text-anchor="start" x="786" y="-1539.05" font-family="Arial" font-size="24.00" fill="#444444">metadata, and raw blob</text>
<text text-anchor="start" x="857" y="-1515.05" font-family="Arial" font-size="24.00" fill="#444444">uploads to</text>
<text text-anchor="start" x="669.5" y="-1495.05" font-family="Arial" font-size="19.00" fill="#444444">[Bearer HTTP/JSON; raw HTTP PUT over 127.0.0.1:8765]</text>
</g>
</g>
</svg>
