<?xml version="1.0" encoding="UTF-8" standalone="no"?>
<!DOCTYPE svg PUBLIC "-//W3C//DTD SVG 1.1//EN"
 "http://www.w3.org/Graphics/SVG/1.1/DTD/svg11.dtd">
<!-- Generated by graphviz version 2.43.0 (0)
 -->
<!-- Title: %3 Pages: 1 -->
<svg width="3874pt" height="1607pt"
 viewBox="0.00 0.00 3874.00 1607.00" xmlns="http://www.w3.org/2000/svg" xmlns:xlink="http://www.w3.org/1999/xlink">
<g id="graph0" class="graph" transform="scale(1 1) rotate(0) translate(4 1603)">
<title>%3</title>
<polygon fill="white" stroke="transparent" points="-4,4 -4,-1603 3870,-1603 3870,4 -4,4"/>
<text text-anchor="start" x="1348" y="-11.8" font-family="Arial" font-size="34.00">Component View: Browser Memory Daemon &#45; WSL Loopback HTTP Daemon</text>
<g id="clust1" class="cluster">
<title>cluster_4</title>
<polygon fill="none" stroke="#444444" points="8,-64 8,-1591 3858,-1591 3858,-64 8,-64"/>
<text text-anchor="start" x="1792" y="-92.8" font-family="Arial" font-size="24.00" fill="#444444">Browser Memory Daemon</text>
<text text-anchor="start" x="1856" y="-72.8" font-family="Arial" font-size="19.00" fill="#444444">[Software System]</text>
</g>
<g id="clust2" class="cluster">
<title>cluster_22</title>
<polygon fill="none" stroke="#444444" points="33,-478 33,-979 2952,-979 2952,-478 33,-478"/>
<text text-anchor="start" x="1327" y="-506.8" font-family="Arial" font-size="24.00" fill="#444444">WSL Loopback HTTP Daemon</text>
<text text-anchor="start" x="1290.5" y="-486.8" font-family="Arial" font-size="19.00" fill="#444444">[Container: Python 3.11, ThreadingHTTPServer]</text>
</g>
<!-- 23 -->
<g id="23" class="node">
<title>23</title>
<polygon fill="#85bbf0" stroke="#1168bd" points="552,-953.5 58,-953.5 58,-578.5 552,-578.5 552,-953.5"/>
<text text-anchor="start" x="136.5" y="-905.3" font-family="Arial" font-size="34.00" fill="#000000">HTTP Request Router</text>
<text text-anchor="start" x="87" y="-883.3" font-family="Arial" font-size="19.00" fill="#000000">[Component: Python http.server + route descriptors]</text>
<text text-anchor="start" x="117.5" y="-846.3" font-family="Arial" font-size="24.00" fill="#000000">Adapts BaseHTTPRequestHandler</text>
<text text-anchor="start" x="154.5" y="-822.3" font-family="Arial" font-size="24.00" fill="#000000">requests through immutable</text>
<text text-anchor="start" x="150" y="-798.3" font-family="Arial" font-size="24.00" fill="#000000">method/path descriptors with</text>
<text text-anchor="start" x="144.5" y="-774.3" font-family="Arial" font-size="24.00" fill="#000000">static precedence; owns auth,</text>
<text text-anchor="start" x="199.5" y="-750.3" font-family="Arial" font-size="24.00" fill="#000000">parsing, compatible</text>
<text text-anchor="start" x="180.5" y="-726.3" font-family="Arial" font-size="24.00" fill="#000000">status/error responses,</text>
<text text-anchor="start" x="144.5" y="-702.3" font-family="Arial" font-size="24.00" fill="#000000">request IDs, common security</text>
<text text-anchor="start" x="177" y="-678.3" font-family="Arial" font-size="24.00" fill="#000000">headers, redaction&#45;safe</text>
<text text-anchor="start" x="148.5" y="-654.3" font-family="Arial" font-size="24.00" fill="#000000">telemetry, bounded response</text>
<text text-anchor="start" x="138" y="-630.3" font-family="Arial" font-size="24.00" fill="#000000">streaming, disconnect cleanup,</text>
<text text-anchor="start" x="157.5" y="-606.3" font-family="Arial" font-size="24.00" fill="#000000">CORS, and finite UI assets.</text>
</g>
<!-- 24 -->
<g id="24" class="node">
<title>24</title>
<polygon fill="#85bbf0" stroke="#1168bd" points="1302,-947.5 901,-947.5 901,-596.5 1302,-596.5 1302,-947.5"/>
<text text-anchor="start" x="930" y="-899.3" font-family="Arial" font-size="34.00" fill="#000000">Application Use Cases</text>
<text text-anchor="start" x="1012.5" y="-877.3" font-family="Arial" font-size="19.00" fill="#000000">[Component: Python]</text>
<text text-anchor="start" x="939.5" y="-840.3" font-family="Arial" font-size="24.00" fill="#000000">Provides request&#45;independent</text>
<text text-anchor="start" x="976.5" y="-816.3" font-family="Arial" font-size="24.00" fill="#000000">capture, lifecycle, read,</text>
<text text-anchor="start" x="966.5" y="-792.3" font-family="Arial" font-size="24.00" fill="#000000">forget, policy, doctor, and</text>
<text text-anchor="start" x="975.5" y="-768.3" font-family="Arial" font-size="24.00" fill="#000000">media use cases; owns</text>
<text text-anchor="start" x="972.5" y="-744.3" font-family="Arial" font-size="24.00" fill="#000000">database&#45;ready checks,</text>
<text text-anchor="start" x="945.5" y="-720.3" font-family="Arial" font-size="24.00" fill="#000000">transaction/audit boundaries,</text>
<text text-anchor="start" x="949" y="-696.3" font-family="Arial" font-size="24.00" fill="#000000">asynchronous media kickoff,</text>
<text text-anchor="start" x="935.5" y="-672.3" font-family="Arial" font-size="24.00" fill="#000000">and upload/download resource</text>
<text text-anchor="start" x="936.5" y="-648.3" font-family="Arial" font-size="24.00" fill="#000000">leases without importing HTTP</text>
<text text-anchor="start" x="957.5" y="-624.3" font-family="Arial" font-size="24.00" fill="#000000">request or response types.</text>
</g>
<!-- 23&#45;&gt;24 -->
<g id="114" class="edge">
<title>23&#45;&gt;24</title>
<path fill="none" stroke="#444444" stroke-dasharray="5,2" d="M552.22,-767.86C660.59,-768.68 786.59,-769.63 890.45,-770.41"/>
<polygon fill="#444444" stroke="#444444" points="890.72,-773.92 900.75,-770.49 890.78,-766.92 890.72,-773.92"/>
<polygon fill="white" stroke="transparent" points="588,-770 588,-856 865,-856 865,-770 588,-770"/>
<text text-anchor="start" x="645" y="-832.8" font-family="Arial" font-size="24.00" fill="#444444">Invokes explicit</text>
<text text-anchor="start" x="592.5" y="-806.8" font-family="Arial" font-size="24.00" fill="#444444">request&#45;independent use</text>
<text text-anchor="start" x="650.5" y="-780.8" font-family="Arial" font-size="24.00" fill="#444444">cases through</text>
</g>
<!-- 41 -->
<g id="41" class="node">
<title>41</title>
<polygon fill="#85bbf0" stroke="#1168bd" points="2144,-907.5 1637,-907.5 1637,-652.5 2144,-652.5 2144,-907.5"/>
<text text-anchor="start" x="1707" y="-859.3" font-family="Arial" font-size="34.00" fill="#000000">Search and Read Model</text>
<text text-anchor="start" x="1735.5" y="-837.3" font-family="Arial" font-size="19.00" fill="#000000">[Component: Python + SQLite FTS5]</text>
<text text-anchor="start" x="1719.5" y="-800.3" font-family="Arial" font-size="24.00" fill="#000000">Provides exact FTS search plus</text>
<text text-anchor="start" x="1760.5" y="-776.3" font-family="Arial" font-size="24.00" fill="#000000">SQLite&#45;authoritative text</text>
<text text-anchor="start" x="1748" y="-752.3" font-family="Arial" font-size="24.00" fill="#000000">detail and observation&#45;first</text>
<text text-anchor="start" x="1666" y="-728.3" font-family="Arial" font-size="24.00" fill="#000000">recent/timeline/document/snapshot/media</text>
<text text-anchor="start" x="1757" y="-704.3" font-family="Arial" font-size="24.00" fill="#000000">views with explicit legacy</text>
<text text-anchor="start" x="1840" y="-680.3" font-family="Arial" font-size="24.00" fill="#000000">fallbacks.</text>
</g>
<!-- 24&#45;&gt;41 -->
<g id="123" class="edge">
<title>24&#45;&gt;41</title>
<path fill="none" stroke="#444444" stroke-dasharray="5,2" d="M1302.11,-774.03C1400.6,-775.03 1520.69,-776.25 1626.56,-777.33"/>
<polygon fill="#444444" stroke="#444444" points="1626.72,-780.83 1636.76,-777.43 1626.8,-773.83 1626.72,-780.83"/>
<polygon fill="white" stroke="transparent" points="1338,-776 1338,-836 1601,-836 1601,-776 1338,-776"/>
<text text-anchor="start" x="1342.5" y="-812.8" font-family="Arial" font-size="24.00" fill="#444444">Executes read requests</text>
<text text-anchor="start" x="1428.5" y="-786.8" font-family="Arial" font-size="24.00" fill="#444444">through</text>
</g>
<!-- 39 -->
<g id="39" class="node">
<title>39</title>
<polygon fill="#85bbf0" stroke="#1168bd" points="2927,-931.5 2516,-931.5 2516,-628.5 2927,-628.5 2927,-931.5"/>
<text text-anchor="start" x="2565" y="-883.3" font-family="Arial" font-size="34.00" fill="#000000">Contained BlobStore</text>
<text text-anchor="start" x="2545" y="-861.3" font-family="Arial" font-size="19.00" fill="#000000">[Component: Python filesystem boundary]</text>
<text text-anchor="start" x="2569" y="-824.3" font-family="Arial" font-size="24.00" fill="#000000">Prefers root&#45;relative locators</text>
<text text-anchor="start" x="2605.5" y="-800.3" font-family="Arial" font-size="24.00" fill="#000000">with contained legacy</text>
<text text-anchor="start" x="2590.5" y="-776.3" font-family="Arial" font-size="24.00" fill="#000000">fallback; streams unique</text>
<text text-anchor="start" x="2606.5" y="-752.3" font-family="Arial" font-size="24.00" fill="#000000">stages with size/hash</text>
<text text-anchor="start" x="2602.5" y="-728.3" font-family="Arial" font-size="24.00" fill="#000000">accounting; atomically</text>
<text text-anchor="start" x="2574.5" y="-704.3" font-family="Arial" font-size="24.00" fill="#000000">commits; and contains blob</text>
<text text-anchor="start" x="2607" y="-680.3" font-family="Arial" font-size="24.00" fill="#000000">read, stat, and delete</text>
<text text-anchor="start" x="2661" y="-656.3" font-family="Arial" font-size="24.00" fill="#000000">operations.</text>
</g>
<!-- 49 -->
<g id="49" class="node">
<title>49</title>
<path fill="#2f95c8" stroke="#20688c" d="M3758.5,-495.22C3758.5,-513.51 3669.98,-528.38 3561,-528.38 3452.02,-528.38 3363.5,-513.51 3363.5,-495.22 3363.5,-495.22 3363.5,-196.78 3363.5,-196.78 3363.5,-178.49 3452.02,-163.62 3561,-163.62 3669.98,-163.62 3758.5,-178.49 3758.5,-196.78 3758.5,-196.78 3758.5,-495.22 3758.5,-495.22"/>
<path fill="none" stroke="#20688c" d="M3758.5,-495.22C3758.5,-476.92 3669.98,-462.06 3561,-462.06 3452.02,-462.06 3363.5,-476.92 3363.5,-495.22"/>
<text text-anchor="start" x="3439.5" y="-430.3" font-family="Arial" font-size="34.00" fill="#ffffff">Local Derivative</text>
<text text-anchor="start" x="3520" y="-396.3" font-family="Arial" font-size="34.00" fill="#ffffff">Store</text>
<text text-anchor="start" x="3421" y="-374.3" font-family="Arial" font-size="19.00" fill="#ffffff">[Container: WSL local filesystem]</text>
<text text-anchor="start" x="3407.5" y="-337.3" font-family="Arial" font-size="24.00" fill="#ffffff">Reconstructible compatibility</text>
<text text-anchor="start" x="3392.5" y="-313.3" font-family="Arial" font-size="24.00" fill="#ffffff">evidence such as pre&#45;version&#45;9</text>
<text text-anchor="start" x="3431" y="-289.3" font-family="Arial" font-size="24.00" fill="#ffffff">clean&#45;text sidecars; new</text>
<text text-anchor="start" x="3437.5" y="-265.3" font-family="Arial" font-size="24.00" fill="#ffffff">captures create no text</text>
<text text-anchor="start" x="3512.5" y="-241.3" font-family="Arial" font-size="24.00" fill="#ffffff">sidecars.</text>
</g>
<!-- 39&#45;&gt;49 -->
<g id="158" class="edge">
<title>39&#45;&gt;49</title>
<path fill="none" stroke="#444444" stroke-dasharray="5,2" d="M2927.11,-673.97C3056.93,-606.7 3224.32,-519.95 3354.34,-452.57"/>
<polygon fill="#444444" stroke="#444444" points="3355.97,-455.67 3363.24,-447.96 3352.75,-449.45 3355.97,-455.67"/>
<polygon fill="white" stroke="transparent" points="2972,-651 2972,-750 3244,-750 3244,-651 2972,-651"/>
<text text-anchor="start" x="2976" y="-727.3" font-family="Arial" font-size="24.00" fill="#444444">Reads, stats, reconciles,</text>
<text text-anchor="start" x="2984" y="-703.3" font-family="Arial" font-size="24.00" fill="#444444">and deletes legacy text</text>
<text text-anchor="start" x="3050" y="-679.3" font-family="Arial" font-size="24.00" fill="#444444">sidecars in</text>
<text text-anchor="start" x="3056.5" y="-659.3" font-family="Arial" font-size="19.00" fill="#444444">[Filesystem]</text>
</g>
<!-- 50 -->
<g id="50" class="node">
<title>50</title>
<path fill="#2f95c8" stroke="#20688c" d="M3833,-991.22C3833,-1012.82 3711.09,-1030.38 3561,-1030.38 3410.91,-1030.38 3289,-1012.82 3289,-991.22 3289,-991.22 3289,-638.78 3289,-638.78 3289,-617.18 3410.91,-599.62 3561,-599.62 3711.09,-599.62 3833,-617.18 3833,-638.78 3833,-638.78 3833,-991.22 3833,-991.22"/>
<path fill="none" stroke="#20688c" d="M3833,-991.22C3833,-969.61 3711.09,-952.06 3561,-952.06 3410.91,-952.06 3289,-969.61 3289,-991.22"/>
<text text-anchor="start" x="3405.5" y="-923.3" font-family="Arial" font-size="34.00" fill="#ffffff">Guarded Media Blob</text>
<text text-anchor="start" x="3511.5" y="-889.3" font-family="Arial" font-size="34.00" fill="#ffffff">Cache</text>
<text text-anchor="start" x="3318" y="-867.3" font-family="Arial" font-size="19.00" fill="#ffffff">[Container: WSL&#45;visible local or NAS&#45;mounted filesystem]</text>
<text text-anchor="start" x="3451" y="-830.3" font-family="Arial" font-size="24.00" fill="#ffffff">Bounded disposable</text>
<text text-anchor="start" x="3395.5" y="-806.3" font-family="Arial" font-size="24.00" fill="#ffffff">image/video/audio bytes under</text>
<text text-anchor="start" x="3419.5" y="-782.3" font-family="Arial" font-size="24.00" fill="#ffffff">the configured media root;</text>
<text text-anchor="start" x="3447" y="-758.3" font-family="Arial" font-size="24.00" fill="#ffffff">explicit external roots</text>
<text text-anchor="start" x="3462" y="-734.3" font-family="Arial" font-size="24.00" fill="#ffffff">require mount and</text>
<text text-anchor="start" x="3411.5" y="-710.3" font-family="Arial" font-size="24.00" fill="#ffffff">identity&#45;marker proof before</text>
<text text-anchor="start" x="3520" y="-686.3" font-family="Arial" font-size="24.00" fill="#ffffff">access.</text>
</g>
<!-- 39&#45;&gt;50 -->
<g id="159" class="edge">
<title>39&#45;&gt;50</title>
<path fill="none" stroke="#444444" stroke-dasharray="5,2" d="M2927.11,-788.55C3032.86,-792.97 3163.54,-798.43 3278.64,-803.24"/>
<polygon fill="#444444" stroke="#444444" points="3278.53,-806.74 3288.67,-803.66 3278.82,-799.75 3278.53,-806.74"/>
<polygon fill="white" stroke="transparent" points="2972.5,-801 2972.5,-900 3243.5,-900 3243.5,-801 2972.5,-801"/>
<text text-anchor="start" x="2978.5" y="-877.3" font-family="Arial" font-size="24.00" fill="#444444">Stages, commits, reads,</text>
<text text-anchor="start" x="2977" y="-853.3" font-family="Arial" font-size="24.00" fill="#444444">stats, and deletes media</text>
<text text-anchor="start" x="3066.5" y="-829.3" font-family="Arial" font-size="24.00" fill="#444444">blobs in</text>
<text text-anchor="start" x="3057" y="-809.3" font-family="Arial" font-size="19.00" fill="#444444">[Filesystem]</text>
</g>
<!-- 51 -->
<g id="51" class="node">
<title>51</title>
<path fill="#2f95c8" stroke="#20688c" d="M3754,-1523.72C3754,-1546.98 3667.49,-1565.88 3561,-1565.88 3454.51,-1565.88 3368,-1546.98 3368,-1523.72 3368,-1523.72 3368,-1144.28 3368,-1144.28 3368,-1121.02 3454.51,-1102.12 3561,-1102.12 3667.49,-1102.12 3754,-1121.02 3754,-1144.28 3754,-1144.28 3754,-1523.72 3754,-1523.72"/>
<path fill="none" stroke="#20688c" d="M3754,-1523.72C3754,-1500.45 3667.49,-1481.56 3561,-1481.56 3454.51,-1481.56 3368,-1500.45 3368,-1523.72"/>
<text text-anchor="start" x="3397" y="-1454.3" font-family="Arial" font-size="34.00" fill="#ffffff">Bounded Local Media</text>
<text text-anchor="start" x="3517.5" y="-1420.3" font-family="Arial" font-size="34.00" fill="#ffffff">Spool</text>
<text text-anchor="start" x="3421" y="-1398.3" font-family="Arial" font-size="19.00" fill="#ffffff">[Container: WSL local filesystem]</text>
<text text-anchor="start" x="3409" y="-1361.3" font-family="Arial" font-size="24.00" fill="#ffffff">Opt&#45;in durable outage buffer</text>
<text text-anchor="start" x="3412.5" y="-1337.3" font-family="Arial" font-size="24.00" fill="#ffffff">beneath the local WSL data</text>
<text text-anchor="start" x="3439.5" y="-1313.3" font-family="Arial" font-size="24.00" fill="#ffffff">root; admission counts</text>
<text text-anchor="start" x="3415.5" y="-1289.3" font-family="Arial" font-size="24.00" fill="#ffffff">committed files and distinct</text>
<text text-anchor="start" x="3409" y="-1265.3" font-family="Arial" font-size="24.00" fill="#ffffff">in&#45;flight SQLite reservations,</text>
<text text-anchor="start" x="3436" y="-1241.3" font-family="Arial" font-size="24.00" fill="#ffffff">and drain verifies bytes</text>
<text text-anchor="start" x="3413.5" y="-1217.3" font-family="Arial" font-size="24.00" fill="#ffffff">before tier transition/source</text>
<text text-anchor="start" x="3515" y="-1193.3" font-family="Arial" font-size="24.00" fill="#ffffff">cleanup.</text>
</g>
<!-- 39&#45;&gt;51 -->
<g id="160" class="edge">
<title>39&#45;&gt;51</title>
<path fill="none" stroke="#444444" stroke-dasharray="5,2" d="M2927.11,-915.35C3058.6,-1002.33 3228.63,-1114.8 3359.34,-1201.26"/>
<polygon fill="#444444" stroke="#444444" points="3357.62,-1204.32 3367.89,-1206.92 3361.48,-1198.48 3357.62,-1204.32"/>
<polygon fill="white" stroke="transparent" points="2963,-1122 2963,-1221 3253,-1221 3253,-1122 2963,-1122"/>
<text text-anchor="start" x="2978" y="-1198.3" font-family="Arial" font-size="24.00" fill="#444444">Stages, commits, reads,</text>
<text text-anchor="start" x="2967" y="-1174.3" font-family="Arial" font-size="24.00" fill="#444444">stats, and deletes spooled</text>
<text text-anchor="start" x="3062" y="-1150.3" font-family="Arial" font-size="24.00" fill="#444444">media in</text>
<text text-anchor="start" x="3056.5" y="-1130.3" font-family="Arial" font-size="19.00" fill="#444444">[Filesystem]</text>
</g>
<!-- 41&#45;&gt;39 -->
<g id="153" class="edge">
<title>41&#45;&gt;39</title>
<path fill="none" stroke="#444444" stroke-dasharray="5,2" d="M2144.07,-709.53C2156.17,-707.4 2168.19,-705.53 2180,-704 2312.23,-686.88 2348.23,-683.67 2480,-704 2488.57,-705.32 2497.25,-706.89 2505.98,-708.67"/>
<polygon fill="#444444" stroke="#444444" points="2505.33,-712.11 2515.84,-710.76 2506.78,-705.26 2505.33,-712.11"/>
<polygon fill="white" stroke="transparent" points="2180,-704 2180,-790 2480,-790 2480,-704 2180,-704"/>
<text text-anchor="start" x="2208" y="-766.8" font-family="Arial" font-size="24.00" fill="#444444">Reads only legacy text</text>
<text text-anchor="start" x="2184" y="-740.8" font-family="Arial" font-size="24.00" fill="#444444">sidecars and checks media</text>
<text text-anchor="start" x="2263.5" y="-714.8" font-family="Arial" font-size="24.00" fill="#444444">files through</text>
</g>
<!-- 48 -->
<g id="48" class="node">
<title>48</title>
<path fill="#2f95c8" stroke="#20688c" d="M2919,-1515.22C2919,-1543.44 2830.48,-1566.38 2721.5,-1566.38 2612.52,-1566.38 2524,-1543.44 2524,-1515.22 2524,-1515.22 2524,-1054.78 2524,-1054.78 2524,-1026.56 2612.52,-1003.62 2721.5,-1003.62 2830.48,-1003.62 2919,-1026.56 2919,-1054.78 2919,-1054.78 2919,-1515.22 2919,-1515.22"/>
<path fill="none" stroke="#20688c" d="M2919,-1515.22C2919,-1486.99 2830.48,-1464.06 2721.5,-1464.06 2612.52,-1464.06 2524,-1486.99 2524,-1515.22"/>
<text text-anchor="start" x="2608.5" y="-1441.3" font-family="Arial" font-size="34.00" fill="#ffffff">SQLite + FTS5</text>
<text text-anchor="start" x="2648.5" y="-1407.3" font-family="Arial" font-size="34.00" fill="#ffffff">Database</text>
<text text-anchor="start" x="2595.5" y="-1385.3" font-family="Arial" font-size="19.00" fill="#ffffff">[Container: SQLite with FTS5]</text>
<text text-anchor="start" x="2553.5" y="-1348.3" font-family="Arial" font-size="24.00" fill="#ffffff">Durable complete cleaned&#45;text,</text>
<text text-anchor="start" x="2602.5" y="-1324.3" font-family="Arial" font-size="24.00" fill="#ffffff">relational, and full&#45;text</text>
<text text-anchor="start" x="2604" y="-1300.3" font-family="Arial" font-size="24.00" fill="#ffffff">authority for migration</text>
<text text-anchor="start" x="2569.5" y="-1276.3" font-family="Arial" font-size="24.00" fill="#ffffff">ledger, sources, documents,</text>
<text text-anchor="start" x="2572" y="-1252.3" font-family="Arial" font-size="24.00" fill="#ffffff">visits, capture observations,</text>
<text text-anchor="start" x="2590.5" y="-1228.3" font-family="Arial" font-size="24.00" fill="#ffffff">URL claims, visit events,</text>
<text text-anchor="start" x="2553" y="-1204.3" font-family="Arial" font-size="24.00" fill="#ffffff">snapshots, chunks, chunks_fts,</text>
<text text-anchor="start" x="2560.5" y="-1180.3" font-family="Arial" font-size="24.00" fill="#ffffff">media provenance/tasks, blob</text>
<text text-anchor="start" x="2597" y="-1156.3" font-family="Arial" font-size="24.00" fill="#ffffff">lifecycle records, policy</text>
<text text-anchor="start" x="2596" y="-1132.3" font-family="Arial" font-size="24.00" fill="#ffffff">rules, audit events, and</text>
<text text-anchor="start" x="2629.5" y="-1108.3" font-family="Arial" font-size="24.00" fill="#ffffff">deletion receipts.</text>
</g>
<!-- 41&#45;&gt;48 -->
<g id="152" class="edge">
<title>41&#45;&gt;48</title>
<path fill="none" stroke="#444444" stroke-dasharray="5,2" d="M2100.96,-907.6C2227.91,-984.93 2389.17,-1083.16 2515.33,-1160.02"/>
<polygon fill="#444444" stroke="#444444" points="2513.61,-1163.07 2523.97,-1165.28 2517.25,-1157.09 2513.61,-1163.07"/>
<polygon fill="white" stroke="transparent" points="2187,-1135 2187,-1210 2473,-1210 2473,-1135 2187,-1135"/>
<text text-anchor="start" x="2191" y="-1187.3" font-family="Arial" font-size="24.00" fill="#444444">Reads metadata and FTS</text>
<text text-anchor="start" x="2305.5" y="-1163.3" font-family="Arial" font-size="24.00" fill="#444444">from</text>
<text text-anchor="start" x="2269.5" y="-1143.3" font-family="Arial" font-size="19.00" fill="#444444">[SQLite FTS5]</text>
</g>
</g>
</svg>
