<?xml version="1.0" encoding="UTF-8" standalone="no"?>
<!DOCTYPE svg PUBLIC "-//W3C//DTD SVG 1.1//EN"
 "http://www.w3.org/Graphics/SVG/1.1/DTD/svg11.dtd">
<!-- Generated by graphviz version 2.43.0 (0)
 -->
<!-- Title: %3 Pages: 1 -->
<svg width="1558pt" height="1744pt"
 viewBox="0.00 0.00 1558.00 1743.75" xmlns="http://www.w3.org/2000/svg" xmlns:xlink="http://www.w3.org/1999/xlink">
<g id="graph0" class="graph" transform="scale(1 1) rotate(0) translate(4 1739.75)">
<title>%3</title>
<polygon fill="white" stroke="transparent" points="-4,4 -4,-1739.75 1554,-1739.75 1554,4 -4,4"/>
<text text-anchor="start" x="452.5" y="-11.8" font-family="Arial" font-size="34.00">Container View: Browser Memory Daemon</text>
<g id="clust1" class="cluster">
<title>cluster_4</title>
<polygon fill="none" stroke="#444444" points="8,-64 8,-1727.75 1045,-1727.75 1045,-64 8,-64"/>
<text text-anchor="start" x="385.5" y="-92.8" font-family="Arial" font-size="24.00" fill="#444444">Browser Memory Daemon</text>
<text text-anchor="start" x="449.5" y="-72.8" font-family="Arial" font-size="19.00" fill="#444444">[Software System]</text>
</g>
<!-- 3 -->
<g id="3" class="node">
<title>3</title>
<polygon fill="#999999" stroke="#6b6b6b" points="1495.5,-1179.06 1092.5,-1179.06 1092.5,-914.06 1495.5,-914.06 1495.5,-1179.06"/>
<text text-anchor="start" x="1132.5" y="-1130.86" font-family="Arial" font-size="34.00" fill="#ffffff">Web Sites and Media</text>
<text text-anchor="start" x="1240" y="-1096.86" font-family="Arial" font-size="34.00" fill="#ffffff">Origins</text>
<text text-anchor="start" x="1217" y="-1074.86" font-family="Arial" font-size="19.00" fill="#ffffff">[Software System]</text>
<text text-anchor="start" x="1184" y="-1037.86" font-family="Arial" font-size="24.00" fill="#ffffff">External web pages,</text>
<text text-anchor="start" x="1131.5" y="-1013.86" font-family="Arial" font-size="24.00" fill="#ffffff">image/video URLs, and media</text>
<text text-anchor="start" x="1121.5" y="-989.86" font-family="Arial" font-size="24.00" fill="#ffffff">CDNs that Chrome loads or that</text>
<text text-anchor="start" x="1131.5" y="-965.86" font-family="Arial" font-size="24.00" fill="#ffffff">sidecars fetch as page&#45;related</text>
<text text-anchor="start" x="1257.5" y="-941.86" font-family="Arial" font-size="24.00" fill="#ffffff">media.</text>
</g>
<!-- 13 -->
<g id="13" class="node">
<title>13</title>
<path fill="#2f95c8" stroke="#20688c" d="M485.5,-1195.78C485.5,-1214.08 383.98,-1228.94 259,-1228.94 134.02,-1228.94 32.5,-1214.08 32.5,-1195.78 32.5,-1195.78 32.5,-897.35 32.5,-897.35 32.5,-879.05 134.02,-864.19 259,-864.19 383.98,-864.19 485.5,-879.05 485.5,-897.35 485.5,-897.35 485.5,-1195.78 485.5,-1195.78"/>
<path fill="none" stroke="#20688c" d="M485.5,-1195.78C485.5,-1177.48 383.98,-1162.62 259,-1162.62 134.02,-1162.62 32.5,-1177.48 32.5,-1195.78"/>
<text text-anchor="start" x="117" y="-1130.86" font-family="Arial" font-size="34.00" fill="#ffffff">Extension Browser</text>
<text text-anchor="start" x="199.5" y="-1096.86" font-family="Arial" font-size="34.00" fill="#ffffff">Storage</text>
<text text-anchor="start" x="61.5" y="-1074.86" font-family="Arial" font-size="19.00" fill="#ffffff">[Container: chrome.storage.local + IndexedDB]</text>
<text text-anchor="start" x="126.5" y="-1037.86" font-family="Arial" font-size="24.00" fill="#ffffff">Browser&#45;side storage for</text>
<text text-anchor="start" x="114.5" y="-1013.86" font-family="Arial" font-size="24.00" fill="#ffffff">capture and visit queues in</text>
<text text-anchor="start" x="120.5" y="-989.86" font-family="Arial" font-size="24.00" fill="#ffffff">chrome.storage.local plus</text>
<text text-anchor="start" x="126.5" y="-965.86" font-family="Arial" font-size="24.00" fill="#ffffff">durable media tasks and</text>
<text text-anchor="start" x="107.5" y="-941.86" font-family="Arial" font-size="24.00" fill="#ffffff">fetched blobs in IndexedDB.</text>
</g>
<!-- 14 -->
<g id="14" class="node">
<title>14</title>
<polygon fill="#438dd5" stroke="#2e6295" points="1020,-1215.06 558,-1215.06 558,-878.06 1020,-878.06 1020,-1215.06"/>
<text text-anchor="start" x="624.5" y="-1166.86" font-family="Arial" font-size="34.00" fill="#ffffff">WSL Loopback HTTP</text>
<text text-anchor="start" x="724.5" y="-1132.86" font-family="Arial" font-size="34.00" fill="#ffffff">Daemon</text>
<text text-anchor="start" x="587" y="-1110.86" font-family="Arial" font-size="19.00" fill="#ffffff">[Container: Python 3.11, ThreadingHTTPServer]</text>
<text text-anchor="start" x="628" y="-1073.86" font-family="Arial" font-size="24.00" fill="#ffffff">Authenticated loopback HTTP</text>
<text text-anchor="start" x="653" y="-1049.86" font-family="Arial" font-size="24.00" fill="#ffffff">API that handles capture,</text>
<text text-anchor="start" x="649.5" y="-1025.86" font-family="Arial" font-size="24.00" fill="#ffffff">visit events, media artifact</text>
<text text-anchor="start" x="652.5" y="-1001.86" font-family="Arial" font-size="24.00" fill="#ffffff">upload/fetch/purge, exact</text>
<text text-anchor="start" x="749" y="-977.86" font-family="Arial" font-size="24.00" fill="#ffffff">search,</text>
<text text-anchor="start" x="640" y="-953.86" font-family="Arial" font-size="24.00" fill="#ffffff">recent/timeline/detail, policy</text>
<text text-anchor="start" x="658" y="-929.86" font-family="Arial" font-size="24.00" fill="#ffffff">rules, doctor, forget, and</text>
<text text-anchor="start" x="699.5" y="-905.86" font-family="Arial" font-size="24.00" fill="#ffffff">static UI serving.</text>
</g>
<!-- 29 -->
<g id="29" class="node">
<title>29</title>
<path fill="#2f95c8" stroke="#20688c" d="M469,-645.4C469,-671.98 380.25,-693.56 271,-693.56 161.75,-693.56 73,-671.98 73,-645.4 73,-645.4 73,-211.97 73,-211.97 73,-185.4 161.75,-163.81 271,-163.81 380.25,-163.81 469,-185.4 469,-211.97 469,-211.97 469,-645.4 469,-645.4"/>
<path fill="none" stroke="#20688c" d="M469,-645.4C469,-618.83 380.25,-597.24 271,-597.24 161.75,-597.24 73,-618.83 73,-645.4"/>
<text text-anchor="start" x="158" y="-572.99" font-family="Arial" font-size="34.00" fill="#ffffff">SQLite + FTS5</text>
<text text-anchor="start" x="198" y="-538.99" font-family="Arial" font-size="34.00" fill="#ffffff">Database</text>
<text text-anchor="start" x="145" y="-516.99" font-family="Arial" font-size="19.00" fill="#ffffff">[Container: SQLite with FTS5]</text>
<text text-anchor="start" x="103" y="-479.99" font-family="Arial" font-size="24.00" fill="#ffffff">Durable complete cleaned&#45;text,</text>
<text text-anchor="start" x="152" y="-455.99" font-family="Arial" font-size="24.00" fill="#ffffff">relational, and full&#45;text</text>
<text text-anchor="start" x="153.5" y="-431.99" font-family="Arial" font-size="24.00" fill="#ffffff">authority for migration</text>
<text text-anchor="start" x="119" y="-407.99" font-family="Arial" font-size="24.00" fill="#ffffff">ledger, sources, documents,</text>
<text text-anchor="start" x="121.5" y="-383.99" font-family="Arial" font-size="24.00" fill="#ffffff">visits, capture observations,</text>
<text text-anchor="start" x="140" y="-359.99" font-family="Arial" font-size="24.00" fill="#ffffff">URL claims, visit events,</text>
<text text-anchor="start" x="102.5" y="-335.99" font-family="Arial" font-size="24.00" fill="#ffffff">snapshots, chunks, chunks_fts,</text>
<text text-anchor="start" x="102" y="-311.99" font-family="Arial" font-size="24.00" fill="#ffffff">media provenance/tasks, policy</text>
<text text-anchor="start" x="145.5" y="-287.99" font-family="Arial" font-size="24.00" fill="#ffffff">rules, audit events, and</text>
<text text-anchor="start" x="179" y="-263.99" font-family="Arial" font-size="24.00" fill="#ffffff">deletion receipts.</text>
</g>
<!-- 14&#45;&gt;29 -->
<g id="45" class="edge">
<title>14&#45;&gt;29</title>
<path fill="none" stroke="#444444" stroke-dasharray="5,2" d="M557.87,-886.37C545.5,-878.77 533.16,-871.4 521,-864.38 489.33,-846.09 472.38,-854.71 447,-828.38 412.24,-792.3 383.69,-748.22 360.46,-702.68"/>
<polygon fill="#444444" stroke="#444444" points="363.49,-700.93 355.88,-693.56 357.23,-704.07 363.49,-700.93"/>
<polygon fill="white" stroke="transparent" points="447,-729.38 447,-828.38 757,-828.38 757,-729.38 447,-729.38"/>
<text text-anchor="start" x="451" y="-805.67" font-family="Arial" font-size="24.00" fill="#444444">Reads and writes metadata,</text>
<text text-anchor="start" x="484" y="-781.67" font-family="Arial" font-size="24.00" fill="#444444">FTS, tasks, audit, and</text>
<text text-anchor="start" x="546.5" y="-757.67" font-family="Arial" font-size="24.00" fill="#444444">receipts in</text>
<text text-anchor="start" x="568.5" y="-737.67" font-family="Arial" font-size="19.00" fill="#444444">[sqlite3]</text>
</g>
<!-- 31 -->
<g id="31" class="node">
<title>31</title>
<path fill="#2f95c8" stroke="#20688c" d="M979,-625.97C979,-650.16 880.84,-669.81 760,-669.81 639.16,-669.81 541,-650.16 541,-625.97 541,-625.97 541,-231.4 541,-231.4 541,-207.21 639.16,-187.56 760,-187.56 880.84,-187.56 979,-207.21 979,-231.4 979,-231.4 979,-625.97 979,-625.97"/>
<path fill="none" stroke="#20688c" d="M979,-625.97C979,-601.78 880.84,-582.13 760,-582.13 639.16,-582.13 541,-601.78 541,-625.97"/>
<text text-anchor="start" x="621" y="-555.99" font-family="Arial" font-size="34.00" fill="#ffffff">Media Blob Cache</text>
<text text-anchor="start" x="570" y="-533.99" font-family="Arial" font-size="19.00" fill="#ffffff">[Container: WSL or NAS&#45;mounted filesystem]</text>
<text text-anchor="start" x="626.5" y="-496.99" font-family="Arial" font-size="24.00" fill="#ffffff">Bounded and disposable</text>
<text text-anchor="start" x="615.5" y="-472.99" font-family="Arial" font-size="24.00" fill="#ffffff">filesystem cache for stored</text>
<text text-anchor="start" x="594.5" y="-448.99" font-family="Arial" font-size="24.00" fill="#ffffff">image/video/audio blobs under</text>
<text text-anchor="start" x="616" y="-424.99" font-family="Arial" font-size="24.00" fill="#ffffff">the configured WSL&#45;visible</text>
<text text-anchor="start" x="684.5" y="-400.99" font-family="Arial" font-size="24.00" fill="#ffffff">blob root, with</text>
<text text-anchor="start" x="592.5" y="-376.99" font-family="Arial" font-size="24.00" fill="#ffffff">purge/rehydrate semantics that</text>
<text text-anchor="start" x="603.5" y="-352.99" font-family="Arial" font-size="24.00" fill="#ffffff">preserve media refs, hashes,</text>
<text text-anchor="start" x="587" y="-328.99" font-family="Arial" font-size="24.00" fill="#ffffff">status reasons, and provenance</text>
<text text-anchor="start" x="623.5" y="-304.99" font-family="Arial" font-size="24.00" fill="#ffffff">when bytes are absent or</text>
<text text-anchor="start" x="718.5" y="-280.99" font-family="Arial" font-size="24.00" fill="#ffffff">purged.</text>
</g>
<!-- 14&#45;&gt;31 -->
<g id="47" class="edge">
<title>14&#45;&gt;31</title>
<path fill="none" stroke="#444444" stroke-dasharray="5,2" d="M781.09,-877.68C778.23,-816.78 774.92,-746.6 771.79,-680.13"/>
<polygon fill="#444444" stroke="#444444" points="775.28,-679.74 771.31,-669.92 768.29,-680.07 775.28,-679.74"/>
<polygon fill="white" stroke="transparent" points="778,-729.38 778,-828.38 1086,-828.38 1086,-729.38 778,-729.38"/>
<text text-anchor="start" x="807" y="-805.67" font-family="Arial" font-size="24.00" fill="#444444">Stores, serves, purges,</text>
<text text-anchor="start" x="782" y="-781.67" font-family="Arial" font-size="24.00" fill="#444444">and rehydrates media blobs</text>
<text text-anchor="start" x="922.5" y="-757.67" font-family="Arial" font-size="24.00" fill="#444444">in</text>
<text text-anchor="start" x="880.5" y="-737.67" font-family="Arial" font-size="19.00" fill="#444444">[Filesystem]</text>
</g>
<!-- 5 -->
<g id="5" class="node">
<title>5</title>
<polygon fill="#438dd5" stroke="#2e6295" points="742,-1702.75 308,-1702.75 308,-1423.75 742,-1423.75 742,-1702.75"/>
<text text-anchor="start" x="345" y="-1654.55" font-family="Arial" font-size="34.00" fill="#ffffff">Chrome MV3 Extension</text>
<text text-anchor="start" x="337" y="-1632.55" font-family="Arial" font-size="19.00" fill="#ffffff">[Container: JavaScript, Chrome Manifest V3]</text>
<text text-anchor="start" x="382" y="-1595.55" font-family="Arial" font-size="24.00" fill="#ffffff">Captures visible page text,</text>
<text text-anchor="start" x="407.5" y="-1571.55" font-family="Arial" font-size="24.00" fill="#ffffff">media references, tab</text>
<text text-anchor="start" x="416" y="-1547.55" font-family="Arial" font-size="24.00" fill="#ffffff">lifecycle events, and</text>
<text text-anchor="start" x="359" y="-1523.55" font-family="Arial" font-size="24.00" fill="#ffffff">browser&#45;side media bytes from</text>
<text text-anchor="start" x="354" y="-1499.55" font-family="Arial" font-size="24.00" fill="#ffffff">Windows Chrome; queues work</text>
<text text-anchor="start" x="366" y="-1475.55" font-family="Arial" font-size="24.00" fill="#ffffff">durably and posts to the WSL</text>
<text text-anchor="start" x="477.5" y="-1451.55" font-family="Arial" font-size="24.00" fill="#ffffff">daemon.</text>
</g>
<!-- 5&#45;&gt;3 -->
<g id="38" class="edge">
<title>5&#45;&gt;3</title>
<path fill="none" stroke="#444444" stroke-dasharray="5,2" d="M742.17,-1528.08C909.26,-1497.66 1122.06,-1448.61 1186,-1387.75 1240.12,-1336.24 1267.21,-1257.79 1280.74,-1189.2"/>
<polygon fill="#444444" stroke="#444444" points="1284.22,-1189.63 1282.64,-1179.16 1277.34,-1188.33 1284.22,-1189.63"/>
<polygon fill="white" stroke="transparent" points="1259,-1276.75 1259,-1375.75 1550,-1375.75 1550,-1276.75 1259,-1276.75"/>
<text text-anchor="start" x="1282.5" y="-1353.05" font-family="Arial" font-size="24.00" fill="#444444">Extracts DOM refs and</text>
<text text-anchor="start" x="1322" y="-1329.05" font-family="Arial" font-size="24.00" fill="#444444">fetches queued</text>
<text text-anchor="start" x="1274.5" y="-1305.05" font-family="Arial" font-size="24.00" fill="#444444">credentialed media from</text>
<text text-anchor="start" x="1263.5" y="-1285.05" font-family="Arial" font-size="19.00" fill="#444444">[DOM; fetch(credentials: include)]</text>
</g>
<!-- 5&#45;&gt;13 -->
<g id="39" class="edge">
<title>5&#45;&gt;13</title>
<path fill="none" stroke="#444444" stroke-dasharray="5,2" d="M313.7,-1423.47C304.4,-1412.22 296.04,-1400.31 289,-1387.75 263.99,-1343.15 252.43,-1289.98 248.09,-1239.09"/>
<polygon fill="#444444" stroke="#444444" points="251.57,-1238.65 247.32,-1228.95 244.59,-1239.18 251.57,-1238.65"/>
<polygon fill="white" stroke="transparent" points="289,-1264.75 289,-1387.75 600,-1387.75 600,-1264.75 289,-1264.75"/>
<text text-anchor="start" x="302.5" y="-1365.05" font-family="Arial" font-size="24.00" fill="#444444">Queues identity&#45;decorated</text>
<text text-anchor="start" x="348.5" y="-1341.05" font-family="Arial" font-size="24.00" fill="#444444">captures, lifecycle</text>
<text text-anchor="start" x="311" y="-1317.05" font-family="Arial" font-size="24.00" fill="#444444">events, media tasks, and</text>
<text text-anchor="start" x="403" y="-1293.05" font-family="Arial" font-size="24.00" fill="#444444">blobs in</text>
<text text-anchor="start" x="293.5" y="-1273.05" font-family="Arial" font-size="19.00" fill="#444444">[chrome.storage.local + IndexedDB]</text>
</g>
<!-- 5&#45;&gt;14 -->
<g id="40" class="edge">
<title>5&#45;&gt;14</title>
<path fill="none" stroke="#444444" stroke-dasharray="5,2" d="M596.09,-1423.65C627.53,-1362.37 664.86,-1289.58 698.27,-1224.44"/>
<polygon fill="#444444" stroke="#444444" points="701.51,-1225.8 702.96,-1215.3 695.28,-1222.6 701.51,-1225.8"/>
<polygon fill="white" stroke="transparent" points="673,-1264.75 673,-1387.75 1168,-1387.75 1168,-1264.75 673,-1264.75"/>
<text text-anchor="start" x="840" y="-1365.05" font-family="Arial" font-size="24.00" fill="#444444">Posts /capture,</text>
<text text-anchor="start" x="817" y="-1341.05" font-family="Arial" font-size="24.00" fill="#444444">/visit&#45;events, media</text>
<text text-anchor="start" x="794" y="-1317.05" font-family="Arial" font-size="24.00" fill="#444444">metadata, and raw blob</text>
<text text-anchor="start" x="865" y="-1293.05" font-family="Arial" font-size="24.00" fill="#444444">uploads to</text>
<text text-anchor="start" x="677.5" y="-1273.05" font-family="Arial" font-size="19.00" fill="#444444">[Bearer HTTP/JSON; raw HTTP PUT over 127.0.0.1:8765]</text>
</g>
</g>
</svg>
