<?xml version="1.0" encoding="UTF-8" standalone="no"?>
<!DOCTYPE svg PUBLIC "-//W3C//DTD SVG 1.1//EN"
 "http://www.w3.org/Graphics/SVG/1.1/DTD/svg11.dtd">
<!-- Generated by graphviz version 2.43.0 (0)
 -->
<!-- Title: %3 Pages: 1 -->
<svg width="1230pt" height="1539pt"
 viewBox="0.00 0.00 1230.00 1538.50" xmlns="http://www.w3.org/2000/svg" xmlns:xlink="http://www.w3.org/1999/xlink">
<g id="graph0" class="graph" transform="scale(1 1) rotate(0) translate(4 1534.5)">
<title>%3</title>
<polygon fill="white" stroke="transparent" points="-4,4 -4,-1534.5 1226,-1534.5 1226,4 -4,4"/>
<text text-anchor="start" x="288.5" y="-11.8" font-family="Arial" font-size="34.00">Container View: Browser Memory Daemon</text>
<g id="clust1" class="cluster">
<title>cluster_4</title>
<polygon fill="none" stroke="#444444" points="8,-346.5 8,-1522.5 1214,-1522.5 1214,-346.5 8,-346.5"/>
<text text-anchor="start" x="470" y="-375.3" font-family="Arial" font-size="24.00" fill="#444444">Browser Memory Daemon</text>
<text text-anchor="start" x="534" y="-355.3" font-family="Arial" font-size="19.00" fill="#444444">[Software System]</text>
</g>
<!-- 3 -->
<g id="3" class="node">
<title>3</title>
<polygon fill="#999999" stroke="#6b6b6b" points="1171.5,-321 768.5,-321 768.5,-56 1171.5,-56 1171.5,-321"/>
<text text-anchor="start" x="808.5" y="-272.8" font-family="Arial" font-size="34.00" fill="#ffffff">Web Sites and Media</text>
<text text-anchor="start" x="916" y="-238.8" font-family="Arial" font-size="34.00" fill="#ffffff">Origins</text>
<text text-anchor="start" x="893" y="-216.8" font-family="Arial" font-size="19.00" fill="#ffffff">[Software System]</text>
<text text-anchor="start" x="860" y="-179.8" font-family="Arial" font-size="24.00" fill="#ffffff">External web pages,</text>
<text text-anchor="start" x="807.5" y="-155.8" font-family="Arial" font-size="24.00" fill="#ffffff">image/video URLs, and media</text>
<text text-anchor="start" x="797.5" y="-131.8" font-family="Arial" font-size="24.00" fill="#ffffff">CDNs that Chrome loads or that</text>
<text text-anchor="start" x="807.5" y="-107.8" font-family="Arial" font-size="24.00" fill="#ffffff">sidecars fetch as page&#45;related</text>
<text text-anchor="start" x="933.5" y="-83.8" font-family="Arial" font-size="24.00" fill="#ffffff">media.</text>
</g>
<!-- 25 -->
<g id="25" class="node">
<title>25</title>
<polygon fill="#438dd5" stroke="#2e6295" points="387,-846 33,-846 33,-543 387,-543 387,-846"/>
<text text-anchor="start" x="63" y="-797.8" font-family="Arial" font-size="34.00" fill="#ffffff">WSL Media Worker</text>
<text text-anchor="start" x="70" y="-775.8" font-family="Arial" font-size="19.00" fill="#ffffff">[Container: Python 3.11 CLI loop]</text>
<text text-anchor="start" x="62.5" y="-738.8" font-family="Arial" font-size="24.00" fill="#ffffff">Long&#45;running systemd user</text>
<text text-anchor="start" x="111.5" y="-714.8" font-family="Arial" font-size="24.00" fill="#ffffff">worker that leases</text>
<text text-anchor="start" x="64" y="-690.8" font-family="Arial" font-size="24.00" fill="#ffffff">daemon&#45;public media fetch</text>
<text text-anchor="start" x="101" y="-666.8" font-family="Arial" font-size="24.00" fill="#ffffff">tasks, fetches public</text>
<text text-anchor="start" x="62" y="-642.8" font-family="Arial" font-size="24.00" fill="#ffffff">media/HLS without Chrome</text>
<text text-anchor="start" x="67" y="-618.8" font-family="Arial" font-size="24.00" fill="#ffffff">cookies, classifies terminal</text>
<text text-anchor="start" x="64" y="-594.8" font-family="Arial" font-size="24.00" fill="#ffffff">states, and updates artifact</text>
<text text-anchor="start" x="181" y="-570.8" font-family="Arial" font-size="24.00" fill="#ffffff">rows.</text>
</g>
<!-- 25&#45;&gt;3 -->
<g id="48" class="edge">
<title>25&#45;&gt;3</title>
<path fill="none" stroke="#444444" stroke-dasharray="5,2" d="M387.19,-573.47C492.36,-501.63 628.82,-409.12 751,-328.5 753.95,-326.55 756.93,-324.59 759.93,-322.62"/>
<polygon fill="#444444" stroke="#444444" points="761.98,-325.46 768.42,-317.05 758.14,-319.61 761.98,-325.46"/>
<text text-anchor="start" x="430.5" y="-593.3" font-family="Arial" font-size="24.00" fill="#444444">Fetches public media and</text>
<text text-anchor="start" x="517.5" y="-569.3" font-family="Arial" font-size="24.00" fill="#444444">HLS from</text>
<text text-anchor="start" x="477" y="-549.3" font-family="Arial" font-size="19.00" fill="#444444">[HTTP(S), data URLs]</text>
</g>
<!-- 28 -->
<g id="28" class="node">
<title>28</title>
<path fill="#2f95c8" stroke="#20688c" d="M1167.5,-897.72C1167.5,-922.63 1078.98,-942.88 970,-942.88 861.02,-942.88 772.5,-922.63 772.5,-897.72 772.5,-897.72 772.5,-491.28 772.5,-491.28 772.5,-466.37 861.02,-446.12 970,-446.12 1078.98,-446.12 1167.5,-466.37 1167.5,-491.28 1167.5,-491.28 1167.5,-897.72 1167.5,-897.72"/>
<path fill="none" stroke="#20688c" d="M1167.5,-897.72C1167.5,-872.8 1078.98,-852.56 970,-852.56 861.02,-852.56 772.5,-872.8 772.5,-897.72"/>
<text text-anchor="start" x="857" y="-826.8" font-family="Arial" font-size="34.00" fill="#ffffff">SQLite + FTS5</text>
<text text-anchor="start" x="897" y="-792.8" font-family="Arial" font-size="34.00" fill="#ffffff">Database</text>
<text text-anchor="start" x="844" y="-770.8" font-family="Arial" font-size="19.00" fill="#ffffff">[Container: SQLite with FTS5]</text>
<text text-anchor="start" x="851" y="-733.8" font-family="Arial" font-size="24.00" fill="#ffffff">Durable relational and</text>
<text text-anchor="start" x="829.5" y="-709.8" font-family="Arial" font-size="24.00" fill="#ffffff">full&#45;text store for migration</text>
<text text-anchor="start" x="818" y="-685.8" font-family="Arial" font-size="24.00" fill="#ffffff">ledger, sources, documents,</text>
<text text-anchor="start" x="820.5" y="-661.8" font-family="Arial" font-size="24.00" fill="#ffffff">visits, capture observations,</text>
<text text-anchor="start" x="839" y="-637.8" font-family="Arial" font-size="24.00" fill="#ffffff">URL claims, visit events,</text>
<text text-anchor="start" x="801.5" y="-613.8" font-family="Arial" font-size="24.00" fill="#ffffff">snapshots, chunks, chunks_fts,</text>
<text text-anchor="start" x="821.5" y="-589.8" font-family="Arial" font-size="24.00" fill="#ffffff">media artifacts, media fetch</text>
<text text-anchor="start" x="841.5" y="-565.8" font-family="Arial" font-size="24.00" fill="#ffffff">tasks, policy rules, audit</text>
<text text-anchor="start" x="812" y="-541.8" font-family="Arial" font-size="24.00" fill="#ffffff">events, and deletion receipts.</text>
</g>
<!-- 25&#45;&gt;28 -->
<g id="47" class="edge">
<title>25&#45;&gt;28</title>
<path fill="none" stroke="#444444" stroke-dasharray="5,2" d="M387.28,-694.5C499.28,-694.5 644.73,-694.5 762.18,-694.5"/>
<polygon fill="#444444" stroke="#444444" points="762.37,-698 772.37,-694.5 762.37,-691 762.37,-698"/>
<text text-anchor="start" x="423" y="-743.3" font-family="Arial" font-size="24.00" fill="#444444">Leases and updates media</text>
<text text-anchor="start" x="528" y="-719.3" font-family="Arial" font-size="24.00" fill="#444444">tasks in</text>
<text text-anchor="start" x="535.5" y="-699.3" font-family="Arial" font-size="19.00" fill="#444444">[sqlite3]</text>
</g>
<!-- 30 -->
<g id="30" class="node">
<title>30</title>
<path fill="#2f95c8" stroke="#20688c" d="M1189,-1453.78C1189,-1477.97 1090.84,-1497.63 970,-1497.63 849.16,-1497.63 751,-1477.97 751,-1453.78 751,-1453.78 751,-1059.22 751,-1059.22 751,-1035.03 849.16,-1015.37 970,-1015.37 1090.84,-1015.37 1189,-1035.03 1189,-1059.22 1189,-1059.22 1189,-1453.78 1189,-1453.78"/>
<path fill="none" stroke="#20688c" d="M1189,-1453.78C1189,-1429.59 1090.84,-1409.94 970,-1409.94 849.16,-1409.94 751,-1429.59 751,-1453.78"/>
<text text-anchor="start" x="831" y="-1383.8" font-family="Arial" font-size="34.00" fill="#ffffff">Media Blob Cache</text>
<text text-anchor="start" x="780" y="-1361.8" font-family="Arial" font-size="19.00" fill="#ffffff">[Container: WSL or NAS&#45;mounted filesystem]</text>
<text text-anchor="start" x="836.5" y="-1324.8" font-family="Arial" font-size="24.00" fill="#ffffff">Bounded and disposable</text>
<text text-anchor="start" x="825.5" y="-1300.8" font-family="Arial" font-size="24.00" fill="#ffffff">filesystem cache for stored</text>
<text text-anchor="start" x="804.5" y="-1276.8" font-family="Arial" font-size="24.00" fill="#ffffff">image/video/audio blobs under</text>
<text text-anchor="start" x="826" y="-1252.8" font-family="Arial" font-size="24.00" fill="#ffffff">the configured WSL&#45;visible</text>
<text text-anchor="start" x="894.5" y="-1228.8" font-family="Arial" font-size="24.00" fill="#ffffff">blob root, with</text>
<text text-anchor="start" x="802.5" y="-1204.8" font-family="Arial" font-size="24.00" fill="#ffffff">purge/rehydrate semantics that</text>
<text text-anchor="start" x="813.5" y="-1180.8" font-family="Arial" font-size="24.00" fill="#ffffff">preserve media refs, hashes,</text>
<text text-anchor="start" x="797" y="-1156.8" font-family="Arial" font-size="24.00" fill="#ffffff">status reasons, and provenance</text>
<text text-anchor="start" x="833.5" y="-1132.8" font-family="Arial" font-size="24.00" fill="#ffffff">when bytes are absent or</text>
<text text-anchor="start" x="928.5" y="-1108.8" font-family="Arial" font-size="24.00" fill="#ffffff">purged.</text>
</g>
<!-- 25&#45;&gt;30 -->
<g id="49" class="edge">
<title>25&#45;&gt;30</title>
<path fill="none" stroke="#444444" stroke-dasharray="5,2" d="M387.28,-825.2C493.11,-903.66 628.82,-1004.28 742.54,-1088.59"/>
<polygon fill="#444444" stroke="#444444" points="740.57,-1091.49 750.68,-1094.64 744.74,-1085.87 740.57,-1091.49"/>
<text text-anchor="start" x="423" y="-1107.3" font-family="Arial" font-size="24.00" fill="#444444">Writes fetched media blobs</text>
<text text-anchor="start" x="558.5" y="-1083.3" font-family="Arial" font-size="24.00" fill="#444444">to</text>
<text text-anchor="start" x="517.5" y="-1063.3" font-family="Arial" font-size="19.00" fill="#444444">[Filesystem]</text>
</g>
</g>
</svg>
