<?xml version="1.0" encoding="UTF-8" standalone="no"?>
<!DOCTYPE svg PUBLIC "-//W3C//DTD SVG 1.1//EN"
 "http://www.w3.org/Graphics/SVG/1.1/DTD/svg11.dtd">
<!-- Generated by graphviz version 2.43.0 (0)
 -->
<!-- Title: %3 Pages: 1 -->
<svg width="2215pt" height="1403pt"
 viewBox="0.00 0.00 2215.00 1402.50" xmlns="http://www.w3.org/2000/svg" xmlns:xlink="http://www.w3.org/1999/xlink">
<g id="graph0" class="graph" transform="scale(1 1) rotate(0) translate(4 1398.5)">
<title>%3</title>
<polygon fill="white" stroke="transparent" points="-4,4 -4,-1398.5 2211,-1398.5 2211,4 -4,4"/>
<text text-anchor="start" x="572" y="-11.8" font-family="Arial" font-size="34.00">Component View: Browser Memory Daemon &#45; Chrome MV3 Extension</text>
<g id="clust1" class="cluster">
<title>cluster_4</title>
<polygon fill="none" stroke="#444444" points="8,-312.5 8,-1386.5 2199,-1386.5 2199,-312.5 8,-312.5"/>
<text text-anchor="start" x="962.5" y="-341.3" font-family="Arial" font-size="24.00" fill="#444444">Browser Memory Daemon</text>
<text text-anchor="start" x="1026.5" y="-321.3" font-family="Arial" font-size="19.00" fill="#444444">[Software System]</text>
</g>
<g id="clust2" class="cluster">
<title>cluster_5</title>
<polygon fill="none" stroke="#444444" points="33,-412.5 33,-1361.5 1351,-1361.5 1351,-412.5 33,-412.5"/>
<text text-anchor="start" x="564" y="-441.3" font-family="Arial" font-size="24.00" fill="#444444">Chrome MV3 Extension</text>
<text text-anchor="start" x="504" y="-421.3" font-family="Arial" font-size="19.00" fill="#444444">[Container: JavaScript, Chrome Manifest V3]</text>
</g>
<!-- 2 -->
<g id="2" class="node">
<title>2</title>
<polygon fill="#999999" stroke="#6b6b6b" points="453.5,-287 67.5,-287 67.5,-56 453.5,-56 453.5,-287"/>
<text text-anchor="start" x="126" y="-238.8" font-family="Arial" font-size="34.00" fill="#ffffff">Windows Chrome</text>
<text text-anchor="start" x="183.5" y="-216.8" font-family="Arial" font-size="19.00" fill="#ffffff">[Software System]</text>
<text text-anchor="start" x="96.5" y="-179.8" font-family="Arial" font-size="24.00" fill="#ffffff">The Windows Chrome runtime</text>
<text text-anchor="start" x="110" y="-155.8" font-family="Arial" font-size="24.00" fill="#ffffff">that loads web pages, hosts</text>
<text text-anchor="start" x="109.5" y="-131.8" font-family="Arial" font-size="24.00" fill="#ffffff">the MV3 extension, runs the</text>
<text text-anchor="start" x="101.5" y="-107.8" font-family="Arial" font-size="24.00" fill="#ffffff">local UI in a tab, and exposes</text>
<text text-anchor="start" x="131" y="-83.8" font-family="Arial" font-size="24.00" fill="#ffffff">Chrome extension APIs.</text>
</g>
<!-- 12 -->
<g id="12" class="node">
<title>12</title>
<polygon fill="#85bbf0" stroke="#1168bd" points="457,-1336 64,-1336 64,-1129 457,-1129 457,-1336"/>
<text text-anchor="start" x="93" y="-1287.8" font-family="Arial" font-size="34.00" fill="#000000">Popup and Options UI</text>
<text text-anchor="start" x="128" y="-1265.8" font-family="Arial" font-size="19.00" fill="#000000">[Component: HTML/JavaScript]</text>
<text text-anchor="start" x="102" y="-1228.8" font-family="Arial" font-size="24.00" fill="#000000">Lets the operator view status,</text>
<text text-anchor="start" x="101" y="-1204.8" font-family="Arial" font-size="24.00" fill="#000000">pause/resume capture, select</text>
<text text-anchor="start" x="102.5" y="-1180.8" font-family="Arial" font-size="24.00" fill="#000000">policy mode, and trigger local</text>
<text text-anchor="start" x="111.5" y="-1156.8" font-family="Arial" font-size="24.00" fill="#000000">controls from the extension.</text>
</g>
<!-- 9 -->
<g id="9" class="node">
<title>9</title>
<polygon fill="#85bbf0" stroke="#1168bd" points="1326,-1062 888,-1062 888,-831 1326,-831 1326,-1062"/>
<text text-anchor="start" x="991" y="-1013.8" font-family="Arial" font-size="34.00" fill="#000000">Service Worker</text>
<text text-anchor="start" x="917" y="-991.8" font-family="Arial" font-size="19.00" fill="#000000">[Component: JavaScript MV3 service worker]</text>
<text text-anchor="start" x="935.5" y="-954.8" font-family="Arial" font-size="24.00" fill="#000000">Owns daemon transport, bearer</text>
<text text-anchor="start" x="959.5" y="-930.8" font-family="Arial" font-size="24.00" fill="#000000">token use, capture and visit</text>
<text text-anchor="start" x="948" y="-906.8" font-family="Arial" font-size="24.00" fill="#000000">queues, lifecycle state, media</text>
<text text-anchor="start" x="971" y="-882.8" font-family="Arial" font-size="24.00" fill="#000000">queue draining, and CDP</text>
<text text-anchor="start" x="984.5" y="-858.8" font-family="Arial" font-size="24.00" fill="#000000">recorder orchestration.</text>
</g>
<!-- 12&#45;&gt;9 -->
<g id="60" class="edge">
<title>12&#45;&gt;9</title>
<path fill="none" stroke="#444444" stroke-dasharray="5,2" d="M426.65,-1128.89C439.65,-1117.72 451.99,-1105.88 463,-1093.5 485.73,-1067.95 470.91,-1045 499,-1025.5 559.44,-983.56 732.03,-963.88 877.79,-954.64"/>
<polygon fill="#444444" stroke="#444444" points="878.03,-958.14 887.8,-954.02 877.6,-951.15 878.03,-958.14"/>
<text text-anchor="start" x="553.5" y="-1098.3" font-family="Arial" font-size="24.00" fill="#444444">Updates pause, policy,</text>
<text text-anchor="start" x="573" y="-1074.3" font-family="Arial" font-size="24.00" fill="#444444">token, and controls</text>
<text text-anchor="start" x="634" y="-1050.3" font-family="Arial" font-size="24.00" fill="#444444">through</text>
<text text-anchor="start" x="499" y="-1030.3" font-family="Arial" font-size="19.00" fill="#444444">[chrome.storage.local, runtime messages]</text>
</g>
<!-- 14 -->
<g id="14" class="node">
<title>14</title>
<polygon fill="#438dd5" stroke="#2e6295" points="2174,-1361 1712,-1361 1712,-1024 2174,-1024 2174,-1361"/>
<text text-anchor="start" x="1778.5" y="-1312.8" font-family="Arial" font-size="34.00" fill="#ffffff">WSL Loopback HTTP</text>
<text text-anchor="start" x="1878.5" y="-1278.8" font-family="Arial" font-size="34.00" fill="#ffffff">Daemon</text>
<text text-anchor="start" x="1741" y="-1256.8" font-family="Arial" font-size="19.00" fill="#ffffff">[Container: Python 3.11, ThreadingHTTPServer]</text>
<text text-anchor="start" x="1782" y="-1219.8" font-family="Arial" font-size="24.00" fill="#ffffff">Authenticated loopback HTTP</text>
<text text-anchor="start" x="1807" y="-1195.8" font-family="Arial" font-size="24.00" fill="#ffffff">API that handles capture,</text>
<text text-anchor="start" x="1803.5" y="-1171.8" font-family="Arial" font-size="24.00" fill="#ffffff">visit events, media artifact</text>
<text text-anchor="start" x="1806.5" y="-1147.8" font-family="Arial" font-size="24.00" fill="#ffffff">upload/fetch/purge, exact</text>
<text text-anchor="start" x="1903" y="-1123.8" font-family="Arial" font-size="24.00" fill="#ffffff">search,</text>
<text text-anchor="start" x="1794" y="-1099.8" font-family="Arial" font-size="24.00" fill="#ffffff">recent/timeline/detail, policy</text>
<text text-anchor="start" x="1812" y="-1075.8" font-family="Arial" font-size="24.00" fill="#ffffff">rules, doctor, forget, and</text>
<text text-anchor="start" x="1853.5" y="-1051.8" font-family="Arial" font-size="24.00" fill="#ffffff">static UI serving.</text>
</g>
<!-- 12&#45;&gt;14 -->
<g id="61" class="edge">
<title>12&#45;&gt;14</title>
<path fill="none" stroke="#444444" stroke-dasharray="5,2" d="M457.2,-1231.43C730.24,-1229.39 1240.95,-1223.6 1676,-1207.5 1684.39,-1207.19 1692.92,-1206.85 1701.55,-1206.48"/>
<polygon fill="#444444" stroke="#444444" points="1701.86,-1209.97 1711.7,-1206.04 1701.56,-1202.98 1701.86,-1209.97"/>
<text text-anchor="start" x="962.5" y="-1274.3" font-family="Arial" font-size="24.00" fill="#444444">Checks health and triggers</text>
<text text-anchor="start" x="983" y="-1250.3" font-family="Arial" font-size="24.00" fill="#444444">forget/policy actions on</text>
<text text-anchor="start" x="1049" y="-1230.3" font-family="Arial" font-size="19.00" fill="#444444">[HTTP/JSON]</text>
</g>
<!-- 6 -->
<g id="6" class="node">
<title>6</title>
<polygon fill="#85bbf0" stroke="#1168bd" points="463,-1057 58,-1057 58,-816 463,-816 463,-1057"/>
<text text-anchor="start" x="162.5" y="-1008.8" font-family="Arial" font-size="34.00" fill="#000000">Manifest and</text>
<text text-anchor="start" x="101" y="-974.8" font-family="Arial" font-size="34.00" fill="#000000">Permission Envelope</text>
<text text-anchor="start" x="144.5" y="-952.8" font-family="Arial" font-size="19.00" fill="#000000">[Component: manifest.json]</text>
<text text-anchor="start" x="87" y="-915.8" font-family="Arial" font-size="24.00" fill="#000000">Declares MV3 permissions, host</text>
<text text-anchor="start" x="108.5" y="-891.8" font-family="Arial" font-size="24.00" fill="#000000">permissions, service worker,</text>
<text text-anchor="start" x="157" y="-867.8" font-family="Arial" font-size="24.00" fill="#000000">popup, and options</text>
<text text-anchor="start" x="197.5" y="-843.8" font-family="Arial" font-size="24.00" fill="#000000">entrypoints.</text>
</g>
<!-- 7 -->
<g id="7" class="node">
<title>7</title>
<polygon fill="#85bbf0" stroke="#1168bd" points="1304.5,-732 909.5,-732 909.5,-525 1304.5,-525 1304.5,-732"/>
<text text-anchor="start" x="1038.5" y="-683.8" font-family="Arial" font-size="34.00" fill="#000000">Extractor</text>
<text text-anchor="start" x="1003" y="-661.8" font-family="Arial" font-size="19.00" fill="#000000">[Component: JavaScript]</text>
<text text-anchor="start" x="938.5" y="-624.8" font-family="Arial" font-size="24.00" fill="#000000">Traverses visible DOM text and</text>
<text text-anchor="start" x="987" y="-600.8" font-family="Arial" font-size="24.00" fill="#000000">discovers image/video</text>
<text text-anchor="start" x="950" y="-576.8" font-family="Arial" font-size="24.00" fill="#000000">references while applying the</text>
<text text-anchor="start" x="990.5" y="-552.8" font-family="Arial" font-size="24.00" fill="#000000">selected policy mode.</text>
</g>
<!-- 8 -->
<g id="8" class="node">
<title>8</title>
<polygon fill="#85bbf0" stroke="#1168bd" points="456,-744 65,-744 65,-513 456,-513 456,-744"/>
<text text-anchor="start" x="152" y="-695.8" font-family="Arial" font-size="34.00" fill="#000000">Content Script</text>
<text text-anchor="start" x="97" y="-673.8" font-family="Arial" font-size="19.00" fill="#000000">[Component: JavaScript content script]</text>
<text text-anchor="start" x="120.5" y="-636.8" font-family="Arial" font-size="24.00" fill="#000000">Schedules initial, delayed,</text>
<text text-anchor="start" x="125" y="-612.8" font-family="Arial" font-size="24.00" fill="#000000">and SPA captures; tracks</text>
<text text-anchor="start" x="125.5" y="-588.8" font-family="Arial" font-size="24.00" fill="#000000">scroll; sends capture and</text>
<text text-anchor="start" x="94" y="-564.8" font-family="Arial" font-size="24.00" fill="#000000">inline blob upload messages to</text>
<text text-anchor="start" x="159.5" y="-540.8" font-family="Arial" font-size="24.00" fill="#000000">the service worker.</text>
</g>
<!-- 8&#45;&gt;7 -->
<g id="50" class="edge">
<title>8&#45;&gt;7</title>
<path fill="none" stroke="#444444" stroke-dasharray="5,2" d="M456.04,-628.5C588.74,-628.5 764.24,-628.5 899.42,-628.5"/>
<polygon fill="#444444" stroke="#444444" points="899.49,-632 909.49,-628.5 899.49,-625 899.49,-632"/>
<text text-anchor="start" x="547" y="-661.3" font-family="Arial" font-size="24.00" fill="#444444">Builds capture payloads</text>
<text text-anchor="start" x="654" y="-635.3" font-family="Arial" font-size="24.00" fill="#444444">with</text>
</g>
<!-- 8&#45;&gt;9 -->
<g id="51" class="edge">
<title>8&#45;&gt;9</title>
<path fill="none" stroke="#444444" stroke-dasharray="5,2" d="M456.04,-701.76C581.97,-749.17 746.46,-811.11 878.45,-860.81"/>
<polygon fill="#444444" stroke="#444444" points="877.3,-864.12 887.89,-864.37 879.77,-857.57 877.3,-864.12"/>
<text text-anchor="start" x="536" y="-892.3" font-family="Arial" font-size="24.00" fill="#444444">Sends captures and inline</text>
<text text-anchor="start" x="633" y="-868.3" font-family="Arial" font-size="24.00" fill="#444444">blobs to</text>
<text text-anchor="start" x="542.5" y="-848.3" font-family="Arial" font-size="19.00" fill="#444444">[chrome.runtime.sendMessage]</text>
</g>
<!-- 13 -->
<g id="13" class="node">
<title>13</title>
<path fill="#2f95c8" stroke="#20688c" d="M2169.5,-918.72C2169.5,-937.01 2067.98,-951.88 1943,-951.88 1818.02,-951.88 1716.5,-937.01 1716.5,-918.72 1716.5,-918.72 1716.5,-620.28 1716.5,-620.28 1716.5,-601.99 1818.02,-587.12 1943,-587.12 2067.98,-587.12 2169.5,-601.99 2169.5,-620.28 2169.5,-620.28 2169.5,-918.72 2169.5,-918.72"/>
<path fill="none" stroke="#20688c" d="M2169.5,-918.72C2169.5,-900.42 2067.98,-885.56 1943,-885.56 1818.02,-885.56 1716.5,-900.42 1716.5,-918.72"/>
<text text-anchor="start" x="1801" y="-853.8" font-family="Arial" font-size="34.00" fill="#ffffff">Extension Browser</text>
<text text-anchor="start" x="1883.5" y="-819.8" font-family="Arial" font-size="34.00" fill="#ffffff">Storage</text>
<text text-anchor="start" x="1745.5" y="-797.8" font-family="Arial" font-size="19.00" fill="#ffffff">[Container: chrome.storage.local + IndexedDB]</text>
<text text-anchor="start" x="1810.5" y="-760.8" font-family="Arial" font-size="24.00" fill="#ffffff">Browser&#45;side storage for</text>
<text text-anchor="start" x="1798.5" y="-736.8" font-family="Arial" font-size="24.00" fill="#ffffff">capture and visit queues in</text>
<text text-anchor="start" x="1804.5" y="-712.8" font-family="Arial" font-size="24.00" fill="#ffffff">chrome.storage.local plus</text>
<text text-anchor="start" x="1810.5" y="-688.8" font-family="Arial" font-size="24.00" fill="#ffffff">durable media tasks and</text>
<text text-anchor="start" x="1791.5" y="-664.8" font-family="Arial" font-size="24.00" fill="#ffffff">fetched blobs in IndexedDB.</text>
</g>
<!-- 9&#45;&gt;13 -->
<g id="52" class="edge">
<title>9&#45;&gt;13</title>
<path fill="none" stroke="#444444" stroke-dasharray="5,2" d="M1326.21,-883.18C1338.29,-880.13 1350.28,-877.22 1362,-874.5 1474.51,-848.43 1600.54,-824.94 1706.31,-806.82"/>
<polygon fill="#444444" stroke="#444444" points="1707.21,-810.22 1716.48,-805.09 1706.04,-803.32 1707.21,-810.22"/>
<text text-anchor="start" x="1413.5" y="-959.3" font-family="Arial" font-size="24.00" fill="#444444">Queues captures in</text>
<text text-anchor="start" x="1382.5" y="-933.3" font-family="Arial" font-size="24.00" fill="#444444">chrome.storage.local and</text>
<text text-anchor="start" x="1409" y="-907.3" font-family="Arial" font-size="24.00" fill="#444444">media tasks/blobs in</text>
<text text-anchor="start" x="1459" y="-881.3" font-family="Arial" font-size="24.00" fill="#444444">IndexedDB</text>
</g>
<!-- 9&#45;&gt;14 -->
<g id="53" class="edge">
<title>9&#45;&gt;14</title>
<path fill="none" stroke="#444444" stroke-dasharray="5,2" d="M1326.32,-1003.27C1432.3,-1031.64 1561.23,-1067.36 1676,-1102.5 1684.64,-1105.15 1693.43,-1107.88 1702.3,-1110.68"/>
<polygon fill="#444444" stroke="#444444" points="1701.35,-1114.05 1711.94,-1113.74 1703.47,-1107.38 1701.35,-1114.05"/>
<text text-anchor="start" x="1424.5" y="-1175.3" font-family="Arial" font-size="24.00" fill="#444444">Delivers /capture,</text>
<text text-anchor="start" x="1415" y="-1151.3" font-family="Arial" font-size="24.00" fill="#444444">/visit&#45;events, media</text>
<text text-anchor="start" x="1372.5" y="-1127.3" font-family="Arial" font-size="24.00" fill="#444444">metadata, and raw blobs to</text>
<text text-anchor="start" x="1362" y="-1107.3" font-family="Arial" font-size="19.00" fill="#444444">[Bearer HTTP/JSON; raw HTTP PUT]</text>
</g>
</g>
</svg>
