<?xml version="1.0" encoding="UTF-8" standalone="no"?>
<!DOCTYPE svg PUBLIC "-//W3C//DTD SVG 1.1//EN"
 "http://www.w3.org/Graphics/SVG/1.1/DTD/svg11.dtd">
<!-- Generated by graphviz version 2.43.0 (0)
 -->
<!-- Title: %3 Pages: 1 -->
<svg width="3739pt" height="1510pt"
 viewBox="0.00 0.00 3738.50 1510.35" xmlns="http://www.w3.org/2000/svg" xmlns:xlink="http://www.w3.org/1999/xlink">
<g id="graph0" class="graph" transform="scale(1 1) rotate(0) translate(4 1506.35)">
<title>%3</title>
<polygon fill="white" stroke="transparent" points="-4,4 -4,-1506.35 3734.5,-1506.35 3734.5,4 -4,4"/>
<text text-anchor="start" x="1360.75" y="-11.8" font-family="Arial" font-size="34.00">Browser Memory Daemon &#45; Chrome MV3 Extension &#45; Components</text>
<g id="clust1" class="cluster">
<title>cluster_6</title>
<polygon fill="none" stroke="#444444" points="8,-562.35 8,-1494.35 2909.5,-1494.35 2909.5,-562.35 8,-562.35"/>
<text text-anchor="start" x="1330.75" y="-591.15" font-family="Arial" font-size="24.00" fill="#444444">Chrome MV3 Extension</text>
<text text-anchor="start" x="1270.75" y="-571.15" font-family="Arial" font-size="19.00" fill="#444444">[Container: JavaScript, Chrome Manifest V3]</text>
</g>
<!-- 2 -->
<g id="2" class="node">
<title>2</title>
<polygon fill="#999999" stroke="#6b6b6b" points="418.5,-536.85 32.5,-536.85 32.5,-305.85 418.5,-305.85 418.5,-536.85"/>
<text text-anchor="start" x="91" y="-488.65" font-family="Arial" font-size="34.00" fill="#ffffff">Windows Chrome</text>
<text text-anchor="start" x="148.5" y="-466.65" font-family="Arial" font-size="19.00" fill="#ffffff">[Software System]</text>
<text text-anchor="start" x="61.5" y="-429.65" font-family="Arial" font-size="24.00" fill="#ffffff">The Windows Chrome runtime</text>
<text text-anchor="start" x="75" y="-405.65" font-family="Arial" font-size="24.00" fill="#ffffff">that loads web pages, hosts</text>
<text text-anchor="start" x="74.5" y="-381.65" font-family="Arial" font-size="24.00" fill="#ffffff">the MV3 extension, runs the</text>
<text text-anchor="start" x="66.5" y="-357.65" font-family="Arial" font-size="24.00" fill="#ffffff">local UI in a tab, and exposes</text>
<text text-anchor="start" x="96" y="-333.65" font-family="Arial" font-size="24.00" fill="#ffffff">Chrome extension APIs.</text>
</g>
<!-- 22 -->
<g id="22" class="node">
<title>22</title>
<path fill="#2f95c8" stroke="#20688c" d="M3730.5,-920.57C3730.5,-948.8 3628.98,-971.73 3504,-971.73 3379.02,-971.73 3277.5,-948.8 3277.5,-920.57 3277.5,-920.57 3277.5,-460.13 3277.5,-460.13 3277.5,-431.91 3379.02,-408.98 3504,-408.98 3628.98,-408.98 3730.5,-431.91 3730.5,-460.13 3730.5,-460.13 3730.5,-920.57 3730.5,-920.57"/>
<path fill="none" stroke="#20688c" d="M3730.5,-920.57C3730.5,-892.34 3628.98,-869.41 3504,-869.41 3379.02,-869.41 3277.5,-892.34 3277.5,-920.57"/>
<text text-anchor="start" x="3362" y="-846.65" font-family="Arial" font-size="34.00" fill="#ffffff">Extension Browser</text>
<text text-anchor="start" x="3444.5" y="-812.65" font-family="Arial" font-size="34.00" fill="#ffffff">Storage</text>
<text text-anchor="start" x="3306.5" y="-790.65" font-family="Arial" font-size="19.00" fill="#ffffff">[Container: chrome.storage.local + IndexedDB]</text>
<text text-anchor="start" x="3326.5" y="-753.65" font-family="Arial" font-size="24.00" fill="#ffffff">Browser&#45;side IndexedDB storage</text>
<text text-anchor="start" x="3417.5" y="-729.65" font-family="Arial" font-size="24.00" fill="#ffffff">for transactional</text>
<text text-anchor="start" x="3348.5" y="-705.65" font-family="Arial" font-size="24.00" fill="#ffffff">capture/lifecycle outbox rows</text>
<text text-anchor="start" x="3338.5" y="-681.65" font-family="Arial" font-size="24.00" fill="#ffffff">plus specialized durable media</text>
<text text-anchor="start" x="3440" y="-657.65" font-family="Arial" font-size="24.00" fill="#ffffff">tasks/blobs;</text>
<text text-anchor="start" x="3351.5" y="-633.65" font-family="Arial" font-size="24.00" fill="#ffffff">chrome.storage.local retains</text>
<text text-anchor="start" x="3352" y="-609.65" font-family="Arial" font-size="24.00" fill="#ffffff">typed configuration, lifecycle</text>
<text text-anchor="start" x="3336.5" y="-585.65" font-family="Arial" font-size="24.00" fill="#ffffff">tab state, minimal CDP capture</text>
<text text-anchor="start" x="3347.5" y="-561.65" font-family="Arial" font-size="24.00" fill="#ffffff">context, aggregate telemetry,</text>
<text text-anchor="start" x="3335.5" y="-537.65" font-family="Arial" font-size="24.00" fill="#ffffff">and one&#45;version queue fallback</text>
<text text-anchor="start" x="3479" y="-513.65" font-family="Arial" font-size="24.00" fill="#ffffff">only.</text>
</g>
<!-- 23 -->
<g id="23" class="node">
<title>23</title>
<polygon fill="#438dd5" stroke="#2e6295" points="2883.5,-488.85 2421.5,-488.85 2421.5,-247.85 2883.5,-247.85 2883.5,-488.85"/>
<text text-anchor="start" x="2488" y="-440.65" font-family="Arial" font-size="34.00" fill="#ffffff">WSL Loopback HTTP</text>
<text text-anchor="start" x="2588" y="-406.65" font-family="Arial" font-size="34.00" fill="#ffffff">Daemon</text>
<text text-anchor="start" x="2450.5" y="-384.65" font-family="Arial" font-size="19.00" fill="#ffffff">[Container: Python 3.11, ThreadingHTTPServer]</text>
<text text-anchor="start" x="2487" y="-347.65" font-family="Arial" font-size="24.00" fill="#ffffff">Authenticated loopback API for</text>
<text text-anchor="start" x="2508" y="-323.65" font-family="Arial" font-size="24.00" fill="#ffffff">capture, read/admin/media</text>
<text text-anchor="start" x="2508.5" y="-299.65" font-family="Arial" font-size="24.00" fill="#ffffff">operations, and query&#45;only</text>
<text text-anchor="start" x="2490" y="-275.65" font-family="Arial" font-size="24.00" fill="#ffffff">bmd.x&#45;observations v1 export.</text>
</g>
<!-- 10 -->
<g id="10" class="node">
<title>10</title>
<polygon fill="#85bbf0" stroke="#1168bd" points="1215.5,-1235.85 777.5,-1235.85 777.5,-1004.85 1215.5,-1004.85 1215.5,-1235.85"/>
<text text-anchor="start" x="880.5" y="-1187.65" font-family="Arial" font-size="34.00" fill="#000000">Service Worker</text>
<text text-anchor="start" x="806.5" y="-1165.65" font-family="Arial" font-size="19.00" fill="#000000">[Component: JavaScript MV3 service worker]</text>
<text text-anchor="start" x="810.5" y="-1128.65" font-family="Arial" font-size="24.00" fill="#000000">Composes extension modules and</text>
<text text-anchor="start" x="842" y="-1104.65" font-family="Arial" font-size="24.00" fill="#000000">registers MV3 message, tab,</text>
<text text-anchor="start" x="859" y="-1080.65" font-family="Arial" font-size="24.00" fill="#000000">window, debugger, alarm,</text>
<text text-anchor="start" x="871.5" y="-1056.65" font-family="Arial" font-size="24.00" fill="#000000">startup, and installation</text>
<text text-anchor="start" x="948" y="-1032.65" font-family="Arial" font-size="24.00" fill="#000000">listeners.</text>
</g>
<!-- 11 -->
<g id="11" class="node">
<title>11</title>
<polygon fill="#85bbf0" stroke="#1168bd" points="2044,-903.85 1580,-903.85 1580,-662.85 2044,-662.85 2044,-903.85"/>
<text text-anchor="start" x="1683" y="-855.65" font-family="Arial" font-size="34.00" fill="#000000">Extension Config</text>
<text text-anchor="start" x="1771" y="-821.65" font-family="Arial" font-size="34.00" fill="#000000">Store</text>
<text text-anchor="start" x="1609" y="-799.65" font-family="Arial" font-size="19.00" fill="#000000">[Component: JavaScript + chrome.storage.local]</text>
<text text-anchor="start" x="1675" y="-762.65" font-family="Arial" font-size="24.00" fill="#000000">Owns typed configuration</text>
<text text-anchor="start" x="1690.5" y="-738.65" font-family="Arial" font-size="24.00" fill="#000000">defaults/migration plus</text>
<text text-anchor="start" x="1650" y="-714.65" font-family="Arial" font-size="24.00" fill="#000000">durable visit and minimal CDP</text>
<text text-anchor="start" x="1691.5" y="-690.65" font-family="Arial" font-size="24.00" fill="#000000">capture&#45;context maps.</text>
</g>
<!-- 10&#45;&gt;11 -->
<g id="105" class="edge">
<title>10&#45;&gt;11</title>
<path fill="none" stroke="#707070" stroke-dasharray="5,2" d="M1215.5,-1030.04C1325.03,-984.67 1458.01,-929.58 1570.5,-882.98"/>
<polygon fill="#707070" stroke="#707070" points="1572.04,-886.13 1579.93,-879.07 1569.36,-879.67 1572.04,-886.13"/>
<polygon fill="white" stroke="transparent" points="1251.5,-1010.35 1251.5,-1096.35 1533.5,-1096.35 1533.5,-1010.35 1251.5,-1010.35"/>
<text text-anchor="start" x="1255.5" y="-1073.15" font-family="Arial" font-size="24.00" fill="#707070">Reads typed settings and</text>
<text text-anchor="start" x="1284" y="-1047.15" font-family="Arial" font-size="24.00" fill="#707070">durable restart state</text>
<text text-anchor="start" x="1351" y="-1021.15" font-family="Arial" font-size="24.00" fill="#707070">through</text>
</g>
<!-- 14 -->
<g id="14" class="node">
<title>14</title>
<polygon fill="#85bbf0" stroke="#1168bd" points="2054.5,-1264.85 1569.5,-1264.85 1569.5,-975.85 2054.5,-975.85 2054.5,-1264.85"/>
<text text-anchor="start" x="1647" y="-1216.65" font-family="Arial" font-size="34.00" fill="#000000">Capture and Lifecycle</text>
<text text-anchor="start" x="1763" y="-1182.65" font-family="Arial" font-size="34.00" fill="#000000">Bridge</text>
<text text-anchor="start" x="1708" y="-1160.65" font-family="Arial" font-size="19.00" fill="#000000">[Component: JavaScript]</text>
<text text-anchor="start" x="1686" y="-1123.65" font-family="Arial" font-size="24.00" fill="#000000">Owns daemon delivery,</text>
<text text-anchor="start" x="1703.5" y="-1099.65" font-family="Arial" font-size="24.00" fill="#000000">transactional outbox</text>
<text text-anchor="start" x="1598.5" y="-1075.65" font-family="Arial" font-size="24.00" fill="#000000">import/admission/drain/checkpoint/retry,</text>
<text text-anchor="start" x="1693" y="-1051.65" font-family="Arial" font-size="24.00" fill="#000000">legacy fallback, media</text>
<text text-anchor="start" x="1672" y="-1027.65" font-family="Arial" font-size="24.00" fill="#000000">compensation, and queue</text>
<text text-anchor="start" x="1776" y="-1003.65" font-family="Arial" font-size="24.00" fill="#000000">status.</text>
</g>
<!-- 10&#45;&gt;14 -->
<g id="111" class="edge">
<title>10&#45;&gt;14</title>
<path fill="none" stroke="#707070" stroke-dasharray="5,2" d="M1215.5,-1120.35C1321.39,-1120.35 1449.2,-1120.35 1559.22,-1120.35"/>
<polygon fill="#707070" stroke="#707070" points="1559.47,-1123.85 1569.47,-1120.35 1559.47,-1116.85 1559.47,-1123.85"/>
<polygon fill="white" stroke="transparent" points="1256.5,-1120.35 1256.5,-1206.35 1528.5,-1206.35 1528.5,-1120.35 1256.5,-1120.35"/>
<text text-anchor="start" x="1338" y="-1183.15" font-family="Arial" font-size="24.00" fill="#707070">Delegates</text>
<text text-anchor="start" x="1260.5" y="-1157.15" font-family="Arial" font-size="24.00" fill="#707070">capture/lifecycle delivery</text>
<text text-anchor="start" x="1278" y="-1131.15" font-family="Arial" font-size="24.00" fill="#707070">and durable drains to</text>
</g>
<!-- 16 -->
<g id="16" class="node">
<title>16</title>
<polygon fill="#85bbf0" stroke="#1168bd" points="2884.5,-1468.85 2420.5,-1468.85 2420.5,-1237.85 2884.5,-1237.85 2884.5,-1468.85"/>
<text text-anchor="start" x="2499" y="-1420.65" font-family="Arial" font-size="34.00" fill="#000000">Extension Telemetry</text>
<text text-anchor="start" x="2449.5" y="-1398.65" font-family="Arial" font-size="19.00" fill="#000000">[Component: JavaScript + chrome.storage.local]</text>
<text text-anchor="start" x="2551.5" y="-1361.65" font-family="Arial" font-size="24.00" fill="#000000">Persists aggregate</text>
<text text-anchor="start" x="2489.5" y="-1337.65" font-family="Arial" font-size="24.00" fill="#000000">bridge/queue/CDP status after</text>
<text text-anchor="start" x="2490.5" y="-1313.65" font-family="Arial" font-size="24.00" fill="#000000">recursively removing captured</text>
<text text-anchor="start" x="2547" y="-1289.65" font-family="Arial" font-size="24.00" fill="#000000">fields and redacting</text>
<text text-anchor="start" x="2545.5" y="-1265.65" font-family="Arial" font-size="24.00" fill="#000000">URL&#45;shaped errors.</text>
</g>
<!-- 10&#45;&gt;16 -->
<g id="113" class="edge">
<title>10&#45;&gt;16</title>
<path fill="none" stroke="#707070" stroke-dasharray="5,2" d="M1215.63,-1212.11C1227.7,-1216.42 1239.71,-1220.53 1251.5,-1224.35 1643.08,-1351.12 2126.23,-1366.86 2410.41,-1362.83"/>
<polygon fill="#707070" stroke="#707070" points="2410.49,-1366.33 2420.44,-1362.68 2410.38,-1359.33 2410.49,-1366.33"/>
<polygon fill="white" stroke="transparent" points="1659,-1354.35 1659,-1414.35 1965,-1414.35 1965,-1354.35 1659,-1354.35"/>
<text text-anchor="start" x="1669" y="-1391.15" font-family="Arial" font-size="24.00" fill="#707070">Creates the redaction&#45;safe</text>
<text text-anchor="start" x="1663" y="-1365.15" font-family="Arial" font-size="24.00" fill="#707070">telemetry boundary through</text>
</g>
<!-- 11&#45;&gt;22 -->
<g id="108" class="edge">
<title>11&#45;&gt;22</title>
<path fill="none" stroke="#707070" stroke-dasharray="5,2" d="M1871.46,-662.77C1961.51,-494.38 2152.25,-199.58 2420.5,-112.35 2627.18,-45.14 2708.16,-30.51 2909.5,-112.35 3063.84,-175.09 3200.01,-299.38 3302.87,-416.69"/>
<polygon fill="#707070" stroke="#707070" points="3300.38,-419.16 3309.59,-424.4 3305.66,-414.56 3300.38,-419.16"/>
<polygon fill="white" stroke="transparent" points="2515.5,-112.35 2515.5,-211.35 2789.5,-211.35 2789.5,-112.35 2515.5,-112.35"/>
<text text-anchor="start" x="2526" y="-188.65" font-family="Arial" font-size="24.00" fill="#707070">Reads and writes typed</text>
<text text-anchor="start" x="2519.5" y="-164.65" font-family="Arial" font-size="24.00" fill="#707070">settings and restart state</text>
<text text-anchor="start" x="2643" y="-140.65" font-family="Arial" font-size="24.00" fill="#707070">in</text>
<text text-anchor="start" x="2559" y="-120.65" font-family="Arial" font-size="19.00" fill="#707070">[chrome.storage.local]</text>
</g>
<!-- 14&#45;&gt;22 -->
<g id="115" class="edge">
<title>14&#45;&gt;22</title>
<path fill="none" stroke="#707070" stroke-dasharray="5,2" d="M2007.64,-975.62C2184.17,-844.44 2417.41,-671.37 2420.5,-670.35 2700.37,-577.98 3043.49,-606.27 3267.39,-642.05"/>
<polygon fill="#707070" stroke="#707070" points="3266.87,-645.52 3277.3,-643.66 3267.98,-638.61 3266.87,-645.52"/>
<polygon fill="white" stroke="transparent" points="2503.5,-670.35 2503.5,-769.35 2801.5,-769.35 2801.5,-670.35 2503.5,-670.35"/>
<text text-anchor="start" x="2511" y="-746.65" font-family="Arial" font-size="24.00" fill="#707070">Imports and preserves the</text>
<text text-anchor="start" x="2507.5" y="-722.65" font-family="Arial" font-size="24.00" fill="#707070">one&#45;version queue fallback</text>
<text text-anchor="start" x="2643" y="-698.65" font-family="Arial" font-size="24.00" fill="#707070">in</text>
<text text-anchor="start" x="2559" y="-678.65" font-family="Arial" font-size="19.00" fill="#707070">[chrome.storage.local]</text>
</g>
<!-- 14&#45;&gt;23 -->
<g id="117" class="edge">
<title>14&#45;&gt;23</title>
<path fill="none" stroke="#707070" stroke-dasharray="5,2" d="M2030.57,-975.58C2039.57,-964.44 2047.65,-952.7 2054.5,-940.35 2101.75,-855.13 2027.1,-577.35 2090.5,-503.35 2168.72,-412.06 2296.88,-376.69 2410.97,-364.88"/>
<polygon fill="#707070" stroke="#707070" points="2411.65,-368.33 2421.26,-363.87 2410.97,-361.36 2411.65,-368.33"/>
<polygon fill="white" stroke="transparent" points="2119,-503.35 2119,-578.35 2356,-578.35 2356,-503.35 2119,-503.35"/>
<text text-anchor="start" x="2123.5" y="-555.65" font-family="Arial" font-size="24.00" fill="#707070">Delivers /capture and</text>
<text text-anchor="start" x="2160.5" y="-531.65" font-family="Arial" font-size="24.00" fill="#707070">/visit&#45;events to</text>
<text text-anchor="start" x="2149" y="-511.65" font-family="Arial" font-size="19.00" fill="#707070">[Bearer HTTP/JSON]</text>
</g>
<!-- 14&#45;&gt;16 -->
<g id="118" class="edge">
<title>14&#45;&gt;16</title>
<path fill="none" stroke="#707070" stroke-dasharray="5,2" d="M2054.69,-1187.51C2166.45,-1218.56 2298.85,-1255.36 2410.53,-1286.39"/>
<polygon fill="#707070" stroke="#707070" points="2409.67,-1289.78 2420.24,-1289.09 2411.54,-1283.04 2409.67,-1289.78"/>
<polygon fill="white" stroke="transparent" points="2090.5,-1277.35 2090.5,-1337.35 2384.5,-1337.35 2384.5,-1277.35 2090.5,-1277.35"/>
<text text-anchor="start" x="2094.5" y="-1314.15" font-family="Arial" font-size="24.00" fill="#707070">Records aggregate outbox</text>
<text text-anchor="start" x="2160.5" y="-1288.15" font-family="Arial" font-size="24.00" fill="#707070">status through</text>
</g>
<!-- 17 -->
<g id="17" class="node">
<title>17</title>
<polygon fill="#85bbf0" stroke="#1168bd" points="2874,-1165.85 2431,-1165.85 2431,-804.85 2874,-804.85 2874,-1165.85"/>
<text text-anchor="start" x="2487.5" y="-1117.65" font-family="Arial" font-size="34.00" fill="#000000">Capture and Lifecycle</text>
<text text-anchor="start" x="2597.5" y="-1083.65" font-family="Arial" font-size="34.00" fill="#000000">Outbox</text>
<text text-anchor="start" x="2490.5" y="-1061.65" font-family="Arial" font-size="19.00" fill="#000000">[Component: JavaScript + IndexedDB]</text>
<text text-anchor="start" x="2496" y="-1024.65" font-family="Arial" font-size="24.00" fill="#000000">Persists capture and lifecycle</text>
<text text-anchor="start" x="2502" y="-1000.65" font-family="Arial" font-size="24.00" fill="#000000">messages as independently</text>
<text text-anchor="start" x="2476.5" y="-976.65" font-family="Arial" font-size="24.00" fill="#000000">sequenced IndexedDB rows with</text>
<text text-anchor="start" x="2616.5" y="-952.65" font-family="Arial" font-size="24.00" fill="#000000">atomic</text>
<text text-anchor="start" x="2460" y="-928.65" font-family="Arial" font-size="24.00" fill="#000000">enqueue/claim/checkpoint/ack/retry,</text>
<text text-anchor="start" x="2503.5" y="-904.65" font-family="Arial" font-size="24.00" fill="#000000">stale&#45;claim recovery, legacy</text>
<text text-anchor="start" x="2494" y="-880.65" font-family="Arial" font-size="24.00" fill="#000000">queue import, item admission</text>
<text text-anchor="start" x="2516.5" y="-856.65" font-family="Arial" font-size="24.00" fill="#000000">limits, and serialized&#45;byte</text>
<text text-anchor="start" x="2590.5" y="-832.65" font-family="Arial" font-size="24.00" fill="#000000">accounting.</text>
</g>
<!-- 14&#45;&gt;17 -->
<g id="114" class="edge">
<title>14&#45;&gt;17</title>
<path fill="none" stroke="#707070" stroke-dasharray="5,2" d="M2054.88,-1064.01C2066.9,-1061.66 2078.83,-1059.42 2090.5,-1057.35 2198.57,-1038.19 2319.23,-1022.04 2420.87,-1009.92"/>
<polygon fill="#707070" stroke="#707070" points="2421.44,-1013.37 2430.95,-1008.72 2420.61,-1006.42 2421.44,-1013.37"/>
<polygon fill="white" stroke="transparent" points="2096.5,-1057.35 2096.5,-1169.35 2378.5,-1169.35 2378.5,-1057.35 2096.5,-1057.35"/>
<text text-anchor="start" x="2139.5" y="-1146.15" font-family="Arial" font-size="24.00" fill="#707070">Enqueues, drains,</text>
<text text-anchor="start" x="2106" y="-1120.15" font-family="Arial" font-size="24.00" fill="#707070">checkpoints, retries, and</text>
<text text-anchor="start" x="2100.5" y="-1094.15" font-family="Arial" font-size="24.00" fill="#707070">recovers capture/lifecycle</text>
<text text-anchor="start" x="2167" y="-1068.15" font-family="Arial" font-size="24.00" fill="#707070">work through</text>
</g>
<!-- 16&#45;&gt;22 -->
<g id="125" class="edge">
<title>16&#45;&gt;22</title>
<path fill="none" stroke="#707070" stroke-dasharray="5,2" d="M2884.84,-1241.01C2998.47,-1180.01 3133.75,-1098.29 3241.5,-1006.35 3258.06,-992.22 3274.39,-976.96 3290.32,-961.04"/>
<polygon fill="#707070" stroke="#707070" points="3293.05,-963.25 3297.6,-953.68 3288.08,-958.32 3293.05,-963.25"/>
<polygon fill="white" stroke="transparent" points="2973.5,-1213.35 2973.5,-1288.35 3188.5,-1288.35 3188.5,-1213.35 2973.5,-1213.35"/>
<text text-anchor="start" x="2987.5" y="-1265.65" font-family="Arial" font-size="24.00" fill="#707070">Persists sanitized</text>
<text text-anchor="start" x="2978" y="-1241.65" font-family="Arial" font-size="24.00" fill="#707070">aggregate status in</text>
<text text-anchor="start" x="2988" y="-1221.65" font-family="Arial" font-size="19.00" fill="#707070">[chrome.storage.local]</text>
</g>
<!-- 17&#45;&gt;22 -->
<g id="119" class="edge">
<title>17&#45;&gt;22</title>
<path fill="none" stroke="#707070" stroke-dasharray="5,2" d="M2874.2,-908.71C2995.06,-866.74 3144.83,-814.73 3267.88,-772"/>
<polygon fill="#707070" stroke="#707070" points="3269.15,-775.26 3277.44,-768.68 3266.85,-768.65 3269.15,-775.26"/>
<polygon fill="white" stroke="transparent" points="2920.5,-889.35 2920.5,-988.35 3241.5,-988.35 3241.5,-889.35 2920.5,-889.35"/>
<text text-anchor="start" x="2925" y="-965.65" font-family="Arial" font-size="24.00" fill="#707070">Reads and writes sequenced</text>
<text text-anchor="start" x="2942" y="-941.65" font-family="Arial" font-size="24.00" fill="#707070">capture/lifecycle rows and</text>
<text text-anchor="start" x="2964.5" y="-917.65" font-family="Arial" font-size="24.00" fill="#707070">migration metadata in</text>
<text text-anchor="start" x="3029" y="-897.65" font-family="Arial" font-size="19.00" fill="#707070">[IndexedDB]</text>
</g>
<!-- 9 -->
<g id="9" class="node">
<title>9</title>
<polygon fill="#85bbf0" stroke="#1168bd" points="418,-1271.85 33,-1271.85 33,-968.85 418,-968.85 418,-1271.85"/>
<text text-anchor="start" x="117" y="-1223.65" font-family="Arial" font-size="34.00" fill="#000000">Content Script</text>
<text text-anchor="start" x="62" y="-1201.65" font-family="Arial" font-size="19.00" fill="#000000">[Component: JavaScript content script]</text>
<text text-anchor="start" x="85.5" y="-1164.65" font-family="Arial" font-size="24.00" fill="#000000">Schedules initial, delayed,</text>
<text text-anchor="start" x="66.5" y="-1140.65" font-family="Arial" font-size="24.00" fill="#000000">reinjected, and SPA captures;</text>
<text text-anchor="start" x="82.5" y="-1116.65" font-family="Arial" font-size="24.00" fill="#000000">computes full deterministic</text>
<text text-anchor="start" x="87.5" y="-1092.65" font-family="Arial" font-size="24.00" fill="#000000">SHA&#45;256 capture digests;</text>
<text text-anchor="start" x="99" y="-1068.65" font-family="Arial" font-size="24.00" fill="#000000">tracks scroll; and sends</text>
<text text-anchor="start" x="63.5" y="-1044.65" font-family="Arial" font-size="24.00" fill="#000000">capture and inline blob upload</text>
<text text-anchor="start" x="94.5" y="-1020.65" font-family="Arial" font-size="24.00" fill="#000000">messages to the service</text>
<text text-anchor="start" x="186" y="-996.65" font-family="Arial" font-size="24.00" fill="#000000">worker.</text>
</g>
<!-- 9&#45;&gt;10 -->
<g id="104" class="edge">
<title>9&#45;&gt;10</title>
<path fill="none" stroke="#707070" stroke-dasharray="5,2" d="M418.07,-1120.35C523.97,-1120.35 656.23,-1120.35 767.44,-1120.35"/>
<polygon fill="#707070" stroke="#707070" points="767.45,-1123.85 777.45,-1120.35 767.45,-1116.85 767.45,-1123.85"/>
<polygon fill="white" stroke="transparent" points="454.5,-1120.35 454.5,-1195.35 741.5,-1195.35 741.5,-1120.35 454.5,-1120.35"/>
<text text-anchor="start" x="459" y="-1172.65" font-family="Arial" font-size="24.00" fill="#707070">Sends captures and inline</text>
<text text-anchor="start" x="556" y="-1148.65" font-family="Arial" font-size="24.00" fill="#707070">blobs to</text>
<text text-anchor="start" x="465.5" y="-1128.65" font-family="Arial" font-size="19.00" fill="#707070">[chrome.runtime.sendMessage]</text>
</g>
</g>
</svg>
