<?xml version="1.0" encoding="UTF-8" standalone="no"?>
<!DOCTYPE svg PUBLIC "-//W3C//DTD SVG 1.1//EN"
 "http://www.w3.org/Graphics/SVG/1.1/DTD/svg11.dtd">
<!-- Generated by graphviz version 2.43.0 (0)
 -->
<!-- Title: %3 Pages: 1 -->
<svg width="3077pt" height="1766pt"
 viewBox="0.00 0.00 3077.00 1765.50" xmlns="http://www.w3.org/2000/svg" xmlns:xlink="http://www.w3.org/1999/xlink">
<g id="graph0" class="graph" transform="scale(1 1) rotate(0) translate(4 1761.5)">
<title>%3</title>
<polygon fill="white" stroke="transparent" points="-4,4 -4,-1761.5 3073,-1761.5 3073,4 -4,4"/>
<text text-anchor="start" x="1003" y="-11.8" font-family="Arial" font-size="34.00">Component View: Browser Memory Daemon &#45; Chrome MV3 Extension</text>
<g id="clust1" class="cluster">
<title>cluster_4</title>
<polygon fill="none" stroke="#444444" points="8,-312.5 8,-1749.5 3061,-1749.5 3061,-312.5 8,-312.5"/>
<text text-anchor="start" x="1393.5" y="-341.3" font-family="Arial" font-size="24.00" fill="#444444">Browser Memory Daemon</text>
<text text-anchor="start" x="1457.5" y="-321.3" font-family="Arial" font-size="19.00" fill="#444444">[Software System]</text>
</g>
<g id="clust2" class="cluster">
<title>cluster_5</title>
<polygon fill="none" stroke="#444444" points="33,-412.5 33,-1361.5 2205.5,-1361.5 2205.5,-412.5 33,-412.5"/>
<text text-anchor="start" x="991.25" y="-441.3" font-family="Arial" font-size="24.00" fill="#444444">Chrome MV3 Extension</text>
<text text-anchor="start" x="931.25" y="-421.3" font-family="Arial" font-size="19.00" fill="#444444">[Container: JavaScript, Chrome Manifest V3]</text>
</g>
<!-- 2 -->
<g id="2" class="node">
<title>2</title>
<polygon fill="#999999" stroke="#6b6b6b" points="453.5,-287 67.5,-287 67.5,-56 453.5,-56 453.5,-287"/>
<text text-anchor="start" x="126" y="-238.8" font-family="Arial" font-size="34.00" fill="#ffffff">Windows Chrome</text>
<text text-anchor="start" x="183.5" y="-216.8" font-family="Arial" font-size="19.00" fill="#ffffff">[Software System]</text>
<text text-anchor="start" x="96.5" y="-179.8" font-family="Arial" font-size="24.00" fill="#ffffff">The Windows Chrome runtime</text>
<text text-anchor="start" x="110" y="-155.8" font-family="Arial" font-size="24.00" fill="#ffffff">that loads web pages, hosts</text>
<text text-anchor="start" x="109.5" y="-131.8" font-family="Arial" font-size="24.00" fill="#ffffff">the MV3 extension, runs the</text>
<text text-anchor="start" x="101.5" y="-107.8" font-family="Arial" font-size="24.00" fill="#ffffff">local UI in a tab, and exposes</text>
<text text-anchor="start" x="131" y="-83.8" font-family="Arial" font-size="24.00" fill="#ffffff">Chrome extension APIs.</text>
</g>
<!-- 10 -->
<g id="10" class="node">
<title>10</title>
<polygon fill="#85bbf0" stroke="#1168bd" points="2180.5,-1023 1737.5,-1023 1737.5,-662 2180.5,-662 2180.5,-1023"/>
<text text-anchor="start" x="1794" y="-974.8" font-family="Arial" font-size="34.00" fill="#000000">Capture and Lifecycle</text>
<text text-anchor="start" x="1904" y="-940.8" font-family="Arial" font-size="34.00" fill="#000000">Outbox</text>
<text text-anchor="start" x="1797" y="-918.8" font-family="Arial" font-size="19.00" fill="#000000">[Component: JavaScript + IndexedDB]</text>
<text text-anchor="start" x="1802.5" y="-881.8" font-family="Arial" font-size="24.00" fill="#000000">Persists capture and lifecycle</text>
<text text-anchor="start" x="1808.5" y="-857.8" font-family="Arial" font-size="24.00" fill="#000000">messages as independently</text>
<text text-anchor="start" x="1783" y="-833.8" font-family="Arial" font-size="24.00" fill="#000000">sequenced IndexedDB rows with</text>
<text text-anchor="start" x="1923" y="-809.8" font-family="Arial" font-size="24.00" fill="#000000">atomic</text>
<text text-anchor="start" x="1766.5" y="-785.8" font-family="Arial" font-size="24.00" fill="#000000">enqueue/claim/checkpoint/ack/retry,</text>
<text text-anchor="start" x="1810" y="-761.8" font-family="Arial" font-size="24.00" fill="#000000">stale&#45;claim recovery, legacy</text>
<text text-anchor="start" x="1800.5" y="-737.8" font-family="Arial" font-size="24.00" fill="#000000">queue import, item admission</text>
<text text-anchor="start" x="1823" y="-713.8" font-family="Arial" font-size="24.00" fill="#000000">limits, and serialized&#45;byte</text>
<text text-anchor="start" x="1897" y="-689.8" font-family="Arial" font-size="24.00" fill="#000000">accounting.</text>
</g>
<!-- 14 -->
<g id="14" class="node">
<title>14</title>
<path fill="#2f95c8" stroke="#20688c" d="M3036,-1277.22C3036,-1303.79 2934.48,-1325.38 2809.5,-1325.38 2684.52,-1325.38 2583,-1303.79 2583,-1277.22 2583,-1277.22 2583,-843.78 2583,-843.78 2583,-817.21 2684.52,-795.62 2809.5,-795.62 2934.48,-795.62 3036,-817.21 3036,-843.78 3036,-843.78 3036,-1277.22 3036,-1277.22"/>
<path fill="none" stroke="#20688c" d="M3036,-1277.22C3036,-1250.64 2934.48,-1229.06 2809.5,-1229.06 2684.52,-1229.06 2583,-1250.64 2583,-1277.22"/>
<text text-anchor="start" x="2667.5" y="-1204.8" font-family="Arial" font-size="34.00" fill="#ffffff">Extension Browser</text>
<text text-anchor="start" x="2750" y="-1170.8" font-family="Arial" font-size="34.00" fill="#ffffff">Storage</text>
<text text-anchor="start" x="2612" y="-1148.8" font-family="Arial" font-size="19.00" fill="#ffffff">[Container: chrome.storage.local + IndexedDB]</text>
<text text-anchor="start" x="2632" y="-1111.8" font-family="Arial" font-size="24.00" fill="#ffffff">Browser&#45;side IndexedDB storage</text>
<text text-anchor="start" x="2723" y="-1087.8" font-family="Arial" font-size="24.00" fill="#ffffff">for transactional</text>
<text text-anchor="start" x="2654" y="-1063.8" font-family="Arial" font-size="24.00" fill="#ffffff">capture/lifecycle outbox rows</text>
<text text-anchor="start" x="2644" y="-1039.8" font-family="Arial" font-size="24.00" fill="#ffffff">plus specialized durable media</text>
<text text-anchor="start" x="2745.5" y="-1015.8" font-family="Arial" font-size="24.00" fill="#ffffff">tasks/blobs;</text>
<text text-anchor="start" x="2657" y="-991.8" font-family="Arial" font-size="24.00" fill="#ffffff">chrome.storage.local retains</text>
<text text-anchor="start" x="2657.5" y="-967.8" font-family="Arial" font-size="24.00" fill="#ffffff">typed configuration, lifecycle</text>
<text text-anchor="start" x="2701" y="-943.8" font-family="Arial" font-size="24.00" fill="#ffffff">tab state, aggregate</text>
<text text-anchor="start" x="2666.5" y="-919.8" font-family="Arial" font-size="24.00" fill="#ffffff">telemetry, and one&#45;version</text>
<text text-anchor="start" x="2703" y="-895.8" font-family="Arial" font-size="24.00" fill="#ffffff">queue fallback only.</text>
</g>
<!-- 10&#45;&gt;14 -->
<g id="78" class="edge">
<title>10&#45;&gt;14</title>
<path fill="none" stroke="#444444" stroke-dasharray="5,2" d="M2180.72,-899.21C2301.19,-930.16 2450.37,-968.49 2573.07,-1000.01"/>
<polygon fill="#444444" stroke="#444444" points="2572.42,-1003.46 2582.98,-1002.56 2574.17,-996.68 2572.42,-1003.46"/>
<polygon fill="white" stroke="transparent" points="2226,-989.5 2226,-1088.5 2547,-1088.5 2547,-989.5 2226,-989.5"/>
<text text-anchor="start" x="2230.5" y="-1065.8" font-family="Arial" font-size="24.00" fill="#444444">Reads and writes sequenced</text>
<text text-anchor="start" x="2247.5" y="-1041.8" font-family="Arial" font-size="24.00" fill="#444444">capture/lifecycle rows and</text>
<text text-anchor="start" x="2270" y="-1017.8" font-family="Arial" font-size="24.00" fill="#444444">migration metadata in</text>
<text text-anchor="start" x="2334.5" y="-997.8" font-family="Arial" font-size="19.00" fill="#444444">[IndexedDB]</text>
</g>
<!-- 13 -->
<g id="13" class="node">
<title>13</title>
<polygon fill="#85bbf0" stroke="#1168bd" points="457,-1336 64,-1336 64,-1129 457,-1129 457,-1336"/>
<text text-anchor="start" x="93" y="-1287.8" font-family="Arial" font-size="34.00" fill="#000000">Popup and Options UI</text>
<text text-anchor="start" x="128" y="-1265.8" font-family="Arial" font-size="19.00" fill="#000000">[Component: HTML/JavaScript]</text>
<text text-anchor="start" x="102" y="-1228.8" font-family="Arial" font-size="24.00" fill="#000000">Lets the operator view status,</text>
<text text-anchor="start" x="101" y="-1204.8" font-family="Arial" font-size="24.00" fill="#000000">pause/resume capture, select</text>
<text text-anchor="start" x="102.5" y="-1180.8" font-family="Arial" font-size="24.00" fill="#000000">policy mode, and trigger local</text>
<text text-anchor="start" x="111.5" y="-1156.8" font-family="Arial" font-size="24.00" fill="#000000">controls from the extension.</text>
</g>
<!-- 9 -->
<g id="9" class="node">
<title>9</title>
<polygon fill="#85bbf0" stroke="#1168bd" points="1334,-1307 896,-1307 896,-1028 1334,-1028 1334,-1307"/>
<text text-anchor="start" x="999" y="-1258.8" font-family="Arial" font-size="34.00" fill="#000000">Service Worker</text>
<text text-anchor="start" x="925" y="-1236.8" font-family="Arial" font-size="19.00" fill="#000000">[Component: JavaScript MV3 service worker]</text>
<text text-anchor="start" x="943.5" y="-1199.8" font-family="Arial" font-size="24.00" fill="#000000">Orchestrates daemon transport,</text>
<text text-anchor="start" x="984.5" y="-1175.8" font-family="Arial" font-size="24.00" fill="#000000">bearer token use, stable</text>
<text text-anchor="start" x="993.5" y="-1151.8" font-family="Arial" font-size="24.00" fill="#000000">observation/navigation</text>
<text text-anchor="start" x="994.5" y="-1127.8" font-family="Arial" font-size="24.00" fill="#000000">identity, lifecycle state,</text>
<text text-anchor="start" x="978.5" y="-1103.8" font-family="Arial" font-size="24.00" fill="#000000">outbox and media drains,</text>
<text text-anchor="start" x="974" y="-1079.8" font-family="Arial" font-size="24.00" fill="#000000">alarms, and CDP recorder</text>
<text text-anchor="start" x="1054.5" y="-1055.8" font-family="Arial" font-size="24.00" fill="#000000">integration.</text>
</g>
<!-- 13&#45;&gt;9 -->
<g id="87" class="edge">
<title>13&#45;&gt;9</title>
<path fill="none" stroke="#444444" stroke-dasharray="5,2" d="M442.25,-1128.87C460.97,-1121.43 480.08,-1115.08 499,-1110.5 624.83,-1080.07 768.76,-1091.02 885.73,-1111.09"/>
<polygon fill="#444444" stroke="#444444" points="885.44,-1114.59 895.89,-1112.86 886.64,-1107.69 885.44,-1114.59"/>
<polygon fill="white" stroke="transparent" points="499,-1110.5 499,-1209.5 860,-1209.5 860,-1110.5 499,-1110.5"/>
<text text-anchor="start" x="558" y="-1186.8" font-family="Arial" font-size="24.00" fill="#444444">Updates pause, policy,</text>
<text text-anchor="start" x="577.5" y="-1162.8" font-family="Arial" font-size="24.00" fill="#444444">token, and controls</text>
<text text-anchor="start" x="638.5" y="-1138.8" font-family="Arial" font-size="24.00" fill="#444444">through</text>
<text text-anchor="start" x="503.5" y="-1118.8" font-family="Arial" font-size="19.00" fill="#444444">[chrome.storage.local, runtime messages]</text>
</g>
<!-- 15 -->
<g id="15" class="node">
<title>15</title>
<polygon fill="#438dd5" stroke="#2e6295" points="2190,-1724 1728,-1724 1728,-1387 2190,-1387 2190,-1724"/>
<text text-anchor="start" x="1794.5" y="-1675.8" font-family="Arial" font-size="34.00" fill="#ffffff">WSL Loopback HTTP</text>
<text text-anchor="start" x="1894.5" y="-1641.8" font-family="Arial" font-size="34.00" fill="#ffffff">Daemon</text>
<text text-anchor="start" x="1757" y="-1619.8" font-family="Arial" font-size="19.00" fill="#ffffff">[Container: Python 3.11, ThreadingHTTPServer]</text>
<text text-anchor="start" x="1798" y="-1582.8" font-family="Arial" font-size="24.00" fill="#ffffff">Authenticated loopback HTTP</text>
<text text-anchor="start" x="1823" y="-1558.8" font-family="Arial" font-size="24.00" fill="#ffffff">API that handles capture,</text>
<text text-anchor="start" x="1819.5" y="-1534.8" font-family="Arial" font-size="24.00" fill="#ffffff">visit events, media artifact</text>
<text text-anchor="start" x="1822.5" y="-1510.8" font-family="Arial" font-size="24.00" fill="#ffffff">upload/fetch/purge, exact</text>
<text text-anchor="start" x="1919" y="-1486.8" font-family="Arial" font-size="24.00" fill="#ffffff">search,</text>
<text text-anchor="start" x="1810" y="-1462.8" font-family="Arial" font-size="24.00" fill="#ffffff">recent/timeline/detail, policy</text>
<text text-anchor="start" x="1807.5" y="-1438.8" font-family="Arial" font-size="24.00" fill="#ffffff">rules, doctor, durable forget,</text>
<text text-anchor="start" x="1846" y="-1414.8" font-family="Arial" font-size="24.00" fill="#ffffff">and static UI serving.</text>
</g>
<!-- 13&#45;&gt;15 -->
<g id="88" class="edge">
<title>13&#45;&gt;15</title>
<path fill="none" stroke="#444444" stroke-dasharray="5,2" d="M457.04,-1288.15C677.2,-1348.76 1046.48,-1444.27 1370,-1498.5 1483.55,-1517.53 1610.57,-1530.83 1717.42,-1539.77"/>
<polygon fill="#444444" stroke="#444444" points="1717.44,-1543.28 1727.7,-1540.62 1718.02,-1536.31 1717.44,-1543.28"/>
<polygon fill="white" stroke="transparent" points="966.5,-1489.5 966.5,-1564.5 1263.5,-1564.5 1263.5,-1489.5 966.5,-1489.5"/>
<text text-anchor="start" x="971" y="-1541.8" font-family="Arial" font-size="24.00" fill="#444444">Checks health and triggers</text>
<text text-anchor="start" x="991.5" y="-1517.8" font-family="Arial" font-size="24.00" fill="#444444">forget/policy actions on</text>
<text text-anchor="start" x="1057.5" y="-1497.8" font-family="Arial" font-size="19.00" fill="#444444">[HTTP/JSON]</text>
</g>
<!-- 6 -->
<g id="6" class="node">
<title>6</title>
<polygon fill="#85bbf0" stroke="#1168bd" points="463,-1057 58,-1057 58,-816 463,-816 463,-1057"/>
<text text-anchor="start" x="162.5" y="-1008.8" font-family="Arial" font-size="34.00" fill="#000000">Manifest and</text>
<text text-anchor="start" x="101" y="-974.8" font-family="Arial" font-size="34.00" fill="#000000">Permission Envelope</text>
<text text-anchor="start" x="144.5" y="-952.8" font-family="Arial" font-size="19.00" fill="#000000">[Component: manifest.json]</text>
<text text-anchor="start" x="87" y="-915.8" font-family="Arial" font-size="24.00" fill="#000000">Declares MV3 permissions, host</text>
<text text-anchor="start" x="108.5" y="-891.8" font-family="Arial" font-size="24.00" fill="#000000">permissions, service worker,</text>
<text text-anchor="start" x="157" y="-867.8" font-family="Arial" font-size="24.00" fill="#000000">popup, and options</text>
<text text-anchor="start" x="197.5" y="-843.8" font-family="Arial" font-size="24.00" fill="#000000">entrypoints.</text>
</g>
<!-- 7 -->
<g id="7" class="node">
<title>7</title>
<polygon fill="#85bbf0" stroke="#1168bd" points="1312.5,-732 917.5,-732 917.5,-525 1312.5,-525 1312.5,-732"/>
<text text-anchor="start" x="1046.5" y="-683.8" font-family="Arial" font-size="34.00" fill="#000000">Extractor</text>
<text text-anchor="start" x="1011" y="-661.8" font-family="Arial" font-size="19.00" fill="#000000">[Component: JavaScript]</text>
<text text-anchor="start" x="946.5" y="-624.8" font-family="Arial" font-size="24.00" fill="#000000">Traverses visible DOM text and</text>
<text text-anchor="start" x="995" y="-600.8" font-family="Arial" font-size="24.00" fill="#000000">discovers image/video</text>
<text text-anchor="start" x="958" y="-576.8" font-family="Arial" font-size="24.00" fill="#000000">references while applying the</text>
<text text-anchor="start" x="998.5" y="-552.8" font-family="Arial" font-size="24.00" fill="#000000">selected policy mode.</text>
</g>
<!-- 8 -->
<g id="8" class="node">
<title>8</title>
<polygon fill="#85bbf0" stroke="#1168bd" points="456,-744 65,-744 65,-513 456,-513 456,-744"/>
<text text-anchor="start" x="152" y="-695.8" font-family="Arial" font-size="34.00" fill="#000000">Content Script</text>
<text text-anchor="start" x="97" y="-673.8" font-family="Arial" font-size="19.00" fill="#000000">[Component: JavaScript content script]</text>
<text text-anchor="start" x="120.5" y="-636.8" font-family="Arial" font-size="24.00" fill="#000000">Schedules initial, delayed,</text>
<text text-anchor="start" x="125" y="-612.8" font-family="Arial" font-size="24.00" fill="#000000">and SPA captures; tracks</text>
<text text-anchor="start" x="125.5" y="-588.8" font-family="Arial" font-size="24.00" fill="#000000">scroll; sends capture and</text>
<text text-anchor="start" x="94" y="-564.8" font-family="Arial" font-size="24.00" fill="#000000">inline blob upload messages to</text>
<text text-anchor="start" x="159.5" y="-540.8" font-family="Arial" font-size="24.00" fill="#000000">the service worker.</text>
</g>
<!-- 8&#45;&gt;7 -->
<g id="75" class="edge">
<title>8&#45;&gt;7</title>
<path fill="none" stroke="#444444" stroke-dasharray="5,2" d="M456.01,-628.5C590.73,-628.5 769.82,-628.5 907.14,-628.5"/>
<polygon fill="#444444" stroke="#444444" points="907.37,-632 917.37,-628.5 907.37,-625 907.37,-632"/>
<polygon fill="white" stroke="transparent" points="547,-628.5 547,-688.5 812,-688.5 812,-628.5 547,-628.5"/>
<text text-anchor="start" x="551.5" y="-665.3" font-family="Arial" font-size="24.00" fill="#444444">Builds capture payloads</text>
<text text-anchor="start" x="658.5" y="-639.3" font-family="Arial" font-size="24.00" fill="#444444">with</text>
</g>
<!-- 8&#45;&gt;9 -->
<g id="76" class="edge">
<title>8&#45;&gt;9</title>
<path fill="none" stroke="#444444" stroke-dasharray="5,2" d="M452.21,-744.16C570.28,-816.32 724.66,-911.68 860,-998.5 872.04,-1006.23 884.37,-1014.2 896.8,-1022.29"/>
<polygon fill="#444444" stroke="#444444" points="895.12,-1025.38 905.41,-1027.91 898.95,-1019.52 895.12,-1025.38"/>
<polygon fill="white" stroke="transparent" points="536,-998.5 536,-1073.5 823,-1073.5 823,-998.5 536,-998.5"/>
<text text-anchor="start" x="540.5" y="-1050.8" font-family="Arial" font-size="24.00" fill="#444444">Sends captures and inline</text>
<text text-anchor="start" x="637.5" y="-1026.8" font-family="Arial" font-size="24.00" fill="#444444">blobs to</text>
<text text-anchor="start" x="547" y="-1006.8" font-family="Arial" font-size="19.00" fill="#444444">[chrome.runtime.sendMessage]</text>
</g>
<!-- 9&#45;&gt;10 -->
<g id="77" class="edge">
<title>9&#45;&gt;10</title>
<path fill="none" stroke="#444444" stroke-dasharray="5,2" d="M1186.19,-1027.64C1229.01,-958.65 1290.82,-882.12 1370,-843.5 1479.32,-790.18 1614.26,-786.27 1727.29,-797.34"/>
<polygon fill="#444444" stroke="#444444" points="1727.16,-800.84 1737.46,-798.38 1727.87,-793.88 1727.16,-800.84"/>
<polygon fill="white" stroke="transparent" points="1390,-843.5 1390,-955.5 1672,-955.5 1672,-843.5 1390,-843.5"/>
<text text-anchor="start" x="1433" y="-932.3" font-family="Arial" font-size="24.00" fill="#444444">Enqueues, drains,</text>
<text text-anchor="start" x="1399.5" y="-906.3" font-family="Arial" font-size="24.00" fill="#444444">checkpoints, retries, and</text>
<text text-anchor="start" x="1394" y="-880.3" font-family="Arial" font-size="24.00" fill="#444444">recovers capture/lifecycle</text>
<text text-anchor="start" x="1460.5" y="-854.3" font-family="Arial" font-size="24.00" fill="#444444">work through</text>
</g>
<!-- 9&#45;&gt;14 -->
<g id="79" class="edge">
<title>9&#45;&gt;14</title>
<path fill="none" stroke="#444444" stroke-dasharray="5,2" d="M1334.26,-1167.1C1615.45,-1164.54 2119.03,-1153.06 2547,-1106.5 2555.4,-1105.59 2563.94,-1104.57 2572.55,-1103.46"/>
<polygon fill="#444444" stroke="#444444" points="2573.23,-1106.9 2582.69,-1102.13 2572.32,-1099.96 2573.23,-1106.9"/>
<polygon fill="white" stroke="transparent" points="1812,-1158.5 1812,-1305.5 2106,-1305.5 2106,-1158.5 1812,-1158.5"/>
<text text-anchor="start" x="1883" y="-1282.8" font-family="Arial" font-size="24.00" fill="#444444">Persists typed</text>
<text text-anchor="start" x="1840" y="-1258.8" font-family="Arial" font-size="24.00" fill="#444444">configuration, lifecycle</text>
<text text-anchor="start" x="1850.5" y="-1234.8" font-family="Arial" font-size="24.00" fill="#444444">tab state, aggregate</text>
<text text-anchor="start" x="1816" y="-1210.8" font-family="Arial" font-size="24.00" fill="#444444">telemetry, and one&#45;version</text>
<text text-anchor="start" x="1868" y="-1186.8" font-family="Arial" font-size="24.00" fill="#444444">queue fallback in</text>
<text text-anchor="start" x="1865.5" y="-1166.8" font-family="Arial" font-size="19.00" fill="#444444">[chrome.storage.local]</text>
</g>
<!-- 9&#45;&gt;15 -->
<g id="80" class="edge">
<title>9&#45;&gt;15</title>
<path fill="none" stroke="#444444" stroke-dasharray="5,2" d="M1334.22,-1238.09C1443.88,-1276.55 1577.45,-1328 1692,-1385.5 1700.91,-1389.97 1709.89,-1394.67 1718.9,-1399.53"/>
<polygon fill="#444444" stroke="#444444" points="1717.46,-1402.73 1727.91,-1404.45 1720.81,-1396.58 1717.46,-1402.73"/>
<polygon fill="white" stroke="transparent" points="1370,-1385.5 1370,-1484.5 1692,-1484.5 1692,-1385.5 1370,-1385.5"/>
<text text-anchor="start" x="1436.5" y="-1461.8" font-family="Arial" font-size="24.00" fill="#444444">Delivers /capture,</text>
<text text-anchor="start" x="1427" y="-1437.8" font-family="Arial" font-size="24.00" fill="#444444">/visit&#45;events, media</text>
<text text-anchor="start" x="1384.5" y="-1413.8" font-family="Arial" font-size="24.00" fill="#444444">metadata, and raw blobs to</text>
<text text-anchor="start" x="1374" y="-1393.8" font-family="Arial" font-size="19.00" fill="#444444">[Bearer HTTP/JSON; raw HTTP PUT]</text>
</g>
</g>
</svg>
