<?xml version="1.0" encoding="UTF-8" standalone="no"?>
<!DOCTYPE svg PUBLIC "-//W3C//DTD SVG 1.1//EN"
 "http://www.w3.org/Graphics/SVG/1.1/DTD/svg11.dtd">
<!-- Generated by graphviz version 2.43.0 (0)
 -->
<!-- Title: %3 Pages: 1 -->
<svg width="2138pt" height="1990pt"
 viewBox="0.00 0.00 2138.00 1989.75" xmlns="http://www.w3.org/2000/svg" xmlns:xlink="http://www.w3.org/1999/xlink">
<g id="graph0" class="graph" transform="scale(1 1) rotate(0) translate(4 1985.75)">
<title>%3</title>
<polygon fill="white" stroke="transparent" points="-4,4 -4,-1985.75 2134,-1985.75 2134,4 -4,4"/>
<text text-anchor="start" x="742.5" y="-11.8" font-family="Arial" font-size="34.00">Container View: Browser Memory Daemon</text>
<g id="clust1" class="cluster">
<title>cluster_4</title>
<polygon fill="none" stroke="#444444" points="8,-64 8,-1973.75 1528,-1973.75 1528,-64 8,-64"/>
<text text-anchor="start" x="627" y="-92.8" font-family="Arial" font-size="24.00" fill="#444444">Browser Memory Daemon</text>
<text text-anchor="start" x="691" y="-72.8" font-family="Arial" font-size="19.00" fill="#444444">[Software System]</text>
</g>
<!-- 3 -->
<g id="3" class="node">
<title>3</title>
<polygon fill="#999999" stroke="#6b6b6b" points="2044.5,-577.69 1641.5,-577.69 1641.5,-312.69 2044.5,-312.69 2044.5,-577.69"/>
<text text-anchor="start" x="1681.5" y="-529.49" font-family="Arial" font-size="34.00" fill="#ffffff">Web Sites and Media</text>
<text text-anchor="start" x="1789" y="-495.49" font-family="Arial" font-size="34.00" fill="#ffffff">Origins</text>
<text text-anchor="start" x="1766" y="-473.49" font-family="Arial" font-size="19.00" fill="#ffffff">[Software System]</text>
<text text-anchor="start" x="1733" y="-436.49" font-family="Arial" font-size="24.00" fill="#ffffff">External web pages,</text>
<text text-anchor="start" x="1680.5" y="-412.49" font-family="Arial" font-size="24.00" fill="#ffffff">image/video URLs, and media</text>
<text text-anchor="start" x="1670.5" y="-388.49" font-family="Arial" font-size="24.00" fill="#ffffff">CDNs that Chrome loads or that</text>
<text text-anchor="start" x="1680.5" y="-364.49" font-family="Arial" font-size="24.00" fill="#ffffff">sidecars fetch as page&#45;related</text>
<text text-anchor="start" x="1806.5" y="-340.49" font-family="Arial" font-size="24.00" fill="#ffffff">media.</text>
</g>
<!-- 14 -->
<g id="14" class="node">
<title>14</title>
<path fill="#2f95c8" stroke="#20688c" d="M739.5,-1378.78C739.5,-1405.35 637.98,-1426.94 513,-1426.94 388.02,-1426.94 286.5,-1405.35 286.5,-1378.78 286.5,-1378.78 286.5,-945.35 286.5,-945.35 286.5,-918.77 388.02,-897.19 513,-897.19 637.98,-897.19 739.5,-918.77 739.5,-945.35 739.5,-945.35 739.5,-1378.78 739.5,-1378.78"/>
<path fill="none" stroke="#20688c" d="M739.5,-1378.78C739.5,-1352.21 637.98,-1330.62 513,-1330.62 388.02,-1330.62 286.5,-1352.21 286.5,-1378.78"/>
<text text-anchor="start" x="371" y="-1306.36" font-family="Arial" font-size="34.00" fill="#ffffff">Extension Browser</text>
<text text-anchor="start" x="453.5" y="-1272.36" font-family="Arial" font-size="34.00" fill="#ffffff">Storage</text>
<text text-anchor="start" x="315.5" y="-1250.36" font-family="Arial" font-size="19.00" fill="#ffffff">[Container: chrome.storage.local + IndexedDB]</text>
<text text-anchor="start" x="335.5" y="-1213.36" font-family="Arial" font-size="24.00" fill="#ffffff">Browser&#45;side IndexedDB storage</text>
<text text-anchor="start" x="426.5" y="-1189.36" font-family="Arial" font-size="24.00" fill="#ffffff">for transactional</text>
<text text-anchor="start" x="357.5" y="-1165.36" font-family="Arial" font-size="24.00" fill="#ffffff">capture/lifecycle outbox rows</text>
<text text-anchor="start" x="347.5" y="-1141.36" font-family="Arial" font-size="24.00" fill="#ffffff">plus specialized durable media</text>
<text text-anchor="start" x="449" y="-1117.36" font-family="Arial" font-size="24.00" fill="#ffffff">tasks/blobs;</text>
<text text-anchor="start" x="360.5" y="-1093.36" font-family="Arial" font-size="24.00" fill="#ffffff">chrome.storage.local retains</text>
<text text-anchor="start" x="361" y="-1069.36" font-family="Arial" font-size="24.00" fill="#ffffff">typed configuration, lifecycle</text>
<text text-anchor="start" x="404.5" y="-1045.36" font-family="Arial" font-size="24.00" fill="#ffffff">tab state, aggregate</text>
<text text-anchor="start" x="370" y="-1021.36" font-family="Arial" font-size="24.00" fill="#ffffff">telemetry, and one&#45;version</text>
<text text-anchor="start" x="406.5" y="-997.36" font-family="Arial" font-size="24.00" fill="#ffffff">queue fallback only.</text>
</g>
<!-- 15 -->
<g id="15" class="node">
<title>15</title>
<polygon fill="#438dd5" stroke="#2e6295" points="1274,-1330.56 812,-1330.56 812,-993.56 1274,-993.56 1274,-1330.56"/>
<text text-anchor="start" x="878.5" y="-1282.36" font-family="Arial" font-size="34.00" fill="#ffffff">WSL Loopback HTTP</text>
<text text-anchor="start" x="978.5" y="-1248.36" font-family="Arial" font-size="34.00" fill="#ffffff">Daemon</text>
<text text-anchor="start" x="841" y="-1226.36" font-family="Arial" font-size="19.00" fill="#ffffff">[Container: Python 3.11, ThreadingHTTPServer]</text>
<text text-anchor="start" x="882" y="-1189.36" font-family="Arial" font-size="24.00" fill="#ffffff">Authenticated loopback HTTP</text>
<text text-anchor="start" x="907" y="-1165.36" font-family="Arial" font-size="24.00" fill="#ffffff">API that handles capture,</text>
<text text-anchor="start" x="903.5" y="-1141.36" font-family="Arial" font-size="24.00" fill="#ffffff">visit events, media artifact</text>
<text text-anchor="start" x="906.5" y="-1117.36" font-family="Arial" font-size="24.00" fill="#ffffff">upload/fetch/purge, exact</text>
<text text-anchor="start" x="1003" y="-1093.36" font-family="Arial" font-size="24.00" fill="#ffffff">search,</text>
<text text-anchor="start" x="894" y="-1069.36" font-family="Arial" font-size="24.00" fill="#ffffff">recent/timeline/detail, policy</text>
<text text-anchor="start" x="891.5" y="-1045.36" font-family="Arial" font-size="24.00" fill="#ffffff">rules, doctor, durable forget,</text>
<text text-anchor="start" x="930" y="-1021.36" font-family="Arial" font-size="24.00" fill="#ffffff">and static UI serving.</text>
</g>
<!-- 15&#45;&gt;3 -->
<g id="120" class="edge">
<title>15&#45;&gt;3</title>
<path fill="none" stroke="#444444" stroke-dasharray="5,2" d="M1265.92,-993.27C1313.4,-952.67 1361.4,-907.57 1402,-861.38 1436.43,-822.2 1425.49,-796.42 1465,-762.38 1494.85,-736.66 1513.2,-748.2 1546,-726.38 1606.18,-686.32 1665.55,-633.71 1715.2,-584.91"/>
<polygon fill="#444444" stroke="#444444" points="1717.8,-587.26 1722.45,-577.74 1712.88,-582.28 1717.8,-587.26"/>
<polygon fill="white" stroke="transparent" points="1465,-774.38 1465,-849.38 1821,-849.38 1821,-774.38 1465,-774.38"/>
<text text-anchor="start" x="1528" y="-826.67" font-family="Arial" font-size="24.00" fill="#444444">Validates and fetches</text>
<text text-anchor="start" x="1547" y="-802.67" font-family="Arial" font-size="24.00" fill="#444444">public media from</text>
<text text-anchor="start" x="1469" y="-782.67" font-family="Arial" font-size="19.00" fill="#444444">[HTTP(S), no Referer or Chrome cookies]</text>
</g>
<!-- 40 -->
<g id="40" class="node">
<title>40</title>
<path fill="#2f95c8" stroke="#20688c" d="M428.5,-675.4C428.5,-703.63 339.98,-726.56 231,-726.56 122.02,-726.56 33.5,-703.63 33.5,-675.4 33.5,-675.4 33.5,-214.97 33.5,-214.97 33.5,-186.74 122.02,-163.81 231,-163.81 339.98,-163.81 428.5,-186.74 428.5,-214.97 428.5,-214.97 428.5,-675.4 428.5,-675.4"/>
<path fill="none" stroke="#20688c" d="M428.5,-675.4C428.5,-647.17 339.98,-624.24 231,-624.24 122.02,-624.24 33.5,-647.17 33.5,-675.4"/>
<text text-anchor="start" x="118" y="-601.49" font-family="Arial" font-size="34.00" fill="#ffffff">SQLite + FTS5</text>
<text text-anchor="start" x="158" y="-567.49" font-family="Arial" font-size="34.00" fill="#ffffff">Database</text>
<text text-anchor="start" x="105" y="-545.49" font-family="Arial" font-size="19.00" fill="#ffffff">[Container: SQLite with FTS5]</text>
<text text-anchor="start" x="63" y="-508.49" font-family="Arial" font-size="24.00" fill="#ffffff">Durable complete cleaned&#45;text,</text>
<text text-anchor="start" x="112" y="-484.49" font-family="Arial" font-size="24.00" fill="#ffffff">relational, and full&#45;text</text>
<text text-anchor="start" x="113.5" y="-460.49" font-family="Arial" font-size="24.00" fill="#ffffff">authority for migration</text>
<text text-anchor="start" x="79" y="-436.49" font-family="Arial" font-size="24.00" fill="#ffffff">ledger, sources, documents,</text>
<text text-anchor="start" x="81.5" y="-412.49" font-family="Arial" font-size="24.00" fill="#ffffff">visits, capture observations,</text>
<text text-anchor="start" x="100" y="-388.49" font-family="Arial" font-size="24.00" fill="#ffffff">URL claims, visit events,</text>
<text text-anchor="start" x="62.5" y="-364.49" font-family="Arial" font-size="24.00" fill="#ffffff">snapshots, chunks, chunks_fts,</text>
<text text-anchor="start" x="70" y="-340.49" font-family="Arial" font-size="24.00" fill="#ffffff">media provenance/tasks, blob</text>
<text text-anchor="start" x="106.5" y="-316.49" font-family="Arial" font-size="24.00" fill="#ffffff">lifecycle records, policy</text>
<text text-anchor="start" x="105.5" y="-292.49" font-family="Arial" font-size="24.00" fill="#ffffff">rules, audit events, and</text>
<text text-anchor="start" x="139" y="-268.49" font-family="Arial" font-size="24.00" fill="#ffffff">deletion receipts.</text>
</g>
<!-- 15&#45;&gt;40 -->
<g id="62" class="edge">
<title>15&#45;&gt;40</title>
<path fill="none" stroke="#444444" stroke-dasharray="5,2" d="M907.78,-993.3C868.96,-955.67 823.78,-920.18 775,-897.38 700.36,-862.49 472.35,-910.22 406,-861.38 362.41,-829.29 329.6,-784.21 304.93,-735.52"/>
<polygon fill="#444444" stroke="#444444" points="307.98,-733.8 300.41,-726.39 301.71,-736.9 307.98,-733.8"/>
<polygon fill="white" stroke="transparent" points="406,-762.38 406,-861.38 716,-861.38 716,-762.38 406,-762.38"/>
<text text-anchor="start" x="410" y="-838.67" font-family="Arial" font-size="24.00" fill="#444444">Reads and writes metadata,</text>
<text text-anchor="start" x="443" y="-814.67" font-family="Arial" font-size="24.00" fill="#444444">FTS, tasks, audit, and</text>
<text text-anchor="start" x="505.5" y="-790.67" font-family="Arial" font-size="24.00" fill="#444444">receipts in</text>
<text text-anchor="start" x="527.5" y="-770.67" font-family="Arial" font-size="19.00" fill="#444444">[sqlite3]</text>
</g>
<!-- 42 -->
<g id="42" class="node">
<title>42</title>
<path fill="#2f95c8" stroke="#20688c" d="M1045,-621.4C1045,-643.01 923.09,-660.56 773,-660.56 622.91,-660.56 501,-643.01 501,-621.4 501,-621.4 501,-268.97 501,-268.97 501,-247.36 622.91,-229.81 773,-229.81 923.09,-229.81 1045,-247.36 1045,-268.97 1045,-268.97 1045,-621.4 1045,-621.4"/>
<path fill="none" stroke="#20688c" d="M1045,-621.4C1045,-599.8 923.09,-582.24 773,-582.24 622.91,-582.24 501,-599.8 501,-621.4"/>
<text text-anchor="start" x="617.5" y="-553.49" font-family="Arial" font-size="34.00" fill="#ffffff">Guarded Media Blob</text>
<text text-anchor="start" x="723.5" y="-519.49" font-family="Arial" font-size="34.00" fill="#ffffff">Cache</text>
<text text-anchor="start" x="530" y="-497.49" font-family="Arial" font-size="19.00" fill="#ffffff">[Container: WSL&#45;visible local or NAS&#45;mounted filesystem]</text>
<text text-anchor="start" x="663" y="-460.49" font-family="Arial" font-size="24.00" fill="#ffffff">Bounded disposable</text>
<text text-anchor="start" x="607.5" y="-436.49" font-family="Arial" font-size="24.00" fill="#ffffff">image/video/audio bytes under</text>
<text text-anchor="start" x="631.5" y="-412.49" font-family="Arial" font-size="24.00" fill="#ffffff">the configured media root;</text>
<text text-anchor="start" x="659" y="-388.49" font-family="Arial" font-size="24.00" fill="#ffffff">explicit external roots</text>
<text text-anchor="start" x="674" y="-364.49" font-family="Arial" font-size="24.00" fill="#ffffff">require mount and</text>
<text text-anchor="start" x="623.5" y="-340.49" font-family="Arial" font-size="24.00" fill="#ffffff">identity&#45;marker proof before</text>
<text text-anchor="start" x="732" y="-316.49" font-family="Arial" font-size="24.00" fill="#ffffff">access.</text>
</g>
<!-- 15&#45;&gt;42 -->
<g id="64" class="edge">
<title>15&#45;&gt;42</title>
<path fill="none" stroke="#444444" stroke-dasharray="5,2" d="M862.15,-993.36C813.04,-943.31 769.8,-893.34 757,-861.38 733.26,-802.1 727.85,-734.18 730.93,-670.68"/>
<polygon fill="#444444" stroke="#444444" points="734.43,-670.71 731.49,-660.53 727.44,-670.32 734.43,-670.71"/>
<polygon fill="white" stroke="transparent" points="757,-762.38 757,-861.38 1065,-861.38 1065,-762.38 757,-762.38"/>
<text text-anchor="start" x="786" y="-838.67" font-family="Arial" font-size="24.00" fill="#444444">Stores, serves, purges,</text>
<text text-anchor="start" x="761" y="-814.67" font-family="Arial" font-size="24.00" fill="#444444">and rehydrates media blobs</text>
<text text-anchor="start" x="901.5" y="-790.67" font-family="Arial" font-size="24.00" fill="#444444">in</text>
<text text-anchor="start" x="859.5" y="-770.67" font-family="Arial" font-size="19.00" fill="#444444">[Filesystem]</text>
</g>
<!-- 43 -->
<g id="43" class="node">
<title>43</title>
<path fill="#2f95c8" stroke="#20688c" d="M1503,-634.9C1503,-658.17 1416.49,-677.06 1310,-677.06 1203.51,-677.06 1117,-658.17 1117,-634.9 1117,-634.9 1117,-255.47 1117,-255.47 1117,-232.21 1203.51,-213.31 1310,-213.31 1416.49,-213.31 1503,-232.21 1503,-255.47 1503,-255.47 1503,-634.9 1503,-634.9"/>
<path fill="none" stroke="#20688c" d="M1503,-634.9C1503,-611.64 1416.49,-592.74 1310,-592.74 1203.51,-592.74 1117,-611.64 1117,-634.9"/>
<text text-anchor="start" x="1146" y="-565.49" font-family="Arial" font-size="34.00" fill="#ffffff">Bounded Local Media</text>
<text text-anchor="start" x="1266.5" y="-531.49" font-family="Arial" font-size="34.00" fill="#ffffff">Spool</text>
<text text-anchor="start" x="1170" y="-509.49" font-family="Arial" font-size="19.00" fill="#ffffff">[Container: WSL local filesystem]</text>
<text text-anchor="start" x="1158" y="-472.49" font-family="Arial" font-size="24.00" fill="#ffffff">Opt&#45;in durable outage buffer</text>
<text text-anchor="start" x="1161.5" y="-448.49" font-family="Arial" font-size="24.00" fill="#ffffff">beneath the local WSL data</text>
<text text-anchor="start" x="1188.5" y="-424.49" font-family="Arial" font-size="24.00" fill="#ffffff">root; admission counts</text>
<text text-anchor="start" x="1164.5" y="-400.49" font-family="Arial" font-size="24.00" fill="#ffffff">committed files and distinct</text>
<text text-anchor="start" x="1158" y="-376.49" font-family="Arial" font-size="24.00" fill="#ffffff">in&#45;flight SQLite reservations,</text>
<text text-anchor="start" x="1185" y="-352.49" font-family="Arial" font-size="24.00" fill="#ffffff">and drain verifies bytes</text>
<text text-anchor="start" x="1162.5" y="-328.49" font-family="Arial" font-size="24.00" fill="#ffffff">before tier transition/source</text>
<text text-anchor="start" x="1264" y="-304.49" font-family="Arial" font-size="24.00" fill="#ffffff">cleanup.</text>
</g>
<!-- 15&#45;&gt;43 -->
<g id="65" class="edge">
<title>15&#45;&gt;43</title>
<path fill="none" stroke="#444444" stroke-dasharray="5,2" d="M1057.38,-993.31C1067.31,-920.59 1084.01,-835.53 1112,-762.38 1123.02,-733.58 1136.78,-704.56 1151.89,-676.4"/>
<polygon fill="#444444" stroke="#444444" points="1155.14,-677.75 1156.84,-667.29 1148.99,-674.41 1155.14,-677.75"/>
<polygon fill="white" stroke="transparent" points="1112,-762.38 1112,-861.38 1388,-861.38 1388,-762.38 1112,-762.38"/>
<text text-anchor="start" x="1116" y="-838.67" font-family="Arial" font-size="24.00" fill="#444444">Stores and serves media</text>
<text text-anchor="start" x="1143" y="-814.67" font-family="Arial" font-size="24.00" fill="#444444">during guarded&#45;root</text>
<text text-anchor="start" x="1194" y="-790.67" font-family="Arial" font-size="24.00" fill="#444444">outages in</text>
<text text-anchor="start" x="1198.5" y="-770.67" font-family="Arial" font-size="19.00" fill="#444444">[Filesystem]</text>
</g>
<!-- 5 -->
<g id="5" class="node">
<title>5</title>
<polygon fill="#438dd5" stroke="#2e6295" points="1225,-1948.75 791,-1948.75 791,-1669.75 1225,-1669.75 1225,-1948.75"/>
<text text-anchor="start" x="828" y="-1900.55" font-family="Arial" font-size="34.00" fill="#ffffff">Chrome MV3 Extension</text>
<text text-anchor="start" x="820" y="-1878.55" font-family="Arial" font-size="19.00" fill="#ffffff">[Container: JavaScript, Chrome Manifest V3]</text>
<text text-anchor="start" x="865" y="-1841.55" font-family="Arial" font-size="24.00" fill="#ffffff">Captures visible page text,</text>
<text text-anchor="start" x="890.5" y="-1817.55" font-family="Arial" font-size="24.00" fill="#ffffff">media references, tab</text>
<text text-anchor="start" x="899" y="-1793.55" font-family="Arial" font-size="24.00" fill="#ffffff">lifecycle events, and</text>
<text text-anchor="start" x="842" y="-1769.55" font-family="Arial" font-size="24.00" fill="#ffffff">browser&#45;side media bytes from</text>
<text text-anchor="start" x="837" y="-1745.55" font-family="Arial" font-size="24.00" fill="#ffffff">Windows Chrome; queues work</text>
<text text-anchor="start" x="849" y="-1721.55" font-family="Arial" font-size="24.00" fill="#ffffff">durably and posts to the WSL</text>
<text text-anchor="start" x="960.5" y="-1697.55" font-family="Arial" font-size="24.00" fill="#ffffff">daemon.</text>
</g>
<!-- 5&#45;&gt;3 -->
<g id="51" class="edge">
<title>5&#45;&gt;3</title>
<path fill="none" stroke="#444444" stroke-dasharray="5,2" d="M1225.1,-1781.48C1331.61,-1758.23 1454.95,-1714.82 1540,-1633.75 1832.05,-1355.36 1857.69,-837.83 1851.36,-588.16"/>
<polygon fill="#444444" stroke="#444444" points="1854.85,-587.83 1851.07,-577.93 1847.85,-588.03 1854.85,-587.83"/>
<polygon fill="white" stroke="transparent" points="1839,-1112.56 1839,-1211.56 2130,-1211.56 2130,-1112.56 1839,-1112.56"/>
<text text-anchor="start" x="1862.5" y="-1188.86" font-family="Arial" font-size="24.00" fill="#444444">Extracts DOM refs and</text>
<text text-anchor="start" x="1902" y="-1164.86" font-family="Arial" font-size="24.00" fill="#444444">fetches queued</text>
<text text-anchor="start" x="1854.5" y="-1140.86" font-family="Arial" font-size="24.00" fill="#444444">credentialed media from</text>
<text text-anchor="start" x="1843.5" y="-1120.86" font-family="Arial" font-size="19.00" fill="#444444">[DOM; fetch(credentials: include)]</text>
</g>
<!-- 5&#45;&gt;14 -->
<g id="52" class="edge">
<title>5&#45;&gt;14</title>
<path fill="none" stroke="#444444" stroke-dasharray="5,2" d="M790.78,-1716.49C753.64,-1693.58 718.05,-1666.1 690,-1633.75 641.08,-1577.33 605.09,-1506.07 578.85,-1436.18"/>
<polygon fill="#444444" stroke="#444444" points="582.13,-1434.94 575.38,-1426.77 575.56,-1437.37 582.13,-1434.94"/>
<polygon fill="white" stroke="transparent" points="690,-1462.75 690,-1633.75 1001,-1633.75 1001,-1462.75 690,-1462.75"/>
<text text-anchor="start" x="727" y="-1611.05" font-family="Arial" font-size="24.00" fill="#444444">Persists configuration,</text>
<text text-anchor="start" x="749.5" y="-1587.05" font-family="Arial" font-size="24.00" fill="#444444">lifecycle tab state,</text>
<text text-anchor="start" x="735" y="-1563.05" font-family="Arial" font-size="24.00" fill="#444444">aggregate telemetry,</text>
<text text-anchor="start" x="719.5" y="-1539.05" font-family="Arial" font-size="24.00" fill="#444444">capture/lifecycle outbox</text>
<text text-anchor="start" x="722" y="-1515.05" font-family="Arial" font-size="24.00" fill="#444444">rows, media tasks, and</text>
<text text-anchor="start" x="804" y="-1491.05" font-family="Arial" font-size="24.00" fill="#444444">blobs in</text>
<text text-anchor="start" x="694.5" y="-1471.05" font-family="Arial" font-size="19.00" fill="#444444">[chrome.storage.local + IndexedDB]</text>
</g>
<!-- 5&#45;&gt;15 -->
<g id="53" class="edge">
<title>5&#45;&gt;15</title>
<path fill="none" stroke="#444444" stroke-dasharray="5,2" d="M1015.53,-1669.44C1020.74,-1573.39 1027.72,-1444.71 1033.34,-1341.1"/>
<polygon fill="#444444" stroke="#444444" points="1036.85,-1341.01 1033.9,-1330.84 1029.86,-1340.63 1036.85,-1341.01"/>
<polygon fill="white" stroke="transparent" points="1027,-1486.75 1027,-1609.75 1522,-1609.75 1522,-1486.75 1027,-1486.75"/>
<text text-anchor="start" x="1194" y="-1587.05" font-family="Arial" font-size="24.00" fill="#444444">Posts /capture,</text>
<text text-anchor="start" x="1171" y="-1563.05" font-family="Arial" font-size="24.00" fill="#444444">/visit&#45;events, media</text>
<text text-anchor="start" x="1148" y="-1539.05" font-family="Arial" font-size="24.00" fill="#444444">metadata, and raw blob</text>
<text text-anchor="start" x="1219" y="-1515.05" font-family="Arial" font-size="24.00" fill="#444444">uploads to</text>
<text text-anchor="start" x="1031.5" y="-1495.05" font-family="Arial" font-size="19.00" fill="#444444">[Bearer HTTP/JSON; raw HTTP PUT over 127.0.0.1:8765]</text>
</g>
</g>
</svg>
