<?xml version="1.0" encoding="UTF-8" standalone="no"?>
<!DOCTYPE svg PUBLIC "-//W3C//DTD SVG 1.1//EN"
 "http://www.w3.org/Graphics/SVG/1.1/DTD/svg11.dtd">
<!-- Generated by graphviz version 2.43.0 (0)
 -->
<!-- Title: %3 Pages: 1 -->
<svg width="2058pt" height="1223pt"
 viewBox="0.00 0.00 2058.00 1223.00" xmlns="http://www.w3.org/2000/svg" xmlns:xlink="http://www.w3.org/1999/xlink">
<g id="graph0" class="graph" transform="scale(1 1) rotate(0) translate(4 1219)">
<title>%3</title>
<polygon fill="white" stroke="transparent" points="-4,4 -4,-1219 2054,-1219 2054,4 -4,4"/>
<text text-anchor="start" x="440" y="-11.8" font-family="Arial" font-size="34.00">Component View: Browser Memory Daemon &#45; WSL Loopback HTTP Daemon</text>
<g id="clust1" class="cluster">
<title>cluster_4</title>
<polygon fill="none" stroke="#444444" points="8,-64 8,-1207 2042,-1207 2042,-64 8,-64"/>
<text text-anchor="start" x="884" y="-92.8" font-family="Arial" font-size="24.00" fill="#444444">Browser Memory Daemon</text>
<text text-anchor="start" x="948" y="-72.8" font-family="Arial" font-size="19.00" fill="#444444">[Software System]</text>
</g>
<g id="clust2" class="cluster">
<title>cluster_14</title>
<polygon fill="none" stroke="#444444" points="33,-411 33,-850 1256,-850 1256,-411 33,-411"/>
<text text-anchor="start" x="479" y="-439.8" font-family="Arial" font-size="24.00" fill="#444444">WSL Loopback HTTP Daemon</text>
<text text-anchor="start" x="442.5" y="-419.8" font-family="Arial" font-size="19.00" fill="#444444">[Container: Python 3.11, ThreadingHTTPServer]</text>
</g>
<!-- 15 -->
<g id="15" class="node">
<title>15</title>
<polygon fill="#85bbf0" stroke="#5d82a8" points="453,-783.5 58,-783.5 58,-552.5 453,-552.5 453,-783.5"/>
<text text-anchor="start" x="87" y="-735.3" font-family="Arial" font-size="34.00" fill="#000000">HTTP Request Router</text>
<text text-anchor="start" x="119" y="-713.3" font-family="Arial" font-size="19.00" fill="#000000">[Component: Python http.server]</text>
<text text-anchor="start" x="90" y="-676.3" font-family="Arial" font-size="24.00" fill="#000000">Routes loopback API requests,</text>
<text text-anchor="start" x="112.5" y="-652.3" font-family="Arial" font-size="24.00" fill="#000000">serves UI assets, enforces</text>
<text text-anchor="start" x="91.5" y="-628.3" font-family="Arial" font-size="24.00" fill="#000000">bearer auth for memory/admin</text>
<text text-anchor="start" x="106" y="-604.3" font-family="Arial" font-size="24.00" fill="#000000">APIs, and applies CORS for</text>
<text text-anchor="start" x="172" y="-580.3" font-family="Arial" font-size="24.00" fill="#000000">allowed origins.</text>
</g>
<!-- 20 -->
<g id="20" class="node">
<title>20</title>
<polygon fill="#85bbf0" stroke="#5d82a8" points="1231,-824.5 810,-824.5 810,-511.5 1231,-511.5 1231,-824.5"/>
<text text-anchor="start" x="917" y="-776.3" font-family="Arial" font-size="34.00" fill="#000000">Media Artifact</text>
<text text-anchor="start" x="953.5" y="-742.3" font-family="Arial" font-size="34.00" fill="#000000">Manager</text>
<text text-anchor="start" x="839" y="-720.3" font-family="Arial" font-size="19.00" fill="#000000">[Component: Python + sqlite3 + filesystem]</text>
<text text-anchor="start" x="874.5" y="-683.3" font-family="Arial" font-size="24.00" fill="#000000">Records media references,</text>
<text text-anchor="start" x="897" y="-659.3" font-family="Arial" font-size="24.00" fill="#000000">validates blob uploads,</text>
<text text-anchor="start" x="878.5" y="-635.3" font-family="Arial" font-size="24.00" fill="#000000">enforces MIME/size/cache</text>
<text text-anchor="start" x="920" y="-611.3" font-family="Arial" font-size="24.00" fill="#000000">gates, writes blobs</text>
<text text-anchor="start" x="886" y="-587.3" font-family="Arial" font-size="24.00" fill="#000000">atomically, queues public</text>
<text text-anchor="start" x="880.5" y="-563.3" font-family="Arial" font-size="24.00" fill="#000000">fetch tasks, and purges or</text>
<text text-anchor="start" x="884" y="-539.3" font-family="Arial" font-size="24.00" fill="#000000">rehydrates cache entries.</text>
</g>
<!-- 15&#45;&gt;20 -->
<g id="65" class="edge">
<title>15&#45;&gt;20</title>
<path fill="none" stroke="#444444" stroke-dasharray="5,2" d="M453.49,-668C559.46,-668 690.46,-668 799.73,-668"/>
<polygon fill="#444444" stroke="#444444" points="799.9,-671.5 809.9,-668 799.9,-664.5 799.9,-671.5"/>
<polygon fill="white" stroke="transparent" points="489,-668 489,-702 774,-702 774,-668 489,-668"/>
<text text-anchor="start" x="493.5" y="-678.8" font-family="Arial" font-size="24.00" fill="#444444">Routes media requests to</text>
</g>
<!-- 27 -->
<g id="27" class="node">
<title>27</title>
<path fill="#2f95c8" stroke="#20688c" d="M1974,-585.72C1974,-608.98 1895.11,-627.88 1798,-627.88 1700.89,-627.88 1622,-608.98 1622,-585.72 1622,-585.72 1622,-206.28 1622,-206.28 1622,-183.02 1700.89,-164.12 1798,-164.12 1895.11,-164.12 1974,-183.02 1974,-206.28 1974,-206.28 1974,-585.72 1974,-585.72"/>
<path fill="none" stroke="#20688c" d="M1974,-585.72C1974,-562.45 1895.11,-543.56 1798,-543.56 1700.89,-543.56 1622,-562.45 1622,-585.72"/>
<text text-anchor="start" x="1685" y="-516.3" font-family="Arial" font-size="34.00" fill="#ffffff">SQLite + FTS5</text>
<text text-anchor="start" x="1725" y="-482.3" font-family="Arial" font-size="34.00" fill="#ffffff">Database</text>
<text text-anchor="start" x="1672" y="-460.3" font-family="Arial" font-size="19.00" fill="#ffffff">[Container: SQLite with FTS5]</text>
<text text-anchor="start" x="1679" y="-423.3" font-family="Arial" font-size="24.00" fill="#ffffff">Durable relational and</text>
<text text-anchor="start" x="1661.5" y="-399.3" font-family="Arial" font-size="24.00" fill="#ffffff">full&#45;text store for sources,</text>
<text text-anchor="start" x="1677.5" y="-375.3" font-family="Arial" font-size="24.00" fill="#ffffff">documents, visits, visit</text>
<text text-anchor="start" x="1652" y="-351.3" font-family="Arial" font-size="24.00" fill="#ffffff">events, snapshots, chunks,</text>
<text text-anchor="start" x="1651" y="-327.3" font-family="Arial" font-size="24.00" fill="#ffffff">chunks_fts, media artifacts,</text>
<text text-anchor="start" x="1666" y="-303.3" font-family="Arial" font-size="24.00" fill="#ffffff">media fetch tasks, policy</text>
<text text-anchor="start" x="1672.5" y="-279.3" font-family="Arial" font-size="24.00" fill="#ffffff">rules, audit events, and</text>
<text text-anchor="start" x="1706" y="-255.3" font-family="Arial" font-size="24.00" fill="#ffffff">deletion receipts.</text>
</g>
<!-- 20&#45;&gt;27 -->
<g id="74" class="edge">
<title>20&#45;&gt;27</title>
<path fill="none" stroke="#444444" stroke-dasharray="5,2" d="M1231.11,-594.48C1350.11,-552.74 1497.72,-500.97 1612.34,-460.77"/>
<polygon fill="#444444" stroke="#444444" points="1613.65,-464.02 1621.93,-457.4 1611.34,-457.41 1613.65,-464.02"/>
<polygon fill="white" stroke="transparent" points="1267,-580 1267,-655 1543,-655 1543,-580 1267,-580"/>
<text text-anchor="start" x="1271" y="-632.3" font-family="Arial" font-size="24.00" fill="#444444">Updates media rows and</text>
<text text-anchor="start" x="1364" y="-608.3" font-family="Arial" font-size="24.00" fill="#444444">tasks in</text>
<text text-anchor="start" x="1371.5" y="-588.3" font-family="Arial" font-size="19.00" fill="#444444">[sqlite3]</text>
</g>
<!-- 29 -->
<g id="29" class="node">
<title>29</title>
<path fill="#2f95c8" stroke="#20688c" d="M2017,-1138.28C2017,-1162.47 1918.84,-1182.13 1798,-1182.13 1677.16,-1182.13 1579,-1162.47 1579,-1138.28 1579,-1138.28 1579,-743.72 1579,-743.72 1579,-719.53 1677.16,-699.87 1798,-699.87 1918.84,-699.87 2017,-719.53 2017,-743.72 2017,-743.72 2017,-1138.28 2017,-1138.28"/>
<path fill="none" stroke="#20688c" d="M2017,-1138.28C2017,-1114.09 1918.84,-1094.44 1798,-1094.44 1677.16,-1094.44 1579,-1114.09 1579,-1138.28"/>
<text text-anchor="start" x="1659" y="-1068.3" font-family="Arial" font-size="34.00" fill="#ffffff">Media Blob Cache</text>
<text text-anchor="start" x="1608" y="-1046.3" font-family="Arial" font-size="19.00" fill="#ffffff">[Container: WSL or NAS&#45;mounted filesystem]</text>
<text text-anchor="start" x="1664.5" y="-1009.3" font-family="Arial" font-size="24.00" fill="#ffffff">Bounded and disposable</text>
<text text-anchor="start" x="1653.5" y="-985.3" font-family="Arial" font-size="24.00" fill="#ffffff">filesystem cache for stored</text>
<text text-anchor="start" x="1632.5" y="-961.3" font-family="Arial" font-size="24.00" fill="#ffffff">image/video/audio blobs under</text>
<text text-anchor="start" x="1654" y="-937.3" font-family="Arial" font-size="24.00" fill="#ffffff">the configured WSL&#45;visible</text>
<text text-anchor="start" x="1722.5" y="-913.3" font-family="Arial" font-size="24.00" fill="#ffffff">blob root, with</text>
<text text-anchor="start" x="1630.5" y="-889.3" font-family="Arial" font-size="24.00" fill="#ffffff">purge/rehydrate semantics that</text>
<text text-anchor="start" x="1641.5" y="-865.3" font-family="Arial" font-size="24.00" fill="#ffffff">preserve media refs, hashes,</text>
<text text-anchor="start" x="1625" y="-841.3" font-family="Arial" font-size="24.00" fill="#ffffff">status reasons, and provenance</text>
<text text-anchor="start" x="1661.5" y="-817.3" font-family="Arial" font-size="24.00" fill="#ffffff">when bytes are absent or</text>
<text text-anchor="start" x="1756.5" y="-793.3" font-family="Arial" font-size="24.00" fill="#ffffff">purged.</text>
</g>
<!-- 20&#45;&gt;29 -->
<g id="75" class="edge">
<title>20&#45;&gt;29</title>
<path fill="none" stroke="#444444" stroke-dasharray="5,2" d="M1231.11,-741.79C1335.61,-778.58 1462.18,-823.13 1569.09,-860.77"/>
<polygon fill="#444444" stroke="#444444" points="1568.12,-864.14 1578.71,-864.16 1570.44,-857.53 1568.12,-864.14"/>
<polygon fill="white" stroke="transparent" points="1283.5,-848 1283.5,-923 1526.5,-923 1526.5,-848 1283.5,-848"/>
<text text-anchor="start" x="1288" y="-900.3" font-family="Arial" font-size="24.00" fill="#444444">Writes, serves, evicts,</text>
<text text-anchor="start" x="1299.5" y="-876.3" font-family="Arial" font-size="24.00" fill="#444444">and purges blobs in</text>
<text text-anchor="start" x="1354" y="-856.3" font-family="Arial" font-size="19.00" fill="#444444">[Filesystem]</text>
</g>
</g>
</svg>
