<?xml version="1.0" encoding="UTF-8" standalone="no"?>
<!DOCTYPE svg PUBLIC "-//W3C//DTD SVG 1.1//EN"
 "http://www.w3.org/Graphics/SVG/1.1/DTD/svg11.dtd">
<!-- Generated by graphviz version 2.43.0 (0)
 -->
<!-- Title: %3 Pages: 1 -->
<svg width="1244pt" height="1659pt"
 viewBox="0.00 0.00 1244.00 1659.00" xmlns="http://www.w3.org/2000/svg" xmlns:xlink="http://www.w3.org/1999/xlink">
<g id="graph0" class="graph" transform="scale(1 1) rotate(0) translate(4 1655)">
<title>%3</title>
<polygon fill="white" stroke="transparent" points="-4,4 -4,-1655 1240,-1655 1240,4 -4,4"/>
<text text-anchor="start" x="239.5" y="-11.8" font-family="Arial" font-size="34.00">Component View: Browser Memory Daemon &#45; CLI</text>
<g id="clust1" class="cluster">
<title>cluster_4</title>
<polygon fill="none" stroke="#444444" points="8,-64 8,-1643 1228,-1643 1228,-64 8,-64"/>
<text text-anchor="start" x="477" y="-92.8" font-family="Arial" font-size="24.00" fill="#444444">Browser Memory Daemon</text>
<text text-anchor="start" x="541" y="-72.8" font-family="Arial" font-size="19.00" fill="#444444">[Software System]</text>
</g>
<g id="clust2" class="cluster">
<title>cluster_29</title>
<polygon fill="none" stroke="#444444" points="33,-711 33,-1174 487,-1174 487,-711 33,-711"/>
<text text-anchor="start" x="241" y="-739.8" font-family="Arial" font-size="24.00" fill="#444444">CLI</text>
<text text-anchor="start" x="139" y="-719.8" font-family="Arial" font-size="19.00" fill="#444444">[Container: Python argparse]</text>
</g>
<!-- 30 -->
<g id="30" class="node">
<title>30</title>
<polygon fill="#85bbf0" stroke="#1168bd" points="462,-1148.5 58,-1148.5 58,-811.5 462,-811.5 462,-1148.5"/>
<text text-anchor="start" x="105.5" y="-1100.3" font-family="Arial" font-size="34.00" fill="#000000">Backup and Restore</text>
<text text-anchor="start" x="193" y="-1066.3" font-family="Arial" font-size="34.00" fill="#000000">Operator</text>
<text text-anchor="start" x="87" y="-1044.3" font-family="Arial" font-size="19.00" fill="#000000">[Component: Python sqlite3 + filesystem]</text>
<text text-anchor="start" x="111.5" y="-1007.3" font-family="Arial" font-size="24.00" fill="#000000">Creates dry&#45;run&#45;first SQLite</text>
<text text-anchor="start" x="114.5" y="-983.3" font-family="Arial" font-size="24.00" fill="#000000">online backup bundles with</text>
<text text-anchor="start" x="130.5" y="-959.3" font-family="Arial" font-size="24.00" fill="#000000">redaction&#45;safe SHA&#45;256</text>
<text text-anchor="start" x="112.5" y="-935.3" font-family="Arial" font-size="24.00" fill="#000000">manifests and verifies them</text>
<text text-anchor="start" x="123" y="-911.3" font-family="Arial" font-size="24.00" fill="#000000">into absent runtime roots;</text>
<text text-anchor="start" x="107.5" y="-887.3" font-family="Arial" font-size="24.00" fill="#000000">optionally carries referenced</text>
<text text-anchor="start" x="127.5" y="-863.3" font-family="Arial" font-size="24.00" fill="#000000">derivatives and excludes</text>
<text text-anchor="start" x="148.5" y="-839.3" font-family="Arial" font-size="24.00" fill="#000000">media/spool/secrets.</text>
</g>
<!-- 31 -->
<g id="31" class="node">
<title>31</title>
<path fill="#2f95c8" stroke="#20688c" d="M1203,-675.22C1203,-703.44 1114.48,-726.38 1005.5,-726.38 896.52,-726.38 808,-703.44 808,-675.22 808,-675.22 808,-214.78 808,-214.78 808,-186.56 896.52,-163.62 1005.5,-163.62 1114.48,-163.62 1203,-186.56 1203,-214.78 1203,-214.78 1203,-675.22 1203,-675.22"/>
<path fill="none" stroke="#20688c" d="M1203,-675.22C1203,-646.99 1114.48,-624.06 1005.5,-624.06 896.52,-624.06 808,-646.99 808,-675.22"/>
<text text-anchor="start" x="892.5" y="-601.3" font-family="Arial" font-size="34.00" fill="#ffffff">SQLite + FTS5</text>
<text text-anchor="start" x="932.5" y="-567.3" font-family="Arial" font-size="34.00" fill="#ffffff">Database</text>
<text text-anchor="start" x="879.5" y="-545.3" font-family="Arial" font-size="19.00" fill="#ffffff">[Container: SQLite with FTS5]</text>
<text text-anchor="start" x="837.5" y="-508.3" font-family="Arial" font-size="24.00" fill="#ffffff">Durable complete cleaned&#45;text,</text>
<text text-anchor="start" x="886.5" y="-484.3" font-family="Arial" font-size="24.00" fill="#ffffff">relational, and full&#45;text</text>
<text text-anchor="start" x="888" y="-460.3" font-family="Arial" font-size="24.00" fill="#ffffff">authority for migration</text>
<text text-anchor="start" x="853.5" y="-436.3" font-family="Arial" font-size="24.00" fill="#ffffff">ledger, sources, documents,</text>
<text text-anchor="start" x="856" y="-412.3" font-family="Arial" font-size="24.00" fill="#ffffff">visits, capture observations,</text>
<text text-anchor="start" x="874.5" y="-388.3" font-family="Arial" font-size="24.00" fill="#ffffff">URL claims, visit events,</text>
<text text-anchor="start" x="837" y="-364.3" font-family="Arial" font-size="24.00" fill="#ffffff">snapshots, chunks, chunks_fts,</text>
<text text-anchor="start" x="844.5" y="-340.3" font-family="Arial" font-size="24.00" fill="#ffffff">media provenance/tasks, blob</text>
<text text-anchor="start" x="881" y="-316.3" font-family="Arial" font-size="24.00" fill="#ffffff">lifecycle records, policy</text>
<text text-anchor="start" x="880" y="-292.3" font-family="Arial" font-size="24.00" fill="#ffffff">rules, audit events, and</text>
<text text-anchor="start" x="913.5" y="-268.3" font-family="Arial" font-size="24.00" fill="#ffffff">deletion receipts.</text>
</g>
<!-- 30&#45;&gt;31 -->
<g id="103" class="edge">
<title>30&#45;&gt;31</title>
<path fill="none" stroke="#444444" stroke-dasharray="5,2" d="M462.2,-835.22C566.88,-759.9 694.6,-668 799.79,-592.31"/>
<polygon fill="#444444" stroke="#444444" points="801.89,-595.11 807.96,-586.42 797.8,-589.42 801.89,-595.11"/>
<polygon fill="white" stroke="transparent" points="500,-806 500,-905 770,-905 770,-806 500,-806"/>
<text text-anchor="start" x="517.5" y="-882.3" font-family="Arial" font-size="24.00" fill="#444444">Creates and validates</text>
<text text-anchor="start" x="504" y="-858.3" font-family="Arial" font-size="24.00" fill="#444444">online SQLite snapshots</text>
<text text-anchor="start" x="610.5" y="-834.3" font-family="Arial" font-size="24.00" fill="#444444">from</text>
<text text-anchor="start" x="550.5" y="-814.3" font-family="Arial" font-size="19.00" fill="#444444">[sqlite3 backup API]</text>
</g>
<!-- 32 -->
<g id="32" class="node">
<title>32</title>
<path fill="#2f95c8" stroke="#20688c" d="M1203,-1129.22C1203,-1147.51 1114.48,-1162.38 1005.5,-1162.38 896.52,-1162.38 808,-1147.51 808,-1129.22 808,-1129.22 808,-830.78 808,-830.78 808,-812.49 896.52,-797.62 1005.5,-797.62 1114.48,-797.62 1203,-812.49 1203,-830.78 1203,-830.78 1203,-1129.22 1203,-1129.22"/>
<path fill="none" stroke="#20688c" d="M1203,-1129.22C1203,-1110.92 1114.48,-1096.06 1005.5,-1096.06 896.52,-1096.06 808,-1110.92 808,-1129.22"/>
<text text-anchor="start" x="884" y="-1064.3" font-family="Arial" font-size="34.00" fill="#ffffff">Local Derivative</text>
<text text-anchor="start" x="964.5" y="-1030.3" font-family="Arial" font-size="34.00" fill="#ffffff">Store</text>
<text text-anchor="start" x="865.5" y="-1008.3" font-family="Arial" font-size="19.00" fill="#ffffff">[Container: WSL local filesystem]</text>
<text text-anchor="start" x="852" y="-971.3" font-family="Arial" font-size="24.00" fill="#ffffff">Reconstructible compatibility</text>
<text text-anchor="start" x="837" y="-947.3" font-family="Arial" font-size="24.00" fill="#ffffff">evidence such as pre&#45;version&#45;9</text>
<text text-anchor="start" x="875.5" y="-923.3" font-family="Arial" font-size="24.00" fill="#ffffff">clean&#45;text sidecars; new</text>
<text text-anchor="start" x="882" y="-899.3" font-family="Arial" font-size="24.00" fill="#ffffff">captures create no text</text>
<text text-anchor="start" x="957" y="-875.3" font-family="Arial" font-size="24.00" fill="#ffffff">sidecars.</text>
</g>
<!-- 30&#45;&gt;32 -->
<g id="104" class="edge">
<title>30&#45;&gt;32</title>
<path fill="none" stroke="#444444" stroke-dasharray="5,2" d="M462.2,-980C566.25,-980 693.06,-980 797.89,-980"/>
<polygon fill="#444444" stroke="#444444" points="797.96,-983.5 807.96,-980 797.96,-976.5 797.96,-983.5"/>
<polygon fill="white" stroke="transparent" points="516.5,-980 516.5,-1079 753.5,-1079 753.5,-980 516.5,-980"/>
<text text-anchor="start" x="543.5" y="-1056.3" font-family="Arial" font-size="24.00" fill="#444444">Optionally copies</text>
<text text-anchor="start" x="521" y="-1032.3" font-family="Arial" font-size="24.00" fill="#444444">referenced contained</text>
<text text-anchor="start" x="549.5" y="-1008.3" font-family="Arial" font-size="24.00" fill="#444444">derivatives from</text>
<text text-anchor="start" x="584" y="-988.3" font-family="Arial" font-size="19.00" fill="#444444">[Filesystem]</text>
</g>
<!-- 35 -->
<g id="35" class="node">
<title>35</title>
<path fill="#2f95c8" stroke="#20688c" d="M1203,-1582.78C1203,-1602.01 1114.48,-1617.63 1005.5,-1617.63 896.52,-1617.63 808,-1602.01 808,-1582.78 808,-1582.78 808,-1269.22 808,-1269.22 808,-1249.99 896.52,-1234.37 1005.5,-1234.37 1114.48,-1234.37 1203,-1249.99 1203,-1269.22 1203,-1269.22 1203,-1582.78 1203,-1582.78"/>
<path fill="none" stroke="#20688c" d="M1203,-1582.78C1203,-1563.56 1114.48,-1547.94 1005.5,-1547.94 896.52,-1547.94 808,-1563.56 808,-1582.78"/>
<text text-anchor="start" x="837" y="-1517.3" font-family="Arial" font-size="34.00" fill="#ffffff">Local Backup Bundles</text>
<text text-anchor="start" x="885.5" y="-1495.3" font-family="Arial" font-size="19.00" fill="#ffffff">[Container: Local filesystem]</text>
<text text-anchor="start" x="880" y="-1458.3" font-family="Arial" font-size="24.00" fill="#ffffff">Operator&#45;selected local</text>
<text text-anchor="start" x="874" y="-1434.3" font-family="Arial" font-size="24.00" fill="#ffffff">directories containing an</text>
<text text-anchor="start" x="877" y="-1410.3" font-family="Arial" font-size="24.00" fill="#ffffff">online SQLite snapshot,</text>
<text text-anchor="start" x="846" y="-1386.3" font-family="Arial" font-size="24.00" fill="#ffffff">redaction&#45;safe hash manifest,</text>
<text text-anchor="start" x="877.5" y="-1362.3" font-family="Arial" font-size="24.00" fill="#ffffff">and optional referenced</text>
<text text-anchor="start" x="845" y="-1338.3" font-family="Arial" font-size="24.00" fill="#ffffff">derivatives; media, spool, and</text>
<text text-anchor="start" x="855" y="-1314.3" font-family="Arial" font-size="24.00" fill="#ffffff">secrets excluded by default.</text>
</g>
<!-- 30&#45;&gt;35 -->
<g id="106" class="edge">
<title>30&#45;&gt;35</title>
<path fill="none" stroke="#444444" stroke-dasharray="5,2" d="M462.2,-1100.69C566.67,-1163.36 694.09,-1239.79 799.15,-1302.82"/>
<polygon fill="#444444" stroke="#444444" points="797.58,-1305.96 807.96,-1308.1 801.19,-1299.96 797.58,-1305.96"/>
<polygon fill="white" stroke="transparent" points="498,-1281 498,-1380 772,-1380 772,-1281 498,-1281"/>
<text text-anchor="start" x="502" y="-1357.3" font-family="Arial" font-size="24.00" fill="#444444">Atomically publishes and</text>
<text text-anchor="start" x="516.5" y="-1333.3" font-family="Arial" font-size="24.00" fill="#444444">verifies manifests/files</text>
<text text-anchor="start" x="625.5" y="-1309.3" font-family="Arial" font-size="24.00" fill="#444444">in</text>
<text text-anchor="start" x="534.5" y="-1289.3" font-family="Arial" font-size="19.00" fill="#444444">[Filesystem + SHA&#45;256]</text>
</g>
</g>
</svg>
