<?xml version="1.0" encoding="UTF-8" standalone="no"?>
<!DOCTYPE svg PUBLIC "-//W3C//DTD SVG 1.1//EN"
 "http://www.w3.org/Graphics/SVG/1.1/DTD/svg11.dtd">
<!-- Generated by graphviz version 2.43.0 (0)
 -->
<!-- Title: %3 Pages: 1 -->
<svg width="2665pt" height="944pt"
 viewBox="0.00 0.00 2665.00 943.93" xmlns="http://www.w3.org/2000/svg" xmlns:xlink="http://www.w3.org/1999/xlink">
<g id="graph0" class="graph" transform="scale(1 1) rotate(0) translate(4 939.93)">
<title>%3</title>
<polygon fill="white" stroke="transparent" points="-4,4 -4,-939.93 2661,-939.93 2661,4 -4,4"/>
<text text-anchor="start" x="770.5" y="-11.8" font-family="Arial" font-size="34.00">Browser Memory Daemon &#45; WSL Loopback HTTP Daemon &#45; Components</text>
<g id="clust1" class="cluster">
<title>cluster_22</title>
<polygon fill="none" stroke="#444444" points="741,-228.43 741,-633.43 1967,-633.43 1967,-228.43 741,-228.43"/>
<text text-anchor="start" x="1188.5" y="-257.23" font-family="Arial" font-size="24.00" fill="#444444">WSL Loopback HTTP Daemon</text>
<text text-anchor="start" x="1152" y="-237.23" font-family="Arial" font-size="19.00" fill="#444444">[Container: Python 3.11, ThreadingHTTPServer]</text>
</g>
<!-- 45 -->
<g id="45" class="node">
<title>45</title>
<polygon fill="#438dd5" stroke="#2e6295" points="385,-935.93 0,-935.93 0,-560.93 385,-560.93 385,-935.93"/>
<text text-anchor="start" x="45.5" y="-887.73" font-family="Arial" font-size="34.00" fill="#ffffff">WSL Media Worker</text>
<text text-anchor="start" x="52.5" y="-865.73" font-family="Arial" font-size="19.00" fill="#ffffff">[Container: Python 3.11 CLI loop]</text>
<text text-anchor="start" x="45" y="-828.73" font-family="Arial" font-size="24.00" fill="#ffffff">Long&#45;running systemd user</text>
<text text-anchor="start" x="49.5" y="-804.73" font-family="Arial" font-size="24.00" fill="#ffffff">worker that first drains one</text>
<text text-anchor="start" x="29" y="-780.73" font-family="Arial" font-size="24.00" fill="#ffffff">bounded spool&#45;recovery batch</text>
<text text-anchor="start" x="33" y="-756.73" font-family="Arial" font-size="24.00" fill="#ffffff">when the guarded final root is</text>
<text text-anchor="start" x="94" y="-732.73" font-family="Arial" font-size="24.00" fill="#ffffff">ready, then leases</text>
<text text-anchor="start" x="46.5" y="-708.73" font-family="Arial" font-size="24.00" fill="#ffffff">daemon&#45;public media fetch</text>
<text text-anchor="start" x="83.5" y="-684.73" font-family="Arial" font-size="24.00" fill="#ffffff">tasks, fetches public</text>
<text text-anchor="start" x="44.5" y="-660.73" font-family="Arial" font-size="24.00" fill="#ffffff">media/HLS without Chrome</text>
<text text-anchor="start" x="49.5" y="-636.73" font-family="Arial" font-size="24.00" fill="#ffffff">cookies, classifies terminal</text>
<text text-anchor="start" x="46.5" y="-612.73" font-family="Arial" font-size="24.00" fill="#ffffff">states, and updates artifact</text>
<text text-anchor="start" x="163.5" y="-588.73" font-family="Arial" font-size="24.00" fill="#ffffff">rows.</text>
</g>
<!-- 49 -->
<g id="49" class="node">
<title>49</title>
<path fill="#2f95c8" stroke="#20688c" d="M2657,-461.64C2657,-479.94 2574.08,-494.8 2472,-494.8 2369.92,-494.8 2287,-479.94 2287,-461.64 2287,-461.64 2287,-163.21 2287,-163.21 2287,-144.91 2369.92,-130.05 2472,-130.05 2574.08,-130.05 2657,-144.91 2657,-163.21 2657,-163.21 2657,-461.64 2657,-461.64"/>
<path fill="none" stroke="#20688c" d="M2657,-461.64C2657,-443.35 2574.08,-428.48 2472,-428.48 2369.92,-428.48 2287,-443.35 2287,-461.64"/>
<text text-anchor="start" x="2359" y="-396.73" font-family="Arial" font-size="34.00" fill="#ffffff">SQLite + FTS5</text>
<text text-anchor="start" x="2399" y="-362.73" font-family="Arial" font-size="34.00" fill="#ffffff">Database</text>
<text text-anchor="start" x="2346" y="-340.73" font-family="Arial" font-size="19.00" fill="#ffffff">[Container: SQLite with FTS5]</text>
<text text-anchor="start" x="2352.5" y="-303.73" font-family="Arial" font-size="24.00" fill="#ffffff">Durable text/metadata</text>
<text text-anchor="start" x="2321" y="-279.73" font-family="Arial" font-size="24.00" fill="#ffffff">authority including migration</text>
<text text-anchor="start" x="2316" y="-255.73" font-family="Arial" font-size="24.00" fill="#ffffff">ledger, capture observations,</text>
<text text-anchor="start" x="2326" y="-231.73" font-family="Arial" font-size="24.00" fill="#ffffff">and immutable observation</text>
<text text-anchor="start" x="2374" y="-207.73" font-family="Arial" font-size="24.00" fill="#ffffff">ingest sequences.</text>
</g>
<!-- 45&#45;&gt;49 -->
<g id="75" class="edge">
<title>45&#45;&gt;49</title>
<path fill="none" stroke="#707070" stroke-dasharray="5,2" d="M385.06,-779.64C397.2,-781.08 409.26,-782.36 421,-783.43 562.7,-796.27 598.74,-790.43 741,-792.43 1289.43,-800.14 1446.57,-824.57 1967,-651.43 2101.48,-606.69 2133.82,-586.14 2251,-506.43 2260.36,-500.06 2269.76,-493.33 2279.11,-486.36"/>
<polygon fill="#707070" stroke="#707070" points="2281.44,-488.98 2287.32,-480.17 2277.23,-483.4 2281.44,-488.98"/>
<polygon fill="white" stroke="transparent" points="1193,-797.43 1193,-872.43 1493,-872.43 1493,-797.43 1193,-797.43"/>
<text text-anchor="start" x="1197" y="-849.73" font-family="Arial" font-size="24.00" fill="#707070">Leases and updates media</text>
<text text-anchor="start" x="1302" y="-825.73" font-family="Arial" font-size="24.00" fill="#707070">tasks in</text>
<text text-anchor="start" x="1309.5" y="-805.73" font-family="Arial" font-size="19.00" fill="#707070">[sqlite3]</text>
</g>
<!-- 32 -->
<g id="32" class="node">
<title>32</title>
<polygon fill="#85bbf0" stroke="#1168bd" points="1942,-607.93 1539,-607.93 1539,-328.93 1942,-328.93 1942,-607.93"/>
<text text-anchor="start" x="1568" y="-559.73" font-family="Arial" font-size="34.00" fill="#000000">Media Task Repository</text>
<text text-anchor="start" x="1612.5" y="-537.73" font-family="Arial" font-size="19.00" fill="#000000">[Component: Python + sqlite3]</text>
<text text-anchor="start" x="1591.5" y="-500.73" font-family="Arial" font-size="24.00" fill="#000000">Creates deterministic tasks,</text>
<text text-anchor="start" x="1607.5" y="-476.73" font-family="Arial" font-size="24.00" fill="#000000">preserves terminal state,</text>
<text text-anchor="start" x="1592.5" y="-452.73" font-family="Arial" font-size="24.00" fill="#000000">atomically leases due work,</text>
<text text-anchor="start" x="1599.5" y="-428.73" font-family="Arial" font-size="24.00" fill="#000000">recovers stale leases, and</text>
<text text-anchor="start" x="1581.5" y="-404.73" font-family="Arial" font-size="24.00" fill="#000000">applies bounded retry/backoff</text>
<text text-anchor="start" x="1581" y="-380.73" font-family="Arial" font-size="24.00" fill="#000000">outcomes independently from</text>
<text text-anchor="start" x="1652.5" y="-356.73" font-family="Arial" font-size="24.00" fill="#000000">media transport.</text>
</g>
<!-- 45&#45;&gt;32 -->
<g id="76" class="edge">
<title>45&#45;&gt;32</title>
<path fill="none" stroke="#707070" stroke-dasharray="5,2" d="M385.08,-742.41C644.07,-729.84 1117.81,-691.04 1503,-571.43 1511.64,-568.74 1520.38,-565.84 1529.17,-562.78"/>
<polygon fill="#707070" stroke="#707070" points="1530.46,-566.03 1538.71,-559.39 1528.12,-559.44 1530.46,-566.03"/>
<polygon fill="white" stroke="transparent" points="813.5,-714.43 813.5,-774.43 1099.5,-774.43 1099.5,-714.43 813.5,-714.43"/>
<text text-anchor="start" x="817.5" y="-751.23" font-family="Arial" font-size="24.00" fill="#707070">Runs bounded lease/retry</text>
<text text-anchor="start" x="839" y="-725.23" font-family="Arial" font-size="24.00" fill="#707070">task workflow through</text>
</g>
<!-- 37 -->
<g id="37" class="node">
<title>37</title>
<polygon fill="#85bbf0" stroke="#1168bd" points="1147,-603.93 766,-603.93 766,-328.93 1147,-328.93 1147,-603.93"/>
<text text-anchor="start" x="805.5" y="-555.73" font-family="Arial" font-size="34.00" fill="#000000">Media Operator and</text>
<text text-anchor="start" x="850.5" y="-521.73" font-family="Arial" font-size="34.00" fill="#000000">Reconciliation</text>
<text text-anchor="start" x="886.5" y="-487.73" font-family="Arial" font-size="34.00" fill="#000000">Workflow</text>
<text text-anchor="start" x="828.5" y="-465.73" font-family="Arial" font-size="19.00" fill="#000000">[Component: Python + sqlite3]</text>
<text text-anchor="start" x="817.5" y="-428.73" font-family="Arial" font-size="24.00" fill="#000000">Owns scoped dry&#45;run&#45;first</text>
<text text-anchor="start" x="795" y="-404.73" font-family="Arial" font-size="24.00" fill="#000000">budget requeue plus bounded</text>
<text text-anchor="start" x="809.5" y="-380.73" font-family="Arial" font-size="24.00" fill="#000000">current&#45;state CDP/blob and</text>
<text text-anchor="start" x="819" y="-356.73" font-family="Arial" font-size="24.00" fill="#000000">stored&#45;task reconciliation.</text>
</g>
<!-- 45&#45;&gt;37 -->
<g id="79" class="edge">
<title>45&#45;&gt;37</title>
<path fill="none" stroke="#707070" stroke-dasharray="5,2" d="M385.16,-648.76C397.2,-643.37 409.21,-638.21 421,-633.43 529.54,-589.39 654.32,-549.81 755.99,-520.25"/>
<polygon fill="#707070" stroke="#707070" points="757.13,-523.56 765.76,-517.42 755.18,-516.84 757.13,-523.56"/>
<polygon fill="white" stroke="transparent" points="421,-633.43 421,-693.43 730,-693.43 730,-633.43 421,-633.43"/>
<text text-anchor="start" x="425.5" y="-670.23" font-family="Arial" font-size="24.00" fill="#707070">Runs bounded current&#45;state</text>
<text text-anchor="start" x="460.5" y="-644.23" font-family="Arial" font-size="24.00" fill="#707070">reconciliation through</text>
</g>
<!-- 47 -->
<g id="47" class="node">
<title>47</title>
<polygon fill="#438dd5" stroke="#2e6295" points="382.5,-280.93 2.5,-280.93 2.5,-73.93 382.5,-73.93 382.5,-280.93"/>
<text text-anchor="start" x="165.5" y="-232.73" font-family="Arial" font-size="34.00" fill="#ffffff">CLI</text>
<text text-anchor="start" x="71.5" y="-210.73" font-family="Arial" font-size="19.00" fill="#ffffff">[Container: Python argparse]</text>
<text text-anchor="start" x="46" y="-173.73" font-family="Arial" font-size="24.00" fill="#ffffff">Command&#45;line interface for</text>
<text text-anchor="start" x="31.5" y="-149.73" font-family="Arial" font-size="24.00" fill="#ffffff">serving/admin operations plus</text>
<text text-anchor="start" x="46.5" y="-125.73" font-family="Arial" font-size="24.00" fill="#ffffff">standalone mutation&#45;free X</text>
<text text-anchor="start" x="89" y="-101.73" font-family="Arial" font-size="24.00" fill="#ffffff">observation export.</text>
</g>
<!-- 47&#45;&gt;49 -->
<g id="65" class="edge">
<title>47&#45;&gt;49</title>
<path fill="none" stroke="#707070" stroke-dasharray="5,2" d="M382.56,-142.17C636.99,-99.03 1103.8,-35.02 1503,-63.43 1837.98,-87.26 1936.42,-52.87 2251,-170.43 2259.85,-173.73 2268.71,-177.44 2277.53,-181.46"/>
<polygon fill="#707070" stroke="#707070" points="2276.15,-184.68 2286.69,-185.75 2279.12,-178.34 2276.15,-184.68"/>
<polygon fill="white" stroke="transparent" points="1183,-63.43 1183,-210.43 1503,-210.43 1503,-63.43 1183,-63.43"/>
<text text-anchor="start" x="1258" y="-187.73" font-family="Arial" font-size="24.00" fill="#707070">Runs migration,</text>
<text text-anchor="start" x="1190.5" y="-163.73" font-family="Arial" font-size="24.00" fill="#707070">media&#45;worker, media&#45;cache,</text>
<text text-anchor="start" x="1249.5" y="-139.73" font-family="Arial" font-size="24.00" fill="#707070">media&#45;spool, and</text>
<text text-anchor="start" x="1187" y="-115.73" font-family="Arial" font-size="24.00" fill="#707070">storage&#45;reconcile commands</text>
<text text-anchor="start" x="1303.5" y="-91.73" font-family="Arial" font-size="24.00" fill="#707070">against</text>
<text text-anchor="start" x="1309.5" y="-71.73" font-family="Arial" font-size="19.00" fill="#707070">[sqlite3]</text>
</g>
<!-- 47&#45;&gt;37 -->
<g id="67" class="edge">
<title>47&#45;&gt;37</title>
<path fill="none" stroke="#707070" stroke-dasharray="5,2" d="M382.84,-249.24C496.45,-292.32 640.81,-347.07 756.16,-390.82"/>
<polygon fill="#707070" stroke="#707070" points="755.22,-394.21 765.81,-394.49 757.71,-387.67 755.22,-394.21"/>
<polygon fill="white" stroke="transparent" points="443.5,-372.43 443.5,-458.43 707.5,-458.43 707.5,-372.43 443.5,-372.43"/>
<text text-anchor="start" x="460.5" y="-435.23" font-family="Arial" font-size="24.00" fill="#707070">Previews or executes</text>
<text text-anchor="start" x="447.5" y="-409.23" font-family="Arial" font-size="24.00" fill="#707070">scoped budget requeue</text>
<text text-anchor="start" x="534" y="-383.23" font-family="Arial" font-size="24.00" fill="#707070">through</text>
</g>
<!-- 32&#45;&gt;49 -->
<g id="139" class="edge">
<title>32&#45;&gt;49</title>
<path fill="none" stroke="#707070" stroke-dasharray="5,2" d="M1942.29,-425.49C2046.58,-403.19 2173.45,-376.05 2276.77,-353.96"/>
<polygon fill="#707070" stroke="#707070" points="2277.65,-357.35 2286.7,-351.84 2276.19,-350.51 2277.65,-357.35"/>
<polygon fill="white" stroke="transparent" points="1978,-413.43 1978,-488.43 2251,-488.43 2251,-413.43 1978,-413.43"/>
<text text-anchor="start" x="2003.5" y="-465.73" font-family="Arial" font-size="24.00" fill="#707070">Creates, leases, and</text>
<text text-anchor="start" x="1982.5" y="-441.73" font-family="Arial" font-size="24.00" fill="#707070">advances media tasks in</text>
<text text-anchor="start" x="2081.5" y="-421.73" font-family="Arial" font-size="19.00" fill="#707070">[sqlite3]</text>
</g>
<!-- 37&#45;&gt;49 -->
<g id="153" class="edge">
<title>37&#45;&gt;49</title>
<path fill="none" stroke="#707070" stroke-dasharray="5,2" d="M1147.05,-351.88C1257.2,-292.06 1401.1,-225.08 1539,-194.43 1790.75,-138.46 2087.08,-196.65 2276.87,-249.33"/>
<polygon fill="#707070" stroke="#707070" points="2276.1,-252.75 2286.67,-252.07 2277.99,-246 2276.1,-252.75"/>
<polygon fill="white" stroke="transparent" points="1589,-194.43 1589,-293.43 1892,-293.43 1892,-194.43 1589,-194.43"/>
<text text-anchor="start" x="1593.5" y="-270.73" font-family="Arial" font-size="24.00" fill="#707070">Reads and updates scoped</text>
<text text-anchor="start" x="1613" y="-246.73" font-family="Arial" font-size="24.00" fill="#707070">media artifact/task state</text>
<text text-anchor="start" x="1731.5" y="-222.73" font-family="Arial" font-size="24.00" fill="#707070">in</text>
<text text-anchor="start" x="1707.5" y="-202.73" font-family="Arial" font-size="19.00" fill="#707070">[sqlite3]</text>
</g>
<!-- 37&#45;&gt;32 -->
<g id="152" class="edge">
<title>37&#45;&gt;32</title>
<path fill="none" stroke="#707070" stroke-dasharray="5,2" d="M1147.3,-466.91C1262.49,-467.21 1409.72,-467.58 1528.55,-467.89"/>
<polygon fill="#707070" stroke="#707070" points="1528.86,-471.39 1538.87,-467.91 1528.88,-464.39 1528.86,-471.39"/>
<polygon fill="white" stroke="transparent" points="1199,-467.43 1199,-553.43 1487,-553.43 1487,-467.43 1199,-467.43"/>
<text text-anchor="start" x="1208" y="-530.23" font-family="Arial" font-size="24.00" fill="#707070">Resets explicitly selected</text>
<text text-anchor="start" x="1203" y="-504.23" font-family="Arial" font-size="24.00" fill="#707070">tasks and closes bounded</text>
<text text-anchor="start" x="1206.5" y="-478.23" font-family="Arial" font-size="24.00" fill="#707070">stale stored work through</text>
</g>
</g>
</svg>
