<?xml version="1.0" encoding="UTF-8" standalone="no"?>
<!DOCTYPE svg PUBLIC "-//W3C//DTD SVG 1.1//EN"
 "http://www.w3.org/Graphics/SVG/1.1/DTD/svg11.dtd">
<!-- Generated by graphviz version 2.43.0 (0)
 -->
<!-- Title: %3 Pages: 1 -->
<svg width="2656pt" height="2036pt"
 viewBox="0.00 0.00 2656.00 2036.38" xmlns="http://www.w3.org/2000/svg" xmlns:xlink="http://www.w3.org/1999/xlink">
<g id="graph0" class="graph" transform="scale(1 1) rotate(0) translate(4 2032.38)">
<title>%3</title>
<polygon fill="white" stroke="transparent" points="-4,4 -4,-2032.38 2652,-2032.38 2652,4 -4,4"/>
<text text-anchor="start" x="879" y="-11.8" font-family="Arial" font-size="34.00">Browser Memory Daemon &#45; Deployment &#45; Daily&#45;driver local</text>
<g id="clust1" class="cluster">
<title>cluster_203</title>
<polygon fill="none" stroke="#888888" points="8,-64 8,-2020.38 2640,-2020.38 2640,-64 8,-64"/>
<text text-anchor="start" x="1230.5" y="-92.8" font-family="Arial" font-size="24.00" fill="#000000">Local workstation</text>
<text text-anchor="start" x="1162" y="-72.8" font-family="Arial" font-size="19.00" fill="#000000">[Deployment Node: Windows + WSL2]</text>
</g>
<g id="clust2" class="cluster">
<title>cluster_204</title>
<polygon fill="none" stroke="#888888" points="565,-1514.38 565,-1995.38 1683,-1995.38 1683,-1514.38 565,-1514.38"/>
<text text-anchor="start" x="1011.5" y="-1543.17" font-family="Arial" font-size="24.00" fill="#000000">Windows user profile</text>
<text text-anchor="start" x="970.5" y="-1523.17" font-family="Arial" font-size="19.00" fill="#000000">[Deployment Node: Windows profile]</text>
</g>
<g id="clust3" class="cluster">
<title>cluster_205</title>
<polygon fill="none" stroke="#888888" points="590,-1590.38 590,-1970.38 1658,-1970.38 1658,-1590.38 590,-1590.38"/>
<text text-anchor="start" x="929.5" y="-1619.17" font-family="Arial" font-size="24.00" fill="#000000">Windows Chrome daily&#45;driver profile</text>
<text text-anchor="start" x="948.5" y="-1599.17" font-family="Arial" font-size="19.00" fill="#000000">[Deployment Node: Google Chrome MV3]</text>
</g>
<g id="clust4" class="cluster">
<title>cluster_211</title>
<polygon fill="none" stroke="#888888" points="33,-140 33,-1375.38 2615,-1375.38 2615,-140 33,-140"/>
<text text-anchor="start" x="1248.5" y="-168.8" font-family="Arial" font-size="24.00" fill="#000000">WSL2 Ubuntu</text>
<text text-anchor="start" x="1133.5" y="-148.8" font-family="Arial" font-size="19.00" fill="#000000">[Deployment Node: Ubuntu + systemd &#45;&#45;user]</text>
</g>
<g id="clust5" class="cluster">
<title>cluster_212</title>
<polygon fill="none" stroke="#888888" points="848,-898.38 848,-1350.38 1818,-1350.38 1818,-898.38 848,-898.38"/>
<text text-anchor="start" x="1205" y="-927.17" font-family="Arial" font-size="24.00" fill="#000000">systemd &#45;&#45;user services</text>
<text text-anchor="start" x="1184" y="-907.17" font-family="Arial" font-size="19.00" fill="#000000">[Deployment Node: systemd &#45;&#45;user]</text>
</g>
<g id="clust7" class="cluster">
<title>cluster_220</title>
<polygon fill="none" stroke="#888888" points="58,-216 58,-780.38 1404,-780.38 1404,-216 58,-216"/>
<text text-anchor="start" x="572" y="-244.8" font-family="Arial" font-size="24.00" fill="#000000">WSL XDG runtime data paths</text>
<text text-anchor="start" x="579" y="-224.8" font-family="Arial" font-size="19.00" fill="#000000">[Deployment Node: WSL filesystem]</text>
</g>
<g id="clust8" class="cluster">
<title>cluster_233</title>
<polygon fill="none" stroke="#888888" points="1711,-232.5 1711,-763.88 2305,-763.88 2305,-232.5 1711,-232.5"/>
<text text-anchor="start" x="1821.5" y="-261.3" font-family="Arial" font-size="24.00" fill="#000000">WSL&#45;mounted guarded media root</text>
<text text-anchor="start" x="1767.5" y="-241.3" font-family="Arial" font-size="19.00" fill="#000000">[Deployment Node: NAS mount of TrueNAS ZFS dataset]</text>
</g>
<!-- 206 -->
<g id="206" class="node">
<title>206</title>
<polygon fill="#438dd5" stroke="#2e6295" points="1049,-1945.38 615,-1945.38 615,-1666.38 1049,-1666.38 1049,-1945.38"/>
<text text-anchor="start" x="652" y="-1897.17" font-family="Arial" font-size="34.00" fill="#ffffff">Chrome MV3 Extension</text>
<text text-anchor="start" x="644" y="-1875.17" font-family="Arial" font-size="19.00" fill="#ffffff">[Container: JavaScript, Chrome Manifest V3]</text>
<text text-anchor="start" x="689" y="-1838.17" font-family="Arial" font-size="24.00" fill="#ffffff">Captures visible page text,</text>
<text text-anchor="start" x="714.5" y="-1814.17" font-family="Arial" font-size="24.00" fill="#ffffff">media references, tab</text>
<text text-anchor="start" x="723" y="-1790.17" font-family="Arial" font-size="24.00" fill="#ffffff">lifecycle events, and</text>
<text text-anchor="start" x="666" y="-1766.17" font-family="Arial" font-size="24.00" fill="#ffffff">browser&#45;side media bytes from</text>
<text text-anchor="start" x="661" y="-1742.17" font-family="Arial" font-size="24.00" fill="#ffffff">Windows Chrome; queues work</text>
<text text-anchor="start" x="673" y="-1718.17" font-family="Arial" font-size="24.00" fill="#ffffff">durably and posts to the WSL</text>
<text text-anchor="start" x="784.5" y="-1694.17" font-family="Arial" font-size="24.00" fill="#ffffff">daemon.</text>
</g>
<!-- 213 -->
<g id="213" class="node">
<title>213</title>
<polygon fill="#438dd5" stroke="#2e6295" points="1335,-1270.38 873,-1270.38 873,-1029.38 1335,-1029.38 1335,-1270.38"/>
<text text-anchor="start" x="939.5" y="-1222.17" font-family="Arial" font-size="34.00" fill="#ffffff">WSL Loopback HTTP</text>
<text text-anchor="start" x="1039.5" y="-1188.17" font-family="Arial" font-size="34.00" fill="#ffffff">Daemon</text>
<text text-anchor="start" x="902" y="-1166.17" font-family="Arial" font-size="19.00" fill="#ffffff">[Container: Python 3.11, ThreadingHTTPServer]</text>
<text text-anchor="start" x="938.5" y="-1129.17" font-family="Arial" font-size="24.00" fill="#ffffff">Authenticated loopback API for</text>
<text text-anchor="start" x="959.5" y="-1105.17" font-family="Arial" font-size="24.00" fill="#ffffff">capture, read/admin/media</text>
<text text-anchor="start" x="960" y="-1081.17" font-family="Arial" font-size="24.00" fill="#ffffff">operations, and query&#45;only</text>
<text text-anchor="start" x="941.5" y="-1057.17" font-family="Arial" font-size="24.00" fill="#ffffff">bmd.x&#45;observations v1 export.</text>
</g>
<!-- 206&#45;&gt;213 -->
<g id="214" class="edge">
<title>206&#45;&gt;213</title>
<path fill="none" stroke="#707070" stroke-dasharray="5,2" d="M789.4,-1666.17C771.04,-1580.5 762.31,-1470.65 805,-1383.38 824.74,-1343.01 855.25,-1307.63 889.37,-1277.45"/>
<polygon fill="#707070" stroke="#707070" points="891.9,-1279.89 897.17,-1270.69 887.32,-1274.59 891.9,-1279.89"/>
<polygon fill="white" stroke="transparent" points="805,-1383.38 805,-1506.38 1300,-1506.38 1300,-1383.38 805,-1383.38"/>
<text text-anchor="start" x="972" y="-1483.67" font-family="Arial" font-size="24.00" fill="#707070">Posts /capture,</text>
<text text-anchor="start" x="949" y="-1459.67" font-family="Arial" font-size="24.00" fill="#707070">/visit&#45;events, media</text>
<text text-anchor="start" x="926" y="-1435.67" font-family="Arial" font-size="24.00" fill="#707070">metadata, and raw blob</text>
<text text-anchor="start" x="997" y="-1411.67" font-family="Arial" font-size="24.00" fill="#707070">uploads to</text>
<text text-anchor="start" x="809.5" y="-1391.67" font-family="Arial" font-size="19.00" fill="#707070">[Bearer HTTP/JSON; raw HTTP PUT over 127.0.0.1:8765]</text>
</g>
<!-- 209 -->
<g id="209" class="node">
<title>209</title>
<polygon fill="#438dd5" stroke="#2e6295" points="1633,-1933.38 1121,-1933.38 1121,-1678.38 1633,-1678.38 1633,-1933.38"/>
<text text-anchor="start" x="1274.5" y="-1885.17" font-family="Arial" font-size="34.00" fill="#ffffff">Local Web UI</text>
<text text-anchor="start" x="1150" y="-1863.17" font-family="Arial" font-size="19.00" fill="#ffffff">[Container: HTML/CSS/JavaScript served by daemon]</text>
<text text-anchor="start" x="1235" y="-1826.17" font-family="Arial" font-size="24.00" fill="#ffffff">Static browser UI for exact</text>
<text text-anchor="start" x="1218" y="-1802.17" font-family="Arial" font-size="24.00" fill="#ffffff">search, recent/timeline views,</text>
<text text-anchor="start" x="1235.5" y="-1778.17" font-family="Arial" font-size="24.00" fill="#ffffff">document/snapshot detail,</text>
<text text-anchor="start" x="1220" y="-1754.17" font-family="Arial" font-size="24.00" fill="#ffffff">media artifact opening, policy</text>
<text text-anchor="start" x="1283.5" y="-1730.17" font-family="Arial" font-size="24.00" fill="#ffffff">rules, doctor, and</text>
<text text-anchor="start" x="1238.5" y="-1706.17" font-family="Arial" font-size="24.00" fill="#ffffff">forget&#45;domain operations.</text>
</g>
<!-- 209&#45;&gt;213 -->
<g id="215" class="edge">
<title>209&#45;&gt;213</title>
<path fill="none" stroke="#707070" stroke-dasharray="5,2" d="M1377.02,-1678.08C1372.58,-1591.38 1357.71,-1475.86 1314,-1383.38 1296.25,-1345.82 1270.4,-1309.97 1242.86,-1278.16"/>
<polygon fill="#707070" stroke="#707070" points="1245.44,-1275.8 1236.21,-1270.59 1240.18,-1280.42 1245.44,-1275.8"/>
<polygon fill="white" stroke="transparent" points="1354,-1395.38 1354,-1494.38 1631,-1494.38 1631,-1395.38 1354,-1395.38"/>
<text text-anchor="start" x="1359" y="-1471.67" font-family="Arial" font-size="24.00" fill="#707070">Calls authenticated read,</text>
<text text-anchor="start" x="1358.5" y="-1447.67" font-family="Arial" font-size="24.00" fill="#707070">admin, media, and forget</text>
<text text-anchor="start" x="1450.5" y="-1423.67" font-family="Arial" font-size="24.00" fill="#707070">APIs on</text>
<text text-anchor="start" x="1435" y="-1403.67" font-family="Arial" font-size="19.00" fill="#707070">[HTTP/JSON]</text>
</g>
<!-- 221 -->
<g id="221" class="node">
<title>221</title>
<path fill="#2f95c8" stroke="#20688c" d="M921,-672.9C921,-691.2 838.08,-706.06 736,-706.06 633.92,-706.06 551,-691.2 551,-672.9 551,-672.9 551,-374.47 551,-374.47 551,-356.17 633.92,-341.31 736,-341.31 838.08,-341.31 921,-356.17 921,-374.47 921,-374.47 921,-672.9 921,-672.9"/>
<path fill="none" stroke="#20688c" d="M921,-672.9C921,-654.61 838.08,-639.74 736,-639.74 633.92,-639.74 551,-654.61 551,-672.9"/>
<text text-anchor="start" x="623" y="-607.99" font-family="Arial" font-size="34.00" fill="#ffffff">SQLite + FTS5</text>
<text text-anchor="start" x="663" y="-573.99" font-family="Arial" font-size="34.00" fill="#ffffff">Database</text>
<text text-anchor="start" x="610" y="-551.99" font-family="Arial" font-size="19.00" fill="#ffffff">[Container: SQLite with FTS5]</text>
<text text-anchor="start" x="616.5" y="-514.99" font-family="Arial" font-size="24.00" fill="#ffffff">Durable text/metadata</text>
<text text-anchor="start" x="585" y="-490.99" font-family="Arial" font-size="24.00" fill="#ffffff">authority including migration</text>
<text text-anchor="start" x="580" y="-466.99" font-family="Arial" font-size="24.00" fill="#ffffff">ledger, capture observations,</text>
<text text-anchor="start" x="590" y="-442.99" font-family="Arial" font-size="24.00" fill="#ffffff">and immutable observation</text>
<text text-anchor="start" x="638" y="-418.99" font-family="Arial" font-size="24.00" fill="#ffffff">ingest sequences.</text>
</g>
<!-- 213&#45;&gt;221 -->
<g id="222" class="edge">
<title>213&#45;&gt;221</title>
<path fill="none" stroke="#707070" stroke-dasharray="5,2" d="M872.7,-1115.07C737.42,-1082.12 577.15,-1017.35 493,-890.38 468.69,-853.7 469.87,-828.8 493,-791.38 498.75,-782.08 506.37,-787.08 515,-780.38 542.52,-758.98 569.17,-733.74 593.87,-707.6"/>
<polygon fill="#707070" stroke="#707070" points="596.52,-709.9 600.79,-700.2 591.4,-705.12 596.52,-709.9"/>
<polygon fill="white" stroke="transparent" points="493,-791.38 493,-890.38 803,-890.38 803,-791.38 493,-791.38"/>
<text text-anchor="start" x="497" y="-867.67" font-family="Arial" font-size="24.00" fill="#707070">Reads and writes metadata,</text>
<text text-anchor="start" x="530" y="-843.67" font-family="Arial" font-size="24.00" fill="#707070">FTS, tasks, audit, and</text>
<text text-anchor="start" x="592.5" y="-819.67" font-family="Arial" font-size="24.00" fill="#707070">receipts in</text>
<text text-anchor="start" x="614.5" y="-799.67" font-family="Arial" font-size="19.00" fill="#707070">[sqlite3]</text>
</g>
<!-- 225 -->
<g id="225" class="node">
<title>225</title>
<path fill="#2f95c8" stroke="#20688c" d="M478.5,-672.9C478.5,-691.2 389.98,-706.06 281,-706.06 172.02,-706.06 83.5,-691.2 83.5,-672.9 83.5,-672.9 83.5,-374.47 83.5,-374.47 83.5,-356.17 172.02,-341.31 281,-341.31 389.98,-341.31 478.5,-356.17 478.5,-374.47 478.5,-374.47 478.5,-672.9 478.5,-672.9"/>
<path fill="none" stroke="#20688c" d="M478.5,-672.9C478.5,-654.61 389.98,-639.74 281,-639.74 172.02,-639.74 83.5,-654.61 83.5,-672.9"/>
<text text-anchor="start" x="159.5" y="-607.99" font-family="Arial" font-size="34.00" fill="#ffffff">Local Derivative</text>
<text text-anchor="start" x="240" y="-573.99" font-family="Arial" font-size="34.00" fill="#ffffff">Store</text>
<text text-anchor="start" x="141" y="-551.99" font-family="Arial" font-size="19.00" fill="#ffffff">[Container: WSL local filesystem]</text>
<text text-anchor="start" x="127.5" y="-514.99" font-family="Arial" font-size="24.00" fill="#ffffff">Reconstructible compatibility</text>
<text text-anchor="start" x="112.5" y="-490.99" font-family="Arial" font-size="24.00" fill="#ffffff">evidence such as pre&#45;version&#45;9</text>
<text text-anchor="start" x="151" y="-466.99" font-family="Arial" font-size="24.00" fill="#ffffff">clean&#45;text sidecars; new</text>
<text text-anchor="start" x="157.5" y="-442.99" font-family="Arial" font-size="24.00" fill="#ffffff">captures create no text</text>
<text text-anchor="start" x="232.5" y="-418.99" font-family="Arial" font-size="24.00" fill="#ffffff">sidecars.</text>
</g>
<!-- 213&#45;&gt;225 -->
<g id="226" class="edge">
<title>213&#45;&gt;225</title>
<path fill="none" stroke="#707070" stroke-dasharray="5,2" d="M872.97,-1115.68C629.96,-1075.49 271.45,-999.35 189,-890.38 151.04,-840.2 154.54,-776.16 173.74,-715.73"/>
<polygon fill="#707070" stroke="#707070" points="177.12,-716.66 176.95,-706.07 170.47,-714.46 177.12,-716.66"/>
<polygon fill="white" stroke="transparent" points="189,-791.38 189,-890.38 457,-890.38 457,-791.38 189,-791.38"/>
<text text-anchor="start" x="193" y="-867.67" font-family="Arial" font-size="24.00" fill="#707070">Reads or deletes legacy</text>
<text text-anchor="start" x="222.5" y="-843.67" font-family="Arial" font-size="24.00" fill="#707070">text sidecars when</text>
<text text-anchor="start" x="278" y="-819.67" font-family="Arial" font-size="24.00" fill="#707070">required</text>
<text text-anchor="start" x="271.5" y="-799.67" font-family="Arial" font-size="19.00" fill="#707070">[Filesystem]</text>
</g>
<!-- 228 -->
<g id="228" class="node">
<title>228</title>
<path fill="#2f95c8" stroke="#20688c" d="M1379,-713.4C1379,-736.67 1292.49,-755.56 1186,-755.56 1079.51,-755.56 993,-736.67 993,-713.4 993,-713.4 993,-333.97 993,-333.97 993,-310.71 1079.51,-291.81 1186,-291.81 1292.49,-291.81 1379,-310.71 1379,-333.97 1379,-333.97 1379,-713.4 1379,-713.4"/>
<path fill="none" stroke="#20688c" d="M1379,-713.4C1379,-690.14 1292.49,-671.24 1186,-671.24 1079.51,-671.24 993,-690.14 993,-713.4"/>
<text text-anchor="start" x="1022" y="-643.99" font-family="Arial" font-size="34.00" fill="#ffffff">Bounded Local Media</text>
<text text-anchor="start" x="1142.5" y="-609.99" font-family="Arial" font-size="34.00" fill="#ffffff">Spool</text>
<text text-anchor="start" x="1046" y="-587.99" font-family="Arial" font-size="19.00" fill="#ffffff">[Container: WSL local filesystem]</text>
<text text-anchor="start" x="1034" y="-550.99" font-family="Arial" font-size="24.00" fill="#ffffff">Opt&#45;in durable outage buffer</text>
<text text-anchor="start" x="1037.5" y="-526.99" font-family="Arial" font-size="24.00" fill="#ffffff">beneath the local WSL data</text>
<text text-anchor="start" x="1064.5" y="-502.99" font-family="Arial" font-size="24.00" fill="#ffffff">root; admission counts</text>
<text text-anchor="start" x="1040.5" y="-478.99" font-family="Arial" font-size="24.00" fill="#ffffff">committed files and distinct</text>
<text text-anchor="start" x="1034" y="-454.99" font-family="Arial" font-size="24.00" fill="#ffffff">in&#45;flight SQLite reservations,</text>
<text text-anchor="start" x="1061" y="-430.99" font-family="Arial" font-size="24.00" fill="#ffffff">and drain verifies bytes</text>
<text text-anchor="start" x="1038.5" y="-406.99" font-family="Arial" font-size="24.00" fill="#ffffff">before tier transition/source</text>
<text text-anchor="start" x="1140" y="-382.99" font-family="Arial" font-size="24.00" fill="#ffffff">cleanup.</text>
</g>
<!-- 213&#45;&gt;228 -->
<g id="229" class="edge">
<title>213&#45;&gt;228</title>
<path fill="none" stroke="#707070" stroke-dasharray="5,2" d="M932.62,-1029C850.14,-957.01 782.18,-865.34 849,-791.38 865.17,-773.47 935.5,-791.32 957,-780.38 974.52,-771.45 991.33,-760.58 1007.32,-748.41"/>
<polygon fill="#707070" stroke="#707070" points="1009.89,-750.85 1015.61,-741.94 1005.58,-745.34 1009.89,-750.85"/>
<polygon fill="white" stroke="transparent" points="849,-791.38 849,-890.38 1125,-890.38 1125,-791.38 849,-791.38"/>
<text text-anchor="start" x="853" y="-867.67" font-family="Arial" font-size="24.00" fill="#707070">Stores and serves media</text>
<text text-anchor="start" x="880" y="-843.67" font-family="Arial" font-size="24.00" fill="#707070">during guarded&#45;root</text>
<text text-anchor="start" x="931" y="-819.67" font-family="Arial" font-size="24.00" fill="#707070">outages in</text>
<text text-anchor="start" x="935.5" y="-799.67" font-family="Arial" font-size="19.00" fill="#707070">[Filesystem]</text>
</g>
<!-- 234 -->
<g id="234" class="node">
<title>234</title>
<path fill="#2f95c8" stroke="#20688c" d="M2280,-699.9C2280,-721.51 2158.09,-739.06 2008,-739.06 1857.91,-739.06 1736,-721.51 1736,-699.9 1736,-699.9 1736,-347.47 1736,-347.47 1736,-325.86 1857.91,-308.31 2008,-308.31 2158.09,-308.31 2280,-325.86 2280,-347.47 2280,-347.47 2280,-699.9 2280,-699.9"/>
<path fill="none" stroke="#20688c" d="M2280,-699.9C2280,-678.3 2158.09,-660.74 2008,-660.74 1857.91,-660.74 1736,-678.3 1736,-699.9"/>
<text text-anchor="start" x="1852.5" y="-631.99" font-family="Arial" font-size="34.00" fill="#ffffff">Guarded Media Blob</text>
<text text-anchor="start" x="1958.5" y="-597.99" font-family="Arial" font-size="34.00" fill="#ffffff">Cache</text>
<text text-anchor="start" x="1765" y="-575.99" font-family="Arial" font-size="19.00" fill="#ffffff">[Container: WSL&#45;visible local or NAS&#45;mounted filesystem]</text>
<text text-anchor="start" x="1898" y="-538.99" font-family="Arial" font-size="24.00" fill="#ffffff">Bounded disposable</text>
<text text-anchor="start" x="1842.5" y="-514.99" font-family="Arial" font-size="24.00" fill="#ffffff">image/video/audio bytes under</text>
<text text-anchor="start" x="1866.5" y="-490.99" font-family="Arial" font-size="24.00" fill="#ffffff">the configured media root;</text>
<text text-anchor="start" x="1894" y="-466.99" font-family="Arial" font-size="24.00" fill="#ffffff">explicit external roots</text>
<text text-anchor="start" x="1909" y="-442.99" font-family="Arial" font-size="24.00" fill="#ffffff">require mount and</text>
<text text-anchor="start" x="1858.5" y="-418.99" font-family="Arial" font-size="24.00" fill="#ffffff">identity&#45;marker proof before</text>
<text text-anchor="start" x="1967" y="-394.99" font-family="Arial" font-size="24.00" fill="#ffffff">access.</text>
</g>
<!-- 213&#45;&gt;234 -->
<g id="235" class="edge">
<title>213&#45;&gt;234</title>
<path fill="none" stroke="#707070" stroke-dasharray="5,2" d="M1120.15,-1029.04C1135.2,-937.27 1160.93,-821.44 1198,-791.38 1217.35,-775.68 1397.74,-786.06 1422,-780.38 1524.76,-756.29 1632.02,-714.82 1726.27,-672.21"/>
<polygon fill="#707070" stroke="#707070" points="1727.99,-675.27 1735.64,-667.95 1725.09,-668.9 1727.99,-675.27"/>
<polygon fill="white" stroke="transparent" points="1198,-791.38 1198,-890.38 1506,-890.38 1506,-791.38 1198,-791.38"/>
<text text-anchor="start" x="1227" y="-867.67" font-family="Arial" font-size="24.00" fill="#707070">Stores, serves, purges,</text>
<text text-anchor="start" x="1202" y="-843.67" font-family="Arial" font-size="24.00" fill="#707070">and rehydrates media blobs</text>
<text text-anchor="start" x="1342.5" y="-819.67" font-family="Arial" font-size="24.00" fill="#707070">in</text>
<text text-anchor="start" x="1300.5" y="-799.67" font-family="Arial" font-size="19.00" fill="#707070">[Filesystem]</text>
</g>
<!-- 216 -->
<g id="216" class="node">
<title>216</title>
<polygon fill="#438dd5" stroke="#2e6295" points="1792.5,-1325.38 1407.5,-1325.38 1407.5,-974.38 1792.5,-974.38 1792.5,-1325.38"/>
<text text-anchor="start" x="1453" y="-1277.17" font-family="Arial" font-size="34.00" fill="#ffffff">WSL Media Worker</text>
<text text-anchor="start" x="1460" y="-1255.17" font-family="Arial" font-size="19.00" fill="#ffffff">[Container: Python 3.11 CLI loop]</text>
<text text-anchor="start" x="1452.5" y="-1218.17" font-family="Arial" font-size="24.00" fill="#ffffff">Long&#45;running systemd user</text>
<text text-anchor="start" x="1507.5" y="-1194.17" font-family="Arial" font-size="24.00" fill="#ffffff">worker that loads</text>
<text text-anchor="start" x="1473.5" y="-1170.17" font-family="Arial" font-size="24.00" fill="#ffffff">storage/media modules</text>
<text text-anchor="start" x="1457.5" y="-1146.17" font-family="Arial" font-size="24.00" fill="#ffffff">in&#45;process, first drains one</text>
<text text-anchor="start" x="1436.5" y="-1122.17" font-family="Arial" font-size="24.00" fill="#ffffff">bounded spool&#45;recovery batch</text>
<text text-anchor="start" x="1440.5" y="-1098.17" font-family="Arial" font-size="24.00" fill="#ffffff">when the guarded final root is</text>
<text text-anchor="start" x="1501.5" y="-1074.17" font-family="Arial" font-size="24.00" fill="#ffffff">ready, then leases</text>
<text text-anchor="start" x="1454" y="-1050.17" font-family="Arial" font-size="24.00" fill="#ffffff">daemon&#45;public media fetch</text>
<text text-anchor="start" x="1437.5" y="-1026.17" font-family="Arial" font-size="24.00" fill="#ffffff">tasks without calling the HTTP</text>
<text text-anchor="start" x="1552.5" y="-1002.17" font-family="Arial" font-size="24.00" fill="#ffffff">daemon.</text>
</g>
<!-- 216&#45;&gt;221 -->
<g id="223" class="edge">
<title>216&#45;&gt;221</title>
<path fill="none" stroke="#707070" stroke-dasharray="5,2" d="M1583.3,-973.92C1571.89,-895.69 1553.35,-815.62 1524,-791.38 1499.71,-771.31 985.52,-793.76 957,-780.38 921.74,-763.83 889.91,-738.68 862.1,-710.49"/>
<polygon fill="#707070" stroke="#707070" points="864.58,-708.02 855.12,-703.26 859.55,-712.89 864.58,-708.02"/>
<polygon fill="white" stroke="transparent" points="1565,-803.38 1565,-878.38 1865,-878.38 1865,-803.38 1565,-803.38"/>
<text text-anchor="start" x="1569" y="-855.67" font-family="Arial" font-size="24.00" fill="#707070">Leases and updates media</text>
<text text-anchor="start" x="1674" y="-831.67" font-family="Arial" font-size="24.00" fill="#707070">tasks in</text>
<text text-anchor="start" x="1681.5" y="-811.67" font-family="Arial" font-size="19.00" fill="#707070">[sqlite3]</text>
</g>
<!-- 216&#45;&gt;228 -->
<g id="230" class="edge">
<title>216&#45;&gt;228</title>
<path fill="none" stroke="#707070" stroke-dasharray="5,2" d="M1792.56,-1035.22C1890.8,-963.45 1975.4,-869.82 1901,-791.38 1885.07,-774.58 1715.37,-786.32 1693,-780.38 1587.32,-752.27 1478.03,-700.51 1388.1,-650.87"/>
<polygon fill="#707070" stroke="#707070" points="1389.62,-647.71 1379.18,-645.92 1386.22,-653.83 1389.62,-647.71"/>
<polygon fill="white" stroke="transparent" points="1929,-791.38 1929,-890.38 2165,-890.38 2165,-791.38 1929,-791.38"/>
<text text-anchor="start" x="1933" y="-867.67" font-family="Arial" font-size="24.00" fill="#707070">Writes fetched media</text>
<text text-anchor="start" x="1940" y="-843.67" font-family="Arial" font-size="24.00" fill="#707070">during guarded&#45;root</text>
<text text-anchor="start" x="1990" y="-819.67" font-family="Arial" font-size="24.00" fill="#707070">outages to</text>
<text text-anchor="start" x="1995.5" y="-799.67" font-family="Arial" font-size="19.00" fill="#707070">[Filesystem]</text>
</g>
<!-- 216&#45;&gt;234 -->
<g id="236" class="edge">
<title>216&#45;&gt;234</title>
<path fill="none" stroke="#707070" stroke-dasharray="5,2" d="M1792.77,-1124.25C1935.62,-1094.79 2120.99,-1030.45 2214,-890.38 2245.37,-843.13 2238.63,-790.81 2214.05,-740.88"/>
<polygon fill="#707070" stroke="#707070" points="2217.12,-739.2 2209.43,-731.91 2210.89,-742.4 2217.12,-739.2"/>
<polygon fill="white" stroke="transparent" points="2235,-803.38 2235,-878.38 2535,-878.38 2535,-803.38 2235,-803.38"/>
<text text-anchor="start" x="2239" y="-855.67" font-family="Arial" font-size="24.00" fill="#707070">Writes fetched media blobs</text>
<text text-anchor="start" x="2374.5" y="-831.67" font-family="Arial" font-size="24.00" fill="#707070">to</text>
<text text-anchor="start" x="2333.5" y="-811.67" font-family="Arial" font-size="19.00" fill="#707070">[Filesystem]</text>
</g>
</g>
</svg>
