<?xml version="1.0" encoding="UTF-8" standalone="no"?>
<!DOCTYPE svg PUBLIC "-//W3C//DTD SVG 1.1//EN"
 "http://www.w3.org/Graphics/SVG/1.1/DTD/svg11.dtd">
<!-- Generated by graphviz version 2.43.0 (0)
 -->
<!-- Title: %3 Pages: 1 -->
<svg width="2003pt" height="1613pt"
 viewBox="0.00 0.00 2003.00 1613.00" xmlns="http://www.w3.org/2000/svg" xmlns:xlink="http://www.w3.org/1999/xlink">
<g id="graph0" class="graph" transform="scale(1 1) rotate(0) translate(4 1609)">
<title>%3</title>
<polygon fill="white" stroke="transparent" points="-4,4 -4,-1609 1999,-1609 1999,4 -4,4"/>
<text text-anchor="start" x="412.5" y="-11.8" font-family="Arial" font-size="34.00">Component View: Browser Memory Daemon &#45; WSL Loopback HTTP Daemon</text>
<g id="clust1" class="cluster">
<title>cluster_4</title>
<polygon fill="none" stroke="#444444" points="8,-64 8,-1597 1987,-1597 1987,-64 8,-64"/>
<text text-anchor="start" x="856.5" y="-92.8" font-family="Arial" font-size="24.00" fill="#444444">Browser Memory Daemon</text>
<text text-anchor="start" x="920.5" y="-72.8" font-family="Arial" font-size="19.00" fill="#444444">[Software System]</text>
</g>
<g id="clust2" class="cluster">
<title>cluster_14</title>
<polygon fill="none" stroke="#444444" points="33,-659 33,-1016 1202,-1016 1202,-659 33,-659"/>
<text text-anchor="start" x="452" y="-687.8" font-family="Arial" font-size="24.00" fill="#444444">WSL Loopback HTTP Daemon</text>
<text text-anchor="start" x="415.5" y="-667.8" font-family="Arial" font-size="19.00" fill="#444444">[Container: Python 3.11, ThreadingHTTPServer]</text>
</g>
<!-- 15 -->
<g id="15" class="node">
<title>15</title>
<polygon fill="#85bbf0" stroke="#1168bd" points="453,-990.5 58,-990.5 58,-759.5 453,-759.5 453,-990.5"/>
<text text-anchor="start" x="87" y="-942.3" font-family="Arial" font-size="34.00" fill="#000000">HTTP Request Router</text>
<text text-anchor="start" x="119" y="-920.3" font-family="Arial" font-size="19.00" fill="#000000">[Component: Python http.server]</text>
<text text-anchor="start" x="90" y="-883.3" font-family="Arial" font-size="24.00" fill="#000000">Routes loopback API requests,</text>
<text text-anchor="start" x="112.5" y="-859.3" font-family="Arial" font-size="24.00" fill="#000000">serves UI assets, enforces</text>
<text text-anchor="start" x="91.5" y="-835.3" font-family="Arial" font-size="24.00" fill="#000000">bearer auth for memory/admin</text>
<text text-anchor="start" x="106" y="-811.3" font-family="Arial" font-size="24.00" fill="#000000">APIs, and applies CORS for</text>
<text text-anchor="start" x="172" y="-787.3" font-family="Arial" font-size="24.00" fill="#000000">allowed origins.</text>
</g>
<!-- 23 -->
<g id="23" class="node">
<title>23</title>
<polygon fill="#85bbf0" stroke="#1168bd" points="1177,-990.5 798,-990.5 798,-759.5 1177,-759.5 1177,-990.5"/>
<text text-anchor="start" x="873" y="-942.3" font-family="Arial" font-size="34.00" fill="#000000">Forget Pipeline</text>
<text text-anchor="start" x="859.5" y="-920.3" font-family="Arial" font-size="19.00" fill="#000000">[Component: Python + sqlite3]</text>
<text text-anchor="start" x="832.5" y="-883.3" font-family="Arial" font-size="24.00" fill="#000000">Deletes URL/domain&#45;scoped</text>
<text text-anchor="start" x="841.5" y="-859.3" font-family="Arial" font-size="24.00" fill="#000000">memory rows, FTS entries,</text>
<text text-anchor="start" x="827" y="-835.3" font-family="Arial" font-size="24.00" fill="#000000">clean&#45;text blobs, media blobs,</text>
<text text-anchor="start" x="844.5" y="-811.3" font-family="Arial" font-size="24.00" fill="#000000">lifecycle rows, and records</text>
<text text-anchor="start" x="895.5" y="-787.3" font-family="Arial" font-size="24.00" fill="#000000">deletion receipts.</text>
</g>
<!-- 15&#45;&gt;23 -->
<g id="69" class="edge">
<title>15&#45;&gt;23</title>
<path fill="none" stroke="#444444" stroke-dasharray="5,2" d="M453.09,-875C556.69,-875 683.48,-875 787.44,-875"/>
<polygon fill="#444444" stroke="#444444" points="787.75,-878.5 797.75,-875 787.75,-871.5 787.75,-878.5"/>
<text text-anchor="start" x="489" y="-881.8" font-family="Arial" font-size="24.00" fill="#444444">Routes forget requests to</text>
</g>
<!-- 28 -->
<g id="28" class="node">
<title>28</title>
<path fill="#2f95c8" stroke="#20688c" d="M1940.5,-615.22C1940.5,-640.13 1851.98,-660.38 1743,-660.38 1634.02,-660.38 1545.5,-640.13 1545.5,-615.22 1545.5,-615.22 1545.5,-208.78 1545.5,-208.78 1545.5,-183.87 1634.02,-163.62 1743,-163.62 1851.98,-163.62 1940.5,-183.87 1940.5,-208.78 1940.5,-208.78 1940.5,-615.22 1940.5,-615.22"/>
<path fill="none" stroke="#20688c" d="M1940.5,-615.22C1940.5,-590.3 1851.98,-570.06 1743,-570.06 1634.02,-570.06 1545.5,-590.3 1545.5,-615.22"/>
<text text-anchor="start" x="1630" y="-544.3" font-family="Arial" font-size="34.00" fill="#ffffff">SQLite + FTS5</text>
<text text-anchor="start" x="1670" y="-510.3" font-family="Arial" font-size="34.00" fill="#ffffff">Database</text>
<text text-anchor="start" x="1617" y="-488.3" font-family="Arial" font-size="19.00" fill="#ffffff">[Container: SQLite with FTS5]</text>
<text text-anchor="start" x="1624" y="-451.3" font-family="Arial" font-size="24.00" fill="#ffffff">Durable relational and</text>
<text text-anchor="start" x="1602.5" y="-427.3" font-family="Arial" font-size="24.00" fill="#ffffff">full&#45;text store for migration</text>
<text text-anchor="start" x="1591" y="-403.3" font-family="Arial" font-size="24.00" fill="#ffffff">ledger, sources, documents,</text>
<text text-anchor="start" x="1593.5" y="-379.3" font-family="Arial" font-size="24.00" fill="#ffffff">visits, capture observations,</text>
<text text-anchor="start" x="1612" y="-355.3" font-family="Arial" font-size="24.00" fill="#ffffff">URL claims, visit events,</text>
<text text-anchor="start" x="1574.5" y="-331.3" font-family="Arial" font-size="24.00" fill="#ffffff">snapshots, chunks, chunks_fts,</text>
<text text-anchor="start" x="1594.5" y="-307.3" font-family="Arial" font-size="24.00" fill="#ffffff">media artifacts, media fetch</text>
<text text-anchor="start" x="1614.5" y="-283.3" font-family="Arial" font-size="24.00" fill="#ffffff">tasks, policy rules, audit</text>
<text text-anchor="start" x="1585" y="-259.3" font-family="Arial" font-size="24.00" fill="#ffffff">events, and deletion receipts.</text>
</g>
<!-- 23&#45;&gt;28 -->
<g id="81" class="edge">
<title>23&#45;&gt;28</title>
<path fill="none" stroke="#444444" stroke-dasharray="5,2" d="M1176.7,-759.36C1286.2,-692.08 1424.33,-607.2 1536.64,-538.19"/>
<polygon fill="#444444" stroke="#444444" points="1538.68,-541.04 1545.36,-532.83 1535.01,-535.08 1538.68,-541.04"/>
<text text-anchor="start" x="1213" y="-773.8" font-family="Arial" font-size="24.00" fill="#444444">Deletes rows and records</text>
<text text-anchor="start" x="1295" y="-749.8" font-family="Arial" font-size="24.00" fill="#444444">receipts in</text>
<text text-anchor="start" x="1317" y="-729.8" font-family="Arial" font-size="19.00" fill="#444444">[sqlite3]</text>
</g>
<!-- 29 -->
<g id="29" class="node">
<title>29</title>
<path fill="#2f95c8" stroke="#20688c" d="M1962,-991.28C1962,-1005.54 1863.84,-1017.13 1743,-1017.13 1622.16,-1017.13 1524,-1005.54 1524,-991.28 1524,-991.28 1524,-758.72 1524,-758.72 1524,-744.46 1622.16,-732.87 1743,-732.87 1863.84,-732.87 1962,-744.46 1962,-758.72 1962,-758.72 1962,-991.28 1962,-991.28"/>
<path fill="none" stroke="#20688c" d="M1962,-991.28C1962,-977.03 1863.84,-965.44 1743,-965.44 1622.16,-965.44 1524,-977.03 1524,-991.28"/>
<text text-anchor="start" x="1578.5" y="-930.3" font-family="Arial" font-size="34.00" fill="#ffffff">Clean Text Blob Store</text>
<text text-anchor="start" x="1553" y="-908.3" font-family="Arial" font-size="19.00" fill="#ffffff">[Container: WSL or NAS&#45;mounted filesystem]</text>
<text text-anchor="start" x="1584.5" y="-871.3" font-family="Arial" font-size="24.00" fill="#ffffff">Filesystem store for snapshot</text>
<text text-anchor="start" x="1636" y="-847.3" font-family="Arial" font-size="24.00" fill="#ffffff">text blobs under the</text>
<text text-anchor="start" x="1593" y="-823.3" font-family="Arial" font-size="24.00" fill="#ffffff">configured WSL&#45;visible blob</text>
<text text-anchor="start" x="1718.5" y="-799.3" font-family="Arial" font-size="24.00" fill="#ffffff">root.</text>
</g>
<!-- 23&#45;&gt;29 -->
<g id="82" class="edge">
<title>23&#45;&gt;29</title>
<path fill="none" stroke="#444444" stroke-dasharray="5,2" d="M1177.18,-875C1279.27,-875 1406.14,-875 1513.75,-875"/>
<polygon fill="#444444" stroke="#444444" points="1513.78,-878.5 1523.78,-875 1513.78,-871.5 1513.78,-878.5"/>
<text text-anchor="start" x="1226.5" y="-899.8" font-family="Arial" font-size="24.00" fill="#444444">Deletes text blobs from</text>
<text text-anchor="start" x="1299" y="-879.8" font-family="Arial" font-size="19.00" fill="#444444">[Filesystem]</text>
</g>
<!-- 30 -->
<g id="30" class="node">
<title>30</title>
<path fill="#2f95c8" stroke="#20688c" d="M1962,-1528.28C1962,-1552.47 1863.84,-1572.13 1743,-1572.13 1622.16,-1572.13 1524,-1552.47 1524,-1528.28 1524,-1528.28 1524,-1133.72 1524,-1133.72 1524,-1109.53 1622.16,-1089.87 1743,-1089.87 1863.84,-1089.87 1962,-1109.53 1962,-1133.72 1962,-1133.72 1962,-1528.28 1962,-1528.28"/>
<path fill="none" stroke="#20688c" d="M1962,-1528.28C1962,-1504.09 1863.84,-1484.44 1743,-1484.44 1622.16,-1484.44 1524,-1504.09 1524,-1528.28"/>
<text text-anchor="start" x="1604" y="-1458.3" font-family="Arial" font-size="34.00" fill="#ffffff">Media Blob Cache</text>
<text text-anchor="start" x="1553" y="-1436.3" font-family="Arial" font-size="19.00" fill="#ffffff">[Container: WSL or NAS&#45;mounted filesystem]</text>
<text text-anchor="start" x="1609.5" y="-1399.3" font-family="Arial" font-size="24.00" fill="#ffffff">Bounded and disposable</text>
<text text-anchor="start" x="1598.5" y="-1375.3" font-family="Arial" font-size="24.00" fill="#ffffff">filesystem cache for stored</text>
<text text-anchor="start" x="1577.5" y="-1351.3" font-family="Arial" font-size="24.00" fill="#ffffff">image/video/audio blobs under</text>
<text text-anchor="start" x="1599" y="-1327.3" font-family="Arial" font-size="24.00" fill="#ffffff">the configured WSL&#45;visible</text>
<text text-anchor="start" x="1667.5" y="-1303.3" font-family="Arial" font-size="24.00" fill="#ffffff">blob root, with</text>
<text text-anchor="start" x="1575.5" y="-1279.3" font-family="Arial" font-size="24.00" fill="#ffffff">purge/rehydrate semantics that</text>
<text text-anchor="start" x="1586.5" y="-1255.3" font-family="Arial" font-size="24.00" fill="#ffffff">preserve media refs, hashes,</text>
<text text-anchor="start" x="1570" y="-1231.3" font-family="Arial" font-size="24.00" fill="#ffffff">status reasons, and provenance</text>
<text text-anchor="start" x="1606.5" y="-1207.3" font-family="Arial" font-size="24.00" fill="#ffffff">when bytes are absent or</text>
<text text-anchor="start" x="1701.5" y="-1183.3" font-family="Arial" font-size="24.00" fill="#ffffff">purged.</text>
</g>
<!-- 23&#45;&gt;30 -->
<g id="83" class="edge">
<title>23&#45;&gt;30</title>
<path fill="none" stroke="#444444" stroke-dasharray="5,2" d="M1177.18,-989.19C1279.68,-1051.22 1407.16,-1128.36 1515.05,-1193.66"/>
<polygon fill="#444444" stroke="#444444" points="1513.41,-1196.75 1523.78,-1198.94 1517.03,-1190.76 1513.41,-1196.75"/>
<text text-anchor="start" x="1213" y="-1194.8" font-family="Arial" font-size="24.00" fill="#444444">Deletes media blobs from</text>
<text text-anchor="start" x="1299" y="-1174.8" font-family="Arial" font-size="19.00" fill="#444444">[Filesystem]</text>
</g>
</g>
</svg>
