<?xml version="1.0" encoding="UTF-8" standalone="no"?>
<!DOCTYPE svg PUBLIC "-//W3C//DTD SVG 1.1//EN"
 "http://www.w3.org/Graphics/SVG/1.1/DTD/svg11.dtd">
<!-- Generated by graphviz version 2.43.0 (0)
 -->
<!-- Title: %3 Pages: 1 -->
<svg width="3425pt" height="2721pt"
 viewBox="0.00 0.00 3425.00 2721.38" xmlns="http://www.w3.org/2000/svg" xmlns:xlink="http://www.w3.org/1999/xlink">
<g id="graph0" class="graph" transform="scale(1 1) rotate(0) translate(4 2717.38)">
<title>%3</title>
<polygon fill="white" stroke="transparent" points="-4,4 -4,-2717.38 3421,-2717.38 3421,4 -4,4"/>
<text text-anchor="start" x="1177" y="-11.8" font-family="Arial" font-size="34.00">Component View: Browser Memory Daemon &#45; Chrome MV3 Extension</text>
<g id="clust1" class="cluster">
<title>cluster_4</title>
<polygon fill="none" stroke="#444444" points="8,-64 8,-2705.38 2982,-2705.38 2982,-64 8,-64"/>
<text text-anchor="start" x="1354" y="-92.8" font-family="Arial" font-size="24.00" fill="#444444">Browser Memory Daemon</text>
<text text-anchor="start" x="1418" y="-72.8" font-family="Arial" font-size="19.00" fill="#444444">[Software System]</text>
</g>
<g id="clust2" class="cluster">
<title>cluster_5</title>
<polygon fill="none" stroke="#444444" points="542,-869.38 542,-2680.38 2908,-2680.38 2908,-869.38 542,-869.38"/>
<text text-anchor="start" x="1597" y="-898.17" font-family="Arial" font-size="24.00" fill="#444444">Chrome MV3 Extension</text>
<text text-anchor="start" x="1537" y="-878.17" font-family="Arial" font-size="19.00" fill="#444444">[Container: JavaScript, Chrome Manifest V3]</text>
</g>
<!-- 2 -->
<g id="2" class="node">
<title>2</title>
<polygon fill="#999999" stroke="#6b6b6b" points="3393,-1205.38 3007,-1205.38 3007,-974.38 3393,-974.38 3393,-1205.38"/>
<text text-anchor="start" x="3065.5" y="-1157.17" font-family="Arial" font-size="34.00" fill="#ffffff">Windows Chrome</text>
<text text-anchor="start" x="3123" y="-1135.17" font-family="Arial" font-size="19.00" fill="#ffffff">[Software System]</text>
<text text-anchor="start" x="3036" y="-1098.17" font-family="Arial" font-size="24.00" fill="#ffffff">The Windows Chrome runtime</text>
<text text-anchor="start" x="3049.5" y="-1074.17" font-family="Arial" font-size="24.00" fill="#ffffff">that loads web pages, hosts</text>
<text text-anchor="start" x="3049" y="-1050.17" font-family="Arial" font-size="24.00" fill="#ffffff">the MV3 extension, runs the</text>
<text text-anchor="start" x="3041" y="-1026.17" font-family="Arial" font-size="24.00" fill="#ffffff">local UI in a tab, and exposes</text>
<text text-anchor="start" x="3070.5" y="-1002.17" font-family="Arial" font-size="24.00" fill="#ffffff">Chrome extension APIs.</text>
</g>
<!-- 10 -->
<g id="10" class="node">
<title>10</title>
<polygon fill="#85bbf0" stroke="#1168bd" points="1971,-1210.38 1507,-1210.38 1507,-969.38 1971,-969.38 1971,-1210.38"/>
<text text-anchor="start" x="1610" y="-1162.17" font-family="Arial" font-size="34.00" fill="#000000">Extension Config</text>
<text text-anchor="start" x="1698" y="-1128.17" font-family="Arial" font-size="34.00" fill="#000000">Store</text>
<text text-anchor="start" x="1536" y="-1106.17" font-family="Arial" font-size="19.00" fill="#000000">[Component: JavaScript + chrome.storage.local]</text>
<text text-anchor="start" x="1602" y="-1069.17" font-family="Arial" font-size="24.00" fill="#000000">Owns typed configuration</text>
<text text-anchor="start" x="1617.5" y="-1045.17" font-family="Arial" font-size="24.00" fill="#000000">defaults/migration plus</text>
<text text-anchor="start" x="1577" y="-1021.17" font-family="Arial" font-size="24.00" fill="#000000">durable visit and minimal CDP</text>
<text text-anchor="start" x="1618.5" y="-997.17" font-family="Arial" font-size="24.00" fill="#000000">capture&#45;context maps.</text>
</g>
<!-- 18 -->
<g id="18" class="node">
<title>18</title>
<path fill="#2f95c8" stroke="#20688c" d="M1965.5,-675.4C1965.5,-703.63 1863.98,-726.56 1739,-726.56 1614.02,-726.56 1512.5,-703.63 1512.5,-675.4 1512.5,-675.4 1512.5,-214.97 1512.5,-214.97 1512.5,-186.74 1614.02,-163.81 1739,-163.81 1863.98,-163.81 1965.5,-186.74 1965.5,-214.97 1965.5,-214.97 1965.5,-675.4 1965.5,-675.4"/>
<path fill="none" stroke="#20688c" d="M1965.5,-675.4C1965.5,-647.17 1863.98,-624.24 1739,-624.24 1614.02,-624.24 1512.5,-647.17 1512.5,-675.4"/>
<text text-anchor="start" x="1597" y="-601.49" font-family="Arial" font-size="34.00" fill="#ffffff">Extension Browser</text>
<text text-anchor="start" x="1679.5" y="-567.49" font-family="Arial" font-size="34.00" fill="#ffffff">Storage</text>
<text text-anchor="start" x="1541.5" y="-545.49" font-family="Arial" font-size="19.00" fill="#ffffff">[Container: chrome.storage.local + IndexedDB]</text>
<text text-anchor="start" x="1561.5" y="-508.49" font-family="Arial" font-size="24.00" fill="#ffffff">Browser&#45;side IndexedDB storage</text>
<text text-anchor="start" x="1652.5" y="-484.49" font-family="Arial" font-size="24.00" fill="#ffffff">for transactional</text>
<text text-anchor="start" x="1583.5" y="-460.49" font-family="Arial" font-size="24.00" fill="#ffffff">capture/lifecycle outbox rows</text>
<text text-anchor="start" x="1573.5" y="-436.49" font-family="Arial" font-size="24.00" fill="#ffffff">plus specialized durable media</text>
<text text-anchor="start" x="1675" y="-412.49" font-family="Arial" font-size="24.00" fill="#ffffff">tasks/blobs;</text>
<text text-anchor="start" x="1586.5" y="-388.49" font-family="Arial" font-size="24.00" fill="#ffffff">chrome.storage.local retains</text>
<text text-anchor="start" x="1587" y="-364.49" font-family="Arial" font-size="24.00" fill="#ffffff">typed configuration, lifecycle</text>
<text text-anchor="start" x="1571.5" y="-340.49" font-family="Arial" font-size="24.00" fill="#ffffff">tab state, minimal CDP capture</text>
<text text-anchor="start" x="1582.5" y="-316.49" font-family="Arial" font-size="24.00" fill="#ffffff">context, aggregate telemetry,</text>
<text text-anchor="start" x="1570.5" y="-292.49" font-family="Arial" font-size="24.00" fill="#ffffff">and one&#45;version queue fallback</text>
<text text-anchor="start" x="1714" y="-268.49" font-family="Arial" font-size="24.00" fill="#ffffff">only.</text>
</g>
<!-- 10&#45;&gt;18 -->
<g id="84" class="edge">
<title>10&#45;&gt;18</title>
<path fill="none" stroke="#444444" stroke-dasharray="5,2" d="M1739,-969.12C1739,-903.41 1739,-818.82 1739,-736.92"/>
<polygon fill="#444444" stroke="#444444" points="1742.5,-736.68 1739,-726.68 1735.5,-736.68 1742.5,-736.68"/>
<polygon fill="white" stroke="transparent" points="1739,-762.38 1739,-861.38 2013,-861.38 2013,-762.38 1739,-762.38"/>
<text text-anchor="start" x="1749.5" y="-838.67" font-family="Arial" font-size="24.00" fill="#444444">Reads and writes typed</text>
<text text-anchor="start" x="1743" y="-814.67" font-family="Arial" font-size="24.00" fill="#444444">settings and restart state</text>
<text text-anchor="start" x="1866.5" y="-790.67" font-family="Arial" font-size="24.00" fill="#444444">in</text>
<text text-anchor="start" x="1782.5" y="-770.67" font-family="Arial" font-size="19.00" fill="#444444">[chrome.storage.local]</text>
</g>
<!-- 11 -->
<g id="11" class="node">
<title>11</title>
<polygon fill="#85bbf0" stroke="#1168bd" points="1449,-1677.38 1083,-1677.38 1083,-1446.38 1449,-1446.38 1449,-1677.38"/>
<text text-anchor="start" x="1172.5" y="-1629.17" font-family="Arial" font-size="34.00" fill="#000000">Visit Tracker</text>
<text text-anchor="start" x="1162" y="-1607.17" font-family="Arial" font-size="19.00" fill="#000000">[Component: JavaScript]</text>
<text text-anchor="start" x="1112" y="-1570.17" font-family="Arial" font-size="24.00" fill="#000000">Owns tab/navigation identity,</text>
<text text-anchor="start" x="1137.5" y="-1546.17" font-family="Arial" font-size="24.00" fill="#000000">active&#45;segment lifecycle</text>
<text text-anchor="start" x="1118.5" y="-1522.17" font-family="Arial" font-size="24.00" fill="#000000">state, deterministic lifecycle</text>
<text text-anchor="start" x="1124.5" y="-1498.17" font-family="Arial" font-size="24.00" fill="#000000">event identity, and capture</text>
<text text-anchor="start" x="1205.5" y="-1474.17" font-family="Arial" font-size="24.00" fill="#000000">decoration.</text>
</g>
<!-- 11&#45;&gt;10 -->
<g id="85" class="edge">
<title>11&#45;&gt;10</title>
<path fill="none" stroke="#444444" stroke-dasharray="5,2" d="M1322.49,-1446.23C1358.16,-1382 1408.83,-1303.57 1469,-1246.38 1479.85,-1236.06 1491.52,-1226.15 1503.69,-1216.69"/>
<polygon fill="#444444" stroke="#444444" points="1505.93,-1219.39 1511.76,-1210.54 1501.69,-1213.82 1505.93,-1219.39"/>
<polygon fill="white" stroke="transparent" points="1469,-1265.88 1469,-1325.88 1721,-1325.88 1721,-1265.88 1469,-1265.88"/>
<text text-anchor="start" x="1473" y="-1302.67" font-family="Arial" font-size="24.00" fill="#444444">Persists tab/navigation</text>
<text text-anchor="start" x="1477.5" y="-1276.67" font-family="Arial" font-size="24.00" fill="#444444">lifecycle state through</text>
</g>
<!-- 12 -->
<g id="12" class="node">
<title>12</title>
<polygon fill="#85bbf0" stroke="#1168bd" points="2883,-1677.38 2455,-1677.38 2455,-1446.38 2883,-1446.38 2883,-1677.38"/>
<text text-anchor="start" x="2527" y="-1629.17" font-family="Arial" font-size="34.00" fill="#000000">Injection Controller</text>
<text text-anchor="start" x="2484" y="-1607.17" font-family="Arial" font-size="19.00" fill="#000000">[Component: JavaScript + chrome.scripting]</text>
<text text-anchor="start" x="2542.5" y="-1570.17" font-family="Arial" font-size="24.00" fill="#000000">Reconstructs active&#45;tab</text>
<text text-anchor="start" x="2519" y="-1546.17" font-family="Arial" font-size="24.00" fill="#000000">injection after worker restart</text>
<text text-anchor="start" x="2518.5" y="-1522.17" font-family="Arial" font-size="24.00" fill="#000000">and idempotently injects the</text>
<text text-anchor="start" x="2574" y="-1498.17" font-family="Arial" font-size="24.00" fill="#000000">complete ordered</text>
<text text-anchor="start" x="2573" y="-1474.17" font-family="Arial" font-size="24.00" fill="#000000">content&#45;script set.</text>
</g>
<!-- 12&#45;&gt;2 -->
<g id="86" class="edge">
<title>12&#45;&gt;2</title>
<path fill="none" stroke="#444444" stroke-dasharray="5,2" d="M2868.44,-1446.14C2913.8,-1416.02 2960.28,-1381.71 3000,-1345.38 3042.45,-1306.54 3082.93,-1258.07 3116.23,-1213.87"/>
<polygon fill="#444444" stroke="#444444" points="3119.18,-1215.78 3122.37,-1205.67 3113.57,-1211.58 3119.18,-1215.78"/>
<polygon fill="white" stroke="transparent" points="3090,-1246.38 3090,-1345.38 3417,-1345.38 3417,-1246.38 3090,-1246.38"/>
<text text-anchor="start" x="3153" y="-1322.67" font-family="Arial" font-size="24.00" fill="#444444">Injects the ordered</text>
<text text-anchor="start" x="3094.5" y="-1298.67" font-family="Arial" font-size="24.00" fill="#444444">extractor/digest/content&#45;script</text>
<text text-anchor="start" x="3214.5" y="-1274.67" font-family="Arial" font-size="24.00" fill="#444444">set into</text>
<text text-anchor="start" x="3178.5" y="-1254.67" font-family="Arial" font-size="19.00" fill="#444444">[chrome.scripting]</text>
</g>
<!-- 13 -->
<g id="13" class="node">
<title>13</title>
<polygon fill="#85bbf0" stroke="#1168bd" points="1010.5,-1742.38 567.5,-1742.38 567.5,-1381.38 1010.5,-1381.38 1010.5,-1742.38"/>
<text text-anchor="start" x="624" y="-1694.17" font-family="Arial" font-size="34.00" fill="#000000">Capture and Lifecycle</text>
<text text-anchor="start" x="734" y="-1660.17" font-family="Arial" font-size="34.00" fill="#000000">Outbox</text>
<text text-anchor="start" x="627" y="-1638.17" font-family="Arial" font-size="19.00" fill="#000000">[Component: JavaScript + IndexedDB]</text>
<text text-anchor="start" x="632.5" y="-1601.17" font-family="Arial" font-size="24.00" fill="#000000">Persists capture and lifecycle</text>
<text text-anchor="start" x="638.5" y="-1577.17" font-family="Arial" font-size="24.00" fill="#000000">messages as independently</text>
<text text-anchor="start" x="613" y="-1553.17" font-family="Arial" font-size="24.00" fill="#000000">sequenced IndexedDB rows with</text>
<text text-anchor="start" x="753" y="-1529.17" font-family="Arial" font-size="24.00" fill="#000000">atomic</text>
<text text-anchor="start" x="596.5" y="-1505.17" font-family="Arial" font-size="24.00" fill="#000000">enqueue/claim/checkpoint/ack/retry,</text>
<text text-anchor="start" x="640" y="-1481.17" font-family="Arial" font-size="24.00" fill="#000000">stale&#45;claim recovery, legacy</text>
<text text-anchor="start" x="630.5" y="-1457.17" font-family="Arial" font-size="24.00" fill="#000000">queue import, item admission</text>
<text text-anchor="start" x="653" y="-1433.17" font-family="Arial" font-size="24.00" fill="#000000">limits, and serialized&#45;byte</text>
<text text-anchor="start" x="727" y="-1409.17" font-family="Arial" font-size="24.00" fill="#000000">accounting.</text>
</g>
<!-- 13&#45;&gt;18 -->
<g id="88" class="edge">
<title>13&#45;&gt;18</title>
<path fill="none" stroke="#444444" stroke-dasharray="5,2" d="M855.42,-1381.2C916.34,-1232.81 1017.23,-1022.45 1150,-869.38 1249.8,-754.3 1386.81,-653.49 1503.57,-579.15"/>
<polygon fill="#444444" stroke="#444444" points="1505.72,-581.93 1512.29,-573.62 1501.97,-576.01 1505.72,-581.93"/>
<polygon fill="white" stroke="transparent" points="1150,-1040.38 1150,-1139.38 1471,-1139.38 1471,-1040.38 1150,-1040.38"/>
<text text-anchor="start" x="1154.5" y="-1116.67" font-family="Arial" font-size="24.00" fill="#444444">Reads and writes sequenced</text>
<text text-anchor="start" x="1171.5" y="-1092.67" font-family="Arial" font-size="24.00" fill="#444444">capture/lifecycle rows and</text>
<text text-anchor="start" x="1194" y="-1068.67" font-family="Arial" font-size="24.00" fill="#444444">migration metadata in</text>
<text text-anchor="start" x="1258.5" y="-1048.67" font-family="Arial" font-size="19.00" fill="#444444">[IndexedDB]</text>
</g>
<!-- 16 -->
<g id="16" class="node">
<title>16</title>
<polygon fill="#85bbf0" stroke="#1168bd" points="1957,-1706.38 1521,-1706.38 1521,-1417.38 1957,-1417.38 1957,-1706.38"/>
<text text-anchor="start" x="1638" y="-1658.17" font-family="Arial" font-size="34.00" fill="#000000">CDP Session</text>
<text text-anchor="start" x="1665" y="-1624.17" font-family="Arial" font-size="34.00" fill="#000000">Controller</text>
<text text-anchor="start" x="1550" y="-1602.17" font-family="Arial" font-size="19.00" fill="#000000">[Component: JavaScript + chrome.debugger]</text>
<text text-anchor="start" x="1601.5" y="-1565.17" font-family="Arial" font-size="24.00" fill="#000000">Restores minimal capture</text>
<text text-anchor="start" x="1614" y="-1541.17" font-family="Arial" font-size="24.00" fill="#000000">provenance, reconciles</text>
<text text-anchor="start" x="1592.5" y="-1517.17" font-family="Arial" font-size="24.00" fill="#000000">extension&#45;owned debugger</text>
<text text-anchor="start" x="1572" y="-1493.17" font-family="Arial" font-size="24.00" fill="#000000">attachments, and owns per&#45;tab</text>
<text text-anchor="start" x="1585.5" y="-1469.17" font-family="Arial" font-size="24.00" fill="#000000">request/session state across</text>
<text text-anchor="start" x="1627" y="-1445.17" font-family="Arial" font-size="24.00" fill="#000000">MV3 worker restarts.</text>
</g>
<!-- 16&#45;&gt;10 -->
<g id="94" class="edge">
<title>16&#45;&gt;10</title>
<path fill="none" stroke="#444444" stroke-dasharray="5,2" d="M1739,-1417.31C1739,-1354.65 1739,-1281.73 1739,-1220.72"/>
<polygon fill="#444444" stroke="#444444" points="1742.5,-1220.64 1739,-1210.64 1735.5,-1220.64 1742.5,-1220.64"/>
<polygon fill="white" stroke="transparent" points="1739,-1265.88 1739,-1325.88 2007,-1325.88 2007,-1265.88 1739,-1265.88"/>
<text text-anchor="start" x="1743" y="-1302.67" font-family="Arial" font-size="24.00" fill="#444444">Persists minimal per&#45;tab</text>
<text text-anchor="start" x="1745" y="-1276.67" font-family="Arial" font-size="24.00" fill="#444444">capture context through</text>
</g>
<!-- 17 -->
<g id="17" class="node">
<title>17</title>
<polygon fill="#85bbf0" stroke="#1168bd" points="1033.5,-2607.38 640.5,-2607.38 640.5,-2400.38 1033.5,-2400.38 1033.5,-2607.38"/>
<text text-anchor="start" x="669.5" y="-2559.18" font-family="Arial" font-size="34.00" fill="#000000">Popup and Options UI</text>
<text text-anchor="start" x="704.5" y="-2537.18" font-family="Arial" font-size="19.00" fill="#000000">[Component: HTML/JavaScript]</text>
<text text-anchor="start" x="678.5" y="-2500.18" font-family="Arial" font-size="24.00" fill="#000000">Lets the operator view status,</text>
<text text-anchor="start" x="677.5" y="-2476.18" font-family="Arial" font-size="24.00" fill="#000000">pause/resume capture, select</text>
<text text-anchor="start" x="679" y="-2452.18" font-family="Arial" font-size="24.00" fill="#000000">policy mode, and trigger local</text>
<text text-anchor="start" x="688" y="-2428.18" font-family="Arial" font-size="24.00" fill="#000000">controls from the extension.</text>
</g>
<!-- 9 -->
<g id="9" class="node">
<title>9</title>
<polygon fill="#85bbf0" stroke="#1168bd" points="1770,-2169.38 1332,-2169.38 1332,-1938.38 1770,-1938.38 1770,-2169.38"/>
<text text-anchor="start" x="1435" y="-2121.18" font-family="Arial" font-size="34.00" fill="#000000">Service Worker</text>
<text text-anchor="start" x="1361" y="-2099.18" font-family="Arial" font-size="19.00" fill="#000000">[Component: JavaScript MV3 service worker]</text>
<text text-anchor="start" x="1399.5" y="-2062.18" font-family="Arial" font-size="24.00" fill="#000000">Registers MV3 listeners and</text>
<text text-anchor="start" x="1403.5" y="-2038.18" font-family="Arial" font-size="24.00" fill="#000000">orchestrates capture/media</text>
<text text-anchor="start" x="1427" y="-2014.18" font-family="Arial" font-size="24.00" fill="#000000">delivery, outbox drains,</text>
<text text-anchor="start" x="1404.5" y="-1990.18" font-family="Arial" font-size="24.00" fill="#000000">alarms, and extracted state</text>
<text text-anchor="start" x="1491.5" y="-1966.18" font-family="Arial" font-size="24.00" fill="#000000">controllers.</text>
</g>
<!-- 17&#45;&gt;9 -->
<g id="99" class="edge">
<title>17&#45;&gt;9</title>
<path fill="none" stroke="#444444" stroke-dasharray="5,2" d="M962.43,-2400.33C1038.2,-2341.65 1138.51,-2269.56 1235,-2217.38 1273.99,-2196.29 1287.95,-2200.36 1328,-2181.38 1333.03,-2178.99 1338.1,-2176.54 1343.19,-2174.03"/>
<polygon fill="#444444" stroke="#444444" points="1344.99,-2177.05 1352.38,-2169.46 1341.87,-2170.78 1344.99,-2177.05"/>
<polygon fill="white" stroke="transparent" points="1235,-2217.38 1235,-2316.38 1596,-2316.38 1596,-2217.38 1235,-2217.38"/>
<text text-anchor="start" x="1294" y="-2293.68" font-family="Arial" font-size="24.00" fill="#444444">Updates pause, policy,</text>
<text text-anchor="start" x="1313.5" y="-2269.68" font-family="Arial" font-size="24.00" fill="#444444">token, and controls</text>
<text text-anchor="start" x="1374.5" y="-2245.68" font-family="Arial" font-size="24.00" fill="#444444">through</text>
<text text-anchor="start" x="1239.5" y="-2225.68" font-family="Arial" font-size="19.00" fill="#444444">[chrome.storage.local, runtime messages]</text>
</g>
<!-- 19 -->
<g id="19" class="node">
<title>19</title>
<polygon fill="#438dd5" stroke="#2e6295" points="495,-1730.38 33,-1730.38 33,-1393.38 495,-1393.38 495,-1730.38"/>
<text text-anchor="start" x="99.5" y="-1682.17" font-family="Arial" font-size="34.00" fill="#ffffff">WSL Loopback HTTP</text>
<text text-anchor="start" x="199.5" y="-1648.17" font-family="Arial" font-size="34.00" fill="#ffffff">Daemon</text>
<text text-anchor="start" x="62" y="-1626.17" font-family="Arial" font-size="19.00" fill="#ffffff">[Container: Python 3.11, ThreadingHTTPServer]</text>
<text text-anchor="start" x="103" y="-1589.17" font-family="Arial" font-size="24.00" fill="#ffffff">Authenticated loopback HTTP</text>
<text text-anchor="start" x="128" y="-1565.17" font-family="Arial" font-size="24.00" fill="#ffffff">API that handles capture,</text>
<text text-anchor="start" x="124.5" y="-1541.17" font-family="Arial" font-size="24.00" fill="#ffffff">visit events, media artifact</text>
<text text-anchor="start" x="127.5" y="-1517.17" font-family="Arial" font-size="24.00" fill="#ffffff">upload/fetch/purge, exact</text>
<text text-anchor="start" x="224" y="-1493.17" font-family="Arial" font-size="24.00" fill="#ffffff">search,</text>
<text text-anchor="start" x="115" y="-1469.17" font-family="Arial" font-size="24.00" fill="#ffffff">recent/timeline/detail, policy</text>
<text text-anchor="start" x="112.5" y="-1445.17" font-family="Arial" font-size="24.00" fill="#ffffff">rules, doctor, durable forget,</text>
<text text-anchor="start" x="151" y="-1421.17" font-family="Arial" font-size="24.00" fill="#ffffff">and static UI serving.</text>
</g>
<!-- 17&#45;&gt;19 -->
<g id="100" class="edge">
<title>17&#45;&gt;19</title>
<path fill="none" stroke="#444444" stroke-dasharray="5,2" d="M755.34,-2400.32C663.43,-2281.95 513.12,-2079.25 407,-1890.38 380.32,-1842.89 355.13,-1789.46 333.53,-1739.75"/>
<polygon fill="#444444" stroke="#444444" points="336.72,-1738.31 329.54,-1730.51 330.29,-1741.08 336.72,-1738.31"/>
<polygon fill="white" stroke="transparent" points="591,-2016.38 591,-2091.38 888,-2091.38 888,-2016.38 591,-2016.38"/>
<text text-anchor="start" x="595.5" y="-2068.68" font-family="Arial" font-size="24.00" fill="#444444">Checks health and triggers</text>
<text text-anchor="start" x="616" y="-2044.68" font-family="Arial" font-size="24.00" fill="#444444">forget/policy actions on</text>
<text text-anchor="start" x="682" y="-2024.68" font-family="Arial" font-size="19.00" fill="#444444">[HTTP/JSON]</text>
</g>
<!-- 6 -->
<g id="6" class="node">
<title>6</title>
<polygon fill="#85bbf0" stroke="#1168bd" points="1615.5,-2624.38 1210.5,-2624.38 1210.5,-2383.38 1615.5,-2383.38 1615.5,-2624.38"/>
<text text-anchor="start" x="1315" y="-2576.18" font-family="Arial" font-size="34.00" fill="#000000">Manifest and</text>
<text text-anchor="start" x="1253.5" y="-2542.18" font-family="Arial" font-size="34.00" fill="#000000">Permission Envelope</text>
<text text-anchor="start" x="1297" y="-2520.18" font-family="Arial" font-size="19.00" fill="#000000">[Component: manifest.json]</text>
<text text-anchor="start" x="1239.5" y="-2483.18" font-family="Arial" font-size="24.00" fill="#000000">Declares MV3 permissions, host</text>
<text text-anchor="start" x="1261" y="-2459.18" font-family="Arial" font-size="24.00" fill="#000000">permissions, service worker,</text>
<text text-anchor="start" x="1309.5" y="-2435.18" font-family="Arial" font-size="24.00" fill="#000000">popup, and options</text>
<text text-anchor="start" x="1350" y="-2411.18" font-family="Arial" font-size="24.00" fill="#000000">entrypoints.</text>
</g>
<!-- 7 -->
<g id="7" class="node">
<title>7</title>
<polygon fill="#85bbf0" stroke="#1168bd" points="2227.5,-2181.38 1842.5,-2181.38 1842.5,-1926.38 2227.5,-1926.38 2227.5,-2181.38"/>
<text text-anchor="start" x="1966.5" y="-2133.18" font-family="Arial" font-size="34.00" fill="#000000">Extractor</text>
<text text-anchor="start" x="1931" y="-2111.18" font-family="Arial" font-size="19.00" fill="#000000">[Component: JavaScript]</text>
<text text-anchor="start" x="1871.5" y="-2074.18" font-family="Arial" font-size="24.00" fill="#000000">Traverses rendered light&#45;DOM</text>
<text text-anchor="start" x="1881.5" y="-2050.18" font-family="Arial" font-size="24.00" fill="#000000">text with computed&#45;style and</text>
<text text-anchor="start" x="1899.5" y="-2026.18" font-family="Arial" font-size="24.00" fill="#000000">ancestor visibility checks,</text>
<text text-anchor="start" x="1915" y="-2002.18" font-family="Arial" font-size="24.00" fill="#000000">discovers image/video</text>
<text text-anchor="start" x="1888.5" y="-1978.18" font-family="Arial" font-size="24.00" fill="#000000">references, and applies the</text>
<text text-anchor="start" x="1918.5" y="-1954.18" font-family="Arial" font-size="24.00" fill="#000000">selected policy mode.</text>
</g>
<!-- 8 -->
<g id="8" class="node">
<title>8</title>
<polygon fill="#85bbf0" stroke="#1168bd" points="2124.5,-2655.38 1739.5,-2655.38 1739.5,-2352.38 2124.5,-2352.38 2124.5,-2655.38"/>
<text text-anchor="start" x="1823.5" y="-2607.18" font-family="Arial" font-size="34.00" fill="#000000">Content Script</text>
<text text-anchor="start" x="1768.5" y="-2585.18" font-family="Arial" font-size="19.00" fill="#000000">[Component: JavaScript content script]</text>
<text text-anchor="start" x="1792" y="-2548.18" font-family="Arial" font-size="24.00" fill="#000000">Schedules initial, delayed,</text>
<text text-anchor="start" x="1773" y="-2524.18" font-family="Arial" font-size="24.00" fill="#000000">reinjected, and SPA captures;</text>
<text text-anchor="start" x="1789" y="-2500.18" font-family="Arial" font-size="24.00" fill="#000000">computes full deterministic</text>
<text text-anchor="start" x="1794" y="-2476.18" font-family="Arial" font-size="24.00" fill="#000000">SHA&#45;256 capture digests;</text>
<text text-anchor="start" x="1805.5" y="-2452.18" font-family="Arial" font-size="24.00" fill="#000000">tracks scroll; and sends</text>
<text text-anchor="start" x="1770" y="-2428.18" font-family="Arial" font-size="24.00" fill="#000000">capture and inline blob upload</text>
<text text-anchor="start" x="1801" y="-2404.18" font-family="Arial" font-size="24.00" fill="#000000">messages to the service</text>
<text text-anchor="start" x="1892.5" y="-2380.18" font-family="Arial" font-size="24.00" fill="#000000">worker.</text>
</g>
<!-- 8&#45;&gt;7 -->
<g id="79" class="edge">
<title>8&#45;&gt;7</title>
<path fill="none" stroke="#444444" stroke-dasharray="5,2" d="M1966.66,-2352.14C1978.6,-2300.21 1991.89,-2242.37 2003.56,-2191.61"/>
<polygon fill="#444444" stroke="#444444" points="2007.04,-2192.09 2005.87,-2181.56 2000.22,-2190.52 2007.04,-2192.09"/>
<polygon fill="white" stroke="transparent" points="1995,-2236.88 1995,-2296.88 2260,-2296.88 2260,-2236.88 1995,-2236.88"/>
<text text-anchor="start" x="1999.5" y="-2273.68" font-family="Arial" font-size="24.00" fill="#444444">Builds capture payloads</text>
<text text-anchor="start" x="2106.5" y="-2247.68" font-family="Arial" font-size="24.00" fill="#444444">with</text>
</g>
<!-- 8&#45;&gt;9 -->
<g id="80" class="edge">
<title>8&#45;&gt;9</title>
<path fill="none" stroke="#444444" stroke-dasharray="5,2" d="M1739.19,-2382.32C1714.79,-2362.16 1691.56,-2340.03 1672,-2316.38 1638.75,-2276.16 1612.5,-2225.3 1593.08,-2179.15"/>
<polygon fill="#444444" stroke="#444444" points="1596.22,-2177.58 1589.16,-2169.68 1589.75,-2180.26 1596.22,-2177.58"/>
<polygon fill="white" stroke="transparent" points="1672,-2229.38 1672,-2304.38 1959,-2304.38 1959,-2229.38 1672,-2229.38"/>
<text text-anchor="start" x="1676.5" y="-2281.68" font-family="Arial" font-size="24.00" fill="#444444">Sends captures and inline</text>
<text text-anchor="start" x="1773.5" y="-2257.68" font-family="Arial" font-size="24.00" fill="#444444">blobs to</text>
<text text-anchor="start" x="1683" y="-2237.68" font-family="Arial" font-size="19.00" fill="#444444">[chrome.runtime.sendMessage]</text>
</g>
<!-- 9&#45;&gt;10 -->
<g id="81" class="edge">
<title>9&#45;&gt;10</title>
<path fill="none" stroke="#444444" stroke-dasharray="5,2" d="M1770.01,-1941.06C1782.42,-1935.85 1794.8,-1930.91 1807,-1926.38 1866.81,-1904.12 1899.67,-1934.26 1946,-1890.38 1996.1,-1842.91 1979.7,-1810.1 1993,-1742.38 2035.58,-1525.61 2137.89,-1436.25 2025,-1246.38 2020.8,-1239.31 2003.76,-1227.44 1979.92,-1213.3"/>
<polygon fill="#444444" stroke="#444444" points="1981.61,-1210.24 1971.21,-1208.21 1978.08,-1216.28 1981.61,-1210.24"/>
<polygon fill="white" stroke="transparent" points="2076,-1518.88 2076,-1604.88 2358,-1604.88 2358,-1518.88 2076,-1518.88"/>
<text text-anchor="start" x="2080" y="-1581.67" font-family="Arial" font-size="24.00" fill="#444444">Reads typed settings and</text>
<text text-anchor="start" x="2108.5" y="-1555.67" font-family="Arial" font-size="24.00" fill="#444444">durable restart state</text>
<text text-anchor="start" x="2175.5" y="-1529.67" font-family="Arial" font-size="24.00" fill="#444444">through</text>
</g>
<!-- 9&#45;&gt;11 -->
<g id="82" class="edge">
<title>9&#45;&gt;11</title>
<path fill="none" stroke="#444444" stroke-dasharray="5,2" d="M1421.49,-1938.07C1408.13,-1922.86 1395.59,-1906.82 1385,-1890.38 1345.04,-1828.34 1316.14,-1751.06 1296.83,-1687.15"/>
<polygon fill="#444444" stroke="#444444" points="1300.14,-1686.01 1293.94,-1677.42 1293.43,-1688 1300.14,-1686.01"/>
<polygon fill="white" stroke="transparent" points="1385,-1791.38 1385,-1877.38 1619,-1877.38 1619,-1791.38 1385,-1791.38"/>
<text text-anchor="start" x="1389" y="-1854.17" font-family="Arial" font-size="24.00" fill="#444444">Delegates navigation</text>
<text text-anchor="start" x="1393.5" y="-1828.17" font-family="Arial" font-size="24.00" fill="#444444">identity and lifecycle</text>
<text text-anchor="start" x="1429.5" y="-1802.17" font-family="Arial" font-size="24.00" fill="#444444">accounting to</text>
</g>
<!-- 9&#45;&gt;12 -->
<g id="83" class="edge">
<title>9&#45;&gt;12</title>
<path fill="none" stroke="#444444" stroke-dasharray="5,2" d="M1770.04,-1938.72C1782.38,-1934.15 1794.76,-1929.99 1807,-1926.38 1874.16,-1906.57 2070.69,-1940.07 2120,-1890.38 2155.26,-1854.84 2097.07,-1814.24 2132,-1778.38 2174.08,-1735.17 2344.59,-1763.71 2401,-1742.38 2440.16,-1727.57 2479.3,-1706.1 2515.09,-1683.12"/>
<polygon fill="#444444" stroke="#444444" points="2517.16,-1685.96 2523.64,-1677.57 2513.34,-1680.09 2517.16,-1685.96"/>
<polygon fill="white" stroke="transparent" points="2132,-1791.38 2132,-1877.38 2405,-1877.38 2405,-1791.38 2132,-1791.38"/>
<text text-anchor="start" x="2151" y="-1854.17" font-family="Arial" font-size="24.00" fill="#444444">Delegates idempotent</text>
<text text-anchor="start" x="2136.5" y="-1828.17" font-family="Arial" font-size="24.00" fill="#444444">active&#45;tab reconstruction</text>
<text text-anchor="start" x="2258.5" y="-1802.17" font-family="Arial" font-size="24.00" fill="#444444">to</text>
</g>
<!-- 9&#45;&gt;13 -->
<g id="87" class="edge">
<title>9&#45;&gt;13</title>
<path fill="none" stroke="#444444" stroke-dasharray="5,2" d="M1359.78,-1938.26C1349.2,-1933.86 1338.57,-1929.86 1328,-1926.38 1201.29,-1884.65 1145.22,-1957.62 1030,-1890.38 972.88,-1857.04 925.29,-1804.23 887.9,-1750.68"/>
<polygon fill="#444444" stroke="#444444" points="890.78,-1748.69 882.23,-1742.43 885.01,-1752.65 890.78,-1748.69"/>
<polygon fill="white" stroke="transparent" points="1030,-1778.38 1030,-1890.38 1312,-1890.38 1312,-1778.38 1030,-1778.38"/>
<text text-anchor="start" x="1073" y="-1867.17" font-family="Arial" font-size="24.00" fill="#444444">Enqueues, drains,</text>
<text text-anchor="start" x="1039.5" y="-1841.17" font-family="Arial" font-size="24.00" fill="#444444">checkpoints, retries, and</text>
<text text-anchor="start" x="1034" y="-1815.17" font-family="Arial" font-size="24.00" fill="#444444">recovers capture/lifecycle</text>
<text text-anchor="start" x="1100.5" y="-1789.17" font-family="Arial" font-size="24.00" fill="#444444">work through</text>
</g>
<!-- 9&#45;&gt;16 -->
<g id="93" class="edge">
<title>9&#45;&gt;16</title>
<path fill="none" stroke="#444444" stroke-dasharray="5,2" d="M1614.99,-1938.29C1622.86,-1922.41 1630.44,-1906.14 1637,-1890.38 1660.09,-1834.88 1680.83,-1772.23 1697.49,-1716.7"/>
<polygon fill="#444444" stroke="#444444" points="1700.94,-1717.36 1700.44,-1706.77 1694.23,-1715.36 1700.94,-1717.36"/>
<polygon fill="white" stroke="transparent" points="1676,-1791.38 1676,-1877.38 1928,-1877.38 1928,-1791.38 1676,-1791.38"/>
<text text-anchor="start" x="1692.5" y="-1854.17" font-family="Arial" font-size="24.00" fill="#444444">Delegates debugger</text>
<text text-anchor="start" x="1680" y="-1828.17" font-family="Arial" font-size="24.00" fill="#444444">attachment and restart</text>
<text text-anchor="start" x="1717.5" y="-1802.17" font-family="Arial" font-size="24.00" fill="#444444">reconciliation to</text>
</g>
<!-- 9&#45;&gt;18 -->
<g id="89" class="edge">
<title>9&#45;&gt;18</title>
<path fill="none" stroke="#444444" stroke-dasharray="5,2" d="M1768.72,-1938.26C1781.49,-1933.76 1794.3,-1929.74 1807,-1926.38 2072.12,-1856.23 2152.9,-1937.9 2423,-1890.38 2649.57,-1850.51 2781.54,-1926.84 2919,-1742.38 3014.87,-1613.72 3023.15,-1503.42 2919,-1381.38 2852.98,-1304 2784.28,-1390.25 2693,-1345.38 2529.76,-1265.13 2198.44,-934.53 1972.58,-697.5"/>
<polygon fill="#444444" stroke="#444444" points="1975.02,-694.99 1965.59,-690.17 1969.95,-699.82 1975.02,-694.99"/>
<polygon fill="white" stroke="transparent" points="2693,-1246.38 2693,-1345.38 2982,-1345.38 2982,-1246.38 2693,-1246.38"/>
<text text-anchor="start" x="2737" y="-1322.67" font-family="Arial" font-size="24.00" fill="#444444">Persists aggregate</text>
<text text-anchor="start" x="2697.5" y="-1298.67" font-family="Arial" font-size="24.00" fill="#444444">telemetry and one&#45;version</text>
<text text-anchor="start" x="2747" y="-1274.67" font-family="Arial" font-size="24.00" fill="#444444">queue fallback in</text>
<text text-anchor="start" x="2744.5" y="-1254.67" font-family="Arial" font-size="19.00" fill="#444444">[chrome.storage.local]</text>
</g>
<!-- 9&#45;&gt;19 -->
<g id="90" class="edge">
<title>9&#45;&gt;19</title>
<path fill="none" stroke="#444444" stroke-dasharray="5,2" d="M1362.63,-1938.32C1351.13,-1933.76 1339.54,-1929.72 1328,-1926.38 1166.01,-1879.49 723.04,-1961.19 570,-1890.38 497.51,-1856.83 433.96,-1797.54 383.83,-1738.54"/>
<polygon fill="#444444" stroke="#444444" points="386.27,-1736 377.16,-1730.6 380.91,-1740.5 386.27,-1736"/>
<polygon fill="white" stroke="transparent" points="570,-1784.88 570,-1883.88 892,-1883.88 892,-1784.88 570,-1784.88"/>
<text text-anchor="start" x="636.5" y="-1861.17" font-family="Arial" font-size="24.00" fill="#444444">Delivers /capture,</text>
<text text-anchor="start" x="627" y="-1837.17" font-family="Arial" font-size="24.00" fill="#444444">/visit&#45;events, media</text>
<text text-anchor="start" x="584.5" y="-1813.17" font-family="Arial" font-size="24.00" fill="#444444">metadata, and raw blobs to</text>
<text text-anchor="start" x="574" y="-1793.17" font-family="Arial" font-size="19.00" fill="#444444">[Bearer HTTP/JSON; raw HTTP PUT]</text>
</g>
</g>
</svg>
