<?xml version="1.0" encoding="UTF-8" standalone="no"?>
<!DOCTYPE svg PUBLIC "-//W3C//DTD SVG 1.1//EN"
 "http://www.w3.org/Graphics/SVG/1.1/DTD/svg11.dtd">
<!-- Generated by graphviz version 2.43.0 (0)
 -->
<!-- Title: %3 Pages: 1 -->
<svg width="2656pt" height="2121pt"
 viewBox="0.00 0.00 2656.00 2121.38" xmlns="http://www.w3.org/2000/svg" xmlns:xlink="http://www.w3.org/1999/xlink">
<g id="graph0" class="graph" transform="scale(1 1) rotate(0) translate(4 2117.38)">
<title>%3</title>
<polygon fill="white" stroke="transparent" points="-4,4 -4,-2117.38 2652,-2117.38 2652,4 -4,4"/>
<text text-anchor="start" x="843.5" y="-11.8" font-family="Arial" font-size="34.00">Deployment View: Browser Memory Daemon &#45; Daily&#45;driver local</text>
<g id="clust1" class="cluster">
<title>cluster_107</title>
<polygon fill="none" stroke="#444444" points="8,-64 8,-2105.38 2640,-2105.38 2640,-64 8,-64"/>
<text text-anchor="start" x="1230.5" y="-92.8" font-family="Arial" font-size="24.00" fill="#444444">Local workstation</text>
<text text-anchor="start" x="1162" y="-72.8" font-family="Arial" font-size="19.00" fill="#444444">[Deployment Node: Windows + WSL2]</text>
</g>
<g id="clust2" class="cluster">
<title>cluster_108</title>
<polygon fill="none" stroke="#444444" points="581,-1599.38 581,-2080.38 1699,-2080.38 1699,-1599.38 581,-1599.38"/>
<text text-anchor="start" x="1027.5" y="-1628.17" font-family="Arial" font-size="24.00" fill="#444444">Windows user profile</text>
<text text-anchor="start" x="986.5" y="-1608.17" font-family="Arial" font-size="19.00" fill="#444444">[Deployment Node: Windows profile]</text>
</g>
<g id="clust3" class="cluster">
<title>cluster_109</title>
<polygon fill="none" stroke="#444444" points="606,-1675.38 606,-2055.38 1674,-2055.38 1674,-1675.38 606,-1675.38"/>
<text text-anchor="start" x="945.5" y="-1704.17" font-family="Arial" font-size="24.00" fill="#444444">Windows Chrome daily&#45;driver profile</text>
<text text-anchor="start" x="964.5" y="-1684.17" font-family="Arial" font-size="19.00" fill="#444444">[Deployment Node: Google Chrome MV3]</text>
</g>
<g id="clust4" class="cluster">
<title>cluster_115</title>
<polygon fill="none" stroke="#444444" points="33,-140 33,-1460.38 2615,-1460.38 2615,-140 33,-140"/>
<text text-anchor="start" x="1248.5" y="-168.8" font-family="Arial" font-size="24.00" fill="#444444">WSL2 Ubuntu</text>
<text text-anchor="start" x="1133.5" y="-148.8" font-family="Arial" font-size="19.00" fill="#444444">[Deployment Node: Ubuntu + systemd &#45;&#45;user]</text>
</g>
<g id="clust5" class="cluster">
<title>cluster_116</title>
<polygon fill="none" stroke="#444444" points="864,-997.38 864,-1435.38 1802,-1435.38 1802,-997.38 864,-997.38"/>
<text text-anchor="start" x="1205" y="-1026.17" font-family="Arial" font-size="24.00" fill="#444444">systemd &#45;&#45;user services</text>
<text text-anchor="start" x="1184" y="-1006.17" font-family="Arial" font-size="19.00" fill="#444444">[Deployment Node: systemd &#45;&#45;user]</text>
</g>
<g id="clust7" class="cluster">
<title>cluster_124</title>
<polygon fill="none" stroke="#444444" points="58,-216 58,-879.38 1429,-879.38 1429,-216 58,-216"/>
<text text-anchor="start" x="584.5" y="-244.8" font-family="Arial" font-size="24.00" fill="#444444">WSL XDG runtime data paths</text>
<text text-anchor="start" x="591.5" y="-224.8" font-family="Arial" font-size="19.00" fill="#444444">[Deployment Node: WSL filesystem]</text>
</g>
<g id="clust8" class="cluster">
<title>cluster_137</title>
<polygon fill="none" stroke="#444444" points="1723,-282 1723,-813.38 2317,-813.38 2317,-282 1723,-282"/>
<text text-anchor="start" x="1833.5" y="-310.8" font-family="Arial" font-size="24.00" fill="#444444">WSL&#45;mounted guarded media root</text>
<text text-anchor="start" x="1779.5" y="-290.8" font-family="Arial" font-size="19.00" fill="#444444">[Deployment Node: NAS mount of TrueNAS ZFS dataset]</text>
</g>
<!-- 110 -->
<g id="110" class="node">
<title>110</title>
<polygon fill="#438dd5" stroke="#2e6295" points="1065,-2030.38 631,-2030.38 631,-1751.38 1065,-1751.38 1065,-2030.38"/>
<text text-anchor="start" x="668" y="-1982.17" font-family="Arial" font-size="34.00" fill="#ffffff">Chrome MV3 Extension</text>
<text text-anchor="start" x="660" y="-1960.17" font-family="Arial" font-size="19.00" fill="#ffffff">[Container: JavaScript, Chrome Manifest V3]</text>
<text text-anchor="start" x="705" y="-1923.17" font-family="Arial" font-size="24.00" fill="#ffffff">Captures visible page text,</text>
<text text-anchor="start" x="730.5" y="-1899.17" font-family="Arial" font-size="24.00" fill="#ffffff">media references, tab</text>
<text text-anchor="start" x="739" y="-1875.17" font-family="Arial" font-size="24.00" fill="#ffffff">lifecycle events, and</text>
<text text-anchor="start" x="682" y="-1851.17" font-family="Arial" font-size="24.00" fill="#ffffff">browser&#45;side media bytes from</text>
<text text-anchor="start" x="677" y="-1827.17" font-family="Arial" font-size="24.00" fill="#ffffff">Windows Chrome; queues work</text>
<text text-anchor="start" x="689" y="-1803.17" font-family="Arial" font-size="24.00" fill="#ffffff">durably and posts to the WSL</text>
<text text-anchor="start" x="800.5" y="-1779.17" font-family="Arial" font-size="24.00" fill="#ffffff">daemon.</text>
</g>
<!-- 117 -->
<g id="117" class="node">
<title>117</title>
<polygon fill="#438dd5" stroke="#2e6295" points="1351,-1410.38 889,-1410.38 889,-1073.38 1351,-1073.38 1351,-1410.38"/>
<text text-anchor="start" x="955.5" y="-1362.17" font-family="Arial" font-size="34.00" fill="#ffffff">WSL Loopback HTTP</text>
<text text-anchor="start" x="1055.5" y="-1328.17" font-family="Arial" font-size="34.00" fill="#ffffff">Daemon</text>
<text text-anchor="start" x="918" y="-1306.17" font-family="Arial" font-size="19.00" fill="#ffffff">[Container: Python 3.11, ThreadingHTTPServer]</text>
<text text-anchor="start" x="959" y="-1269.17" font-family="Arial" font-size="24.00" fill="#ffffff">Authenticated loopback HTTP</text>
<text text-anchor="start" x="984" y="-1245.17" font-family="Arial" font-size="24.00" fill="#ffffff">API that handles capture,</text>
<text text-anchor="start" x="980.5" y="-1221.17" font-family="Arial" font-size="24.00" fill="#ffffff">visit events, media artifact</text>
<text text-anchor="start" x="983.5" y="-1197.17" font-family="Arial" font-size="24.00" fill="#ffffff">upload/fetch/purge, exact</text>
<text text-anchor="start" x="1080" y="-1173.17" font-family="Arial" font-size="24.00" fill="#ffffff">search,</text>
<text text-anchor="start" x="971" y="-1149.17" font-family="Arial" font-size="24.00" fill="#ffffff">recent/timeline/detail, policy</text>
<text text-anchor="start" x="968.5" y="-1125.17" font-family="Arial" font-size="24.00" fill="#ffffff">rules, doctor, durable forget,</text>
<text text-anchor="start" x="1007" y="-1101.17" font-family="Arial" font-size="24.00" fill="#ffffff">and static UI serving.</text>
</g>
<!-- 110&#45;&gt;117 -->
<g id="118" class="edge">
<title>110&#45;&gt;117</title>
<path fill="none" stroke="#444444" stroke-dasharray="5,2" d="M804.96,-1750.95C786.42,-1665.19 777.67,-1555.33 821,-1468.38 836.04,-1438.19 857.27,-1410.97 881.56,-1386.77"/>
<polygon fill="#444444" stroke="#444444" points="884.11,-1389.17 888.83,-1379.69 879.22,-1384.15 884.11,-1389.17"/>
<polygon fill="white" stroke="transparent" points="821,-1468.38 821,-1591.38 1316,-1591.38 1316,-1468.38 821,-1468.38"/>
<text text-anchor="start" x="988" y="-1568.67" font-family="Arial" font-size="24.00" fill="#444444">Posts /capture,</text>
<text text-anchor="start" x="965" y="-1544.67" font-family="Arial" font-size="24.00" fill="#444444">/visit&#45;events, media</text>
<text text-anchor="start" x="942" y="-1520.67" font-family="Arial" font-size="24.00" fill="#444444">metadata, and raw blob</text>
<text text-anchor="start" x="1013" y="-1496.67" font-family="Arial" font-size="24.00" fill="#444444">uploads to</text>
<text text-anchor="start" x="825.5" y="-1476.67" font-family="Arial" font-size="19.00" fill="#444444">[Bearer HTTP/JSON; raw HTTP PUT over 127.0.0.1:8765]</text>
</g>
<!-- 113 -->
<g id="113" class="node">
<title>113</title>
<polygon fill="#438dd5" stroke="#2e6295" points="1649,-2018.38 1137,-2018.38 1137,-1763.38 1649,-1763.38 1649,-2018.38"/>
<text text-anchor="start" x="1290.5" y="-1970.17" font-family="Arial" font-size="34.00" fill="#ffffff">Local Web UI</text>
<text text-anchor="start" x="1166" y="-1948.17" font-family="Arial" font-size="19.00" fill="#ffffff">[Container: HTML/CSS/JavaScript served by daemon]</text>
<text text-anchor="start" x="1251" y="-1911.17" font-family="Arial" font-size="24.00" fill="#ffffff">Static browser UI for exact</text>
<text text-anchor="start" x="1234" y="-1887.17" font-family="Arial" font-size="24.00" fill="#ffffff">search, recent/timeline views,</text>
<text text-anchor="start" x="1251.5" y="-1863.17" font-family="Arial" font-size="24.00" fill="#ffffff">document/snapshot detail,</text>
<text text-anchor="start" x="1236" y="-1839.17" font-family="Arial" font-size="24.00" fill="#ffffff">media artifact opening, policy</text>
<text text-anchor="start" x="1299.5" y="-1815.17" font-family="Arial" font-size="24.00" fill="#ffffff">rules, doctor, and</text>
<text text-anchor="start" x="1254.5" y="-1791.17" font-family="Arial" font-size="24.00" fill="#ffffff">forget&#45;domain operations.</text>
</g>
<!-- 113&#45;&gt;117 -->
<g id="119" class="edge">
<title>113&#45;&gt;117</title>
<path fill="none" stroke="#444444" stroke-dasharray="5,2" d="M1393.48,-1763.34C1389.28,-1676.49 1374.49,-1560.69 1330,-1468.38 1321.79,-1451.34 1311.85,-1434.72 1300.8,-1418.71"/>
<polygon fill="#444444" stroke="#444444" points="1303.56,-1416.54 1294.93,-1410.4 1297.84,-1420.58 1303.56,-1416.54"/>
<polygon fill="white" stroke="transparent" points="1370,-1480.38 1370,-1579.38 1647,-1579.38 1647,-1480.38 1370,-1480.38"/>
<text text-anchor="start" x="1375" y="-1556.67" font-family="Arial" font-size="24.00" fill="#444444">Calls authenticated read,</text>
<text text-anchor="start" x="1374.5" y="-1532.67" font-family="Arial" font-size="24.00" fill="#444444">admin, media, and forget</text>
<text text-anchor="start" x="1466.5" y="-1508.67" font-family="Arial" font-size="24.00" fill="#444444">APIs on</text>
<text text-anchor="start" x="1451" y="-1488.67" font-family="Arial" font-size="19.00" fill="#444444">[HTTP/JSON]</text>
</g>
<!-- 125 -->
<g id="125" class="node">
<title>125</title>
<path fill="#2f95c8" stroke="#20688c" d="M945.5,-803.4C945.5,-831.63 856.98,-854.56 748,-854.56 639.02,-854.56 550.5,-831.63 550.5,-803.4 550.5,-803.4 550.5,-342.97 550.5,-342.97 550.5,-314.74 639.02,-291.81 748,-291.81 856.98,-291.81 945.5,-314.74 945.5,-342.97 945.5,-342.97 945.5,-803.4 945.5,-803.4"/>
<path fill="none" stroke="#20688c" d="M945.5,-803.4C945.5,-775.17 856.98,-752.24 748,-752.24 639.02,-752.24 550.5,-775.17 550.5,-803.4"/>
<text text-anchor="start" x="635" y="-729.49" font-family="Arial" font-size="34.00" fill="#ffffff">SQLite + FTS5</text>
<text text-anchor="start" x="675" y="-695.49" font-family="Arial" font-size="34.00" fill="#ffffff">Database</text>
<text text-anchor="start" x="622" y="-673.49" font-family="Arial" font-size="19.00" fill="#ffffff">[Container: SQLite with FTS5]</text>
<text text-anchor="start" x="580" y="-636.49" font-family="Arial" font-size="24.00" fill="#ffffff">Durable complete cleaned&#45;text,</text>
<text text-anchor="start" x="629" y="-612.49" font-family="Arial" font-size="24.00" fill="#ffffff">relational, and full&#45;text</text>
<text text-anchor="start" x="630.5" y="-588.49" font-family="Arial" font-size="24.00" fill="#ffffff">authority for migration</text>
<text text-anchor="start" x="596" y="-564.49" font-family="Arial" font-size="24.00" fill="#ffffff">ledger, sources, documents,</text>
<text text-anchor="start" x="598.5" y="-540.49" font-family="Arial" font-size="24.00" fill="#ffffff">visits, capture observations,</text>
<text text-anchor="start" x="617" y="-516.49" font-family="Arial" font-size="24.00" fill="#ffffff">URL claims, visit events,</text>
<text text-anchor="start" x="579.5" y="-492.49" font-family="Arial" font-size="24.00" fill="#ffffff">snapshots, chunks, chunks_fts,</text>
<text text-anchor="start" x="587" y="-468.49" font-family="Arial" font-size="24.00" fill="#ffffff">media provenance/tasks, blob</text>
<text text-anchor="start" x="623.5" y="-444.49" font-family="Arial" font-size="24.00" fill="#ffffff">lifecycle records, policy</text>
<text text-anchor="start" x="622.5" y="-420.49" font-family="Arial" font-size="24.00" fill="#ffffff">rules, audit events, and</text>
<text text-anchor="start" x="656" y="-396.49" font-family="Arial" font-size="24.00" fill="#ffffff">deletion receipts.</text>
</g>
<!-- 117&#45;&gt;125 -->
<g id="126" class="edge">
<title>117&#45;&gt;125</title>
<path fill="none" stroke="#444444" stroke-dasharray="5,2" d="M888.87,-1212.55C749.29,-1182.22 581.89,-1119.4 494,-989.38 469.36,-952.92 471.22,-928.02 494,-890.38 499.45,-881.36 506.95,-886.17 515,-879.38 528.65,-867.86 542,-855.42 554.95,-842.36"/>
<polygon fill="#444444" stroke="#444444" points="557.62,-844.64 562.11,-835.05 552.61,-839.75 557.62,-844.64"/>
<polygon fill="white" stroke="transparent" points="494,-890.38 494,-989.38 804,-989.38 804,-890.38 494,-890.38"/>
<text text-anchor="start" x="498" y="-966.67" font-family="Arial" font-size="24.00" fill="#444444">Reads and writes metadata,</text>
<text text-anchor="start" x="531" y="-942.67" font-family="Arial" font-size="24.00" fill="#444444">FTS, tasks, audit, and</text>
<text text-anchor="start" x="593.5" y="-918.67" font-family="Arial" font-size="24.00" fill="#444444">receipts in</text>
<text text-anchor="start" x="615.5" y="-898.67" font-family="Arial" font-size="19.00" fill="#444444">[sqlite3]</text>
</g>
<!-- 129 -->
<g id="129" class="node">
<title>129</title>
<path fill="#2f95c8" stroke="#20688c" d="M478.5,-722.4C478.5,-740.7 389.98,-755.56 281,-755.56 172.02,-755.56 83.5,-740.7 83.5,-722.4 83.5,-722.4 83.5,-423.97 83.5,-423.97 83.5,-405.67 172.02,-390.81 281,-390.81 389.98,-390.81 478.5,-405.67 478.5,-423.97 478.5,-423.97 478.5,-722.4 478.5,-722.4"/>
<path fill="none" stroke="#20688c" d="M478.5,-722.4C478.5,-704.11 389.98,-689.24 281,-689.24 172.02,-689.24 83.5,-704.11 83.5,-722.4"/>
<text text-anchor="start" x="159.5" y="-657.49" font-family="Arial" font-size="34.00" fill="#ffffff">Local Derivative</text>
<text text-anchor="start" x="240" y="-623.49" font-family="Arial" font-size="34.00" fill="#ffffff">Store</text>
<text text-anchor="start" x="141" y="-601.49" font-family="Arial" font-size="19.00" fill="#ffffff">[Container: WSL local filesystem]</text>
<text text-anchor="start" x="127.5" y="-564.49" font-family="Arial" font-size="24.00" fill="#ffffff">Reconstructible compatibility</text>
<text text-anchor="start" x="112.5" y="-540.49" font-family="Arial" font-size="24.00" fill="#ffffff">evidence such as pre&#45;version&#45;9</text>
<text text-anchor="start" x="151" y="-516.49" font-family="Arial" font-size="24.00" fill="#ffffff">clean&#45;text sidecars; new</text>
<text text-anchor="start" x="157.5" y="-492.49" font-family="Arial" font-size="24.00" fill="#ffffff">captures create no text</text>
<text text-anchor="start" x="232.5" y="-468.49" font-family="Arial" font-size="24.00" fill="#ffffff">sidecars.</text>
</g>
<!-- 117&#45;&gt;129 -->
<g id="130" class="edge">
<title>117&#45;&gt;129</title>
<path fill="none" stroke="#444444" stroke-dasharray="5,2" d="M888.95,-1210.61C642.03,-1172.96 274.57,-1099.86 190,-989.38 141.29,-925.74 150.28,-841.37 176.79,-765.32"/>
<polygon fill="#444444" stroke="#444444" points="180.19,-766.2 180.29,-755.6 173.61,-763.83 180.19,-766.2"/>
<polygon fill="white" stroke="transparent" points="190,-890.38 190,-989.38 458,-989.38 458,-890.38 190,-890.38"/>
<text text-anchor="start" x="194" y="-966.67" font-family="Arial" font-size="24.00" fill="#444444">Reads or deletes legacy</text>
<text text-anchor="start" x="223.5" y="-942.67" font-family="Arial" font-size="24.00" fill="#444444">text sidecars when</text>
<text text-anchor="start" x="279" y="-918.67" font-family="Arial" font-size="24.00" fill="#444444">required</text>
<text text-anchor="start" x="272.5" y="-898.67" font-family="Arial" font-size="19.00" fill="#444444">[Filesystem]</text>
</g>
<!-- 132 -->
<g id="132" class="node">
<title>132</title>
<path fill="#2f95c8" stroke="#20688c" d="M1404,-762.9C1404,-786.17 1317.49,-805.06 1211,-805.06 1104.51,-805.06 1018,-786.17 1018,-762.9 1018,-762.9 1018,-383.47 1018,-383.47 1018,-360.21 1104.51,-341.31 1211,-341.31 1317.49,-341.31 1404,-360.21 1404,-383.47 1404,-383.47 1404,-762.9 1404,-762.9"/>
<path fill="none" stroke="#20688c" d="M1404,-762.9C1404,-739.64 1317.49,-720.74 1211,-720.74 1104.51,-720.74 1018,-739.64 1018,-762.9"/>
<text text-anchor="start" x="1047" y="-693.49" font-family="Arial" font-size="34.00" fill="#ffffff">Bounded Local Media</text>
<text text-anchor="start" x="1167.5" y="-659.49" font-family="Arial" font-size="34.00" fill="#ffffff">Spool</text>
<text text-anchor="start" x="1071" y="-637.49" font-family="Arial" font-size="19.00" fill="#ffffff">[Container: WSL local filesystem]</text>
<text text-anchor="start" x="1059" y="-600.49" font-family="Arial" font-size="24.00" fill="#ffffff">Opt&#45;in durable outage buffer</text>
<text text-anchor="start" x="1062.5" y="-576.49" font-family="Arial" font-size="24.00" fill="#ffffff">beneath the local WSL data</text>
<text text-anchor="start" x="1089.5" y="-552.49" font-family="Arial" font-size="24.00" fill="#ffffff">root; admission counts</text>
<text text-anchor="start" x="1065.5" y="-528.49" font-family="Arial" font-size="24.00" fill="#ffffff">committed files and distinct</text>
<text text-anchor="start" x="1059" y="-504.49" font-family="Arial" font-size="24.00" fill="#ffffff">in&#45;flight SQLite reservations,</text>
<text text-anchor="start" x="1086" y="-480.49" font-family="Arial" font-size="24.00" fill="#ffffff">and drain verifies bytes</text>
<text text-anchor="start" x="1063.5" y="-456.49" font-family="Arial" font-size="24.00" fill="#ffffff">before tier transition/source</text>
<text text-anchor="start" x="1165" y="-432.49" font-family="Arial" font-size="24.00" fill="#ffffff">cleanup.</text>
</g>
<!-- 117&#45;&gt;132 -->
<g id="133" class="edge">
<title>117&#45;&gt;132</title>
<path fill="none" stroke="#444444" stroke-dasharray="5,2" d="M888.67,-1078.27C829.05,-1017.44 795.08,-948.94 849,-890.38 869.09,-868.56 956.04,-893.72 982,-879.38 1015.26,-860.99 1045.12,-835.52 1071.43,-807.07"/>
<polygon fill="#444444" stroke="#444444" points="1074.28,-809.13 1078.39,-799.37 1069.09,-804.43 1074.28,-809.13"/>
<polygon fill="white" stroke="transparent" points="849,-890.38 849,-989.38 1125,-989.38 1125,-890.38 849,-890.38"/>
<text text-anchor="start" x="853" y="-966.67" font-family="Arial" font-size="24.00" fill="#444444">Stores and serves media</text>
<text text-anchor="start" x="880" y="-942.67" font-family="Arial" font-size="24.00" fill="#444444">during guarded&#45;root</text>
<text text-anchor="start" x="931" y="-918.67" font-family="Arial" font-size="24.00" fill="#444444">outages in</text>
<text text-anchor="start" x="935.5" y="-898.67" font-family="Arial" font-size="19.00" fill="#444444">[Filesystem]</text>
</g>
<!-- 138 -->
<g id="138" class="node">
<title>138</title>
<path fill="#2f95c8" stroke="#20688c" d="M2292,-749.4C2292,-771.01 2170.09,-788.56 2020,-788.56 1869.91,-788.56 1748,-771.01 1748,-749.4 1748,-749.4 1748,-396.97 1748,-396.97 1748,-375.36 1869.91,-357.81 2020,-357.81 2170.09,-357.81 2292,-375.36 2292,-396.97 2292,-396.97 2292,-749.4 2292,-749.4"/>
<path fill="none" stroke="#20688c" d="M2292,-749.4C2292,-727.8 2170.09,-710.24 2020,-710.24 1869.91,-710.24 1748,-727.8 1748,-749.4"/>
<text text-anchor="start" x="1864.5" y="-681.49" font-family="Arial" font-size="34.00" fill="#ffffff">Guarded Media Blob</text>
<text text-anchor="start" x="1970.5" y="-647.49" font-family="Arial" font-size="34.00" fill="#ffffff">Cache</text>
<text text-anchor="start" x="1777" y="-625.49" font-family="Arial" font-size="19.00" fill="#ffffff">[Container: WSL&#45;visible local or NAS&#45;mounted filesystem]</text>
<text text-anchor="start" x="1910" y="-588.49" font-family="Arial" font-size="24.00" fill="#ffffff">Bounded disposable</text>
<text text-anchor="start" x="1854.5" y="-564.49" font-family="Arial" font-size="24.00" fill="#ffffff">image/video/audio bytes under</text>
<text text-anchor="start" x="1878.5" y="-540.49" font-family="Arial" font-size="24.00" fill="#ffffff">the configured media root;</text>
<text text-anchor="start" x="1906" y="-516.49" font-family="Arial" font-size="24.00" fill="#ffffff">explicit external roots</text>
<text text-anchor="start" x="1921" y="-492.49" font-family="Arial" font-size="24.00" fill="#ffffff">require mount and</text>
<text text-anchor="start" x="1870.5" y="-468.49" font-family="Arial" font-size="24.00" fill="#ffffff">identity&#45;marker proof before</text>
<text text-anchor="start" x="1979" y="-444.49" font-family="Arial" font-size="24.00" fill="#ffffff">access.</text>
</g>
<!-- 117&#45;&gt;138 -->
<g id="139" class="edge">
<title>117&#45;&gt;138</title>
<path fill="none" stroke="#444444" stroke-dasharray="5,2" d="M1137.87,-1072.92C1149.86,-995.23 1168.93,-914.76 1198,-890.38 1219.22,-872.58 1420.29,-886.68 1447,-879.38 1546.96,-852.06 1649.02,-805 1738.79,-755.9"/>
<polygon fill="#444444" stroke="#444444" points="1740.64,-758.88 1747.72,-750.99 1737.27,-752.75 1740.64,-758.88"/>
<polygon fill="white" stroke="transparent" points="1198,-890.38 1198,-989.38 1506,-989.38 1506,-890.38 1198,-890.38"/>
<text text-anchor="start" x="1227" y="-966.67" font-family="Arial" font-size="24.00" fill="#444444">Stores, serves, purges,</text>
<text text-anchor="start" x="1202" y="-942.67" font-family="Arial" font-size="24.00" fill="#444444">and rehydrates media blobs</text>
<text text-anchor="start" x="1342.5" y="-918.67" font-family="Arial" font-size="24.00" fill="#444444">in</text>
<text text-anchor="start" x="1300.5" y="-898.67" font-family="Arial" font-size="19.00" fill="#444444">[Filesystem]</text>
</g>
<!-- 120 -->
<g id="120" class="node">
<title>120</title>
<polygon fill="#438dd5" stroke="#2e6295" points="1777,-1393.38 1423,-1393.38 1423,-1090.38 1777,-1090.38 1777,-1393.38"/>
<text text-anchor="start" x="1453" y="-1345.17" font-family="Arial" font-size="34.00" fill="#ffffff">WSL Media Worker</text>
<text text-anchor="start" x="1460" y="-1323.17" font-family="Arial" font-size="19.00" fill="#ffffff">[Container: Python 3.11 CLI loop]</text>
<text text-anchor="start" x="1452.5" y="-1286.17" font-family="Arial" font-size="24.00" fill="#ffffff">Long&#45;running systemd user</text>
<text text-anchor="start" x="1501.5" y="-1262.17" font-family="Arial" font-size="24.00" fill="#ffffff">worker that leases</text>
<text text-anchor="start" x="1454" y="-1238.17" font-family="Arial" font-size="24.00" fill="#ffffff">daemon&#45;public media fetch</text>
<text text-anchor="start" x="1491" y="-1214.17" font-family="Arial" font-size="24.00" fill="#ffffff">tasks, fetches public</text>
<text text-anchor="start" x="1452" y="-1190.17" font-family="Arial" font-size="24.00" fill="#ffffff">media/HLS without Chrome</text>
<text text-anchor="start" x="1457" y="-1166.17" font-family="Arial" font-size="24.00" fill="#ffffff">cookies, classifies terminal</text>
<text text-anchor="start" x="1454" y="-1142.17" font-family="Arial" font-size="24.00" fill="#ffffff">states, and updates artifact</text>
<text text-anchor="start" x="1571" y="-1118.17" font-family="Arial" font-size="24.00" fill="#ffffff">rows.</text>
</g>
<!-- 120&#45;&gt;125 -->
<g id="127" class="edge">
<title>120&#45;&gt;125</title>
<path fill="none" stroke="#444444" stroke-dasharray="5,2" d="M1585.86,-1090.33C1574.65,-1007.47 1555.49,-916.3 1524,-890.38 1500.75,-871.23 1008.87,-892.97 982,-879.38 963.31,-869.92 945.69,-858.2 929.16,-844.91"/>
<polygon fill="#444444" stroke="#444444" points="931.06,-841.94 921.13,-838.26 926.6,-847.34 931.06,-841.94"/>
<polygon fill="white" stroke="transparent" points="1567,-902.38 1567,-977.38 1867,-977.38 1867,-902.38 1567,-902.38"/>
<text text-anchor="start" x="1571" y="-954.67" font-family="Arial" font-size="24.00" fill="#444444">Leases and updates media</text>
<text text-anchor="start" x="1676" y="-930.67" font-family="Arial" font-size="24.00" fill="#444444">tasks in</text>
<text text-anchor="start" x="1683.5" y="-910.67" font-family="Arial" font-size="19.00" fill="#444444">[sqlite3]</text>
</g>
<!-- 120&#45;&gt;132 -->
<g id="134" class="edge">
<title>120&#45;&gt;132</title>
<path fill="none" stroke="#444444" stroke-dasharray="5,2" d="M1777.2,-1140.27C1881.07,-1068.97 1978.08,-971.9 1901,-890.38 1886.01,-874.53 1725.81,-885.92 1705,-879.38 1601.7,-846.88 1498.1,-787.92 1412.66,-730.43"/>
<polygon fill="#444444" stroke="#444444" points="1414.42,-727.4 1404.18,-724.69 1410.5,-733.19 1414.42,-727.4"/>
<polygon fill="white" stroke="transparent" points="1928,-890.38 1928,-989.38 2164,-989.38 2164,-890.38 1928,-890.38"/>
<text text-anchor="start" x="1932" y="-966.67" font-family="Arial" font-size="24.00" fill="#444444">Writes fetched media</text>
<text text-anchor="start" x="1939" y="-942.67" font-family="Arial" font-size="24.00" fill="#444444">during guarded&#45;root</text>
<text text-anchor="start" x="1989" y="-918.67" font-family="Arial" font-size="24.00" fill="#444444">outages to</text>
<text text-anchor="start" x="1994.5" y="-898.67" font-family="Arial" font-size="19.00" fill="#444444">[Filesystem]</text>
</g>
<!-- 120&#45;&gt;138 -->
<g id="140" class="edge">
<title>120&#45;&gt;138</title>
<path fill="none" stroke="#444444" stroke-dasharray="5,2" d="M1777.31,-1216.68C1913.51,-1187.77 2092.9,-1124.94 2182,-989.38 2220.48,-930.83 2211.47,-861.76 2183.76,-796.93"/>
<polygon fill="#444444" stroke="#444444" points="2186.78,-795.12 2179.53,-787.4 2180.38,-797.96 2186.78,-795.12"/>
<polygon fill="white" stroke="transparent" points="2207,-902.38 2207,-977.38 2507,-977.38 2507,-902.38 2207,-902.38"/>
<text text-anchor="start" x="2211" y="-954.67" font-family="Arial" font-size="24.00" fill="#444444">Writes fetched media blobs</text>
<text text-anchor="start" x="2346.5" y="-930.67" font-family="Arial" font-size="24.00" fill="#444444">to</text>
<text text-anchor="start" x="2305.5" y="-910.67" font-family="Arial" font-size="19.00" fill="#444444">[Filesystem]</text>
</g>
</g>
</svg>
