<?xml version="1.0" encoding="UTF-8" standalone="no"?>
<!DOCTYPE svg PUBLIC "-//W3C//DTD SVG 1.1//EN"
 "http://www.w3.org/Graphics/SVG/1.1/DTD/svg11.dtd">
<!-- Generated by graphviz version 2.43.0 (0)
 -->
<!-- Title: %3 Pages: 1 -->
<svg width="4107pt" height="3056pt"
 viewBox="0.00 0.00 4107.00 3056.38" xmlns="http://www.w3.org/2000/svg" xmlns:xlink="http://www.w3.org/1999/xlink">
<g id="graph0" class="graph" transform="scale(1 1) rotate(0) translate(4 3052.38)">
<title>%3</title>
<polygon fill="white" stroke="transparent" points="-4,4 -4,-3052.38 4103,-3052.38 4103,4 -4,4"/>
<text text-anchor="start" x="1545" y="-11.8" font-family="Arial" font-size="34.00">Browser Memory Daemon &#45; Chrome MV3 Extension &#45; Components</text>
<g id="clust1" class="cluster">
<title>cluster_5</title>
<polygon fill="none" stroke="#444444" points="411,-737.38 411,-3040.38 3337,-3040.38 3337,-737.38 411,-737.38"/>
<text text-anchor="start" x="1746" y="-766.17" font-family="Arial" font-size="24.00" fill="#444444">Chrome MV3 Extension</text>
<text text-anchor="start" x="1686" y="-746.17" font-family="Arial" font-size="19.00" fill="#444444">[Container: JavaScript, Chrome Manifest V3]</text>
</g>
<!-- 2 -->
<g id="2" class="node">
<title>2</title>
<polygon fill="#999999" stroke="#6b6b6b" points="386,-1540.38 0,-1540.38 0,-1309.38 386,-1309.38 386,-1540.38"/>
<text text-anchor="start" x="58.5" y="-1492.17" font-family="Arial" font-size="34.00" fill="#ffffff">Windows Chrome</text>
<text text-anchor="start" x="116" y="-1470.17" font-family="Arial" font-size="19.00" fill="#ffffff">[Software System]</text>
<text text-anchor="start" x="29" y="-1433.17" font-family="Arial" font-size="24.00" fill="#ffffff">The Windows Chrome runtime</text>
<text text-anchor="start" x="42.5" y="-1409.17" font-family="Arial" font-size="24.00" fill="#ffffff">that loads web pages, hosts</text>
<text text-anchor="start" x="42" y="-1385.17" font-family="Arial" font-size="24.00" fill="#ffffff">the MV3 extension, runs the</text>
<text text-anchor="start" x="34" y="-1361.17" font-family="Arial" font-size="24.00" fill="#ffffff">local UI in a tab, and exposes</text>
<text text-anchor="start" x="63.5" y="-1337.17" font-family="Arial" font-size="24.00" fill="#ffffff">Chrome extension APIs.</text>
</g>
<!-- 21 -->
<g id="21" class="node">
<title>21</title>
<path fill="#2f95c8" stroke="#20688c" d="M1654.5,-567.4C1654.5,-595.63 1552.98,-618.56 1428,-618.56 1303.02,-618.56 1201.5,-595.63 1201.5,-567.4 1201.5,-567.4 1201.5,-106.97 1201.5,-106.97 1201.5,-78.74 1303.02,-55.81 1428,-55.81 1552.98,-55.81 1654.5,-78.74 1654.5,-106.97 1654.5,-106.97 1654.5,-567.4 1654.5,-567.4"/>
<path fill="none" stroke="#20688c" d="M1654.5,-567.4C1654.5,-539.17 1552.98,-516.24 1428,-516.24 1303.02,-516.24 1201.5,-539.17 1201.5,-567.4"/>
<text text-anchor="start" x="1286" y="-493.49" font-family="Arial" font-size="34.00" fill="#ffffff">Extension Browser</text>
<text text-anchor="start" x="1368.5" y="-459.49" font-family="Arial" font-size="34.00" fill="#ffffff">Storage</text>
<text text-anchor="start" x="1230.5" y="-437.49" font-family="Arial" font-size="19.00" fill="#ffffff">[Container: chrome.storage.local + IndexedDB]</text>
<text text-anchor="start" x="1250.5" y="-400.49" font-family="Arial" font-size="24.00" fill="#ffffff">Browser&#45;side IndexedDB storage</text>
<text text-anchor="start" x="1341.5" y="-376.49" font-family="Arial" font-size="24.00" fill="#ffffff">for transactional</text>
<text text-anchor="start" x="1272.5" y="-352.49" font-family="Arial" font-size="24.00" fill="#ffffff">capture/lifecycle outbox rows</text>
<text text-anchor="start" x="1262.5" y="-328.49" font-family="Arial" font-size="24.00" fill="#ffffff">plus specialized durable media</text>
<text text-anchor="start" x="1364" y="-304.49" font-family="Arial" font-size="24.00" fill="#ffffff">tasks/blobs;</text>
<text text-anchor="start" x="1275.5" y="-280.49" font-family="Arial" font-size="24.00" fill="#ffffff">chrome.storage.local retains</text>
<text text-anchor="start" x="1276" y="-256.49" font-family="Arial" font-size="24.00" fill="#ffffff">typed configuration, lifecycle</text>
<text text-anchor="start" x="1260.5" y="-232.49" font-family="Arial" font-size="24.00" fill="#ffffff">tab state, minimal CDP capture</text>
<text text-anchor="start" x="1271.5" y="-208.49" font-family="Arial" font-size="24.00" fill="#ffffff">context, aggregate telemetry,</text>
<text text-anchor="start" x="1259.5" y="-184.49" font-family="Arial" font-size="24.00" fill="#ffffff">and one&#45;version queue fallback</text>
<text text-anchor="start" x="1403" y="-160.49" font-family="Arial" font-size="24.00" fill="#ffffff">only.</text>
</g>
<!-- 22 -->
<g id="22" class="node">
<title>22</title>
<polygon fill="#438dd5" stroke="#2e6295" points="3824,-1073.38 3362,-1073.38 3362,-832.38 3824,-832.38 3824,-1073.38"/>
<text text-anchor="start" x="3428.5" y="-1025.17" font-family="Arial" font-size="34.00" fill="#ffffff">WSL Loopback HTTP</text>
<text text-anchor="start" x="3528.5" y="-991.17" font-family="Arial" font-size="34.00" fill="#ffffff">Daemon</text>
<text text-anchor="start" x="3391" y="-969.17" font-family="Arial" font-size="19.00" fill="#ffffff">[Container: Python 3.11, ThreadingHTTPServer]</text>
<text text-anchor="start" x="3427.5" y="-932.17" font-family="Arial" font-size="24.00" fill="#ffffff">Authenticated loopback API for</text>
<text text-anchor="start" x="3448.5" y="-908.17" font-family="Arial" font-size="24.00" fill="#ffffff">capture, read/admin/media</text>
<text text-anchor="start" x="3449" y="-884.17" font-family="Arial" font-size="24.00" fill="#ffffff">operations, and query&#45;only</text>
<text text-anchor="start" x="3430.5" y="-860.17" font-family="Arial" font-size="24.00" fill="#ffffff">bmd.x&#45;observations v1 export.</text>
</g>
<!-- 10 -->
<g id="10" class="node">
<title>10</title>
<polygon fill="#85bbf0" stroke="#1168bd" points="1371,-1545.38 907,-1545.38 907,-1304.38 1371,-1304.38 1371,-1545.38"/>
<text text-anchor="start" x="1010" y="-1497.17" font-family="Arial" font-size="34.00" fill="#000000">Extension Config</text>
<text text-anchor="start" x="1098" y="-1463.17" font-family="Arial" font-size="34.00" fill="#000000">Store</text>
<text text-anchor="start" x="936" y="-1441.17" font-family="Arial" font-size="19.00" fill="#000000">[Component: JavaScript + chrome.storage.local]</text>
<text text-anchor="start" x="1002" y="-1404.17" font-family="Arial" font-size="24.00" fill="#000000">Owns typed configuration</text>
<text text-anchor="start" x="1017.5" y="-1380.17" font-family="Arial" font-size="24.00" fill="#000000">defaults/migration plus</text>
<text text-anchor="start" x="977" y="-1356.17" font-family="Arial" font-size="24.00" fill="#000000">durable visit and minimal CDP</text>
<text text-anchor="start" x="1018.5" y="-1332.17" font-family="Arial" font-size="24.00" fill="#000000">capture&#45;context maps.</text>
</g>
<!-- 10&#45;&gt;21 -->
<g id="89" class="edge">
<title>10&#45;&gt;21</title>
<path fill="none" stroke="#707070" stroke-dasharray="5,2" d="M1127.27,-1304.32C1117.63,-1164.71 1114.05,-928.55 1175,-737.38 1188.53,-694.95 1207.69,-652.58 1229.48,-612.13"/>
<polygon fill="#707070" stroke="#707070" points="1232.61,-613.72 1234.32,-603.26 1226.46,-610.37 1232.61,-613.72"/>
<polygon fill="white" stroke="transparent" points="1175,-903.38 1175,-1002.38 1449,-1002.38 1449,-903.38 1175,-903.38"/>
<text text-anchor="start" x="1185.5" y="-979.67" font-family="Arial" font-size="24.00" fill="#707070">Reads and writes typed</text>
<text text-anchor="start" x="1179" y="-955.67" font-family="Arial" font-size="24.00" fill="#707070">settings and restart state</text>
<text text-anchor="start" x="1302.5" y="-931.67" font-family="Arial" font-size="24.00" fill="#707070">in</text>
<text text-anchor="start" x="1218.5" y="-911.67" font-family="Arial" font-size="19.00" fill="#707070">[chrome.storage.local]</text>
</g>
<!-- 11 -->
<g id="11" class="node">
<title>11</title>
<polygon fill="#85bbf0" stroke="#1168bd" points="1302,-2061.38 936,-2061.38 936,-1830.38 1302,-1830.38 1302,-2061.38"/>
<text text-anchor="start" x="1025.5" y="-2013.17" font-family="Arial" font-size="34.00" fill="#000000">Visit Tracker</text>
<text text-anchor="start" x="1015" y="-1991.17" font-family="Arial" font-size="19.00" fill="#000000">[Component: JavaScript]</text>
<text text-anchor="start" x="965" y="-1954.17" font-family="Arial" font-size="24.00" fill="#000000">Owns tab/navigation identity,</text>
<text text-anchor="start" x="990.5" y="-1930.17" font-family="Arial" font-size="24.00" fill="#000000">active&#45;segment lifecycle</text>
<text text-anchor="start" x="971.5" y="-1906.17" font-family="Arial" font-size="24.00" fill="#000000">state, deterministic lifecycle</text>
<text text-anchor="start" x="977.5" y="-1882.17" font-family="Arial" font-size="24.00" fill="#000000">event identity, and capture</text>
<text text-anchor="start" x="1058.5" y="-1858.17" font-family="Arial" font-size="24.00" fill="#000000">decoration.</text>
</g>
<!-- 11&#45;&gt;10 -->
<g id="90" class="edge">
<title>11&#45;&gt;10</title>
<path fill="none" stroke="#707070" stroke-dasharray="5,2" d="M1095.99,-1830.35C1091.83,-1805.1 1088.14,-1778.42 1086,-1753.38 1081.76,-1703.78 1080.01,-1690.79 1086,-1641.38 1089.41,-1613.23 1095.24,-1583.47 1101.81,-1555.34"/>
<polygon fill="#707070" stroke="#707070" points="1105.25,-1556 1104.17,-1545.46 1098.44,-1554.37 1105.25,-1556"/>
<polygon fill="white" stroke="transparent" points="1086,-1667.38 1086,-1727.38 1338,-1727.38 1338,-1667.38 1086,-1667.38"/>
<text text-anchor="start" x="1090" y="-1704.17" font-family="Arial" font-size="24.00" fill="#707070">Persists tab/navigation</text>
<text text-anchor="start" x="1094.5" y="-1678.17" font-family="Arial" font-size="24.00" fill="#707070">lifecycle state through</text>
</g>
<!-- 12 -->
<g id="12" class="node">
<title>12</title>
<polygon fill="#85bbf0" stroke="#1168bd" points="864,-2061.38 436,-2061.38 436,-1830.38 864,-1830.38 864,-2061.38"/>
<text text-anchor="start" x="508" y="-2013.17" font-family="Arial" font-size="34.00" fill="#000000">Injection Controller</text>
<text text-anchor="start" x="465" y="-1991.17" font-family="Arial" font-size="19.00" fill="#000000">[Component: JavaScript + chrome.scripting]</text>
<text text-anchor="start" x="523.5" y="-1954.17" font-family="Arial" font-size="24.00" fill="#000000">Reconstructs active&#45;tab</text>
<text text-anchor="start" x="500" y="-1930.17" font-family="Arial" font-size="24.00" fill="#000000">injection after worker restart</text>
<text text-anchor="start" x="499.5" y="-1906.17" font-family="Arial" font-size="24.00" fill="#000000">and idempotently injects the</text>
<text text-anchor="start" x="555" y="-1882.17" font-family="Arial" font-size="24.00" fill="#000000">complete ordered</text>
<text text-anchor="start" x="554" y="-1858.17" font-family="Arial" font-size="24.00" fill="#000000">content&#45;script set.</text>
</g>
<!-- 12&#45;&gt;2 -->
<g id="91" class="edge">
<title>12&#45;&gt;2</title>
<path fill="none" stroke="#707070" stroke-dasharray="5,2" d="M496.68,-1830.11C468.53,-1806.13 440.37,-1779.99 416,-1753.38 358.98,-1691.11 305.38,-1613.26 265.02,-1549.09"/>
<polygon fill="#707070" stroke="#707070" points="267.94,-1547.16 259.67,-1540.54 262,-1550.87 267.94,-1547.16"/>
<polygon fill="white" stroke="transparent" points="416,-1647.88 416,-1746.88 743,-1746.88 743,-1647.88 416,-1647.88"/>
<text text-anchor="start" x="479" y="-1724.17" font-family="Arial" font-size="24.00" fill="#707070">Injects the ordered</text>
<text text-anchor="start" x="420.5" y="-1700.17" font-family="Arial" font-size="24.00" fill="#707070">extractor/digest/content&#45;script</text>
<text text-anchor="start" x="540.5" y="-1676.17" font-family="Arial" font-size="24.00" fill="#707070">set into</text>
<text text-anchor="start" x="504.5" y="-1656.17" font-family="Arial" font-size="19.00" fill="#707070">[chrome.scripting]</text>
</g>
<!-- 13 -->
<g id="13" class="node">
<title>13</title>
<polygon fill="#85bbf0" stroke="#1168bd" points="3311.5,-2090.38 2826.5,-2090.38 2826.5,-1801.38 3311.5,-1801.38 3311.5,-2090.38"/>
<text text-anchor="start" x="2904" y="-2042.17" font-family="Arial" font-size="34.00" fill="#000000">Capture and Lifecycle</text>
<text text-anchor="start" x="3020" y="-2008.17" font-family="Arial" font-size="34.00" fill="#000000">Bridge</text>
<text text-anchor="start" x="2965" y="-1986.17" font-family="Arial" font-size="19.00" fill="#000000">[Component: JavaScript]</text>
<text text-anchor="start" x="2943" y="-1949.17" font-family="Arial" font-size="24.00" fill="#000000">Owns daemon delivery,</text>
<text text-anchor="start" x="2960.5" y="-1925.17" font-family="Arial" font-size="24.00" fill="#000000">transactional outbox</text>
<text text-anchor="start" x="2855.5" y="-1901.17" font-family="Arial" font-size="24.00" fill="#000000">import/admission/drain/checkpoint/retry,</text>
<text text-anchor="start" x="2950" y="-1877.17" font-family="Arial" font-size="24.00" fill="#000000">legacy fallback, media</text>
<text text-anchor="start" x="2929" y="-1853.17" font-family="Arial" font-size="24.00" fill="#000000">compensation, and queue</text>
<text text-anchor="start" x="3033" y="-1829.17" font-family="Arial" font-size="24.00" fill="#000000">status.</text>
</g>
<!-- 13&#45;&gt;21 -->
<g id="96" class="edge">
<title>13&#45;&gt;21</title>
<path fill="none" stroke="#707070" stroke-dasharray="5,2" d="M2826.15,-1810.45C2804.23,-1802.08 2782,-1794.85 2760,-1789.38 2577.08,-1743.89 1241.84,-1815.83 1064,-1753.38 962.01,-1717.56 926.64,-1698.05 871,-1605.38 756.53,-1414.71 732.52,-1319.62 805,-1109.38 880.99,-888.95 1051,-685.87 1194.25,-543.49"/>
<polygon fill="#707070" stroke="#707070" points="1196.84,-545.86 1201.48,-536.33 1191.91,-540.88 1196.84,-545.86"/>
<polygon fill="white" stroke="transparent" points="805,-1109.38 805,-1208.38 1103,-1208.38 1103,-1109.38 805,-1109.38"/>
<text text-anchor="start" x="812.5" y="-1185.67" font-family="Arial" font-size="24.00" fill="#707070">Imports and preserves the</text>
<text text-anchor="start" x="809" y="-1161.67" font-family="Arial" font-size="24.00" fill="#707070">one&#45;version queue fallback</text>
<text text-anchor="start" x="944.5" y="-1137.67" font-family="Arial" font-size="24.00" fill="#707070">in</text>
<text text-anchor="start" x="860.5" y="-1117.67" font-family="Arial" font-size="19.00" fill="#707070">[chrome.storage.local]</text>
</g>
<!-- 13&#45;&gt;22 -->
<g id="98" class="edge">
<title>13&#45;&gt;22</title>
<path fill="none" stroke="#707070" stroke-dasharray="5,2" d="M3311.78,-1822.65C3337.43,-1802.23 3361.02,-1779.16 3380,-1753.38 3518.4,-1565.33 3449.03,-1469.76 3510,-1244.38 3524.31,-1191.46 3540.77,-1133.33 3555.24,-1083.06"/>
<polygon fill="#707070" stroke="#707070" points="3558.61,-1084.02 3558.01,-1073.45 3551.88,-1082.09 3558.61,-1084.02"/>
<polygon fill="white" stroke="transparent" points="3510,-1387.38 3510,-1462.38 3747,-1462.38 3747,-1387.38 3510,-1387.38"/>
<text text-anchor="start" x="3514.5" y="-1439.67" font-family="Arial" font-size="24.00" fill="#707070">Delivers /capture and</text>
<text text-anchor="start" x="3551.5" y="-1415.67" font-family="Arial" font-size="24.00" fill="#707070">/visit&#45;events to</text>
<text text-anchor="start" x="3540" y="-1395.67" font-family="Arial" font-size="19.00" fill="#707070">[Bearer HTTP/JSON]</text>
</g>
<!-- 14 -->
<g id="14" class="node">
<title>14</title>
<polygon fill="#85bbf0" stroke="#1168bd" points="2357.5,-1557.38 1980.5,-1557.38 1980.5,-1292.38 2357.5,-1292.38 2357.5,-1557.38"/>
<text text-anchor="start" x="2021.5" y="-1509.17" font-family="Arial" font-size="34.00" fill="#000000">Credentialed Media</text>
<text text-anchor="start" x="2120" y="-1475.17" font-family="Arial" font-size="34.00" fill="#000000">Bridge</text>
<text text-anchor="start" x="2065" y="-1453.17" font-family="Arial" font-size="19.00" fill="#000000">[Component: JavaScript]</text>
<text text-anchor="start" x="2022" y="-1416.17" font-family="Arial" font-size="24.00" fill="#000000">Owns browser credentialed</text>
<text text-anchor="start" x="2009.5" y="-1392.17" font-family="Arial" font-size="24.00" fill="#000000">fetch, inline/CDP blob upload,</text>
<text text-anchor="start" x="2035.5" y="-1368.17" font-family="Arial" font-size="24.00" fill="#000000">specialized media queue</text>
<text text-anchor="start" x="2041" y="-1344.17" font-family="Arial" font-size="24.00" fill="#000000">drain/retry, and terminal</text>
<text text-anchor="start" x="2123" y="-1320.17" font-family="Arial" font-size="24.00" fill="#000000">cleanup.</text>
</g>
<!-- 13&#45;&gt;14 -->
<g id="97" class="edge">
<title>13&#45;&gt;14</title>
<path fill="none" stroke="#707070" stroke-dasharray="5,2" d="M2826.28,-1809.62C2808.2,-1802.09 2789.99,-1795.22 2772,-1789.38 2667.33,-1755.37 2617.7,-1815.71 2527,-1753.38 2479.93,-1721.03 2502.46,-1683.6 2464,-1641.38 2445.07,-1620.59 2434.86,-1621.73 2412,-1605.38 2393.07,-1591.83 2373.39,-1577.59 2353.8,-1563.3"/>
<polygon fill="#707070" stroke="#707070" points="2355.86,-1560.46 2345.72,-1557.39 2351.73,-1566.11 2355.86,-1560.46"/>
<polygon fill="white" stroke="transparent" points="2527,-1667.38 2527,-1727.38 2848,-1727.38 2848,-1667.38 2527,-1667.38"/>
<text text-anchor="start" x="2557" y="-1704.17" font-family="Arial" font-size="24.00" fill="#707070">Dispatches post&#45;capture</text>
<text text-anchor="start" x="2531.5" y="-1678.17" font-family="Arial" font-size="24.00" fill="#707070">media compensation through</text>
</g>
<!-- 15 -->
<g id="15" class="node">
<title>15</title>
<polygon fill="#85bbf0" stroke="#1168bd" points="1949,-1068.38 1485,-1068.38 1485,-837.38 1949,-837.38 1949,-1068.38"/>
<text text-anchor="start" x="1563.5" y="-1020.17" font-family="Arial" font-size="34.00" fill="#000000">Extension Telemetry</text>
<text text-anchor="start" x="1514" y="-998.17" font-family="Arial" font-size="19.00" fill="#000000">[Component: JavaScript + chrome.storage.local]</text>
<text text-anchor="start" x="1616" y="-961.17" font-family="Arial" font-size="24.00" fill="#000000">Persists aggregate</text>
<text text-anchor="start" x="1554" y="-937.17" font-family="Arial" font-size="24.00" fill="#000000">bridge/queue/CDP status after</text>
<text text-anchor="start" x="1555" y="-913.17" font-family="Arial" font-size="24.00" fill="#000000">recursively removing captured</text>
<text text-anchor="start" x="1611.5" y="-889.17" font-family="Arial" font-size="24.00" fill="#000000">fields and redacting</text>
<text text-anchor="start" x="1610" y="-865.17" font-family="Arial" font-size="24.00" fill="#000000">URL&#45;shaped errors.</text>
</g>
<!-- 13&#45;&gt;15 -->
<g id="99" class="edge">
<title>13&#45;&gt;15</title>
<path fill="none" stroke="#707070" stroke-dasharray="5,2" d="M3005.2,-1801.35C2971.32,-1742.02 2923.76,-1678.53 2862,-1641.38 2738.23,-1566.91 2654,-1692.78 2539,-1605.38 2401.35,-1500.75 2488.47,-1389.19 2394,-1244.38 2348.15,-1174.09 2334.09,-1152.32 2262,-1109.38 2169.97,-1054.55 2057.64,-1018.23 1958.93,-994.59"/>
<polygon fill="#707070" stroke="#707070" points="1959.65,-991.17 1949.11,-992.27 1958.04,-997.98 1959.65,-991.17"/>
<polygon fill="white" stroke="transparent" points="2539,-1394.88 2539,-1454.88 2833,-1454.88 2833,-1394.88 2539,-1394.88"/>
<text text-anchor="start" x="2543" y="-1431.67" font-family="Arial" font-size="24.00" fill="#707070">Records aggregate outbox</text>
<text text-anchor="start" x="2609" y="-1405.67" font-family="Arial" font-size="24.00" fill="#707070">status through</text>
</g>
<!-- 16 -->
<g id="16" class="node">
<title>16</title>
<polygon fill="#85bbf0" stroke="#1168bd" points="3311.5,-1605.38 2868.5,-1605.38 2868.5,-1244.38 3311.5,-1244.38 3311.5,-1605.38"/>
<text text-anchor="start" x="2925" y="-1557.17" font-family="Arial" font-size="34.00" fill="#000000">Capture and Lifecycle</text>
<text text-anchor="start" x="3035" y="-1523.17" font-family="Arial" font-size="34.00" fill="#000000">Outbox</text>
<text text-anchor="start" x="2928" y="-1501.17" font-family="Arial" font-size="19.00" fill="#000000">[Component: JavaScript + IndexedDB]</text>
<text text-anchor="start" x="2933.5" y="-1464.17" font-family="Arial" font-size="24.00" fill="#000000">Persists capture and lifecycle</text>
<text text-anchor="start" x="2939.5" y="-1440.17" font-family="Arial" font-size="24.00" fill="#000000">messages as independently</text>
<text text-anchor="start" x="2914" y="-1416.17" font-family="Arial" font-size="24.00" fill="#000000">sequenced IndexedDB rows with</text>
<text text-anchor="start" x="3054" y="-1392.17" font-family="Arial" font-size="24.00" fill="#000000">atomic</text>
<text text-anchor="start" x="2897.5" y="-1368.17" font-family="Arial" font-size="24.00" fill="#000000">enqueue/claim/checkpoint/ack/retry,</text>
<text text-anchor="start" x="2941" y="-1344.17" font-family="Arial" font-size="24.00" fill="#000000">stale&#45;claim recovery, legacy</text>
<text text-anchor="start" x="2931.5" y="-1320.17" font-family="Arial" font-size="24.00" fill="#000000">queue import, item admission</text>
<text text-anchor="start" x="2954" y="-1296.17" font-family="Arial" font-size="24.00" fill="#000000">limits, and serialized&#45;byte</text>
<text text-anchor="start" x="3028" y="-1272.17" font-family="Arial" font-size="24.00" fill="#000000">accounting.</text>
</g>
<!-- 13&#45;&gt;16 -->
<g id="95" class="edge">
<title>13&#45;&gt;16</title>
<path fill="none" stroke="#707070" stroke-dasharray="5,2" d="M3074.81,-1801.34C3077.13,-1743.93 3079.84,-1676.99 3082.32,-1615.66"/>
<polygon fill="#707070" stroke="#707070" points="3085.83,-1615.61 3082.73,-1605.47 3078.83,-1615.33 3085.83,-1615.61"/>
<polygon fill="white" stroke="transparent" points="3080,-1641.38 3080,-1753.38 3362,-1753.38 3362,-1641.38 3080,-1641.38"/>
<text text-anchor="start" x="3123" y="-1730.17" font-family="Arial" font-size="24.00" fill="#707070">Enqueues, drains,</text>
<text text-anchor="start" x="3089.5" y="-1704.17" font-family="Arial" font-size="24.00" fill="#707070">checkpoints, retries, and</text>
<text text-anchor="start" x="3084" y="-1678.17" font-family="Arial" font-size="24.00" fill="#707070">recovers capture/lifecycle</text>
<text text-anchor="start" x="3150.5" y="-1652.17" font-family="Arial" font-size="24.00" fill="#707070">work through</text>
</g>
<!-- 14&#45;&gt;22 -->
<g id="102" class="edge">
<title>14&#45;&gt;22</title>
<path fill="none" stroke="#707070" stroke-dasharray="5,2" d="M2326.96,-1292.25C2354.13,-1274.07 2383,-1257.25 2412,-1244.38 2688.42,-1121.61 2780.64,-1158.97 3079,-1109.38 3197.81,-1089.63 3234.79,-1108.58 3352.25,-1074.1"/>
<polygon fill="#707070" stroke="#707070" points="3353.41,-1077.41 3361.98,-1071.18 3351.39,-1070.7 3353.41,-1077.41"/>
<polygon fill="white" stroke="transparent" points="3079,-1121.38 3079,-1196.38 3401,-1196.38 3401,-1121.38 3079,-1121.38"/>
<text text-anchor="start" x="3106" y="-1173.67" font-family="Arial" font-size="24.00" fill="#707070">Delivers media metadata</text>
<text text-anchor="start" x="3151" y="-1149.67" font-family="Arial" font-size="24.00" fill="#707070">and raw blobs to</text>
<text text-anchor="start" x="3083" y="-1129.67" font-family="Arial" font-size="19.00" fill="#707070">[Bearer HTTP/JSON; raw HTTP PUT]</text>
</g>
<!-- 14&#45;&gt;15 -->
<g id="104" class="edge">
<title>14&#45;&gt;15</title>
<path fill="none" stroke="#707070" stroke-dasharray="5,2" d="M2042.49,-1292.33C1977.36,-1224.6 1898.45,-1142.55 1834.64,-1076.2"/>
<polygon fill="#707070" stroke="#707070" points="1836.79,-1073.39 1827.34,-1068.6 1831.74,-1078.24 1836.79,-1073.39"/>
<polygon fill="white" stroke="transparent" points="1956,-1128.88 1956,-1188.88 2244,-1188.88 2244,-1128.88 1956,-1128.88"/>
<text text-anchor="start" x="1960" y="-1165.67" font-family="Arial" font-size="24.00" fill="#707070">Records aggregate media</text>
<text text-anchor="start" x="2023" y="-1139.67" font-family="Arial" font-size="24.00" fill="#707070">status through</text>
</g>
<!-- 15&#45;&gt;21 -->
<g id="106" class="edge">
<title>15&#45;&gt;21</title>
<path fill="none" stroke="#707070" stroke-dasharray="5,2" d="M1662.98,-837.16C1634.8,-777.33 1598.94,-701.17 1563.77,-626.49"/>
<polygon fill="#707070" stroke="#707070" points="1566.91,-624.95 1559.48,-617.39 1560.58,-627.93 1566.91,-624.95"/>
<polygon fill="white" stroke="transparent" points="1606,-654.38 1606,-729.38 1821,-729.38 1821,-654.38 1606,-654.38"/>
<text text-anchor="start" x="1620" y="-706.67" font-family="Arial" font-size="24.00" fill="#707070">Persists sanitized</text>
<text text-anchor="start" x="1610.5" y="-682.67" font-family="Arial" font-size="24.00" fill="#707070">aggregate status in</text>
<text text-anchor="start" x="1620.5" y="-662.67" font-family="Arial" font-size="19.00" fill="#707070">[chrome.storage.local]</text>
</g>
<!-- 16&#45;&gt;21 -->
<g id="100" class="edge">
<title>16&#45;&gt;21</title>
<path fill="none" stroke="#707070" stroke-dasharray="5,2" d="M3017.2,-1244.33C2991.82,-1196.47 2959.77,-1147.52 2921,-1109.38 2553.98,-748.29 1983.44,-518.55 1664.41,-410.66"/>
<polygon fill="#707070" stroke="#707070" points="1665.17,-407.23 1654.58,-407.35 1662.94,-413.86 1665.17,-407.23"/>
<polygon fill="white" stroke="transparent" points="2866,-903.38 2866,-1002.38 3187,-1002.38 3187,-903.38 2866,-903.38"/>
<text text-anchor="start" x="2870.5" y="-979.67" font-family="Arial" font-size="24.00" fill="#707070">Reads and writes sequenced</text>
<text text-anchor="start" x="2887.5" y="-955.67" font-family="Arial" font-size="24.00" fill="#707070">capture/lifecycle rows and</text>
<text text-anchor="start" x="2910" y="-931.67" font-family="Arial" font-size="24.00" fill="#707070">migration metadata in</text>
<text text-anchor="start" x="2974.5" y="-911.67" font-family="Arial" font-size="19.00" fill="#707070">[IndexedDB]</text>
</g>
<!-- 19 -->
<g id="19" class="node">
<title>19</title>
<polygon fill="#85bbf0" stroke="#1168bd" points="2310,-2102.38 1874,-2102.38 1874,-1789.38 2310,-1789.38 2310,-2102.38"/>
<text text-anchor="start" x="1991" y="-2054.18" font-family="Arial" font-size="34.00" fill="#000000">CDP Session</text>
<text text-anchor="start" x="2018" y="-2020.18" font-family="Arial" font-size="34.00" fill="#000000">Controller</text>
<text text-anchor="start" x="1903" y="-1998.18" font-family="Arial" font-size="19.00" fill="#000000">[Component: JavaScript + chrome.debugger]</text>
<text text-anchor="start" x="1954.5" y="-1961.18" font-family="Arial" font-size="24.00" fill="#000000">Restores minimal capture</text>
<text text-anchor="start" x="1967" y="-1937.18" font-family="Arial" font-size="24.00" fill="#000000">provenance, reconciles</text>
<text text-anchor="start" x="1967.5" y="-1913.18" font-family="Arial" font-size="24.00" fill="#000000">debugger attachments,</text>
<text text-anchor="start" x="1948.5" y="-1889.18" font-family="Arial" font-size="24.00" fill="#000000">correlates Network events,</text>
<text text-anchor="start" x="1928.5" y="-1865.18" font-family="Arial" font-size="24.00" fill="#000000">retrieves bounded bodies, and</text>
<text text-anchor="start" x="1930.5" y="-1841.18" font-family="Arial" font-size="24.00" fill="#000000">dispatches media across MV3</text>
<text text-anchor="start" x="2008" y="-1817.18" font-family="Arial" font-size="24.00" fill="#000000">worker restarts.</text>
</g>
<!-- 19&#45;&gt;10 -->
<g id="108" class="edge">
<title>19&#45;&gt;10</title>
<path fill="none" stroke="#707070" stroke-dasharray="5,2" d="M1873.85,-1815.68C1849.18,-1796.45 1825.56,-1775.56 1805,-1753.38 1766.18,-1711.49 1788.96,-1673.88 1742,-1641.38 1655.49,-1581.48 1608.44,-1636.74 1508,-1605.38 1460.98,-1590.69 1412.45,-1570.85 1366.64,-1549.7"/>
<polygon fill="#707070" stroke="#707070" points="1368.06,-1546.5 1357.52,-1545.45 1365.11,-1552.85 1368.06,-1546.5"/>
<polygon fill="white" stroke="transparent" points="1805,-1667.38 1805,-1727.38 2073,-1727.38 2073,-1667.38 1805,-1667.38"/>
<text text-anchor="start" x="1809" y="-1704.17" font-family="Arial" font-size="24.00" fill="#707070">Persists minimal per&#45;tab</text>
<text text-anchor="start" x="1811" y="-1678.17" font-family="Arial" font-size="24.00" fill="#707070">capture context through</text>
</g>
<!-- 19&#45;&gt;14 -->
<g id="110" class="edge">
<title>19&#45;&gt;14</title>
<path fill="none" stroke="#707070" stroke-dasharray="5,2" d="M2115.1,-1789.16C2125.55,-1718.72 2137.81,-1636.07 2148,-1567.42"/>
<polygon fill="#707070" stroke="#707070" points="2151.48,-1567.8 2149.49,-1557.39 2144.56,-1566.77 2151.48,-1567.8"/>
<polygon fill="white" stroke="transparent" points="2135,-1654.38 2135,-1740.38 2421,-1740.38 2421,-1654.38 2135,-1654.38"/>
<text text-anchor="start" x="2139" y="-1717.17" font-family="Arial" font-size="24.00" fill="#707070">Dispatches bounded CDP</text>
<text text-anchor="start" x="2153" y="-1691.17" font-family="Arial" font-size="24.00" fill="#707070">media rows and bodies</text>
<text text-anchor="start" x="2236.5" y="-1665.17" font-family="Arial" font-size="24.00" fill="#707070">through</text>
</g>
<!-- 19&#45;&gt;15 -->
<g id="111" class="edge">
<title>19&#45;&gt;15</title>
<path fill="none" stroke="#707070" stroke-dasharray="5,2" d="M2098.42,-1789.1C2099.6,-1720.59 2097.84,-1652.92 2087,-1641.38 2018.03,-1567.92 1703.36,-1679.4 1635,-1605.38 1503.88,-1463.4 1582.38,-1223.76 1650.37,-1078.06"/>
<polygon fill="#707070" stroke="#707070" points="1653.73,-1079.14 1654.83,-1068.6 1647.4,-1076.15 1653.73,-1079.14"/>
<polygon fill="white" stroke="transparent" points="1635,-1394.88 1635,-1454.88 1945,-1454.88 1945,-1394.88 1635,-1394.88"/>
<text text-anchor="start" x="1639" y="-1431.67" font-family="Arial" font-size="24.00" fill="#707070">Records sanitized debugger</text>
<text text-anchor="start" x="1713" y="-1405.67" font-family="Arial" font-size="24.00" fill="#707070">status through</text>
</g>
<!-- 20 -->
<g id="20" class="node">
<title>20</title>
<polygon fill="#85bbf0" stroke="#1168bd" points="3152.5,-2967.38 2759.5,-2967.38 2759.5,-2760.38 3152.5,-2760.38 3152.5,-2967.38"/>
<text text-anchor="start" x="2788.5" y="-2919.18" font-family="Arial" font-size="34.00" fill="#000000">Popup and Options UI</text>
<text text-anchor="start" x="2823.5" y="-2897.18" font-family="Arial" font-size="19.00" fill="#000000">[Component: HTML/JavaScript]</text>
<text text-anchor="start" x="2797.5" y="-2860.18" font-family="Arial" font-size="24.00" fill="#000000">Lets the operator view status,</text>
<text text-anchor="start" x="2796.5" y="-2836.18" font-family="Arial" font-size="24.00" fill="#000000">pause/resume capture, select</text>
<text text-anchor="start" x="2798" y="-2812.18" font-family="Arial" font-size="24.00" fill="#000000">policy mode, and trigger local</text>
<text text-anchor="start" x="2807" y="-2788.18" font-family="Arial" font-size="24.00" fill="#000000">controls from the extension.</text>
</g>
<!-- 20&#45;&gt;22 -->
<g id="114" class="edge">
<title>20&#45;&gt;22</title>
<path fill="none" stroke="#707070" stroke-dasharray="5,2" d="M3152.75,-2844.59C3402.7,-2809.3 3802,-2707.18 3802,-2414.88 3802,-2414.88 3802,-2414.88 3802,-1423.88 3802,-1300.38 3741.01,-1173.16 3684.93,-1082.27"/>
<polygon fill="#707070" stroke="#707070" points="3687.78,-1080.23 3679.52,-1073.59 3681.84,-1083.93 3687.78,-1080.23"/>
<polygon fill="white" stroke="transparent" points="3802,-1908.38 3802,-1983.38 4099,-1983.38 4099,-1908.38 3802,-1908.38"/>
<text text-anchor="start" x="3806.5" y="-1960.67" font-family="Arial" font-size="24.00" fill="#707070">Checks health and triggers</text>
<text text-anchor="start" x="3827" y="-1936.67" font-family="Arial" font-size="24.00" fill="#707070">forget/policy actions on</text>
<text text-anchor="start" x="3893" y="-1916.67" font-family="Arial" font-size="19.00" fill="#707070">[HTTP/JSON]</text>
</g>
<!-- 9 -->
<g id="9" class="node">
<title>9</title>
<polygon fill="#85bbf0" stroke="#1168bd" points="2059,-2529.38 1621,-2529.38 1621,-2298.38 2059,-2298.38 2059,-2529.38"/>
<text text-anchor="start" x="1724" y="-2481.18" font-family="Arial" font-size="34.00" fill="#000000">Service Worker</text>
<text text-anchor="start" x="1650" y="-2459.18" font-family="Arial" font-size="19.00" fill="#000000">[Component: JavaScript MV3 service worker]</text>
<text text-anchor="start" x="1654" y="-2422.18" font-family="Arial" font-size="24.00" fill="#000000">Composes extension modules and</text>
<text text-anchor="start" x="1685.5" y="-2398.18" font-family="Arial" font-size="24.00" fill="#000000">registers MV3 message, tab,</text>
<text text-anchor="start" x="1702.5" y="-2374.18" font-family="Arial" font-size="24.00" fill="#000000">window, debugger, alarm,</text>
<text text-anchor="start" x="1715" y="-2350.18" font-family="Arial" font-size="24.00" fill="#000000">startup, and installation</text>
<text text-anchor="start" x="1791.5" y="-2326.18" font-family="Arial" font-size="24.00" fill="#000000">listeners.</text>
</g>
<!-- 20&#45;&gt;9 -->
<g id="113" class="edge">
<title>20&#45;&gt;9</title>
<path fill="none" stroke="#707070" stroke-dasharray="5,2" d="M2759.27,-2773.15C2713.13,-2752.69 2664,-2731.4 2618,-2712.38 2434.75,-2636.6 2224.58,-2556.65 2068.92,-2498.73"/>
<polygon fill="#707070" stroke="#707070" points="2069.81,-2495.32 2059.22,-2495.12 2067.37,-2501.88 2069.81,-2495.32"/>
<polygon fill="white" stroke="transparent" points="2513,-2577.38 2513,-2676.38 2874,-2676.38 2874,-2577.38 2513,-2577.38"/>
<text text-anchor="start" x="2572" y="-2653.68" font-family="Arial" font-size="24.00" fill="#707070">Updates pause, policy,</text>
<text text-anchor="start" x="2591.5" y="-2629.68" font-family="Arial" font-size="24.00" fill="#707070">token, and controls</text>
<text text-anchor="start" x="2652.5" y="-2605.68" font-family="Arial" font-size="24.00" fill="#707070">through</text>
<text text-anchor="start" x="2517.5" y="-2585.68" font-family="Arial" font-size="19.00" fill="#707070">[chrome.storage.local, runtime messages]</text>
</g>
<!-- 6 -->
<g id="6" class="node">
<title>6</title>
<polygon fill="#85bbf0" stroke="#1168bd" points="2581.5,-2984.38 2176.5,-2984.38 2176.5,-2743.38 2581.5,-2743.38 2581.5,-2984.38"/>
<text text-anchor="start" x="2281" y="-2936.18" font-family="Arial" font-size="34.00" fill="#000000">Manifest and</text>
<text text-anchor="start" x="2219.5" y="-2902.18" font-family="Arial" font-size="34.00" fill="#000000">Permission Envelope</text>
<text text-anchor="start" x="2263" y="-2880.18" font-family="Arial" font-size="19.00" fill="#000000">[Component: manifest.json]</text>
<text text-anchor="start" x="2205.5" y="-2843.18" font-family="Arial" font-size="24.00" fill="#000000">Declares MV3 permissions, host</text>
<text text-anchor="start" x="2227" y="-2819.18" font-family="Arial" font-size="24.00" fill="#000000">permissions, service worker,</text>
<text text-anchor="start" x="2275.5" y="-2795.18" font-family="Arial" font-size="24.00" fill="#000000">popup, and options</text>
<text text-anchor="start" x="2316" y="-2771.18" font-family="Arial" font-size="24.00" fill="#000000">entrypoints.</text>
</g>
<!-- 7 -->
<g id="7" class="node">
<title>7</title>
<polygon fill="#85bbf0" stroke="#1168bd" points="1548.5,-2541.38 1163.5,-2541.38 1163.5,-2286.38 1548.5,-2286.38 1548.5,-2541.38"/>
<text text-anchor="start" x="1287.5" y="-2493.18" font-family="Arial" font-size="34.00" fill="#000000">Extractor</text>
<text text-anchor="start" x="1252" y="-2471.18" font-family="Arial" font-size="19.00" fill="#000000">[Component: JavaScript]</text>
<text text-anchor="start" x="1192.5" y="-2434.18" font-family="Arial" font-size="24.00" fill="#000000">Traverses rendered light&#45;DOM</text>
<text text-anchor="start" x="1202.5" y="-2410.18" font-family="Arial" font-size="24.00" fill="#000000">text with computed&#45;style and</text>
<text text-anchor="start" x="1220.5" y="-2386.18" font-family="Arial" font-size="24.00" fill="#000000">ancestor visibility checks,</text>
<text text-anchor="start" x="1236" y="-2362.18" font-family="Arial" font-size="24.00" fill="#000000">discovers image/video</text>
<text text-anchor="start" x="1209.5" y="-2338.18" font-family="Arial" font-size="24.00" fill="#000000">references, and applies the</text>
<text text-anchor="start" x="1239.5" y="-2314.18" font-family="Arial" font-size="24.00" fill="#000000">selected policy mode.</text>
</g>
<!-- 8 -->
<g id="8" class="node">
<title>8</title>
<polygon fill="#85bbf0" stroke="#1168bd" points="1791.5,-3015.38 1406.5,-3015.38 1406.5,-2712.38 1791.5,-2712.38 1791.5,-3015.38"/>
<text text-anchor="start" x="1490.5" y="-2967.18" font-family="Arial" font-size="34.00" fill="#000000">Content Script</text>
<text text-anchor="start" x="1435.5" y="-2945.18" font-family="Arial" font-size="19.00" fill="#000000">[Component: JavaScript content script]</text>
<text text-anchor="start" x="1459" y="-2908.18" font-family="Arial" font-size="24.00" fill="#000000">Schedules initial, delayed,</text>
<text text-anchor="start" x="1440" y="-2884.18" font-family="Arial" font-size="24.00" fill="#000000">reinjected, and SPA captures;</text>
<text text-anchor="start" x="1456" y="-2860.18" font-family="Arial" font-size="24.00" fill="#000000">computes full deterministic</text>
<text text-anchor="start" x="1461" y="-2836.18" font-family="Arial" font-size="24.00" fill="#000000">SHA&#45;256 capture digests;</text>
<text text-anchor="start" x="1472.5" y="-2812.18" font-family="Arial" font-size="24.00" fill="#000000">tracks scroll; and sends</text>
<text text-anchor="start" x="1437" y="-2788.18" font-family="Arial" font-size="24.00" fill="#000000">capture and inline blob upload</text>
<text text-anchor="start" x="1468" y="-2764.18" font-family="Arial" font-size="24.00" fill="#000000">messages to the service</text>
<text text-anchor="start" x="1559.5" y="-2740.18" font-family="Arial" font-size="24.00" fill="#000000">worker.</text>
</g>
<!-- 8&#45;&gt;7 -->
<g id="84" class="edge">
<title>8&#45;&gt;7</title>
<path fill="none" stroke="#707070" stroke-dasharray="5,2" d="M1444.82,-2712.29C1436.45,-2700.61 1428.73,-2688.6 1422,-2676.38 1400.99,-2638.21 1386.53,-2593.25 1376.64,-2551.47"/>
<polygon fill="#707070" stroke="#707070" points="1380,-2550.45 1374.35,-2541.48 1373.18,-2552.01 1380,-2550.45"/>
<polygon fill="white" stroke="transparent" points="1422,-2596.88 1422,-2656.88 1687,-2656.88 1687,-2596.88 1422,-2596.88"/>
<text text-anchor="start" x="1426.5" y="-2633.68" font-family="Arial" font-size="24.00" fill="#707070">Builds capture payloads</text>
<text text-anchor="start" x="1533.5" y="-2607.68" font-family="Arial" font-size="24.00" fill="#707070">with</text>
</g>
<!-- 8&#45;&gt;9 -->
<g id="85" class="edge">
<title>8&#45;&gt;9</title>
<path fill="none" stroke="#707070" stroke-dasharray="5,2" d="M1680.09,-2712.14C1710.45,-2655.69 1744.57,-2592.27 1773.47,-2538.55"/>
<polygon fill="#707070" stroke="#707070" points="1776.59,-2540.14 1778.24,-2529.67 1770.42,-2536.82 1776.59,-2540.14"/>
<polygon fill="white" stroke="transparent" points="1748,-2589.38 1748,-2664.38 2035,-2664.38 2035,-2589.38 1748,-2589.38"/>
<text text-anchor="start" x="1752.5" y="-2641.68" font-family="Arial" font-size="24.00" fill="#707070">Sends captures and inline</text>
<text text-anchor="start" x="1849.5" y="-2617.68" font-family="Arial" font-size="24.00" fill="#707070">blobs to</text>
<text text-anchor="start" x="1759" y="-2597.68" font-family="Arial" font-size="19.00" fill="#707070">[chrome.runtime.sendMessage]</text>
</g>
<!-- 9&#45;&gt;10 -->
<g id="86" class="edge">
<title>9&#45;&gt;10</title>
<path fill="none" stroke="#707070" stroke-dasharray="5,2" d="M1686.1,-2298.27C1621.93,-2244.42 1550.71,-2175.92 1500,-2102.38 1405.32,-1965.05 1400.48,-1915.67 1362,-1753.38 1350.47,-1704.75 1373.03,-1686.71 1352,-1641.38 1337.23,-1609.53 1315.69,-1579.65 1291.91,-1552.87"/>
<polygon fill="#707070" stroke="#707070" points="1294.45,-1550.46 1285.15,-1545.4 1289.26,-1555.16 1294.45,-1550.46"/>
<polygon fill="white" stroke="transparent" points="1500,-1902.88 1500,-1988.88 1782,-1988.88 1782,-1902.88 1500,-1902.88"/>
<text text-anchor="start" x="1504" y="-1965.67" font-family="Arial" font-size="24.00" fill="#707070">Reads typed settings and</text>
<text text-anchor="start" x="1532.5" y="-1939.67" font-family="Arial" font-size="24.00" fill="#707070">durable restart state</text>
<text text-anchor="start" x="1599.5" y="-1913.67" font-family="Arial" font-size="24.00" fill="#707070">through</text>
</g>
<!-- 9&#45;&gt;11 -->
<g id="87" class="edge">
<title>9&#45;&gt;11</title>
<path fill="none" stroke="#707070" stroke-dasharray="5,2" d="M1621.93,-2298.37C1609.6,-2293.89 1597.24,-2289.84 1585,-2286.38 1500.83,-2262.53 1259.25,-2307.5 1193,-2250.38 1142.32,-2206.67 1123.3,-2134.58 1117.2,-2071.63"/>
<polygon fill="#707070" stroke="#707070" points="1120.68,-2071.27 1116.33,-2061.61 1113.71,-2071.87 1120.68,-2071.27"/>
<polygon fill="white" stroke="transparent" points="1193,-2151.38 1193,-2237.38 1427,-2237.38 1427,-2151.38 1193,-2151.38"/>
<text text-anchor="start" x="1197" y="-2214.18" font-family="Arial" font-size="24.00" fill="#707070">Delegates navigation</text>
<text text-anchor="start" x="1201.5" y="-2188.18" font-family="Arial" font-size="24.00" fill="#707070">identity and lifecycle</text>
<text text-anchor="start" x="1237.5" y="-2162.18" font-family="Arial" font-size="24.00" fill="#707070">accounting to</text>
</g>
<!-- 9&#45;&gt;12 -->
<g id="88" class="edge">
<title>9&#45;&gt;12</title>
<path fill="none" stroke="#707070" stroke-dasharray="5,2" d="M1623.91,-2298.36C1610.94,-2293.79 1597.91,-2289.73 1585,-2286.38 1504.68,-2265.49 910.56,-2292.4 839,-2250.38 771.27,-2210.6 724.31,-2135.98 694.15,-2070.69"/>
<polygon fill="#707070" stroke="#707070" points="697.32,-2069.21 690,-2061.55 690.94,-2072.1 697.32,-2069.21"/>
<polygon fill="white" stroke="transparent" points="839,-2151.38 839,-2237.38 1112,-2237.38 1112,-2151.38 839,-2151.38"/>
<text text-anchor="start" x="858" y="-2214.18" font-family="Arial" font-size="24.00" fill="#707070">Delegates idempotent</text>
<text text-anchor="start" x="843.5" y="-2188.18" font-family="Arial" font-size="24.00" fill="#707070">active&#45;tab reconstruction</text>
<text text-anchor="start" x="965.5" y="-2162.18" font-family="Arial" font-size="24.00" fill="#707070">to</text>
</g>
<!-- 9&#45;&gt;13 -->
<g id="92" class="edge">
<title>9&#45;&gt;13</title>
<path fill="none" stroke="#707070" stroke-dasharray="5,2" d="M2059.14,-2368.46C2182.62,-2340.51 2338.58,-2300.28 2473,-2250.38 2612.01,-2198.77 2639.87,-2169.66 2772,-2102.38 2786.74,-2094.87 2801.87,-2087.11 2817.12,-2079.25"/>
<polygon fill="#707070" stroke="#707070" points="2818.83,-2082.31 2826.11,-2074.62 2815.62,-2076.09 2818.83,-2082.31"/>
<polygon fill="white" stroke="transparent" points="2703,-2151.38 2703,-2237.38 2975,-2237.38 2975,-2151.38 2703,-2151.38"/>
<text text-anchor="start" x="2784.5" y="-2214.18" font-family="Arial" font-size="24.00" fill="#707070">Delegates</text>
<text text-anchor="start" x="2707" y="-2188.18" font-family="Arial" font-size="24.00" fill="#707070">capture/lifecycle delivery</text>
<text text-anchor="start" x="2724.5" y="-2162.18" font-family="Arial" font-size="24.00" fill="#707070">and durable drains to</text>
</g>
<!-- 9&#45;&gt;14 -->
<g id="93" class="edge">
<title>9&#45;&gt;14</title>
<path fill="none" stroke="#707070" stroke-dasharray="5,2" d="M2059.07,-2354.86C2125.46,-2330.09 2195.45,-2296.07 2251,-2250.38 2311.37,-2200.72 2314.45,-2173.89 2346,-2102.38 2388.19,-2006.76 2484.33,-1735.54 2439,-1641.38 2428.96,-1620.52 2400.45,-1592.66 2365.5,-1563.92"/>
<polygon fill="#707070" stroke="#707070" points="2367.44,-1560.98 2357.47,-1557.38 2363.02,-1566.41 2367.44,-1560.98"/>
<polygon fill="white" stroke="transparent" points="2442,-1902.88 2442,-1988.88 2742,-1988.88 2742,-1902.88 2442,-1902.88"/>
<text text-anchor="start" x="2468" y="-1965.67" font-family="Arial" font-size="24.00" fill="#707070">Delegates credentialed</text>
<text text-anchor="start" x="2446" y="-1939.67" font-family="Arial" font-size="24.00" fill="#707070">media delivery and durable</text>
<text text-anchor="start" x="2545" y="-1913.67" font-family="Arial" font-size="24.00" fill="#707070">drains to</text>
</g>
<!-- 9&#45;&gt;15 -->
<g id="94" class="edge">
<title>9&#45;&gt;15</title>
<path fill="none" stroke="#707070" stroke-dasharray="5,2" d="M1839.77,-2298.36C1838.26,-2128.25 1830.67,-1824.91 1796,-1789.38 1737.07,-1728.98 1474.77,-1815.81 1418,-1753.38 1384.51,-1716.55 1410.67,-1690.61 1418,-1641.38 1454.4,-1396.91 1459.57,-1325.22 1580,-1109.38 1586.09,-1098.47 1593.04,-1087.66 1600.52,-1077.12"/>
<polygon fill="#707070" stroke="#707070" points="1603.57,-1078.88 1606.62,-1068.73 1597.91,-1074.76 1603.57,-1078.88"/>
<polygon fill="white" stroke="transparent" points="1418,-1667.38 1418,-1727.38 1724,-1727.38 1724,-1667.38 1418,-1667.38"/>
<text text-anchor="start" x="1428" y="-1704.17" font-family="Arial" font-size="24.00" fill="#707070">Creates the redaction&#45;safe</text>
<text text-anchor="start" x="1422" y="-1678.17" font-family="Arial" font-size="24.00" fill="#707070">telemetry boundary through</text>
</g>
<!-- 9&#45;&gt;19 -->
<g id="107" class="edge">
<title>9&#45;&gt;19</title>
<path fill="none" stroke="#707070" stroke-dasharray="5,2" d="M1901.97,-2298.28C1932.39,-2242.03 1969.59,-2173.24 2002.99,-2111.48"/>
<polygon fill="#707070" stroke="#707070" points="2006.21,-2112.88 2007.88,-2102.42 2000.05,-2109.55 2006.21,-2112.88"/>
<polygon fill="white" stroke="transparent" points="1981,-2138.38 1981,-2250.38 2233,-2250.38 2233,-2138.38 1981,-2138.38"/>
<text text-anchor="start" x="1997.5" y="-2227.18" font-family="Arial" font-size="24.00" fill="#707070">Delegates debugger</text>
<text text-anchor="start" x="2010.5" y="-2201.18" font-family="Arial" font-size="24.00" fill="#707070">attachment, event</text>
<text text-anchor="start" x="1985" y="-2175.18" font-family="Arial" font-size="24.00" fill="#707070">correlation, and restart</text>
<text text-anchor="start" x="2022.5" y="-2149.18" font-family="Arial" font-size="24.00" fill="#707070">reconciliation to</text>
</g>
</g>
</svg>
