<?xml version="1.0" encoding="UTF-8" standalone="no"?>
<!DOCTYPE svg PUBLIC "-//W3C//DTD SVG 1.1//EN"
 "http://www.w3.org/Graphics/SVG/1.1/DTD/svg11.dtd">
<!-- Generated by graphviz version 2.43.0 (0)
 -->
<!-- Title: %3 Pages: 1 -->
<svg width="1936pt" height="735pt"
 viewBox="0.00 0.00 1936.00 735.00" xmlns="http://www.w3.org/2000/svg" xmlns:xlink="http://www.w3.org/1999/xlink">
<g id="graph0" class="graph" transform="scale(1 1) rotate(0) translate(4 731)">
<title>%3</title>
<polygon fill="white" stroke="transparent" points="-4,4 -4,-731 1932,-731 1932,4 -4,4"/>
<text text-anchor="start" x="379" y="-11.8" font-family="Arial" font-size="34.00">Component View: Browser Memory Daemon &#45; WSL Loopback HTTP Daemon</text>
<g id="clust1" class="cluster">
<title>cluster_4</title>
<polygon fill="none" stroke="#444444" points="8,-64 8,-719 1920,-719 1920,-64 8,-64"/>
<text text-anchor="start" x="823" y="-92.8" font-family="Arial" font-size="24.00" fill="#444444">Browser Memory Daemon</text>
<text text-anchor="start" x="887" y="-72.8" font-family="Arial" font-size="19.00" fill="#444444">[Software System]</text>
</g>
<g id="clust2" class="cluster">
<title>cluster_14</title>
<polygon fill="none" stroke="#444444" points="33,-201 33,-582 1189,-582 1189,-201 33,-201"/>
<text text-anchor="start" x="445.5" y="-229.8" font-family="Arial" font-size="24.00" fill="#444444">WSL Loopback HTTP Daemon</text>
<text text-anchor="start" x="409" y="-209.8" font-family="Arial" font-size="19.00" fill="#444444">[Container: Python 3.11, ThreadingHTTPServer]</text>
</g>
<!-- 15 -->
<g id="15" class="node">
<title>15</title>
<polygon fill="#85bbf0" stroke="#1168bd" points="453,-544.5 58,-544.5 58,-313.5 453,-313.5 453,-544.5"/>
<text text-anchor="start" x="87" y="-496.3" font-family="Arial" font-size="34.00" fill="#000000">HTTP Request Router</text>
<text text-anchor="start" x="119" y="-474.3" font-family="Arial" font-size="19.00" fill="#000000">[Component: Python http.server]</text>
<text text-anchor="start" x="90" y="-437.3" font-family="Arial" font-size="24.00" fill="#000000">Routes loopback API requests,</text>
<text text-anchor="start" x="112.5" y="-413.3" font-family="Arial" font-size="24.00" fill="#000000">serves UI assets, enforces</text>
<text text-anchor="start" x="91.5" y="-389.3" font-family="Arial" font-size="24.00" fill="#000000">bearer auth for memory/admin</text>
<text text-anchor="start" x="106" y="-365.3" font-family="Arial" font-size="24.00" fill="#000000">APIs, and applies CORS for</text>
<text text-anchor="start" x="172" y="-341.3" font-family="Arial" font-size="24.00" fill="#000000">allowed origins.</text>
</g>
<!-- 20 -->
<g id="20" class="node">
<title>20</title>
<polygon fill="#85bbf0" stroke="#1168bd" points="1164,-556.5 807,-556.5 807,-301.5 1164,-301.5 1164,-556.5"/>
<text text-anchor="start" x="854" y="-508.3" font-family="Arial" font-size="34.00" fill="#000000">Lifecycle Pipeline</text>
<text text-anchor="start" x="857.5" y="-486.3" font-family="Arial" font-size="19.00" fill="#000000">[Component: Python + sqlite3]</text>
<text text-anchor="start" x="836" y="-449.3" font-family="Arial" font-size="24.00" fill="#000000">Stores claimed/resolved tab</text>
<text text-anchor="start" x="840.5" y="-425.3" font-family="Arial" font-size="24.00" fill="#000000">lifecycle identity, reconciles</text>
<text text-anchor="start" x="838.5" y="-401.3" font-family="Arial" font-size="24.00" fill="#000000">delayed captures, validates</text>
<text text-anchor="start" x="836" y="-377.3" font-family="Arial" font-size="24.00" fill="#000000">active intervals, and derives</text>
<text text-anchor="start" x="863.5" y="-353.3" font-family="Arial" font-size="24.00" fill="#000000">visit dwell from interval</text>
<text text-anchor="start" x="946" y="-329.3" font-family="Arial" font-size="24.00" fill="#000000">unions.</text>
</g>
<!-- 15&#45;&gt;20 -->
<g id="71" class="edge">
<title>15&#45;&gt;20</title>
<path fill="none" stroke="#444444" stroke-dasharray="5,2" d="M453.03,-429C559.81,-429 691.18,-429 796.6,-429"/>
<polygon fill="#444444" stroke="#444444" points="796.71,-432.5 806.71,-429 796.71,-425.5 796.71,-432.5"/>
<polygon fill="white" stroke="transparent" points="489,-429 489,-463 771,-463 771,-429 489,-429"/>
<text text-anchor="start" x="493" y="-439.8" font-family="Arial" font-size="24.00" fill="#444444">Routes lifecycle events to</text>
</g>
<!-- 29 -->
<g id="29" class="node">
<title>29</title>
<path fill="#2f95c8" stroke="#20688c" d="M1895,-645.72C1895,-672.29 1806.25,-693.88 1697,-693.88 1587.75,-693.88 1499,-672.29 1499,-645.72 1499,-645.72 1499,-212.28 1499,-212.28 1499,-185.71 1587.75,-164.12 1697,-164.12 1806.25,-164.12 1895,-185.71 1895,-212.28 1895,-212.28 1895,-645.72 1895,-645.72"/>
<path fill="none" stroke="#20688c" d="M1895,-645.72C1895,-619.14 1806.25,-597.56 1697,-597.56 1587.75,-597.56 1499,-619.14 1499,-645.72"/>
<text text-anchor="start" x="1584" y="-573.3" font-family="Arial" font-size="34.00" fill="#ffffff">SQLite + FTS5</text>
<text text-anchor="start" x="1624" y="-539.3" font-family="Arial" font-size="34.00" fill="#ffffff">Database</text>
<text text-anchor="start" x="1571" y="-517.3" font-family="Arial" font-size="19.00" fill="#ffffff">[Container: SQLite with FTS5]</text>
<text text-anchor="start" x="1529" y="-480.3" font-family="Arial" font-size="24.00" fill="#ffffff">Durable complete cleaned&#45;text,</text>
<text text-anchor="start" x="1578" y="-456.3" font-family="Arial" font-size="24.00" fill="#ffffff">relational, and full&#45;text</text>
<text text-anchor="start" x="1579.5" y="-432.3" font-family="Arial" font-size="24.00" fill="#ffffff">authority for migration</text>
<text text-anchor="start" x="1545" y="-408.3" font-family="Arial" font-size="24.00" fill="#ffffff">ledger, sources, documents,</text>
<text text-anchor="start" x="1547.5" y="-384.3" font-family="Arial" font-size="24.00" fill="#ffffff">visits, capture observations,</text>
<text text-anchor="start" x="1566" y="-360.3" font-family="Arial" font-size="24.00" fill="#ffffff">URL claims, visit events,</text>
<text text-anchor="start" x="1528.5" y="-336.3" font-family="Arial" font-size="24.00" fill="#ffffff">snapshots, chunks, chunks_fts,</text>
<text text-anchor="start" x="1528" y="-312.3" font-family="Arial" font-size="24.00" fill="#ffffff">media provenance/tasks, policy</text>
<text text-anchor="start" x="1571.5" y="-288.3" font-family="Arial" font-size="24.00" fill="#ffffff">rules, audit events, and</text>
<text text-anchor="start" x="1605" y="-264.3" font-family="Arial" font-size="24.00" fill="#ffffff">deletion receipts.</text>
</g>
<!-- 20&#45;&gt;29 -->
<g id="79" class="edge">
<title>20&#45;&gt;29</title>
<path fill="none" stroke="#444444" stroke-dasharray="5,2" d="M1164.16,-429C1262.68,-429 1385.7,-429 1488.6,-429"/>
<polygon fill="#444444" stroke="#444444" points="1488.81,-432.5 1498.81,-429 1488.81,-425.5 1488.81,-432.5"/>
<polygon fill="white" stroke="transparent" points="1200,-429 1200,-528 1463,-528 1463,-429 1200,-429"/>
<text text-anchor="start" x="1210" y="-505.3" font-family="Arial" font-size="24.00" fill="#444444">Writes lifecycle identity</text>
<text text-anchor="start" x="1204.5" y="-481.3" font-family="Arial" font-size="24.00" fill="#444444">and interval&#45;union dwell</text>
<text text-anchor="start" x="1321.5" y="-457.3" font-family="Arial" font-size="24.00" fill="#444444">to</text>
<text text-anchor="start" x="1298.5" y="-437.3" font-family="Arial" font-size="19.00" fill="#444444">[sqlite3]</text>
</g>
</g>
</svg>
