<?xml version="1.0" encoding="UTF-8" standalone="no"?>
<!DOCTYPE svg PUBLIC "-//W3C//DTD SVG 1.1//EN"
 "http://www.w3.org/Graphics/SVG/1.1/DTD/svg11.dtd">
<!-- Generated by graphviz version 2.43.0 (0)
 -->
<!-- Title: %3 Pages: 1 -->
<svg width="2058pt" height="766pt"
 viewBox="0.00 0.00 2058.00 766.00" xmlns="http://www.w3.org/2000/svg" xmlns:xlink="http://www.w3.org/1999/xlink">
<g id="graph0" class="graph" transform="scale(1 1) rotate(0) translate(4 762)">
<title>%3</title>
<polygon fill="white" stroke="transparent" points="-4,4 -4,-762 2054,-762 2054,4 -4,4"/>
<text text-anchor="start" x="440" y="-11.8" font-family="Arial" font-size="34.00">Component View: Browser Memory Daemon &#45; WSL Loopback HTTP Daemon</text>
<g id="clust1" class="cluster">
<title>cluster_4</title>
<polygon fill="none" stroke="#444444" points="8,-64 8,-750 2042,-750 2042,-64 8,-64"/>
<text text-anchor="start" x="884" y="-92.8" font-family="Arial" font-size="24.00" fill="#444444">Browser Memory Daemon</text>
<text text-anchor="start" x="948" y="-72.8" font-family="Arial" font-size="19.00" fill="#444444">[Software System]</text>
</g>
<g id="clust2" class="cluster">
<title>cluster_22</title>
<polygon fill="none" stroke="#444444" points="33,-164 33,-725 2017,-725 2017,-164 33,-164"/>
<text text-anchor="start" x="859.5" y="-192.8" font-family="Arial" font-size="24.00" fill="#444444">WSL Loopback HTTP Daemon</text>
<text text-anchor="start" x="823" y="-172.8" font-family="Arial" font-size="19.00" fill="#444444">[Container: Python 3.11, ThreadingHTTPServer]</text>
</g>
<!-- 23 -->
<g id="23" class="node">
<title>23</title>
<polygon fill="#85bbf0" stroke="#1168bd" points="552,-682.5 58,-682.5 58,-283.5 552,-283.5 552,-682.5"/>
<text text-anchor="start" x="136.5" y="-634.3" font-family="Arial" font-size="34.00" fill="#000000">HTTP Request Router</text>
<text text-anchor="start" x="87" y="-612.3" font-family="Arial" font-size="19.00" fill="#000000">[Component: Python http.server + route descriptors]</text>
<text text-anchor="start" x="129" y="-575.3" font-family="Arial" font-size="24.00" fill="#000000">Matches immutable method/path</text>
<text text-anchor="start" x="189" y="-551.3" font-family="Arial" font-size="24.00" fill="#000000">descriptors with static</text>
<text text-anchor="start" x="172" y="-527.3" font-family="Arial" font-size="24.00" fill="#000000">precedence, maps typed</text>
<text text-anchor="start" x="166" y="-503.3" font-family="Arial" font-size="24.00" fill="#000000">compatible errors, applies</text>
<text text-anchor="start" x="125.5" y="-479.3" font-family="Arial" font-size="24.00" fill="#000000">opaque request IDs and common</text>
<text text-anchor="start" x="180" y="-455.3" font-family="Arial" font-size="24.00" fill="#000000">security headers, emits</text>
<text text-anchor="start" x="228" y="-431.3" font-family="Arial" font-size="24.00" fill="#000000">redaction&#45;safe</text>
<text text-anchor="start" x="199.5" y="-407.3" font-family="Arial" font-size="24.00" fill="#000000">route/status/latency</text>
<text text-anchor="start" x="156" y="-383.3" font-family="Arial" font-size="24.00" fill="#000000">telemetry, serves UI assets,</text>
<text text-anchor="start" x="175" y="-359.3" font-family="Arial" font-size="24.00" fill="#000000">enforces bearer auth for</text>
<text text-anchor="start" x="128" y="-335.3" font-family="Arial" font-size="24.00" fill="#000000">memory/admin APIs, and applies</text>
<text text-anchor="start" x="166" y="-311.3" font-family="Arial" font-size="24.00" fill="#000000">CORS for allowed origins.</text>
</g>
<!-- 25 -->
<g id="25" class="node">
<title>25</title>
<polygon fill="#85bbf0" stroke="#1168bd" points="1241,-495.5 879,-495.5 879,-264.5 1241,-264.5 1241,-495.5"/>
<text text-anchor="start" x="957" y="-447.3" font-family="Arial" font-size="34.00" fill="#000000">Policy Engine</text>
<text text-anchor="start" x="971" y="-425.3" font-family="Arial" font-size="19.00" fill="#000000">[Component: Python]</text>
<text text-anchor="start" x="1007" y="-388.3" font-family="Arial" font-size="24.00" fill="#000000">Evaluates</text>
<text text-anchor="start" x="934" y="-364.3" font-family="Arial" font-size="24.00" fill="#000000">all/recall/balanced/strict</text>
<text text-anchor="start" x="908" y="-340.3" font-family="Arial" font-size="24.00" fill="#000000">capture mode decisions and</text>
<text text-anchor="start" x="918" y="-316.3" font-family="Arial" font-size="24.00" fill="#000000">redacts URL/title/body text</text>
<text text-anchor="start" x="968" y="-292.3" font-family="Arial" font-size="24.00" fill="#000000">outside all mode.</text>
</g>
<!-- 23&#45;&gt;25 -->
<g id="113" class="edge">
<title>23&#45;&gt;25</title>
<path fill="none" stroke="#444444" stroke-dasharray="5,2" d="M552.04,-449.35C654.91,-435.27 772.61,-419.17 868.69,-406.03"/>
<polygon fill="#444444" stroke="#444444" points="869.37,-409.47 878.81,-404.65 868.42,-402.54 869.37,-409.47"/>
<polygon fill="white" stroke="transparent" points="588,-443 588,-503 843,-503 843,-443 588,-443"/>
<text text-anchor="start" x="592.5" y="-479.8" font-family="Arial" font-size="24.00" fill="#444444">Gets capture decisions</text>
<text text-anchor="start" x="691.5" y="-453.8" font-family="Arial" font-size="24.00" fill="#444444">from</text>
</g>
<!-- 26 -->
<g id="26" class="node">
<title>26</title>
<polygon fill="#85bbf0" stroke="#1168bd" points="1992,-645.5 1610,-645.5 1610,-438.5 1992,-438.5 1992,-645.5"/>
<text text-anchor="start" x="1710" y="-597.3" font-family="Arial" font-size="34.00" fill="#000000">Policy Store</text>
<text text-anchor="start" x="1671.5" y="-575.3" font-family="Arial" font-size="19.00" fill="#000000">[Component: Python + SQLite]</text>
<text text-anchor="start" x="1679" y="-538.3" font-family="Arial" font-size="24.00" fill="#000000">Persists and evaluates</text>
<text text-anchor="start" x="1660.5" y="-514.3" font-family="Arial" font-size="24.00" fill="#000000">explicit local block&#45;domain</text>
<text text-anchor="start" x="1639" y="-490.3" font-family="Arial" font-size="24.00" fill="#000000">and URL&#45;prefix rules for every</text>
<text text-anchor="start" x="1733" y="-466.3" font-family="Arial" font-size="24.00" fill="#000000">policy mode.</text>
</g>
<!-- 23&#45;&gt;26 -->
<g id="115" class="edge">
<title>23&#45;&gt;26</title>
<path fill="none" stroke="#444444" stroke-dasharray="5,2" d="M552.34,-517.18C564.39,-518.54 576.33,-519.83 588,-521 1024.49,-564.93 1135.97,-591.15 1574,-567 1582.43,-566.54 1591.03,-565.97 1599.7,-565.33"/>
<polygon fill="#444444" stroke="#444444" points="1600.22,-568.81 1609.92,-564.55 1599.69,-561.83 1600.22,-568.81"/>
<polygon fill="white" stroke="transparent" points="942,-575 942,-635 1178,-635 1178,-575 942,-575"/>
<text text-anchor="start" x="946" y="-611.8" font-family="Arial" font-size="24.00" fill="#444444">Manages policy rules</text>
<text text-anchor="start" x="1018.5" y="-585.8" font-family="Arial" font-size="24.00" fill="#444444">through</text>
</g>
<!-- 25&#45;&gt;26 -->
<g id="123" class="edge">
<title>25&#45;&gt;26</title>
<path fill="none" stroke="#444444" stroke-dasharray="5,2" d="M1241.31,-419.53C1349.77,-443.3 1488.01,-473.61 1599.84,-498.12"/>
<polygon fill="#444444" stroke="#444444" points="1599.37,-501.6 1609.89,-500.33 1600.87,-494.77 1599.37,-501.6"/>
<polygon fill="white" stroke="transparent" points="1277,-489 1277,-549 1574,-549 1574,-489 1277,-489"/>
<text text-anchor="start" x="1281.5" y="-525.8" font-family="Arial" font-size="24.00" fill="#444444">Combines static mode with</text>
<text text-anchor="start" x="1371.5" y="-499.8" font-family="Arial" font-size="24.00" fill="#444444">rules from</text>
</g>
</g>
</svg>
