<?xml version="1.0" encoding="UTF-8" standalone="no"?>
<!DOCTYPE svg PUBLIC "-//W3C//DTD SVG 1.1//EN"
 "http://www.w3.org/Graphics/SVG/1.1/DTD/svg11.dtd">
<!-- Generated by graphviz version 2.43.0 (0)
 -->
<!-- Title: %3 Pages: 1 -->
<svg width="2058pt" height="778pt"
 viewBox="0.00 0.00 2058.00 778.00" xmlns="http://www.w3.org/2000/svg" xmlns:xlink="http://www.w3.org/1999/xlink">
<g id="graph0" class="graph" transform="scale(1 1) rotate(0) translate(4 774)">
<title>%3</title>
<polygon fill="white" stroke="transparent" points="-4,4 -4,-774 2054,-774 2054,4 -4,4"/>
<text text-anchor="start" x="440" y="-11.8" font-family="Arial" font-size="34.00">Component View: Browser Memory Daemon &#45; WSL Loopback HTTP Daemon</text>
<g id="clust1" class="cluster">
<title>cluster_4</title>
<polygon fill="none" stroke="#444444" points="8,-64 8,-762 2042,-762 2042,-64 8,-64"/>
<text text-anchor="start" x="884" y="-92.8" font-family="Arial" font-size="24.00" fill="#444444">Browser Memory Daemon</text>
<text text-anchor="start" x="948" y="-72.8" font-family="Arial" font-size="19.00" fill="#444444">[Software System]</text>
</g>
<g id="clust2" class="cluster">
<title>cluster_22</title>
<polygon fill="none" stroke="#444444" points="33,-164 33,-737 2017,-737 2017,-164 33,-164"/>
<text text-anchor="start" x="859.5" y="-192.8" font-family="Arial" font-size="24.00" fill="#444444">WSL Loopback HTTP Daemon</text>
<text text-anchor="start" x="823" y="-172.8" font-family="Arial" font-size="19.00" fill="#444444">[Container: Python 3.11, ThreadingHTTPServer]</text>
</g>
<!-- 23 -->
<g id="23" class="node">
<title>23</title>
<polygon fill="#85bbf0" stroke="#1168bd" points="552,-711.5 58,-711.5 58,-264.5 552,-264.5 552,-711.5"/>
<text text-anchor="start" x="136.5" y="-663.3" font-family="Arial" font-size="34.00" fill="#000000">HTTP Request Router</text>
<text text-anchor="start" x="87" y="-641.3" font-family="Arial" font-size="19.00" fill="#000000">[Component: Python http.server + route descriptors]</text>
<text text-anchor="start" x="129" y="-604.3" font-family="Arial" font-size="24.00" fill="#000000">Matches immutable method/path</text>
<text text-anchor="start" x="189" y="-580.3" font-family="Arial" font-size="24.00" fill="#000000">descriptors with static</text>
<text text-anchor="start" x="172" y="-556.3" font-family="Arial" font-size="24.00" fill="#000000">precedence, maps typed</text>
<text text-anchor="start" x="166" y="-532.3" font-family="Arial" font-size="24.00" fill="#000000">compatible errors, applies</text>
<text text-anchor="start" x="125.5" y="-508.3" font-family="Arial" font-size="24.00" fill="#000000">opaque request IDs and common</text>
<text text-anchor="start" x="180" y="-484.3" font-family="Arial" font-size="24.00" fill="#000000">security headers, emits</text>
<text text-anchor="start" x="228" y="-460.3" font-family="Arial" font-size="24.00" fill="#000000">redaction&#45;safe</text>
<text text-anchor="start" x="199.5" y="-436.3" font-family="Arial" font-size="24.00" fill="#000000">route/status/latency</text>
<text text-anchor="start" x="156.5" y="-412.3" font-family="Arial" font-size="24.00" fill="#000000">telemetry, streams media in</text>
<text text-anchor="start" x="130" y="-388.3" font-family="Arial" font-size="24.00" fill="#000000">bounded chunks with disconnect</text>
<text text-anchor="start" x="163" y="-364.3" font-family="Arial" font-size="24.00" fill="#000000">cleanup, serves UI assets,</text>
<text text-anchor="start" x="175" y="-340.3" font-family="Arial" font-size="24.00" fill="#000000">enforces bearer auth for</text>
<text text-anchor="start" x="128" y="-316.3" font-family="Arial" font-size="24.00" fill="#000000">memory/admin APIs, and applies</text>
<text text-anchor="start" x="166" y="-292.3" font-family="Arial" font-size="24.00" fill="#000000">CORS for allowed origins.</text>
</g>
<!-- 25 -->
<g id="25" class="node">
<title>25</title>
<polygon fill="#85bbf0" stroke="#1168bd" points="1241,-501.5 879,-501.5 879,-270.5 1241,-270.5 1241,-501.5"/>
<text text-anchor="start" x="957" y="-453.3" font-family="Arial" font-size="34.00" fill="#000000">Policy Engine</text>
<text text-anchor="start" x="971" y="-431.3" font-family="Arial" font-size="19.00" fill="#000000">[Component: Python]</text>
<text text-anchor="start" x="1007" y="-394.3" font-family="Arial" font-size="24.00" fill="#000000">Evaluates</text>
<text text-anchor="start" x="934" y="-370.3" font-family="Arial" font-size="24.00" fill="#000000">all/recall/balanced/strict</text>
<text text-anchor="start" x="908" y="-346.3" font-family="Arial" font-size="24.00" fill="#000000">capture mode decisions and</text>
<text text-anchor="start" x="918" y="-322.3" font-family="Arial" font-size="24.00" fill="#000000">redacts URL/title/body text</text>
<text text-anchor="start" x="968" y="-298.3" font-family="Arial" font-size="24.00" fill="#000000">outside all mode.</text>
</g>
<!-- 23&#45;&gt;25 -->
<g id="113" class="edge">
<title>23&#45;&gt;25</title>
<path fill="none" stroke="#444444" stroke-dasharray="5,2" d="M552.04,-454.67C654.91,-440.74 772.61,-424.79 868.69,-411.78"/>
<polygon fill="#444444" stroke="#444444" points="869.37,-415.22 878.81,-410.41 868.43,-408.28 869.37,-415.22"/>
<polygon fill="white" stroke="transparent" points="588,-449 588,-509 843,-509 843,-449 588,-449"/>
<text text-anchor="start" x="592.5" y="-485.8" font-family="Arial" font-size="24.00" fill="#444444">Gets capture decisions</text>
<text text-anchor="start" x="691.5" y="-459.8" font-family="Arial" font-size="24.00" fill="#444444">from</text>
</g>
<!-- 26 -->
<g id="26" class="node">
<title>26</title>
<polygon fill="#85bbf0" stroke="#1168bd" points="1992,-655.5 1610,-655.5 1610,-448.5 1992,-448.5 1992,-655.5"/>
<text text-anchor="start" x="1710" y="-607.3" font-family="Arial" font-size="34.00" fill="#000000">Policy Store</text>
<text text-anchor="start" x="1671.5" y="-585.3" font-family="Arial" font-size="19.00" fill="#000000">[Component: Python + SQLite]</text>
<text text-anchor="start" x="1679" y="-548.3" font-family="Arial" font-size="24.00" fill="#000000">Persists and evaluates</text>
<text text-anchor="start" x="1660.5" y="-524.3" font-family="Arial" font-size="24.00" fill="#000000">explicit local block&#45;domain</text>
<text text-anchor="start" x="1639" y="-500.3" font-family="Arial" font-size="24.00" fill="#000000">and URL&#45;prefix rules for every</text>
<text text-anchor="start" x="1733" y="-476.3" font-family="Arial" font-size="24.00" fill="#000000">policy mode.</text>
</g>
<!-- 23&#45;&gt;26 -->
<g id="115" class="edge">
<title>23&#45;&gt;26</title>
<path fill="none" stroke="#444444" stroke-dasharray="5,2" d="M552.34,-523.04C564.39,-524.45 576.33,-525.78 588,-527 1024.38,-572.64 1135.85,-599.2 1574,-576 1582.43,-575.55 1591.02,-575.01 1599.7,-574.4"/>
<polygon fill="#444444" stroke="#444444" points="1600.2,-577.87 1609.91,-573.65 1599.68,-570.89 1600.2,-577.87"/>
<polygon fill="white" stroke="transparent" points="942,-584 942,-644 1178,-644 1178,-584 942,-584"/>
<text text-anchor="start" x="946" y="-620.8" font-family="Arial" font-size="24.00" fill="#444444">Manages policy rules</text>
<text text-anchor="start" x="1018.5" y="-594.8" font-family="Arial" font-size="24.00" fill="#444444">through</text>
</g>
<!-- 25&#45;&gt;26 -->
<g id="123" class="edge">
<title>25&#45;&gt;26</title>
<path fill="none" stroke="#444444" stroke-dasharray="5,2" d="M1241.31,-426.5C1349.77,-450.86 1488.01,-481.92 1599.84,-507.04"/>
<polygon fill="#444444" stroke="#444444" points="1599.37,-510.52 1609.89,-509.3 1600.9,-503.69 1599.37,-510.52"/>
<polygon fill="white" stroke="transparent" points="1277,-498 1277,-558 1574,-558 1574,-498 1277,-498"/>
<text text-anchor="start" x="1281.5" y="-534.8" font-family="Arial" font-size="24.00" fill="#444444">Combines static mode with</text>
<text text-anchor="start" x="1371.5" y="-508.8" font-family="Arial" font-size="24.00" fill="#444444">rules from</text>
</g>
</g>
</svg>
