<?xml version="1.0" encoding="UTF-8" standalone="no"?>
<!DOCTYPE svg PUBLIC "-//W3C//DTD SVG 1.1//EN"
 "http://www.w3.org/Graphics/SVG/1.1/DTD/svg11.dtd">
<!-- Generated by graphviz version 2.43.0 (0)
 -->
<!-- Title: %3 Pages: 1 -->
<svg width="3993pt" height="2042pt"
 viewBox="0.00 0.00 3993.00 2042.00" xmlns="http://www.w3.org/2000/svg" xmlns:xlink="http://www.w3.org/1999/xlink">
<g id="graph0" class="graph" transform="scale(1 1) rotate(0) translate(4 2038)">
<title>%3</title>
<polygon fill="white" stroke="transparent" points="-4,4 -4,-2038 3989,-2038 3989,4 -4,4"/>
<text text-anchor="start" x="1407.5" y="-11.8" font-family="Arial" font-size="34.00">Component View: Browser Memory Daemon &#45; WSL Loopback HTTP Daemon</text>
<g id="clust1" class="cluster">
<title>cluster_4</title>
<polygon fill="none" stroke="#444444" points="8,-64 8,-2026 3977,-2026 3977,-64 8,-64"/>
<text text-anchor="start" x="1851.5" y="-92.8" font-family="Arial" font-size="24.00" fill="#444444">Browser Memory Daemon</text>
<text text-anchor="start" x="1915.5" y="-72.8" font-family="Arial" font-size="19.00" fill="#444444">[Software System]</text>
</g>
<g id="clust2" class="cluster">
<title>cluster_14</title>
<polygon fill="none" stroke="#444444" points="33,-164 33,-1414 3071,-1414 3071,-164 33,-164"/>
<text text-anchor="start" x="1386.5" y="-192.8" font-family="Arial" font-size="24.00" fill="#444444">WSL Loopback HTTP Daemon</text>
<text text-anchor="start" x="1350" y="-172.8" font-family="Arial" font-size="19.00" fill="#444444">[Container: Python 3.11, ThreadingHTTPServer]</text>
</g>
<!-- 15 -->
<g id="15" class="node">
<title>15</title>
<polygon fill="#85bbf0" stroke="#1168bd" points="453,-979.5 58,-979.5 58,-748.5 453,-748.5 453,-979.5"/>
<text text-anchor="start" x="87" y="-931.3" font-family="Arial" font-size="34.00" fill="#000000">HTTP Request Router</text>
<text text-anchor="start" x="119" y="-909.3" font-family="Arial" font-size="19.00" fill="#000000">[Component: Python http.server]</text>
<text text-anchor="start" x="90" y="-872.3" font-family="Arial" font-size="24.00" fill="#000000">Routes loopback API requests,</text>
<text text-anchor="start" x="112.5" y="-848.3" font-family="Arial" font-size="24.00" fill="#000000">serves UI assets, enforces</text>
<text text-anchor="start" x="91.5" y="-824.3" font-family="Arial" font-size="24.00" fill="#000000">bearer auth for memory/admin</text>
<text text-anchor="start" x="106" y="-800.3" font-family="Arial" font-size="24.00" fill="#000000">APIs, and applies CORS for</text>
<text text-anchor="start" x="172" y="-776.3" font-family="Arial" font-size="24.00" fill="#000000">allowed origins.</text>
</g>
<!-- 21 -->
<g id="21" class="node">
<title>21</title>
<polygon fill="#85bbf0" stroke="#1168bd" points="1231,-1068.5 810,-1068.5 810,-659.5 1231,-659.5 1231,-1068.5"/>
<text text-anchor="start" x="917" y="-1020.3" font-family="Arial" font-size="34.00" fill="#000000">Media Artifact</text>
<text text-anchor="start" x="953.5" y="-986.3" font-family="Arial" font-size="34.00" fill="#000000">Manager</text>
<text text-anchor="start" x="839" y="-964.3" font-family="Arial" font-size="19.00" fill="#000000">[Component: Python + sqlite3 + filesystem]</text>
<text text-anchor="start" x="874.5" y="-927.3" font-family="Arial" font-size="24.00" fill="#000000">Records media references,</text>
<text text-anchor="start" x="897" y="-903.3" font-family="Arial" font-size="24.00" fill="#000000">validates blob uploads,</text>
<text text-anchor="start" x="878.5" y="-879.3" font-family="Arial" font-size="24.00" fill="#000000">enforces MIME/size/cache</text>
<text text-anchor="start" x="900" y="-855.3" font-family="Arial" font-size="24.00" fill="#000000">gates, guards external</text>
<text text-anchor="start" x="868" y="-831.3" font-family="Arial" font-size="24.00" fill="#000000">media&#45;root identity, reserves</text>
<text text-anchor="start" x="862.5" y="-807.3" font-family="Arial" font-size="24.00" fill="#000000">bounded local spool capacity,</text>
<text text-anchor="start" x="897" y="-783.3" font-family="Arial" font-size="24.00" fill="#000000">writes blobs atomically,</text>
<text text-anchor="start" x="877" y="-759.3" font-family="Arial" font-size="24.00" fill="#000000">drains verified spool bytes,</text>
<text text-anchor="start" x="857.5" y="-735.3" font-family="Arial" font-size="24.00" fill="#000000">queues public fetch tasks, and</text>
<text text-anchor="start" x="879" y="-711.3" font-family="Arial" font-size="24.00" fill="#000000">tombstones purge/eviction</text>
<text text-anchor="start" x="936.5" y="-687.3" font-family="Arial" font-size="24.00" fill="#000000">before deletion.</text>
</g>
<!-- 15&#45;&gt;21 -->
<g id="82" class="edge">
<title>15&#45;&gt;21</title>
<path fill="none" stroke="#444444" stroke-dasharray="5,2" d="M453.49,-864C559.46,-864 690.46,-864 799.73,-864"/>
<polygon fill="#444444" stroke="#444444" points="799.9,-867.5 809.9,-864 799.9,-860.5 799.9,-867.5"/>
<polygon fill="white" stroke="transparent" points="489,-864 489,-898 774,-898 774,-864 489,-864"/>
<text text-anchor="start" x="493.5" y="-874.8" font-family="Arial" font-size="24.00" fill="#444444">Routes media requests to</text>
</g>
<!-- 22 -->
<g id="22" class="node">
<title>22</title>
<polygon fill="#85bbf0" stroke="#1168bd" points="3014,-585.5 2667,-585.5 2667,-330.5 3014,-330.5 3014,-585.5"/>
<text text-anchor="start" x="2698.5" y="-537.3" font-family="Arial" font-size="34.00" fill="#000000">Media State Model</text>
<text text-anchor="start" x="2751.5" y="-515.3" font-family="Arial" font-size="19.00" fill="#000000">[Component: Python]</text>
<text text-anchor="start" x="2716" y="-478.3" font-family="Arial" font-size="24.00" fill="#000000">Owns caller&#45;visible and</text>
<text text-anchor="start" x="2699.5" y="-454.3" font-family="Arial" font-size="24.00" fill="#000000">internal artifact/task status</text>
<text text-anchor="start" x="2715.5" y="-430.3" font-family="Arial" font-size="24.00" fill="#000000">taxonomies, fetch&#45;error</text>
<text text-anchor="start" x="2705" y="-406.3" font-family="Arial" font-size="24.00" fill="#000000">classification, and explicit</text>
<text text-anchor="start" x="2696" y="-382.3" font-family="Arial" font-size="24.00" fill="#000000">ordinary versus force&#45;reset</text>
<text text-anchor="start" x="2738.5" y="-358.3" font-family="Arial" font-size="24.00" fill="#000000">transition matrices.</text>
</g>
<!-- 21&#45;&gt;22 -->
<g id="90" class="edge">
<title>21&#45;&gt;22</title>
<path fill="none" stroke="#444444" stroke-dasharray="5,2" d="M1183.07,-659.2C1288.81,-544 1438.19,-413.11 1606,-361 1966.1,-249.18 2412.29,-336.31 2657.23,-402.13"/>
<polygon fill="#444444" stroke="#444444" points="2656.37,-405.52 2666.93,-404.75 2658.19,-398.76 2656.37,-405.52"/>
<polygon fill="white" stroke="transparent" points="1789.5,-361 1789.5,-447 2055.5,-447 2055.5,-361 1789.5,-361"/>
<text text-anchor="start" x="1831" y="-423.8" font-family="Arial" font-size="24.00" fill="#444444">Classifies artifact</text>
<text text-anchor="start" x="1793.5" y="-397.8" font-family="Arial" font-size="24.00" fill="#444444">outcomes and transition</text>
<text text-anchor="start" x="1848" y="-371.8" font-family="Arial" font-size="24.00" fill="#444444">intent through</text>
</g>
<!-- 23 -->
<g id="23" class="node">
<title>23</title>
<polygon fill="#85bbf0" stroke="#1168bd" points="2124,-1003.5 1721,-1003.5 1721,-724.5 2124,-724.5 2124,-1003.5"/>
<text text-anchor="start" x="1750" y="-955.3" font-family="Arial" font-size="34.00" fill="#000000">Media Task Repository</text>
<text text-anchor="start" x="1794.5" y="-933.3" font-family="Arial" font-size="19.00" fill="#000000">[Component: Python + sqlite3]</text>
<text text-anchor="start" x="1773.5" y="-896.3" font-family="Arial" font-size="24.00" fill="#000000">Creates deterministic tasks,</text>
<text text-anchor="start" x="1789.5" y="-872.3" font-family="Arial" font-size="24.00" fill="#000000">preserves terminal state,</text>
<text text-anchor="start" x="1774.5" y="-848.3" font-family="Arial" font-size="24.00" fill="#000000">atomically leases due work,</text>
<text text-anchor="start" x="1781.5" y="-824.3" font-family="Arial" font-size="24.00" fill="#000000">recovers stale leases, and</text>
<text text-anchor="start" x="1763.5" y="-800.3" font-family="Arial" font-size="24.00" fill="#000000">applies bounded retry/backoff</text>
<text text-anchor="start" x="1763" y="-776.3" font-family="Arial" font-size="24.00" fill="#000000">outcomes independently from</text>
<text text-anchor="start" x="1834.5" y="-752.3" font-family="Arial" font-size="24.00" fill="#000000">media transport.</text>
</g>
<!-- 21&#45;&gt;23 -->
<g id="91" class="edge">
<title>21&#45;&gt;23</title>
<path fill="none" stroke="#444444" stroke-dasharray="5,2" d="M1231.09,-864C1375.27,-864 1566.05,-864 1710.52,-864"/>
<polygon fill="#444444" stroke="#444444" points="1710.84,-867.5 1720.84,-864 1710.84,-860.5 1710.84,-867.5"/>
<polygon fill="white" stroke="transparent" points="1267,-864 1267,-924 1570,-924 1570,-864 1267,-864"/>
<text text-anchor="start" x="1271.5" y="-900.8" font-family="Arial" font-size="24.00" fill="#444444">Creates and claims durable</text>
<text text-anchor="start" x="1312" y="-874.8" font-family="Arial" font-size="24.00" fill="#444444">media work through</text>
</g>
<!-- 24 -->
<g id="24" class="node">
<title>24</title>
<polygon fill="#85bbf0" stroke="#1168bd" points="3046,-993.5 2635,-993.5 2635,-690.5 3046,-690.5 3046,-993.5"/>
<text text-anchor="start" x="2684" y="-945.3" font-family="Arial" font-size="34.00" fill="#000000">Contained BlobStore</text>
<text text-anchor="start" x="2664" y="-923.3" font-family="Arial" font-size="19.00" fill="#000000">[Component: Python filesystem boundary]</text>
<text text-anchor="start" x="2688" y="-886.3" font-family="Arial" font-size="24.00" fill="#000000">Prefers root&#45;relative locators</text>
<text text-anchor="start" x="2724.5" y="-862.3" font-family="Arial" font-size="24.00" fill="#000000">with contained legacy</text>
<text text-anchor="start" x="2709.5" y="-838.3" font-family="Arial" font-size="24.00" fill="#000000">fallback; streams unique</text>
<text text-anchor="start" x="2725.5" y="-814.3" font-family="Arial" font-size="24.00" fill="#000000">stages with size/hash</text>
<text text-anchor="start" x="2721.5" y="-790.3" font-family="Arial" font-size="24.00" fill="#000000">accounting; atomically</text>
<text text-anchor="start" x="2693.5" y="-766.3" font-family="Arial" font-size="24.00" fill="#000000">commits; and contains blob</text>
<text text-anchor="start" x="2726" y="-742.3" font-family="Arial" font-size="24.00" fill="#000000">read, stat, and delete</text>
<text text-anchor="start" x="2780" y="-718.3" font-family="Arial" font-size="24.00" fill="#000000">operations.</text>
</g>
<!-- 21&#45;&gt;24 -->
<g id="95" class="edge">
<title>21&#45;&gt;24</title>
<path fill="none" stroke="#444444" stroke-dasharray="5,2" d="M1231.27,-747.45C1339.73,-693.19 1476.27,-633.91 1606,-603 2035.54,-500.67 2206.94,-367.85 2599,-571 2623.63,-583.76 2617.52,-600.46 2635,-622 2651.32,-642.11 2669,-662.69 2686.9,-682.81"/>
<polygon fill="#444444" stroke="#444444" points="2684.5,-685.37 2693.77,-690.49 2689.72,-680.71 2684.5,-685.37"/>
<polygon fill="white" stroke="transparent" points="1783.5,-603 1783.5,-689 2061.5,-689 2061.5,-603 1783.5,-603"/>
<text text-anchor="start" x="1792.5" y="-665.8" font-family="Arial" font-size="24.00" fill="#444444">Stages, commits, reads,</text>
<text text-anchor="start" x="1787.5" y="-639.8" font-family="Arial" font-size="24.00" fill="#444444">evicts, and purges media</text>
<text text-anchor="start" x="1881" y="-613.8" font-family="Arial" font-size="24.00" fill="#444444">through</text>
</g>
<!-- 25 -->
<g id="25" class="node">
<title>25</title>
<polygon fill="#85bbf0" stroke="#1168bd" points="2239,-1388.5 1606,-1388.5 1606,-1075.5 2239,-1075.5 2239,-1388.5"/>
<text text-anchor="start" x="1784" y="-1340.3" font-family="Arial" font-size="34.00" fill="#000000">Blob Lifecycle and</text>
<text text-anchor="start" x="1778" y="-1306.3" font-family="Arial" font-size="34.00" fill="#000000">Storage Reconciler</text>
<text text-anchor="start" x="1741" y="-1284.3" font-family="Arial" font-size="19.00" fill="#000000">[Component: Python + sqlite3 + filesystem]</text>
<text text-anchor="start" x="1879.5" y="-1247.3" font-family="Arial" font-size="24.00" fill="#000000">Persists</text>
<text text-anchor="start" x="1635" y="-1223.3" font-family="Arial" font-size="24.00" fill="#000000">committed/tombstoned/missing/deleted/blocked/failed</text>
<text text-anchor="start" x="1812.5" y="-1199.3" font-family="Arial" font-size="24.00" fill="#000000">blob state; serializes</text>
<text text-anchor="start" x="1776.5" y="-1175.3" font-family="Arial" font-size="24.00" fill="#000000">deletion processors; retries</text>
<text text-anchor="start" x="1790.5" y="-1151.3" font-family="Arial" font-size="24.00" fill="#000000">tombstones; and dry&#45;run</text>
<text text-anchor="start" x="1774" y="-1127.3" font-family="Arial" font-size="24.00" fill="#000000">detects missing refs, in&#45;root</text>
<text text-anchor="start" x="1780" y="-1103.3" font-family="Arial" font-size="24.00" fill="#000000">orphans, and stale stages.</text>
</g>
<!-- 21&#45;&gt;25 -->
<g id="96" class="edge">
<title>21&#45;&gt;25</title>
<path fill="none" stroke="#444444" stroke-dasharray="5,2" d="M1231.13,-931.69C1243.24,-935.26 1255.26,-938.73 1267,-942 1400.43,-979.22 1443.62,-958.3 1570,-1015 1587.77,-1022.97 1589.67,-1029.38 1606,-1040 1621.08,-1049.81 1636.64,-1059.78 1652.4,-1069.75"/>
<polygon fill="#444444" stroke="#444444" points="1650.85,-1072.91 1661.17,-1075.28 1654.59,-1066.99 1650.85,-1072.91"/>
<polygon fill="white" stroke="transparent" points="1271.5,-1015 1271.5,-1127 1565.5,-1127 1565.5,-1015 1271.5,-1015"/>
<text text-anchor="start" x="1275.5" y="-1103.8" font-family="Arial" font-size="24.00" fill="#444444">Registers committed bytes</text>
<text text-anchor="start" x="1332" y="-1077.8" font-family="Arial" font-size="24.00" fill="#444444">and tombstones</text>
<text text-anchor="start" x="1276.5" y="-1051.8" font-family="Arial" font-size="24.00" fill="#444444">replacement, drain, purge,</text>
<text text-anchor="start" x="1309" y="-1025.8" font-family="Arial" font-size="24.00" fill="#444444">and eviction through</text>
</g>
<!-- 33 -->
<g id="33" class="node">
<title>33</title>
<path fill="#2f95c8" stroke="#20688c" d="M3038,-1950.22C3038,-1978.44 2949.48,-2001.38 2840.5,-2001.38 2731.52,-2001.38 2643,-1978.44 2643,-1950.22 2643,-1950.22 2643,-1489.78 2643,-1489.78 2643,-1461.56 2731.52,-1438.62 2840.5,-1438.62 2949.48,-1438.62 3038,-1461.56 3038,-1489.78 3038,-1489.78 3038,-1950.22 3038,-1950.22"/>
<path fill="none" stroke="#20688c" d="M3038,-1950.22C3038,-1921.99 2949.48,-1899.06 2840.5,-1899.06 2731.52,-1899.06 2643,-1921.99 2643,-1950.22"/>
<text text-anchor="start" x="2727.5" y="-1876.3" font-family="Arial" font-size="34.00" fill="#ffffff">SQLite + FTS5</text>
<text text-anchor="start" x="2767.5" y="-1842.3" font-family="Arial" font-size="34.00" fill="#ffffff">Database</text>
<text text-anchor="start" x="2714.5" y="-1820.3" font-family="Arial" font-size="19.00" fill="#ffffff">[Container: SQLite with FTS5]</text>
<text text-anchor="start" x="2672.5" y="-1783.3" font-family="Arial" font-size="24.00" fill="#ffffff">Durable complete cleaned&#45;text,</text>
<text text-anchor="start" x="2721.5" y="-1759.3" font-family="Arial" font-size="24.00" fill="#ffffff">relational, and full&#45;text</text>
<text text-anchor="start" x="2723" y="-1735.3" font-family="Arial" font-size="24.00" fill="#ffffff">authority for migration</text>
<text text-anchor="start" x="2688.5" y="-1711.3" font-family="Arial" font-size="24.00" fill="#ffffff">ledger, sources, documents,</text>
<text text-anchor="start" x="2691" y="-1687.3" font-family="Arial" font-size="24.00" fill="#ffffff">visits, capture observations,</text>
<text text-anchor="start" x="2709.5" y="-1663.3" font-family="Arial" font-size="24.00" fill="#ffffff">URL claims, visit events,</text>
<text text-anchor="start" x="2672" y="-1639.3" font-family="Arial" font-size="24.00" fill="#ffffff">snapshots, chunks, chunks_fts,</text>
<text text-anchor="start" x="2679.5" y="-1615.3" font-family="Arial" font-size="24.00" fill="#ffffff">media provenance/tasks, blob</text>
<text text-anchor="start" x="2716" y="-1591.3" font-family="Arial" font-size="24.00" fill="#ffffff">lifecycle records, policy</text>
<text text-anchor="start" x="2715" y="-1567.3" font-family="Arial" font-size="24.00" fill="#ffffff">rules, audit events, and</text>
<text text-anchor="start" x="2748.5" y="-1543.3" font-family="Arial" font-size="24.00" fill="#ffffff">deletion receipts.</text>
</g>
<!-- 21&#45;&gt;33 -->
<g id="92" class="edge">
<title>21&#45;&gt;33</title>
<path fill="none" stroke="#444444" stroke-dasharray="5,2" d="M1183.4,-1068.74C1290.57,-1190.46 1441.36,-1337.67 1606,-1425 1939.04,-1601.65 2378.34,-1673.97 2632.8,-1702.49"/>
<polygon fill="#444444" stroke="#444444" points="2632.58,-1705.98 2642.9,-1703.61 2633.35,-1699.03 2632.58,-1705.98"/>
<polygon fill="white" stroke="transparent" points="1797,-1639 1797,-1714 2048,-1714 2048,-1639 1797,-1639"/>
<text text-anchor="start" x="1801.5" y="-1691.3" font-family="Arial" font-size="24.00" fill="#444444">Updates media artifact</text>
<text text-anchor="start" x="1884.5" y="-1667.3" font-family="Arial" font-size="24.00" fill="#444444">rows in</text>
<text text-anchor="start" x="1889.5" y="-1647.3" font-family="Arial" font-size="19.00" fill="#444444">[sqlite3]</text>
</g>
<!-- 23&#45;&gt;22 -->
<g id="93" class="edge">
<title>23&#45;&gt;22</title>
<path fill="none" stroke="#444444" stroke-dasharray="5,2" d="M2124.24,-775.03C2283.23,-704.56 2503.44,-606.95 2657.37,-538.72"/>
<polygon fill="#444444" stroke="#444444" points="2659.23,-541.73 2666.95,-534.48 2656.39,-535.33 2659.23,-541.73"/>
<polygon fill="white" stroke="transparent" points="2320,-697 2320,-783 2554,-783 2554,-697 2320,-697"/>
<text text-anchor="start" x="2327" y="-759.8" font-family="Arial" font-size="24.00" fill="#444444">Validates task status</text>
<text text-anchor="start" x="2327" y="-733.8" font-family="Arial" font-size="24.00" fill="#444444">vocabulary and retry</text>
<text text-anchor="start" x="2324" y="-707.8" font-family="Arial" font-size="24.00" fill="#444444">classification through</text>
</g>
<!-- 23&#45;&gt;33 -->
<g id="94" class="edge">
<title>23&#45;&gt;33</title>
<path fill="none" stroke="#444444" stroke-dasharray="5,2" d="M2124.05,-936.75C2278.07,-1003.15 2483.37,-1116.52 2599,-1283 2637.86,-1338.96 2606.77,-1370 2635,-1432 2637.86,-1438.28 2640.86,-1444.57 2643.99,-1450.84"/>
<polygon fill="#444444" stroke="#444444" points="2641.01,-1452.7 2648.66,-1460.03 2647.25,-1449.53 2641.01,-1452.7"/>
<polygon fill="white" stroke="transparent" points="2300.5,-1283 2300.5,-1358 2573.5,-1358 2573.5,-1283 2300.5,-1283"/>
<text text-anchor="start" x="2326" y="-1335.3" font-family="Arial" font-size="24.00" fill="#444444">Creates, leases, and</text>
<text text-anchor="start" x="2305" y="-1311.3" font-family="Arial" font-size="24.00" fill="#444444">advances media tasks in</text>
<text text-anchor="start" x="2404" y="-1291.3" font-family="Arial" font-size="19.00" fill="#444444">[sqlite3]</text>
</g>
<!-- 35 -->
<g id="35" class="node">
<title>35</title>
<path fill="#2f95c8" stroke="#20688c" d="M3952,-649.22C3952,-670.82 3830.09,-688.38 3680,-688.38 3529.91,-688.38 3408,-670.82 3408,-649.22 3408,-649.22 3408,-296.78 3408,-296.78 3408,-275.18 3529.91,-257.62 3680,-257.62 3830.09,-257.62 3952,-275.18 3952,-296.78 3952,-296.78 3952,-649.22 3952,-649.22"/>
<path fill="none" stroke="#20688c" d="M3952,-649.22C3952,-627.61 3830.09,-610.06 3680,-610.06 3529.91,-610.06 3408,-627.61 3408,-649.22"/>
<text text-anchor="start" x="3524.5" y="-581.3" font-family="Arial" font-size="34.00" fill="#ffffff">Guarded Media Blob</text>
<text text-anchor="start" x="3630.5" y="-547.3" font-family="Arial" font-size="34.00" fill="#ffffff">Cache</text>
<text text-anchor="start" x="3437" y="-525.3" font-family="Arial" font-size="19.00" fill="#ffffff">[Container: WSL&#45;visible local or NAS&#45;mounted filesystem]</text>
<text text-anchor="start" x="3570" y="-488.3" font-family="Arial" font-size="24.00" fill="#ffffff">Bounded disposable</text>
<text text-anchor="start" x="3514.5" y="-464.3" font-family="Arial" font-size="24.00" fill="#ffffff">image/video/audio bytes under</text>
<text text-anchor="start" x="3538.5" y="-440.3" font-family="Arial" font-size="24.00" fill="#ffffff">the configured media root;</text>
<text text-anchor="start" x="3566" y="-416.3" font-family="Arial" font-size="24.00" fill="#ffffff">explicit external roots</text>
<text text-anchor="start" x="3581" y="-392.3" font-family="Arial" font-size="24.00" fill="#ffffff">require mount and</text>
<text text-anchor="start" x="3530.5" y="-368.3" font-family="Arial" font-size="24.00" fill="#ffffff">identity&#45;marker proof before</text>
<text text-anchor="start" x="3639" y="-344.3" font-family="Arial" font-size="24.00" fill="#ffffff">access.</text>
</g>
<!-- 24&#45;&gt;35 -->
<g id="104" class="edge">
<title>24&#45;&gt;35</title>
<path fill="none" stroke="#444444" stroke-dasharray="5,2" d="M3046.11,-751.85C3152.07,-705.16 3283.06,-647.45 3398.34,-596.66"/>
<polygon fill="#444444" stroke="#444444" points="3399.93,-599.78 3407.67,-592.55 3397.11,-593.38 3399.93,-599.78"/>
<polygon fill="white" stroke="transparent" points="3091.5,-732 3091.5,-831 3362.5,-831 3362.5,-732 3091.5,-732"/>
<text text-anchor="start" x="3097.5" y="-808.3" font-family="Arial" font-size="24.00" fill="#444444">Stages, commits, reads,</text>
<text text-anchor="start" x="3096" y="-784.3" font-family="Arial" font-size="24.00" fill="#444444">stats, and deletes media</text>
<text text-anchor="start" x="3185.5" y="-760.3" font-family="Arial" font-size="24.00" fill="#444444">blobs in</text>
<text text-anchor="start" x="3176" y="-740.3" font-family="Arial" font-size="19.00" fill="#444444">[Filesystem]</text>
</g>
<!-- 36 -->
<g id="36" class="node">
<title>36</title>
<path fill="#2f95c8" stroke="#20688c" d="M3873,-1181.72C3873,-1204.98 3786.49,-1223.88 3680,-1223.88 3573.51,-1223.88 3487,-1204.98 3487,-1181.72 3487,-1181.72 3487,-802.28 3487,-802.28 3487,-779.02 3573.51,-760.12 3680,-760.12 3786.49,-760.12 3873,-779.02 3873,-802.28 3873,-802.28 3873,-1181.72 3873,-1181.72"/>
<path fill="none" stroke="#20688c" d="M3873,-1181.72C3873,-1158.45 3786.49,-1139.56 3680,-1139.56 3573.51,-1139.56 3487,-1158.45 3487,-1181.72"/>
<text text-anchor="start" x="3516" y="-1112.3" font-family="Arial" font-size="34.00" fill="#ffffff">Bounded Local Media</text>
<text text-anchor="start" x="3636.5" y="-1078.3" font-family="Arial" font-size="34.00" fill="#ffffff">Spool</text>
<text text-anchor="start" x="3540" y="-1056.3" font-family="Arial" font-size="19.00" fill="#ffffff">[Container: WSL local filesystem]</text>
<text text-anchor="start" x="3528" y="-1019.3" font-family="Arial" font-size="24.00" fill="#ffffff">Opt&#45;in durable outage buffer</text>
<text text-anchor="start" x="3531.5" y="-995.3" font-family="Arial" font-size="24.00" fill="#ffffff">beneath the local WSL data</text>
<text text-anchor="start" x="3558.5" y="-971.3" font-family="Arial" font-size="24.00" fill="#ffffff">root; admission counts</text>
<text text-anchor="start" x="3534.5" y="-947.3" font-family="Arial" font-size="24.00" fill="#ffffff">committed files and distinct</text>
<text text-anchor="start" x="3528" y="-923.3" font-family="Arial" font-size="24.00" fill="#ffffff">in&#45;flight SQLite reservations,</text>
<text text-anchor="start" x="3555" y="-899.3" font-family="Arial" font-size="24.00" fill="#ffffff">and drain verifies bytes</text>
<text text-anchor="start" x="3532.5" y="-875.3" font-family="Arial" font-size="24.00" fill="#ffffff">before tier transition/source</text>
<text text-anchor="start" x="3634" y="-851.3" font-family="Arial" font-size="24.00" fill="#ffffff">cleanup.</text>
</g>
<!-- 24&#45;&gt;36 -->
<g id="105" class="edge">
<title>24&#45;&gt;36</title>
<path fill="none" stroke="#444444" stroke-dasharray="5,2" d="M3046.11,-878.65C3177.07,-902.1 3346.27,-932.41 3476.77,-955.78"/>
<polygon fill="#444444" stroke="#444444" points="3476.43,-959.27 3486.89,-957.59 3477.66,-952.38 3476.43,-959.27"/>
<polygon fill="white" stroke="transparent" points="3082,-934 3082,-1033 3372,-1033 3372,-934 3082,-934"/>
<text text-anchor="start" x="3097" y="-1010.3" font-family="Arial" font-size="24.00" fill="#444444">Stages, commits, reads,</text>
<text text-anchor="start" x="3086" y="-986.3" font-family="Arial" font-size="24.00" fill="#444444">stats, and deletes spooled</text>
<text text-anchor="start" x="3181" y="-962.3" font-family="Arial" font-size="24.00" fill="#444444">media in</text>
<text text-anchor="start" x="3175.5" y="-942.3" font-family="Arial" font-size="19.00" fill="#444444">[Filesystem]</text>
</g>
<!-- 25&#45;&gt;24 -->
<g id="102" class="edge">
<title>25&#45;&gt;24</title>
<path fill="none" stroke="#444444" stroke-dasharray="5,2" d="M2208.2,-1075.49C2219.34,-1064.29 2229.71,-1052.47 2239,-1040 2276.62,-989.52 2227.29,-944.07 2275,-903 2278.45,-900.03 2466.28,-880.14 2624.32,-863.86"/>
<polygon fill="#444444" stroke="#444444" points="2625.09,-867.3 2634.68,-862.8 2624.38,-860.34 2625.09,-867.3"/>
<polygon fill="white" stroke="transparent" points="2310.5,-903 2310.5,-989 2563.5,-989 2563.5,-903 2310.5,-903"/>
<text text-anchor="start" x="2315" y="-965.8" font-family="Arial" font-size="24.00" fill="#444444">Resolves, deletes, and</text>
<text text-anchor="start" x="2323" y="-939.8" font-family="Arial" font-size="24.00" fill="#444444">inventories contained</text>
<text text-anchor="start" x="2363.5" y="-913.8" font-family="Arial" font-size="24.00" fill="#444444">bytes through</text>
</g>
<!-- 25&#45;&gt;33 -->
<g id="101" class="edge">
<title>25&#45;&gt;33</title>
<path fill="none" stroke="#444444" stroke-dasharray="5,2" d="M2239.22,-1353.21C2355.48,-1402.71 2486.24,-1464.3 2599,-1532 2610.7,-1539.02 2622.48,-1546.54 2634.2,-1554.37"/>
<polygon fill="#444444" stroke="#444444" points="2632.48,-1557.43 2642.73,-1560.13 2636.4,-1551.63 2632.48,-1557.43"/>
<polygon fill="white" stroke="transparent" points="2275,-1532 2275,-1607 2599,-1607 2599,-1532 2275,-1532"/>
<text text-anchor="start" x="2279" y="-1584.3" font-family="Arial" font-size="24.00" fill="#444444">Reads and advances durable</text>
<text text-anchor="start" x="2311" y="-1560.3" font-family="Arial" font-size="24.00" fill="#444444">blob lifecycle records in</text>
<text text-anchor="start" x="2403.5" y="-1540.3" font-family="Arial" font-size="19.00" fill="#444444">[sqlite3]</text>
</g>
</g>
</svg>
