<?xml version="1.0" encoding="UTF-8" standalone="no"?>
<!DOCTYPE svg PUBLIC "-//W3C//DTD SVG 1.1//EN"
 "http://www.w3.org/Graphics/SVG/1.1/DTD/svg11.dtd">
<!-- Generated by graphviz version 2.43.0 (0)
 -->
<!-- Title: %3 Pages: 1 -->
<svg width="4005pt" height="1607pt"
 viewBox="0.00 0.00 4005.00 1607.00" xmlns="http://www.w3.org/2000/svg" xmlns:xlink="http://www.w3.org/1999/xlink">
<g id="graph0" class="graph" transform="scale(1 1) rotate(0) translate(4 1603)">
<title>%3</title>
<polygon fill="white" stroke="transparent" points="-4,4 -4,-1603 4001,-1603 4001,4 -4,4"/>
<text text-anchor="start" x="1413.5" y="-11.8" font-family="Arial" font-size="34.00">Component View: Browser Memory Daemon &#45; WSL Loopback HTTP Daemon</text>
<g id="clust1" class="cluster">
<title>cluster_4</title>
<polygon fill="none" stroke="#444444" points="8,-64 8,-1591 3989,-1591 3989,-64 8,-64"/>
<text text-anchor="start" x="1857.5" y="-92.8" font-family="Arial" font-size="24.00" fill="#444444">Browser Memory Daemon</text>
<text text-anchor="start" x="1921.5" y="-72.8" font-family="Arial" font-size="19.00" fill="#444444">[Software System]</text>
</g>
<g id="clust2" class="cluster">
<title>cluster_22</title>
<polygon fill="none" stroke="#444444" points="33,-528 33,-967 3083,-967 3083,-528 33,-528"/>
<text text-anchor="start" x="1392.5" y="-556.8" font-family="Arial" font-size="24.00" fill="#444444">WSL Loopback HTTP Daemon</text>
<text text-anchor="start" x="1356" y="-536.8" font-family="Arial" font-size="19.00" fill="#444444">[Container: Python 3.11, ThreadingHTTPServer]</text>
</g>
<!-- 23 -->
<g id="23" class="node">
<title>23</title>
<polygon fill="#85bbf0" stroke="#1168bd" points="552,-939.5 58,-939.5 58,-636.5 552,-636.5 552,-939.5"/>
<text text-anchor="start" x="136.5" y="-891.3" font-family="Arial" font-size="34.00" fill="#000000">HTTP Request Router</text>
<text text-anchor="start" x="87" y="-869.3" font-family="Arial" font-size="19.00" fill="#000000">[Component: Python http.server + route descriptors]</text>
<text text-anchor="start" x="129" y="-832.3" font-family="Arial" font-size="24.00" fill="#000000">Matches immutable method/path</text>
<text text-anchor="start" x="189" y="-808.3" font-family="Arial" font-size="24.00" fill="#000000">descriptors with static</text>
<text text-anchor="start" x="149" y="-784.3" font-family="Arial" font-size="24.00" fill="#000000">precedence, routes loopback</text>
<text text-anchor="start" x="178" y="-760.3" font-family="Arial" font-size="24.00" fill="#000000">API requests, serves UI</text>
<text text-anchor="start" x="151" y="-736.3" font-family="Arial" font-size="24.00" fill="#000000">assets, enforces bearer auth</text>
<text text-anchor="start" x="152" y="-712.3" font-family="Arial" font-size="24.00" fill="#000000">for memory/admin APIs, and</text>
<text text-anchor="start" x="166.5" y="-688.3" font-family="Arial" font-size="24.00" fill="#000000">applies CORS for allowed</text>
<text text-anchor="start" x="265.5" y="-664.3" font-family="Arial" font-size="24.00" fill="#000000">origins.</text>
</g>
<!-- 41 -->
<g id="41" class="node">
<title>41</title>
<polygon fill="#85bbf0" stroke="#1168bd" points="1286,-915.5 905,-915.5 905,-660.5 1286,-660.5 1286,-915.5"/>
<text text-anchor="start" x="981" y="-867.3" font-family="Arial" font-size="34.00" fill="#000000">Forget Pipeline</text>
<text text-anchor="start" x="967.5" y="-845.3" font-family="Arial" font-size="19.00" fill="#000000">[Component: Python + sqlite3]</text>
<text text-anchor="start" x="934" y="-808.3" font-family="Arial" font-size="24.00" fill="#000000">Commits URL/domain&#45;scoped</text>
<text text-anchor="start" x="939" y="-784.3" font-family="Arial" font-size="24.00" fill="#000000">relational deletion, minimized</text>
<text text-anchor="start" x="939.5" y="-760.3" font-family="Arial" font-size="24.00" fill="#000000">receipt, and blob tombstones</text>
<text text-anchor="start" x="955" y="-736.3" font-family="Arial" font-size="24.00" fill="#000000">in one transaction; reports</text>
<text text-anchor="start" x="945" y="-712.3" font-family="Arial" font-size="24.00" fill="#000000">complete only after required</text>
<text text-anchor="start" x="1009.5" y="-688.3" font-family="Arial" font-size="24.00" fill="#000000">bytes converge.</text>
</g>
<!-- 23&#45;&gt;41 -->
<g id="121" class="edge">
<title>23&#45;&gt;41</title>
<path fill="none" stroke="#444444" stroke-dasharray="5,2" d="M552.24,-788C662.33,-788 790.44,-788 894.48,-788"/>
<polygon fill="#444444" stroke="#444444" points="894.79,-791.5 904.79,-788 894.79,-784.5 894.79,-791.5"/>
<polygon fill="white" stroke="transparent" points="588,-788 588,-822 869,-822 869,-788 588,-788"/>
<text text-anchor="start" x="592.5" y="-798.8" font-family="Arial" font-size="24.00" fill="#444444">Routes forget requests to</text>
</g>
<!-- 38 -->
<g id="38" class="node">
<title>38</title>
<polygon fill="#85bbf0" stroke="#1168bd" points="3058,-931.5 2647,-931.5 2647,-628.5 3058,-628.5 3058,-931.5"/>
<text text-anchor="start" x="2696" y="-883.3" font-family="Arial" font-size="34.00" fill="#000000">Contained BlobStore</text>
<text text-anchor="start" x="2676" y="-861.3" font-family="Arial" font-size="19.00" fill="#000000">[Component: Python filesystem boundary]</text>
<text text-anchor="start" x="2700" y="-824.3" font-family="Arial" font-size="24.00" fill="#000000">Prefers root&#45;relative locators</text>
<text text-anchor="start" x="2736.5" y="-800.3" font-family="Arial" font-size="24.00" fill="#000000">with contained legacy</text>
<text text-anchor="start" x="2721.5" y="-776.3" font-family="Arial" font-size="24.00" fill="#000000">fallback; streams unique</text>
<text text-anchor="start" x="2737.5" y="-752.3" font-family="Arial" font-size="24.00" fill="#000000">stages with size/hash</text>
<text text-anchor="start" x="2733.5" y="-728.3" font-family="Arial" font-size="24.00" fill="#000000">accounting; atomically</text>
<text text-anchor="start" x="2705.5" y="-704.3" font-family="Arial" font-size="24.00" fill="#000000">commits; and contains blob</text>
<text text-anchor="start" x="2738" y="-680.3" font-family="Arial" font-size="24.00" fill="#000000">read, stat, and delete</text>
<text text-anchor="start" x="2792" y="-656.3" font-family="Arial" font-size="24.00" fill="#000000">operations.</text>
</g>
<!-- 48 -->
<g id="48" class="node">
<title>48</title>
<path fill="#2f95c8" stroke="#20688c" d="M3889.5,-495.22C3889.5,-513.51 3800.98,-528.38 3692,-528.38 3583.02,-528.38 3494.5,-513.51 3494.5,-495.22 3494.5,-495.22 3494.5,-196.78 3494.5,-196.78 3494.5,-178.49 3583.02,-163.62 3692,-163.62 3800.98,-163.62 3889.5,-178.49 3889.5,-196.78 3889.5,-196.78 3889.5,-495.22 3889.5,-495.22"/>
<path fill="none" stroke="#20688c" d="M3889.5,-495.22C3889.5,-476.92 3800.98,-462.06 3692,-462.06 3583.02,-462.06 3494.5,-476.92 3494.5,-495.22"/>
<text text-anchor="start" x="3570.5" y="-430.3" font-family="Arial" font-size="34.00" fill="#ffffff">Local Derivative</text>
<text text-anchor="start" x="3651" y="-396.3" font-family="Arial" font-size="34.00" fill="#ffffff">Store</text>
<text text-anchor="start" x="3552" y="-374.3" font-family="Arial" font-size="19.00" fill="#ffffff">[Container: WSL local filesystem]</text>
<text text-anchor="start" x="3538.5" y="-337.3" font-family="Arial" font-size="24.00" fill="#ffffff">Reconstructible compatibility</text>
<text text-anchor="start" x="3523.5" y="-313.3" font-family="Arial" font-size="24.00" fill="#ffffff">evidence such as pre&#45;version&#45;9</text>
<text text-anchor="start" x="3562" y="-289.3" font-family="Arial" font-size="24.00" fill="#ffffff">clean&#45;text sidecars; new</text>
<text text-anchor="start" x="3568.5" y="-265.3" font-family="Arial" font-size="24.00" fill="#ffffff">captures create no text</text>
<text text-anchor="start" x="3643.5" y="-241.3" font-family="Arial" font-size="24.00" fill="#ffffff">sidecars.</text>
</g>
<!-- 38&#45;&gt;48 -->
<g id="155" class="edge">
<title>38&#45;&gt;48</title>
<path fill="none" stroke="#444444" stroke-dasharray="5,2" d="M3058.11,-673.97C3187.93,-606.7 3355.32,-519.95 3485.34,-452.57"/>
<polygon fill="#444444" stroke="#444444" points="3486.97,-455.67 3494.24,-447.96 3483.75,-449.45 3486.97,-455.67"/>
<polygon fill="white" stroke="transparent" points="3103,-651 3103,-750 3375,-750 3375,-651 3103,-651"/>
<text text-anchor="start" x="3107" y="-727.3" font-family="Arial" font-size="24.00" fill="#444444">Reads, stats, reconciles,</text>
<text text-anchor="start" x="3115" y="-703.3" font-family="Arial" font-size="24.00" fill="#444444">and deletes legacy text</text>
<text text-anchor="start" x="3181" y="-679.3" font-family="Arial" font-size="24.00" fill="#444444">sidecars in</text>
<text text-anchor="start" x="3187.5" y="-659.3" font-family="Arial" font-size="19.00" fill="#444444">[Filesystem]</text>
</g>
<!-- 49 -->
<g id="49" class="node">
<title>49</title>
<path fill="#2f95c8" stroke="#20688c" d="M3964,-991.22C3964,-1012.82 3842.09,-1030.38 3692,-1030.38 3541.91,-1030.38 3420,-1012.82 3420,-991.22 3420,-991.22 3420,-638.78 3420,-638.78 3420,-617.18 3541.91,-599.62 3692,-599.62 3842.09,-599.62 3964,-617.18 3964,-638.78 3964,-638.78 3964,-991.22 3964,-991.22"/>
<path fill="none" stroke="#20688c" d="M3964,-991.22C3964,-969.61 3842.09,-952.06 3692,-952.06 3541.91,-952.06 3420,-969.61 3420,-991.22"/>
<text text-anchor="start" x="3536.5" y="-923.3" font-family="Arial" font-size="34.00" fill="#ffffff">Guarded Media Blob</text>
<text text-anchor="start" x="3642.5" y="-889.3" font-family="Arial" font-size="34.00" fill="#ffffff">Cache</text>
<text text-anchor="start" x="3449" y="-867.3" font-family="Arial" font-size="19.00" fill="#ffffff">[Container: WSL&#45;visible local or NAS&#45;mounted filesystem]</text>
<text text-anchor="start" x="3582" y="-830.3" font-family="Arial" font-size="24.00" fill="#ffffff">Bounded disposable</text>
<text text-anchor="start" x="3526.5" y="-806.3" font-family="Arial" font-size="24.00" fill="#ffffff">image/video/audio bytes under</text>
<text text-anchor="start" x="3550.5" y="-782.3" font-family="Arial" font-size="24.00" fill="#ffffff">the configured media root;</text>
<text text-anchor="start" x="3578" y="-758.3" font-family="Arial" font-size="24.00" fill="#ffffff">explicit external roots</text>
<text text-anchor="start" x="3593" y="-734.3" font-family="Arial" font-size="24.00" fill="#ffffff">require mount and</text>
<text text-anchor="start" x="3542.5" y="-710.3" font-family="Arial" font-size="24.00" fill="#ffffff">identity&#45;marker proof before</text>
<text text-anchor="start" x="3651" y="-686.3" font-family="Arial" font-size="24.00" fill="#ffffff">access.</text>
</g>
<!-- 38&#45;&gt;49 -->
<g id="156" class="edge">
<title>38&#45;&gt;49</title>
<path fill="none" stroke="#444444" stroke-dasharray="5,2" d="M3058.11,-788.55C3163.86,-792.97 3294.54,-798.43 3409.64,-803.24"/>
<polygon fill="#444444" stroke="#444444" points="3409.53,-806.74 3419.67,-803.66 3409.82,-799.75 3409.53,-806.74"/>
<polygon fill="white" stroke="transparent" points="3103.5,-801 3103.5,-900 3374.5,-900 3374.5,-801 3103.5,-801"/>
<text text-anchor="start" x="3109.5" y="-877.3" font-family="Arial" font-size="24.00" fill="#444444">Stages, commits, reads,</text>
<text text-anchor="start" x="3108" y="-853.3" font-family="Arial" font-size="24.00" fill="#444444">stats, and deletes media</text>
<text text-anchor="start" x="3197.5" y="-829.3" font-family="Arial" font-size="24.00" fill="#444444">blobs in</text>
<text text-anchor="start" x="3188" y="-809.3" font-family="Arial" font-size="19.00" fill="#444444">[Filesystem]</text>
</g>
<!-- 50 -->
<g id="50" class="node">
<title>50</title>
<path fill="#2f95c8" stroke="#20688c" d="M3885,-1523.72C3885,-1546.98 3798.49,-1565.88 3692,-1565.88 3585.51,-1565.88 3499,-1546.98 3499,-1523.72 3499,-1523.72 3499,-1144.28 3499,-1144.28 3499,-1121.02 3585.51,-1102.12 3692,-1102.12 3798.49,-1102.12 3885,-1121.02 3885,-1144.28 3885,-1144.28 3885,-1523.72 3885,-1523.72"/>
<path fill="none" stroke="#20688c" d="M3885,-1523.72C3885,-1500.45 3798.49,-1481.56 3692,-1481.56 3585.51,-1481.56 3499,-1500.45 3499,-1523.72"/>
<text text-anchor="start" x="3528" y="-1454.3" font-family="Arial" font-size="34.00" fill="#ffffff">Bounded Local Media</text>
<text text-anchor="start" x="3648.5" y="-1420.3" font-family="Arial" font-size="34.00" fill="#ffffff">Spool</text>
<text text-anchor="start" x="3552" y="-1398.3" font-family="Arial" font-size="19.00" fill="#ffffff">[Container: WSL local filesystem]</text>
<text text-anchor="start" x="3540" y="-1361.3" font-family="Arial" font-size="24.00" fill="#ffffff">Opt&#45;in durable outage buffer</text>
<text text-anchor="start" x="3543.5" y="-1337.3" font-family="Arial" font-size="24.00" fill="#ffffff">beneath the local WSL data</text>
<text text-anchor="start" x="3570.5" y="-1313.3" font-family="Arial" font-size="24.00" fill="#ffffff">root; admission counts</text>
<text text-anchor="start" x="3546.5" y="-1289.3" font-family="Arial" font-size="24.00" fill="#ffffff">committed files and distinct</text>
<text text-anchor="start" x="3540" y="-1265.3" font-family="Arial" font-size="24.00" fill="#ffffff">in&#45;flight SQLite reservations,</text>
<text text-anchor="start" x="3567" y="-1241.3" font-family="Arial" font-size="24.00" fill="#ffffff">and drain verifies bytes</text>
<text text-anchor="start" x="3544.5" y="-1217.3" font-family="Arial" font-size="24.00" fill="#ffffff">before tier transition/source</text>
<text text-anchor="start" x="3646" y="-1193.3" font-family="Arial" font-size="24.00" fill="#ffffff">cleanup.</text>
</g>
<!-- 38&#45;&gt;50 -->
<g id="157" class="edge">
<title>38&#45;&gt;50</title>
<path fill="none" stroke="#444444" stroke-dasharray="5,2" d="M3058.11,-915.35C3189.6,-1002.33 3359.63,-1114.8 3490.34,-1201.26"/>
<polygon fill="#444444" stroke="#444444" points="3488.62,-1204.32 3498.89,-1206.92 3492.48,-1198.48 3488.62,-1204.32"/>
<polygon fill="white" stroke="transparent" points="3094,-1122 3094,-1221 3384,-1221 3384,-1122 3094,-1122"/>
<text text-anchor="start" x="3109" y="-1198.3" font-family="Arial" font-size="24.00" fill="#444444">Stages, commits, reads,</text>
<text text-anchor="start" x="3098" y="-1174.3" font-family="Arial" font-size="24.00" fill="#444444">stats, and deletes spooled</text>
<text text-anchor="start" x="3193" y="-1150.3" font-family="Arial" font-size="24.00" fill="#444444">media in</text>
<text text-anchor="start" x="3187.5" y="-1130.3" font-family="Arial" font-size="19.00" fill="#444444">[Filesystem]</text>
</g>
<!-- 39 -->
<g id="39" class="node">
<title>39</title>
<polygon fill="#85bbf0" stroke="#1168bd" points="2251,-941.5 1618,-941.5 1618,-628.5 2251,-628.5 2251,-941.5"/>
<text text-anchor="start" x="1796" y="-893.3" font-family="Arial" font-size="34.00" fill="#000000">Blob Lifecycle and</text>
<text text-anchor="start" x="1790" y="-859.3" font-family="Arial" font-size="34.00" fill="#000000">Storage Reconciler</text>
<text text-anchor="start" x="1753" y="-837.3" font-family="Arial" font-size="19.00" fill="#000000">[Component: Python + sqlite3 + filesystem]</text>
<text text-anchor="start" x="1891.5" y="-800.3" font-family="Arial" font-size="24.00" fill="#000000">Persists</text>
<text text-anchor="start" x="1647" y="-776.3" font-family="Arial" font-size="24.00" fill="#000000">committed/tombstoned/missing/deleted/blocked/failed</text>
<text text-anchor="start" x="1824.5" y="-752.3" font-family="Arial" font-size="24.00" fill="#000000">blob state; serializes</text>
<text text-anchor="start" x="1788.5" y="-728.3" font-family="Arial" font-size="24.00" fill="#000000">deletion processors; retries</text>
<text text-anchor="start" x="1802.5" y="-704.3" font-family="Arial" font-size="24.00" fill="#000000">tombstones; and dry&#45;run</text>
<text text-anchor="start" x="1786" y="-680.3" font-family="Arial" font-size="24.00" fill="#000000">detects missing refs, in&#45;root</text>
<text text-anchor="start" x="1792" y="-656.3" font-family="Arial" font-size="24.00" fill="#000000">orphans, and stale stages.</text>
</g>
<!-- 39&#45;&gt;38 -->
<g id="154" class="edge">
<title>39&#45;&gt;38</title>
<path fill="none" stroke="#444444" stroke-dasharray="5,2" d="M2251.11,-710.61C2263.19,-708.86 2275.19,-707.31 2287,-706 2430.12,-690.11 2468.6,-684.59 2611,-706 2619.55,-707.29 2628.22,-708.82 2636.94,-710.54"/>
<polygon fill="#444444" stroke="#444444" points="2636.29,-713.98 2646.79,-712.58 2637.71,-707.13 2636.29,-713.98"/>
<polygon fill="white" stroke="transparent" points="2322.5,-706 2322.5,-792 2575.5,-792 2575.5,-706 2322.5,-706"/>
<text text-anchor="start" x="2327" y="-768.8" font-family="Arial" font-size="24.00" fill="#444444">Resolves, deletes, and</text>
<text text-anchor="start" x="2335" y="-742.8" font-family="Arial" font-size="24.00" fill="#444444">inventories contained</text>
<text text-anchor="start" x="2375.5" y="-716.8" font-family="Arial" font-size="24.00" fill="#444444">bytes through</text>
</g>
<!-- 47 -->
<g id="47" class="node">
<title>47</title>
<path fill="#2f95c8" stroke="#20688c" d="M3050,-1515.22C3050,-1543.44 2961.48,-1566.38 2852.5,-1566.38 2743.52,-1566.38 2655,-1543.44 2655,-1515.22 2655,-1515.22 2655,-1054.78 2655,-1054.78 2655,-1026.56 2743.52,-1003.62 2852.5,-1003.62 2961.48,-1003.62 3050,-1026.56 3050,-1054.78 3050,-1054.78 3050,-1515.22 3050,-1515.22"/>
<path fill="none" stroke="#20688c" d="M3050,-1515.22C3050,-1486.99 2961.48,-1464.06 2852.5,-1464.06 2743.52,-1464.06 2655,-1486.99 2655,-1515.22"/>
<text text-anchor="start" x="2739.5" y="-1441.3" font-family="Arial" font-size="34.00" fill="#ffffff">SQLite + FTS5</text>
<text text-anchor="start" x="2779.5" y="-1407.3" font-family="Arial" font-size="34.00" fill="#ffffff">Database</text>
<text text-anchor="start" x="2726.5" y="-1385.3" font-family="Arial" font-size="19.00" fill="#ffffff">[Container: SQLite with FTS5]</text>
<text text-anchor="start" x="2684.5" y="-1348.3" font-family="Arial" font-size="24.00" fill="#ffffff">Durable complete cleaned&#45;text,</text>
<text text-anchor="start" x="2733.5" y="-1324.3" font-family="Arial" font-size="24.00" fill="#ffffff">relational, and full&#45;text</text>
<text text-anchor="start" x="2735" y="-1300.3" font-family="Arial" font-size="24.00" fill="#ffffff">authority for migration</text>
<text text-anchor="start" x="2700.5" y="-1276.3" font-family="Arial" font-size="24.00" fill="#ffffff">ledger, sources, documents,</text>
<text text-anchor="start" x="2703" y="-1252.3" font-family="Arial" font-size="24.00" fill="#ffffff">visits, capture observations,</text>
<text text-anchor="start" x="2721.5" y="-1228.3" font-family="Arial" font-size="24.00" fill="#ffffff">URL claims, visit events,</text>
<text text-anchor="start" x="2684" y="-1204.3" font-family="Arial" font-size="24.00" fill="#ffffff">snapshots, chunks, chunks_fts,</text>
<text text-anchor="start" x="2691.5" y="-1180.3" font-family="Arial" font-size="24.00" fill="#ffffff">media provenance/tasks, blob</text>
<text text-anchor="start" x="2728" y="-1156.3" font-family="Arial" font-size="24.00" fill="#ffffff">lifecycle records, policy</text>
<text text-anchor="start" x="2727" y="-1132.3" font-family="Arial" font-size="24.00" fill="#ffffff">rules, audit events, and</text>
<text text-anchor="start" x="2760.5" y="-1108.3" font-family="Arial" font-size="24.00" fill="#ffffff">deletion receipts.</text>
</g>
<!-- 39&#45;&gt;47 -->
<g id="153" class="edge">
<title>39&#45;&gt;47</title>
<path fill="none" stroke="#444444" stroke-dasharray="5,2" d="M2251.23,-908.28C2367.65,-958.8 2498.5,-1021.71 2611,-1091 2622.76,-1098.24 2634.59,-1105.99 2646.35,-1114.07"/>
<polygon fill="#444444" stroke="#444444" points="2644.7,-1117.18 2654.91,-1120.01 2648.69,-1111.44 2644.7,-1117.18"/>
<polygon fill="white" stroke="transparent" points="2287,-1091 2287,-1166 2611,-1166 2611,-1091 2287,-1091"/>
<text text-anchor="start" x="2291" y="-1143.3" font-family="Arial" font-size="24.00" fill="#444444">Reads and advances durable</text>
<text text-anchor="start" x="2323" y="-1119.3" font-family="Arial" font-size="24.00" fill="#444444">blob lifecycle records in</text>
<text text-anchor="start" x="2415.5" y="-1099.3" font-family="Arial" font-size="19.00" fill="#444444">[sqlite3]</text>
</g>
<!-- 41&#45;&gt;39 -->
<g id="152" class="edge">
<title>41&#45;&gt;39</title>
<path fill="none" stroke="#444444" stroke-dasharray="5,2" d="M1286.03,-717.47C1298.1,-714.53 1310.15,-711.99 1322,-710 1414.36,-694.48 1515.07,-698.35 1607.62,-710.16"/>
<polygon fill="#444444" stroke="#444444" points="1607.34,-713.65 1617.71,-711.48 1608.25,-706.71 1607.34,-713.65"/>
<polygon fill="white" stroke="transparent" points="1322,-710 1322,-796 1582,-796 1582,-710 1322,-710"/>
<text text-anchor="start" x="1326" y="-772.8" font-family="Arial" font-size="24.00" fill="#444444">Processes post&#45;commit</text>
<text text-anchor="start" x="1327" y="-746.8" font-family="Arial" font-size="24.00" fill="#444444">contained blob deletion</text>
<text text-anchor="start" x="1410.5" y="-720.8" font-family="Arial" font-size="24.00" fill="#444444">through</text>
</g>
<!-- 41&#45;&gt;47 -->
<g id="151" class="edge">
<title>41&#45;&gt;47</title>
<path fill="none" stroke="#444444" stroke-dasharray="5,2" d="M1286.02,-859.95C1384.56,-896.63 1507.26,-941.14 1618,-978 1912.7,-1076.09 1985.21,-1106.6 2287,-1180 2404.53,-1208.58 2537.46,-1233.66 2644.79,-1252.13"/>
<polygon fill="#444444" stroke="#444444" points="2644.32,-1255.6 2654.77,-1253.84 2645.5,-1248.7 2644.32,-1255.6"/>
<polygon fill="white" stroke="transparent" points="1804,-1170 1804,-1269 2065,-1269 2065,-1170 1804,-1170"/>
<text text-anchor="start" x="1808.5" y="-1246.3" font-family="Arial" font-size="24.00" fill="#444444">Atomically deletes rows</text>
<text text-anchor="start" x="1870.5" y="-1222.3" font-family="Arial" font-size="24.00" fill="#444444">and records</text>
<text text-anchor="start" x="1813.5" y="-1198.3" font-family="Arial" font-size="24.00" fill="#444444">receipts/tombstones in</text>
<text text-anchor="start" x="1901.5" y="-1178.3" font-family="Arial" font-size="19.00" fill="#444444">[sqlite3]</text>
</g>
</g>
</svg>
