<?xml version="1.0" encoding="UTF-8" standalone="no"?>
<!DOCTYPE svg PUBLIC "-//W3C//DTD SVG 1.1//EN"
 "http://www.w3.org/Graphics/SVG/1.1/DTD/svg11.dtd">
<!-- Generated by graphviz version 2.43.0 (0)
 -->
<!-- Title: %3 Pages: 1 -->
<svg width="4740pt" height="1607pt"
 viewBox="0.00 0.00 4740.00 1607.00" xmlns="http://www.w3.org/2000/svg" xmlns:xlink="http://www.w3.org/1999/xlink">
<g id="graph0" class="graph" transform="scale(1 1) rotate(0) translate(4 1603)">
<title>%3</title>
<polygon fill="white" stroke="transparent" points="-4,4 -4,-1603 4736,-1603 4736,4 -4,4"/>
<text text-anchor="start" x="1781" y="-11.8" font-family="Arial" font-size="34.00">Component View: Browser Memory Daemon &#45; WSL Loopback HTTP Daemon</text>
<g id="clust1" class="cluster">
<title>cluster_4</title>
<polygon fill="none" stroke="#444444" points="8,-64 8,-1591 4724,-1591 4724,-64 8,-64"/>
<text text-anchor="start" x="2225" y="-92.8" font-family="Arial" font-size="24.00" fill="#444444">Browser Memory Daemon</text>
<text text-anchor="start" x="2289" y="-72.8" font-family="Arial" font-size="19.00" fill="#444444">[Software System]</text>
</g>
<g id="clust2" class="cluster">
<title>cluster_22</title>
<polygon fill="none" stroke="#444444" points="33,-478 33,-979 3818,-979 3818,-478 33,-478"/>
<text text-anchor="start" x="1760" y="-506.8" font-family="Arial" font-size="24.00" fill="#444444">WSL Loopback HTTP Daemon</text>
<text text-anchor="start" x="1723.5" y="-486.8" font-family="Arial" font-size="19.00" fill="#444444">[Container: Python 3.11, ThreadingHTTPServer]</text>
</g>
<!-- 23 -->
<g id="23" class="node">
<title>23</title>
<polygon fill="#85bbf0" stroke="#1168bd" points="552,-953.5 58,-953.5 58,-578.5 552,-578.5 552,-953.5"/>
<text text-anchor="start" x="136.5" y="-905.3" font-family="Arial" font-size="34.00" fill="#000000">HTTP Request Router</text>
<text text-anchor="start" x="87" y="-883.3" font-family="Arial" font-size="19.00" fill="#000000">[Component: Python http.server + route descriptors]</text>
<text text-anchor="start" x="117.5" y="-846.3" font-family="Arial" font-size="24.00" fill="#000000">Adapts BaseHTTPRequestHandler</text>
<text text-anchor="start" x="154.5" y="-822.3" font-family="Arial" font-size="24.00" fill="#000000">requests through immutable</text>
<text text-anchor="start" x="150" y="-798.3" font-family="Arial" font-size="24.00" fill="#000000">method/path descriptors with</text>
<text text-anchor="start" x="144.5" y="-774.3" font-family="Arial" font-size="24.00" fill="#000000">static precedence; owns auth,</text>
<text text-anchor="start" x="199.5" y="-750.3" font-family="Arial" font-size="24.00" fill="#000000">parsing, compatible</text>
<text text-anchor="start" x="180.5" y="-726.3" font-family="Arial" font-size="24.00" fill="#000000">status/error responses,</text>
<text text-anchor="start" x="144.5" y="-702.3" font-family="Arial" font-size="24.00" fill="#000000">request IDs, common security</text>
<text text-anchor="start" x="177" y="-678.3" font-family="Arial" font-size="24.00" fill="#000000">headers, redaction&#45;safe</text>
<text text-anchor="start" x="148.5" y="-654.3" font-family="Arial" font-size="24.00" fill="#000000">telemetry, bounded response</text>
<text text-anchor="start" x="138" y="-630.3" font-family="Arial" font-size="24.00" fill="#000000">streaming, disconnect cleanup,</text>
<text text-anchor="start" x="157.5" y="-606.3" font-family="Arial" font-size="24.00" fill="#000000">CORS, and finite UI assets.</text>
</g>
<!-- 24 -->
<g id="24" class="node">
<title>24</title>
<polygon fill="#85bbf0" stroke="#1168bd" points="1302,-948.5 901,-948.5 901,-597.5 1302,-597.5 1302,-948.5"/>
<text text-anchor="start" x="930" y="-900.3" font-family="Arial" font-size="34.00" fill="#000000">Application Use Cases</text>
<text text-anchor="start" x="1012.5" y="-878.3" font-family="Arial" font-size="19.00" fill="#000000">[Component: Python]</text>
<text text-anchor="start" x="939.5" y="-841.3" font-family="Arial" font-size="24.00" fill="#000000">Provides request&#45;independent</text>
<text text-anchor="start" x="976.5" y="-817.3" font-family="Arial" font-size="24.00" fill="#000000">capture, lifecycle, read,</text>
<text text-anchor="start" x="966.5" y="-793.3" font-family="Arial" font-size="24.00" fill="#000000">forget, policy, doctor, and</text>
<text text-anchor="start" x="975.5" y="-769.3" font-family="Arial" font-size="24.00" fill="#000000">media use cases; owns</text>
<text text-anchor="start" x="972.5" y="-745.3" font-family="Arial" font-size="24.00" fill="#000000">database&#45;ready checks,</text>
<text text-anchor="start" x="945.5" y="-721.3" font-family="Arial" font-size="24.00" fill="#000000">transaction/audit boundaries,</text>
<text text-anchor="start" x="949" y="-697.3" font-family="Arial" font-size="24.00" fill="#000000">asynchronous media kickoff,</text>
<text text-anchor="start" x="935.5" y="-673.3" font-family="Arial" font-size="24.00" fill="#000000">and upload/download resource</text>
<text text-anchor="start" x="936.5" y="-649.3" font-family="Arial" font-size="24.00" fill="#000000">leases without importing HTTP</text>
<text text-anchor="start" x="957.5" y="-625.3" font-family="Arial" font-size="24.00" fill="#000000">request or response types.</text>
</g>
<!-- 23&#45;&gt;24 -->
<g id="114" class="edge">
<title>23&#45;&gt;24</title>
<path fill="none" stroke="#444444" stroke-dasharray="5,2" d="M552.22,-768.17C660.59,-769.12 786.59,-770.23 890.45,-771.15"/>
<polygon fill="#444444" stroke="#444444" points="890.72,-774.65 900.75,-771.24 890.78,-767.65 890.72,-774.65"/>
<polygon fill="white" stroke="transparent" points="588,-770 588,-856 865,-856 865,-770 588,-770"/>
<text text-anchor="start" x="645" y="-832.8" font-family="Arial" font-size="24.00" fill="#444444">Invokes explicit</text>
<text text-anchor="start" x="592.5" y="-806.8" font-family="Arial" font-size="24.00" fill="#444444">request&#45;independent use</text>
<text text-anchor="start" x="650.5" y="-780.8" font-family="Arial" font-size="24.00" fill="#444444">cases through</text>
</g>
<!-- 42 -->
<g id="42" class="node">
<title>42</title>
<polygon fill="#85bbf0" stroke="#1168bd" points="2021,-953.5 1650,-953.5 1650,-602.5 2021,-602.5 2021,-953.5"/>
<text text-anchor="start" x="1721" y="-905.3" font-family="Arial" font-size="34.00" fill="#000000">Forget Pipeline</text>
<text text-anchor="start" x="1707.5" y="-883.3" font-family="Arial" font-size="19.00" fill="#000000">[Component: Python + sqlite3]</text>
<text text-anchor="start" x="1701.5" y="-846.3" font-family="Arial" font-size="24.00" fill="#000000">Plans literal policy&#45;aware</text>
<text text-anchor="start" x="1707.5" y="-822.3" font-family="Arial" font-size="24.00" fill="#000000">URL/domain scope with</text>
<text text-anchor="start" x="1681.5" y="-798.3" font-family="Arial" font-size="24.00" fill="#000000">non&#45;mutating cross&#45;authority</text>
<text text-anchor="start" x="1679" y="-774.3" font-family="Arial" font-size="24.00" fill="#000000">counts and a selected&#45;record</text>
<text text-anchor="start" x="1695" y="-750.3" font-family="Arial" font-size="24.00" fill="#000000">guard; bounded execution</text>
<text text-anchor="start" x="1688.5" y="-726.3" font-family="Arial" font-size="24.00" fill="#000000">commits relational deletion,</text>
<text text-anchor="start" x="1688" y="-702.3" font-family="Arial" font-size="24.00" fill="#000000">minimized receipt, and blob</text>
<text text-anchor="start" x="1701" y="-678.3" font-family="Arial" font-size="24.00" fill="#000000">tombstones, then reports</text>
<text text-anchor="start" x="1685" y="-654.3" font-family="Arial" font-size="24.00" fill="#000000">complete only after required</text>
<text text-anchor="start" x="1749.5" y="-630.3" font-family="Arial" font-size="24.00" fill="#000000">bytes converge.</text>
</g>
<!-- 24&#45;&gt;42 -->
<g id="124" class="edge">
<title>24&#45;&gt;42</title>
<path fill="none" stroke="#444444" stroke-dasharray="5,2" d="M1302.04,-774.36C1407.13,-775.08 1535.48,-775.96 1639.84,-776.67"/>
<polygon fill="#444444" stroke="#444444" points="1639.84,-780.17 1649.86,-776.74 1639.88,-773.17 1639.84,-780.17"/>
<polygon fill="white" stroke="transparent" points="1338,-776 1338,-836 1614,-836 1614,-776 1338,-776"/>
<text text-anchor="start" x="1342" y="-812.8" font-family="Arial" font-size="24.00" fill="#444444">Executes forget requests</text>
<text text-anchor="start" x="1434.5" y="-786.8" font-family="Arial" font-size="24.00" fill="#444444">through</text>
</g>
<!-- 39 -->
<g id="39" class="node">
<title>39</title>
<polygon fill="#85bbf0" stroke="#1168bd" points="3793,-931.5 3382,-931.5 3382,-628.5 3793,-628.5 3793,-931.5"/>
<text text-anchor="start" x="3431" y="-883.3" font-family="Arial" font-size="34.00" fill="#000000">Contained BlobStore</text>
<text text-anchor="start" x="3411" y="-861.3" font-family="Arial" font-size="19.00" fill="#000000">[Component: Python filesystem boundary]</text>
<text text-anchor="start" x="3435" y="-824.3" font-family="Arial" font-size="24.00" fill="#000000">Prefers root&#45;relative locators</text>
<text text-anchor="start" x="3471.5" y="-800.3" font-family="Arial" font-size="24.00" fill="#000000">with contained legacy</text>
<text text-anchor="start" x="3456.5" y="-776.3" font-family="Arial" font-size="24.00" fill="#000000">fallback; streams unique</text>
<text text-anchor="start" x="3472.5" y="-752.3" font-family="Arial" font-size="24.00" fill="#000000">stages with size/hash</text>
<text text-anchor="start" x="3468.5" y="-728.3" font-family="Arial" font-size="24.00" fill="#000000">accounting; atomically</text>
<text text-anchor="start" x="3440.5" y="-704.3" font-family="Arial" font-size="24.00" fill="#000000">commits; and contains blob</text>
<text text-anchor="start" x="3473" y="-680.3" font-family="Arial" font-size="24.00" fill="#000000">read, stat, and delete</text>
<text text-anchor="start" x="3527" y="-656.3" font-family="Arial" font-size="24.00" fill="#000000">operations.</text>
</g>
<!-- 49 -->
<g id="49" class="node">
<title>49</title>
<path fill="#2f95c8" stroke="#20688c" d="M4624.5,-495.22C4624.5,-513.51 4535.98,-528.38 4427,-528.38 4318.02,-528.38 4229.5,-513.51 4229.5,-495.22 4229.5,-495.22 4229.5,-196.78 4229.5,-196.78 4229.5,-178.49 4318.02,-163.62 4427,-163.62 4535.98,-163.62 4624.5,-178.49 4624.5,-196.78 4624.5,-196.78 4624.5,-495.22 4624.5,-495.22"/>
<path fill="none" stroke="#20688c" d="M4624.5,-495.22C4624.5,-476.92 4535.98,-462.06 4427,-462.06 4318.02,-462.06 4229.5,-476.92 4229.5,-495.22"/>
<text text-anchor="start" x="4305.5" y="-430.3" font-family="Arial" font-size="34.00" fill="#ffffff">Local Derivative</text>
<text text-anchor="start" x="4386" y="-396.3" font-family="Arial" font-size="34.00" fill="#ffffff">Store</text>
<text text-anchor="start" x="4287" y="-374.3" font-family="Arial" font-size="19.00" fill="#ffffff">[Container: WSL local filesystem]</text>
<text text-anchor="start" x="4273.5" y="-337.3" font-family="Arial" font-size="24.00" fill="#ffffff">Reconstructible compatibility</text>
<text text-anchor="start" x="4258.5" y="-313.3" font-family="Arial" font-size="24.00" fill="#ffffff">evidence such as pre&#45;version&#45;9</text>
<text text-anchor="start" x="4297" y="-289.3" font-family="Arial" font-size="24.00" fill="#ffffff">clean&#45;text sidecars; new</text>
<text text-anchor="start" x="4303.5" y="-265.3" font-family="Arial" font-size="24.00" fill="#ffffff">captures create no text</text>
<text text-anchor="start" x="4378.5" y="-241.3" font-family="Arial" font-size="24.00" fill="#ffffff">sidecars.</text>
</g>
<!-- 39&#45;&gt;49 -->
<g id="158" class="edge">
<title>39&#45;&gt;49</title>
<path fill="none" stroke="#444444" stroke-dasharray="5,2" d="M3793.11,-673.97C3922.93,-606.7 4090.32,-519.95 4220.34,-452.57"/>
<polygon fill="#444444" stroke="#444444" points="4221.97,-455.67 4229.24,-447.96 4218.75,-449.45 4221.97,-455.67"/>
<polygon fill="white" stroke="transparent" points="3838,-651 3838,-750 4110,-750 4110,-651 3838,-651"/>
<text text-anchor="start" x="3842" y="-727.3" font-family="Arial" font-size="24.00" fill="#444444">Reads, stats, reconciles,</text>
<text text-anchor="start" x="3850" y="-703.3" font-family="Arial" font-size="24.00" fill="#444444">and deletes legacy text</text>
<text text-anchor="start" x="3916" y="-679.3" font-family="Arial" font-size="24.00" fill="#444444">sidecars in</text>
<text text-anchor="start" x="3922.5" y="-659.3" font-family="Arial" font-size="19.00" fill="#444444">[Filesystem]</text>
</g>
<!-- 50 -->
<g id="50" class="node">
<title>50</title>
<path fill="#2f95c8" stroke="#20688c" d="M4699,-991.22C4699,-1012.82 4577.09,-1030.38 4427,-1030.38 4276.91,-1030.38 4155,-1012.82 4155,-991.22 4155,-991.22 4155,-638.78 4155,-638.78 4155,-617.18 4276.91,-599.62 4427,-599.62 4577.09,-599.62 4699,-617.18 4699,-638.78 4699,-638.78 4699,-991.22 4699,-991.22"/>
<path fill="none" stroke="#20688c" d="M4699,-991.22C4699,-969.61 4577.09,-952.06 4427,-952.06 4276.91,-952.06 4155,-969.61 4155,-991.22"/>
<text text-anchor="start" x="4271.5" y="-923.3" font-family="Arial" font-size="34.00" fill="#ffffff">Guarded Media Blob</text>
<text text-anchor="start" x="4377.5" y="-889.3" font-family="Arial" font-size="34.00" fill="#ffffff">Cache</text>
<text text-anchor="start" x="4184" y="-867.3" font-family="Arial" font-size="19.00" fill="#ffffff">[Container: WSL&#45;visible local or NAS&#45;mounted filesystem]</text>
<text text-anchor="start" x="4317" y="-830.3" font-family="Arial" font-size="24.00" fill="#ffffff">Bounded disposable</text>
<text text-anchor="start" x="4261.5" y="-806.3" font-family="Arial" font-size="24.00" fill="#ffffff">image/video/audio bytes under</text>
<text text-anchor="start" x="4285.5" y="-782.3" font-family="Arial" font-size="24.00" fill="#ffffff">the configured media root;</text>
<text text-anchor="start" x="4313" y="-758.3" font-family="Arial" font-size="24.00" fill="#ffffff">explicit external roots</text>
<text text-anchor="start" x="4328" y="-734.3" font-family="Arial" font-size="24.00" fill="#ffffff">require mount and</text>
<text text-anchor="start" x="4277.5" y="-710.3" font-family="Arial" font-size="24.00" fill="#ffffff">identity&#45;marker proof before</text>
<text text-anchor="start" x="4386" y="-686.3" font-family="Arial" font-size="24.00" fill="#ffffff">access.</text>
</g>
<!-- 39&#45;&gt;50 -->
<g id="159" class="edge">
<title>39&#45;&gt;50</title>
<path fill="none" stroke="#444444" stroke-dasharray="5,2" d="M3793.11,-788.55C3898.86,-792.97 4029.54,-798.43 4144.64,-803.24"/>
<polygon fill="#444444" stroke="#444444" points="4144.53,-806.74 4154.67,-803.66 4144.82,-799.75 4144.53,-806.74"/>
<polygon fill="white" stroke="transparent" points="3838.5,-801 3838.5,-900 4109.5,-900 4109.5,-801 3838.5,-801"/>
<text text-anchor="start" x="3844.5" y="-877.3" font-family="Arial" font-size="24.00" fill="#444444">Stages, commits, reads,</text>
<text text-anchor="start" x="3843" y="-853.3" font-family="Arial" font-size="24.00" fill="#444444">stats, and deletes media</text>
<text text-anchor="start" x="3932.5" y="-829.3" font-family="Arial" font-size="24.00" fill="#444444">blobs in</text>
<text text-anchor="start" x="3923" y="-809.3" font-family="Arial" font-size="19.00" fill="#444444">[Filesystem]</text>
</g>
<!-- 51 -->
<g id="51" class="node">
<title>51</title>
<path fill="#2f95c8" stroke="#20688c" d="M4620,-1523.72C4620,-1546.98 4533.49,-1565.88 4427,-1565.88 4320.51,-1565.88 4234,-1546.98 4234,-1523.72 4234,-1523.72 4234,-1144.28 4234,-1144.28 4234,-1121.02 4320.51,-1102.12 4427,-1102.12 4533.49,-1102.12 4620,-1121.02 4620,-1144.28 4620,-1144.28 4620,-1523.72 4620,-1523.72"/>
<path fill="none" stroke="#20688c" d="M4620,-1523.72C4620,-1500.45 4533.49,-1481.56 4427,-1481.56 4320.51,-1481.56 4234,-1500.45 4234,-1523.72"/>
<text text-anchor="start" x="4263" y="-1454.3" font-family="Arial" font-size="34.00" fill="#ffffff">Bounded Local Media</text>
<text text-anchor="start" x="4383.5" y="-1420.3" font-family="Arial" font-size="34.00" fill="#ffffff">Spool</text>
<text text-anchor="start" x="4287" y="-1398.3" font-family="Arial" font-size="19.00" fill="#ffffff">[Container: WSL local filesystem]</text>
<text text-anchor="start" x="4275" y="-1361.3" font-family="Arial" font-size="24.00" fill="#ffffff">Opt&#45;in durable outage buffer</text>
<text text-anchor="start" x="4278.5" y="-1337.3" font-family="Arial" font-size="24.00" fill="#ffffff">beneath the local WSL data</text>
<text text-anchor="start" x="4305.5" y="-1313.3" font-family="Arial" font-size="24.00" fill="#ffffff">root; admission counts</text>
<text text-anchor="start" x="4281.5" y="-1289.3" font-family="Arial" font-size="24.00" fill="#ffffff">committed files and distinct</text>
<text text-anchor="start" x="4275" y="-1265.3" font-family="Arial" font-size="24.00" fill="#ffffff">in&#45;flight SQLite reservations,</text>
<text text-anchor="start" x="4302" y="-1241.3" font-family="Arial" font-size="24.00" fill="#ffffff">and drain verifies bytes</text>
<text text-anchor="start" x="4279.5" y="-1217.3" font-family="Arial" font-size="24.00" fill="#ffffff">before tier transition/source</text>
<text text-anchor="start" x="4381" y="-1193.3" font-family="Arial" font-size="24.00" fill="#ffffff">cleanup.</text>
</g>
<!-- 39&#45;&gt;51 -->
<g id="160" class="edge">
<title>39&#45;&gt;51</title>
<path fill="none" stroke="#444444" stroke-dasharray="5,2" d="M3793.11,-915.35C3924.6,-1002.33 4094.63,-1114.8 4225.34,-1201.26"/>
<polygon fill="#444444" stroke="#444444" points="4223.62,-1204.32 4233.89,-1206.92 4227.48,-1198.48 4223.62,-1204.32"/>
<polygon fill="white" stroke="transparent" points="3829,-1122 3829,-1221 4119,-1221 4119,-1122 3829,-1122"/>
<text text-anchor="start" x="3844" y="-1198.3" font-family="Arial" font-size="24.00" fill="#444444">Stages, commits, reads,</text>
<text text-anchor="start" x="3833" y="-1174.3" font-family="Arial" font-size="24.00" fill="#444444">stats, and deletes spooled</text>
<text text-anchor="start" x="3928" y="-1150.3" font-family="Arial" font-size="24.00" fill="#444444">media in</text>
<text text-anchor="start" x="3922.5" y="-1130.3" font-family="Arial" font-size="19.00" fill="#444444">[Filesystem]</text>
</g>
<!-- 40 -->
<g id="40" class="node">
<title>40</title>
<polygon fill="#85bbf0" stroke="#1168bd" points="2986,-936.5 2353,-936.5 2353,-623.5 2986,-623.5 2986,-936.5"/>
<text text-anchor="start" x="2531" y="-888.3" font-family="Arial" font-size="34.00" fill="#000000">Blob Lifecycle and</text>
<text text-anchor="start" x="2525" y="-854.3" font-family="Arial" font-size="34.00" fill="#000000">Storage Reconciler</text>
<text text-anchor="start" x="2488" y="-832.3" font-family="Arial" font-size="19.00" fill="#000000">[Component: Python + sqlite3 + filesystem]</text>
<text text-anchor="start" x="2626.5" y="-795.3" font-family="Arial" font-size="24.00" fill="#000000">Persists</text>
<text text-anchor="start" x="2382" y="-771.3" font-family="Arial" font-size="24.00" fill="#000000">committed/tombstoned/missing/deleted/blocked/failed</text>
<text text-anchor="start" x="2559.5" y="-747.3" font-family="Arial" font-size="24.00" fill="#000000">blob state; serializes</text>
<text text-anchor="start" x="2523.5" y="-723.3" font-family="Arial" font-size="24.00" fill="#000000">deletion processors; retries</text>
<text text-anchor="start" x="2537.5" y="-699.3" font-family="Arial" font-size="24.00" fill="#000000">tombstones; and dry&#45;run</text>
<text text-anchor="start" x="2521" y="-675.3" font-family="Arial" font-size="24.00" fill="#000000">detects missing refs, in&#45;root</text>
<text text-anchor="start" x="2527" y="-651.3" font-family="Arial" font-size="24.00" fill="#000000">orphans, and stale stages.</text>
</g>
<!-- 40&#45;&gt;39 -->
<g id="157" class="edge">
<title>40&#45;&gt;39</title>
<path fill="none" stroke="#444444" stroke-dasharray="5,2" d="M2986.15,-708.44C2998.22,-706.75 3010.2,-705.26 3022,-704 3165.18,-688.7 3203.68,-682.05 3346,-704 3354.57,-705.32 3363.25,-706.89 3371.98,-708.67"/>
<polygon fill="#444444" stroke="#444444" points="3371.33,-712.11 3381.84,-710.76 3372.78,-705.26 3371.33,-712.11"/>
<polygon fill="white" stroke="transparent" points="3057.5,-704 3057.5,-790 3310.5,-790 3310.5,-704 3057.5,-704"/>
<text text-anchor="start" x="3062" y="-766.8" font-family="Arial" font-size="24.00" fill="#444444">Resolves, deletes, and</text>
<text text-anchor="start" x="3070" y="-740.8" font-family="Arial" font-size="24.00" fill="#444444">inventories contained</text>
<text text-anchor="start" x="3110.5" y="-714.8" font-family="Arial" font-size="24.00" fill="#444444">bytes through</text>
</g>
<!-- 48 -->
<g id="48" class="node">
<title>48</title>
<path fill="#2f95c8" stroke="#20688c" d="M3785,-1515.22C3785,-1543.44 3696.48,-1566.38 3587.5,-1566.38 3478.52,-1566.38 3390,-1543.44 3390,-1515.22 3390,-1515.22 3390,-1054.78 3390,-1054.78 3390,-1026.56 3478.52,-1003.62 3587.5,-1003.62 3696.48,-1003.62 3785,-1026.56 3785,-1054.78 3785,-1054.78 3785,-1515.22 3785,-1515.22"/>
<path fill="none" stroke="#20688c" d="M3785,-1515.22C3785,-1486.99 3696.48,-1464.06 3587.5,-1464.06 3478.52,-1464.06 3390,-1486.99 3390,-1515.22"/>
<text text-anchor="start" x="3474.5" y="-1441.3" font-family="Arial" font-size="34.00" fill="#ffffff">SQLite + FTS5</text>
<text text-anchor="start" x="3514.5" y="-1407.3" font-family="Arial" font-size="34.00" fill="#ffffff">Database</text>
<text text-anchor="start" x="3461.5" y="-1385.3" font-family="Arial" font-size="19.00" fill="#ffffff">[Container: SQLite with FTS5]</text>
<text text-anchor="start" x="3419.5" y="-1348.3" font-family="Arial" font-size="24.00" fill="#ffffff">Durable complete cleaned&#45;text,</text>
<text text-anchor="start" x="3468.5" y="-1324.3" font-family="Arial" font-size="24.00" fill="#ffffff">relational, and full&#45;text</text>
<text text-anchor="start" x="3470" y="-1300.3" font-family="Arial" font-size="24.00" fill="#ffffff">authority for migration</text>
<text text-anchor="start" x="3435.5" y="-1276.3" font-family="Arial" font-size="24.00" fill="#ffffff">ledger, sources, documents,</text>
<text text-anchor="start" x="3438" y="-1252.3" font-family="Arial" font-size="24.00" fill="#ffffff">visits, capture observations,</text>
<text text-anchor="start" x="3456.5" y="-1228.3" font-family="Arial" font-size="24.00" fill="#ffffff">URL claims, visit events,</text>
<text text-anchor="start" x="3419" y="-1204.3" font-family="Arial" font-size="24.00" fill="#ffffff">snapshots, chunks, chunks_fts,</text>
<text text-anchor="start" x="3426.5" y="-1180.3" font-family="Arial" font-size="24.00" fill="#ffffff">media provenance/tasks, blob</text>
<text text-anchor="start" x="3463" y="-1156.3" font-family="Arial" font-size="24.00" fill="#ffffff">lifecycle records, policy</text>
<text text-anchor="start" x="3462" y="-1132.3" font-family="Arial" font-size="24.00" fill="#ffffff">rules, audit events, and</text>
<text text-anchor="start" x="3495.5" y="-1108.3" font-family="Arial" font-size="24.00" fill="#ffffff">deletion receipts.</text>
</g>
<!-- 40&#45;&gt;48 -->
<g id="156" class="edge">
<title>40&#45;&gt;48</title>
<path fill="none" stroke="#444444" stroke-dasharray="5,2" d="M2986.35,-904.57C3102.78,-955.59 3233.62,-1019.1 3346,-1089 3357.89,-1096.4 3369.85,-1104.31 3381.74,-1112.57"/>
<polygon fill="#444444" stroke="#444444" points="3379.76,-1115.45 3389.95,-1118.33 3383.78,-1109.72 3379.76,-1115.45"/>
<polygon fill="white" stroke="transparent" points="3022,-1089 3022,-1164 3346,-1164 3346,-1089 3022,-1089"/>
<text text-anchor="start" x="3026" y="-1141.3" font-family="Arial" font-size="24.00" fill="#444444">Reads and advances durable</text>
<text text-anchor="start" x="3058" y="-1117.3" font-family="Arial" font-size="24.00" fill="#444444">blob lifecycle records in</text>
<text text-anchor="start" x="3150.5" y="-1097.3" font-family="Arial" font-size="19.00" fill="#444444">[sqlite3]</text>
</g>
<!-- 42&#45;&gt;40 -->
<g id="155" class="edge">
<title>42&#45;&gt;40</title>
<path fill="none" stroke="#444444" stroke-dasharray="5,2" d="M2021.25,-710.33C2033.25,-707.44 2045.23,-704.95 2057,-703 2149.43,-687.71 2250.17,-691.89 2342.72,-704"/>
<polygon fill="#444444" stroke="#444444" points="2342.43,-707.5 2352.81,-705.36 2343.36,-700.56 2342.43,-707.5"/>
<polygon fill="white" stroke="transparent" points="2057,-703 2057,-789 2317,-789 2317,-703 2057,-703"/>
<text text-anchor="start" x="2061" y="-765.8" font-family="Arial" font-size="24.00" fill="#444444">Processes post&#45;commit</text>
<text text-anchor="start" x="2062" y="-739.8" font-family="Arial" font-size="24.00" fill="#444444">contained blob deletion</text>
<text text-anchor="start" x="2145.5" y="-713.8" font-family="Arial" font-size="24.00" fill="#444444">through</text>
</g>
<!-- 42&#45;&gt;48 -->
<g id="154" class="edge">
<title>42&#45;&gt;48</title>
<path fill="none" stroke="#444444" stroke-dasharray="5,2" d="M2021.04,-850.93C2119.1,-888.86 2242,-935.08 2353,-973 2647.28,-1073.53 2720.11,-1103.37 3022,-1178 3139.5,-1207.04 3272.43,-1232.59 3379.77,-1251.44"/>
<polygon fill="#444444" stroke="#444444" points="3379.29,-1254.91 3389.74,-1253.18 3380.5,-1248.01 3379.29,-1254.91"/>
<polygon fill="white" stroke="transparent" points="2539,-1168 2539,-1267 2800,-1267 2800,-1168 2539,-1168"/>
<text text-anchor="start" x="2543.5" y="-1244.3" font-family="Arial" font-size="24.00" fill="#444444">Atomically deletes rows</text>
<text text-anchor="start" x="2605.5" y="-1220.3" font-family="Arial" font-size="24.00" fill="#444444">and records</text>
<text text-anchor="start" x="2548.5" y="-1196.3" font-family="Arial" font-size="24.00" fill="#444444">receipts/tombstones in</text>
<text text-anchor="start" x="2636.5" y="-1176.3" font-family="Arial" font-size="19.00" fill="#444444">[sqlite3]</text>
</g>
</g>
</svg>
