<?xml version="1.0" encoding="UTF-8" standalone="no"?>
<!DOCTYPE svg PUBLIC "-//W3C//DTD SVG 1.1//EN"
 "http://www.w3.org/Graphics/SVG/1.1/DTD/svg11.dtd">
<!-- Generated by graphviz version 2.43.0 (0)
 -->
<!-- Title: %3 Pages: 1 -->
<svg width="1362pt" height="1607pt"
 viewBox="0.00 0.00 1362.00 1607.00" xmlns="http://www.w3.org/2000/svg" xmlns:xlink="http://www.w3.org/1999/xlink">
<g id="graph0" class="graph" transform="scale(1 1) rotate(0) translate(4 1603)">
<title>%3</title>
<polygon fill="white" stroke="transparent" points="-4,4 -4,-1603 1358,-1603 1358,4 -4,4"/>
<text text-anchor="start" x="397.5" y="-11.8" font-family="Arial" font-size="34.00">Browser Memory Daemon &#45; Dynamic</text>
<g id="clust1" class="cluster">
<title>cluster_4</title>
<polygon fill="none" stroke="#444444" points="8,-64 8,-1591 1346,-1591 1346,-64 8,-64"/>
<text text-anchor="start" x="536" y="-92.8" font-family="Arial" font-size="24.00" fill="#444444">Browser Memory Daemon</text>
<text text-anchor="start" x="600" y="-72.8" font-family="Arial" font-size="19.00" fill="#444444">[Software System]</text>
</g>
<!-- 45 -->
<g id="45" class="node">
<title>45</title>
<polygon fill="#438dd5" stroke="#2e6295" points="418,-1137.5 33,-1137.5 33,-762.5 418,-762.5 418,-1137.5"/>
<text text-anchor="start" x="78.5" y="-1089.3" font-family="Arial" font-size="34.00" fill="#ffffff">WSL Media Worker</text>
<text text-anchor="start" x="85.5" y="-1067.3" font-family="Arial" font-size="19.00" fill="#ffffff">[Container: Python 3.11 CLI loop]</text>
<text text-anchor="start" x="78" y="-1030.3" font-family="Arial" font-size="24.00" fill="#ffffff">Long&#45;running systemd user</text>
<text text-anchor="start" x="82.5" y="-1006.3" font-family="Arial" font-size="24.00" fill="#ffffff">worker that first drains one</text>
<text text-anchor="start" x="62" y="-982.3" font-family="Arial" font-size="24.00" fill="#ffffff">bounded spool&#45;recovery batch</text>
<text text-anchor="start" x="66" y="-958.3" font-family="Arial" font-size="24.00" fill="#ffffff">when the guarded final root is</text>
<text text-anchor="start" x="127" y="-934.3" font-family="Arial" font-size="24.00" fill="#ffffff">ready, then leases</text>
<text text-anchor="start" x="79.5" y="-910.3" font-family="Arial" font-size="24.00" fill="#ffffff">daemon&#45;public media fetch</text>
<text text-anchor="start" x="116.5" y="-886.3" font-family="Arial" font-size="24.00" fill="#ffffff">tasks, fetches public</text>
<text text-anchor="start" x="77.5" y="-862.3" font-family="Arial" font-size="24.00" fill="#ffffff">media/HLS without Chrome</text>
<text text-anchor="start" x="82.5" y="-838.3" font-family="Arial" font-size="24.00" fill="#ffffff">cookies, classifies terminal</text>
<text text-anchor="start" x="79.5" y="-814.3" font-family="Arial" font-size="24.00" fill="#ffffff">states, and updates artifact</text>
<text text-anchor="start" x="196.5" y="-790.3" font-family="Arial" font-size="24.00" fill="#ffffff">rows.</text>
</g>
<!-- 49 -->
<g id="49" class="node">
<title>49</title>
<path fill="#2f95c8" stroke="#20688c" d="M1234,-495.22C1234,-513.51 1151.08,-528.38 1049,-528.38 946.92,-528.38 864,-513.51 864,-495.22 864,-495.22 864,-196.78 864,-196.78 864,-178.49 946.92,-163.62 1049,-163.62 1151.08,-163.62 1234,-178.49 1234,-196.78 1234,-196.78 1234,-495.22 1234,-495.22"/>
<path fill="none" stroke="#20688c" d="M1234,-495.22C1234,-476.92 1151.08,-462.06 1049,-462.06 946.92,-462.06 864,-476.92 864,-495.22"/>
<text text-anchor="start" x="936" y="-430.3" font-family="Arial" font-size="34.00" fill="#ffffff">SQLite + FTS5</text>
<text text-anchor="start" x="976" y="-396.3" font-family="Arial" font-size="34.00" fill="#ffffff">Database</text>
<text text-anchor="start" x="923" y="-374.3" font-family="Arial" font-size="19.00" fill="#ffffff">[Container: SQLite with FTS5]</text>
<text text-anchor="start" x="929.5" y="-337.3" font-family="Arial" font-size="24.00" fill="#ffffff">Durable text/metadata</text>
<text text-anchor="start" x="898" y="-313.3" font-family="Arial" font-size="24.00" fill="#ffffff">authority including migration</text>
<text text-anchor="start" x="893" y="-289.3" font-family="Arial" font-size="24.00" fill="#ffffff">ledger, capture observations,</text>
<text text-anchor="start" x="903" y="-265.3" font-family="Arial" font-size="24.00" fill="#ffffff">and immutable observation</text>
<text text-anchor="start" x="951" y="-241.3" font-family="Arial" font-size="24.00" fill="#ffffff">ingest sequences.</text>
</g>
<!-- 45&#45;&gt;49 -->
<g id="75" class="edge">
<title>45&#45;&gt;49</title>
<path fill="none" stroke="#707070" stroke-dasharray="5,2" d="M390.2,-762.44C410.88,-742.19 432.39,-722.58 454,-705 578.46,-603.73 734.17,-510.67 854.94,-444.69"/>
<polygon fill="#707070" stroke="#707070" points="856.83,-447.64 863.94,-439.79 853.48,-441.5 856.83,-447.64"/>
<polygon fill="white" stroke="transparent" points="471.5,-705 471.5,-804 723.5,-804 723.5,-705 471.5,-705"/>
<text text-anchor="start" x="516" y="-781.3" font-family="Arial" font-size="24.00" fill="#707070">3. Commits the</text>
<text text-anchor="start" x="475.5" y="-757.3" font-family="Arial" font-size="24.00" fill="#707070">storage&#45;tier switch and</text>
<text text-anchor="start" x="489.5" y="-733.3" font-family="Arial" font-size="24.00" fill="#707070">spool deletion intent</text>
<text text-anchor="start" x="564" y="-713.3" font-family="Arial" font-size="19.00" fill="#707070">[sqlite3]</text>
</g>
<!-- 51 -->
<g id="51" class="node">
<title>51</title>
<path fill="#2f95c8" stroke="#20688c" d="M1321,-991.22C1321,-1012.82 1199.09,-1030.38 1049,-1030.38 898.91,-1030.38 777,-1012.82 777,-991.22 777,-991.22 777,-638.78 777,-638.78 777,-617.18 898.91,-599.62 1049,-599.62 1199.09,-599.62 1321,-617.18 1321,-638.78 1321,-638.78 1321,-991.22 1321,-991.22"/>
<path fill="none" stroke="#20688c" d="M1321,-991.22C1321,-969.61 1199.09,-952.06 1049,-952.06 898.91,-952.06 777,-969.61 777,-991.22"/>
<text text-anchor="start" x="893.5" y="-923.3" font-family="Arial" font-size="34.00" fill="#ffffff">Guarded Media Blob</text>
<text text-anchor="start" x="999.5" y="-889.3" font-family="Arial" font-size="34.00" fill="#ffffff">Cache</text>
<text text-anchor="start" x="806" y="-867.3" font-family="Arial" font-size="19.00" fill="#ffffff">[Container: WSL&#45;visible local or NAS&#45;mounted filesystem]</text>
<text text-anchor="start" x="939" y="-830.3" font-family="Arial" font-size="24.00" fill="#ffffff">Bounded disposable</text>
<text text-anchor="start" x="883.5" y="-806.3" font-family="Arial" font-size="24.00" fill="#ffffff">image/video/audio bytes under</text>
<text text-anchor="start" x="907.5" y="-782.3" font-family="Arial" font-size="24.00" fill="#ffffff">the configured media root;</text>
<text text-anchor="start" x="935" y="-758.3" font-family="Arial" font-size="24.00" fill="#ffffff">explicit external roots</text>
<text text-anchor="start" x="950" y="-734.3" font-family="Arial" font-size="24.00" fill="#ffffff">require mount and</text>
<text text-anchor="start" x="899.5" y="-710.3" font-family="Arial" font-size="24.00" fill="#ffffff">identity&#45;marker proof before</text>
<text text-anchor="start" x="1008" y="-686.3" font-family="Arial" font-size="24.00" fill="#ffffff">access.</text>
</g>
<!-- 45&#45;&gt;51 -->
<g id="82" class="edge">
<title>45&#45;&gt;51</title>
<path fill="none" stroke="#707070" stroke-dasharray="5,2" d="M418.25,-870.46C430.24,-866.9 442.22,-863.7 454,-861 554.52,-837.98 666.84,-825.92 766.52,-819.76"/>
<polygon fill="#707070" stroke="#707070" points="766.98,-823.24 776.75,-819.15 766.56,-816.25 766.98,-823.24"/>
<polygon fill="white" stroke="transparent" points="454,-861 454,-984 741,-984 741,-861 454,-861"/>
<text text-anchor="start" x="458.5" y="-961.3" font-family="Arial" font-size="24.00" fill="#707070">2. Streams and atomically</text>
<text text-anchor="start" x="458.5" y="-937.3" font-family="Arial" font-size="24.00" fill="#707070">commits destination bytes</text>
<text text-anchor="start" x="473" y="-913.3" font-family="Arial" font-size="24.00" fill="#707070">after size and SHA&#45;256</text>
<text text-anchor="start" x="540" y="-889.3" font-family="Arial" font-size="24.00" fill="#707070">verification</text>
<text text-anchor="start" x="546.5" y="-869.3" font-family="Arial" font-size="19.00" fill="#707070">[Filesystem]</text>
</g>
<!-- 52 -->
<g id="52" class="node">
<title>52</title>
<path fill="#2f95c8" stroke="#20688c" d="M1242,-1523.72C1242,-1546.98 1155.49,-1565.88 1049,-1565.88 942.51,-1565.88 856,-1546.98 856,-1523.72 856,-1523.72 856,-1144.28 856,-1144.28 856,-1121.02 942.51,-1102.12 1049,-1102.12 1155.49,-1102.12 1242,-1121.02 1242,-1144.28 1242,-1144.28 1242,-1523.72 1242,-1523.72"/>
<path fill="none" stroke="#20688c" d="M1242,-1523.72C1242,-1500.45 1155.49,-1481.56 1049,-1481.56 942.51,-1481.56 856,-1500.45 856,-1523.72"/>
<text text-anchor="start" x="885" y="-1454.3" font-family="Arial" font-size="34.00" fill="#ffffff">Bounded Local Media</text>
<text text-anchor="start" x="1005.5" y="-1420.3" font-family="Arial" font-size="34.00" fill="#ffffff">Spool</text>
<text text-anchor="start" x="909" y="-1398.3" font-family="Arial" font-size="19.00" fill="#ffffff">[Container: WSL local filesystem]</text>
<text text-anchor="start" x="897" y="-1361.3" font-family="Arial" font-size="24.00" fill="#ffffff">Opt&#45;in durable outage buffer</text>
<text text-anchor="start" x="900.5" y="-1337.3" font-family="Arial" font-size="24.00" fill="#ffffff">beneath the local WSL data</text>
<text text-anchor="start" x="927.5" y="-1313.3" font-family="Arial" font-size="24.00" fill="#ffffff">root; admission counts</text>
<text text-anchor="start" x="903.5" y="-1289.3" font-family="Arial" font-size="24.00" fill="#ffffff">committed files and distinct</text>
<text text-anchor="start" x="897" y="-1265.3" font-family="Arial" font-size="24.00" fill="#ffffff">in&#45;flight SQLite reservations,</text>
<text text-anchor="start" x="924" y="-1241.3" font-family="Arial" font-size="24.00" fill="#ffffff">and drain verifies bytes</text>
<text text-anchor="start" x="901.5" y="-1217.3" font-family="Arial" font-size="24.00" fill="#ffffff">before tier transition/source</text>
<text text-anchor="start" x="1003" y="-1193.3" font-family="Arial" font-size="24.00" fill="#ffffff">cleanup.</text>
</g>
<!-- 45&#45;&gt;52 -->
<g id="83" class="edge">
<title>45&#45;&gt;52</title>
<path fill="none" stroke="#707070" stroke-dasharray="5,2" d="M418.1,-991.4C539.62,-1019.35 684.27,-1056.25 741,-1085 777.55,-1103.52 813.76,-1126.95 847.79,-1151.99"/>
<polygon fill="#707070" stroke="#707070" points="845.81,-1154.89 855.93,-1158.04 849.99,-1149.27 845.81,-1154.89"/>
<polygon fill="white" stroke="transparent" points="473,-1085 473,-1232 722,-1232 722,-1085 473,-1085"/>
<text text-anchor="start" x="486.5" y="-1209.3" font-family="Arial" font-size="24.00" fill="#707070">1. After guarded&#45;root</text>
<text text-anchor="start" x="477.5" y="-1185.3" font-family="Arial" font-size="24.00" fill="#707070">readiness, selects one</text>
<text text-anchor="start" x="504" y="-1161.3" font-family="Arial" font-size="24.00" fill="#707070">bounded batch of</text>
<text text-anchor="start" x="486" y="-1137.3" font-family="Arial" font-size="24.00" fill="#707070">authoritative spooled</text>
<text text-anchor="start" x="569" y="-1113.3" font-family="Arial" font-size="24.00" fill="#707070">bytes</text>
<text text-anchor="start" x="546.5" y="-1093.3" font-family="Arial" font-size="19.00" fill="#707070">[Filesystem]</text>
</g>
<!-- 45&#45;&gt;52 -->
<g id="83" class="edge">
<title>45&#45;&gt;52</title>
<path fill="none" stroke="#707070" stroke-dasharray="5,2" d="M336.03,-1137.8C368.86,-1179.51 408.46,-1219.24 454,-1246 571.8,-1315.23 724.68,-1336.64 845.84,-1341.04"/>
<polygon fill="#707070" stroke="#707070" points="845.87,-1344.55 855.98,-1341.38 846.1,-1337.55 845.87,-1344.55"/>
<polygon fill="white" stroke="transparent" points="463,-1331 463,-1430 732,-1430 732,-1331 463,-1331"/>
<text text-anchor="start" x="485" y="-1407.3" font-family="Arial" font-size="24.00" fill="#707070">4. Removes the local</text>
<text text-anchor="start" x="467.5" y="-1383.3" font-family="Arial" font-size="24.00" fill="#707070">source only after the tier</text>
<text text-anchor="start" x="516" y="-1359.3" font-family="Arial" font-size="24.00" fill="#707070">switch commits</text>
<text text-anchor="start" x="546.5" y="-1339.3" font-family="Arial" font-size="19.00" fill="#707070">[Filesystem]</text>
</g>
</g>
</svg>
