<?xml version="1.0" encoding="UTF-8" standalone="no"?>
<!DOCTYPE svg PUBLIC "-//W3C//DTD SVG 1.1//EN"
 "http://www.w3.org/Graphics/SVG/1.1/DTD/svg11.dtd">
<!-- Generated by graphviz version 2.43.0 (0)
 -->
<!-- Title: %3 Pages: 1 -->
<svg width="1238pt" height="1572pt"
 viewBox="0.00 0.00 1238.00 1571.50" xmlns="http://www.w3.org/2000/svg" xmlns:xlink="http://www.w3.org/1999/xlink">
<g id="graph0" class="graph" transform="scale(1 1) rotate(0) translate(4 1567.5)">
<title>%3</title>
<polygon fill="white" stroke="transparent" points="-4,4 -4,-1567.5 1234,-1567.5 1234,4 -4,4"/>
<text text-anchor="start" x="292.5" y="-11.8" font-family="Arial" font-size="34.00">Container View: Browser Memory Daemon</text>
<g id="clust1" class="cluster">
<title>cluster_4</title>
<polygon fill="none" stroke="#444444" points="8,-346.5 8,-1555.5 1222,-1555.5 1222,-346.5 8,-346.5"/>
<text text-anchor="start" x="474" y="-375.3" font-family="Arial" font-size="24.00" fill="#444444">Browser Memory Daemon</text>
<text text-anchor="start" x="538" y="-355.3" font-family="Arial" font-size="19.00" fill="#444444">[Software System]</text>
</g>
<!-- 3 -->
<g id="3" class="node">
<title>3</title>
<polygon fill="#999999" stroke="#6b6b6b" points="1179.5,-321 776.5,-321 776.5,-56 1179.5,-56 1179.5,-321"/>
<text text-anchor="start" x="816.5" y="-272.8" font-family="Arial" font-size="34.00" fill="#ffffff">Web Sites and Media</text>
<text text-anchor="start" x="924" y="-238.8" font-family="Arial" font-size="34.00" fill="#ffffff">Origins</text>
<text text-anchor="start" x="901" y="-216.8" font-family="Arial" font-size="19.00" fill="#ffffff">[Software System]</text>
<text text-anchor="start" x="868" y="-179.8" font-family="Arial" font-size="24.00" fill="#ffffff">External web pages,</text>
<text text-anchor="start" x="815.5" y="-155.8" font-family="Arial" font-size="24.00" fill="#ffffff">image/video URLs, and media</text>
<text text-anchor="start" x="805.5" y="-131.8" font-family="Arial" font-size="24.00" fill="#ffffff">CDNs that Chrome loads or that</text>
<text text-anchor="start" x="815.5" y="-107.8" font-family="Arial" font-size="24.00" fill="#ffffff">sidecars fetch as page&#45;related</text>
<text text-anchor="start" x="941.5" y="-83.8" font-family="Arial" font-size="24.00" fill="#ffffff">media.</text>
</g>
<!-- 26 -->
<g id="26" class="node">
<title>26</title>
<polygon fill="#438dd5" stroke="#2e6295" points="387,-863 33,-863 33,-560 387,-560 387,-863"/>
<text text-anchor="start" x="63" y="-814.8" font-family="Arial" font-size="34.00" fill="#ffffff">WSL Media Worker</text>
<text text-anchor="start" x="70" y="-792.8" font-family="Arial" font-size="19.00" fill="#ffffff">[Container: Python 3.11 CLI loop]</text>
<text text-anchor="start" x="62.5" y="-755.8" font-family="Arial" font-size="24.00" fill="#ffffff">Long&#45;running systemd user</text>
<text text-anchor="start" x="111.5" y="-731.8" font-family="Arial" font-size="24.00" fill="#ffffff">worker that leases</text>
<text text-anchor="start" x="64" y="-707.8" font-family="Arial" font-size="24.00" fill="#ffffff">daemon&#45;public media fetch</text>
<text text-anchor="start" x="101" y="-683.8" font-family="Arial" font-size="24.00" fill="#ffffff">tasks, fetches public</text>
<text text-anchor="start" x="62" y="-659.8" font-family="Arial" font-size="24.00" fill="#ffffff">media/HLS without Chrome</text>
<text text-anchor="start" x="67" y="-635.8" font-family="Arial" font-size="24.00" fill="#ffffff">cookies, classifies terminal</text>
<text text-anchor="start" x="64" y="-611.8" font-family="Arial" font-size="24.00" fill="#ffffff">states, and updates artifact</text>
<text text-anchor="start" x="181" y="-587.8" font-family="Arial" font-size="24.00" fill="#ffffff">rows.</text>
</g>
<!-- 26&#45;&gt;3 -->
<g id="49" class="edge">
<title>26&#45;&gt;3</title>
<path fill="none" stroke="#444444" stroke-dasharray="5,2" d="M387.17,-585.76C494.03,-510.15 633.53,-412.59 759,-328.5 761.94,-326.53 764.9,-324.55 767.89,-322.56"/>
<polygon fill="#444444" stroke="#444444" points="769.96,-325.39 776.35,-316.94 766.08,-319.56 769.96,-325.39"/>
<polygon fill="white" stroke="transparent" points="430.5,-553.5 430.5,-628.5 715.5,-628.5 715.5,-553.5 430.5,-553.5"/>
<text text-anchor="start" x="435" y="-605.8" font-family="Arial" font-size="24.00" fill="#444444">Fetches public media and</text>
<text text-anchor="start" x="522" y="-581.8" font-family="Arial" font-size="24.00" fill="#444444">HLS from</text>
<text text-anchor="start" x="481.5" y="-561.8" font-family="Arial" font-size="19.00" fill="#444444">[HTTP(S), data URLs]</text>
</g>
<!-- 29 -->
<g id="29" class="node">
<title>29</title>
<path fill="#2f95c8" stroke="#20688c" d="M1176,-928.22C1176,-954.79 1087.25,-976.38 978,-976.38 868.75,-976.38 780,-954.79 780,-928.22 780,-928.22 780,-494.78 780,-494.78 780,-468.21 868.75,-446.62 978,-446.62 1087.25,-446.62 1176,-468.21 1176,-494.78 1176,-494.78 1176,-928.22 1176,-928.22"/>
<path fill="none" stroke="#20688c" d="M1176,-928.22C1176,-901.64 1087.25,-880.06 978,-880.06 868.75,-880.06 780,-901.64 780,-928.22"/>
<text text-anchor="start" x="865" y="-855.8" font-family="Arial" font-size="34.00" fill="#ffffff">SQLite + FTS5</text>
<text text-anchor="start" x="905" y="-821.8" font-family="Arial" font-size="34.00" fill="#ffffff">Database</text>
<text text-anchor="start" x="852" y="-799.8" font-family="Arial" font-size="19.00" fill="#ffffff">[Container: SQLite with FTS5]</text>
<text text-anchor="start" x="810" y="-762.8" font-family="Arial" font-size="24.00" fill="#ffffff">Durable complete cleaned&#45;text,</text>
<text text-anchor="start" x="859" y="-738.8" font-family="Arial" font-size="24.00" fill="#ffffff">relational, and full&#45;text</text>
<text text-anchor="start" x="860.5" y="-714.8" font-family="Arial" font-size="24.00" fill="#ffffff">authority for migration</text>
<text text-anchor="start" x="826" y="-690.8" font-family="Arial" font-size="24.00" fill="#ffffff">ledger, sources, documents,</text>
<text text-anchor="start" x="828.5" y="-666.8" font-family="Arial" font-size="24.00" fill="#ffffff">visits, capture observations,</text>
<text text-anchor="start" x="847" y="-642.8" font-family="Arial" font-size="24.00" fill="#ffffff">URL claims, visit events,</text>
<text text-anchor="start" x="809.5" y="-618.8" font-family="Arial" font-size="24.00" fill="#ffffff">snapshots, chunks, chunks_fts,</text>
<text text-anchor="start" x="809" y="-594.8" font-family="Arial" font-size="24.00" fill="#ffffff">media provenance/tasks, policy</text>
<text text-anchor="start" x="852.5" y="-570.8" font-family="Arial" font-size="24.00" fill="#ffffff">rules, audit events, and</text>
<text text-anchor="start" x="886" y="-546.8" font-family="Arial" font-size="24.00" fill="#ffffff">deletion receipts.</text>
</g>
<!-- 26&#45;&gt;29 -->
<g id="48" class="edge">
<title>26&#45;&gt;29</title>
<path fill="none" stroke="#444444" stroke-dasharray="5,2" d="M387.22,-711.5C501.19,-711.5 650.06,-711.5 769.71,-711.5"/>
<polygon fill="#444444" stroke="#444444" points="769.73,-715 779.73,-711.5 769.73,-708 769.73,-715"/>
<polygon fill="white" stroke="transparent" points="423,-711.5 423,-786.5 723,-786.5 723,-711.5 423,-711.5"/>
<text text-anchor="start" x="427" y="-763.8" font-family="Arial" font-size="24.00" fill="#444444">Leases and updates media</text>
<text text-anchor="start" x="532" y="-739.8" font-family="Arial" font-size="24.00" fill="#444444">tasks in</text>
<text text-anchor="start" x="539.5" y="-719.8" font-family="Arial" font-size="19.00" fill="#444444">[sqlite3]</text>
</g>
<!-- 31 -->
<g id="31" class="node">
<title>31</title>
<path fill="#2f95c8" stroke="#20688c" d="M1197,-1486.78C1197,-1510.97 1098.84,-1530.63 978,-1530.63 857.16,-1530.63 759,-1510.97 759,-1486.78 759,-1486.78 759,-1092.22 759,-1092.22 759,-1068.03 857.16,-1048.37 978,-1048.37 1098.84,-1048.37 1197,-1068.03 1197,-1092.22 1197,-1092.22 1197,-1486.78 1197,-1486.78"/>
<path fill="none" stroke="#20688c" d="M1197,-1486.78C1197,-1462.59 1098.84,-1442.94 978,-1442.94 857.16,-1442.94 759,-1462.59 759,-1486.78"/>
<text text-anchor="start" x="839" y="-1416.8" font-family="Arial" font-size="34.00" fill="#ffffff">Media Blob Cache</text>
<text text-anchor="start" x="788" y="-1394.8" font-family="Arial" font-size="19.00" fill="#ffffff">[Container: WSL or NAS&#45;mounted filesystem]</text>
<text text-anchor="start" x="844.5" y="-1357.8" font-family="Arial" font-size="24.00" fill="#ffffff">Bounded and disposable</text>
<text text-anchor="start" x="833.5" y="-1333.8" font-family="Arial" font-size="24.00" fill="#ffffff">filesystem cache for stored</text>
<text text-anchor="start" x="812.5" y="-1309.8" font-family="Arial" font-size="24.00" fill="#ffffff">image/video/audio blobs under</text>
<text text-anchor="start" x="834" y="-1285.8" font-family="Arial" font-size="24.00" fill="#ffffff">the configured WSL&#45;visible</text>
<text text-anchor="start" x="902.5" y="-1261.8" font-family="Arial" font-size="24.00" fill="#ffffff">blob root, with</text>
<text text-anchor="start" x="810.5" y="-1237.8" font-family="Arial" font-size="24.00" fill="#ffffff">purge/rehydrate semantics that</text>
<text text-anchor="start" x="821.5" y="-1213.8" font-family="Arial" font-size="24.00" fill="#ffffff">preserve media refs, hashes,</text>
<text text-anchor="start" x="805" y="-1189.8" font-family="Arial" font-size="24.00" fill="#ffffff">status reasons, and provenance</text>
<text text-anchor="start" x="841.5" y="-1165.8" font-family="Arial" font-size="24.00" fill="#ffffff">when bytes are absent or</text>
<text text-anchor="start" x="936.5" y="-1141.8" font-family="Arial" font-size="24.00" fill="#ffffff">purged.</text>
</g>
<!-- 26&#45;&gt;31 -->
<g id="50" class="edge">
<title>26&#45;&gt;31</title>
<path fill="none" stroke="#444444" stroke-dasharray="5,2" d="M387.22,-844.47C495.18,-925.93 634.45,-1031.02 750.54,-1118.62"/>
<polygon fill="#444444" stroke="#444444" points="748.76,-1121.67 758.86,-1124.89 752.98,-1116.08 748.76,-1121.67"/>
<polygon fill="white" stroke="transparent" points="423,-1085.5 423,-1160.5 723,-1160.5 723,-1085.5 423,-1085.5"/>
<text text-anchor="start" x="427" y="-1137.8" font-family="Arial" font-size="24.00" fill="#444444">Writes fetched media blobs</text>
<text text-anchor="start" x="562.5" y="-1113.8" font-family="Arial" font-size="24.00" fill="#444444">to</text>
<text text-anchor="start" x="521.5" y="-1093.8" font-family="Arial" font-size="19.00" fill="#444444">[Filesystem]</text>
</g>
</g>
</svg>
