<?xml version="1.0" encoding="UTF-8" standalone="no"?>
<!DOCTYPE svg PUBLIC "-//W3C//DTD SVG 1.1//EN"
 "http://www.w3.org/Graphics/SVG/1.1/DTD/svg11.dtd">
<!-- Generated by graphviz version 2.43.0 (0)
 -->
<!-- Title: %3 Pages: 1 -->
<svg width="3831pt" height="1536pt"
 viewBox="0.00 0.00 3831.00 1536.38" xmlns="http://www.w3.org/2000/svg" xmlns:xlink="http://www.w3.org/1999/xlink">
<g id="graph0" class="graph" transform="scale(1 1) rotate(0) translate(4 1532.38)">
<title>%3</title>
<polygon fill="white" stroke="transparent" points="-4,4 -4,-1532.38 3827,-1532.38 3827,4 -4,4"/>
<text text-anchor="start" x="1353.5" y="-11.8" font-family="Arial" font-size="34.00">Browser Memory Daemon &#45; WSL Loopback HTTP Daemon &#45; Components</text>
<g id="clust1" class="cluster">
<title>cluster_23</title>
<polygon fill="none" stroke="#444444" points="8,-445.19 8,-1259.19 2942,-1259.19 2942,-445.19 8,-445.19"/>
<text text-anchor="start" x="1309.5" y="-473.99" font-family="Arial" font-size="24.00" fill="#444444">WSL Loopback HTTP Daemon</text>
<text text-anchor="start" x="1273" y="-453.99" font-family="Arial" font-size="19.00" fill="#444444">[Container: Python 3.11, ThreadingHTTPServer]</text>
</g>
<!-- 57 -->
<g id="57" class="node">
<title>57</title>
<path fill="#2f95c8" stroke="#20688c" d="M2896.5,-387.4C2896.5,-405.7 2813.58,-420.56 2711.5,-420.56 2609.42,-420.56 2526.5,-405.7 2526.5,-387.4 2526.5,-387.4 2526.5,-88.97 2526.5,-88.97 2526.5,-70.67 2609.42,-55.81 2711.5,-55.81 2813.58,-55.81 2896.5,-70.67 2896.5,-88.97 2896.5,-88.97 2896.5,-387.4 2896.5,-387.4"/>
<path fill="none" stroke="#20688c" d="M2896.5,-387.4C2896.5,-369.11 2813.58,-354.24 2711.5,-354.24 2609.42,-354.24 2526.5,-369.11 2526.5,-387.4"/>
<text text-anchor="start" x="2598.5" y="-322.49" font-family="Arial" font-size="34.00" fill="#ffffff">SQLite + FTS5</text>
<text text-anchor="start" x="2638.5" y="-288.49" font-family="Arial" font-size="34.00" fill="#ffffff">Database</text>
<text text-anchor="start" x="2585.5" y="-266.49" font-family="Arial" font-size="19.00" fill="#ffffff">[Container: SQLite with FTS5]</text>
<text text-anchor="start" x="2592" y="-229.49" font-family="Arial" font-size="24.00" fill="#ffffff">Durable text/metadata</text>
<text text-anchor="start" x="2560.5" y="-205.49" font-family="Arial" font-size="24.00" fill="#ffffff">authority including migration</text>
<text text-anchor="start" x="2555.5" y="-181.49" font-family="Arial" font-size="24.00" fill="#ffffff">ledger, capture observations,</text>
<text text-anchor="start" x="2565.5" y="-157.49" font-family="Arial" font-size="24.00" fill="#ffffff">and immutable observation</text>
<text text-anchor="start" x="2613.5" y="-133.49" font-family="Arial" font-size="24.00" fill="#ffffff">ingest sequences.</text>
</g>
<!-- 58 -->
<g id="58" class="node">
<title>58</title>
<path fill="#2f95c8" stroke="#20688c" d="M3748.5,-1495.4C3748.5,-1513.7 3659.98,-1528.56 3551,-1528.56 3442.02,-1528.56 3353.5,-1513.7 3353.5,-1495.4 3353.5,-1495.4 3353.5,-1196.97 3353.5,-1196.97 3353.5,-1178.67 3442.02,-1163.81 3551,-1163.81 3659.98,-1163.81 3748.5,-1178.67 3748.5,-1196.97 3748.5,-1196.97 3748.5,-1495.4 3748.5,-1495.4"/>
<path fill="none" stroke="#20688c" d="M3748.5,-1495.4C3748.5,-1477.11 3659.98,-1462.24 3551,-1462.24 3442.02,-1462.24 3353.5,-1477.11 3353.5,-1495.4"/>
<text text-anchor="start" x="3429.5" y="-1430.49" font-family="Arial" font-size="34.00" fill="#ffffff">Local Derivative</text>
<text text-anchor="start" x="3510" y="-1396.49" font-family="Arial" font-size="34.00" fill="#ffffff">Store</text>
<text text-anchor="start" x="3411" y="-1374.49" font-family="Arial" font-size="19.00" fill="#ffffff">[Container: WSL local filesystem]</text>
<text text-anchor="start" x="3397.5" y="-1337.49" font-family="Arial" font-size="24.00" fill="#ffffff">Reconstructible compatibility</text>
<text text-anchor="start" x="3382.5" y="-1313.49" font-family="Arial" font-size="24.00" fill="#ffffff">evidence such as pre&#45;version&#45;9</text>
<text text-anchor="start" x="3421" y="-1289.49" font-family="Arial" font-size="24.00" fill="#ffffff">clean&#45;text sidecars; new</text>
<text text-anchor="start" x="3427.5" y="-1265.49" font-family="Arial" font-size="24.00" fill="#ffffff">captures create no text</text>
<text text-anchor="start" x="3502.5" y="-1241.49" font-family="Arial" font-size="24.00" fill="#ffffff">sidecars.</text>
</g>
<!-- 59 -->
<g id="59" class="node">
<title>59</title>
<path fill="#2f95c8" stroke="#20688c" d="M3823,-1053.4C3823,-1075.01 3701.09,-1092.56 3551,-1092.56 3400.91,-1092.56 3279,-1075.01 3279,-1053.4 3279,-1053.4 3279,-700.97 3279,-700.97 3279,-679.36 3400.91,-661.81 3551,-661.81 3701.09,-661.81 3823,-679.36 3823,-700.97 3823,-700.97 3823,-1053.4 3823,-1053.4"/>
<path fill="none" stroke="#20688c" d="M3823,-1053.4C3823,-1031.8 3701.09,-1014.24 3551,-1014.24 3400.91,-1014.24 3279,-1031.8 3279,-1053.4"/>
<text text-anchor="start" x="3395.5" y="-985.49" font-family="Arial" font-size="34.00" fill="#ffffff">Guarded Media Blob</text>
<text text-anchor="start" x="3501.5" y="-951.49" font-family="Arial" font-size="34.00" fill="#ffffff">Cache</text>
<text text-anchor="start" x="3308" y="-929.49" font-family="Arial" font-size="19.00" fill="#ffffff">[Container: WSL&#45;visible local or NAS&#45;mounted filesystem]</text>
<text text-anchor="start" x="3441" y="-892.49" font-family="Arial" font-size="24.00" fill="#ffffff">Bounded disposable</text>
<text text-anchor="start" x="3385.5" y="-868.49" font-family="Arial" font-size="24.00" fill="#ffffff">image/video/audio bytes under</text>
<text text-anchor="start" x="3409.5" y="-844.49" font-family="Arial" font-size="24.00" fill="#ffffff">the configured media root;</text>
<text text-anchor="start" x="3437" y="-820.49" font-family="Arial" font-size="24.00" fill="#ffffff">explicit external roots</text>
<text text-anchor="start" x="3452" y="-796.49" font-family="Arial" font-size="24.00" fill="#ffffff">require mount and</text>
<text text-anchor="start" x="3401.5" y="-772.49" font-family="Arial" font-size="24.00" fill="#ffffff">identity&#45;marker proof before</text>
<text text-anchor="start" x="3510" y="-748.49" font-family="Arial" font-size="24.00" fill="#ffffff">access.</text>
</g>
<!-- 60 -->
<g id="60" class="node">
<title>60</title>
<path fill="#2f95c8" stroke="#20688c" d="M3744,-547.9C3744,-571.17 3657.49,-590.06 3551,-590.06 3444.51,-590.06 3358,-571.17 3358,-547.9 3358,-547.9 3358,-168.47 3358,-168.47 3358,-145.21 3444.51,-126.31 3551,-126.31 3657.49,-126.31 3744,-145.21 3744,-168.47 3744,-168.47 3744,-547.9 3744,-547.9"/>
<path fill="none" stroke="#20688c" d="M3744,-547.9C3744,-524.64 3657.49,-505.74 3551,-505.74 3444.51,-505.74 3358,-524.64 3358,-547.9"/>
<text text-anchor="start" x="3387" y="-478.49" font-family="Arial" font-size="34.00" fill="#ffffff">Bounded Local Media</text>
<text text-anchor="start" x="3507.5" y="-444.49" font-family="Arial" font-size="34.00" fill="#ffffff">Spool</text>
<text text-anchor="start" x="3411" y="-422.49" font-family="Arial" font-size="19.00" fill="#ffffff">[Container: WSL local filesystem]</text>
<text text-anchor="start" x="3399" y="-385.49" font-family="Arial" font-size="24.00" fill="#ffffff">Opt&#45;in durable outage buffer</text>
<text text-anchor="start" x="3402.5" y="-361.49" font-family="Arial" font-size="24.00" fill="#ffffff">beneath the local WSL data</text>
<text text-anchor="start" x="3429.5" y="-337.49" font-family="Arial" font-size="24.00" fill="#ffffff">root; admission counts</text>
<text text-anchor="start" x="3405.5" y="-313.49" font-family="Arial" font-size="24.00" fill="#ffffff">committed files and distinct</text>
<text text-anchor="start" x="3399" y="-289.49" font-family="Arial" font-size="24.00" fill="#ffffff">in&#45;flight SQLite reservations,</text>
<text text-anchor="start" x="3426" y="-265.49" font-family="Arial" font-size="24.00" fill="#ffffff">and drain verifies bytes</text>
<text text-anchor="start" x="3403.5" y="-241.49" font-family="Arial" font-size="24.00" fill="#ffffff">before tier transition/source</text>
<text text-anchor="start" x="3505" y="-217.49" font-family="Arial" font-size="24.00" fill="#ffffff">cleanup.</text>
</g>
<!-- 24 -->
<g id="24" class="node">
<title>24</title>
<polygon fill="#85bbf0" stroke="#1168bd" points="527,-974.69 33,-974.69 33,-599.69 527,-599.69 527,-974.69"/>
<text text-anchor="start" x="111.5" y="-926.49" font-family="Arial" font-size="34.00" fill="#000000">HTTP Request Router</text>
<text text-anchor="start" x="62" y="-904.49" font-family="Arial" font-size="19.00" fill="#000000">[Component: Python http.server + route descriptors]</text>
<text text-anchor="start" x="92.5" y="-867.49" font-family="Arial" font-size="24.00" fill="#000000">Adapts BaseHTTPRequestHandler</text>
<text text-anchor="start" x="129.5" y="-843.49" font-family="Arial" font-size="24.00" fill="#000000">requests through immutable</text>
<text text-anchor="start" x="125" y="-819.49" font-family="Arial" font-size="24.00" fill="#000000">method/path descriptors with</text>
<text text-anchor="start" x="119.5" y="-795.49" font-family="Arial" font-size="24.00" fill="#000000">static precedence; owns auth,</text>
<text text-anchor="start" x="174.5" y="-771.49" font-family="Arial" font-size="24.00" fill="#000000">parsing, compatible</text>
<text text-anchor="start" x="155.5" y="-747.49" font-family="Arial" font-size="24.00" fill="#000000">status/error responses,</text>
<text text-anchor="start" x="119.5" y="-723.49" font-family="Arial" font-size="24.00" fill="#000000">request IDs, common security</text>
<text text-anchor="start" x="152" y="-699.49" font-family="Arial" font-size="24.00" fill="#000000">headers, redaction&#45;safe</text>
<text text-anchor="start" x="123.5" y="-675.49" font-family="Arial" font-size="24.00" fill="#000000">telemetry, bounded response</text>
<text text-anchor="start" x="113" y="-651.49" font-family="Arial" font-size="24.00" fill="#000000">streaming, disconnect cleanup,</text>
<text text-anchor="start" x="132.5" y="-627.49" font-family="Arial" font-size="24.00" fill="#000000">CORS, and finite UI assets.</text>
</g>
<!-- 25 -->
<g id="25" class="node">
<title>25</title>
<polygon fill="#85bbf0" stroke="#1168bd" points="1292,-1233.69 891,-1233.69 891,-882.69 1292,-882.69 1292,-1233.69"/>
<text text-anchor="start" x="920" y="-1185.49" font-family="Arial" font-size="34.00" fill="#000000">Application Use Cases</text>
<text text-anchor="start" x="1002.5" y="-1163.49" font-family="Arial" font-size="19.00" fill="#000000">[Component: Python]</text>
<text text-anchor="start" x="929.5" y="-1126.49" font-family="Arial" font-size="24.00" fill="#000000">Provides request&#45;independent</text>
<text text-anchor="start" x="966.5" y="-1102.49" font-family="Arial" font-size="24.00" fill="#000000">capture, lifecycle, read,</text>
<text text-anchor="start" x="956.5" y="-1078.49" font-family="Arial" font-size="24.00" fill="#000000">forget, policy, doctor, and</text>
<text text-anchor="start" x="965.5" y="-1054.49" font-family="Arial" font-size="24.00" fill="#000000">media use cases; owns</text>
<text text-anchor="start" x="962.5" y="-1030.49" font-family="Arial" font-size="24.00" fill="#000000">database&#45;ready checks,</text>
<text text-anchor="start" x="935.5" y="-1006.49" font-family="Arial" font-size="24.00" fill="#000000">transaction/audit boundaries,</text>
<text text-anchor="start" x="939" y="-982.49" font-family="Arial" font-size="24.00" fill="#000000">asynchronous media kickoff,</text>
<text text-anchor="start" x="925.5" y="-958.49" font-family="Arial" font-size="24.00" fill="#000000">and upload/download resource</text>
<text text-anchor="start" x="926.5" y="-934.49" font-family="Arial" font-size="24.00" fill="#000000">leases without importing HTTP</text>
<text text-anchor="start" x="947.5" y="-910.49" font-family="Arial" font-size="24.00" fill="#000000">request or response types.</text>
</g>
<!-- 24&#45;&gt;25 -->
<g id="134" class="edge">
<title>24&#45;&gt;25</title>
<path fill="none" stroke="#707070" stroke-dasharray="5,2" d="M527.17,-869.6C640.28,-907.47 773.01,-951.9 881.22,-988.13"/>
<polygon fill="#707070" stroke="#707070" points="880.35,-991.53 890.95,-991.38 882.58,-984.89 880.35,-991.53"/>
<polygon fill="white" stroke="transparent" points="570.5,-977.19 570.5,-1063.19 847.5,-1063.19 847.5,-977.19 570.5,-977.19"/>
<text text-anchor="start" x="627.5" y="-1039.99" font-family="Arial" font-size="24.00" fill="#707070">Invokes explicit</text>
<text text-anchor="start" x="575" y="-1013.99" font-family="Arial" font-size="24.00" fill="#707070">request&#45;independent use</text>
<text text-anchor="start" x="633" y="-987.99" font-family="Arial" font-size="24.00" fill="#707070">cases through</text>
</g>
<!-- 42 -->
<g id="42" class="node">
<title>42</title>
<polygon fill="#85bbf0" stroke="#1168bd" points="1283,-810.69 900,-810.69 900,-545.69 1283,-545.69 1283,-810.69"/>
<text text-anchor="start" x="934.5" y="-762.49" font-family="Arial" font-size="34.00" fill="#000000">HTTP X Observation</text>
<text text-anchor="start" x="979" y="-728.49" font-family="Arial" font-size="34.00" fill="#000000">Export Adapter</text>
<text text-anchor="start" x="963.5" y="-706.49" font-family="Arial" font-size="19.00" fill="#000000">[Component: Python + sqlite3]</text>
<text text-anchor="start" x="940.5" y="-669.49" font-family="Arial" font-size="24.00" fill="#000000">Serves authenticated cursor</text>
<text text-anchor="start" x="953" y="-645.49" font-family="Arial" font-size="24.00" fill="#000000">pages through the shared</text>
<text text-anchor="start" x="929" y="-621.49" font-family="Arial" font-size="24.00" fill="#000000">query&#45;only export core without</text>
<text text-anchor="start" x="974" y="-597.49" font-family="Arial" font-size="24.00" fill="#000000">application readiness,</text>
<text text-anchor="start" x="950" y="-573.49" font-family="Arial" font-size="24.00" fill="#000000">migrations, or audit writes.</text>
</g>
<!-- 24&#45;&gt;42 -->
<g id="144" class="edge">
<title>24&#45;&gt;42</title>
<path fill="none" stroke="#707070" stroke-dasharray="5,2" d="M527.17,-754.04C643.21,-738.42 779.91,-720.01 889.58,-705.24"/>
<polygon fill="#707070" stroke="#707070" points="890.33,-708.67 899.77,-703.87 889.39,-701.74 890.33,-708.67"/>
<polygon fill="white" stroke="transparent" points="563,-748.19 563,-834.19 855,-834.19 855,-748.19 563,-748.19"/>
<text text-anchor="start" x="567" y="-810.99" font-family="Arial" font-size="24.00" fill="#707070">Serves authenticated GET</text>
<text text-anchor="start" x="583.5" y="-784.99" font-family="Arial" font-size="24.00" fill="#707070">/exports/x&#45;observations</text>
<text text-anchor="start" x="667.5" y="-758.99" font-family="Arial" font-size="24.00" fill="#707070">through</text>
</g>
<!-- 41 -->
<g id="41" class="node">
<title>41</title>
<polygon fill="#85bbf0" stroke="#1168bd" points="2134,-1004.69 1627,-1004.69 1627,-749.69 2134,-749.69 2134,-1004.69"/>
<text text-anchor="start" x="1697" y="-956.49" font-family="Arial" font-size="34.00" fill="#000000">Search and Read Model</text>
<text text-anchor="start" x="1725.5" y="-934.49" font-family="Arial" font-size="19.00" fill="#000000">[Component: Python + SQLite FTS5]</text>
<text text-anchor="start" x="1709.5" y="-897.49" font-family="Arial" font-size="24.00" fill="#000000">Provides exact FTS search plus</text>
<text text-anchor="start" x="1750.5" y="-873.49" font-family="Arial" font-size="24.00" fill="#000000">SQLite&#45;authoritative text</text>
<text text-anchor="start" x="1738" y="-849.49" font-family="Arial" font-size="24.00" fill="#000000">detail and observation&#45;first</text>
<text text-anchor="start" x="1656" y="-825.49" font-family="Arial" font-size="24.00" fill="#000000">recent/timeline/document/snapshot/media</text>
<text text-anchor="start" x="1747" y="-801.49" font-family="Arial" font-size="24.00" fill="#000000">views with explicit legacy</text>
<text text-anchor="start" x="1830" y="-777.49" font-family="Arial" font-size="24.00" fill="#000000">fallbacks.</text>
</g>
<!-- 25&#45;&gt;41 -->
<g id="143" class="edge">
<title>25&#45;&gt;41</title>
<path fill="none" stroke="#707070" stroke-dasharray="5,2" d="M1292.11,-1012.28C1390.7,-989.61 1510.93,-961.95 1616.88,-937.59"/>
<polygon fill="#707070" stroke="#707070" points="1617.8,-940.97 1626.76,-935.31 1616.23,-934.15 1617.8,-940.97"/>
<polygon fill="white" stroke="transparent" points="1328,-999.19 1328,-1059.19 1591,-1059.19 1591,-999.19 1328,-999.19"/>
<text text-anchor="start" x="1332.5" y="-1035.99" font-family="Arial" font-size="24.00" fill="#707070">Executes read requests</text>
<text text-anchor="start" x="1418.5" y="-1009.99" font-family="Arial" font-size="24.00" fill="#707070">through</text>
</g>
<!-- 39 -->
<g id="39" class="node">
<title>39</title>
<polygon fill="#85bbf0" stroke="#1168bd" points="2917,-1028.69 2506,-1028.69 2506,-725.69 2917,-725.69 2917,-1028.69"/>
<text text-anchor="start" x="2555" y="-980.49" font-family="Arial" font-size="34.00" fill="#000000">Contained BlobStore</text>
<text text-anchor="start" x="2535" y="-958.49" font-family="Arial" font-size="19.00" fill="#000000">[Component: Python filesystem boundary]</text>
<text text-anchor="start" x="2559" y="-921.49" font-family="Arial" font-size="24.00" fill="#000000">Prefers root&#45;relative locators</text>
<text text-anchor="start" x="2595.5" y="-897.49" font-family="Arial" font-size="24.00" fill="#000000">with contained legacy</text>
<text text-anchor="start" x="2580.5" y="-873.49" font-family="Arial" font-size="24.00" fill="#000000">fallback; streams unique</text>
<text text-anchor="start" x="2596.5" y="-849.49" font-family="Arial" font-size="24.00" fill="#000000">stages with size/hash</text>
<text text-anchor="start" x="2592.5" y="-825.49" font-family="Arial" font-size="24.00" fill="#000000">accounting; atomically</text>
<text text-anchor="start" x="2564.5" y="-801.49" font-family="Arial" font-size="24.00" fill="#000000">commits; and contains blob</text>
<text text-anchor="start" x="2597" y="-777.49" font-family="Arial" font-size="24.00" fill="#000000">read, stat, and delete</text>
<text text-anchor="start" x="2651" y="-753.49" font-family="Arial" font-size="24.00" fill="#000000">operations.</text>
</g>
<!-- 39&#45;&gt;58 -->
<g id="178" class="edge">
<title>39&#45;&gt;58</title>
<path fill="none" stroke="#707070" stroke-dasharray="5,2" d="M2917.11,-991.77C3046.93,-1064.47 3214.32,-1158.21 3344.34,-1231.02"/>
<polygon fill="#707070" stroke="#707070" points="3342.81,-1234.17 3353.24,-1236 3346.23,-1228.06 3342.81,-1234.17"/>
<polygon fill="white" stroke="transparent" points="2962,-1167.19 2962,-1266.19 3234,-1266.19 3234,-1167.19 2962,-1167.19"/>
<text text-anchor="start" x="2966" y="-1243.49" font-family="Arial" font-size="24.00" fill="#707070">Reads, stats, reconciles,</text>
<text text-anchor="start" x="2974" y="-1219.49" font-family="Arial" font-size="24.00" fill="#707070">and deletes legacy text</text>
<text text-anchor="start" x="3040" y="-1195.49" font-family="Arial" font-size="24.00" fill="#707070">sidecars in</text>
<text text-anchor="start" x="3046.5" y="-1175.49" font-family="Arial" font-size="19.00" fill="#707070">[Filesystem]</text>
</g>
<!-- 39&#45;&gt;59 -->
<g id="179" class="edge">
<title>39&#45;&gt;59</title>
<path fill="none" stroke="#707070" stroke-dasharray="5,2" d="M2917.11,-877.19C3022.86,-877.19 3153.54,-877.19 3268.64,-877.19"/>
<polygon fill="#707070" stroke="#707070" points="3268.67,-880.69 3278.67,-877.19 3268.67,-873.69 3268.67,-880.69"/>
<polygon fill="white" stroke="transparent" points="2962.5,-877.19 2962.5,-976.19 3233.5,-976.19 3233.5,-877.19 2962.5,-877.19"/>
<text text-anchor="start" x="2968.5" y="-953.49" font-family="Arial" font-size="24.00" fill="#707070">Stages, commits, reads,</text>
<text text-anchor="start" x="2967" y="-929.49" font-family="Arial" font-size="24.00" fill="#707070">stats, and deletes media</text>
<text text-anchor="start" x="3056.5" y="-905.49" font-family="Arial" font-size="24.00" fill="#707070">blobs in</text>
<text text-anchor="start" x="3047" y="-885.49" font-family="Arial" font-size="19.00" fill="#707070">[Filesystem]</text>
</g>
<!-- 39&#45;&gt;60 -->
<g id="180" class="edge">
<title>39&#45;&gt;60</title>
<path fill="none" stroke="#707070" stroke-dasharray="5,2" d="M2917.11,-750.39C3048.6,-668.91 3218.63,-563.54 3349.34,-482.54"/>
<polygon fill="#707070" stroke="#707070" points="3351.23,-485.48 3357.89,-477.24 3347.55,-479.53 3351.23,-485.48"/>
<polygon fill="white" stroke="transparent" points="2953,-723.19 2953,-822.19 3243,-822.19 3243,-723.19 2953,-723.19"/>
<text text-anchor="start" x="2968" y="-799.49" font-family="Arial" font-size="24.00" fill="#707070">Stages, commits, reads,</text>
<text text-anchor="start" x="2957" y="-775.49" font-family="Arial" font-size="24.00" fill="#707070">stats, and deletes spooled</text>
<text text-anchor="start" x="3052" y="-751.49" font-family="Arial" font-size="24.00" fill="#707070">media in</text>
<text text-anchor="start" x="3046.5" y="-731.49" font-family="Arial" font-size="19.00" fill="#707070">[Filesystem]</text>
</g>
<!-- 41&#45;&gt;57 -->
<g id="171" class="edge">
<title>41&#45;&gt;57</title>
<path fill="none" stroke="#707070" stroke-dasharray="5,2" d="M2047.27,-749.41C2183.14,-644.68 2375.61,-496.33 2518.23,-386.39"/>
<polygon fill="#707070" stroke="#707070" points="2520.48,-389.07 2526.26,-380.2 2516.21,-383.53 2520.48,-389.07"/>
<polygon fill="white" stroke="transparent" points="2177,-652.19 2177,-727.19 2463,-727.19 2463,-652.19 2177,-652.19"/>
<text text-anchor="start" x="2181" y="-704.49" font-family="Arial" font-size="24.00" fill="#707070">Reads metadata and FTS</text>
<text text-anchor="start" x="2295.5" y="-680.49" font-family="Arial" font-size="24.00" fill="#707070">from</text>
<text text-anchor="start" x="2259.5" y="-660.49" font-family="Arial" font-size="19.00" fill="#707070">[SQLite FTS5]</text>
</g>
<!-- 41&#45;&gt;39 -->
<g id="173" class="edge">
<title>41&#45;&gt;39</title>
<path fill="none" stroke="#707070" stroke-dasharray="5,2" d="M2134.17,-877.19C2249.63,-877.19 2384.96,-877.19 2495.46,-877.19"/>
<polygon fill="#707070" stroke="#707070" points="2495.74,-880.69 2505.74,-877.19 2495.74,-873.69 2495.74,-880.69"/>
<polygon fill="white" stroke="transparent" points="2170,-877.19 2170,-963.19 2470,-963.19 2470,-877.19 2170,-877.19"/>
<text text-anchor="start" x="2198" y="-939.99" font-family="Arial" font-size="24.00" fill="#707070">Reads only legacy text</text>
<text text-anchor="start" x="2174" y="-913.99" font-family="Arial" font-size="24.00" fill="#707070">sidecars and checks media</text>
<text text-anchor="start" x="2253.5" y="-887.99" font-family="Arial" font-size="24.00" fill="#707070">files through</text>
</g>
<!-- 42&#45;&gt;57 -->
<g id="172" class="edge">
<title>42&#45;&gt;57</title>
<path fill="none" stroke="#707070" stroke-dasharray="5,2" d="M1283.26,-626.31C1593.42,-541.97 2203.75,-375.99 2516.18,-291.03"/>
<polygon fill="#707070" stroke="#707070" points="2517.52,-294.29 2526.25,-288.29 2515.69,-287.54 2517.52,-294.29"/>
<polygon fill="white" stroke="transparent" points="1725.5,-530.19 1725.5,-629.19 2035.5,-629.19 2035.5,-530.19 1725.5,-530.19"/>
<text text-anchor="start" x="1793.5" y="-606.49" font-family="Arial" font-size="24.00" fill="#707070">Reads validated</text>
<text text-anchor="start" x="1729.5" y="-582.49" font-family="Arial" font-size="24.00" fill="#707070">observation/evidence pages</text>
<text text-anchor="start" x="1763" y="-558.49" font-family="Arial" font-size="24.00" fill="#707070">without writes or audit</text>
<text text-anchor="start" x="1748" y="-538.49" font-family="Arial" font-size="19.00" fill="#707070">[SQLite mode=ro + query_only]</text>
</g>
</g>
</svg>
