<?xml version="1.0" encoding="UTF-8" standalone="no"?>
<!DOCTYPE svg PUBLIC "-//W3C//DTD SVG 1.1//EN"
 "http://www.w3.org/Graphics/SVG/1.1/DTD/svg11.dtd">
<!-- Generated by graphviz version 2.43.0 (0)
 -->
<!-- Title: %3 Pages: 1 -->
<svg width="3128pt" height="1607pt"
 viewBox="0.00 0.00 3128.00 1607.00" xmlns="http://www.w3.org/2000/svg" xmlns:xlink="http://www.w3.org/1999/xlink">
<g id="graph0" class="graph" transform="scale(1 1) rotate(0) translate(4 1603)">
<title>%3</title>
<polygon fill="white" stroke="transparent" points="-4,4 -4,-1603 3124,-1603 3124,4 -4,4"/>
<text text-anchor="start" x="975" y="-11.8" font-family="Arial" font-size="34.00">Component View: Browser Memory Daemon &#45; WSL Loopback HTTP Daemon</text>
<g id="clust1" class="cluster">
<title>cluster_4</title>
<polygon fill="none" stroke="#444444" points="8,-64 8,-1591 3112,-1591 3112,-64 8,-64"/>
<text text-anchor="start" x="1419" y="-92.8" font-family="Arial" font-size="24.00" fill="#444444">Browser Memory Daemon</text>
<text text-anchor="start" x="1483" y="-72.8" font-family="Arial" font-size="19.00" fill="#444444">[Software System]</text>
</g>
<g id="clust2" class="cluster">
<title>cluster_22</title>
<polygon fill="none" stroke="#444444" points="33,-455 33,-979 2206,-979 2206,-455 33,-455"/>
<text text-anchor="start" x="954" y="-483.8" font-family="Arial" font-size="24.00" fill="#444444">WSL Loopback HTTP Daemon</text>
<text text-anchor="start" x="917.5" y="-463.8" font-family="Arial" font-size="19.00" fill="#444444">[Container: Python 3.11, ThreadingHTTPServer]</text>
</g>
<!-- 23 -->
<g id="23" class="node">
<title>23</title>
<polygon fill="#85bbf0" stroke="#1168bd" points="552,-954.5 58,-954.5 58,-555.5 552,-555.5 552,-954.5"/>
<text text-anchor="start" x="136.5" y="-906.3" font-family="Arial" font-size="34.00" fill="#000000">HTTP Request Router</text>
<text text-anchor="start" x="87" y="-884.3" font-family="Arial" font-size="19.00" fill="#000000">[Component: Python http.server + route descriptors]</text>
<text text-anchor="start" x="129" y="-847.3" font-family="Arial" font-size="24.00" fill="#000000">Matches immutable method/path</text>
<text text-anchor="start" x="189" y="-823.3" font-family="Arial" font-size="24.00" fill="#000000">descriptors with static</text>
<text text-anchor="start" x="172" y="-799.3" font-family="Arial" font-size="24.00" fill="#000000">precedence, maps typed</text>
<text text-anchor="start" x="166" y="-775.3" font-family="Arial" font-size="24.00" fill="#000000">compatible errors, applies</text>
<text text-anchor="start" x="125.5" y="-751.3" font-family="Arial" font-size="24.00" fill="#000000">opaque request IDs and common</text>
<text text-anchor="start" x="180" y="-727.3" font-family="Arial" font-size="24.00" fill="#000000">security headers, emits</text>
<text text-anchor="start" x="228" y="-703.3" font-family="Arial" font-size="24.00" fill="#000000">redaction&#45;safe</text>
<text text-anchor="start" x="199.5" y="-679.3" font-family="Arial" font-size="24.00" fill="#000000">route/status/latency</text>
<text text-anchor="start" x="156" y="-655.3" font-family="Arial" font-size="24.00" fill="#000000">telemetry, serves UI assets,</text>
<text text-anchor="start" x="175" y="-631.3" font-family="Arial" font-size="24.00" fill="#000000">enforces bearer auth for</text>
<text text-anchor="start" x="128" y="-607.3" font-family="Arial" font-size="24.00" fill="#000000">memory/admin APIs, and applies</text>
<text text-anchor="start" x="166" y="-583.3" font-family="Arial" font-size="24.00" fill="#000000">CORS for allowed origins.</text>
</g>
<!-- 40 -->
<g id="40" class="node">
<title>40</title>
<polygon fill="#85bbf0" stroke="#1168bd" points="1398,-907.5 891,-907.5 891,-652.5 1398,-652.5 1398,-907.5"/>
<text text-anchor="start" x="961" y="-859.3" font-family="Arial" font-size="34.00" fill="#000000">Search and Read Model</text>
<text text-anchor="start" x="989.5" y="-837.3" font-family="Arial" font-size="19.00" fill="#000000">[Component: Python + SQLite FTS5]</text>
<text text-anchor="start" x="973.5" y="-800.3" font-family="Arial" font-size="24.00" fill="#000000">Provides exact FTS search plus</text>
<text text-anchor="start" x="1014.5" y="-776.3" font-family="Arial" font-size="24.00" fill="#000000">SQLite&#45;authoritative text</text>
<text text-anchor="start" x="1002" y="-752.3" font-family="Arial" font-size="24.00" fill="#000000">detail and observation&#45;first</text>
<text text-anchor="start" x="920" y="-728.3" font-family="Arial" font-size="24.00" fill="#000000">recent/timeline/document/snapshot/media</text>
<text text-anchor="start" x="1011" y="-704.3" font-family="Arial" font-size="24.00" fill="#000000">views with explicit legacy</text>
<text text-anchor="start" x="1094" y="-680.3" font-family="Arial" font-size="24.00" fill="#000000">fallbacks.</text>
</g>
<!-- 23&#45;&gt;40 -->
<g id="120" class="edge">
<title>23&#45;&gt;40</title>
<path fill="none" stroke="#444444" stroke-dasharray="5,2" d="M552.18,-762.35C655.5,-765.43 775.81,-769.02 880.83,-772.16"/>
<polygon fill="#444444" stroke="#444444" points="880.84,-775.66 890.94,-772.46 881.05,-768.66 880.84,-775.66"/>
<polygon fill="white" stroke="transparent" points="588,-771 588,-805 855,-805 855,-771 588,-771"/>
<text text-anchor="start" x="592.5" y="-781.8" font-family="Arial" font-size="24.00" fill="#444444">Routes read requests to</text>
</g>
<!-- 38 -->
<g id="38" class="node">
<title>38</title>
<polygon fill="#85bbf0" stroke="#1168bd" points="2181,-931.5 1770,-931.5 1770,-628.5 2181,-628.5 2181,-931.5"/>
<text text-anchor="start" x="1819" y="-883.3" font-family="Arial" font-size="34.00" fill="#000000">Contained BlobStore</text>
<text text-anchor="start" x="1799" y="-861.3" font-family="Arial" font-size="19.00" fill="#000000">[Component: Python filesystem boundary]</text>
<text text-anchor="start" x="1823" y="-824.3" font-family="Arial" font-size="24.00" fill="#000000">Prefers root&#45;relative locators</text>
<text text-anchor="start" x="1859.5" y="-800.3" font-family="Arial" font-size="24.00" fill="#000000">with contained legacy</text>
<text text-anchor="start" x="1844.5" y="-776.3" font-family="Arial" font-size="24.00" fill="#000000">fallback; streams unique</text>
<text text-anchor="start" x="1860.5" y="-752.3" font-family="Arial" font-size="24.00" fill="#000000">stages with size/hash</text>
<text text-anchor="start" x="1856.5" y="-728.3" font-family="Arial" font-size="24.00" fill="#000000">accounting; atomically</text>
<text text-anchor="start" x="1828.5" y="-704.3" font-family="Arial" font-size="24.00" fill="#000000">commits; and contains blob</text>
<text text-anchor="start" x="1861" y="-680.3" font-family="Arial" font-size="24.00" fill="#000000">read, stat, and delete</text>
<text text-anchor="start" x="1915" y="-656.3" font-family="Arial" font-size="24.00" fill="#000000">operations.</text>
</g>
<!-- 48 -->
<g id="48" class="node">
<title>48</title>
<path fill="#2f95c8" stroke="#20688c" d="M3012.5,-495.22C3012.5,-513.51 2923.98,-528.38 2815,-528.38 2706.02,-528.38 2617.5,-513.51 2617.5,-495.22 2617.5,-495.22 2617.5,-196.78 2617.5,-196.78 2617.5,-178.49 2706.02,-163.62 2815,-163.62 2923.98,-163.62 3012.5,-178.49 3012.5,-196.78 3012.5,-196.78 3012.5,-495.22 3012.5,-495.22"/>
<path fill="none" stroke="#20688c" d="M3012.5,-495.22C3012.5,-476.92 2923.98,-462.06 2815,-462.06 2706.02,-462.06 2617.5,-476.92 2617.5,-495.22"/>
<text text-anchor="start" x="2693.5" y="-430.3" font-family="Arial" font-size="34.00" fill="#ffffff">Local Derivative</text>
<text text-anchor="start" x="2774" y="-396.3" font-family="Arial" font-size="34.00" fill="#ffffff">Store</text>
<text text-anchor="start" x="2675" y="-374.3" font-family="Arial" font-size="19.00" fill="#ffffff">[Container: WSL local filesystem]</text>
<text text-anchor="start" x="2661.5" y="-337.3" font-family="Arial" font-size="24.00" fill="#ffffff">Reconstructible compatibility</text>
<text text-anchor="start" x="2646.5" y="-313.3" font-family="Arial" font-size="24.00" fill="#ffffff">evidence such as pre&#45;version&#45;9</text>
<text text-anchor="start" x="2685" y="-289.3" font-family="Arial" font-size="24.00" fill="#ffffff">clean&#45;text sidecars; new</text>
<text text-anchor="start" x="2691.5" y="-265.3" font-family="Arial" font-size="24.00" fill="#ffffff">captures create no text</text>
<text text-anchor="start" x="2766.5" y="-241.3" font-family="Arial" font-size="24.00" fill="#ffffff">sidecars.</text>
</g>
<!-- 38&#45;&gt;48 -->
<g id="155" class="edge">
<title>38&#45;&gt;48</title>
<path fill="none" stroke="#444444" stroke-dasharray="5,2" d="M2181.11,-673.97C2310.93,-606.7 2478.32,-519.95 2608.34,-452.57"/>
<polygon fill="#444444" stroke="#444444" points="2609.97,-455.67 2617.24,-447.96 2606.75,-449.45 2609.97,-455.67"/>
<polygon fill="white" stroke="transparent" points="2226,-651 2226,-750 2498,-750 2498,-651 2226,-651"/>
<text text-anchor="start" x="2230" y="-727.3" font-family="Arial" font-size="24.00" fill="#444444">Reads, stats, reconciles,</text>
<text text-anchor="start" x="2238" y="-703.3" font-family="Arial" font-size="24.00" fill="#444444">and deletes legacy text</text>
<text text-anchor="start" x="2304" y="-679.3" font-family="Arial" font-size="24.00" fill="#444444">sidecars in</text>
<text text-anchor="start" x="2310.5" y="-659.3" font-family="Arial" font-size="19.00" fill="#444444">[Filesystem]</text>
</g>
<!-- 49 -->
<g id="49" class="node">
<title>49</title>
<path fill="#2f95c8" stroke="#20688c" d="M3087,-991.22C3087,-1012.82 2965.09,-1030.38 2815,-1030.38 2664.91,-1030.38 2543,-1012.82 2543,-991.22 2543,-991.22 2543,-638.78 2543,-638.78 2543,-617.18 2664.91,-599.62 2815,-599.62 2965.09,-599.62 3087,-617.18 3087,-638.78 3087,-638.78 3087,-991.22 3087,-991.22"/>
<path fill="none" stroke="#20688c" d="M3087,-991.22C3087,-969.61 2965.09,-952.06 2815,-952.06 2664.91,-952.06 2543,-969.61 2543,-991.22"/>
<text text-anchor="start" x="2659.5" y="-923.3" font-family="Arial" font-size="34.00" fill="#ffffff">Guarded Media Blob</text>
<text text-anchor="start" x="2765.5" y="-889.3" font-family="Arial" font-size="34.00" fill="#ffffff">Cache</text>
<text text-anchor="start" x="2572" y="-867.3" font-family="Arial" font-size="19.00" fill="#ffffff">[Container: WSL&#45;visible local or NAS&#45;mounted filesystem]</text>
<text text-anchor="start" x="2705" y="-830.3" font-family="Arial" font-size="24.00" fill="#ffffff">Bounded disposable</text>
<text text-anchor="start" x="2649.5" y="-806.3" font-family="Arial" font-size="24.00" fill="#ffffff">image/video/audio bytes under</text>
<text text-anchor="start" x="2673.5" y="-782.3" font-family="Arial" font-size="24.00" fill="#ffffff">the configured media root;</text>
<text text-anchor="start" x="2701" y="-758.3" font-family="Arial" font-size="24.00" fill="#ffffff">explicit external roots</text>
<text text-anchor="start" x="2716" y="-734.3" font-family="Arial" font-size="24.00" fill="#ffffff">require mount and</text>
<text text-anchor="start" x="2665.5" y="-710.3" font-family="Arial" font-size="24.00" fill="#ffffff">identity&#45;marker proof before</text>
<text text-anchor="start" x="2774" y="-686.3" font-family="Arial" font-size="24.00" fill="#ffffff">access.</text>
</g>
<!-- 38&#45;&gt;49 -->
<g id="156" class="edge">
<title>38&#45;&gt;49</title>
<path fill="none" stroke="#444444" stroke-dasharray="5,2" d="M2181.11,-788.55C2286.86,-792.97 2417.54,-798.43 2532.64,-803.24"/>
<polygon fill="#444444" stroke="#444444" points="2532.53,-806.74 2542.67,-803.66 2532.82,-799.75 2532.53,-806.74"/>
<polygon fill="white" stroke="transparent" points="2226.5,-801 2226.5,-900 2497.5,-900 2497.5,-801 2226.5,-801"/>
<text text-anchor="start" x="2232.5" y="-877.3" font-family="Arial" font-size="24.00" fill="#444444">Stages, commits, reads,</text>
<text text-anchor="start" x="2231" y="-853.3" font-family="Arial" font-size="24.00" fill="#444444">stats, and deletes media</text>
<text text-anchor="start" x="2320.5" y="-829.3" font-family="Arial" font-size="24.00" fill="#444444">blobs in</text>
<text text-anchor="start" x="2311" y="-809.3" font-family="Arial" font-size="19.00" fill="#444444">[Filesystem]</text>
</g>
<!-- 50 -->
<g id="50" class="node">
<title>50</title>
<path fill="#2f95c8" stroke="#20688c" d="M3008,-1523.72C3008,-1546.98 2921.49,-1565.88 2815,-1565.88 2708.51,-1565.88 2622,-1546.98 2622,-1523.72 2622,-1523.72 2622,-1144.28 2622,-1144.28 2622,-1121.02 2708.51,-1102.12 2815,-1102.12 2921.49,-1102.12 3008,-1121.02 3008,-1144.28 3008,-1144.28 3008,-1523.72 3008,-1523.72"/>
<path fill="none" stroke="#20688c" d="M3008,-1523.72C3008,-1500.45 2921.49,-1481.56 2815,-1481.56 2708.51,-1481.56 2622,-1500.45 2622,-1523.72"/>
<text text-anchor="start" x="2651" y="-1454.3" font-family="Arial" font-size="34.00" fill="#ffffff">Bounded Local Media</text>
<text text-anchor="start" x="2771.5" y="-1420.3" font-family="Arial" font-size="34.00" fill="#ffffff">Spool</text>
<text text-anchor="start" x="2675" y="-1398.3" font-family="Arial" font-size="19.00" fill="#ffffff">[Container: WSL local filesystem]</text>
<text text-anchor="start" x="2663" y="-1361.3" font-family="Arial" font-size="24.00" fill="#ffffff">Opt&#45;in durable outage buffer</text>
<text text-anchor="start" x="2666.5" y="-1337.3" font-family="Arial" font-size="24.00" fill="#ffffff">beneath the local WSL data</text>
<text text-anchor="start" x="2693.5" y="-1313.3" font-family="Arial" font-size="24.00" fill="#ffffff">root; admission counts</text>
<text text-anchor="start" x="2669.5" y="-1289.3" font-family="Arial" font-size="24.00" fill="#ffffff">committed files and distinct</text>
<text text-anchor="start" x="2663" y="-1265.3" font-family="Arial" font-size="24.00" fill="#ffffff">in&#45;flight SQLite reservations,</text>
<text text-anchor="start" x="2690" y="-1241.3" font-family="Arial" font-size="24.00" fill="#ffffff">and drain verifies bytes</text>
<text text-anchor="start" x="2667.5" y="-1217.3" font-family="Arial" font-size="24.00" fill="#ffffff">before tier transition/source</text>
<text text-anchor="start" x="2769" y="-1193.3" font-family="Arial" font-size="24.00" fill="#ffffff">cleanup.</text>
</g>
<!-- 38&#45;&gt;50 -->
<g id="157" class="edge">
<title>38&#45;&gt;50</title>
<path fill="none" stroke="#444444" stroke-dasharray="5,2" d="M2181.11,-915.35C2312.6,-1002.33 2482.63,-1114.8 2613.34,-1201.26"/>
<polygon fill="#444444" stroke="#444444" points="2611.62,-1204.32 2621.89,-1206.92 2615.48,-1198.48 2611.62,-1204.32"/>
<polygon fill="white" stroke="transparent" points="2217,-1122 2217,-1221 2507,-1221 2507,-1122 2217,-1122"/>
<text text-anchor="start" x="2232" y="-1198.3" font-family="Arial" font-size="24.00" fill="#444444">Stages, commits, reads,</text>
<text text-anchor="start" x="2221" y="-1174.3" font-family="Arial" font-size="24.00" fill="#444444">stats, and deletes spooled</text>
<text text-anchor="start" x="2316" y="-1150.3" font-family="Arial" font-size="24.00" fill="#444444">media in</text>
<text text-anchor="start" x="2310.5" y="-1130.3" font-family="Arial" font-size="19.00" fill="#444444">[Filesystem]</text>
</g>
<!-- 40&#45;&gt;38 -->
<g id="150" class="edge">
<title>40&#45;&gt;38</title>
<path fill="none" stroke="#444444" stroke-dasharray="5,2" d="M1398.07,-709.53C1410.17,-707.4 1422.19,-705.53 1434,-704 1566.23,-686.88 1602.23,-683.67 1734,-704 1742.57,-705.32 1751.25,-706.89 1759.98,-708.67"/>
<polygon fill="#444444" stroke="#444444" points="1759.33,-712.11 1769.84,-710.76 1760.78,-705.26 1759.33,-712.11"/>
<polygon fill="white" stroke="transparent" points="1434,-704 1434,-790 1734,-790 1734,-704 1434,-704"/>
<text text-anchor="start" x="1462" y="-766.8" font-family="Arial" font-size="24.00" fill="#444444">Reads only legacy text</text>
<text text-anchor="start" x="1438" y="-740.8" font-family="Arial" font-size="24.00" fill="#444444">sidecars and checks media</text>
<text text-anchor="start" x="1517.5" y="-714.8" font-family="Arial" font-size="24.00" fill="#444444">files through</text>
</g>
<!-- 47 -->
<g id="47" class="node">
<title>47</title>
<path fill="#2f95c8" stroke="#20688c" d="M2173,-1515.22C2173,-1543.44 2084.48,-1566.38 1975.5,-1566.38 1866.52,-1566.38 1778,-1543.44 1778,-1515.22 1778,-1515.22 1778,-1054.78 1778,-1054.78 1778,-1026.56 1866.52,-1003.62 1975.5,-1003.62 2084.48,-1003.62 2173,-1026.56 2173,-1054.78 2173,-1054.78 2173,-1515.22 2173,-1515.22"/>
<path fill="none" stroke="#20688c" d="M2173,-1515.22C2173,-1486.99 2084.48,-1464.06 1975.5,-1464.06 1866.52,-1464.06 1778,-1486.99 1778,-1515.22"/>
<text text-anchor="start" x="1862.5" y="-1441.3" font-family="Arial" font-size="34.00" fill="#ffffff">SQLite + FTS5</text>
<text text-anchor="start" x="1902.5" y="-1407.3" font-family="Arial" font-size="34.00" fill="#ffffff">Database</text>
<text text-anchor="start" x="1849.5" y="-1385.3" font-family="Arial" font-size="19.00" fill="#ffffff">[Container: SQLite with FTS5]</text>
<text text-anchor="start" x="1807.5" y="-1348.3" font-family="Arial" font-size="24.00" fill="#ffffff">Durable complete cleaned&#45;text,</text>
<text text-anchor="start" x="1856.5" y="-1324.3" font-family="Arial" font-size="24.00" fill="#ffffff">relational, and full&#45;text</text>
<text text-anchor="start" x="1858" y="-1300.3" font-family="Arial" font-size="24.00" fill="#ffffff">authority for migration</text>
<text text-anchor="start" x="1823.5" y="-1276.3" font-family="Arial" font-size="24.00" fill="#ffffff">ledger, sources, documents,</text>
<text text-anchor="start" x="1826" y="-1252.3" font-family="Arial" font-size="24.00" fill="#ffffff">visits, capture observations,</text>
<text text-anchor="start" x="1844.5" y="-1228.3" font-family="Arial" font-size="24.00" fill="#ffffff">URL claims, visit events,</text>
<text text-anchor="start" x="1807" y="-1204.3" font-family="Arial" font-size="24.00" fill="#ffffff">snapshots, chunks, chunks_fts,</text>
<text text-anchor="start" x="1814.5" y="-1180.3" font-family="Arial" font-size="24.00" fill="#ffffff">media provenance/tasks, blob</text>
<text text-anchor="start" x="1851" y="-1156.3" font-family="Arial" font-size="24.00" fill="#ffffff">lifecycle records, policy</text>
<text text-anchor="start" x="1850" y="-1132.3" font-family="Arial" font-size="24.00" fill="#ffffff">rules, audit events, and</text>
<text text-anchor="start" x="1883.5" y="-1108.3" font-family="Arial" font-size="24.00" fill="#ffffff">deletion receipts.</text>
</g>
<!-- 40&#45;&gt;47 -->
<g id="149" class="edge">
<title>40&#45;&gt;47</title>
<path fill="none" stroke="#444444" stroke-dasharray="5,2" d="M1354.96,-907.6C1481.91,-984.93 1643.17,-1083.16 1769.33,-1160.02"/>
<polygon fill="#444444" stroke="#444444" points="1767.61,-1163.07 1777.97,-1165.28 1771.25,-1157.09 1767.61,-1163.07"/>
<polygon fill="white" stroke="transparent" points="1441,-1135 1441,-1210 1727,-1210 1727,-1135 1441,-1135"/>
<text text-anchor="start" x="1445" y="-1187.3" font-family="Arial" font-size="24.00" fill="#444444">Reads metadata and FTS</text>
<text text-anchor="start" x="1559.5" y="-1163.3" font-family="Arial" font-size="24.00" fill="#444444">from</text>
<text text-anchor="start" x="1523.5" y="-1143.3" font-family="Arial" font-size="19.00" fill="#444444">[SQLite FTS5]</text>
</g>
</g>
</svg>
