<?xml version="1.0" encoding="UTF-8" standalone="no"?>
<!DOCTYPE svg PUBLIC "-//W3C//DTD SVG 1.1//EN"
 "http://www.w3.org/Graphics/SVG/1.1/DTD/svg11.dtd">
<!-- Generated by graphviz version 2.43.0 (0)
 -->
<!-- Title: %3 Pages: 1 -->
<svg width="3984pt" height="1461pt"
 viewBox="0.00 0.00 3984.00 1461.00" xmlns="http://www.w3.org/2000/svg" xmlns:xlink="http://www.w3.org/1999/xlink">
<g id="graph0" class="graph" transform="scale(1 1) rotate(0) translate(4 1457)">
<title>%3</title>
<polygon fill="white" stroke="transparent" points="-4,4 -4,-1457 3980,-1457 3980,4 -4,4"/>
<text text-anchor="start" x="1403" y="-11.8" font-family="Arial" font-size="34.00">Component View: Browser Memory Daemon &#45; WSL Loopback HTTP Daemon</text>
<g id="clust1" class="cluster">
<title>cluster_4</title>
<polygon fill="none" stroke="#444444" points="8,-64 8,-1445 3968,-1445 3968,-64 8,-64"/>
<text text-anchor="start" x="1847" y="-92.8" font-family="Arial" font-size="24.00" fill="#444444">Browser Memory Daemon</text>
<text text-anchor="start" x="1911" y="-72.8" font-family="Arial" font-size="19.00" fill="#444444">[Software System]</text>
</g>
<g id="clust2" class="cluster">
<title>cluster_14</title>
<polygon fill="none" stroke="#444444" points="33,-164 33,-833 3062,-833 3062,-164 33,-164"/>
<text text-anchor="start" x="1382" y="-192.8" font-family="Arial" font-size="24.00" fill="#444444">WSL Loopback HTTP Daemon</text>
<text text-anchor="start" x="1345.5" y="-172.8" font-family="Arial" font-size="19.00" fill="#444444">[Container: Python 3.11, ThreadingHTTPServer]</text>
</g>
<!-- 15 -->
<g id="15" class="node">
<title>15</title>
<polygon fill="#85bbf0" stroke="#1168bd" points="453,-718.5 58,-718.5 58,-487.5 453,-487.5 453,-718.5"/>
<text text-anchor="start" x="87" y="-670.3" font-family="Arial" font-size="34.00" fill="#000000">HTTP Request Router</text>
<text text-anchor="start" x="119" y="-648.3" font-family="Arial" font-size="19.00" fill="#000000">[Component: Python http.server]</text>
<text text-anchor="start" x="90" y="-611.3" font-family="Arial" font-size="24.00" fill="#000000">Routes loopback API requests,</text>
<text text-anchor="start" x="112.5" y="-587.3" font-family="Arial" font-size="24.00" fill="#000000">serves UI assets, enforces</text>
<text text-anchor="start" x="91.5" y="-563.3" font-family="Arial" font-size="24.00" fill="#000000">bearer auth for memory/admin</text>
<text text-anchor="start" x="106" y="-539.3" font-family="Arial" font-size="24.00" fill="#000000">APIs, and applies CORS for</text>
<text text-anchor="start" x="172" y="-515.3" font-family="Arial" font-size="24.00" fill="#000000">allowed origins.</text>
</g>
<!-- 21 -->
<g id="21" class="node">
<title>21</title>
<polygon fill="#85bbf0" stroke="#1168bd" points="1231,-807.5 810,-807.5 810,-398.5 1231,-398.5 1231,-807.5"/>
<text text-anchor="start" x="917" y="-759.3" font-family="Arial" font-size="34.00" fill="#000000">Media Artifact</text>
<text text-anchor="start" x="953.5" y="-725.3" font-family="Arial" font-size="34.00" fill="#000000">Manager</text>
<text text-anchor="start" x="839" y="-703.3" font-family="Arial" font-size="19.00" fill="#000000">[Component: Python + sqlite3 + filesystem]</text>
<text text-anchor="start" x="874.5" y="-666.3" font-family="Arial" font-size="24.00" fill="#000000">Records media references,</text>
<text text-anchor="start" x="897" y="-642.3" font-family="Arial" font-size="24.00" fill="#000000">validates blob uploads,</text>
<text text-anchor="start" x="878.5" y="-618.3" font-family="Arial" font-size="24.00" fill="#000000">enforces MIME/size/cache</text>
<text text-anchor="start" x="900" y="-594.3" font-family="Arial" font-size="24.00" fill="#000000">gates, guards external</text>
<text text-anchor="start" x="868" y="-570.3" font-family="Arial" font-size="24.00" fill="#000000">media&#45;root identity, reserves</text>
<text text-anchor="start" x="862.5" y="-546.3" font-family="Arial" font-size="24.00" fill="#000000">bounded local spool capacity,</text>
<text text-anchor="start" x="897" y="-522.3" font-family="Arial" font-size="24.00" fill="#000000">writes blobs atomically,</text>
<text text-anchor="start" x="877" y="-498.3" font-family="Arial" font-size="24.00" fill="#000000">drains verified spool bytes,</text>
<text text-anchor="start" x="857.5" y="-474.3" font-family="Arial" font-size="24.00" fill="#000000">queues public fetch tasks, and</text>
<text text-anchor="start" x="879" y="-450.3" font-family="Arial" font-size="24.00" fill="#000000">tombstones purge/eviction</text>
<text text-anchor="start" x="936.5" y="-426.3" font-family="Arial" font-size="24.00" fill="#000000">before deletion.</text>
</g>
<!-- 15&#45;&gt;21 -->
<g id="77" class="edge">
<title>15&#45;&gt;21</title>
<path fill="none" stroke="#444444" stroke-dasharray="5,2" d="M453.49,-603C559.46,-603 690.46,-603 799.73,-603"/>
<polygon fill="#444444" stroke="#444444" points="799.9,-606.5 809.9,-603 799.9,-599.5 799.9,-606.5"/>
<polygon fill="white" stroke="transparent" points="489,-603 489,-637 774,-637 774,-603 489,-603"/>
<text text-anchor="start" x="493.5" y="-613.8" font-family="Arial" font-size="24.00" fill="#444444">Routes media requests to</text>
</g>
<!-- 22 -->
<g id="22" class="node">
<title>22</title>
<polygon fill="#85bbf0" stroke="#1168bd" points="3037,-695.5 2626,-695.5 2626,-392.5 3037,-392.5 3037,-695.5"/>
<text text-anchor="start" x="2675" y="-647.3" font-family="Arial" font-size="34.00" fill="#000000">Contained BlobStore</text>
<text text-anchor="start" x="2655" y="-625.3" font-family="Arial" font-size="19.00" fill="#000000">[Component: Python filesystem boundary]</text>
<text text-anchor="start" x="2679" y="-588.3" font-family="Arial" font-size="24.00" fill="#000000">Prefers root&#45;relative locators</text>
<text text-anchor="start" x="2715.5" y="-564.3" font-family="Arial" font-size="24.00" fill="#000000">with contained legacy</text>
<text text-anchor="start" x="2700.5" y="-540.3" font-family="Arial" font-size="24.00" fill="#000000">fallback; streams unique</text>
<text text-anchor="start" x="2716.5" y="-516.3" font-family="Arial" font-size="24.00" fill="#000000">stages with size/hash</text>
<text text-anchor="start" x="2712.5" y="-492.3" font-family="Arial" font-size="24.00" fill="#000000">accounting; atomically</text>
<text text-anchor="start" x="2684.5" y="-468.3" font-family="Arial" font-size="24.00" fill="#000000">commits; and contains blob</text>
<text text-anchor="start" x="2717" y="-444.3" font-family="Arial" font-size="24.00" fill="#000000">read, stat, and delete</text>
<text text-anchor="start" x="2771" y="-420.3" font-family="Arial" font-size="24.00" fill="#000000">operations.</text>
</g>
<!-- 21&#45;&gt;22 -->
<g id="86" class="edge">
<title>21&#45;&gt;22</title>
<path fill="none" stroke="#444444" stroke-dasharray="5,2" d="M1231.12,-494.29C1337.57,-445.53 1470.8,-394.06 1597,-372 2032.67,-295.85 2167.3,-306.88 2590,-437 2598.66,-439.67 2607.42,-442.56 2616.22,-445.63"/>
<polygon fill="#444444" stroke="#444444" points="2615.18,-448.98 2625.77,-449.03 2617.52,-442.38 2615.18,-448.98"/>
<polygon fill="white" stroke="transparent" points="1774.5,-372 1774.5,-458 2052.5,-458 2052.5,-372 1774.5,-372"/>
<text text-anchor="start" x="1783.5" y="-434.8" font-family="Arial" font-size="24.00" fill="#444444">Stages, commits, reads,</text>
<text text-anchor="start" x="1778.5" y="-408.8" font-family="Arial" font-size="24.00" fill="#444444">evicts, and purges media</text>
<text text-anchor="start" x="1872" y="-382.8" font-family="Arial" font-size="24.00" fill="#444444">through</text>
</g>
<!-- 23 -->
<g id="23" class="node">
<title>23</title>
<polygon fill="#85bbf0" stroke="#1168bd" points="2230,-807.5 1597,-807.5 1597,-494.5 2230,-494.5 2230,-807.5"/>
<text text-anchor="start" x="1775" y="-759.3" font-family="Arial" font-size="34.00" fill="#000000">Blob Lifecycle and</text>
<text text-anchor="start" x="1769" y="-725.3" font-family="Arial" font-size="34.00" fill="#000000">Storage Reconciler</text>
<text text-anchor="start" x="1732" y="-703.3" font-family="Arial" font-size="19.00" fill="#000000">[Component: Python + sqlite3 + filesystem]</text>
<text text-anchor="start" x="1870.5" y="-666.3" font-family="Arial" font-size="24.00" fill="#000000">Persists</text>
<text text-anchor="start" x="1626" y="-642.3" font-family="Arial" font-size="24.00" fill="#000000">committed/tombstoned/missing/deleted/blocked/failed</text>
<text text-anchor="start" x="1803.5" y="-618.3" font-family="Arial" font-size="24.00" fill="#000000">blob state; serializes</text>
<text text-anchor="start" x="1767.5" y="-594.3" font-family="Arial" font-size="24.00" fill="#000000">deletion processors; retries</text>
<text text-anchor="start" x="1781.5" y="-570.3" font-family="Arial" font-size="24.00" fill="#000000">tombstones; and dry&#45;run</text>
<text text-anchor="start" x="1765" y="-546.3" font-family="Arial" font-size="24.00" fill="#000000">detects missing refs, in&#45;root</text>
<text text-anchor="start" x="1771" y="-522.3" font-family="Arial" font-size="24.00" fill="#000000">orphans, and stale stages.</text>
</g>
<!-- 21&#45;&gt;23 -->
<g id="87" class="edge">
<title>21&#45;&gt;23</title>
<path fill="none" stroke="#444444" stroke-dasharray="5,2" d="M1231.08,-531.79C1243.15,-529.13 1255.18,-526.83 1267,-525 1396.12,-504.98 1432.26,-502.62 1561,-525 1569.58,-526.49 1578.24,-528.18 1586.93,-530.02"/>
<polygon fill="#444444" stroke="#444444" points="1586.23,-533.46 1596.75,-532.18 1587.73,-526.62 1586.23,-533.46"/>
<polygon fill="white" stroke="transparent" points="1267,-525 1267,-637 1561,-637 1561,-525 1267,-525"/>
<text text-anchor="start" x="1271" y="-613.8" font-family="Arial" font-size="24.00" fill="#444444">Registers committed bytes</text>
<text text-anchor="start" x="1327.5" y="-587.8" font-family="Arial" font-size="24.00" fill="#444444">and tombstones</text>
<text text-anchor="start" x="1272" y="-561.8" font-family="Arial" font-size="24.00" fill="#444444">replacement, drain, purge,</text>
<text text-anchor="start" x="1304.5" y="-535.8" font-family="Arial" font-size="24.00" fill="#444444">and eviction through</text>
</g>
<!-- 31 -->
<g id="31" class="node">
<title>31</title>
<path fill="#2f95c8" stroke="#20688c" d="M3029,-1369.22C3029,-1397.44 2940.48,-1420.38 2831.5,-1420.38 2722.52,-1420.38 2634,-1397.44 2634,-1369.22 2634,-1369.22 2634,-908.78 2634,-908.78 2634,-880.56 2722.52,-857.62 2831.5,-857.62 2940.48,-857.62 3029,-880.56 3029,-908.78 3029,-908.78 3029,-1369.22 3029,-1369.22"/>
<path fill="none" stroke="#20688c" d="M3029,-1369.22C3029,-1340.99 2940.48,-1318.06 2831.5,-1318.06 2722.52,-1318.06 2634,-1340.99 2634,-1369.22"/>
<text text-anchor="start" x="2718.5" y="-1295.3" font-family="Arial" font-size="34.00" fill="#ffffff">SQLite + FTS5</text>
<text text-anchor="start" x="2758.5" y="-1261.3" font-family="Arial" font-size="34.00" fill="#ffffff">Database</text>
<text text-anchor="start" x="2705.5" y="-1239.3" font-family="Arial" font-size="19.00" fill="#ffffff">[Container: SQLite with FTS5]</text>
<text text-anchor="start" x="2663.5" y="-1202.3" font-family="Arial" font-size="24.00" fill="#ffffff">Durable complete cleaned&#45;text,</text>
<text text-anchor="start" x="2712.5" y="-1178.3" font-family="Arial" font-size="24.00" fill="#ffffff">relational, and full&#45;text</text>
<text text-anchor="start" x="2714" y="-1154.3" font-family="Arial" font-size="24.00" fill="#ffffff">authority for migration</text>
<text text-anchor="start" x="2679.5" y="-1130.3" font-family="Arial" font-size="24.00" fill="#ffffff">ledger, sources, documents,</text>
<text text-anchor="start" x="2682" y="-1106.3" font-family="Arial" font-size="24.00" fill="#ffffff">visits, capture observations,</text>
<text text-anchor="start" x="2700.5" y="-1082.3" font-family="Arial" font-size="24.00" fill="#ffffff">URL claims, visit events,</text>
<text text-anchor="start" x="2663" y="-1058.3" font-family="Arial" font-size="24.00" fill="#ffffff">snapshots, chunks, chunks_fts,</text>
<text text-anchor="start" x="2670.5" y="-1034.3" font-family="Arial" font-size="24.00" fill="#ffffff">media provenance/tasks, blob</text>
<text text-anchor="start" x="2707" y="-1010.3" font-family="Arial" font-size="24.00" fill="#ffffff">lifecycle records, policy</text>
<text text-anchor="start" x="2706" y="-986.3" font-family="Arial" font-size="24.00" fill="#ffffff">rules, audit events, and</text>
<text text-anchor="start" x="2739.5" y="-962.3" font-family="Arial" font-size="24.00" fill="#ffffff">deletion receipts.</text>
</g>
<!-- 21&#45;&gt;31 -->
<g id="85" class="edge">
<title>21&#45;&gt;31</title>
<path fill="none" stroke="#444444" stroke-dasharray="5,2" d="M1231.12,-697.41C1339.26,-744.42 1473.98,-800.37 1597,-844 1889.01,-947.56 1964.28,-969.58 2266,-1040 2383.57,-1067.44 2516.5,-1091.11 2623.83,-1108.42"/>
<polygon fill="#444444" stroke="#444444" points="2623.37,-1111.89 2633.8,-1110.02 2624.48,-1104.98 2623.37,-1111.89"/>
<polygon fill="white" stroke="transparent" points="1775.5,-1030 1775.5,-1105 2051.5,-1105 2051.5,-1030 1775.5,-1030"/>
<text text-anchor="start" x="1779.5" y="-1082.3" font-family="Arial" font-size="24.00" fill="#444444">Updates media rows and</text>
<text text-anchor="start" x="1872.5" y="-1058.3" font-family="Arial" font-size="24.00" fill="#444444">tasks in</text>
<text text-anchor="start" x="1880" y="-1038.3" font-family="Arial" font-size="19.00" fill="#444444">[sqlite3]</text>
</g>
<!-- 33 -->
<g id="33" class="node">
<title>33</title>
<path fill="#2f95c8" stroke="#20688c" d="M3943,-609.22C3943,-630.82 3821.09,-648.38 3671,-648.38 3520.91,-648.38 3399,-630.82 3399,-609.22 3399,-609.22 3399,-256.78 3399,-256.78 3399,-235.18 3520.91,-217.62 3671,-217.62 3821.09,-217.62 3943,-235.18 3943,-256.78 3943,-256.78 3943,-609.22 3943,-609.22"/>
<path fill="none" stroke="#20688c" d="M3943,-609.22C3943,-587.61 3821.09,-570.06 3671,-570.06 3520.91,-570.06 3399,-587.61 3399,-609.22"/>
<text text-anchor="start" x="3515.5" y="-541.3" font-family="Arial" font-size="34.00" fill="#ffffff">Guarded Media Blob</text>
<text text-anchor="start" x="3621.5" y="-507.3" font-family="Arial" font-size="34.00" fill="#ffffff">Cache</text>
<text text-anchor="start" x="3428" y="-485.3" font-family="Arial" font-size="19.00" fill="#ffffff">[Container: WSL&#45;visible local or NAS&#45;mounted filesystem]</text>
<text text-anchor="start" x="3561" y="-448.3" font-family="Arial" font-size="24.00" fill="#ffffff">Bounded disposable</text>
<text text-anchor="start" x="3505.5" y="-424.3" font-family="Arial" font-size="24.00" fill="#ffffff">image/video/audio bytes under</text>
<text text-anchor="start" x="3529.5" y="-400.3" font-family="Arial" font-size="24.00" fill="#ffffff">the configured media root;</text>
<text text-anchor="start" x="3557" y="-376.3" font-family="Arial" font-size="24.00" fill="#ffffff">explicit external roots</text>
<text text-anchor="start" x="3572" y="-352.3" font-family="Arial" font-size="24.00" fill="#ffffff">require mount and</text>
<text text-anchor="start" x="3521.5" y="-328.3" font-family="Arial" font-size="24.00" fill="#ffffff">identity&#45;marker proof before</text>
<text text-anchor="start" x="3630" y="-304.3" font-family="Arial" font-size="24.00" fill="#ffffff">access.</text>
</g>
<!-- 22&#45;&gt;33 -->
<g id="95" class="edge">
<title>22&#45;&gt;33</title>
<path fill="none" stroke="#444444" stroke-dasharray="5,2" d="M3037.11,-516.88C3142.86,-502.87 3273.54,-485.55 3388.64,-470.29"/>
<polygon fill="#444444" stroke="#444444" points="3389.21,-473.75 3398.67,-468.96 3388.29,-466.81 3389.21,-473.75"/>
<polygon fill="white" stroke="transparent" points="3082.5,-511 3082.5,-610 3353.5,-610 3353.5,-511 3082.5,-511"/>
<text text-anchor="start" x="3088.5" y="-587.3" font-family="Arial" font-size="24.00" fill="#444444">Stages, commits, reads,</text>
<text text-anchor="start" x="3087" y="-563.3" font-family="Arial" font-size="24.00" fill="#444444">stats, and deletes media</text>
<text text-anchor="start" x="3176.5" y="-539.3" font-family="Arial" font-size="24.00" fill="#444444">blobs in</text>
<text text-anchor="start" x="3167" y="-519.3" font-family="Arial" font-size="19.00" fill="#444444">[Filesystem]</text>
</g>
<!-- 34 -->
<g id="34" class="node">
<title>34</title>
<path fill="#2f95c8" stroke="#20688c" d="M3864,-1141.72C3864,-1164.98 3777.49,-1183.88 3671,-1183.88 3564.51,-1183.88 3478,-1164.98 3478,-1141.72 3478,-1141.72 3478,-762.28 3478,-762.28 3478,-739.02 3564.51,-720.12 3671,-720.12 3777.49,-720.12 3864,-739.02 3864,-762.28 3864,-762.28 3864,-1141.72 3864,-1141.72"/>
<path fill="none" stroke="#20688c" d="M3864,-1141.72C3864,-1118.45 3777.49,-1099.56 3671,-1099.56 3564.51,-1099.56 3478,-1118.45 3478,-1141.72"/>
<text text-anchor="start" x="3507" y="-1072.3" font-family="Arial" font-size="34.00" fill="#ffffff">Bounded Local Media</text>
<text text-anchor="start" x="3627.5" y="-1038.3" font-family="Arial" font-size="34.00" fill="#ffffff">Spool</text>
<text text-anchor="start" x="3531" y="-1016.3" font-family="Arial" font-size="19.00" fill="#ffffff">[Container: WSL local filesystem]</text>
<text text-anchor="start" x="3519" y="-979.3" font-family="Arial" font-size="24.00" fill="#ffffff">Opt&#45;in durable outage buffer</text>
<text text-anchor="start" x="3522.5" y="-955.3" font-family="Arial" font-size="24.00" fill="#ffffff">beneath the local WSL data</text>
<text text-anchor="start" x="3549.5" y="-931.3" font-family="Arial" font-size="24.00" fill="#ffffff">root; admission counts</text>
<text text-anchor="start" x="3525.5" y="-907.3" font-family="Arial" font-size="24.00" fill="#ffffff">committed files and distinct</text>
<text text-anchor="start" x="3519" y="-883.3" font-family="Arial" font-size="24.00" fill="#ffffff">in&#45;flight SQLite reservations,</text>
<text text-anchor="start" x="3546" y="-859.3" font-family="Arial" font-size="24.00" fill="#ffffff">and drain verifies bytes</text>
<text text-anchor="start" x="3523.5" y="-835.3" font-family="Arial" font-size="24.00" fill="#ffffff">before tier transition/source</text>
<text text-anchor="start" x="3625" y="-811.3" font-family="Arial" font-size="24.00" fill="#ffffff">cleanup.</text>
</g>
<!-- 22&#45;&gt;34 -->
<g id="96" class="edge">
<title>22&#45;&gt;34</title>
<path fill="none" stroke="#444444" stroke-dasharray="5,2" d="M3037.11,-643.68C3168.34,-707.61 3337.95,-790.24 3468.56,-853.86"/>
<polygon fill="#444444" stroke="#444444" points="3467.37,-857.18 3477.89,-858.41 3470.43,-850.88 3467.37,-857.18"/>
<polygon fill="white" stroke="transparent" points="3073,-796 3073,-895 3363,-895 3363,-796 3073,-796"/>
<text text-anchor="start" x="3088" y="-872.3" font-family="Arial" font-size="24.00" fill="#444444">Stages, commits, reads,</text>
<text text-anchor="start" x="3077" y="-848.3" font-family="Arial" font-size="24.00" fill="#444444">stats, and deletes spooled</text>
<text text-anchor="start" x="3172" y="-824.3" font-family="Arial" font-size="24.00" fill="#444444">media in</text>
<text text-anchor="start" x="3166.5" y="-804.3" font-family="Arial" font-size="19.00" fill="#444444">[Filesystem]</text>
</g>
<!-- 23&#45;&gt;22 -->
<g id="93" class="edge">
<title>23&#45;&gt;22</title>
<path fill="none" stroke="#444444" stroke-dasharray="5,2" d="M2201.09,-494.46C2222.64,-486.75 2244.41,-480.1 2266,-475 2406.14,-441.88 2447.4,-454.95 2590,-475 2598.52,-476.2 2607.15,-477.62 2615.84,-479.23"/>
<polygon fill="#444444" stroke="#444444" points="2615.19,-482.67 2625.67,-481.13 2616.51,-475.8 2615.19,-482.67"/>
<polygon fill="white" stroke="transparent" points="2301.5,-475 2301.5,-561 2554.5,-561 2554.5,-475 2301.5,-475"/>
<text text-anchor="start" x="2306" y="-537.8" font-family="Arial" font-size="24.00" fill="#444444">Resolves, deletes, and</text>
<text text-anchor="start" x="2314" y="-511.8" font-family="Arial" font-size="24.00" fill="#444444">inventories contained</text>
<text text-anchor="start" x="2354.5" y="-485.8" font-family="Arial" font-size="24.00" fill="#444444">bytes through</text>
</g>
<!-- 23&#45;&gt;31 -->
<g id="92" class="edge">
<title>23&#45;&gt;31</title>
<path fill="none" stroke="#444444" stroke-dasharray="5,2" d="M2230.22,-772.21C2346.48,-821.71 2477.24,-883.3 2590,-951 2601.7,-958.02 2613.48,-965.54 2625.2,-973.37"/>
<polygon fill="#444444" stroke="#444444" points="2623.48,-976.43 2633.73,-979.13 2627.4,-970.63 2623.48,-976.43"/>
<polygon fill="white" stroke="transparent" points="2266,-951 2266,-1026 2590,-1026 2590,-951 2266,-951"/>
<text text-anchor="start" x="2270" y="-1003.3" font-family="Arial" font-size="24.00" fill="#444444">Reads and advances durable</text>
<text text-anchor="start" x="2302" y="-979.3" font-family="Arial" font-size="24.00" fill="#444444">blob lifecycle records in</text>
<text text-anchor="start" x="2394.5" y="-959.3" font-family="Arial" font-size="19.00" fill="#444444">[sqlite3]</text>
</g>
</g>
</svg>
