<?xml version="1.0" encoding="UTF-8" standalone="no"?>
<!DOCTYPE svg PUBLIC "-//W3C//DTD SVG 1.1//EN"
 "http://www.w3.org/Graphics/SVG/1.1/DTD/svg11.dtd">
<!-- Generated by graphviz version 2.43.0 (0)
 -->
<!-- Title: %3 Pages: 1 -->
<svg width="4776pt" height="2952pt"
 viewBox="0.00 0.00 4776.00 2952.00" xmlns="http://www.w3.org/2000/svg" xmlns:xlink="http://www.w3.org/1999/xlink">
<g id="graph0" class="graph" transform="scale(1 1) rotate(0) translate(4 2948)">
<title>%3</title>
<polygon fill="white" stroke="transparent" points="-4,4 -4,-2948 4772,-2948 4772,4 -4,4"/>
<text text-anchor="start" x="1799" y="-11.8" font-family="Arial" font-size="34.00">Component View: Browser Memory Daemon &#45; WSL Loopback HTTP Daemon</text>
<g id="clust1" class="cluster">
<title>cluster_4</title>
<polygon fill="none" stroke="#444444" points="8,-64 8,-2936 4760,-2936 4760,-64 8,-64"/>
<text text-anchor="start" x="2243" y="-92.8" font-family="Arial" font-size="24.00" fill="#444444">Browser Memory Daemon</text>
<text text-anchor="start" x="2307" y="-72.8" font-family="Arial" font-size="19.00" fill="#444444">[Software System]</text>
</g>
<g id="clust2" class="cluster">
<title>cluster_14</title>
<polygon fill="none" stroke="#444444" points="33,-164 33,-2324 3854,-2324 3854,-164 33,-164"/>
<text text-anchor="start" x="1778" y="-192.8" font-family="Arial" font-size="24.00" fill="#444444">WSL Loopback HTTP Daemon</text>
<text text-anchor="start" x="1741.5" y="-172.8" font-family="Arial" font-size="19.00" fill="#444444">[Container: Python 3.11, ThreadingHTTPServer]</text>
</g>
<!-- 15 -->
<g id="15" class="node">
<title>15</title>
<polygon fill="#85bbf0" stroke="#1168bd" points="453,-723.5 58,-723.5 58,-492.5 453,-492.5 453,-723.5"/>
<text text-anchor="start" x="87" y="-675.3" font-family="Arial" font-size="34.00" fill="#000000">HTTP Request Router</text>
<text text-anchor="start" x="119" y="-653.3" font-family="Arial" font-size="19.00" fill="#000000">[Component: Python http.server]</text>
<text text-anchor="start" x="90" y="-616.3" font-family="Arial" font-size="24.00" fill="#000000">Routes loopback API requests,</text>
<text text-anchor="start" x="112.5" y="-592.3" font-family="Arial" font-size="24.00" fill="#000000">serves UI assets, enforces</text>
<text text-anchor="start" x="91.5" y="-568.3" font-family="Arial" font-size="24.00" fill="#000000">bearer auth for memory/admin</text>
<text text-anchor="start" x="106" y="-544.3" font-family="Arial" font-size="24.00" fill="#000000">APIs, and applies CORS for</text>
<text text-anchor="start" x="172" y="-520.3" font-family="Arial" font-size="24.00" fill="#000000">allowed origins.</text>
</g>
<!-- 21 -->
<g id="21" class="node">
<title>21</title>
<polygon fill="#85bbf0" stroke="#1168bd" points="1231,-1315.5 810,-1315.5 810,-978.5 1231,-978.5 1231,-1315.5"/>
<text text-anchor="start" x="917" y="-1267.3" font-family="Arial" font-size="34.00" fill="#000000">Media Artifact</text>
<text text-anchor="start" x="953.5" y="-1233.3" font-family="Arial" font-size="34.00" fill="#000000">Manager</text>
<text text-anchor="start" x="839" y="-1211.3" font-family="Arial" font-size="19.00" fill="#000000">[Component: Python + sqlite3 + filesystem]</text>
<text text-anchor="start" x="883.5" y="-1174.3" font-family="Arial" font-size="24.00" fill="#000000">Provides the compatibility</text>
<text text-anchor="start" x="853.5" y="-1150.3" font-family="Arial" font-size="24.00" fill="#000000">API, records media references,</text>
<text text-anchor="start" x="851" y="-1126.3" font-family="Arial" font-size="24.00" fill="#000000">streams bounded blob uploads,</text>
<text text-anchor="start" x="885" y="-1102.3" font-family="Arial" font-size="24.00" fill="#000000">delegates guarded public</text>
<text text-anchor="start" x="866.5" y="-1078.3" font-family="Arial" font-size="24.00" fill="#000000">transport, and drains verified</text>
<text text-anchor="start" x="869" y="-1054.3" font-family="Arial" font-size="24.00" fill="#000000">spool bytes without coupling</text>
<text text-anchor="start" x="915" y="-1030.3" font-family="Arial" font-size="24.00" fill="#000000">text ingest to media</text>
<text text-anchor="start" x="962" y="-1006.3" font-family="Arial" font-size="24.00" fill="#000000">availability.</text>
</g>
<!-- 15&#45;&gt;21 -->
<g id="90" class="edge">
<title>15&#45;&gt;21</title>
<path fill="none" stroke="#444444" stroke-dasharray="5,2" d="M420.18,-723.63C531.58,-802.32 680.24,-907.34 801.63,-993.09"/>
<polygon fill="#444444" stroke="#444444" points="799.77,-996.06 809.96,-998.97 803.81,-990.35 799.77,-996.06"/>
<polygon fill="white" stroke="transparent" points="489,-972 489,-1006 774,-1006 774,-972 489,-972"/>
<text text-anchor="start" x="493.5" y="-982.8" font-family="Arial" font-size="24.00" fill="#444444">Routes media requests to</text>
</g>
<!-- 28 -->
<g id="28" class="node">
<title>28</title>
<polygon fill="#85bbf0" stroke="#1168bd" points="2908.5,-577.5 2502.5,-577.5 2502.5,-264.5 2908.5,-264.5 2908.5,-577.5"/>
<text text-anchor="start" x="2592.5" y="-529.3" font-family="Arial" font-size="34.00" fill="#000000">Media Process</text>
<text text-anchor="start" x="2574" y="-495.3" font-family="Arial" font-size="34.00" fill="#000000">Resource Budget</text>
<text text-anchor="start" x="2531.5" y="-473.3" font-family="Arial" font-size="19.00" fill="#000000">[Component: Python threading.Condition]</text>
<text text-anchor="start" x="2543" y="-436.3" font-family="Arial" font-size="24.00" fill="#000000">Bounds active media requests</text>
<text text-anchor="start" x="2571.5" y="-412.3" font-family="Arial" font-size="24.00" fill="#000000">and in&#45;flight bytes across</text>
<text text-anchor="start" x="2545.5" y="-388.3" font-family="Arial" font-size="24.00" fill="#000000">threads within one daemon or</text>
<text text-anchor="start" x="2571.5" y="-364.3" font-family="Arial" font-size="24.00" fill="#000000">worker process; exposes</text>
<text text-anchor="start" x="2577" y="-340.3" font-family="Arial" font-size="24.00" fill="#000000">aggregate counters and</text>
<text text-anchor="start" x="2553.5" y="-316.3" font-family="Arial" font-size="24.00" fill="#000000">releases leases on failure or</text>
<text text-anchor="start" x="2638" y="-292.3" font-family="Arial" font-size="24.00" fill="#000000">cancellation.</text>
</g>
<!-- 15&#45;&gt;28 -->
<g id="91" class="edge">
<title>15&#45;&gt;28</title>
<path fill="none" stroke="#444444" stroke-dasharray="5,2" d="M453.4,-552.5C655.6,-498.6 980.35,-420.57 1267,-390 1404.44,-375.34 1855.38,-393.22 2353,-408 2398.07,-409.34 2446.38,-410.99 2492.31,-412.65"/>
<polygon fill="#444444" stroke="#444444" points="2492.26,-416.15 2502.38,-413.02 2492.51,-409.16 2492.26,-416.15"/>
<polygon fill="white" stroke="transparent" points="1278,-390 1278,-476 1539,-476 1539,-390 1278,-390"/>
<text text-anchor="start" x="1282.5" y="-452.8" font-family="Arial" font-size="24.00" fill="#444444">Leases bounded media</text>
<text text-anchor="start" x="1295.5" y="-426.8" font-family="Arial" font-size="24.00" fill="#444444">upload and response</text>
<text text-anchor="start" x="1320" y="-400.8" font-family="Arial" font-size="24.00" fill="#444444">capacity through</text>
</g>
<!-- 22 -->
<g id="22" class="node">
<title>22</title>
<polygon fill="#85bbf0" stroke="#1168bd" points="3797,-1653.5 3450,-1653.5 3450,-1398.5 3797,-1398.5 3797,-1653.5"/>
<text text-anchor="start" x="3481.5" y="-1605.3" font-family="Arial" font-size="34.00" fill="#000000">Media State Model</text>
<text text-anchor="start" x="3534.5" y="-1583.3" font-family="Arial" font-size="19.00" fill="#000000">[Component: Python]</text>
<text text-anchor="start" x="3499" y="-1546.3" font-family="Arial" font-size="24.00" fill="#000000">Owns caller&#45;visible and</text>
<text text-anchor="start" x="3482.5" y="-1522.3" font-family="Arial" font-size="24.00" fill="#000000">internal artifact/task status</text>
<text text-anchor="start" x="3498.5" y="-1498.3" font-family="Arial" font-size="24.00" fill="#000000">taxonomies, fetch&#45;error</text>
<text text-anchor="start" x="3488" y="-1474.3" font-family="Arial" font-size="24.00" fill="#000000">classification, and explicit</text>
<text text-anchor="start" x="3479" y="-1450.3" font-family="Arial" font-size="24.00" fill="#000000">ordinary versus force&#45;reset</text>
<text text-anchor="start" x="3521.5" y="-1426.3" font-family="Arial" font-size="24.00" fill="#000000">transition matrices.</text>
</g>
<!-- 21&#45;&gt;22 -->
<g id="99" class="edge">
<title>21&#45;&gt;22</title>
<path fill="none" stroke="#444444" stroke-dasharray="5,2" d="M1227.77,-978.25C1241.01,-967.64 1254.17,-957.15 1267,-947 1582.45,-697.45 1649.25,-569.2 2041,-478 2176.05,-446.56 2243.04,-393.52 2353,-478 2402.24,-515.83 2342.07,-572.33 2389,-613 2603.09,-798.54 2784.89,-532.96 3022,-688 3313.11,-878.35 3190.18,-1100.18 3418,-1363 3426.35,-1372.64 3435.34,-1382.12 3444.71,-1391.37"/>
<polygon fill="#444444" stroke="#444444" points="3442.33,-1393.94 3451.95,-1398.4 3447.21,-1388.92 3442.33,-1393.94"/>
<polygon fill="white" stroke="transparent" points="2064,-478 2064,-564 2330,-564 2330,-478 2064,-478"/>
<text text-anchor="start" x="2105.5" y="-540.8" font-family="Arial" font-size="24.00" fill="#444444">Classifies artifact</text>
<text text-anchor="start" x="2068" y="-514.8" font-family="Arial" font-size="24.00" fill="#444444">outcomes and transition</text>
<text text-anchor="start" x="2122.5" y="-488.8" font-family="Arial" font-size="24.00" fill="#444444">intent through</text>
</g>
<!-- 23 -->
<g id="23" class="node">
<title>23</title>
<polygon fill="#85bbf0" stroke="#1168bd" points="2907,-2298.5 2504,-2298.5 2504,-2019.5 2907,-2019.5 2907,-2298.5"/>
<text text-anchor="start" x="2533" y="-2250.3" font-family="Arial" font-size="34.00" fill="#000000">Media Task Repository</text>
<text text-anchor="start" x="2577.5" y="-2228.3" font-family="Arial" font-size="19.00" fill="#000000">[Component: Python + sqlite3]</text>
<text text-anchor="start" x="2556.5" y="-2191.3" font-family="Arial" font-size="24.00" fill="#000000">Creates deterministic tasks,</text>
<text text-anchor="start" x="2572.5" y="-2167.3" font-family="Arial" font-size="24.00" fill="#000000">preserves terminal state,</text>
<text text-anchor="start" x="2557.5" y="-2143.3" font-family="Arial" font-size="24.00" fill="#000000">atomically leases due work,</text>
<text text-anchor="start" x="2564.5" y="-2119.3" font-family="Arial" font-size="24.00" fill="#000000">recovers stale leases, and</text>
<text text-anchor="start" x="2546.5" y="-2095.3" font-family="Arial" font-size="24.00" fill="#000000">applies bounded retry/backoff</text>
<text text-anchor="start" x="2546" y="-2071.3" font-family="Arial" font-size="24.00" fill="#000000">outcomes independently from</text>
<text text-anchor="start" x="2617.5" y="-2047.3" font-family="Arial" font-size="24.00" fill="#000000">media transport.</text>
</g>
<!-- 21&#45;&gt;23 -->
<g id="100" class="edge">
<title>21&#45;&gt;23</title>
<path fill="none" stroke="#444444" stroke-dasharray="5,2" d="M1117.48,-1315.96C1158.89,-1381.3 1210.74,-1454.32 1267,-1513 1388.69,-1639.92 1431.1,-1663.8 1586,-1747 1746.8,-1833.37 2217.11,-1996.34 2494.01,-2089.34"/>
<polygon fill="#444444" stroke="#444444" points="2493.18,-2092.75 2503.78,-2092.61 2495.41,-2086.11 2493.18,-2092.75"/>
<polygon fill="white" stroke="transparent" points="1644,-1915 1644,-1975 1947,-1975 1947,-1915 1644,-1915"/>
<text text-anchor="start" x="1648.5" y="-1951.8" font-family="Arial" font-size="24.00" fill="#444444">Creates and claims durable</text>
<text text-anchor="start" x="1689" y="-1925.8" font-family="Arial" font-size="24.00" fill="#444444">media work through</text>
</g>
<!-- 24 -->
<g id="24" class="node">
<title>24</title>
<polygon fill="#85bbf0" stroke="#1168bd" points="2005,-1710.5 1586,-1710.5 1586,-1359.5 2005,-1359.5 2005,-1710.5"/>
<text text-anchor="start" x="1646.5" y="-1662.3" font-family="Arial" font-size="34.00" fill="#000000">Media Artifact Store</text>
<text text-anchor="start" x="1615" y="-1640.3" font-family="Arial" font-size="19.00" fill="#000000">[Component: Python + sqlite3 + BlobStore]</text>
<text text-anchor="start" x="1692.5" y="-1603.3" font-family="Arial" font-size="24.00" fill="#000000">Owns artifact rows,</text>
<text text-anchor="start" x="1648" y="-1579.3" font-family="Arial" font-size="24.00" fill="#000000">transactional cross&#45;process</text>
<text text-anchor="start" x="1650.5" y="-1555.3" font-family="Arial" font-size="24.00" fill="#000000">cache reservations, unique</text>
<text text-anchor="start" x="1680" y="-1531.3" font-family="Arial" font-size="24.00" fill="#000000">streamed publication,</text>
<text text-anchor="start" x="1654.5" y="-1507.3" font-family="Arial" font-size="24.00" fill="#000000">failed&#45;write compensation,</text>
<text text-anchor="start" x="1670" y="-1483.3" font-family="Arial" font-size="24.00" fill="#000000">contained reads, cache</text>
<text text-anchor="start" x="1678" y="-1459.3" font-family="Arial" font-size="24.00" fill="#000000">admission, oldest&#45;first</text>
<text text-anchor="start" x="1649" y="-1435.3" font-family="Arial" font-size="24.00" fill="#000000">eviction, purge/rehydration,</text>
<text text-anchor="start" x="1729" y="-1411.3" font-family="Arial" font-size="24.00" fill="#000000">and lifecycle</text>
<text text-anchor="start" x="1666" y="-1387.3" font-family="Arial" font-size="24.00" fill="#000000">registration/tombstones.</text>
</g>
<!-- 21&#45;&gt;24 -->
<g id="101" class="edge">
<title>21&#45;&gt;24</title>
<path fill="none" stroke="#444444" stroke-dasharray="5,2" d="M1231.19,-1252.25C1338.28,-1306.01 1468.45,-1371.34 1576.67,-1425.66"/>
<polygon fill="#444444" stroke="#444444" points="1575.24,-1428.86 1585.75,-1430.22 1578.38,-1422.6 1575.24,-1428.86"/>
<polygon fill="white" stroke="transparent" points="1279.5,-1409 1279.5,-1495 1537.5,-1495 1537.5,-1409 1279.5,-1409"/>
<text text-anchor="start" x="1301" y="-1471.8" font-family="Arial" font-size="24.00" fill="#444444">Publishes, resolves,</text>
<text text-anchor="start" x="1283.5" y="-1445.8" font-family="Arial" font-size="24.00" fill="#444444">purges, and rehydrates</text>
<text text-anchor="start" x="1321" y="-1419.8" font-family="Arial" font-size="24.00" fill="#444444">artifacts through</text>
</g>
<!-- 25 -->
<g id="25" class="node">
<title>25</title>
<polygon fill="#85bbf0" stroke="#1168bd" points="2000.5,-1017.5 1590.5,-1017.5 1590.5,-738.5 2000.5,-738.5 2000.5,-1017.5"/>
<text text-anchor="start" x="1631" y="-969.3" font-family="Arial" font-size="34.00" fill="#000000">Guarded Media Fetch</text>
<text text-anchor="start" x="1619.5" y="-947.3" font-family="Arial" font-size="19.00" fill="#000000">[Component: Python stdlib urllib + socket]</text>
<text text-anchor="start" x="1648.5" y="-910.3" font-family="Arial" font-size="24.00" fill="#000000">Owns streamed HTTP/data</text>
<text text-anchor="start" x="1661.5" y="-886.3" font-family="Arial" font-size="24.00" fill="#000000">transport, public&#45;address</text>
<text text-anchor="start" x="1697" y="-862.3" font-family="Arial" font-size="24.00" fill="#000000">validation, redirect</text>
<text text-anchor="start" x="1669" y="-838.3" font-family="Arial" font-size="24.00" fill="#000000">revalidation, no&#45;referrer</text>
<text text-anchor="start" x="1665" y="-814.3" font-family="Arial" font-size="24.00" fill="#000000">requests, response&#45;byte</text>
<text text-anchor="start" x="1648.5" y="-790.3" font-family="Arial" font-size="24.00" fill="#000000">limits, process request/byte</text>
<text text-anchor="start" x="1634.5" y="-766.3" font-family="Arial" font-size="24.00" fill="#000000">leases, and shared deadlines.</text>
</g>
<!-- 21&#45;&gt;25 -->
<g id="102" class="edge">
<title>21&#45;&gt;25</title>
<path fill="none" stroke="#444444" stroke-dasharray="5,2" d="M1231.19,-1074.03C1339.7,-1036.27 1471.89,-990.27 1580.95,-952.32"/>
<polygon fill="#444444" stroke="#444444" points="1582.13,-955.61 1590.42,-949.02 1579.83,-949 1582.13,-955.61"/>
<polygon fill="white" stroke="transparent" points="1267,-1059 1267,-1119 1550,-1119 1550,-1059 1267,-1059"/>
<text text-anchor="start" x="1271.5" y="-1095.8" font-family="Arial" font-size="24.00" fill="#444444">Delegates daemon&#45;public</text>
<text text-anchor="start" x="1311" y="-1069.8" font-family="Arial" font-size="24.00" fill="#444444">media transport to</text>
</g>
<!-- 29 -->
<g id="29" class="node">
<title>29</title>
<polygon fill="#85bbf0" stroke="#1168bd" points="3829,-1326.5 3418,-1326.5 3418,-1023.5 3829,-1023.5 3829,-1326.5"/>
<text text-anchor="start" x="3467" y="-1278.3" font-family="Arial" font-size="34.00" fill="#000000">Contained BlobStore</text>
<text text-anchor="start" x="3447" y="-1256.3" font-family="Arial" font-size="19.00" fill="#000000">[Component: Python filesystem boundary]</text>
<text text-anchor="start" x="3471" y="-1219.3" font-family="Arial" font-size="24.00" fill="#000000">Prefers root&#45;relative locators</text>
<text text-anchor="start" x="3507.5" y="-1195.3" font-family="Arial" font-size="24.00" fill="#000000">with contained legacy</text>
<text text-anchor="start" x="3492.5" y="-1171.3" font-family="Arial" font-size="24.00" fill="#000000">fallback; streams unique</text>
<text text-anchor="start" x="3508.5" y="-1147.3" font-family="Arial" font-size="24.00" fill="#000000">stages with size/hash</text>
<text text-anchor="start" x="3504.5" y="-1123.3" font-family="Arial" font-size="24.00" fill="#000000">accounting; atomically</text>
<text text-anchor="start" x="3476.5" y="-1099.3" font-family="Arial" font-size="24.00" fill="#000000">commits; and contains blob</text>
<text text-anchor="start" x="3509" y="-1075.3" font-family="Arial" font-size="24.00" fill="#000000">read, stat, and delete</text>
<text text-anchor="start" x="3563" y="-1051.3" font-family="Arial" font-size="24.00" fill="#000000">operations.</text>
</g>
<!-- 21&#45;&gt;29 -->
<g id="118" class="edge">
<title>21&#45;&gt;29</title>
<path fill="none" stroke="#444444" stroke-dasharray="5,2" d="M1231.05,-1149.26C1717.02,-1154.49 2916.73,-1167.4 3407.75,-1172.69"/>
<polygon fill="#444444" stroke="#444444" points="3407.75,-1176.19 3417.79,-1172.8 3407.83,-1169.19 3407.75,-1176.19"/>
<polygon fill="white" stroke="transparent" points="2062.5,-1161 2062.5,-1273 2331.5,-1273 2331.5,-1161 2062.5,-1161"/>
<text text-anchor="start" x="2076" y="-1249.8" font-family="Arial" font-size="24.00" fill="#444444">Checks current artifact</text>
<text text-anchor="start" x="2080.5" y="-1223.8" font-family="Arial" font-size="24.00" fill="#444444">presence during fetch</text>
<text text-anchor="start" x="2067" y="-1197.8" font-family="Arial" font-size="24.00" fill="#444444">orchestration and drains</text>
<text text-anchor="start" x="2091.5" y="-1171.8" font-family="Arial" font-size="24.00" fill="#444444">spool bytes through</text>
</g>
<!-- 38 -->
<g id="38" class="node">
<title>38</title>
<path fill="#2f95c8" stroke="#20688c" d="M3821,-2860.22C3821,-2888.44 3732.48,-2911.38 3623.5,-2911.38 3514.52,-2911.38 3426,-2888.44 3426,-2860.22 3426,-2860.22 3426,-2399.78 3426,-2399.78 3426,-2371.56 3514.52,-2348.62 3623.5,-2348.62 3732.48,-2348.62 3821,-2371.56 3821,-2399.78 3821,-2399.78 3821,-2860.22 3821,-2860.22"/>
<path fill="none" stroke="#20688c" d="M3821,-2860.22C3821,-2831.99 3732.48,-2809.06 3623.5,-2809.06 3514.52,-2809.06 3426,-2831.99 3426,-2860.22"/>
<text text-anchor="start" x="3510.5" y="-2786.3" font-family="Arial" font-size="34.00" fill="#ffffff">SQLite + FTS5</text>
<text text-anchor="start" x="3550.5" y="-2752.3" font-family="Arial" font-size="34.00" fill="#ffffff">Database</text>
<text text-anchor="start" x="3497.5" y="-2730.3" font-family="Arial" font-size="19.00" fill="#ffffff">[Container: SQLite with FTS5]</text>
<text text-anchor="start" x="3455.5" y="-2693.3" font-family="Arial" font-size="24.00" fill="#ffffff">Durable complete cleaned&#45;text,</text>
<text text-anchor="start" x="3504.5" y="-2669.3" font-family="Arial" font-size="24.00" fill="#ffffff">relational, and full&#45;text</text>
<text text-anchor="start" x="3506" y="-2645.3" font-family="Arial" font-size="24.00" fill="#ffffff">authority for migration</text>
<text text-anchor="start" x="3471.5" y="-2621.3" font-family="Arial" font-size="24.00" fill="#ffffff">ledger, sources, documents,</text>
<text text-anchor="start" x="3474" y="-2597.3" font-family="Arial" font-size="24.00" fill="#ffffff">visits, capture observations,</text>
<text text-anchor="start" x="3492.5" y="-2573.3" font-family="Arial" font-size="24.00" fill="#ffffff">URL claims, visit events,</text>
<text text-anchor="start" x="3455" y="-2549.3" font-family="Arial" font-size="24.00" fill="#ffffff">snapshots, chunks, chunks_fts,</text>
<text text-anchor="start" x="3462.5" y="-2525.3" font-family="Arial" font-size="24.00" fill="#ffffff">media provenance/tasks, blob</text>
<text text-anchor="start" x="3499" y="-2501.3" font-family="Arial" font-size="24.00" fill="#ffffff">lifecycle records, policy</text>
<text text-anchor="start" x="3498" y="-2477.3" font-family="Arial" font-size="24.00" fill="#ffffff">rules, audit events, and</text>
<text text-anchor="start" x="3531.5" y="-2453.3" font-family="Arial" font-size="24.00" fill="#ffffff">deletion receipts.</text>
</g>
<!-- 21&#45;&gt;38 -->
<g id="103" class="edge">
<title>21&#45;&gt;38</title>
<path fill="none" stroke="#444444" stroke-dasharray="5,2" d="M1064.78,-1315.6C1136.25,-1565.14 1300.22,-2035.41 1586,-2334 2046.3,-2814.94 2360.07,-2830.83 3022,-2760 3154.56,-2745.82 3300.82,-2714.5 3415.8,-2686.15"/>
<polygon fill="#444444" stroke="#444444" points="3416.9,-2689.48 3425.77,-2683.68 3415.22,-2682.69 3416.9,-2689.48"/>
<polygon fill="white" stroke="transparent" points="2071.5,-2777 2071.5,-2852 2322.5,-2852 2322.5,-2777 2071.5,-2777"/>
<text text-anchor="start" x="2076" y="-2829.3" font-family="Arial" font-size="24.00" fill="#444444">Updates media artifact</text>
<text text-anchor="start" x="2159" y="-2805.3" font-family="Arial" font-size="24.00" fill="#444444">rows in</text>
<text text-anchor="start" x="2164" y="-2785.3" font-family="Arial" font-size="19.00" fill="#444444">[sqlite3]</text>
</g>
<!-- 23&#45;&gt;22 -->
<g id="104" class="edge">
<title>23&#45;&gt;22</title>
<path fill="none" stroke="#444444" stroke-dasharray="5,2" d="M2907.26,-2080.6C2950.48,-2055.49 2992.11,-2023.63 3022,-1984 3064.59,-1927.54 3015.02,-1885.16 3058,-1829 3064.68,-1820.28 3278.17,-1706.88 3440.64,-1621.36"/>
<polygon fill="#444444" stroke="#444444" points="3442.57,-1624.29 3449.79,-1616.54 3439.31,-1618.1 3442.57,-1624.29"/>
<polygon fill="white" stroke="transparent" points="3103,-1829 3103,-1915 3337,-1915 3337,-1829 3103,-1829"/>
<text text-anchor="start" x="3110" y="-1891.8" font-family="Arial" font-size="24.00" fill="#444444">Validates task status</text>
<text text-anchor="start" x="3110" y="-1865.8" font-family="Arial" font-size="24.00" fill="#444444">vocabulary and retry</text>
<text text-anchor="start" x="3107" y="-1839.8" font-family="Arial" font-size="24.00" fill="#444444">classification through</text>
</g>
<!-- 23&#45;&gt;38 -->
<g id="105" class="edge">
<title>23&#45;&gt;38</title>
<path fill="none" stroke="#444444" stroke-dasharray="5,2" d="M2907.23,-2183.92C3048.72,-2208.7 3237.89,-2256.93 3382,-2349 3394.2,-2356.8 3406.12,-2365.4 3417.71,-2374.6"/>
<polygon fill="#444444" stroke="#444444" points="3415.71,-2377.49 3425.68,-2381.07 3420.12,-2372.05 3415.71,-2377.49"/>
<polygon fill="white" stroke="transparent" points="3083.5,-2349 3083.5,-2424 3356.5,-2424 3356.5,-2349 3083.5,-2349"/>
<text text-anchor="start" x="3109" y="-2401.3" font-family="Arial" font-size="24.00" fill="#444444">Creates, leases, and</text>
<text text-anchor="start" x="3088" y="-2377.3" font-family="Arial" font-size="24.00" fill="#444444">advances media tasks in</text>
<text text-anchor="start" x="3187" y="-2357.3" font-family="Arial" font-size="19.00" fill="#444444">[sqlite3]</text>
</g>
<!-- 24&#45;&gt;22 -->
<g id="106" class="edge">
<title>24&#45;&gt;22</title>
<path fill="none" stroke="#444444" stroke-dasharray="5,2" d="M2005.11,-1509.5C2017.24,-1508.52 2029.27,-1507.67 2041,-1507 2636.03,-1473.04 2786.46,-1483.51 3382,-1507 3400.71,-1507.74 3420.22,-1508.8 3439.68,-1510.04"/>
<polygon fill="#444444" stroke="#444444" points="3439.64,-1513.55 3449.85,-1510.71 3440.1,-1506.56 3439.64,-1513.55"/>
<polygon fill="white" stroke="transparent" points="2598.5,-1492 2598.5,-1552 2812.5,-1552 2812.5,-1492 2598.5,-1492"/>
<text text-anchor="start" x="2602.5" y="-1528.8" font-family="Arial" font-size="24.00" fill="#444444">Uses artifact status</text>
<text text-anchor="start" x="2619" y="-1502.8" font-family="Arial" font-size="24.00" fill="#444444">vocabulary from</text>
</g>
<!-- 24&#45;&gt;23 -->
<g id="107" class="edge">
<title>24&#45;&gt;23</title>
<path fill="none" stroke="#444444" stroke-dasharray="5,2" d="M2005.1,-1678.61C2017.02,-1684.57 2029.03,-1690.09 2041,-1695 2171.88,-1748.7 2255.05,-1655.93 2353,-1758 2423.42,-1831.39 2330.64,-1900.7 2389,-1984 2416.01,-2022.55 2454.36,-2053.55 2495.05,-2078.11"/>
<polygon fill="#444444" stroke="#444444" points="2493.37,-2081.18 2503.76,-2083.25 2496.93,-2075.16 2493.37,-2081.18"/>
<polygon fill="white" stroke="transparent" points="2070,-1758 2070,-1870 2324,-1870 2324,-1758 2070,-1758"/>
<text text-anchor="start" x="2081.5" y="-1846.8" font-family="Arial" font-size="24.00" fill="#444444">Marks stored/skipped</text>
<text text-anchor="start" x="2074" y="-1820.8" font-family="Arial" font-size="24.00" fill="#444444">outcomes and ensures</text>
<text text-anchor="start" x="2091" y="-1794.8" font-family="Arial" font-size="24.00" fill="#444444">retryable fetch work</text>
<text text-anchor="start" x="2155.5" y="-1768.8" font-family="Arial" font-size="24.00" fill="#444444">through</text>
</g>
<!-- 24&#45;&gt;29 -->
<g id="109" class="edge">
<title>24&#45;&gt;29</title>
<path fill="none" stroke="#444444" stroke-dasharray="5,2" d="M2005.26,-1463.2C2117.84,-1426.61 2259.82,-1383.88 2389,-1355 2742.1,-1276.07 3160.08,-1223.46 3407.6,-1196.46"/>
<polygon fill="#444444" stroke="#444444" points="3408.24,-1199.92 3417.8,-1195.36 3407.48,-1192.96 3408.24,-1199.92"/>
<polygon fill="white" stroke="transparent" points="2558.5,-1355 2558.5,-1467 2852.5,-1467 2852.5,-1355 2558.5,-1355"/>
<text text-anchor="start" x="2562.5" y="-1443.8" font-family="Arial" font-size="24.00" fill="#444444">Stages unique candidates,</text>
<text text-anchor="start" x="2567" y="-1417.8" font-family="Arial" font-size="24.00" fill="#444444">resolves contained reads,</text>
<text text-anchor="start" x="2610.5" y="-1391.8" font-family="Arial" font-size="24.00" fill="#444444">and deletes failed</text>
<text text-anchor="start" x="2602" y="-1365.8" font-family="Arial" font-size="24.00" fill="#444444">candidates through</text>
</g>
<!-- 30 -->
<g id="30" class="node">
<title>30</title>
<polygon fill="#85bbf0" stroke="#1168bd" points="3022,-1947.5 2389,-1947.5 2389,-1634.5 3022,-1634.5 3022,-1947.5"/>
<text text-anchor="start" x="2567" y="-1899.3" font-family="Arial" font-size="34.00" fill="#000000">Blob Lifecycle and</text>
<text text-anchor="start" x="2561" y="-1865.3" font-family="Arial" font-size="34.00" fill="#000000">Storage Reconciler</text>
<text text-anchor="start" x="2524" y="-1843.3" font-family="Arial" font-size="19.00" fill="#000000">[Component: Python + sqlite3 + filesystem]</text>
<text text-anchor="start" x="2662.5" y="-1806.3" font-family="Arial" font-size="24.00" fill="#000000">Persists</text>
<text text-anchor="start" x="2418" y="-1782.3" font-family="Arial" font-size="24.00" fill="#000000">committed/tombstoned/missing/deleted/blocked/failed</text>
<text text-anchor="start" x="2595.5" y="-1758.3" font-family="Arial" font-size="24.00" fill="#000000">blob state; serializes</text>
<text text-anchor="start" x="2559.5" y="-1734.3" font-family="Arial" font-size="24.00" fill="#000000">deletion processors; retries</text>
<text text-anchor="start" x="2573.5" y="-1710.3" font-family="Arial" font-size="24.00" fill="#000000">tombstones; and dry&#45;run</text>
<text text-anchor="start" x="2557" y="-1686.3" font-family="Arial" font-size="24.00" fill="#000000">detects missing refs, in&#45;root</text>
<text text-anchor="start" x="2563" y="-1662.3" font-family="Arial" font-size="24.00" fill="#000000">orphans, and stale stages.</text>
</g>
<!-- 24&#45;&gt;30 -->
<g id="110" class="edge">
<title>24&#45;&gt;30</title>
<path fill="none" stroke="#444444" stroke-dasharray="5,2" d="M2005.22,-1523.38C2111.66,-1523.51 2241.77,-1533.1 2353,-1569 2397.89,-1583.49 2442.77,-1605.04 2484.71,-1629.12"/>
<polygon fill="#444444" stroke="#444444" points="2483.21,-1632.29 2493.62,-1634.29 2486.73,-1626.24 2483.21,-1632.29"/>
<polygon fill="white" stroke="transparent" points="2050,-1569 2050,-1681 2344,-1681 2344,-1569 2050,-1569"/>
<text text-anchor="start" x="2054" y="-1657.8" font-family="Arial" font-size="24.00" fill="#444444">Registers committed blobs</text>
<text text-anchor="start" x="2110.5" y="-1631.8" font-family="Arial" font-size="24.00" fill="#444444">and tombstones</text>
<text text-anchor="start" x="2055.5" y="-1605.8" font-family="Arial" font-size="24.00" fill="#444444">replacement, eviction, and</text>
<text text-anchor="start" x="2088.5" y="-1579.8" font-family="Arial" font-size="24.00" fill="#444444">purge bytes through</text>
</g>
<!-- 24&#45;&gt;38 -->
<g id="108" class="edge">
<title>24&#45;&gt;38</title>
<path fill="none" stroke="#444444" stroke-dasharray="5,2" d="M1995.13,-1710.61C1998.68,-1716.64 2001.99,-1722.77 2005,-1729 2049.4,-1820.93 1981.39,-2104.12 2041,-2187 2304.12,-2552.8 2583.83,-2337.89 3022,-2443 3154.84,-2474.87 3301.26,-2520.25 3416.26,-2558.32"/>
<polygon fill="#444444" stroke="#444444" points="3415.29,-2561.69 3425.88,-2561.52 3417.49,-2555.05 3415.29,-2561.69"/>
<polygon fill="white" stroke="transparent" points="2567,-2443 2567,-2566 2844,-2566 2844,-2443 2567,-2443"/>
<text text-anchor="start" x="2571.5" y="-2543.3" font-family="Arial" font-size="24.00" fill="#444444">Reserves cache capacity</text>
<text text-anchor="start" x="2594" y="-2519.3" font-family="Arial" font-size="24.00" fill="#444444">and advances media</text>
<text text-anchor="start" x="2640.5" y="-2495.3" font-family="Arial" font-size="24.00" fill="#444444">artifact rows</text>
<text text-anchor="start" x="2615.5" y="-2471.3" font-family="Arial" font-size="24.00" fill="#444444">transactionally in</text>
<text text-anchor="start" x="2672.5" y="-2451.3" font-family="Arial" font-size="19.00" fill="#444444">[sqlite3]</text>
</g>
<!-- 26 -->
<g id="26" class="node">
<title>26</title>
<polygon fill="#85bbf0" stroke="#1168bd" points="2916.5,-1027.5 2494.5,-1027.5 2494.5,-724.5 2916.5,-724.5 2916.5,-1027.5"/>
<text text-anchor="start" x="2523.5" y="-979.3" font-family="Arial" font-size="34.00" fill="#000000">Bounded HLS Transport</text>
<text text-anchor="start" x="2616.5" y="-957.3" font-family="Arial" font-size="19.00" fill="#000000">[Component: Python]</text>
<text text-anchor="start" x="2567.5" y="-920.3" font-family="Arial" font-size="24.00" fill="#000000">Parses bounded playlists,</text>
<text text-anchor="start" x="2550.5" y="-896.3" font-family="Arial" font-size="24.00" fill="#000000">selects variants, expands init</text>
<text text-anchor="start" x="2555" y="-872.3" font-family="Arial" font-size="24.00" fill="#000000">maps/segments through the</text>
<text text-anchor="start" x="2550.5" y="-848.3" font-family="Arial" font-size="24.00" fill="#000000">guarded fetch boundary, and</text>
<text text-anchor="start" x="2573.5" y="-824.3" font-family="Arial" font-size="24.00" fill="#000000">streams assembly within</text>
<text text-anchor="start" x="2650.5" y="-800.3" font-family="Arial" font-size="24.00" fill="#000000">aggregate</text>
<text text-anchor="start" x="2555.5" y="-776.3" font-family="Arial" font-size="24.00" fill="#000000">byte/depth/request/deadline</text>
<text text-anchor="start" x="2674.5" y="-752.3" font-family="Arial" font-size="24.00" fill="#000000">limits.</text>
</g>
<!-- 25&#45;&gt;26 -->
<g id="111" class="edge">
<title>25&#45;&gt;26</title>
<path fill="none" stroke="#444444" stroke-dasharray="5,2" d="M2000.78,-904.94C2014.37,-906.16 2027.87,-907.2 2041,-908 2179.41,-916.46 2214.48,-914.29 2353,-908 2395.45,-906.07 2440.7,-902.84 2484.11,-899.15"/>
<polygon fill="#444444" stroke="#444444" points="2484.55,-902.63 2494.22,-898.28 2483.95,-895.65 2484.55,-902.63"/>
<polygon fill="white" stroke="transparent" points="2061.5,-913 2061.5,-999 2332.5,-999 2332.5,-913 2061.5,-913"/>
<text text-anchor="start" x="2093" y="-975.8" font-family="Arial" font-size="24.00" fill="#444444">Delegates detected</text>
<text text-anchor="start" x="2086" y="-949.8" font-family="Arial" font-size="24.00" fill="#444444">playlists for bounded</text>
<text text-anchor="start" x="2066" y="-923.8" font-family="Arial" font-size="24.00" fill="#444444">parsing and assembly to</text>
</g>
<!-- 25&#45;&gt;28 -->
<g id="112" class="edge">
<title>25&#45;&gt;28</title>
<path fill="none" stroke="#444444" stroke-dasharray="5,2" d="M1960.01,-738.31C1986.14,-719.56 2013.61,-701.75 2041,-687 2169.82,-617.64 2216.97,-635.87 2353,-582 2398.78,-563.87 2447.19,-542.91 2492.96,-522.23"/>
<polygon fill="#444444" stroke="#444444" points="2494.41,-525.41 2502.07,-518.1 2491.52,-519.04 2494.41,-525.41"/>
<polygon fill="white" stroke="transparent" points="2041,-687 2041,-773 2353,-773 2353,-687 2041,-687"/>
<text text-anchor="start" x="2055" y="-749.8" font-family="Arial" font-size="24.00" fill="#444444">Leases aggregate transfer</text>
<text text-anchor="start" x="2045" y="-723.8" font-family="Arial" font-size="24.00" fill="#444444">bytes and each active HTTP</text>
<text text-anchor="start" x="2111.5" y="-697.8" font-family="Arial" font-size="24.00" fill="#444444">request through</text>
</g>
<!-- 26&#45;&gt;25 -->
<g id="115" class="edge">
<title>26&#45;&gt;25</title>
<path fill="none" stroke="#444444" stroke-dasharray="5,2" d="M2494.14,-825.71C2447.91,-816.68 2399.02,-808.66 2353,-804 2215.04,-790.02 2178.17,-783.7 2041,-804 2030.94,-805.49 2020.73,-807.3 2010.46,-809.38"/>
<polygon fill="#444444" stroke="#444444" points="2009.68,-805.96 2000.6,-811.44 2011.11,-812.82 2009.68,-805.96"/>
<polygon fill="white" stroke="transparent" points="2073.5,-804 2073.5,-890 2320.5,-890 2320.5,-804 2073.5,-804"/>
<text text-anchor="start" x="2078" y="-866.8" font-family="Arial" font-size="24.00" fill="#444444">Fetches every variant,</text>
<text text-anchor="start" x="2078" y="-840.8" font-family="Arial" font-size="24.00" fill="#444444">init map, and segment</text>
<text text-anchor="start" x="2156" y="-814.8" font-family="Arial" font-size="24.00" fill="#444444">through</text>
</g>
<!-- 27 -->
<g id="27" class="node">
<title>27</title>
<polygon fill="#85bbf0" stroke="#1168bd" points="1986,-2297.5 1605,-2297.5 1605,-2022.5 1986,-2022.5 1986,-2297.5"/>
<text text-anchor="start" x="1644.5" y="-2249.3" font-family="Arial" font-size="34.00" fill="#000000">Media Operator and</text>
<text text-anchor="start" x="1689.5" y="-2215.3" font-family="Arial" font-size="34.00" fill="#000000">Reconciliation</text>
<text text-anchor="start" x="1725.5" y="-2181.3" font-family="Arial" font-size="34.00" fill="#000000">Workflow</text>
<text text-anchor="start" x="1667.5" y="-2159.3" font-family="Arial" font-size="19.00" fill="#000000">[Component: Python + sqlite3]</text>
<text text-anchor="start" x="1656.5" y="-2122.3" font-family="Arial" font-size="24.00" fill="#000000">Owns scoped dry&#45;run&#45;first</text>
<text text-anchor="start" x="1634" y="-2098.3" font-family="Arial" font-size="24.00" fill="#000000">budget requeue plus bounded</text>
<text text-anchor="start" x="1648.5" y="-2074.3" font-family="Arial" font-size="24.00" fill="#000000">current&#45;state CDP/blob and</text>
<text text-anchor="start" x="1658" y="-2050.3" font-family="Arial" font-size="24.00" fill="#000000">stored&#45;task reconciliation.</text>
</g>
<!-- 27&#45;&gt;23 -->
<g id="116" class="edge">
<title>27&#45;&gt;23</title>
<path fill="none" stroke="#444444" stroke-dasharray="5,2" d="M1986.03,-2094.16C2004.44,-2089.63 2022.97,-2085.77 2041,-2083 2178.06,-2061.93 2215.12,-2068.26 2353,-2083 2398.93,-2087.91 2447.67,-2096.33 2493.77,-2105.82"/>
<polygon fill="#444444" stroke="#444444" points="2493.06,-2109.25 2503.56,-2107.86 2494.48,-2102.39 2493.06,-2109.25"/>
<polygon fill="white" stroke="transparent" points="2053,-2083 2053,-2169 2341,-2169 2341,-2083 2053,-2083"/>
<text text-anchor="start" x="2062" y="-2145.8" font-family="Arial" font-size="24.00" fill="#444444">Resets explicitly selected</text>
<text text-anchor="start" x="2057" y="-2119.8" font-family="Arial" font-size="24.00" fill="#444444">tasks and closes bounded</text>
<text text-anchor="start" x="2060.5" y="-2093.8" font-family="Arial" font-size="24.00" fill="#444444">stale stored work through</text>
</g>
<!-- 27&#45;&gt;38 -->
<g id="117" class="edge">
<title>27&#45;&gt;38</title>
<path fill="none" stroke="#444444" stroke-dasharray="5,2" d="M1986.18,-2278.07C1993.01,-2285.69 1999.34,-2293.67 2005,-2302 2045.98,-2362.28 1992.53,-2407.56 2041,-2462 2149.99,-2584.41 2227.97,-2553.49 2389,-2584 2745.03,-2651.45 3168.89,-2649.86 3415.64,-2641.02"/>
<polygon fill="#444444" stroke="#444444" points="3415.94,-2644.51 3425.8,-2640.64 3415.68,-2637.51 3415.94,-2644.51"/>
<polygon fill="white" stroke="transparent" points="2554,-2643 2554,-2742 2857,-2742 2857,-2643 2554,-2643"/>
<text text-anchor="start" x="2558.5" y="-2719.3" font-family="Arial" font-size="24.00" fill="#444444">Reads and updates scoped</text>
<text text-anchor="start" x="2578" y="-2695.3" font-family="Arial" font-size="24.00" fill="#444444">media artifact/task state</text>
<text text-anchor="start" x="2696.5" y="-2671.3" font-family="Arial" font-size="24.00" fill="#444444">in</text>
<text text-anchor="start" x="2672.5" y="-2651.3" font-family="Arial" font-size="19.00" fill="#444444">[sqlite3]</text>
</g>
<!-- 40 -->
<g id="40" class="node">
<title>40</title>
<path fill="#2f95c8" stroke="#20688c" d="M4735,-1091.22C4735,-1112.82 4613.09,-1130.38 4463,-1130.38 4312.91,-1130.38 4191,-1112.82 4191,-1091.22 4191,-1091.22 4191,-738.78 4191,-738.78 4191,-717.18 4312.91,-699.62 4463,-699.62 4613.09,-699.62 4735,-717.18 4735,-738.78 4735,-738.78 4735,-1091.22 4735,-1091.22"/>
<path fill="none" stroke="#20688c" d="M4735,-1091.22C4735,-1069.61 4613.09,-1052.06 4463,-1052.06 4312.91,-1052.06 4191,-1069.61 4191,-1091.22"/>
<text text-anchor="start" x="4307.5" y="-1023.3" font-family="Arial" font-size="34.00" fill="#ffffff">Guarded Media Blob</text>
<text text-anchor="start" x="4413.5" y="-989.3" font-family="Arial" font-size="34.00" fill="#ffffff">Cache</text>
<text text-anchor="start" x="4220" y="-967.3" font-family="Arial" font-size="19.00" fill="#ffffff">[Container: WSL&#45;visible local or NAS&#45;mounted filesystem]</text>
<text text-anchor="start" x="4353" y="-930.3" font-family="Arial" font-size="24.00" fill="#ffffff">Bounded disposable</text>
<text text-anchor="start" x="4297.5" y="-906.3" font-family="Arial" font-size="24.00" fill="#ffffff">image/video/audio bytes under</text>
<text text-anchor="start" x="4321.5" y="-882.3" font-family="Arial" font-size="24.00" fill="#ffffff">the configured media root;</text>
<text text-anchor="start" x="4349" y="-858.3" font-family="Arial" font-size="24.00" fill="#ffffff">explicit external roots</text>
<text text-anchor="start" x="4364" y="-834.3" font-family="Arial" font-size="24.00" fill="#ffffff">require mount and</text>
<text text-anchor="start" x="4313.5" y="-810.3" font-family="Arial" font-size="24.00" fill="#ffffff">identity&#45;marker proof before</text>
<text text-anchor="start" x="4422" y="-786.3" font-family="Arial" font-size="24.00" fill="#ffffff">access.</text>
</g>
<!-- 29&#45;&gt;40 -->
<g id="126" class="edge">
<title>29&#45;&gt;40</title>
<path fill="none" stroke="#444444" stroke-dasharray="5,2" d="M3829.11,-1111.48C3934.96,-1078.62 4065.8,-1038 4180.99,-1002.24"/>
<polygon fill="#444444" stroke="#444444" points="4182.16,-1005.54 4190.67,-999.23 4180.08,-998.86 4182.16,-1005.54"/>
<polygon fill="white" stroke="transparent" points="3874.5,-1098 3874.5,-1197 4145.5,-1197 4145.5,-1098 3874.5,-1098"/>
<text text-anchor="start" x="3880.5" y="-1174.3" font-family="Arial" font-size="24.00" fill="#444444">Stages, commits, reads,</text>
<text text-anchor="start" x="3879" y="-1150.3" font-family="Arial" font-size="24.00" fill="#444444">stats, and deletes media</text>
<text text-anchor="start" x="3968.5" y="-1126.3" font-family="Arial" font-size="24.00" fill="#444444">blobs in</text>
<text text-anchor="start" x="3959" y="-1106.3" font-family="Arial" font-size="19.00" fill="#444444">[Filesystem]</text>
</g>
<!-- 41 -->
<g id="41" class="node">
<title>41</title>
<path fill="#2f95c8" stroke="#20688c" d="M4656,-1623.72C4656,-1646.98 4569.49,-1665.88 4463,-1665.88 4356.51,-1665.88 4270,-1646.98 4270,-1623.72 4270,-1623.72 4270,-1244.28 4270,-1244.28 4270,-1221.02 4356.51,-1202.12 4463,-1202.12 4569.49,-1202.12 4656,-1221.02 4656,-1244.28 4656,-1244.28 4656,-1623.72 4656,-1623.72"/>
<path fill="none" stroke="#20688c" d="M4656,-1623.72C4656,-1600.45 4569.49,-1581.56 4463,-1581.56 4356.51,-1581.56 4270,-1600.45 4270,-1623.72"/>
<text text-anchor="start" x="4299" y="-1554.3" font-family="Arial" font-size="34.00" fill="#ffffff">Bounded Local Media</text>
<text text-anchor="start" x="4419.5" y="-1520.3" font-family="Arial" font-size="34.00" fill="#ffffff">Spool</text>
<text text-anchor="start" x="4323" y="-1498.3" font-family="Arial" font-size="19.00" fill="#ffffff">[Container: WSL local filesystem]</text>
<text text-anchor="start" x="4311" y="-1461.3" font-family="Arial" font-size="24.00" fill="#ffffff">Opt&#45;in durable outage buffer</text>
<text text-anchor="start" x="4314.5" y="-1437.3" font-family="Arial" font-size="24.00" fill="#ffffff">beneath the local WSL data</text>
<text text-anchor="start" x="4341.5" y="-1413.3" font-family="Arial" font-size="24.00" fill="#ffffff">root; admission counts</text>
<text text-anchor="start" x="4317.5" y="-1389.3" font-family="Arial" font-size="24.00" fill="#ffffff">committed files and distinct</text>
<text text-anchor="start" x="4311" y="-1365.3" font-family="Arial" font-size="24.00" fill="#ffffff">in&#45;flight SQLite reservations,</text>
<text text-anchor="start" x="4338" y="-1341.3" font-family="Arial" font-size="24.00" fill="#ffffff">and drain verifies bytes</text>
<text text-anchor="start" x="4315.5" y="-1317.3" font-family="Arial" font-size="24.00" fill="#ffffff">before tier transition/source</text>
<text text-anchor="start" x="4417" y="-1293.3" font-family="Arial" font-size="24.00" fill="#ffffff">cleanup.</text>
</g>
<!-- 29&#45;&gt;41 -->
<g id="127" class="edge">
<title>29&#45;&gt;41</title>
<path fill="none" stroke="#444444" stroke-dasharray="5,2" d="M3829.11,-1238.28C3960.2,-1278.82 4129.61,-1331.21 4260.16,-1371.58"/>
<polygon fill="#444444" stroke="#444444" points="4259.3,-1374.98 4269.89,-1374.59 4261.37,-1368.29 4259.3,-1374.98"/>
<polygon fill="white" stroke="transparent" points="3865,-1335 3865,-1434 4155,-1434 4155,-1335 3865,-1335"/>
<text text-anchor="start" x="3880" y="-1411.3" font-family="Arial" font-size="24.00" fill="#444444">Stages, commits, reads,</text>
<text text-anchor="start" x="3869" y="-1387.3" font-family="Arial" font-size="24.00" fill="#444444">stats, and deletes spooled</text>
<text text-anchor="start" x="3964" y="-1363.3" font-family="Arial" font-size="24.00" fill="#444444">media in</text>
<text text-anchor="start" x="3958.5" y="-1343.3" font-family="Arial" font-size="19.00" fill="#444444">[Filesystem]</text>
</g>
<!-- 30&#45;&gt;29 -->
<g id="124" class="edge">
<title>30&#45;&gt;29</title>
<path fill="none" stroke="#444444" stroke-dasharray="5,2" d="M2940.88,-1634.4C2968.24,-1616.07 2995.74,-1597.63 3022,-1580 3150.58,-1493.65 3294.43,-1396.64 3409.11,-1319.22"/>
<polygon fill="#444444" stroke="#444444" points="3411.33,-1321.94 3417.66,-1313.44 3407.41,-1316.14 3411.33,-1321.94"/>
<polygon fill="white" stroke="transparent" points="3093.5,-1547 3093.5,-1633 3346.5,-1633 3346.5,-1547 3093.5,-1547"/>
<text text-anchor="start" x="3098" y="-1609.8" font-family="Arial" font-size="24.00" fill="#444444">Resolves, deletes, and</text>
<text text-anchor="start" x="3106" y="-1583.8" font-family="Arial" font-size="24.00" fill="#444444">inventories contained</text>
<text text-anchor="start" x="3146.5" y="-1557.8" font-family="Arial" font-size="24.00" fill="#444444">bytes through</text>
</g>
<!-- 30&#45;&gt;38 -->
<g id="123" class="edge">
<title>30&#45;&gt;38</title>
<path fill="none" stroke="#444444" stroke-dasharray="5,2" d="M3022.21,-1931.24C3185.88,-2006.73 3356.9,-2091.14 3382,-2125 3440.23,-2203.53 3380.75,-2251.61 3418,-2342 3420.59,-2348.29 3423.34,-2354.57 3426.23,-2360.83"/>
<polygon fill="#444444" stroke="#444444" points="3423.13,-2362.45 3430.56,-2370 3429.45,-2359.46 3423.13,-2362.45"/>
<polygon fill="white" stroke="transparent" points="3058,-2125 3058,-2200 3382,-2200 3382,-2125 3058,-2125"/>
<text text-anchor="start" x="3062" y="-2177.3" font-family="Arial" font-size="24.00" fill="#444444">Reads and advances durable</text>
<text text-anchor="start" x="3094" y="-2153.3" font-family="Arial" font-size="24.00" fill="#444444">blob lifecycle records in</text>
<text text-anchor="start" x="3186.5" y="-2133.3" font-family="Arial" font-size="19.00" fill="#444444">[sqlite3]</text>
</g>
</g>
</svg>
