<?xml version="1.0" encoding="UTF-8" standalone="no"?>
<!DOCTYPE svg PUBLIC "-//W3C//DTD SVG 1.1//EN"
 "http://www.w3.org/Graphics/SVG/1.1/DTD/svg11.dtd">
<!-- Generated by graphviz version 2.43.0 (0)
 -->
<!-- Title: %3 Pages: 1 -->
<svg width="4781pt" height="2191pt"
 viewBox="0.00 0.00 4781.00 2191.00" xmlns="http://www.w3.org/2000/svg" xmlns:xlink="http://www.w3.org/1999/xlink">
<g id="graph0" class="graph" transform="scale(1 1) rotate(0) translate(4 2187)">
<title>%3</title>
<polygon fill="white" stroke="transparent" points="-4,4 -4,-2187 4777,-2187 4777,4 -4,4"/>
<text text-anchor="start" x="1801.5" y="-11.8" font-family="Arial" font-size="34.00">Component View: Browser Memory Daemon &#45; WSL Loopback HTTP Daemon</text>
<g id="clust1" class="cluster">
<title>cluster_4</title>
<polygon fill="none" stroke="#444444" points="8,-64 8,-2175 4765,-2175 4765,-64 8,-64"/>
<text text-anchor="start" x="2245.5" y="-92.8" font-family="Arial" font-size="24.00" fill="#444444">Browser Memory Daemon</text>
<text text-anchor="start" x="2309.5" y="-72.8" font-family="Arial" font-size="19.00" fill="#444444">[Software System]</text>
</g>
<g id="clust2" class="cluster">
<title>cluster_14</title>
<polygon fill="none" stroke="#444444" points="33,-164 33,-1563 3859,-1563 3859,-164 33,-164"/>
<text text-anchor="start" x="1780.5" y="-192.8" font-family="Arial" font-size="24.00" fill="#444444">WSL Loopback HTTP Daemon</text>
<text text-anchor="start" x="1744" y="-172.8" font-family="Arial" font-size="19.00" fill="#444444">[Container: Python 3.11, ThreadingHTTPServer]</text>
</g>
<!-- 15 -->
<g id="15" class="node">
<title>15</title>
<polygon fill="#85bbf0" stroke="#1168bd" points="453,-759.5 58,-759.5 58,-528.5 453,-528.5 453,-759.5"/>
<text text-anchor="start" x="87" y="-711.3" font-family="Arial" font-size="34.00" fill="#000000">HTTP Request Router</text>
<text text-anchor="start" x="119" y="-689.3" font-family="Arial" font-size="19.00" fill="#000000">[Component: Python http.server]</text>
<text text-anchor="start" x="90" y="-652.3" font-family="Arial" font-size="24.00" fill="#000000">Routes loopback API requests,</text>
<text text-anchor="start" x="112.5" y="-628.3" font-family="Arial" font-size="24.00" fill="#000000">serves UI assets, enforces</text>
<text text-anchor="start" x="91.5" y="-604.3" font-family="Arial" font-size="24.00" fill="#000000">bearer auth for memory/admin</text>
<text text-anchor="start" x="106" y="-580.3" font-family="Arial" font-size="24.00" fill="#000000">APIs, and applies CORS for</text>
<text text-anchor="start" x="172" y="-556.3" font-family="Arial" font-size="24.00" fill="#000000">allowed origins.</text>
</g>
<!-- 21 -->
<g id="21" class="node">
<title>21</title>
<polygon fill="#85bbf0" stroke="#1168bd" points="1231,-812.5 810,-812.5 810,-475.5 1231,-475.5 1231,-812.5"/>
<text text-anchor="start" x="917" y="-764.3" font-family="Arial" font-size="34.00" fill="#000000">Media Artifact</text>
<text text-anchor="start" x="953.5" y="-730.3" font-family="Arial" font-size="34.00" fill="#000000">Manager</text>
<text text-anchor="start" x="839" y="-708.3" font-family="Arial" font-size="19.00" fill="#000000">[Component: Python + sqlite3 + filesystem]</text>
<text text-anchor="start" x="883.5" y="-671.3" font-family="Arial" font-size="24.00" fill="#000000">Provides the compatibility</text>
<text text-anchor="start" x="853.5" y="-647.3" font-family="Arial" font-size="24.00" fill="#000000">API, records media references,</text>
<text text-anchor="start" x="885" y="-623.3" font-family="Arial" font-size="24.00" fill="#000000">normalizes bounded blob</text>
<text text-anchor="start" x="873.5" y="-599.3" font-family="Arial" font-size="24.00" fill="#000000">uploads, coordinates public</text>
<text text-anchor="start" x="875" y="-575.3" font-family="Arial" font-size="24.00" fill="#000000">fetch/HLS work, and drains</text>
<text text-anchor="start" x="875" y="-551.3" font-family="Arial" font-size="24.00" fill="#000000">verified spool bytes without</text>
<text text-anchor="start" x="867" y="-527.3" font-family="Arial" font-size="24.00" fill="#000000">coupling text ingest to media</text>
<text text-anchor="start" x="962" y="-503.3" font-family="Arial" font-size="24.00" fill="#000000">availability.</text>
</g>
<!-- 15&#45;&gt;21 -->
<g id="83" class="edge">
<title>15&#45;&gt;21</title>
<path fill="none" stroke="#444444" stroke-dasharray="5,2" d="M453.49,-644C559.46,-644 690.46,-644 799.73,-644"/>
<polygon fill="#444444" stroke="#444444" points="799.9,-647.5 809.9,-644 799.9,-640.5 799.9,-647.5"/>
<polygon fill="white" stroke="transparent" points="489,-644 489,-678 774,-678 774,-644 489,-644"/>
<text text-anchor="start" x="493.5" y="-654.8" font-family="Arial" font-size="24.00" fill="#444444">Routes media requests to</text>
</g>
<!-- 22 -->
<g id="22" class="node">
<title>22</title>
<polygon fill="#85bbf0" stroke="#1168bd" points="3802,-611.5 3455,-611.5 3455,-356.5 3802,-356.5 3802,-611.5"/>
<text text-anchor="start" x="3486.5" y="-563.3" font-family="Arial" font-size="34.00" fill="#000000">Media State Model</text>
<text text-anchor="start" x="3539.5" y="-541.3" font-family="Arial" font-size="19.00" fill="#000000">[Component: Python]</text>
<text text-anchor="start" x="3504" y="-504.3" font-family="Arial" font-size="24.00" fill="#000000">Owns caller&#45;visible and</text>
<text text-anchor="start" x="3487.5" y="-480.3" font-family="Arial" font-size="24.00" fill="#000000">internal artifact/task status</text>
<text text-anchor="start" x="3503.5" y="-456.3" font-family="Arial" font-size="24.00" fill="#000000">taxonomies, fetch&#45;error</text>
<text text-anchor="start" x="3493" y="-432.3" font-family="Arial" font-size="24.00" fill="#000000">classification, and explicit</text>
<text text-anchor="start" x="3484" y="-408.3" font-family="Arial" font-size="24.00" fill="#000000">ordinary versus force&#45;reset</text>
<text text-anchor="start" x="3526.5" y="-384.3" font-family="Arial" font-size="24.00" fill="#000000">transition matrices.</text>
</g>
<!-- 21&#45;&gt;22 -->
<g id="91" class="edge">
<title>21&#45;&gt;22</title>
<path fill="none" stroke="#444444" stroke-dasharray="5,2" d="M1231.22,-496.69C1243.1,-490.63 1255.07,-485.01 1267,-480 1991.12,-175.74 2242.32,-285.19 3027,-320 3187.47,-327.12 3233.32,-305.25 3387,-352 3406.57,-357.95 3426.34,-365.62 3445.7,-374.27"/>
<polygon fill="#444444" stroke="#444444" points="3444.31,-377.48 3454.86,-378.45 3447.22,-371.11 3444.31,-377.48"/>
<polygon fill="white" stroke="transparent" points="2054,-279 2054,-365 2320,-365 2320,-279 2054,-279"/>
<text text-anchor="start" x="2095.5" y="-341.8" font-family="Arial" font-size="24.00" fill="#444444">Classifies artifact</text>
<text text-anchor="start" x="2058" y="-315.8" font-family="Arial" font-size="24.00" fill="#444444">outcomes and transition</text>
<text text-anchor="start" x="2112.5" y="-289.8" font-family="Arial" font-size="24.00" fill="#444444">intent through</text>
</g>
<!-- 23 -->
<g id="23" class="node">
<title>23</title>
<polygon fill="#85bbf0" stroke="#1168bd" points="2912,-895.5 2509,-895.5 2509,-616.5 2912,-616.5 2912,-895.5"/>
<text text-anchor="start" x="2538" y="-847.3" font-family="Arial" font-size="34.00" fill="#000000">Media Task Repository</text>
<text text-anchor="start" x="2582.5" y="-825.3" font-family="Arial" font-size="19.00" fill="#000000">[Component: Python + sqlite3]</text>
<text text-anchor="start" x="2561.5" y="-788.3" font-family="Arial" font-size="24.00" fill="#000000">Creates deterministic tasks,</text>
<text text-anchor="start" x="2577.5" y="-764.3" font-family="Arial" font-size="24.00" fill="#000000">preserves terminal state,</text>
<text text-anchor="start" x="2562.5" y="-740.3" font-family="Arial" font-size="24.00" fill="#000000">atomically leases due work,</text>
<text text-anchor="start" x="2569.5" y="-716.3" font-family="Arial" font-size="24.00" fill="#000000">recovers stale leases, and</text>
<text text-anchor="start" x="2551.5" y="-692.3" font-family="Arial" font-size="24.00" fill="#000000">applies bounded retry/backoff</text>
<text text-anchor="start" x="2551" y="-668.3" font-family="Arial" font-size="24.00" fill="#000000">outcomes independently from</text>
<text text-anchor="start" x="2622.5" y="-644.3" font-family="Arial" font-size="24.00" fill="#000000">media transport.</text>
</g>
<!-- 21&#45;&gt;23 -->
<g id="92" class="edge">
<title>21&#45;&gt;23</title>
<path fill="none" stroke="#444444" stroke-dasharray="5,2" d="M1231.06,-642.88C1321.53,-643.33 1428.53,-645.12 1525,-650 1866.64,-667.3 2262.21,-706.6 2498.8,-732.19"/>
<polygon fill="#444444" stroke="#444444" points="2498.58,-735.68 2508.89,-733.28 2499.33,-728.72 2498.58,-735.68"/>
<polygon fill="white" stroke="transparent" points="1619,-681 1619,-741 1922,-741 1922,-681 1619,-681"/>
<text text-anchor="start" x="1623.5" y="-717.8" font-family="Arial" font-size="24.00" fill="#444444">Creates and claims durable</text>
<text text-anchor="start" x="1664" y="-691.8" font-family="Arial" font-size="24.00" fill="#444444">media work through</text>
</g>
<!-- 24 -->
<g id="24" class="node">
<title>24</title>
<polygon fill="#85bbf0" stroke="#1168bd" points="1980,-1135.5 1561,-1135.5 1561,-832.5 1980,-832.5 1980,-1135.5"/>
<text text-anchor="start" x="1621.5" y="-1087.3" font-family="Arial" font-size="34.00" fill="#000000">Media Artifact Store</text>
<text text-anchor="start" x="1590" y="-1065.3" font-family="Arial" font-size="19.00" fill="#000000">[Component: Python + sqlite3 + BlobStore]</text>
<text text-anchor="start" x="1627.5" y="-1028.3" font-family="Arial" font-size="24.00" fill="#000000">Owns artifact rows, unique</text>
<text text-anchor="start" x="1669.5" y="-1004.3" font-family="Arial" font-size="24.00" fill="#000000">staged publication,</text>
<text text-anchor="start" x="1629.5" y="-980.3" font-family="Arial" font-size="24.00" fill="#000000">failed&#45;write compensation,</text>
<text text-anchor="start" x="1645" y="-956.3" font-family="Arial" font-size="24.00" fill="#000000">contained reads, cache</text>
<text text-anchor="start" x="1653" y="-932.3" font-family="Arial" font-size="24.00" fill="#000000">admission, oldest&#45;first</text>
<text text-anchor="start" x="1624" y="-908.3" font-family="Arial" font-size="24.00" fill="#000000">eviction, purge/rehydration,</text>
<text text-anchor="start" x="1704" y="-884.3" font-family="Arial" font-size="24.00" fill="#000000">and lifecycle</text>
<text text-anchor="start" x="1641" y="-860.3" font-family="Arial" font-size="24.00" fill="#000000">registration/tombstones.</text>
</g>
<!-- 21&#45;&gt;24 -->
<g id="93" class="edge">
<title>21&#45;&gt;24</title>
<path fill="none" stroke="#444444" stroke-dasharray="5,2" d="M1231.29,-661.22C1325.28,-675.47 1434.97,-701.49 1525,-749 1562.6,-768.84 1598.44,-796.19 1630.53,-825.23"/>
<polygon fill="#444444" stroke="#444444" points="1628.43,-828.06 1638.17,-832.24 1633.17,-822.9 1628.43,-828.06"/>
<polygon fill="white" stroke="transparent" points="1267,-749 1267,-835 1525,-835 1525,-749 1267,-749"/>
<text text-anchor="start" x="1288.5" y="-811.8" font-family="Arial" font-size="24.00" fill="#444444">Publishes, resolves,</text>
<text text-anchor="start" x="1271" y="-785.8" font-family="Arial" font-size="24.00" fill="#444444">purges, and rehydrates</text>
<text text-anchor="start" x="1308.5" y="-759.8" font-family="Arial" font-size="24.00" fill="#444444">artifacts through</text>
</g>
<!-- 25 -->
<g id="25" class="node">
<title>25</title>
<polygon fill="#85bbf0" stroke="#1168bd" points="3834,-1191.5 3423,-1191.5 3423,-888.5 3834,-888.5 3834,-1191.5"/>
<text text-anchor="start" x="3472" y="-1143.3" font-family="Arial" font-size="34.00" fill="#000000">Contained BlobStore</text>
<text text-anchor="start" x="3452" y="-1121.3" font-family="Arial" font-size="19.00" fill="#000000">[Component: Python filesystem boundary]</text>
<text text-anchor="start" x="3476" y="-1084.3" font-family="Arial" font-size="24.00" fill="#000000">Prefers root&#45;relative locators</text>
<text text-anchor="start" x="3512.5" y="-1060.3" font-family="Arial" font-size="24.00" fill="#000000">with contained legacy</text>
<text text-anchor="start" x="3497.5" y="-1036.3" font-family="Arial" font-size="24.00" fill="#000000">fallback; streams unique</text>
<text text-anchor="start" x="3513.5" y="-1012.3" font-family="Arial" font-size="24.00" fill="#000000">stages with size/hash</text>
<text text-anchor="start" x="3509.5" y="-988.3" font-family="Arial" font-size="24.00" fill="#000000">accounting; atomically</text>
<text text-anchor="start" x="3481.5" y="-964.3" font-family="Arial" font-size="24.00" fill="#000000">commits; and contains blob</text>
<text text-anchor="start" x="3514" y="-940.3" font-family="Arial" font-size="24.00" fill="#000000">read, stat, and delete</text>
<text text-anchor="start" x="3568" y="-916.3" font-family="Arial" font-size="24.00" fill="#000000">operations.</text>
</g>
<!-- 21&#45;&gt;25 -->
<g id="102" class="edge">
<title>21&#45;&gt;25</title>
<path fill="none" stroke="#444444" stroke-dasharray="5,2" d="M1231.14,-617.91C1556.28,-574.99 2164.83,-484.08 2358,-383 2377.77,-372.65 2373.32,-356.39 2394,-348 2459.17,-321.54 2958.73,-331.09 3027,-348 3202.61,-391.5 3270.35,-399.71 3387,-538 3420.17,-577.32 3403.04,-600.59 3423,-648 3455.85,-726.02 3498.35,-809.57 3536.09,-879.4"/>
<polygon fill="#444444" stroke="#444444" points="3533.06,-881.16 3540.9,-888.28 3539.22,-877.82 3533.06,-881.16"/>
<polygon fill="white" stroke="transparent" points="2052.5,-487 2052.5,-599 2321.5,-599 2321.5,-487 2052.5,-487"/>
<text text-anchor="start" x="2066" y="-575.8" font-family="Arial" font-size="24.00" fill="#444444">Checks current artifact</text>
<text text-anchor="start" x="2070.5" y="-549.8" font-family="Arial" font-size="24.00" fill="#444444">presence during fetch</text>
<text text-anchor="start" x="2057" y="-523.8" font-family="Arial" font-size="24.00" fill="#444444">orchestration and drains</text>
<text text-anchor="start" x="2081.5" y="-497.8" font-family="Arial" font-size="24.00" fill="#444444">spool bytes through</text>
</g>
<!-- 34 -->
<g id="34" class="node">
<title>34</title>
<path fill="#2f95c8" stroke="#20688c" d="M3826,-2099.22C3826,-2127.44 3737.48,-2150.38 3628.5,-2150.38 3519.52,-2150.38 3431,-2127.44 3431,-2099.22 3431,-2099.22 3431,-1638.78 3431,-1638.78 3431,-1610.56 3519.52,-1587.62 3628.5,-1587.62 3737.48,-1587.62 3826,-1610.56 3826,-1638.78 3826,-1638.78 3826,-2099.22 3826,-2099.22"/>
<path fill="none" stroke="#20688c" d="M3826,-2099.22C3826,-2070.99 3737.48,-2048.06 3628.5,-2048.06 3519.52,-2048.06 3431,-2070.99 3431,-2099.22"/>
<text text-anchor="start" x="3515.5" y="-2025.3" font-family="Arial" font-size="34.00" fill="#ffffff">SQLite + FTS5</text>
<text text-anchor="start" x="3555.5" y="-1991.3" font-family="Arial" font-size="34.00" fill="#ffffff">Database</text>
<text text-anchor="start" x="3502.5" y="-1969.3" font-family="Arial" font-size="19.00" fill="#ffffff">[Container: SQLite with FTS5]</text>
<text text-anchor="start" x="3460.5" y="-1932.3" font-family="Arial" font-size="24.00" fill="#ffffff">Durable complete cleaned&#45;text,</text>
<text text-anchor="start" x="3509.5" y="-1908.3" font-family="Arial" font-size="24.00" fill="#ffffff">relational, and full&#45;text</text>
<text text-anchor="start" x="3511" y="-1884.3" font-family="Arial" font-size="24.00" fill="#ffffff">authority for migration</text>
<text text-anchor="start" x="3476.5" y="-1860.3" font-family="Arial" font-size="24.00" fill="#ffffff">ledger, sources, documents,</text>
<text text-anchor="start" x="3479" y="-1836.3" font-family="Arial" font-size="24.00" fill="#ffffff">visits, capture observations,</text>
<text text-anchor="start" x="3497.5" y="-1812.3" font-family="Arial" font-size="24.00" fill="#ffffff">URL claims, visit events,</text>
<text text-anchor="start" x="3460" y="-1788.3" font-family="Arial" font-size="24.00" fill="#ffffff">snapshots, chunks, chunks_fts,</text>
<text text-anchor="start" x="3467.5" y="-1764.3" font-family="Arial" font-size="24.00" fill="#ffffff">media provenance/tasks, blob</text>
<text text-anchor="start" x="3504" y="-1740.3" font-family="Arial" font-size="24.00" fill="#ffffff">lifecycle records, policy</text>
<text text-anchor="start" x="3503" y="-1716.3" font-family="Arial" font-size="24.00" fill="#ffffff">rules, audit events, and</text>
<text text-anchor="start" x="3536.5" y="-1692.3" font-family="Arial" font-size="24.00" fill="#ffffff">deletion receipts.</text>
</g>
<!-- 21&#45;&gt;34 -->
<g id="94" class="edge">
<title>21&#45;&gt;34</title>
<path fill="none" stroke="#444444" stroke-dasharray="5,2" d="M1145,-812.57C1361.07,-1091.22 1838,-1637.23 2394,-1840 2736.82,-1965.02 3169.58,-1936.5 3420.79,-1903.42"/>
<polygon fill="#444444" stroke="#444444" points="3421.31,-1906.88 3430.76,-1902.09 3420.38,-1899.94 3421.31,-1906.88"/>
<polygon fill="white" stroke="transparent" points="2061.5,-1819 2061.5,-1894 2312.5,-1894 2312.5,-1819 2061.5,-1819"/>
<text text-anchor="start" x="2066" y="-1871.3" font-family="Arial" font-size="24.00" fill="#444444">Updates media artifact</text>
<text text-anchor="start" x="2149" y="-1847.3" font-family="Arial" font-size="24.00" fill="#444444">rows in</text>
<text text-anchor="start" x="2154" y="-1827.3" font-family="Arial" font-size="19.00" fill="#444444">[sqlite3]</text>
</g>
<!-- 23&#45;&gt;22 -->
<g id="95" class="edge">
<title>23&#45;&gt;22</title>
<path fill="none" stroke="#444444" stroke-dasharray="5,2" d="M2912.24,-696.39C3071.07,-649.23 3291,-583.92 3444.91,-538.22"/>
<polygon fill="#444444" stroke="#444444" points="3446.36,-541.44 3454.95,-535.24 3444.37,-534.73 3446.36,-541.44"/>
<polygon fill="white" stroke="transparent" points="3108,-644 3108,-730 3342,-730 3342,-644 3108,-644"/>
<text text-anchor="start" x="3115" y="-706.8" font-family="Arial" font-size="24.00" fill="#444444">Validates task status</text>
<text text-anchor="start" x="3115" y="-680.8" font-family="Arial" font-size="24.00" fill="#444444">vocabulary and retry</text>
<text text-anchor="start" x="3112" y="-654.8" font-family="Arial" font-size="24.00" fill="#444444">classification through</text>
</g>
<!-- 23&#45;&gt;34 -->
<g id="96" class="edge">
<title>23&#45;&gt;34</title>
<path fill="none" stroke="#444444" stroke-dasharray="5,2" d="M2912.29,-843.43C2956.33,-871.45 2998.31,-906.72 3027,-950 3085.63,-1038.43 3006.39,-1096.26 3063,-1186 3155.88,-1333.21 3290.36,-1261.23 3387,-1406 3431.09,-1472.04 3391.34,-1508.18 3423,-1581 3425.71,-1587.23 3428.57,-1593.47 3431.56,-1599.69"/>
<polygon fill="#444444" stroke="#444444" points="3428.48,-1601.37 3436.03,-1608.8 3434.77,-1598.28 3428.48,-1601.37"/>
<polygon fill="white" stroke="transparent" points="3088.5,-1406 3088.5,-1481 3361.5,-1481 3361.5,-1406 3088.5,-1406"/>
<text text-anchor="start" x="3114" y="-1458.3" font-family="Arial" font-size="24.00" fill="#444444">Creates, leases, and</text>
<text text-anchor="start" x="3093" y="-1434.3" font-family="Arial" font-size="24.00" fill="#444444">advances media tasks in</text>
<text text-anchor="start" x="3192" y="-1414.3" font-family="Arial" font-size="19.00" fill="#444444">[sqlite3]</text>
</g>
<!-- 24&#45;&gt;22 -->
<g id="97" class="edge">
<title>24&#45;&gt;22</title>
<path fill="none" stroke="#444444" stroke-dasharray="5,2" d="M1980.01,-832.9C1992.09,-825 2004.14,-817.32 2016,-810 2162.38,-719.72 2246.83,-760.21 2358,-629 2390.71,-590.4 2353.4,-551.2 2394,-521 2702.37,-291.64 3184.22,-365.54 3445.03,-430.32"/>
<polygon fill="#444444" stroke="#444444" points="3444.43,-433.78 3454.98,-432.82 3446.13,-426.99 3444.43,-433.78"/>
<polygon fill="white" stroke="transparent" points="2603.5,-521 2603.5,-581 2817.5,-581 2817.5,-521 2603.5,-521"/>
<text text-anchor="start" x="2607.5" y="-557.8" font-family="Arial" font-size="24.00" fill="#444444">Uses artifact status</text>
<text text-anchor="start" x="2624" y="-531.8" font-family="Arial" font-size="24.00" fill="#444444">vocabulary from</text>
</g>
<!-- 24&#45;&gt;23 -->
<g id="98" class="edge">
<title>24&#45;&gt;23</title>
<path fill="none" stroke="#444444" stroke-dasharray="5,2" d="M1980.25,-918.75C1992.32,-915.35 2004.3,-912.08 2016,-909 2176.98,-866.63 2361.04,-826.39 2499.08,-797.83"/>
<polygon fill="#444444" stroke="#444444" points="2499.85,-801.24 2508.93,-795.79 2498.43,-794.39 2499.85,-801.24"/>
<polygon fill="white" stroke="transparent" points="2060,-909 2060,-1021 2314,-1021 2314,-909 2060,-909"/>
<text text-anchor="start" x="2071.5" y="-997.8" font-family="Arial" font-size="24.00" fill="#444444">Marks stored/skipped</text>
<text text-anchor="start" x="2064" y="-971.8" font-family="Arial" font-size="24.00" fill="#444444">outcomes and ensures</text>
<text text-anchor="start" x="2081" y="-945.8" font-family="Arial" font-size="24.00" fill="#444444">retryable fetch work</text>
<text text-anchor="start" x="2145.5" y="-919.8" font-family="Arial" font-size="24.00" fill="#444444">through</text>
</g>
<!-- 24&#45;&gt;25 -->
<g id="100" class="edge">
<title>24&#45;&gt;25</title>
<path fill="none" stroke="#444444" stroke-dasharray="5,2" d="M1980.13,-1030.44C1992.23,-1032.22 2004.25,-1033.77 2016,-1035 2150.87,-1049.13 3005.74,-1044.72 3412.69,-1041.76"/>
<polygon fill="#444444" stroke="#444444" points="3412.84,-1045.25 3422.82,-1041.68 3412.79,-1038.25 3412.84,-1045.25"/>
<polygon fill="white" stroke="transparent" points="2565,-1044 2565,-1156 2856,-1156 2856,-1044 2565,-1044"/>
<text text-anchor="start" x="2571.5" y="-1132.8" font-family="Arial" font-size="24.00" fill="#444444">Stages unique candidates</text>
<text text-anchor="start" x="2602.5" y="-1106.8" font-family="Arial" font-size="24.00" fill="#444444">and contains artifact</text>
<text text-anchor="start" x="2569.5" y="-1080.8" font-family="Arial" font-size="24.00" fill="#444444">commits, reads, stats, and</text>
<text text-anchor="start" x="2627" y="-1054.8" font-family="Arial" font-size="24.00" fill="#444444">deletes through</text>
</g>
<!-- 26 -->
<g id="26" class="node">
<title>26</title>
<polygon fill="#85bbf0" stroke="#1168bd" points="3027,-1537.5 2394,-1537.5 2394,-1224.5 3027,-1224.5 3027,-1537.5"/>
<text text-anchor="start" x="2572" y="-1489.3" font-family="Arial" font-size="34.00" fill="#000000">Blob Lifecycle and</text>
<text text-anchor="start" x="2566" y="-1455.3" font-family="Arial" font-size="34.00" fill="#000000">Storage Reconciler</text>
<text text-anchor="start" x="2529" y="-1433.3" font-family="Arial" font-size="19.00" fill="#000000">[Component: Python + sqlite3 + filesystem]</text>
<text text-anchor="start" x="2667.5" y="-1396.3" font-family="Arial" font-size="24.00" fill="#000000">Persists</text>
<text text-anchor="start" x="2423" y="-1372.3" font-family="Arial" font-size="24.00" fill="#000000">committed/tombstoned/missing/deleted/blocked/failed</text>
<text text-anchor="start" x="2600.5" y="-1348.3" font-family="Arial" font-size="24.00" fill="#000000">blob state; serializes</text>
<text text-anchor="start" x="2564.5" y="-1324.3" font-family="Arial" font-size="24.00" fill="#000000">deletion processors; retries</text>
<text text-anchor="start" x="2578.5" y="-1300.3" font-family="Arial" font-size="24.00" fill="#000000">tombstones; and dry&#45;run</text>
<text text-anchor="start" x="2562" y="-1276.3" font-family="Arial" font-size="24.00" fill="#000000">detects missing refs, in&#45;root</text>
<text text-anchor="start" x="2568" y="-1252.3" font-family="Arial" font-size="24.00" fill="#000000">orphans, and stale stages.</text>
</g>
<!-- 24&#45;&gt;26 -->
<g id="101" class="edge">
<title>24&#45;&gt;26</title>
<path fill="none" stroke="#444444" stroke-dasharray="5,2" d="M1980.13,-1049.75C1992.23,-1053.01 2004.25,-1056.13 2016,-1059 2166.13,-1095.72 2226.62,-1040.59 2358,-1122 2380.67,-1136.05 2374.64,-1151.66 2394,-1170 2411.45,-1186.53 2430.33,-1202.63 2449.88,-1218.09"/>
<polygon fill="#444444" stroke="#444444" points="2447.97,-1221.04 2458,-1224.45 2452.28,-1215.53 2447.97,-1221.04"/>
<polygon fill="white" stroke="transparent" points="2016,-1122 2016,-1260 2358,-1260 2358,-1122 2016,-1122"/>
<text text-anchor="start" x="2041" y="-1236.8" font-family="Arial" font-size="24.00" fill="#444444">Registers committed bytes,</text>
<text text-anchor="start" x="2124" y="-1210.8" font-family="Arial" font-size="24.00" fill="#444444">tombstones</text>
<text text-anchor="start" x="2020" y="-1184.8" font-family="Arial" font-size="24.00" fill="#444444">replacements/purges/evictions,</text>
<text text-anchor="start" x="2068" y="-1158.8" font-family="Arial" font-size="24.00" fill="#444444">and observes deletion</text>
<text text-anchor="start" x="2089.5" y="-1132.8" font-family="Arial" font-size="24.00" fill="#444444">outcomes through</text>
</g>
<!-- 24&#45;&gt;34 -->
<g id="99" class="edge">
<title>24&#45;&gt;34</title>
<path fill="none" stroke="#444444" stroke-dasharray="5,2" d="M1976.92,-1135.52C1977.96,-1137.01 1978.99,-1138.5 1980,-1140 2015.36,-1192.61 1981.22,-1225.01 2016,-1278 2133.08,-1456.39 2201.82,-1481.28 2394,-1574 2573.97,-1660.83 3118.78,-1772.82 3420.64,-1830.65"/>
<polygon fill="#444444" stroke="#444444" points="3420.35,-1834.16 3430.83,-1832.6 3421.66,-1827.29 3420.35,-1834.16"/>
<polygon fill="white" stroke="transparent" points="2553,-1747 2553,-1822 2868,-1822 2868,-1747 2553,-1747"/>
<text text-anchor="start" x="2557.5" y="-1799.3" font-family="Arial" font-size="24.00" fill="#444444">Counts and advances media</text>
<text text-anchor="start" x="2632.5" y="-1775.3" font-family="Arial" font-size="24.00" fill="#444444">artifact rows in</text>
<text text-anchor="start" x="2677.5" y="-1755.3" font-family="Arial" font-size="19.00" fill="#444444">[sqlite3]</text>
</g>
<!-- 36 -->
<g id="36" class="node">
<title>36</title>
<path fill="#2f95c8" stroke="#20688c" d="M4740,-999.22C4740,-1020.82 4618.09,-1038.38 4468,-1038.38 4317.91,-1038.38 4196,-1020.82 4196,-999.22 4196,-999.22 4196,-646.78 4196,-646.78 4196,-625.18 4317.91,-607.62 4468,-607.62 4618.09,-607.62 4740,-625.18 4740,-646.78 4740,-646.78 4740,-999.22 4740,-999.22"/>
<path fill="none" stroke="#20688c" d="M4740,-999.22C4740,-977.61 4618.09,-960.06 4468,-960.06 4317.91,-960.06 4196,-977.61 4196,-999.22"/>
<text text-anchor="start" x="4312.5" y="-931.3" font-family="Arial" font-size="34.00" fill="#ffffff">Guarded Media Blob</text>
<text text-anchor="start" x="4418.5" y="-897.3" font-family="Arial" font-size="34.00" fill="#ffffff">Cache</text>
<text text-anchor="start" x="4225" y="-875.3" font-family="Arial" font-size="19.00" fill="#ffffff">[Container: WSL&#45;visible local or NAS&#45;mounted filesystem]</text>
<text text-anchor="start" x="4358" y="-838.3" font-family="Arial" font-size="24.00" fill="#ffffff">Bounded disposable</text>
<text text-anchor="start" x="4302.5" y="-814.3" font-family="Arial" font-size="24.00" fill="#ffffff">image/video/audio bytes under</text>
<text text-anchor="start" x="4326.5" y="-790.3" font-family="Arial" font-size="24.00" fill="#ffffff">the configured media root;</text>
<text text-anchor="start" x="4354" y="-766.3" font-family="Arial" font-size="24.00" fill="#ffffff">explicit external roots</text>
<text text-anchor="start" x="4369" y="-742.3" font-family="Arial" font-size="24.00" fill="#ffffff">require mount and</text>
<text text-anchor="start" x="4318.5" y="-718.3" font-family="Arial" font-size="24.00" fill="#ffffff">identity&#45;marker proof before</text>
<text text-anchor="start" x="4427" y="-694.3" font-family="Arial" font-size="24.00" fill="#ffffff">access.</text>
</g>
<!-- 25&#45;&gt;36 -->
<g id="110" class="edge">
<title>25&#45;&gt;36</title>
<path fill="none" stroke="#444444" stroke-dasharray="5,2" d="M3834.11,-986.99C3939.86,-959.58 4070.54,-925.72 4185.64,-895.9"/>
<polygon fill="#444444" stroke="#444444" points="4186.87,-899.2 4195.67,-893.3 4185.11,-892.42 4186.87,-899.2"/>
<polygon fill="white" stroke="transparent" points="3879.5,-975 3879.5,-1074 4150.5,-1074 4150.5,-975 3879.5,-975"/>
<text text-anchor="start" x="3885.5" y="-1051.3" font-family="Arial" font-size="24.00" fill="#444444">Stages, commits, reads,</text>
<text text-anchor="start" x="3884" y="-1027.3" font-family="Arial" font-size="24.00" fill="#444444">stats, and deletes media</text>
<text text-anchor="start" x="3973.5" y="-1003.3" font-family="Arial" font-size="24.00" fill="#444444">blobs in</text>
<text text-anchor="start" x="3964" y="-983.3" font-family="Arial" font-size="19.00" fill="#444444">[Filesystem]</text>
</g>
<!-- 37 -->
<g id="37" class="node">
<title>37</title>
<path fill="#2f95c8" stroke="#20688c" d="M4661,-1531.72C4661,-1554.98 4574.49,-1573.88 4468,-1573.88 4361.51,-1573.88 4275,-1554.98 4275,-1531.72 4275,-1531.72 4275,-1152.28 4275,-1152.28 4275,-1129.02 4361.51,-1110.12 4468,-1110.12 4574.49,-1110.12 4661,-1129.02 4661,-1152.28 4661,-1152.28 4661,-1531.72 4661,-1531.72"/>
<path fill="none" stroke="#20688c" d="M4661,-1531.72C4661,-1508.45 4574.49,-1489.56 4468,-1489.56 4361.51,-1489.56 4275,-1508.45 4275,-1531.72"/>
<text text-anchor="start" x="4304" y="-1462.3" font-family="Arial" font-size="34.00" fill="#ffffff">Bounded Local Media</text>
<text text-anchor="start" x="4424.5" y="-1428.3" font-family="Arial" font-size="34.00" fill="#ffffff">Spool</text>
<text text-anchor="start" x="4328" y="-1406.3" font-family="Arial" font-size="19.00" fill="#ffffff">[Container: WSL local filesystem]</text>
<text text-anchor="start" x="4316" y="-1369.3" font-family="Arial" font-size="24.00" fill="#ffffff">Opt&#45;in durable outage buffer</text>
<text text-anchor="start" x="4319.5" y="-1345.3" font-family="Arial" font-size="24.00" fill="#ffffff">beneath the local WSL data</text>
<text text-anchor="start" x="4346.5" y="-1321.3" font-family="Arial" font-size="24.00" fill="#ffffff">root; admission counts</text>
<text text-anchor="start" x="4322.5" y="-1297.3" font-family="Arial" font-size="24.00" fill="#ffffff">committed files and distinct</text>
<text text-anchor="start" x="4316" y="-1273.3" font-family="Arial" font-size="24.00" fill="#ffffff">in&#45;flight SQLite reservations,</text>
<text text-anchor="start" x="4343" y="-1249.3" font-family="Arial" font-size="24.00" fill="#ffffff">and drain verifies bytes</text>
<text text-anchor="start" x="4320.5" y="-1225.3" font-family="Arial" font-size="24.00" fill="#ffffff">before tier transition/source</text>
<text text-anchor="start" x="4422" y="-1201.3" font-family="Arial" font-size="24.00" fill="#ffffff">cleanup.</text>
</g>
<!-- 25&#45;&gt;37 -->
<g id="111" class="edge">
<title>25&#45;&gt;37</title>
<path fill="none" stroke="#444444" stroke-dasharray="5,2" d="M3834.11,-1113.78C3965.2,-1161.05 4134.61,-1222.14 4265.16,-1269.22"/>
<polygon fill="#444444" stroke="#444444" points="4264.3,-1272.63 4274.89,-1272.73 4266.67,-1266.04 4264.3,-1272.63"/>
<polygon fill="white" stroke="transparent" points="3870,-1226 3870,-1325 4160,-1325 4160,-1226 3870,-1226"/>
<text text-anchor="start" x="3885" y="-1302.3" font-family="Arial" font-size="24.00" fill="#444444">Stages, commits, reads,</text>
<text text-anchor="start" x="3874" y="-1278.3" font-family="Arial" font-size="24.00" fill="#444444">stats, and deletes spooled</text>
<text text-anchor="start" x="3969" y="-1254.3" font-family="Arial" font-size="24.00" fill="#444444">media in</text>
<text text-anchor="start" x="3963.5" y="-1234.3" font-family="Arial" font-size="19.00" fill="#444444">[Filesystem]</text>
</g>
<!-- 26&#45;&gt;25 -->
<g id="108" class="edge">
<title>26&#45;&gt;25</title>
<path fill="none" stroke="#444444" stroke-dasharray="5,2" d="M2974.13,-1224.42C2993.31,-1207.44 3011.27,-1189.27 3027,-1170 3053.73,-1137.27 3028.77,-1106.78 3063,-1082 3092.23,-1060.83 3351.01,-1061.7 3387,-1059 3395.41,-1058.37 3403.98,-1057.72 3412.63,-1057.06"/>
<polygon fill="#444444" stroke="#444444" points="3413.13,-1060.53 3422.83,-1056.28 3412.59,-1053.55 3413.13,-1060.53"/>
<polygon fill="white" stroke="transparent" points="3098.5,-1082 3098.5,-1168 3351.5,-1168 3351.5,-1082 3098.5,-1082"/>
<text text-anchor="start" x="3103" y="-1144.8" font-family="Arial" font-size="24.00" fill="#444444">Resolves, deletes, and</text>
<text text-anchor="start" x="3111" y="-1118.8" font-family="Arial" font-size="24.00" fill="#444444">inventories contained</text>
<text text-anchor="start" x="3151.5" y="-1092.8" font-family="Arial" font-size="24.00" fill="#444444">bytes through</text>
</g>
<!-- 26&#45;&gt;34 -->
<g id="107" class="edge">
<title>26&#45;&gt;34</title>
<path fill="none" stroke="#444444" stroke-dasharray="5,2" d="M3027.48,-1486.25C3202.26,-1544.54 3384.84,-1605.6 3387,-1607 3399.2,-1614.92 3411.2,-1623.6 3422.92,-1632.83"/>
<polygon fill="#444444" stroke="#444444" points="3421,-1635.78 3430.99,-1639.31 3425.39,-1630.32 3421,-1635.78"/>
<polygon fill="white" stroke="transparent" points="3063,-1607 3063,-1682 3387,-1682 3387,-1607 3063,-1607"/>
<text text-anchor="start" x="3067" y="-1659.3" font-family="Arial" font-size="24.00" fill="#444444">Reads and advances durable</text>
<text text-anchor="start" x="3099" y="-1635.3" font-family="Arial" font-size="24.00" fill="#444444">blob lifecycle records in</text>
<text text-anchor="start" x="3191.5" y="-1615.3" font-family="Arial" font-size="19.00" fill="#444444">[sqlite3]</text>
</g>
</g>
</svg>
