<?xml version="1.0" encoding="UTF-8" standalone="no"?>
<!DOCTYPE svg PUBLIC "-//W3C//DTD SVG 1.1//EN"
 "http://www.w3.org/Graphics/SVG/1.1/DTD/svg11.dtd">
<!-- Generated by graphviz version 2.43.0 (0)
 -->
<!-- Title: %3 Pages: 1 -->
<svg width="2783pt" height="581pt"
 viewBox="0.00 0.00 2783.00 581.00" xmlns="http://www.w3.org/2000/svg" xmlns:xlink="http://www.w3.org/1999/xlink">
<g id="graph0" class="graph" transform="scale(1 1) rotate(0) translate(4 577)">
<title>%3</title>
<polygon fill="white" stroke="transparent" points="-4,4 -4,-577 2779,-577 2779,4 -4,4"/>
<text text-anchor="start" x="829.5" y="-11.8" font-family="Arial" font-size="34.00">Browser Memory Daemon &#45; WSL Loopback HTTP Daemon &#45; Components</text>
<g id="clust1" class="cluster">
<title>cluster_22</title>
<polygon fill="none" stroke="#444444" points="8,-64 8,-565 2036,-565 2036,-64 8,-64"/>
<text text-anchor="start" x="856.5" y="-92.8" font-family="Arial" font-size="24.00" fill="#444444">WSL Loopback HTTP Daemon</text>
<text text-anchor="start" x="820" y="-72.8" font-family="Arial" font-size="19.00" fill="#444444">[Container: Python 3.11, ThreadingHTTPServer]</text>
</g>
<!-- 49 -->
<g id="49" class="node">
<title>49</title>
<path fill="#2f95c8" stroke="#20688c" d="M2775,-501.22C2775,-519.51 2692.08,-534.38 2590,-534.38 2487.92,-534.38 2405,-519.51 2405,-501.22 2405,-501.22 2405,-202.78 2405,-202.78 2405,-184.49 2487.92,-169.62 2590,-169.62 2692.08,-169.62 2775,-184.49 2775,-202.78 2775,-202.78 2775,-501.22 2775,-501.22"/>
<path fill="none" stroke="#20688c" d="M2775,-501.22C2775,-482.92 2692.08,-468.06 2590,-468.06 2487.92,-468.06 2405,-482.92 2405,-501.22"/>
<text text-anchor="start" x="2477" y="-436.3" font-family="Arial" font-size="34.00" fill="#ffffff">SQLite + FTS5</text>
<text text-anchor="start" x="2517" y="-402.3" font-family="Arial" font-size="34.00" fill="#ffffff">Database</text>
<text text-anchor="start" x="2464" y="-380.3" font-family="Arial" font-size="19.00" fill="#ffffff">[Container: SQLite with FTS5]</text>
<text text-anchor="start" x="2470.5" y="-343.3" font-family="Arial" font-size="24.00" fill="#ffffff">Durable text/metadata</text>
<text text-anchor="start" x="2439" y="-319.3" font-family="Arial" font-size="24.00" fill="#ffffff">authority including migration</text>
<text text-anchor="start" x="2434" y="-295.3" font-family="Arial" font-size="24.00" fill="#ffffff">ledger, capture observations,</text>
<text text-anchor="start" x="2444" y="-271.3" font-family="Arial" font-size="24.00" fill="#ffffff">and immutable observation</text>
<text text-anchor="start" x="2492" y="-247.3" font-family="Arial" font-size="24.00" fill="#ffffff">ingest sequences.</text>
</g>
<!-- 23 -->
<g id="23" class="node">
<title>23</title>
<polygon fill="#85bbf0" stroke="#1168bd" points="527,-539.5 33,-539.5 33,-164.5 527,-164.5 527,-539.5"/>
<text text-anchor="start" x="111.5" y="-491.3" font-family="Arial" font-size="34.00" fill="#000000">HTTP Request Router</text>
<text text-anchor="start" x="62" y="-469.3" font-family="Arial" font-size="19.00" fill="#000000">[Component: Python http.server + route descriptors]</text>
<text text-anchor="start" x="92.5" y="-432.3" font-family="Arial" font-size="24.00" fill="#000000">Adapts BaseHTTPRequestHandler</text>
<text text-anchor="start" x="129.5" y="-408.3" font-family="Arial" font-size="24.00" fill="#000000">requests through immutable</text>
<text text-anchor="start" x="125" y="-384.3" font-family="Arial" font-size="24.00" fill="#000000">method/path descriptors with</text>
<text text-anchor="start" x="119.5" y="-360.3" font-family="Arial" font-size="24.00" fill="#000000">static precedence; owns auth,</text>
<text text-anchor="start" x="174.5" y="-336.3" font-family="Arial" font-size="24.00" fill="#000000">parsing, compatible</text>
<text text-anchor="start" x="155.5" y="-312.3" font-family="Arial" font-size="24.00" fill="#000000">status/error responses,</text>
<text text-anchor="start" x="119.5" y="-288.3" font-family="Arial" font-size="24.00" fill="#000000">request IDs, common security</text>
<text text-anchor="start" x="152" y="-264.3" font-family="Arial" font-size="24.00" fill="#000000">headers, redaction&#45;safe</text>
<text text-anchor="start" x="123.5" y="-240.3" font-family="Arial" font-size="24.00" fill="#000000">telemetry, bounded response</text>
<text text-anchor="start" x="113" y="-216.3" font-family="Arial" font-size="24.00" fill="#000000">streaming, disconnect cleanup,</text>
<text text-anchor="start" x="132.5" y="-192.3" font-family="Arial" font-size="24.00" fill="#000000">CORS, and finite UI assets.</text>
</g>
<!-- 24 -->
<g id="24" class="node">
<title>24</title>
<polygon fill="#85bbf0" stroke="#1168bd" points="1277,-527.5 876,-527.5 876,-176.5 1277,-176.5 1277,-527.5"/>
<text text-anchor="start" x="905" y="-479.3" font-family="Arial" font-size="34.00" fill="#000000">Application Use Cases</text>
<text text-anchor="start" x="987.5" y="-457.3" font-family="Arial" font-size="19.00" fill="#000000">[Component: Python]</text>
<text text-anchor="start" x="914.5" y="-420.3" font-family="Arial" font-size="24.00" fill="#000000">Provides request&#45;independent</text>
<text text-anchor="start" x="951.5" y="-396.3" font-family="Arial" font-size="24.00" fill="#000000">capture, lifecycle, read,</text>
<text text-anchor="start" x="941.5" y="-372.3" font-family="Arial" font-size="24.00" fill="#000000">forget, policy, doctor, and</text>
<text text-anchor="start" x="950.5" y="-348.3" font-family="Arial" font-size="24.00" fill="#000000">media use cases; owns</text>
<text text-anchor="start" x="947.5" y="-324.3" font-family="Arial" font-size="24.00" fill="#000000">database&#45;ready checks,</text>
<text text-anchor="start" x="920.5" y="-300.3" font-family="Arial" font-size="24.00" fill="#000000">transaction/audit boundaries,</text>
<text text-anchor="start" x="924" y="-276.3" font-family="Arial" font-size="24.00" fill="#000000">asynchronous media kickoff,</text>
<text text-anchor="start" x="910.5" y="-252.3" font-family="Arial" font-size="24.00" fill="#000000">and upload/download resource</text>
<text text-anchor="start" x="911.5" y="-228.3" font-family="Arial" font-size="24.00" fill="#000000">leases without importing HTTP</text>
<text text-anchor="start" x="932.5" y="-204.3" font-family="Arial" font-size="24.00" fill="#000000">request or response types.</text>
</g>
<!-- 23&#45;&gt;24 -->
<g id="115" class="edge">
<title>23&#45;&gt;24</title>
<path fill="none" stroke="#707070" stroke-dasharray="5,2" d="M527.22,-352C635.59,-352 761.59,-352 865.45,-352"/>
<polygon fill="#707070" stroke="#707070" points="865.75,-355.5 875.75,-352 865.75,-348.5 865.75,-355.5"/>
<polygon fill="white" stroke="transparent" points="563,-352 563,-438 840,-438 840,-352 563,-352"/>
<text text-anchor="start" x="620" y="-414.8" font-family="Arial" font-size="24.00" fill="#707070">Invokes explicit</text>
<text text-anchor="start" x="567.5" y="-388.8" font-family="Arial" font-size="24.00" fill="#707070">request&#45;independent use</text>
<text text-anchor="start" x="625.5" y="-362.8" font-family="Arial" font-size="24.00" fill="#707070">cases through</text>
</g>
<!-- 25 -->
<g id="25" class="node">
<title>25</title>
<polygon fill="#85bbf0" stroke="#1168bd" points="2011,-496.5 1637,-496.5 1637,-207.5 2011,-207.5 2011,-496.5"/>
<text text-anchor="start" x="1676.5" y="-448.3" font-family="Arial" font-size="34.00" fill="#000000">Database Migration</text>
<text text-anchor="start" x="1775" y="-414.3" font-family="Arial" font-size="34.00" fill="#000000">Kernel</text>
<text text-anchor="start" x="1696" y="-392.3" font-family="Arial" font-size="19.00" fill="#000000">[Component: Python + sqlite3]</text>
<text text-anchor="start" x="1742.5" y="-355.3" font-family="Arial" font-size="24.00" fill="#000000">Validates exact</text>
<text text-anchor="start" x="1697" y="-331.3" font-family="Arial" font-size="24.00" fill="#000000">ledgers/fingerprints and</text>
<text text-anchor="start" x="1681" y="-307.3" font-family="Arial" font-size="24.00" fill="#000000">applies transactional steps</text>
<text text-anchor="start" x="1669" y="-283.3" font-family="Arial" font-size="24.00" fill="#000000">through version 14, including</text>
<text text-anchor="start" x="1666" y="-259.3" font-family="Arial" font-size="24.00" fill="#000000">immutable observation ingest</text>
<text text-anchor="start" x="1762" y="-235.3" font-family="Arial" font-size="24.00" fill="#000000">sequences.</text>
</g>
<!-- 24&#45;&gt;25 -->
<g id="118" class="edge">
<title>24&#45;&gt;25</title>
<path fill="none" stroke="#707070" stroke-dasharray="5,2" d="M1277.28,-352C1385.61,-352 1518.97,-352 1626.75,-352"/>
<polygon fill="#707070" stroke="#707070" points="1626.76,-355.5 1636.76,-352 1626.76,-348.5 1626.76,-355.5"/>
<polygon fill="white" stroke="transparent" points="1313,-352 1313,-412 1601,-412 1601,-352 1313,-352"/>
<text text-anchor="start" x="1346.5" y="-388.8" font-family="Arial" font-size="24.00" fill="#707070">Requires compatible</text>
<text text-anchor="start" x="1317" y="-362.8" font-family="Arial" font-size="24.00" fill="#707070">initialized schema through</text>
</g>
<!-- 25&#45;&gt;49 -->
<g id="170" class="edge">
<title>25&#45;&gt;49</title>
<path fill="none" stroke="#707070" stroke-dasharray="5,2" d="M2011.41,-352C2127.62,-352 2276.9,-352 2394.59,-352"/>
<polygon fill="#707070" stroke="#707070" points="2394.79,-355.5 2404.79,-352 2394.79,-348.5 2394.79,-355.5"/>
<polygon fill="white" stroke="transparent" points="2047,-352 2047,-451 2369,-451 2369,-352 2047,-352"/>
<text text-anchor="start" x="2080" y="-428.3" font-family="Arial" font-size="24.00" fill="#707070">Validates and advances</text>
<text text-anchor="start" x="2071" y="-404.3" font-family="Arial" font-size="24.00" fill="#707070">schema ledger/fingerprint</text>
<text text-anchor="start" x="2198.5" y="-380.3" font-family="Arial" font-size="24.00" fill="#707070">in</text>
<text text-anchor="start" x="2051" y="-360.3" font-family="Arial" font-size="19.00" fill="#707070">[sqlite3 online backup + transactions]</text>
</g>
</g>
</svg>
