<?xml version="1.0" encoding="UTF-8" standalone="no"?>
<!DOCTYPE svg PUBLIC "-//W3C//DTD SVG 1.1//EN"
 "http://www.w3.org/Graphics/SVG/1.1/DTD/svg11.dtd">
<!-- Generated by graphviz version 2.43.0 (0)
 -->
<!-- Title: %3 Pages: 1 -->
<svg width="1935pt" height="767pt"
 viewBox="0.00 0.00 1935.00 767.00" xmlns="http://www.w3.org/2000/svg" xmlns:xlink="http://www.w3.org/1999/xlink">
<g id="graph0" class="graph" transform="scale(1 1) rotate(0) translate(4 763)">
<title>%3</title>
<polygon fill="white" stroke="transparent" points="-4,4 -4,-763 1931,-763 1931,4 -4,4"/>
<text text-anchor="start" x="378.5" y="-11.8" font-family="Arial" font-size="34.00">Component View: Browser Memory Daemon &#45; WSL Loopback HTTP Daemon</text>
<g id="clust1" class="cluster">
<title>cluster_4</title>
<polygon fill="none" stroke="#444444" points="8,-64 8,-751 1919,-751 1919,-64 8,-64"/>
<text text-anchor="start" x="822.5" y="-92.8" font-family="Arial" font-size="24.00" fill="#444444">Browser Memory Daemon</text>
<text text-anchor="start" x="886.5" y="-72.8" font-family="Arial" font-size="19.00" fill="#444444">[Software System]</text>
</g>
<g id="clust2" class="cluster">
<title>cluster_22</title>
<polygon fill="none" stroke="#444444" points="33,-217 33,-598 1189,-598 1189,-217 33,-217"/>
<text text-anchor="start" x="445.5" y="-245.8" font-family="Arial" font-size="24.00" fill="#444444">WSL Loopback HTTP Daemon</text>
<text text-anchor="start" x="409" y="-225.8" font-family="Arial" font-size="19.00" fill="#444444">[Container: Python 3.11, ThreadingHTTPServer]</text>
</g>
<!-- 23 -->
<g id="23" class="node">
<title>23</title>
<polygon fill="#85bbf0" stroke="#1168bd" points="453,-560.5 58,-560.5 58,-329.5 453,-329.5 453,-560.5"/>
<text text-anchor="start" x="87" y="-512.3" font-family="Arial" font-size="34.00" fill="#000000">HTTP Request Router</text>
<text text-anchor="start" x="119" y="-490.3" font-family="Arial" font-size="19.00" fill="#000000">[Component: Python http.server]</text>
<text text-anchor="start" x="90" y="-453.3" font-family="Arial" font-size="24.00" fill="#000000">Routes loopback API requests,</text>
<text text-anchor="start" x="112.5" y="-429.3" font-family="Arial" font-size="24.00" fill="#000000">serves UI assets, enforces</text>
<text text-anchor="start" x="91.5" y="-405.3" font-family="Arial" font-size="24.00" fill="#000000">bearer auth for memory/admin</text>
<text text-anchor="start" x="106" y="-381.3" font-family="Arial" font-size="24.00" fill="#000000">APIs, and applies CORS for</text>
<text text-anchor="start" x="172" y="-357.3" font-family="Arial" font-size="24.00" fill="#000000">allowed origins.</text>
</g>
<!-- 28 -->
<g id="28" class="node">
<title>28</title>
<polygon fill="#85bbf0" stroke="#1168bd" points="1164,-572.5 807,-572.5 807,-317.5 1164,-317.5 1164,-572.5"/>
<text text-anchor="start" x="854" y="-524.3" font-family="Arial" font-size="34.00" fill="#000000">Lifecycle Pipeline</text>
<text text-anchor="start" x="857.5" y="-502.3" font-family="Arial" font-size="19.00" fill="#000000">[Component: Python + sqlite3]</text>
<text text-anchor="start" x="836" y="-465.3" font-family="Arial" font-size="24.00" fill="#000000">Stores claimed/resolved tab</text>
<text text-anchor="start" x="840.5" y="-441.3" font-family="Arial" font-size="24.00" fill="#000000">lifecycle identity, reconciles</text>
<text text-anchor="start" x="838.5" y="-417.3" font-family="Arial" font-size="24.00" fill="#000000">delayed captures, validates</text>
<text text-anchor="start" x="836" y="-393.3" font-family="Arial" font-size="24.00" fill="#000000">active intervals, and derives</text>
<text text-anchor="start" x="863.5" y="-369.3" font-family="Arial" font-size="24.00" fill="#000000">visit dwell from interval</text>
<text text-anchor="start" x="946" y="-345.3" font-family="Arial" font-size="24.00" fill="#000000">unions.</text>
</g>
<!-- 23&#45;&gt;28 -->
<g id="117" class="edge">
<title>23&#45;&gt;28</title>
<path fill="none" stroke="#444444" stroke-dasharray="5,2" d="M453.03,-445C559.81,-445 691.18,-445 796.6,-445"/>
<polygon fill="#444444" stroke="#444444" points="796.71,-448.5 806.71,-445 796.71,-441.5 796.71,-448.5"/>
<polygon fill="white" stroke="transparent" points="489,-445 489,-479 771,-479 771,-445 489,-445"/>
<text text-anchor="start" x="493" y="-455.8" font-family="Arial" font-size="24.00" fill="#444444">Routes lifecycle events to</text>
</g>
<!-- 47 -->
<g id="47" class="node">
<title>47</title>
<path fill="#2f95c8" stroke="#20688c" d="M1894,-675.22C1894,-703.44 1805.48,-726.38 1696.5,-726.38 1587.52,-726.38 1499,-703.44 1499,-675.22 1499,-675.22 1499,-214.78 1499,-214.78 1499,-186.56 1587.52,-163.62 1696.5,-163.62 1805.48,-163.62 1894,-186.56 1894,-214.78 1894,-214.78 1894,-675.22 1894,-675.22"/>
<path fill="none" stroke="#20688c" d="M1894,-675.22C1894,-646.99 1805.48,-624.06 1696.5,-624.06 1587.52,-624.06 1499,-646.99 1499,-675.22"/>
<text text-anchor="start" x="1583.5" y="-601.3" font-family="Arial" font-size="34.00" fill="#ffffff">SQLite + FTS5</text>
<text text-anchor="start" x="1623.5" y="-567.3" font-family="Arial" font-size="34.00" fill="#ffffff">Database</text>
<text text-anchor="start" x="1570.5" y="-545.3" font-family="Arial" font-size="19.00" fill="#ffffff">[Container: SQLite with FTS5]</text>
<text text-anchor="start" x="1528.5" y="-508.3" font-family="Arial" font-size="24.00" fill="#ffffff">Durable complete cleaned&#45;text,</text>
<text text-anchor="start" x="1577.5" y="-484.3" font-family="Arial" font-size="24.00" fill="#ffffff">relational, and full&#45;text</text>
<text text-anchor="start" x="1579" y="-460.3" font-family="Arial" font-size="24.00" fill="#ffffff">authority for migration</text>
<text text-anchor="start" x="1544.5" y="-436.3" font-family="Arial" font-size="24.00" fill="#ffffff">ledger, sources, documents,</text>
<text text-anchor="start" x="1547" y="-412.3" font-family="Arial" font-size="24.00" fill="#ffffff">visits, capture observations,</text>
<text text-anchor="start" x="1565.5" y="-388.3" font-family="Arial" font-size="24.00" fill="#ffffff">URL claims, visit events,</text>
<text text-anchor="start" x="1528" y="-364.3" font-family="Arial" font-size="24.00" fill="#ffffff">snapshots, chunks, chunks_fts,</text>
<text text-anchor="start" x="1535.5" y="-340.3" font-family="Arial" font-size="24.00" fill="#ffffff">media provenance/tasks, blob</text>
<text text-anchor="start" x="1572" y="-316.3" font-family="Arial" font-size="24.00" fill="#ffffff">lifecycle records, policy</text>
<text text-anchor="start" x="1571" y="-292.3" font-family="Arial" font-size="24.00" fill="#ffffff">rules, audit events, and</text>
<text text-anchor="start" x="1604.5" y="-268.3" font-family="Arial" font-size="24.00" fill="#ffffff">deletion receipts.</text>
</g>
<!-- 28&#45;&gt;47 -->
<g id="126" class="edge">
<title>28&#45;&gt;47</title>
<path fill="none" stroke="#444444" stroke-dasharray="5,2" d="M1164.04,-445C1262.58,-445 1385.67,-445 1488.56,-445"/>
<polygon fill="#444444" stroke="#444444" points="1488.77,-448.5 1498.77,-445 1488.77,-441.5 1488.77,-448.5"/>
<polygon fill="white" stroke="transparent" points="1200,-445 1200,-544 1463,-544 1463,-445 1200,-445"/>
<text text-anchor="start" x="1210" y="-521.3" font-family="Arial" font-size="24.00" fill="#444444">Writes lifecycle identity</text>
<text text-anchor="start" x="1204.5" y="-497.3" font-family="Arial" font-size="24.00" fill="#444444">and interval&#45;union dwell</text>
<text text-anchor="start" x="1321.5" y="-473.3" font-family="Arial" font-size="24.00" fill="#444444">to</text>
<text text-anchor="start" x="1298.5" y="-453.3" font-family="Arial" font-size="19.00" fill="#444444">[sqlite3]</text>
</g>
</g>
</svg>
