<?xml version="1.0" encoding="UTF-8" standalone="no"?>
<!DOCTYPE svg PUBLIC "-//W3C//DTD SVG 1.1//EN"
 "http://www.w3.org/Graphics/SVG/1.1/DTD/svg11.dtd">
<!-- Generated by graphviz version 2.43.0 (0)
 -->
<!-- Title: %3 Pages: 1 -->
<svg width="1562pt" height="1678pt"
 viewBox="0.00 0.00 1562.00 1677.75" xmlns="http://www.w3.org/2000/svg" xmlns:xlink="http://www.w3.org/1999/xlink">
<g id="graph0" class="graph" transform="scale(1 1) rotate(0) translate(4 1673.75)">
<title>%3</title>
<polygon fill="white" stroke="transparent" points="-4,4 -4,-1673.75 1558,-1673.75 1558,4 -4,4"/>
<text text-anchor="start" x="454.5" y="-11.8" font-family="Arial" font-size="34.00">Container View: Browser Memory Daemon</text>
<g id="clust1" class="cluster">
<title>cluster_4</title>
<polygon fill="none" stroke="#444444" points="8,-64 8,-1661.75 1045,-1661.75 1045,-64 8,-64"/>
<text text-anchor="start" x="385.5" y="-92.8" font-family="Arial" font-size="24.00" fill="#444444">Browser Memory Daemon</text>
<text text-anchor="start" x="449.5" y="-72.8" font-family="Arial" font-size="19.00" fill="#444444">[Software System]</text>
</g>
<!-- 2 -->
<g id="2" class="node">
<title>2</title>
<polygon fill="#999999" stroke="#6b6b6b" points="1478,-1096.06 1092,-1096.06 1092,-865.06 1478,-865.06 1478,-1096.06"/>
<text text-anchor="start" x="1150.5" y="-1047.86" font-family="Arial" font-size="34.00" fill="#ffffff">Windows Chrome</text>
<text text-anchor="start" x="1208" y="-1025.86" font-family="Arial" font-size="19.00" fill="#ffffff">[Software System]</text>
<text text-anchor="start" x="1121" y="-988.86" font-family="Arial" font-size="24.00" fill="#ffffff">The Windows Chrome runtime</text>
<text text-anchor="start" x="1134.5" y="-964.86" font-family="Arial" font-size="24.00" fill="#ffffff">that loads web pages, hosts</text>
<text text-anchor="start" x="1134" y="-940.86" font-family="Arial" font-size="24.00" fill="#ffffff">the MV3 extension, runs the</text>
<text text-anchor="start" x="1126" y="-916.86" font-family="Arial" font-size="24.00" fill="#ffffff">local UI in a tab, and exposes</text>
<text text-anchor="start" x="1155.5" y="-892.86" font-family="Arial" font-size="24.00" fill="#ffffff">Chrome extension APIs.</text>
</g>
<!-- 13 -->
<g id="13" class="node">
<title>13</title>
<path fill="#2f95c8" stroke="#20688c" d="M485.5,-1129.78C485.5,-1148.08 383.98,-1162.94 259,-1162.94 134.02,-1162.94 32.5,-1148.08 32.5,-1129.78 32.5,-1129.78 32.5,-831.35 32.5,-831.35 32.5,-813.05 134.02,-798.19 259,-798.19 383.98,-798.19 485.5,-813.05 485.5,-831.35 485.5,-831.35 485.5,-1129.78 485.5,-1129.78"/>
<path fill="none" stroke="#20688c" d="M485.5,-1129.78C485.5,-1111.48 383.98,-1096.62 259,-1096.62 134.02,-1096.62 32.5,-1111.48 32.5,-1129.78"/>
<text text-anchor="start" x="117" y="-1064.86" font-family="Arial" font-size="34.00" fill="#ffffff">Extension Browser</text>
<text text-anchor="start" x="199.5" y="-1030.86" font-family="Arial" font-size="34.00" fill="#ffffff">Storage</text>
<text text-anchor="start" x="61.5" y="-1008.86" font-family="Arial" font-size="19.00" fill="#ffffff">[Container: chrome.storage.local + IndexedDB]</text>
<text text-anchor="start" x="126.5" y="-971.86" font-family="Arial" font-size="24.00" fill="#ffffff">Browser&#45;side storage for</text>
<text text-anchor="start" x="114.5" y="-947.86" font-family="Arial" font-size="24.00" fill="#ffffff">capture and visit queues in</text>
<text text-anchor="start" x="120.5" y="-923.86" font-family="Arial" font-size="24.00" fill="#ffffff">chrome.storage.local plus</text>
<text text-anchor="start" x="126.5" y="-899.86" font-family="Arial" font-size="24.00" fill="#ffffff">durable media tasks and</text>
<text text-anchor="start" x="107.5" y="-875.86" font-family="Arial" font-size="24.00" fill="#ffffff">fetched blobs in IndexedDB.</text>
</g>
<!-- 14 -->
<g id="14" class="node">
<title>14</title>
<polygon fill="#438dd5" stroke="#2e6295" points="1020,-1149.06 558,-1149.06 558,-812.06 1020,-812.06 1020,-1149.06"/>
<text text-anchor="start" x="624.5" y="-1100.86" font-family="Arial" font-size="34.00" fill="#ffffff">WSL Loopback HTTP</text>
<text text-anchor="start" x="724.5" y="-1066.86" font-family="Arial" font-size="34.00" fill="#ffffff">Daemon</text>
<text text-anchor="start" x="587" y="-1044.86" font-family="Arial" font-size="19.00" fill="#ffffff">[Container: Python 3.11, ThreadingHTTPServer]</text>
<text text-anchor="start" x="628" y="-1007.86" font-family="Arial" font-size="24.00" fill="#ffffff">Authenticated loopback HTTP</text>
<text text-anchor="start" x="653" y="-983.86" font-family="Arial" font-size="24.00" fill="#ffffff">API that handles capture,</text>
<text text-anchor="start" x="649.5" y="-959.86" font-family="Arial" font-size="24.00" fill="#ffffff">visit events, media artifact</text>
<text text-anchor="start" x="652.5" y="-935.86" font-family="Arial" font-size="24.00" fill="#ffffff">upload/fetch/purge, exact</text>
<text text-anchor="start" x="749" y="-911.86" font-family="Arial" font-size="24.00" fill="#ffffff">search,</text>
<text text-anchor="start" x="640" y="-887.86" font-family="Arial" font-size="24.00" fill="#ffffff">recent/timeline/detail, policy</text>
<text text-anchor="start" x="658" y="-863.86" font-family="Arial" font-size="24.00" fill="#ffffff">rules, doctor, forget, and</text>
<text text-anchor="start" x="699.5" y="-839.86" font-family="Arial" font-size="24.00" fill="#ffffff">static UI serving.</text>
</g>
<!-- 28 -->
<g id="28" class="node">
<title>28</title>
<path fill="#2f95c8" stroke="#20688c" d="M498.5,-585.4C498.5,-608.67 409.98,-627.56 301,-627.56 192.02,-627.56 103.5,-608.67 103.5,-585.4 103.5,-585.4 103.5,-205.97 103.5,-205.97 103.5,-182.71 192.02,-163.81 301,-163.81 409.98,-163.81 498.5,-182.71 498.5,-205.97 498.5,-205.97 498.5,-585.4 498.5,-585.4"/>
<path fill="none" stroke="#20688c" d="M498.5,-585.4C498.5,-562.14 409.98,-543.24 301,-543.24 192.02,-543.24 103.5,-562.14 103.5,-585.4"/>
<text text-anchor="start" x="188" y="-515.99" font-family="Arial" font-size="34.00" fill="#ffffff">SQLite + FTS5</text>
<text text-anchor="start" x="228" y="-481.99" font-family="Arial" font-size="34.00" fill="#ffffff">Database</text>
<text text-anchor="start" x="175" y="-459.99" font-family="Arial" font-size="19.00" fill="#ffffff">[Container: SQLite with FTS5]</text>
<text text-anchor="start" x="182" y="-422.99" font-family="Arial" font-size="24.00" fill="#ffffff">Durable relational and</text>
<text text-anchor="start" x="160.5" y="-398.99" font-family="Arial" font-size="24.00" fill="#ffffff">full&#45;text store for migration</text>
<text text-anchor="start" x="149" y="-374.99" font-family="Arial" font-size="24.00" fill="#ffffff">ledger, sources, documents,</text>
<text text-anchor="start" x="204.5" y="-350.99" font-family="Arial" font-size="24.00" fill="#ffffff">visits, visit events,</text>
<text text-anchor="start" x="132.5" y="-326.99" font-family="Arial" font-size="24.00" fill="#ffffff">snapshots, chunks, chunks_fts,</text>
<text text-anchor="start" x="152.5" y="-302.99" font-family="Arial" font-size="24.00" fill="#ffffff">media artifacts, media fetch</text>
<text text-anchor="start" x="172.5" y="-278.99" font-family="Arial" font-size="24.00" fill="#ffffff">tasks, policy rules, audit</text>
<text text-anchor="start" x="143" y="-254.99" font-family="Arial" font-size="24.00" fill="#ffffff">events, and deletion receipts.</text>
</g>
<!-- 14&#45;&gt;28 -->
<g id="44" class="edge">
<title>14&#45;&gt;28</title>
<path fill="none" stroke="#444444" stroke-dasharray="5,2" d="M557.75,-822.24C545.36,-814.12 533.05,-806.12 521,-798.38 495.16,-781.77 482.23,-785.49 462,-762.38 429.84,-725.62 403.2,-681.43 381.46,-636.67"/>
<polygon fill="#444444" stroke="#444444" points="384.51,-634.92 377.04,-627.41 378.19,-637.94 384.51,-634.92"/>
<polygon fill="white" stroke="transparent" points="462,-663.38 462,-762.38 772,-762.38 772,-663.38 462,-663.38"/>
<text text-anchor="start" x="466" y="-739.67" font-family="Arial" font-size="24.00" fill="#444444">Reads and writes metadata,</text>
<text text-anchor="start" x="499" y="-715.67" font-family="Arial" font-size="24.00" fill="#444444">FTS, tasks, audit, and</text>
<text text-anchor="start" x="561.5" y="-691.67" font-family="Arial" font-size="24.00" fill="#444444">receipts in</text>
<text text-anchor="start" x="583.5" y="-671.67" font-family="Arial" font-size="19.00" fill="#444444">[sqlite3]</text>
</g>
<!-- 29 -->
<g id="29" class="node">
<title>29</title>
<path fill="#2f95c8" stroke="#20688c" d="M1009,-511.97C1009,-526.23 910.84,-537.81 790,-537.81 669.16,-537.81 571,-526.23 571,-511.97 571,-511.97 571,-279.4 571,-279.4 571,-265.14 669.16,-253.56 790,-253.56 910.84,-253.56 1009,-265.14 1009,-279.4 1009,-279.4 1009,-511.97 1009,-511.97"/>
<path fill="none" stroke="#20688c" d="M1009,-511.97C1009,-497.71 910.84,-486.13 790,-486.13 669.16,-486.13 571,-497.71 571,-511.97"/>
<text text-anchor="start" x="625.5" y="-450.99" font-family="Arial" font-size="34.00" fill="#ffffff">Clean Text Blob Store</text>
<text text-anchor="start" x="600" y="-428.99" font-family="Arial" font-size="19.00" fill="#ffffff">[Container: WSL or NAS&#45;mounted filesystem]</text>
<text text-anchor="start" x="631.5" y="-391.99" font-family="Arial" font-size="24.00" fill="#ffffff">Filesystem store for snapshot</text>
<text text-anchor="start" x="683" y="-367.99" font-family="Arial" font-size="24.00" fill="#ffffff">text blobs under the</text>
<text text-anchor="start" x="640" y="-343.99" font-family="Arial" font-size="24.00" fill="#ffffff">configured WSL&#45;visible blob</text>
<text text-anchor="start" x="765.5" y="-319.99" font-family="Arial" font-size="24.00" fill="#ffffff">root.</text>
</g>
<!-- 14&#45;&gt;29 -->
<g id="45" class="edge">
<title>14&#45;&gt;29</title>
<path fill="none" stroke="#444444" stroke-dasharray="5,2" d="M789.29,-811.75C789.43,-728.7 789.6,-629.21 789.74,-548.46"/>
<polygon fill="#444444" stroke="#444444" points="793.24,-548.21 789.76,-538.2 786.24,-548.2 793.24,-548.21"/>
<polygon fill="white" stroke="transparent" points="790,-675.38 790,-750.38 1031,-750.38 1031,-675.38 790,-675.38"/>
<text text-anchor="start" x="794.5" y="-727.67" font-family="Arial" font-size="24.00" fill="#444444">Reads and writes text</text>
<text text-anchor="start" x="843" y="-703.67" font-family="Arial" font-size="24.00" fill="#444444">snapshots in</text>
<text text-anchor="start" x="859.5" y="-683.67" font-family="Arial" font-size="19.00" fill="#444444">[Filesystem]</text>
</g>
<!-- 5 -->
<g id="5" class="node">
<title>5</title>
<polygon fill="#438dd5" stroke="#2e6295" points="742,-1636.75 308,-1636.75 308,-1357.75 742,-1357.75 742,-1636.75"/>
<text text-anchor="start" x="345" y="-1588.55" font-family="Arial" font-size="34.00" fill="#ffffff">Chrome MV3 Extension</text>
<text text-anchor="start" x="337" y="-1566.55" font-family="Arial" font-size="19.00" fill="#ffffff">[Container: JavaScript, Chrome Manifest V3]</text>
<text text-anchor="start" x="382" y="-1529.55" font-family="Arial" font-size="24.00" fill="#ffffff">Captures visible page text,</text>
<text text-anchor="start" x="407.5" y="-1505.55" font-family="Arial" font-size="24.00" fill="#ffffff">media references, tab</text>
<text text-anchor="start" x="416" y="-1481.55" font-family="Arial" font-size="24.00" fill="#ffffff">lifecycle events, and</text>
<text text-anchor="start" x="359" y="-1457.55" font-family="Arial" font-size="24.00" fill="#ffffff">browser&#45;side media bytes from</text>
<text text-anchor="start" x="354" y="-1433.55" font-family="Arial" font-size="24.00" fill="#ffffff">Windows Chrome; queues work</text>
<text text-anchor="start" x="366" y="-1409.55" font-family="Arial" font-size="24.00" fill="#ffffff">durably and posts to the WSL</text>
<text text-anchor="start" x="477.5" y="-1385.55" font-family="Arial" font-size="24.00" fill="#ffffff">daemon.</text>
</g>
<!-- 5&#45;&gt;2 -->
<g id="36" class="edge">
<title>5&#45;&gt;2</title>
<path fill="none" stroke="#444444" stroke-dasharray="5,2" d="M742.14,-1462.56C909.52,-1432.39 1122.75,-1383.43 1186,-1321.75 1243.41,-1265.76 1268.02,-1178.58 1278.35,-1106.49"/>
<polygon fill="#444444" stroke="#444444" points="1281.84,-1106.8 1279.72,-1096.42 1274.91,-1105.86 1281.84,-1106.8"/>
<polygon fill="white" stroke="transparent" points="1257,-1210.75 1257,-1309.75 1554,-1309.75 1554,-1210.75 1257,-1210.75"/>
<text text-anchor="start" x="1303" y="-1287.05" font-family="Arial" font-size="24.00" fill="#444444">Uses tab, scripting,</text>
<text text-anchor="start" x="1261.5" y="-1263.05" font-family="Arial" font-size="24.00" fill="#444444">storage, alarms, debugger,</text>
<text text-anchor="start" x="1286" y="-1239.05" font-family="Arial" font-size="24.00" fill="#444444">and runtime APIs from</text>
<text text-anchor="start" x="1301" y="-1219.05" font-family="Arial" font-size="19.00" fill="#444444">[Chrome extension APIs]</text>
</g>
<!-- 5&#45;&gt;13 -->
<g id="38" class="edge">
<title>5&#45;&gt;13</title>
<path fill="none" stroke="#444444" stroke-dasharray="5,2" d="M313.7,-1357.47C304.4,-1346.22 296.04,-1334.31 289,-1321.75 263.99,-1277.15 252.43,-1223.98 248.09,-1173.09"/>
<polygon fill="#444444" stroke="#444444" points="251.57,-1172.65 247.32,-1162.95 244.59,-1173.18 251.57,-1172.65"/>
<polygon fill="white" stroke="transparent" points="289,-1210.75 289,-1309.75 600,-1309.75 600,-1210.75 289,-1210.75"/>
<text text-anchor="start" x="303" y="-1287.05" font-family="Arial" font-size="24.00" fill="#444444">Queues captures, lifecycle</text>
<text text-anchor="start" x="311" y="-1263.05" font-family="Arial" font-size="24.00" fill="#444444">events, media tasks, and</text>
<text text-anchor="start" x="403" y="-1239.05" font-family="Arial" font-size="24.00" fill="#444444">blobs in</text>
<text text-anchor="start" x="293.5" y="-1219.05" font-family="Arial" font-size="19.00" fill="#444444">[chrome.storage.local + IndexedDB]</text>
</g>
<!-- 5&#45;&gt;14 -->
<g id="39" class="edge">
<title>5&#45;&gt;14</title>
<path fill="none" stroke="#444444" stroke-dasharray="5,2" d="M596.09,-1357.65C627.53,-1296.37 664.86,-1223.58 698.27,-1158.44"/>
<polygon fill="#444444" stroke="#444444" points="701.51,-1159.8 702.96,-1149.3 695.28,-1156.6 701.51,-1159.8"/>
<polygon fill="white" stroke="transparent" points="673,-1198.75 673,-1321.75 1168,-1321.75 1168,-1198.75 673,-1198.75"/>
<text text-anchor="start" x="840" y="-1299.05" font-family="Arial" font-size="24.00" fill="#444444">Posts /capture,</text>
<text text-anchor="start" x="817" y="-1275.05" font-family="Arial" font-size="24.00" fill="#444444">/visit&#45;events, media</text>
<text text-anchor="start" x="794" y="-1251.05" font-family="Arial" font-size="24.00" fill="#444444">metadata, and raw blob</text>
<text text-anchor="start" x="865" y="-1227.05" font-family="Arial" font-size="24.00" fill="#444444">uploads to</text>
<text text-anchor="start" x="677.5" y="-1207.05" font-family="Arial" font-size="19.00" fill="#444444">[Bearer HTTP/JSON; raw HTTP PUT over 127.0.0.1:8765]</text>
</g>
</g>
</svg>
