<?xml version="1.0" encoding="UTF-8" standalone="no"?>
<!DOCTYPE svg PUBLIC "-//W3C//DTD SVG 1.1//EN"
 "http://www.w3.org/Graphics/SVG/1.1/DTD/svg11.dtd">
<!-- Generated by graphviz version 2.43.0 (0)
 -->
<!-- Title: %3 Pages: 1 -->
<svg width="2984pt" height="1617pt"
 viewBox="0.00 0.00 2983.50 1616.50" xmlns="http://www.w3.org/2000/svg" xmlns:xlink="http://www.w3.org/1999/xlink">
<g id="graph0" class="graph" transform="scale(1 1) rotate(0) translate(4 1612.5)">
<title>%3</title>
<polygon fill="white" stroke="transparent" points="-4,4 -4,-1612.5 2979.5,-1612.5 2979.5,4 -4,4"/>
<text text-anchor="start" x="956.25" y="-11.8" font-family="Arial" font-size="34.00">Component View: Browser Memory Daemon &#45; Chrome MV3 Extension</text>
<g id="clust1" class="cluster">
<title>cluster_4</title>
<polygon fill="none" stroke="#444444" points="8,-312.5 8,-1600.5 2967.5,-1600.5 2967.5,-312.5 8,-312.5"/>
<text text-anchor="start" x="1346.75" y="-341.3" font-family="Arial" font-size="24.00" fill="#444444">Browser Memory Daemon</text>
<text text-anchor="start" x="1410.75" y="-321.3" font-family="Arial" font-size="19.00" fill="#444444">[Software System]</text>
</g>
<g id="clust2" class="cluster">
<title>cluster_5</title>
<polygon fill="none" stroke="#444444" points="33,-412.5 33,-898.5 2112,-898.5 2112,-412.5 33,-412.5"/>
<text text-anchor="start" x="944.5" y="-441.3" font-family="Arial" font-size="24.00" fill="#444444">Chrome MV3 Extension</text>
<text text-anchor="start" x="884.5" y="-421.3" font-family="Arial" font-size="19.00" fill="#444444">[Container: JavaScript, Chrome Manifest V3]</text>
</g>
<!-- 2 -->
<g id="2" class="node">
<title>2</title>
<polygon fill="#999999" stroke="#6b6b6b" points="443.5,-287 57.5,-287 57.5,-56 443.5,-56 443.5,-287"/>
<text text-anchor="start" x="116" y="-238.8" font-family="Arial" font-size="34.00" fill="#ffffff">Windows Chrome</text>
<text text-anchor="start" x="173.5" y="-216.8" font-family="Arial" font-size="19.00" fill="#ffffff">[Software System]</text>
<text text-anchor="start" x="86.5" y="-179.8" font-family="Arial" font-size="24.00" fill="#ffffff">The Windows Chrome runtime</text>
<text text-anchor="start" x="100" y="-155.8" font-family="Arial" font-size="24.00" fill="#ffffff">that loads web pages, hosts</text>
<text text-anchor="start" x="99.5" y="-131.8" font-family="Arial" font-size="24.00" fill="#ffffff">the MV3 extension, runs the</text>
<text text-anchor="start" x="91.5" y="-107.8" font-family="Arial" font-size="24.00" fill="#ffffff">local UI in a tab, and exposes</text>
<text text-anchor="start" x="121" y="-83.8" font-family="Arial" font-size="24.00" fill="#ffffff">Chrome extension APIs.</text>
</g>
<!-- 10 -->
<g id="10" class="node">
<title>10</title>
<polygon fill="#85bbf0" stroke="#1168bd" points="2087,-874 1644,-874 1644,-513 2087,-513 2087,-874"/>
<text text-anchor="start" x="1700.5" y="-825.8" font-family="Arial" font-size="34.00" fill="#000000">Capture and Lifecycle</text>
<text text-anchor="start" x="1810.5" y="-791.8" font-family="Arial" font-size="34.00" fill="#000000">Outbox</text>
<text text-anchor="start" x="1703.5" y="-769.8" font-family="Arial" font-size="19.00" fill="#000000">[Component: JavaScript + IndexedDB]</text>
<text text-anchor="start" x="1709" y="-732.8" font-family="Arial" font-size="24.00" fill="#000000">Persists capture and lifecycle</text>
<text text-anchor="start" x="1715" y="-708.8" font-family="Arial" font-size="24.00" fill="#000000">messages as independently</text>
<text text-anchor="start" x="1689.5" y="-684.8" font-family="Arial" font-size="24.00" fill="#000000">sequenced IndexedDB rows with</text>
<text text-anchor="start" x="1829.5" y="-660.8" font-family="Arial" font-size="24.00" fill="#000000">atomic</text>
<text text-anchor="start" x="1673" y="-636.8" font-family="Arial" font-size="24.00" fill="#000000">enqueue/claim/checkpoint/ack/retry,</text>
<text text-anchor="start" x="1716.5" y="-612.8" font-family="Arial" font-size="24.00" fill="#000000">stale&#45;claim recovery, legacy</text>
<text text-anchor="start" x="1707" y="-588.8" font-family="Arial" font-size="24.00" fill="#000000">queue import, item admission</text>
<text text-anchor="start" x="1729.5" y="-564.8" font-family="Arial" font-size="24.00" fill="#000000">limits, and serialized&#45;byte</text>
<text text-anchor="start" x="1803.5" y="-540.8" font-family="Arial" font-size="24.00" fill="#000000">accounting.</text>
</g>
<!-- 14 -->
<g id="14" class="node">
<title>14</title>
<path fill="#2f95c8" stroke="#20688c" d="M2942.5,-1128.22C2942.5,-1154.79 2840.98,-1176.38 2716,-1176.38 2591.02,-1176.38 2489.5,-1154.79 2489.5,-1128.22 2489.5,-1128.22 2489.5,-694.78 2489.5,-694.78 2489.5,-668.21 2591.02,-646.62 2716,-646.62 2840.98,-646.62 2942.5,-668.21 2942.5,-694.78 2942.5,-694.78 2942.5,-1128.22 2942.5,-1128.22"/>
<path fill="none" stroke="#20688c" d="M2942.5,-1128.22C2942.5,-1101.64 2840.98,-1080.06 2716,-1080.06 2591.02,-1080.06 2489.5,-1101.64 2489.5,-1128.22"/>
<text text-anchor="start" x="2574" y="-1055.8" font-family="Arial" font-size="34.00" fill="#ffffff">Extension Browser</text>
<text text-anchor="start" x="2656.5" y="-1021.8" font-family="Arial" font-size="34.00" fill="#ffffff">Storage</text>
<text text-anchor="start" x="2518.5" y="-999.8" font-family="Arial" font-size="19.00" fill="#ffffff">[Container: chrome.storage.local + IndexedDB]</text>
<text text-anchor="start" x="2538.5" y="-962.8" font-family="Arial" font-size="24.00" fill="#ffffff">Browser&#45;side IndexedDB storage</text>
<text text-anchor="start" x="2629.5" y="-938.8" font-family="Arial" font-size="24.00" fill="#ffffff">for transactional</text>
<text text-anchor="start" x="2560.5" y="-914.8" font-family="Arial" font-size="24.00" fill="#ffffff">capture/lifecycle outbox rows</text>
<text text-anchor="start" x="2550.5" y="-890.8" font-family="Arial" font-size="24.00" fill="#ffffff">plus specialized durable media</text>
<text text-anchor="start" x="2652" y="-866.8" font-family="Arial" font-size="24.00" fill="#ffffff">tasks/blobs;</text>
<text text-anchor="start" x="2563.5" y="-842.8" font-family="Arial" font-size="24.00" fill="#ffffff">chrome.storage.local retains</text>
<text text-anchor="start" x="2564" y="-818.8" font-family="Arial" font-size="24.00" fill="#ffffff">typed configuration, lifecycle</text>
<text text-anchor="start" x="2607.5" y="-794.8" font-family="Arial" font-size="24.00" fill="#ffffff">tab state, aggregate</text>
<text text-anchor="start" x="2573" y="-770.8" font-family="Arial" font-size="24.00" fill="#ffffff">telemetry, and one&#45;version</text>
<text text-anchor="start" x="2609.5" y="-746.8" font-family="Arial" font-size="24.00" fill="#ffffff">queue fallback only.</text>
</g>
<!-- 10&#45;&gt;14 -->
<g id="78" class="edge">
<title>10&#45;&gt;14</title>
<path fill="none" stroke="#444444" stroke-dasharray="5,2" d="M2087.22,-750.21C2207.69,-781.16 2356.87,-819.49 2479.57,-851.01"/>
<polygon fill="#444444" stroke="#444444" points="2478.92,-854.46 2489.48,-853.56 2480.67,-847.68 2478.92,-854.46"/>
<polygon fill="white" stroke="transparent" points="2132.5,-840.5 2132.5,-939.5 2453.5,-939.5 2453.5,-840.5 2132.5,-840.5"/>
<text text-anchor="start" x="2137" y="-916.8" font-family="Arial" font-size="24.00" fill="#444444">Reads and writes sequenced</text>
<text text-anchor="start" x="2154" y="-892.8" font-family="Arial" font-size="24.00" fill="#444444">capture/lifecycle rows and</text>
<text text-anchor="start" x="2176.5" y="-868.8" font-family="Arial" font-size="24.00" fill="#444444">migration metadata in</text>
<text text-anchor="start" x="2241" y="-848.8" font-family="Arial" font-size="19.00" fill="#444444">[IndexedDB]</text>
</g>
<!-- 8 -->
<g id="8" class="node">
<title>8</title>
<polygon fill="#85bbf0" stroke="#1168bd" points="443,-873 58,-873 58,-570 443,-570 443,-873"/>
<text text-anchor="start" x="142" y="-824.8" font-family="Arial" font-size="34.00" fill="#000000">Content Script</text>
<text text-anchor="start" x="87" y="-802.8" font-family="Arial" font-size="19.00" fill="#000000">[Component: JavaScript content script]</text>
<text text-anchor="start" x="110.5" y="-765.8" font-family="Arial" font-size="24.00" fill="#000000">Schedules initial, delayed,</text>
<text text-anchor="start" x="91.5" y="-741.8" font-family="Arial" font-size="24.00" fill="#000000">reinjected, and SPA captures;</text>
<text text-anchor="start" x="107.5" y="-717.8" font-family="Arial" font-size="24.00" fill="#000000">computes full deterministic</text>
<text text-anchor="start" x="112.5" y="-693.8" font-family="Arial" font-size="24.00" fill="#000000">SHA&#45;256 capture digests;</text>
<text text-anchor="start" x="124" y="-669.8" font-family="Arial" font-size="24.00" fill="#000000">tracks scroll; and sends</text>
<text text-anchor="start" x="88.5" y="-645.8" font-family="Arial" font-size="24.00" fill="#000000">capture and inline blob upload</text>
<text text-anchor="start" x="119.5" y="-621.8" font-family="Arial" font-size="24.00" fill="#000000">messages to the service</text>
<text text-anchor="start" x="211" y="-597.8" font-family="Arial" font-size="24.00" fill="#000000">worker.</text>
</g>
<!-- 9 -->
<g id="9" class="node">
<title>9</title>
<polygon fill="#85bbf0" stroke="#1168bd" points="1240.5,-870 802.5,-870 802.5,-591 1240.5,-591 1240.5,-870"/>
<text text-anchor="start" x="905.5" y="-821.8" font-family="Arial" font-size="34.00" fill="#000000">Service Worker</text>
<text text-anchor="start" x="831.5" y="-799.8" font-family="Arial" font-size="19.00" fill="#000000">[Component: JavaScript MV3 service worker]</text>
<text text-anchor="start" x="850" y="-762.8" font-family="Arial" font-size="24.00" fill="#000000">Orchestrates daemon transport,</text>
<text text-anchor="start" x="891" y="-738.8" font-family="Arial" font-size="24.00" fill="#000000">bearer token use, stable</text>
<text text-anchor="start" x="900" y="-714.8" font-family="Arial" font-size="24.00" fill="#000000">observation/navigation</text>
<text text-anchor="start" x="901" y="-690.8" font-family="Arial" font-size="24.00" fill="#000000">identity, lifecycle state,</text>
<text text-anchor="start" x="885" y="-666.8" font-family="Arial" font-size="24.00" fill="#000000">outbox and media drains,</text>
<text text-anchor="start" x="880.5" y="-642.8" font-family="Arial" font-size="24.00" fill="#000000">alarms, and CDP recorder</text>
<text text-anchor="start" x="961" y="-618.8" font-family="Arial" font-size="24.00" fill="#000000">integration.</text>
</g>
<!-- 8&#45;&gt;9 -->
<g id="76" class="edge">
<title>8&#45;&gt;9</title>
<path fill="none" stroke="#444444" stroke-dasharray="5,2" d="M443.07,-723.74C548.97,-724.98 681.23,-726.53 792.44,-727.83"/>
<polygon fill="#444444" stroke="#444444" points="792.41,-731.33 802.45,-727.95 792.49,-724.33 792.41,-731.33"/>
<polygon fill="white" stroke="transparent" points="479.5,-726.5 479.5,-801.5 766.5,-801.5 766.5,-726.5 479.5,-726.5"/>
<text text-anchor="start" x="484" y="-778.8" font-family="Arial" font-size="24.00" fill="#444444">Sends captures and inline</text>
<text text-anchor="start" x="581" y="-754.8" font-family="Arial" font-size="24.00" fill="#444444">blobs to</text>
<text text-anchor="start" x="490.5" y="-734.8" font-family="Arial" font-size="19.00" fill="#444444">[chrome.runtime.sendMessage]</text>
</g>
<!-- 9&#45;&gt;10 -->
<g id="77" class="edge">
<title>9&#45;&gt;10</title>
<path fill="none" stroke="#444444" stroke-dasharray="5,2" d="M1240.58,-618.4C1252.56,-614.56 1264.58,-611.22 1276.5,-608.5 1416.04,-576.73 1457.1,-586.46 1598.5,-608.5 1610.1,-610.31 1621.89,-612.54 1633.72,-615.09"/>
<polygon fill="#444444" stroke="#444444" points="1633.15,-618.54 1643.67,-617.3 1634.67,-611.71 1633.15,-618.54"/>
<polygon fill="white" stroke="transparent" points="1296.5,-608.5 1296.5,-720.5 1578.5,-720.5 1578.5,-608.5 1296.5,-608.5"/>
<text text-anchor="start" x="1339.5" y="-697.3" font-family="Arial" font-size="24.00" fill="#444444">Enqueues, drains,</text>
<text text-anchor="start" x="1306" y="-671.3" font-family="Arial" font-size="24.00" fill="#444444">checkpoints, retries, and</text>
<text text-anchor="start" x="1300.5" y="-645.3" font-family="Arial" font-size="24.00" fill="#444444">recovers capture/lifecycle</text>
<text text-anchor="start" x="1367" y="-619.3" font-family="Arial" font-size="24.00" fill="#444444">work through</text>
</g>
<!-- 9&#45;&gt;14 -->
<g id="79" class="edge">
<title>9&#45;&gt;14</title>
<path fill="none" stroke="#444444" stroke-dasharray="5,2" d="M1240.59,-805.73C1356.31,-842.81 1501.68,-884.95 1634.5,-910.5 1992.53,-979.38 2090.28,-989.2 2453.5,-957.5 2461.92,-956.77 2470.47,-955.9 2479.09,-954.93"/>
<polygon fill="#444444" stroke="#444444" points="2479.72,-958.38 2489.25,-953.74 2478.91,-951.42 2479.72,-958.38"/>
<polygon fill="white" stroke="transparent" points="1718.5,-973.5 1718.5,-1120.5 2012.5,-1120.5 2012.5,-973.5 1718.5,-973.5"/>
<text text-anchor="start" x="1789.5" y="-1097.8" font-family="Arial" font-size="24.00" fill="#444444">Persists typed</text>
<text text-anchor="start" x="1746.5" y="-1073.8" font-family="Arial" font-size="24.00" fill="#444444">configuration, lifecycle</text>
<text text-anchor="start" x="1757" y="-1049.8" font-family="Arial" font-size="24.00" fill="#444444">tab state, aggregate</text>
<text text-anchor="start" x="1722.5" y="-1025.8" font-family="Arial" font-size="24.00" fill="#444444">telemetry, and one&#45;version</text>
<text text-anchor="start" x="1774.5" y="-1001.8" font-family="Arial" font-size="24.00" fill="#444444">queue fallback in</text>
<text text-anchor="start" x="1772" y="-981.8" font-family="Arial" font-size="19.00" fill="#444444">[chrome.storage.local]</text>
</g>
<!-- 15 -->
<g id="15" class="node">
<title>15</title>
<polygon fill="#438dd5" stroke="#2e6295" points="2096.5,-1575 1634.5,-1575 1634.5,-1238 2096.5,-1238 2096.5,-1575"/>
<text text-anchor="start" x="1701" y="-1526.8" font-family="Arial" font-size="34.00" fill="#ffffff">WSL Loopback HTTP</text>
<text text-anchor="start" x="1801" y="-1492.8" font-family="Arial" font-size="34.00" fill="#ffffff">Daemon</text>
<text text-anchor="start" x="1663.5" y="-1470.8" font-family="Arial" font-size="19.00" fill="#ffffff">[Container: Python 3.11, ThreadingHTTPServer]</text>
<text text-anchor="start" x="1704.5" y="-1433.8" font-family="Arial" font-size="24.00" fill="#ffffff">Authenticated loopback HTTP</text>
<text text-anchor="start" x="1729.5" y="-1409.8" font-family="Arial" font-size="24.00" fill="#ffffff">API that handles capture,</text>
<text text-anchor="start" x="1726" y="-1385.8" font-family="Arial" font-size="24.00" fill="#ffffff">visit events, media artifact</text>
<text text-anchor="start" x="1729" y="-1361.8" font-family="Arial" font-size="24.00" fill="#ffffff">upload/fetch/purge, exact</text>
<text text-anchor="start" x="1825.5" y="-1337.8" font-family="Arial" font-size="24.00" fill="#ffffff">search,</text>
<text text-anchor="start" x="1716.5" y="-1313.8" font-family="Arial" font-size="24.00" fill="#ffffff">recent/timeline/detail, policy</text>
<text text-anchor="start" x="1714" y="-1289.8" font-family="Arial" font-size="24.00" fill="#ffffff">rules, doctor, durable forget,</text>
<text text-anchor="start" x="1752.5" y="-1265.8" font-family="Arial" font-size="24.00" fill="#ffffff">and static UI serving.</text>
</g>
<!-- 9&#45;&gt;15 -->
<g id="80" class="edge">
<title>9&#45;&gt;15</title>
<path fill="none" stroke="#444444" stroke-dasharray="5,2" d="M1122.71,-870.29C1166.35,-925.9 1220.33,-988.24 1276.5,-1037.5 1382.25,-1130.25 1513.78,-1215.12 1625.62,-1280.03"/>
<polygon fill="#444444" stroke="#444444" points="1623.91,-1283.08 1634.32,-1285.06 1627.42,-1277.02 1623.91,-1283.08"/>
<polygon fill="white" stroke="transparent" points="1276.5,-1254.5 1276.5,-1353.5 1598.5,-1353.5 1598.5,-1254.5 1276.5,-1254.5"/>
<text text-anchor="start" x="1343" y="-1330.8" font-family="Arial" font-size="24.00" fill="#444444">Delivers /capture,</text>
<text text-anchor="start" x="1333.5" y="-1306.8" font-family="Arial" font-size="24.00" fill="#444444">/visit&#45;events, media</text>
<text text-anchor="start" x="1291" y="-1282.8" font-family="Arial" font-size="24.00" fill="#444444">metadata, and raw blobs to</text>
<text text-anchor="start" x="1280.5" y="-1262.8" font-family="Arial" font-size="19.00" fill="#444444">[Bearer HTTP/JSON; raw HTTP PUT]</text>
</g>
</g>
</svg>
