<?xml version="1.0" encoding="UTF-8" standalone="no"?>
<!DOCTYPE svg PUBLIC "-//W3C//DTD SVG 1.1//EN"
 "http://www.w3.org/Graphics/SVG/1.1/DTD/svg11.dtd">
<!-- Generated by graphviz version 2.43.0 (0)
 -->
<!-- Title: %3 Pages: 1 -->
<svg width="4839pt" height="2109pt"
 viewBox="0.00 0.00 4839.00 2109.00" xmlns="http://www.w3.org/2000/svg" xmlns:xlink="http://www.w3.org/1999/xlink">
<g id="graph0" class="graph" transform="scale(1 1) rotate(0) translate(4 2105)">
<title>%3</title>
<polygon fill="white" stroke="transparent" points="-4,4 -4,-2105 4835,-2105 4835,4 -4,4"/>
<text text-anchor="start" x="1830.5" y="-11.8" font-family="Arial" font-size="34.00">Component View: Browser Memory Daemon &#45; WSL Loopback HTTP Daemon</text>
<g id="clust1" class="cluster">
<title>cluster_4</title>
<polygon fill="none" stroke="#444444" points="8,-64 8,-2093 4823,-2093 4823,-64 8,-64"/>
<text text-anchor="start" x="2274.5" y="-92.8" font-family="Arial" font-size="24.00" fill="#444444">Browser Memory Daemon</text>
<text text-anchor="start" x="2338.5" y="-72.8" font-family="Arial" font-size="19.00" fill="#444444">[Software System]</text>
</g>
<g id="clust2" class="cluster">
<title>cluster_14</title>
<polygon fill="none" stroke="#444444" points="33,-164 33,-1481 3917,-1481 3917,-164 33,-164"/>
<text text-anchor="start" x="1809.5" y="-192.8" font-family="Arial" font-size="24.00" fill="#444444">WSL Loopback HTTP Daemon</text>
<text text-anchor="start" x="1773" y="-172.8" font-family="Arial" font-size="19.00" fill="#444444">[Container: Python 3.11, ThreadingHTTPServer]</text>
</g>
<!-- 15 -->
<g id="15" class="node">
<title>15</title>
<polygon fill="#85bbf0" stroke="#1168bd" points="453,-1039.5 58,-1039.5 58,-808.5 453,-808.5 453,-1039.5"/>
<text text-anchor="start" x="87" y="-991.3" font-family="Arial" font-size="34.00" fill="#000000">HTTP Request Router</text>
<text text-anchor="start" x="119" y="-969.3" font-family="Arial" font-size="19.00" fill="#000000">[Component: Python http.server]</text>
<text text-anchor="start" x="90" y="-932.3" font-family="Arial" font-size="24.00" fill="#000000">Routes loopback API requests,</text>
<text text-anchor="start" x="112.5" y="-908.3" font-family="Arial" font-size="24.00" fill="#000000">serves UI assets, enforces</text>
<text text-anchor="start" x="91.5" y="-884.3" font-family="Arial" font-size="24.00" fill="#000000">bearer auth for memory/admin</text>
<text text-anchor="start" x="106" y="-860.3" font-family="Arial" font-size="24.00" fill="#000000">APIs, and applies CORS for</text>
<text text-anchor="start" x="172" y="-836.3" font-family="Arial" font-size="24.00" fill="#000000">allowed origins.</text>
</g>
<!-- 21 -->
<g id="21" class="node">
<title>21</title>
<polygon fill="#85bbf0" stroke="#1168bd" points="1231,-1128.5 810,-1128.5 810,-719.5 1231,-719.5 1231,-1128.5"/>
<text text-anchor="start" x="917" y="-1080.3" font-family="Arial" font-size="34.00" fill="#000000">Media Artifact</text>
<text text-anchor="start" x="953.5" y="-1046.3" font-family="Arial" font-size="34.00" fill="#000000">Manager</text>
<text text-anchor="start" x="839" y="-1024.3" font-family="Arial" font-size="19.00" fill="#000000">[Component: Python + sqlite3 + filesystem]</text>
<text text-anchor="start" x="874.5" y="-987.3" font-family="Arial" font-size="24.00" fill="#000000">Records media references,</text>
<text text-anchor="start" x="897" y="-963.3" font-family="Arial" font-size="24.00" fill="#000000">validates blob uploads,</text>
<text text-anchor="start" x="878.5" y="-939.3" font-family="Arial" font-size="24.00" fill="#000000">enforces MIME/size/cache</text>
<text text-anchor="start" x="900" y="-915.3" font-family="Arial" font-size="24.00" fill="#000000">gates, guards external</text>
<text text-anchor="start" x="868" y="-891.3" font-family="Arial" font-size="24.00" fill="#000000">media&#45;root identity, reserves</text>
<text text-anchor="start" x="862.5" y="-867.3" font-family="Arial" font-size="24.00" fill="#000000">bounded local spool capacity,</text>
<text text-anchor="start" x="897" y="-843.3" font-family="Arial" font-size="24.00" fill="#000000">writes blobs atomically,</text>
<text text-anchor="start" x="877" y="-819.3" font-family="Arial" font-size="24.00" fill="#000000">drains verified spool bytes,</text>
<text text-anchor="start" x="857.5" y="-795.3" font-family="Arial" font-size="24.00" fill="#000000">queues public fetch tasks, and</text>
<text text-anchor="start" x="879" y="-771.3" font-family="Arial" font-size="24.00" fill="#000000">tombstones purge/eviction</text>
<text text-anchor="start" x="936.5" y="-747.3" font-family="Arial" font-size="24.00" fill="#000000">before deletion.</text>
</g>
<!-- 15&#45;&gt;21 -->
<g id="83" class="edge">
<title>15&#45;&gt;21</title>
<path fill="none" stroke="#444444" stroke-dasharray="5,2" d="M453.49,-924C559.46,-924 690.46,-924 799.73,-924"/>
<polygon fill="#444444" stroke="#444444" points="799.9,-927.5 809.9,-924 799.9,-920.5 799.9,-927.5"/>
<polygon fill="white" stroke="transparent" points="489,-924 489,-958 774,-958 774,-924 489,-924"/>
<text text-anchor="start" x="493.5" y="-934.8" font-family="Arial" font-size="24.00" fill="#444444">Routes media requests to</text>
</g>
<!-- 22 -->
<g id="22" class="node">
<title>22</title>
<polygon fill="#85bbf0" stroke="#1168bd" points="2942,-1254.5 2595,-1254.5 2595,-999.5 2942,-999.5 2942,-1254.5"/>
<text text-anchor="start" x="2626.5" y="-1206.3" font-family="Arial" font-size="34.00" fill="#000000">Media State Model</text>
<text text-anchor="start" x="2679.5" y="-1184.3" font-family="Arial" font-size="19.00" fill="#000000">[Component: Python]</text>
<text text-anchor="start" x="2644" y="-1147.3" font-family="Arial" font-size="24.00" fill="#000000">Owns caller&#45;visible and</text>
<text text-anchor="start" x="2627.5" y="-1123.3" font-family="Arial" font-size="24.00" fill="#000000">internal artifact/task status</text>
<text text-anchor="start" x="2643.5" y="-1099.3" font-family="Arial" font-size="24.00" fill="#000000">taxonomies, fetch&#45;error</text>
<text text-anchor="start" x="2633" y="-1075.3" font-family="Arial" font-size="24.00" fill="#000000">classification, and explicit</text>
<text text-anchor="start" x="2624" y="-1051.3" font-family="Arial" font-size="24.00" fill="#000000">ordinary versus force&#45;reset</text>
<text text-anchor="start" x="2666.5" y="-1027.3" font-family="Arial" font-size="24.00" fill="#000000">transition matrices.</text>
</g>
<!-- 21&#45;&gt;22 -->
<g id="91" class="edge">
<title>21&#45;&gt;22</title>
<path fill="none" stroke="#444444" stroke-dasharray="5,2" d="M1231.29,-960.8C1243.36,-962.64 1255.33,-964.38 1267,-966 1775.68,-1036.45 1905.46,-1032.57 2416,-1088 2470.88,-1093.96 2530.56,-1100.54 2584.91,-1106.58"/>
<polygon fill="#444444" stroke="#444444" points="2584.67,-1110.07 2594.99,-1107.7 2585.44,-1103.11 2584.67,-1110.07"/>
<polygon fill="white" stroke="transparent" points="1705,-1052 1705,-1138 1971,-1138 1971,-1052 1705,-1052"/>
<text text-anchor="start" x="1746.5" y="-1114.8" font-family="Arial" font-size="24.00" fill="#444444">Classifies artifact</text>
<text text-anchor="start" x="1709" y="-1088.8" font-family="Arial" font-size="24.00" fill="#444444">outcomes and transition</text>
<text text-anchor="start" x="1763.5" y="-1062.8" font-family="Arial" font-size="24.00" fill="#444444">intent through</text>
</g>
<!-- 23 -->
<g id="23" class="node">
<title>23</title>
<polygon fill="#85bbf0" stroke="#1168bd" points="2039.5,-1455.5 1636.5,-1455.5 1636.5,-1176.5 2039.5,-1176.5 2039.5,-1455.5"/>
<text text-anchor="start" x="1665.5" y="-1407.3" font-family="Arial" font-size="34.00" fill="#000000">Media Task Repository</text>
<text text-anchor="start" x="1710" y="-1385.3" font-family="Arial" font-size="19.00" fill="#000000">[Component: Python + sqlite3]</text>
<text text-anchor="start" x="1689" y="-1348.3" font-family="Arial" font-size="24.00" fill="#000000">Creates deterministic tasks,</text>
<text text-anchor="start" x="1705" y="-1324.3" font-family="Arial" font-size="24.00" fill="#000000">preserves terminal state,</text>
<text text-anchor="start" x="1690" y="-1300.3" font-family="Arial" font-size="24.00" fill="#000000">atomically leases due work,</text>
<text text-anchor="start" x="1697" y="-1276.3" font-family="Arial" font-size="24.00" fill="#000000">recovers stale leases, and</text>
<text text-anchor="start" x="1679" y="-1252.3" font-family="Arial" font-size="24.00" fill="#000000">applies bounded retry/backoff</text>
<text text-anchor="start" x="1678.5" y="-1228.3" font-family="Arial" font-size="24.00" fill="#000000">outcomes independently from</text>
<text text-anchor="start" x="1750" y="-1204.3" font-family="Arial" font-size="24.00" fill="#000000">media transport.</text>
</g>
<!-- 21&#45;&gt;23 -->
<g id="92" class="edge">
<title>21&#45;&gt;23</title>
<path fill="none" stroke="#444444" stroke-dasharray="5,2" d="M1231.07,-1021.43C1243.2,-1026.76 1255.24,-1031.99 1267,-1037 1400.1,-1093.71 1440.17,-1092.15 1570,-1156 1588.92,-1165.31 1608.28,-1175.49 1627.5,-1186.08"/>
<polygon fill="#444444" stroke="#444444" points="1625.88,-1189.18 1636.32,-1190.96 1629.27,-1183.06 1625.88,-1189.18"/>
<polygon fill="white" stroke="transparent" points="1267,-1156 1267,-1216 1570,-1216 1570,-1156 1267,-1156"/>
<text text-anchor="start" x="1271.5" y="-1192.8" font-family="Arial" font-size="24.00" fill="#444444">Creates and claims durable</text>
<text text-anchor="start" x="1312" y="-1166.8" font-family="Arial" font-size="24.00" fill="#444444">media work through</text>
</g>
<!-- 24 -->
<g id="24" class="node">
<title>24</title>
<polygon fill="#85bbf0" stroke="#1168bd" points="2070,-873.5 1606,-873.5 1606,-594.5 2070,-594.5 2070,-873.5"/>
<text text-anchor="start" x="1689" y="-825.3" font-family="Arial" font-size="34.00" fill="#000000">Media Artifact Store</text>
<text text-anchor="start" x="1657.5" y="-803.3" font-family="Arial" font-size="19.00" fill="#000000">[Component: Python + sqlite3 + BlobStore]</text>
<text text-anchor="start" x="1670" y="-766.3" font-family="Arial" font-size="24.00" fill="#000000">Counts committed and pending</text>
<text text-anchor="start" x="1727.5" y="-742.3" font-family="Arial" font-size="24.00" fill="#000000">media bytes, applies</text>
<text text-anchor="start" x="1635" y="-718.3" font-family="Arial" font-size="24.00" fill="#000000">MIME/priority/snapshot/domain/global</text>
<text text-anchor="start" x="1677" y="-694.3" font-family="Arial" font-size="24.00" fill="#000000">admission gates, evicts oldest</text>
<text text-anchor="start" x="1712.5" y="-670.3" font-family="Arial" font-size="24.00" fill="#000000">contained artifacts, and</text>
<text text-anchor="start" x="1693.5" y="-646.3" font-family="Arial" font-size="24.00" fill="#000000">records tombstones before</text>
<text text-anchor="start" x="1792" y="-622.3" font-family="Arial" font-size="24.00" fill="#000000">deletion.</text>
</g>
<!-- 21&#45;&gt;24 -->
<g id="93" class="edge">
<title>21&#45;&gt;24</title>
<path fill="none" stroke="#444444" stroke-dasharray="5,2" d="M1231.25,-875.13C1342.56,-849.2 1479.88,-817.2 1595.61,-790.24"/>
<polygon fill="#444444" stroke="#444444" points="1596.73,-793.57 1605.67,-787.9 1595.14,-786.76 1596.73,-793.57"/>
<polygon fill="white" stroke="transparent" points="1273,-862 1273,-948 1564,-948 1564,-862 1273,-862"/>
<text text-anchor="start" x="1289.5" y="-924.8" font-family="Arial" font-size="24.00" fill="#444444">Admits media bytes and</text>
<text text-anchor="start" x="1277.5" y="-898.8" font-family="Arial" font-size="24.00" fill="#444444">requests bounded eviction</text>
<text text-anchor="start" x="1377.5" y="-872.8" font-family="Arial" font-size="24.00" fill="#444444">through</text>
</g>
<!-- 25 -->
<g id="25" class="node">
<title>25</title>
<polygon fill="#85bbf0" stroke="#1168bd" points="3892,-717.5 3481,-717.5 3481,-414.5 3892,-414.5 3892,-717.5"/>
<text text-anchor="start" x="3530" y="-669.3" font-family="Arial" font-size="34.00" fill="#000000">Contained BlobStore</text>
<text text-anchor="start" x="3510" y="-647.3" font-family="Arial" font-size="19.00" fill="#000000">[Component: Python filesystem boundary]</text>
<text text-anchor="start" x="3534" y="-610.3" font-family="Arial" font-size="24.00" fill="#000000">Prefers root&#45;relative locators</text>
<text text-anchor="start" x="3570.5" y="-586.3" font-family="Arial" font-size="24.00" fill="#000000">with contained legacy</text>
<text text-anchor="start" x="3555.5" y="-562.3" font-family="Arial" font-size="24.00" fill="#000000">fallback; streams unique</text>
<text text-anchor="start" x="3571.5" y="-538.3" font-family="Arial" font-size="24.00" fill="#000000">stages with size/hash</text>
<text text-anchor="start" x="3567.5" y="-514.3" font-family="Arial" font-size="24.00" fill="#000000">accounting; atomically</text>
<text text-anchor="start" x="3539.5" y="-490.3" font-family="Arial" font-size="24.00" fill="#000000">commits; and contains blob</text>
<text text-anchor="start" x="3572" y="-466.3" font-family="Arial" font-size="24.00" fill="#000000">read, stat, and delete</text>
<text text-anchor="start" x="3626" y="-442.3" font-family="Arial" font-size="24.00" fill="#000000">operations.</text>
</g>
<!-- 21&#45;&gt;25 -->
<g id="101" class="edge">
<title>21&#45;&gt;25</title>
<path fill="none" stroke="#444444" stroke-dasharray="5,2" d="M1076.58,-719.27C1113.94,-620.46 1173.92,-509.6 1267,-445 1949.2,28.49 3018.52,-300.75 3471.4,-475.84"/>
<polygon fill="#444444" stroke="#444444" points="3470.4,-479.21 3480.99,-479.57 3472.93,-472.69 3470.4,-479.21"/>
<polygon fill="white" stroke="transparent" points="2122,-212 2122,-298 2400,-298 2400,-212 2122,-212"/>
<text text-anchor="start" x="2131" y="-274.8" font-family="Arial" font-size="24.00" fill="#444444">Stages, commits, reads,</text>
<text text-anchor="start" x="2126" y="-248.8" font-family="Arial" font-size="24.00" fill="#444444">evicts, and purges media</text>
<text text-anchor="start" x="2219.5" y="-222.8" font-family="Arial" font-size="24.00" fill="#444444">through</text>
</g>
<!-- 26 -->
<g id="26" class="node">
<title>26</title>
<polygon fill="#85bbf0" stroke="#1168bd" points="3085,-722.5 2452,-722.5 2452,-409.5 3085,-409.5 3085,-722.5"/>
<text text-anchor="start" x="2630" y="-674.3" font-family="Arial" font-size="34.00" fill="#000000">Blob Lifecycle and</text>
<text text-anchor="start" x="2624" y="-640.3" font-family="Arial" font-size="34.00" fill="#000000">Storage Reconciler</text>
<text text-anchor="start" x="2587" y="-618.3" font-family="Arial" font-size="19.00" fill="#000000">[Component: Python + sqlite3 + filesystem]</text>
<text text-anchor="start" x="2725.5" y="-581.3" font-family="Arial" font-size="24.00" fill="#000000">Persists</text>
<text text-anchor="start" x="2481" y="-557.3" font-family="Arial" font-size="24.00" fill="#000000">committed/tombstoned/missing/deleted/blocked/failed</text>
<text text-anchor="start" x="2658.5" y="-533.3" font-family="Arial" font-size="24.00" fill="#000000">blob state; serializes</text>
<text text-anchor="start" x="2622.5" y="-509.3" font-family="Arial" font-size="24.00" fill="#000000">deletion processors; retries</text>
<text text-anchor="start" x="2636.5" y="-485.3" font-family="Arial" font-size="24.00" fill="#000000">tombstones; and dry&#45;run</text>
<text text-anchor="start" x="2620" y="-461.3" font-family="Arial" font-size="24.00" fill="#000000">detects missing refs, in&#45;root</text>
<text text-anchor="start" x="2626" y="-437.3" font-family="Arial" font-size="24.00" fill="#000000">orphans, and stale stages.</text>
</g>
<!-- 21&#45;&gt;26 -->
<g id="102" class="edge">
<title>21&#45;&gt;26</title>
<path fill="none" stroke="#444444" stroke-dasharray="5,2" d="M1203.42,-719.24C1309.27,-615.86 1451.98,-500.96 1606,-446 1754.77,-392.91 2152.84,-448.93 2441.55,-500.89"/>
<polygon fill="#444444" stroke="#444444" points="2441.31,-504.4 2451.77,-502.73 2442.56,-497.51 2441.31,-504.4"/>
<polygon fill="white" stroke="transparent" points="1691,-446 1691,-558 1985,-558 1985,-446 1691,-446"/>
<text text-anchor="start" x="1695" y="-534.8" font-family="Arial" font-size="24.00" fill="#444444">Registers committed bytes</text>
<text text-anchor="start" x="1751.5" y="-508.8" font-family="Arial" font-size="24.00" fill="#444444">and tombstones</text>
<text text-anchor="start" x="1696" y="-482.8" font-family="Arial" font-size="24.00" fill="#444444">replacement, drain, purge,</text>
<text text-anchor="start" x="1728.5" y="-456.8" font-family="Arial" font-size="24.00" fill="#444444">and eviction through</text>
</g>
<!-- 34 -->
<g id="34" class="node">
<title>34</title>
<path fill="#2f95c8" stroke="#20688c" d="M3884,-2017.22C3884,-2045.44 3795.48,-2068.38 3686.5,-2068.38 3577.52,-2068.38 3489,-2045.44 3489,-2017.22 3489,-2017.22 3489,-1556.78 3489,-1556.78 3489,-1528.56 3577.52,-1505.62 3686.5,-1505.62 3795.48,-1505.62 3884,-1528.56 3884,-1556.78 3884,-1556.78 3884,-2017.22 3884,-2017.22"/>
<path fill="none" stroke="#20688c" d="M3884,-2017.22C3884,-1988.99 3795.48,-1966.06 3686.5,-1966.06 3577.52,-1966.06 3489,-1988.99 3489,-2017.22"/>
<text text-anchor="start" x="3573.5" y="-1943.3" font-family="Arial" font-size="34.00" fill="#ffffff">SQLite + FTS5</text>
<text text-anchor="start" x="3613.5" y="-1909.3" font-family="Arial" font-size="34.00" fill="#ffffff">Database</text>
<text text-anchor="start" x="3560.5" y="-1887.3" font-family="Arial" font-size="19.00" fill="#ffffff">[Container: SQLite with FTS5]</text>
<text text-anchor="start" x="3518.5" y="-1850.3" font-family="Arial" font-size="24.00" fill="#ffffff">Durable complete cleaned&#45;text,</text>
<text text-anchor="start" x="3567.5" y="-1826.3" font-family="Arial" font-size="24.00" fill="#ffffff">relational, and full&#45;text</text>
<text text-anchor="start" x="3569" y="-1802.3" font-family="Arial" font-size="24.00" fill="#ffffff">authority for migration</text>
<text text-anchor="start" x="3534.5" y="-1778.3" font-family="Arial" font-size="24.00" fill="#ffffff">ledger, sources, documents,</text>
<text text-anchor="start" x="3537" y="-1754.3" font-family="Arial" font-size="24.00" fill="#ffffff">visits, capture observations,</text>
<text text-anchor="start" x="3555.5" y="-1730.3" font-family="Arial" font-size="24.00" fill="#ffffff">URL claims, visit events,</text>
<text text-anchor="start" x="3518" y="-1706.3" font-family="Arial" font-size="24.00" fill="#ffffff">snapshots, chunks, chunks_fts,</text>
<text text-anchor="start" x="3525.5" y="-1682.3" font-family="Arial" font-size="24.00" fill="#ffffff">media provenance/tasks, blob</text>
<text text-anchor="start" x="3562" y="-1658.3" font-family="Arial" font-size="24.00" fill="#ffffff">lifecycle records, policy</text>
<text text-anchor="start" x="3561" y="-1634.3" font-family="Arial" font-size="24.00" fill="#ffffff">rules, audit events, and</text>
<text text-anchor="start" x="3594.5" y="-1610.3" font-family="Arial" font-size="24.00" fill="#ffffff">deletion receipts.</text>
</g>
<!-- 21&#45;&gt;34 -->
<g id="94" class="edge">
<title>21&#45;&gt;34</title>
<path fill="none" stroke="#444444" stroke-dasharray="5,2" d="M1171.66,-1128.74C1201.7,-1165.21 1234.16,-1201.79 1267,-1234 1402.17,-1366.59 1438.18,-1404.34 1606,-1492 1956.2,-1674.92 2062.27,-1700.11 2452,-1765 2809.12,-1824.46 3232.41,-1814.99 3478.8,-1801.7"/>
<polygon fill="#444444" stroke="#444444" points="3479.15,-1805.18 3488.94,-1801.14 3478.76,-1798.19 3479.15,-1805.18"/>
<polygon fill="white" stroke="transparent" points="2135.5,-1757 2135.5,-1832 2386.5,-1832 2386.5,-1757 2135.5,-1757"/>
<text text-anchor="start" x="2140" y="-1809.3" font-family="Arial" font-size="24.00" fill="#444444">Updates media artifact</text>
<text text-anchor="start" x="2223" y="-1785.3" font-family="Arial" font-size="24.00" fill="#444444">rows in</text>
<text text-anchor="start" x="2228" y="-1765.3" font-family="Arial" font-size="19.00" fill="#444444">[sqlite3]</text>
</g>
<!-- 23&#45;&gt;22 -->
<g id="95" class="edge">
<title>23&#45;&gt;22</title>
<path fill="none" stroke="#444444" stroke-dasharray="5,2" d="M2039.75,-1177.36C2061.42,-1166.88 2083.71,-1157.77 2106,-1151 2262.62,-1103.43 2449.74,-1101.36 2584.93,-1108.89"/>
<polygon fill="#444444" stroke="#444444" points="2584.79,-1112.39 2594.98,-1109.47 2585.2,-1105.4 2584.79,-1112.39"/>
<polygon fill="white" stroke="transparent" points="2144,-1151 2144,-1237 2378,-1237 2378,-1151 2144,-1151"/>
<text text-anchor="start" x="2151" y="-1213.8" font-family="Arial" font-size="24.00" fill="#444444">Validates task status</text>
<text text-anchor="start" x="2151" y="-1187.8" font-family="Arial" font-size="24.00" fill="#444444">vocabulary and retry</text>
<text text-anchor="start" x="2148" y="-1161.8" font-family="Arial" font-size="24.00" fill="#444444">classification through</text>
</g>
<!-- 23&#45;&gt;34 -->
<g id="96" class="edge">
<title>23&#45;&gt;34</title>
<path fill="none" stroke="#444444" stroke-dasharray="5,2" d="M2039.52,-1404.48C2061.75,-1412.98 2084.22,-1421.02 2106,-1428 2588.38,-1582.7 3173.99,-1697.44 3478.69,-1751.86"/>
<polygon fill="#444444" stroke="#444444" points="3478.5,-1755.39 3488.96,-1753.7 3479.73,-1748.5 3478.5,-1755.39"/>
<polygon fill="white" stroke="transparent" points="2632,-1672 2632,-1747 2905,-1747 2905,-1672 2632,-1672"/>
<text text-anchor="start" x="2657.5" y="-1724.3" font-family="Arial" font-size="24.00" fill="#444444">Creates, leases, and</text>
<text text-anchor="start" x="2636.5" y="-1700.3" font-family="Arial" font-size="24.00" fill="#444444">advances media tasks in</text>
<text text-anchor="start" x="2735.5" y="-1680.3" font-family="Arial" font-size="19.00" fill="#444444">[sqlite3]</text>
</g>
<!-- 24&#45;&gt;22 -->
<g id="97" class="edge">
<title>24&#45;&gt;22</title>
<path fill="none" stroke="#444444" stroke-dasharray="5,2" d="M2070.32,-859.12C2082.26,-864.09 2094.2,-868.76 2106,-873 2238.57,-920.62 2283.7,-890.64 2416,-939 2473.26,-959.93 2532.74,-988.72 2586.12,-1017.48"/>
<polygon fill="#444444" stroke="#444444" points="2584.52,-1020.59 2594.98,-1022.28 2587.86,-1014.44 2584.52,-1020.59"/>
<polygon fill="white" stroke="transparent" points="2154,-939 2154,-999 2368,-999 2368,-939 2154,-939"/>
<text text-anchor="start" x="2158" y="-975.8" font-family="Arial" font-size="24.00" fill="#444444">Uses artifact status</text>
<text text-anchor="start" x="2174.5" y="-949.8" font-family="Arial" font-size="24.00" fill="#444444">vocabulary from</text>
</g>
<!-- 24&#45;&gt;25 -->
<g id="99" class="edge">
<title>24&#45;&gt;25</title>
<path fill="none" stroke="#444444" stroke-dasharray="5,2" d="M2070.12,-783.68C2082.22,-785.36 2094.24,-786.82 2106,-788 2328.84,-810.31 3060.29,-762.55 3085,-759 3248.14,-735.54 3288.82,-722.67 3445,-670 3453.63,-667.09 3462.37,-664 3471.17,-660.78"/>
<polygon fill="#444444" stroke="#444444" points="3472.57,-663.99 3480.73,-657.23 3470.14,-657.43 3472.57,-663.99"/>
<polygon fill="white" stroke="transparent" points="2622.5,-791 2622.5,-851 2914.5,-851 2914.5,-791 2622.5,-791"/>
<text text-anchor="start" x="2626.5" y="-827.8" font-family="Arial" font-size="24.00" fill="#444444">Resolves contained media</text>
<text text-anchor="start" x="2681" y="-801.8" font-family="Arial" font-size="24.00" fill="#444444">locators through</text>
</g>
<!-- 24&#45;&gt;26 -->
<g id="100" class="edge">
<title>24&#45;&gt;26</title>
<path fill="none" stroke="#444444" stroke-dasharray="5,2" d="M2070.01,-692.2C2182.31,-671.88 2319.21,-647.11 2441.89,-624.92"/>
<polygon fill="#444444" stroke="#444444" points="2442.61,-628.34 2451.82,-623.12 2441.36,-621.45 2442.61,-628.34"/>
<polygon fill="white" stroke="transparent" points="2106,-684 2106,-770 2416,-770 2416,-684 2106,-684"/>
<text text-anchor="start" x="2128.5" y="-746.8" font-family="Arial" font-size="24.00" fill="#444444">Creates tombstones and</text>
<text text-anchor="start" x="2110" y="-720.8" font-family="Arial" font-size="24.00" fill="#444444">observes deletion outcomes</text>
<text text-anchor="start" x="2219.5" y="-694.8" font-family="Arial" font-size="24.00" fill="#444444">through</text>
</g>
<!-- 24&#45;&gt;34 -->
<g id="98" class="edge">
<title>24&#45;&gt;34</title>
<path fill="none" stroke="#444444" stroke-dasharray="5,2" d="M1991.39,-873.76C2021.95,-909.13 2050.58,-949.09 2070,-991 2119.78,-1098.45 2024.31,-1169.27 2106,-1255 2411.3,-1575.4 2670.15,-1282.85 3085,-1437 3224.04,-1488.66 3368.01,-1571.41 3480.11,-1643.48"/>
<polygon fill="#444444" stroke="#444444" points="3478.51,-1646.61 3488.81,-1649.09 3482.3,-1640.72 3478.51,-1646.61"/>
<polygon fill="white" stroke="transparent" points="2611,-1437 2611,-1512 2926,-1512 2926,-1437 2611,-1437"/>
<text text-anchor="start" x="2615.5" y="-1489.3" font-family="Arial" font-size="24.00" fill="#444444">Counts and advances media</text>
<text text-anchor="start" x="2690.5" y="-1465.3" font-family="Arial" font-size="24.00" fill="#444444">artifact rows in</text>
<text text-anchor="start" x="2735.5" y="-1445.3" font-family="Arial" font-size="19.00" fill="#444444">[sqlite3]</text>
</g>
<!-- 36 -->
<g id="36" class="node">
<title>36</title>
<path fill="#2f95c8" stroke="#20688c" d="M4798,-560.22C4798,-581.82 4676.09,-599.38 4526,-599.38 4375.91,-599.38 4254,-581.82 4254,-560.22 4254,-560.22 4254,-207.78 4254,-207.78 4254,-186.18 4375.91,-168.62 4526,-168.62 4676.09,-168.62 4798,-186.18 4798,-207.78 4798,-207.78 4798,-560.22 4798,-560.22"/>
<path fill="none" stroke="#20688c" d="M4798,-560.22C4798,-538.61 4676.09,-521.06 4526,-521.06 4375.91,-521.06 4254,-538.61 4254,-560.22"/>
<text text-anchor="start" x="4370.5" y="-492.3" font-family="Arial" font-size="34.00" fill="#ffffff">Guarded Media Blob</text>
<text text-anchor="start" x="4476.5" y="-458.3" font-family="Arial" font-size="34.00" fill="#ffffff">Cache</text>
<text text-anchor="start" x="4283" y="-436.3" font-family="Arial" font-size="19.00" fill="#ffffff">[Container: WSL&#45;visible local or NAS&#45;mounted filesystem]</text>
<text text-anchor="start" x="4416" y="-399.3" font-family="Arial" font-size="24.00" fill="#ffffff">Bounded disposable</text>
<text text-anchor="start" x="4360.5" y="-375.3" font-family="Arial" font-size="24.00" fill="#ffffff">image/video/audio bytes under</text>
<text text-anchor="start" x="4384.5" y="-351.3" font-family="Arial" font-size="24.00" fill="#ffffff">the configured media root;</text>
<text text-anchor="start" x="4412" y="-327.3" font-family="Arial" font-size="24.00" fill="#ffffff">explicit external roots</text>
<text text-anchor="start" x="4427" y="-303.3" font-family="Arial" font-size="24.00" fill="#ffffff">require mount and</text>
<text text-anchor="start" x="4376.5" y="-279.3" font-family="Arial" font-size="24.00" fill="#ffffff">identity&#45;marker proof before</text>
<text text-anchor="start" x="4485" y="-255.3" font-family="Arial" font-size="24.00" fill="#ffffff">access.</text>
</g>
<!-- 25&#45;&gt;36 -->
<g id="110" class="edge">
<title>25&#45;&gt;36</title>
<path fill="none" stroke="#444444" stroke-dasharray="5,2" d="M3892.11,-521.54C3997.86,-498.55 4128.54,-470.16 4243.64,-445.14"/>
<polygon fill="#444444" stroke="#444444" points="4244.64,-448.51 4253.67,-442.96 4243.15,-441.67 4244.64,-448.51"/>
<polygon fill="white" stroke="transparent" points="3937.5,-513 3937.5,-612 4208.5,-612 4208.5,-513 3937.5,-513"/>
<text text-anchor="start" x="3943.5" y="-589.3" font-family="Arial" font-size="24.00" fill="#444444">Stages, commits, reads,</text>
<text text-anchor="start" x="3942" y="-565.3" font-family="Arial" font-size="24.00" fill="#444444">stats, and deletes media</text>
<text text-anchor="start" x="4031.5" y="-541.3" font-family="Arial" font-size="24.00" fill="#444444">blobs in</text>
<text text-anchor="start" x="4022" y="-521.3" font-family="Arial" font-size="19.00" fill="#444444">[Filesystem]</text>
</g>
<!-- 37 -->
<g id="37" class="node">
<title>37</title>
<path fill="#2f95c8" stroke="#20688c" d="M4719,-1092.72C4719,-1115.98 4632.49,-1134.88 4526,-1134.88 4419.51,-1134.88 4333,-1115.98 4333,-1092.72 4333,-1092.72 4333,-713.28 4333,-713.28 4333,-690.02 4419.51,-671.12 4526,-671.12 4632.49,-671.12 4719,-690.02 4719,-713.28 4719,-713.28 4719,-1092.72 4719,-1092.72"/>
<path fill="none" stroke="#20688c" d="M4719,-1092.72C4719,-1069.45 4632.49,-1050.56 4526,-1050.56 4419.51,-1050.56 4333,-1069.45 4333,-1092.72"/>
<text text-anchor="start" x="4362" y="-1023.3" font-family="Arial" font-size="34.00" fill="#ffffff">Bounded Local Media</text>
<text text-anchor="start" x="4482.5" y="-989.3" font-family="Arial" font-size="34.00" fill="#ffffff">Spool</text>
<text text-anchor="start" x="4386" y="-967.3" font-family="Arial" font-size="19.00" fill="#ffffff">[Container: WSL local filesystem]</text>
<text text-anchor="start" x="4374" y="-930.3" font-family="Arial" font-size="24.00" fill="#ffffff">Opt&#45;in durable outage buffer</text>
<text text-anchor="start" x="4377.5" y="-906.3" font-family="Arial" font-size="24.00" fill="#ffffff">beneath the local WSL data</text>
<text text-anchor="start" x="4404.5" y="-882.3" font-family="Arial" font-size="24.00" fill="#ffffff">root; admission counts</text>
<text text-anchor="start" x="4380.5" y="-858.3" font-family="Arial" font-size="24.00" fill="#ffffff">committed files and distinct</text>
<text text-anchor="start" x="4374" y="-834.3" font-family="Arial" font-size="24.00" fill="#ffffff">in&#45;flight SQLite reservations,</text>
<text text-anchor="start" x="4401" y="-810.3" font-family="Arial" font-size="24.00" fill="#ffffff">and drain verifies bytes</text>
<text text-anchor="start" x="4378.5" y="-786.3" font-family="Arial" font-size="24.00" fill="#ffffff">before tier transition/source</text>
<text text-anchor="start" x="4480" y="-762.3" font-family="Arial" font-size="24.00" fill="#ffffff">cleanup.</text>
</g>
<!-- 25&#45;&gt;37 -->
<g id="111" class="edge">
<title>25&#45;&gt;37</title>
<path fill="none" stroke="#444444" stroke-dasharray="5,2" d="M3892.11,-648.33C4023.34,-701.14 4192.95,-769.39 4323.56,-821.94"/>
<polygon fill="#444444" stroke="#444444" points="4322.31,-825.21 4332.89,-825.7 4324.92,-818.72 4322.31,-825.21"/>
<polygon fill="white" stroke="transparent" points="3928,-774 3928,-873 4218,-873 4218,-774 3928,-774"/>
<text text-anchor="start" x="3943" y="-850.3" font-family="Arial" font-size="24.00" fill="#444444">Stages, commits, reads,</text>
<text text-anchor="start" x="3932" y="-826.3" font-family="Arial" font-size="24.00" fill="#444444">stats, and deletes spooled</text>
<text text-anchor="start" x="4027" y="-802.3" font-family="Arial" font-size="24.00" fill="#444444">media in</text>
<text text-anchor="start" x="4021.5" y="-782.3" font-family="Arial" font-size="19.00" fill="#444444">[Filesystem]</text>
</g>
<!-- 26&#45;&gt;25 -->
<g id="108" class="edge">
<title>26&#45;&gt;25</title>
<path fill="none" stroke="#444444" stroke-dasharray="5,2" d="M3085.06,-566C3212.25,-566 3355.73,-566 3470.53,-566"/>
<polygon fill="#444444" stroke="#444444" points="3470.84,-569.5 3480.84,-566 3470.84,-562.5 3470.84,-569.5"/>
<polygon fill="white" stroke="transparent" points="3156.5,-566 3156.5,-652 3409.5,-652 3409.5,-566 3156.5,-566"/>
<text text-anchor="start" x="3161" y="-628.8" font-family="Arial" font-size="24.00" fill="#444444">Resolves, deletes, and</text>
<text text-anchor="start" x="3169" y="-602.8" font-family="Arial" font-size="24.00" fill="#444444">inventories contained</text>
<text text-anchor="start" x="3209.5" y="-576.8" font-family="Arial" font-size="24.00" fill="#444444">bytes through</text>
</g>
<!-- 26&#45;&gt;34 -->
<g id="107" class="edge">
<title>26&#45;&gt;34</title>
<path fill="none" stroke="#444444" stroke-dasharray="5,2" d="M3023.69,-722.72C3045.33,-739.95 3066.13,-758.13 3085,-777 3288.46,-980.41 3335.23,-1049.06 3445,-1315 3476.79,-1392.02 3448.14,-1422.42 3481,-1499 3483.68,-1505.25 3486.51,-1511.49 3489.48,-1517.73"/>
<polygon fill="#444444" stroke="#444444" points="3486.39,-1519.39 3493.92,-1526.85 3492.69,-1516.33 3486.39,-1519.39"/>
<polygon fill="white" stroke="transparent" points="3121,-1315 3121,-1390 3445,-1390 3445,-1315 3121,-1315"/>
<text text-anchor="start" x="3125" y="-1367.3" font-family="Arial" font-size="24.00" fill="#444444">Reads and advances durable</text>
<text text-anchor="start" x="3157" y="-1343.3" font-family="Arial" font-size="24.00" fill="#444444">blob lifecycle records in</text>
<text text-anchor="start" x="3249.5" y="-1323.3" font-family="Arial" font-size="19.00" fill="#444444">[sqlite3]</text>
</g>
</g>
</svg>
