<?xml version="1.0" encoding="UTF-8" standalone="no"?>
<!DOCTYPE svg PUBLIC "-//W3C//DTD SVG 1.1//EN"
 "http://www.w3.org/Graphics/SVG/1.1/DTD/svg11.dtd">
<!-- Generated by graphviz version 2.43.0 (0)
 -->
<!-- Title: %3 Pages: 1 -->
<svg width="2122pt" height="1777pt"
 viewBox="0.00 0.00 2122.00 1776.75" xmlns="http://www.w3.org/2000/svg" xmlns:xlink="http://www.w3.org/1999/xlink">
<g id="graph0" class="graph" transform="scale(1 1) rotate(0) translate(4 1772.75)">
<title>%3</title>
<polygon fill="white" stroke="transparent" points="-4,4 -4,-1772.75 2118,-1772.75 2118,4 -4,4"/>
<text text-anchor="start" x="734.5" y="-11.8" font-family="Arial" font-size="34.00">Container View: Browser Memory Daemon</text>
<g id="clust1" class="cluster">
<title>cluster_4</title>
<polygon fill="none" stroke="#444444" points="8,-64 8,-1760.75 1528,-1760.75 1528,-64 8,-64"/>
<text text-anchor="start" x="627" y="-92.8" font-family="Arial" font-size="24.00" fill="#444444">Browser Memory Daemon</text>
<text text-anchor="start" x="691" y="-72.8" font-family="Arial" font-size="19.00" fill="#444444">[Software System]</text>
</g>
<!-- 3 -->
<g id="3" class="node">
<title>3</title>
<polygon fill="#999999" stroke="#6b6b6b" points="2044.5,-577.69 1641.5,-577.69 1641.5,-312.69 2044.5,-312.69 2044.5,-577.69"/>
<text text-anchor="start" x="1681.5" y="-529.49" font-family="Arial" font-size="34.00" fill="#ffffff">Web Sites and Media</text>
<text text-anchor="start" x="1789" y="-495.49" font-family="Arial" font-size="34.00" fill="#ffffff">Origins</text>
<text text-anchor="start" x="1766" y="-473.49" font-family="Arial" font-size="19.00" fill="#ffffff">[Software System]</text>
<text text-anchor="start" x="1733" y="-436.49" font-family="Arial" font-size="24.00" fill="#ffffff">External web pages,</text>
<text text-anchor="start" x="1680.5" y="-412.49" font-family="Arial" font-size="24.00" fill="#ffffff">image/video URLs, and media</text>
<text text-anchor="start" x="1670.5" y="-388.49" font-family="Arial" font-size="24.00" fill="#ffffff">CDNs that Chrome loads or that</text>
<text text-anchor="start" x="1680.5" y="-364.49" font-family="Arial" font-size="24.00" fill="#ffffff">sidecars fetch as page&#45;related</text>
<text text-anchor="start" x="1806.5" y="-340.49" font-family="Arial" font-size="24.00" fill="#ffffff">media.</text>
</g>
<!-- 13 -->
<g id="13" class="node">
<title>13</title>
<path fill="#2f95c8" stroke="#20688c" d="M739.5,-1228.78C739.5,-1247.08 637.98,-1261.94 513,-1261.94 388.02,-1261.94 286.5,-1247.08 286.5,-1228.78 286.5,-1228.78 286.5,-930.35 286.5,-930.35 286.5,-912.05 388.02,-897.19 513,-897.19 637.98,-897.19 739.5,-912.05 739.5,-930.35 739.5,-930.35 739.5,-1228.78 739.5,-1228.78"/>
<path fill="none" stroke="#20688c" d="M739.5,-1228.78C739.5,-1210.48 637.98,-1195.62 513,-1195.62 388.02,-1195.62 286.5,-1210.48 286.5,-1228.78"/>
<text text-anchor="start" x="371" y="-1163.86" font-family="Arial" font-size="34.00" fill="#ffffff">Extension Browser</text>
<text text-anchor="start" x="453.5" y="-1129.86" font-family="Arial" font-size="34.00" fill="#ffffff">Storage</text>
<text text-anchor="start" x="315.5" y="-1107.86" font-family="Arial" font-size="19.00" fill="#ffffff">[Container: chrome.storage.local + IndexedDB]</text>
<text text-anchor="start" x="380.5" y="-1070.86" font-family="Arial" font-size="24.00" fill="#ffffff">Browser&#45;side storage for</text>
<text text-anchor="start" x="368.5" y="-1046.86" font-family="Arial" font-size="24.00" fill="#ffffff">capture and visit queues in</text>
<text text-anchor="start" x="374.5" y="-1022.86" font-family="Arial" font-size="24.00" fill="#ffffff">chrome.storage.local plus</text>
<text text-anchor="start" x="380.5" y="-998.86" font-family="Arial" font-size="24.00" fill="#ffffff">durable media tasks and</text>
<text text-anchor="start" x="361.5" y="-974.86" font-family="Arial" font-size="24.00" fill="#ffffff">fetched blobs in IndexedDB.</text>
</g>
<!-- 14 -->
<g id="14" class="node">
<title>14</title>
<polygon fill="#438dd5" stroke="#2e6295" points="1274,-1248.06 812,-1248.06 812,-911.06 1274,-911.06 1274,-1248.06"/>
<text text-anchor="start" x="878.5" y="-1199.86" font-family="Arial" font-size="34.00" fill="#ffffff">WSL Loopback HTTP</text>
<text text-anchor="start" x="978.5" y="-1165.86" font-family="Arial" font-size="34.00" fill="#ffffff">Daemon</text>
<text text-anchor="start" x="841" y="-1143.86" font-family="Arial" font-size="19.00" fill="#ffffff">[Container: Python 3.11, ThreadingHTTPServer]</text>
<text text-anchor="start" x="882" y="-1106.86" font-family="Arial" font-size="24.00" fill="#ffffff">Authenticated loopback HTTP</text>
<text text-anchor="start" x="907" y="-1082.86" font-family="Arial" font-size="24.00" fill="#ffffff">API that handles capture,</text>
<text text-anchor="start" x="903.5" y="-1058.86" font-family="Arial" font-size="24.00" fill="#ffffff">visit events, media artifact</text>
<text text-anchor="start" x="906.5" y="-1034.86" font-family="Arial" font-size="24.00" fill="#ffffff">upload/fetch/purge, exact</text>
<text text-anchor="start" x="1003" y="-1010.86" font-family="Arial" font-size="24.00" fill="#ffffff">search,</text>
<text text-anchor="start" x="894" y="-986.86" font-family="Arial" font-size="24.00" fill="#ffffff">recent/timeline/detail, policy</text>
<text text-anchor="start" x="891.5" y="-962.86" font-family="Arial" font-size="24.00" fill="#ffffff">rules, doctor, durable forget,</text>
<text text-anchor="start" x="930" y="-938.86" font-family="Arial" font-size="24.00" fill="#ffffff">and static UI serving.</text>
</g>
<!-- 14&#45;&gt;3 -->
<g id="117" class="edge">
<title>14&#45;&gt;3</title>
<path fill="none" stroke="#444444" stroke-dasharray="5,2" d="M1274.19,-960.37C1319.38,-931.49 1364.37,-898.17 1402,-861.38 1439.29,-824.92 1425.49,-796.42 1465,-762.38 1494.85,-736.66 1513.2,-748.2 1546,-726.38 1606.18,-686.32 1665.55,-633.71 1715.2,-584.91"/>
<polygon fill="#444444" stroke="#444444" points="1717.8,-587.26 1722.45,-577.74 1712.88,-582.28 1717.8,-587.26"/>
<polygon fill="white" stroke="transparent" points="1465,-774.38 1465,-849.38 1821,-849.38 1821,-774.38 1465,-774.38"/>
<text text-anchor="start" x="1528" y="-826.67" font-family="Arial" font-size="24.00" fill="#444444">Validates and fetches</text>
<text text-anchor="start" x="1547" y="-802.67" font-family="Arial" font-size="24.00" fill="#444444">public media from</text>
<text text-anchor="start" x="1469" y="-782.67" font-family="Arial" font-size="19.00" fill="#444444">[HTTP(S), no Referer or Chrome cookies]</text>
</g>
<!-- 39 -->
<g id="39" class="node">
<title>39</title>
<path fill="#2f95c8" stroke="#20688c" d="M428.5,-675.4C428.5,-703.63 339.98,-726.56 231,-726.56 122.02,-726.56 33.5,-703.63 33.5,-675.4 33.5,-675.4 33.5,-214.97 33.5,-214.97 33.5,-186.74 122.02,-163.81 231,-163.81 339.98,-163.81 428.5,-186.74 428.5,-214.97 428.5,-214.97 428.5,-675.4 428.5,-675.4"/>
<path fill="none" stroke="#20688c" d="M428.5,-675.4C428.5,-647.17 339.98,-624.24 231,-624.24 122.02,-624.24 33.5,-647.17 33.5,-675.4"/>
<text text-anchor="start" x="118" y="-601.49" font-family="Arial" font-size="34.00" fill="#ffffff">SQLite + FTS5</text>
<text text-anchor="start" x="158" y="-567.49" font-family="Arial" font-size="34.00" fill="#ffffff">Database</text>
<text text-anchor="start" x="105" y="-545.49" font-family="Arial" font-size="19.00" fill="#ffffff">[Container: SQLite with FTS5]</text>
<text text-anchor="start" x="63" y="-508.49" font-family="Arial" font-size="24.00" fill="#ffffff">Durable complete cleaned&#45;text,</text>
<text text-anchor="start" x="112" y="-484.49" font-family="Arial" font-size="24.00" fill="#ffffff">relational, and full&#45;text</text>
<text text-anchor="start" x="113.5" y="-460.49" font-family="Arial" font-size="24.00" fill="#ffffff">authority for migration</text>
<text text-anchor="start" x="79" y="-436.49" font-family="Arial" font-size="24.00" fill="#ffffff">ledger, sources, documents,</text>
<text text-anchor="start" x="81.5" y="-412.49" font-family="Arial" font-size="24.00" fill="#ffffff">visits, capture observations,</text>
<text text-anchor="start" x="100" y="-388.49" font-family="Arial" font-size="24.00" fill="#ffffff">URL claims, visit events,</text>
<text text-anchor="start" x="62.5" y="-364.49" font-family="Arial" font-size="24.00" fill="#ffffff">snapshots, chunks, chunks_fts,</text>
<text text-anchor="start" x="70" y="-340.49" font-family="Arial" font-size="24.00" fill="#ffffff">media provenance/tasks, blob</text>
<text text-anchor="start" x="106.5" y="-316.49" font-family="Arial" font-size="24.00" fill="#ffffff">lifecycle records, policy</text>
<text text-anchor="start" x="105.5" y="-292.49" font-family="Arial" font-size="24.00" fill="#ffffff">rules, audit events, and</text>
<text text-anchor="start" x="139" y="-268.49" font-family="Arial" font-size="24.00" fill="#ffffff">deletion receipts.</text>
</g>
<!-- 14&#45;&gt;39 -->
<g id="61" class="edge">
<title>14&#45;&gt;39</title>
<path fill="none" stroke="#444444" stroke-dasharray="5,2" d="M811.7,-912.54C799.55,-906.9 787.29,-901.79 775,-897.38 696.22,-869.05 467.15,-911.37 400,-861.38 356.88,-829.27 324.73,-784.27 300.76,-735.66"/>
<polygon fill="#444444" stroke="#444444" points="303.86,-734.04 296.38,-726.54 297.56,-737.07 303.86,-734.04"/>
<polygon fill="white" stroke="transparent" points="400,-762.38 400,-861.38 710,-861.38 710,-762.38 400,-762.38"/>
<text text-anchor="start" x="404" y="-838.67" font-family="Arial" font-size="24.00" fill="#444444">Reads and writes metadata,</text>
<text text-anchor="start" x="437" y="-814.67" font-family="Arial" font-size="24.00" fill="#444444">FTS, tasks, audit, and</text>
<text text-anchor="start" x="499.5" y="-790.67" font-family="Arial" font-size="24.00" fill="#444444">receipts in</text>
<text text-anchor="start" x="521.5" y="-770.67" font-family="Arial" font-size="19.00" fill="#444444">[sqlite3]</text>
</g>
<!-- 41 -->
<g id="41" class="node">
<title>41</title>
<path fill="#2f95c8" stroke="#20688c" d="M1045,-621.4C1045,-643.01 923.09,-660.56 773,-660.56 622.91,-660.56 501,-643.01 501,-621.4 501,-621.4 501,-268.97 501,-268.97 501,-247.36 622.91,-229.81 773,-229.81 923.09,-229.81 1045,-247.36 1045,-268.97 1045,-268.97 1045,-621.4 1045,-621.4"/>
<path fill="none" stroke="#20688c" d="M1045,-621.4C1045,-599.8 923.09,-582.24 773,-582.24 622.91,-582.24 501,-599.8 501,-621.4"/>
<text text-anchor="start" x="617.5" y="-553.49" font-family="Arial" font-size="34.00" fill="#ffffff">Guarded Media Blob</text>
<text text-anchor="start" x="723.5" y="-519.49" font-family="Arial" font-size="34.00" fill="#ffffff">Cache</text>
<text text-anchor="start" x="530" y="-497.49" font-family="Arial" font-size="19.00" fill="#ffffff">[Container: WSL&#45;visible local or NAS&#45;mounted filesystem]</text>
<text text-anchor="start" x="663" y="-460.49" font-family="Arial" font-size="24.00" fill="#ffffff">Bounded disposable</text>
<text text-anchor="start" x="607.5" y="-436.49" font-family="Arial" font-size="24.00" fill="#ffffff">image/video/audio bytes under</text>
<text text-anchor="start" x="631.5" y="-412.49" font-family="Arial" font-size="24.00" fill="#ffffff">the configured media root;</text>
<text text-anchor="start" x="659" y="-388.49" font-family="Arial" font-size="24.00" fill="#ffffff">explicit external roots</text>
<text text-anchor="start" x="674" y="-364.49" font-family="Arial" font-size="24.00" fill="#ffffff">require mount and</text>
<text text-anchor="start" x="623.5" y="-340.49" font-family="Arial" font-size="24.00" fill="#ffffff">identity&#45;marker proof before</text>
<text text-anchor="start" x="732" y="-316.49" font-family="Arial" font-size="24.00" fill="#ffffff">access.</text>
</g>
<!-- 14&#45;&gt;41 -->
<g id="63" class="edge">
<title>14&#45;&gt;41</title>
<path fill="none" stroke="#444444" stroke-dasharray="5,2" d="M811.93,-937.68C789.53,-914.93 769.98,-889.49 756,-861.38 727.18,-803.43 720.65,-735.12 724.32,-670.82"/>
<polygon fill="#444444" stroke="#444444" points="727.83,-670.74 724.99,-660.54 720.85,-670.29 727.83,-670.74"/>
<polygon fill="white" stroke="transparent" points="756,-762.38 756,-861.38 1064,-861.38 1064,-762.38 756,-762.38"/>
<text text-anchor="start" x="785" y="-838.67" font-family="Arial" font-size="24.00" fill="#444444">Stores, serves, purges,</text>
<text text-anchor="start" x="760" y="-814.67" font-family="Arial" font-size="24.00" fill="#444444">and rehydrates media blobs</text>
<text text-anchor="start" x="900.5" y="-790.67" font-family="Arial" font-size="24.00" fill="#444444">in</text>
<text text-anchor="start" x="858.5" y="-770.67" font-family="Arial" font-size="19.00" fill="#444444">[Filesystem]</text>
</g>
<!-- 42 -->
<g id="42" class="node">
<title>42</title>
<path fill="#2f95c8" stroke="#20688c" d="M1503,-634.9C1503,-658.17 1416.49,-677.06 1310,-677.06 1203.51,-677.06 1117,-658.17 1117,-634.9 1117,-634.9 1117,-255.47 1117,-255.47 1117,-232.21 1203.51,-213.31 1310,-213.31 1416.49,-213.31 1503,-232.21 1503,-255.47 1503,-255.47 1503,-634.9 1503,-634.9"/>
<path fill="none" stroke="#20688c" d="M1503,-634.9C1503,-611.64 1416.49,-592.74 1310,-592.74 1203.51,-592.74 1117,-611.64 1117,-634.9"/>
<text text-anchor="start" x="1146" y="-565.49" font-family="Arial" font-size="34.00" fill="#ffffff">Bounded Local Media</text>
<text text-anchor="start" x="1266.5" y="-531.49" font-family="Arial" font-size="34.00" fill="#ffffff">Spool</text>
<text text-anchor="start" x="1170" y="-509.49" font-family="Arial" font-size="19.00" fill="#ffffff">[Container: WSL local filesystem]</text>
<text text-anchor="start" x="1158" y="-472.49" font-family="Arial" font-size="24.00" fill="#ffffff">Opt&#45;in durable outage buffer</text>
<text text-anchor="start" x="1161.5" y="-448.49" font-family="Arial" font-size="24.00" fill="#ffffff">beneath the local WSL data</text>
<text text-anchor="start" x="1188.5" y="-424.49" font-family="Arial" font-size="24.00" fill="#ffffff">root; admission counts</text>
<text text-anchor="start" x="1164.5" y="-400.49" font-family="Arial" font-size="24.00" fill="#ffffff">committed files and distinct</text>
<text text-anchor="start" x="1158" y="-376.49" font-family="Arial" font-size="24.00" fill="#ffffff">in&#45;flight SQLite reservations,</text>
<text text-anchor="start" x="1185" y="-352.49" font-family="Arial" font-size="24.00" fill="#ffffff">and drain verifies bytes</text>
<text text-anchor="start" x="1162.5" y="-328.49" font-family="Arial" font-size="24.00" fill="#ffffff">before tier transition/source</text>
<text text-anchor="start" x="1264" y="-304.49" font-family="Arial" font-size="24.00" fill="#ffffff">cleanup.</text>
</g>
<!-- 14&#45;&gt;42 -->
<g id="64" class="edge">
<title>14&#45;&gt;42</title>
<path fill="none" stroke="#444444" stroke-dasharray="5,2" d="M1068.42,-910.79C1078.79,-861.89 1092.96,-809.07 1112,-762.38 1123.75,-733.57 1138.05,-704.44 1153.55,-676.13"/>
<polygon fill="#444444" stroke="#444444" points="1156.62,-677.81 1158.4,-667.37 1150.49,-674.42 1156.62,-677.81"/>
<polygon fill="white" stroke="transparent" points="1112,-762.38 1112,-861.38 1388,-861.38 1388,-762.38 1112,-762.38"/>
<text text-anchor="start" x="1116" y="-838.67" font-family="Arial" font-size="24.00" fill="#444444">Stores and serves media</text>
<text text-anchor="start" x="1143" y="-814.67" font-family="Arial" font-size="24.00" fill="#444444">during guarded&#45;root</text>
<text text-anchor="start" x="1194" y="-790.67" font-family="Arial" font-size="24.00" fill="#444444">outages in</text>
<text text-anchor="start" x="1198.5" y="-770.67" font-family="Arial" font-size="19.00" fill="#444444">[Filesystem]</text>
</g>
<!-- 5 -->
<g id="5" class="node">
<title>5</title>
<polygon fill="#438dd5" stroke="#2e6295" points="1225,-1735.75 791,-1735.75 791,-1456.75 1225,-1456.75 1225,-1735.75"/>
<text text-anchor="start" x="828" y="-1687.55" font-family="Arial" font-size="34.00" fill="#ffffff">Chrome MV3 Extension</text>
<text text-anchor="start" x="820" y="-1665.55" font-family="Arial" font-size="19.00" fill="#ffffff">[Container: JavaScript, Chrome Manifest V3]</text>
<text text-anchor="start" x="865" y="-1628.55" font-family="Arial" font-size="24.00" fill="#ffffff">Captures visible page text,</text>
<text text-anchor="start" x="890.5" y="-1604.55" font-family="Arial" font-size="24.00" fill="#ffffff">media references, tab</text>
<text text-anchor="start" x="899" y="-1580.55" font-family="Arial" font-size="24.00" fill="#ffffff">lifecycle events, and</text>
<text text-anchor="start" x="842" y="-1556.55" font-family="Arial" font-size="24.00" fill="#ffffff">browser&#45;side media bytes from</text>
<text text-anchor="start" x="837" y="-1532.55" font-family="Arial" font-size="24.00" fill="#ffffff">Windows Chrome; queues work</text>
<text text-anchor="start" x="849" y="-1508.55" font-family="Arial" font-size="24.00" fill="#ffffff">durably and posts to the WSL</text>
<text text-anchor="start" x="960.5" y="-1484.55" font-family="Arial" font-size="24.00" fill="#ffffff">daemon.</text>
</g>
<!-- 5&#45;&gt;3 -->
<g id="50" class="edge">
<title>5&#45;&gt;3</title>
<path fill="none" stroke="#444444" stroke-dasharray="5,2" d="M1225.21,-1563.38C1330.09,-1538.86 1452.13,-1495.85 1541,-1420.75 1755.51,-1239.46 1765.08,-1133.39 1835,-861.38 1857.85,-772.48 1859.95,-669.33 1856.29,-588.08"/>
<polygon fill="#444444" stroke="#444444" points="1859.77,-587.59 1855.79,-577.78 1852.78,-587.93 1859.77,-587.59"/>
<polygon fill="white" stroke="transparent" points="1823,-1030.06 1823,-1129.06 2114,-1129.06 2114,-1030.06 1823,-1030.06"/>
<text text-anchor="start" x="1846.5" y="-1106.36" font-family="Arial" font-size="24.00" fill="#444444">Extracts DOM refs and</text>
<text text-anchor="start" x="1886" y="-1082.36" font-family="Arial" font-size="24.00" fill="#444444">fetches queued</text>
<text text-anchor="start" x="1838.5" y="-1058.36" font-family="Arial" font-size="24.00" fill="#444444">credentialed media from</text>
<text text-anchor="start" x="1827.5" y="-1038.36" font-family="Arial" font-size="19.00" fill="#444444">[DOM; fetch(credentials: include)]</text>
</g>
<!-- 5&#45;&gt;13 -->
<g id="51" class="edge">
<title>5&#45;&gt;13</title>
<path fill="none" stroke="#444444" stroke-dasharray="5,2" d="M790.79,-1497.62C755.18,-1475.61 720.62,-1449.96 692,-1420.75 650.27,-1378.17 615.87,-1323.88 588.76,-1271.24"/>
<polygon fill="#444444" stroke="#444444" points="591.78,-1269.46 584.13,-1262.13 585.54,-1272.63 591.78,-1269.46"/>
<polygon fill="white" stroke="transparent" points="692,-1297.75 692,-1420.75 1003,-1420.75 1003,-1297.75 692,-1297.75"/>
<text text-anchor="start" x="705.5" y="-1398.05" font-family="Arial" font-size="24.00" fill="#444444">Queues identity&#45;decorated</text>
<text text-anchor="start" x="751.5" y="-1374.05" font-family="Arial" font-size="24.00" fill="#444444">captures, lifecycle</text>
<text text-anchor="start" x="714" y="-1350.05" font-family="Arial" font-size="24.00" fill="#444444">events, media tasks, and</text>
<text text-anchor="start" x="806" y="-1326.05" font-family="Arial" font-size="24.00" fill="#444444">blobs in</text>
<text text-anchor="start" x="696.5" y="-1306.05" font-family="Arial" font-size="19.00" fill="#444444">[chrome.storage.local + IndexedDB]</text>
</g>
<!-- 5&#45;&gt;14 -->
<g id="52" class="edge">
<title>5&#45;&gt;14</title>
<path fill="none" stroke="#444444" stroke-dasharray="5,2" d="M1017.43,-1456.65C1021.57,-1395.74 1026.48,-1323.47 1030.89,-1258.64"/>
<polygon fill="#444444" stroke="#444444" points="1034.41,-1258.52 1031.59,-1248.3 1027.42,-1258.04 1034.41,-1258.52"/>
<polygon fill="white" stroke="transparent" points="1028,-1297.75 1028,-1420.75 1523,-1420.75 1523,-1297.75 1028,-1297.75"/>
<text text-anchor="start" x="1195" y="-1398.05" font-family="Arial" font-size="24.00" fill="#444444">Posts /capture,</text>
<text text-anchor="start" x="1172" y="-1374.05" font-family="Arial" font-size="24.00" fill="#444444">/visit&#45;events, media</text>
<text text-anchor="start" x="1149" y="-1350.05" font-family="Arial" font-size="24.00" fill="#444444">metadata, and raw blob</text>
<text text-anchor="start" x="1220" y="-1326.05" font-family="Arial" font-size="24.00" fill="#444444">uploads to</text>
<text text-anchor="start" x="1032.5" y="-1306.05" font-family="Arial" font-size="19.00" fill="#444444">[Bearer HTTP/JSON; raw HTTP PUT over 127.0.0.1:8765]</text>
</g>
</g>
</svg>
