<?xml version="1.0" encoding="UTF-8" standalone="no"?>
<!DOCTYPE svg PUBLIC "-//W3C//DTD SVG 1.1//EN"
 "http://www.w3.org/Graphics/SVG/1.1/DTD/svg11.dtd">
<!-- Generated by graphviz version 2.43.0 (0)
 -->
<!-- Title: %3 Pages: 1 -->
<svg width="2331pt" height="2241pt"
 viewBox="0.00 0.00 2331.00 2241.00" xmlns="http://www.w3.org/2000/svg" xmlns:xlink="http://www.w3.org/1999/xlink">
<g id="graph0" class="graph" transform="scale(1 1) rotate(0) translate(4 2237)">
<title>%3</title>
<polygon fill="white" stroke="transparent" points="-4,4 -4,-2237 2327,-2237 2327,4 -4,4"/>
<text text-anchor="start" x="839" y="-11.8" font-family="Arial" font-size="34.00">Container View: Browser Memory Daemon</text>
<g id="clust1" class="cluster">
<title>cluster_4</title>
<polygon fill="none" stroke="#444444" points="8,-64 8,-2225 2315,-2225 2315,-64 8,-64"/>
<text text-anchor="start" x="1020.5" y="-92.8" font-family="Arial" font-size="24.00" fill="#444444">Browser Memory Daemon</text>
<text text-anchor="start" x="1084.5" y="-72.8" font-family="Arial" font-size="19.00" fill="#444444">[Software System]</text>
</g>
<!-- 14 -->
<g id="14" class="node">
<title>14</title>
<polygon fill="#438dd5" stroke="#2e6295" points="1364,-1316.5 902,-1316.5 902,-979.5 1364,-979.5 1364,-1316.5"/>
<text text-anchor="start" x="968.5" y="-1268.3" font-family="Arial" font-size="34.00" fill="#ffffff">WSL Loopback HTTP</text>
<text text-anchor="start" x="1068.5" y="-1234.3" font-family="Arial" font-size="34.00" fill="#ffffff">Daemon</text>
<text text-anchor="start" x="931" y="-1212.3" font-family="Arial" font-size="19.00" fill="#ffffff">[Container: Python 3.11, ThreadingHTTPServer]</text>
<text text-anchor="start" x="972" y="-1175.3" font-family="Arial" font-size="24.00" fill="#ffffff">Authenticated loopback HTTP</text>
<text text-anchor="start" x="997" y="-1151.3" font-family="Arial" font-size="24.00" fill="#ffffff">API that handles capture,</text>
<text text-anchor="start" x="993.5" y="-1127.3" font-family="Arial" font-size="24.00" fill="#ffffff">visit events, media artifact</text>
<text text-anchor="start" x="996.5" y="-1103.3" font-family="Arial" font-size="24.00" fill="#ffffff">upload/fetch/purge, exact</text>
<text text-anchor="start" x="1093" y="-1079.3" font-family="Arial" font-size="24.00" fill="#ffffff">search,</text>
<text text-anchor="start" x="984" y="-1055.3" font-family="Arial" font-size="24.00" fill="#ffffff">recent/timeline/detail, policy</text>
<text text-anchor="start" x="981.5" y="-1031.3" font-family="Arial" font-size="24.00" fill="#ffffff">rules, doctor, durable forget,</text>
<text text-anchor="start" x="1020" y="-1007.3" font-family="Arial" font-size="24.00" fill="#ffffff">and static UI serving.</text>
</g>
<!-- 30 -->
<g id="30" class="node">
<title>30</title>
<path fill="#2f95c8" stroke="#20688c" d="M2215.5,-675.22C2215.5,-703.44 2126.98,-726.38 2018,-726.38 1909.02,-726.38 1820.5,-703.44 1820.5,-675.22 1820.5,-675.22 1820.5,-214.78 1820.5,-214.78 1820.5,-186.56 1909.02,-163.62 2018,-163.62 2126.98,-163.62 2215.5,-186.56 2215.5,-214.78 2215.5,-214.78 2215.5,-675.22 2215.5,-675.22"/>
<path fill="none" stroke="#20688c" d="M2215.5,-675.22C2215.5,-646.99 2126.98,-624.06 2018,-624.06 1909.02,-624.06 1820.5,-646.99 1820.5,-675.22"/>
<text text-anchor="start" x="1905" y="-601.3" font-family="Arial" font-size="34.00" fill="#ffffff">SQLite + FTS5</text>
<text text-anchor="start" x="1945" y="-567.3" font-family="Arial" font-size="34.00" fill="#ffffff">Database</text>
<text text-anchor="start" x="1892" y="-545.3" font-family="Arial" font-size="19.00" fill="#ffffff">[Container: SQLite with FTS5]</text>
<text text-anchor="start" x="1850" y="-508.3" font-family="Arial" font-size="24.00" fill="#ffffff">Durable complete cleaned&#45;text,</text>
<text text-anchor="start" x="1899" y="-484.3" font-family="Arial" font-size="24.00" fill="#ffffff">relational, and full&#45;text</text>
<text text-anchor="start" x="1900.5" y="-460.3" font-family="Arial" font-size="24.00" fill="#ffffff">authority for migration</text>
<text text-anchor="start" x="1866" y="-436.3" font-family="Arial" font-size="24.00" fill="#ffffff">ledger, sources, documents,</text>
<text text-anchor="start" x="1868.5" y="-412.3" font-family="Arial" font-size="24.00" fill="#ffffff">visits, capture observations,</text>
<text text-anchor="start" x="1887" y="-388.3" font-family="Arial" font-size="24.00" fill="#ffffff">URL claims, visit events,</text>
<text text-anchor="start" x="1849.5" y="-364.3" font-family="Arial" font-size="24.00" fill="#ffffff">snapshots, chunks, chunks_fts,</text>
<text text-anchor="start" x="1857" y="-340.3" font-family="Arial" font-size="24.00" fill="#ffffff">media provenance/tasks, blob</text>
<text text-anchor="start" x="1893.5" y="-316.3" font-family="Arial" font-size="24.00" fill="#ffffff">lifecycle records, policy</text>
<text text-anchor="start" x="1892.5" y="-292.3" font-family="Arial" font-size="24.00" fill="#ffffff">rules, audit events, and</text>
<text text-anchor="start" x="1926" y="-268.3" font-family="Arial" font-size="24.00" fill="#ffffff">deletion receipts.</text>
</g>
<!-- 14&#45;&gt;30 -->
<g id="49" class="edge">
<title>14&#45;&gt;30</title>
<path fill="none" stroke="#444444" stroke-dasharray="5,2" d="M1317.14,-979.32C1333.96,-960.12 1349.94,-940.18 1364,-920 1386.06,-888.34 1370.59,-865.97 1400,-841 1508.82,-748.61 1586.77,-829.05 1710,-757 1745.83,-736.05 1780.35,-709.84 1812.48,-681.56"/>
<polygon fill="#444444" stroke="#444444" points="1815.02,-683.99 1820.17,-674.72 1810.37,-678.76 1815.02,-683.99"/>
<polygon fill="white" stroke="transparent" points="1400,-841 1400,-940 1710,-940 1710,-841 1400,-841"/>
<text text-anchor="start" x="1404" y="-917.3" font-family="Arial" font-size="24.00" fill="#444444">Reads and writes metadata,</text>
<text text-anchor="start" x="1437" y="-893.3" font-family="Arial" font-size="24.00" fill="#444444">FTS, tasks, audit, and</text>
<text text-anchor="start" x="1499.5" y="-869.3" font-family="Arial" font-size="24.00" fill="#444444">receipts in</text>
<text text-anchor="start" x="1521.5" y="-849.3" font-family="Arial" font-size="19.00" fill="#444444">[sqlite3]</text>
</g>
<!-- 31 -->
<g id="31" class="node">
<title>31</title>
<path fill="#2f95c8" stroke="#20688c" d="M2215.5,-1129.22C2215.5,-1147.51 2126.98,-1162.38 2018,-1162.38 1909.02,-1162.38 1820.5,-1147.51 1820.5,-1129.22 1820.5,-1129.22 1820.5,-830.78 1820.5,-830.78 1820.5,-812.49 1909.02,-797.62 2018,-797.62 2126.98,-797.62 2215.5,-812.49 2215.5,-830.78 2215.5,-830.78 2215.5,-1129.22 2215.5,-1129.22"/>
<path fill="none" stroke="#20688c" d="M2215.5,-1129.22C2215.5,-1110.92 2126.98,-1096.06 2018,-1096.06 1909.02,-1096.06 1820.5,-1110.92 1820.5,-1129.22"/>
<text text-anchor="start" x="1896.5" y="-1064.3" font-family="Arial" font-size="34.00" fill="#ffffff">Local Derivative</text>
<text text-anchor="start" x="1977" y="-1030.3" font-family="Arial" font-size="34.00" fill="#ffffff">Store</text>
<text text-anchor="start" x="1878" y="-1008.3" font-family="Arial" font-size="19.00" fill="#ffffff">[Container: WSL local filesystem]</text>
<text text-anchor="start" x="1864.5" y="-971.3" font-family="Arial" font-size="24.00" fill="#ffffff">Reconstructible compatibility</text>
<text text-anchor="start" x="1849.5" y="-947.3" font-family="Arial" font-size="24.00" fill="#ffffff">evidence such as pre&#45;version&#45;9</text>
<text text-anchor="start" x="1888" y="-923.3" font-family="Arial" font-size="24.00" fill="#ffffff">clean&#45;text sidecars; new</text>
<text text-anchor="start" x="1894.5" y="-899.3" font-family="Arial" font-size="24.00" fill="#ffffff">captures create no text</text>
<text text-anchor="start" x="1969.5" y="-875.3" font-family="Arial" font-size="24.00" fill="#ffffff">sidecars.</text>
</g>
<!-- 14&#45;&gt;31 -->
<g id="50" class="edge">
<title>14&#45;&gt;31</title>
<path fill="none" stroke="#444444" stroke-dasharray="5,2" d="M1364.28,-1007.79C1376.15,-1003.31 1388.09,-999.33 1400,-996 1533,-958.83 1688.46,-955.03 1810.06,-960.42"/>
<polygon fill="#444444" stroke="#444444" points="1810.08,-963.92 1820.23,-960.9 1810.41,-956.93 1810.08,-963.92"/>
<polygon fill="white" stroke="transparent" points="1421,-996 1421,-1095 1689,-1095 1689,-996 1421,-996"/>
<text text-anchor="start" x="1425" y="-1072.3" font-family="Arial" font-size="24.00" fill="#444444">Reads or deletes legacy</text>
<text text-anchor="start" x="1454.5" y="-1048.3" font-family="Arial" font-size="24.00" fill="#444444">text sidecars when</text>
<text text-anchor="start" x="1510" y="-1024.3" font-family="Arial" font-size="24.00" fill="#444444">required</text>
<text text-anchor="start" x="1503.5" y="-1004.3" font-family="Arial" font-size="19.00" fill="#444444">[Filesystem]</text>
</g>
<!-- 32 -->
<g id="32" class="node">
<title>32</title>
<path fill="#2f95c8" stroke="#20688c" d="M2290,-2161.22C2290,-2182.82 2168.09,-2200.38 2018,-2200.38 1867.91,-2200.38 1746,-2182.82 1746,-2161.22 1746,-2161.22 1746,-1808.78 1746,-1808.78 1746,-1787.18 1867.91,-1769.62 2018,-1769.62 2168.09,-1769.62 2290,-1787.18 2290,-1808.78 2290,-1808.78 2290,-2161.22 2290,-2161.22"/>
<path fill="none" stroke="#20688c" d="M2290,-2161.22C2290,-2139.61 2168.09,-2122.06 2018,-2122.06 1867.91,-2122.06 1746,-2139.61 1746,-2161.22"/>
<text text-anchor="start" x="1862.5" y="-2093.3" font-family="Arial" font-size="34.00" fill="#ffffff">Guarded Media Blob</text>
<text text-anchor="start" x="1968.5" y="-2059.3" font-family="Arial" font-size="34.00" fill="#ffffff">Cache</text>
<text text-anchor="start" x="1775" y="-2037.3" font-family="Arial" font-size="19.00" fill="#ffffff">[Container: WSL&#45;visible local or NAS&#45;mounted filesystem]</text>
<text text-anchor="start" x="1908" y="-2000.3" font-family="Arial" font-size="24.00" fill="#ffffff">Bounded disposable</text>
<text text-anchor="start" x="1852.5" y="-1976.3" font-family="Arial" font-size="24.00" fill="#ffffff">image/video/audio bytes under</text>
<text text-anchor="start" x="1876.5" y="-1952.3" font-family="Arial" font-size="24.00" fill="#ffffff">the configured media root;</text>
<text text-anchor="start" x="1904" y="-1928.3" font-family="Arial" font-size="24.00" fill="#ffffff">explicit external roots</text>
<text text-anchor="start" x="1919" y="-1904.3" font-family="Arial" font-size="24.00" fill="#ffffff">require mount and</text>
<text text-anchor="start" x="1868.5" y="-1880.3" font-family="Arial" font-size="24.00" fill="#ffffff">identity&#45;marker proof before</text>
<text text-anchor="start" x="1977" y="-1856.3" font-family="Arial" font-size="24.00" fill="#ffffff">access.</text>
</g>
<!-- 14&#45;&gt;32 -->
<g id="51" class="edge">
<title>14&#45;&gt;32</title>
<path fill="none" stroke="#444444" stroke-dasharray="5,2" d="M1308.69,-1316.75C1430.72,-1434.26 1597.68,-1594.32 1746,-1734 1759.52,-1746.73 1773.44,-1759.79 1787.51,-1772.94"/>
<polygon fill="#444444" stroke="#444444" points="1785.18,-1775.56 1794.88,-1779.83 1789.96,-1770.45 1785.18,-1775.56"/>
<polygon fill="white" stroke="transparent" points="1401,-1686 1401,-1785 1709,-1785 1709,-1686 1401,-1686"/>
<text text-anchor="start" x="1430" y="-1762.3" font-family="Arial" font-size="24.00" fill="#444444">Stores, serves, purges,</text>
<text text-anchor="start" x="1405" y="-1738.3" font-family="Arial" font-size="24.00" fill="#444444">and rehydrates media blobs</text>
<text text-anchor="start" x="1545.5" y="-1714.3" font-family="Arial" font-size="24.00" fill="#444444">in</text>
<text text-anchor="start" x="1503.5" y="-1694.3" font-family="Arial" font-size="19.00" fill="#444444">[Filesystem]</text>
</g>
<!-- 33 -->
<g id="33" class="node">
<title>33</title>
<path fill="#2f95c8" stroke="#20688c" d="M2211,-1655.72C2211,-1678.98 2124.49,-1697.88 2018,-1697.88 1911.51,-1697.88 1825,-1678.98 1825,-1655.72 1825,-1655.72 1825,-1276.28 1825,-1276.28 1825,-1253.02 1911.51,-1234.12 2018,-1234.12 2124.49,-1234.12 2211,-1253.02 2211,-1276.28 2211,-1276.28 2211,-1655.72 2211,-1655.72"/>
<path fill="none" stroke="#20688c" d="M2211,-1655.72C2211,-1632.45 2124.49,-1613.56 2018,-1613.56 1911.51,-1613.56 1825,-1632.45 1825,-1655.72"/>
<text text-anchor="start" x="1854" y="-1586.3" font-family="Arial" font-size="34.00" fill="#ffffff">Bounded Local Media</text>
<text text-anchor="start" x="1974.5" y="-1552.3" font-family="Arial" font-size="34.00" fill="#ffffff">Spool</text>
<text text-anchor="start" x="1878" y="-1530.3" font-family="Arial" font-size="19.00" fill="#ffffff">[Container: WSL local filesystem]</text>
<text text-anchor="start" x="1866" y="-1493.3" font-family="Arial" font-size="24.00" fill="#ffffff">Opt&#45;in durable outage buffer</text>
<text text-anchor="start" x="1869.5" y="-1469.3" font-family="Arial" font-size="24.00" fill="#ffffff">beneath the local WSL data</text>
<text text-anchor="start" x="1896.5" y="-1445.3" font-family="Arial" font-size="24.00" fill="#ffffff">root; admission counts</text>
<text text-anchor="start" x="1872.5" y="-1421.3" font-family="Arial" font-size="24.00" fill="#ffffff">committed files and distinct</text>
<text text-anchor="start" x="1866" y="-1397.3" font-family="Arial" font-size="24.00" fill="#ffffff">in&#45;flight SQLite reservations,</text>
<text text-anchor="start" x="1893" y="-1373.3" font-family="Arial" font-size="24.00" fill="#ffffff">and drain verifies bytes</text>
<text text-anchor="start" x="1870.5" y="-1349.3" font-family="Arial" font-size="24.00" fill="#ffffff">before tier transition/source</text>
<text text-anchor="start" x="1972" y="-1325.3" font-family="Arial" font-size="24.00" fill="#ffffff">cleanup.</text>
</g>
<!-- 14&#45;&gt;33 -->
<g id="52" class="edge">
<title>14&#45;&gt;33</title>
<path fill="none" stroke="#444444" stroke-dasharray="5,2" d="M1364.1,-1120.94C1472.97,-1117.17 1602.38,-1126.16 1710,-1172 1725.41,-1178.56 1768.5,-1217.45 1817.7,-1264.9"/>
<polygon fill="#444444" stroke="#444444" points="1815.38,-1267.52 1825,-1271.96 1820.24,-1262.49 1815.38,-1267.52"/>
<polygon fill="white" stroke="transparent" points="1417,-1172 1417,-1271 1693,-1271 1693,-1172 1417,-1172"/>
<text text-anchor="start" x="1421" y="-1248.3" font-family="Arial" font-size="24.00" fill="#444444">Stores and serves media</text>
<text text-anchor="start" x="1448" y="-1224.3" font-family="Arial" font-size="24.00" fill="#444444">during guarded&#45;root</text>
<text text-anchor="start" x="1499" y="-1200.3" font-family="Arial" font-size="24.00" fill="#444444">outages in</text>
<text text-anchor="start" x="1503.5" y="-1180.3" font-family="Arial" font-size="19.00" fill="#444444">[Filesystem]</text>
</g>
<!-- 28 -->
<g id="28" class="node">
<title>28</title>
<polygon fill="#438dd5" stroke="#2e6295" points="546,-777.5 34,-777.5 34,-522.5 546,-522.5 546,-777.5"/>
<text text-anchor="start" x="187.5" y="-729.3" font-family="Arial" font-size="34.00" fill="#ffffff">Local Web UI</text>
<text text-anchor="start" x="63" y="-707.3" font-family="Arial" font-size="19.00" fill="#ffffff">[Container: HTML/CSS/JavaScript served by daemon]</text>
<text text-anchor="start" x="148" y="-670.3" font-family="Arial" font-size="24.00" fill="#ffffff">Static browser UI for exact</text>
<text text-anchor="start" x="131" y="-646.3" font-family="Arial" font-size="24.00" fill="#ffffff">search, recent/timeline views,</text>
<text text-anchor="start" x="148.5" y="-622.3" font-family="Arial" font-size="24.00" fill="#ffffff">document/snapshot detail,</text>
<text text-anchor="start" x="133" y="-598.3" font-family="Arial" font-size="24.00" fill="#ffffff">media artifact opening, policy</text>
<text text-anchor="start" x="196.5" y="-574.3" font-family="Arial" font-size="24.00" fill="#ffffff">rules, doctor, and</text>
<text text-anchor="start" x="151.5" y="-550.3" font-family="Arial" font-size="24.00" fill="#ffffff">forget&#45;domain operations.</text>
</g>
<!-- 28&#45;&gt;14 -->
<g id="43" class="edge">
<title>28&#45;&gt;14</title>
<path fill="none" stroke="#444444" stroke-dasharray="5,2" d="M506.49,-777.6C624.71,-847.61 771.56,-934.56 893.25,-1006.63"/>
<polygon fill="#444444" stroke="#444444" points="891.58,-1009.7 901.97,-1011.79 895.15,-1003.68 891.58,-1009.7"/>
<polygon fill="white" stroke="transparent" points="586,-986 586,-1085 863,-1085 863,-986 586,-986"/>
<text text-anchor="start" x="591" y="-1062.3" font-family="Arial" font-size="24.00" fill="#444444">Calls authenticated read,</text>
<text text-anchor="start" x="590.5" y="-1038.3" font-family="Arial" font-size="24.00" fill="#444444">admin, media, and forget</text>
<text text-anchor="start" x="682.5" y="-1014.3" font-family="Arial" font-size="24.00" fill="#444444">APIs on</text>
<text text-anchor="start" x="667" y="-994.3" font-family="Arial" font-size="19.00" fill="#444444">[HTTP/JSON]</text>
</g>
<!-- 29 -->
<g id="29" class="node">
<title>29</title>
<polygon fill="#438dd5" stroke="#2e6295" points="547,-1523.5 33,-1523.5 33,-1196.5 547,-1196.5 547,-1523.5"/>
<text text-anchor="start" x="263" y="-1475.3" font-family="Arial" font-size="34.00" fill="#ffffff">CLI</text>
<text text-anchor="start" x="169" y="-1453.3" font-family="Arial" font-size="19.00" fill="#ffffff">[Container: Python argparse]</text>
<text text-anchor="start" x="143.5" y="-1416.3" font-family="Arial" font-size="24.00" fill="#ffffff">Command&#45;line interface for</text>
<text text-anchor="start" x="123" y="-1392.3" font-family="Arial" font-size="24.00" fill="#ffffff">serving the daemon, migration,</text>
<text text-anchor="start" x="149.5" y="-1368.3" font-family="Arial" font-size="24.00" fill="#ffffff">snapshot&#45;text and storage</text>
<text text-anchor="start" x="146.5" y="-1344.3" font-family="Arial" font-size="24.00" fill="#ffffff">reconciliation, media&#45;spool</text>
<text text-anchor="start" x="223.5" y="-1320.3" font-family="Arial" font-size="24.00" fill="#ffffff">status/drain,</text>
<text text-anchor="start" x="62" y="-1296.3" font-family="Arial" font-size="24.00" fill="#ffffff">health/doctor/search/recent/timeline/detail,</text>
<text text-anchor="start" x="177" y="-1272.3" font-family="Arial" font-size="24.00" fill="#ffffff">policy/forget, capture</text>
<text text-anchor="start" x="145" y="-1248.3" font-family="Arial" font-size="24.00" fill="#ffffff">fixtures, media worker, and</text>
<text text-anchor="start" x="157.5" y="-1224.3" font-family="Arial" font-size="24.00" fill="#ffffff">media cache operations.</text>
</g>
<!-- 29&#45;&gt;14 -->
<g id="44" class="edge">
<title>29&#45;&gt;14</title>
<path fill="none" stroke="#444444" stroke-dasharray="5,2" d="M547.04,-1295.46C656.8,-1267.79 784.3,-1235.65 892.2,-1208.45"/>
<polygon fill="#444444" stroke="#444444" points="893.07,-1211.84 901.91,-1206 891.36,-1205.05 893.07,-1211.84"/>
<polygon fill="white" stroke="transparent" points="583,-1285 583,-1384 866,-1384 866,-1285 583,-1285"/>
<text text-anchor="start" x="587.5" y="-1361.3" font-family="Arial" font-size="24.00" fill="#444444">Calls health, read, admin,</text>
<text text-anchor="start" x="620" y="-1337.3" font-family="Arial" font-size="24.00" fill="#444444">capture&#45;fixture, and</text>
<text text-anchor="start" x="649" y="-1313.3" font-family="Arial" font-size="24.00" fill="#444444">forget APIs on</text>
<text text-anchor="start" x="667" y="-1293.3" font-family="Arial" font-size="19.00" fill="#444444">[HTTP/JSON]</text>
</g>
<!-- 29&#45;&gt;30 -->
<g id="45" class="edge">
<title>29&#45;&gt;30</title>
<path fill="none" stroke="#444444" stroke-dasharray="5,2" d="M431.26,-1196.29C546.38,-1071.14 719.63,-902.67 902,-797 1194.3,-627.63 1577.77,-529.71 1810.35,-481.92"/>
<polygon fill="#444444" stroke="#444444" points="1811.18,-485.32 1820.28,-479.89 1809.78,-478.47 1811.18,-485.32"/>
<polygon fill="white" stroke="transparent" points="973,-797 973,-944 1293,-944 1293,-797 973,-797"/>
<text text-anchor="start" x="1048" y="-921.3" font-family="Arial" font-size="24.00" fill="#444444">Runs migration,</text>
<text text-anchor="start" x="980.5" y="-897.3" font-family="Arial" font-size="24.00" fill="#444444">media&#45;worker, media&#45;cache,</text>
<text text-anchor="start" x="1039.5" y="-873.3" font-family="Arial" font-size="24.00" fill="#444444">media&#45;spool, and</text>
<text text-anchor="start" x="977" y="-849.3" font-family="Arial" font-size="24.00" fill="#444444">storage&#45;reconcile commands</text>
<text text-anchor="start" x="1093.5" y="-825.3" font-family="Arial" font-size="24.00" fill="#444444">against</text>
<text text-anchor="start" x="1099.5" y="-805.3" font-family="Arial" font-size="19.00" fill="#444444">[sqlite3]</text>
</g>
<!-- 29&#45;&gt;32 -->
<g id="47" class="edge">
<title>29&#45;&gt;32</title>
<path fill="none" stroke="#444444" stroke-dasharray="5,2" d="M547.07,-1452.73C865.33,-1567.97 1406.63,-1763.98 1736.04,-1883.26"/>
<polygon fill="#444444" stroke="#444444" points="1735.12,-1886.65 1745.72,-1886.77 1737.51,-1880.07 1735.12,-1886.65"/>
<polygon fill="white" stroke="transparent" points="1006,-1744 1006,-1819 1260,-1819 1260,-1744 1006,-1744"/>
<text text-anchor="start" x="1010" y="-1796.3" font-family="Arial" font-size="24.00" fill="#444444">Purges and rehydrates</text>
<text text-anchor="start" x="1023" y="-1772.3" font-family="Arial" font-size="24.00" fill="#444444">media blobs through</text>
<text text-anchor="start" x="1081.5" y="-1752.3" font-family="Arial" font-size="19.00" fill="#444444">[Filesystem]</text>
</g>
<!-- 29&#45;&gt;33 -->
<g id="48" class="edge">
<title>29&#45;&gt;33</title>
<path fill="none" stroke="#444444" stroke-dasharray="5,2" d="M547.25,-1397.9C559.32,-1399.36 571.29,-1400.74 583,-1402 944.96,-1441.05 1036.24,-1446.41 1400,-1461 1538.33,-1466.55 1694.25,-1467.77 1814.74,-1467.62"/>
<polygon fill="#444444" stroke="#444444" points="1814.82,-1471.12 1824.81,-1467.6 1814.81,-1464.12 1814.82,-1471.12"/>
<polygon fill="white" stroke="transparent" points="975.5,-1459 975.5,-1534 1290.5,-1534 1290.5,-1459 975.5,-1459"/>
<text text-anchor="start" x="980" y="-1511.3" font-family="Arial" font-size="24.00" fill="#444444">Reports and drains bounded</text>
<text text-anchor="start" x="1019" y="-1487.3" font-family="Arial" font-size="24.00" fill="#444444">outage bytes through</text>
<text text-anchor="start" x="1082" y="-1467.3" font-family="Arial" font-size="19.00" fill="#444444">[Filesystem]</text>
</g>
</g>
</svg>
