<?xml version="1.0" encoding="UTF-8" standalone="no"?>
<!DOCTYPE svg PUBLIC "-//W3C//DTD SVG 1.1//EN"
 "http://www.w3.org/Graphics/SVG/1.1/DTD/svg11.dtd">
<!-- Generated by graphviz version 2.43.0 (0)
 -->
<!-- Title: %3 Pages: 1 -->
<svg width="3906pt" height="1607pt"
 viewBox="0.00 0.00 3906.00 1607.00" xmlns="http://www.w3.org/2000/svg" xmlns:xlink="http://www.w3.org/1999/xlink">
<g id="graph0" class="graph" transform="scale(1 1) rotate(0) translate(4 1603)">
<title>%3</title>
<polygon fill="white" stroke="transparent" points="-4,4 -4,-1603 3902,-1603 3902,4 -4,4"/>
<text text-anchor="start" x="1364" y="-11.8" font-family="Arial" font-size="34.00">Component View: Browser Memory Daemon &#45; WSL Loopback HTTP Daemon</text>
<g id="clust1" class="cluster">
<title>cluster_4</title>
<polygon fill="none" stroke="#444444" points="8,-64 8,-1591 3890,-1591 3890,-64 8,-64"/>
<text text-anchor="start" x="1808" y="-92.8" font-family="Arial" font-size="24.00" fill="#444444">Browser Memory Daemon</text>
<text text-anchor="start" x="1872" y="-72.8" font-family="Arial" font-size="19.00" fill="#444444">[Software System]</text>
</g>
<g id="clust2" class="cluster">
<title>cluster_15</title>
<polygon fill="none" stroke="#444444" points="33,-528 33,-967 2984,-967 2984,-528 33,-528"/>
<text text-anchor="start" x="1343" y="-556.8" font-family="Arial" font-size="24.00" fill="#444444">WSL Loopback HTTP Daemon</text>
<text text-anchor="start" x="1306.5" y="-536.8" font-family="Arial" font-size="19.00" fill="#444444">[Container: Python 3.11, ThreadingHTTPServer]</text>
</g>
<!-- 16 -->
<g id="16" class="node">
<title>16</title>
<polygon fill="#85bbf0" stroke="#1168bd" points="453,-921.5 58,-921.5 58,-690.5 453,-690.5 453,-921.5"/>
<text text-anchor="start" x="87" y="-873.3" font-family="Arial" font-size="34.00" fill="#000000">HTTP Request Router</text>
<text text-anchor="start" x="119" y="-851.3" font-family="Arial" font-size="19.00" fill="#000000">[Component: Python http.server]</text>
<text text-anchor="start" x="90" y="-814.3" font-family="Arial" font-size="24.00" fill="#000000">Routes loopback API requests,</text>
<text text-anchor="start" x="112.5" y="-790.3" font-family="Arial" font-size="24.00" fill="#000000">serves UI assets, enforces</text>
<text text-anchor="start" x="91.5" y="-766.3" font-family="Arial" font-size="24.00" fill="#000000">bearer auth for memory/admin</text>
<text text-anchor="start" x="106" y="-742.3" font-family="Arial" font-size="24.00" fill="#000000">APIs, and applies CORS for</text>
<text text-anchor="start" x="172" y="-718.3" font-family="Arial" font-size="24.00" fill="#000000">allowed origins.</text>
</g>
<!-- 34 -->
<g id="34" class="node">
<title>34</title>
<polygon fill="#85bbf0" stroke="#1168bd" points="1187,-933.5 806,-933.5 806,-678.5 1187,-678.5 1187,-933.5"/>
<text text-anchor="start" x="882" y="-885.3" font-family="Arial" font-size="34.00" fill="#000000">Forget Pipeline</text>
<text text-anchor="start" x="868.5" y="-863.3" font-family="Arial" font-size="19.00" fill="#000000">[Component: Python + sqlite3]</text>
<text text-anchor="start" x="835" y="-826.3" font-family="Arial" font-size="24.00" fill="#000000">Commits URL/domain&#45;scoped</text>
<text text-anchor="start" x="840" y="-802.3" font-family="Arial" font-size="24.00" fill="#000000">relational deletion, minimized</text>
<text text-anchor="start" x="840.5" y="-778.3" font-family="Arial" font-size="24.00" fill="#000000">receipt, and blob tombstones</text>
<text text-anchor="start" x="856" y="-754.3" font-family="Arial" font-size="24.00" fill="#000000">in one transaction; reports</text>
<text text-anchor="start" x="846" y="-730.3" font-family="Arial" font-size="24.00" fill="#000000">complete only after required</text>
<text text-anchor="start" x="910.5" y="-706.3" font-family="Arial" font-size="24.00" fill="#000000">bytes converge.</text>
</g>
<!-- 16&#45;&gt;34 -->
<g id="97" class="edge">
<title>16&#45;&gt;34</title>
<path fill="none" stroke="#444444" stroke-dasharray="5,2" d="M453.08,-806C558.92,-806 689.19,-806 795.54,-806"/>
<polygon fill="#444444" stroke="#444444" points="795.75,-809.5 805.75,-806 795.75,-802.5 795.75,-809.5"/>
<polygon fill="white" stroke="transparent" points="489,-806 489,-840 770,-840 770,-806 489,-806"/>
<text text-anchor="start" x="493.5" y="-816.8" font-family="Arial" font-size="24.00" fill="#444444">Routes forget requests to</text>
</g>
<!-- 31 -->
<g id="31" class="node">
<title>31</title>
<polygon fill="#85bbf0" stroke="#1168bd" points="2959,-931.5 2548,-931.5 2548,-628.5 2959,-628.5 2959,-931.5"/>
<text text-anchor="start" x="2597" y="-883.3" font-family="Arial" font-size="34.00" fill="#000000">Contained BlobStore</text>
<text text-anchor="start" x="2577" y="-861.3" font-family="Arial" font-size="19.00" fill="#000000">[Component: Python filesystem boundary]</text>
<text text-anchor="start" x="2601" y="-824.3" font-family="Arial" font-size="24.00" fill="#000000">Prefers root&#45;relative locators</text>
<text text-anchor="start" x="2637.5" y="-800.3" font-family="Arial" font-size="24.00" fill="#000000">with contained legacy</text>
<text text-anchor="start" x="2622.5" y="-776.3" font-family="Arial" font-size="24.00" fill="#000000">fallback; streams unique</text>
<text text-anchor="start" x="2638.5" y="-752.3" font-family="Arial" font-size="24.00" fill="#000000">stages with size/hash</text>
<text text-anchor="start" x="2634.5" y="-728.3" font-family="Arial" font-size="24.00" fill="#000000">accounting; atomically</text>
<text text-anchor="start" x="2606.5" y="-704.3" font-family="Arial" font-size="24.00" fill="#000000">commits; and contains blob</text>
<text text-anchor="start" x="2639" y="-680.3" font-family="Arial" font-size="24.00" fill="#000000">read, stat, and delete</text>
<text text-anchor="start" x="2693" y="-656.3" font-family="Arial" font-size="24.00" fill="#000000">operations.</text>
</g>
<!-- 41 -->
<g id="41" class="node">
<title>41</title>
<path fill="#2f95c8" stroke="#20688c" d="M3790.5,-495.22C3790.5,-513.51 3701.98,-528.38 3593,-528.38 3484.02,-528.38 3395.5,-513.51 3395.5,-495.22 3395.5,-495.22 3395.5,-196.78 3395.5,-196.78 3395.5,-178.49 3484.02,-163.62 3593,-163.62 3701.98,-163.62 3790.5,-178.49 3790.5,-196.78 3790.5,-196.78 3790.5,-495.22 3790.5,-495.22"/>
<path fill="none" stroke="#20688c" d="M3790.5,-495.22C3790.5,-476.92 3701.98,-462.06 3593,-462.06 3484.02,-462.06 3395.5,-476.92 3395.5,-495.22"/>
<text text-anchor="start" x="3471.5" y="-430.3" font-family="Arial" font-size="34.00" fill="#ffffff">Local Derivative</text>
<text text-anchor="start" x="3552" y="-396.3" font-family="Arial" font-size="34.00" fill="#ffffff">Store</text>
<text text-anchor="start" x="3453" y="-374.3" font-family="Arial" font-size="19.00" fill="#ffffff">[Container: WSL local filesystem]</text>
<text text-anchor="start" x="3439.5" y="-337.3" font-family="Arial" font-size="24.00" fill="#ffffff">Reconstructible compatibility</text>
<text text-anchor="start" x="3424.5" y="-313.3" font-family="Arial" font-size="24.00" fill="#ffffff">evidence such as pre&#45;version&#45;9</text>
<text text-anchor="start" x="3463" y="-289.3" font-family="Arial" font-size="24.00" fill="#ffffff">clean&#45;text sidecars; new</text>
<text text-anchor="start" x="3469.5" y="-265.3" font-family="Arial" font-size="24.00" fill="#ffffff">captures create no text</text>
<text text-anchor="start" x="3544.5" y="-241.3" font-family="Arial" font-size="24.00" fill="#ffffff">sidecars.</text>
</g>
<!-- 31&#45;&gt;41 -->
<g id="131" class="edge">
<title>31&#45;&gt;41</title>
<path fill="none" stroke="#444444" stroke-dasharray="5,2" d="M2959.11,-673.97C3088.93,-606.7 3256.32,-519.95 3386.34,-452.57"/>
<polygon fill="#444444" stroke="#444444" points="3387.97,-455.67 3395.24,-447.96 3384.75,-449.45 3387.97,-455.67"/>
<polygon fill="white" stroke="transparent" points="3004,-651 3004,-750 3276,-750 3276,-651 3004,-651"/>
<text text-anchor="start" x="3008" y="-727.3" font-family="Arial" font-size="24.00" fill="#444444">Reads, stats, reconciles,</text>
<text text-anchor="start" x="3016" y="-703.3" font-family="Arial" font-size="24.00" fill="#444444">and deletes legacy text</text>
<text text-anchor="start" x="3082" y="-679.3" font-family="Arial" font-size="24.00" fill="#444444">sidecars in</text>
<text text-anchor="start" x="3088.5" y="-659.3" font-family="Arial" font-size="19.00" fill="#444444">[Filesystem]</text>
</g>
<!-- 42 -->
<g id="42" class="node">
<title>42</title>
<path fill="#2f95c8" stroke="#20688c" d="M3865,-991.22C3865,-1012.82 3743.09,-1030.38 3593,-1030.38 3442.91,-1030.38 3321,-1012.82 3321,-991.22 3321,-991.22 3321,-638.78 3321,-638.78 3321,-617.18 3442.91,-599.62 3593,-599.62 3743.09,-599.62 3865,-617.18 3865,-638.78 3865,-638.78 3865,-991.22 3865,-991.22"/>
<path fill="none" stroke="#20688c" d="M3865,-991.22C3865,-969.61 3743.09,-952.06 3593,-952.06 3442.91,-952.06 3321,-969.61 3321,-991.22"/>
<text text-anchor="start" x="3437.5" y="-923.3" font-family="Arial" font-size="34.00" fill="#ffffff">Guarded Media Blob</text>
<text text-anchor="start" x="3543.5" y="-889.3" font-family="Arial" font-size="34.00" fill="#ffffff">Cache</text>
<text text-anchor="start" x="3350" y="-867.3" font-family="Arial" font-size="19.00" fill="#ffffff">[Container: WSL&#45;visible local or NAS&#45;mounted filesystem]</text>
<text text-anchor="start" x="3483" y="-830.3" font-family="Arial" font-size="24.00" fill="#ffffff">Bounded disposable</text>
<text text-anchor="start" x="3427.5" y="-806.3" font-family="Arial" font-size="24.00" fill="#ffffff">image/video/audio bytes under</text>
<text text-anchor="start" x="3451.5" y="-782.3" font-family="Arial" font-size="24.00" fill="#ffffff">the configured media root;</text>
<text text-anchor="start" x="3479" y="-758.3" font-family="Arial" font-size="24.00" fill="#ffffff">explicit external roots</text>
<text text-anchor="start" x="3494" y="-734.3" font-family="Arial" font-size="24.00" fill="#ffffff">require mount and</text>
<text text-anchor="start" x="3443.5" y="-710.3" font-family="Arial" font-size="24.00" fill="#ffffff">identity&#45;marker proof before</text>
<text text-anchor="start" x="3552" y="-686.3" font-family="Arial" font-size="24.00" fill="#ffffff">access.</text>
</g>
<!-- 31&#45;&gt;42 -->
<g id="132" class="edge">
<title>31&#45;&gt;42</title>
<path fill="none" stroke="#444444" stroke-dasharray="5,2" d="M2959.11,-788.55C3064.86,-792.97 3195.54,-798.43 3310.64,-803.24"/>
<polygon fill="#444444" stroke="#444444" points="3310.53,-806.74 3320.67,-803.66 3310.82,-799.75 3310.53,-806.74"/>
<polygon fill="white" stroke="transparent" points="3004.5,-801 3004.5,-900 3275.5,-900 3275.5,-801 3004.5,-801"/>
<text text-anchor="start" x="3010.5" y="-877.3" font-family="Arial" font-size="24.00" fill="#444444">Stages, commits, reads,</text>
<text text-anchor="start" x="3009" y="-853.3" font-family="Arial" font-size="24.00" fill="#444444">stats, and deletes media</text>
<text text-anchor="start" x="3098.5" y="-829.3" font-family="Arial" font-size="24.00" fill="#444444">blobs in</text>
<text text-anchor="start" x="3089" y="-809.3" font-family="Arial" font-size="19.00" fill="#444444">[Filesystem]</text>
</g>
<!-- 43 -->
<g id="43" class="node">
<title>43</title>
<path fill="#2f95c8" stroke="#20688c" d="M3786,-1523.72C3786,-1546.98 3699.49,-1565.88 3593,-1565.88 3486.51,-1565.88 3400,-1546.98 3400,-1523.72 3400,-1523.72 3400,-1144.28 3400,-1144.28 3400,-1121.02 3486.51,-1102.12 3593,-1102.12 3699.49,-1102.12 3786,-1121.02 3786,-1144.28 3786,-1144.28 3786,-1523.72 3786,-1523.72"/>
<path fill="none" stroke="#20688c" d="M3786,-1523.72C3786,-1500.45 3699.49,-1481.56 3593,-1481.56 3486.51,-1481.56 3400,-1500.45 3400,-1523.72"/>
<text text-anchor="start" x="3429" y="-1454.3" font-family="Arial" font-size="34.00" fill="#ffffff">Bounded Local Media</text>
<text text-anchor="start" x="3549.5" y="-1420.3" font-family="Arial" font-size="34.00" fill="#ffffff">Spool</text>
<text text-anchor="start" x="3453" y="-1398.3" font-family="Arial" font-size="19.00" fill="#ffffff">[Container: WSL local filesystem]</text>
<text text-anchor="start" x="3441" y="-1361.3" font-family="Arial" font-size="24.00" fill="#ffffff">Opt&#45;in durable outage buffer</text>
<text text-anchor="start" x="3444.5" y="-1337.3" font-family="Arial" font-size="24.00" fill="#ffffff">beneath the local WSL data</text>
<text text-anchor="start" x="3471.5" y="-1313.3" font-family="Arial" font-size="24.00" fill="#ffffff">root; admission counts</text>
<text text-anchor="start" x="3447.5" y="-1289.3" font-family="Arial" font-size="24.00" fill="#ffffff">committed files and distinct</text>
<text text-anchor="start" x="3441" y="-1265.3" font-family="Arial" font-size="24.00" fill="#ffffff">in&#45;flight SQLite reservations,</text>
<text text-anchor="start" x="3468" y="-1241.3" font-family="Arial" font-size="24.00" fill="#ffffff">and drain verifies bytes</text>
<text text-anchor="start" x="3445.5" y="-1217.3" font-family="Arial" font-size="24.00" fill="#ffffff">before tier transition/source</text>
<text text-anchor="start" x="3547" y="-1193.3" font-family="Arial" font-size="24.00" fill="#ffffff">cleanup.</text>
</g>
<!-- 31&#45;&gt;43 -->
<g id="133" class="edge">
<title>31&#45;&gt;43</title>
<path fill="none" stroke="#444444" stroke-dasharray="5,2" d="M2959.11,-915.35C3090.6,-1002.33 3260.63,-1114.8 3391.34,-1201.26"/>
<polygon fill="#444444" stroke="#444444" points="3389.62,-1204.32 3399.89,-1206.92 3393.48,-1198.48 3389.62,-1204.32"/>
<polygon fill="white" stroke="transparent" points="2995,-1122 2995,-1221 3285,-1221 3285,-1122 2995,-1122"/>
<text text-anchor="start" x="3010" y="-1198.3" font-family="Arial" font-size="24.00" fill="#444444">Stages, commits, reads,</text>
<text text-anchor="start" x="2999" y="-1174.3" font-family="Arial" font-size="24.00" fill="#444444">stats, and deletes spooled</text>
<text text-anchor="start" x="3094" y="-1150.3" font-family="Arial" font-size="24.00" fill="#444444">media in</text>
<text text-anchor="start" x="3088.5" y="-1130.3" font-family="Arial" font-size="19.00" fill="#444444">[Filesystem]</text>
</g>
<!-- 32 -->
<g id="32" class="node">
<title>32</title>
<polygon fill="#85bbf0" stroke="#1168bd" points="2152,-941.5 1519,-941.5 1519,-628.5 2152,-628.5 2152,-941.5"/>
<text text-anchor="start" x="1697" y="-893.3" font-family="Arial" font-size="34.00" fill="#000000">Blob Lifecycle and</text>
<text text-anchor="start" x="1691" y="-859.3" font-family="Arial" font-size="34.00" fill="#000000">Storage Reconciler</text>
<text text-anchor="start" x="1654" y="-837.3" font-family="Arial" font-size="19.00" fill="#000000">[Component: Python + sqlite3 + filesystem]</text>
<text text-anchor="start" x="1792.5" y="-800.3" font-family="Arial" font-size="24.00" fill="#000000">Persists</text>
<text text-anchor="start" x="1548" y="-776.3" font-family="Arial" font-size="24.00" fill="#000000">committed/tombstoned/missing/deleted/blocked/failed</text>
<text text-anchor="start" x="1725.5" y="-752.3" font-family="Arial" font-size="24.00" fill="#000000">blob state; serializes</text>
<text text-anchor="start" x="1689.5" y="-728.3" font-family="Arial" font-size="24.00" fill="#000000">deletion processors; retries</text>
<text text-anchor="start" x="1703.5" y="-704.3" font-family="Arial" font-size="24.00" fill="#000000">tombstones; and dry&#45;run</text>
<text text-anchor="start" x="1687" y="-680.3" font-family="Arial" font-size="24.00" fill="#000000">detects missing refs, in&#45;root</text>
<text text-anchor="start" x="1693" y="-656.3" font-family="Arial" font-size="24.00" fill="#000000">orphans, and stale stages.</text>
</g>
<!-- 32&#45;&gt;31 -->
<g id="130" class="edge">
<title>32&#45;&gt;31</title>
<path fill="none" stroke="#444444" stroke-dasharray="5,2" d="M2152.11,-710.61C2164.19,-708.86 2176.19,-707.31 2188,-706 2331.12,-690.11 2369.6,-684.59 2512,-706 2520.55,-707.29 2529.22,-708.82 2537.94,-710.54"/>
<polygon fill="#444444" stroke="#444444" points="2537.29,-713.98 2547.79,-712.58 2538.71,-707.13 2537.29,-713.98"/>
<polygon fill="white" stroke="transparent" points="2223.5,-706 2223.5,-792 2476.5,-792 2476.5,-706 2223.5,-706"/>
<text text-anchor="start" x="2228" y="-768.8" font-family="Arial" font-size="24.00" fill="#444444">Resolves, deletes, and</text>
<text text-anchor="start" x="2236" y="-742.8" font-family="Arial" font-size="24.00" fill="#444444">inventories contained</text>
<text text-anchor="start" x="2276.5" y="-716.8" font-family="Arial" font-size="24.00" fill="#444444">bytes through</text>
</g>
<!-- 40 -->
<g id="40" class="node">
<title>40</title>
<path fill="#2f95c8" stroke="#20688c" d="M2951,-1515.22C2951,-1543.44 2862.48,-1566.38 2753.5,-1566.38 2644.52,-1566.38 2556,-1543.44 2556,-1515.22 2556,-1515.22 2556,-1054.78 2556,-1054.78 2556,-1026.56 2644.52,-1003.62 2753.5,-1003.62 2862.48,-1003.62 2951,-1026.56 2951,-1054.78 2951,-1054.78 2951,-1515.22 2951,-1515.22"/>
<path fill="none" stroke="#20688c" d="M2951,-1515.22C2951,-1486.99 2862.48,-1464.06 2753.5,-1464.06 2644.52,-1464.06 2556,-1486.99 2556,-1515.22"/>
<text text-anchor="start" x="2640.5" y="-1441.3" font-family="Arial" font-size="34.00" fill="#ffffff">SQLite + FTS5</text>
<text text-anchor="start" x="2680.5" y="-1407.3" font-family="Arial" font-size="34.00" fill="#ffffff">Database</text>
<text text-anchor="start" x="2627.5" y="-1385.3" font-family="Arial" font-size="19.00" fill="#ffffff">[Container: SQLite with FTS5]</text>
<text text-anchor="start" x="2585.5" y="-1348.3" font-family="Arial" font-size="24.00" fill="#ffffff">Durable complete cleaned&#45;text,</text>
<text text-anchor="start" x="2634.5" y="-1324.3" font-family="Arial" font-size="24.00" fill="#ffffff">relational, and full&#45;text</text>
<text text-anchor="start" x="2636" y="-1300.3" font-family="Arial" font-size="24.00" fill="#ffffff">authority for migration</text>
<text text-anchor="start" x="2601.5" y="-1276.3" font-family="Arial" font-size="24.00" fill="#ffffff">ledger, sources, documents,</text>
<text text-anchor="start" x="2604" y="-1252.3" font-family="Arial" font-size="24.00" fill="#ffffff">visits, capture observations,</text>
<text text-anchor="start" x="2622.5" y="-1228.3" font-family="Arial" font-size="24.00" fill="#ffffff">URL claims, visit events,</text>
<text text-anchor="start" x="2585" y="-1204.3" font-family="Arial" font-size="24.00" fill="#ffffff">snapshots, chunks, chunks_fts,</text>
<text text-anchor="start" x="2592.5" y="-1180.3" font-family="Arial" font-size="24.00" fill="#ffffff">media provenance/tasks, blob</text>
<text text-anchor="start" x="2629" y="-1156.3" font-family="Arial" font-size="24.00" fill="#ffffff">lifecycle records, policy</text>
<text text-anchor="start" x="2628" y="-1132.3" font-family="Arial" font-size="24.00" fill="#ffffff">rules, audit events, and</text>
<text text-anchor="start" x="2661.5" y="-1108.3" font-family="Arial" font-size="24.00" fill="#ffffff">deletion receipts.</text>
</g>
<!-- 32&#45;&gt;40 -->
<g id="129" class="edge">
<title>32&#45;&gt;40</title>
<path fill="none" stroke="#444444" stroke-dasharray="5,2" d="M2152.23,-908.28C2268.65,-958.8 2399.5,-1021.71 2512,-1091 2523.76,-1098.24 2535.59,-1105.99 2547.35,-1114.07"/>
<polygon fill="#444444" stroke="#444444" points="2545.7,-1117.18 2555.91,-1120.01 2549.69,-1111.44 2545.7,-1117.18"/>
<polygon fill="white" stroke="transparent" points="2188,-1091 2188,-1166 2512,-1166 2512,-1091 2188,-1091"/>
<text text-anchor="start" x="2192" y="-1143.3" font-family="Arial" font-size="24.00" fill="#444444">Reads and advances durable</text>
<text text-anchor="start" x="2224" y="-1119.3" font-family="Arial" font-size="24.00" fill="#444444">blob lifecycle records in</text>
<text text-anchor="start" x="2316.5" y="-1099.3" font-family="Arial" font-size="19.00" fill="#444444">[sqlite3]</text>
</g>
<!-- 34&#45;&gt;32 -->
<g id="128" class="edge">
<title>34&#45;&gt;32</title>
<path fill="none" stroke="#444444" stroke-dasharray="5,2" d="M1187.29,-724.47C1199.24,-721.15 1211.2,-718.27 1223,-716 1315.12,-698.3 1415.98,-700.85 1508.75,-711.85"/>
<polygon fill="#444444" stroke="#444444" points="1508.51,-715.35 1518.86,-713.09 1509.36,-708.4 1508.51,-715.35"/>
<polygon fill="white" stroke="transparent" points="1223,-716 1223,-802 1483,-802 1483,-716 1223,-716"/>
<text text-anchor="start" x="1227" y="-778.8" font-family="Arial" font-size="24.00" fill="#444444">Processes post&#45;commit</text>
<text text-anchor="start" x="1228" y="-752.8" font-family="Arial" font-size="24.00" fill="#444444">contained blob deletion</text>
<text text-anchor="start" x="1311.5" y="-726.8" font-family="Arial" font-size="24.00" fill="#444444">through</text>
</g>
<!-- 34&#45;&gt;40 -->
<g id="127" class="edge">
<title>34&#45;&gt;40</title>
<path fill="none" stroke="#444444" stroke-dasharray="5,2" d="M1187.24,-869.86C1285.97,-902.77 1408.77,-943.19 1519,-978 1815.17,-1071.54 1886.21,-1106.6 2188,-1180 2305.53,-1208.58 2438.46,-1233.66 2545.79,-1252.13"/>
<polygon fill="#444444" stroke="#444444" points="2545.32,-1255.6 2555.77,-1253.84 2546.5,-1248.7 2545.32,-1255.6"/>
<polygon fill="white" stroke="transparent" points="1705,-1170 1705,-1269 1966,-1269 1966,-1170 1705,-1170"/>
<text text-anchor="start" x="1709.5" y="-1246.3" font-family="Arial" font-size="24.00" fill="#444444">Atomically deletes rows</text>
<text text-anchor="start" x="1771.5" y="-1222.3" font-family="Arial" font-size="24.00" fill="#444444">and records</text>
<text text-anchor="start" x="1714.5" y="-1198.3" font-family="Arial" font-size="24.00" fill="#444444">receipts/tombstones in</text>
<text text-anchor="start" x="1802.5" y="-1178.3" font-family="Arial" font-size="19.00" fill="#444444">[sqlite3]</text>
</g>
</g>
</svg>
