<?xml version="1.0" encoding="UTF-8" standalone="no"?>
<!DOCTYPE svg PUBLIC "-//W3C//DTD SVG 1.1//EN"
 "http://www.w3.org/Graphics/SVG/1.1/DTD/svg11.dtd">
<!-- Generated by graphviz version 2.43.0 (0)
 -->
<!-- Title: %3 Pages: 1 -->
<svg width="1353pt" height="1520pt"
 viewBox="0.00 0.00 1353.00 1519.50" xmlns="http://www.w3.org/2000/svg" xmlns:xlink="http://www.w3.org/1999/xlink">
<g id="graph0" class="graph" transform="scale(1 1) rotate(0) translate(4 1515.5)">
<title>%3</title>
<polygon fill="white" stroke="transparent" points="-4,4 -4,-1515.5 1349,-1515.5 1349,4 -4,4"/>
<text text-anchor="start" x="357" y="-11.8" font-family="Arial" font-size="34.00">Dynamic View: Browser Memory Daemon</text>
<g id="clust1" class="cluster">
<title>cluster_4</title>
<polygon fill="none" stroke="#444444" points="8,-346.5 8,-1503.5 1337,-1503.5 1337,-346.5 8,-346.5"/>
<text text-anchor="start" x="531.5" y="-375.3" font-family="Arial" font-size="24.00" fill="#444444">Browser Memory Daemon</text>
<text text-anchor="start" x="595.5" y="-355.3" font-family="Arial" font-size="19.00" fill="#444444">[Software System]</text>
</g>
<!-- 26 -->
<g id="26" class="node">
<title>26</title>
<polygon fill="#438dd5" stroke="#2e6295" points="387,-806 33,-806 33,-503 387,-503 387,-806"/>
<text text-anchor="start" x="63" y="-757.8" font-family="Arial" font-size="34.00" fill="#ffffff">WSL Media Worker</text>
<text text-anchor="start" x="70" y="-735.8" font-family="Arial" font-size="19.00" fill="#ffffff">[Container: Python 3.11 CLI loop]</text>
<text text-anchor="start" x="62.5" y="-698.8" font-family="Arial" font-size="24.00" fill="#ffffff">Long&#45;running systemd user</text>
<text text-anchor="start" x="111.5" y="-674.8" font-family="Arial" font-size="24.00" fill="#ffffff">worker that leases</text>
<text text-anchor="start" x="64" y="-650.8" font-family="Arial" font-size="24.00" fill="#ffffff">daemon&#45;public media fetch</text>
<text text-anchor="start" x="101" y="-626.8" font-family="Arial" font-size="24.00" fill="#ffffff">tasks, fetches public</text>
<text text-anchor="start" x="62" y="-602.8" font-family="Arial" font-size="24.00" fill="#ffffff">media/HLS without Chrome</text>
<text text-anchor="start" x="67" y="-578.8" font-family="Arial" font-size="24.00" fill="#ffffff">cookies, classifies terminal</text>
<text text-anchor="start" x="64" y="-554.8" font-family="Arial" font-size="24.00" fill="#ffffff">states, and updates artifact</text>
<text text-anchor="start" x="181" y="-530.8" font-family="Arial" font-size="24.00" fill="#ffffff">rows.</text>
</g>
<!-- 29 -->
<g id="29" class="node">
<title>29</title>
<path fill="#2f95c8" stroke="#20688c" d="M1238,-928.22C1238,-954.79 1149.25,-976.38 1040,-976.38 930.75,-976.38 842,-954.79 842,-928.22 842,-928.22 842,-494.78 842,-494.78 842,-468.21 930.75,-446.62 1040,-446.62 1149.25,-446.62 1238,-468.21 1238,-494.78 1238,-494.78 1238,-928.22 1238,-928.22"/>
<path fill="none" stroke="#20688c" d="M1238,-928.22C1238,-901.64 1149.25,-880.06 1040,-880.06 930.75,-880.06 842,-901.64 842,-928.22"/>
<text text-anchor="start" x="927" y="-855.8" font-family="Arial" font-size="34.00" fill="#ffffff">SQLite + FTS5</text>
<text text-anchor="start" x="967" y="-821.8" font-family="Arial" font-size="34.00" fill="#ffffff">Database</text>
<text text-anchor="start" x="914" y="-799.8" font-family="Arial" font-size="19.00" fill="#ffffff">[Container: SQLite with FTS5]</text>
<text text-anchor="start" x="872" y="-762.8" font-family="Arial" font-size="24.00" fill="#ffffff">Durable complete cleaned&#45;text,</text>
<text text-anchor="start" x="921" y="-738.8" font-family="Arial" font-size="24.00" fill="#ffffff">relational, and full&#45;text</text>
<text text-anchor="start" x="922.5" y="-714.8" font-family="Arial" font-size="24.00" fill="#ffffff">authority for migration</text>
<text text-anchor="start" x="888" y="-690.8" font-family="Arial" font-size="24.00" fill="#ffffff">ledger, sources, documents,</text>
<text text-anchor="start" x="890.5" y="-666.8" font-family="Arial" font-size="24.00" fill="#ffffff">visits, capture observations,</text>
<text text-anchor="start" x="909" y="-642.8" font-family="Arial" font-size="24.00" fill="#ffffff">URL claims, visit events,</text>
<text text-anchor="start" x="871.5" y="-618.8" font-family="Arial" font-size="24.00" fill="#ffffff">snapshots, chunks, chunks_fts,</text>
<text text-anchor="start" x="871" y="-594.8" font-family="Arial" font-size="24.00" fill="#ffffff">media provenance/tasks, policy</text>
<text text-anchor="start" x="914.5" y="-570.8" font-family="Arial" font-size="24.00" fill="#ffffff">rules, audit events, and</text>
<text text-anchor="start" x="948" y="-546.8" font-family="Arial" font-size="24.00" fill="#ffffff">deletion receipts.</text>
</g>
<!-- 26&#45;&gt;29 -->
<g id="51" class="edge">
<title>26&#45;&gt;29</title>
<path fill="none" stroke="#444444" stroke-dasharray="5,2" d="M387.14,-589C399.17,-586.03 411.19,-583.48 423,-581.5 558.45,-558.83 597.41,-554.18 732,-581.5 765.17,-588.23 799.21,-598.67 831.98,-610.78"/>
<polygon fill="#444444" stroke="#444444" points="831.05,-614.17 841.65,-614.41 833.52,-607.62 831.05,-614.17"/>
<polygon fill="white" stroke="transparent" points="472.5,-581.5 472.5,-680.5 682.5,-680.5 682.5,-581.5 472.5,-581.5"/>
<text text-anchor="start" x="503.5" y="-657.8" font-family="Arial" font-size="24.00" fill="#444444">1. Claims due</text>
<text text-anchor="start" x="497.5" y="-633.8" font-family="Arial" font-size="24.00" fill="#444444">daemon&#45;public</text>
<text text-anchor="start" x="476.5" y="-609.8" font-family="Arial" font-size="24.00" fill="#444444">media_fetch_tasks</text>
<text text-anchor="start" x="544" y="-589.8" font-family="Arial" font-size="19.00" fill="#444444">[sqlite3]</text>
</g>
<!-- 26&#45;&gt;29 -->
<g id="51" class="edge">
<title>26&#45;&gt;29</title>
<path fill="none" stroke="#444444" stroke-dasharray="5,2" d="M387.1,-689.92C399.22,-691.68 411.27,-693.24 423,-694.5 558.67,-709.08 712.05,-713.35 831.82,-713.97"/>
<polygon fill="#444444" stroke="#444444" points="831.83,-717.47 841.84,-714.01 831.86,-710.47 831.83,-717.47"/>
<polygon fill="white" stroke="transparent" points="440.5,-711.5 440.5,-834.5 714.5,-834.5 714.5,-711.5 440.5,-711.5"/>
<text text-anchor="start" x="465.5" y="-811.8" font-family="Arial" font-size="24.00" fill="#444444">4. Marks task/artifact</text>
<text text-anchor="start" x="444.5" y="-787.8" font-family="Arial" font-size="24.00" fill="#444444">stored, retrying, skipped,</text>
<text text-anchor="start" x="463" y="-763.8" font-family="Arial" font-size="24.00" fill="#444444">expired, or failed with</text>
<text text-anchor="start" x="540" y="-739.8" font-family="Arial" font-size="24.00" fill="#444444">reason</text>
<text text-anchor="start" x="544" y="-719.8" font-family="Arial" font-size="19.00" fill="#444444">[sqlite3]</text>
</g>
<!-- 31 -->
<g id="31" class="node">
<title>31</title>
<path fill="#2f95c8" stroke="#20688c" d="M1312,-1439.72C1312,-1461.32 1190.09,-1478.88 1040,-1478.88 889.91,-1478.88 768,-1461.32 768,-1439.72 768,-1439.72 768,-1087.28 768,-1087.28 768,-1065.68 889.91,-1048.12 1040,-1048.12 1190.09,-1048.12 1312,-1065.68 1312,-1087.28 1312,-1087.28 1312,-1439.72 1312,-1439.72"/>
<path fill="none" stroke="#20688c" d="M1312,-1439.72C1312,-1418.11 1190.09,-1400.56 1040,-1400.56 889.91,-1400.56 768,-1418.11 768,-1439.72"/>
<text text-anchor="start" x="884.5" y="-1371.8" font-family="Arial" font-size="34.00" fill="#ffffff">Guarded Media Blob</text>
<text text-anchor="start" x="990.5" y="-1337.8" font-family="Arial" font-size="34.00" fill="#ffffff">Cache</text>
<text text-anchor="start" x="797" y="-1315.8" font-family="Arial" font-size="19.00" fill="#ffffff">[Container: WSL&#45;visible local or NAS&#45;mounted filesystem]</text>
<text text-anchor="start" x="930" y="-1278.8" font-family="Arial" font-size="24.00" fill="#ffffff">Bounded disposable</text>
<text text-anchor="start" x="874.5" y="-1254.8" font-family="Arial" font-size="24.00" fill="#ffffff">image/video/audio bytes under</text>
<text text-anchor="start" x="898.5" y="-1230.8" font-family="Arial" font-size="24.00" fill="#ffffff">the configured media root;</text>
<text text-anchor="start" x="926" y="-1206.8" font-family="Arial" font-size="24.00" fill="#ffffff">explicit external roots</text>
<text text-anchor="start" x="941" y="-1182.8" font-family="Arial" font-size="24.00" fill="#ffffff">require mount and</text>
<text text-anchor="start" x="890.5" y="-1158.8" font-family="Arial" font-size="24.00" fill="#ffffff">identity&#45;marker proof before</text>
<text text-anchor="start" x="999" y="-1134.8" font-family="Arial" font-size="24.00" fill="#ffffff">access.</text>
</g>
<!-- 26&#45;&gt;31 -->
<g id="53" class="edge">
<title>26&#45;&gt;31</title>
<path fill="none" stroke="#444444" stroke-dasharray="5,2" d="M367.67,-806.06C385.96,-822.17 404.64,-837.96 423,-852.5 528.84,-936.32 651.5,-1020.53 759.38,-1090.71"/>
<polygon fill="#444444" stroke="#444444" points="757.48,-1093.66 767.78,-1096.17 761.3,-1087.78 757.48,-1093.66"/>
<polygon fill="white" stroke="transparent" points="423,-1063.5 423,-1162.5 732,-1162.5 732,-1063.5 423,-1063.5"/>
<text text-anchor="start" x="472.5" y="-1139.8" font-family="Arial" font-size="24.00" fill="#444444">3. Writes fetched or</text>
<text text-anchor="start" x="427.5" y="-1115.8" font-family="Arial" font-size="24.00" fill="#444444">assembled blob when gates</text>
<text text-anchor="start" x="550.5" y="-1091.8" font-family="Arial" font-size="24.00" fill="#444444">allow</text>
<text text-anchor="start" x="526.5" y="-1071.8" font-family="Arial" font-size="19.00" fill="#444444">[Filesystem]</text>
</g>
<!-- 3 -->
<g id="3" class="node">
<title>3</title>
<polygon fill="#999999" stroke="#6b6b6b" points="1241.5,-321 838.5,-321 838.5,-56 1241.5,-56 1241.5,-321"/>
<text text-anchor="start" x="878.5" y="-272.8" font-family="Arial" font-size="34.00" fill="#ffffff">Web Sites and Media</text>
<text text-anchor="start" x="986" y="-238.8" font-family="Arial" font-size="34.00" fill="#ffffff">Origins</text>
<text text-anchor="start" x="963" y="-216.8" font-family="Arial" font-size="19.00" fill="#ffffff">[Software System]</text>
<text text-anchor="start" x="930" y="-179.8" font-family="Arial" font-size="24.00" fill="#ffffff">External web pages,</text>
<text text-anchor="start" x="877.5" y="-155.8" font-family="Arial" font-size="24.00" fill="#ffffff">image/video URLs, and media</text>
<text text-anchor="start" x="867.5" y="-131.8" font-family="Arial" font-size="24.00" fill="#ffffff">CDNs that Chrome loads or that</text>
<text text-anchor="start" x="877.5" y="-107.8" font-family="Arial" font-size="24.00" fill="#ffffff">sidecars fetch as page&#45;related</text>
<text text-anchor="start" x="1003.5" y="-83.8" font-family="Arial" font-size="24.00" fill="#ffffff">media.</text>
</g>
<!-- 26&#45;&gt;3 -->
<g id="52" class="edge">
<title>26&#45;&gt;3</title>
<path fill="none" stroke="#444444" stroke-dasharray="5,2" d="M350.19,-502.88C373.29,-482.07 397.93,-462.17 423,-445.5 548.2,-362.26 704.72,-297.38 828.65,-253.63"/>
<polygon fill="#444444" stroke="#444444" points="830,-256.87 838.27,-250.26 827.68,-250.26 830,-256.87"/>
<polygon fill="white" stroke="transparent" points="423.5,-445.5 423.5,-544.5 731.5,-544.5 731.5,-445.5 423.5,-445.5"/>
<text text-anchor="start" x="435" y="-521.8" font-family="Arial" font-size="24.00" fill="#444444">2. Fetches public media or</text>
<text text-anchor="start" x="427.5" y="-497.8" font-family="Arial" font-size="24.00" fill="#444444">HLS assets without Chrome</text>
<text text-anchor="start" x="536.5" y="-473.8" font-family="Arial" font-size="24.00" fill="#444444">cookies</text>
<text text-anchor="start" x="485.5" y="-453.8" font-family="Arial" font-size="19.00" fill="#444444">[HTTP(S), data URLs]</text>
</g>
</g>
</svg>
