<?xml version="1.0" encoding="UTF-8" standalone="no"?>
<!DOCTYPE svg PUBLIC "-//W3C//DTD SVG 1.1//EN"
 "http://www.w3.org/Graphics/SVG/1.1/DTD/svg11.dtd">
<!-- Generated by graphviz version 2.43.0 (0)
 -->
<!-- Title: %3 Pages: 1 -->
<svg width="3931pt" height="3237pt"
 viewBox="0.00 0.00 3931.00 3237.38" xmlns="http://www.w3.org/2000/svg" xmlns:xlink="http://www.w3.org/1999/xlink">
<g id="graph0" class="graph" transform="scale(1 1) rotate(0) translate(4 3233.38)">
<title>%3</title>
<polygon fill="white" stroke="transparent" points="-4,4 -4,-3233.38 3927,-3233.38 3927,4 -4,4"/>
<text text-anchor="start" x="1430" y="-11.8" font-family="Arial" font-size="34.00">Component View: Browser Memory Daemon &#45; Chrome MV3 Extension</text>
<g id="clust1" class="cluster">
<title>cluster_4</title>
<polygon fill="none" stroke="#444444" points="8,-64 8,-3221.38 3471,-3221.38 3471,-64 8,-64"/>
<text text-anchor="start" x="1598.5" y="-92.8" font-family="Arial" font-size="24.00" fill="#444444">Browser Memory Daemon</text>
<text text-anchor="start" x="1662.5" y="-72.8" font-family="Arial" font-size="19.00" fill="#444444">[Software System]</text>
</g>
<g id="clust2" class="cluster">
<title>cluster_5</title>
<polygon fill="none" stroke="#444444" points="33,-845.38 33,-3196.38 2959,-3196.38 2959,-845.38 33,-845.38"/>
<text text-anchor="start" x="1368" y="-874.17" font-family="Arial" font-size="24.00" fill="#444444">Chrome MV3 Extension</text>
<text text-anchor="start" x="1308" y="-854.17" font-family="Arial" font-size="19.00" fill="#444444">[Container: JavaScript, Chrome Manifest V3]</text>
</g>
<!-- 2 -->
<g id="2" class="node">
<title>2</title>
<polygon fill="#999999" stroke="#6b6b6b" points="3882,-1696.38 3496,-1696.38 3496,-1465.38 3882,-1465.38 3882,-1696.38"/>
<text text-anchor="start" x="3554.5" y="-1648.17" font-family="Arial" font-size="34.00" fill="#ffffff">Windows Chrome</text>
<text text-anchor="start" x="3612" y="-1626.17" font-family="Arial" font-size="19.00" fill="#ffffff">[Software System]</text>
<text text-anchor="start" x="3525" y="-1589.17" font-family="Arial" font-size="24.00" fill="#ffffff">The Windows Chrome runtime</text>
<text text-anchor="start" x="3538.5" y="-1565.17" font-family="Arial" font-size="24.00" fill="#ffffff">that loads web pages, hosts</text>
<text text-anchor="start" x="3538" y="-1541.17" font-family="Arial" font-size="24.00" fill="#ffffff">the MV3 extension, runs the</text>
<text text-anchor="start" x="3530" y="-1517.17" font-family="Arial" font-size="24.00" fill="#ffffff">local UI in a tab, and exposes</text>
<text text-anchor="start" x="3559.5" y="-1493.17" font-family="Arial" font-size="24.00" fill="#ffffff">Chrome extension APIs.</text>
</g>
<!-- 10 -->
<g id="10" class="node">
<title>10</title>
<polygon fill="#85bbf0" stroke="#1168bd" points="2503,-1701.38 2039,-1701.38 2039,-1460.38 2503,-1460.38 2503,-1701.38"/>
<text text-anchor="start" x="2142" y="-1653.17" font-family="Arial" font-size="34.00" fill="#000000">Extension Config</text>
<text text-anchor="start" x="2230" y="-1619.17" font-family="Arial" font-size="34.00" fill="#000000">Store</text>
<text text-anchor="start" x="2068" y="-1597.17" font-family="Arial" font-size="19.00" fill="#000000">[Component: JavaScript + chrome.storage.local]</text>
<text text-anchor="start" x="2134" y="-1560.17" font-family="Arial" font-size="24.00" fill="#000000">Owns typed configuration</text>
<text text-anchor="start" x="2149.5" y="-1536.17" font-family="Arial" font-size="24.00" fill="#000000">defaults/migration plus</text>
<text text-anchor="start" x="2109" y="-1512.17" font-family="Arial" font-size="24.00" fill="#000000">durable visit and minimal CDP</text>
<text text-anchor="start" x="2150.5" y="-1488.17" font-family="Arial" font-size="24.00" fill="#000000">capture&#45;context maps.</text>
</g>
<!-- 21 -->
<g id="21" class="node">
<title>21</title>
<path fill="#2f95c8" stroke="#20688c" d="M829.5,-675.4C829.5,-703.63 727.98,-726.56 603,-726.56 478.02,-726.56 376.5,-703.63 376.5,-675.4 376.5,-675.4 376.5,-214.97 376.5,-214.97 376.5,-186.74 478.02,-163.81 603,-163.81 727.98,-163.81 829.5,-186.74 829.5,-214.97 829.5,-214.97 829.5,-675.4 829.5,-675.4"/>
<path fill="none" stroke="#20688c" d="M829.5,-675.4C829.5,-647.17 727.98,-624.24 603,-624.24 478.02,-624.24 376.5,-647.17 376.5,-675.4"/>
<text text-anchor="start" x="461" y="-601.49" font-family="Arial" font-size="34.00" fill="#ffffff">Extension Browser</text>
<text text-anchor="start" x="543.5" y="-567.49" font-family="Arial" font-size="34.00" fill="#ffffff">Storage</text>
<text text-anchor="start" x="405.5" y="-545.49" font-family="Arial" font-size="19.00" fill="#ffffff">[Container: chrome.storage.local + IndexedDB]</text>
<text text-anchor="start" x="425.5" y="-508.49" font-family="Arial" font-size="24.00" fill="#ffffff">Browser&#45;side IndexedDB storage</text>
<text text-anchor="start" x="516.5" y="-484.49" font-family="Arial" font-size="24.00" fill="#ffffff">for transactional</text>
<text text-anchor="start" x="447.5" y="-460.49" font-family="Arial" font-size="24.00" fill="#ffffff">capture/lifecycle outbox rows</text>
<text text-anchor="start" x="437.5" y="-436.49" font-family="Arial" font-size="24.00" fill="#ffffff">plus specialized durable media</text>
<text text-anchor="start" x="539" y="-412.49" font-family="Arial" font-size="24.00" fill="#ffffff">tasks/blobs;</text>
<text text-anchor="start" x="450.5" y="-388.49" font-family="Arial" font-size="24.00" fill="#ffffff">chrome.storage.local retains</text>
<text text-anchor="start" x="451" y="-364.49" font-family="Arial" font-size="24.00" fill="#ffffff">typed configuration, lifecycle</text>
<text text-anchor="start" x="435.5" y="-340.49" font-family="Arial" font-size="24.00" fill="#ffffff">tab state, minimal CDP capture</text>
<text text-anchor="start" x="446.5" y="-316.49" font-family="Arial" font-size="24.00" fill="#ffffff">context, aggregate telemetry,</text>
<text text-anchor="start" x="434.5" y="-292.49" font-family="Arial" font-size="24.00" fill="#ffffff">and one&#45;version queue fallback</text>
<text text-anchor="start" x="578" y="-268.49" font-family="Arial" font-size="24.00" fill="#ffffff">only.</text>
</g>
<!-- 10&#45;&gt;21 -->
<g id="88" class="edge">
<title>10&#45;&gt;21</title>
<path fill="none" stroke="#444444" stroke-dasharray="5,2" d="M2278.4,-1460.28C2276.47,-1397 2264.25,-1321.09 2224,-1265.38 1885.72,-797.1 1201.42,-579.52 839.61,-493.64"/>
<polygon fill="#444444" stroke="#444444" points="840.34,-490.22 829.8,-491.32 838.73,-497.03 840.34,-490.22"/>
<polygon fill="white" stroke="transparent" points="2192,-1011.38 2192,-1110.38 2466,-1110.38 2466,-1011.38 2192,-1011.38"/>
<text text-anchor="start" x="2202.5" y="-1087.67" font-family="Arial" font-size="24.00" fill="#444444">Reads and writes typed</text>
<text text-anchor="start" x="2196" y="-1063.67" font-family="Arial" font-size="24.00" fill="#444444">settings and restart state</text>
<text text-anchor="start" x="2319.5" y="-1039.67" font-family="Arial" font-size="24.00" fill="#444444">in</text>
<text text-anchor="start" x="2235.5" y="-1019.67" font-family="Arial" font-size="19.00" fill="#444444">[chrome.storage.local]</text>
</g>
<!-- 11 -->
<g id="11" class="node">
<title>11</title>
<polygon fill="#85bbf0" stroke="#1168bd" points="2008,-2217.38 1642,-2217.38 1642,-1986.38 2008,-1986.38 2008,-2217.38"/>
<text text-anchor="start" x="1731.5" y="-2169.18" font-family="Arial" font-size="34.00" fill="#000000">Visit Tracker</text>
<text text-anchor="start" x="1721" y="-2147.18" font-family="Arial" font-size="19.00" fill="#000000">[Component: JavaScript]</text>
<text text-anchor="start" x="1671" y="-2110.18" font-family="Arial" font-size="24.00" fill="#000000">Owns tab/navigation identity,</text>
<text text-anchor="start" x="1696.5" y="-2086.18" font-family="Arial" font-size="24.00" fill="#000000">active&#45;segment lifecycle</text>
<text text-anchor="start" x="1677.5" y="-2062.18" font-family="Arial" font-size="24.00" fill="#000000">state, deterministic lifecycle</text>
<text text-anchor="start" x="1683.5" y="-2038.18" font-family="Arial" font-size="24.00" fill="#000000">event identity, and capture</text>
<text text-anchor="start" x="1764.5" y="-2014.18" font-family="Arial" font-size="24.00" fill="#000000">decoration.</text>
</g>
<!-- 11&#45;&gt;10 -->
<g id="89" class="edge">
<title>11&#45;&gt;10</title>
<path fill="none" stroke="#444444" stroke-dasharray="5,2" d="M1887.77,-1986.23C1933.98,-1902.04 1989.38,-1801.6 1993,-1797.38 2020.31,-1765.5 2053,-1735.2 2086.21,-1707.94"/>
<polygon fill="#444444" stroke="#444444" points="2088.65,-1710.46 2094.2,-1701.44 2084.24,-1705.03 2088.65,-1710.46"/>
<polygon fill="white" stroke="transparent" points="1993,-1823.38 1993,-1883.38 2245,-1883.38 2245,-1823.38 1993,-1823.38"/>
<text text-anchor="start" x="1997" y="-1860.17" font-family="Arial" font-size="24.00" fill="#444444">Persists tab/navigation</text>
<text text-anchor="start" x="2001.5" y="-1834.17" font-family="Arial" font-size="24.00" fill="#444444">lifecycle state through</text>
</g>
<!-- 12 -->
<g id="12" class="node">
<title>12</title>
<polygon fill="#85bbf0" stroke="#1168bd" points="2934,-2217.38 2506,-2217.38 2506,-1986.38 2934,-1986.38 2934,-2217.38"/>
<text text-anchor="start" x="2578" y="-2169.18" font-family="Arial" font-size="34.00" fill="#000000">Injection Controller</text>
<text text-anchor="start" x="2535" y="-2147.18" font-family="Arial" font-size="19.00" fill="#000000">[Component: JavaScript + chrome.scripting]</text>
<text text-anchor="start" x="2593.5" y="-2110.18" font-family="Arial" font-size="24.00" fill="#000000">Reconstructs active&#45;tab</text>
<text text-anchor="start" x="2570" y="-2086.18" font-family="Arial" font-size="24.00" fill="#000000">injection after worker restart</text>
<text text-anchor="start" x="2569.5" y="-2062.18" font-family="Arial" font-size="24.00" fill="#000000">and idempotently injects the</text>
<text text-anchor="start" x="2625" y="-2038.18" font-family="Arial" font-size="24.00" fill="#000000">complete ordered</text>
<text text-anchor="start" x="2624" y="-2014.18" font-family="Arial" font-size="24.00" fill="#000000">content&#45;script set.</text>
</g>
<!-- 12&#45;&gt;2 -->
<g id="90" class="edge">
<title>12&#45;&gt;2</title>
<path fill="none" stroke="#444444" stroke-dasharray="5,2" d="M2856.95,-1986.34C2882.55,-1969.96 2910.08,-1955.33 2938,-1945.38 3053.58,-1904.17 3384,-1972.87 3489,-1909.38 3564.31,-1863.83 3615.15,-1778.09 3646.72,-1705.76"/>
<polygon fill="#444444" stroke="#444444" points="3649.95,-1707.12 3650.67,-1696.55 3643.51,-1704.37 3649.95,-1707.12"/>
<polygon fill="white" stroke="transparent" points="3596,-1803.88 3596,-1902.88 3923,-1902.88 3923,-1803.88 3596,-1803.88"/>
<text text-anchor="start" x="3659" y="-1880.17" font-family="Arial" font-size="24.00" fill="#444444">Injects the ordered</text>
<text text-anchor="start" x="3600.5" y="-1856.17" font-family="Arial" font-size="24.00" fill="#444444">extractor/digest/content&#45;script</text>
<text text-anchor="start" x="3720.5" y="-1832.17" font-family="Arial" font-size="24.00" fill="#444444">set into</text>
<text text-anchor="start" x="3684.5" y="-1812.17" font-family="Arial" font-size="19.00" fill="#444444">[chrome.scripting]</text>
</g>
<!-- 13 -->
<g id="13" class="node">
<title>13</title>
<polygon fill="#85bbf0" stroke="#1168bd" points="543.5,-2246.38 58.5,-2246.38 58.5,-1957.38 543.5,-1957.38 543.5,-2246.38"/>
<text text-anchor="start" x="136" y="-2198.18" font-family="Arial" font-size="34.00" fill="#000000">Capture and Lifecycle</text>
<text text-anchor="start" x="252" y="-2164.18" font-family="Arial" font-size="34.00" fill="#000000">Bridge</text>
<text text-anchor="start" x="197" y="-2142.18" font-family="Arial" font-size="19.00" fill="#000000">[Component: JavaScript]</text>
<text text-anchor="start" x="175" y="-2105.18" font-family="Arial" font-size="24.00" fill="#000000">Owns daemon delivery,</text>
<text text-anchor="start" x="192.5" y="-2081.18" font-family="Arial" font-size="24.00" fill="#000000">transactional outbox</text>
<text text-anchor="start" x="87.5" y="-2057.18" font-family="Arial" font-size="24.00" fill="#000000">import/admission/drain/checkpoint/retry,</text>
<text text-anchor="start" x="182" y="-2033.18" font-family="Arial" font-size="24.00" fill="#000000">legacy fallback, media</text>
<text text-anchor="start" x="161" y="-2009.18" font-family="Arial" font-size="24.00" fill="#000000">compensation, and queue</text>
<text text-anchor="start" x="265" y="-1985.18" font-family="Arial" font-size="24.00" fill="#000000">status.</text>
</g>
<!-- 14 -->
<g id="14" class="node">
<title>14</title>
<polygon fill="#85bbf0" stroke="#1168bd" points="1966.5,-1713.38 1589.5,-1713.38 1589.5,-1448.38 1966.5,-1448.38 1966.5,-1713.38"/>
<text text-anchor="start" x="1630.5" y="-1665.17" font-family="Arial" font-size="34.00" fill="#000000">Credentialed Media</text>
<text text-anchor="start" x="1729" y="-1631.17" font-family="Arial" font-size="34.00" fill="#000000">Bridge</text>
<text text-anchor="start" x="1674" y="-1609.17" font-family="Arial" font-size="19.00" fill="#000000">[Component: JavaScript]</text>
<text text-anchor="start" x="1631" y="-1572.17" font-family="Arial" font-size="24.00" fill="#000000">Owns browser credentialed</text>
<text text-anchor="start" x="1618.5" y="-1548.17" font-family="Arial" font-size="24.00" fill="#000000">fetch, inline/CDP blob upload,</text>
<text text-anchor="start" x="1644.5" y="-1524.17" font-family="Arial" font-size="24.00" fill="#000000">specialized media queue</text>
<text text-anchor="start" x="1650" y="-1500.17" font-family="Arial" font-size="24.00" fill="#000000">drain/retry, and terminal</text>
<text text-anchor="start" x="1732" y="-1476.17" font-family="Arial" font-size="24.00" fill="#000000">cleanup.</text>
</g>
<!-- 13&#45;&gt;14 -->
<g id="96" class="edge">
<title>13&#45;&gt;14</title>
<path fill="none" stroke="#444444" stroke-dasharray="5,2" d="M543.63,-1986.89C580.18,-1971.8 617.78,-1957.41 654,-1945.38 721.52,-1922.93 752.61,-1951.44 810,-1909.38 856.6,-1875.22 826.64,-1827.4 876,-1797.38 1001.31,-1721.16 1397,-1811.03 1535,-1761.38 1563.83,-1751 1592.16,-1736.01 1618.72,-1719.05"/>
<polygon fill="#444444" stroke="#444444" points="1620.81,-1721.87 1627.28,-1713.48 1616.99,-1716.01 1620.81,-1721.87"/>
<polygon fill="white" stroke="transparent" points="876,-1823.38 876,-1883.38 1197,-1883.38 1197,-1823.38 876,-1823.38"/>
<text text-anchor="start" x="906" y="-1860.17" font-family="Arial" font-size="24.00" fill="#444444">Dispatches post&#45;capture</text>
<text text-anchor="start" x="880.5" y="-1834.17" font-family="Arial" font-size="24.00" fill="#444444">media compensation through</text>
</g>
<!-- 15 -->
<g id="15" class="node">
<title>15</title>
<polygon fill="#85bbf0" stroke="#1168bd" points="1294,-1176.38 830,-1176.38 830,-945.38 1294,-945.38 1294,-1176.38"/>
<text text-anchor="start" x="908.5" y="-1128.17" font-family="Arial" font-size="34.00" fill="#000000">Extension Telemetry</text>
<text text-anchor="start" x="859" y="-1106.17" font-family="Arial" font-size="19.00" fill="#000000">[Component: JavaScript + chrome.storage.local]</text>
<text text-anchor="start" x="961" y="-1069.17" font-family="Arial" font-size="24.00" fill="#000000">Persists aggregate</text>
<text text-anchor="start" x="899" y="-1045.17" font-family="Arial" font-size="24.00" fill="#000000">bridge/queue/CDP status after</text>
<text text-anchor="start" x="900" y="-1021.17" font-family="Arial" font-size="24.00" fill="#000000">recursively removing captured</text>
<text text-anchor="start" x="956.5" y="-997.17" font-family="Arial" font-size="24.00" fill="#000000">fields and redacting</text>
<text text-anchor="start" x="955" y="-973.17" font-family="Arial" font-size="24.00" fill="#000000">URL&#45;shaped errors.</text>
</g>
<!-- 13&#45;&gt;15 -->
<g id="98" class="edge">
<title>13&#45;&gt;15</title>
<path fill="none" stroke="#444444" stroke-dasharray="5,2" d="M399.84,-1957.19C407.68,-1941.53 414.63,-1925.43 420,-1909.38 427.92,-1885.68 413.59,-1816.22 430,-1797.38 476.73,-1743.72 530.97,-1806.49 586,-1761.38 722.14,-1649.76 651.76,-1547.12 749,-1400.38 800.72,-1322.31 870.54,-1244.9 931.12,-1183.85"/>
<polygon fill="#444444" stroke="#444444" points="933.88,-1186.04 938.46,-1176.49 928.92,-1181.1 933.88,-1186.04"/>
<polygon fill="white" stroke="transparent" points="749,-1550.88 749,-1610.88 1043,-1610.88 1043,-1550.88 749,-1550.88"/>
<text text-anchor="start" x="753" y="-1587.67" font-family="Arial" font-size="24.00" fill="#444444">Records aggregate outbox</text>
<text text-anchor="start" x="819" y="-1561.67" font-family="Arial" font-size="24.00" fill="#444444">status through</text>
</g>
<!-- 16 -->
<g id="16" class="node">
<title>16</title>
<polygon fill="#85bbf0" stroke="#1168bd" points="550.5,-1761.38 107.5,-1761.38 107.5,-1400.38 550.5,-1400.38 550.5,-1761.38"/>
<text text-anchor="start" x="164" y="-1713.17" font-family="Arial" font-size="34.00" fill="#000000">Capture and Lifecycle</text>
<text text-anchor="start" x="274" y="-1679.17" font-family="Arial" font-size="34.00" fill="#000000">Outbox</text>
<text text-anchor="start" x="167" y="-1657.17" font-family="Arial" font-size="19.00" fill="#000000">[Component: JavaScript + IndexedDB]</text>
<text text-anchor="start" x="172.5" y="-1620.17" font-family="Arial" font-size="24.00" fill="#000000">Persists capture and lifecycle</text>
<text text-anchor="start" x="178.5" y="-1596.17" font-family="Arial" font-size="24.00" fill="#000000">messages as independently</text>
<text text-anchor="start" x="153" y="-1572.17" font-family="Arial" font-size="24.00" fill="#000000">sequenced IndexedDB rows with</text>
<text text-anchor="start" x="293" y="-1548.17" font-family="Arial" font-size="24.00" fill="#000000">atomic</text>
<text text-anchor="start" x="136.5" y="-1524.17" font-family="Arial" font-size="24.00" fill="#000000">enqueue/claim/checkpoint/ack/retry,</text>
<text text-anchor="start" x="180" y="-1500.17" font-family="Arial" font-size="24.00" fill="#000000">stale&#45;claim recovery, legacy</text>
<text text-anchor="start" x="170.5" y="-1476.17" font-family="Arial" font-size="24.00" fill="#000000">queue import, item admission</text>
<text text-anchor="start" x="193" y="-1452.17" font-family="Arial" font-size="24.00" fill="#000000">limits, and serialized&#45;byte</text>
<text text-anchor="start" x="267" y="-1428.17" font-family="Arial" font-size="24.00" fill="#000000">accounting.</text>
</g>
<!-- 13&#45;&gt;16 -->
<g id="94" class="edge">
<title>13&#45;&gt;16</title>
<path fill="none" stroke="#444444" stroke-dasharray="5,2" d="M149.13,-1957.09C139.13,-1941.9 130.48,-1925.92 124,-1909.38 105.86,-1863.02 105.53,-1843.6 124,-1797.38 127.67,-1788.2 131.93,-1779.2 136.68,-1770.39"/>
<polygon fill="#444444" stroke="#444444" points="139.74,-1772.08 141.58,-1761.65 133.64,-1768.66 139.74,-1772.08"/>
<polygon fill="white" stroke="transparent" points="124,-1797.38 124,-1909.38 406,-1909.38 406,-1797.38 124,-1797.38"/>
<text text-anchor="start" x="167" y="-1886.17" font-family="Arial" font-size="24.00" fill="#444444">Enqueues, drains,</text>
<text text-anchor="start" x="133.5" y="-1860.17" font-family="Arial" font-size="24.00" fill="#444444">checkpoints, retries, and</text>
<text text-anchor="start" x="128" y="-1834.17" font-family="Arial" font-size="24.00" fill="#444444">recovers capture/lifecycle</text>
<text text-anchor="start" x="194.5" y="-1808.17" font-family="Arial" font-size="24.00" fill="#444444">work through</text>
</g>
<!-- 13&#45;&gt;21 -->
<g id="95" class="edge">
<title>13&#45;&gt;21</title>
<path fill="none" stroke="#444444" stroke-dasharray="5,2" d="M124.85,-1957.23C112.74,-1942.08 101.85,-1926.07 93,-1909.38 37.36,-1804.34 64.46,-1458.12 71,-1400.38 99.82,-1146.09 246.04,-894.79 377.91,-713.97"/>
<polygon fill="#444444" stroke="#444444" points="380.89,-715.81 383.98,-705.68 375.25,-711.68 380.89,-715.81"/>
<polygon fill="white" stroke="transparent" points="97,-1265.38 97,-1364.38 395,-1364.38 395,-1265.38 97,-1265.38"/>
<text text-anchor="start" x="104.5" y="-1341.67" font-family="Arial" font-size="24.00" fill="#444444">Imports and preserves the</text>
<text text-anchor="start" x="101" y="-1317.67" font-family="Arial" font-size="24.00" fill="#444444">one&#45;version queue fallback</text>
<text text-anchor="start" x="236.5" y="-1293.67" font-family="Arial" font-size="24.00" fill="#444444">in</text>
<text text-anchor="start" x="152.5" y="-1273.67" font-family="Arial" font-size="19.00" fill="#444444">[chrome.storage.local]</text>
</g>
<!-- 22 -->
<g id="22" class="node">
<title>22</title>
<polygon fill="#438dd5" stroke="#2e6295" points="3446,-1229.38 2984,-1229.38 2984,-892.38 3446,-892.38 3446,-1229.38"/>
<text text-anchor="start" x="3050.5" y="-1181.17" font-family="Arial" font-size="34.00" fill="#ffffff">WSL Loopback HTTP</text>
<text text-anchor="start" x="3150.5" y="-1147.17" font-family="Arial" font-size="34.00" fill="#ffffff">Daemon</text>
<text text-anchor="start" x="3013" y="-1125.17" font-family="Arial" font-size="19.00" fill="#ffffff">[Container: Python 3.11, ThreadingHTTPServer]</text>
<text text-anchor="start" x="3054" y="-1088.17" font-family="Arial" font-size="24.00" fill="#ffffff">Authenticated loopback HTTP</text>
<text text-anchor="start" x="3079" y="-1064.17" font-family="Arial" font-size="24.00" fill="#ffffff">API that handles capture,</text>
<text text-anchor="start" x="3075.5" y="-1040.17" font-family="Arial" font-size="24.00" fill="#ffffff">visit events, media artifact</text>
<text text-anchor="start" x="3078.5" y="-1016.17" font-family="Arial" font-size="24.00" fill="#ffffff">upload/fetch/purge, exact</text>
<text text-anchor="start" x="3175" y="-992.17" font-family="Arial" font-size="24.00" fill="#ffffff">search,</text>
<text text-anchor="start" x="3066" y="-968.17" font-family="Arial" font-size="24.00" fill="#ffffff">recent/timeline/detail, policy</text>
<text text-anchor="start" x="3063.5" y="-944.17" font-family="Arial" font-size="24.00" fill="#ffffff">rules, doctor, durable forget,</text>
<text text-anchor="start" x="3102" y="-920.17" font-family="Arial" font-size="24.00" fill="#ffffff">and static UI serving.</text>
</g>
<!-- 13&#45;&gt;22 -->
<g id="97" class="edge">
<title>13&#45;&gt;22</title>
<path fill="none" stroke="#444444" stroke-dasharray="5,2" d="M543.68,-1979.34C579.91,-1965.53 617.39,-1953.51 654,-1945.38 1003.13,-1867.8 1917.13,-2000.38 2263,-1909.38 2599.22,-1820.91 2615.53,-1650.51 2857,-1400.38 2909.73,-1345.75 2968.94,-1288.31 3023.79,-1236.57"/>
<polygon fill="#444444" stroke="#444444" points="3026.27,-1239.04 3031.15,-1229.64 3021.47,-1233.95 3026.27,-1239.04"/>
<polygon fill="white" stroke="transparent" points="2857,-1543.38 2857,-1618.38 3094,-1618.38 3094,-1543.38 2857,-1543.38"/>
<text text-anchor="start" x="2861.5" y="-1595.67" font-family="Arial" font-size="24.00" fill="#444444">Delivers /capture and</text>
<text text-anchor="start" x="2898.5" y="-1571.67" font-family="Arial" font-size="24.00" fill="#444444">/visit&#45;events to</text>
<text text-anchor="start" x="2887" y="-1551.67" font-family="Arial" font-size="19.00" fill="#444444">[Bearer HTTP/JSON]</text>
</g>
<!-- 14&#45;&gt;15 -->
<g id="103" class="edge">
<title>14&#45;&gt;15</title>
<path fill="none" stroke="#444444" stroke-dasharray="5,2" d="M1617.85,-1448.21C1591.24,-1430.33 1563.12,-1413.61 1535,-1400.38 1474.92,-1372.11 1448.46,-1395.87 1390,-1364.38 1305.63,-1318.92 1226.2,-1246.75 1166.64,-1184.3"/>
<polygon fill="#444444" stroke="#444444" points="1168.89,-1181.59 1159.48,-1176.73 1163.81,-1186.4 1168.89,-1181.59"/>
<polygon fill="white" stroke="transparent" points="1390,-1284.88 1390,-1344.88 1678,-1344.88 1678,-1284.88 1390,-1284.88"/>
<text text-anchor="start" x="1394" y="-1321.67" font-family="Arial" font-size="24.00" fill="#444444">Records aggregate media</text>
<text text-anchor="start" x="1457" y="-1295.67" font-family="Arial" font-size="24.00" fill="#444444">status through</text>
</g>
<!-- 14&#45;&gt;22 -->
<g id="101" class="edge">
<title>14&#45;&gt;22</title>
<path fill="none" stroke="#444444" stroke-dasharray="5,2" d="M1928.56,-1448.31C1952.54,-1430.79 1977.78,-1414.15 2003,-1400.38 2167.31,-1310.65 2218.32,-1301.54 2402,-1265.38 2524.55,-1241.25 2840.29,-1270.33 2974.09,-1230.06"/>
<polygon fill="#444444" stroke="#444444" points="2975.36,-1233.33 2983.79,-1226.91 2973.19,-1226.67 2975.36,-1233.33"/>
<polygon fill="white" stroke="transparent" points="2402,-1277.38 2402,-1352.38 2724,-1352.38 2724,-1277.38 2402,-1277.38"/>
<text text-anchor="start" x="2429" y="-1329.67" font-family="Arial" font-size="24.00" fill="#444444">Delivers media metadata</text>
<text text-anchor="start" x="2474" y="-1305.67" font-family="Arial" font-size="24.00" fill="#444444">and raw blobs to</text>
<text text-anchor="start" x="2406" y="-1285.67" font-family="Arial" font-size="19.00" fill="#444444">[Bearer HTTP/JSON; raw HTTP PUT]</text>
</g>
<!-- 15&#45;&gt;21 -->
<g id="105" class="edge">
<title>15&#45;&gt;21</title>
<path fill="none" stroke="#444444" stroke-dasharray="5,2" d="M976.2,-945.16C928.23,-881.02 866.23,-798.13 806.6,-718.4"/>
<polygon fill="#444444" stroke="#444444" points="809.25,-716.11 800.46,-710.2 803.65,-720.3 809.25,-716.11"/>
<polygon fill="white" stroke="transparent" points="888,-762.38 888,-837.38 1103,-837.38 1103,-762.38 888,-762.38"/>
<text text-anchor="start" x="902" y="-814.67" font-family="Arial" font-size="24.00" fill="#444444">Persists sanitized</text>
<text text-anchor="start" x="892.5" y="-790.67" font-family="Arial" font-size="24.00" fill="#444444">aggregate status in</text>
<text text-anchor="start" x="902.5" y="-770.67" font-family="Arial" font-size="19.00" fill="#444444">[chrome.storage.local]</text>
</g>
<!-- 16&#45;&gt;21 -->
<g id="99" class="edge">
<title>16&#45;&gt;21</title>
<path fill="none" stroke="#444444" stroke-dasharray="5,2" d="M407.63,-1400.08C411.5,-1388.12 415.01,-1376.15 418,-1364.38 475.08,-1139.55 424.6,-1072.23 473,-845.38 480.61,-809.71 490.21,-772.74 500.73,-736.34"/>
<polygon fill="#444444" stroke="#444444" points="504.13,-737.18 503.57,-726.6 497.41,-735.22 504.13,-737.18"/>
<polygon fill="white" stroke="transparent" points="473,-1011.38 473,-1110.38 794,-1110.38 794,-1011.38 473,-1011.38"/>
<text text-anchor="start" x="477.5" y="-1087.67" font-family="Arial" font-size="24.00" fill="#444444">Reads and writes sequenced</text>
<text text-anchor="start" x="494.5" y="-1063.67" font-family="Arial" font-size="24.00" fill="#444444">capture/lifecycle rows and</text>
<text text-anchor="start" x="517" y="-1039.67" font-family="Arial" font-size="24.00" fill="#444444">migration metadata in</text>
<text text-anchor="start" x="581.5" y="-1019.67" font-family="Arial" font-size="19.00" fill="#444444">[IndexedDB]</text>
</g>
<!-- 19 -->
<g id="19" class="node">
<title>19</title>
<polygon fill="#85bbf0" stroke="#1168bd" points="1126,-2258.38 690,-2258.38 690,-1945.38 1126,-1945.38 1126,-2258.38"/>
<text text-anchor="start" x="807" y="-2210.18" font-family="Arial" font-size="34.00" fill="#000000">CDP Session</text>
<text text-anchor="start" x="834" y="-2176.18" font-family="Arial" font-size="34.00" fill="#000000">Controller</text>
<text text-anchor="start" x="719" y="-2154.18" font-family="Arial" font-size="19.00" fill="#000000">[Component: JavaScript + chrome.debugger]</text>
<text text-anchor="start" x="770.5" y="-2117.18" font-family="Arial" font-size="24.00" fill="#000000">Restores minimal capture</text>
<text text-anchor="start" x="783" y="-2093.18" font-family="Arial" font-size="24.00" fill="#000000">provenance, reconciles</text>
<text text-anchor="start" x="783.5" y="-2069.18" font-family="Arial" font-size="24.00" fill="#000000">debugger attachments,</text>
<text text-anchor="start" x="764.5" y="-2045.18" font-family="Arial" font-size="24.00" fill="#000000">correlates Network events,</text>
<text text-anchor="start" x="744.5" y="-2021.18" font-family="Arial" font-size="24.00" fill="#000000">retrieves bounded bodies, and</text>
<text text-anchor="start" x="746.5" y="-1997.18" font-family="Arial" font-size="24.00" fill="#000000">dispatches media across MV3</text>
<text text-anchor="start" x="824" y="-1973.18" font-family="Arial" font-size="24.00" fill="#000000">worker restarts.</text>
</g>
<!-- 19&#45;&gt;10 -->
<g id="107" class="edge">
<title>19&#45;&gt;10</title>
<path fill="none" stroke="#444444" stroke-dasharray="5,2" d="M1126.31,-1965.73C1144.08,-1957.94 1162.1,-1951.01 1180,-1945.38 1264.71,-1918.73 1502.65,-1956.37 1578,-1909.38 1627.41,-1878.56 1596.75,-1828.45 1646,-1797.38 1780.49,-1712.5 1852.32,-1815.1 2002,-1761.38 2039.27,-1748 2076.42,-1728.37 2110.68,-1706.95"/>
<polygon fill="#444444" stroke="#444444" points="2112.76,-1709.78 2119.33,-1701.47 2109.01,-1703.86 2112.76,-1709.78"/>
<polygon fill="white" stroke="transparent" points="1646,-1823.38 1646,-1883.38 1914,-1883.38 1914,-1823.38 1646,-1823.38"/>
<text text-anchor="start" x="1650" y="-1860.17" font-family="Arial" font-size="24.00" fill="#444444">Persists minimal per&#45;tab</text>
<text text-anchor="start" x="1652" y="-1834.17" font-family="Arial" font-size="24.00" fill="#444444">capture context through</text>
</g>
<!-- 19&#45;&gt;14 -->
<g id="109" class="edge">
<title>19&#45;&gt;14</title>
<path fill="none" stroke="#444444" stroke-dasharray="5,2" d="M1126.12,-1984.2C1158.01,-1961.83 1188.85,-1936.74 1215,-1909.38 1254.46,-1868.09 1230.82,-1829.57 1278,-1797.38 1373.27,-1732.37 1428.22,-1804.98 1535,-1761.38 1562.16,-1750.29 1589.05,-1735.47 1614.49,-1719.1"/>
<polygon fill="#444444" stroke="#444444" points="1616.61,-1721.89 1623.06,-1713.48 1612.77,-1716.03 1616.61,-1721.89"/>
<polygon fill="white" stroke="transparent" points="1278,-1810.38 1278,-1896.38 1564,-1896.38 1564,-1810.38 1278,-1810.38"/>
<text text-anchor="start" x="1282" y="-1873.17" font-family="Arial" font-size="24.00" fill="#444444">Dispatches bounded CDP</text>
<text text-anchor="start" x="1296" y="-1847.17" font-family="Arial" font-size="24.00" fill="#444444">media rows and bodies</text>
<text text-anchor="start" x="1379.5" y="-1821.17" font-family="Arial" font-size="24.00" fill="#444444">through</text>
</g>
<!-- 19&#45;&gt;15 -->
<g id="110" class="edge">
<title>19&#45;&gt;15</title>
<path fill="none" stroke="#444444" stroke-dasharray="5,2" d="M1126.14,-1981.53C1164.87,-1955.87 1196.57,-1930.24 1208,-1909.38 1242.23,-1846.92 1144.31,-1406.7 1092.23,-1186.58"/>
<polygon fill="#444444" stroke="#444444" points="1095.58,-1185.51 1089.87,-1176.59 1088.77,-1187.13 1095.58,-1185.51"/>
<polygon fill="white" stroke="transparent" points="1207,-1550.88 1207,-1610.88 1517,-1610.88 1517,-1550.88 1207,-1550.88"/>
<text text-anchor="start" x="1211" y="-1587.67" font-family="Arial" font-size="24.00" fill="#444444">Records sanitized debugger</text>
<text text-anchor="start" x="1285" y="-1561.67" font-family="Arial" font-size="24.00" fill="#444444">status through</text>
</g>
<!-- 20 -->
<g id="20" class="node">
<title>20</title>
<polygon fill="#85bbf0" stroke="#1168bd" points="2692.5,-3123.38 2299.5,-3123.38 2299.5,-2916.38 2692.5,-2916.38 2692.5,-3123.38"/>
<text text-anchor="start" x="2328.5" y="-3075.18" font-family="Arial" font-size="34.00" fill="#000000">Popup and Options UI</text>
<text text-anchor="start" x="2363.5" y="-3053.18" font-family="Arial" font-size="19.00" fill="#000000">[Component: HTML/JavaScript]</text>
<text text-anchor="start" x="2337.5" y="-3016.18" font-family="Arial" font-size="24.00" fill="#000000">Lets the operator view status,</text>
<text text-anchor="start" x="2336.5" y="-2992.18" font-family="Arial" font-size="24.00" fill="#000000">pause/resume capture, select</text>
<text text-anchor="start" x="2338" y="-2968.18" font-family="Arial" font-size="24.00" fill="#000000">policy mode, and trigger local</text>
<text text-anchor="start" x="2347" y="-2944.18" font-family="Arial" font-size="24.00" fill="#000000">controls from the extension.</text>
</g>
<!-- 9 -->
<g id="9" class="node">
<title>9</title>
<polygon fill="#85bbf0" stroke="#1168bd" points="1585,-2685.38 1147,-2685.38 1147,-2454.38 1585,-2454.38 1585,-2685.38"/>
<text text-anchor="start" x="1250" y="-2637.18" font-family="Arial" font-size="34.00" fill="#000000">Service Worker</text>
<text text-anchor="start" x="1176" y="-2615.18" font-family="Arial" font-size="19.00" fill="#000000">[Component: JavaScript MV3 service worker]</text>
<text text-anchor="start" x="1180" y="-2578.18" font-family="Arial" font-size="24.00" fill="#000000">Composes extension modules and</text>
<text text-anchor="start" x="1211.5" y="-2554.18" font-family="Arial" font-size="24.00" fill="#000000">registers MV3 message, tab,</text>
<text text-anchor="start" x="1228.5" y="-2530.18" font-family="Arial" font-size="24.00" fill="#000000">window, debugger, alarm,</text>
<text text-anchor="start" x="1241" y="-2506.18" font-family="Arial" font-size="24.00" fill="#000000">startup, and installation</text>
<text text-anchor="start" x="1317.5" y="-2482.18" font-family="Arial" font-size="24.00" fill="#000000">listeners.</text>
</g>
<!-- 20&#45;&gt;9 -->
<g id="112" class="edge">
<title>20&#45;&gt;9</title>
<path fill="none" stroke="#444444" stroke-dasharray="5,2" d="M2299.4,-2937.21C2241.89,-2914.13 2178.7,-2889.55 2120,-2868.38 1886.77,-2784.26 1816.01,-2797.06 1589,-2697.38 1583.52,-2694.97 1577.99,-2692.46 1572.45,-2689.88"/>
<polygon fill="#444444" stroke="#444444" points="1573.65,-2686.57 1563.11,-2685.46 1570.65,-2692.9 1573.65,-2686.57"/>
<polygon fill="white" stroke="transparent" points="2008,-2733.38 2008,-2832.38 2369,-2832.38 2369,-2733.38 2008,-2733.38"/>
<text text-anchor="start" x="2067" y="-2809.68" font-family="Arial" font-size="24.00" fill="#444444">Updates pause, policy,</text>
<text text-anchor="start" x="2086.5" y="-2785.68" font-family="Arial" font-size="24.00" fill="#444444">token, and controls</text>
<text text-anchor="start" x="2147.5" y="-2761.68" font-family="Arial" font-size="24.00" fill="#444444">through</text>
<text text-anchor="start" x="2012.5" y="-2741.68" font-family="Arial" font-size="19.00" fill="#444444">[chrome.storage.local, runtime messages]</text>
</g>
<!-- 20&#45;&gt;22 -->
<g id="113" class="edge">
<title>20&#45;&gt;22</title>
<path fill="none" stroke="#444444" stroke-dasharray="5,2" d="M2692.92,-2965.9C2873.49,-2903.96 3113,-2782.02 3113,-2570.88 3113,-2570.88 3113,-2570.88 3113,-1579.88 3113,-1465.11 3137.4,-1338.7 3162.33,-1239.49"/>
<polygon fill="#444444" stroke="#444444" points="3165.75,-1240.22 3164.82,-1229.67 3158.97,-1238.5 3165.75,-1240.22"/>
<polygon fill="white" stroke="transparent" points="3113,-2064.38 3113,-2139.38 3410,-2139.38 3410,-2064.38 3113,-2064.38"/>
<text text-anchor="start" x="3117.5" y="-2116.68" font-family="Arial" font-size="24.00" fill="#444444">Checks health and triggers</text>
<text text-anchor="start" x="3138" y="-2092.68" font-family="Arial" font-size="24.00" fill="#444444">forget/policy actions on</text>
<text text-anchor="start" x="3204" y="-2072.68" font-family="Arial" font-size="19.00" fill="#444444">[HTTP/JSON]</text>
</g>
<!-- 6 -->
<g id="6" class="node">
<title>6</title>
<polygon fill="#85bbf0" stroke="#1168bd" points="2084.5,-3140.38 1679.5,-3140.38 1679.5,-2899.38 2084.5,-2899.38 2084.5,-3140.38"/>
<text text-anchor="start" x="1784" y="-3092.18" font-family="Arial" font-size="34.00" fill="#000000">Manifest and</text>
<text text-anchor="start" x="1722.5" y="-3058.18" font-family="Arial" font-size="34.00" fill="#000000">Permission Envelope</text>
<text text-anchor="start" x="1766" y="-3036.18" font-family="Arial" font-size="19.00" fill="#000000">[Component: manifest.json]</text>
<text text-anchor="start" x="1708.5" y="-2999.18" font-family="Arial" font-size="24.00" fill="#000000">Declares MV3 permissions, host</text>
<text text-anchor="start" x="1730" y="-2975.18" font-family="Arial" font-size="24.00" fill="#000000">permissions, service worker,</text>
<text text-anchor="start" x="1778.5" y="-2951.18" font-family="Arial" font-size="24.00" fill="#000000">popup, and options</text>
<text text-anchor="start" x="1819" y="-2927.18" font-family="Arial" font-size="24.00" fill="#000000">entrypoints.</text>
</g>
<!-- 7 -->
<g id="7" class="node">
<title>7</title>
<polygon fill="#85bbf0" stroke="#1168bd" points="1074.5,-2697.38 689.5,-2697.38 689.5,-2442.38 1074.5,-2442.38 1074.5,-2697.38"/>
<text text-anchor="start" x="813.5" y="-2649.18" font-family="Arial" font-size="34.00" fill="#000000">Extractor</text>
<text text-anchor="start" x="778" y="-2627.18" font-family="Arial" font-size="19.00" fill="#000000">[Component: JavaScript]</text>
<text text-anchor="start" x="718.5" y="-2590.18" font-family="Arial" font-size="24.00" fill="#000000">Traverses rendered light&#45;DOM</text>
<text text-anchor="start" x="728.5" y="-2566.18" font-family="Arial" font-size="24.00" fill="#000000">text with computed&#45;style and</text>
<text text-anchor="start" x="746.5" y="-2542.18" font-family="Arial" font-size="24.00" fill="#000000">ancestor visibility checks,</text>
<text text-anchor="start" x="762" y="-2518.18" font-family="Arial" font-size="24.00" fill="#000000">discovers image/video</text>
<text text-anchor="start" x="735.5" y="-2494.18" font-family="Arial" font-size="24.00" fill="#000000">references, and applies the</text>
<text text-anchor="start" x="765.5" y="-2470.18" font-family="Arial" font-size="24.00" fill="#000000">selected policy mode.</text>
</g>
<!-- 8 -->
<g id="8" class="node">
<title>8</title>
<polygon fill="#85bbf0" stroke="#1168bd" points="1317.5,-3171.38 932.5,-3171.38 932.5,-2868.38 1317.5,-2868.38 1317.5,-3171.38"/>
<text text-anchor="start" x="1016.5" y="-3123.18" font-family="Arial" font-size="34.00" fill="#000000">Content Script</text>
<text text-anchor="start" x="961.5" y="-3101.18" font-family="Arial" font-size="19.00" fill="#000000">[Component: JavaScript content script]</text>
<text text-anchor="start" x="985" y="-3064.18" font-family="Arial" font-size="24.00" fill="#000000">Schedules initial, delayed,</text>
<text text-anchor="start" x="966" y="-3040.18" font-family="Arial" font-size="24.00" fill="#000000">reinjected, and SPA captures;</text>
<text text-anchor="start" x="982" y="-3016.18" font-family="Arial" font-size="24.00" fill="#000000">computes full deterministic</text>
<text text-anchor="start" x="987" y="-2992.18" font-family="Arial" font-size="24.00" fill="#000000">SHA&#45;256 capture digests;</text>
<text text-anchor="start" x="998.5" y="-2968.18" font-family="Arial" font-size="24.00" fill="#000000">tracks scroll; and sends</text>
<text text-anchor="start" x="963" y="-2944.18" font-family="Arial" font-size="24.00" fill="#000000">capture and inline blob upload</text>
<text text-anchor="start" x="994" y="-2920.18" font-family="Arial" font-size="24.00" fill="#000000">messages to the service</text>
<text text-anchor="start" x="1085.5" y="-2896.18" font-family="Arial" font-size="24.00" fill="#000000">worker.</text>
</g>
<!-- 8&#45;&gt;7 -->
<g id="83" class="edge">
<title>8&#45;&gt;7</title>
<path fill="none" stroke="#444444" stroke-dasharray="5,2" d="M971.75,-2868.21C963.41,-2856.55 955.71,-2844.56 949,-2832.38 927.96,-2794.18 913.36,-2749.21 903.3,-2707.43"/>
<polygon fill="#444444" stroke="#444444" points="906.65,-2706.39 900.97,-2697.45 899.84,-2707.99 906.65,-2706.39"/>
<polygon fill="white" stroke="transparent" points="949,-2752.88 949,-2812.88 1214,-2812.88 1214,-2752.88 949,-2752.88"/>
<text text-anchor="start" x="953.5" y="-2789.68" font-family="Arial" font-size="24.00" fill="#444444">Builds capture payloads</text>
<text text-anchor="start" x="1060.5" y="-2763.68" font-family="Arial" font-size="24.00" fill="#444444">with</text>
</g>
<!-- 8&#45;&gt;9 -->
<g id="84" class="edge">
<title>8&#45;&gt;9</title>
<path fill="none" stroke="#444444" stroke-dasharray="5,2" d="M1206.09,-2868.14C1236.45,-2811.69 1270.57,-2748.27 1299.47,-2694.55"/>
<polygon fill="#444444" stroke="#444444" points="1302.59,-2696.14 1304.24,-2685.67 1296.42,-2692.82 1302.59,-2696.14"/>
<polygon fill="white" stroke="transparent" points="1275,-2745.38 1275,-2820.38 1562,-2820.38 1562,-2745.38 1275,-2745.38"/>
<text text-anchor="start" x="1279.5" y="-2797.68" font-family="Arial" font-size="24.00" fill="#444444">Sends captures and inline</text>
<text text-anchor="start" x="1376.5" y="-2773.68" font-family="Arial" font-size="24.00" fill="#444444">blobs to</text>
<text text-anchor="start" x="1286" y="-2753.68" font-family="Arial" font-size="19.00" fill="#444444">[chrome.runtime.sendMessage]</text>
</g>
<!-- 9&#45;&gt;10 -->
<g id="85" class="edge">
<title>9&#45;&gt;10</title>
<path fill="none" stroke="#444444" stroke-dasharray="5,2" d="M1557.24,-2454.32C1567.81,-2449.91 1578.44,-2445.88 1589,-2442.38 1710.59,-2402 1758.14,-2458.88 1875,-2406.38 1966.07,-2365.46 1984.27,-2338.38 2044,-2258.38 2135.61,-2135.68 2081.8,-2055.69 2188,-1945.38 2212.54,-1919.89 2239.94,-1939.18 2259,-1909.38 2264.49,-1900.79 2267.59,-1799.3 2269.26,-1711.54"/>
<polygon fill="#444444" stroke="#444444" points="2272.76,-1711.53 2269.45,-1701.46 2265.76,-1711.4 2272.76,-1711.53"/>
<polygon fill="white" stroke="transparent" points="2188,-2058.88 2188,-2144.88 2470,-2144.88 2470,-2058.88 2188,-2058.88"/>
<text text-anchor="start" x="2192" y="-2121.68" font-family="Arial" font-size="24.00" fill="#444444">Reads typed settings and</text>
<text text-anchor="start" x="2220.5" y="-2095.68" font-family="Arial" font-size="24.00" fill="#444444">durable restart state</text>
<text text-anchor="start" x="2287.5" y="-2069.68" font-family="Arial" font-size="24.00" fill="#444444">through</text>
</g>
<!-- 9&#45;&gt;11 -->
<g id="86" class="edge">
<title>9&#45;&gt;11</title>
<path fill="none" stroke="#444444" stroke-dasharray="5,2" d="M1478.87,-2454.28C1547.52,-2384.59 1635.13,-2295.64 1705.03,-2224.68"/>
<polygon fill="#444444" stroke="#444444" points="1707.64,-2227.01 1712.17,-2217.43 1702.66,-2222.1 1707.64,-2227.01"/>
<polygon fill="white" stroke="transparent" points="1623,-2307.38 1623,-2393.38 1857,-2393.38 1857,-2307.38 1623,-2307.38"/>
<text text-anchor="start" x="1627" y="-2370.18" font-family="Arial" font-size="24.00" fill="#444444">Delegates navigation</text>
<text text-anchor="start" x="1631.5" y="-2344.18" font-family="Arial" font-size="24.00" fill="#444444">identity and lifecycle</text>
<text text-anchor="start" x="1667.5" y="-2318.18" font-family="Arial" font-size="24.00" fill="#444444">accounting to</text>
</g>
<!-- 9&#45;&gt;12 -->
<g id="87" class="edge">
<title>9&#45;&gt;12</title>
<path fill="none" stroke="#444444" stroke-dasharray="5,2" d="M1555.07,-2454.26C1566.34,-2449.76 1577.69,-2445.74 1589,-2442.38 1651.11,-2423.92 2124.17,-2451.15 2171,-2406.38 2189.09,-2389.08 2165.53,-2312.31 2183,-2294.38 2225.08,-2251.17 2394.93,-2277.88 2452,-2258.38 2480.01,-2248.8 2508.36,-2236.16 2535.61,-2222.2"/>
<polygon fill="#444444" stroke="#444444" points="2537.55,-2225.14 2544.81,-2217.43 2534.32,-2218.93 2537.55,-2225.14"/>
<polygon fill="white" stroke="transparent" points="2183,-2307.38 2183,-2393.38 2456,-2393.38 2456,-2307.38 2183,-2307.38"/>
<text text-anchor="start" x="2202" y="-2370.18" font-family="Arial" font-size="24.00" fill="#444444">Delegates idempotent</text>
<text text-anchor="start" x="2187.5" y="-2344.18" font-family="Arial" font-size="24.00" fill="#444444">active&#45;tab reconstruction</text>
<text text-anchor="start" x="2309.5" y="-2318.18" font-family="Arial" font-size="24.00" fill="#444444">to</text>
</g>
<!-- 9&#45;&gt;13 -->
<g id="91" class="edge">
<title>9&#45;&gt;13</title>
<path fill="none" stroke="#444444" stroke-dasharray="5,2" d="M1149.06,-2454.32C1136.04,-2449.76 1122.96,-2445.72 1110,-2442.38 1025.56,-2420.6 388.77,-2466.91 326,-2406.38 286.5,-2368.28 274.92,-2311.19 275.11,-2256.77"/>
<polygon fill="#444444" stroke="#444444" points="278.62,-2256.7 275.28,-2246.64 271.62,-2256.58 278.62,-2256.7"/>
<polygon fill="white" stroke="transparent" points="326,-2307.38 326,-2393.38 598,-2393.38 598,-2307.38 326,-2307.38"/>
<text text-anchor="start" x="407.5" y="-2370.18" font-family="Arial" font-size="24.00" fill="#444444">Delegates</text>
<text text-anchor="start" x="330" y="-2344.18" font-family="Arial" font-size="24.00" fill="#444444">capture/lifecycle delivery</text>
<text text-anchor="start" x="347.5" y="-2318.18" font-family="Arial" font-size="24.00" fill="#444444">and durable drains to</text>
</g>
<!-- 9&#45;&gt;14 -->
<g id="92" class="edge">
<title>9&#45;&gt;14</title>
<path fill="none" stroke="#444444" stroke-dasharray="5,2" d="M1335.19,-2454.14C1295.47,-2294.34 1239.03,-2016.37 1306,-1945.38 1400.25,-1845.47 1828.75,-2009.28 1923,-1909.38 1940.08,-1891.27 1930.26,-1821.18 1923,-1797.38 1915.15,-1771.64 1903.08,-1746.19 1889.18,-1722.3"/>
<polygon fill="#444444" stroke="#444444" points="1892.11,-1720.37 1883.99,-1713.57 1886.09,-1723.95 1892.11,-1720.37"/>
<polygon fill="white" stroke="transparent" points="1306,-2058.88 1306,-2144.88 1606,-2144.88 1606,-2058.88 1306,-2058.88"/>
<text text-anchor="start" x="1332" y="-2121.68" font-family="Arial" font-size="24.00" fill="#444444">Delegates credentialed</text>
<text text-anchor="start" x="1310" y="-2095.68" font-family="Arial" font-size="24.00" fill="#444444">media delivery and durable</text>
<text text-anchor="start" x="1409" y="-2069.68" font-family="Arial" font-size="24.00" fill="#444444">drains to</text>
</g>
<!-- 9&#45;&gt;15 -->
<g id="93" class="edge">
<title>9&#45;&gt;15</title>
<path fill="none" stroke="#444444" stroke-dasharray="5,2" d="M1146.99,-2455.91C1134.61,-2451.01 1122.23,-2446.46 1110,-2442.38 1027.65,-2414.89 999.61,-2435.99 918,-2406.38 791.56,-2360.48 735.14,-2365.66 654,-2258.38 567.71,-2144.28 673.14,-2053.08 579,-1945.38 549.83,-1912 511.05,-1945.94 486,-1909.38 457.86,-1868.31 451.93,-1833.66 486,-1797.38 573.03,-1704.69 969.64,-1853.75 1057,-1761.38 1095.43,-1720.74 1081.14,-1376.42 1070.11,-1186.48"/>
<polygon fill="#444444" stroke="#444444" points="1073.6,-1186.22 1069.52,-1176.44 1066.61,-1186.63 1073.6,-1186.22"/>
<polygon fill="white" stroke="transparent" points="486,-1823.38 486,-1883.38 792,-1883.38 792,-1823.38 486,-1823.38"/>
<text text-anchor="start" x="496" y="-1860.17" font-family="Arial" font-size="24.00" fill="#444444">Creates the redaction&#45;safe</text>
<text text-anchor="start" x="490" y="-1834.17" font-family="Arial" font-size="24.00" fill="#444444">telemetry boundary through</text>
</g>
<!-- 9&#45;&gt;19 -->
<g id="106" class="edge">
<title>9&#45;&gt;19</title>
<path fill="none" stroke="#444444" stroke-dasharray="5,2" d="M1146.65,-2457.94C1134.33,-2452.51 1122.05,-2447.28 1110,-2442.38 1061.96,-2422.84 1035.26,-2443.45 999,-2406.38 962.67,-2369.23 940.76,-2318.18 927.58,-2268.54"/>
<polygon fill="#444444" stroke="#444444" points="930.92,-2267.46 925.06,-2258.63 924.13,-2269.19 930.92,-2267.46"/>
<polygon fill="white" stroke="transparent" points="999,-2294.38 999,-2406.38 1251,-2406.38 1251,-2294.38 999,-2294.38"/>
<text text-anchor="start" x="1015.5" y="-2383.18" font-family="Arial" font-size="24.00" fill="#444444">Delegates debugger</text>
<text text-anchor="start" x="1028.5" y="-2357.18" font-family="Arial" font-size="24.00" fill="#444444">attachment, event</text>
<text text-anchor="start" x="1003" y="-2331.18" font-family="Arial" font-size="24.00" fill="#444444">correlation, and restart</text>
<text text-anchor="start" x="1040.5" y="-2305.18" font-family="Arial" font-size="24.00" fill="#444444">reconciliation to</text>
</g>
</g>
</svg>
