<?xml version="1.0" encoding="UTF-8" standalone="no"?>
<!DOCTYPE svg PUBLIC "-//W3C//DTD SVG 1.1//EN"
 "http://www.w3.org/Graphics/SVG/1.1/DTD/svg11.dtd">
<!-- Generated by graphviz version 2.43.0 (0)
 -->
<!-- Title: %3 Pages: 1 -->
<svg width="2019pt" height="1580pt"
 viewBox="0.00 0.00 2019.00 1580.00" xmlns="http://www.w3.org/2000/svg" xmlns:xlink="http://www.w3.org/1999/xlink">
<g id="graph0" class="graph" transform="scale(1 1) rotate(0) translate(4 1576)">
<title>%3</title>
<polygon fill="white" stroke="transparent" points="-4,4 -4,-1576 2015,-1576 2015,4 -4,4"/>
<text text-anchor="start" x="420.5" y="-11.8" font-family="Arial" font-size="34.00">Component View: Browser Memory Daemon &#45; WSL Loopback HTTP Daemon</text>
<g id="clust1" class="cluster">
<title>cluster_4</title>
<polygon fill="none" stroke="#444444" points="8,-64 8,-1564 2003,-1564 2003,-64 8,-64"/>
<text text-anchor="start" x="864.5" y="-92.8" font-family="Arial" font-size="24.00" fill="#444444">Browser Memory Daemon</text>
<text text-anchor="start" x="928.5" y="-72.8" font-family="Arial" font-size="19.00" fill="#444444">[Software System]</text>
</g>
<g id="clust2" class="cluster">
<title>cluster_14</title>
<polygon fill="none" stroke="#444444" points="33,-626 33,-983 1210,-983 1210,-626 33,-626"/>
<text text-anchor="start" x="456" y="-654.8" font-family="Arial" font-size="24.00" fill="#444444">WSL Loopback HTTP Daemon</text>
<text text-anchor="start" x="419.5" y="-634.8" font-family="Arial" font-size="19.00" fill="#444444">[Container: Python 3.11, ThreadingHTTPServer]</text>
</g>
<!-- 15 -->
<g id="15" class="node">
<title>15</title>
<polygon fill="#85bbf0" stroke="#5d82a8" points="453,-957.5 58,-957.5 58,-726.5 453,-726.5 453,-957.5"/>
<text text-anchor="start" x="87" y="-909.3" font-family="Arial" font-size="34.00" fill="#000000">HTTP Request Router</text>
<text text-anchor="start" x="119" y="-887.3" font-family="Arial" font-size="19.00" fill="#000000">[Component: Python http.server]</text>
<text text-anchor="start" x="90" y="-850.3" font-family="Arial" font-size="24.00" fill="#000000">Routes loopback API requests,</text>
<text text-anchor="start" x="112.5" y="-826.3" font-family="Arial" font-size="24.00" fill="#000000">serves UI assets, enforces</text>
<text text-anchor="start" x="91.5" y="-802.3" font-family="Arial" font-size="24.00" fill="#000000">bearer auth for memory/admin</text>
<text text-anchor="start" x="106" y="-778.3" font-family="Arial" font-size="24.00" fill="#000000">APIs, and applies CORS for</text>
<text text-anchor="start" x="172" y="-754.3" font-family="Arial" font-size="24.00" fill="#000000">allowed origins.</text>
</g>
<!-- 22 -->
<g id="22" class="node">
<title>22</title>
<polygon fill="#85bbf0" stroke="#5d82a8" points="1185,-957.5 806,-957.5 806,-726.5 1185,-726.5 1185,-957.5"/>
<text text-anchor="start" x="881" y="-909.3" font-family="Arial" font-size="34.00" fill="#000000">Forget Pipeline</text>
<text text-anchor="start" x="867.5" y="-887.3" font-family="Arial" font-size="19.00" fill="#000000">[Component: Python + sqlite3]</text>
<text text-anchor="start" x="840.5" y="-850.3" font-family="Arial" font-size="24.00" fill="#000000">Deletes URL/domain&#45;scoped</text>
<text text-anchor="start" x="849.5" y="-826.3" font-family="Arial" font-size="24.00" fill="#000000">memory rows, FTS entries,</text>
<text text-anchor="start" x="835" y="-802.3" font-family="Arial" font-size="24.00" fill="#000000">clean&#45;text blobs, media blobs,</text>
<text text-anchor="start" x="852.5" y="-778.3" font-family="Arial" font-size="24.00" fill="#000000">lifecycle rows, and records</text>
<text text-anchor="start" x="903.5" y="-754.3" font-family="Arial" font-size="24.00" fill="#000000">deletion receipts.</text>
</g>
<!-- 15&#45;&gt;22 -->
<g id="67" class="edge">
<title>15&#45;&gt;22</title>
<path fill="none" stroke="#444444" stroke-dasharray="5,2" d="M453.3,-842C559.2,-842 689.48,-842 795.68,-842"/>
<polygon fill="#444444" stroke="#444444" points="795.88,-845.5 805.88,-842 795.88,-838.5 795.88,-845.5"/>
<polygon fill="white" stroke="transparent" points="489,-842 489,-876 770,-876 770,-842 489,-842"/>
<text text-anchor="start" x="493.5" y="-852.8" font-family="Arial" font-size="24.00" fill="#444444">Routes forget requests to</text>
</g>
<!-- 27 -->
<g id="27" class="node">
<title>27</title>
<path fill="#2f95c8" stroke="#20688c" d="M1935,-585.72C1935,-608.98 1856.11,-627.88 1759,-627.88 1661.89,-627.88 1583,-608.98 1583,-585.72 1583,-585.72 1583,-206.28 1583,-206.28 1583,-183.02 1661.89,-164.12 1759,-164.12 1856.11,-164.12 1935,-183.02 1935,-206.28 1935,-206.28 1935,-585.72 1935,-585.72"/>
<path fill="none" stroke="#20688c" d="M1935,-585.72C1935,-562.45 1856.11,-543.56 1759,-543.56 1661.89,-543.56 1583,-562.45 1583,-585.72"/>
<text text-anchor="start" x="1646" y="-516.3" font-family="Arial" font-size="34.00" fill="#ffffff">SQLite + FTS5</text>
<text text-anchor="start" x="1686" y="-482.3" font-family="Arial" font-size="34.00" fill="#ffffff">Database</text>
<text text-anchor="start" x="1633" y="-460.3" font-family="Arial" font-size="19.00" fill="#ffffff">[Container: SQLite with FTS5]</text>
<text text-anchor="start" x="1640" y="-423.3" font-family="Arial" font-size="24.00" fill="#ffffff">Durable relational and</text>
<text text-anchor="start" x="1622.5" y="-399.3" font-family="Arial" font-size="24.00" fill="#ffffff">full&#45;text store for sources,</text>
<text text-anchor="start" x="1638.5" y="-375.3" font-family="Arial" font-size="24.00" fill="#ffffff">documents, visits, visit</text>
<text text-anchor="start" x="1613" y="-351.3" font-family="Arial" font-size="24.00" fill="#ffffff">events, snapshots, chunks,</text>
<text text-anchor="start" x="1612" y="-327.3" font-family="Arial" font-size="24.00" fill="#ffffff">chunks_fts, media artifacts,</text>
<text text-anchor="start" x="1627" y="-303.3" font-family="Arial" font-size="24.00" fill="#ffffff">media fetch tasks, policy</text>
<text text-anchor="start" x="1633.5" y="-279.3" font-family="Arial" font-size="24.00" fill="#ffffff">rules, audit events, and</text>
<text text-anchor="start" x="1667" y="-255.3" font-family="Arial" font-size="24.00" fill="#ffffff">deletion receipts.</text>
</g>
<!-- 22&#45;&gt;27 -->
<g id="79" class="edge">
<title>22&#45;&gt;27</title>
<path fill="none" stroke="#444444" stroke-dasharray="5,2" d="M1185.22,-731.47C1303.93,-661.94 1456.37,-572.66 1574.14,-503.69"/>
<polygon fill="#444444" stroke="#444444" points="1576.05,-506.62 1582.91,-498.55 1572.52,-500.58 1576.05,-506.62"/>
<polygon fill="white" stroke="transparent" points="1221,-710 1221,-785 1504,-785 1504,-710 1221,-710"/>
<text text-anchor="start" x="1225.5" y="-762.3" font-family="Arial" font-size="24.00" fill="#444444">Deletes rows and records</text>
<text text-anchor="start" x="1307.5" y="-738.3" font-family="Arial" font-size="24.00" fill="#444444">receipts in</text>
<text text-anchor="start" x="1329.5" y="-718.3" font-family="Arial" font-size="19.00" fill="#444444">[sqlite3]</text>
</g>
<!-- 28 -->
<g id="28" class="node">
<title>28</title>
<path fill="#2f95c8" stroke="#20688c" d="M1978,-958.28C1978,-972.54 1879.84,-984.13 1759,-984.13 1638.16,-984.13 1540,-972.54 1540,-958.28 1540,-958.28 1540,-725.72 1540,-725.72 1540,-711.46 1638.16,-699.87 1759,-699.87 1879.84,-699.87 1978,-711.46 1978,-725.72 1978,-725.72 1978,-958.28 1978,-958.28"/>
<path fill="none" stroke="#20688c" d="M1978,-958.28C1978,-944.03 1879.84,-932.44 1759,-932.44 1638.16,-932.44 1540,-944.03 1540,-958.28"/>
<text text-anchor="start" x="1594.5" y="-897.3" font-family="Arial" font-size="34.00" fill="#ffffff">Clean Text Blob Store</text>
<text text-anchor="start" x="1569" y="-875.3" font-family="Arial" font-size="19.00" fill="#ffffff">[Container: WSL or NAS&#45;mounted filesystem]</text>
<text text-anchor="start" x="1600.5" y="-838.3" font-family="Arial" font-size="24.00" fill="#ffffff">Filesystem store for snapshot</text>
<text text-anchor="start" x="1652" y="-814.3" font-family="Arial" font-size="24.00" fill="#ffffff">text blobs under the</text>
<text text-anchor="start" x="1609" y="-790.3" font-family="Arial" font-size="24.00" fill="#ffffff">configured WSL&#45;visible blob</text>
<text text-anchor="start" x="1734.5" y="-766.3" font-family="Arial" font-size="24.00" fill="#ffffff">root.</text>
</g>
<!-- 22&#45;&gt;28 -->
<g id="80" class="edge">
<title>22&#45;&gt;28</title>
<path fill="none" stroke="#444444" stroke-dasharray="5,2" d="M1185.22,-842C1289.44,-842 1419.66,-842 1529.59,-842"/>
<polygon fill="#444444" stroke="#444444" points="1529.83,-845.5 1539.83,-842 1529.83,-838.5 1529.83,-845.5"/>
<polygon fill="white" stroke="transparent" points="1234.5,-842 1234.5,-893 1490.5,-893 1490.5,-842 1234.5,-842"/>
<text text-anchor="start" x="1238.5" y="-870.3" font-family="Arial" font-size="24.00" fill="#444444">Deletes text blobs from</text>
<text text-anchor="start" x="1311" y="-850.3" font-family="Arial" font-size="19.00" fill="#444444">[Filesystem]</text>
</g>
<!-- 29 -->
<g id="29" class="node">
<title>29</title>
<path fill="#2f95c8" stroke="#20688c" d="M1978,-1495.28C1978,-1519.47 1879.84,-1539.13 1759,-1539.13 1638.16,-1539.13 1540,-1519.47 1540,-1495.28 1540,-1495.28 1540,-1100.72 1540,-1100.72 1540,-1076.53 1638.16,-1056.87 1759,-1056.87 1879.84,-1056.87 1978,-1076.53 1978,-1100.72 1978,-1100.72 1978,-1495.28 1978,-1495.28"/>
<path fill="none" stroke="#20688c" d="M1978,-1495.28C1978,-1471.09 1879.84,-1451.44 1759,-1451.44 1638.16,-1451.44 1540,-1471.09 1540,-1495.28"/>
<text text-anchor="start" x="1620" y="-1425.3" font-family="Arial" font-size="34.00" fill="#ffffff">Media Blob Cache</text>
<text text-anchor="start" x="1569" y="-1403.3" font-family="Arial" font-size="19.00" fill="#ffffff">[Container: WSL or NAS&#45;mounted filesystem]</text>
<text text-anchor="start" x="1625.5" y="-1366.3" font-family="Arial" font-size="24.00" fill="#ffffff">Bounded and disposable</text>
<text text-anchor="start" x="1614.5" y="-1342.3" font-family="Arial" font-size="24.00" fill="#ffffff">filesystem cache for stored</text>
<text text-anchor="start" x="1593.5" y="-1318.3" font-family="Arial" font-size="24.00" fill="#ffffff">image/video/audio blobs under</text>
<text text-anchor="start" x="1615" y="-1294.3" font-family="Arial" font-size="24.00" fill="#ffffff">the configured WSL&#45;visible</text>
<text text-anchor="start" x="1683.5" y="-1270.3" font-family="Arial" font-size="24.00" fill="#ffffff">blob root, with</text>
<text text-anchor="start" x="1591.5" y="-1246.3" font-family="Arial" font-size="24.00" fill="#ffffff">purge/rehydrate semantics that</text>
<text text-anchor="start" x="1602.5" y="-1222.3" font-family="Arial" font-size="24.00" fill="#ffffff">preserve media refs, hashes,</text>
<text text-anchor="start" x="1586" y="-1198.3" font-family="Arial" font-size="24.00" fill="#ffffff">status reasons, and provenance</text>
<text text-anchor="start" x="1622.5" y="-1174.3" font-family="Arial" font-size="24.00" fill="#ffffff">when bytes are absent or</text>
<text text-anchor="start" x="1717.5" y="-1150.3" font-family="Arial" font-size="24.00" fill="#ffffff">purged.</text>
</g>
<!-- 22&#45;&gt;29 -->
<g id="81" class="edge">
<title>22&#45;&gt;29</title>
<path fill="none" stroke="#444444" stroke-dasharray="5,2" d="M1185.22,-955.01C1289.86,-1017.67 1420.71,-1096.03 1530.92,-1162.02"/>
<polygon fill="#444444" stroke="#444444" points="1529.45,-1165.22 1539.83,-1167.35 1533.05,-1159.21 1529.45,-1165.22"/>
<polygon fill="white" stroke="transparent" points="1221,-1144 1221,-1195 1504,-1195 1504,-1144 1221,-1144"/>
<text text-anchor="start" x="1225.5" y="-1172.3" font-family="Arial" font-size="24.00" fill="#444444">Deletes media blobs from</text>
<text text-anchor="start" x="1311.5" y="-1152.3" font-family="Arial" font-size="19.00" fill="#444444">[Filesystem]</text>
</g>
</g>
</svg>
