<?xml version="1.0" encoding="UTF-8" standalone="no"?>
<!DOCTYPE svg PUBLIC "-//W3C//DTD SVG 1.1//EN"
 "http://www.w3.org/Graphics/SVG/1.1/DTD/svg11.dtd">
<!-- Generated by graphviz version 2.43.0 (0)
 -->
<!-- Title: %3 Pages: 1 -->
<svg width="2028pt" height="1025pt"
 viewBox="0.00 0.00 2028.00 1025.00" xmlns="http://www.w3.org/2000/svg" xmlns:xlink="http://www.w3.org/1999/xlink">
<g id="graph0" class="graph" transform="scale(1 1) rotate(0) translate(4 1021)">
<title>%3</title>
<polygon fill="white" stroke="transparent" points="-4,4 -4,-1021 2024,-1021 2024,4 -4,4"/>
<text text-anchor="start" x="425" y="-11.8" font-family="Arial" font-size="34.00">Component View: Browser Memory Daemon &#45; WSL Loopback HTTP Daemon</text>
<g id="clust1" class="cluster">
<title>cluster_4</title>
<polygon fill="none" stroke="#444444" points="8,-64 8,-1009 2012,-1009 2012,-64 8,-64"/>
<text text-anchor="start" x="869" y="-92.8" font-family="Arial" font-size="24.00" fill="#444444">Browser Memory Daemon</text>
<text text-anchor="start" x="933" y="-72.8" font-family="Arial" font-size="19.00" fill="#444444">[Software System]</text>
</g>
<g id="clust2" class="cluster">
<title>cluster_14</title>
<polygon fill="none" stroke="#444444" points="33,-329 33,-686 1232,-686 1232,-329 33,-329"/>
<text text-anchor="start" x="467" y="-357.8" font-family="Arial" font-size="24.00" fill="#444444">WSL Loopback HTTP Daemon</text>
<text text-anchor="start" x="430.5" y="-337.8" font-family="Arial" font-size="19.00" fill="#444444">[Container: Python 3.11, ThreadingHTTPServer]</text>
</g>
<!-- 15 -->
<g id="15" class="node">
<title>15</title>
<polygon fill="#85bbf0" stroke="#1168bd" points="453,-660.5 58,-660.5 58,-429.5 453,-429.5 453,-660.5"/>
<text text-anchor="start" x="87" y="-612.3" font-family="Arial" font-size="34.00" fill="#000000">HTTP Request Router</text>
<text text-anchor="start" x="119" y="-590.3" font-family="Arial" font-size="19.00" fill="#000000">[Component: Python http.server]</text>
<text text-anchor="start" x="90" y="-553.3" font-family="Arial" font-size="24.00" fill="#000000">Routes loopback API requests,</text>
<text text-anchor="start" x="112.5" y="-529.3" font-family="Arial" font-size="24.00" fill="#000000">serves UI assets, enforces</text>
<text text-anchor="start" x="91.5" y="-505.3" font-family="Arial" font-size="24.00" fill="#000000">bearer auth for memory/admin</text>
<text text-anchor="start" x="106" y="-481.3" font-family="Arial" font-size="24.00" fill="#000000">APIs, and applies CORS for</text>
<text text-anchor="start" x="172" y="-457.3" font-family="Arial" font-size="24.00" fill="#000000">allowed origins.</text>
</g>
<!-- 19 -->
<g id="19" class="node">
<title>19</title>
<polygon fill="#85bbf0" stroke="#1168bd" points="1207,-660.5 815,-660.5 815,-429.5 1207,-429.5 1207,-660.5"/>
<text text-anchor="start" x="899.5" y="-612.3" font-family="Arial" font-size="34.00" fill="#000000">Ingest Pipeline</text>
<text text-anchor="start" x="883" y="-590.3" font-family="Arial" font-size="19.00" fill="#000000">[Component: Python + sqlite3]</text>
<text text-anchor="start" x="857.5" y="-553.3" font-family="Arial" font-size="24.00" fill="#000000">Normalizes URLs, computes</text>
<text text-anchor="start" x="844" y="-529.3" font-family="Arial" font-size="24.00" fill="#000000">document/snapshot IDs, stores</text>
<text text-anchor="start" x="857.5" y="-505.3" font-family="Arial" font-size="24.00" fill="#000000">visits/snapshots/chunks/FTS</text>
<text text-anchor="start" x="856" y="-481.3" font-family="Arial" font-size="24.00" fill="#000000">rows, writes clean text blobs,</text>
<text text-anchor="start" x="846" y="-457.3" font-family="Arial" font-size="24.00" fill="#000000">and records media references.</text>
</g>
<!-- 15&#45;&gt;19 -->
<g id="65" class="edge">
<title>15&#45;&gt;19</title>
<path fill="none" stroke="#444444" stroke-dasharray="5,2" d="M453.49,-545C561.53,-545 695.32,-545 804.65,-545"/>
<polygon fill="#444444" stroke="#444444" points="804.81,-548.5 814.81,-545 804.81,-541.5 804.81,-548.5"/>
<polygon fill="white" stroke="transparent" points="489,-545 489,-605 779,-605 779,-545 489,-545"/>
<text text-anchor="start" x="493" y="-581.8" font-family="Arial" font-size="24.00" fill="#444444">Routes accepted captures</text>
<text text-anchor="start" x="623.5" y="-555.8" font-family="Arial" font-size="24.00" fill="#444444">to</text>
</g>
<!-- 28 -->
<g id="28" class="node">
<title>28</title>
<path fill="#2f95c8" stroke="#20688c" d="M1965.5,-585.72C1965.5,-608.98 1876.98,-627.88 1768,-627.88 1659.02,-627.88 1570.5,-608.98 1570.5,-585.72 1570.5,-585.72 1570.5,-206.28 1570.5,-206.28 1570.5,-183.02 1659.02,-164.12 1768,-164.12 1876.98,-164.12 1965.5,-183.02 1965.5,-206.28 1965.5,-206.28 1965.5,-585.72 1965.5,-585.72"/>
<path fill="none" stroke="#20688c" d="M1965.5,-585.72C1965.5,-562.45 1876.98,-543.56 1768,-543.56 1659.02,-543.56 1570.5,-562.45 1570.5,-585.72"/>
<text text-anchor="start" x="1655" y="-516.3" font-family="Arial" font-size="34.00" fill="#ffffff">SQLite + FTS5</text>
<text text-anchor="start" x="1695" y="-482.3" font-family="Arial" font-size="34.00" fill="#ffffff">Database</text>
<text text-anchor="start" x="1642" y="-460.3" font-family="Arial" font-size="19.00" fill="#ffffff">[Container: SQLite with FTS5]</text>
<text text-anchor="start" x="1649" y="-423.3" font-family="Arial" font-size="24.00" fill="#ffffff">Durable relational and</text>
<text text-anchor="start" x="1627.5" y="-399.3" font-family="Arial" font-size="24.00" fill="#ffffff">full&#45;text store for migration</text>
<text text-anchor="start" x="1616" y="-375.3" font-family="Arial" font-size="24.00" fill="#ffffff">ledger, sources, documents,</text>
<text text-anchor="start" x="1671.5" y="-351.3" font-family="Arial" font-size="24.00" fill="#ffffff">visits, visit events,</text>
<text text-anchor="start" x="1599.5" y="-327.3" font-family="Arial" font-size="24.00" fill="#ffffff">snapshots, chunks, chunks_fts,</text>
<text text-anchor="start" x="1619.5" y="-303.3" font-family="Arial" font-size="24.00" fill="#ffffff">media artifacts, media fetch</text>
<text text-anchor="start" x="1639.5" y="-279.3" font-family="Arial" font-size="24.00" fill="#ffffff">tasks, policy rules, audit</text>
<text text-anchor="start" x="1610" y="-255.3" font-family="Arial" font-size="24.00" fill="#ffffff">events, and deletion receipts.</text>
</g>
<!-- 19&#45;&gt;28 -->
<g id="72" class="edge">
<title>19&#45;&gt;28</title>
<path fill="none" stroke="#444444" stroke-dasharray="5,2" d="M1207.41,-506.44C1315.78,-485.05 1450.46,-458.47 1560.54,-436.74"/>
<polygon fill="#444444" stroke="#444444" points="1561.31,-440.16 1570.44,-434.79 1559.95,-433.29 1561.31,-440.16"/>
<polygon fill="white" stroke="transparent" points="1243,-496 1243,-571 1513,-571 1513,-496 1243,-496"/>
<text text-anchor="start" x="1247" y="-548.3" font-family="Arial" font-size="24.00" fill="#444444">Writes capture rows and</text>
<text text-anchor="start" x="1341.5" y="-524.3" font-family="Arial" font-size="24.00" fill="#444444">FTS to</text>
<text text-anchor="start" x="1344.5" y="-504.3" font-family="Arial" font-size="19.00" fill="#444444">[sqlite3]</text>
</g>
<!-- 29 -->
<g id="29" class="node">
<title>29</title>
<path fill="#2f95c8" stroke="#20688c" d="M1987,-958.28C1987,-972.54 1888.84,-984.13 1768,-984.13 1647.16,-984.13 1549,-972.54 1549,-958.28 1549,-958.28 1549,-725.72 1549,-725.72 1549,-711.46 1647.16,-699.87 1768,-699.87 1888.84,-699.87 1987,-711.46 1987,-725.72 1987,-725.72 1987,-958.28 1987,-958.28"/>
<path fill="none" stroke="#20688c" d="M1987,-958.28C1987,-944.03 1888.84,-932.44 1768,-932.44 1647.16,-932.44 1549,-944.03 1549,-958.28"/>
<text text-anchor="start" x="1603.5" y="-897.3" font-family="Arial" font-size="34.00" fill="#ffffff">Clean Text Blob Store</text>
<text text-anchor="start" x="1578" y="-875.3" font-family="Arial" font-size="19.00" fill="#ffffff">[Container: WSL or NAS&#45;mounted filesystem]</text>
<text text-anchor="start" x="1609.5" y="-838.3" font-family="Arial" font-size="24.00" fill="#ffffff">Filesystem store for snapshot</text>
<text text-anchor="start" x="1661" y="-814.3" font-family="Arial" font-size="24.00" fill="#ffffff">text blobs under the</text>
<text text-anchor="start" x="1618" y="-790.3" font-family="Arial" font-size="24.00" fill="#ffffff">configured WSL&#45;visible blob</text>
<text text-anchor="start" x="1743.5" y="-766.3" font-family="Arial" font-size="24.00" fill="#ffffff">root.</text>
</g>
<!-- 19&#45;&gt;29 -->
<g id="73" class="edge">
<title>19&#45;&gt;29</title>
<path fill="none" stroke="#444444" stroke-dasharray="5,2" d="M1207.41,-621.87C1308.88,-661.79 1433.44,-710.78 1539.25,-752.41"/>
<polygon fill="#444444" stroke="#444444" points="1538.19,-755.75 1548.78,-756.16 1540.76,-749.24 1538.19,-755.75"/>
<polygon fill="white" stroke="transparent" points="1244.5,-737 1244.5,-788 1511.5,-788 1511.5,-737 1244.5,-737"/>
<text text-anchor="start" x="1249" y="-765.3" font-family="Arial" font-size="24.00" fill="#444444">Writes text snapshots to</text>
<text text-anchor="start" x="1327" y="-745.3" font-family="Arial" font-size="19.00" fill="#444444">[Filesystem]</text>
</g>
</g>
</svg>
