<?xml version="1.0" encoding="UTF-8" standalone="no"?>
<!DOCTYPE svg PUBLIC "-//W3C//DTD SVG 1.1//EN"
 "http://www.w3.org/Graphics/SVG/1.1/DTD/svg11.dtd">
<!-- Generated by graphviz version 2.43.0 (0)
 -->
<!-- Title: %3 Pages: 1 -->
<svg width="3258pt" height="2111pt"
 viewBox="0.00 0.00 3258.00 2111.38" xmlns="http://www.w3.org/2000/svg" xmlns:xlink="http://www.w3.org/1999/xlink">
<g id="graph0" class="graph" transform="scale(1 1) rotate(0) translate(4 2107.38)">
<title>%3</title>
<polygon fill="white" stroke="transparent" points="-4,4 -4,-2107.38 3254,-2107.38 3254,4 -4,4"/>
<text text-anchor="start" x="1144.5" y="-11.8" font-family="Arial" font-size="34.00">Deployment View: Browser Memory Daemon &#45; Daily&#45;driver local</text>
<g id="clust1" class="cluster">
<title>cluster_138</title>
<polygon fill="none" stroke="#444444" points="8,-64 8,-2095.38 3242,-2095.38 3242,-64 8,-64"/>
<text text-anchor="start" x="1531.5" y="-92.8" font-family="Arial" font-size="24.00" fill="#444444">Local workstation</text>
<text text-anchor="start" x="1463" y="-72.8" font-family="Arial" font-size="19.00" fill="#444444">[Deployment Node: Windows + WSL2]</text>
</g>
<g id="clust2" class="cluster">
<title>cluster_139</title>
<polygon fill="none" stroke="#444444" points="2099,-1577.38 2099,-2058.38 3217,-2058.38 3217,-1577.38 2099,-1577.38"/>
<text text-anchor="start" x="2545.5" y="-1606.17" font-family="Arial" font-size="24.00" fill="#444444">Windows user profile</text>
<text text-anchor="start" x="2504.5" y="-1586.17" font-family="Arial" font-size="19.00" fill="#444444">[Deployment Node: Windows profile]</text>
</g>
<g id="clust3" class="cluster">
<title>cluster_140</title>
<polygon fill="none" stroke="#444444" points="2124,-1653.38 2124,-2033.38 3192,-2033.38 3192,-1653.38 2124,-1653.38"/>
<text text-anchor="start" x="2463.5" y="-1682.17" font-family="Arial" font-size="24.00" fill="#444444">Windows Chrome daily&#45;driver profile</text>
<text text-anchor="start" x="2482.5" y="-1662.17" font-family="Arial" font-size="19.00" fill="#444444">[Deployment Node: Google Chrome MV3]</text>
</g>
<g id="clust4" class="cluster">
<title>cluster_146</title>
<polygon fill="none" stroke="#444444" points="33,-140 33,-2070.38 2074,-2070.38 2074,-140 33,-140"/>
<text text-anchor="start" x="978" y="-168.8" font-family="Arial" font-size="24.00" fill="#444444">WSL2 Ubuntu</text>
<text text-anchor="start" x="863" y="-148.8" font-family="Arial" font-size="19.00" fill="#444444">[Deployment Node: Ubuntu + systemd &#45;&#45;user]</text>
</g>
<g id="clust5" class="cluster">
<title>cluster_147</title>
<polygon fill="none" stroke="#444444" points="1301,-997.38 1301,-2045.38 1813,-2045.38 1813,-997.38 1301,-997.38"/>
<text text-anchor="start" x="1429" y="-1026.17" font-family="Arial" font-size="24.00" fill="#444444">systemd &#45;&#45;user services</text>
<text text-anchor="start" x="1408" y="-1006.17" font-family="Arial" font-size="19.00" fill="#444444">[Deployment Node: systemd &#45;&#45;user]</text>
</g>
<g id="clust7" class="cluster">
<title>cluster_156</title>
<polygon fill="none" stroke="#444444" points="677,-216 677,-879.38 2049,-879.38 2049,-216 677,-216"/>
<text text-anchor="start" x="1204" y="-244.8" font-family="Arial" font-size="24.00" fill="#444444">WSL XDG runtime data paths</text>
<text text-anchor="start" x="1211" y="-224.8" font-family="Arial" font-size="19.00" fill="#444444">[Deployment Node: WSL filesystem]</text>
</g>
<g id="clust8" class="cluster">
<title>cluster_169</title>
<polygon fill="none" stroke="#444444" points="58,-282 58,-813.38 652,-813.38 652,-282 58,-282"/>
<text text-anchor="start" x="168.5" y="-310.8" font-family="Arial" font-size="24.00" fill="#444444">WSL&#45;mounted guarded media root</text>
<text text-anchor="start" x="114.5" y="-290.8" font-family="Arial" font-size="19.00" fill="#444444">[Deployment Node: NAS mount of TrueNAS ZFS dataset]</text>
</g>
<!-- 141 -->
<g id="141" class="node">
<title>141</title>
<polygon fill="#438dd5" stroke="#2e6295" points="2583,-2008.38 2149,-2008.38 2149,-1729.38 2583,-1729.38 2583,-2008.38"/>
<text text-anchor="start" x="2186" y="-1960.17" font-family="Arial" font-size="34.00" fill="#ffffff">Chrome MV3 Extension</text>
<text text-anchor="start" x="2178" y="-1938.17" font-family="Arial" font-size="19.00" fill="#ffffff">[Container: JavaScript, Chrome Manifest V3]</text>
<text text-anchor="start" x="2223" y="-1901.17" font-family="Arial" font-size="24.00" fill="#ffffff">Captures visible page text,</text>
<text text-anchor="start" x="2248.5" y="-1877.17" font-family="Arial" font-size="24.00" fill="#ffffff">media references, tab</text>
<text text-anchor="start" x="2257" y="-1853.17" font-family="Arial" font-size="24.00" fill="#ffffff">lifecycle events, and</text>
<text text-anchor="start" x="2200" y="-1829.17" font-family="Arial" font-size="24.00" fill="#ffffff">browser&#45;side media bytes from</text>
<text text-anchor="start" x="2195" y="-1805.17" font-family="Arial" font-size="24.00" fill="#ffffff">Windows Chrome; queues work</text>
<text text-anchor="start" x="2207" y="-1781.17" font-family="Arial" font-size="24.00" fill="#ffffff">durably and posts to the WSL</text>
<text text-anchor="start" x="2318.5" y="-1757.17" font-family="Arial" font-size="24.00" fill="#ffffff">daemon.</text>
</g>
<!-- 148 -->
<g id="148" class="node">
<title>148</title>
<polygon fill="#438dd5" stroke="#2e6295" points="1788,-1410.38 1326,-1410.38 1326,-1073.38 1788,-1073.38 1788,-1410.38"/>
<text text-anchor="start" x="1392.5" y="-1362.17" font-family="Arial" font-size="34.00" fill="#ffffff">WSL Loopback HTTP</text>
<text text-anchor="start" x="1492.5" y="-1328.17" font-family="Arial" font-size="34.00" fill="#ffffff">Daemon</text>
<text text-anchor="start" x="1355" y="-1306.17" font-family="Arial" font-size="19.00" fill="#ffffff">[Container: Python 3.11, ThreadingHTTPServer]</text>
<text text-anchor="start" x="1396" y="-1269.17" font-family="Arial" font-size="24.00" fill="#ffffff">Authenticated loopback HTTP</text>
<text text-anchor="start" x="1421" y="-1245.17" font-family="Arial" font-size="24.00" fill="#ffffff">API that handles capture,</text>
<text text-anchor="start" x="1417.5" y="-1221.17" font-family="Arial" font-size="24.00" fill="#ffffff">visit events, media artifact</text>
<text text-anchor="start" x="1420.5" y="-1197.17" font-family="Arial" font-size="24.00" fill="#ffffff">upload/fetch/purge, exact</text>
<text text-anchor="start" x="1517" y="-1173.17" font-family="Arial" font-size="24.00" fill="#ffffff">search,</text>
<text text-anchor="start" x="1408" y="-1149.17" font-family="Arial" font-size="24.00" fill="#ffffff">recent/timeline/detail, policy</text>
<text text-anchor="start" x="1405.5" y="-1125.17" font-family="Arial" font-size="24.00" fill="#ffffff">rules, doctor, durable forget,</text>
<text text-anchor="start" x="1444" y="-1101.17" font-family="Arial" font-size="24.00" fill="#ffffff">and static UI serving.</text>
</g>
<!-- 141&#45;&gt;148 -->
<g id="149" class="edge">
<title>141&#45;&gt;148</title>
<path fill="none" stroke="#444444" stroke-dasharray="5,2" d="M2198.21,-1729.3C2096.05,-1645.9 1962.28,-1538.4 1841,-1446.38 1826.63,-1435.47 1811.76,-1424.35 1796.71,-1413.22"/>
<polygon fill="#444444" stroke="#444444" points="1798.46,-1410.16 1788.33,-1407.03 1794.3,-1415.79 1798.46,-1410.16"/>
<polygon fill="white" stroke="transparent" points="1987,-1446.38 1987,-1569.38 2482,-1569.38 2482,-1446.38 1987,-1446.38"/>
<text text-anchor="start" x="2154" y="-1546.67" font-family="Arial" font-size="24.00" fill="#444444">Posts /capture,</text>
<text text-anchor="start" x="2131" y="-1522.67" font-family="Arial" font-size="24.00" fill="#444444">/visit&#45;events, media</text>
<text text-anchor="start" x="2108" y="-1498.67" font-family="Arial" font-size="24.00" fill="#444444">metadata, and raw blob</text>
<text text-anchor="start" x="2179" y="-1474.67" font-family="Arial" font-size="24.00" fill="#444444">uploads to</text>
<text text-anchor="start" x="1991.5" y="-1454.67" font-family="Arial" font-size="19.00" fill="#444444">[Bearer HTTP/JSON; raw HTTP PUT over 127.0.0.1:8765]</text>
</g>
<!-- 144 -->
<g id="144" class="node">
<title>144</title>
<polygon fill="#438dd5" stroke="#2e6295" points="3167,-1996.38 2655,-1996.38 2655,-1741.38 3167,-1741.38 3167,-1996.38"/>
<text text-anchor="start" x="2808.5" y="-1948.17" font-family="Arial" font-size="34.00" fill="#ffffff">Local Web UI</text>
<text text-anchor="start" x="2684" y="-1926.17" font-family="Arial" font-size="19.00" fill="#ffffff">[Container: HTML/CSS/JavaScript served by daemon]</text>
<text text-anchor="start" x="2769" y="-1889.17" font-family="Arial" font-size="24.00" fill="#ffffff">Static browser UI for exact</text>
<text text-anchor="start" x="2752" y="-1865.17" font-family="Arial" font-size="24.00" fill="#ffffff">search, recent/timeline views,</text>
<text text-anchor="start" x="2769.5" y="-1841.17" font-family="Arial" font-size="24.00" fill="#ffffff">document/snapshot detail,</text>
<text text-anchor="start" x="2754" y="-1817.17" font-family="Arial" font-size="24.00" fill="#ffffff">media artifact opening, policy</text>
<text text-anchor="start" x="2817.5" y="-1793.17" font-family="Arial" font-size="24.00" fill="#ffffff">rules, doctor, and</text>
<text text-anchor="start" x="2772.5" y="-1769.17" font-family="Arial" font-size="24.00" fill="#ffffff">forget&#45;domain operations.</text>
</g>
<!-- 144&#45;&gt;148 -->
<g id="150" class="edge">
<title>144&#45;&gt;148</title>
<path fill="none" stroke="#444444" stroke-dasharray="5,2" d="M2820.89,-1741.3C2745.89,-1645.54 2630.58,-1518.61 2500,-1446.38 2281.29,-1325.39 1997.13,-1276.31 1798.14,-1256.41"/>
<polygon fill="#444444" stroke="#444444" points="1798.43,-1252.92 1788.13,-1255.43 1797.74,-1259.89 1798.43,-1252.92"/>
<polygon fill="white" stroke="transparent" points="2654,-1458.38 2654,-1557.38 2931,-1557.38 2931,-1458.38 2654,-1458.38"/>
<text text-anchor="start" x="2659" y="-1534.67" font-family="Arial" font-size="24.00" fill="#444444">Calls authenticated read,</text>
<text text-anchor="start" x="2658.5" y="-1510.67" font-family="Arial" font-size="24.00" fill="#444444">admin, media, and forget</text>
<text text-anchor="start" x="2750.5" y="-1486.67" font-family="Arial" font-size="24.00" fill="#444444">APIs on</text>
<text text-anchor="start" x="2735" y="-1466.67" font-family="Arial" font-size="19.00" fill="#444444">[HTTP/JSON]</text>
</g>
<!-- 157 -->
<g id="157" class="node">
<title>157</title>
<path fill="#2f95c8" stroke="#20688c" d="M1097.5,-803.4C1097.5,-831.63 1008.98,-854.56 900,-854.56 791.02,-854.56 702.5,-831.63 702.5,-803.4 702.5,-803.4 702.5,-342.97 702.5,-342.97 702.5,-314.74 791.02,-291.81 900,-291.81 1008.98,-291.81 1097.5,-314.74 1097.5,-342.97 1097.5,-342.97 1097.5,-803.4 1097.5,-803.4"/>
<path fill="none" stroke="#20688c" d="M1097.5,-803.4C1097.5,-775.17 1008.98,-752.24 900,-752.24 791.02,-752.24 702.5,-775.17 702.5,-803.4"/>
<text text-anchor="start" x="787" y="-729.49" font-family="Arial" font-size="34.00" fill="#ffffff">SQLite + FTS5</text>
<text text-anchor="start" x="827" y="-695.49" font-family="Arial" font-size="34.00" fill="#ffffff">Database</text>
<text text-anchor="start" x="774" y="-673.49" font-family="Arial" font-size="19.00" fill="#ffffff">[Container: SQLite with FTS5]</text>
<text text-anchor="start" x="732" y="-636.49" font-family="Arial" font-size="24.00" fill="#ffffff">Durable complete cleaned&#45;text,</text>
<text text-anchor="start" x="781" y="-612.49" font-family="Arial" font-size="24.00" fill="#ffffff">relational, and full&#45;text</text>
<text text-anchor="start" x="782.5" y="-588.49" font-family="Arial" font-size="24.00" fill="#ffffff">authority for migration</text>
<text text-anchor="start" x="748" y="-564.49" font-family="Arial" font-size="24.00" fill="#ffffff">ledger, sources, documents,</text>
<text text-anchor="start" x="750.5" y="-540.49" font-family="Arial" font-size="24.00" fill="#ffffff">visits, capture observations,</text>
<text text-anchor="start" x="769" y="-516.49" font-family="Arial" font-size="24.00" fill="#ffffff">URL claims, visit events,</text>
<text text-anchor="start" x="731.5" y="-492.49" font-family="Arial" font-size="24.00" fill="#ffffff">snapshots, chunks, chunks_fts,</text>
<text text-anchor="start" x="739" y="-468.49" font-family="Arial" font-size="24.00" fill="#ffffff">media provenance/tasks, blob</text>
<text text-anchor="start" x="775.5" y="-444.49" font-family="Arial" font-size="24.00" fill="#ffffff">lifecycle records, policy</text>
<text text-anchor="start" x="774.5" y="-420.49" font-family="Arial" font-size="24.00" fill="#ffffff">rules, audit events, and</text>
<text text-anchor="start" x="808" y="-396.49" font-family="Arial" font-size="24.00" fill="#ffffff">deletion receipts.</text>
</g>
<!-- 148&#45;&gt;157 -->
<g id="158" class="edge">
<title>148&#45;&gt;157</title>
<path fill="none" stroke="#444444" stroke-dasharray="5,2" d="M1397.68,-1073.24C1359.59,-1042.65 1316.85,-1014.91 1272,-997.38 1250.36,-988.91 1081.95,-1002.83 1063,-989.38 1018.87,-958.04 986.68,-912.86 963.21,-863.73"/>
<polygon fill="#444444" stroke="#444444" points="966.32,-862.11 958.93,-854.52 959.97,-865.06 966.32,-862.11"/>
<polygon fill="white" stroke="transparent" points="1063,-890.38 1063,-989.38 1373,-989.38 1373,-890.38 1063,-890.38"/>
<text text-anchor="start" x="1067" y="-966.67" font-family="Arial" font-size="24.00" fill="#444444">Reads and writes metadata,</text>
<text text-anchor="start" x="1100" y="-942.67" font-family="Arial" font-size="24.00" fill="#444444">FTS, tasks, audit, and</text>
<text text-anchor="start" x="1162.5" y="-918.67" font-family="Arial" font-size="24.00" fill="#444444">receipts in</text>
<text text-anchor="start" x="1184.5" y="-898.67" font-family="Arial" font-size="19.00" fill="#444444">[sqlite3]</text>
</g>
<!-- 161 -->
<g id="161" class="node">
<title>161</title>
<path fill="#2f95c8" stroke="#20688c" d="M2023.5,-722.4C2023.5,-740.7 1934.98,-755.56 1826,-755.56 1717.02,-755.56 1628.5,-740.7 1628.5,-722.4 1628.5,-722.4 1628.5,-423.97 1628.5,-423.97 1628.5,-405.67 1717.02,-390.81 1826,-390.81 1934.98,-390.81 2023.5,-405.67 2023.5,-423.97 2023.5,-423.97 2023.5,-722.4 2023.5,-722.4"/>
<path fill="none" stroke="#20688c" d="M2023.5,-722.4C2023.5,-704.11 1934.98,-689.24 1826,-689.24 1717.02,-689.24 1628.5,-704.11 1628.5,-722.4"/>
<text text-anchor="start" x="1704.5" y="-657.49" font-family="Arial" font-size="34.00" fill="#ffffff">Local Derivative</text>
<text text-anchor="start" x="1785" y="-623.49" font-family="Arial" font-size="34.00" fill="#ffffff">Store</text>
<text text-anchor="start" x="1686" y="-601.49" font-family="Arial" font-size="19.00" fill="#ffffff">[Container: WSL local filesystem]</text>
<text text-anchor="start" x="1672.5" y="-564.49" font-family="Arial" font-size="24.00" fill="#ffffff">Reconstructible compatibility</text>
<text text-anchor="start" x="1657.5" y="-540.49" font-family="Arial" font-size="24.00" fill="#ffffff">evidence such as pre&#45;version&#45;9</text>
<text text-anchor="start" x="1696" y="-516.49" font-family="Arial" font-size="24.00" fill="#ffffff">clean&#45;text sidecars; new</text>
<text text-anchor="start" x="1702.5" y="-492.49" font-family="Arial" font-size="24.00" fill="#ffffff">captures create no text</text>
<text text-anchor="start" x="1777.5" y="-468.49" font-family="Arial" font-size="24.00" fill="#ffffff">sidecars.</text>
</g>
<!-- 148&#45;&gt;161 -->
<g id="162" class="edge">
<title>148&#45;&gt;161</title>
<path fill="none" stroke="#444444" stroke-dasharray="5,2" d="M1663.41,-1073.07C1678.53,-1045.68 1693,-1017.16 1705,-989.38 1735.71,-918.28 1761.32,-837.07 1780.95,-765.44"/>
<polygon fill="#444444" stroke="#444444" points="1784.43,-765.97 1783.68,-755.4 1777.67,-764.13 1784.43,-765.97"/>
<polygon fill="white" stroke="transparent" points="1739,-890.38 1739,-989.38 2007,-989.38 2007,-890.38 1739,-890.38"/>
<text text-anchor="start" x="1743" y="-966.67" font-family="Arial" font-size="24.00" fill="#444444">Reads or deletes legacy</text>
<text text-anchor="start" x="1772.5" y="-942.67" font-family="Arial" font-size="24.00" fill="#444444">text sidecars when</text>
<text text-anchor="start" x="1828" y="-918.67" font-family="Arial" font-size="24.00" fill="#444444">required</text>
<text text-anchor="start" x="1821.5" y="-898.67" font-family="Arial" font-size="19.00" fill="#444444">[Filesystem]</text>
</g>
<!-- 164 -->
<g id="164" class="node">
<title>164</title>
<path fill="#2f95c8" stroke="#20688c" d="M1556,-762.9C1556,-786.17 1469.49,-805.06 1363,-805.06 1256.51,-805.06 1170,-786.17 1170,-762.9 1170,-762.9 1170,-383.47 1170,-383.47 1170,-360.21 1256.51,-341.31 1363,-341.31 1469.49,-341.31 1556,-360.21 1556,-383.47 1556,-383.47 1556,-762.9 1556,-762.9"/>
<path fill="none" stroke="#20688c" d="M1556,-762.9C1556,-739.64 1469.49,-720.74 1363,-720.74 1256.51,-720.74 1170,-739.64 1170,-762.9"/>
<text text-anchor="start" x="1199" y="-693.49" font-family="Arial" font-size="34.00" fill="#ffffff">Bounded Local Media</text>
<text text-anchor="start" x="1319.5" y="-659.49" font-family="Arial" font-size="34.00" fill="#ffffff">Spool</text>
<text text-anchor="start" x="1223" y="-637.49" font-family="Arial" font-size="19.00" fill="#ffffff">[Container: WSL local filesystem]</text>
<text text-anchor="start" x="1211" y="-600.49" font-family="Arial" font-size="24.00" fill="#ffffff">Opt&#45;in durable outage buffer</text>
<text text-anchor="start" x="1214.5" y="-576.49" font-family="Arial" font-size="24.00" fill="#ffffff">beneath the local WSL data</text>
<text text-anchor="start" x="1241.5" y="-552.49" font-family="Arial" font-size="24.00" fill="#ffffff">root; admission counts</text>
<text text-anchor="start" x="1217.5" y="-528.49" font-family="Arial" font-size="24.00" fill="#ffffff">committed files and distinct</text>
<text text-anchor="start" x="1211" y="-504.49" font-family="Arial" font-size="24.00" fill="#ffffff">in&#45;flight SQLite reservations,</text>
<text text-anchor="start" x="1238" y="-480.49" font-family="Arial" font-size="24.00" fill="#ffffff">and drain verifies bytes</text>
<text text-anchor="start" x="1215.5" y="-456.49" font-family="Arial" font-size="24.00" fill="#ffffff">before tier transition/source</text>
<text text-anchor="start" x="1317" y="-432.49" font-family="Arial" font-size="24.00" fill="#ffffff">cleanup.</text>
</g>
<!-- 148&#45;&gt;164 -->
<g id="165" class="edge">
<title>148&#45;&gt;164</title>
<path fill="none" stroke="#444444" stroke-dasharray="5,2" d="M1450.65,-1073.19C1436.83,-1045.96 1424.29,-1017.46 1415,-989.38 1396.79,-934.28 1384.87,-873.14 1377.11,-815.1"/>
<polygon fill="#444444" stroke="#444444" points="1380.56,-814.53 1375.8,-805.06 1373.62,-815.43 1380.56,-814.53"/>
<polygon fill="white" stroke="transparent" points="1415,-890.38 1415,-989.38 1691,-989.38 1691,-890.38 1415,-890.38"/>
<text text-anchor="start" x="1419" y="-966.67" font-family="Arial" font-size="24.00" fill="#444444">Stores and serves media</text>
<text text-anchor="start" x="1446" y="-942.67" font-family="Arial" font-size="24.00" fill="#444444">during guarded&#45;root</text>
<text text-anchor="start" x="1497" y="-918.67" font-family="Arial" font-size="24.00" fill="#444444">outages in</text>
<text text-anchor="start" x="1501.5" y="-898.67" font-family="Arial" font-size="19.00" fill="#444444">[Filesystem]</text>
</g>
<!-- 170 -->
<g id="170" class="node">
<title>170</title>
<path fill="#2f95c8" stroke="#20688c" d="M627,-749.4C627,-771.01 505.09,-788.56 355,-788.56 204.91,-788.56 83,-771.01 83,-749.4 83,-749.4 83,-396.97 83,-396.97 83,-375.36 204.91,-357.81 355,-357.81 505.09,-357.81 627,-375.36 627,-396.97 627,-396.97 627,-749.4 627,-749.4"/>
<path fill="none" stroke="#20688c" d="M627,-749.4C627,-727.8 505.09,-710.24 355,-710.24 204.91,-710.24 83,-727.8 83,-749.4"/>
<text text-anchor="start" x="199.5" y="-681.49" font-family="Arial" font-size="34.00" fill="#ffffff">Guarded Media Blob</text>
<text text-anchor="start" x="305.5" y="-647.49" font-family="Arial" font-size="34.00" fill="#ffffff">Cache</text>
<text text-anchor="start" x="112" y="-625.49" font-family="Arial" font-size="19.00" fill="#ffffff">[Container: WSL&#45;visible local or NAS&#45;mounted filesystem]</text>
<text text-anchor="start" x="245" y="-588.49" font-family="Arial" font-size="24.00" fill="#ffffff">Bounded disposable</text>
<text text-anchor="start" x="189.5" y="-564.49" font-family="Arial" font-size="24.00" fill="#ffffff">image/video/audio bytes under</text>
<text text-anchor="start" x="213.5" y="-540.49" font-family="Arial" font-size="24.00" fill="#ffffff">the configured media root;</text>
<text text-anchor="start" x="241" y="-516.49" font-family="Arial" font-size="24.00" fill="#ffffff">explicit external roots</text>
<text text-anchor="start" x="256" y="-492.49" font-family="Arial" font-size="24.00" fill="#ffffff">require mount and</text>
<text text-anchor="start" x="205.5" y="-468.49" font-family="Arial" font-size="24.00" fill="#ffffff">identity&#45;marker proof before</text>
<text text-anchor="start" x="314" y="-444.49" font-family="Arial" font-size="24.00" fill="#ffffff">access.</text>
</g>
<!-- 148&#45;&gt;170 -->
<g id="171" class="edge">
<title>148&#45;&gt;170</title>
<path fill="none" stroke="#444444" stroke-dasharray="5,2" d="M1399.17,-1073.3C1360.77,-1042.4 1317.53,-1014.51 1272,-997.38 1239.71,-985.22 681.57,-1005.37 651,-989.38 570.48,-947.23 506.93,-872.11 459.7,-797.25"/>
<polygon fill="#444444" stroke="#444444" points="462.57,-795.23 454.31,-788.59 456.62,-798.93 462.57,-795.23"/>
<polygon fill="white" stroke="transparent" points="651,-890.38 651,-989.38 959,-989.38 959,-890.38 651,-890.38"/>
<text text-anchor="start" x="680" y="-966.67" font-family="Arial" font-size="24.00" fill="#444444">Stores, serves, purges,</text>
<text text-anchor="start" x="655" y="-942.67" font-family="Arial" font-size="24.00" fill="#444444">and rehydrates media blobs</text>
<text text-anchor="start" x="795.5" y="-918.67" font-family="Arial" font-size="24.00" fill="#444444">in</text>
<text text-anchor="start" x="753.5" y="-898.67" font-family="Arial" font-size="19.00" fill="#444444">[Filesystem]</text>
</g>
<!-- 151 -->
<g id="151" class="node">
<title>151</title>
<polygon fill="#438dd5" stroke="#2e6295" points="1680,-2020.38 1326,-2020.38 1326,-1717.38 1680,-1717.38 1680,-2020.38"/>
<text text-anchor="start" x="1356" y="-1972.17" font-family="Arial" font-size="34.00" fill="#ffffff">WSL Media Worker</text>
<text text-anchor="start" x="1363" y="-1950.17" font-family="Arial" font-size="19.00" fill="#ffffff">[Container: Python 3.11 CLI loop]</text>
<text text-anchor="start" x="1355.5" y="-1913.17" font-family="Arial" font-size="24.00" fill="#ffffff">Long&#45;running systemd user</text>
<text text-anchor="start" x="1404.5" y="-1889.17" font-family="Arial" font-size="24.00" fill="#ffffff">worker that leases</text>
<text text-anchor="start" x="1357" y="-1865.17" font-family="Arial" font-size="24.00" fill="#ffffff">daemon&#45;public media fetch</text>
<text text-anchor="start" x="1394" y="-1841.17" font-family="Arial" font-size="24.00" fill="#ffffff">tasks, fetches public</text>
<text text-anchor="start" x="1355" y="-1817.17" font-family="Arial" font-size="24.00" fill="#ffffff">media/HLS without Chrome</text>
<text text-anchor="start" x="1360" y="-1793.17" font-family="Arial" font-size="24.00" fill="#ffffff">cookies, classifies terminal</text>
<text text-anchor="start" x="1357" y="-1769.17" font-family="Arial" font-size="24.00" fill="#ffffff">states, and updates artifact</text>
<text text-anchor="start" x="1474" y="-1745.17" font-family="Arial" font-size="24.00" fill="#ffffff">rows.</text>
</g>
<!-- 151&#45;&gt;148 -->
<g id="152" class="edge">
<title>151&#45;&gt;148</title>
<path fill="none" stroke="#444444" stroke-dasharray="5,2" d="M1516.04,-1716.98C1523.75,-1627.75 1533.55,-1514.28 1541.63,-1420.71"/>
<polygon fill="#444444" stroke="#444444" points="1545.14,-1420.83 1542.51,-1410.57 1538.16,-1420.23 1545.14,-1420.83"/>
<polygon fill="white" stroke="transparent" points="1537,-1477.88 1537,-1537.88 1823,-1537.88 1823,-1477.88 1537,-1477.88"/>
<text text-anchor="start" x="1541" y="-1514.67" font-family="Arial" font-size="24.00" fill="#444444">Runs bounded lease/retry</text>
<text text-anchor="start" x="1562.5" y="-1488.67" font-family="Arial" font-size="24.00" fill="#444444">task workflow through</text>
</g>
<!-- 151&#45;&gt;157 -->
<g id="159" class="edge">
<title>151&#45;&gt;157</title>
<path fill="none" stroke="#444444" stroke-dasharray="5,2" d="M1325.77,-1822.89C1128.44,-1763.11 815.66,-1637.57 651,-1410.38 513.97,-1221.31 420.78,-1064.82 576,-890.38 589.98,-874.66 651.76,-889.84 670,-879.38 687.15,-869.54 703.43,-857.85 718.8,-844.89"/>
<polygon fill="#444444" stroke="#444444" points="721.49,-847.19 726.76,-837.99 716.91,-841.9 721.49,-847.19"/>
<polygon fill="white" stroke="transparent" points="651,-1204.38 651,-1279.38 951,-1279.38 951,-1204.38 651,-1204.38"/>
<text text-anchor="start" x="655" y="-1256.67" font-family="Arial" font-size="24.00" fill="#444444">Leases and updates media</text>
<text text-anchor="start" x="760" y="-1232.67" font-family="Arial" font-size="24.00" fill="#444444">tasks in</text>
<text text-anchor="start" x="767.5" y="-1212.67" font-family="Arial" font-size="19.00" fill="#444444">[sqlite3]</text>
</g>
<!-- 151&#45;&gt;164 -->
<g id="166" class="edge">
<title>151&#45;&gt;164</title>
<path fill="none" stroke="#444444" stroke-dasharray="5,2" d="M1325.86,-1731.01C1230.95,-1648.29 1120.23,-1534.92 1054,-1410.38 964.33,-1241.76 987.21,-1179.38 968,-989.38 965.79,-967.49 952.97,-906.44 968,-890.38 993.26,-863.38 1101.5,-896.99 1134,-879.38 1167.55,-861.2 1197.59,-835.75 1224.01,-807.22"/>
<polygon fill="#444444" stroke="#444444" points="1226.88,-809.26 1231.01,-799.5 1221.7,-804.56 1226.88,-809.26"/>
<polygon fill="white" stroke="transparent" points="1054,-1192.38 1054,-1291.38 1290,-1291.38 1290,-1192.38 1054,-1192.38"/>
<text text-anchor="start" x="1058" y="-1268.67" font-family="Arial" font-size="24.00" fill="#444444">Writes fetched media</text>
<text text-anchor="start" x="1065" y="-1244.67" font-family="Arial" font-size="24.00" fill="#444444">during guarded&#45;root</text>
<text text-anchor="start" x="1115" y="-1220.67" font-family="Arial" font-size="24.00" fill="#444444">outages to</text>
<text text-anchor="start" x="1120.5" y="-1200.67" font-family="Arial" font-size="19.00" fill="#444444">[Filesystem]</text>
</g>
<!-- 151&#45;&gt;170 -->
<g id="172" class="edge">
<title>151&#45;&gt;170</title>
<path fill="none" stroke="#444444" stroke-dasharray="5,2" d="M1325.89,-1833C997.29,-1764.33 314.2,-1601.5 178,-1410.38 50.12,-1230.93 130.15,-978.32 219.92,-797.79"/>
<polygon fill="#444444" stroke="#444444" points="223.11,-799.22 224.47,-788.71 216.86,-796.08 223.11,-799.22"/>
<polygon fill="white" stroke="transparent" points="178,-1204.38 178,-1279.38 478,-1279.38 478,-1204.38 178,-1204.38"/>
<text text-anchor="start" x="182" y="-1256.67" font-family="Arial" font-size="24.00" fill="#444444">Writes fetched media blobs</text>
<text text-anchor="start" x="317.5" y="-1232.67" font-family="Arial" font-size="24.00" fill="#444444">to</text>
<text text-anchor="start" x="276.5" y="-1212.67" font-family="Arial" font-size="19.00" fill="#444444">[Filesystem]</text>
</g>
</g>
</svg>
