<?xml version="1.0" encoding="UTF-8" standalone="no"?>
<!DOCTYPE svg PUBLIC "-//W3C//DTD SVG 1.1//EN"
 "http://www.w3.org/Graphics/SVG/1.1/DTD/svg11.dtd">
<!-- Generated by graphviz version 2.43.0 (0)
 -->
<!-- Title: %3 Pages: 1 -->
<svg width="2042pt" height="1256pt"
 viewBox="0.00 0.00 2042.00 1256.00" xmlns="http://www.w3.org/2000/svg" xmlns:xlink="http://www.w3.org/1999/xlink">
<g id="graph0" class="graph" transform="scale(1 1) rotate(0) translate(4 1252)">
<title>%3</title>
<polygon fill="white" stroke="transparent" points="-4,4 -4,-1252 2038,-1252 2038,4 -4,4"/>
<text text-anchor="start" x="432" y="-11.8" font-family="Arial" font-size="34.00">Component View: Browser Memory Daemon &#45; WSL Loopback HTTP Daemon</text>
<g id="clust1" class="cluster">
<title>cluster_4</title>
<polygon fill="none" stroke="#444444" points="8,-64 8,-1240 2026,-1240 2026,-64 8,-64"/>
<text text-anchor="start" x="876" y="-92.8" font-family="Arial" font-size="24.00" fill="#444444">Browser Memory Daemon</text>
<text text-anchor="start" x="940" y="-72.8" font-family="Arial" font-size="19.00" fill="#444444">[Software System]</text>
</g>
<g id="clust2" class="cluster">
<title>cluster_14</title>
<polygon fill="none" stroke="#444444" points="33,-436 33,-875 1248,-875 1248,-436 33,-436"/>
<text text-anchor="start" x="475" y="-464.8" font-family="Arial" font-size="24.00" fill="#444444">WSL Loopback HTTP Daemon</text>
<text text-anchor="start" x="438.5" y="-444.8" font-family="Arial" font-size="19.00" fill="#444444">[Container: Python 3.11, ThreadingHTTPServer]</text>
</g>
<!-- 15 -->
<g id="15" class="node">
<title>15</title>
<polygon fill="#85bbf0" stroke="#1168bd" points="453,-808.5 58,-808.5 58,-577.5 453,-577.5 453,-808.5"/>
<text text-anchor="start" x="87" y="-760.3" font-family="Arial" font-size="34.00" fill="#000000">HTTP Request Router</text>
<text text-anchor="start" x="119" y="-738.3" font-family="Arial" font-size="19.00" fill="#000000">[Component: Python http.server]</text>
<text text-anchor="start" x="90" y="-701.3" font-family="Arial" font-size="24.00" fill="#000000">Routes loopback API requests,</text>
<text text-anchor="start" x="112.5" y="-677.3" font-family="Arial" font-size="24.00" fill="#000000">serves UI assets, enforces</text>
<text text-anchor="start" x="91.5" y="-653.3" font-family="Arial" font-size="24.00" fill="#000000">bearer auth for memory/admin</text>
<text text-anchor="start" x="106" y="-629.3" font-family="Arial" font-size="24.00" fill="#000000">APIs, and applies CORS for</text>
<text text-anchor="start" x="172" y="-605.3" font-family="Arial" font-size="24.00" fill="#000000">allowed origins.</text>
</g>
<!-- 21 -->
<g id="21" class="node">
<title>21</title>
<polygon fill="#85bbf0" stroke="#1168bd" points="1223,-849.5 802,-849.5 802,-536.5 1223,-536.5 1223,-849.5"/>
<text text-anchor="start" x="909" y="-801.3" font-family="Arial" font-size="34.00" fill="#000000">Media Artifact</text>
<text text-anchor="start" x="945.5" y="-767.3" font-family="Arial" font-size="34.00" fill="#000000">Manager</text>
<text text-anchor="start" x="831" y="-745.3" font-family="Arial" font-size="19.00" fill="#000000">[Component: Python + sqlite3 + filesystem]</text>
<text text-anchor="start" x="866.5" y="-708.3" font-family="Arial" font-size="24.00" fill="#000000">Records media references,</text>
<text text-anchor="start" x="889" y="-684.3" font-family="Arial" font-size="24.00" fill="#000000">validates blob uploads,</text>
<text text-anchor="start" x="870.5" y="-660.3" font-family="Arial" font-size="24.00" fill="#000000">enforces MIME/size/cache</text>
<text text-anchor="start" x="912" y="-636.3" font-family="Arial" font-size="24.00" fill="#000000">gates, writes blobs</text>
<text text-anchor="start" x="878" y="-612.3" font-family="Arial" font-size="24.00" fill="#000000">atomically, queues public</text>
<text text-anchor="start" x="872.5" y="-588.3" font-family="Arial" font-size="24.00" fill="#000000">fetch tasks, and purges or</text>
<text text-anchor="start" x="876" y="-564.3" font-family="Arial" font-size="24.00" fill="#000000">rehydrates cache entries.</text>
</g>
<!-- 15&#45;&gt;21 -->
<g id="67" class="edge">
<title>15&#45;&gt;21</title>
<path fill="none" stroke="#444444" stroke-dasharray="5,2" d="M453.39,-693C557.09,-693 684.58,-693 791.52,-693"/>
<polygon fill="#444444" stroke="#444444" points="791.8,-696.5 801.8,-693 791.8,-689.5 791.8,-696.5"/>
<text text-anchor="start" x="489" y="-699.8" font-family="Arial" font-size="24.00" fill="#444444">Routes media requests to</text>
</g>
<!-- 28 -->
<g id="28" class="node">
<title>28</title>
<path fill="#2f95c8" stroke="#20688c" d="M1979.5,-615.22C1979.5,-640.13 1890.98,-660.38 1782,-660.38 1673.02,-660.38 1584.5,-640.13 1584.5,-615.22 1584.5,-615.22 1584.5,-208.78 1584.5,-208.78 1584.5,-183.87 1673.02,-163.62 1782,-163.62 1890.98,-163.62 1979.5,-183.87 1979.5,-208.78 1979.5,-208.78 1979.5,-615.22 1979.5,-615.22"/>
<path fill="none" stroke="#20688c" d="M1979.5,-615.22C1979.5,-590.3 1890.98,-570.06 1782,-570.06 1673.02,-570.06 1584.5,-590.3 1584.5,-615.22"/>
<text text-anchor="start" x="1669" y="-544.3" font-family="Arial" font-size="34.00" fill="#ffffff">SQLite + FTS5</text>
<text text-anchor="start" x="1709" y="-510.3" font-family="Arial" font-size="34.00" fill="#ffffff">Database</text>
<text text-anchor="start" x="1656" y="-488.3" font-family="Arial" font-size="19.00" fill="#ffffff">[Container: SQLite with FTS5]</text>
<text text-anchor="start" x="1663" y="-451.3" font-family="Arial" font-size="24.00" fill="#ffffff">Durable relational and</text>
<text text-anchor="start" x="1641.5" y="-427.3" font-family="Arial" font-size="24.00" fill="#ffffff">full&#45;text store for migration</text>
<text text-anchor="start" x="1630" y="-403.3" font-family="Arial" font-size="24.00" fill="#ffffff">ledger, sources, documents,</text>
<text text-anchor="start" x="1632.5" y="-379.3" font-family="Arial" font-size="24.00" fill="#ffffff">visits, capture observations,</text>
<text text-anchor="start" x="1651" y="-355.3" font-family="Arial" font-size="24.00" fill="#ffffff">URL claims, visit events,</text>
<text text-anchor="start" x="1613.5" y="-331.3" font-family="Arial" font-size="24.00" fill="#ffffff">snapshots, chunks, chunks_fts,</text>
<text text-anchor="start" x="1633.5" y="-307.3" font-family="Arial" font-size="24.00" fill="#ffffff">media artifacts, media fetch</text>
<text text-anchor="start" x="1653.5" y="-283.3" font-family="Arial" font-size="24.00" fill="#ffffff">tasks, policy rules, audit</text>
<text text-anchor="start" x="1624" y="-259.3" font-family="Arial" font-size="24.00" fill="#ffffff">events, and deletion receipts.</text>
</g>
<!-- 21&#45;&gt;28 -->
<g id="76" class="edge">
<title>21&#45;&gt;28</title>
<path fill="none" stroke="#444444" stroke-dasharray="5,2" d="M1223.22,-616.22C1332.66,-576.15 1466.04,-527.31 1574.94,-487.45"/>
<polygon fill="#444444" stroke="#444444" points="1576.21,-490.71 1584.39,-483.98 1573.8,-484.13 1576.21,-490.71"/>
<text text-anchor="start" x="1259" y="-650.8" font-family="Arial" font-size="24.00" fill="#444444">Updates media rows and</text>
<text text-anchor="start" x="1352" y="-626.8" font-family="Arial" font-size="24.00" fill="#444444">tasks in</text>
<text text-anchor="start" x="1359.5" y="-606.8" font-family="Arial" font-size="19.00" fill="#444444">[sqlite3]</text>
</g>
<!-- 30 -->
<g id="30" class="node">
<title>30</title>
<path fill="#2f95c8" stroke="#20688c" d="M2001,-1171.28C2001,-1195.47 1902.84,-1215.13 1782,-1215.13 1661.16,-1215.13 1563,-1195.47 1563,-1171.28 1563,-1171.28 1563,-776.72 1563,-776.72 1563,-752.53 1661.16,-732.87 1782,-732.87 1902.84,-732.87 2001,-752.53 2001,-776.72 2001,-776.72 2001,-1171.28 2001,-1171.28"/>
<path fill="none" stroke="#20688c" d="M2001,-1171.28C2001,-1147.09 1902.84,-1127.44 1782,-1127.44 1661.16,-1127.44 1563,-1147.09 1563,-1171.28"/>
<text text-anchor="start" x="1643" y="-1101.3" font-family="Arial" font-size="34.00" fill="#ffffff">Media Blob Cache</text>
<text text-anchor="start" x="1592" y="-1079.3" font-family="Arial" font-size="19.00" fill="#ffffff">[Container: WSL or NAS&#45;mounted filesystem]</text>
<text text-anchor="start" x="1648.5" y="-1042.3" font-family="Arial" font-size="24.00" fill="#ffffff">Bounded and disposable</text>
<text text-anchor="start" x="1637.5" y="-1018.3" font-family="Arial" font-size="24.00" fill="#ffffff">filesystem cache for stored</text>
<text text-anchor="start" x="1616.5" y="-994.3" font-family="Arial" font-size="24.00" fill="#ffffff">image/video/audio blobs under</text>
<text text-anchor="start" x="1638" y="-970.3" font-family="Arial" font-size="24.00" fill="#ffffff">the configured WSL&#45;visible</text>
<text text-anchor="start" x="1706.5" y="-946.3" font-family="Arial" font-size="24.00" fill="#ffffff">blob root, with</text>
<text text-anchor="start" x="1614.5" y="-922.3" font-family="Arial" font-size="24.00" fill="#ffffff">purge/rehydrate semantics that</text>
<text text-anchor="start" x="1625.5" y="-898.3" font-family="Arial" font-size="24.00" fill="#ffffff">preserve media refs, hashes,</text>
<text text-anchor="start" x="1609" y="-874.3" font-family="Arial" font-size="24.00" fill="#ffffff">status reasons, and provenance</text>
<text text-anchor="start" x="1645.5" y="-850.3" font-family="Arial" font-size="24.00" fill="#ffffff">when bytes are absent or</text>
<text text-anchor="start" x="1740.5" y="-826.3" font-family="Arial" font-size="24.00" fill="#ffffff">purged.</text>
</g>
<!-- 21&#45;&gt;30 -->
<g id="77" class="edge">
<title>21&#45;&gt;30</title>
<path fill="none" stroke="#444444" stroke-dasharray="5,2" d="M1223.22,-769.78C1325.54,-807.25 1448.81,-852.38 1553.41,-890.67"/>
<polygon fill="#444444" stroke="#444444" points="1552.24,-893.97 1562.83,-894.12 1554.64,-887.4 1552.24,-893.97"/>
<text text-anchor="start" x="1275.5" y="-927.8" font-family="Arial" font-size="24.00" fill="#444444">Writes, serves, evicts,</text>
<text text-anchor="start" x="1287" y="-903.8" font-family="Arial" font-size="24.00" fill="#444444">and purges blobs in</text>
<text text-anchor="start" x="1341.5" y="-883.8" font-family="Arial" font-size="19.00" fill="#444444">[Filesystem]</text>
</g>
</g>
</svg>
