<?xml version="1.0" encoding="UTF-8" standalone="no"?>
<!DOCTYPE svg PUBLIC "-//W3C//DTD SVG 1.1//EN"
 "http://www.w3.org/Graphics/SVG/1.1/DTD/svg11.dtd">
<!-- Generated by graphviz version 2.43.0 (0)
 -->
<!-- Title: %3 Pages: 1 -->
<svg width="1247pt" height="1572pt"
 viewBox="0.00 0.00 1247.00 1571.50" xmlns="http://www.w3.org/2000/svg" xmlns:xlink="http://www.w3.org/1999/xlink">
<g id="graph0" class="graph" transform="scale(1 1) rotate(0) translate(4 1567.5)">
<title>%3</title>
<polygon fill="white" stroke="transparent" points="-4,4 -4,-1567.5 1243,-1567.5 1243,4 -4,4"/>
<text text-anchor="start" x="304" y="-11.8" font-family="Arial" font-size="34.00">Dynamic View: Browser Memory Daemon</text>
<g id="clust1" class="cluster">
<title>cluster_4</title>
<polygon fill="none" stroke="#444444" points="8,-346.5 8,-1555.5 1231,-1555.5 1231,-346.5 8,-346.5"/>
<text text-anchor="start" x="478.5" y="-375.3" font-family="Arial" font-size="24.00" fill="#444444">Browser Memory Daemon</text>
<text text-anchor="start" x="542.5" y="-355.3" font-family="Arial" font-size="19.00" fill="#444444">[Software System]</text>
</g>
<!-- 26 -->
<g id="26" class="node">
<title>26</title>
<polygon fill="#438dd5" stroke="#2e6295" points="387,-806 33,-806 33,-503 387,-503 387,-806"/>
<text text-anchor="start" x="63" y="-757.8" font-family="Arial" font-size="34.00" fill="#ffffff">WSL Media Worker</text>
<text text-anchor="start" x="70" y="-735.8" font-family="Arial" font-size="19.00" fill="#ffffff">[Container: Python 3.11 CLI loop]</text>
<text text-anchor="start" x="62.5" y="-698.8" font-family="Arial" font-size="24.00" fill="#ffffff">Long&#45;running systemd user</text>
<text text-anchor="start" x="111.5" y="-674.8" font-family="Arial" font-size="24.00" fill="#ffffff">worker that leases</text>
<text text-anchor="start" x="64" y="-650.8" font-family="Arial" font-size="24.00" fill="#ffffff">daemon&#45;public media fetch</text>
<text text-anchor="start" x="101" y="-626.8" font-family="Arial" font-size="24.00" fill="#ffffff">tasks, fetches public</text>
<text text-anchor="start" x="62" y="-602.8" font-family="Arial" font-size="24.00" fill="#ffffff">media/HLS without Chrome</text>
<text text-anchor="start" x="67" y="-578.8" font-family="Arial" font-size="24.00" fill="#ffffff">cookies, classifies terminal</text>
<text text-anchor="start" x="64" y="-554.8" font-family="Arial" font-size="24.00" fill="#ffffff">states, and updates artifact</text>
<text text-anchor="start" x="181" y="-530.8" font-family="Arial" font-size="24.00" fill="#ffffff">rows.</text>
</g>
<!-- 29 -->
<g id="29" class="node">
<title>29</title>
<path fill="#2f95c8" stroke="#20688c" d="M1185,-928.22C1185,-954.79 1096.25,-976.38 987,-976.38 877.75,-976.38 789,-954.79 789,-928.22 789,-928.22 789,-494.78 789,-494.78 789,-468.21 877.75,-446.62 987,-446.62 1096.25,-446.62 1185,-468.21 1185,-494.78 1185,-494.78 1185,-928.22 1185,-928.22"/>
<path fill="none" stroke="#20688c" d="M1185,-928.22C1185,-901.64 1096.25,-880.06 987,-880.06 877.75,-880.06 789,-901.64 789,-928.22"/>
<text text-anchor="start" x="874" y="-855.8" font-family="Arial" font-size="34.00" fill="#ffffff">SQLite + FTS5</text>
<text text-anchor="start" x="914" y="-821.8" font-family="Arial" font-size="34.00" fill="#ffffff">Database</text>
<text text-anchor="start" x="861" y="-799.8" font-family="Arial" font-size="19.00" fill="#ffffff">[Container: SQLite with FTS5]</text>
<text text-anchor="start" x="819" y="-762.8" font-family="Arial" font-size="24.00" fill="#ffffff">Durable complete cleaned&#45;text,</text>
<text text-anchor="start" x="868" y="-738.8" font-family="Arial" font-size="24.00" fill="#ffffff">relational, and full&#45;text</text>
<text text-anchor="start" x="869.5" y="-714.8" font-family="Arial" font-size="24.00" fill="#ffffff">authority for migration</text>
<text text-anchor="start" x="835" y="-690.8" font-family="Arial" font-size="24.00" fill="#ffffff">ledger, sources, documents,</text>
<text text-anchor="start" x="837.5" y="-666.8" font-family="Arial" font-size="24.00" fill="#ffffff">visits, capture observations,</text>
<text text-anchor="start" x="856" y="-642.8" font-family="Arial" font-size="24.00" fill="#ffffff">URL claims, visit events,</text>
<text text-anchor="start" x="818.5" y="-618.8" font-family="Arial" font-size="24.00" fill="#ffffff">snapshots, chunks, chunks_fts,</text>
<text text-anchor="start" x="818" y="-594.8" font-family="Arial" font-size="24.00" fill="#ffffff">media provenance/tasks, policy</text>
<text text-anchor="start" x="861.5" y="-570.8" font-family="Arial" font-size="24.00" fill="#ffffff">rules, audit events, and</text>
<text text-anchor="start" x="895" y="-546.8" font-family="Arial" font-size="24.00" fill="#ffffff">deletion receipts.</text>
</g>
<!-- 26&#45;&gt;29 -->
<g id="48" class="edge">
<title>26&#45;&gt;29</title>
<path fill="none" stroke="#444444" stroke-dasharray="5,2" d="M387.14,-589C399.17,-586.03 411.19,-583.48 423,-581.5 558.45,-558.83 598.49,-549.32 732,-581.5 747.65,-585.27 763.43,-590.18 779.04,-595.88"/>
<polygon fill="#444444" stroke="#444444" points="778.14,-599.28 788.73,-599.53 780.6,-592.73 778.14,-599.28"/>
<polygon fill="white" stroke="transparent" points="472.5,-581.5 472.5,-680.5 682.5,-680.5 682.5,-581.5 472.5,-581.5"/>
<text text-anchor="start" x="503.5" y="-657.8" font-family="Arial" font-size="24.00" fill="#444444">1. Claims due</text>
<text text-anchor="start" x="497.5" y="-633.8" font-family="Arial" font-size="24.00" fill="#444444">daemon&#45;public</text>
<text text-anchor="start" x="476.5" y="-609.8" font-family="Arial" font-size="24.00" fill="#444444">media_fetch_tasks</text>
<text text-anchor="start" x="544" y="-589.8" font-family="Arial" font-size="19.00" fill="#444444">[sqlite3]</text>
</g>
<!-- 26&#45;&gt;29 -->
<g id="48" class="edge">
<title>26&#45;&gt;29</title>
<path fill="none" stroke="#444444" stroke-dasharray="5,2" d="M387.1,-689.89C399.22,-691.66 411.27,-693.22 423,-694.5 540.25,-707.25 671.99,-711.76 778.53,-712.97"/>
<polygon fill="#444444" stroke="#444444" points="778.73,-716.47 788.76,-713.07 778.8,-709.47 778.73,-716.47"/>
<polygon fill="white" stroke="transparent" points="440.5,-711.5 440.5,-834.5 714.5,-834.5 714.5,-711.5 440.5,-711.5"/>
<text text-anchor="start" x="465.5" y="-811.8" font-family="Arial" font-size="24.00" fill="#444444">4. Marks task/artifact</text>
<text text-anchor="start" x="444.5" y="-787.8" font-family="Arial" font-size="24.00" fill="#444444">stored, retrying, skipped,</text>
<text text-anchor="start" x="463" y="-763.8" font-family="Arial" font-size="24.00" fill="#444444">expired, or failed with</text>
<text text-anchor="start" x="540" y="-739.8" font-family="Arial" font-size="24.00" fill="#444444">reason</text>
<text text-anchor="start" x="544" y="-719.8" font-family="Arial" font-size="19.00" fill="#444444">[sqlite3]</text>
</g>
<!-- 31 -->
<g id="31" class="node">
<title>31</title>
<path fill="#2f95c8" stroke="#20688c" d="M1206,-1486.78C1206,-1510.97 1107.84,-1530.63 987,-1530.63 866.16,-1530.63 768,-1510.97 768,-1486.78 768,-1486.78 768,-1092.22 768,-1092.22 768,-1068.03 866.16,-1048.37 987,-1048.37 1107.84,-1048.37 1206,-1068.03 1206,-1092.22 1206,-1092.22 1206,-1486.78 1206,-1486.78"/>
<path fill="none" stroke="#20688c" d="M1206,-1486.78C1206,-1462.59 1107.84,-1442.94 987,-1442.94 866.16,-1442.94 768,-1462.59 768,-1486.78"/>
<text text-anchor="start" x="848" y="-1416.8" font-family="Arial" font-size="34.00" fill="#ffffff">Media Blob Cache</text>
<text text-anchor="start" x="797" y="-1394.8" font-family="Arial" font-size="19.00" fill="#ffffff">[Container: WSL or NAS&#45;mounted filesystem]</text>
<text text-anchor="start" x="853.5" y="-1357.8" font-family="Arial" font-size="24.00" fill="#ffffff">Bounded and disposable</text>
<text text-anchor="start" x="842.5" y="-1333.8" font-family="Arial" font-size="24.00" fill="#ffffff">filesystem cache for stored</text>
<text text-anchor="start" x="821.5" y="-1309.8" font-family="Arial" font-size="24.00" fill="#ffffff">image/video/audio blobs under</text>
<text text-anchor="start" x="843" y="-1285.8" font-family="Arial" font-size="24.00" fill="#ffffff">the configured WSL&#45;visible</text>
<text text-anchor="start" x="911.5" y="-1261.8" font-family="Arial" font-size="24.00" fill="#ffffff">blob root, with</text>
<text text-anchor="start" x="819.5" y="-1237.8" font-family="Arial" font-size="24.00" fill="#ffffff">purge/rehydrate semantics that</text>
<text text-anchor="start" x="830.5" y="-1213.8" font-family="Arial" font-size="24.00" fill="#ffffff">preserve media refs, hashes,</text>
<text text-anchor="start" x="814" y="-1189.8" font-family="Arial" font-size="24.00" fill="#ffffff">status reasons, and provenance</text>
<text text-anchor="start" x="850.5" y="-1165.8" font-family="Arial" font-size="24.00" fill="#ffffff">when bytes are absent or</text>
<text text-anchor="start" x="945.5" y="-1141.8" font-family="Arial" font-size="24.00" fill="#ffffff">purged.</text>
</g>
<!-- 26&#45;&gt;31 -->
<g id="50" class="edge">
<title>26&#45;&gt;31</title>
<path fill="none" stroke="#444444" stroke-dasharray="5,2" d="M370.2,-806.08C387.82,-821.98 405.65,-837.72 423,-852.5 531.08,-944.59 655.4,-1041.93 759.68,-1121.31"/>
<polygon fill="#444444" stroke="#444444" points="757.71,-1124.21 767.79,-1127.48 761.95,-1118.64 757.71,-1124.21"/>
<polygon fill="white" stroke="transparent" points="423,-1094.5 423,-1193.5 732,-1193.5 732,-1094.5 423,-1094.5"/>
<text text-anchor="start" x="472.5" y="-1170.8" font-family="Arial" font-size="24.00" fill="#444444">3. Writes fetched or</text>
<text text-anchor="start" x="427.5" y="-1146.8" font-family="Arial" font-size="24.00" fill="#444444">assembled blob when gates</text>
<text text-anchor="start" x="550.5" y="-1122.8" font-family="Arial" font-size="24.00" fill="#444444">allow</text>
<text text-anchor="start" x="526.5" y="-1102.8" font-family="Arial" font-size="19.00" fill="#444444">[Filesystem]</text>
</g>
<!-- 3 -->
<g id="3" class="node">
<title>3</title>
<polygon fill="#999999" stroke="#6b6b6b" points="1188.5,-321 785.5,-321 785.5,-56 1188.5,-56 1188.5,-321"/>
<text text-anchor="start" x="825.5" y="-272.8" font-family="Arial" font-size="34.00" fill="#ffffff">Web Sites and Media</text>
<text text-anchor="start" x="933" y="-238.8" font-family="Arial" font-size="34.00" fill="#ffffff">Origins</text>
<text text-anchor="start" x="910" y="-216.8" font-family="Arial" font-size="19.00" fill="#ffffff">[Software System]</text>
<text text-anchor="start" x="877" y="-179.8" font-family="Arial" font-size="24.00" fill="#ffffff">External web pages,</text>
<text text-anchor="start" x="824.5" y="-155.8" font-family="Arial" font-size="24.00" fill="#ffffff">image/video URLs, and media</text>
<text text-anchor="start" x="814.5" y="-131.8" font-family="Arial" font-size="24.00" fill="#ffffff">CDNs that Chrome loads or that</text>
<text text-anchor="start" x="824.5" y="-107.8" font-family="Arial" font-size="24.00" fill="#ffffff">sidecars fetch as page&#45;related</text>
<text text-anchor="start" x="950.5" y="-83.8" font-family="Arial" font-size="24.00" fill="#ffffff">media.</text>
</g>
<!-- 26&#45;&gt;3 -->
<g id="49" class="edge">
<title>26&#45;&gt;3</title>
<path fill="none" stroke="#444444" stroke-dasharray="5,2" d="M349.61,-502.88C372.93,-481.49 397.79,-460.9 423,-443.5 531.54,-368.58 665.65,-306.81 775.74,-262.85"/>
<polygon fill="#444444" stroke="#444444" points="777.31,-265.99 785.31,-259.05 774.72,-259.49 777.31,-265.99"/>
<polygon fill="white" stroke="transparent" points="423.5,-443.5 423.5,-542.5 731.5,-542.5 731.5,-443.5 423.5,-443.5"/>
<text text-anchor="start" x="435" y="-519.8" font-family="Arial" font-size="24.00" fill="#444444">2. Fetches public media or</text>
<text text-anchor="start" x="427.5" y="-495.8" font-family="Arial" font-size="24.00" fill="#444444">HLS assets without Chrome</text>
<text text-anchor="start" x="536.5" y="-471.8" font-family="Arial" font-size="24.00" fill="#444444">cookies</text>
<text text-anchor="start" x="485.5" y="-451.8" font-family="Arial" font-size="19.00" fill="#444444">[HTTP(S), data URLs]</text>
</g>
</g>
</svg>
