<?xml version="1.0" encoding="UTF-8" standalone="no"?>
<!DOCTYPE svg PUBLIC "-//W3C//DTD SVG 1.1//EN"
 "http://www.w3.org/Graphics/SVG/1.1/DTD/svg11.dtd">
<!-- Generated by graphviz version 2.43.0 (0)
 -->
<!-- Title: %3 Pages: 1 -->
<svg width="2191pt" height="1481pt"
 viewBox="0.00 0.00 2191.00 1481.00" xmlns="http://www.w3.org/2000/svg" xmlns:xlink="http://www.w3.org/1999/xlink">
<g id="graph0" class="graph" transform="scale(1 1) rotate(0) translate(4 1477)">
<title>%3</title>
<polygon fill="white" stroke="transparent" points="-4,4 -4,-1477 2187,-1477 2187,4 -4,4"/>
<text text-anchor="start" x="769" y="-11.8" font-family="Arial" font-size="34.00">Container View: Browser Memory Daemon</text>
<g id="clust1" class="cluster">
<title>cluster_4</title>
<polygon fill="none" stroke="#444444" points="8,-64 8,-1465 2175,-1465 2175,-64 8,-64"/>
<text text-anchor="start" x="950.5" y="-92.8" font-family="Arial" font-size="24.00" fill="#444444">Browser Memory Daemon</text>
<text text-anchor="start" x="1014.5" y="-72.8" font-family="Arial" font-size="19.00" fill="#444444">[Software System]</text>
</g>
<!-- 14 -->
<g id="14" class="node">
<title>14</title>
<polygon fill="#438dd5" stroke="#2e6295" points="1364,-994.5 902,-994.5 902,-657.5 1364,-657.5 1364,-994.5"/>
<text text-anchor="start" x="968.5" y="-946.3" font-family="Arial" font-size="34.00" fill="#ffffff">WSL Loopback HTTP</text>
<text text-anchor="start" x="1068.5" y="-912.3" font-family="Arial" font-size="34.00" fill="#ffffff">Daemon</text>
<text text-anchor="start" x="931" y="-890.3" font-family="Arial" font-size="19.00" fill="#ffffff">[Container: Python 3.11, ThreadingHTTPServer]</text>
<text text-anchor="start" x="972" y="-853.3" font-family="Arial" font-size="24.00" fill="#ffffff">Authenticated loopback HTTP</text>
<text text-anchor="start" x="997" y="-829.3" font-family="Arial" font-size="24.00" fill="#ffffff">API that handles capture,</text>
<text text-anchor="start" x="993.5" y="-805.3" font-family="Arial" font-size="24.00" fill="#ffffff">visit events, media artifact</text>
<text text-anchor="start" x="996.5" y="-781.3" font-family="Arial" font-size="24.00" fill="#ffffff">upload/fetch/purge, exact</text>
<text text-anchor="start" x="1093" y="-757.3" font-family="Arial" font-size="24.00" fill="#ffffff">search,</text>
<text text-anchor="start" x="984" y="-733.3" font-family="Arial" font-size="24.00" fill="#ffffff">recent/timeline/detail, policy</text>
<text text-anchor="start" x="1002" y="-709.3" font-family="Arial" font-size="24.00" fill="#ffffff">rules, doctor, forget, and</text>
<text text-anchor="start" x="1043.5" y="-685.3" font-family="Arial" font-size="24.00" fill="#ffffff">static UI serving.</text>
</g>
<!-- 27 -->
<g id="27" class="node">
<title>27</title>
<path fill="#2f95c8" stroke="#20688c" d="M2124,-585.72C2124,-608.98 2045.11,-627.88 1948,-627.88 1850.89,-627.88 1772,-608.98 1772,-585.72 1772,-585.72 1772,-206.28 1772,-206.28 1772,-183.02 1850.89,-164.12 1948,-164.12 2045.11,-164.12 2124,-183.02 2124,-206.28 2124,-206.28 2124,-585.72 2124,-585.72"/>
<path fill="none" stroke="#20688c" d="M2124,-585.72C2124,-562.45 2045.11,-543.56 1948,-543.56 1850.89,-543.56 1772,-562.45 1772,-585.72"/>
<text text-anchor="start" x="1835" y="-516.3" font-family="Arial" font-size="34.00" fill="#ffffff">SQLite + FTS5</text>
<text text-anchor="start" x="1875" y="-482.3" font-family="Arial" font-size="34.00" fill="#ffffff">Database</text>
<text text-anchor="start" x="1822" y="-460.3" font-family="Arial" font-size="19.00" fill="#ffffff">[Container: SQLite with FTS5]</text>
<text text-anchor="start" x="1829" y="-423.3" font-family="Arial" font-size="24.00" fill="#ffffff">Durable relational and</text>
<text text-anchor="start" x="1811.5" y="-399.3" font-family="Arial" font-size="24.00" fill="#ffffff">full&#45;text store for sources,</text>
<text text-anchor="start" x="1827.5" y="-375.3" font-family="Arial" font-size="24.00" fill="#ffffff">documents, visits, visit</text>
<text text-anchor="start" x="1802" y="-351.3" font-family="Arial" font-size="24.00" fill="#ffffff">events, snapshots, chunks,</text>
<text text-anchor="start" x="1801" y="-327.3" font-family="Arial" font-size="24.00" fill="#ffffff">chunks_fts, media artifacts,</text>
<text text-anchor="start" x="1816" y="-303.3" font-family="Arial" font-size="24.00" fill="#ffffff">media fetch tasks, policy</text>
<text text-anchor="start" x="1822.5" y="-279.3" font-family="Arial" font-size="24.00" fill="#ffffff">rules, audit events, and</text>
<text text-anchor="start" x="1856" y="-255.3" font-family="Arial" font-size="24.00" fill="#ffffff">deletion receipts.</text>
</g>
<!-- 14&#45;&gt;27 -->
<g id="43" class="edge">
<title>14&#45;&gt;27</title>
<path fill="none" stroke="#444444" stroke-dasharray="5,2" d="M1364.26,-704.22C1490.43,-637.48 1644.71,-555.88 1762.82,-493.41"/>
<polygon fill="#444444" stroke="#444444" points="1764.77,-496.34 1771.97,-488.57 1761.5,-490.15 1764.77,-496.34"/>
<polygon fill="white" stroke="transparent" points="1400,-674 1400,-773 1710,-773 1710,-674 1400,-674"/>
<text text-anchor="start" x="1404" y="-750.3" font-family="Arial" font-size="24.00" fill="#444444">Reads and writes metadata,</text>
<text text-anchor="start" x="1437" y="-726.3" font-family="Arial" font-size="24.00" fill="#444444">FTS, tasks, audit, and</text>
<text text-anchor="start" x="1499.5" y="-702.3" font-family="Arial" font-size="24.00" fill="#444444">receipts in</text>
<text text-anchor="start" x="1521.5" y="-682.3" font-family="Arial" font-size="19.00" fill="#444444">[sqlite3]</text>
</g>
<!-- 28 -->
<g id="28" class="node">
<title>28</title>
<path fill="#2f95c8" stroke="#20688c" d="M2148.5,-928.78C2148.5,-941.39 2058.63,-951.63 1948,-951.63 1837.37,-951.63 1747.5,-941.39 1747.5,-928.78 1747.5,-928.78 1747.5,-723.22 1747.5,-723.22 1747.5,-710.61 1837.37,-700.37 1948,-700.37 2058.63,-700.37 2148.5,-710.61 2148.5,-723.22 2148.5,-723.22 2148.5,-928.78 2148.5,-928.78"/>
<path fill="none" stroke="#20688c" d="M2148.5,-928.78C2148.5,-916.18 2058.63,-905.94 1948,-905.94 1837.37,-905.94 1747.5,-916.18 1747.5,-928.78"/>
<text text-anchor="start" x="1783.5" y="-869.3" font-family="Arial" font-size="34.00" fill="#ffffff">Clean Text Blob Store</text>
<text text-anchor="start" x="1830.5" y="-847.3" font-family="Arial" font-size="19.00" fill="#ffffff">[Container: WSL filesystem]</text>
<text text-anchor="start" x="1789.5" y="-810.3" font-family="Arial" font-size="24.00" fill="#ffffff">Filesystem store for snapshot</text>
<text text-anchor="start" x="1776.5" y="-786.3" font-family="Arial" font-size="24.00" fill="#ffffff">text blobs under WSL XDG data</text>
<text text-anchor="start" x="1914.5" y="-762.3" font-family="Arial" font-size="24.00" fill="#ffffff">paths.</text>
</g>
<!-- 14&#45;&gt;28 -->
<g id="44" class="edge">
<title>14&#45;&gt;28</title>
<path fill="none" stroke="#444444" stroke-dasharray="5,2" d="M1364.26,-826C1481.5,-826 1622.99,-826 1737.2,-826"/>
<polygon fill="#444444" stroke="#444444" points="1737.46,-829.5 1747.46,-826 1737.46,-822.5 1737.46,-829.5"/>
<polygon fill="white" stroke="transparent" points="1434.5,-826 1434.5,-901 1675.5,-901 1675.5,-826 1434.5,-826"/>
<text text-anchor="start" x="1439" y="-878.3" font-family="Arial" font-size="24.00" fill="#444444">Reads and writes text</text>
<text text-anchor="start" x="1487.5" y="-854.3" font-family="Arial" font-size="24.00" fill="#444444">snapshots in</text>
<text text-anchor="start" x="1504" y="-834.3" font-family="Arial" font-size="19.00" fill="#444444">[Filesystem]</text>
</g>
<!-- 29 -->
<g id="29" class="node">
<title>29</title>
<path fill="#2f95c8" stroke="#20688c" d="M2150,-1402.28C2150,-1423.16 2059.46,-1440.13 1948,-1440.13 1836.54,-1440.13 1746,-1423.16 1746,-1402.28 1746,-1402.28 1746,-1061.72 1746,-1061.72 1746,-1040.84 1836.54,-1023.87 1948,-1023.87 2059.46,-1023.87 2150,-1040.84 2150,-1061.72 2150,-1061.72 2150,-1402.28 2150,-1402.28"/>
<path fill="none" stroke="#20688c" d="M2150,-1402.28C2150,-1381.4 2059.46,-1364.44 1948,-1364.44 1836.54,-1364.44 1746,-1381.4 1746,-1402.28"/>
<text text-anchor="start" x="1809" y="-1335.3" font-family="Arial" font-size="34.00" fill="#ffffff">Media Blob Cache</text>
<text text-anchor="start" x="1830.5" y="-1313.3" font-family="Arial" font-size="19.00" fill="#ffffff">[Container: WSL filesystem]</text>
<text text-anchor="start" x="1814.5" y="-1276.3" font-family="Arial" font-size="24.00" fill="#ffffff">Bounded and disposable</text>
<text text-anchor="start" x="1803.5" y="-1252.3" font-family="Arial" font-size="24.00" fill="#ffffff">filesystem cache for stored</text>
<text text-anchor="start" x="1792.5" y="-1228.3" font-family="Arial" font-size="24.00" fill="#ffffff">image/video/audio blobs with</text>
<text text-anchor="start" x="1780.5" y="-1204.3" font-family="Arial" font-size="24.00" fill="#ffffff">purge/rehydrate semantics that</text>
<text text-anchor="start" x="1791.5" y="-1180.3" font-family="Arial" font-size="24.00" fill="#ffffff">preserve media refs, hashes,</text>
<text text-anchor="start" x="1775" y="-1156.3" font-family="Arial" font-size="24.00" fill="#ffffff">status reasons, and provenance</text>
<text text-anchor="start" x="1811.5" y="-1132.3" font-family="Arial" font-size="24.00" fill="#ffffff">when bytes are absent or</text>
<text text-anchor="start" x="1906.5" y="-1108.3" font-family="Arial" font-size="24.00" fill="#ffffff">purged.</text>
</g>
<!-- 14&#45;&gt;29 -->
<g id="45" class="edge">
<title>14&#45;&gt;29</title>
<path fill="none" stroke="#444444" stroke-dasharray="5,2" d="M1364.19,-909.36C1471.74,-951.55 1600.02,-1006.6 1710,-1067 1718.99,-1071.94 1728.06,-1077.14 1737.13,-1082.53"/>
<polygon fill="#444444" stroke="#444444" points="1735.46,-1085.61 1745.84,-1087.76 1739.07,-1079.61 1735.46,-1085.61"/>
<polygon fill="white" stroke="transparent" points="1401,-1067 1401,-1166 1709,-1166 1709,-1067 1401,-1067"/>
<text text-anchor="start" x="1430" y="-1143.3" font-family="Arial" font-size="24.00" fill="#444444">Stores, serves, purges,</text>
<text text-anchor="start" x="1405" y="-1119.3" font-family="Arial" font-size="24.00" fill="#444444">and rehydrates media blobs</text>
<text text-anchor="start" x="1545.5" y="-1095.3" font-family="Arial" font-size="24.00" fill="#444444">in</text>
<text text-anchor="start" x="1503.5" y="-1075.3" font-family="Arial" font-size="19.00" fill="#444444">[Filesystem]</text>
</g>
<!-- 25 -->
<g id="25" class="node">
<title>25</title>
<polygon fill="#438dd5" stroke="#2e6295" points="546,-508.5 34,-508.5 34,-253.5 546,-253.5 546,-508.5"/>
<text text-anchor="start" x="187.5" y="-460.3" font-family="Arial" font-size="34.00" fill="#ffffff">Local Web UI</text>
<text text-anchor="start" x="63" y="-438.3" font-family="Arial" font-size="19.00" fill="#ffffff">[Container: HTML/CSS/JavaScript served by daemon]</text>
<text text-anchor="start" x="148" y="-401.3" font-family="Arial" font-size="24.00" fill="#ffffff">Static browser UI for exact</text>
<text text-anchor="start" x="131" y="-377.3" font-family="Arial" font-size="24.00" fill="#ffffff">search, recent/timeline views,</text>
<text text-anchor="start" x="148.5" y="-353.3" font-family="Arial" font-size="24.00" fill="#ffffff">document/snapshot detail,</text>
<text text-anchor="start" x="133" y="-329.3" font-family="Arial" font-size="24.00" fill="#ffffff">media artifact opening, policy</text>
<text text-anchor="start" x="196.5" y="-305.3" font-family="Arial" font-size="24.00" fill="#ffffff">rules, doctor, and</text>
<text text-anchor="start" x="151.5" y="-281.3" font-family="Arial" font-size="24.00" fill="#ffffff">forget&#45;domain operations.</text>
</g>
<!-- 25&#45;&gt;14 -->
<g id="39" class="edge">
<title>25&#45;&gt;14</title>
<path fill="none" stroke="#444444" stroke-dasharray="5,2" d="M532,-508.52C645.18,-568.41 779.72,-639.6 892.69,-699.37"/>
<polygon fill="#444444" stroke="#444444" points="891.35,-702.62 901.82,-704.21 894.62,-696.43 891.35,-702.62"/>
<polygon fill="white" stroke="transparent" points="586,-682 586,-781 863,-781 863,-682 586,-682"/>
<text text-anchor="start" x="591" y="-758.3" font-family="Arial" font-size="24.00" fill="#444444">Calls authenticated read,</text>
<text text-anchor="start" x="590.5" y="-734.3" font-family="Arial" font-size="24.00" fill="#444444">admin, media, and forget</text>
<text text-anchor="start" x="682.5" y="-710.3" font-family="Arial" font-size="24.00" fill="#444444">APIs on</text>
<text text-anchor="start" x="667" y="-690.3" font-family="Arial" font-size="19.00" fill="#444444">[HTTP/JSON]</text>
</g>
<!-- 26 -->
<g id="26" class="node">
<title>26</title>
<polygon fill="#438dd5" stroke="#2e6295" points="547,-953.5 33,-953.5 33,-698.5 547,-698.5 547,-953.5"/>
<text text-anchor="start" x="263" y="-905.3" font-family="Arial" font-size="34.00" fill="#ffffff">CLI</text>
<text text-anchor="start" x="169" y="-883.3" font-family="Arial" font-size="19.00" fill="#ffffff">[Container: Python argparse]</text>
<text text-anchor="start" x="143.5" y="-846.3" font-family="Arial" font-size="24.00" fill="#ffffff">Command&#45;line interface for</text>
<text text-anchor="start" x="180" y="-822.3" font-family="Arial" font-size="24.00" fill="#ffffff">serving the daemon,</text>
<text text-anchor="start" x="62" y="-798.3" font-family="Arial" font-size="24.00" fill="#ffffff">health/doctor/search/recent/timeline/detail,</text>
<text text-anchor="start" x="177" y="-774.3" font-family="Arial" font-size="24.00" fill="#ffffff">policy/forget, capture</text>
<text text-anchor="start" x="145" y="-750.3" font-family="Arial" font-size="24.00" fill="#ffffff">fixtures, media worker, and</text>
<text text-anchor="start" x="157.5" y="-726.3" font-family="Arial" font-size="24.00" fill="#ffffff">media cache operations.</text>
</g>
<!-- 26&#45;&gt;14 -->
<g id="40" class="edge">
<title>26&#45;&gt;14</title>
<path fill="none" stroke="#444444" stroke-dasharray="5,2" d="M547.04,-826C656.69,-826 784.04,-826 891.87,-826"/>
<polygon fill="#444444" stroke="#444444" points="891.91,-829.5 901.91,-826 891.91,-822.5 891.91,-829.5"/>
<polygon fill="white" stroke="transparent" points="583,-826 583,-925 866,-925 866,-826 583,-826"/>
<text text-anchor="start" x="587.5" y="-902.3" font-family="Arial" font-size="24.00" fill="#444444">Calls health, read, admin,</text>
<text text-anchor="start" x="620" y="-878.3" font-family="Arial" font-size="24.00" fill="#444444">capture&#45;fixture, and</text>
<text text-anchor="start" x="649" y="-854.3" font-family="Arial" font-size="24.00" fill="#444444">forget APIs on</text>
<text text-anchor="start" x="667" y="-834.3" font-family="Arial" font-size="19.00" fill="#444444">[HTTP/JSON]</text>
</g>
<!-- 26&#45;&gt;27 -->
<g id="41" class="edge">
<title>26&#45;&gt;27</title>
<path fill="none" stroke="#444444" stroke-dasharray="5,2" d="M503.16,-698.46C617.46,-635.59 763.18,-564.52 902,-523 1194.22,-435.59 1549.55,-408.17 1761.52,-399.68"/>
<polygon fill="#444444" stroke="#444444" points="1761.96,-403.16 1771.82,-399.28 1761.69,-396.17 1761.96,-403.16"/>
<polygon fill="white" stroke="transparent" points="996.5,-523 996.5,-622 1269.5,-622 1269.5,-523 996.5,-523"/>
<text text-anchor="start" x="1004.5" y="-599.3" font-family="Arial" font-size="24.00" fill="#444444">Runs media&#45;worker and</text>
<text text-anchor="start" x="1001" y="-575.3" font-family="Arial" font-size="24.00" fill="#444444">media&#45;cache commands</text>
<text text-anchor="start" x="1094" y="-551.3" font-family="Arial" font-size="24.00" fill="#444444">against</text>
<text text-anchor="start" x="1100" y="-531.3" font-family="Arial" font-size="19.00" fill="#444444">[sqlite3]</text>
</g>
<!-- 26&#45;&gt;29 -->
<g id="42" class="edge">
<title>26&#45;&gt;29</title>
<path fill="none" stroke="#444444" stroke-dasharray="5,2" d="M547.24,-930.32C559.29,-934.7 571.25,-938.95 583,-943 940.47,-1066.13 1028.62,-1109.13 1400,-1180 1509.84,-1200.96 1633.78,-1213.63 1735.87,-1221.2"/>
<polygon fill="#444444" stroke="#444444" points="1735.77,-1224.7 1746,-1221.94 1736.28,-1217.72 1735.77,-1224.7"/>
<polygon fill="white" stroke="transparent" points="1006,-1173 1006,-1248 1260,-1248 1260,-1173 1006,-1173"/>
<text text-anchor="start" x="1010" y="-1225.3" font-family="Arial" font-size="24.00" fill="#444444">Purges and rehydrates</text>
<text text-anchor="start" x="1023" y="-1201.3" font-family="Arial" font-size="24.00" fill="#444444">media blobs through</text>
<text text-anchor="start" x="1081.5" y="-1181.3" font-family="Arial" font-size="19.00" fill="#444444">[Filesystem]</text>
</g>
</g>
</svg>
