<?xml version="1.0" encoding="UTF-8" standalone="no"?>
<!DOCTYPE svg PUBLIC "-//W3C//DTD SVG 1.1//EN"
 "http://www.w3.org/Graphics/SVG/1.1/DTD/svg11.dtd">
<!-- Generated by graphviz version 2.43.0 (0)
 -->
<!-- Title: %3 Pages: 1 -->
<svg width="1562pt" height="1744pt"
 viewBox="0.00 0.00 1562.00 1743.75" xmlns="http://www.w3.org/2000/svg" xmlns:xlink="http://www.w3.org/1999/xlink">
<g id="graph0" class="graph" transform="scale(1 1) rotate(0) translate(4 1739.75)">
<title>%3</title>
<polygon fill="white" stroke="transparent" points="-4,4 -4,-1739.75 1558,-1739.75 1558,4 -4,4"/>
<text text-anchor="start" x="454.5" y="-11.8" font-family="Arial" font-size="34.00">Container View: Browser Memory Daemon</text>
<g id="clust1" class="cluster">
<title>cluster_4</title>
<polygon fill="none" stroke="#444444" points="8,-64 8,-1727.75 1045,-1727.75 1045,-64 8,-64"/>
<text text-anchor="start" x="385.5" y="-92.8" font-family="Arial" font-size="24.00" fill="#444444">Browser Memory Daemon</text>
<text text-anchor="start" x="449.5" y="-72.8" font-family="Arial" font-size="19.00" fill="#444444">[Software System]</text>
</g>
<!-- 2 -->
<g id="2" class="node">
<title>2</title>
<polygon fill="#999999" stroke="#6b6b6b" points="1478,-1162.06 1092,-1162.06 1092,-931.06 1478,-931.06 1478,-1162.06"/>
<text text-anchor="start" x="1150.5" y="-1113.86" font-family="Arial" font-size="34.00" fill="#ffffff">Windows Chrome</text>
<text text-anchor="start" x="1208" y="-1091.86" font-family="Arial" font-size="19.00" fill="#ffffff">[Software System]</text>
<text text-anchor="start" x="1121" y="-1054.86" font-family="Arial" font-size="24.00" fill="#ffffff">The Windows Chrome runtime</text>
<text text-anchor="start" x="1134.5" y="-1030.86" font-family="Arial" font-size="24.00" fill="#ffffff">that loads web pages, hosts</text>
<text text-anchor="start" x="1134" y="-1006.86" font-family="Arial" font-size="24.00" fill="#ffffff">the MV3 extension, runs the</text>
<text text-anchor="start" x="1126" y="-982.86" font-family="Arial" font-size="24.00" fill="#ffffff">local UI in a tab, and exposes</text>
<text text-anchor="start" x="1155.5" y="-958.86" font-family="Arial" font-size="24.00" fill="#ffffff">Chrome extension APIs.</text>
</g>
<!-- 13 -->
<g id="13" class="node">
<title>13</title>
<path fill="#2f95c8" stroke="#20688c" d="M485.5,-1195.78C485.5,-1214.08 383.98,-1228.94 259,-1228.94 134.02,-1228.94 32.5,-1214.08 32.5,-1195.78 32.5,-1195.78 32.5,-897.35 32.5,-897.35 32.5,-879.05 134.02,-864.19 259,-864.19 383.98,-864.19 485.5,-879.05 485.5,-897.35 485.5,-897.35 485.5,-1195.78 485.5,-1195.78"/>
<path fill="none" stroke="#20688c" d="M485.5,-1195.78C485.5,-1177.48 383.98,-1162.62 259,-1162.62 134.02,-1162.62 32.5,-1177.48 32.5,-1195.78"/>
<text text-anchor="start" x="117" y="-1130.86" font-family="Arial" font-size="34.00" fill="#ffffff">Extension Browser</text>
<text text-anchor="start" x="199.5" y="-1096.86" font-family="Arial" font-size="34.00" fill="#ffffff">Storage</text>
<text text-anchor="start" x="61.5" y="-1074.86" font-family="Arial" font-size="19.00" fill="#ffffff">[Container: chrome.storage.local + IndexedDB]</text>
<text text-anchor="start" x="126.5" y="-1037.86" font-family="Arial" font-size="24.00" fill="#ffffff">Browser&#45;side storage for</text>
<text text-anchor="start" x="114.5" y="-1013.86" font-family="Arial" font-size="24.00" fill="#ffffff">capture and visit queues in</text>
<text text-anchor="start" x="120.5" y="-989.86" font-family="Arial" font-size="24.00" fill="#ffffff">chrome.storage.local plus</text>
<text text-anchor="start" x="126.5" y="-965.86" font-family="Arial" font-size="24.00" fill="#ffffff">durable media tasks and</text>
<text text-anchor="start" x="107.5" y="-941.86" font-family="Arial" font-size="24.00" fill="#ffffff">fetched blobs in IndexedDB.</text>
</g>
<!-- 14 -->
<g id="14" class="node">
<title>14</title>
<polygon fill="#438dd5" stroke="#2e6295" points="1020,-1215.06 558,-1215.06 558,-878.06 1020,-878.06 1020,-1215.06"/>
<text text-anchor="start" x="624.5" y="-1166.86" font-family="Arial" font-size="34.00" fill="#ffffff">WSL Loopback HTTP</text>
<text text-anchor="start" x="724.5" y="-1132.86" font-family="Arial" font-size="34.00" fill="#ffffff">Daemon</text>
<text text-anchor="start" x="587" y="-1110.86" font-family="Arial" font-size="19.00" fill="#ffffff">[Container: Python 3.11, ThreadingHTTPServer]</text>
<text text-anchor="start" x="628" y="-1073.86" font-family="Arial" font-size="24.00" fill="#ffffff">Authenticated loopback HTTP</text>
<text text-anchor="start" x="653" y="-1049.86" font-family="Arial" font-size="24.00" fill="#ffffff">API that handles capture,</text>
<text text-anchor="start" x="649.5" y="-1025.86" font-family="Arial" font-size="24.00" fill="#ffffff">visit events, media artifact</text>
<text text-anchor="start" x="652.5" y="-1001.86" font-family="Arial" font-size="24.00" fill="#ffffff">upload/fetch/purge, exact</text>
<text text-anchor="start" x="749" y="-977.86" font-family="Arial" font-size="24.00" fill="#ffffff">search,</text>
<text text-anchor="start" x="640" y="-953.86" font-family="Arial" font-size="24.00" fill="#ffffff">recent/timeline/detail, policy</text>
<text text-anchor="start" x="658" y="-929.86" font-family="Arial" font-size="24.00" fill="#ffffff">rules, doctor, forget, and</text>
<text text-anchor="start" x="699.5" y="-905.86" font-family="Arial" font-size="24.00" fill="#ffffff">static UI serving.</text>
</g>
<!-- 29 -->
<g id="29" class="node">
<title>29</title>
<path fill="#2f95c8" stroke="#20688c" d="M517,-645.4C517,-671.98 428.25,-693.56 319,-693.56 209.75,-693.56 121,-671.98 121,-645.4 121,-645.4 121,-211.97 121,-211.97 121,-185.4 209.75,-163.81 319,-163.81 428.25,-163.81 517,-185.4 517,-211.97 517,-211.97 517,-645.4 517,-645.4"/>
<path fill="none" stroke="#20688c" d="M517,-645.4C517,-618.83 428.25,-597.24 319,-597.24 209.75,-597.24 121,-618.83 121,-645.4"/>
<text text-anchor="start" x="206" y="-572.99" font-family="Arial" font-size="34.00" fill="#ffffff">SQLite + FTS5</text>
<text text-anchor="start" x="246" y="-538.99" font-family="Arial" font-size="34.00" fill="#ffffff">Database</text>
<text text-anchor="start" x="193" y="-516.99" font-family="Arial" font-size="19.00" fill="#ffffff">[Container: SQLite with FTS5]</text>
<text text-anchor="start" x="151" y="-479.99" font-family="Arial" font-size="24.00" fill="#ffffff">Durable complete cleaned&#45;text,</text>
<text text-anchor="start" x="200" y="-455.99" font-family="Arial" font-size="24.00" fill="#ffffff">relational, and full&#45;text</text>
<text text-anchor="start" x="201.5" y="-431.99" font-family="Arial" font-size="24.00" fill="#ffffff">authority for migration</text>
<text text-anchor="start" x="167" y="-407.99" font-family="Arial" font-size="24.00" fill="#ffffff">ledger, sources, documents,</text>
<text text-anchor="start" x="169.5" y="-383.99" font-family="Arial" font-size="24.00" fill="#ffffff">visits, capture observations,</text>
<text text-anchor="start" x="188" y="-359.99" font-family="Arial" font-size="24.00" fill="#ffffff">URL claims, visit events,</text>
<text text-anchor="start" x="150.5" y="-335.99" font-family="Arial" font-size="24.00" fill="#ffffff">snapshots, chunks, chunks_fts,</text>
<text text-anchor="start" x="150" y="-311.99" font-family="Arial" font-size="24.00" fill="#ffffff">media provenance/tasks, policy</text>
<text text-anchor="start" x="193.5" y="-287.99" font-family="Arial" font-size="24.00" fill="#ffffff">rules, audit events, and</text>
<text text-anchor="start" x="227" y="-263.99" font-family="Arial" font-size="24.00" fill="#ffffff">deletion receipts.</text>
</g>
<!-- 14&#45;&gt;29 -->
<g id="47" class="edge">
<title>14&#45;&gt;29</title>
<path fill="none" stroke="#444444" stroke-dasharray="5,2" d="M557.89,-888.02C545.46,-879.96 533.1,-872.03 521,-864.38 494.39,-847.55 480.01,-852.68 460,-828.38 429.66,-791.52 405.63,-747.67 386.67,-702.75"/>
<polygon fill="#444444" stroke="#444444" points="389.89,-701.36 382.83,-693.45 383.42,-704.03 389.89,-701.36"/>
<polygon fill="white" stroke="transparent" points="460,-729.38 460,-828.38 770,-828.38 770,-729.38 460,-729.38"/>
<text text-anchor="start" x="464" y="-805.67" font-family="Arial" font-size="24.00" fill="#444444">Reads and writes metadata,</text>
<text text-anchor="start" x="497" y="-781.67" font-family="Arial" font-size="24.00" fill="#444444">FTS, tasks, audit, and</text>
<text text-anchor="start" x="559.5" y="-757.67" font-family="Arial" font-size="24.00" fill="#444444">receipts in</text>
<text text-anchor="start" x="581.5" y="-737.67" font-family="Arial" font-size="19.00" fill="#444444">[sqlite3]</text>
</g>
<!-- 30 -->
<g id="30" class="node">
<title>30</title>
<path fill="#2f95c8" stroke="#20688c" d="M984.5,-577.9C984.5,-596.2 895.98,-611.06 787,-611.06 678.02,-611.06 589.5,-596.2 589.5,-577.9 589.5,-577.9 589.5,-279.47 589.5,-279.47 589.5,-261.17 678.02,-246.31 787,-246.31 895.98,-246.31 984.5,-261.17 984.5,-279.47 984.5,-279.47 984.5,-577.9 984.5,-577.9"/>
<path fill="none" stroke="#20688c" d="M984.5,-577.9C984.5,-559.61 895.98,-544.74 787,-544.74 678.02,-544.74 589.5,-559.61 589.5,-577.9"/>
<text text-anchor="start" x="665.5" y="-512.99" font-family="Arial" font-size="34.00" fill="#ffffff">Local Derivative</text>
<text text-anchor="start" x="746" y="-478.99" font-family="Arial" font-size="34.00" fill="#ffffff">Store</text>
<text text-anchor="start" x="647" y="-456.99" font-family="Arial" font-size="19.00" fill="#ffffff">[Container: WSL local filesystem]</text>
<text text-anchor="start" x="633.5" y="-419.99" font-family="Arial" font-size="24.00" fill="#ffffff">Reconstructible compatibility</text>
<text text-anchor="start" x="618.5" y="-395.99" font-family="Arial" font-size="24.00" fill="#ffffff">evidence such as pre&#45;version&#45;9</text>
<text text-anchor="start" x="657" y="-371.99" font-family="Arial" font-size="24.00" fill="#ffffff">clean&#45;text sidecars; new</text>
<text text-anchor="start" x="663.5" y="-347.99" font-family="Arial" font-size="24.00" fill="#ffffff">captures create no text</text>
<text text-anchor="start" x="738.5" y="-323.99" font-family="Arial" font-size="24.00" fill="#ffffff">sidecars.</text>
</g>
<!-- 14&#45;&gt;30 -->
<g id="48" class="edge">
<title>14&#45;&gt;30</title>
<path fill="none" stroke="#444444" stroke-dasharray="5,2" d="M788.45,-877.68C788.2,-798.35 787.89,-703.28 787.62,-621.16"/>
<polygon fill="#444444" stroke="#444444" points="791.12,-620.94 787.59,-610.95 784.12,-620.96 791.12,-620.94"/>
<polygon fill="white" stroke="transparent" points="789,-729.38 789,-828.38 1057,-828.38 1057,-729.38 789,-729.38"/>
<text text-anchor="start" x="793" y="-805.67" font-family="Arial" font-size="24.00" fill="#444444">Reads or deletes legacy</text>
<text text-anchor="start" x="822.5" y="-781.67" font-family="Arial" font-size="24.00" fill="#444444">text sidecars when</text>
<text text-anchor="start" x="878" y="-757.67" font-family="Arial" font-size="24.00" fill="#444444">required</text>
<text text-anchor="start" x="871.5" y="-737.67" font-family="Arial" font-size="19.00" fill="#444444">[Filesystem]</text>
</g>
<!-- 5 -->
<g id="5" class="node">
<title>5</title>
<polygon fill="#438dd5" stroke="#2e6295" points="742,-1702.75 308,-1702.75 308,-1423.75 742,-1423.75 742,-1702.75"/>
<text text-anchor="start" x="345" y="-1654.55" font-family="Arial" font-size="34.00" fill="#ffffff">Chrome MV3 Extension</text>
<text text-anchor="start" x="337" y="-1632.55" font-family="Arial" font-size="19.00" fill="#ffffff">[Container: JavaScript, Chrome Manifest V3]</text>
<text text-anchor="start" x="382" y="-1595.55" font-family="Arial" font-size="24.00" fill="#ffffff">Captures visible page text,</text>
<text text-anchor="start" x="407.5" y="-1571.55" font-family="Arial" font-size="24.00" fill="#ffffff">media references, tab</text>
<text text-anchor="start" x="416" y="-1547.55" font-family="Arial" font-size="24.00" fill="#ffffff">lifecycle events, and</text>
<text text-anchor="start" x="359" y="-1523.55" font-family="Arial" font-size="24.00" fill="#ffffff">browser&#45;side media bytes from</text>
<text text-anchor="start" x="354" y="-1499.55" font-family="Arial" font-size="24.00" fill="#ffffff">Windows Chrome; queues work</text>
<text text-anchor="start" x="366" y="-1475.55" font-family="Arial" font-size="24.00" fill="#ffffff">durably and posts to the WSL</text>
<text text-anchor="start" x="477.5" y="-1451.55" font-family="Arial" font-size="24.00" fill="#ffffff">daemon.</text>
</g>
<!-- 5&#45;&gt;2 -->
<g id="38" class="edge">
<title>5&#45;&gt;2</title>
<path fill="none" stroke="#444444" stroke-dasharray="5,2" d="M742.14,-1528.56C909.52,-1498.39 1122.75,-1449.43 1186,-1387.75 1243.41,-1331.76 1268.02,-1244.58 1278.35,-1172.49"/>
<polygon fill="#444444" stroke="#444444" points="1281.84,-1172.8 1279.72,-1162.42 1274.91,-1171.86 1281.84,-1172.8"/>
<polygon fill="white" stroke="transparent" points="1257,-1276.75 1257,-1375.75 1554,-1375.75 1554,-1276.75 1257,-1276.75"/>
<text text-anchor="start" x="1303" y="-1353.05" font-family="Arial" font-size="24.00" fill="#444444">Uses tab, scripting,</text>
<text text-anchor="start" x="1261.5" y="-1329.05" font-family="Arial" font-size="24.00" fill="#444444">storage, alarms, debugger,</text>
<text text-anchor="start" x="1286" y="-1305.05" font-family="Arial" font-size="24.00" fill="#444444">and runtime APIs from</text>
<text text-anchor="start" x="1301" y="-1285.05" font-family="Arial" font-size="19.00" fill="#444444">[Chrome extension APIs]</text>
</g>
<!-- 5&#45;&gt;13 -->
<g id="40" class="edge">
<title>5&#45;&gt;13</title>
<path fill="none" stroke="#444444" stroke-dasharray="5,2" d="M313.7,-1423.47C304.4,-1412.22 296.04,-1400.31 289,-1387.75 263.99,-1343.15 252.43,-1289.98 248.09,-1239.09"/>
<polygon fill="#444444" stroke="#444444" points="251.57,-1238.65 247.32,-1228.95 244.59,-1239.18 251.57,-1238.65"/>
<polygon fill="white" stroke="transparent" points="289,-1264.75 289,-1387.75 600,-1387.75 600,-1264.75 289,-1264.75"/>
<text text-anchor="start" x="302.5" y="-1365.05" font-family="Arial" font-size="24.00" fill="#444444">Queues identity&#45;decorated</text>
<text text-anchor="start" x="348.5" y="-1341.05" font-family="Arial" font-size="24.00" fill="#444444">captures, lifecycle</text>
<text text-anchor="start" x="311" y="-1317.05" font-family="Arial" font-size="24.00" fill="#444444">events, media tasks, and</text>
<text text-anchor="start" x="403" y="-1293.05" font-family="Arial" font-size="24.00" fill="#444444">blobs in</text>
<text text-anchor="start" x="293.5" y="-1273.05" font-family="Arial" font-size="19.00" fill="#444444">[chrome.storage.local + IndexedDB]</text>
</g>
<!-- 5&#45;&gt;14 -->
<g id="41" class="edge">
<title>5&#45;&gt;14</title>
<path fill="none" stroke="#444444" stroke-dasharray="5,2" d="M596.09,-1423.65C627.53,-1362.37 664.86,-1289.58 698.27,-1224.44"/>
<polygon fill="#444444" stroke="#444444" points="701.51,-1225.8 702.96,-1215.3 695.28,-1222.6 701.51,-1225.8"/>
<polygon fill="white" stroke="transparent" points="673,-1264.75 673,-1387.75 1168,-1387.75 1168,-1264.75 673,-1264.75"/>
<text text-anchor="start" x="840" y="-1365.05" font-family="Arial" font-size="24.00" fill="#444444">Posts /capture,</text>
<text text-anchor="start" x="817" y="-1341.05" font-family="Arial" font-size="24.00" fill="#444444">/visit&#45;events, media</text>
<text text-anchor="start" x="794" y="-1317.05" font-family="Arial" font-size="24.00" fill="#444444">metadata, and raw blob</text>
<text text-anchor="start" x="865" y="-1293.05" font-family="Arial" font-size="24.00" fill="#444444">uploads to</text>
<text text-anchor="start" x="677.5" y="-1273.05" font-family="Arial" font-size="19.00" fill="#444444">[Bearer HTTP/JSON; raw HTTP PUT over 127.0.0.1:8765]</text>
</g>
</g>
</svg>
