<?xml version="1.0" encoding="UTF-8" standalone="no"?>
<!DOCTYPE svg PUBLIC "-//W3C//DTD SVG 1.1//EN"
 "http://www.w3.org/Graphics/SVG/1.1/DTD/svg11.dtd">
<!-- Generated by graphviz version 2.43.0 (0)
 -->
<!-- Title: %3 Pages: 1 -->
<svg width="3124pt" height="2312pt"
 viewBox="0.00 0.00 3124.00 2312.00" xmlns="http://www.w3.org/2000/svg" xmlns:xlink="http://www.w3.org/1999/xlink">
<g id="graph0" class="graph" transform="scale(1 1) rotate(0) translate(4 2308)">
<title>%3</title>
<polygon fill="white" stroke="transparent" points="-4,4 -4,-2308 3120,-2308 3120,4 -4,4"/>
<text text-anchor="start" x="973" y="-11.8" font-family="Arial" font-size="34.00">Component View: Browser Memory Daemon &#45; WSL Loopback HTTP Daemon</text>
<g id="clust1" class="cluster">
<title>cluster_4</title>
<polygon fill="none" stroke="#444444" points="8,-64 8,-2296 3108,-2296 3108,-64 8,-64"/>
<text text-anchor="start" x="1417" y="-92.8" font-family="Arial" font-size="24.00" fill="#444444">Browser Memory Daemon</text>
<text text-anchor="start" x="1481" y="-72.8" font-family="Arial" font-size="19.00" fill="#444444">[Software System]</text>
</g>
<g id="clust2" class="cluster">
<title>cluster_22</title>
<polygon fill="none" stroke="#444444" points="33,-164 33,-641 2317,-641 2317,-164 33,-164"/>
<text text-anchor="start" x="1009.5" y="-192.8" font-family="Arial" font-size="24.00" fill="#444444">WSL Loopback HTTP Daemon</text>
<text text-anchor="start" x="973" y="-172.8" font-family="Arial" font-size="19.00" fill="#444444">[Container: Python 3.11, ThreadingHTTPServer]</text>
</g>
<!-- 23 -->
<g id="23" class="node">
<title>23</title>
<polygon fill="#85bbf0" stroke="#1168bd" points="552,-615.5 58,-615.5 58,-264.5 552,-264.5 552,-615.5"/>
<text text-anchor="start" x="136.5" y="-567.3" font-family="Arial" font-size="34.00" fill="#000000">HTTP Request Router</text>
<text text-anchor="start" x="87" y="-545.3" font-family="Arial" font-size="19.00" fill="#000000">[Component: Python http.server + route descriptors]</text>
<text text-anchor="start" x="129" y="-508.3" font-family="Arial" font-size="24.00" fill="#000000">Matches immutable method/path</text>
<text text-anchor="start" x="189" y="-484.3" font-family="Arial" font-size="24.00" fill="#000000">descriptors with static</text>
<text text-anchor="start" x="172" y="-460.3" font-family="Arial" font-size="24.00" fill="#000000">precedence, maps typed</text>
<text text-anchor="start" x="169.5" y="-436.3" font-family="Arial" font-size="24.00" fill="#000000">compatible errors without</text>
<text text-anchor="start" x="181.5" y="-412.3" font-family="Arial" font-size="24.00" fill="#000000">leaking internal details,</text>
<text text-anchor="start" x="144" y="-388.3" font-family="Arial" font-size="24.00" fill="#000000">routes loopback API requests,</text>
<text text-anchor="start" x="162" y="-364.3" font-family="Arial" font-size="24.00" fill="#000000">serves UI assets, enforces</text>
<text text-anchor="start" x="141" y="-340.3" font-family="Arial" font-size="24.00" fill="#000000">bearer auth for memory/admin</text>
<text text-anchor="start" x="155.5" y="-316.3" font-family="Arial" font-size="24.00" fill="#000000">APIs, and applies CORS for</text>
<text text-anchor="start" x="221.5" y="-292.3" font-family="Arial" font-size="24.00" fill="#000000">allowed origins.</text>
</g>
<!-- 42 -->
<g id="42" class="node">
<title>42</title>
<polygon fill="#85bbf0" stroke="#1168bd" points="1277,-615.5 888,-615.5 888,-336.5 1277,-336.5 1277,-615.5"/>
<text text-anchor="start" x="920.5" y="-567.3" font-family="Arial" font-size="34.00" fill="#000000">Ops Doctor and Audit</text>
<text text-anchor="start" x="954.5" y="-545.3" font-family="Arial" font-size="19.00" fill="#000000">[Component: Python + sqlite3]</text>
<text text-anchor="start" x="932" y="-508.3" font-family="Arial" font-size="24.00" fill="#000000">Reports health, DB integrity,</text>
<text text-anchor="start" x="964" y="-484.3" font-family="Arial" font-size="24.00" fill="#000000">FTS consistency, blob</text>
<text text-anchor="start" x="947" y="-460.3" font-family="Arial" font-size="24.00" fill="#000000">lifecycle/pending deletion</text>
<text text-anchor="start" x="928.5" y="-436.3" font-family="Arial" font-size="24.00" fill="#000000">state, runtime paths, storage</text>
<text text-anchor="start" x="930.5" y="-412.3" font-family="Arial" font-size="24.00" fill="#000000">counts, media queue status,</text>
<text text-anchor="start" x="917" y="-388.3" font-family="Arial" font-size="24.00" fill="#000000">and writes metadata&#45;only audit</text>
<text text-anchor="start" x="989.5" y="-364.3" font-family="Arial" font-size="24.00" fill="#000000">events to SQLite.</text>
</g>
<!-- 23&#45;&gt;42 -->
<g id="122" class="edge">
<title>23&#45;&gt;42</title>
<path fill="none" stroke="#444444" stroke-dasharray="5,2" d="M552.17,-451.43C657.02,-456.3 777.89,-461.91 877.63,-466.54"/>
<polygon fill="#444444" stroke="#444444" points="877.67,-470.04 887.83,-467.01 878,-463.05 877.67,-470.04"/>
<polygon fill="white" stroke="transparent" points="588,-464 588,-524 852,-524 852,-464 588,-464"/>
<text text-anchor="start" x="592" y="-500.8" font-family="Arial" font-size="24.00" fill="#444444">Routes health and audit</text>
<text text-anchor="start" x="680.5" y="-474.8" font-family="Arial" font-size="24.00" fill="#444444">work to</text>
</g>
<!-- 39 -->
<g id="39" class="node">
<title>39</title>
<polygon fill="#85bbf0" stroke="#1168bd" points="2292,-577.5 1659,-577.5 1659,-264.5 2292,-264.5 2292,-577.5"/>
<text text-anchor="start" x="1837" y="-529.3" font-family="Arial" font-size="34.00" fill="#000000">Blob Lifecycle and</text>
<text text-anchor="start" x="1831" y="-495.3" font-family="Arial" font-size="34.00" fill="#000000">Storage Reconciler</text>
<text text-anchor="start" x="1794" y="-473.3" font-family="Arial" font-size="19.00" fill="#000000">[Component: Python + sqlite3 + filesystem]</text>
<text text-anchor="start" x="1932.5" y="-436.3" font-family="Arial" font-size="24.00" fill="#000000">Persists</text>
<text text-anchor="start" x="1688" y="-412.3" font-family="Arial" font-size="24.00" fill="#000000">committed/tombstoned/missing/deleted/blocked/failed</text>
<text text-anchor="start" x="1865.5" y="-388.3" font-family="Arial" font-size="24.00" fill="#000000">blob state; serializes</text>
<text text-anchor="start" x="1829.5" y="-364.3" font-family="Arial" font-size="24.00" fill="#000000">deletion processors; retries</text>
<text text-anchor="start" x="1843.5" y="-340.3" font-family="Arial" font-size="24.00" fill="#000000">tombstones; and dry&#45;run</text>
<text text-anchor="start" x="1827" y="-316.3" font-family="Arial" font-size="24.00" fill="#000000">detects missing refs, in&#45;root</text>
<text text-anchor="start" x="1833" y="-292.3" font-family="Arial" font-size="24.00" fill="#000000">orphans, and stale stages.</text>
</g>
<!-- 47 -->
<g id="47" class="node">
<title>47</title>
<path fill="#2f95c8" stroke="#20688c" d="M3083,-857.22C3083,-885.44 2994.48,-908.38 2885.5,-908.38 2776.52,-908.38 2688,-885.44 2688,-857.22 2688,-857.22 2688,-396.78 2688,-396.78 2688,-368.56 2776.52,-345.62 2885.5,-345.62 2994.48,-345.62 3083,-368.56 3083,-396.78 3083,-396.78 3083,-857.22 3083,-857.22"/>
<path fill="none" stroke="#20688c" d="M3083,-857.22C3083,-828.99 2994.48,-806.06 2885.5,-806.06 2776.52,-806.06 2688,-828.99 2688,-857.22"/>
<text text-anchor="start" x="2772.5" y="-783.3" font-family="Arial" font-size="34.00" fill="#ffffff">SQLite + FTS5</text>
<text text-anchor="start" x="2812.5" y="-749.3" font-family="Arial" font-size="34.00" fill="#ffffff">Database</text>
<text text-anchor="start" x="2759.5" y="-727.3" font-family="Arial" font-size="19.00" fill="#ffffff">[Container: SQLite with FTS5]</text>
<text text-anchor="start" x="2717.5" y="-690.3" font-family="Arial" font-size="24.00" fill="#ffffff">Durable complete cleaned&#45;text,</text>
<text text-anchor="start" x="2766.5" y="-666.3" font-family="Arial" font-size="24.00" fill="#ffffff">relational, and full&#45;text</text>
<text text-anchor="start" x="2768" y="-642.3" font-family="Arial" font-size="24.00" fill="#ffffff">authority for migration</text>
<text text-anchor="start" x="2733.5" y="-618.3" font-family="Arial" font-size="24.00" fill="#ffffff">ledger, sources, documents,</text>
<text text-anchor="start" x="2736" y="-594.3" font-family="Arial" font-size="24.00" fill="#ffffff">visits, capture observations,</text>
<text text-anchor="start" x="2754.5" y="-570.3" font-family="Arial" font-size="24.00" fill="#ffffff">URL claims, visit events,</text>
<text text-anchor="start" x="2717" y="-546.3" font-family="Arial" font-size="24.00" fill="#ffffff">snapshots, chunks, chunks_fts,</text>
<text text-anchor="start" x="2724.5" y="-522.3" font-family="Arial" font-size="24.00" fill="#ffffff">media provenance/tasks, blob</text>
<text text-anchor="start" x="2761" y="-498.3" font-family="Arial" font-size="24.00" fill="#ffffff">lifecycle records, policy</text>
<text text-anchor="start" x="2760" y="-474.3" font-family="Arial" font-size="24.00" fill="#ffffff">rules, audit events, and</text>
<text text-anchor="start" x="2793.5" y="-450.3" font-family="Arial" font-size="24.00" fill="#ffffff">deletion receipts.</text>
</g>
<!-- 39&#45;&gt;47 -->
<g id="153" class="edge">
<title>39&#45;&gt;47</title>
<path fill="none" stroke="#444444" stroke-dasharray="5,2" d="M2292.16,-492.62C2420.02,-521.62 2564.07,-554.3 2678.1,-580.17"/>
<polygon fill="#444444" stroke="#444444" points="2677.46,-583.62 2687.99,-582.42 2679.01,-576.79 2677.46,-583.62"/>
<polygon fill="white" stroke="transparent" points="2328,-571 2328,-646 2652,-646 2652,-571 2328,-571"/>
<text text-anchor="start" x="2332" y="-623.3" font-family="Arial" font-size="24.00" fill="#444444">Reads and advances durable</text>
<text text-anchor="start" x="2364" y="-599.3" font-family="Arial" font-size="24.00" fill="#444444">blob lifecycle records in</text>
<text text-anchor="start" x="2456.5" y="-579.3" font-family="Arial" font-size="19.00" fill="#444444">[sqlite3]</text>
</g>
<!-- 42&#45;&gt;39 -->
<g id="159" class="edge">
<title>42&#45;&gt;39</title>
<path fill="none" stroke="#444444" stroke-dasharray="5,2" d="M1277.07,-405.32C1289.12,-402.44 1301.17,-399.96 1313,-398 1421.43,-380.08 1541.17,-378.76 1648.63,-384.13"/>
<polygon fill="#444444" stroke="#444444" points="1648.49,-387.63 1658.66,-384.66 1648.86,-380.64 1648.49,-387.63"/>
<polygon fill="white" stroke="transparent" points="1313,-398 1313,-458 1623,-458 1623,-398 1313,-398"/>
<text text-anchor="start" x="1317" y="-434.8" font-family="Arial" font-size="24.00" fill="#444444">Reads pending deletion and</text>
<text text-anchor="start" x="1361" y="-408.8" font-family="Arial" font-size="24.00" fill="#444444">lifecycle health from</text>
</g>
<!-- 42&#45;&gt;47 -->
<g id="158" class="edge">
<title>42&#45;&gt;47</title>
<path fill="none" stroke="#444444" stroke-dasharray="5,2" d="M1277.07,-530.64C1388,-559.87 1530.33,-593.9 1659,-614 1953.59,-660.02 2030.04,-652.88 2328,-664 2471.9,-669.37 2508.45,-675.35 2652,-664 2660.42,-663.33 2668.99,-662.53 2677.65,-661.63"/>
<polygon fill="#444444" stroke="#444444" points="2678.27,-665.08 2687.83,-660.52 2677.51,-658.12 2678.27,-665.08"/>
<polygon fill="white" stroke="transparent" points="1861.5,-663 1861.5,-738 2089.5,-738 2089.5,-663 1861.5,-663"/>
<text text-anchor="start" x="1865.5" y="-715.3" font-family="Arial" font-size="24.00" fill="#444444">Checks integrity and</text>
<text text-anchor="start" x="1927" y="-691.3" font-family="Arial" font-size="24.00" fill="#444444">counts in</text>
<text text-anchor="start" x="1942" y="-671.3" font-family="Arial" font-size="19.00" fill="#444444">[sqlite3]</text>
</g>
<!-- 48 -->
<g id="48" class="node">
<title>48</title>
<path fill="#2f95c8" stroke="#20688c" d="M2173,-1200.22C2173,-1218.51 2084.48,-1233.38 1975.5,-1233.38 1866.52,-1233.38 1778,-1218.51 1778,-1200.22 1778,-1200.22 1778,-901.78 1778,-901.78 1778,-883.49 1866.52,-868.62 1975.5,-868.62 2084.48,-868.62 2173,-883.49 2173,-901.78 2173,-901.78 2173,-1200.22 2173,-1200.22"/>
<path fill="none" stroke="#20688c" d="M2173,-1200.22C2173,-1181.92 2084.48,-1167.06 1975.5,-1167.06 1866.52,-1167.06 1778,-1181.92 1778,-1200.22"/>
<text text-anchor="start" x="1854" y="-1135.3" font-family="Arial" font-size="34.00" fill="#ffffff">Local Derivative</text>
<text text-anchor="start" x="1934.5" y="-1101.3" font-family="Arial" font-size="34.00" fill="#ffffff">Store</text>
<text text-anchor="start" x="1835.5" y="-1079.3" font-family="Arial" font-size="19.00" fill="#ffffff">[Container: WSL local filesystem]</text>
<text text-anchor="start" x="1822" y="-1042.3" font-family="Arial" font-size="24.00" fill="#ffffff">Reconstructible compatibility</text>
<text text-anchor="start" x="1807" y="-1018.3" font-family="Arial" font-size="24.00" fill="#ffffff">evidence such as pre&#45;version&#45;9</text>
<text text-anchor="start" x="1845.5" y="-994.3" font-family="Arial" font-size="24.00" fill="#ffffff">clean&#45;text sidecars; new</text>
<text text-anchor="start" x="1852" y="-970.3" font-family="Arial" font-size="24.00" fill="#ffffff">captures create no text</text>
<text text-anchor="start" x="1927" y="-946.3" font-family="Arial" font-size="24.00" fill="#ffffff">sidecars.</text>
</g>
<!-- 42&#45;&gt;48 -->
<g id="160" class="edge">
<title>42&#45;&gt;48</title>
<path fill="none" stroke="#444444" stroke-dasharray="5,2" d="M1185.49,-615.5C1222.25,-659.43 1266.28,-705.66 1313,-741 1451.55,-845.81 1631.22,-927.21 1768.34,-980.25"/>
<polygon fill="#444444" stroke="#444444" points="1767.13,-983.54 1777.72,-983.86 1769.64,-977 1767.13,-983.54"/>
<polygon fill="white" stroke="transparent" points="1339,-911 1339,-962 1597,-962 1597,-911 1339,-911"/>
<text text-anchor="start" x="1343" y="-939.3" font-family="Arial" font-size="24.00" fill="#444444">Counts text blob files in</text>
<text text-anchor="start" x="1416.5" y="-919.3" font-family="Arial" font-size="19.00" fill="#444444">[Filesystem]</text>
</g>
<!-- 49 -->
<g id="49" class="node">
<title>49</title>
<path fill="#2f95c8" stroke="#20688c" d="M2247.5,-1696.22C2247.5,-1717.82 2125.59,-1735.38 1975.5,-1735.38 1825.41,-1735.38 1703.5,-1717.82 1703.5,-1696.22 1703.5,-1696.22 1703.5,-1343.78 1703.5,-1343.78 1703.5,-1322.18 1825.41,-1304.62 1975.5,-1304.62 2125.59,-1304.62 2247.5,-1322.18 2247.5,-1343.78 2247.5,-1343.78 2247.5,-1696.22 2247.5,-1696.22"/>
<path fill="none" stroke="#20688c" d="M2247.5,-1696.22C2247.5,-1674.61 2125.59,-1657.06 1975.5,-1657.06 1825.41,-1657.06 1703.5,-1674.61 1703.5,-1696.22"/>
<text text-anchor="start" x="1820" y="-1628.3" font-family="Arial" font-size="34.00" fill="#ffffff">Guarded Media Blob</text>
<text text-anchor="start" x="1926" y="-1594.3" font-family="Arial" font-size="34.00" fill="#ffffff">Cache</text>
<text text-anchor="start" x="1732.5" y="-1572.3" font-family="Arial" font-size="19.00" fill="#ffffff">[Container: WSL&#45;visible local or NAS&#45;mounted filesystem]</text>
<text text-anchor="start" x="1865.5" y="-1535.3" font-family="Arial" font-size="24.00" fill="#ffffff">Bounded disposable</text>
<text text-anchor="start" x="1810" y="-1511.3" font-family="Arial" font-size="24.00" fill="#ffffff">image/video/audio bytes under</text>
<text text-anchor="start" x="1834" y="-1487.3" font-family="Arial" font-size="24.00" fill="#ffffff">the configured media root;</text>
<text text-anchor="start" x="1861.5" y="-1463.3" font-family="Arial" font-size="24.00" fill="#ffffff">explicit external roots</text>
<text text-anchor="start" x="1876.5" y="-1439.3" font-family="Arial" font-size="24.00" fill="#ffffff">require mount and</text>
<text text-anchor="start" x="1826" y="-1415.3" font-family="Arial" font-size="24.00" fill="#ffffff">identity&#45;marker proof before</text>
<text text-anchor="start" x="1934.5" y="-1391.3" font-family="Arial" font-size="24.00" fill="#ffffff">access.</text>
</g>
<!-- 42&#45;&gt;49 -->
<g id="161" class="edge">
<title>42&#45;&gt;49</title>
<path fill="none" stroke="#444444" stroke-dasharray="5,2" d="M1127.87,-615.55C1166.1,-722.15 1228.51,-869.11 1313,-980 1418.39,-1118.31 1566.07,-1243.24 1695.17,-1338.02"/>
<polygon fill="#444444" stroke="#444444" points="1693.11,-1340.85 1703.25,-1343.93 1697.25,-1335.2 1693.11,-1340.85"/>
<polygon fill="white" stroke="transparent" points="1325.5,-1273 1325.5,-1324 1610.5,-1324 1610.5,-1273 1325.5,-1273"/>
<text text-anchor="start" x="1330" y="-1301.3" font-family="Arial" font-size="24.00" fill="#444444">Counts media blob files in</text>
<text text-anchor="start" x="1417" y="-1281.3" font-family="Arial" font-size="19.00" fill="#444444">[Filesystem]</text>
</g>
<!-- 50 -->
<g id="50" class="node">
<title>50</title>
<path fill="#2f95c8" stroke="#20688c" d="M2168.5,-2228.72C2168.5,-2251.98 2081.99,-2270.88 1975.5,-2270.88 1869.01,-2270.88 1782.5,-2251.98 1782.5,-2228.72 1782.5,-2228.72 1782.5,-1849.28 1782.5,-1849.28 1782.5,-1826.02 1869.01,-1807.12 1975.5,-1807.12 2081.99,-1807.12 2168.5,-1826.02 2168.5,-1849.28 2168.5,-1849.28 2168.5,-2228.72 2168.5,-2228.72"/>
<path fill="none" stroke="#20688c" d="M2168.5,-2228.72C2168.5,-2205.45 2081.99,-2186.56 1975.5,-2186.56 1869.01,-2186.56 1782.5,-2205.45 1782.5,-2228.72"/>
<text text-anchor="start" x="1811.5" y="-2159.3" font-family="Arial" font-size="34.00" fill="#ffffff">Bounded Local Media</text>
<text text-anchor="start" x="1932" y="-2125.3" font-family="Arial" font-size="34.00" fill="#ffffff">Spool</text>
<text text-anchor="start" x="1835.5" y="-2103.3" font-family="Arial" font-size="19.00" fill="#ffffff">[Container: WSL local filesystem]</text>
<text text-anchor="start" x="1823.5" y="-2066.3" font-family="Arial" font-size="24.00" fill="#ffffff">Opt&#45;in durable outage buffer</text>
<text text-anchor="start" x="1827" y="-2042.3" font-family="Arial" font-size="24.00" fill="#ffffff">beneath the local WSL data</text>
<text text-anchor="start" x="1854" y="-2018.3" font-family="Arial" font-size="24.00" fill="#ffffff">root; admission counts</text>
<text text-anchor="start" x="1830" y="-1994.3" font-family="Arial" font-size="24.00" fill="#ffffff">committed files and distinct</text>
<text text-anchor="start" x="1823.5" y="-1970.3" font-family="Arial" font-size="24.00" fill="#ffffff">in&#45;flight SQLite reservations,</text>
<text text-anchor="start" x="1850.5" y="-1946.3" font-family="Arial" font-size="24.00" fill="#ffffff">and drain verifies bytes</text>
<text text-anchor="start" x="1828" y="-1922.3" font-family="Arial" font-size="24.00" fill="#ffffff">before tier transition/source</text>
<text text-anchor="start" x="1929.5" y="-1898.3" font-family="Arial" font-size="24.00" fill="#ffffff">cleanup.</text>
</g>
<!-- 42&#45;&gt;50 -->
<g id="162" class="edge">
<title>42&#45;&gt;50</title>
<path fill="none" stroke="#444444" stroke-dasharray="5,2" d="M1102.06,-615.52C1129.62,-792.21 1191.67,-1102.48 1313,-1342 1423.08,-1559.3 1622.78,-1755.46 1774.06,-1883.91"/>
<polygon fill="#444444" stroke="#444444" points="1772.24,-1886.95 1782.13,-1890.74 1776.76,-1881.61 1772.24,-1886.95"/>
<polygon fill="white" stroke="transparent" points="1323,-1734 1323,-1833 1613,-1833 1613,-1734 1323,-1734"/>
<text text-anchor="start" x="1332.5" y="-1810.3" font-family="Arial" font-size="24.00" fill="#444444">Reports filesystem bytes,</text>
<text text-anchor="start" x="1327" y="-1786.3" font-family="Arial" font-size="24.00" fill="#444444">reservations, and capacity</text>
<text text-anchor="start" x="1453.5" y="-1762.3" font-family="Arial" font-size="24.00" fill="#444444">for</text>
<text text-anchor="start" x="1416.5" y="-1742.3" font-family="Arial" font-size="19.00" fill="#444444">[Filesystem]</text>
</g>
</g>
</svg>
